<?xml version="1.0" encoding="utf-8"?>
<!-- Generator: Adobe Illustrator 16.0.0, SVG Export Plug-In . SVG Version: 6.00 Build 0)  -->
<!DOCTYPE svg PUBLIC "-//W3C//DTD SVG 1.1//EN" "http://www.w3.org/Graphics/SVG/1.1/DTD/svg11.dtd">
<svg preserveAspectRatio="none" version="1.1" id="图层_1" xmlns="http://www.w3.org/2000/svg" xmlns:xlink="http://www.w3.org/1999/xlink" x="0px" y="0px"
	 width="126.039px" height="141.762px" viewBox="7.871 -0.02 126.039 141.762" enable-background="new 7.871 -0.02 126.039 141.762"
	 xml:space="preserve">
<g id="surface241">
	
		<linearGradient id="SVGID_1_" gradientUnits="userSpaceOnUse" x1="298.7803" y1="-294.7573" x2="298.7803" y2="-351.7573" gradientTransform="matrix(0.75 0 0 -0.75 -196.9485 -130.3884)">
		<stop  offset="0" style="stop-color:#C2B39F"/>
		<stop  offset="0.15" style="stop-color:#FDEAD3"/>
		<stop  offset="0.25" style="stop-color:#FEF3E7"/>
		<stop  offset="0.44" style="stop-color:#DECCB6"/>
		<stop  offset="0.6" style="stop-color:#C5B5A2"/>
		<stop  offset="0.8" style="stop-color:#A69988"/>
		<stop  offset="0.97" style="stop-color:#988C7C"/>
	</linearGradient>
	<path fill="url(#SVGID_1_)" d="M8.621,90.68h36.75c0.75,0,1.031,0.328,1.031,0.746l-0.281,41.254c0,0-0.098,0.551-0.543,0.551
		L8.621,133.43c-0.75,0-0.75-0.555-0.75-0.977V91.43c0-0.75,0.34-0.75,0.789-0.75H8.621z"/>
	
		<linearGradient id="SVGID_2_" gradientUnits="userSpaceOnUse" x1="274.0938" y1="-294.7573" x2="274.0938" y2="-351.7573" gradientTransform="matrix(0.75 0 0 -0.75 -161.9338 -130.3884)">
		<stop  offset="0" style="stop-color:#B39D73"/>
		<stop  offset="0.15" style="stop-color:#EBD0A1"/>
		<stop  offset="0.25" style="stop-color:#F4E5CF"/>
		<stop  offset="0.44" style="stop-color:#CDB384"/>
		<stop  offset="0.6" style="stop-color:#B69F75"/>
		<stop  offset="0.8" style="stop-color:#9A8662"/>
		<stop  offset="0.97" style="stop-color:#8C7A59"/>
	</linearGradient>
	<path fill="url(#SVGID_2_)" d="M42.887,90.68h1.5v42.75h-1.5V90.68z"/>
	
		<linearGradient id="SVGID_3_" gradientUnits="userSpaceOnUse" x1="317.5918" y1="-294.7603" x2="317.5918" y2="-358.7603" gradientTransform="matrix(0.75 0 0 -0.75 -160.2136 -132.9724)">
		<stop  offset="0" style="stop-color:#C2B39F"/>
		<stop  offset="0.15" style="stop-color:#FDEAD3"/>
		<stop  offset="0.25" style="stop-color:#FEF3E7"/>
		<stop  offset="0.44" style="stop-color:#DECCB6"/>
		<stop  offset="0.6" style="stop-color:#C5B5A2"/>
		<stop  offset="0.8" style="stop-color:#A69988"/>
		<stop  offset="0.97" style="stop-color:#988C7C"/>
	</linearGradient>
	<path fill="url(#SVGID_3_)" d="M44.605,88.098h66.75v48h-66.75V88.098z"/>
	
		<linearGradient id="SVGID_4_" gradientUnits="userSpaceOnUse" x1="283.5928" y1="-294.7583" x2="283.5928" y2="-374.1909" gradientTransform="matrix(0.75 0 0 -0.75 -93.4993 -138.9011)">
		<stop  offset="0" style="stop-color:#C2B39F"/>
		<stop  offset="0.15" style="stop-color:#FDEAD3"/>
		<stop  offset="0.25" style="stop-color:#FEF3E7"/>
		<stop  offset="0.44" style="stop-color:#DECCB6"/>
		<stop  offset="0.6" style="stop-color:#C5B5A2"/>
		<stop  offset="0.8" style="stop-color:#A69988"/>
		<stop  offset="0.97" style="stop-color:#988C7C"/>
	</linearGradient>
	<path fill="url(#SVGID_4_)" d="M112.07,82.168h14.25c0,0,0.539,0.336,0.539,0.754l0.211,57.746c0,0.75-0.574,1.074-1.023,1.074
		l-13.977-0.324c-0.75,0-0.75-0.027-0.75-0.445V82.918c0-0.75,0.355-0.75,0.805-0.75H112.07z"/>
	
		<linearGradient id="SVGID_5_" gradientUnits="userSpaceOnUse" x1="326.0908" y1="-345.855" x2="273.0908" y2="-345.855" gradientTransform="matrix(0.75 0 0 -0.75 -146.4553 -203.1443)">
		<stop  offset="0" style="stop-color:#C2B39F"/>
		<stop  offset="0.15" style="stop-color:#FDEAD3"/>
		<stop  offset="0.25" style="stop-color:#FEF3E7"/>
		<stop  offset="0.44" style="stop-color:#DECCB6"/>
		<stop  offset="0.6" style="stop-color:#C5B5A2"/>
		<stop  offset="0.8" style="stop-color:#A69988"/>
		<stop  offset="0.97" style="stop-color:#988C7C"/>
	</linearGradient>
	<path fill="url(#SVGID_5_)" d="M58.363,17.926h39.75v69.75c0,0-0.797,6.895-19.938,6.895c-19.063-0.145-19.813-6.523-19.813-6.523
		V17.926z"/>
	
		<linearGradient id="SVGID_6_" gradientUnits="userSpaceOnUse" x1="-474.7563" y1="-142.4214" x2="-494.7563" y2="-142.4214" gradientTransform="matrix(0 -0.75 -0.75 0 -55.6521 -320.115)">
		<stop  offset="0" style="stop-color:#C2B39F"/>
		<stop  offset="0.15" style="stop-color:#FDEAD3"/>
		<stop  offset="0.25" style="stop-color:#FEF3E7"/>
		<stop  offset="0.44" style="stop-color:#DECCB6"/>
		<stop  offset="0.6" style="stop-color:#C5B5A2"/>
		<stop  offset="0.8" style="stop-color:#A69988"/>
		<stop  offset="0.97" style="stop-color:#988C7C"/>
	</linearGradient>
	<path fill="url(#SVGID_6_)" d="M42.117,50.953v-15h16.5c0,0,1.594,0.203,1.594,7.473c-0.094,7.527-1.539,7.527-1.539,7.527H42.117z
		"/>
	
		<linearGradient id="SVGID_7_" gradientUnits="userSpaceOnUse" x1="276.0752" y1="-294.7329" x2="276.0752" y2="-318.7593" gradientTransform="matrix(0.75 0 0 -0.75 -166.7151 -186.4597)">
		<stop  offset="0" style="stop-color:#C2B39F"/>
		<stop  offset="0.15" style="stop-color:#FDEAD3"/>
		<stop  offset="0.25" style="stop-color:#FEF3E7"/>
		<stop  offset="0.44" style="stop-color:#DECCB6"/>
		<stop  offset="0.6" style="stop-color:#C5B5A2"/>
		<stop  offset="0.8" style="stop-color:#A69988"/>
		<stop  offset="0.97" style="stop-color:#988C7C"/>
	</linearGradient>
	<path fill="url(#SVGID_7_)" d="M38.852,34.609h3c0,0,0.441,0.32,0.441,0.738l0.309,16.512c0,0-0.672,0.461-1.121,0.461
		l-2.629,0.289c-0.75,0-0.77-0.633-0.77-1.051l0.02-16.199c0-0.75,0.344-0.77,0.789-0.77L38.852,34.609z"/>
	
		<linearGradient id="SVGID_8_" gradientUnits="userSpaceOnUse" x1="329.0918" y1="-301.2588" x2="273.0918" y2="-301.2588" gradientTransform="matrix(0.75 0 0 -0.75 -147.5813 -203.1443)">
		<stop  offset="0" style="stop-color:#C2B39F"/>
		<stop  offset="0.15" style="stop-color:#FDEAD3"/>
		<stop  offset="0.25" style="stop-color:#FEF3E7"/>
		<stop  offset="0.44" style="stop-color:#DECCB6"/>
		<stop  offset="0.6" style="stop-color:#C5B5A2"/>
		<stop  offset="0.8" style="stop-color:#A69988"/>
		<stop  offset="0.97" style="stop-color:#988C7C"/>
	</linearGradient>
	<path fill="url(#SVGID_8_)" d="M57.988,17.926h40.5c0,0,0.52,0.34,0.52,0.758l0.23,8.242c0,0.75-0.598,0.734-1.047,0.734
		l-40.203,0.016c-0.75,0-0.75-0.367-0.75-0.785v-8.215c0-0.75,0.352-0.75,0.797-0.75H57.988z"/>
	
		<linearGradient id="SVGID_9_" gradientUnits="userSpaceOnUse" x1="369.0898" y1="-306.7451" x2="273.0898" y2="-306.7451" gradientTransform="matrix(0.75 0 0 -0.75 -142.9084 -221.0701)">
		<stop  offset="0" style="stop-color:#3D3B3B"/>
		<stop  offset="0.03" style="stop-color:#908F8F"/>
		<stop  offset="0.08" style="stop-color:#514F4F"/>
		<stop  offset="0.64" style="stop-color:#504E4E"/>
		<stop  offset="0.95" style="stop-color:#4E4C4C"/>
		<stop  offset="1" style="stop-color:#383636"/>
	</linearGradient>
	<path fill="url(#SVGID_9_)" d="M62.66,0h70.5c0,0,0.703,0.32,0.703,0.738L133.91,4.5c0,0.75-0.434,1.031-0.883,1.031L94.16,18
		h-31.5c-0.75,0-0.75-0.43-0.75-0.848V0.75c0-0.75,0.363-0.77,0.809-0.77L62.66,0z"/>
	
		<linearGradient id="SVGID_10_" gradientUnits="userSpaceOnUse" x1="321.0908" y1="-294.7339" x2="321.0908" y2="-302.1343" gradientTransform="matrix(0.75 0 0 -0.75 -142.9084 -221.0701)">
		<stop  offset="0" style="stop-color:#3D3B3B"/>
		<stop  offset="0.03" style="stop-color:#908F8F"/>
		<stop  offset="0.08" style="stop-color:#514F4F"/>
		<stop  offset="0.64" style="stop-color:#504E4E"/>
		<stop  offset="0.95" style="stop-color:#4E4C4C"/>
		<stop  offset="1" style="stop-color:#383636"/>
	</linearGradient>
	<path fill="url(#SVGID_10_)" d="M62.66,0h70.5c0,0,0.703,0.32,0.703,0.738L133.91,4.5c0,0.75-0.434,1.031-0.883,1.031L62.66,5.25
		c-0.75,0-0.75-0.07-0.75-0.492V0.75c0-0.75,0.363-0.77,0.809-0.77L62.66,0z"/>
	
		<linearGradient id="SVGID_11_" gradientUnits="userSpaceOnUse" x1="326.0908" y1="-295.7578" x2="273.0908" y2="-295.7578" gradientTransform="matrix(0.75 0 0 -0.75 -146.4553 -193.4089)">
		<stop  offset="0" style="stop-color:#B39D73"/>
		<stop  offset="0.15" style="stop-color:#EBD0A1"/>
		<stop  offset="0.25" style="stop-color:#F4E5CF"/>
		<stop  offset="0.44" style="stop-color:#CDB384"/>
		<stop  offset="0.6" style="stop-color:#B69F75"/>
		<stop  offset="0.8" style="stop-color:#9A8662"/>
		<stop  offset="0.97" style="stop-color:#8C7A59"/>
	</linearGradient>
	<path fill="url(#SVGID_11_)" d="M58.363,27.66h39.75v1.5h-39.75V27.66z"/>
	
		<linearGradient id="SVGID_12_" gradientUnits="userSpaceOnUse" x1="274.0898" y1="-294.7603" x2="274.0898" y2="-358.7603" gradientTransform="matrix(0.75 0 0 -0.75 -95.3567 -132.9724)">
		<stop  offset="0" style="stop-color:#B39D73"/>
		<stop  offset="0.15" style="stop-color:#EBD0A1"/>
		<stop  offset="0.25" style="stop-color:#F4E5CF"/>
		<stop  offset="0.44" style="stop-color:#CDB384"/>
		<stop  offset="0.6" style="stop-color:#B69F75"/>
		<stop  offset="0.8" style="stop-color:#9A8662"/>
		<stop  offset="0.97" style="stop-color:#8C7A59"/>
	</linearGradient>
	<path fill="url(#SVGID_12_)" d="M109.461,88.098h1.5v48h-1.5V88.098z"/>
	
		<linearGradient id="SVGID_13_" gradientUnits="userSpaceOnUse" x1="275.0918" y1="-323.2588" x2="273.0918" y2="-323.2588" gradientTransform="matrix(0.75 0 0 -0.75 -191.2859 -130.3708)">
		<stop  offset="0" style="stop-color:#C2B39F"/>
		<stop  offset="0.15" style="stop-color:#FDEAD3"/>
		<stop  offset="0.25" style="stop-color:#FEF3E7"/>
		<stop  offset="0.44" style="stop-color:#DECCB6"/>
		<stop  offset="0.6" style="stop-color:#C5B5A2"/>
		<stop  offset="0.8" style="stop-color:#A69988"/>
		<stop  offset="0.97" style="stop-color:#988C7C"/>
	</linearGradient>
	<path fill="url(#SVGID_13_)" d="M13.531,90.699h1.5v42.75h-1.5V90.699z"/>
	
		<linearGradient id="SVGID_14_" gradientUnits="userSpaceOnUse" x1="275.0879" y1="-323.2588" x2="273.0879" y2="-323.2588" gradientTransform="matrix(0.75 0 0 -0.75 -184.7078 -130.3708)">
		<stop  offset="0" style="stop-color:#C2B39F"/>
		<stop  offset="0.15" style="stop-color:#FDEAD3"/>
		<stop  offset="0.25" style="stop-color:#FEF3E7"/>
		<stop  offset="0.44" style="stop-color:#DECCB6"/>
		<stop  offset="0.6" style="stop-color:#C5B5A2"/>
		<stop  offset="0.8" style="stop-color:#A69988"/>
		<stop  offset="0.97" style="stop-color:#988C7C"/>
	</linearGradient>
	<path fill="url(#SVGID_14_)" d="M20.109,90.699h1.5v42.75h-1.5V90.699z"/>
	
		<linearGradient id="SVGID_15_" gradientUnits="userSpaceOnUse" x1="275.0918" y1="-323.2588" x2="273.0918" y2="-323.2588" gradientTransform="matrix(0.75 0 0 -0.75 -178.2068 -130.3708)">
		<stop  offset="0" style="stop-color:#C2B39F"/>
		<stop  offset="0.15" style="stop-color:#FDEAD3"/>
		<stop  offset="0.25" style="stop-color:#FEF3E7"/>
		<stop  offset="0.44" style="stop-color:#DECCB6"/>
		<stop  offset="0.6" style="stop-color:#C5B5A2"/>
		<stop  offset="0.8" style="stop-color:#A69988"/>
		<stop  offset="0.97" style="stop-color:#988C7C"/>
	</linearGradient>
	<path fill="url(#SVGID_15_)" d="M26.613,90.699h1.5v42.75h-1.5V90.699z"/>
	
		<linearGradient id="SVGID_16_" gradientUnits="userSpaceOnUse" x1="278.5127" y1="-294.7583" x2="278.5127" y2="-304.9302" gradientTransform="matrix(0.75 0 0 -0.75 -131.7927 -208.0759)">
		<stop  offset="0" style="stop-color:#BF9A23"/>
		<stop  offset="0.15" style="stop-color:#F9CE54"/>
		<stop  offset="0.25" style="stop-color:#FCE4B6"/>
		<stop  offset="0.52" style="stop-color:#DAB12A"/>
		<stop  offset="0.69" style="stop-color:#C29D24"/>
		<stop  offset="0.8" style="stop-color:#B79421"/>
		<stop  offset="0.97" style="stop-color:#AD8B1F"/>
		<stop  offset="1" style="stop-color:#C7A125"/>
	</linearGradient>
	<path fill="url(#SVGID_16_)" d="M73.027,16.742c0-2.25,1.816-3.75,4.063-3.75c1.938,0,4.063,1.707,4.063,3.816
		c0.125,2.184-1.82,3.813-4.063,3.813c-2.563-0.129-4.063-1.707-4.063-3.813V16.742z"/>
	
		<linearGradient id="SVGID_17_" gradientUnits="userSpaceOnUse" x1="281.3398" y1="-294.2847" x2="273.6306" y2="-303.4721" gradientTransform="matrix(0.75 0 0 -0.75 -131.0305 -207.3601)">
		<stop  offset="0" style="stop-color:#FCE4B6"/>
		<stop  offset="0.52" style="stop-color:#DAB12A"/>
		<stop  offset="1" style="stop-color:#C29D24"/>
	</linearGradient>
	<path fill="url(#SVGID_17_)" d="M73.789,16.707c0-1.5,1.477-3,3.301-3c1.949,0,3.297,1.391,3.297,3.102
		c0.152,1.398-1.477,3.098-3.297,3.098c-1.801-0.199-3.301-1.387-3.301-3.098V16.707z"/>
</g>
</svg>
