<?xml version="1.0" encoding="utf-8"?>
<!-- Generator: Adobe Illustrator 16.0.0, SVG Export Plug-In . SVG Version: 6.00 Build 0)  -->
<!DOCTYPE svg PUBLIC "-//W3C//DTD SVG 1.1//EN" "http://www.w3.org/Graphics/SVG/1.1/DTD/svg11.dtd">
<svg preserveAspectRatio="none" version="1.1" id="图层_1" xmlns="http://www.w3.org/2000/svg" xmlns:xlink="http://www.w3.org/1999/xlink" x="0px" y="0px"
	 width="95.363px" height="140.004px" viewBox="23.238 0.734 95.363 140.004" enable-background="new 23.238 0.734 95.363 140.004"
	 xml:space="preserve">
<g id="surface176">
	
		<linearGradient id="SVGID_1_" gradientUnits="userSpaceOnUse" x1="276.5908" y1="-294.7612" x2="276.5908" y2="-330.2036" gradientTransform="matrix(0.75 0 0 -0.75 -181.5808 -107.3708)">
		<stop  offset="0" style="stop-color:#C2B39F"/>
		<stop  offset="0.15" style="stop-color:#FDEAD3"/>
		<stop  offset="0.25" style="stop-color:#FEF3E7"/>
		<stop  offset="0.52" style="stop-color:#DECCB6"/>
		<stop  offset="0.69" style="stop-color:#C5B5A2"/>
		<stop  offset="0.8" style="stop-color:#BAAB98"/>
		<stop  offset="0.97" style="stop-color:#B0A190"/>
		<stop  offset="1" style="stop-color:#CABAA5"/>
	</linearGradient>
	<path fill="url(#SVGID_1_)" d="M24.738,113.699h2.25c0.75,0,1.387,0.277,1.387,0.621l0.113,25.629c0,0-0.691,0.332-1.398,0.332
		l-2.352-0.332c-0.75,0-1.5,0.043-1.5-0.297v-25.203c0-0.75,0.57-0.75,1.281-0.75H24.738z"/>
	
		<linearGradient id="SVGID_2_" gradientUnits="userSpaceOnUse" x1="276.5928" y1="-294.7612" x2="276.5928" y2="-330.2036" gradientTransform="matrix(0.75 0 0 -0.75 -91.468 -107.3708)">
		<stop  offset="0" style="stop-color:#C2B39F"/>
		<stop  offset="0.15" style="stop-color:#FDEAD3"/>
		<stop  offset="0.25" style="stop-color:#FEF3E7"/>
		<stop  offset="0.52" style="stop-color:#DECCB6"/>
		<stop  offset="0.69" style="stop-color:#C5B5A2"/>
		<stop  offset="0.8" style="stop-color:#BAAB98"/>
		<stop  offset="0.97" style="stop-color:#B0A190"/>
		<stop  offset="1" style="stop-color:#CABAA5"/>
	</linearGradient>
	<path fill="url(#SVGID_2_)" d="M114.852,113.699h2.25c0.75,0,1.387,0.277,1.387,0.621l0.113,25.629c0,0-0.691,0.332-1.402,0.332
		l-2.348-0.332c-0.75,0-1.5,0.043-1.5-0.297v-25.203c0-0.75,0.57-0.75,1.281-0.75H114.852z"/>
	
		<linearGradient id="SVGID_3_" gradientUnits="userSpaceOnUse" x1="277.5908" y1="-294.7573" x2="277.5908" y2="-313.7573" gradientTransform="matrix(0.75 0 0 -0.75 -176.5725 -101.1228)">
		<stop  offset="0" style="stop-color:#C2B39F"/>
		<stop  offset="0.15" style="stop-color:#FDEAD3"/>
		<stop  offset="0.25" style="stop-color:#FEF3E7"/>
		<stop  offset="0.52" style="stop-color:#DECCB6"/>
		<stop  offset="0.69" style="stop-color:#C5B5A2"/>
		<stop  offset="0.8" style="stop-color:#BAAB98"/>
		<stop  offset="0.97" style="stop-color:#B0A190"/>
		<stop  offset="1" style="stop-color:#CABAA5"/>
	</linearGradient>
	<path fill="url(#SVGID_3_)" d="M34.996,119.945h-6.75v14.25h6.75V119.945z"/>
	
		<linearGradient id="SVGID_4_" gradientUnits="userSpaceOnUse" x1="277.5928" y1="-294.7573" x2="277.5928" y2="-313.7573" gradientTransform="matrix(0.75 0 0 -0.75 -98.4797 -101.1228)">
		<stop  offset="0" style="stop-color:#C2B39F"/>
		<stop  offset="0.15" style="stop-color:#FDEAD3"/>
		<stop  offset="0.25" style="stop-color:#FEF3E7"/>
		<stop  offset="0.52" style="stop-color:#DECCB6"/>
		<stop  offset="0.69" style="stop-color:#C5B5A2"/>
		<stop  offset="0.8" style="stop-color:#BAAB98"/>
		<stop  offset="0.97" style="stop-color:#B0A190"/>
		<stop  offset="1" style="stop-color:#CABAA5"/>
	</linearGradient>
	<path fill="url(#SVGID_4_)" d="M106.34,119.945h6.75v14.25h-6.75V119.945z"/>
	
		<linearGradient id="SVGID_5_" gradientUnits="userSpaceOnUse" x1="274.5928" y1="-294.7603" x2="274.5928" y2="-325.7603" gradientTransform="matrix(0.75 0 0 -0.75 -100.988 -105.8904)">
		<stop  offset="0" style="stop-color:#C2B39F"/>
		<stop  offset="0.15" style="stop-color:#FDEAD3"/>
		<stop  offset="0.25" style="stop-color:#FEF3E7"/>
		<stop  offset="0.52" style="stop-color:#DECCB6"/>
		<stop  offset="0.69" style="stop-color:#C5B5A2"/>
		<stop  offset="0.8" style="stop-color:#BAAB98"/>
		<stop  offset="0.97" style="stop-color:#B0A190"/>
		<stop  offset="1" style="stop-color:#CABAA5"/>
	</linearGradient>
	<path fill="url(#SVGID_5_)" d="M106.082,115.18h-2.25v23.25h2.25V115.18z"/>
	
		<linearGradient id="SVGID_6_" gradientUnits="userSpaceOnUse" x1="317.0889" y1="-294.7622" x2="317.0889" y2="-331.7622" gradientTransform="matrix(0.75 0 0 -0.75 -166.9929 -108.0828)">
		<stop  offset="0" style="stop-color:#C2B39F"/>
		<stop  offset="0.15" style="stop-color:#FDEAD3"/>
		<stop  offset="0.25" style="stop-color:#FEF3E7"/>
		<stop  offset="0.52" style="stop-color:#DECCB6"/>
		<stop  offset="0.69" style="stop-color:#C5B5A2"/>
		<stop  offset="0.8" style="stop-color:#BAAB98"/>
		<stop  offset="0.97" style="stop-color:#B0A190"/>
		<stop  offset="1" style="stop-color:#CABAA5"/>
	</linearGradient>
	<path fill="url(#SVGID_6_)" d="M37.824,112.988h66v27.75h-66V112.988z"/>
	
		<linearGradient id="SVGID_7_" gradientUnits="userSpaceOnUse" x1="273.5889" y1="-294.7622" x2="273.5889" y2="-331.7622" gradientTransform="matrix(0.75 0 0 -0.75 -101.4812 -108.0828)">
		<stop  offset="0" style="stop-color:#C2B39F"/>
		<stop  offset="0.15" style="stop-color:#FDEAD3"/>
		<stop  offset="0.25" style="stop-color:#FEF3E7"/>
		<stop  offset="0.52" style="stop-color:#DECCB6"/>
		<stop  offset="0.69" style="stop-color:#C5B5A2"/>
		<stop  offset="0.8" style="stop-color:#BAAB98"/>
		<stop  offset="0.97" style="stop-color:#B0A190"/>
		<stop  offset="1" style="stop-color:#CABAA5"/>
	</linearGradient>
	<path fill="url(#SVGID_7_)" d="M103.336,112.988h0.75v27.75h-0.75V112.988z"/>
	
		<linearGradient id="SVGID_8_" gradientUnits="userSpaceOnUse" x1="274.5908" y1="-294.7603" x2="274.5908" y2="-325.7603" gradientTransform="matrix(0.75 0 0 -0.75 -169.5764 -105.8904)">
		<stop  offset="0" style="stop-color:#C2B39F"/>
		<stop  offset="0.15" style="stop-color:#FDEAD3"/>
		<stop  offset="0.25" style="stop-color:#FEF3E7"/>
		<stop  offset="0.52" style="stop-color:#DECCB6"/>
		<stop  offset="0.69" style="stop-color:#C5B5A2"/>
		<stop  offset="0.8" style="stop-color:#BAAB98"/>
		<stop  offset="0.97" style="stop-color:#B0A190"/>
		<stop  offset="1" style="stop-color:#CABAA5"/>
	</linearGradient>
	<path fill="url(#SVGID_8_)" d="M37.492,115.18h-2.25v23.25h2.25V115.18z"/>
	
		<linearGradient id="SVGID_9_" gradientUnits="userSpaceOnUse" x1="273.5898" y1="-294.7622" x2="273.5898" y2="-331.7622" gradientTransform="matrix(0.75 0 0 -0.75 -167.0403 -108.0828)">
		<stop  offset="0" style="stop-color:#C2B39F"/>
		<stop  offset="0.15" style="stop-color:#FDEAD3"/>
		<stop  offset="0.25" style="stop-color:#FEF3E7"/>
		<stop  offset="0.52" style="stop-color:#DECCB6"/>
		<stop  offset="0.69" style="stop-color:#C5B5A2"/>
		<stop  offset="0.8" style="stop-color:#BAAB98"/>
		<stop  offset="0.97" style="stop-color:#B0A190"/>
		<stop  offset="1" style="stop-color:#CABAA5"/>
	</linearGradient>
	<path fill="url(#SVGID_9_)" d="M37.777,112.988h0.75v27.75h-0.75V112.988z"/>
	
		<linearGradient id="SVGID_10_" gradientUnits="userSpaceOnUse" x1="324.0898" y1="-303.7588" x2="273.0898" y2="-303.7588" gradientTransform="matrix(0.75 0 0 -0.75 -153.0759 -130.9216)">
		<stop  offset="0" style="stop-color:#B3A593"/>
		<stop  offset="0.03" style="stop-color:#FDEEDA"/>
		<stop  offset="0.08" style="stop-color:#E9D7BF"/>
		<stop  offset="0.64" style="stop-color:#E5D3BC"/>
		<stop  offset="0.95" style="stop-color:#E0CEB8"/>
		<stop  offset="1" style="stop-color:#A69988"/>
	</linearGradient>
	<path fill="url(#SVGID_10_)" d="M51.742,103.648h38.25l-12.75-13.5h-12.75L51.742,103.648z"/>
	
		<linearGradient id="SVGID_11_" gradientUnits="userSpaceOnUse" x1="290.0889" y1="-310.2588" x2="273.0889" y2="-310.2588" gradientTransform="matrix(0.75 0 0 -0.75 -140.4817 -190.6521)">
		<stop  offset="0" style="stop-color:#C4AA84"/>
		<stop  offset="0.15" style="stop-color:#FFE0B3"/>
		<stop  offset="0.25" style="stop-color:#FFEED7"/>
		<stop  offset="0.52" style="stop-color:#DFC297"/>
		<stop  offset="0.69" style="stop-color:#C7AD86"/>
		<stop  offset="0.8" style="stop-color:#BCA37E"/>
		<stop  offset="0.97" style="stop-color:#B19A77"/>
		<stop  offset="1" style="stop-color:#CBB189"/>
	</linearGradient>
	<path fill="url(#SVGID_11_)" d="M64.336,53.668h12.75v-23.25h-12.75V53.668z"/>
	
		<linearGradient id="SVGID_12_" gradientUnits="userSpaceOnUse" x1="294.0928" y1="-297.2485" x2="273.0928" y2="-297.2485" gradientTransform="matrix(0.75 0 0 -0.75 -141.7419 -192.574)">
		<stop  offset="0" style="stop-color:#C2B39F"/>
		<stop  offset="0.15" style="stop-color:#FDEAD3"/>
		<stop  offset="0.25" style="stop-color:#FEF3E7"/>
		<stop  offset="0.52" style="stop-color:#DECCB6"/>
		<stop  offset="0.69" style="stop-color:#C5B5A2"/>
		<stop  offset="0.8" style="stop-color:#BAAB98"/>
		<stop  offset="0.97" style="stop-color:#B0A190"/>
		<stop  offset="1" style="stop-color:#CABAA5"/>
	</linearGradient>
	<path fill="url(#SVGID_12_)" d="M63.078,28.496h15c0.75,0,0.578,0.117,0.578,0.281l0.172,2.719c0,0-0.32,0.484-0.496,0.484
		l-15.254,0.266c0,0,0-0.402,0-0.566V28.496c0,0,0.141-0.016,0.313-0.016L63.078,28.496z"/>
	
		<linearGradient id="SVGID_13_" gradientUnits="userSpaceOnUse" x1="276.0938" y1="631.4902" x2="273.0938" y2="631.4902" gradientTransform="matrix(0.75 0 0 0.75 -133.6213 -465.0979)">
		<stop  offset="0" style="stop-color:#BDA47F"/>
		<stop  offset="0.15" style="stop-color:#FFE0B3"/>
		<stop  offset="0.25" style="stop-color:#FFEED7"/>
		<stop  offset="0.52" style="stop-color:#DFC297"/>
		<stop  offset="0.69" style="stop-color:#C7AD86"/>
		<stop  offset="0.8" style="stop-color:#BCA37E"/>
		<stop  offset="0.92" style="stop-color:#B19A77"/>
		<stop  offset="1" style="stop-color:#CBB189"/>
	</linearGradient>
	<path fill="url(#SVGID_13_)" d="M71.199,13.02h2.25v-9h-2.25V13.02z"/>
	
		<linearGradient id="SVGID_14_" gradientUnits="userSpaceOnUse" x1="299.5898" y1="637.4912" x2="299.5898" y2="634.4912" gradientTransform="matrix(0.75 0 0 0.75 -174.2083 -475.134)">
		<stop  offset="0" style="stop-color:#BDA47F"/>
		<stop  offset="0.15" style="stop-color:#FFE0B3"/>
		<stop  offset="0.25" style="stop-color:#FFEED7"/>
		<stop  offset="0.52" style="stop-color:#DFC297"/>
		<stop  offset="0.69" style="stop-color:#C7AD86"/>
		<stop  offset="0.8" style="stop-color:#BCA37E"/>
		<stop  offset="0.92" style="stop-color:#B19A77"/>
		<stop  offset="1" style="stop-color:#CBB189"/>
	</linearGradient>
	<path fill="url(#SVGID_14_)" d="M30.609,0.734v2.25h39.75v-2.25H30.609z"/>
	
		<linearGradient id="SVGID_15_" gradientUnits="userSpaceOnUse" x1="276.0898" y1="592.4902" x2="273.0898" y2="592.4902" gradientTransform="matrix(0.75 0 0 0.75 -177.5491 -406.6711)">
		<stop  offset="0" style="stop-color:#BDA47F"/>
		<stop  offset="0.15" style="stop-color:#FFE0B3"/>
		<stop  offset="0.25" style="stop-color:#FFEED7"/>
		<stop  offset="0.52" style="stop-color:#DFC297"/>
		<stop  offset="0.69" style="stop-color:#C7AD86"/>
		<stop  offset="0.8" style="stop-color:#BCA37E"/>
		<stop  offset="0.92" style="stop-color:#B19A77"/>
		<stop  offset="1" style="stop-color:#CBB189"/>
	</linearGradient>
	<path fill="url(#SVGID_15_)" d="M27.27,71.445h2.25v-67.5h-2.25V71.445z"/>
	
		<linearGradient id="SVGID_16_" gradientUnits="userSpaceOnUse" x1="-330.96" y1="-298.7207" x2="-325.3651" y2="-295.4905" gradientTransform="matrix(-0.75 0 0 -0.75 -217.0271 -220.3318)">
		<stop  offset="0" style="stop-color:#C7AD86"/>
		<stop  offset="0.15" style="stop-color:#FFE6C5"/>
		<stop  offset="0.25" style="stop-color:#FFE8C9"/>
		<stop  offset="0.52" style="stop-color:#DFC297"/>
		<stop  offset="0.69" style="stop-color:#C7AD86"/>
		<stop  offset="0.8" style="stop-color:#BCA37E"/>
		<stop  offset="0.92" style="stop-color:#B19A77"/>
	</linearGradient>
	<path fill="url(#SVGID_16_)" d="M30.742,0.738c0,0-1.797,0.047-2.656,1.008c-1.094,1.242-0.703,2.473-0.703,2.473l2.609,0.27
		c0,0-0.27-1.148,0.75-1.504V0.738z"/>
	
		<linearGradient id="SVGID_17_" gradientUnits="userSpaceOnUse" x1="272.6104" y1="-298.9404" x2="278.4204" y2="-295.586" gradientTransform="matrix(0.75 0 0 -0.75 -134.8162 -220.3308)">
		<stop  offset="0" style="stop-color:#C7AD86"/>
		<stop  offset="0.15" style="stop-color:#FFE6C5"/>
		<stop  offset="0.25" style="stop-color:#FFE8C9"/>
		<stop  offset="0.52" style="stop-color:#DFC297"/>
		<stop  offset="0.69" style="stop-color:#C7AD86"/>
		<stop  offset="0.8" style="stop-color:#BCA37E"/>
		<stop  offset="0.92" style="stop-color:#B19A77"/>
	</linearGradient>
	<path fill="url(#SVGID_17_)" d="M70.004,0.738c0,0,1.941,0.051,2.867,1.09c0.883,1.16,0.762,2.668,0.762,2.668l-2.879-0.008
		c0,0,0.352-0.941-0.75-1.32V0.738z"/>
	
		<linearGradient id="SVGID_18_" gradientUnits="userSpaceOnUse" x1="310.3633" y1="-297.3872" x2="273.0928" y2="-297.3872" gradientTransform="matrix(0.75 0 0 -0.75 -147.9294 -196.4216)">
		<stop  offset="0" style="stop-color:#C2B39F"/>
		<stop  offset="0.15" style="stop-color:#FDEAD3"/>
		<stop  offset="0.25" style="stop-color:#FEF3E7"/>
		<stop  offset="0.52" style="stop-color:#DECCB6"/>
		<stop  offset="0.69" style="stop-color:#C5B5A2"/>
		<stop  offset="0.8" style="stop-color:#BAAB98"/>
		<stop  offset="0.97" style="stop-color:#B0A190"/>
		<stop  offset="1" style="stop-color:#CABAA5"/>
	</linearGradient>
	<path fill="url(#SVGID_18_)" d="M56.891,24.648h27.75c0,0,0.203,0.148,0.203,0.344l-0.203,3.406c0,0,0.039,0.203-0.168,0.203
		l-27.582-0.203c0,0,0,0.047,0-0.148V24.648c0,0,0.145-0.012,0.348-0.012L56.891,24.648z"/>
	
		<linearGradient id="SVGID_19_" gradientUnits="userSpaceOnUse" x1="327.0908" y1="-297.2466" x2="273.0908" y2="-297.2466" gradientTransform="matrix(0.75 0 0 -0.75 -154.1545 -200.0837)">
		<stop  offset="0" style="stop-color:#C2B39F"/>
		<stop  offset="0.15" style="stop-color:#FDEAD3"/>
		<stop  offset="0.25" style="stop-color:#FEF3E7"/>
		<stop  offset="0.52" style="stop-color:#DECCB6"/>
		<stop  offset="0.69" style="stop-color:#C5B5A2"/>
		<stop  offset="0.8" style="stop-color:#BAAB98"/>
		<stop  offset="0.97" style="stop-color:#B0A190"/>
		<stop  offset="1" style="stop-color:#CABAA5"/>
	</linearGradient>
	<path fill="url(#SVGID_19_)" d="M50.664,20.984h39.75c0.75,0,0.652,0.141,0.652,0.336l0.098,2.664c0,0.75-0.262,0.652-0.465,0.652
		l-40.035,0.098c0,0,0-0.254,0-0.449V20.984c0,0,0.145-0.016,0.352-0.016L50.664,20.984z"/>
	
		<linearGradient id="SVGID_20_" gradientUnits="userSpaceOnUse" x1="310.3633" y1="634.8643" x2="273.0928" y2="634.8643" gradientTransform="matrix(0.75 0 0 0.75 -147.9294 -461.1531)">
		<stop  offset="0" style="stop-color:#C2B39F"/>
		<stop  offset="0.15" style="stop-color:#FDEAD3"/>
		<stop  offset="0.25" style="stop-color:#FEF3E7"/>
		<stop  offset="0.52" style="stop-color:#DECCB6"/>
		<stop  offset="0.69" style="stop-color:#C5B5A2"/>
		<stop  offset="0.8" style="stop-color:#BAAB98"/>
		<stop  offset="0.97" style="stop-color:#B0A190"/>
		<stop  offset="1" style="stop-color:#CABAA5"/>
	</linearGradient>
	<path fill="url(#SVGID_20_)" d="M56.891,16.965h27.75c0,0,0.203-0.148,0.203-0.344l-0.203-3.406c0,0,0.039-0.203-0.168-0.203
		l-27.582,0.203c0,0,0-0.047,0,0.148V16.965c0,0,0.145,0.012,0.348,0.012L56.891,16.965z"/>
	
		<linearGradient id="SVGID_21_" gradientUnits="userSpaceOnUse" x1="327.0908" y1="635.0049" x2="273.0908" y2="635.0049" gradientTransform="matrix(0.75 0 0 0.75 -154.1545 -457.491)">
		<stop  offset="0" style="stop-color:#C2B39F"/>
		<stop  offset="0.15" style="stop-color:#FDEAD3"/>
		<stop  offset="0.25" style="stop-color:#FEF3E7"/>
		<stop  offset="0.52" style="stop-color:#DECCB6"/>
		<stop  offset="0.69" style="stop-color:#C5B5A2"/>
		<stop  offset="0.8" style="stop-color:#BAAB98"/>
		<stop  offset="0.97" style="stop-color:#B0A190"/>
		<stop  offset="1" style="stop-color:#CABAA5"/>
	</linearGradient>
	<path fill="url(#SVGID_21_)" d="M50.664,20.629h39.75c0.75,0,0.652-0.141,0.652-0.336l0.098-2.664c0-0.75-0.262-0.652-0.465-0.652
		l-40.035-0.098c0,0,0,0.254,0,0.449V20.629c0,0,0.145,0.016,0.352,0.016L50.664,20.629z"/>
	
		<linearGradient id="SVGID_22_" gradientUnits="userSpaceOnUse" x1="310.0928" y1="-317.7598" x2="273.0928" y2="-317.7598" gradientTransform="matrix(0.75 0 0 -0.75 -147.6482 -165.3669)">
		<stop  offset="0" style="stop-color:#B3A593"/>
		<stop  offset="0.03" style="stop-color:#FDEEDA"/>
		<stop  offset="0.08" style="stop-color:#E9D7BF"/>
		<stop  offset="0.64" style="stop-color:#E5D3BC"/>
		<stop  offset="0.95" style="stop-color:#E0CEB8"/>
		<stop  offset="1" style="stop-color:#A69988"/>
	</linearGradient>
	<path fill="url(#SVGID_22_)" d="M61.672,55.703h18l5.25,4.5v25.5l-5.25,4.5h-18l-4.5-4.5v-25.5L61.672,55.703z"/>
	
		<linearGradient id="SVGID_23_" gradientUnits="userSpaceOnUse" x1="303.0889" y1="-312.2598" x2="273.0889" y2="-312.2598" gradientTransform="matrix(0.75 0 0 -0.75 -145.0242 -167.9578)">
		<stop  offset="0" style="stop-color:#B3A593"/>
		<stop  offset="0.03" style="stop-color:#FDEEDA"/>
		<stop  offset="0.08" style="stop-color:#E9D7BF"/>
		<stop  offset="0.64" style="stop-color:#E5D3BC"/>
		<stop  offset="0.95" style="stop-color:#E0CEB8"/>
		<stop  offset="1" style="stop-color:#A69988"/>
	</linearGradient>
	<path fill="url(#SVGID_23_)" d="M59.793,53.113h21.75c0,0,0.395,0.102,0.395,0.227l0.355,25.273c0,0-0.461,0.402-0.598,0.402
		l-21.902,0.348c0,0,0-0.449,0-0.578V53.113c0,0,0.109,0,0.242,0H59.793z"/>
	
		<linearGradient id="SVGID_24_" gradientUnits="userSpaceOnUse" x1="277.3096" y1="-301.7568" x2="273.0908" y2="-301.7568" gradientTransform="matrix(0.75 0 0 -0.75 -142.0217 -142.0525)">
		<stop  offset="0" style="stop-color:#B59D79"/>
		<stop  offset="0.03" style="stop-color:#FFE5C1"/>
		<stop  offset="0.08" style="stop-color:#EBCC9F"/>
		<stop  offset="0.64" style="stop-color:#E7C99C"/>
		<stop  offset="0.95" style="stop-color:#E2C499"/>
		<stop  offset="1" style="stop-color:#A89170"/>
	</linearGradient>
	<path fill="url(#SVGID_24_)" d="M62.797,79.016h3c0,0,0.164,0.105,0.164,0.23l-0.164,9.52c0,0,0.055,0.469-0.078,0.469
		l-2.922,0.281c0,0,0-0.383,0-0.512V79.016c0,0,0.109,0,0.242,0H62.797z"/>
	
		<linearGradient id="SVGID_25_" gradientUnits="userSpaceOnUse" x1="277.3105" y1="-301.7568" x2="273.0918" y2="-301.7568" gradientTransform="matrix(0.75 0 0 -0.75 -128.9407 -142.0525)">
		<stop  offset="0" style="stop-color:#B59D79"/>
		<stop  offset="0.03" style="stop-color:#FFE5C1"/>
		<stop  offset="0.08" style="stop-color:#EBCC9F"/>
		<stop  offset="0.64" style="stop-color:#E7C99C"/>
		<stop  offset="0.95" style="stop-color:#E2C499"/>
		<stop  offset="1" style="stop-color:#A89170"/>
	</linearGradient>
	<path fill="url(#SVGID_25_)" d="M75.879,79.016h3c0,0,0.164,0.105,0.164,0.23l-0.164,9.52c0,0,0.055,0.469-0.078,0.469
		l-2.922,0.281c0,0,0-0.383,0-0.512V79.016c0,0,0.105,0,0.238,0H75.879z"/>
	
		<linearGradient id="SVGID_26_" gradientUnits="userSpaceOnUse" x1="303.0889" y1="-296.2856" x2="273.0889" y2="-296.2856" gradientTransform="matrix(0.75 0 0 -0.75 -145.0242 -144.3552)">
		<stop  offset="0" style="stop-color:#B59D79"/>
		<stop  offset="0.03" style="stop-color:#FFE5C1"/>
		<stop  offset="0.08" style="stop-color:#EBCC9F"/>
		<stop  offset="0.64" style="stop-color:#E7C99C"/>
		<stop  offset="0.95" style="stop-color:#E2C499"/>
		<stop  offset="1" style="stop-color:#A89170"/>
	</linearGradient>
	<path fill="url(#SVGID_26_)" d="M59.793,76.715h21.75c0,0,0.453,0.094,0.453,0.219l0.297,2.031c0,0-0.461,0.051-0.598,0.051
		l-21.902-0.051c0,0,0-0.051,0-0.18V76.715c0,0,0.16-0.012,0.293-0.012L59.793,76.715z"/>
	
		<linearGradient id="SVGID_27_" gradientUnits="userSpaceOnUse" x1="292.5928" y1="637.4932" x2="292.5928" y2="634.4932" gradientTransform="matrix(0.75 0 0 0.75 -174.2527 -403.636)">
		<stop  offset="0" style="stop-color:#BDA47F"/>
		<stop  offset="0.15" style="stop-color:#FFE0B3"/>
		<stop  offset="0.25" style="stop-color:#FFEED7"/>
		<stop  offset="0.52" style="stop-color:#DFC297"/>
		<stop  offset="0.69" style="stop-color:#C7AD86"/>
		<stop  offset="0.8" style="stop-color:#BCA37E"/>
		<stop  offset="0.92" style="stop-color:#B19A77"/>
		<stop  offset="1" style="stop-color:#CBB189"/>
	</linearGradient>
	<path fill="url(#SVGID_27_)" d="M30.566,72.234v2.25h29.25v-2.25H30.566z"/>
	
		<linearGradient id="SVGID_28_" gradientUnits="userSpaceOnUse" x1="-330.9604" y1="633.5322" x2="-325.3656" y2="636.7624" gradientTransform="matrix(-0.75 0 0 0.75 -217.1306 -403.6355)">
		<stop  offset="0" style="stop-color:#C7AD86"/>
		<stop  offset="0.15" style="stop-color:#FFE6C5"/>
		<stop  offset="0.25" style="stop-color:#FFE8C9"/>
		<stop  offset="0.52" style="stop-color:#DFC297"/>
		<stop  offset="0.69" style="stop-color:#C7AD86"/>
		<stop  offset="0.8" style="stop-color:#BCA37E"/>
		<stop  offset="0.92" style="stop-color:#B19A77"/>
	</linearGradient>
	<path fill="url(#SVGID_28_)" d="M30.637,74.484c0,0-1.797-0.047-2.652-1.012c-1.098-1.238-0.707-2.469-0.707-2.469l2.609-0.27
		c0,0-0.27,1.148,0.75,1.5V74.484z"/>
	
		<linearGradient id="SVGID_29_" gradientUnits="userSpaceOnUse" x1="324.0908" y1="-301.4287" x2="273.0908" y2="-301.4287" gradientTransform="matrix(0.75 0 0 -0.75 -153.0764 -115.1462)">
		<stop  offset="0" style="stop-color:#C2B39F"/>
		<stop  offset="0.15" style="stop-color:#FDEAD3"/>
		<stop  offset="0.25" style="stop-color:#FEF3E7"/>
		<stop  offset="0.52" style="stop-color:#DECCB6"/>
		<stop  offset="0.69" style="stop-color:#C5B5A2"/>
		<stop  offset="0.8" style="stop-color:#BAAB98"/>
		<stop  offset="0.97" style="stop-color:#B0A190"/>
		<stop  offset="1" style="stop-color:#CABAA5"/>
	</linearGradient>
	<path fill="url(#SVGID_29_)" d="M89.992,105.922h-38.25v7.5c0,0,0.57,2.492,19.512,2.508c17.988-0.258,18.734-2.789,18.734-2.789
		L89.992,105.922z"/>
	
		<linearGradient id="SVGID_30_" gradientUnits="userSpaceOnUse" x1="327.3594" y1="-296.8296" x2="273.0898" y2="-296.8296" gradientTransform="matrix(0.75 0 0 -0.75 -154.4543 -118.2634)">
		<stop  offset="0" style="stop-color:#C4AA84"/>
		<stop  offset="0.15" style="stop-color:#FFE0B3"/>
		<stop  offset="0.25" style="stop-color:#FFEED7"/>
		<stop  offset="0.52" style="stop-color:#DFC297"/>
		<stop  offset="0.69" style="stop-color:#C7AD86"/>
		<stop  offset="0.8" style="stop-color:#BCA37E"/>
		<stop  offset="0.97" style="stop-color:#B19A77"/>
		<stop  offset="1" style="stop-color:#CBB189"/>
	</linearGradient>
	<path fill="url(#SVGID_30_)" d="M50.363,102.805h40.5c0,0,0.203,0.129,0.203,0.293l-0.203,2.707c0,0,0.055,0.117-0.121,0.117
		l-40.379-0.117c0,0,0-0.016,0-0.18V102.805c0,0,0.141-0.008,0.316-0.008L50.363,102.805z"/>
	
		<linearGradient id="SVGID_31_" gradientUnits="userSpaceOnUse" x1="327.0918" y1="-295.2588" x2="273.0918" y2="-295.2588" gradientTransform="matrix(0.75 0 0 -0.75 -154.0852 -200.8591)">
		<stop  offset="0" style="stop-color:#B39D73"/>
		<stop  offset="0.15" style="stop-color:#EBD0A1"/>
		<stop  offset="0.25" style="stop-color:#F4E5CF"/>
		<stop  offset="0.52" style="stop-color:#CDB384"/>
		<stop  offset="0.69" style="stop-color:#B69F75"/>
		<stop  offset="0.8" style="stop-color:#AC966E"/>
		<stop  offset="0.97" style="stop-color:#A28E68"/>
		<stop  offset="1" style="stop-color:#BAA378"/>
	</linearGradient>
	<path fill="url(#SVGID_31_)" d="M50.734,20.211h40.5v0.75h-40.5V20.211z"/>
	<path fill="#7D040F" d="M63.445,72.012c0-1.5,1.086-2.258,2.438-2.258c1.313,0.008,2.434,1.047,2.434,2.344
		c-0.371,1.414-1.094,2.336-2.434,2.336c-1.688-0.172-2.441-1.051-2.441-2.336L63.445,72.012z"/>
	
		<linearGradient id="SVGID_32_" gradientUnits="userSpaceOnUse" x1="273.9541" y1="-294.2515" x2="277.4874" y2="-300.3713" gradientTransform="matrix(0.75 0 0 -0.75 -140.9255 -150.8796)">
		<stop  offset="0" style="stop-color:#9F5153"/>
		<stop  offset="1" style="stop-color:#7B030D"/>
	</linearGradient>
	<path fill="url(#SVGID_32_)" stroke="#FFFFFF" stroke-linejoin="bevel" stroke-miterlimit="10" d="M63.895,72.441
		c0-1.5,0.883-2.258,1.988-2.258c1.012,0.008,1.988,0.855,1.988,1.914c-0.227,1.094-0.895,1.906-1.988,1.906
		c-1.238-0.063-1.996-0.855-1.996-1.906L63.895,72.441z"/>
	<path fill="#276F71" d="M73.129,72.012c0-1.5,1.082-2.258,2.434-2.258c1.316,0.008,2.434,1.047,2.434,2.344
		c-0.367,1.414-1.094,2.336-2.434,2.336c-1.684-0.172-2.441-1.051-2.441-2.336L73.129,72.012z"/>
	
		<linearGradient id="SVGID_33_" gradientUnits="userSpaceOnUse" x1="273.9551" y1="-294.251" x2="277.4886" y2="-300.3712" gradientTransform="matrix(0.75 0 0 -0.75 -131.2454 -150.8796)">
		<stop  offset="0" style="stop-color:#91CFD1"/>
		<stop  offset="1" style="stop-color:#49AEB1"/>
	</linearGradient>
	<path fill="url(#SVGID_33_)" stroke="#FFFFFF" stroke-linejoin="bevel" stroke-miterlimit="10" d="M73.574,72.441
		c0-1.5,0.887-2.258,1.988-2.258c1.012,0.008,1.988,0.855,1.988,1.914c-0.227,1.094-0.895,1.906-1.988,1.906
		c-1.238-0.063-1.992-0.855-1.992-1.906L73.574,72.441z"/>
	
		<linearGradient id="SVGID_34_" gradientUnits="userSpaceOnUse" x1="279.7754" y1="-297.5674" x2="273.0918" y2="-297.5674" gradientTransform="matrix(0.75 0 0 -0.75 -136.4246 -166.322)">
		<stop  offset="0" style="stop-color:#000000"/>
		<stop  offset="0.15" style="stop-color:#454545"/>
		<stop  offset="0.25" style="stop-color:#B3B3B3"/>
		<stop  offset="0.52" style="stop-color:#000000"/>
		<stop  offset="0.69" style="stop-color:#000000"/>
		<stop  offset="0.8" style="stop-color:#000000"/>
		<stop  offset="0.92" style="stop-color:#000000"/>
		<stop  offset="1" style="stop-color:#000000"/>
	</linearGradient>
	<path fill="url(#SVGID_34_)" d="M72.145,54.746c0,0,0.082,0.625,0.379,1.125c0.371,0.375,0.816,0.672,0.816,0.938
		c0.305,0.188-0.512,0.449-0.793,0.902c-0.402,0.785-0.168,0.98-0.445,1.137c0.043,0.398-0.605-0.191-1.242-0.188
		c-0.965-0.164-0.988,0.309-1.23,0.188c-0.484-0.352-0.129-0.578-0.465-1.121c-0.02-0.73-0.77-0.613-0.77-0.918
		c0-0.563,0.449-0.43,0.789-0.965c0.711-0.348,0.266-0.988,0.445-1.074c0.266-0.023,0.555,0.188,1.25,0.188
		c0.516-0.211,1.035-0.297,1.223-0.188L72.145,54.746z"/>
	<path fill="#FFFFFF" fill-opacity="0.2" d="M72.277,54.855c0,0-0.125,0.594,0.156,1.066c0.594,0.434,0.77,0.633,0.77,0.887
		c-0.176,0.297-0.48,0.426-0.746,0.855c-0.18,0.191-0.16,0.93-0.422,1.078c-0.508-0.137-0.57-0.184-1.176-0.18
		c-0.832,0.043-0.934,0.293-1.164,0.18c-0.418-0.137-0.121-0.547-0.438-1.063c0.02-0.574-0.73-0.582-0.73-0.871
		c0-0.453,0.426-0.406,0.746-0.914c0.004-0.289,0.254-0.938,0.422-1.016c0.332-0.023,0.527,0.176,1.18,0.176
		c0.652-0.199,0.98-0.281,1.16-0.176L72.277,54.855z"/>
	<path fill="#3E3938" stroke="#717070" stroke-linejoin="bevel" stroke-miterlimit="10" d="M69.348,56.867c0-0.75,0.68-1.5,1.52-1.5
		c0.73,0,1.52,0.648,1.52,1.449c-0.039,0.801-0.684,1.445-1.52,1.445c-0.77,0.105-1.52-0.648-1.52-1.445V56.867z"/>
	<path fill="#FFFFFF" fill-opacity="0.1725" d="M70.57,57.063c0-0.75-0.434-1.5,0.293-1.5c0.457,0,1.313,0.559,1.313,1.254
		c-0.105,0.996-0.586,1.25-1.313,1.25c-1.043-0.254,0.07-0.469,0.07-1.16L70.57,57.063z"/>
</g>
</svg>
