<?xml version="1.0" encoding="utf-8"?>
<!-- Generator: Adobe Illustrator 16.0.0, SVG Export Plug-In . SVG Version: 6.00 Build 0)  -->
<!DOCTYPE svg PUBLIC "-//W3C//DTD SVG 1.1//EN" "http://www.w3.org/Graphics/SVG/1.1/DTD/svg11.dtd">
<svg preserveAspectRatio="none" version="1.1" id="图层_1" xmlns="http://www.w3.org/2000/svg" xmlns:xlink="http://www.w3.org/1999/xlink" x="0px" y="0px"
	 width="109.508px" height="139.023px" viewBox="16.102 1.289 109.508 139.023"
	 enable-background="new 16.102 1.289 109.508 139.023" xml:space="preserve">
<g id="surface251">
	
		<linearGradient id="SVGID_1_" gradientUnits="userSpaceOnUse" x1="328.5889" y1="-294.7603" x2="328.5889" y2="-370.7603" gradientTransform="matrix(0.75 0 0 -0.75 -177.2971 -146.3083)">
		<stop  offset="0" style="stop-color:#9EB4BD"/>
		<stop  offset="0.15" style="stop-color:#D2ECF7"/>
		<stop  offset="0.25" style="stop-color:#E6F4FA"/>
		<stop  offset="0.44" style="stop-color:#B5CED7"/>
		<stop  offset="0.6" style="stop-color:#A1B7C0"/>
		<stop  offset="0.8" style="stop-color:#879AA2"/>
		<stop  offset="0.97" style="stop-color:#7B8D94"/>
		<stop  offset="1" style="stop-color:#A5BBC4"/>
	</linearGradient>
	<path fill="url(#SVGID_1_)" d="M27.52,74.762h83.25v57H27.52V74.762z"/>
	
		<linearGradient id="SVGID_2_" gradientUnits="userSpaceOnUse" x1="275.5889" y1="-294.7583" x2="275.5889" y2="-305.7583" gradientTransform="matrix(0.75 0 0 -0.75 -98.9573 -148.8259)">
		<stop  offset="0" style="stop-color:#9EB4BD"/>
		<stop  offset="0.15" style="stop-color:#D2ECF7"/>
		<stop  offset="0.25" style="stop-color:#E6F4FA"/>
		<stop  offset="0.44" style="stop-color:#B5CED7"/>
		<stop  offset="0.6" style="stop-color:#A1B7C0"/>
		<stop  offset="0.8" style="stop-color:#879AA2"/>
		<stop  offset="0.97" style="stop-color:#7B8D94"/>
		<stop  offset="1" style="stop-color:#A5BBC4"/>
	</linearGradient>
	<path fill="url(#SVGID_2_)" d="M105.859,72.242h3.75v8.25h-3.75V72.242z"/>
	
		<linearGradient id="SVGID_3_" gradientUnits="userSpaceOnUse" x1="275.5889" y1="-294.7583" x2="275.5889" y2="-305.7583" gradientTransform="matrix(0.75 0 0 -0.75 -98.9573 -121.9314)">
		<stop  offset="0" style="stop-color:#9EB4BD"/>
		<stop  offset="0.15" style="stop-color:#D2ECF7"/>
		<stop  offset="0.25" style="stop-color:#E6F4FA"/>
		<stop  offset="0.44" style="stop-color:#B5CED7"/>
		<stop  offset="0.6" style="stop-color:#A1B7C0"/>
		<stop  offset="0.8" style="stop-color:#879AA2"/>
		<stop  offset="0.97" style="stop-color:#7B8D94"/>
		<stop  offset="1" style="stop-color:#A5BBC4"/>
	</linearGradient>
	<path fill="url(#SVGID_3_)" d="M105.859,99.137h3.75v8.25h-3.75V99.137z"/>
	
		<linearGradient id="SVGID_4_" gradientUnits="userSpaceOnUse" x1="275.5889" y1="-294.7583" x2="275.5889" y2="-305.7583" gradientTransform="matrix(0.75 0 0 -0.75 -98.9573 -95.0369)">
		<stop  offset="0" style="stop-color:#9EB4BD"/>
		<stop  offset="0.15" style="stop-color:#D2ECF7"/>
		<stop  offset="0.25" style="stop-color:#E6F4FA"/>
		<stop  offset="0.44" style="stop-color:#B5CED7"/>
		<stop  offset="0.6" style="stop-color:#A1B7C0"/>
		<stop  offset="0.8" style="stop-color:#879AA2"/>
		<stop  offset="0.97" style="stop-color:#7B8D94"/>
		<stop  offset="1" style="stop-color:#A5BBC4"/>
	</linearGradient>
	<path fill="url(#SVGID_4_)" d="M105.859,126.031h3.75v8.25h-3.75V126.031z"/>
	
		<linearGradient id="SVGID_5_" gradientUnits="userSpaceOnUse" x1="275.5898" y1="-294.7583" x2="275.5898" y2="-305.7583" gradientTransform="matrix(0.75 0 0 -0.75 -173.595 -148.8259)">
		<stop  offset="0" style="stop-color:#9EB4BD"/>
		<stop  offset="0.15" style="stop-color:#D2ECF7"/>
		<stop  offset="0.25" style="stop-color:#E6F4FA"/>
		<stop  offset="0.44" style="stop-color:#B5CED7"/>
		<stop  offset="0.6" style="stop-color:#A1B7C0"/>
		<stop  offset="0.8" style="stop-color:#879AA2"/>
		<stop  offset="0.97" style="stop-color:#7B8D94"/>
		<stop  offset="1" style="stop-color:#A5BBC4"/>
	</linearGradient>
	<path fill="url(#SVGID_5_)" d="M31.223,72.242h3.75v8.25h-3.75V72.242z"/>
	
		<linearGradient id="SVGID_6_" gradientUnits="userSpaceOnUse" x1="275.5898" y1="-294.7583" x2="275.5898" y2="-305.7583" gradientTransform="matrix(0.75 0 0 -0.75 -173.595 -121.9314)">
		<stop  offset="0" style="stop-color:#9EB4BD"/>
		<stop  offset="0.15" style="stop-color:#D2ECF7"/>
		<stop  offset="0.25" style="stop-color:#E6F4FA"/>
		<stop  offset="0.44" style="stop-color:#B5CED7"/>
		<stop  offset="0.6" style="stop-color:#A1B7C0"/>
		<stop  offset="0.8" style="stop-color:#879AA2"/>
		<stop  offset="0.97" style="stop-color:#7B8D94"/>
		<stop  offset="1" style="stop-color:#A5BBC4"/>
	</linearGradient>
	<path fill="url(#SVGID_6_)" d="M31.223,99.137h3.75v8.25h-3.75V99.137z"/>
	
		<linearGradient id="SVGID_7_" gradientUnits="userSpaceOnUse" x1="275.5898" y1="-294.7583" x2="275.5898" y2="-305.7583" gradientTransform="matrix(0.75 0 0 -0.75 -173.595 -95.0369)">
		<stop  offset="0" style="stop-color:#9EB4BD"/>
		<stop  offset="0.15" style="stop-color:#D2ECF7"/>
		<stop  offset="0.25" style="stop-color:#E6F4FA"/>
		<stop  offset="0.44" style="stop-color:#B5CED7"/>
		<stop  offset="0.6" style="stop-color:#A1B7C0"/>
		<stop  offset="0.8" style="stop-color:#879AA2"/>
		<stop  offset="0.97" style="stop-color:#7B8D94"/>
		<stop  offset="1" style="stop-color:#A5BBC4"/>
	</linearGradient>
	<path fill="url(#SVGID_7_)" d="M31.223,126.031h3.75v8.25h-3.75V126.031z"/>
	
		<linearGradient id="SVGID_8_" gradientUnits="userSpaceOnUse" x1="283.5918" y1="-294.7593" x2="283.5918" y2="-393.7593" gradientTransform="matrix(0.75 0 0 -0.75 -188.718 -155.0066)">
		<stop  offset="0" style="stop-color:#9EB4BD"/>
		<stop  offset="0.15" style="stop-color:#D2ECF7"/>
		<stop  offset="0.25" style="stop-color:#E6F4FA"/>
		<stop  offset="0.44" style="stop-color:#B5CED7"/>
		<stop  offset="0.6" style="stop-color:#A1B7C0"/>
		<stop  offset="0.8" style="stop-color:#879AA2"/>
		<stop  offset="0.97" style="stop-color:#7B8D94"/>
		<stop  offset="1" style="stop-color:#A5BBC4"/>
	</linearGradient>
	<path fill="url(#SVGID_8_)" d="M17.602,66.063h12c1.5,0,2.098,0.656,2.098,1.465l0.152,71.285c0,0.75-0.969,1.414-1.977,1.414
		l-12.273,0.086c-0.75,0-1.5-0.742-1.5-1.551V67.563c0-0.75,0.816-1.5,1.824-1.5H17.602z"/>
	
		<linearGradient id="SVGID_9_" gradientUnits="userSpaceOnUse" x1="283.5928" y1="-294.7593" x2="283.5928" y2="-393.7593" gradientTransform="matrix(0.75 0 0 -0.75 -94.9607 -155.0066)">
		<stop  offset="0" style="stop-color:#9EB4BD"/>
		<stop  offset="0.15" style="stop-color:#D2ECF7"/>
		<stop  offset="0.25" style="stop-color:#E6F4FA"/>
		<stop  offset="0.44" style="stop-color:#B5CED7"/>
		<stop  offset="0.6" style="stop-color:#A1B7C0"/>
		<stop  offset="0.8" style="stop-color:#879AA2"/>
		<stop  offset="0.97" style="stop-color:#7B8D94"/>
		<stop  offset="1" style="stop-color:#A5BBC4"/>
	</linearGradient>
	<path fill="url(#SVGID_9_)" d="M111.359,66.063h12c1.5,0,2.098,0.656,2.098,1.465l0.152,71.285c0,0.75-0.969,1.414-1.977,1.414
		l-12.273,0.086c-0.75,0-1.5-0.742-1.5-1.551V67.563c0-0.75,0.816-1.5,1.824-1.5H111.359z"/>
	
		<linearGradient id="SVGID_10_" gradientUnits="userSpaceOnUse" x1="306.0898" y1="-307.2588" x2="273.0898" y2="-307.2588" gradientTransform="matrix(0.75 0 0 -0.75 -148.0881 -163.9333)">
		<stop  offset="0" style="stop-color:#9EB4BD"/>
		<stop  offset="0.15" style="stop-color:#D2ECF7"/>
		<stop  offset="0.25" style="stop-color:#E6F4FA"/>
		<stop  offset="0.44" style="stop-color:#B5CED7"/>
		<stop  offset="0.6" style="stop-color:#A1B7C0"/>
		<stop  offset="0.8" style="stop-color:#879AA2"/>
		<stop  offset="0.97" style="stop-color:#7B8D94"/>
		<stop  offset="1" style="stop-color:#A5BBC4"/>
	</linearGradient>
	<path fill="url(#SVGID_10_)" d="M56.73,75.887h24.75v-18.75H56.73V75.887z"/>
	
		<linearGradient id="SVGID_11_" gradientUnits="userSpaceOnUse" x1="366.0898" y1="-331.9722" x2="272.9961" y2="-331.9722" gradientTransform="matrix(0.75 0 0 -0.75 -170.5833 -219.7791)">
		<stop  offset="0" style="stop-color:#92A6AE"/>
		<stop  offset="0.03" style="stop-color:#DAEFF8"/>
		<stop  offset="0.08" style="stop-color:#BED8E3"/>
		<stop  offset="0.64" style="stop-color:#BBD5DF"/>
		<stop  offset="0.95" style="stop-color:#B7D0DA"/>
		<stop  offset="1" style="stop-color:#879AA2"/>
	</linearGradient>
	<path fill="url(#SVGID_11_)" d="M35.734,1.289h66c0.75,0,1.957,0.695,1.957,1.551l0.293,52.449c0,1.5-1.16,1.824-2.227,1.824
		l-66.023-0.324c-0.75,0-1.57-0.371-1.57-1.227l0.07-52.773c0-0.75,0.793-1.5,1.859-1.5H35.734z"/>
	
		<linearGradient id="SVGID_12_" gradientUnits="userSpaceOnUse" x1="324.8311" y1="-294.7573" x2="324.8311" y2="-314.7573" gradientTransform="matrix(0.75 0 0 -0.75 -174.6233 -199.3181)">
		<stop  offset="0" style="stop-color:#7098A9"/>
		<stop  offset="0.03" style="stop-color:#B8E1F2"/>
		<stop  offset="0.08" style="stop-color:#93C7DC"/>
		<stop  offset="0.64" style="stop-color:#91C4D9"/>
		<stop  offset="0.95" style="stop-color:#8DBFD4"/>
		<stop  offset="1" style="stop-color:#688D9D"/>
	</linearGradient>
	<path fill="url(#SVGID_12_)" d="M31.695,21.75h74.25c0.75,0,1.859,0.68,1.859,1.535l-0.359,11.965c0,0.75-0.523,1.371-1.594,1.371
		L31.695,36.75c-0.75,0-1.5-0.82-1.5-1.68V23.25c0-0.75,0.793-1.5,1.859-1.5H31.695z"/>
</g>
</svg>
