<?xml version="1.0" encoding="utf-8"?>
<!-- Generator: Adobe Illustrator 16.0.0, SVG Export Plug-In . SVG Version: 6.00 Build 0)  -->
<!DOCTYPE svg PUBLIC "-//W3C//DTD SVG 1.1//EN" "http://www.w3.org/Graphics/SVG/1.1/DTD/svg11.dtd">
<svg preserveAspectRatio="none" version="1.1" id="图层_1" xmlns="http://www.w3.org/2000/svg" xmlns:xlink="http://www.w3.org/1999/xlink" x="0px" y="0px"
	 width="140.625px" height="90.32px" viewBox="0.66 24.746 140.625 90.32" enable-background="new 0.66 24.746 140.625 90.32"
	 xml:space="preserve">
<g id="surface156">
	
		<linearGradient id="SVGID_1_" gradientUnits="userSpaceOnUse" x1="291.1914" y1="-295.7559" x2="273.0918" y2="-295.7559" gradientTransform="matrix(0.75 0 0 -0.75 -161.6013 -178.1736)">
		<stop  offset="0" style="stop-color:#91A530"/>
		<stop  offset="0.15" style="stop-color:#C3DA5E"/>
		<stop  offset="0.25" style="stop-color:#DEEAB8"/>
		<stop  offset="0.52" style="stop-color:#A6BC39"/>
		<stop  offset="0.69" style="stop-color:#93A731"/>
		<stop  offset="0.8" style="stop-color:#8B9E2E"/>
		<stop  offset="0.97" style="stop-color:#83952B"/>
		<stop  offset="1" style="stop-color:#97AB33"/>
	</linearGradient>
	<path fill="url(#SVGID_1_)" d="M43.969,42.895h12.75c0,0,0.074,0.191,0.074,0.426l-0.074,1.074h-13.5v-0.75
		c0-0.75,0.18-0.75,0.41-0.75H43.969z"/>
	
		<linearGradient id="SVGID_2_" gradientUnits="userSpaceOnUse" x1="291.0898" y1="-298.2598" x2="273.0898" y2="-298.2598" gradientTransform="matrix(0.75 0 0 -0.75 -161.5759 -168.8484)">
		<stop  offset="0" style="stop-color:#91A530"/>
		<stop  offset="0.15" style="stop-color:#C3DA5E"/>
		<stop  offset="0.25" style="stop-color:#DEEAB8"/>
		<stop  offset="0.52" style="stop-color:#A6BC39"/>
		<stop  offset="0.69" style="stop-color:#93A731"/>
		<stop  offset="0.8" style="stop-color:#8B9E2E"/>
		<stop  offset="0.97" style="stop-color:#83952B"/>
		<stop  offset="1" style="stop-color:#97AB33"/>
	</linearGradient>
	<path fill="url(#SVGID_2_)" d="M43.242,57.473h13.5v-5.25h-13.5V57.473z"/>
	
		<linearGradient id="SVGID_3_" gradientUnits="userSpaceOnUse" x1="298.1367" y1="-307.4067" x2="273.0889" y2="-307.4067" gradientTransform="matrix(0.75 0 0 -0.75 -164.2043 -163.4431)">
		<stop  offset="0" style="stop-color:#9DB098"/>
		<stop  offset="0.15" style="stop-color:#D0E8CB"/>
		<stop  offset="0.25" style="stop-color:#E5F2E2"/>
		<stop  offset="0.52" style="stop-color:#B3C9AE"/>
		<stop  offset="0.69" style="stop-color:#9FB39B"/>
		<stop  offset="0.8" style="stop-color:#96A992"/>
		<stop  offset="0.97" style="stop-color:#8E9F89"/>
		<stop  offset="1" style="stop-color:#A3B79E"/>
	</linearGradient>
	<path fill="url(#SVGID_3_)" d="M40.613,74.875c0,0-0.266,1.613,9.305,1.727c9.445-0.227,9.48-1.66,9.48-1.66l-1.535-17.316h-15.75
		L40.613,74.875z"/>
	
		<linearGradient id="SVGID_4_" gradientUnits="userSpaceOnUse" x1="422.0898" y1="-325.7588" x2="273.0898" y2="-325.7588" gradientTransform="matrix(0.75 0 0 -0.75 -175.3723 -196.324)">
		<stop  offset="0" style="stop-color:#BAC0C1"/>
		<stop  offset="0.15" style="stop-color:#F4FAFC"/>
		<stop  offset="0.25" style="stop-color:#F8FCFD"/>
		<stop  offset="0.52" style="stop-color:#D5DBDD"/>
		<stop  offset="0.69" style="stop-color:#BDC3C4"/>
		<stop  offset="0.8" style="stop-color:#B3B8B9"/>
		<stop  offset="0.97" style="stop-color:#A9AEAF"/>
		<stop  offset="1" style="stop-color:#C2C7C9"/>
	</linearGradient>
	<path fill="url(#SVGID_4_)" d="M33.945,71.246l-4.5-2.25l6.75-18.75h25.5l25.5-25.5h54v5.25h-51.75l-25.5,25.5h-24.75
		L33.945,71.246z"/>
	
		<linearGradient id="SVGID_5_" gradientUnits="userSpaceOnUse" x1="315.0908" y1="-294.7603" x2="315.0908" y2="-312.7603" gradientTransform="matrix(0.75 0 0 -0.75 -126.5334 -196.324)">
		<stop  offset="0" style="stop-color:#B23E4B"/>
		<stop  offset="0.15" style="stop-color:#E96A76"/>
		<stop  offset="0.25" style="stop-color:#ED939A"/>
		<stop  offset="0.52" style="stop-color:#CB4857"/>
		<stop  offset="0.69" style="stop-color:#B5404C"/>
		<stop  offset="0.8" style="stop-color:#AA3B47"/>
		<stop  offset="0.97" style="stop-color:#A13843"/>
		<stop  offset="1" style="stop-color:#B9414E"/>
	</linearGradient>
	<path fill="url(#SVGID_5_)" d="M78.285,33.746l9-9h54v5.25h-52.5l-8.25,8.25L78.285,33.746z"/>
	
		<linearGradient id="SVGID_6_" gradientUnits="userSpaceOnUse" x1="294.4531" y1="-299.2559" x2="273.0889" y2="-299.2559" gradientTransform="matrix(0.75 0 0 -0.75 -162.825 -177.1111)">
		<stop  offset="0" style="stop-color:#C4AA84"/>
		<stop  offset="0.15" style="stop-color:#FFE0B3"/>
		<stop  offset="0.25" style="stop-color:#FFEED7"/>
		<stop  offset="0.52" style="stop-color:#DFC297"/>
		<stop  offset="0.69" style="stop-color:#C7AD86"/>
		<stop  offset="0.8" style="stop-color:#BCA37E"/>
		<stop  offset="0.97" style="stop-color:#B19A77"/>
		<stop  offset="1" style="stop-color:#CBB189"/>
	</linearGradient>
	<path fill="url(#SVGID_6_)" d="M42.742,43.957h15c0,0,0.273,0.188,0.273,0.422l-0.273,5.578c0,0.75,0.086,0.566-0.145,0.566
		l-14.855,0.184c-0.75,0-0.75-0.371-0.75-0.605v-5.395c0-0.75,0.188-0.75,0.418-0.75H42.742z"/>
	
		<linearGradient id="SVGID_7_" gradientUnits="userSpaceOnUse" x1="-328.7383" y1="-294.7612" x2="-328.7383" y2="-345.7612" gradientTransform="matrix(-0.75 0 0 -0.75 -148.4998 -145.3406)">
		<stop  offset="0" style="stop-color:#91A530"/>
		<stop  offset="0.15" style="stop-color:#C3DA5E"/>
		<stop  offset="0.25" style="stop-color:#DEEAB8"/>
		<stop  offset="0.52" style="stop-color:#A6BC39"/>
		<stop  offset="0.69" style="stop-color:#93A731"/>
		<stop  offset="0.8" style="stop-color:#8B9E2E"/>
		<stop  offset="0.97" style="stop-color:#83952B"/>
		<stop  offset="1" style="stop-color:#97AB33"/>
	</linearGradient>
	<path fill="url(#SVGID_7_)" d="M99.27,75.73h-2.25c0,0-0.18,0.188-0.18,0.422l0.18,37.078c0,0-0.027,0.492,0.16,0.492l2.09,0.258
		c0,0,0-0.449,0-0.684V76.48c0-0.75-0.152-0.75-0.34-0.75H99.27z"/>
	
		<linearGradient id="SVGID_8_" gradientUnits="userSpaceOnUse" x1="274.0908" y1="-294.7612" x2="274.0908" y2="-345.7612" gradientTransform="matrix(0.75 0 0 -0.75 -108.635 -145.3406)">
		<stop  offset="0" style="stop-color:#91A530"/>
		<stop  offset="0.15" style="stop-color:#C3DA5E"/>
		<stop  offset="0.25" style="stop-color:#DEEAB8"/>
		<stop  offset="0.52" style="stop-color:#A6BC39"/>
		<stop  offset="0.69" style="stop-color:#93A731"/>
		<stop  offset="0.8" style="stop-color:#8B9E2E"/>
		<stop  offset="0.97" style="stop-color:#83952B"/>
		<stop  offset="1" style="stop-color:#97AB33"/>
	</linearGradient>
	<path fill="url(#SVGID_8_)" d="M96.184,75.73h1.5v38.25h-1.5V75.73z"/>
	
		<linearGradient id="SVGID_9_" gradientUnits="userSpaceOnUse" x1="274.7119" y1="-294.7593" x2="274.7119" y2="-345.7593" gradientTransform="matrix(0.75 0 0 -0.75 -204.1575 -145.3386)">
		<stop  offset="0" style="stop-color:#91A530"/>
		<stop  offset="0.15" style="stop-color:#C3DA5E"/>
		<stop  offset="0.25" style="stop-color:#DEEAB8"/>
		<stop  offset="0.52" style="stop-color:#A6BC39"/>
		<stop  offset="0.69" style="stop-color:#93A731"/>
		<stop  offset="0.8" style="stop-color:#8B9E2E"/>
		<stop  offset="0.97" style="stop-color:#83952B"/>
		<stop  offset="1" style="stop-color:#97AB33"/>
	</linearGradient>
	<path fill="url(#SVGID_9_)" d="M0.66,75.73h2.25c0,0,0.184,0.191,0.184,0.426L2.91,113.23c0,0,0.031,0.492-0.16,0.492l-2.09,0.258
		c0,0,0-0.445,0-0.68V76.48c0-0.75,0.152-0.75,0.344-0.75H0.66z"/>
	
		<linearGradient id="SVGID_10_" gradientUnits="userSpaceOnUse" x1="274.0889" y1="-294.7612" x2="274.0889" y2="-345.7612" gradientTransform="matrix(0.75 0 0 -0.75 -202.6648 -145.3406)">
		<stop  offset="0" style="stop-color:#95A8AD"/>
		<stop  offset="0.15" style="stop-color:#C7DDE4"/>
		<stop  offset="0.25" style="stop-color:#E1ECF0"/>
		<stop  offset="0.52" style="stop-color:#AAC0C6"/>
		<stop  offset="0.69" style="stop-color:#97AAB0"/>
		<stop  offset="0.8" style="stop-color:#8FA1A6"/>
		<stop  offset="0.97" style="stop-color:#86979C"/>
		<stop  offset="1" style="stop-color:#9BAEB4"/>
	</linearGradient>
	<path fill="url(#SVGID_10_)" d="M2.152,75.73h1.5v38.25h-1.5V75.73z"/>
	
		<linearGradient id="SVGID_11_" gradientUnits="userSpaceOnUse" x1="314.5918" y1="-294.7612" x2="314.5918" y2="-339.7612" gradientTransform="matrix(0.75 0 0 -0.75 -186.2019 -143.0427)">
		<stop  offset="0" style="stop-color:#9DB098"/>
		<stop  offset="0.15" style="stop-color:#D0E8CB"/>
		<stop  offset="0.25" style="stop-color:#E5F2E2"/>
		<stop  offset="0.52" style="stop-color:#B3C9AE"/>
		<stop  offset="0.69" style="stop-color:#9FB39B"/>
		<stop  offset="0.8" style="stop-color:#96A992"/>
		<stop  offset="0.97" style="stop-color:#8E9F89"/>
		<stop  offset="1" style="stop-color:#A3B79E"/>
	</linearGradient>
	<path fill="url(#SVGID_11_)" d="M18.617,78.027h62.25v33.75h-62.25V78.027z"/>
	
		<linearGradient id="SVGID_12_" gradientUnits="userSpaceOnUse" x1="307.0928" y1="-294.7583" x2="307.0928" y2="-344.9927" gradientTransform="matrix(0.75 0 0 -0.75 -180.3899 -145.1814)">
		<stop  offset="0" style="stop-color:#91A530"/>
		<stop  offset="0.15" style="stop-color:#C3DA5E"/>
		<stop  offset="0.25" style="stop-color:#DEEAB8"/>
		<stop  offset="0.52" style="stop-color:#A6BC39"/>
		<stop  offset="0.69" style="stop-color:#93A731"/>
		<stop  offset="0.8" style="stop-color:#8B9E2E"/>
		<stop  offset="0.97" style="stop-color:#83952B"/>
		<stop  offset="1" style="stop-color:#97AB33"/>
	</linearGradient>
	<path fill="url(#SVGID_12_)" d="M24.43,75.887h50.25c0.75,0,0.688,0.191,0.688,0.426l0.063,37.074c0,0-0.215,0.176-0.402,0.176
		l-50.598-0.176c0,0,0-0.016,0-0.25v-36.5c0-0.75,0.152-0.75,0.34-0.75H24.43z"/>
	
		<linearGradient id="SVGID_13_" gradientUnits="userSpaceOnUse" x1="302.1865" y1="-294.7583" x2="302.1865" y2="-347.9614" gradientTransform="matrix(0.75 0 0 -0.75 -176.7424 -146.2947)">
		<stop  offset="0" style="stop-color:#9DB098"/>
		<stop  offset="0.15" style="stop-color:#D0E8CB"/>
		<stop  offset="0.25" style="stop-color:#E5F2E2"/>
		<stop  offset="0.52" style="stop-color:#B3C9AE"/>
		<stop  offset="0.69" style="stop-color:#9FB39B"/>
		<stop  offset="0.8" style="stop-color:#96A992"/>
		<stop  offset="0.97" style="stop-color:#8E9F89"/>
		<stop  offset="1" style="stop-color:#A3B79E"/>
	</linearGradient>
	<path fill="url(#SVGID_13_)" d="M28.078,74.773h43.5c0,0,0.141,0.191,0.141,0.426l-0.141,39.324c0,0-0.012,0.152-0.199,0.152
		l-43.301-0.152c0,0,0-0.039,0-0.273V75.523c0-0.75,0.152-0.75,0.34-0.75H28.078z"/>
	
		<linearGradient id="SVGID_14_" gradientUnits="userSpaceOnUse" x1="283.5918" y1="-294.7583" x2="283.5918" y2="-348.9976" gradientTransform="matrix(0.75 0 0 -0.75 -201.7683 -146.6814)">
		<stop  offset="0" style="stop-color:#9DB098"/>
		<stop  offset="0.15" style="stop-color:#D0E8CB"/>
		<stop  offset="0.25" style="stop-color:#E5F2E2"/>
		<stop  offset="0.52" style="stop-color:#B3C9AE"/>
		<stop  offset="0.69" style="stop-color:#9FB39B"/>
		<stop  offset="0.8" style="stop-color:#96A992"/>
		<stop  offset="0.97" style="stop-color:#8E9F89"/>
		<stop  offset="1" style="stop-color:#A3B79E"/>
	</linearGradient>
	<path fill="url(#SVGID_14_)" d="M3.051,74.387h15.75c0,0-0.004,0.191-0.004,0.426l0.004,40.074c0,0-0.137,0.18-0.305,0.18
		l-15.445-0.18c0,0,0-0.012,0-0.246V75.137c0-0.75,0.133-0.75,0.301-0.75H3.051z"/>
	
		<linearGradient id="SVGID_15_" gradientUnits="userSpaceOnUse" x1="-319.856" y1="-294.7603" x2="-319.856" y2="-348.9946" gradientTransform="matrix(-0.75 0 0 -0.75 -150.8884 -146.6833)">
		<stop  offset="0" style="stop-color:#9DB098"/>
		<stop  offset="0.15" style="stop-color:#D0E8CB"/>
		<stop  offset="0.25" style="stop-color:#E5F2E2"/>
		<stop  offset="0.52" style="stop-color:#B3C9AE"/>
		<stop  offset="0.69" style="stop-color:#9FB39B"/>
		<stop  offset="0.8" style="stop-color:#96A992"/>
		<stop  offset="0.97" style="stop-color:#8E9F89"/>
		<stop  offset="1" style="stop-color:#A3B79E"/>
	</linearGradient>
	<path fill="url(#SVGID_15_)" d="M96.879,74.387h-15.75c0,0,0.004,0.188,0.004,0.422l-0.004,40.078c0,0,0.141,0.176,0.305,0.176
		l15.445-0.176c0,0,0-0.012,0-0.246V75.137c0-0.75-0.133-0.75-0.297-0.75H96.879z"/>
	
		<linearGradient id="SVGID_16_" gradientUnits="userSpaceOnUse" x1="273.5908" y1="-294.7612" x2="273.5908" y2="-339.7612" gradientTransform="matrix(0.75 0 0 -0.75 -186.0251 -143.0427)">
		<stop  offset="0" style="stop-color:#91A530"/>
		<stop  offset="0.15" style="stop-color:#C3DA5E"/>
		<stop  offset="0.25" style="stop-color:#DEEAB8"/>
		<stop  offset="0.52" style="stop-color:#A6BC39"/>
		<stop  offset="0.69" style="stop-color:#93A731"/>
		<stop  offset="0.8" style="stop-color:#8B9E2E"/>
		<stop  offset="0.97" style="stop-color:#83952B"/>
		<stop  offset="1" style="stop-color:#97AB33"/>
	</linearGradient>
	<path fill="url(#SVGID_16_)" d="M18.793,78.027h0.75v33.75h-0.75V78.027z"/>
	
		<linearGradient id="SVGID_17_" gradientUnits="userSpaceOnUse" x1="273.5928" y1="-294.7612" x2="273.5928" y2="-339.7612" gradientTransform="matrix(0.75 0 0 -0.75 -124.5115 -143.0427)">
		<stop  offset="0" style="stop-color:#91A530"/>
		<stop  offset="0.15" style="stop-color:#C3DA5E"/>
		<stop  offset="0.25" style="stop-color:#DEEAB8"/>
		<stop  offset="0.52" style="stop-color:#A6BC39"/>
		<stop  offset="0.69" style="stop-color:#93A731"/>
		<stop  offset="0.8" style="stop-color:#8B9E2E"/>
		<stop  offset="0.97" style="stop-color:#83952B"/>
		<stop  offset="1" style="stop-color:#97AB33"/>
	</linearGradient>
	<path fill="url(#SVGID_17_)" d="M80.309,78.027h0.75v33.75h-0.75V78.027z"/>
</g>
</svg>
