<?xml version="1.0" encoding="utf-8"?>
<!-- Generator: Adobe Illustrator 16.0.0, SVG Export Plug-In . SVG Version: 6.00 Build 0)  -->
<!DOCTYPE svg PUBLIC "-//W3C//DTD SVG 1.1//EN" "http://www.w3.org/Graphics/SVG/1.1/DTD/svg11.dtd">
<svg preserveAspectRatio="none" version="1.1" id="图层_1" xmlns="http://www.w3.org/2000/svg" xmlns:xlink="http://www.w3.org/1999/xlink" x="0px" y="0px"
	 width="366.14px" height="556.558px" viewBox="100.395 5.164 366.14 556.558"
	 enable-background="new 100.395 5.164 366.14 556.558" xml:space="preserve">
<g id="surface286">
	
		<linearGradient id="SVGID_1_" gradientUnits="userSpaceOnUse" x1="263.2251" y1="193.3066" x2="202.2251" y2="193.3066" gradientTransform="matrix(0.75 0 0 -0.75 -22.9152 669.3575)">
		<stop  offset="0" style="stop-color:#947A66"/>
		<stop  offset="0.15" style="stop-color:#C6A992"/>
		<stop  offset="0.25" style="stop-color:#E0D2C9"/>
		<stop  offset="0.52" style="stop-color:#A98C75"/>
		<stop  offset="0.69" style="stop-color:#977C68"/>
		<stop  offset="0.8" style="stop-color:#8E7562"/>
		<stop  offset="0.97" style="stop-color:#866E5C"/>
		<stop  offset="1" style="stop-color:#9A7F6A"/>
	</linearGradient>
	<path fill="url(#SVGID_1_)" d="M128.754,518.378h45.75v12h-45.75V518.378z"/>
	
		<linearGradient id="SVGID_2_" gradientUnits="userSpaceOnUse" x1="263.2251" y1="199.3037" x2="202.2251" y2="199.3037" gradientTransform="matrix(0.75 0 0 -0.75 -22.9152 678.2111)">
		<stop  offset="0" style="stop-color:#866850"/>
		<stop  offset="0.15" style="stop-color:#B6957A"/>
		<stop  offset="0.25" style="stop-color:#D8CAC0"/>
		<stop  offset="0.52" style="stop-color:#9A785C"/>
		<stop  offset="0.69" style="stop-color:#886A51"/>
		<stop  offset="0.8" style="stop-color:#80644C"/>
		<stop  offset="0.97" style="stop-color:#795E47"/>
		<stop  offset="1" style="stop-color:#8C6D53"/>
	</linearGradient>
	<path fill="url(#SVGID_2_)" d="M128.754,527.234h45.75v3h-45.75V527.234z"/>
	
		<linearGradient id="SVGID_3_" gradientUnits="userSpaceOnUse" x1="270.2275" y1="192.3027" x2="202.2275" y2="192.3027" gradientTransform="matrix(0.75 0 0 -0.75 -25.3698 680.3585)">
		<stop  offset="0" style="stop-color:#947A66"/>
		<stop  offset="0.15" style="stop-color:#C6A992"/>
		<stop  offset="0.25" style="stop-color:#E0D2C9"/>
		<stop  offset="0.52" style="stop-color:#A98C75"/>
		<stop  offset="0.69" style="stop-color:#977C68"/>
		<stop  offset="0.8" style="stop-color:#8E7562"/>
		<stop  offset="0.97" style="stop-color:#866E5C"/>
		<stop  offset="1" style="stop-color:#9A7F6A"/>
	</linearGradient>
	<path fill="url(#SVGID_3_)" d="M126.301,529.382h51v13.5h-51V529.382z"/>
	
		<linearGradient id="SVGID_4_" gradientUnits="userSpaceOnUse" x1="270.2275" y1="199.3057" x2="202.2275" y2="199.3057" gradientTransform="matrix(0.75 0 0 -0.75 -25.3698 691.0919)">
		<stop  offset="0" style="stop-color:#866850"/>
		<stop  offset="0.15" style="stop-color:#B6957A"/>
		<stop  offset="0.25" style="stop-color:#D8CAC0"/>
		<stop  offset="0.52" style="stop-color:#9A785C"/>
		<stop  offset="0.69" style="stop-color:#886A51"/>
		<stop  offset="0.8" style="stop-color:#80644C"/>
		<stop  offset="0.97" style="stop-color:#795E47"/>
		<stop  offset="1" style="stop-color:#8C6D53"/>
	</linearGradient>
	<path fill="url(#SVGID_4_)" d="M126.301,540.113h51v3h-51V540.113z"/>
	
		<linearGradient id="SVGID_5_" gradientUnits="userSpaceOnUse" x1="270.2275" y1="191.2759" x2="202.2275" y2="191.2759" gradientTransform="matrix(0.75 0 0 -0.75 -25.3698 697.6564)">
		<stop  offset="0" style="stop-color:#947A66"/>
		<stop  offset="0.15" style="stop-color:#C6A992"/>
		<stop  offset="0.25" style="stop-color:#E0D2C9"/>
		<stop  offset="0.52" style="stop-color:#A98C75"/>
		<stop  offset="0.69" style="stop-color:#977C68"/>
		<stop  offset="0.8" style="stop-color:#8E7562"/>
		<stop  offset="0.97" style="stop-color:#866E5C"/>
		<stop  offset="1" style="stop-color:#9A7F6A"/>
	</linearGradient>
	<path fill="url(#SVGID_5_)" d="M126.301,546.679h51v8.25c0,0-1.723,6.793-25.891,6.793c-24.359-0.043-25.109-6.77-25.109-6.77
		V546.679z"/>
	
		<linearGradient id="SVGID_6_" gradientUnits="userSpaceOnUse" x1="270.228" y1="198.3037" x2="202.228" y2="198.3037" gradientTransform="matrix(0.75 0 0 -0.75 -25.4054 696.2462)">
		<stop  offset="0" style="stop-color:#866850"/>
		<stop  offset="0.15" style="stop-color:#B6957A"/>
		<stop  offset="0.25" style="stop-color:#D8CAC0"/>
		<stop  offset="0.52" style="stop-color:#9A785C"/>
		<stop  offset="0.69" style="stop-color:#886A51"/>
		<stop  offset="0.8" style="stop-color:#80644C"/>
		<stop  offset="0.97" style="stop-color:#795E47"/>
		<stop  offset="1" style="stop-color:#8C6D53"/>
	</linearGradient>
	<path fill="url(#SVGID_6_)" d="M126.266,545.269h51v4.5h-51V545.269z"/>
	
		<linearGradient id="SVGID_7_" gradientUnits="userSpaceOnUse" x1="276.2266" y1="198.3066" x2="202.2266" y2="198.3066" gradientTransform="matrix(0.75 0 0 -0.75 -27.6354 693.5216)">
		<stop  offset="0" style="stop-color:#947A66"/>
		<stop  offset="0.15" style="stop-color:#C6A992"/>
		<stop  offset="0.25" style="stop-color:#E0D2C9"/>
		<stop  offset="0.52" style="stop-color:#A98C75"/>
		<stop  offset="0.69" style="stop-color:#977C68"/>
		<stop  offset="0.8" style="stop-color:#8E7562"/>
		<stop  offset="0.97" style="stop-color:#866E5C"/>
		<stop  offset="1" style="stop-color:#9A7F6A"/>
	</linearGradient>
	<path fill="url(#SVGID_7_)" d="M124.035,542.542h55.5v4.5h-55.5V542.542z"/>
	
		<linearGradient id="SVGID_8_" gradientUnits="userSpaceOnUse" x1="263.2236" y1="193.3066" x2="202.2236" y2="193.3066" gradientTransform="matrix(0.75 0 0 -0.75 63.9725 669.3575)">
		<stop  offset="0" style="stop-color:#947A66"/>
		<stop  offset="0.15" style="stop-color:#C6A992"/>
		<stop  offset="0.25" style="stop-color:#E0D2C9"/>
		<stop  offset="0.52" style="stop-color:#A98C75"/>
		<stop  offset="0.69" style="stop-color:#977C68"/>
		<stop  offset="0.8" style="stop-color:#8E7562"/>
		<stop  offset="0.97" style="stop-color:#866E5C"/>
		<stop  offset="1" style="stop-color:#9A7F6A"/>
	</linearGradient>
	<path fill="url(#SVGID_8_)" d="M215.641,518.378h45.75v12h-45.75V518.378z"/>
	
		<linearGradient id="SVGID_9_" gradientUnits="userSpaceOnUse" x1="263.2236" y1="199.3037" x2="202.2236" y2="199.3037" gradientTransform="matrix(0.75 0 0 -0.75 63.9725 678.2111)">
		<stop  offset="0" style="stop-color:#866850"/>
		<stop  offset="0.15" style="stop-color:#B6957A"/>
		<stop  offset="0.25" style="stop-color:#D8CAC0"/>
		<stop  offset="0.52" style="stop-color:#9A785C"/>
		<stop  offset="0.69" style="stop-color:#886A51"/>
		<stop  offset="0.8" style="stop-color:#80644C"/>
		<stop  offset="0.97" style="stop-color:#795E47"/>
		<stop  offset="1" style="stop-color:#8C6D53"/>
	</linearGradient>
	<path fill="url(#SVGID_9_)" d="M215.641,527.234h45.75v3h-45.75V527.234z"/>
	
		<linearGradient id="SVGID_10_" gradientUnits="userSpaceOnUse" x1="270.2256" y1="192.3027" x2="202.2256" y2="192.3027" gradientTransform="matrix(0.75 0 0 -0.75 61.5179 680.3585)">
		<stop  offset="0" style="stop-color:#947A66"/>
		<stop  offset="0.15" style="stop-color:#C6A992"/>
		<stop  offset="0.25" style="stop-color:#E0D2C9"/>
		<stop  offset="0.52" style="stop-color:#A98C75"/>
		<stop  offset="0.69" style="stop-color:#977C68"/>
		<stop  offset="0.8" style="stop-color:#8E7562"/>
		<stop  offset="0.97" style="stop-color:#866E5C"/>
		<stop  offset="1" style="stop-color:#9A7F6A"/>
	</linearGradient>
	<path fill="url(#SVGID_10_)" d="M213.188,529.382h51v13.5h-51V529.382z"/>
	
		<linearGradient id="SVGID_11_" gradientUnits="userSpaceOnUse" x1="270.2256" y1="199.3057" x2="202.2256" y2="199.3057" gradientTransform="matrix(0.75 0 0 -0.75 61.5179 691.0919)">
		<stop  offset="0" style="stop-color:#866850"/>
		<stop  offset="0.15" style="stop-color:#B6957A"/>
		<stop  offset="0.25" style="stop-color:#D8CAC0"/>
		<stop  offset="0.52" style="stop-color:#9A785C"/>
		<stop  offset="0.69" style="stop-color:#886A51"/>
		<stop  offset="0.8" style="stop-color:#80644C"/>
		<stop  offset="0.97" style="stop-color:#795E47"/>
		<stop  offset="1" style="stop-color:#8C6D53"/>
	</linearGradient>
	<path fill="url(#SVGID_11_)" d="M213.188,540.113h51v3h-51V540.113z"/>
	
		<linearGradient id="SVGID_12_" gradientUnits="userSpaceOnUse" x1="270.2256" y1="191.2759" x2="202.2256" y2="191.2759" gradientTransform="matrix(0.75 0 0 -0.75 61.5179 697.6564)">
		<stop  offset="0" style="stop-color:#947A66"/>
		<stop  offset="0.15" style="stop-color:#C6A992"/>
		<stop  offset="0.25" style="stop-color:#E0D2C9"/>
		<stop  offset="0.52" style="stop-color:#A98C75"/>
		<stop  offset="0.69" style="stop-color:#977C68"/>
		<stop  offset="0.8" style="stop-color:#8E7562"/>
		<stop  offset="0.97" style="stop-color:#866E5C"/>
		<stop  offset="1" style="stop-color:#9A7F6A"/>
	</linearGradient>
	<path fill="url(#SVGID_12_)" d="M213.188,546.679h51v8.25c0,0-1.719,6.793-25.887,6.793c-24.363-0.043-25.113-6.77-25.113-6.77
		V546.679z"/>
	
		<linearGradient id="SVGID_13_" gradientUnits="userSpaceOnUse" x1="270.2266" y1="198.3037" x2="202.2266" y2="198.3037" gradientTransform="matrix(0.75 0 0 -0.75 61.4823 696.2462)">
		<stop  offset="0" style="stop-color:#866850"/>
		<stop  offset="0.15" style="stop-color:#B6957A"/>
		<stop  offset="0.25" style="stop-color:#D8CAC0"/>
		<stop  offset="0.52" style="stop-color:#9A785C"/>
		<stop  offset="0.69" style="stop-color:#886A51"/>
		<stop  offset="0.8" style="stop-color:#80644C"/>
		<stop  offset="0.97" style="stop-color:#795E47"/>
		<stop  offset="1" style="stop-color:#8C6D53"/>
	</linearGradient>
	<path fill="url(#SVGID_13_)" d="M213.152,545.269h51v4.5h-51V545.269z"/>
	
		<linearGradient id="SVGID_14_" gradientUnits="userSpaceOnUse" x1="276.2261" y1="198.3066" x2="202.2261" y2="198.3066" gradientTransform="matrix(0.75 0 0 -0.75 59.2523 693.5216)">
		<stop  offset="0" style="stop-color:#947A66"/>
		<stop  offset="0.15" style="stop-color:#C6A992"/>
		<stop  offset="0.25" style="stop-color:#E0D2C9"/>
		<stop  offset="0.52" style="stop-color:#A98C75"/>
		<stop  offset="0.69" style="stop-color:#977C68"/>
		<stop  offset="0.8" style="stop-color:#8E7562"/>
		<stop  offset="0.97" style="stop-color:#866E5C"/>
		<stop  offset="1" style="stop-color:#9A7F6A"/>
	</linearGradient>
	<path fill="url(#SVGID_14_)" d="M210.922,542.542h55.5v4.5h-55.5V542.542z"/>
	
		<linearGradient id="SVGID_15_" gradientUnits="userSpaceOnUse" x1="263.2266" y1="193.3066" x2="202.2266" y2="193.3066" gradientTransform="matrix(0.75 0 0 -0.75 150.8602 669.3575)">
		<stop  offset="0" style="stop-color:#947A66"/>
		<stop  offset="0.15" style="stop-color:#C6A992"/>
		<stop  offset="0.25" style="stop-color:#E0D2C9"/>
		<stop  offset="0.52" style="stop-color:#A98C75"/>
		<stop  offset="0.69" style="stop-color:#977C68"/>
		<stop  offset="0.8" style="stop-color:#8E7562"/>
		<stop  offset="0.97" style="stop-color:#866E5C"/>
		<stop  offset="1" style="stop-color:#9A7F6A"/>
	</linearGradient>
	<path fill="url(#SVGID_15_)" d="M302.531,518.378h45.75v12h-45.75V518.378z"/>
	
		<linearGradient id="SVGID_16_" gradientUnits="userSpaceOnUse" x1="263.2266" y1="199.3037" x2="202.2266" y2="199.3037" gradientTransform="matrix(0.75 0 0 -0.75 150.8602 678.2111)">
		<stop  offset="0" style="stop-color:#866850"/>
		<stop  offset="0.15" style="stop-color:#B6957A"/>
		<stop  offset="0.25" style="stop-color:#D8CAC0"/>
		<stop  offset="0.52" style="stop-color:#9A785C"/>
		<stop  offset="0.69" style="stop-color:#886A51"/>
		<stop  offset="0.8" style="stop-color:#80644C"/>
		<stop  offset="0.97" style="stop-color:#795E47"/>
		<stop  offset="1" style="stop-color:#8C6D53"/>
	</linearGradient>
	<path fill="url(#SVGID_16_)" d="M302.531,527.234h45.75v3h-45.75V527.234z"/>
	
		<linearGradient id="SVGID_17_" gradientUnits="userSpaceOnUse" x1="270.2236" y1="192.3027" x2="202.2236" y2="192.3027" gradientTransform="matrix(0.75 0 0 -0.75 148.4061 680.3585)">
		<stop  offset="0" style="stop-color:#947A66"/>
		<stop  offset="0.15" style="stop-color:#C6A992"/>
		<stop  offset="0.25" style="stop-color:#E0D2C9"/>
		<stop  offset="0.52" style="stop-color:#A98C75"/>
		<stop  offset="0.69" style="stop-color:#977C68"/>
		<stop  offset="0.8" style="stop-color:#8E7562"/>
		<stop  offset="0.97" style="stop-color:#866E5C"/>
		<stop  offset="1" style="stop-color:#9A7F6A"/>
	</linearGradient>
	<path fill="url(#SVGID_17_)" d="M300.074,529.382h51v13.5h-51V529.382z"/>
	
		<linearGradient id="SVGID_18_" gradientUnits="userSpaceOnUse" x1="270.2236" y1="199.3057" x2="202.2236" y2="199.3057" gradientTransform="matrix(0.75 0 0 -0.75 148.4061 691.0919)">
		<stop  offset="0" style="stop-color:#866850"/>
		<stop  offset="0.15" style="stop-color:#B6957A"/>
		<stop  offset="0.25" style="stop-color:#D8CAC0"/>
		<stop  offset="0.52" style="stop-color:#9A785C"/>
		<stop  offset="0.69" style="stop-color:#886A51"/>
		<stop  offset="0.8" style="stop-color:#80644C"/>
		<stop  offset="0.97" style="stop-color:#795E47"/>
		<stop  offset="1" style="stop-color:#8C6D53"/>
	</linearGradient>
	<path fill="url(#SVGID_18_)" d="M300.074,540.113h51v3h-51V540.113z"/>
	
		<linearGradient id="SVGID_19_" gradientUnits="userSpaceOnUse" x1="270.2236" y1="191.2759" x2="202.2236" y2="191.2759" gradientTransform="matrix(0.75 0 0 -0.75 148.4061 697.6564)">
		<stop  offset="0" style="stop-color:#947A66"/>
		<stop  offset="0.15" style="stop-color:#C6A992"/>
		<stop  offset="0.25" style="stop-color:#E0D2C9"/>
		<stop  offset="0.52" style="stop-color:#A98C75"/>
		<stop  offset="0.69" style="stop-color:#977C68"/>
		<stop  offset="0.8" style="stop-color:#8E7562"/>
		<stop  offset="0.97" style="stop-color:#866E5C"/>
		<stop  offset="1" style="stop-color:#9A7F6A"/>
	</linearGradient>
	<path fill="url(#SVGID_19_)" d="M300.074,546.679h51v8.25c0,0-1.719,6.793-25.887,6.793c-24.363-0.043-25.113-6.77-25.113-6.77
		V546.679z"/>
	
		<linearGradient id="SVGID_20_" gradientUnits="userSpaceOnUse" x1="270.2246" y1="198.3037" x2="202.2246" y2="198.3037" gradientTransform="matrix(0.75 0 0 -0.75 148.37 696.2462)">
		<stop  offset="0" style="stop-color:#866850"/>
		<stop  offset="0.15" style="stop-color:#B6957A"/>
		<stop  offset="0.25" style="stop-color:#D8CAC0"/>
		<stop  offset="0.52" style="stop-color:#9A785C"/>
		<stop  offset="0.69" style="stop-color:#886A51"/>
		<stop  offset="0.8" style="stop-color:#80644C"/>
		<stop  offset="0.97" style="stop-color:#795E47"/>
		<stop  offset="1" style="stop-color:#8C6D53"/>
	</linearGradient>
	<path fill="url(#SVGID_20_)" d="M300.039,545.269h51v4.5h-51V545.269z"/>
	
		<linearGradient id="SVGID_21_" gradientUnits="userSpaceOnUse" x1="276.2227" y1="198.3066" x2="202.2227" y2="198.3066" gradientTransform="matrix(0.75 0 0 -0.75 146.1405 693.5216)">
		<stop  offset="0" style="stop-color:#947A66"/>
		<stop  offset="0.15" style="stop-color:#C6A992"/>
		<stop  offset="0.25" style="stop-color:#E0D2C9"/>
		<stop  offset="0.52" style="stop-color:#A98C75"/>
		<stop  offset="0.69" style="stop-color:#977C68"/>
		<stop  offset="0.8" style="stop-color:#8E7562"/>
		<stop  offset="0.97" style="stop-color:#866E5C"/>
		<stop  offset="1" style="stop-color:#9A7F6A"/>
	</linearGradient>
	<path fill="url(#SVGID_21_)" d="M297.808,542.542h55.5v4.5h-55.5V542.542z"/>
	
		<linearGradient id="SVGID_22_" gradientUnits="userSpaceOnUse" x1="263.2275" y1="193.3066" x2="202.2275" y2="193.3066" gradientTransform="matrix(0.75 0 0 -0.75 237.7469 669.3575)">
		<stop  offset="0" style="stop-color:#947A66"/>
		<stop  offset="0.15" style="stop-color:#C6A992"/>
		<stop  offset="0.25" style="stop-color:#E0D2C9"/>
		<stop  offset="0.52" style="stop-color:#A98C75"/>
		<stop  offset="0.69" style="stop-color:#977C68"/>
		<stop  offset="0.8" style="stop-color:#8E7562"/>
		<stop  offset="0.97" style="stop-color:#866E5C"/>
		<stop  offset="1" style="stop-color:#9A7F6A"/>
	</linearGradient>
	<path fill="url(#SVGID_22_)" d="M389.417,518.378h45.75v12h-45.75V518.378z"/>
	
		<linearGradient id="SVGID_23_" gradientUnits="userSpaceOnUse" x1="263.2275" y1="199.3037" x2="202.2275" y2="199.3037" gradientTransform="matrix(0.75 0 0 -0.75 237.7469 678.2111)">
		<stop  offset="0" style="stop-color:#866850"/>
		<stop  offset="0.15" style="stop-color:#B6957A"/>
		<stop  offset="0.25" style="stop-color:#D8CAC0"/>
		<stop  offset="0.52" style="stop-color:#9A785C"/>
		<stop  offset="0.69" style="stop-color:#886A51"/>
		<stop  offset="0.8" style="stop-color:#80644C"/>
		<stop  offset="0.97" style="stop-color:#795E47"/>
		<stop  offset="1" style="stop-color:#8C6D53"/>
	</linearGradient>
	<path fill="url(#SVGID_23_)" d="M389.417,527.234h45.75v3h-45.75V527.234z"/>
	
		<linearGradient id="SVGID_24_" gradientUnits="userSpaceOnUse" x1="270.2231" y1="192.3027" x2="202.2231" y2="192.3027" gradientTransform="matrix(0.75 0 0 -0.75 235.2928 680.3585)">
		<stop  offset="0" style="stop-color:#947A66"/>
		<stop  offset="0.15" style="stop-color:#C6A992"/>
		<stop  offset="0.25" style="stop-color:#E0D2C9"/>
		<stop  offset="0.52" style="stop-color:#A98C75"/>
		<stop  offset="0.69" style="stop-color:#977C68"/>
		<stop  offset="0.8" style="stop-color:#8E7562"/>
		<stop  offset="0.97" style="stop-color:#866E5C"/>
		<stop  offset="1" style="stop-color:#9A7F6A"/>
	</linearGradient>
	<path fill="url(#SVGID_24_)" d="M386.96,529.382h51v13.5h-51V529.382z"/>
	
		<linearGradient id="SVGID_25_" gradientUnits="userSpaceOnUse" x1="270.2231" y1="199.3057" x2="202.2231" y2="199.3057" gradientTransform="matrix(0.75 0 0 -0.75 235.2928 691.0919)">
		<stop  offset="0" style="stop-color:#866850"/>
		<stop  offset="0.15" style="stop-color:#B6957A"/>
		<stop  offset="0.25" style="stop-color:#D8CAC0"/>
		<stop  offset="0.52" style="stop-color:#9A785C"/>
		<stop  offset="0.69" style="stop-color:#886A51"/>
		<stop  offset="0.8" style="stop-color:#80644C"/>
		<stop  offset="0.97" style="stop-color:#795E47"/>
		<stop  offset="1" style="stop-color:#8C6D53"/>
	</linearGradient>
	<path fill="url(#SVGID_25_)" d="M386.96,540.113h51v3h-51V540.113z"/>
	
		<linearGradient id="SVGID_26_" gradientUnits="userSpaceOnUse" x1="270.2231" y1="191.2759" x2="202.2231" y2="191.2759" gradientTransform="matrix(0.75 0 0 -0.75 235.2928 697.6564)">
		<stop  offset="0" style="stop-color:#947A66"/>
		<stop  offset="0.15" style="stop-color:#C6A992"/>
		<stop  offset="0.25" style="stop-color:#E0D2C9"/>
		<stop  offset="0.52" style="stop-color:#A98C75"/>
		<stop  offset="0.69" style="stop-color:#977C68"/>
		<stop  offset="0.8" style="stop-color:#8E7562"/>
		<stop  offset="0.97" style="stop-color:#866E5C"/>
		<stop  offset="1" style="stop-color:#9A7F6A"/>
	</linearGradient>
	<path fill="url(#SVGID_26_)" d="M386.96,546.679h51v8.25c0,0-1.719,6.793-25.887,6.793c-24.363-0.043-25.113-6.77-25.113-6.77
		V546.679z"/>
	
		<linearGradient id="SVGID_27_" gradientUnits="userSpaceOnUse" x1="270.2246" y1="198.3037" x2="202.2246" y2="198.3037" gradientTransform="matrix(0.75 0 0 -0.75 235.2567 696.2462)">
		<stop  offset="0" style="stop-color:#866850"/>
		<stop  offset="0.15" style="stop-color:#B6957A"/>
		<stop  offset="0.25" style="stop-color:#D8CAC0"/>
		<stop  offset="0.52" style="stop-color:#9A785C"/>
		<stop  offset="0.69" style="stop-color:#886A51"/>
		<stop  offset="0.8" style="stop-color:#80644C"/>
		<stop  offset="0.97" style="stop-color:#795E47"/>
		<stop  offset="1" style="stop-color:#8C6D53"/>
	</linearGradient>
	<path fill="url(#SVGID_27_)" d="M386.925,545.269h51v4.5h-51V545.269z"/>
	
		<linearGradient id="SVGID_28_" gradientUnits="userSpaceOnUse" x1="276.2236" y1="198.3066" x2="202.2236" y2="198.3066" gradientTransform="matrix(0.75 0 0 -0.75 233.0272 693.5216)">
		<stop  offset="0" style="stop-color:#947A66"/>
		<stop  offset="0.15" style="stop-color:#C6A992"/>
		<stop  offset="0.25" style="stop-color:#E0D2C9"/>
		<stop  offset="0.52" style="stop-color:#A98C75"/>
		<stop  offset="0.69" style="stop-color:#977C68"/>
		<stop  offset="0.8" style="stop-color:#8E7562"/>
		<stop  offset="0.97" style="stop-color:#866E5C"/>
		<stop  offset="1" style="stop-color:#9A7F6A"/>
	</linearGradient>
	<path fill="url(#SVGID_28_)" d="M384.695,542.542h55.5v4.5h-55.5V542.542z"/>
	
		<linearGradient id="SVGID_29_" gradientUnits="userSpaceOnUse" x1="690.4097" y1="-28.6943" x2="202.2231" y2="-28.6944" gradientTransform="matrix(0.75 0 0 -0.75 -51.2736 156.1427)">
		<stop  offset="0" style="stop-color:#9A7F6A"/>
		<stop  offset="0.03" style="stop-color:#E2C7B3"/>
		<stop  offset="0.08" style="stop-color:#C9A68C"/>
		<stop  offset="0.64" style="stop-color:#C5A489"/>
		<stop  offset="0.95" style="stop-color:#C1A086"/>
		<stop  offset="1" style="stop-color:#8F7662"/>
	</linearGradient>
	<path fill="url(#SVGID_29_)" d="M106.395,5.164h354.75c3,0,5.391,2.527,5.391,5.645l-0.141,333.355c0,3-2.398,5.824-5.527,5.824
		l-354.472,0.176c-3.75,0-6-2.703-6-5.816V11.164c0-3.75,2.539-6,5.668-6H106.395z"/>
	
		<linearGradient id="SVGID_30_" gradientUnits="userSpaceOnUse" x1="690.4097" y1="89.2339" x2="202.2231" y2="89.2338" gradientTransform="matrix(0.75 0 0 -0.75 -51.2736 501.3927)">
		<stop  offset="0" style="stop-color:#9A7F6A"/>
		<stop  offset="0.03" style="stop-color:#E2C7B3"/>
		<stop  offset="0.08" style="stop-color:#C9A68C"/>
		<stop  offset="0.64" style="stop-color:#C5A489"/>
		<stop  offset="0.95" style="stop-color:#C1A086"/>
		<stop  offset="1" style="stop-color:#8F7662"/>
	</linearGradient>
	<path fill="url(#SVGID_30_)" d="M106.395,350.414h354.75c3,0,5.391,2.52,5.391,5.629l-0.141,157.121c0,3-2.395,5.359-5.516,5.359
		l-354.484-0.109c-3.75,0-6-2.41-6-5.516V356.414c0-3.75,2.531-6,5.656-6H106.395z"/>
	<path fill="#FFFFFF" fill-opacity="0.2431" d="M175.773,396.527h212.25c3,0,5.496,2.527,5.496,5.645l-0.246,70.855
		c0,3.75-2.293,6.004-5.418,6.004l-212.082-0.004c-3.75,0-6-2.52-6-5.637v-70.863c0-3.75,2.535-6,5.664-6H175.773z"/>
	
		<linearGradient id="SVGID_31_" gradientUnits="userSpaceOnUse" x1="229.3022" y1="183.7417" x2="199.7495" y2="194.498" gradientTransform="matrix(0.75 0 0 -0.75 -45.6198 508.0177)">
		<stop  offset="0" style="stop-color:#D6C8BE"/>
		<stop  offset="0.52" style="stop-color:#957253"/>
		<stop  offset="0.69" style="stop-color:#846549"/>
		<stop  offset="0.8" style="stop-color:#7D5F44"/>
		<stop  offset="0.97" style="stop-color:#755940"/>
		<stop  offset="1" style="stop-color:#88674B"/>
	</linearGradient>
	<path fill="url(#SVGID_31_)" d="M106.051,366.039c0-5.25,4.121-9,9.203-9c5.047,0,9.203,4.105,9.203,9.168
		c0.344,5.082-4.121,9.168-9.203,9.168c-5.453-0.336-9.203-4.105-9.203-9.168V366.039z"/>
	
		<linearGradient id="SVGID_32_" gradientUnits="userSpaceOnUse" x1="229.3013" y1="183.7417" x2="199.7485" y2="194.498" gradientTransform="matrix(0.75 0 0 -0.75 -45.6198 646.9337)">
		<stop  offset="0" style="stop-color:#D6C8BE"/>
		<stop  offset="0.52" style="stop-color:#957253"/>
		<stop  offset="0.69" style="stop-color:#846549"/>
		<stop  offset="0.8" style="stop-color:#7D5F44"/>
		<stop  offset="0.97" style="stop-color:#755940"/>
		<stop  offset="1" style="stop-color:#88674B"/>
	</linearGradient>
	<path fill="url(#SVGID_32_)" d="M106.051,504.957c0-5.25,4.121-9,9.203-9c5.047,0,9.203,4.102,9.203,9.164
		c0.344,5.086-4.121,9.168-9.203,9.168c-5.453-0.332-9.203-4.102-9.203-9.168V504.957z"/>
	
		<linearGradient id="SVGID_33_" gradientUnits="userSpaceOnUse" x1="229.3003" y1="183.7422" x2="199.7481" y2="194.4983" gradientTransform="matrix(0.75 0 0 -0.75 289.1561 646.9337)">
		<stop  offset="0" style="stop-color:#D6C8BE"/>
		<stop  offset="0.52" style="stop-color:#957253"/>
		<stop  offset="0.69" style="stop-color:#846549"/>
		<stop  offset="0.8" style="stop-color:#7D5F44"/>
		<stop  offset="0.97" style="stop-color:#755940"/>
		<stop  offset="1" style="stop-color:#88674B"/>
	</linearGradient>
	<path fill="url(#SVGID_33_)" d="M440.824,504.957c0-5.25,4.121-9,9.207-9c5.043,0,9.203,4.102,9.203,9.164
		c0.34,5.086-4.121,9.168-9.203,9.168c-5.457-0.332-9.207-4.102-9.207-9.168V504.957z"/>
	
		<linearGradient id="SVGID_34_" gradientUnits="userSpaceOnUse" x1="229.3013" y1="183.7417" x2="199.7479" y2="194.4982" gradientTransform="matrix(0.75 0 0 -0.75 289.1561 508.0177)">
		<stop  offset="0" style="stop-color:#D6C8BE"/>
		<stop  offset="0.52" style="stop-color:#957253"/>
		<stop  offset="0.69" style="stop-color:#846549"/>
		<stop  offset="0.8" style="stop-color:#7D5F44"/>
		<stop  offset="0.97" style="stop-color:#755940"/>
		<stop  offset="1" style="stop-color:#88674B"/>
	</linearGradient>
	<path fill="url(#SVGID_34_)" d="M440.824,366.039c0-5.25,4.121-9,9.207-9c5.043,0,9.203,4.105,9.203,9.168
		c0.34,5.082-4.121,9.168-9.203,9.168c-5.457-0.336-9.207-4.105-9.207-9.168V366.039z"/>
	<path fill="#6B5849" d="M115.469,360.167c0.75,0,1.07,0.563,1.07,1.289l-0.32,9.211c0,0.75-0.273,1.508-1.004,1.508
		c-0.496-0.008-1.32-0.59-1.32-1.316l0.074-9.191c0-0.75,0.516-1.527,1.246-1.527L115.469,360.167z"/>
	<path fill="#6B5849" d="M109.234,366.382c0-0.75,0.52-1.453,1.25-1.453l9.25-0.047c0.75,0,1.512,0.637,1.512,1.363
		c-0.012,0.887-0.594,1.316-1.324,1.316l-9.188,0.32c-0.75,0-1.574-0.91-1.574-1.637L109.234,366.382z"/>
	<path fill="#6B5849" d="M450.246,360.167c0.75,0,1.066,0.563,1.066,1.289l-0.316,9.211c0,0.75-0.273,1.508-1.004,1.508
		c-0.496-0.008-1.32-0.59-1.32-1.316l0.074-9.191c0-0.75,0.516-1.527,1.246-1.527L450.246,360.167z"/>
	<path fill="#6B5849" d="M444.011,366.382c0-0.75,0.52-1.453,1.246-1.453l9.254-0.047c0.75,0,1.512,0.637,1.512,1.363
		c-0.012,0.887-0.594,1.316-1.324,1.316l-9.188,0.32c-0.75,0-1.574-0.91-1.574-1.637L444.011,366.382z"/>
	<path fill="#6B5849" d="M450.246,499.085c0.75,0,1.066,0.559,1.066,1.285l-0.316,9.215c0,0.75-0.273,1.504-1.004,1.504
		c-0.496-0.004-1.32-0.59-1.32-1.316l0.074-9.188c0-0.75,0.516-1.531,1.246-1.531L450.246,499.085z"/>
	<path fill="#6B5849" d="M444.011,505.3c0-0.75,0.52-1.457,1.246-1.457l9.254-0.043c0.75,0,1.512,0.633,1.512,1.359
		c-0.012,0.891-0.594,1.316-1.324,1.316l-9.188,0.324c-0.75,0-1.574-0.914-1.574-1.641L444.011,505.3z"/>
	<path fill="#6B5849" d="M115.469,499.085c0.75,0,1.07,0.559,1.07,1.285l-0.32,9.215c0,0.75-0.273,1.504-1.004,1.504
		c-0.496-0.004-1.32-0.59-1.32-1.316l0.074-9.188c0-0.75,0.516-1.531,1.246-1.531L115.469,499.085z"/>
	<path fill="#6B5849" d="M109.234,505.3c0-0.75,0.52-1.457,1.25-1.457l9.25-0.043c0.75,0,1.512,0.633,1.512,1.359
		c-0.012,0.891-0.594,1.316-1.324,1.316l-9.188,0.324c-0.75,0-1.574-0.914-1.574-1.641L109.234,505.3z"/>
	
		<linearGradient id="SVGID_35_" gradientUnits="userSpaceOnUse" x1="229.3003" y1="183.7422" x2="199.7481" y2="194.4983" gradientTransform="matrix(0.75 0 0 -0.75 289.0741 475.4044)">
		<stop  offset="0" style="stop-color:#D6C8BE"/>
		<stop  offset="0.52" style="stop-color:#957253"/>
		<stop  offset="0.69" style="stop-color:#846549"/>
		<stop  offset="0.8" style="stop-color:#7D5F44"/>
		<stop  offset="0.97" style="stop-color:#755940"/>
		<stop  offset="1" style="stop-color:#88674B"/>
	</linearGradient>
	<path fill="url(#SVGID_35_)" d="M440.742,333.425c0-5.25,4.121-9,9.207-9c5.043,0,9.203,4.105,9.203,9.168
		c0.34,5.082-4.121,9.168-9.203,9.168c-5.457-0.336-9.207-4.105-9.207-9.168V333.425z"/>
	<path fill="#6B5849" d="M450.164,327.554c0.75,0,1.066,0.563,1.066,1.289l-0.316,9.211c0,0.75-0.273,1.508-1.004,1.508
		c-0.496-0.008-1.324-0.59-1.324-1.316l0.078-9.191c0-0.75,0.516-1.527,1.246-1.527L450.164,327.554z"/>
	<path fill="#6B5849" d="M443.929,333.773c0-0.75,0.52-1.457,1.246-1.457l9.254-0.043c0.75,0,1.508,0.633,1.508,1.359
		c-0.008,0.891-0.59,1.316-1.32,1.316l-9.188,0.324c-0.75,0-1.574-0.914-1.574-1.641L443.929,333.773z"/>
	
		<linearGradient id="SVGID_36_" gradientUnits="userSpaceOnUse" x1="229.3013" y1="183.7427" x2="199.7491" y2="194.4988" gradientTransform="matrix(0.75 0 0 -0.75 -45.7028 475.4044)">
		<stop  offset="0" style="stop-color:#D6C8BE"/>
		<stop  offset="0.52" style="stop-color:#957253"/>
		<stop  offset="0.69" style="stop-color:#846549"/>
		<stop  offset="0.8" style="stop-color:#7D5F44"/>
		<stop  offset="0.97" style="stop-color:#755940"/>
		<stop  offset="1" style="stop-color:#88674B"/>
	</linearGradient>
	<path fill="url(#SVGID_36_)" d="M105.965,333.425c0-5.25,4.121-9,9.207-9c5.043,0,9.203,4.105,9.203,9.168
		c0.34,5.082-4.121,9.168-9.203,9.168c-5.457-0.336-9.207-4.105-9.207-9.168V333.425z"/>
	<path fill="#6B5849" d="M115.387,327.554c0.75,0,1.066,0.563,1.066,1.289l-0.316,9.211c0,0.75-0.273,1.508-1.004,1.508
		c-0.496-0.008-1.32-0.59-1.32-1.316l0.074-9.191c0-0.75,0.516-1.527,1.246-1.527L115.387,327.554z"/>
	<path fill="#6B5849" d="M109.152,333.773c0-0.75,0.52-1.457,1.25-1.457l9.25-0.043c0.75,0,1.512,0.633,1.512,1.359
		c-0.012,0.891-0.594,1.316-1.324,1.316l-9.188,0.324c-0.75,0-1.574-0.914-1.574-1.641L109.152,333.773z"/>
	
		<linearGradient id="SVGID_37_" gradientUnits="userSpaceOnUse" x1="229.3008" y1="183.7407" x2="199.748" y2="194.497" gradientTransform="matrix(0.75 0 0 -0.75 289.0721 161.7853)">
		<stop  offset="0" style="stop-color:#D6C8BE"/>
		<stop  offset="0.52" style="stop-color:#957253"/>
		<stop  offset="0.69" style="stop-color:#846549"/>
		<stop  offset="0.8" style="stop-color:#7D5F44"/>
		<stop  offset="0.97" style="stop-color:#755940"/>
		<stop  offset="1" style="stop-color:#88674B"/>
	</linearGradient>
	<path fill="url(#SVGID_37_)" d="M440.742,19.809c0-5.25,4.121-9,9.203-9c5.047,0,9.207,4.102,9.207,9.168
		c0.34,5.082-4.121,9.164-9.207,9.164c-5.453-0.332-9.203-4.102-9.203-9.164V19.809z"/>
	<path fill="#6B5849" d="M450.164,13.938c0.75,0,1.066,0.559,1.066,1.285l-0.316,9.215c0,0.75-0.277,1.504-1.008,1.504
		c-0.492-0.004-1.32-0.59-1.32-1.316l0.078-9.188c0-0.75,0.516-1.531,1.242-1.531L450.164,13.938z"/>
	<path fill="#6B5849" d="M443.929,20.152c0-0.75,0.516-1.457,1.246-1.457l9.254-0.043c0.75,0,1.508,0.633,1.508,1.359
		c-0.008,0.891-0.59,1.316-1.32,1.316l-9.188,0.324c-0.75,0-1.574-0.914-1.574-1.641L443.929,20.152z"/>
	
		<linearGradient id="SVGID_38_" gradientUnits="userSpaceOnUse" x1="229.3022" y1="183.7402" x2="199.7489" y2="194.4968" gradientTransform="matrix(0.75 0 0 -0.75 -45.7028 161.7853)">
		<stop  offset="0" style="stop-color:#D6C8BE"/>
		<stop  offset="0.52" style="stop-color:#957253"/>
		<stop  offset="0.69" style="stop-color:#846549"/>
		<stop  offset="0.8" style="stop-color:#7D5F44"/>
		<stop  offset="0.97" style="stop-color:#755940"/>
		<stop  offset="1" style="stop-color:#88674B"/>
	</linearGradient>
	<path fill="url(#SVGID_38_)" d="M105.965,19.809c0-5.25,4.121-9,9.207-9c5.043,0,9.203,4.102,9.203,9.168
		c0.34,5.082-4.121,9.164-9.203,9.164c-5.457-0.332-9.207-4.102-9.207-9.164V19.809z"/>
	<path fill="#6B5849" d="M115.387,13.938c0.75,0,1.066,0.559,1.066,1.285l-0.316,9.215c0,0.75-0.273,1.504-1.004,1.504
		c-0.496-0.004-1.32-0.59-1.32-1.316l0.074-9.188c0-0.75,0.516-1.531,1.246-1.531L115.387,13.938z"/>
	<path fill="#6B5849" d="M109.152,20.152c0-0.75,0.52-1.457,1.25-1.457l9.25-0.043c0.75,0,1.512,0.633,1.512,1.359
		c-0.012,0.891-0.594,1.316-1.324,1.316l-9.188,0.324c-0.75,0-1.574-0.914-1.574-1.641L109.152,20.152z"/>
	
		<linearGradient id="SVGID_39_" gradientUnits="userSpaceOnUse" x1="508.3384" y1="50.1675" x2="202.2241" y2="50.1675" gradientTransform="matrix(0.75 0 0 -0.75 17.0028 215.2003)">
		<stop  offset="0" style="stop-color:#967B66"/>
		<stop  offset="0.03" style="stop-color:#DDC3AF"/>
		<stop  offset="0.08" style="stop-color:#C3A186"/>
		<stop  offset="0.64" style="stop-color:#C09E84"/>
		<stop  offset="0.95" style="stop-color:#BC9B81"/>
		<stop  offset="1" style="stop-color:#8B725E"/>
	</linearGradient>
	<path fill="url(#SVGID_39_)" d="M173.172,64.223h220.5c2.25,0,4.586,1.945,4.586,4.438l-0.086,217.562c0,3-2.008,4.707-4.512,4.707
		l-220.488-0.207c-2.25,0-4.5-1.816-4.5-4.313V68.723c0-2.25,1.953-4.5,4.453-4.5H173.172z"/>
	<path fill="#F1ECE6" d="M183.699,76.258h197.25c2.25,0,3.746,1.734,3.746,3.957l0.004,194.043c0,2.25-1.871,4.18-4.102,4.18
		l-196.898,0.32c-2.25,0-3.75-2.125-3.75-4.352V80.008c0-2.25,1.742-3.75,3.973-3.75H183.699z"/>
	<path fill="#598294" d="M204.277,100.629h155.25c2.25,0,4.52,1.941,4.52,4.434l-0.02,87.816c0,2.25-2.039,4.355-4.543,4.355
		l-155.207,0.145c-2.25,0-4.5-2.195-4.5-4.688v-87.563c0-2.25,2-4.5,4.504-4.5H204.277z"/>
	<path fill="#565656" d="M207.684,104.375h148.5c2.25,0,4.453,2,4.453,4.492l0.047,80.258c0,2.25-2.117,4.363-4.617,4.363
		l-148.382,0.137c-2.25,0-4.5-2.156-4.5-4.652v-80.098c0-2.25,1.973-4.5,4.473-4.5H207.684z"/>
	<path fill="#DCDCDD" d="M197.461,230.375h22.5c2.25,0,4.332,1.945,4.332,4.438l0.168,18.063c0,3-2.195,4.879-4.699,4.879
		l-22.301,0.371c-2.25,0-4.5-2.391-4.5-4.883v-18.367c0-2.25,2.02-4.574,4.52-4.574L197.461,230.375z"/>
	<path fill="#DCDCDD" d="M247.688,230.375h22.5c2.25,0,4.332,1.945,4.332,4.438l0.168,18.063c0,3-2.199,4.879-4.699,4.879
		l-22.301,0.371c-2.25,0-4.5-2.391-4.5-4.883v-18.367c0-2.25,2.016-4.574,4.52-4.574L247.688,230.375z"/>
	<path fill="#DCDCDD" d="M294.031,230.375h22.5c2.25,0,4.332,1.945,4.332,4.438l0.168,18.063c0,3-2.195,4.879-4.699,4.879
		l-22.301,0.371c-2.25,0-4.5-2.391-4.5-4.883v-18.367c0-2.25,2.02-4.574,4.52-4.574L294.031,230.375z"/>
	<path fill="#DCDCDD" d="M345.765,230.375h22.5c2.25,0,4.332,1.945,4.332,4.438l0.168,18.063c0,3-2.195,4.879-4.699,4.879
		l-22.301,0.371c-2.25,0-4.5-2.391-4.5-4.883v-18.367c0-2.25,2.02-4.574,4.52-4.574L345.765,230.375z"/>
	<path fill="#888889" fill-opacity="0.251" d="M249.219,79.492h66v18h-66V79.492z"/>
</g>
</svg>
