<?xml version="1.0" encoding="utf-8"?>
<!-- Generator: Adobe Illustrator 16.0.0, SVG Export Plug-In . SVG Version: 6.00 Build 0)  -->
<!DOCTYPE svg PUBLIC "-//W3C//DTD SVG 1.1//EN" "http://www.w3.org/Graphics/SVG/1.1/DTD/svg11.dtd">
<svg preserveAspectRatio="none" version="1.1" id="图层_1" xmlns="http://www.w3.org/2000/svg" xmlns:xlink="http://www.w3.org/1999/xlink" x="0px" y="0px"
	 width="554.144px" height="569.039px" viewBox="6.34 -1.133 554.144 569.039" enable-background="new 6.34 -1.133 554.144 569.039"
	 xml:space="preserve">
<g>
	
		<linearGradient id="SVGID_1_" gradientUnits="userSpaceOnUse" x1="522.7251" y1="201.3047" x2="522.7251" y2="-8.6963" gradientTransform="matrix(0.75 0 0 -0.75 -108.5675 495.7072)">
		<stop  offset="0" style="stop-color:#918884"/>
		<stop  offset="0.15" style="stop-color:#C9BEB9"/>
		<stop  offset="0.25" style="stop-color:#E2DCDA"/>
		<stop  offset="0.52" style="stop-color:#ACA29C"/>
		<stop  offset="0.69" style="stop-color:#998F8B"/>
		<stop  offset="0.8" style="stop-color:#908783"/>
		<stop  offset="0.92" style="stop-color:#887F7B"/>
		<stop  offset="1" style="stop-color:#9D938E"/>
	</linearGradient>
	<path fill="url(#SVGID_1_)" d="M43.102,344.73h480.75v157.5H43.102V344.73z"/>
	
		<linearGradient id="SVGID_2_" gradientUnits="userSpaceOnUse" x1="226.7266" y1="201.3037" x2="226.7265" y2="-184.1748" gradientTransform="matrix(0.75 0 0 -0.75 -145.3297 429.7745)">
		<stop  offset="0" style="stop-color:#918884"/>
		<stop  offset="0.15" style="stop-color:#C9BEB9"/>
		<stop  offset="0.25" style="stop-color:#E2DCDA"/>
		<stop  offset="0.52" style="stop-color:#ACA29C"/>
		<stop  offset="0.69" style="stop-color:#998F8B"/>
		<stop  offset="0.8" style="stop-color:#908783"/>
		<stop  offset="0.92" style="stop-color:#887F7B"/>
		<stop  offset="1" style="stop-color:#9D938E"/>
	</linearGradient>
	<path fill="url(#SVGID_2_)" d="M16.09,278.797h17.25c5.25,0,9.668,4.328,9.668,9.722l0.082,269.277c0,6-4.406,10.109-9.738,10.109
		l-17.262-0.359c-5.25,0-9.75-4.074-9.75-9.469V288.546c0-5.25,4.305-9.75,9.637-9.75H16.09z"/>
	
		<linearGradient id="SVGID_3_" gradientUnits="userSpaceOnUse" x1="226.7261" y1="201.3027" x2="226.7261" y2="-184.1758" gradientTransform="matrix(0.75 0 0 -0.75 372.0643 429.7736)">
		<stop  offset="0" style="stop-color:#918884"/>
		<stop  offset="0.15" style="stop-color:#C9BEB9"/>
		<stop  offset="0.25" style="stop-color:#E2DCDA"/>
		<stop  offset="0.52" style="stop-color:#ACA29C"/>
		<stop  offset="0.69" style="stop-color:#998F8B"/>
		<stop  offset="0.8" style="stop-color:#908783"/>
		<stop  offset="0.92" style="stop-color:#887F7B"/>
		<stop  offset="1" style="stop-color:#9D938E"/>
	</linearGradient>
	<path fill="url(#SVGID_3_)" d="M533.484,278.797h17.25c5.25,0,9.664,4.324,9.664,9.718l0.086,269.281
		c0,6-4.406,10.109-9.738,10.109l-17.262-0.359c-5.25,0-9.75-4.074-9.75-9.469V288.546c0-5.25,4.305-9.75,9.637-9.75H533.484z"/>
	
		<linearGradient id="SVGID_4_" gradientUnits="userSpaceOnUse" x1="385.2251" y1="176.8057" x2="202.2251" y2="176.8056" gradientTransform="matrix(0.75 0 0 -0.75 134.8378 462.6232)">
		<stop  offset="0" style="stop-color:#918884"/>
		<stop  offset="0.15" style="stop-color:#C9BEB9"/>
		<stop  offset="0.25" style="stop-color:#E2DCDA"/>
		<stop  offset="0.52" style="stop-color:#ACA29C"/>
		<stop  offset="0.69" style="stop-color:#998F8B"/>
		<stop  offset="0.8" style="stop-color:#908783"/>
		<stop  offset="0.92" style="stop-color:#887F7B"/>
		<stop  offset="1" style="stop-color:#9D938E"/>
	</linearGradient>
	<path fill="url(#SVGID_4_)" d="M286.507,311.644h137.25v36.75h-137.25V311.644z"/>
	
		<linearGradient id="SVGID_5_" gradientUnits="userSpaceOnUse" x1="399.2251" y1="194.3027" x2="202.2261" y2="194.3027" gradientTransform="matrix(0.75 0 0 -0.75 129.7089 452.2462)">
		<stop  offset="0" style="stop-color:#918884"/>
		<stop  offset="0.15" style="stop-color:#C9BEB9"/>
		<stop  offset="0.25" style="stop-color:#E2DCDA"/>
		<stop  offset="0.52" style="stop-color:#ACA29C"/>
		<stop  offset="0.69" style="stop-color:#998F8B"/>
		<stop  offset="0.8" style="stop-color:#908783"/>
		<stop  offset="0.92" style="stop-color:#887F7B"/>
		<stop  offset="1" style="stop-color:#9D938E"/>
	</linearGradient>
	<path fill="url(#SVGID_5_)" d="M281.379,311.769h147.75v-10.5h-147.75V311.769z"/>
	
		<linearGradient id="SVGID_6_" gradientUnits="userSpaceOnUse" x1="356.2251" y1="167.8027" x2="202.2251" y2="167.8027" gradientTransform="matrix(0.75 0 0 -0.75 145.9979 403.1681)">
		<stop  offset="0" style="stop-color:#918884"/>
		<stop  offset="0.15" style="stop-color:#C9BEB9"/>
		<stop  offset="0.25" style="stop-color:#E2DCDA"/>
		<stop  offset="0.52" style="stop-color:#ACA29C"/>
		<stop  offset="0.69" style="stop-color:#998F8B"/>
		<stop  offset="0.8" style="stop-color:#908783"/>
		<stop  offset="0.92" style="stop-color:#887F7B"/>
		<stop  offset="1" style="stop-color:#9D938E"/>
	</linearGradient>
	<path fill="url(#SVGID_6_)" d="M297.667,302.441h115.5v-50.25h-115.5V302.441z"/>
	
		<linearGradient id="SVGID_7_" gradientUnits="userSpaceOnUse" x1="287.2231" y1="193.8027" x2="202.2236" y2="193.8027" gradientTransform="matrix(0.75 0 0 -0.75 171.6395 392.1798)">
		<stop  offset="0" style="stop-color:#7A6C66"/>
		<stop  offset="0.15" style="stop-color:#AD9C95"/>
		<stop  offset="0.25" style="stop-color:#D4CDCA"/>
		<stop  offset="0.52" style="stop-color:#918079"/>
		<stop  offset="0.69" style="stop-color:#80716B"/>
		<stop  offset="0.8" style="stop-color:#796B65"/>
		<stop  offset="0.92" style="stop-color:#72645F"/>
		<stop  offset="1" style="stop-color:#83746E"/>
	</linearGradient>
	<path fill="url(#SVGID_7_)" d="M323.308,252.453h63.75v-11.25h-63.75V252.453z"/>
	
		<linearGradient id="SVGID_8_" gradientUnits="userSpaceOnUse" x1="300.2271" y1="164.3027" x2="202.2271" y2="164.3027" gradientTransform="matrix(0.75 0 0 -0.75 166.8134 336.6329)">
		<stop  offset="0" style="stop-color:#918884"/>
		<stop  offset="0.15" style="stop-color:#C9BEB9"/>
		<stop  offset="0.25" style="stop-color:#E2DCDA"/>
		<stop  offset="0.52" style="stop-color:#ACA29C"/>
		<stop  offset="0.69" style="stop-color:#998F8B"/>
		<stop  offset="0.8" style="stop-color:#908783"/>
		<stop  offset="0.92" style="stop-color:#887F7B"/>
		<stop  offset="1" style="stop-color:#9D938E"/>
	</linearGradient>
	<path fill="url(#SVGID_8_)" d="M318.484,241.156h73.5v-55.5h-73.5V241.156z"/>
	
		<linearGradient id="SVGID_9_" gradientUnits="userSpaceOnUse" x1="345.4136" y1="201.3018" x2="345.4136" y2="137.8174" gradientTransform="matrix(0.75 0 0 -0.75 96.225 149.8439)">
		<stop  offset="0" style="stop-color:#918884"/>
		<stop  offset="0.15" style="stop-color:#C9BEB9"/>
		<stop  offset="0.25" style="stop-color:#E2DCDA"/>
		<stop  offset="0.52" style="stop-color:#ACA29C"/>
		<stop  offset="0.69" style="stop-color:#998F8B"/>
		<stop  offset="0.8" style="stop-color:#908783"/>
		<stop  offset="0.92" style="stop-color:#887F7B"/>
		<stop  offset="1" style="stop-color:#9D938E"/>
	</linearGradient>
	<path fill="url(#SVGID_9_)" d="M257.645-1.133h195.75c5.25,0,9.281,4.371,9.281,9.766l-0.281,27.734c0,6-4.039,10.113-9.371,10.113
		l-195.378-0.363c-5.25,0-9.75-4.012-9.75-9.406V8.617c0-5.25,4.32-9.75,9.652-9.75H257.645z"/>
	
		<linearGradient id="SVGID_10_" gradientUnits="userSpaceOnUse" x1="209.2236" y1="201.3018" x2="209.2236" y2="145.1455" gradientTransform="matrix(0.75 0 0 -0.75 85.9686 152.59)">
		<stop  offset="0" style="stop-color:#918884"/>
		<stop  offset="0.15" style="stop-color:#C9BEB9"/>
		<stop  offset="0.25" style="stop-color:#E2DCDA"/>
		<stop  offset="0.52" style="stop-color:#ACA29C"/>
		<stop  offset="0.69" style="stop-color:#998F8B"/>
		<stop  offset="0.8" style="stop-color:#908783"/>
		<stop  offset="0.92" style="stop-color:#887F7B"/>
		<stop  offset="1" style="stop-color:#9D938E"/>
	</linearGradient>
	<path fill="url(#SVGID_10_)" d="M241.387,1.613h3c2.25,0,3.508,1.641,3.508,3.664l0.242,34.586c0,2.25-1.863,3.867-3.863,3.867
		l-2.887-0.117c-2.25,0-3.75-1.52-3.75-3.543V5.363c0-2.25,1.621-3.75,3.621-3.75H241.387z"/>
	
		<linearGradient id="SVGID_11_" gradientUnits="userSpaceOnUse" x1="209.2246" y1="201.3018" x2="209.2246" y2="145.1455" gradientTransform="matrix(0.75 0 0 -0.75 311.0067 152.59)">
		<stop  offset="0" style="stop-color:#918884"/>
		<stop  offset="0.15" style="stop-color:#C9BEB9"/>
		<stop  offset="0.25" style="stop-color:#E2DCDA"/>
		<stop  offset="0.52" style="stop-color:#ACA29C"/>
		<stop  offset="0.69" style="stop-color:#998F8B"/>
		<stop  offset="0.8" style="stop-color:#908783"/>
		<stop  offset="0.92" style="stop-color:#887F7B"/>
		<stop  offset="1" style="stop-color:#9D938E"/>
	</linearGradient>
	<path fill="url(#SVGID_11_)" d="M466.425,1.613h3c2.25,0,3.508,1.641,3.508,3.664l0.242,34.586c0,2.25-1.863,3.867-3.863,3.867
		l-2.887-0.117c-2.25,0-3.75-1.52-3.75-3.543V5.363c0-2.25,1.621-3.75,3.621-3.75H466.425z"/>
	
		<linearGradient id="SVGID_12_" gradientUnits="userSpaceOnUse" x1="412.2788" y1="223.7573" x2="240.9768" y2="-72.9465" gradientTransform="matrix(0.75 0 0 -0.75 110.2606 158.8556)">
		<stop  offset="0" style="stop-color:#CCC7C4"/>
		<stop  offset="0.52" style="stop-color:#7C6F68"/>
		<stop  offset="0.69" style="stop-color:#6E625C"/>
		<stop  offset="0.8" style="stop-color:#685C56"/>
		<stop  offset="0.92" style="stop-color:#625751"/>
		<stop  offset="1" style="stop-color:#71655E"/>
	</linearGradient>
	<path fill="url(#SVGID_12_)" d="M261.93,102.379c0-52.5,41.796-94.5,93.355-94.5c51.395,0,93.355,42.289,93.355,94.453
		c0.039,51.797-41.797,94.453-93.355,94.453c-51.355,0.094-93.355-42.289-93.355-94.453V102.379z"/>
	
		<linearGradient id="SVGID_13_" gradientUnits="userSpaceOnUse" x1="405.3091" y1="222.9233" x2="239.8011" y2="-63.7449" gradientTransform="matrix(0.75 0 0 -0.75 113.4193 162.0519)">
		<stop  offset="0" style="stop-color:#E2DCDA"/>
		<stop  offset="0.52" style="stop-color:#ACA29C"/>
		<stop  offset="0.69" style="stop-color:#998F8B"/>
		<stop  offset="0.8" style="stop-color:#908783"/>
		<stop  offset="0.92" style="stop-color:#887F7B"/>
		<stop  offset="1" style="stop-color:#9D938E"/>
	</linearGradient>
	<path fill="url(#SVGID_13_)" d="M265.09,102.574c0-51,40.382-91.5,90.195-91.5c50.055,0,90.195,40.859,90.195,91.258
		c0.359,50.492-40.383,91.258-90.195,91.258c-49.695-0.266-90.195-40.859-90.195-91.258V102.574z"/>
	
		<linearGradient id="SVGID_14_" gradientUnits="userSpaceOnUse" x1="342.3882" y1="216.2661" x2="228.1077" y2="18.3265" gradientTransform="matrix(0.75 0 0 -0.75 141.3363 190.297)">
		<stop  offset="0" style="stop-color:#CCC7C4"/>
		<stop  offset="0.52" style="stop-color:#7C6F68"/>
		<stop  offset="0.69" style="stop-color:#6E625C"/>
		<stop  offset="0.8" style="stop-color:#685C56"/>
		<stop  offset="0.92" style="stop-color:#625751"/>
		<stop  offset="1" style="stop-color:#71655E"/>
	</linearGradient>
	<path fill="url(#SVGID_14_)" d="M293.003,102.32c0-34.5,27.887-63,62.281-63c34.469,0,62.281,28.211,62.281,63.012
		c-0.063,34.488-27.887,63.012-62.281,63.012c-34.531-0.023-62.281-28.211-62.281-63.012V102.32z"/>
	
		<linearGradient id="SVGID_15_" gradientUnits="userSpaceOnUse" x1="335.3696" y1="215.4082" x2="226.9448" y2="27.6109" gradientTransform="matrix(0.75 0 0 -0.75 144.5282 193.5275)">
		<stop  offset="0" style="stop-color:#ACA29C"/>
		<stop  offset="0.69" style="stop-color:#998F8B"/>
		<stop  offset="0.8" style="stop-color:#908783"/>
		<stop  offset="0.92" style="stop-color:#887F7B"/>
		<stop  offset="1" style="stop-color:#9D938E"/>
	</linearGradient>
	<path fill="url(#SVGID_15_)" d="M296.199,102.551c0-33,26.453-60,59.086-60c32.414,0,59.086,26.766,59.086,59.781
		c0.328,33.219-26.453,59.781-59.086,59.781c-32.836-0.313-59.086-26.766-59.086-59.781V102.551z"/>
	<path d="M303.48,75.313h103.5v54h-103.5V75.313z"/>
	<path fill="#FFFFFF" fill-opacity="0.2314" d="M306.464,77.973h97.5v48.75h-97.5V77.973z"/>
	
		<linearGradient id="SVGID_16_" gradientUnits="userSpaceOnUse" x1="221.5215" y1="203.3247" x2="205.8367" y2="176.1579" gradientTransform="matrix(0.75 0 0 -0.75 167.3094 282.545)">
		<stop  offset="0" style="stop-color:#C7C2C1"/>
		<stop  offset="0.52" style="stop-color:#6F635D"/>
		<stop  offset="0.69" style="stop-color:#625752"/>
		<stop  offset="0.8" style="stop-color:#5C524D"/>
		<stop  offset="0.92" style="stop-color:#574D48"/>
		<stop  offset="1" style="stop-color:#655954"/>
	</linearGradient>
	<path fill="url(#SVGID_16_)" d="M318.976,140.566c0-5.25,3.828-9,8.551-9c4.949,0,8.547,3.871,8.547,8.648
		c0.152,4.852-3.828,8.648-8.547,8.648c-4.801-0.047-8.551-3.871-8.551-8.648V140.566z"/>
	<g>
		<defs>
			<rect id="SVGID_17_" x="320" y="132" width="15" height="16"/>
		</defs>
		<clipPath id="SVGID_18_">
			<use xlink:href="#SVGID_17_"  overflow="visible"/>
		</clipPath>
		<g clip-path="url(#SVGID_18_)">
			<g>
				<defs>
					<path id="SVGID_19_" d="M320.332,140.438c0-4.5,3.223-7.5,7.195-7.5c4.055,0,7.191,3.258,7.191,7.277
						c-0.137,3.973-3.223,7.277-7.191,7.277c-4.195-0.305-7.195-3.258-7.195-7.277V140.438z"/>
				</defs>
				<clipPath id="SVGID_20_">
					<use xlink:href="#SVGID_19_"  overflow="visible"/>
				</clipPath>
				<g clip-path="url(#SVGID_20_)">
					
						<linearGradient id="SVGID_21_" gradientUnits="userSpaceOnUse" x1="212.2227" y1="181.3057" x2="212.2227" y2="201.3057" gradientTransform="matrix(0.75 0 0 -0.75 168.6649 283.9161)">
						<stop  offset="0" style="stop-color:#C3C2C1"/>
						<stop  offset="0.08" style="stop-color:#BEBDBD"/>
						<stop  offset="0.2" style="stop-color:#B3B3B2"/>
						<stop  offset="0.31" style="stop-color:#A9A9A8"/>
						<stop  offset="1" style="stop-color:#D6D5D4"/>
					</linearGradient>
					
						<linearGradient id="SVGID_22_" gradientUnits="userSpaceOnUse" x1="211.5156" y1="181.3037" x2="211.5156" y2="201.3037" gradientTransform="matrix(0.75 0 0 -0.75 168.6649 283.9161)">
						<stop  offset="0" style="stop-color:#C3C2C1"/>
						<stop  offset="0.08" style="stop-color:#BEBDBD"/>
						<stop  offset="0.2" style="stop-color:#B3B3B2"/>
						<stop  offset="0.31" style="stop-color:#A9A9A8"/>
						<stop  offset="1" style="stop-color:#D6D5D4"/>
					</linearGradient>
					<path fill="url(#SVGID_21_)" stroke="url(#SVGID_22_)" stroke-width="2" stroke-miterlimit="10" d="M320.332,132.938h15v15
						L320.332,132.938z"/>
					
						<linearGradient id="SVGID_23_" gradientUnits="userSpaceOnUse" x1="222.2217" y1="191.3057" x2="202.2217" y2="191.3057" gradientTransform="matrix(0.75 0 0 -0.75 168.6649 283.9161)">
						<stop  offset="0" style="stop-color:#C3C2C1"/>
						<stop  offset="0.08" style="stop-color:#BEBDBD"/>
						<stop  offset="0.2" style="stop-color:#B3B3B2"/>
						<stop  offset="0.31" style="stop-color:#A9A9A8"/>
						<stop  offset="1" style="stop-color:#D6D5D4"/>
					</linearGradient>
					
						<linearGradient id="SVGID_24_" gradientUnits="userSpaceOnUse" x1="222.2241" y1="192.0127" x2="202.2241" y2="192.0127" gradientTransform="matrix(0.75 0 0 -0.75 168.6649 283.9161)">
						<stop  offset="0" style="stop-color:#C3C2C1"/>
						<stop  offset="0.08" style="stop-color:#BEBDBD"/>
						<stop  offset="0.2" style="stop-color:#B3B3B2"/>
						<stop  offset="0.31" style="stop-color:#A9A9A8"/>
						<stop  offset="1" style="stop-color:#D6D5D4"/>
					</linearGradient>
					<path fill="url(#SVGID_23_)" stroke="url(#SVGID_24_)" stroke-width="2" stroke-miterlimit="10" d="M320.332,132.938v15h15
						L320.332,132.938z"/>
				</g>
			</g>
			
				<linearGradient id="SVGID_25_" gradientUnits="userSpaceOnUse" x1="221.522" y1="203.3257" x2="205.8359" y2="176.1566" gradientTransform="matrix(0.75 0 0 -0.75 195.0428 282.545)">
				<stop  offset="0" style="stop-color:#C7C2C1"/>
				<stop  offset="0.52" style="stop-color:#6F635D"/>
				<stop  offset="0.69" style="stop-color:#625752"/>
				<stop  offset="0.8" style="stop-color:#5C524D"/>
				<stop  offset="0.92" style="stop-color:#574D48"/>
				<stop  offset="1" style="stop-color:#655954"/>
			</linearGradient>
			<path fill="url(#SVGID_25_)" d="M346.71,140.566c0-5.25,3.828-9,8.547-9c4.953,0,8.551,3.871,8.551,8.648
				c0.152,4.852-3.828,8.648-8.551,8.648c-4.797-0.047-8.547-3.871-8.547-8.648V140.566z"/>
			<g>
				<defs>
					<rect id="SVGID_26_" x="348" y="132" width="15" height="16"/>
				</defs>
				<clipPath id="SVGID_27_">
					<use xlink:href="#SVGID_26_"  overflow="visible"/>
				</clipPath>
				<g clip-path="url(#SVGID_27_)">
					<g>
						<defs>
							<path id="SVGID_28_" d="M348.066,140.438c0-4.5,3.223-7.5,7.191-7.5c4.059,0,7.191,3.258,7.191,7.277
								c-0.133,3.973-3.219,7.277-7.191,7.277c-4.191-0.305-7.191-3.258-7.191-7.277V140.438z"/>
						</defs>
						<clipPath id="SVGID_29_">
							<use xlink:href="#SVGID_28_"  overflow="visible"/>
						</clipPath>
						<g clip-path="url(#SVGID_29_)">
							
								<linearGradient id="SVGID_30_" gradientUnits="userSpaceOnUse" x1="212.2236" y1="181.3057" x2="212.2236" y2="201.3057" gradientTransform="matrix(0.75 0 0 -0.75 196.3983 283.9161)">
								<stop  offset="0" style="stop-color:#C3C2C1"/>
								<stop  offset="0.08" style="stop-color:#BEBDBD"/>
								<stop  offset="0.2" style="stop-color:#B3B3B2"/>
								<stop  offset="0.31" style="stop-color:#A9A9A8"/>
								<stop  offset="1" style="stop-color:#D6D5D4"/>
							</linearGradient>
							
								<linearGradient id="SVGID_31_" gradientUnits="userSpaceOnUse" x1="211.5166" y1="181.3037" x2="211.5166" y2="201.3037" gradientTransform="matrix(0.75 0 0 -0.75 196.3983 283.9161)">
								<stop  offset="0" style="stop-color:#C3C2C1"/>
								<stop  offset="0.08" style="stop-color:#BEBDBD"/>
								<stop  offset="0.2" style="stop-color:#B3B3B2"/>
								<stop  offset="0.31" style="stop-color:#A9A9A8"/>
								<stop  offset="1" style="stop-color:#D6D5D4"/>
							</linearGradient>
							<path fill="url(#SVGID_30_)" stroke="url(#SVGID_31_)" stroke-width="2" stroke-miterlimit="10" d="M348.066,132.938h15v15
								L348.066,132.938z"/>
							
								<linearGradient id="SVGID_32_" gradientUnits="userSpaceOnUse" x1="222.2231" y1="191.3057" x2="202.2231" y2="191.3057" gradientTransform="matrix(0.75 0 0 -0.75 196.3983 283.9161)">
								<stop  offset="0" style="stop-color:#C3C2C1"/>
								<stop  offset="0.08" style="stop-color:#BEBDBD"/>
								<stop  offset="0.2" style="stop-color:#B3B3B2"/>
								<stop  offset="0.31" style="stop-color:#A9A9A8"/>
								<stop  offset="1" style="stop-color:#D6D5D4"/>
							</linearGradient>
							
								<linearGradient id="SVGID_33_" gradientUnits="userSpaceOnUse" x1="222.2251" y1="192.0127" x2="202.2251" y2="192.0127" gradientTransform="matrix(0.75 0 0 -0.75 196.3983 283.9161)">
								<stop  offset="0" style="stop-color:#C3C2C1"/>
								<stop  offset="0.08" style="stop-color:#BEBDBD"/>
								<stop  offset="0.2" style="stop-color:#B3B3B2"/>
								<stop  offset="0.31" style="stop-color:#A9A9A8"/>
								<stop  offset="1" style="stop-color:#D6D5D4"/>
							</linearGradient>
							<path fill="url(#SVGID_32_)" stroke="url(#SVGID_33_)" stroke-width="2" stroke-miterlimit="10" d="M348.066,132.938v15h15
								L348.066,132.938z"/>
						</g>
					</g>
					
						<linearGradient id="SVGID_34_" gradientUnits="userSpaceOnUse" x1="221.5205" y1="203.3252" x2="205.8358" y2="176.1584" gradientTransform="matrix(0.75 0 0 -0.75 222.7391 282.545)">
						<stop  offset="0" style="stop-color:#C7C2C1"/>
						<stop  offset="0.52" style="stop-color:#6F635D"/>
						<stop  offset="0.69" style="stop-color:#625752"/>
						<stop  offset="0.8" style="stop-color:#5C524D"/>
						<stop  offset="0.92" style="stop-color:#574D48"/>
						<stop  offset="1" style="stop-color:#655954"/>
					</linearGradient>
					<path fill="url(#SVGID_34_)" d="M374.406,140.566c0-5.25,3.828-9,8.551-9c4.949,0,8.547,3.871,8.547,8.648
						c0.152,4.852-3.828,8.648-8.547,8.648c-4.801-0.047-8.551-3.871-8.551-8.648V140.566z"/>
					<g>
						<defs>
							<rect id="SVGID_35_" x="375" y="132" width="16" height="16"/>
						</defs>
						<clipPath id="SVGID_36_">
							<use xlink:href="#SVGID_35_"  overflow="visible"/>
						</clipPath>
						<g id="surface216" clip-path="url(#SVGID_36_)">
							<g>
								<defs>
									<path id="SVGID_37_" d="M375.765,140.438c0-4.5,3.219-7.5,7.191-7.5c4.059,0,7.191,3.258,7.191,7.277
										c-0.133,3.973-3.223,7.277-7.191,7.277c-4.191-0.305-7.191-3.258-7.191-7.277V140.438z"/>
								</defs>
								<clipPath id="SVGID_38_">
									<use xlink:href="#SVGID_37_"  overflow="visible"/>
								</clipPath>
								<g clip-path="url(#SVGID_38_)">
									
										<linearGradient id="SVGID_39_" gradientUnits="userSpaceOnUse" x1="212.2285" y1="181.3057" x2="212.2285" y2="201.3057" gradientTransform="matrix(0.75 0 0 -0.75 224.0946 283.9161)">
										<stop  offset="0" style="stop-color:#C3C2C1"/>
										<stop  offset="0.08" style="stop-color:#BEBDBD"/>
										<stop  offset="0.2" style="stop-color:#B3B3B2"/>
										<stop  offset="0.31" style="stop-color:#A9A9A8"/>
										<stop  offset="1" style="stop-color:#D6D5D4"/>
									</linearGradient>
									
										<linearGradient id="SVGID_40_" gradientUnits="userSpaceOnUse" x1="211.5215" y1="181.3037" x2="211.5215" y2="201.3037" gradientTransform="matrix(0.75 0 0 -0.75 224.0946 283.9161)">
										<stop  offset="0" style="stop-color:#C3C2C1"/>
										<stop  offset="0.08" style="stop-color:#BEBDBD"/>
										<stop  offset="0.2" style="stop-color:#B3B3B2"/>
										<stop  offset="0.31" style="stop-color:#A9A9A8"/>
										<stop  offset="1" style="stop-color:#D6D5D4"/>
									</linearGradient>
									<path fill="url(#SVGID_39_)" stroke="url(#SVGID_40_)" stroke-width="2" stroke-miterlimit="10" d="M375.765,132.938h15v15
										L375.765,132.938z"/>
									
										<linearGradient id="SVGID_41_" gradientUnits="userSpaceOnUse" x1="222.2275" y1="191.3057" x2="202.2275" y2="191.3057" gradientTransform="matrix(0.75 0 0 -0.75 224.0946 283.9161)">
										<stop  offset="0" style="stop-color:#C3C2C1"/>
										<stop  offset="0.08" style="stop-color:#BEBDBD"/>
										<stop  offset="0.2" style="stop-color:#B3B3B2"/>
										<stop  offset="0.31" style="stop-color:#A9A9A8"/>
										<stop  offset="1" style="stop-color:#D6D5D4"/>
									</linearGradient>
									
										<linearGradient id="SVGID_42_" gradientUnits="userSpaceOnUse" x1="222.2251" y1="192.0127" x2="202.2251" y2="192.0127" gradientTransform="matrix(0.75 0 0 -0.75 224.0946 283.9161)">
										<stop  offset="0" style="stop-color:#C3C2C1"/>
										<stop  offset="0.08" style="stop-color:#BEBDBD"/>
										<stop  offset="0.2" style="stop-color:#B3B3B2"/>
										<stop  offset="0.31" style="stop-color:#A9A9A8"/>
										<stop  offset="1" style="stop-color:#D6D5D4"/>
									</linearGradient>
									<path fill="url(#SVGID_41_)" stroke="url(#SVGID_42_)" stroke-width="2" stroke-miterlimit="10" d="M375.765,132.938v15h15
										L375.765,132.938z"/>
								</g>
							</g>
							<path fill="#FFFFFF" fill-opacity="0.0588" d="M391.23,75.164h15.75v54h-103.5L391.23,75.164z"/>
						</g>
					</g>
				</g>
			</g>
		</g>
	</g>
</g>
</svg>
