<?xml version="1.0" encoding="utf-8"?>
<!-- Generator: Adobe Illustrator 16.0.0, SVG Export Plug-In . SVG Version: 6.00 Build 0)  -->
<!DOCTYPE svg PUBLIC "-//W3C//DTD SVG 1.1//EN" "http://www.w3.org/Graphics/SVG/1.1/DTD/svg11.dtd">
<svg preserveAspectRatio="none" version="1.1" id="图层_1" xmlns="http://www.w3.org/2000/svg" xmlns:xlink="http://www.w3.org/1999/xlink" x="0px" y="0px"
	 width="554.25px" height="259.36px" viewBox="6.449 153.797 554.25 259.36" enable-background="new 6.449 153.797 554.25 259.36"
	 xml:space="preserve">
<g id="surface211">
	
		<linearGradient id="SVGID_1_" gradientUnits="userSpaceOnUse" x1="320.5679" y1="226.8076" x2="361.2802" y2="250.3129" gradientTransform="matrix(0.5303 0.5303 0.5303 -0.5303 -122.7302 142.8946)">
		<stop  offset="0" style="stop-color:#5E5A5E"/>
		<stop  offset="0.22" style="stop-color:#726E72"/>
		<stop  offset="0.68" style="stop-color:#585458"/>
		<stop  offset="1" style="stop-color:#453F45"/>
	</linearGradient>
	<path fill="url(#SVGID_1_)" d="M178.898,187.082c7.422-7.426,19.23-7.285,26.617,0.102c-0.102-0.102-26.723,26.723-26.723,26.723
		c-7.32-7.73-7.371-19.352,0-26.723L178.898,187.082z"/>
	
		<linearGradient id="SVGID_2_" gradientUnits="userSpaceOnUse" x1="294.7427" y1="200.9829" x2="335.455" y2="224.4882" gradientTransform="matrix(-0.5303 0.5303 -0.5303 -0.5303 660.7819 142.8946)">
		<stop  offset="0" style="stop-color:#5E5A5E"/>
		<stop  offset="0.22" style="stop-color:#726E72"/>
		<stop  offset="0.68" style="stop-color:#585458"/>
		<stop  offset="1" style="stop-color:#453F45"/>
	</linearGradient>
	<path fill="url(#SVGID_2_)" d="M386.546,187.082c-7.422-7.426-19.23-7.285-26.617,0.102c0.102-0.102,26.719,26.723,26.719,26.723
		c7.324-7.73,7.371-19.352,0-26.723L386.546,187.082z"/>
	
		<linearGradient id="SVGID_3_" gradientUnits="userSpaceOnUse" x1="571.7241" y1="201.3057" x2="571.7241" y2="36.3457" gradientTransform="matrix(0.75 0 0 -0.75 -145.2194 440.4161)">
		<stop  offset="0" style="stop-color:#5E5A5E"/>
		<stop  offset="0.22" style="stop-color:#726E72"/>
		<stop  offset="0.39" style="stop-color:#726E72"/>
		<stop  offset="0.68" style="stop-color:#585458"/>
		<stop  offset="1" style="stop-color:#453F45"/>
	</linearGradient>
	<path fill="url(#SVGID_3_)" d="M7.199,289.437h552c1.5,0,1.281,0.406,1.281,0.922l0.219,106.328c0,0.75-0.219,0.793-1.164,0.793
		l-131.586-0.793c0,0-10.574,8.617-30.387,16.445c-0.363,0.055-228.21,0-228.21,0c-18.902-7.445-30.379-16.582-30.379-16.582
		L7.199,397.437c-0.75,0-0.75-0.371-0.75-0.887V290.187c0,0,0-0.75,0.91-0.75H7.199z"/>
	
		<linearGradient id="SVGID_4_" gradientUnits="userSpaceOnUse" x1="210.5596" y1="127.105" x2="202.2266" y2="127.105" gradientTransform="matrix(0.75 0 0 -0.75 -136.9318 438.7872)">
		<stop  offset="0" style="stop-color:#5E5A5E"/>
		<stop  offset="0.22" style="stop-color:#726E72"/>
		<stop  offset="0.39" style="stop-color:#726E72"/>
		<stop  offset="0.68" style="stop-color:#585458"/>
		<stop  offset="1" style="stop-color:#453F45"/>
	</linearGradient>
	<path fill="url(#SVGID_4_)" d="M14.738,287.808h6c0,0,0.25,0.418,0.25,0.949l-0.25,109.301c0,0.75,0.25,1.051,0.238,1.051
		l-6.238-0.301c0,0,0-0.129,0-0.66v-109.59c0,0,0-0.75,0.008-0.75H14.738z"/>
	
		<linearGradient id="SVGID_5_" gradientUnits="userSpaceOnUse" x1="210.5596" y1="127.105" x2="202.2256" y2="127.105" gradientTransform="matrix(0.75 0 0 -0.75 -119.8961 438.7872)">
		<stop  offset="0" style="stop-color:#5E5A5E"/>
		<stop  offset="0.22" style="stop-color:#726E72"/>
		<stop  offset="0.39" style="stop-color:#726E72"/>
		<stop  offset="0.68" style="stop-color:#585458"/>
		<stop  offset="1" style="stop-color:#453F45"/>
	</linearGradient>
	<path fill="url(#SVGID_5_)" d="M31.773,287.808h6c0,0,0.25,0.418,0.25,0.949l-0.25,109.301c0,0.75,0.25,1.051,0.242,1.051
		l-6.242-0.301c0,0,0-0.129,0-0.66v-109.59c0,0,0-0.75,0.012-0.75H31.773z"/>
	
		<linearGradient id="SVGID_6_" gradientUnits="userSpaceOnUse" x1="210.5581" y1="127.105" x2="202.2251" y2="127.105" gradientTransform="matrix(0.75 0 0 -0.75 -102.8605 438.7872)">
		<stop  offset="0" style="stop-color:#5E5A5E"/>
		<stop  offset="0.22" style="stop-color:#726E72"/>
		<stop  offset="0.39" style="stop-color:#726E72"/>
		<stop  offset="0.68" style="stop-color:#585458"/>
		<stop  offset="1" style="stop-color:#453F45"/>
	</linearGradient>
	<path fill="url(#SVGID_6_)" d="M48.809,287.808h6c0,0,0.25,0.418,0.25,0.949l-0.25,109.301c0,0.75,0.25,1.051,0.242,1.051
		l-6.242-0.301c0,0,0-0.129,0-0.66v-109.59c0,0,0-0.75,0.012-0.75H48.809z"/>
	
		<linearGradient id="SVGID_7_" gradientUnits="userSpaceOnUse" x1="210.5625" y1="127.105" x2="202.2246" y2="127.105" gradientTransform="matrix(0.75 0 0 -0.75 -85.8248 438.7872)">
		<stop  offset="0" style="stop-color:#5E5A5E"/>
		<stop  offset="0.22" style="stop-color:#726E72"/>
		<stop  offset="0.39" style="stop-color:#726E72"/>
		<stop  offset="0.68" style="stop-color:#585458"/>
		<stop  offset="1" style="stop-color:#453F45"/>
	</linearGradient>
	<path fill="url(#SVGID_7_)" d="M65.844,287.808h6c0,0,0.254,0.418,0.254,0.949l-0.254,109.301c0,0.75,0.254,1.051,0.242,1.051
		l-6.242-0.301c0,0,0-0.129,0-0.66v-109.59c0,0,0-0.75,0.012-0.75H65.844z"/>
	
		<linearGradient id="SVGID_8_" gradientUnits="userSpaceOnUse" x1="210.5625" y1="127.105" x2="202.2236" y2="127.105" gradientTransform="matrix(0.75 0 0 -0.75 -68.7892 438.7872)">
		<stop  offset="0" style="stop-color:#5E5A5E"/>
		<stop  offset="0.22" style="stop-color:#726E72"/>
		<stop  offset="0.39" style="stop-color:#726E72"/>
		<stop  offset="0.68" style="stop-color:#585458"/>
		<stop  offset="1" style="stop-color:#453F45"/>
	</linearGradient>
	<path fill="url(#SVGID_8_)" d="M82.879,287.808h6c0,0,0.254,0.418,0.254,0.949l-0.254,109.301c0,0.75,0.254,1.051,0.242,1.051
		l-6.242-0.301c0,0,0-0.129,0-0.66v-109.59c0,0,0-0.75,0.012-0.75H82.879z"/>
	
		<linearGradient id="SVGID_9_" gradientUnits="userSpaceOnUse" x1="210.562" y1="127.105" x2="202.2231" y2="127.105" gradientTransform="matrix(0.75 0 0 -0.75 -51.7535 438.7872)">
		<stop  offset="0" style="stop-color:#5E5A5E"/>
		<stop  offset="0.22" style="stop-color:#726E72"/>
		<stop  offset="0.39" style="stop-color:#726E72"/>
		<stop  offset="0.68" style="stop-color:#585458"/>
		<stop  offset="1" style="stop-color:#453F45"/>
	</linearGradient>
	<path fill="url(#SVGID_9_)" d="M99.914,287.808h6c0,0,0.254,0.418,0.254,0.949l-0.254,109.301c0,0.75,0.254,1.051,0.242,1.051
		l-6.242-0.301c0,0,0-0.129,0-0.66v-109.59c0,0,0-0.75,0.012-0.75H99.914z"/>
	
		<linearGradient id="SVGID_10_" gradientUnits="userSpaceOnUse" x1="210.5581" y1="127.105" x2="202.2241" y2="127.105" gradientTransform="matrix(0.75 0 0 -0.75 309.745 438.7872)">
		<stop  offset="0" style="stop-color:#5E5A5E"/>
		<stop  offset="0.22" style="stop-color:#726E72"/>
		<stop  offset="0.39" style="stop-color:#726E72"/>
		<stop  offset="0.68" style="stop-color:#585458"/>
		<stop  offset="1" style="stop-color:#453F45"/>
	</linearGradient>
	<path fill="url(#SVGID_10_)" d="M461.414,287.808h6c0,0,0.25,0.418,0.25,0.949l-0.25,109.301c0,0.75,0.25,1.051,0.242,1.051
		l-6.242-0.301c0,0,0-0.129,0-0.66v-109.59c0,0,0-0.75,0.012-0.75H461.414z"/>
	
		<linearGradient id="SVGID_11_" gradientUnits="userSpaceOnUse" x1="210.562" y1="127.105" x2="202.2231" y2="127.105" gradientTransform="matrix(0.75 0 0 -0.75 326.7811 438.7872)">
		<stop  offset="0" style="stop-color:#5E5A5E"/>
		<stop  offset="0.22" style="stop-color:#726E72"/>
		<stop  offset="0.39" style="stop-color:#726E72"/>
		<stop  offset="0.68" style="stop-color:#585458"/>
		<stop  offset="1" style="stop-color:#453F45"/>
	</linearGradient>
	<path fill="url(#SVGID_11_)" d="M478.449,287.808h6c0,0,0.254,0.418,0.254,0.949l-0.254,109.301c0,0.75,0.254,1.051,0.242,1.051
		l-6.242-0.301c0,0,0-0.129,0-0.66v-109.59c0,0,0-0.75,0.012-0.75H478.449z"/>
	
		<linearGradient id="SVGID_12_" gradientUnits="userSpaceOnUse" x1="210.5615" y1="127.105" x2="202.2236" y2="127.105" gradientTransform="matrix(0.75 0 0 -0.75 343.8163 438.7872)">
		<stop  offset="0" style="stop-color:#5E5A5E"/>
		<stop  offset="0.22" style="stop-color:#726E72"/>
		<stop  offset="0.39" style="stop-color:#726E72"/>
		<stop  offset="0.68" style="stop-color:#585458"/>
		<stop  offset="1" style="stop-color:#453F45"/>
	</linearGradient>
	<path fill="url(#SVGID_12_)" d="M495.484,287.808h6c0,0,0.254,0.418,0.254,0.949l-0.254,109.301c0,0.75,0.254,1.051,0.242,1.051
		l-6.242-0.301c0,0,0-0.129,0-0.66v-109.59c0,0,0-0.75,0.012-0.75H495.484z"/>
	
		<linearGradient id="SVGID_13_" gradientUnits="userSpaceOnUse" x1="210.5605" y1="127.105" x2="202.2217" y2="127.105" gradientTransform="matrix(0.75 0 0 -0.75 360.8524 438.7872)">
		<stop  offset="0" style="stop-color:#5E5A5E"/>
		<stop  offset="0.22" style="stop-color:#726E72"/>
		<stop  offset="0.39" style="stop-color:#726E72"/>
		<stop  offset="0.68" style="stop-color:#585458"/>
		<stop  offset="1" style="stop-color:#453F45"/>
	</linearGradient>
	<path fill="url(#SVGID_13_)" d="M512.519,287.808h6c0,0,0.254,0.418,0.254,0.949l-0.254,109.301c0,0.75,0.254,1.051,0.242,1.051
		l-6.242-0.301c0,0,0-0.129,0-0.66v-109.59c0,0,0-0.75,0.012-0.75H512.519z"/>
	
		<linearGradient id="SVGID_14_" gradientUnits="userSpaceOnUse" x1="210.5605" y1="127.105" x2="202.2266" y2="127.105" gradientTransform="matrix(0.75 0 0 -0.75 377.8876 438.7872)">
		<stop  offset="0" style="stop-color:#5E5A5E"/>
		<stop  offset="0.22" style="stop-color:#726E72"/>
		<stop  offset="0.39" style="stop-color:#726E72"/>
		<stop  offset="0.68" style="stop-color:#585458"/>
		<stop  offset="1" style="stop-color:#453F45"/>
	</linearGradient>
	<path fill="url(#SVGID_14_)" d="M529.558,287.808h6c0,0,0.25,0.418,0.25,0.949l-0.25,109.301c0,0.75,0.25,1.051,0.238,1.051
		l-6.238-0.301c0,0,0-0.129,0-0.66v-109.59c0,0,0-0.75,0.008-0.75H529.558z"/>
	
		<linearGradient id="SVGID_15_" gradientUnits="userSpaceOnUse" x1="210.5586" y1="127.105" x2="202.2256" y2="127.105" gradientTransform="matrix(0.75 0 0 -0.75 394.9237 438.7872)">
		<stop  offset="0" style="stop-color:#5E5A5E"/>
		<stop  offset="0.22" style="stop-color:#726E72"/>
		<stop  offset="0.39" style="stop-color:#726E72"/>
		<stop  offset="0.68" style="stop-color:#585458"/>
		<stop  offset="1" style="stop-color:#453F45"/>
	</linearGradient>
	<path fill="url(#SVGID_15_)" d="M546.593,287.808h6c0,0,0.25,0.418,0.25,0.949l-0.25,109.301c0,0.75,0.25,1.051,0.238,1.051
		l-6.238-0.301c0,0,0-0.129,0-0.66v-109.59c0,0,0-0.75,0.008-0.75H546.593z"/>
	
		<linearGradient id="SVGID_16_" gradientUnits="userSpaceOnUse" x1="528.8423" y1="214.0786" x2="217.3405" y2="-157.1548" gradientTransform="matrix(0.75 0 0 -0.75 3.6053 304.7755)">
		<stop  offset="0" style="stop-color:#5E5A5E"/>
		<stop  offset="0.22" style="stop-color:#726E72"/>
		<stop  offset="0.39" style="stop-color:#726E72"/>
		<stop  offset="0.68" style="stop-color:#585458"/>
		<stop  offset="1" style="stop-color:#453F45"/>
	</linearGradient>
	<path fill="url(#SVGID_16_)" d="M155.273,283.547c0-72,57.395-129.75,128.191-129.75c70.558,0,128.191,58.055,128.191,129.668
		c0.117,71.332-57.395,129.667-128.191,129.667c-70.441,0.164-128.191-58.055-128.191-129.667V283.547z"/>
	<path fill="#3A353A" d="M181.414,283.738c0-57,45.688-103.5,102.051-103.5c56.199,0,102.05,46.215,102.05,103.227
		c-0.102,57.273-45.691,103.226-102.05,103.226c-56.301-0.203-102.051-46.215-102.051-103.226V283.738z"/>
	
		<linearGradient id="SVGID_17_" gradientUnits="userSpaceOnUse" x1="177.5532" y1="-21.2573" x2="489.1346" y2="158.6343" gradientTransform="matrix(0.75 0 0 -0.75 33.4427 334.9572)">
		<stop  offset="0" style="stop-color:#5E5A5E"/>
		<stop  offset="0.22" style="stop-color:#726E72"/>
		<stop  offset="0.68" style="stop-color:#585458"/>
		<stop  offset="1" style="stop-color:#453F45"/>
	</linearGradient>
	<path fill="url(#SVGID_17_)" d="M185.113,283.73c0-55.5,44.031-99.75,98.352-99.75c54.648,0,98.351,44.539,98.351,99.484
		c-0.203,55.015-44.031,99.484-98.351,99.484c-54.102-0.219-98.352-44.539-98.352-99.484V283.73z"/>
	
		<linearGradient id="SVGID_18_" gradientUnits="userSpaceOnUse" x1="211.2227" y1="68.8032" x2="202.2236" y2="68.8032" gradientTransform="matrix(0.75 0 0 -0.75 128.4803 334.9572)">
		<stop  offset="0" style="stop-color:#5E5A5E"/>
		<stop  offset="0.22" style="stop-color:#726E72"/>
		<stop  offset="0.68" style="stop-color:#585458"/>
		<stop  offset="1" style="stop-color:#453F45"/>
	</linearGradient>
	<path fill="url(#SVGID_18_)" d="M280.148,183.98h6.75v198.75h-6.75V183.98z"/>
	
		<linearGradient id="SVGID_19_" gradientUnits="userSpaceOnUse" x1="76.7192" y1="109.8926" x2="67.7183" y2="109.8926" gradientTransform="matrix(0.5303 -0.5303 -0.5303 -0.5303 303.5304 380.071)">
		<stop  offset="0" style="stop-color:#5E5A5E"/>
		<stop  offset="0.22" style="stop-color:#726E72"/>
		<stop  offset="0.68" style="stop-color:#585458"/>
		<stop  offset="1" style="stop-color:#453F45"/>
	</linearGradient>
	<path fill="url(#SVGID_19_)" d="M211.16,215.875l4.773-4.773l140.007,140.007l-4.773,4.773L211.16,215.875z"/>
	
		<linearGradient id="SVGID_20_" gradientUnits="userSpaceOnUse" x1="50.8936" y1="135.7188" x2="41.8936" y2="135.7188" gradientTransform="matrix(-0.5303 -0.5303 0.5303 -0.5303 236.0067 380.071)">
		<stop  offset="0" style="stop-color:#5E5A5E"/>
		<stop  offset="0.22" style="stop-color:#726E72"/>
		<stop  offset="0.68" style="stop-color:#585458"/>
		<stop  offset="1" style="stop-color:#453F45"/>
	</linearGradient>
	<path fill="url(#SVGID_20_)" d="M355.769,215.875l-4.773-4.773L210.988,351.109l4.773,4.773L355.769,215.875z"/>
	
		<linearGradient id="SVGID_21_" gradientUnits="userSpaceOnUse" x1="10.3057" y1="234.7002" x2="1.3066" y2="234.7002" gradientTransform="matrix(0 -0.75 -0.75 0 459.3888 287.795)">
		<stop  offset="0" style="stop-color:#5E5A5E"/>
		<stop  offset="0.22" style="stop-color:#726E72"/>
		<stop  offset="0.68" style="stop-color:#585458"/>
		<stop  offset="1" style="stop-color:#453F45"/>
	</linearGradient>
	<path fill="url(#SVGID_21_)" d="M185.113,286.816v-6.75h196.5v6.75H185.113z"/>
	<path fill="#3A353A" d="M253.629,283.285c0-16.5,13.355-30,29.836-30c16.664,0,29.835,13.512,29.835,30.18
		c0.328,16.32-13.359,30.179-29.835,30.179c-16.336-0.359-29.836-13.512-29.836-30.179V283.285z"/>
	
		<linearGradient id="SVGID_22_" gradientUnits="userSpaceOnUse" x1="273.6528" y1="203.9956" x2="205.6437" y2="122.9455" gradientTransform="matrix(0.75 0 0 -0.75 103.8085 406.1329)">
		<stop  offset="0" style="stop-color:#5E5A5E"/>
		<stop  offset="0.22" style="stop-color:#726E72"/>
		<stop  offset="0.39" style="stop-color:#726E72"/>
		<stop  offset="0.68" style="stop-color:#585458"/>
		<stop  offset="1" style="stop-color:#453F45"/>
	</linearGradient>
	<path fill="url(#SVGID_22_)" d="M255.477,283.656c0-15.75,12.531-28.5,27.988-28.5c15.511,0,27.988,12.672,27.988,28.309
		c0.273,15.941-12.531,28.308-27.988,28.308c-15.238-0.367-27.988-12.676-27.988-28.308V283.656z"/>
</g>
</svg>
