<?xml version="1.0" encoding="utf-8"?>
<!-- Generator: Adobe Illustrator 16.0.0, SVG Export Plug-In . SVG Version: 6.00 Build 0)  -->
<!DOCTYPE svg PUBLIC "-//W3C//DTD SVG 1.1//EN" "http://www.w3.org/Graphics/SVG/1.1/DTD/svg11.dtd">
<svg preserveAspectRatio="none" version="1.1" id="图层_1" xmlns="http://www.w3.org/2000/svg" xmlns:xlink="http://www.w3.org/1999/xlink" x="0px" y="0px"
	 width="238.21px" height="560.23px" viewBox="164.32 3.422 238.21 560.23" enable-background="new 164.32 3.422 238.21 560.23"
	 xml:space="preserve">
<g id="surface261">
	
		<linearGradient id="SVGID_1_" gradientUnits="userSpaceOnUse" x1="221.7241" y1="201.3037" x2="221.7241" y2="165.3037" gradientTransform="matrix(0.75 0 0 -0.75 12.6522 162.8927)">
		<stop  offset="0" style="stop-color:#BAC0C1"/>
		<stop  offset="0.15" style="stop-color:#F4FAFC"/>
		<stop  offset="0.25" style="stop-color:#F8FCFD"/>
		<stop  offset="0.52" style="stop-color:#D5DBDD"/>
		<stop  offset="0.69" style="stop-color:#BDC3C4"/>
		<stop  offset="0.8" style="stop-color:#B3B8B9"/>
		<stop  offset="0.97" style="stop-color:#A9AEAF"/>
		<stop  offset="1" style="stop-color:#C2C7C9"/>
	</linearGradient>
	<path fill="url(#SVGID_1_)" d="M171.07,11.914h22.5v27h-22.5c-3.75,0-6.75-2.867-6.75-6.617V18.664c0-3.75,3.078-6.75,6.875-6.75
		H171.07z"/>
	
		<linearGradient id="SVGID_2_" gradientUnits="userSpaceOnUse" x1="185.2012" y1="201.3037" x2="185.2012" y2="165.3037" gradientTransform="matrix(-0.75 0 0 -0.75 526.8068 162.8927)">
		<stop  offset="0" style="stop-color:#BAC0C1"/>
		<stop  offset="0.15" style="stop-color:#F4FAFC"/>
		<stop  offset="0.25" style="stop-color:#F8FCFD"/>
		<stop  offset="0.52" style="stop-color:#D5DBDD"/>
		<stop  offset="0.69" style="stop-color:#BDC3C4"/>
		<stop  offset="0.8" style="stop-color:#B3B8B9"/>
		<stop  offset="0.97" style="stop-color:#A9AEAF"/>
		<stop  offset="1" style="stop-color:#C2C7C9"/>
	</linearGradient>
	<path fill="url(#SVGID_2_)" d="M395.781,11.914h-22.5v27h22.5c3.75,0,6.75-2.867,6.75-6.617V18.664c0-3.75-3.078-6.75-6.875-6.75
		H395.781z"/>
	
		<linearGradient id="SVGID_3_" gradientUnits="userSpaceOnUse" x1="285.2261" y1="201.3057" x2="285.2261" y2="159.3057" gradientTransform="matrix(0.75 0 0 -0.75 69.4945 160.3458)">
		<stop  offset="0" style="stop-color:#BAC0C1"/>
		<stop  offset="0.15" style="stop-color:#F4FAFC"/>
		<stop  offset="0.25" style="stop-color:#F8FCFD"/>
		<stop  offset="0.52" style="stop-color:#D5DBDD"/>
		<stop  offset="0.69" style="stop-color:#BDC3C4"/>
		<stop  offset="0.8" style="stop-color:#B3B8B9"/>
		<stop  offset="0.97" style="stop-color:#A9AEAF"/>
		<stop  offset="1" style="stop-color:#C2C7C9"/>
	</linearGradient>
	<path fill="url(#SVGID_3_)" d="M221.164,9.367h124.5v31.5h-124.5V9.367z"/>
	
		<linearGradient id="SVGID_4_" gradientUnits="userSpaceOnUse" x1="221.2266" y1="201.3047" x2="221.2266" y2="142.3047" gradientTransform="matrix(0.75 0 0 -0.75 41.869 154.4005)">
		<stop  offset="0" style="stop-color:#BAC0C1"/>
		<stop  offset="0.15" style="stop-color:#F4FAFC"/>
		<stop  offset="0.25" style="stop-color:#F8FCFD"/>
		<stop  offset="0.52" style="stop-color:#D5DBDD"/>
		<stop  offset="0.69" style="stop-color:#BDC3C4"/>
		<stop  offset="0.8" style="stop-color:#B3B8B9"/>
		<stop  offset="0.97" style="stop-color:#A9AEAF"/>
		<stop  offset="1" style="stop-color:#C2C7C9"/>
	</linearGradient>
	<path fill="url(#SVGID_4_)" d="M200.289,3.422h15c3.75,0,6.605,3.043,6.605,6.797l0.145,30.703c0,3.75-3.223,6.66-7.02,6.66
		l-14.73,0.09c-3.75,0-6.75-3.133-6.75-6.883V10.172c0-3.75,3.078-6.75,6.875-6.75H200.289z"/>
	
		<linearGradient id="SVGID_5_" gradientUnits="userSpaceOnUse" x1="221.2275" y1="201.3047" x2="221.2275" y2="142.3047" gradientTransform="matrix(0.75 0 0 -0.75 193.286 154.4005)">
		<stop  offset="0" style="stop-color:#BAC0C1"/>
		<stop  offset="0.15" style="stop-color:#F4FAFC"/>
		<stop  offset="0.25" style="stop-color:#F8FCFD"/>
		<stop  offset="0.52" style="stop-color:#D5DBDD"/>
		<stop  offset="0.69" style="stop-color:#BDC3C4"/>
		<stop  offset="0.8" style="stop-color:#B3B8B9"/>
		<stop  offset="0.97" style="stop-color:#A9AEAF"/>
		<stop  offset="1" style="stop-color:#C2C7C9"/>
	</linearGradient>
	<path fill="url(#SVGID_5_)" d="M351.707,3.422h15c3.75,0,6.605,3.043,6.605,6.797l0.145,30.703c0,3.75-3.223,6.66-7.02,6.66
		l-14.73,0.09c-3.75,0-6.75-3.133-6.75-6.883V10.172c0-3.75,3.074-6.75,6.871-6.75H351.707z"/>
	
		<linearGradient id="SVGID_6_" gradientUnits="userSpaceOnUse" x1="263.2227" y1="184.3066" x2="202.2227" y2="184.3066" gradientTransform="matrix(0.75 0 0 -0.75 109.0199 298.7677)">
		<stop  offset="0" style="stop-color:#BAC0C1"/>
		<stop  offset="0.15" style="stop-color:#F4FAFC"/>
		<stop  offset="0.25" style="stop-color:#F8FCFD"/>
		<stop  offset="0.52" style="stop-color:#D5DBDD"/>
		<stop  offset="0.69" style="stop-color:#BDC3C4"/>
		<stop  offset="0.8" style="stop-color:#B3B8B9"/>
		<stop  offset="0.97" style="stop-color:#A9AEAF"/>
		<stop  offset="1" style="stop-color:#C2C7C9"/>
	</linearGradient>
	<path fill="url(#SVGID_6_)" d="M260.688,147.789h45.75v25.5h-45.75V147.789z"/>
	
		<linearGradient id="SVGID_7_" gradientUnits="userSpaceOnUse" x1="403.8813" y1="101.6631" x2="202.2241" y2="101.6631" gradientTransform="matrix(0.75 0 0 -0.75 56.1752 155.8868)">
		<stop  offset="0" style="stop-color:#D3CCCA"/>
		<stop  offset="0.53" style="stop-color:#B6AEAA"/>
		<stop  offset="1" style="stop-color:#AFA7A3"/>
	</linearGradient>
	<path fill="url(#SVGID_7_)" d="M207.844,79.91c0-41.25,33.82-75,75.621-75c41.378,0,75.621,33.387,75.621,74.73
		c0.258,41.52-33.895,74.73-75.621,74.73c-41.871-0.211-75.621-33.527-75.621-74.73V79.91z"/>
	
		<linearGradient id="SVGID_8_" gradientUnits="userSpaceOnUse" x1="227.2241" y1="-48.1953" x2="202.2241" y2="-48.1953" gradientTransform="matrix(0.75 0 0 -0.75 122.3431 340.38)">
		<stop  offset="0" style="stop-color:#BAC0C1"/>
		<stop  offset="0.15" style="stop-color:#F4FAFC"/>
		<stop  offset="0.25" style="stop-color:#F8FCFD"/>
		<stop  offset="0.52" style="stop-color:#D5DBDD"/>
		<stop  offset="0.69" style="stop-color:#BDC3C4"/>
		<stop  offset="0.8" style="stop-color:#B3B8B9"/>
		<stop  offset="0.97" style="stop-color:#A9AEAF"/>
		<stop  offset="1" style="stop-color:#C2C7C9"/>
	</linearGradient>
	<path fill="url(#SVGID_8_)" d="M274.012,189.402h18.75v374.25h-18.75V189.402z"/>
	
		<linearGradient id="SVGID_9_" gradientUnits="userSpaceOnUse" x1="384.2241" y1="189.5864" x2="202.2251" y2="189.5864" gradientTransform="matrix(0.75 0 0 -0.75 63.6942 395.7911)">
		<stop  offset="0" style="stop-color:#BAC0C1"/>
		<stop  offset="0.15" style="stop-color:#F4FAFC"/>
		<stop  offset="0.25" style="stop-color:#F8FCFD"/>
		<stop  offset="0.52" style="stop-color:#D5DBDD"/>
		<stop  offset="0.69" style="stop-color:#BDC3C4"/>
		<stop  offset="0.8" style="stop-color:#B3B8B9"/>
		<stop  offset="0.97" style="stop-color:#A9AEAF"/>
		<stop  offset="1" style="stop-color:#C2C7C9"/>
	</linearGradient>
	<path fill="url(#SVGID_9_)" d="M222.113,244.813h122.25c3.75,0,7.203,3,7.203,6.754l0.297,3.746c0,3.75-3.461,7.121-7.258,7.121
		l-122.492-0.371c-3.75,0-6.75-2.668-6.75-6.422v-4.078c0-3.75,3.078-6.793,6.875-6.793L222.113,244.813z"/>
	
		<linearGradient id="SVGID_10_" gradientUnits="userSpaceOnUse" x1="290.2231" y1="189.6138" x2="202.2236" y2="189.6138" gradientTransform="matrix(0.75 0 0 -0.75 98.765 324.1388)">
		<stop  offset="0" style="stop-color:#BAC0C1"/>
		<stop  offset="0.15" style="stop-color:#F4FAFC"/>
		<stop  offset="0.25" style="stop-color:#F8FCFD"/>
		<stop  offset="0.52" style="stop-color:#D5DBDD"/>
		<stop  offset="0.69" style="stop-color:#BDC3C4"/>
		<stop  offset="0.8" style="stop-color:#B3B8B9"/>
		<stop  offset="0.97" style="stop-color:#A9AEAF"/>
		<stop  offset="1" style="stop-color:#C2C7C9"/>
	</linearGradient>
	<path fill="url(#SVGID_10_)" d="M257.184,173.16h52.5c3.75,0,6.727,2.98,6.727,6.73l0.023,3.77c0,3.75-3.102,7.102-6.898,7.102
		l-52.351-0.352c-3.75,0-6.75-2.691-6.75-6.441v-4.059c0-3.75,3.059-6.813,6.855-6.813L257.184,173.16z"/>
	
		<linearGradient id="SVGID_11_" gradientUnits="userSpaceOnUse" x1="391.5659" y1="107.7451" x2="202.2231" y2="107.7451" gradientTransform="matrix(0.75 0 0 -0.75 60.7928 160.4493)">
		<stop  offset="0" style="stop-color:#E2D7D3"/>
		<stop  offset="0.53" style="stop-color:#C9BCB6"/>
		<stop  offset="1" style="stop-color:#C1B4AF"/>
	</linearGradient>
	<path fill="url(#SVGID_11_)" d="M212.461,79.973c0-39,31.758-70.5,71.004-70.5c39.246,0,71.003,31.348,71.003,70.168
		c-0.258,38.582-31.824,70.168-71.003,70.168c-39.504-0.086-71.004-31.484-71.004-70.168V79.973z"/>
	
		<linearGradient id="SVGID_12_" gradientUnits="userSpaceOnUse" x1="347.3511" y1="129.5928" x2="202.2222" y2="129.5928" gradientTransform="matrix(0.75 0 0 -0.75 77.3719 176.8341)">
		<stop  offset="0" style="stop-color:#B7B8B8"/>
		<stop  offset="0.08" style="stop-color:#919292"/>
		<stop  offset="0.64" style="stop-color:#8F9090"/>
		<stop  offset="1" style="stop-color:#8B8C8C"/>
	</linearGradient>
	<path fill="url(#SVGID_12_)" d="M229.039,79.855c0-30,24.344-54,54.426-54c30.324,0,54.421,24.031,54.421,53.785
		c-0.098,29.465-24.391,53.785-54.421,53.785c-30.426-0.32-54.426-24.133-54.426-53.785V79.855z"/>
	
		<linearGradient id="SVGID_13_" gradientUnits="userSpaceOnUse" x1="338.7612" y1="133.8389" x2="202.2261" y2="133.8389" gradientTransform="matrix(0.75 0 0 -0.75 80.5956 180.0197)">
		<stop  offset="0" style="stop-color:#FFFFFF"/>
		<stop  offset="0.08" style="stop-color:#EBEBEB"/>
		<stop  offset="0.64" style="stop-color:#E7E7E7"/>
		<stop  offset="1" style="stop-color:#E2E2E2"/>
	</linearGradient>
	<path fill="url(#SVGID_13_)" d="M232.266,79.293c0-27.75,22.898-50.25,51.199-50.25c28.3,0,51.199,22.605,51.199,50.598
		c0.352,28.152-22.945,50.598-51.199,50.598c-27.949,0.055-51.199-22.703-51.199-50.598V79.293z"/>
	<path fill="#717070" d="M236.305,62.484h94.5v27.75h-94.5V62.484z"/>
	<path fill="#CFEBF6" d="M241.633,67.754h84v16.5h-84V67.754z"/>
	<path fill="#FED372" d="M268.703,106.75c0-3.75,3.023-6.766,6.789-6.766c3.711,0.016,6.789,3.008,6.789,6.734
		c-0.078,3.781-3.051,6.715-6.789,6.715c-3.789,0.066-6.805-3.02-6.805-6.715L268.703,106.75z"/>
	
		<linearGradient id="SVGID_14_" gradientUnits="userSpaceOnUse" x1="204.5083" y1="202.6509" x2="214.5654" y2="185.2315" gradientTransform="matrix(0.75 0 0 -0.75 118.2777 252.2091)">
		<stop  offset="0" style="stop-color:#FEDEA0"/>
		<stop  offset="1" style="stop-color:#E9C168"/>
	</linearGradient>
	<path fill="url(#SVGID_14_)" stroke="#FFFFFF" stroke-linejoin="bevel" stroke-miterlimit="10" d="M269.945,106.48
		c0-3,2.473-5.262,5.547-5.262c2.703,0.012,5.547,2.457,5.547,5.5c0.156,2.762-2.492,5.484-5.547,5.484
		c-3.297,0.277-5.559-2.465-5.559-5.484L269.945,106.48z"/>
	<path fill="#7D040F" d="M252.16,106.75c0-3.75,3.027-6.766,6.793-6.766c3.707,0.016,6.789,3.008,6.789,6.734
		c-0.082,3.781-3.051,6.715-6.789,6.715c-3.793,0.066-6.809-3.02-6.809-6.715L252.16,106.75z"/>
	
		<linearGradient id="SVGID_15_" gradientUnits="userSpaceOnUse" x1="204.5073" y1="202.6499" x2="214.5638" y2="185.2316" gradientTransform="matrix(0.75 0 0 -0.75 101.7367 252.2091)">
		<stop  offset="0" style="stop-color:#9F5153"/>
		<stop  offset="1" style="stop-color:#7B030D"/>
	</linearGradient>
	<path fill="url(#SVGID_15_)" stroke="#FFFFFF" stroke-linejoin="bevel" stroke-miterlimit="10" d="M253.406,106.48
		c0-3,2.469-5.262,5.547-5.262c2.703,0.012,5.543,2.457,5.543,5.5c0.16,2.762-2.488,5.484-5.543,5.484
		c-3.297,0.277-5.563-2.465-5.563-5.484L253.406,106.48z"/>
	<path fill="#276F71" d="M301.785,106.75c0-3.75,3.023-6.766,6.789-6.766c3.711,0.016,6.793,3.008,6.793,6.734
		c-0.082,3.781-3.051,6.715-6.793,6.715c-3.789,0.066-6.805-3.02-6.805-6.715L301.785,106.75z"/>
	
		<linearGradient id="SVGID_16_" gradientUnits="userSpaceOnUse" x1="204.5093" y1="202.6519" x2="214.5664" y2="185.2324" gradientTransform="matrix(0.75 0 0 -0.75 151.3602 252.2091)">
		<stop  offset="0" style="stop-color:#91CFD1"/>
		<stop  offset="1" style="stop-color:#49AEB1"/>
	</linearGradient>
	<path fill="url(#SVGID_16_)" stroke="#FFFFFF" stroke-linejoin="bevel" stroke-miterlimit="10" d="M303.031,106.48
		c0-3,2.469-5.262,5.543-5.262c2.707,0.012,5.547,2.457,5.547,5.5c0.16,2.762-2.492,5.484-5.547,5.484
		c-3.293,0.277-5.559-2.465-5.559-5.484L303.031,106.48z"/>
	<path fill="#30C9F7" d="M285.242,106.75c0-3.75,3.027-6.766,6.793-6.766c3.707,0.016,6.789,3.008,6.789,6.734
		c-0.082,3.781-3.051,6.715-6.789,6.715c-3.793,0.066-6.809-3.02-6.809-6.715L285.242,106.75z"/>
	
		<linearGradient id="SVGID_17_" gradientUnits="userSpaceOnUse" x1="204.5063" y1="202.6499" x2="214.563" y2="185.2314" gradientTransform="matrix(0.75 0 0 -0.75 134.8192 252.2091)">
		<stop  offset="0" style="stop-color:#5CCEF8"/>
		<stop  offset="1" style="stop-color:#27A9D0"/>
	</linearGradient>
	<path fill="url(#SVGID_17_)" stroke="#FFFFFF" stroke-linejoin="bevel" stroke-miterlimit="10" d="M286.488,106.48
		c0-3,2.469-5.262,5.547-5.262c2.703,0.012,5.543,2.457,5.543,5.5c0.16,2.762-2.488,5.484-5.543,5.484
		c-3.297,0.277-5.563-2.465-5.563-5.484L286.488,106.48z"/>
</g>
</svg>
