<?xml version="1.0" encoding="utf-8"?>
<!-- Generator: Adobe Illustrator 16.0.0, SVG Export Plug-In . SVG Version: 6.00 Build 0)  -->
<!DOCTYPE svg PUBLIC "-//W3C//DTD SVG 1.1//EN" "http://www.w3.org/Graphics/SVG/1.1/DTD/svg11.dtd">
<svg version="1.1" id="图层_1" xmlns="http://www.w3.org/2000/svg" xmlns:xlink="http://www.w3.org/1999/xlink" x="0px" y="0px"
	 width="105px" height="105px" viewBox="0 0 105 105" enable-background="new 0 0 105 105" xml:space="preserve">
<g>
	<linearGradient id="SVGID_4_" gradientUnits="userSpaceOnUse" x1="52.5815" y1="59.1201" x2="52.5815" y2="45.5884">
		<stop  offset="0" style="stop-color:#7E8DA1"/>
		<stop  offset="0.4877" style="stop-color:#FFFFFF"/>
		<stop  offset="1" style="stop-color:#7E8DA1"/>
	</linearGradient>
	<rect x="-2.518" y="45.588" fill="url(#SVGID_4_)" width="110.197" height="13.532"/>
	<g>
		<g>
			<g>
				<path fill="#376EB6" d="M37.978,58.268c0.006,0,0.012,0,0.019,0l0,0h28.711v-0.009c0.105,0.006,0.21,0.009,0.316,0.009
					c3.178,0,5.753-2.575,5.753-5.754c0-3.178-2.575-5.753-5.753-5.753c-0.106,0-0.211,0.003-0.316,0.009v-0.009H37.996l0,0
					c-0.007,0-0.013,0-0.019,0c-3.178,0-5.754,2.575-5.754,5.753S34.8,58.268,37.978,58.268z"/>
			</g>
			<defs>
				<filter id="Adobe_OpacityMaskFilter" filterUnits="userSpaceOnUse" x="32.224" y="46.761" width="40.553" height="11.507">
					<feColorMatrix  type="matrix" values="1 0 0 0 0  0 1 0 0 0  0 0 1 0 0  0 0 0 1 0"/>
				</filter>
			</defs>
			<mask maskUnits="userSpaceOnUse" x="32.224" y="46.761" width="40.553" height="11.507" id="SVGID_3_">
				<g filter="url(#Adobe_OpacityMaskFilter)">
					
						<image overflow="visible" enable-background="new    " width="1533" height="450" xlink:href="6A4FC537.jpg"  transform="matrix(-0.0268 0 0 -0.0266 73 58.4902)">
					</image>
				</g>
			</mask>
			<g opacity="0.7" mask="url(#SVGID_3_)">
				<path fill="#25ADCF" d="M37.978,58.268c0.006,0,0.012,0,0.019,0l0,0h28.711v-0.009c0.105,0.006,0.21,0.009,0.316,0.009
					c3.178,0,5.753-2.575,5.753-5.754c0-3.178-2.575-5.753-5.753-5.753c-0.106,0-0.211,0.003-0.316,0.009v-0.009H37.996l0,0
					c-0.007,0-0.013,0-0.019,0c-3.178,0-5.754,2.575-5.754,5.753S34.8,58.268,37.978,58.268z"/>
			</g>
		</g>
	</g>
	<g>
		<g>
			<g>
				<path fill="#376EB6" d="M90.133,58.268c0.007,0,0.013,0,0.019,0l0,0h28.712v-0.009c0.104,0.006,0.21,0.009,0.316,0.009
					c3.178,0,5.753-2.575,5.753-5.754c0-3.178-2.575-5.753-5.753-5.753c-0.106,0-0.212,0.003-0.316,0.009v-0.009H90.151l0,0
					c-0.006,0-0.012,0-0.019,0c-3.178,0-5.754,2.575-5.754,5.753C84.38,55.691,86.955,58.268,90.133,58.268z"/>
			</g>
			<defs>
				<filter id="Adobe_OpacityMaskFilter_1_" filterUnits="userSpaceOnUse" x="84.379" y="46.761" width="40.554" height="11.507">
					<feColorMatrix  type="matrix" values="1 0 0 0 0  0 1 0 0 0  0 0 1 0 0  0 0 0 1 0"/>
				</filter>
			</defs>
			<mask maskUnits="userSpaceOnUse" x="84.379" y="46.761" width="40.554" height="11.507" id="SVGID_2_">
				<g filter="url(#Adobe_OpacityMaskFilter_1_)">
					
						<image overflow="visible" enable-background="new    " width="1533" height="450" xlink:href="6A4FC537.jpg"  transform="matrix(-0.0268 0 0 -0.0266 125.1563 58.4902)">
					</image>
				</g>
			</mask>
			<g opacity="0.7" mask="url(#SVGID_2_)">
				<path fill="#25ADCF" d="M90.133,58.268c0.007,0,0.013,0,0.019,0l0,0h28.712v-0.009c0.104,0.006,0.21,0.009,0.316,0.009
					c3.178,0,5.753-2.575,5.753-5.754c0-3.178-2.575-5.753-5.753-5.753c-0.106,0-0.212,0.003-0.316,0.009v-0.009H90.151l0,0
					c-0.006,0-0.012,0-0.019,0c-3.178,0-5.754,2.575-5.754,5.753C84.38,55.691,86.955,58.268,90.133,58.268z"/>
			</g>
		</g>
	</g>
	<g>
		<g>
			<g>
				<path fill="#376EB6" d="M-14.18,58.268c0.007,0,0.013,0,0.019,0l0,0h28.712v-0.009c0.104,0.006,0.21,0.009,0.316,0.009
					c3.178,0,5.753-2.575,5.753-5.754c0-3.178-2.575-5.753-5.753-5.753c-0.106,0-0.212,0.003-0.316,0.009v-0.009h-28.712l0,0
					c-0.006,0-0.012,0-0.019,0c-3.177,0-5.753,2.575-5.753,5.753S-17.356,58.268-14.18,58.268z"/>
			</g>
			<defs>
				<filter id="Adobe_OpacityMaskFilter_2_" filterUnits="userSpaceOnUse" x="-19.933" y="46.761" width="40.553" height="11.507">
					<feColorMatrix  type="matrix" values="1 0 0 0 0  0 1 0 0 0  0 0 1 0 0  0 0 0 1 0"/>
				</filter>
			</defs>
			<mask maskUnits="userSpaceOnUse" x="-19.933" y="46.761" width="40.553" height="11.507" id="SVGID_1_">
				<g filter="url(#Adobe_OpacityMaskFilter_2_)">
					
						<image overflow="visible" enable-background="new    " width="1533" height="450" xlink:href="6A4FC537.jpg"  transform="matrix(-0.0268 0 0 -0.0266 20.8433 58.4902)">
					</image>
				</g>
			</mask>
			<g opacity="0.7" mask="url(#SVGID_1_)">
				<path fill="#25ADCF" d="M-14.18,58.268c0.007,0,0.013,0,0.019,0l0,0h28.712v-0.009c0.104,0.006,0.21,0.009,0.316,0.009
					c3.178,0,5.753-2.575,5.753-5.754c0-3.178-2.575-5.753-5.753-5.753c-0.106,0-0.212,0.003-0.316,0.009v-0.009h-28.712l0,0
					c-0.006,0-0.012,0-0.019,0c-3.177,0-5.753,2.575-5.753,5.753S-17.356,58.268-14.18,58.268z"/>
			</g>
		</g>
	</g>
</g>
<g id="surface211">
	
		<linearGradient id="SVGID_5_" gradientUnits="userSpaceOnUse" x1="625.332" y1="887.0684" x2="600.541" y2="887.0684" gradientTransform="matrix(0.75 0 0 0.75 -415.0015 -640.7935)">
		<stop  offset="0" style="stop-color:#6895B4"/>
		<stop  offset="0.15" style="stop-color:#94C7EC"/>
		<stop  offset="0.25" style="stop-color:#CAE1F4"/>
		<stop  offset="0.52" style="stop-color:#77AACE"/>
		<stop  offset="0.69" style="stop-color:#6997B7"/>
		<stop  offset="0.8" style="stop-color:#638FAD"/>
		<stop  offset="0.97" style="stop-color:#5D86A3"/>
		<stop  offset="1" style="stop-color:#6C9BBB"/>
	</linearGradient>
	<path fill="url(#SVGID_5_)" d="M35.694,23.208H53.91c0,0,0.088,0.104,0.088,0.238l-0.088,2.075c0,0-0.018,0.165-0.135,0.165
		l-18.082,0.125c-0.289,0-0.289-0.234-0.289-0.367v-1.946c0-0.29,0.089-0.295,0.208-0.295L35.694,23.208z"/>
	
		<linearGradient id="SVGID_6_" gradientUnits="userSpaceOnUse" x1="642.6631" y1="840.4658" x2="642.6631" y2="862.4404" gradientTransform="matrix(0.75 0 0 0.75 -437.2373 -586.0283)">
		<stop  offset="0" style="stop-color:#6895B4"/>
		<stop  offset="0.15" style="stop-color:#94C7EC"/>
		<stop  offset="0.25" style="stop-color:#CAE1F4"/>
		<stop  offset="0.44" style="stop-color:#77AACE"/>
		<stop  offset="0.6" style="stop-color:#6997B7"/>
		<stop  offset="0.8" style="stop-color:#587F9A"/>
		<stop  offset="0.97" style="stop-color:#50748D"/>
		<stop  offset="1" style="stop-color:#6C9BBB"/>
	</linearGradient>
	<path fill="url(#SVGID_6_)" d="M26.833,44.321h35.852v16.481H26.833V44.321z"/>
	
		<linearGradient id="SVGID_7_" gradientUnits="userSpaceOnUse" x1="628.3125" y1="845.8779" x2="628.3125" y2="874.8252" gradientTransform="matrix(0.75 0 0 0.75 -446.0293 -592.6338)">
		<stop  offset="0" style="stop-color:#6895B4"/>
		<stop  offset="0.15" style="stop-color:#94C7EC"/>
		<stop  offset="0.25" style="stop-color:#CAE1F4"/>
		<stop  offset="0.44" style="stop-color:#77AACE"/>
		<stop  offset="0.6" style="stop-color:#6997B7"/>
		<stop  offset="0.8" style="stop-color:#587F9A"/>
		<stop  offset="0.97" style="stop-color:#50748D"/>
		<stop  offset="1" style="stop-color:#6C9BBB"/>
	</linearGradient>
	<path fill="url(#SVGID_7_)" d="M23.732,41.774h2.892c0.289,0,0.343,0.192,0.343,0.43l-0.054,20.967c0,0-0.129,0.313-0.358,0.313
		l-2.822-0.024c0,0-0.29-0.169-0.29-0.404V42.063c0,0,0.186-0.289,0.413-0.289H23.732z"/>
	
		<linearGradient id="SVGID_8_" gradientUnits="userSpaceOnUse" x1="545.4688" y1="845.8779" x2="545.4688" y2="874.8252" gradientTransform="matrix(0.75 0 0 0.75 -344.9146 -592.6338)">
		<stop  offset="0" style="stop-color:#6895B4"/>
		<stop  offset="0.15" style="stop-color:#94C7EC"/>
		<stop  offset="0.25" style="stop-color:#CAE1F4"/>
		<stop  offset="0.44" style="stop-color:#77AACE"/>
		<stop  offset="0.6" style="stop-color:#6997B7"/>
		<stop  offset="0.8" style="stop-color:#587F9A"/>
		<stop  offset="0.97" style="stop-color:#50748D"/>
		<stop  offset="1" style="stop-color:#6C9BBB"/>
	</linearGradient>
	<path fill="url(#SVGID_8_)" d="M62.713,41.774h2.893c0.289,0,0.344,0.192,0.344,0.43l-0.055,20.967c0,0-0.131,0.313-0.357,0.313
		l-2.824-0.024c0,0-0.287-0.169-0.287-0.404V42.063c0,0,0.184-0.289,0.412-0.289H62.713z"/>
	
		<linearGradient id="SVGID_9_" gradientUnits="userSpaceOnUse" x1="619.666" y1="842.1045" x2="619.666" y2="845.1904" gradientTransform="matrix(0.75 0 0 0.75 -437.166 -588.0269)">
		<stop  offset="0" style="stop-color:#6895B4"/>
		<stop  offset="0.15" style="stop-color:#94C7EC"/>
		<stop  offset="0.25" style="stop-color:#CAE1F4"/>
		<stop  offset="0.44" style="stop-color:#77AACE"/>
		<stop  offset="0.6" style="stop-color:#6997B7"/>
		<stop  offset="0.8" style="stop-color:#587F9A"/>
		<stop  offset="0.97" style="stop-color:#50748D"/>
		<stop  offset="1" style="stop-color:#6C9BBB"/>
	</linearGradient>
	<path fill="url(#SVGID_9_)" d="M26.86,43.551h1.445v2.314H26.86V43.551z"/>
	
		<linearGradient id="SVGID_10_" gradientUnits="userSpaceOnUse" x1="619.666" y1="825.3721" x2="619.666" y2="828.4561" gradientTransform="matrix(0.75 0 0 0.75 -437.166 -567.606)">
		<stop  offset="0" style="stop-color:#6895B4"/>
		<stop  offset="0.15" style="stop-color:#94C7EC"/>
		<stop  offset="0.25" style="stop-color:#CAE1F4"/>
		<stop  offset="0.44" style="stop-color:#77AACE"/>
		<stop  offset="0.6" style="stop-color:#6997B7"/>
		<stop  offset="0.8" style="stop-color:#587F9A"/>
		<stop  offset="0.97" style="stop-color:#50748D"/>
		<stop  offset="1" style="stop-color:#6C9BBB"/>
	</linearGradient>
	<path fill="url(#SVGID_10_)" d="M26.86,51.423h1.445v2.313H26.86V51.423z"/>
	
		<linearGradient id="SVGID_11_" gradientUnits="userSpaceOnUse" x1="619.666" y1="808.6426" x2="619.666" y2="811.7266" gradientTransform="matrix(0.75 0 0 0.75 -437.166 -547.1851)">
		<stop  offset="0" style="stop-color:#6895B4"/>
		<stop  offset="0.15" style="stop-color:#94C7EC"/>
		<stop  offset="0.25" style="stop-color:#CAE1F4"/>
		<stop  offset="0.44" style="stop-color:#77AACE"/>
		<stop  offset="0.6" style="stop-color:#6997B7"/>
		<stop  offset="0.8" style="stop-color:#587F9A"/>
		<stop  offset="0.97" style="stop-color:#50748D"/>
		<stop  offset="1" style="stop-color:#6C9BBB"/>
	</linearGradient>
	<path fill="url(#SVGID_11_)" d="M26.86,59.297h1.445v2.313H26.86V59.297z"/>
	
		<linearGradient id="SVGID_12_" gradientUnits="userSpaceOnUse" x1="630.1709" y1="842.1045" x2="630.1709" y2="845.1904" gradientTransform="matrix(0.75 0 0 0.75 -449.9873 -588.0269)">
		<stop  offset="0" style="stop-color:#6895B4"/>
		<stop  offset="0.15" style="stop-color:#94C7EC"/>
		<stop  offset="0.25" style="stop-color:#CAE1F4"/>
		<stop  offset="0.44" style="stop-color:#77AACE"/>
		<stop  offset="0.6" style="stop-color:#6997B7"/>
		<stop  offset="0.8" style="stop-color:#587F9A"/>
		<stop  offset="0.97" style="stop-color:#50748D"/>
		<stop  offset="1" style="stop-color:#6C9BBB"/>
	</linearGradient>
	<path fill="url(#SVGID_12_)" d="M21.917,43.551h1.446v2.314h-1.446V43.551z"/>
	
		<linearGradient id="SVGID_13_" gradientUnits="userSpaceOnUse" x1="630.1709" y1="825.3721" x2="630.1709" y2="828.4561" gradientTransform="matrix(0.75 0 0 0.75 -449.9873 -567.606)">
		<stop  offset="0" style="stop-color:#6895B4"/>
		<stop  offset="0.15" style="stop-color:#94C7EC"/>
		<stop  offset="0.25" style="stop-color:#CAE1F4"/>
		<stop  offset="0.44" style="stop-color:#77AACE"/>
		<stop  offset="0.6" style="stop-color:#6997B7"/>
		<stop  offset="0.8" style="stop-color:#587F9A"/>
		<stop  offset="0.97" style="stop-color:#50748D"/>
		<stop  offset="1" style="stop-color:#6C9BBB"/>
	</linearGradient>
	<path fill="url(#SVGID_13_)" d="M21.917,51.423h1.446v2.313h-1.446V51.423z"/>
	
		<linearGradient id="SVGID_14_" gradientUnits="userSpaceOnUse" x1="630.1709" y1="808.6426" x2="630.1709" y2="811.7266" gradientTransform="matrix(0.75 0 0 0.75 -449.9873 -547.1851)">
		<stop  offset="0" style="stop-color:#6895B4"/>
		<stop  offset="0.15" style="stop-color:#94C7EC"/>
		<stop  offset="0.25" style="stop-color:#CAE1F4"/>
		<stop  offset="0.44" style="stop-color:#77AACE"/>
		<stop  offset="0.6" style="stop-color:#6997B7"/>
		<stop  offset="0.8" style="stop-color:#587F9A"/>
		<stop  offset="0.97" style="stop-color:#50748D"/>
		<stop  offset="1" style="stop-color:#6C9BBB"/>
	</linearGradient>
	<path fill="url(#SVGID_14_)" d="M21.917,59.297h1.446v2.313h-1.446V59.297z"/>
	
		<linearGradient id="SVGID_15_" gradientUnits="userSpaceOnUse" x1="536.7031" y1="842.1045" x2="536.7031" y2="845.1904" gradientTransform="matrix(0.75 0 0 0.75 -335.9058 -588.0269)">
		<stop  offset="0" style="stop-color:#6895B4"/>
		<stop  offset="0.15" style="stop-color:#94C7EC"/>
		<stop  offset="0.25" style="stop-color:#CAE1F4"/>
		<stop  offset="0.44" style="stop-color:#77AACE"/>
		<stop  offset="0.6" style="stop-color:#6997B7"/>
		<stop  offset="0.8" style="stop-color:#587F9A"/>
		<stop  offset="0.97" style="stop-color:#50748D"/>
		<stop  offset="1" style="stop-color:#6C9BBB"/>
	</linearGradient>
	<path fill="url(#SVGID_15_)" d="M65.898,43.551h1.445v2.314h-1.445V43.551z"/>
	
		<linearGradient id="SVGID_16_" gradientUnits="userSpaceOnUse" x1="536.7031" y1="825.3721" x2="536.7031" y2="828.4561" gradientTransform="matrix(0.75 0 0 0.75 -335.9058 -567.606)">
		<stop  offset="0" style="stop-color:#6895B4"/>
		<stop  offset="0.15" style="stop-color:#94C7EC"/>
		<stop  offset="0.25" style="stop-color:#CAE1F4"/>
		<stop  offset="0.44" style="stop-color:#77AACE"/>
		<stop  offset="0.6" style="stop-color:#6997B7"/>
		<stop  offset="0.8" style="stop-color:#587F9A"/>
		<stop  offset="0.97" style="stop-color:#50748D"/>
		<stop  offset="1" style="stop-color:#6C9BBB"/>
	</linearGradient>
	<path fill="url(#SVGID_16_)" d="M65.898,51.423h1.445v2.313h-1.445V51.423z"/>
	
		<linearGradient id="SVGID_17_" gradientUnits="userSpaceOnUse" x1="536.7031" y1="808.6426" x2="536.7031" y2="811.7266" gradientTransform="matrix(0.75 0 0 0.75 -335.9058 -547.1851)">
		<stop  offset="0" style="stop-color:#6895B4"/>
		<stop  offset="0.15" style="stop-color:#94C7EC"/>
		<stop  offset="0.25" style="stop-color:#CAE1F4"/>
		<stop  offset="0.44" style="stop-color:#77AACE"/>
		<stop  offset="0.6" style="stop-color:#6997B7"/>
		<stop  offset="0.8" style="stop-color:#587F9A"/>
		<stop  offset="0.97" style="stop-color:#50748D"/>
		<stop  offset="1" style="stop-color:#6C9BBB"/>
	</linearGradient>
	<path fill="url(#SVGID_17_)" d="M65.898,59.297h1.445v2.313h-1.445V59.297z"/>
	
		<linearGradient id="SVGID_18_" gradientUnits="userSpaceOnUse" x1="547.2061" y1="842.1045" x2="547.2061" y2="845.1904" gradientTransform="matrix(0.75 0 0 0.75 -348.7271 -588.0269)">
		<stop  offset="0" style="stop-color:#6895B4"/>
		<stop  offset="0.15" style="stop-color:#94C7EC"/>
		<stop  offset="0.25" style="stop-color:#CAE1F4"/>
		<stop  offset="0.44" style="stop-color:#77AACE"/>
		<stop  offset="0.6" style="stop-color:#6997B7"/>
		<stop  offset="0.8" style="stop-color:#587F9A"/>
		<stop  offset="0.97" style="stop-color:#50748D"/>
		<stop  offset="1" style="stop-color:#6C9BBB"/>
	</linearGradient>
	<path fill="url(#SVGID_18_)" d="M60.955,43.551H62.4v2.314h-1.445V43.551z"/>
	
		<linearGradient id="SVGID_19_" gradientUnits="userSpaceOnUse" x1="547.2061" y1="825.3721" x2="547.2061" y2="828.4561" gradientTransform="matrix(0.75 0 0 0.75 -348.7271 -567.606)">
		<stop  offset="0" style="stop-color:#6895B4"/>
		<stop  offset="0.15" style="stop-color:#94C7EC"/>
		<stop  offset="0.25" style="stop-color:#CAE1F4"/>
		<stop  offset="0.44" style="stop-color:#77AACE"/>
		<stop  offset="0.6" style="stop-color:#6997B7"/>
		<stop  offset="0.8" style="stop-color:#587F9A"/>
		<stop  offset="0.97" style="stop-color:#50748D"/>
		<stop  offset="1" style="stop-color:#6C9BBB"/>
	</linearGradient>
	<path fill="url(#SVGID_19_)" d="M60.955,51.423H62.4v2.313h-1.445V51.423z"/>
	
		<linearGradient id="SVGID_20_" gradientUnits="userSpaceOnUse" x1="547.2061" y1="808.6426" x2="547.2061" y2="811.7266" gradientTransform="matrix(0.75 0 0 0.75 -348.7271 -547.1851)">
		<stop  offset="0" style="stop-color:#6895B4"/>
		<stop  offset="0.15" style="stop-color:#94C7EC"/>
		<stop  offset="0.25" style="stop-color:#CAE1F4"/>
		<stop  offset="0.44" style="stop-color:#77AACE"/>
		<stop  offset="0.6" style="stop-color:#6997B7"/>
		<stop  offset="0.8" style="stop-color:#587F9A"/>
		<stop  offset="0.97" style="stop-color:#50748D"/>
		<stop  offset="1" style="stop-color:#6C9BBB"/>
	</linearGradient>
	<path fill="url(#SVGID_20_)" d="M60.955,59.297H62.4v2.313h-1.445V59.297z"/>
	
		<linearGradient id="SVGID_21_" gradientUnits="userSpaceOnUse" x1="626.374" y1="886.6943" x2="600.9326" y2="886.6943" gradientTransform="matrix(0.75 0 0 0.75 -415.4771 -627.7568)">
		<stop  offset="0" style="stop-color:#6895B4"/>
		<stop  offset="0.15" style="stop-color:#94C7EC"/>
		<stop  offset="0.25" style="stop-color:#CAE1F4"/>
		<stop  offset="0.52" style="stop-color:#77AACE"/>
		<stop  offset="0.69" style="stop-color:#6997B7"/>
		<stop  offset="0.8" style="stop-color:#638FAD"/>
		<stop  offset="0.97" style="stop-color:#5D86A3"/>
		<stop  offset="1" style="stop-color:#6C9BBB"/>
	</linearGradient>
	<path fill="url(#SVGID_21_)" d="M54.305,28.234H35.223v15.903c0,0,0.281,2.099,9.666,2.145c8.837,0.168,9.291-2.083,9.291-2.083
		L54.305,28.234z"/>
	
		<linearGradient id="SVGID_22_" gradientUnits="userSpaceOnUse" x1="626.374" y1="875.3018" x2="600.9326" y2="875.3018" gradientTransform="matrix(0.75 0 0 0.75 -415.4771 -627.8389)">
		<stop  offset="0" style="stop-color:#1F81AC"/>
		<stop  offset="0.15" style="stop-color:#52B0E2"/>
		<stop  offset="0.25" style="stop-color:#B5D5EF"/>
		<stop  offset="0.52" style="stop-color:#2593C4"/>
		<stop  offset="0.69" style="stop-color:#2083AE"/>
		<stop  offset="0.8" style="stop-color:#1D7BA4"/>
		<stop  offset="0.97" style="stop-color:#1B749B"/>
		<stop  offset="1" style="stop-color:#2186B2"/>
	</linearGradient>
	<path fill="url(#SVGID_22_)" d="M54.305,28.203H35.223v0.868h19.082V28.203z"/>
	
		<linearGradient id="SVGID_23_" gradientUnits="userSpaceOnUse" x1="625.2148" y1="880.749" x2="600.541" y2="880.749" gradientTransform="matrix(0.75 0 0 0.75 -415.0015 -634.7236)">
		<stop  offset="0" style="stop-color:#1F81AC"/>
		<stop  offset="0.15" style="stop-color:#52B0E2"/>
		<stop  offset="0.25" style="stop-color:#B5D5EF"/>
		<stop  offset="0.52" style="stop-color:#2593C4"/>
		<stop  offset="0.69" style="stop-color:#2083AE"/>
		<stop  offset="0.8" style="stop-color:#1D7BA4"/>
		<stop  offset="0.97" style="stop-color:#1B749B"/>
		<stop  offset="1" style="stop-color:#2186B2"/>
	</linearGradient>
	<path fill="url(#SVGID_23_)" d="M53.91,25.548v0.579H35.405v-0.579H53.91z"/>
	
		<linearGradient id="SVGID_24_" gradientUnits="userSpaceOnUse" x1="630.2021" y1="881.0674" x2="602.7041" y2="881.0674" gradientTransform="matrix(0.75 0 0 0.75 -417.6392 -633.7056)">
		<stop  offset="0" style="stop-color:#6895B4"/>
		<stop  offset="0.15" style="stop-color:#94C7EC"/>
		<stop  offset="0.25" style="stop-color:#CAE1F4"/>
		<stop  offset="0.52" style="stop-color:#77AACE"/>
		<stop  offset="0.69" style="stop-color:#6997B7"/>
		<stop  offset="0.8" style="stop-color:#638FAD"/>
		<stop  offset="0.97" style="stop-color:#5D86A3"/>
		<stop  offset="1" style="stop-color:#6C9BBB"/>
	</linearGradient>
	<path fill="url(#SVGID_24_)" d="M34.678,25.941h20.24c0,0,0.096,0.092,0.096,0.215l-0.096,1.809c0,0.289-0.01,0.263-0.127,0.263
		l-20.113,0.026c-0.289,0-0.289-0.126-0.289-0.25V26.23c0-0.289,0.096-0.296,0.213-0.296L34.678,25.941z"/>
	<path fill="#2697C8" d="M48.576,23.245l5.723-5.725l-1.021-1.022l-5.724,5.724L48.576,23.245z"/>
	
		<linearGradient id="SVGID_25_" gradientUnits="userSpaceOnUse" x1="600.0391" y1="889.1709" x2="589.2461" y2="889.1709" gradientTransform="matrix(0.75 0 0 0.75 -401.2144 -644.2974)">
		<stop  offset="0" style="stop-color:#1F81AC"/>
		<stop  offset="0.15" style="stop-color:#52B0E2"/>
		<stop  offset="0.25" style="stop-color:#B5D5EF"/>
		<stop  offset="0.52" style="stop-color:#2593C4"/>
		<stop  offset="0.69" style="stop-color:#2083AE"/>
		<stop  offset="0.8" style="stop-color:#1D7BA4"/>
		<stop  offset="0.97" style="stop-color:#1B749B"/>
		<stop  offset="1" style="stop-color:#2186B2"/>
	</linearGradient>
	<path fill="url(#SVGID_25_)" d="M40.721,23.302h8.095v-1.446h-8.095V23.302z"/>
	
		<linearGradient id="SVGID_26_" gradientUnits="userSpaceOnUse" x1="596.5674" y1="896.7119" x2="587.7002" y2="896.7119" gradientTransform="matrix(0.75 0 0 0.75 -399.3301 -652.1074)">
		<stop  offset="0" style="stop-color:#6895B4"/>
		<stop  offset="0.15" style="stop-color:#94C7EC"/>
		<stop  offset="0.25" style="stop-color:#CAE1F4"/>
		<stop  offset="0.52" style="stop-color:#77AACE"/>
		<stop  offset="0.69" style="stop-color:#6997B7"/>
		<stop  offset="0.8" style="stop-color:#638FAD"/>
		<stop  offset="0.97" style="stop-color:#5D86A3"/>
		<stop  offset="1" style="stop-color:#6C9BBB"/>
	</linearGradient>
	<path fill="url(#SVGID_26_)" d="M42.025,18.847h5.494c0.288,0,0.482,0.194,0.482,0.463l0.095,2.717h-6.65v-2.603
		c0-0.289,0.205-0.603,0.465-0.603L42.025,18.847z"/>
	
		<linearGradient id="SVGID_27_" gradientUnits="userSpaceOnUse" x1="578.4141" y1="899.8691" x2="578.4141" y2="902.1816" gradientTransform="matrix(0.75 0 0 0.75 -368.9365 -658.5322)">
		<stop  offset="0" style="stop-color:#1C769E"/>
		<stop  offset="0.03" style="stop-color:#81BEE7"/>
		<stop  offset="0.08" style="stop-color:#289BCE"/>
		<stop  offset="0.64" style="stop-color:#2799CB"/>
		<stop  offset="0.95" style="stop-color:#2695C6"/>
		<stop  offset="1" style="stop-color:#196E93"/>
	</linearGradient>
	<path fill="url(#SVGID_27_)" d="M53.164,18.104h23.42v-1.735h-23.42V18.104z"/>
	<path fill="#FFFFFF" fill-opacity="0.3804" d="M53.164,17.237h23.42v-0.868h-23.42V17.237z"/>
	
		<linearGradient id="SVGID_28_" gradientUnits="userSpaceOnUse" x1="623.6602" y1="845.8789" x2="623.6602" y2="874.793" gradientTransform="matrix(0.75 0 0 0.75 -442.5117 -592.6348)">
		<stop  offset="0" style="stop-color:#1F81AC"/>
		<stop  offset="0.15" style="stop-color:#52B0E2"/>
		<stop  offset="0.25" style="stop-color:#B5D5EF"/>
		<stop  offset="0.44" style="stop-color:#2593C4"/>
		<stop  offset="0.6" style="stop-color:#2083AE"/>
		<stop  offset="0.8" style="stop-color:#196E93"/>
		<stop  offset="0.97" style="stop-color:#166486"/>
		<stop  offset="1" style="stop-color:#2186B2"/>
	</linearGradient>
	<path fill="url(#SVGID_28_)" d="M24.8,41.774h0.868V63.46H24.8V41.774z"/>
	
		<linearGradient id="SVGID_29_" gradientUnits="userSpaceOnUse" x1="540.8164" y1="845.8789" x2="540.8164" y2="874.793" gradientTransform="matrix(0.75 0 0 0.75 -341.3975 -592.6348)">
		<stop  offset="0" style="stop-color:#1F81AC"/>
		<stop  offset="0.15" style="stop-color:#52B0E2"/>
		<stop  offset="0.25" style="stop-color:#B5D5EF"/>
		<stop  offset="0.44" style="stop-color:#2593C4"/>
		<stop  offset="0.6" style="stop-color:#2083AE"/>
		<stop  offset="0.8" style="stop-color:#196E93"/>
		<stop  offset="0.97" style="stop-color:#166486"/>
		<stop  offset="1" style="stop-color:#2186B2"/>
	</linearGradient>
	<path fill="url(#SVGID_29_)" d="M63.781,41.774h0.867V63.46h-0.867V41.774z"/>
</g>
</svg>
