<?xml version="1.0" encoding="utf-8"?>
<!-- Generator: Adobe Illustrator 16.0.0, SVG Export Plug-In . SVG Version: 6.00 Build 0)  -->
<!DOCTYPE svg PUBLIC "-//W3C//DTD SVG 1.1//EN" "http://www.w3.org/Graphics/SVG/1.1/DTD/svg11.dtd">
<svg preserveAspectRatio="none"   version="1.1" id="图层_1" xmlns="http://www.w3.org/2000/svg" xmlns:xlink="http://www.w3.org/1999/xlink" x="0px" y="0px"
	 width="490.167px" height="564.101px" viewBox="38.488 1.371 490.167 564.101"
	 enable-background="new 38.488 1.371 490.167 564.101" xml:space="preserve">
<g id="surface194">
	<path fill="#CFD4DB" d="M38.488,71.223h48v494.25h-48V71.223z"/>
	<path fill="#B2B9C4" d="M86.855,71.121l51-69.75v494.25l-51,69.75V71.121z"/>
	<path fill="#E9ECEF" d="M89.488,2.805h48l-51,69h-48L89.488,2.805z"/>
	<path fill="#CFD4DB" d="M136.188,71.223h48v494.25h-48V71.223z"/>
	<path fill="#B2B9C4" d="M184.555,71.121l51-69.75v494.25l-51,69.75V71.121z"/>
	<path fill="#E9ECEF" d="M187.188,2.805h48l-51,69h-48L187.188,2.805z"/>
	<path fill="#CFD4DB" d="M233.887,71.223h48v494.25h-48V71.223z"/>
	<path fill="#B2B9C4" d="M282.254,71.121l51-69.75v494.25l-51,69.75V71.121z"/>
	<path fill="#E9ECEF" d="M284.886,2.805h48l-51,69h-48L284.886,2.805z"/>
	<path fill="#CFD4DB" d="M331.585,71.223h48v494.25h-48V71.223z"/>
	<path fill="#B2B9C4" d="M379.957,71.121l51-69.75v494.25l-51,69.75V71.121z"/>
	<path fill="#E9ECEF" d="M382.585,2.805h48l-51,69h-48L382.585,2.805z"/>
	<path fill="#CFD4DB" d="M429.285,71.223h48v494.25h-48V71.223z"/>
	<path fill="#B2B9C4" d="M477.656,71.121l51-69.75v494.25l-51,69.75V71.121z"/>
	<path fill="#E9ECEF" d="M480.285,2.805h48l-51,69h-48L480.285,2.805z"/>
</g>
</svg>
