<?xml version="1.0" encoding="utf-8"?>
<!-- Generator: Adobe Illustrator 16.0.0, SVG Export Plug-In . SVG Version: 6.00 Build 0)  -->
<!DOCTYPE svg PUBLIC "-//W3C//DTD SVG 1.1//EN" "http://www.w3.org/Graphics/SVG/1.1/DTD/svg11.dtd">
<svg preserveAspectRatio="none"   version="1.1" id="图层_1" xmlns="http://www.w3.org/2000/svg" xmlns:xlink="http://www.w3.org/1999/xlink" x="0px" y="0px"
	 width="566.938px" height="419.882px" viewBox="-0.106 73.465 566.938 419.882"
	 enable-background="new -0.106 73.465 566.938 419.882" xml:space="preserve">
<g id="surface159">
	
		<linearGradient id="SVGID_1_" gradientUnits="userSpaceOnUse" x1="202.2251" y1="85.3032" x2="255.2251" y2="85.3032" gradientTransform="matrix(0.75 0 0 -0.75 240.4794 224.4415)">
		<stop  offset="0" style="stop-color:#9AA1AA"/>
		<stop  offset="0.22" style="stop-color:#AEB5C0"/>
		<stop  offset="0.57" style="stop-color:#DCE0E5"/>
		<stop  offset="0.84" style="stop-color:#CACFD7"/>
		<stop  offset="1" style="stop-color:#A7AFB9"/>
	</linearGradient>
	<path fill="url(#SVGID_1_)" d="M392.148,73.465h39.75v174h-39.75V73.465z"/>
	
		<linearGradient id="SVGID_2_" gradientUnits="userSpaceOnUse" x1="1.3032" y1="379.728" x2="27.3032" y2="379.728" gradientTransform="matrix(0 -0.75 0.75 0 -242.6671 388.9337)">
		<stop  offset="0" style="stop-color:#9AA1AA"/>
		<stop  offset="0.22" style="stop-color:#AEB5C0"/>
		<stop  offset="0.57" style="stop-color:#DCE0E5"/>
		<stop  offset="0.84" style="stop-color:#CACFD7"/>
		<stop  offset="1" style="stop-color:#A7AFB9"/>
	</linearGradient>
	<path fill="url(#SVGID_2_)" d="M59.004,387.957v-19.5h-33.75v19.5H59.004z"/>
	
		<linearGradient id="SVGID_3_" gradientUnits="userSpaceOnUse" x1="1.3022" y1="400.229" x2="29.6519" y2="400.229" gradientTransform="matrix(0 -0.75 0.75 0 -239.6798 390.0197)">
		<stop  offset="0" style="stop-color:#8F969D"/>
		<stop  offset="0.64" style="stop-color:#D3D8DE"/>
		<stop  offset="1" style="stop-color:#9AA0A8"/>
	</linearGradient>
	<path fill="url(#SVGID_3_)" d="M61.988,388.292v-19.5c0-0.75-0.66-1.012-1.488-1.012c-0.762,0.262-1.496,0.309-1.496,0.688
		l-0.016,19.824c0,0.75,0.688,0.75,1.512,0.75c0.738,0,1.496-0.309,1.496-0.688L61.988,388.292z"/>
	
		<linearGradient id="SVGID_4_" gradientUnits="userSpaceOnUse" x1="1.3022" y1="401.5923" x2="29.4331" y2="401.5923" gradientTransform="matrix(0 -0.75 0.75 0 -241.7155 389.9376)">
		<stop  offset="0" style="stop-color:#626974"/>
		<stop  offset="0.66" style="stop-color:#CCD0D5"/>
		<stop  offset="1" style="stop-color:#5E6670"/>
	</linearGradient>
	<path fill="url(#SVGID_4_)" d="M59.953,367.96c-0.75,0-0.949,0.215-0.949,0.59l0.199,19.66c0,0.75,0.27,0.715,0.75,0.75v-21.098
		V367.96z"/>
	<path fill="#FFFFFF" fill-opacity="0.749" d="M61.82,388.695v-20.25c0,0-0.129-0.316-0.285-0.316
		c-0.465,0.316-0.281,0.148-0.281,0.332l-0.184,20.234c0,0,0.309,0,0.465,0c0.285,0,0.285-0.148,0.285-0.332V388.695z"/>
	
		<radialGradient id="SVGID_5_" cx="35.2368" cy="368.4624" r="47.868" gradientTransform="matrix(0 -0.75 0.75 0 -251.0031 420.297)" gradientUnits="userSpaceOnUse">
		<stop  offset="0" style="stop-color:#C7CBD1"/>
		<stop  offset="0.54" style="stop-color:#B6BCC4"/>
		<stop  offset="0.74" style="stop-color:#D4D8DD"/>
		<stop  offset="0.91" style="stop-color:#C4C7CD"/>
		<stop  offset="1" style="stop-color:#B6BCC4"/>
	</radialGradient>
	<path fill="url(#SVGID_5_)" stroke="#D4D6DB" stroke-width="0.25" stroke-linejoin="bevel" stroke-miterlimit="10" d="
		M25.168,419.32c14.25,0,25.5-11.395,25.5-25.449c0-14.301-11.336-25.449-25.32-25.449c-13.68-0.102-25.32,11.395-25.32,25.449
		c-0.359,14.199,11.336,25.449,25.32,25.449H25.168z"/>
	<path fill="#FFFFFF" fill-opacity="0.2745" d="M25.395,415.023c11.25,0,21-9.469,21-21.152c0-11.848-9.422-21.156-21.047-21.156
		c-11.953,0.309-21.047,9.473-21.047,21.156c0.094,11.402,9.422,21.152,21.047,21.152H25.395z"/>
	<path fill="#FFFFFF" fill-opacity="0.1255" d="M25.086,415.015c10.5,0,17.25-8.504,17.25-8.504l-31.5-27.496
		c0,0-6.555,5.117-6.555,14.848c-0.195,11.402,9.438,21.152,21.055,21.152H25.086z"/>
	
		<linearGradient id="SVGID_6_" gradientUnits="userSpaceOnUse" x1="520.2251" y1="-124.6953" x2="520.2251" y2="201.3047" gradientTransform="matrix(0.75 0 0 -0.75 -74.067 396.4816)">
		<stop  offset="0" style="stop-color:#9AA1AA"/>
		<stop  offset="0.22" style="stop-color:#AEB5C0"/>
		<stop  offset="0.57" style="stop-color:#DCE0E5"/>
		<stop  offset="0.84" style="stop-color:#CACFD7"/>
		<stop  offset="1" style="stop-color:#A7AFB9"/>
	</linearGradient>
	<path fill="url(#SVGID_6_)" d="M77.602,245.504h477v244.5h-477V245.504z"/>
	
		<linearGradient id="SVGID_7_" gradientUnits="userSpaceOnUse" x1="210.209" y1="-133.8906" x2="210.209" y2="201.3066" gradientTransform="matrix(0.75 0 0 -0.75 -85.6569 392.9288)">
		<stop  offset="0" style="stop-color:#7D8490"/>
		<stop  offset="0.22" style="stop-color:#8D94A2"/>
		<stop  offset="0.57" style="stop-color:#CED1D7"/>
		<stop  offset="0.84" style="stop-color:#B2B7C1"/>
		<stop  offset="1" style="stop-color:#878F9C"/>
	</linearGradient>
	<path fill="url(#SVGID_7_)" d="M71.262,241.949c4.5,0,6.668,2.457,6.668,5.57l0.082,240.429c0,3-2.586,5.398-5.68,5.398
		c-4.07-0.148-6.344-2.559-6.344-5.672l0.023-240.476c0-3,2.484-5.25,5.574-5.25H71.262z"/>
	
		<linearGradient id="SVGID_8_" gradientUnits="userSpaceOnUse" x1="210.21" y1="-133.8916" x2="210.2099" y2="201.3057" gradientTransform="matrix(0.75 0 0 -0.75 403.162 392.9288)">
		<stop  offset="0" style="stop-color:#7D8490"/>
		<stop  offset="0.22" style="stop-color:#8D94A2"/>
		<stop  offset="0.57" style="stop-color:#CED1D7"/>
		<stop  offset="0.84" style="stop-color:#B2B7C1"/>
		<stop  offset="1" style="stop-color:#878F9C"/>
	</linearGradient>
	<path fill="url(#SVGID_8_)" d="M560.082,241.949c4.5,0,6.668,2.457,6.668,5.57l0.082,240.429c0,3-2.59,5.398-5.68,5.398
		c-4.07-0.148-6.344-2.559-6.344-5.672l0.023-240.476c0-3,2.484-5.25,5.574-5.25H560.082z"/>
	
		<linearGradient id="SVGID_9_" gradientUnits="userSpaceOnUse" x1="308.2261" y1="184.8066" x2="202.2261" y2="184.8066" gradientTransform="matrix(0.75 0 0 -0.75 307.7157 371.4708)">
		<stop  offset="0" style="stop-color:#868B91"/>
		<stop  offset="0.03" style="stop-color:#CED2D9"/>
		<stop  offset="0.08" style="stop-color:#B0B5BE"/>
		<stop  offset="0.64" style="stop-color:#ADB2BA"/>
		<stop  offset="0.95" style="stop-color:#A9AEB6"/>
		<stop  offset="1" style="stop-color:#7C8187"/>
	</linearGradient>
	<path fill="url(#SVGID_9_)" d="M459.386,220.492h79.5v24.75h-79.5V220.492z"/>
	
		<linearGradient id="SVGID_10_" gradientUnits="userSpaceOnUse" x1="308.2261" y1="199.8027" x2="202.2261" y2="199.8027" gradientTransform="matrix(0.75 0 0 -0.75 307.7157 372.879)">
		<stop  offset="0" style="stop-color:#888888"/>
		<stop  offset="0.03" style="stop-color:#D0D0CF"/>
		<stop  offset="0.08" style="stop-color:#B2B2B2"/>
		<stop  offset="0.64" style="stop-color:#B0B0AF"/>
		<stop  offset="0.95" style="stop-color:#ACACAB"/>
		<stop  offset="1" style="stop-color:#7E7E7E"/>
	</linearGradient>
	<path fill="url(#SVGID_10_)" d="M459.386,221.902h79.5v2.25h-79.5V221.902z"/>
	
		<linearGradient id="SVGID_11_" gradientUnits="userSpaceOnUse" x1="325.3774" y1="195.6675" x2="202.2217" y2="195.6675" gradientTransform="matrix(0.75 0 0 -0.75 301.2782 363.9728)">
		<stop  offset="0" style="stop-color:#969A9E"/>
		<stop  offset="0.03" style="stop-color:#DEE2E7"/>
		<stop  offset="0.08" style="stop-color:#C4C9CE"/>
		<stop  offset="0.64" style="stop-color:#C1C5CB"/>
		<stop  offset="0.95" style="stop-color:#BCC1C6"/>
		<stop  offset="1" style="stop-color:#8B8F93"/>
	</linearGradient>
	<path fill="url(#SVGID_11_)" d="M457.445,212.996h84c2.25,0,3.867,1.891,3.867,4.227c-0.117,2.523-1.906,4.227-4.227,4.227
		l-83.641-0.203c-3,0-4.5-1.688-4.5-4.023c0-1.977,1.852-4.227,4.172-4.227H457.445z"/>
	
		<linearGradient id="SVGID_12_" gradientUnits="userSpaceOnUse" x1="206.7266" y1="-44.6934" x2="206.7265" y2="201.3066" gradientTransform="matrix(0.75 0 0 -0.75 -92.7277 428.2599)">
		<stop  offset="0" style="stop-color:#9AA1AA"/>
		<stop  offset="0.22" style="stop-color:#AEB5C0"/>
		<stop  offset="0.57" style="stop-color:#DCE0E5"/>
		<stop  offset="0.84" style="stop-color:#CACFD7"/>
		<stop  offset="1" style="stop-color:#A7AFB9"/>
	</linearGradient>
	<path fill="url(#SVGID_12_)" d="M65.691,277.281h-6.75v184.5h6.75V277.281z"/>
	
		<linearGradient id="SVGID_13_" gradientUnits="userSpaceOnUse" x1="223.2246" y1="201.3018" x2="223.2246" y2="125.3018" gradientTransform="matrix(0.75 0 0 -0.75 -124.4493 445.2452)">
		<stop  offset="0" style="stop-color:#868B91"/>
		<stop  offset="0.03" style="stop-color:#CED2D9"/>
		<stop  offset="0.08" style="stop-color:#B0B5BE"/>
		<stop  offset="0.64" style="stop-color:#ADB2BA"/>
		<stop  offset="0.95" style="stop-color:#A9AEB6"/>
		<stop  offset="1" style="stop-color:#7C8187"/>
	</linearGradient>
	<path fill="url(#SVGID_13_)" d="M58.719,294.269h-31.5v57h31.5V294.269z"/>
	
		<linearGradient id="SVGID_14_" gradientUnits="userSpaceOnUse" x1="203.7246" y1="201.3018" x2="203.7246" y2="125.3018" gradientTransform="matrix(0.75 0 0 -0.75 -124.4493 445.2452)">
		<stop  offset="0" style="stop-color:#898988"/>
		<stop  offset="0.03" style="stop-color:#D1D1D0"/>
		<stop  offset="0.08" style="stop-color:#B3B3B2"/>
		<stop  offset="0.64" style="stop-color:#B0B0B0"/>
		<stop  offset="0.95" style="stop-color:#ACACAC"/>
		<stop  offset="1" style="stop-color:#7F7F7E"/>
	</linearGradient>
	<path fill="url(#SVGID_14_)" d="M29.469,294.269h-2.25v57h2.25V294.269z"/>
	
		<linearGradient id="SVGID_15_" gradientUnits="userSpaceOnUse" x1="205.2139" y1="201.3057" x2="205.2139" y2="119.2021" gradientTransform="matrix(0.75 0 0 -0.75 -128.9103 442.838)">
		<stop  offset="0" style="stop-color:#969A9E"/>
		<stop  offset="0.03" style="stop-color:#DEE2E7"/>
		<stop  offset="0.08" style="stop-color:#C4C9CE"/>
		<stop  offset="0.64" style="stop-color:#C1C5CB"/>
		<stop  offset="0.95" style="stop-color:#BCC1C6"/>
		<stop  offset="1" style="stop-color:#8B8F93"/>
	</linearGradient>
	<path fill="url(#SVGID_15_)" d="M25.008,291.859c1.5,0,2.211,0.953,2.211,2.199l0.039,57.051c0,1.5-1.039,2.328-2.277,2.328
		c-1.473-0.078-2.238-1.008-2.238-2.254l0.016-57.074c0-1.5,0.984-2.25,2.223-2.25H25.008z"/>
	
		<linearGradient id="SVGID_16_" gradientUnits="userSpaceOnUse" x1="283.2261" y1="156.8066" x2="202.2261" y2="156.8066" gradientTransform="matrix(0.75 0 0 -0.75 -44.5802 562.5802)">
		<stop  offset="0" style="stop-color:#868B91"/>
		<stop  offset="0.03" style="stop-color:#CED2D9"/>
		<stop  offset="0.08" style="stop-color:#B0B5BE"/>
		<stop  offset="0.64" style="stop-color:#ADB2BA"/>
		<stop  offset="0.95" style="stop-color:#A9AEB6"/>
		<stop  offset="1" style="stop-color:#7C8187"/>
	</linearGradient>
	<path fill="url(#SVGID_16_)" d="M107.09,411.601h60.75v66.75h-60.75V411.601z"/>
</g>
</svg>
