<?xml version="1.0" encoding="utf-8"?>
<!-- Generator: Adobe Illustrator 16.0.0, SVG Export Plug-In . SVG Version: 6.00 Build 0)  -->
<!DOCTYPE svg PUBLIC "-//W3C//DTD SVG 1.1//EN" "http://www.w3.org/Graphics/SVG/1.1/DTD/svg11.dtd">
<svg preserveAspectRatio="none"   version="1.1" id="图层_1" xmlns="http://www.w3.org/2000/svg" xmlns:xlink="http://www.w3.org/1999/xlink" x="0px" y="0px"
	 width="503.917px" height="564.322px" viewBox="31.387 1.314 503.917 564.322"
	 enable-background="new 31.387 1.314 503.917 564.322" xml:space="preserve">
<g id="surface184">
	
		<linearGradient id="SVGID_1_" gradientUnits="userSpaceOnUse" x1="621.2231" y1="-151.1943" x2="202.2236" y2="-151.1944" gradientTransform="matrix(0.75 0 0 -0.75 -25.1959 187.8654)">
		<stop  offset="0" style="stop-color:#BDBDBD"/>
		<stop  offset="0.15" style="stop-color:#FFFFFF"/>
		<stop  offset="0.25" style="stop-color:#FFFFFF"/>
		<stop  offset="0.52" style="stop-color:#DFDFDF"/>
		<stop  offset="0.69" style="stop-color:#C7C7C7"/>
		<stop  offset="0.8" style="stop-color:#BCBCBC"/>
		<stop  offset="0.92" style="stop-color:#B1B1B1"/>
		<stop  offset="1" style="stop-color:#CBCBCB"/>
	</linearGradient>
	<path fill="url(#SVGID_1_)" d="M126.473,36.887h314.25v528.75h-314.25V36.887z"/>
	
		<linearGradient id="SVGID_2_" gradientUnits="userSpaceOnUse" x1="620.8696" y1="177.5957" x2="202.2236" y2="177.5957" gradientTransform="matrix(0.75 0 0 -0.75 -25.1959 152.299)">
		<stop  offset="0" style="stop-color:#BDBDBD"/>
		<stop  offset="0.15" style="stop-color:#FFFFFF"/>
		<stop  offset="0.25" style="stop-color:#FFFFFF"/>
		<stop  offset="0.52" style="stop-color:#DFDFDF"/>
		<stop  offset="0.69" style="stop-color:#C7C7C7"/>
		<stop  offset="0.8" style="stop-color:#BCBCBC"/>
		<stop  offset="0.92" style="stop-color:#B1B1B1"/>
		<stop  offset="1" style="stop-color:#CBCBCB"/>
	</linearGradient>
	<path fill="url(#SVGID_2_)" d="M169.223,12.57c35.25-7.5,72.848-11.43,114.242-11.25c44.757,0,91.488,4.766,120.968,13.242
		c27.289,7.758,36.023,22.328,36.023,22.328l-313.984-0.32c0,0,1.219-14.5,42.594-23.887L169.223,12.57z"/>
	
		<linearGradient id="SVGID_3_" gradientUnits="userSpaceOnUse" x1="621.2231" y1="198.3032" x2="202.2236" y2="198.3032" gradientTransform="matrix(0.75 0 0 -0.75 -25.1959 188.1798)">
		<stop  offset="0" style="stop-color:#979898"/>
		<stop  offset="0.15" style="stop-color:#D0D1D1"/>
		<stop  offset="0.25" style="stop-color:#E5E6E6"/>
		<stop  offset="0.52" style="stop-color:#B3B4B4"/>
		<stop  offset="0.69" style="stop-color:#9FA0A0"/>
		<stop  offset="0.8" style="stop-color:#969797"/>
		<stop  offset="0.92" style="stop-color:#8E8E8E"/>
		<stop  offset="1" style="stop-color:#A3A4A4"/>
	</linearGradient>
	<path fill="url(#SVGID_3_)" d="M126.473,37.203h314.25v4.5h-314.25V37.203z"/>
	
		<linearGradient id="SVGID_4_" gradientUnits="userSpaceOnUse" x1="552.2222" y1="-51.6968" x2="202.2231" y2="-51.6968" gradientTransform="matrix(0.75 0 0 -0.75 0.4965 248.2921)">
		<stop  offset="0" style="stop-color:#A89170"/>
		<stop  offset="0.15" style="stop-color:#E5C79B"/>
		<stop  offset="0.25" style="stop-color:#FFE3BA"/>
		<stop  offset="0.52" style="stop-color:#DBBF94"/>
		<stop  offset="0.69" style="stop-color:#B19A77"/>
		<stop  offset="0.8" style="stop-color:#B19A77"/>
		<stop  offset="0.92" style="stop-color:#998566"/>
		<stop  offset="1" style="stop-color:#7E6D54"/>
	</linearGradient>
	<path fill="url(#SVGID_4_)" d="M152.164,97.316h262.5v379.5h-262.5V97.316z"/>
	
		<linearGradient id="SVGID_5_" gradientUnits="userSpaceOnUse" x1="282.7236" y1="201.3066" x2="282.7236" y2="120.3057" gradientTransform="matrix(0.75 0 0 -0.75 262.8866 519.2921)">
		<stop  offset="0" style="stop-color:#BDBDBD"/>
		<stop  offset="0.15" style="stop-color:#FFFFFF"/>
		<stop  offset="0.25" style="stop-color:#FFFFFF"/>
		<stop  offset="0.52" style="stop-color:#DFDFDF"/>
		<stop  offset="0.69" style="stop-color:#C7C7C7"/>
		<stop  offset="0.8" style="stop-color:#BCBCBC"/>
		<stop  offset="0.92" style="stop-color:#B1B1B1"/>
		<stop  offset="1" style="stop-color:#CBCBCB"/>
	</linearGradient>
	<path fill="url(#SVGID_5_)" d="M414.554,368.312h120.75v60.75h-120.75V368.312z"/>
	
		<linearGradient id="SVGID_6_" gradientUnits="userSpaceOnUse" x1="282.7236" y1="201.3018" x2="282.7236" y2="120.3018" gradientTransform="matrix(0.75 0 0 -0.75 -120.2809 614.8322)">
		<stop  offset="0" style="stop-color:#BDBDBD"/>
		<stop  offset="0.15" style="stop-color:#FFFFFF"/>
		<stop  offset="0.25" style="stop-color:#FFFFFF"/>
		<stop  offset="0.52" style="stop-color:#DFDFDF"/>
		<stop  offset="0.69" style="stop-color:#C7C7C7"/>
		<stop  offset="0.8" style="stop-color:#BCBCBC"/>
		<stop  offset="0.92" style="stop-color:#B1B1B1"/>
		<stop  offset="1" style="stop-color:#CBCBCB"/>
	</linearGradient>
	<path fill="url(#SVGID_6_)" d="M31.387,463.855h120.75v60.75H31.387V463.855z"/>
	
		<linearGradient id="SVGID_7_" gradientUnits="userSpaceOnUse" x1="377.6235" y1="324.2251" x2="377.6235" y2="402.2251" gradientTransform="matrix(0 0.75 0.75 0 -73.692 -161.9049)">
		<stop  offset="0" style="stop-color:#D6BA90"/>
		<stop  offset="0.22" style="stop-color:#F0D1A2"/>
		<stop  offset="0.57" style="stop-color:#FFEED7"/>
		<stop  offset="0.84" style="stop-color:#FFE5C1"/>
		<stop  offset="1" style="stop-color:#E7C99C"/>
	</linearGradient>
	<path fill="url(#SVGID_7_)" d="M169.477,129.563c0,0,1.758-16.5,29.492-16.5c27.508,0,29.008,16.23,29.008,16.23l-13.5,0.27
		c0,0-1.512-7.066-15.773-7.066c-14.227,0.316-14.922,6.797-14.922,6.797L169.477,129.563z"/>
	
		<linearGradient id="SVGID_8_" gradientUnits="userSpaceOnUse" x1="378.1216" y1="328.1812" x2="378.1216" y2="402.2271" gradientTransform="matrix(0 0.75 0.75 0 10.6161 -161.9054)">
		<stop  offset="0" style="stop-color:#D6BA90"/>
		<stop  offset="0.22" style="stop-color:#F0D1A2"/>
		<stop  offset="0.57" style="stop-color:#FFEED7"/>
		<stop  offset="0.84" style="stop-color:#FFE5C1"/>
		<stop  offset="1" style="stop-color:#E7C99C"/>
	</linearGradient>
	<path fill="url(#SVGID_8_)" d="M256.785,129.563c0,0-2.094-16.5,26.965-16.5c29.285,0,28.535,17.246,28.535,17.246l-13.5-0.746
		c0,0-0.25-6.254-14.512-6.254c-13.988,0.254-13.339,5.984-13.339,5.984L256.785,129.563z"/>
	
		<linearGradient id="SVGID_9_" gradientUnits="userSpaceOnUse" x1="378.1069" y1="326.2241" x2="378.1069" y2="402.2241" gradientTransform="matrix(0 0.75 0.75 0 96.288 -161.9049)">
		<stop  offset="0" style="stop-color:#D6BA90"/>
		<stop  offset="0.22" style="stop-color:#F0D1A2"/>
		<stop  offset="0.57" style="stop-color:#FFEED7"/>
		<stop  offset="0.84" style="stop-color:#FFE5C1"/>
		<stop  offset="1" style="stop-color:#E7C99C"/>
	</linearGradient>
	<path fill="url(#SVGID_9_)" d="M340.957,129.563c0,0,1.422-16.5,28.887-16.5c27.363-0.75,28.113,16.23,28.113,16.23l-13.5,1.02
		c0,0-0.879-7.004-15.141-7.41c-14.109-0.09-14.129,6.391-14.129,6.391L340.957,129.563z"/>
	
		<linearGradient id="SVGID_10_" gradientUnits="userSpaceOnUse" x1="377.6987" y1="326.4604" x2="377.6987" y2="402.2349" gradientTransform="matrix(0 0.75 0.75 0 -30.7316 151.0458)">
		<stop  offset="0" style="stop-color:#D6BA90"/>
		<stop  offset="0.22" style="stop-color:#F0D1A2"/>
		<stop  offset="0.57" style="stop-color:#FFEED7"/>
		<stop  offset="0.84" style="stop-color:#FFE5C1"/>
		<stop  offset="1" style="stop-color:#E7C99C"/>
	</linearGradient>
	<path fill="url(#SVGID_10_)" d="M228.188,426.015c0,0,1.152,6.055,14.336,6.055c13.414-0.055,14.547-6.086,14.547-6.086
		l13.867,0.031c0,0,1.188,16.641-27.863,16.641c-29.137-0.141-28.961-16.672-28.961-16.672L228.188,426.015z"/>
	
		<linearGradient id="SVGID_11_" gradientUnits="userSpaceOnUse" x1="377.6987" y1="326.6245" x2="377.6987" y2="402.2241" gradientTransform="matrix(0 0.75 0.75 0 53.453 151.0458)">
		<stop  offset="0" style="stop-color:#D6BA90"/>
		<stop  offset="0.22" style="stop-color:#F0D1A2"/>
		<stop  offset="0.57" style="stop-color:#FFEED7"/>
		<stop  offset="0.84" style="stop-color:#FFE5C1"/>
		<stop  offset="1" style="stop-color:#E7C99C"/>
	</linearGradient>
	<path fill="url(#SVGID_11_)" d="M312.371,426.015c0,0,0.426,6.457,14.16,6.457c13.59,0.293,14.789-6.488,14.789-6.488l13.801,0.031
		c0,0,0,16.641-28.039,16.641c-28.211-0.141-28.66-16.672-28.66-16.672L312.371,426.015z"/>
	
		<linearGradient id="SVGID_12_" gradientUnits="userSpaceOnUse" x1="583.6235" y1="384.2251" x2="583.6235" y2="402.2251" gradientTransform="matrix(0 0.75 0.75 0 -118.548 -146.589)">
		<stop  offset="0" style="stop-color:#D6BA90"/>
		<stop  offset="0.22" style="stop-color:#F0D1A2"/>
		<stop  offset="0.57" style="stop-color:#FFEED7"/>
		<stop  offset="0.84" style="stop-color:#FFE5C1"/>
		<stop  offset="1" style="stop-color:#E7C99C"/>
	</linearGradient>
	<path fill="url(#SVGID_12_)" d="M169.621,453.878v-325.5h13.5v325.5H169.621z"/>
	
		<linearGradient id="SVGID_13_" gradientUnits="userSpaceOnUse" x1="565.1235" y1="384.2231" x2="565.1235" y2="402.2231" gradientTransform="matrix(0 0.75 0.75 0 -74.046 -146.589)">
		<stop  offset="0" style="stop-color:#D6BA90"/>
		<stop  offset="0.22" style="stop-color:#F0D1A2"/>
		<stop  offset="0.57" style="stop-color:#FFEED7"/>
		<stop  offset="0.84" style="stop-color:#FFE5C1"/>
		<stop  offset="1" style="stop-color:#E7C99C"/>
	</linearGradient>
	<path fill="url(#SVGID_13_)" d="M214.121,426.128v-297.75h13.5v297.75H214.121z"/>
	
		<linearGradient id="SVGID_14_" gradientUnits="userSpaceOnUse" x1="565.1235" y1="384.2261" x2="565.1235" y2="402.2261" gradientTransform="matrix(0 0.75 0.75 0 -31.256 -146.589)">
		<stop  offset="0" style="stop-color:#D6BA90"/>
		<stop  offset="0.22" style="stop-color:#F0D1A2"/>
		<stop  offset="0.57" style="stop-color:#FFEED7"/>
		<stop  offset="0.84" style="stop-color:#FFE5C1"/>
		<stop  offset="1" style="stop-color:#E7C99C"/>
	</linearGradient>
	<path fill="url(#SVGID_14_)" d="M256.914,426.128v-297.75h13.5v297.75H256.914z"/>
	
		<linearGradient id="SVGID_15_" gradientUnits="userSpaceOnUse" x1="565.6265" y1="383.2241" x2="565.6265" y2="402.2241" gradientTransform="matrix(0 0.75 0.75 0 9.9413 -146.5909)">
		<stop  offset="0" style="stop-color:#D6BA90"/>
		<stop  offset="0.22" style="stop-color:#F0D1A2"/>
		<stop  offset="0.57" style="stop-color:#FFEED7"/>
		<stop  offset="0.84" style="stop-color:#FFE5C1"/>
		<stop  offset="1" style="stop-color:#E7C99C"/>
	</linearGradient>
	<path fill="url(#SVGID_15_)" d="M297.359,426.878v-298.5h14.25v298.5H297.359z"/>
	
		<linearGradient id="SVGID_16_" gradientUnits="userSpaceOnUse" x1="564.6226" y1="385.2241" x2="564.6226" y2="402.2241" gradientTransform="matrix(0 0.75 0.75 0 52.7264 -146.5885)">
		<stop  offset="0" style="stop-color:#D6BA90"/>
		<stop  offset="0.22" style="stop-color:#F0D1A2"/>
		<stop  offset="0.57" style="stop-color:#FFEED7"/>
		<stop  offset="0.84" style="stop-color:#FFE5C1"/>
		<stop  offset="1" style="stop-color:#E7C99C"/>
	</linearGradient>
	<path fill="url(#SVGID_16_)" d="M341.644,425.378v-297h12.75v297H341.644z"/>
	
		<linearGradient id="SVGID_17_" gradientUnits="userSpaceOnUse" x1="583.6245" y1="385.2222" x2="583.6245" y2="402.2222" gradientTransform="matrix(0 0.75 0.75 0 95.5126 -146.5929)">
		<stop  offset="0" style="stop-color:#D6BA90"/>
		<stop  offset="0.22" style="stop-color:#F0D1A2"/>
		<stop  offset="0.57" style="stop-color:#FFEED7"/>
		<stop  offset="0.84" style="stop-color:#FFE5C1"/>
		<stop  offset="1" style="stop-color:#E7C99C"/>
	</linearGradient>
	<path fill="url(#SVGID_17_)" d="M384.429,453.875v-325.5h12.75v325.5H384.429z"/>
	
		<linearGradient id="SVGID_18_" gradientUnits="userSpaceOnUse" x1="222.7246" y1="185.3057" x2="222.7246" y2="201.3057" gradientTransform="matrix(0.75 0 0 -0.75 0.7499 602.1818)">
		<stop  offset="0" style="stop-color:#D6BA90"/>
		<stop  offset="0.22" style="stop-color:#F0D1A2"/>
		<stop  offset="0.57" style="stop-color:#FFEED7"/>
		<stop  offset="0.84" style="stop-color:#FFE5C1"/>
		<stop  offset="1" style="stop-color:#E7C99C"/>
	</linearGradient>
	<path fill="url(#SVGID_18_)" d="M152.418,451.203h30.75v12h-30.75V451.203z"/>
	
		<linearGradient id="SVGID_19_" gradientUnits="userSpaceOnUse" x1="552.2222" y1="151.8052" x2="202.2231" y2="151.8051" gradientTransform="matrix(0.75 0 0 -0.75 0.4965 614.8282)">
		<stop  offset="0" style="stop-color:#A6824E"/>
		<stop  offset="0.15" style="stop-color:#E3B26D"/>
		<stop  offset="0.25" style="stop-color:#FDCF95"/>
		<stop  offset="0.52" style="stop-color:#D9AB68"/>
		<stop  offset="0.69" style="stop-color:#B08953"/>
		<stop  offset="0.8" style="stop-color:#A27F4C"/>
		<stop  offset="0.92" style="stop-color:#987647"/>
		<stop  offset="1" style="stop-color:#7D6139"/>
	</linearGradient>
	<path fill="url(#SVGID_19_)" d="M152.164,463.851h262.5v74.25h-262.5V463.851z"/>
	
		<linearGradient id="SVGID_20_" gradientUnits="userSpaceOnUse" x1="222.2285" y1="185.3057" x2="222.2285" y2="201.3057" gradientTransform="matrix(0.75 0 0 -0.75 233.1298 602.1818)">
		<stop  offset="0" style="stop-color:#D6BA90"/>
		<stop  offset="0.22" style="stop-color:#F0D1A2"/>
		<stop  offset="0.57" style="stop-color:#FFEED7"/>
		<stop  offset="0.84" style="stop-color:#FFE5C1"/>
		<stop  offset="1" style="stop-color:#E7C99C"/>
	</linearGradient>
	<path fill="url(#SVGID_20_)" d="M384.8,451.203h30v12h-30V451.203z"/>
	<path fill="#888889" d="M126.262,463.855h26.25v60.75h-26.25V463.855z"/>
	<path fill="#9E9F9F" d="M414.554,368.312h26.25v60.75h-26.25V368.312z"/>
</g>
</svg>
