<?xml version="1.0" encoding="utf-8"?>
<!-- Generator: Adobe Illustrator 16.0.0, SVG Export Plug-In . SVG Version: 6.00 Build 0)  -->
<!DOCTYPE svg PUBLIC "-//W3C//DTD SVG 1.1//EN" "http://www.w3.org/Graphics/SVG/1.1/DTD/svg11.dtd">
<svg preserveAspectRatio="none"   version="1.1" id="图层_1" xmlns="http://www.w3.org/2000/svg" xmlns:xlink="http://www.w3.org/1999/xlink" x="0px" y="0px"
	 width="551.25px" height="591.738px" viewBox="7.926 -14.879 551.25 591.738"
	 enable-background="new 7.926 -14.879 551.25 591.738" xml:space="preserve">
<g id="surface164">
	
		<linearGradient id="SVGID_1_" gradientUnits="userSpaceOnUse" x1="661.2212" y1="92.3032" x2="202.2222" y2="92.3032" gradientTransform="matrix(0.75 0 0 -0.75 -40.4249 136.0968)">
		<stop  offset="0" style="stop-color:#BCAD9A"/>
		<stop  offset="0.15" style="stop-color:#FDEAD3"/>
		<stop  offset="0.25" style="stop-color:#FEF3E7"/>
		<stop  offset="0.52" style="stop-color:#DECCB6"/>
		<stop  offset="0.69" style="stop-color:#C5B5A2"/>
		<stop  offset="0.8" style="stop-color:#BAAB98"/>
		<stop  offset="0.92" style="stop-color:#B0A190"/>
		<stop  offset="1" style="stop-color:#CABAA5"/>
	</linearGradient>
	<path fill="url(#SVGID_1_)" d="M111.242-14.879h344.25v163.5h-344.25V-14.879z"/>
	
		<linearGradient id="SVGID_2_" gradientUnits="userSpaceOnUse" x1="937.2231" y1="134.3042" x2="202.2231" y2="134.3041" gradientTransform="matrix(0.75 0 0 -0.75 -143.7423 299.9454)">
		<stop  offset="0" style="stop-color:#BCAD9A"/>
		<stop  offset="0.15" style="stop-color:#FDEAD3"/>
		<stop  offset="0.25" style="stop-color:#FEF3E7"/>
		<stop  offset="0.52" style="stop-color:#DECCB6"/>
		<stop  offset="0.69" style="stop-color:#C5B5A2"/>
		<stop  offset="0.8" style="stop-color:#BAAB98"/>
		<stop  offset="0.92" style="stop-color:#B0A190"/>
		<stop  offset="1" style="stop-color:#CABAA5"/>
	</linearGradient>
	<path fill="url(#SVGID_2_)" d="M111.426,148.969h344.25l103.5,100.5H7.926L111.426,148.969z"/>
	
		<linearGradient id="SVGID_3_" gradientUnits="userSpaceOnUse" x1="937.2231" y1="-17.6953" x2="202.2231" y2="-17.6954" gradientTransform="matrix(0.75 0 0 -0.75 -143.7423 399.2736)">
		<stop  offset="0" style="stop-color:#BCAD9A"/>
		<stop  offset="0.15" style="stop-color:#FDEAD3"/>
		<stop  offset="0.25" style="stop-color:#FEF3E7"/>
		<stop  offset="0.52" style="stop-color:#DECCB6"/>
		<stop  offset="0.69" style="stop-color:#C5B5A2"/>
		<stop  offset="0.8" style="stop-color:#BAAB98"/>
		<stop  offset="0.92" style="stop-color:#B0A190"/>
		<stop  offset="1" style="stop-color:#CABAA5"/>
	</linearGradient>
	<path fill="url(#SVGID_3_)" d="M7.926,248.297h551.25v328.5H7.926V248.297z"/>
	
		<linearGradient id="SVGID_4_" gradientUnits="userSpaceOnUse" x1="937.2231" y1="193.3052" x2="202.2231" y2="193.3051" gradientTransform="matrix(0.75 0 0 -0.75 -143.7423 715.837)">
		<stop  offset="0" style="stop-color:#B39777"/>
		<stop  offset="0.15" style="stop-color:#F2D0AA"/>
		<stop  offset="0.25" style="stop-color:#F7E5D3"/>
		<stop  offset="0.52" style="stop-color:#D3B28D"/>
		<stop  offset="0.69" style="stop-color:#BC9E7D"/>
		<stop  offset="0.8" style="stop-color:#B19576"/>
		<stop  offset="0.92" style="stop-color:#A78D6F"/>
		<stop  offset="1" style="stop-color:#C0A280"/>
	</linearGradient>
	<path fill="url(#SVGID_4_)" d="M7.926,564.859h551.25v12H7.926V564.859z"/>
	
		<linearGradient id="SVGID_5_" gradientUnits="userSpaceOnUse" x1="202.2256" y1="29.8062" x2="851.2241" y2="29.8062" gradientTransform="matrix(0.75 0 0 -0.75 -111.4034 425.507)">
		<stop  offset="0" style="stop-color:#947B62"/>
		<stop  offset="0.24" style="stop-color:#CCAF91"/>
		<stop  offset="0.57" style="stop-color:#AF9375"/>
		<stop  offset="0.74" style="stop-color:#9B8267"/>
		<stop  offset="0.86" style="stop-color:#927A61"/>
	</linearGradient>
	<path fill="url(#SVGID_5_)" d="M40.266,274.527h486.75v257.25H40.266V274.527z"/>
	<path fill="#FE5C1C" d="M40.926,531.386c0,0,0-12.895,11.059-13.551c0.191,0.051-2.465,3.727-2.465,5.48
		c-0.344,2.07,10.023-14.906,9.848-14.688c0.309,0.258-6.68,11.18,2.289,15.125c0.27,0.133,18.641,6.137,16.355-23.016
		c-2.586-29.352,2.648-34.473,2.648-34.473c0.016-0.129-3,39.953,16.094,34.254c-0.328,0.117,11.152-1.973,8.691-37.672
		c-0.02,0.289-0.352-17.418-8.691-9.895c-0.328-0.316-3.973-13.809,4.117-12.055c0.055-0.262,11.609,1.973,10.203,30.027
		c0.352-0.289,1.23,11.18,4.414-2.629c-0.313,0.09,8.422,34.852,24.898,30.25c0.289-0.16,6.387-0.219,8.324-22.797
		c0.215,0.137,6.328,9.645,2.926,26.305c0.289,0.082,8.504-2.195,9.77-1.098c0.27-0.32-3.023,19.508,6.781,22.578
		c9.988,3.352,26.246-3.07,29.059-16.223c2.68-13.426,0.527-38.359-8.09-56.332c0.27,0.156,14.246,29.59,22.164,33.535
		c-0.145,0.371,3.867-19.508-10.73-51.055c0.086-0.324,13.715,22.34,4.941,1.516c-0.355-0.34,11.414,3.07,14.051,14.031
		c2.844,11.129,6.684,14.906,6.684,14.906c-0.09-0.027,0.879-10.305,3.895-9.645c-0.234-0.133-0.379,24.988,9.891,36.605
		c0.375,0.012,4.504,8.984,9.605-28.715c-0.23,0.227-0.824-15.344-5.805-28.715c-4.926-13.059,0.879-13.152,0-30.656
		c0.324,0.348,0.527-3.758,4.98,1.5c-0.156,0.348-1.992-17.973,10.18-29.805c0.164,0.152-5.664,6.57-4.609,18.188
		c1.023,11.965-5.098,29.594-5.098,29.594c0.121,0.371-4.75,26.961,13.047,30.031c-0.176,0.34,10.777-1.098,15.293-40.555
		c0.281-0.355,2.258-22.137,2.637-26.523c-0.105-0.082-0.906,0.441-2.488,4.605c-1.367,4.313-3.516-4.164-1.367-10.961
		c1.5-6.477,8.074-12.855-5.16-10.664c-0.09-0.313,5.625-3.508,1.406-12.492c-4.496-8.82-24.277-33.086,3.336-48.207
		c-0.332-0.363,5.098-3.07-2.992,6.137c-7.84,9.25-3.488,17.973-3.488,17.973c0.148,0.277,3.316-6.137,8.238-7.016
		c0.16-0.207-19.203,10.727,6.734,30.016c0.176-0.223-1.035-10.52,9.469-8.988c-0.293-0.234-13.117,11.289-1.07,26.305
		c0.027-0.289,5.648,1.238,0.723,20.309c0.055-0.348-2.988,13.59,0.527,20.387l3.277-4.234c0,0,7.629,10.727,7.629,25.715
		c-0.129,14.785,0.879,23.453,9.148,14.246c-0.277-0.211,9.492-10.957,3.336-34.191c0.137,0.23-5.102-14.031-3.164-27.184
		c0.301-0.336-0.879-7.012-4.75-11.18c-0.199,0.344,12.133,8.332,10.023,28.938c0.277-0.094,4.574-5.043,5.645-1.754
		c-0.117,0.16-3.152,5.258,0,13.809c2.883,8.852-3.711,29.152-4.941,36.824c-1.176,8.027-2.637,28.934,7.949,38.141
		c-0.125-0.113,9.465-10.961,10.344-37.922c0.031,0.309,4.922,0.441,3.918,10.086c-0.137-0.027,5.227-5.043,7.688-16.223
		c2.676-10.805,12.676-13.59,12.676-13.59c-0.25-0.215-7.047,13.59,0,8.551c-0.25,0.234,3.504-2.414,7.211-10.305
		c0.039,0.039-17.777,31.566-12.324,52.391c0.363,0.148,0.703,7.012,21.844-33.977c0.27,0.375-13.402,26.961-7.246,57.43
		c0.016-0.055,5.406,16.219,22.113,15.672c16.902-0.727,12.973-22.742,12.973-22.742c0.18,0.266,8.57-1.371,10.109,1.098
		c1.32,2.168-6.152-9.863,3.766-26.031c-0.195-0.301-2.004,32.332,17.809,19.18c-0.004,0.02,8.543-6.574,14.508-29.316
		c-0.262,0.086-0.906,10.684,3.051,7.945c-0.313-0.359,1.316-0.82,1.316-9.316c-0.129-8.293,1.98-24.66,13.852-23.016
		c0.27-0.277,4.613,8.492-0.441,11.234c-0.039-0.262-3.516-10.141-7.254,2.465c-0.285,0.273-6.594,39.73,9.922,45.484
		c0.293-0.211,15.141,4.934,14.508-33.152c0.035-0.059,3.902,6.301,1.949,33.699c0.336-0.008-1.758,25.484,14.742,23.566
		c-0.156-0.324,8.563-0.824,6.598-12.605c-0.004,0.281,3.496,9.324,6.141,10.137c2.855,0.645-1.313-4.117-1.313-4.117
		c-0.332,0.262,7.027-2.73,9.246,7.406c0.172,0.355,0,3.973-0.898,5.313L40.926,531.386z"/>
	<path fill="#FD991F" d="M206.332,530.796c0,0-7.738-8.586-8.25-17.793c-0.75-9.207,8.777-25.195,8.777-25.195
		c0.223,0.238-2.109,28.703,13.563,22.785c0.16-0.047,11.266-5.688,0-19.727c0.16,0.18-3.715-3.934-7.758-3.934
		c-0.332,0.363,6.328-10.066,20.246,0c-0.328,0.363,9.828,8.754,10.715,10.289c0.207-0.176,3.332-35.949,23.414-40.754
		c0.043,0.078-8.477,13.137-7.242,17.52c1.285,4.309,10.727,0,11.43-10.082c0.355-10.359-1.055-16.004-1.055-16.004
		c-0.09-0.355,3.164,3.727,3.164,5.043c-0.254,1.352,6.684,5.043,8.293-38.551c-0.297,0.152,3.503,5.891,3.503,10.273
		c-0.051-0.371,2.828-24.551,0-36.371c-0.051,0,15.113,42.949-1.667,73.855c0.117-0.355,6.929-7.672,10.285-3.508
		c0.332,0.152-10.035,8.988-1.594,32.879c-0.324,0.273,3.164-21.043,5.273-23.234c1.902-1.992,2.113,9.207,10.664,3.398
		c0.238-0.141,2.703-4.273-7.145-15.234c-0.117,0.094,17.234,4.383,23.59,40.332c0.293,0.262,13.691-18.195,30.582-10.742
		c-0.289-0.246-16.188,7.453-8.625,22.141c0.086,0.113,8.09,8.988,13.367-5.699c0.219-0.188,1.609-7.234,1.609-13.371
		c0.109-0.316,10.699,15.344,6.305,29.371c-0.195,0.313-4.574,11.398-7.035,12.059L206.332,530.796z"/>
	<path fill="#FCD732" d="M214.684,530.523c0,0,1.457-4.488-4.699-11.34c-5.801-6.66-3.957-14.23-3.957-14.23
		c-0.344,0.07,2.859,8.75,10.113,8.75c7.543,0.32,9.563,3.426,9.563,3.426c0.23-0.105,1.648-7.809,3.848-10
		c2.383-2.105,0,12.328,7.707,12.879c-0.074,0.016,0.648-0.824-2.43-5.48c-2.895-5.004,2.43-9.863,2.43-9.863
		c-0.074,0.359,20.43,3.012,14.715-27.656c0.211,0.266,8.574,5.734,12.75,5.188c3.961-0.422,9.84,7.125,9.84,13.973
		c0.121-0.145,9.945-2.738,6.867-22.191c0.004,0.297,0.223-11.234,9.25-9.316c-0.246-0.137-8.148,10.957-1.773,27.672l3.777,4.441
		c0,0-0.262-11.84,11.172-14.305c11.328-2.195,12.309-7.125,12.309-7.125c-0.23-0.32-5.277,16.168-1.32,22.742
		c4.09,6.938,12.313,8.219,15.609,7.672c3.48-0.734,3.078,7.125,2.199,9.59c-0.969,2.426-1.539,9.863,3.078,2.742
		c4.953-7.066,1.098-14.523,4.617-3.563c0.336,0.246,1.316,5.477,3.09,0c0.246,0.246,3.504-5.207,11.211-0.824
		c0.285,0.32,5.043,2.469,6.141-4.109c0.145-0.07,2.859,6.027-5.496,12.879c-0.359-0.199-2.855,3.563-2.195,8.219L214.684,530.523z"
		/>
	<path fill="#FCFFA4" d="M243.715,530.519c0,0-0.211-7.219-3.508-7.219c-3.242-0.281,2.195-2.465,5.273,0.551
		c2.734,2.918-0.219-3.289-1.316-6.031c-1.199-3.051-0.441-8.766,4.176-8.766c4.375-0.285,9.234,0.82,6.816-22.742
		c-0.191-0.043,4.613,5.48,8.352,5.48c3.457-0.273,7.254,8.766,6.594,10.961c-0.887,2.266,8.355-0.824,9.672-11.508
		c1.441-10.977,4.18-21.098,7.917-24.387c4.023-3.09-3.078,1.918-3.078,16.715c0.352,14.695,5.496,21.918,12.309,18.629
		c0.043-0.184,1.102-9.316,6.816-11.234c5.977-1.699,9.012-3.559,9.012-4.656c-0.035-0.793-7.914,23.563,9.027,23.563
		c-0.063-0.355,3.941,5.48-0.453,13.152c-4.109,7.492,2.859-3.289,6.387-1.094c0.004,0.336-1.992,0.273-3.969,3.559
		c-2.027,3.527-1.32,5.207-1.32,5.207L243.715,530.519z"/>
	<path fill="#FCFFA4" d="M350.156,530.328c0,0-4.965-10.313,2.496-14.695c-0.246-0.305-7.258-4.934-9.016,9.039
		c-0.23-0.344-3.516,4.387-5.934-15.344c-0.297,0,1.539,15.617-1.539,17.262c-3.258,1.488-5.059-2.738-1.758-6.301
		c0,0.289-5.719-3.016-2.859,6.574c-0.141-0.285,0-5.754-6.141,4.109L350.156,530.328z"/>
	<path fill="#FCFFA4" d="M218.367,530.859c0,0,4.59-13.852-3.75-14.398c0,0.148,10.32-8.219,9,7.125
		c0-0.227,3.297,1.641,6.375-11.508c-0.375,0.031,1.758,5.203-0.879,11.781c-2.496,6.25,3.957,4.93,4.629-2.742
		c0.375-0.008,2.613,1.918,1.309,6.852c-0.184-0.109,7.254-2.742,5.055,3.836L218.367,530.859z"/>
	<path fill="#FD991F" d="M87.203,531.234c0,0-5.168-11.766-3.406-27.383c-0.344-0.367,7.473,11.508,15.168,5.754
		c7.738-6.121,9.453-20.824,7.691-41.371c0.047,0,5.277,13.699,8.793,16.164c3.254,2.586,18.688,14.523,18.246,33.977
		c0.008,0.109,6.184,0.273,6.184-15.617c-0.176-0.023,6.348,5.48,6.348,15.07c0.227-0.094,3.078-10.961,12.777-9.043
		c0.199-0.051-5.301,19.727-1.344,21.645L87.203,531.234z"/>
	<path fill="#FCD732" d="M100.656,531.363c0,0-2.234-5.184,2.051-6.965c3.949-2.035,0.66-13.152-1.977-15.07
		c-0.074,0.285,4.176-2.137,8.133,3.836c0.043,0.199-0.441-9.59,4.852-14.246c-0.309,0.195,3.281-3.016-2.652-14.762
		c0.094-0.043-2.859-6.063-2.418-9.043c0.262,0,5.273,13.117,11.211,14.762c0.301,0.238,9.688,7.398,9.688,19.73
		c0.363,0.008,0.426,19.18,7.047,9.863c0.066-0.105,0.41,5.754,3.27,0.82c2.797-4.676,2.418-9.59,2.418-9.59
		c-0.371-0.336,3.078,7.945,0,12.605c-0.371-0.191,3.848,0.684,5.496-4.109c1.633-5.082,9.672-7.125,9.672-7.125
		c0.211-0.207-8.793,8.219-8.352,11.234c0.313,2.809,0.66,6.848,0,6.848L100.656,531.363z"/>
	<path fill="#FCFFA4" d="M108.48,530.867c0,0,5.035-7.352-0.75-10.637c0,0.137,2.094-2.191,4.027-1.098
		c-0.277-0.266,1.23-5.262,3.52-7.672c2.203-2.344,2.637-9.844,2.637-9.844c0.316,0,1.934,8.09,1.406,13.133
		c-0.34,4.867,2.109,8.766,4.047,8.766c0.113-0.148,1.406-8.547,3.531-8.109c0.332-0.289,0.512,6.797-1.598,10.523
		c-0.32-0.313,2.637-3.727,7.035,0.438c0.145,0-3.691,1.539-3.691,4.605L108.48,530.867z"/>
	<path fill="#FD991F" d="M479.82,531.585c0,0,5.164-11.766,3.406-27.383c0.344-0.367-7.473,11.508-15.168,5.754
		c-7.738-6.121-9.453-20.824-7.695-41.371c-0.043,0-5.273,13.699-8.793,16.164c-3.25,2.586-18.684,14.523-18.246,33.977
		c-0.004,0.109-6.184,0.273-6.184-15.617c0.18-0.023-6.348,5.477-6.348,15.066c-0.223-0.09-3.074-10.957-12.777-9.039
		c-0.195-0.051,5.305,19.727,1.348,21.645L479.82,531.585z"/>
	<path fill="#FCD732" d="M466.367,531.73c0,0,2.234-5.184-2.055-6.965c-3.945-2.035-0.66-13.152,1.977-15.07
		c0.078,0.285-4.176-2.137-8.133,3.836c-0.039,0.199,0.441-9.59-4.848-14.246c0.309,0.195-3.285-3.016,2.648-14.762
		c-0.09-0.043,2.859-6.063,2.422-9.043c-0.262,0-5.277,13.117-11.215,14.762c-0.297,0.238-9.684,7.398-9.684,19.727
		c-0.363,0.012-0.426,19.18-7.051,9.867c-0.063-0.105-0.41,5.754-3.27,0.82c-2.793-4.676-2.418-9.59-2.418-9.59
		c0.375-0.336-3.078,7.945,0,12.605c0.375-0.191-3.848,0.684-5.496-4.113c-1.629-5.078-9.672-7.121-9.672-7.121
		c-0.207-0.207,8.793,8.219,8.355,11.234c-0.313,2.809-0.66,6.848,0,6.848L466.367,531.73z"/>
	<path fill="#FCFFA4" d="M458.542,531.234c0,0-5.039-7.352,0.75-10.637c0,0.137-2.094-2.195-4.027-1.098
		c0.277-0.266-1.23-5.262-3.52-7.672c-2.203-2.344-2.637-9.844-2.637-9.844c-0.316,0-1.934,8.09-1.406,13.133
		c0.34,4.867-2.109,8.766-4.047,8.766c-0.113-0.148-1.406-8.547-3.531-8.109c-0.332-0.289-0.512,6.797,1.598,10.52
		c0.32-0.309-2.637-3.723-7.039,0.441c-0.141,0,3.695,1.535,3.695,4.605L458.542,531.234z"/>
</g>
</svg>
