<?xml version="1.0" encoding="utf-8"?>
<!-- Generator: Adobe Illustrator 16.0.0, SVG Export Plug-In . SVG Version: 6.00 Build 0)  -->
<!DOCTYPE svg PUBLIC "-//W3C//DTD SVG 1.1//EN" "http://www.w3.org/Graphics/SVG/1.1/DTD/svg11.dtd">
<svg preserveAspectRatio="none"   version="1.1" id="图层_1" xmlns="http://www.w3.org/2000/svg" xmlns:xlink="http://www.w3.org/1999/xlink" x="0px" y="0px"
	 width="311.109px" height="566.847px" viewBox="127.91 -0.051 311.109 566.847"
	 enable-background="new 127.91 -0.051 311.109 566.847" xml:space="preserve">
<g id="surface189">
	
		<linearGradient id="SVGID_1_" gradientUnits="userSpaceOnUse" x1="28.5298" y1="402.2261" x2="28.5298" y2="138.5435" gradientTransform="matrix(0 -0.75 0.75 0 80.1776 567.7745)">
		<stop  offset="0" style="stop-color:#B76C68"/>
		<stop  offset="0.15" style="stop-color:#F09995"/>
		<stop  offset="0.25" style="stop-color:#F6CCCA"/>
		<stop  offset="0.44" style="stop-color:#D17C78"/>
		<stop  offset="0.6" style="stop-color:#BA6E6A"/>
		<stop  offset="0.8" style="stop-color:#9D5C59"/>
		<stop  offset="0.97" style="stop-color:#8F5451"/>
	</linearGradient>
	<path fill="url(#SVGID_1_)" d="M282.848,566.796c54.75,0,99-18.234,99-40.836c-3,0.336-197.046,1.055-197.761,0
		c-0.238,22.836,44.465,40.836,98.879,40.836H282.848z"/>
	
		<linearGradient id="SVGID_2_" gradientUnits="userSpaceOnUse" x1="692.1274" y1="402.2241" x2="692.1274" y2="137.2246" gradientTransform="matrix(0 0.75 0.75 0 80.5233 -235.6427)">
		<stop  offset="0" style="stop-color:#B76C68"/>
		<stop  offset="0.15" style="stop-color:#F09995"/>
		<stop  offset="0.25" style="stop-color:#F6CCCA"/>
		<stop  offset="0.44" style="stop-color:#D17C78"/>
		<stop  offset="0.6" style="stop-color:#BA6E6A"/>
		<stop  offset="0.8" style="stop-color:#9D5C59"/>
		<stop  offset="0.97" style="stop-color:#8F5451"/>
	</linearGradient>
	<path fill="url(#SVGID_2_)" d="M382.191,39.328v488.25h-198.75V39.328H382.191z"/>
	
		<linearGradient id="SVGID_3_" gradientUnits="userSpaceOnUse" x1="394.3296" y1="402.3228" x2="394.3296" y2="137.5977" gradientTransform="matrix(0 0.75 0.75 0 80.5302 -275.0187)">
		<stop  offset="0" style="stop-color:#B76C68"/>
		<stop  offset="0.15" style="stop-color:#F09995"/>
		<stop  offset="0.25" style="stop-color:#F6CCCA"/>
		<stop  offset="0.44" style="stop-color:#D17C78"/>
		<stop  offset="0.6" style="stop-color:#BA6E6A"/>
		<stop  offset="0.8" style="stop-color:#9D5C59"/>
		<stop  offset="0.97" style="stop-color:#8F5451"/>
	</linearGradient>
	<path fill="url(#SVGID_3_)" d="M283.199-0.051c54.75,0,98.667,18.324,98.667,41.031c10.832-0.531-198.832,1.418-198.136,0
		c-0.281-23.031,44.551-41.031,99.234-41.031H283.199z"/>
	
		<linearGradient id="SVGID_4_" gradientUnits="userSpaceOnUse" x1="375.6089" y1="402.2222" x2="375.6089" y2="112.2231" gradientTransform="matrix(0 0.75 0.75 0 90.0399 -225.2164)">
		<stop  offset="0" style="stop-color:#B23E4B"/>
		<stop  offset="0.15" style="stop-color:#E96A76"/>
		<stop  offset="0.25" style="stop-color:#F3BBBF"/>
		<stop  offset="0.44" style="stop-color:#CB4857"/>
		<stop  offset="0.6" style="stop-color:#B5404C"/>
		<stop  offset="0.8" style="stop-color:#98343F"/>
		<stop  offset="0.97" style="stop-color:#8B2F39"/>
		<stop  offset="1" style="stop-color:#B9414E"/>
	</linearGradient>
	<path fill="url(#SVGID_4_)" d="M391.707,50.504v12c0,0.75-0.91,0.707-2.074,0.707l-213.175,0.043c-1.5,0-2.234-0.297-2.234-0.605
		l-0.016-12.145c0-0.75,1.094-0.777,2.258-0.777l212.992,0.027c1.5,0,2.25,0.223,2.25,0.535V50.504z"/>
	
		<linearGradient id="SVGID_5_" gradientUnits="userSpaceOnUse" x1="373.6118" y1="402.2222" x2="373.6118" y2="112.2231" gradientTransform="matrix(0 0.75 0.75 0 90.0399 -223.6676)">
		<stop  offset="0" style="stop-color:#B76C68"/>
		<stop  offset="0.15" style="stop-color:#F09995"/>
		<stop  offset="0.25" style="stop-color:#F6CCCA"/>
		<stop  offset="0.44" style="stop-color:#D17C78"/>
		<stop  offset="0.6" style="stop-color:#BA6E6A"/>
		<stop  offset="0.8" style="stop-color:#9D5C59"/>
		<stop  offset="0.97" style="stop-color:#8F5451"/>
		<stop  offset="1" style="stop-color:#BE716D"/>
	</linearGradient>
	<path fill="url(#SVGID_5_)" d="M391.707,52.051v9c0,0.75-0.91,0.613-2.074,0.613l-213.175,0.137c-1.5,0-2.234-0.328-2.234-0.57
		l-0.016-9.18c0-0.75,1.094-0.77,2.258-0.77l212.992,0.02c1.5,0,2.25,0.172,2.25,0.414V52.051z"/>
	
		<linearGradient id="SVGID_6_" gradientUnits="userSpaceOnUse" x1="371.1284" y1="402.2261" x2="371.1284" y2="385.2261" gradientTransform="matrix(0 0.75 0.75 0 20.6893 -231.6505)">
		<stop  offset="0" style="stop-color:#B76C68"/>
		<stop  offset="0.15" style="stop-color:#F09995"/>
		<stop  offset="0.25" style="stop-color:#F6CCCA"/>
		<stop  offset="0.44" style="stop-color:#D17C78"/>
		<stop  offset="0.6" style="stop-color:#BA6E6A"/>
		<stop  offset="0.8" style="stop-color:#9D5C59"/>
		<stop  offset="0.97" style="stop-color:#8F5451"/>
		<stop  offset="1" style="stop-color:#BE716D"/>
	</linearGradient>
	<path fill="url(#SVGID_6_)" d="M322.359,44.07v5.25c0,0.75-0.508,0.715-1.133,0.715l-10.117,0.035c-0.75,0-1.477-0.266-1.477-0.547
		l-0.023-5.453c0-0.75,0.531-0.75,1.156-0.75h10.094c0.75,0,1.5,0.227,1.5,0.512V44.07z"/>
	
		<linearGradient id="SVGID_7_" gradientUnits="userSpaceOnUse" x1="371.1284" y1="402.2261" x2="371.1284" y2="385.2261" gradientTransform="matrix(0 0.75 0.75 0 -12.3414 -231.6505)">
		<stop  offset="0" style="stop-color:#B76C68"/>
		<stop  offset="0.15" style="stop-color:#F09995"/>
		<stop  offset="0.25" style="stop-color:#F6CCCA"/>
		<stop  offset="0.44" style="stop-color:#D17C78"/>
		<stop  offset="0.6" style="stop-color:#BA6E6A"/>
		<stop  offset="0.8" style="stop-color:#9D5C59"/>
		<stop  offset="0.97" style="stop-color:#8F5451"/>
		<stop  offset="1" style="stop-color:#BE716D"/>
	</linearGradient>
	<path fill="url(#SVGID_7_)" d="M289.328,44.07v5.25c0,0.75-0.508,0.715-1.133,0.715l-10.117,0.035c-0.75,0-1.473-0.266-1.473-0.547
		l-0.027-5.453c0-0.75,0.531-0.75,1.156-0.75h10.093c0.75,0,1.5,0.227,1.5,0.512V44.07z"/>
	
		<linearGradient id="SVGID_8_" gradientUnits="userSpaceOnUse" x1="371.1284" y1="402.2241" x2="371.1284" y2="385.2241" gradientTransform="matrix(0 0.75 0.75 0 -45.1954 -231.6505)">
		<stop  offset="0" style="stop-color:#B76C68"/>
		<stop  offset="0.15" style="stop-color:#F09995"/>
		<stop  offset="0.25" style="stop-color:#F6CCCA"/>
		<stop  offset="0.44" style="stop-color:#D17C78"/>
		<stop  offset="0.6" style="stop-color:#BA6E6A"/>
		<stop  offset="0.8" style="stop-color:#9D5C59"/>
		<stop  offset="0.97" style="stop-color:#8F5451"/>
		<stop  offset="1" style="stop-color:#BE716D"/>
	</linearGradient>
	<path fill="url(#SVGID_8_)" d="M256.473,44.07v5.25c0,0.75-0.504,0.715-1.129,0.715l-10.121,0.035c-0.75,0-1.473-0.266-1.473-0.547
		l-0.027-5.453c0-0.75,0.535-0.75,1.156-0.75h10.094c0.75,0,1.5,0.227,1.5,0.512V44.07z"/>
	
		<linearGradient id="SVGID_9_" gradientUnits="userSpaceOnUse" x1="371.1284" y1="402.2261" x2="371.1284" y2="385.2261" gradientTransform="matrix(0 0.75 0.75 0 -78.1378 -231.6505)">
		<stop  offset="0" style="stop-color:#B76C68"/>
		<stop  offset="0.15" style="stop-color:#F09995"/>
		<stop  offset="0.25" style="stop-color:#F6CCCA"/>
		<stop  offset="0.44" style="stop-color:#D17C78"/>
		<stop  offset="0.6" style="stop-color:#BA6E6A"/>
		<stop  offset="0.8" style="stop-color:#9D5C59"/>
		<stop  offset="0.97" style="stop-color:#8F5451"/>
		<stop  offset="1" style="stop-color:#BE716D"/>
	</linearGradient>
	<path fill="url(#SVGID_9_)" d="M223.531,44.07v5.25c0,0.75-0.508,0.715-1.129,0.715l-10.121,0.035c-0.75,0-1.473-0.266-1.473-0.547
		l-0.027-5.453c0-0.75,0.531-0.75,1.156-0.75h10.094c0.75,0,1.5,0.227,1.5,0.512V44.07z"/>
	
		<linearGradient id="SVGID_10_" gradientUnits="userSpaceOnUse" x1="371.1284" y1="402.2261" x2="371.1284" y2="385.2261" gradientTransform="matrix(0 0.75 0.75 0 -111.0797 -231.6505)">
		<stop  offset="0" style="stop-color:#B76C68"/>
		<stop  offset="0.15" style="stop-color:#F09995"/>
		<stop  offset="0.25" style="stop-color:#F6CCCA"/>
		<stop  offset="0.44" style="stop-color:#D17C78"/>
		<stop  offset="0.6" style="stop-color:#BA6E6A"/>
		<stop  offset="0.8" style="stop-color:#9D5C59"/>
		<stop  offset="0.97" style="stop-color:#8F5451"/>
		<stop  offset="1" style="stop-color:#BE716D"/>
	</linearGradient>
	<path fill="url(#SVGID_10_)" d="M190.59,44.07v5.25c0,0.75-0.508,0.715-1.133,0.715L179.34,50.07c-0.75,0-1.473-0.266-1.473-0.547
		l-0.027-5.453c0-0.75,0.531-0.75,1.156-0.75h10.094c0.75,0,1.5,0.227,1.5,0.512V44.07z"/>
	
		<linearGradient id="SVGID_11_" gradientUnits="userSpaceOnUse" x1="371.1284" y1="402.2261" x2="371.1284" y2="385.2261" gradientTransform="matrix(0 0.75 0.75 0 53.6307 -231.6505)">
		<stop  offset="0" style="stop-color:#B76C68"/>
		<stop  offset="0.15" style="stop-color:#F09995"/>
		<stop  offset="0.25" style="stop-color:#F6CCCA"/>
		<stop  offset="0.44" style="stop-color:#D17C78"/>
		<stop  offset="0.6" style="stop-color:#BA6E6A"/>
		<stop  offset="0.8" style="stop-color:#9D5C59"/>
		<stop  offset="0.97" style="stop-color:#8F5451"/>
		<stop  offset="1" style="stop-color:#BE716D"/>
	</linearGradient>
	<path fill="url(#SVGID_11_)" d="M355.3,44.07v5.25c0,0.75-0.508,0.715-1.133,0.715L344.05,50.07c-0.75,0-1.473-0.266-1.473-0.547
		l-0.027-5.453c0-0.75,0.531-0.75,1.156-0.75H353.8c0.75,0,1.5,0.227,1.5,0.512V44.07z"/>
	
		<linearGradient id="SVGID_12_" gradientUnits="userSpaceOnUse" x1="371.1284" y1="402.2241" x2="371.1284" y2="385.2241" gradientTransform="matrix(0 0.75 0.75 0 86.5731 -231.6505)">
		<stop  offset="0" style="stop-color:#B76C68"/>
		<stop  offset="0.15" style="stop-color:#F09995"/>
		<stop  offset="0.25" style="stop-color:#F6CCCA"/>
		<stop  offset="0.44" style="stop-color:#D17C78"/>
		<stop  offset="0.6" style="stop-color:#BA6E6A"/>
		<stop  offset="0.8" style="stop-color:#9D5C59"/>
		<stop  offset="0.97" style="stop-color:#8F5451"/>
		<stop  offset="1" style="stop-color:#BE716D"/>
	</linearGradient>
	<path fill="url(#SVGID_12_)" d="M388.242,44.07v5.25c0,0.75-0.508,0.715-1.133,0.715l-10.117,0.035
		c-0.75,0-1.473-0.266-1.473-0.547l-0.027-5.453c0-0.75,0.531-0.75,1.156-0.75h10.094c0.75,0,1.5,0.227,1.5,0.512V44.07z"/>
	
		<linearGradient id="SVGID_13_" gradientUnits="userSpaceOnUse" x1="371.1274" y1="402.2261" x2="371.1274" y2="385.2261" gradientTransform="matrix(0 0.75 0.75 0 20.6893 -211.7477)">
		<stop  offset="0" style="stop-color:#B76C68"/>
		<stop  offset="0.15" style="stop-color:#F09995"/>
		<stop  offset="0.25" style="stop-color:#F6CCCA"/>
		<stop  offset="0.44" style="stop-color:#D17C78"/>
		<stop  offset="0.6" style="stop-color:#BA6E6A"/>
		<stop  offset="0.8" style="stop-color:#9D5C59"/>
		<stop  offset="0.97" style="stop-color:#8F5451"/>
		<stop  offset="1" style="stop-color:#BE716D"/>
	</linearGradient>
	<path fill="url(#SVGID_13_)" d="M322.359,63.973v5.25c0,0.75-0.508,0.715-1.133,0.715l-10.117,0.035
		c-0.75,0-1.477-0.266-1.477-0.547l-0.023-5.453c0-0.75,0.531-0.75,1.156-0.75h10.094c0.75,0,1.5,0.227,1.5,0.512V63.973z"/>
	
		<linearGradient id="SVGID_14_" gradientUnits="userSpaceOnUse" x1="371.1274" y1="402.2261" x2="371.1274" y2="385.2261" gradientTransform="matrix(0 0.75 0.75 0 -12.3414 -211.7477)">
		<stop  offset="0" style="stop-color:#B76C68"/>
		<stop  offset="0.15" style="stop-color:#F09995"/>
		<stop  offset="0.25" style="stop-color:#F6CCCA"/>
		<stop  offset="0.44" style="stop-color:#D17C78"/>
		<stop  offset="0.6" style="stop-color:#BA6E6A"/>
		<stop  offset="0.8" style="stop-color:#9D5C59"/>
		<stop  offset="0.97" style="stop-color:#8F5451"/>
		<stop  offset="1" style="stop-color:#BE716D"/>
	</linearGradient>
	<path fill="url(#SVGID_14_)" d="M289.328,63.973v5.25c0,0.75-0.508,0.715-1.133,0.715l-10.117,0.035
		c-0.75,0-1.473-0.266-1.473-0.547l-0.027-5.453c0-0.75,0.531-0.75,1.156-0.75h10.093c0.75,0,1.5,0.227,1.5,0.512V63.973z"/>
	
		<linearGradient id="SVGID_15_" gradientUnits="userSpaceOnUse" x1="371.1274" y1="402.2241" x2="371.1274" y2="385.2241" gradientTransform="matrix(0 0.75 0.75 0 -45.1954 -211.7477)">
		<stop  offset="0" style="stop-color:#B76C68"/>
		<stop  offset="0.15" style="stop-color:#F09995"/>
		<stop  offset="0.25" style="stop-color:#F6CCCA"/>
		<stop  offset="0.44" style="stop-color:#D17C78"/>
		<stop  offset="0.6" style="stop-color:#BA6E6A"/>
		<stop  offset="0.8" style="stop-color:#9D5C59"/>
		<stop  offset="0.97" style="stop-color:#8F5451"/>
		<stop  offset="1" style="stop-color:#BE716D"/>
	</linearGradient>
	<path fill="url(#SVGID_15_)" d="M256.473,63.973v5.25c0,0.75-0.504,0.715-1.129,0.715l-10.121,0.035
		c-0.75,0-1.473-0.266-1.473-0.547l-0.027-5.453c0-0.75,0.535-0.75,1.156-0.75h10.094c0.75,0,1.5,0.227,1.5,0.512V63.973z"/>
	
		<linearGradient id="SVGID_16_" gradientUnits="userSpaceOnUse" x1="371.1274" y1="402.2261" x2="371.1274" y2="385.2261" gradientTransform="matrix(0 0.75 0.75 0 -78.1378 -211.7477)">
		<stop  offset="0" style="stop-color:#B76C68"/>
		<stop  offset="0.15" style="stop-color:#F09995"/>
		<stop  offset="0.25" style="stop-color:#F6CCCA"/>
		<stop  offset="0.44" style="stop-color:#D17C78"/>
		<stop  offset="0.6" style="stop-color:#BA6E6A"/>
		<stop  offset="0.8" style="stop-color:#9D5C59"/>
		<stop  offset="0.97" style="stop-color:#8F5451"/>
		<stop  offset="1" style="stop-color:#BE716D"/>
	</linearGradient>
	<path fill="url(#SVGID_16_)" d="M223.531,63.973v5.25c0,0.75-0.508,0.715-1.129,0.715l-10.121,0.035
		c-0.75,0-1.473-0.266-1.473-0.547l-0.027-5.453c0-0.75,0.531-0.75,1.156-0.75h10.094c0.75,0,1.5,0.227,1.5,0.512V63.973z"/>
	
		<linearGradient id="SVGID_17_" gradientUnits="userSpaceOnUse" x1="371.1274" y1="402.2261" x2="371.1274" y2="385.2261" gradientTransform="matrix(0 0.75 0.75 0 -111.0797 -211.7477)">
		<stop  offset="0" style="stop-color:#B76C68"/>
		<stop  offset="0.15" style="stop-color:#F09995"/>
		<stop  offset="0.25" style="stop-color:#F6CCCA"/>
		<stop  offset="0.44" style="stop-color:#D17C78"/>
		<stop  offset="0.6" style="stop-color:#BA6E6A"/>
		<stop  offset="0.8" style="stop-color:#9D5C59"/>
		<stop  offset="0.97" style="stop-color:#8F5451"/>
		<stop  offset="1" style="stop-color:#BE716D"/>
	</linearGradient>
	<path fill="url(#SVGID_17_)" d="M190.59,63.973v5.25c0,0.75-0.508,0.715-1.133,0.715l-10.117,0.035
		c-0.75,0-1.473-0.266-1.473-0.547l-0.027-5.453c0-0.75,0.531-0.75,1.156-0.75h10.094c0.75,0,1.5,0.227,1.5,0.512V63.973z"/>
	
		<linearGradient id="SVGID_18_" gradientUnits="userSpaceOnUse" x1="371.1274" y1="402.2261" x2="371.1274" y2="385.2261" gradientTransform="matrix(0 0.75 0.75 0 53.6307 -211.7477)">
		<stop  offset="0" style="stop-color:#B76C68"/>
		<stop  offset="0.15" style="stop-color:#F09995"/>
		<stop  offset="0.25" style="stop-color:#F6CCCA"/>
		<stop  offset="0.44" style="stop-color:#D17C78"/>
		<stop  offset="0.6" style="stop-color:#BA6E6A"/>
		<stop  offset="0.8" style="stop-color:#9D5C59"/>
		<stop  offset="0.97" style="stop-color:#8F5451"/>
		<stop  offset="1" style="stop-color:#BE716D"/>
	</linearGradient>
	<path fill="url(#SVGID_18_)" d="M355.3,63.973v5.25c0,0.75-0.508,0.715-1.133,0.715l-10.117,0.035c-0.75,0-1.473-0.266-1.473-0.547
		l-0.027-5.453c0-0.75,0.531-0.75,1.156-0.75H353.8c0.75,0,1.5,0.227,1.5,0.512V63.973z"/>
	
		<linearGradient id="SVGID_19_" gradientUnits="userSpaceOnUse" x1="371.1274" y1="402.2241" x2="371.1274" y2="385.2241" gradientTransform="matrix(0 0.75 0.75 0 86.5731 -211.7477)">
		<stop  offset="0" style="stop-color:#B76C68"/>
		<stop  offset="0.15" style="stop-color:#F09995"/>
		<stop  offset="0.25" style="stop-color:#F6CCCA"/>
		<stop  offset="0.44" style="stop-color:#D17C78"/>
		<stop  offset="0.6" style="stop-color:#BA6E6A"/>
		<stop  offset="0.8" style="stop-color:#9D5C59"/>
		<stop  offset="0.97" style="stop-color:#8F5451"/>
		<stop  offset="1" style="stop-color:#BE716D"/>
	</linearGradient>
	<path fill="url(#SVGID_19_)" d="M388.242,63.973v5.25c0,0.75-0.508,0.715-1.133,0.715l-10.117,0.035
		c-0.75,0-1.473-0.266-1.473-0.547l-0.027-5.453c0-0.75,0.531-0.75,1.156-0.75h10.094c0.75,0,1.5,0.227,1.5,0.512V63.973z"/>
	
		<linearGradient id="SVGID_20_" gradientUnits="userSpaceOnUse" x1="375.605" y1="402.2222" x2="375.605" y2="112.2231" gradientTransform="matrix(0 0.75 0.75 0 90.0399 228.1337)">
		<stop  offset="0" style="stop-color:#B23E4B"/>
		<stop  offset="0.15" style="stop-color:#E96A76"/>
		<stop  offset="0.25" style="stop-color:#F3BBBF"/>
		<stop  offset="0.44" style="stop-color:#CB4857"/>
		<stop  offset="0.6" style="stop-color:#B5404C"/>
		<stop  offset="0.8" style="stop-color:#98343F"/>
		<stop  offset="0.97" style="stop-color:#8B2F39"/>
		<stop  offset="1" style="stop-color:#B9414E"/>
	</linearGradient>
	<path fill="url(#SVGID_20_)" d="M391.707,503.851v12c0,0.75-0.91,0.707-2.074,0.707l-213.175,0.043c-1.5,0-2.234-0.293-2.234-0.605
		l-0.016-12.145c0-0.75,1.094-0.777,2.258-0.777l212.992,0.027c1.5,0,2.25,0.227,2.25,0.535V503.851z"/>
	
		<linearGradient id="SVGID_21_" gradientUnits="userSpaceOnUse" x1="373.6108" y1="402.2222" x2="373.6108" y2="112.2231" gradientTransform="matrix(0 0.75 0.75 0 90.0399 229.6825)">
		<stop  offset="0" style="stop-color:#B76C68"/>
		<stop  offset="0.15" style="stop-color:#F09995"/>
		<stop  offset="0.25" style="stop-color:#F6CCCA"/>
		<stop  offset="0.44" style="stop-color:#D17C78"/>
		<stop  offset="0.6" style="stop-color:#BA6E6A"/>
		<stop  offset="0.8" style="stop-color:#9D5C59"/>
		<stop  offset="0.97" style="stop-color:#8F5451"/>
		<stop  offset="1" style="stop-color:#BE716D"/>
	</linearGradient>
	<path fill="url(#SVGID_21_)" d="M391.707,505.402v9c0,0.75-0.91,0.613-2.074,0.613l-213.175,0.137c-1.5,0-2.234-0.332-2.234-0.57
		l-0.016-9.18c0-0.75,1.094-0.773,2.258-0.773l212.992,0.023c1.5,0,2.25,0.172,2.25,0.41V505.402z"/>
	
		<linearGradient id="SVGID_22_" gradientUnits="userSpaceOnUse" x1="371.1245" y1="402.2261" x2="371.1245" y2="385.2261" gradientTransform="matrix(0 0.75 0.75 0 20.6893 221.6991)">
		<stop  offset="0" style="stop-color:#B76C68"/>
		<stop  offset="0.15" style="stop-color:#F09995"/>
		<stop  offset="0.25" style="stop-color:#F6CCCA"/>
		<stop  offset="0.44" style="stop-color:#D17C78"/>
		<stop  offset="0.6" style="stop-color:#BA6E6A"/>
		<stop  offset="0.8" style="stop-color:#9D5C59"/>
		<stop  offset="0.97" style="stop-color:#8F5451"/>
		<stop  offset="1" style="stop-color:#BE716D"/>
	</linearGradient>
	<path fill="url(#SVGID_22_)" d="M322.359,497.417v5.25c0,0.75-0.508,0.715-1.133,0.715l-10.117,0.035
		c-0.75,0-1.477-0.262-1.477-0.547l-0.023-5.453c0-0.75,0.531-0.75,1.156-0.75h10.094c0.75,0,1.5,0.23,1.5,0.512V497.417z"/>
	
		<linearGradient id="SVGID_23_" gradientUnits="userSpaceOnUse" x1="371.1245" y1="402.2261" x2="371.1245" y2="385.2261" gradientTransform="matrix(0 0.75 0.75 0 -12.3414 221.6991)">
		<stop  offset="0" style="stop-color:#B76C68"/>
		<stop  offset="0.15" style="stop-color:#F09995"/>
		<stop  offset="0.25" style="stop-color:#F6CCCA"/>
		<stop  offset="0.44" style="stop-color:#D17C78"/>
		<stop  offset="0.6" style="stop-color:#BA6E6A"/>
		<stop  offset="0.8" style="stop-color:#9D5C59"/>
		<stop  offset="0.97" style="stop-color:#8F5451"/>
		<stop  offset="1" style="stop-color:#BE716D"/>
	</linearGradient>
	<path fill="url(#SVGID_23_)" d="M289.328,497.417v5.25c0,0.75-0.508,0.715-1.133,0.715l-10.117,0.035
		c-0.75,0-1.473-0.262-1.473-0.547l-0.027-5.453c0-0.75,0.531-0.75,1.156-0.75h10.093c0.75,0,1.5,0.23,1.5,0.512V497.417z"/>
	
		<linearGradient id="SVGID_24_" gradientUnits="userSpaceOnUse" x1="371.1245" y1="402.2241" x2="371.1245" y2="385.2241" gradientTransform="matrix(0 0.75 0.75 0 -45.1954 221.6991)">
		<stop  offset="0" style="stop-color:#B76C68"/>
		<stop  offset="0.15" style="stop-color:#F09995"/>
		<stop  offset="0.25" style="stop-color:#F6CCCA"/>
		<stop  offset="0.44" style="stop-color:#D17C78"/>
		<stop  offset="0.6" style="stop-color:#BA6E6A"/>
		<stop  offset="0.8" style="stop-color:#9D5C59"/>
		<stop  offset="0.97" style="stop-color:#8F5451"/>
		<stop  offset="1" style="stop-color:#BE716D"/>
	</linearGradient>
	<path fill="url(#SVGID_24_)" d="M256.473,497.417v5.25c0,0.75-0.504,0.715-1.129,0.715l-10.121,0.035
		c-0.75,0-1.473-0.262-1.473-0.547l-0.027-5.453c0-0.75,0.535-0.75,1.156-0.75h10.094c0.75,0,1.5,0.23,1.5,0.512V497.417z"/>
	
		<linearGradient id="SVGID_25_" gradientUnits="userSpaceOnUse" x1="371.1245" y1="402.2261" x2="371.1245" y2="385.2261" gradientTransform="matrix(0 0.75 0.75 0 -78.1378 221.6991)">
		<stop  offset="0" style="stop-color:#B76C68"/>
		<stop  offset="0.15" style="stop-color:#F09995"/>
		<stop  offset="0.25" style="stop-color:#F6CCCA"/>
		<stop  offset="0.44" style="stop-color:#D17C78"/>
		<stop  offset="0.6" style="stop-color:#BA6E6A"/>
		<stop  offset="0.8" style="stop-color:#9D5C59"/>
		<stop  offset="0.97" style="stop-color:#8F5451"/>
		<stop  offset="1" style="stop-color:#BE716D"/>
	</linearGradient>
	<path fill="url(#SVGID_25_)" d="M223.531,497.417v5.25c0,0.75-0.508,0.715-1.129,0.715l-10.121,0.035
		c-0.75,0-1.473-0.262-1.473-0.547l-0.027-5.453c0-0.75,0.531-0.75,1.156-0.75h10.094c0.75,0,1.5,0.23,1.5,0.512V497.417z"/>
	
		<linearGradient id="SVGID_26_" gradientUnits="userSpaceOnUse" x1="371.1245" y1="402.2261" x2="371.1245" y2="385.2261" gradientTransform="matrix(0 0.75 0.75 0 -111.0797 221.6991)">
		<stop  offset="0" style="stop-color:#B76C68"/>
		<stop  offset="0.15" style="stop-color:#F09995"/>
		<stop  offset="0.25" style="stop-color:#F6CCCA"/>
		<stop  offset="0.44" style="stop-color:#D17C78"/>
		<stop  offset="0.6" style="stop-color:#BA6E6A"/>
		<stop  offset="0.8" style="stop-color:#9D5C59"/>
		<stop  offset="0.97" style="stop-color:#8F5451"/>
		<stop  offset="1" style="stop-color:#BE716D"/>
	</linearGradient>
	<path fill="url(#SVGID_26_)" d="M190.59,497.417v5.25c0,0.75-0.508,0.715-1.133,0.715l-10.117,0.035
		c-0.75,0-1.473-0.262-1.473-0.547l-0.027-5.453c0-0.75,0.531-0.75,1.156-0.75h10.094c0.75,0,1.5,0.23,1.5,0.512V497.417z"/>
	
		<linearGradient id="SVGID_27_" gradientUnits="userSpaceOnUse" x1="371.1245" y1="402.2261" x2="371.1245" y2="385.2261" gradientTransform="matrix(0 0.75 0.75 0 53.6307 221.6991)">
		<stop  offset="0" style="stop-color:#B76C68"/>
		<stop  offset="0.15" style="stop-color:#F09995"/>
		<stop  offset="0.25" style="stop-color:#F6CCCA"/>
		<stop  offset="0.44" style="stop-color:#D17C78"/>
		<stop  offset="0.6" style="stop-color:#BA6E6A"/>
		<stop  offset="0.8" style="stop-color:#9D5C59"/>
		<stop  offset="0.97" style="stop-color:#8F5451"/>
		<stop  offset="1" style="stop-color:#BE716D"/>
	</linearGradient>
	<path fill="url(#SVGID_27_)" d="M355.3,497.417v5.25c0,0.75-0.508,0.715-1.133,0.715l-10.117,0.035
		c-0.75,0-1.473-0.262-1.473-0.547l-0.027-5.453c0-0.75,0.531-0.75,1.156-0.75H353.8c0.75,0,1.5,0.23,1.5,0.512V497.417z"/>
	
		<linearGradient id="SVGID_28_" gradientUnits="userSpaceOnUse" x1="371.1245" y1="402.2241" x2="371.1245" y2="385.2241" gradientTransform="matrix(0 0.75 0.75 0 86.5731 221.6991)">
		<stop  offset="0" style="stop-color:#B76C68"/>
		<stop  offset="0.15" style="stop-color:#F09995"/>
		<stop  offset="0.25" style="stop-color:#F6CCCA"/>
		<stop  offset="0.44" style="stop-color:#D17C78"/>
		<stop  offset="0.6" style="stop-color:#BA6E6A"/>
		<stop  offset="0.8" style="stop-color:#9D5C59"/>
		<stop  offset="0.97" style="stop-color:#8F5451"/>
		<stop  offset="1" style="stop-color:#BE716D"/>
	</linearGradient>
	<path fill="url(#SVGID_28_)" d="M388.242,497.417v5.25c0,0.75-0.508,0.715-1.133,0.715l-10.117,0.035
		c-0.75,0-1.473-0.262-1.473-0.547l-0.027-5.453c0-0.75,0.531-0.75,1.156-0.75h10.094c0.75,0,1.5,0.23,1.5,0.512V497.417z"/>
	
		<linearGradient id="SVGID_29_" gradientUnits="userSpaceOnUse" x1="371.1235" y1="402.2261" x2="371.1235" y2="385.2261" gradientTransform="matrix(0 0.75 0.75 0 20.6893 241.6024)">
		<stop  offset="0" style="stop-color:#B76C68"/>
		<stop  offset="0.15" style="stop-color:#F09995"/>
		<stop  offset="0.25" style="stop-color:#F6CCCA"/>
		<stop  offset="0.44" style="stop-color:#D17C78"/>
		<stop  offset="0.6" style="stop-color:#BA6E6A"/>
		<stop  offset="0.8" style="stop-color:#9D5C59"/>
		<stop  offset="0.97" style="stop-color:#8F5451"/>
		<stop  offset="1" style="stop-color:#BE716D"/>
	</linearGradient>
	<path fill="url(#SVGID_29_)" d="M322.359,517.32v5.25c0,0.75-0.508,0.715-1.133,0.715l-10.117,0.035
		c-0.75,0-1.477-0.262-1.477-0.547l-0.023-5.453c0-0.75,0.531-0.75,1.156-0.75h10.094c0.75,0,1.5,0.23,1.5,0.512V517.32z"/>
	
		<linearGradient id="SVGID_30_" gradientUnits="userSpaceOnUse" x1="371.1235" y1="402.2261" x2="371.1235" y2="385.2261" gradientTransform="matrix(0 0.75 0.75 0 -12.3414 241.6024)">
		<stop  offset="0" style="stop-color:#B76C68"/>
		<stop  offset="0.15" style="stop-color:#F09995"/>
		<stop  offset="0.25" style="stop-color:#F6CCCA"/>
		<stop  offset="0.44" style="stop-color:#D17C78"/>
		<stop  offset="0.6" style="stop-color:#BA6E6A"/>
		<stop  offset="0.8" style="stop-color:#9D5C59"/>
		<stop  offset="0.97" style="stop-color:#8F5451"/>
		<stop  offset="1" style="stop-color:#BE716D"/>
	</linearGradient>
	<path fill="url(#SVGID_30_)" d="M289.328,517.32v5.25c0,0.75-0.508,0.715-1.133,0.715l-10.117,0.035
		c-0.75,0-1.473-0.262-1.473-0.547l-0.027-5.453c0-0.75,0.531-0.75,1.156-0.75h10.093c0.75,0,1.5,0.23,1.5,0.512V517.32z"/>
	
		<linearGradient id="SVGID_31_" gradientUnits="userSpaceOnUse" x1="371.1235" y1="402.2241" x2="371.1235" y2="385.2241" gradientTransform="matrix(0 0.75 0.75 0 -45.1954 241.6024)">
		<stop  offset="0" style="stop-color:#B76C68"/>
		<stop  offset="0.15" style="stop-color:#F09995"/>
		<stop  offset="0.25" style="stop-color:#F6CCCA"/>
		<stop  offset="0.44" style="stop-color:#D17C78"/>
		<stop  offset="0.6" style="stop-color:#BA6E6A"/>
		<stop  offset="0.8" style="stop-color:#9D5C59"/>
		<stop  offset="0.97" style="stop-color:#8F5451"/>
		<stop  offset="1" style="stop-color:#BE716D"/>
	</linearGradient>
	<path fill="url(#SVGID_31_)" d="M256.473,517.32v5.25c0,0.75-0.504,0.715-1.129,0.715l-10.121,0.035
		c-0.75,0-1.473-0.262-1.473-0.547l-0.027-5.453c0-0.75,0.535-0.75,1.156-0.75h10.094c0.75,0,1.5,0.23,1.5,0.512V517.32z"/>
	
		<linearGradient id="SVGID_32_" gradientUnits="userSpaceOnUse" x1="371.1235" y1="402.2261" x2="371.1235" y2="385.2261" gradientTransform="matrix(0 0.75 0.75 0 -78.1378 241.6024)">
		<stop  offset="0" style="stop-color:#B76C68"/>
		<stop  offset="0.15" style="stop-color:#F09995"/>
		<stop  offset="0.25" style="stop-color:#F6CCCA"/>
		<stop  offset="0.44" style="stop-color:#D17C78"/>
		<stop  offset="0.6" style="stop-color:#BA6E6A"/>
		<stop  offset="0.8" style="stop-color:#9D5C59"/>
		<stop  offset="0.97" style="stop-color:#8F5451"/>
		<stop  offset="1" style="stop-color:#BE716D"/>
	</linearGradient>
	<path fill="url(#SVGID_32_)" d="M223.531,517.32v5.25c0,0.75-0.508,0.715-1.129,0.715l-10.121,0.035
		c-0.75,0-1.473-0.262-1.473-0.547l-0.027-5.453c0-0.75,0.531-0.75,1.156-0.75h10.094c0.75,0,1.5,0.23,1.5,0.512V517.32z"/>
	
		<linearGradient id="SVGID_33_" gradientUnits="userSpaceOnUse" x1="371.1235" y1="402.2261" x2="371.1235" y2="385.2261" gradientTransform="matrix(0 0.75 0.75 0 -111.0797 241.6024)">
		<stop  offset="0" style="stop-color:#B76C68"/>
		<stop  offset="0.15" style="stop-color:#F09995"/>
		<stop  offset="0.25" style="stop-color:#F6CCCA"/>
		<stop  offset="0.44" style="stop-color:#D17C78"/>
		<stop  offset="0.6" style="stop-color:#BA6E6A"/>
		<stop  offset="0.8" style="stop-color:#9D5C59"/>
		<stop  offset="0.97" style="stop-color:#8F5451"/>
		<stop  offset="1" style="stop-color:#BE716D"/>
	</linearGradient>
	<path fill="url(#SVGID_33_)" d="M190.59,517.32v5.25c0,0.75-0.508,0.715-1.133,0.715l-10.117,0.035
		c-0.75,0-1.473-0.262-1.473-0.547l-0.027-5.453c0-0.75,0.531-0.75,1.156-0.75h10.094c0.75,0,1.5,0.23,1.5,0.512V517.32z"/>
	
		<linearGradient id="SVGID_34_" gradientUnits="userSpaceOnUse" x1="371.1235" y1="402.2261" x2="371.1235" y2="385.2261" gradientTransform="matrix(0 0.75 0.75 0 53.6307 241.6024)">
		<stop  offset="0" style="stop-color:#B76C68"/>
		<stop  offset="0.15" style="stop-color:#F09995"/>
		<stop  offset="0.25" style="stop-color:#F6CCCA"/>
		<stop  offset="0.44" style="stop-color:#D17C78"/>
		<stop  offset="0.6" style="stop-color:#BA6E6A"/>
		<stop  offset="0.8" style="stop-color:#9D5C59"/>
		<stop  offset="0.97" style="stop-color:#8F5451"/>
		<stop  offset="1" style="stop-color:#BE716D"/>
	</linearGradient>
	<path fill="url(#SVGID_34_)" d="M355.3,517.32v5.25c0,0.75-0.508,0.715-1.133,0.715l-10.117,0.035c-0.75,0-1.473-0.262-1.473-0.547
		l-0.027-5.453c0-0.75,0.531-0.75,1.156-0.75H353.8c0.75,0,1.5,0.23,1.5,0.512V517.32z"/>
	
		<linearGradient id="SVGID_35_" gradientUnits="userSpaceOnUse" x1="371.1235" y1="402.2241" x2="371.1235" y2="385.2241" gradientTransform="matrix(0 0.75 0.75 0 86.5731 241.6024)">
		<stop  offset="0" style="stop-color:#B76C68"/>
		<stop  offset="0.15" style="stop-color:#F09995"/>
		<stop  offset="0.25" style="stop-color:#F6CCCA"/>
		<stop  offset="0.44" style="stop-color:#D17C78"/>
		<stop  offset="0.6" style="stop-color:#BA6E6A"/>
		<stop  offset="0.8" style="stop-color:#9D5C59"/>
		<stop  offset="0.97" style="stop-color:#8F5451"/>
		<stop  offset="1" style="stop-color:#BE716D"/>
	</linearGradient>
	<path fill="url(#SVGID_35_)" d="M388.242,517.32v5.25c0,0.75-0.508,0.715-1.133,0.715l-10.117,0.035
		c-0.75,0-1.473-0.262-1.473-0.547l-0.027-5.453c0-0.75,0.531-0.75,1.156-0.75h10.094c0.75,0,1.5,0.23,1.5,0.512V517.32z"/>
	
		<linearGradient id="SVGID_36_" gradientUnits="userSpaceOnUse" x1="65.3066" y1="372.2251" x2="1.3066" y2="372.2251" gradientTransform="matrix(0 -0.75 0.75 0 -115.528 475.7794)">
		<stop  offset="0" style="stop-color:#B76C68"/>
		<stop  offset="0.15" style="stop-color:#F09995"/>
		<stop  offset="0.25" style="stop-color:#F6CCCA"/>
		<stop  offset="0.44" style="stop-color:#D17C78"/>
		<stop  offset="0.6" style="stop-color:#BA6E6A"/>
		<stop  offset="0.8" style="stop-color:#9D5C59"/>
		<stop  offset="0.97" style="stop-color:#8F5451"/>
	</linearGradient>
	<path fill="url(#SVGID_36_)" d="M141.141,474.8v-48h45v48H141.141z"/>
	
		<linearGradient id="SVGID_37_" gradientUnits="userSpaceOnUse" x1="72.3047" y1="390.7251" x2="1.3047" y2="390.7251" gradientTransform="matrix(0 -0.75 0.75 0 -156.5079 478.6808)">
		<stop  offset="0" style="stop-color:#B76C68"/>
		<stop  offset="0.15" style="stop-color:#F09995"/>
		<stop  offset="0.25" style="stop-color:#F6CCCA"/>
		<stop  offset="0.44" style="stop-color:#D17C78"/>
		<stop  offset="0.6" style="stop-color:#BA6E6A"/>
		<stop  offset="0.8" style="stop-color:#9D5C59"/>
		<stop  offset="0.97" style="stop-color:#8F5451"/>
	</linearGradient>
	<path fill="url(#SVGID_37_)" d="M127.91,477.703v-53.25h17.25v53.25H127.91z"/>
	
		<linearGradient id="SVGID_38_" gradientUnits="userSpaceOnUse" x1="65.3027" y1="372.2261" x2="1.3027" y2="372.2261" gradientTransform="matrix(0 -0.75 0.75 0 -115.5284 140.8361)">
		<stop  offset="0" style="stop-color:#B76C68"/>
		<stop  offset="0.15" style="stop-color:#F09995"/>
		<stop  offset="0.25" style="stop-color:#F6CCCA"/>
		<stop  offset="0.44" style="stop-color:#D17C78"/>
		<stop  offset="0.6" style="stop-color:#BA6E6A"/>
		<stop  offset="0.8" style="stop-color:#9D5C59"/>
		<stop  offset="0.97" style="stop-color:#8F5451"/>
	</linearGradient>
	<path fill="url(#SVGID_38_)" d="M141.141,139.859v-48h45v48H141.141z"/>
	
		<linearGradient id="SVGID_39_" gradientUnits="userSpaceOnUse" x1="72.3027" y1="390.7251" x2="1.3027" y2="390.7251" gradientTransform="matrix(0 -0.75 0.75 0 -156.5079 143.7384)">
		<stop  offset="0" style="stop-color:#B76C68"/>
		<stop  offset="0.15" style="stop-color:#F09995"/>
		<stop  offset="0.25" style="stop-color:#F6CCCA"/>
		<stop  offset="0.44" style="stop-color:#D17C78"/>
		<stop  offset="0.6" style="stop-color:#BA6E6A"/>
		<stop  offset="0.8" style="stop-color:#9D5C59"/>
		<stop  offset="0.97" style="stop-color:#8F5451"/>
	</linearGradient>
	<path fill="url(#SVGID_39_)" d="M127.91,142.762v-53.25h17.25v53.25H127.91z"/>
	
		<linearGradient id="SVGID_40_" gradientUnits="userSpaceOnUse" x1="65.3047" y1="335.7046" x2="1.3047" y2="335.7046" gradientTransform="matrix(0 -0.75 -0.75 0 655.0665 475.7784)">
		<stop  offset="0" style="stop-color:#B76C68"/>
		<stop  offset="0.15" style="stop-color:#F09995"/>
		<stop  offset="0.25" style="stop-color:#F6CCCA"/>
		<stop  offset="0.44" style="stop-color:#D17C78"/>
		<stop  offset="0.6" style="stop-color:#BA6E6A"/>
		<stop  offset="0.8" style="stop-color:#9D5C59"/>
		<stop  offset="0.97" style="stop-color:#8F5451"/>
	</linearGradient>
	<path fill="url(#SVGID_40_)" d="M425.789,474.8v-48h-45v48H425.789z"/>
	
		<linearGradient id="SVGID_41_" gradientUnits="userSpaceOnUse" x1="72.3047" y1="354.2026" x2="1.3047" y2="354.2026" gradientTransform="matrix(0 -0.75 -0.75 0 696.046 478.6798)">
		<stop  offset="0" style="stop-color:#B76C68"/>
		<stop  offset="0.15" style="stop-color:#F09995"/>
		<stop  offset="0.25" style="stop-color:#F6CCCA"/>
		<stop  offset="0.44" style="stop-color:#D17C78"/>
		<stop  offset="0.6" style="stop-color:#BA6E6A"/>
		<stop  offset="0.8" style="stop-color:#9D5C59"/>
		<stop  offset="0.97" style="stop-color:#8F5451"/>
	</linearGradient>
	<path fill="url(#SVGID_41_)" d="M439.019,477.703v-53.25h-17.25v53.25H439.019z"/>
	
		<linearGradient id="SVGID_42_" gradientUnits="userSpaceOnUse" x1="65.3027" y1="335.7026" x2="1.3027" y2="335.7026" gradientTransform="matrix(0 -0.75 -0.75 0 655.0656 140.8361)">
		<stop  offset="0" style="stop-color:#B76C68"/>
		<stop  offset="0.15" style="stop-color:#F09995"/>
		<stop  offset="0.25" style="stop-color:#F6CCCA"/>
		<stop  offset="0.44" style="stop-color:#D17C78"/>
		<stop  offset="0.6" style="stop-color:#BA6E6A"/>
		<stop  offset="0.8" style="stop-color:#9D5C59"/>
		<stop  offset="0.97" style="stop-color:#8F5451"/>
	</linearGradient>
	<path fill="url(#SVGID_42_)" d="M425.789,139.859v-48h-45v48H425.789z"/>
	
		<linearGradient id="SVGID_43_" gradientUnits="userSpaceOnUse" x1="72.3027" y1="354.2026" x2="1.3027" y2="354.2026" gradientTransform="matrix(0 -0.75 -0.75 0 696.046 143.7384)">
		<stop  offset="0" style="stop-color:#B76C68"/>
		<stop  offset="0.15" style="stop-color:#F09995"/>
		<stop  offset="0.25" style="stop-color:#F6CCCA"/>
		<stop  offset="0.44" style="stop-color:#D17C78"/>
		<stop  offset="0.6" style="stop-color:#BA6E6A"/>
		<stop  offset="0.8" style="stop-color:#9D5C59"/>
		<stop  offset="0.97" style="stop-color:#8F5451"/>
	</linearGradient>
	<path fill="url(#SVGID_43_)" d="M439.019,142.762v-53.25h-17.25v53.25H439.019z"/>
</g>
</svg>
