<?xml version="1.0" encoding="utf-8"?>
<!-- Generator: Adobe Illustrator 16.0.0, SVG Export Plug-In . SVG Version: 6.00 Build 0)  -->
<!DOCTYPE svg PUBLIC "-//W3C//DTD SVG 1.1//EN" "http://www.w3.org/Graphics/SVG/1.1/DTD/svg11.dtd">
<svg preserveAspectRatio="none"   version="1.1" id="图层_1" xmlns="http://www.w3.org/2000/svg" xmlns:xlink="http://www.w3.org/1999/xlink" x="0px" y="0px"
	 width="261px" height="561.855px" viewBox="153.027 2.488 261 561.855" enable-background="new 153.027 2.488 261 561.855"
	 xml:space="preserve">
<g id="surface234">
	
		<linearGradient id="SVGID_1_" gradientUnits="userSpaceOnUse" x1="550.2241" y1="-72.6963" x2="202.2241" y2="-72.6963" gradientTransform="matrix(0.75 0 0 -0.75 1.3583 228.9493)">
		<stop  offset="0" style="stop-color:#BDA47F"/>
		<stop  offset="0.15" style="stop-color:#FFE0B3"/>
		<stop  offset="0.25" style="stop-color:#FFEED7"/>
		<stop  offset="0.52" style="stop-color:#DFC297"/>
		<stop  offset="0.69" style="stop-color:#C7AD86"/>
		<stop  offset="0.8" style="stop-color:#BCA37E"/>
		<stop  offset="0.92" style="stop-color:#B19A77"/>
		<stop  offset="1" style="stop-color:#CBB189"/>
	</linearGradient>
	<path fill="url(#SVGID_1_)" d="M153.027,77.973h261v411h-261V77.973z"/>
	
		<linearGradient id="SVGID_2_" gradientUnits="userSpaceOnUse" x1="550.0571" y1="150.8071" x2="202.2241" y2="150.8071" gradientTransform="matrix(0.75 0 0 -0.75 1.3583 153.4669)">
		<stop  offset="0" style="stop-color:#BDA47F"/>
		<stop  offset="0.15" style="stop-color:#FFE0B3"/>
		<stop  offset="0.25" style="stop-color:#FFEED7"/>
		<stop  offset="0.52" style="stop-color:#DFC297"/>
		<stop  offset="0.69" style="stop-color:#C7AD86"/>
		<stop  offset="0.8" style="stop-color:#BCA37E"/>
		<stop  offset="0.92" style="stop-color:#B19A77"/>
		<stop  offset="1" style="stop-color:#CBB189"/>
	</linearGradient>
	<path fill="url(#SVGID_2_)" d="M283.527,2.488c124.5,0,130.375,75.605,130.375,75.605l-260.875,0.145c0,0,5.43-75.75,130.438-75.75
		H283.527z"/>
	
		<linearGradient id="SVGID_3_" gradientUnits="userSpaceOnUse" x1="550.0571" y1="516.1255" x2="202.2241" y2="516.1255" gradientTransform="matrix(0.75 0 0 0.75 1.3583 139.3749)">
		<stop  offset="0" style="stop-color:#BDA47F"/>
		<stop  offset="0.15" style="stop-color:#FFE0B3"/>
		<stop  offset="0.25" style="stop-color:#FFEED7"/>
		<stop  offset="0.52" style="stop-color:#DFC297"/>
		<stop  offset="0.69" style="stop-color:#C7AD86"/>
		<stop  offset="0.8" style="stop-color:#BCA37E"/>
		<stop  offset="0.92" style="stop-color:#B19A77"/>
		<stop  offset="1" style="stop-color:#CBB189"/>
	</linearGradient>
	<path fill="url(#SVGID_3_)" d="M283.527,564.343c124.5,0,130.375-75.605,130.375-75.605l-260.875-0.145
		c0,0,5.43,75.75,130.438,75.75H283.527z"/>
	<path fill="#B79055" d="M184.504,101.348h198v357.75h-198V101.348z"/>
	
		<linearGradient id="SVGID_4_" gradientUnits="userSpaceOnUse" x1="374.8149" y1="343.2241" x2="374.8149" y2="402.2241" gradientTransform="matrix(0 0.75 0.75 0 -60.4489 -120.3126)">
		<stop  offset="0" style="stop-color:#C4AB7E"/>
		<stop  offset="0.22" style="stop-color:#DCC18F"/>
		<stop  offset="0.57" style="stop-color:#F4E5CF"/>
		<stop  offset="0.84" style="stop-color:#EED8B3"/>
		<stop  offset="1" style="stop-color:#D4BA89"/>
	</linearGradient>
	<path fill="url(#SVGID_4_)" d="M196.969,166.656c0,0,1.43-12,22.359-12c21.141,0,21.891,12.285,21.891,12.285l-10.5-0.285
		c0,0-0.828-4.859-11.59-4.859c-10.91,0.359-11.262,5.145-11.262,5.145L196.969,166.656z"/>
	
		<linearGradient id="SVGID_5_" gradientUnits="userSpaceOnUse" x1="375.3276" y1="346.1968" x2="375.3276" y2="402.228" gradientTransform="matrix(0 0.75 0.75 0 3.1757 -120.3126)">
		<stop  offset="0" style="stop-color:#C4AB7E"/>
		<stop  offset="0.22" style="stop-color:#DCC18F"/>
		<stop  offset="0.57" style="stop-color:#F4E5CF"/>
		<stop  offset="0.84" style="stop-color:#EED8B3"/>
		<stop  offset="1" style="stop-color:#D4BA89"/>
	</linearGradient>
	<path fill="url(#SVGID_5_)" d="M262.844,166.656c0,0-1.461-12,20.465-12c22.285,0,21.535,13.055,21.535,13.055l-10.5-1.055
		c0,0,0.125-4.246-10.64-4.246c-11.109-0.254-10.063,4.531-10.063,4.531L262.844,166.656z"/>
	
		<linearGradient id="SVGID_6_" gradientUnits="userSpaceOnUse" x1="375.105" y1="345.228" x2="375.105" y2="402.228" gradientTransform="matrix(0 0.75 0.75 0 67.829 -120.3131)">
		<stop  offset="0" style="stop-color:#C4AB7E"/>
		<stop  offset="0.22" style="stop-color:#DCC18F"/>
		<stop  offset="0.57" style="stop-color:#F4E5CF"/>
		<stop  offset="0.84" style="stop-color:#EED8B3"/>
		<stop  offset="1" style="stop-color:#D4BA89"/>
	</linearGradient>
	<path fill="url(#SVGID_6_)" d="M326.75,166.656c0,0,0.805-12,21.535-12c20.465-0.75,21.215,12.285,21.215,12.285l-10.5,0.465
		c0,0-0.352-4.996-11.113-5.301c-10.637,0.051-10.664,4.836-10.664,4.836L326.75,166.656z"/>
	
		<linearGradient id="SVGID_7_" gradientUnits="userSpaceOnUse" x1="375.0063" y1="345.0464" x2="375.0063" y2="402.231" gradientTransform="matrix(0 0.75 0.75 0 -28.0275 116.5873)">
		<stop  offset="0" style="stop-color:#C4AB7E"/>
		<stop  offset="0.22" style="stop-color:#DCC18F"/>
		<stop  offset="0.57" style="stop-color:#F4E5CF"/>
		<stop  offset="0.84" style="stop-color:#EED8B3"/>
		<stop  offset="1" style="stop-color:#D4BA89"/>
	</linearGradient>
	<path fill="url(#SVGID_7_)" d="M241.391,391.554c0,0,0.859,4.586,10.809,4.586c10.191-0.086,10.977-4.609,10.977-4.609
		l10.465,0.023c0,0,0.898,12.598-21.027,12.598c-21.723,0.152-21.855-12.621-21.855-12.621L241.391,391.554z"/>
	
		<linearGradient id="SVGID_8_" gradientUnits="userSpaceOnUse" x1="375.0063" y1="345.1733" x2="375.0063" y2="402.2241" gradientTransform="matrix(0 0.75 0.75 0 35.5028 116.5873)">
		<stop  offset="0" style="stop-color:#C4AB7E"/>
		<stop  offset="0.22" style="stop-color:#DCC18F"/>
		<stop  offset="0.57" style="stop-color:#F4E5CF"/>
		<stop  offset="0.84" style="stop-color:#EED8B3"/>
		<stop  offset="1" style="stop-color:#D4BA89"/>
	</linearGradient>
	<path fill="url(#SVGID_8_)" d="M304.921,391.554c0,0,0.309,4.891,10.676,4.891c10.324,0.359,11.16-4.914,11.16-4.914l10.414,0.023
		c0,0,0,12.598-21.16,12.598c-20.84,0.152-21.629-12.621-21.629-12.621L304.921,391.554z"/>
	
		<linearGradient id="SVGID_9_" gradientUnits="userSpaceOnUse" x1="561.6265" y1="388.2261" x2="561.6265" y2="402.2261" gradientTransform="matrix(0 0.75 0.75 0 -94.3058 -108.7198)">
		<stop  offset="0" style="stop-color:#C4AB7E"/>
		<stop  offset="0.22" style="stop-color:#DCC18F"/>
		<stop  offset="0.57" style="stop-color:#F4E5CF"/>
		<stop  offset="0.84" style="stop-color:#EED8B3"/>
		<stop  offset="1" style="stop-color:#D4BA89"/>
	</linearGradient>
	<path fill="url(#SVGID_9_)" d="M196.863,458.75v-292.5h10.5v292.5H196.863z"/>
	
		<linearGradient id="SVGID_10_" gradientUnits="userSpaceOnUse" x1="517.1245" y1="388.2241" x2="517.1245" y2="402.2241" gradientTransform="matrix(0 0.75 0.75 0 -60.715 -108.7184)">
		<stop  offset="0" style="stop-color:#C4AB7E"/>
		<stop  offset="0.22" style="stop-color:#DCC18F"/>
		<stop  offset="0.57" style="stop-color:#F4E5CF"/>
		<stop  offset="0.84" style="stop-color:#EED8B3"/>
		<stop  offset="1" style="stop-color:#D4BA89"/>
	</linearGradient>
	<path fill="url(#SVGID_10_)" d="M230.453,392V166.25h10.5V392H230.453z"/>
	
		<linearGradient id="SVGID_11_" gradientUnits="userSpaceOnUse" x1="516.6245" y1="389.2261" x2="516.6245" y2="402.2261" gradientTransform="matrix(0 0.75 0.75 0 -28.423 -108.7189)">
		<stop  offset="0" style="stop-color:#C4AB7E"/>
		<stop  offset="0.22" style="stop-color:#DCC18F"/>
		<stop  offset="0.57" style="stop-color:#F4E5CF"/>
		<stop  offset="0.84" style="stop-color:#EED8B3"/>
		<stop  offset="1" style="stop-color:#D4BA89"/>
	</linearGradient>
	<path fill="url(#SVGID_11_)" d="M263.496,391.25v-225h9.75v225H263.496z"/>
	
		<linearGradient id="SVGID_12_" gradientUnits="userSpaceOnUse" x1="517.1265" y1="388.2261" x2="517.1265" y2="402.2261" gradientTransform="matrix(0 0.75 0.75 0 2.6659 -108.7198)">
		<stop  offset="0" style="stop-color:#C4AB7E"/>
		<stop  offset="0.22" style="stop-color:#DCC18F"/>
		<stop  offset="0.57" style="stop-color:#F4E5CF"/>
		<stop  offset="0.84" style="stop-color:#EED8B3"/>
		<stop  offset="1" style="stop-color:#D4BA89"/>
	</linearGradient>
	<path fill="url(#SVGID_12_)" d="M293.835,392V166.25h10.5V392H293.835z"/>
	
		<linearGradient id="SVGID_13_" gradientUnits="userSpaceOnUse" x1="516.6245" y1="389.2261" x2="516.6245" y2="402.2261" gradientTransform="matrix(0 0.75 0.75 0 34.955 -108.7179)">
		<stop  offset="0" style="stop-color:#C4AB7E"/>
		<stop  offset="0.22" style="stop-color:#DCC18F"/>
		<stop  offset="0.57" style="stop-color:#F4E5CF"/>
		<stop  offset="0.84" style="stop-color:#EED8B3"/>
		<stop  offset="1" style="stop-color:#D4BA89"/>
	</linearGradient>
	<path fill="url(#SVGID_13_)" d="M326.875,391.25v-225h9.75v225H326.875z"/>
	
		<linearGradient id="SVGID_14_" gradientUnits="userSpaceOnUse" x1="561.6255" y1="389.228" x2="561.6255" y2="402.228" gradientTransform="matrix(0 0.75 0.75 0 67.2391 -108.7233)">
		<stop  offset="0" style="stop-color:#C4AB7E"/>
		<stop  offset="0.22" style="stop-color:#DCC18F"/>
		<stop  offset="0.57" style="stop-color:#F4E5CF"/>
		<stop  offset="0.84" style="stop-color:#EED8B3"/>
		<stop  offset="1" style="stop-color:#D4BA89"/>
	</linearGradient>
	<path fill="url(#SVGID_14_)" d="M359.16,458.746v-292.5h9.75v292.5H359.16z"/>
</g>
</svg>
