<?xml version="1.0" encoding="utf-8"?>
<!-- Generator: Adobe Illustrator 16.0.0, SVG Export Plug-In . SVG Version: 6.00 Build 0)  -->
<!DOCTYPE svg PUBLIC "-//W3C//DTD SVG 1.1//EN" "http://www.w3.org/Graphics/SVG/1.1/DTD/svg11.dtd">
<svg preserveAspectRatio="none" version="1.1" id="图层_1" xmlns="http://www.w3.org/2000/svg" xmlns:xlink="http://www.w3.org/1999/xlink" x="0px" y="0px"
	 width="283.5px" height="557.16px" viewBox="141.75 4.777 283.5 557.16" enable-background="new 141.75 4.777 283.5 557.16"
	 xml:space="preserve">
<g id="surface336">
	
		<linearGradient id="SVGID_1_" gradientUnits="userSpaceOnUse" x1="202.2256" y1="-151.8179" x2="580.2241" y2="-151.8179" gradientTransform="matrix(0.75 0 0 -0.75 -9.9191 183.2316)">
		<stop  offset="0" style="stop-color:#667860"/>
		<stop  offset="0.17" style="stop-color:#788D71"/>
		<stop  offset="0.68" style="stop-color:#A7B6A3"/>
		<stop  offset="0.83" style="stop-color:#94A78E"/>
		<stop  offset="1" style="stop-color:#5E6F58"/>
	</linearGradient>
	<path fill="url(#SVGID_1_)" d="M156,32.254c0,0,0.477,7.945-2.25,12.879c0-0.129-12,10.961-12,24.945v429.425
		c0,0,5.863,22.805,33.07,31.801c-0.07-0.301,3.75,8.953,13.566,14.98c9.613,5.719,25.367,9.102,25.367,9.102
		c-0.004,0.367,33.988,6.551,69.004,6.551c34.492-0.184,69.82-6.551,69.82-6.551c-0.078,0.367,15.547-2.25,25.637-9.102
		c10.285-7.031,13.434-15,13.434-15c-0.148-0.281,29.113-7.469,33.602-31.855V69.004c0,0,0-15.105-12.668-23.598
		c-0.082,0.348-3-3.563-2.867-13.152c-0.215,0-34.227,14.523-118.23,14.523C207.75,46.504,156.07,32.254,156.07,32.254H156z"/>
	
		<linearGradient id="SVGID_2_" gradientUnits="userSpaceOnUse" x1="202.2231" y1="182.0991" x2="541.2231" y2="182.0991" gradientTransform="matrix(0.75 0 0 -0.75 4.348 169.2579)">
		<stop  offset="0" style="stop-color:#C7C7C7"/>
		<stop  offset="0.17" style="stop-color:#E7E7E7"/>
		<stop  offset="0.68" style="stop-color:#FFFFFF"/>
		<stop  offset="0.83" style="stop-color:#FFFFFF"/>
		<stop  offset="1" style="stop-color:#B8B8B8"/>
	</linearGradient>
	<path fill="url(#SVGID_2_)" d="M156.016,32.531c0,0,23.078,13.949,127.066,14.547c112.933,0.453,127.066-14.824,127.066-14.824
		l0.117-13.973c0,0-28.863,15.07-127.183,14.797c-98.566-0.547-127.066-14.797-127.066-14.797V32.531z"/>
	
		<linearGradient id="SVGID_3_" gradientUnits="userSpaceOnUse" x1="541.3071" y1="180.9521" x2="202.2236" y2="180.9521" gradientTransform="matrix(0.75 0 0 -0.75 4.6752 155.8322)">
		<stop  offset="0" style="stop-color:#90949A"/>
		<stop  offset="0.17" style="stop-color:#A8ADB3"/>
		<stop  offset="0.68" style="stop-color:#D4D6DA"/>
		<stop  offset="0.83" style="stop-color:#C1C5CB"/>
		<stop  offset="1" style="stop-color:#85898E"/>
	</linearGradient>
	<path fill="url(#SVGID_3_)" d="M156.344,19.855c0-8.25,56.926-15.078,127.156-15.078c70.093,0.078,127.156,6.867,127.156,15.34
		c-0.063,8.738-56.945,15.34-127.156,15.34c-70.156,0.148-127.156-6.867-127.156-15.34V19.855z"/>
	
		<linearGradient id="SVGID_4_" gradientUnits="userSpaceOnUse" x1="504.0669" y1="188.7612" x2="202.2231" y2="188.7612" gradientTransform="matrix(0.75 0 0 -0.75 18.6405 167.6271)">
		<stop  offset="0" style="stop-color:#A7A9AB"/>
		<stop  offset="0.17" style="stop-color:#C3C4C7"/>
		<stop  offset="0.68" style="stop-color:#E0E1E4"/>
		<stop  offset="0.83" style="stop-color:#DBDCDF"/>
		<stop  offset="1" style="stop-color:#9B9C9E"/>
	</linearGradient>
	<path fill="url(#SVGID_4_)" d="M170.309,27.148c0,0,37.617-10.5,112.879-10.5c75.371,0,113.503,10.676,113.503,10.676
		c0.117-0.176-23.898,8.141-113.191,8.141c-89.191-0.066-113.191-8.965-113.191-8.141V27.148z"/>
	
		<linearGradient id="SVGID_5_" gradientUnits="userSpaceOnUse" x1="318.7593" y1="192.2354" x2="202.1587" y2="192.2353" gradientTransform="matrix(0.75 0 0 -0.75 84.9125 169.0548)">
		<stop  offset="0" style="stop-color:#979A9C"/>
		<stop  offset="0.17" style="stop-color:#B0B3B6"/>
		<stop  offset="0.68" style="stop-color:#D0D3D5"/>
		<stop  offset="0.83" style="stop-color:#C8CBCE"/>
		<stop  offset="1" style="stop-color:#8B8E90"/>
	</linearGradient>
	<path fill="url(#SVGID_5_)" d="M251.582,31.578c0,0-11.859,0.688-15-7.816c0,0.316-3.426-5.711,46.535-5.711
		c65.214,0.027,32.82,13.656,32.82,13.656l-17.855-2.379c0,0,14.16-6.41,2.16-6.41c-11.91-0.34-39.296,0.211-39.296,0.211
		c-0.363,0.199-8.145,1.52,5.305,5.074L251.582,31.578z"/>
	
		<linearGradient id="SVGID_6_" gradientUnits="userSpaceOnUse" x1="246.7256" y1="201.3037" x2="246.7256" y2="194.3037" gradientTransform="matrix(0.75 0 0 -0.75 99.9008 179.1232)">
		<stop  offset="0" style="stop-color:#979A9C"/>
		<stop  offset="0.17" style="stop-color:#B0B3B6"/>
		<stop  offset="0.68" style="stop-color:#D0D3D5"/>
		<stop  offset="0.83" style="stop-color:#C8CBCE"/>
		<stop  offset="1" style="stop-color:#8B8E90"/>
	</linearGradient>
	<path fill="url(#SVGID_6_)" d="M253.07,28.145h63.75c0.75,0,1.289,0.691,1.289,1.547l0.211,2.203c0,0.75-0.793,1.34-1.484,1.34
		l-63.765,0.16c-0.75,0-1.5-0.855-1.5-1.707v-2.043c0-0.75,0.539-1.5,1.23-1.5H253.07z"/>
	
		<linearGradient id="SVGID_7_" gradientUnits="userSpaceOnUse" x1="580.2231" y1="159.7217" x2="202.2246" y2="159.7216" gradientTransform="matrix(0.75 0 0 -0.75 -9.9191 650.4474)">
		<stop  offset="0" style="stop-color:#979A9C"/>
		<stop  offset="0.17" style="stop-color:#B0B3B6"/>
		<stop  offset="0.68" style="stop-color:#D0D3D5"/>
		<stop  offset="0.83" style="stop-color:#C8CBCE"/>
		<stop  offset="1" style="stop-color:#8B8E90"/>
	</linearGradient>
	<path fill="url(#SVGID_7_)" d="M141.75,499.468c0,0,5.863,22.789,33.066,31.785c-0.066-0.285,3.746,8.949,13.566,14.98
		c9.617,5.734,25.359,9.102,25.359,9.102c0.008-0.367,33.984,6.602,68.992,6.602c34.515-0.219,69.808-6.602,69.808-6.602
		c-0.043-0.367,15.547-2.254,25.633-9.102c10.324-7.016,13.43-15.004,13.43-15.004c-0.105-0.262,29.113-7.465,33.645-31.852
		c0,0.09-37.918,20.773-141.75,22.297c-104.25,1.793-141.75-22.297-141.75-22.297V499.468z"/>
	
		<linearGradient id="SVGID_8_" gradientUnits="userSpaceOnUse" x1="202.2246" y1="180.8384" x2="491.1714" y2="180.8384" gradientTransform="matrix(0.75 0 0 -0.75 23.1674 682.2159)">
		<stop  offset="0" style="stop-color:#A0A3A6"/>
		<stop  offset="0.17" style="stop-color:#BABEC2"/>
		<stop  offset="0.68" style="stop-color:#D9DCDF"/>
		<stop  offset="0.83" style="stop-color:#D2D6DA"/>
		<stop  offset="1" style="stop-color:#94979A"/>
	</linearGradient>
	<path fill="url(#SVGID_8_)" d="M174.836,531.238c0,0,3.656,8.965,13.473,14.996c9.777,6.004,25.363,9.098,25.363,9.098
		c0.164-0.094,33.984,6.605,68.992,6.605c34.671,0.051,69.808-6.605,69.808-6.605c0.113-0.094,15.543-2.25,25.633-9.098
		c9.73-6.746,13.441-14.996,13.441-14.996c0.039,0-20.453,15.82-108.355,15.82C195.086,546.988,174.836,531.238,174.836,531.238z"/>
	
		<linearGradient id="SVGID_9_" gradientUnits="userSpaceOnUse" x1="580.2231" y1="165.4185" x2="202.2246" y2="165.4184" gradientTransform="matrix(0.75 0 0 -0.75 -9.9191 183.2316)">
		<stop  offset="0" style="stop-color:#979A9C"/>
		<stop  offset="0.17" style="stop-color:#B0B3B6"/>
		<stop  offset="0.68" style="stop-color:#D0D3D5"/>
		<stop  offset="0.83" style="stop-color:#C8CBCE"/>
		<stop  offset="1" style="stop-color:#8B8E90"/>
	</linearGradient>
	<path fill="url(#SVGID_9_)" d="M156,32.254c0,0,0.477,7.945-2.25,12.879c0-0.129-12,10.961-12,24.961
		c0-0.34,8.086,15.988,141.75,15.988c134.25,0.172,141.75-16.836,141.75-16.836c0-0.242,0-15.348-12.715-23.84
		c-0.035,0.348-3-3.563-2.863-13.152c-0.172,0-16.289,13.23-126.578,13.719C168.75,46.504,156.066,32.254,156.066,32.254H156z"/>
	
		<linearGradient id="SVGID_10_" gradientUnits="userSpaceOnUse" x1="428.2212" y1="52.3066" x2="202.2222" y2="52.3066" gradientTransform="matrix(0.75 0 0 -0.75 45.0282 337.9318)">
		<stop  offset="0" style="stop-color:#D5D7D9"/>
		<stop  offset="0.33" style="stop-color:#E6E7E9"/>
		<stop  offset="0.82" style="stop-color:#D9DBDD"/>
		<stop  offset="1" style="stop-color:#B7BABE"/>
	</linearGradient>
	<path fill="url(#SVGID_10_)" d="M226.695,186.953h108.75c16.5,0,30.477,13.641,30.477,30.461l0.273,162.289
		c0,17.25-13.887,30.711-30.629,30.711l-108.871,0.039c-16.5,0-30-13.754-30-30.578V217.703c0-17.25,13.496-30.75,30.238-30.75
		H226.695z"/>
	<path fill="#B0B4B9" d="M168.156,232.012h22.5c2.25,0,3.563,1.664,3.563,3.77l0.188,53.23c0,2.25-1.758,3.922-3.695,3.922
		l-22.555-0.172c-2.25,0-3.75-1.57-3.75-3.676v-53.324c0-2.25,1.57-3.75,3.508-3.75H168.156z"/>
	<path fill="#B0B4B9" d="M374.05,232.012h22.5c2.25,0,3.563,1.664,3.563,3.77l0.188,53.23c0,2.25-1.758,3.922-3.695,3.922
		l-22.555-0.172c-2.25,0-3.75-1.57-3.75-3.676v-53.324c0-2.25,1.57-3.75,3.508-3.75H374.05z"/>
	
		<linearGradient id="SVGID_11_" gradientUnits="userSpaceOnUse" x1="202.2241" y1="153.9204" x2="517.2241" y2="153.9204" gradientTransform="matrix(0.75 0 0 -0.75 12.7382 384.8937)">
		<stop  offset="0" style="stop-color:#A0A3A6"/>
		<stop  offset="0.17" style="stop-color:#BABEC2"/>
		<stop  offset="0.68" style="stop-color:#D9DCDF"/>
		<stop  offset="0.83" style="stop-color:#D2D6DA"/>
		<stop  offset="1" style="stop-color:#94979A"/>
	</linearGradient>
	<path fill="url(#SVGID_11_)" d="M164.406,233.914c0,0,18.449,12.914,117.281,12.137c98.718-0.887,118.929-12.137,118.929-12.137
		l0.039,58.5c0,0-21.715,12.449-118.144,12.578c-96.355,0.172-118.105-12.203-118.105-12.203V233.914z"/>
</g>
</svg>
