<?xml version="1.0" encoding="utf-8"?>
<!-- Generator: Adobe Illustrator 16.0.0, SVG Export Plug-In . SVG Version: 6.00 Build 0)  -->
<!DOCTYPE svg PUBLIC "-//W3C//DTD SVG 1.1//EN" "http://www.w3.org/Graphics/SVG/1.1/DTD/svg11.dtd">
<svg preserveAspectRatio="none" version="1.1" id="图层_1" xmlns="http://www.w3.org/2000/svg" xmlns:xlink="http://www.w3.org/1999/xlink" x="0px" y="0px"
	 width="369px" height="549.988px" viewBox="98.914 8.457 369 549.988" enable-background="new 98.914 8.457 369 549.988"
	 xml:space="preserve">
<g id="surface276">
	
		<linearGradient id="SVGID_1_" gradientUnits="userSpaceOnUse" x1="600.2251" y1="-84.6934" x2="202.2251" y2="-84.6934" gradientTransform="matrix(0.75 0 0 -0.75 -21.9742 280.424)">
		<stop  offset="0" style="stop-color:#9D938D"/>
		<stop  offset="0.03" style="stop-color:#E5DBD5"/>
		<stop  offset="0.08" style="stop-color:#CCC0B8"/>
		<stop  offset="0.64" style="stop-color:#C9BDB5"/>
		<stop  offset="0.95" style="stop-color:#C4B9B1"/>
		<stop  offset="1" style="stop-color:#918983"/>
	</linearGradient>
	<path fill="url(#SVGID_1_)" d="M129.695,129.445h298.5v429h-298.5V129.445z"/>
	
		<linearGradient id="SVGID_2_" gradientUnits="userSpaceOnUse" x1="216.7959" y1="201.3037" x2="216.7959" y2="18.3037" gradientTransform="matrix(0.75 0 0 -0.75 -52.755 159.4357)">
		<stop  offset="0" style="stop-color:#B2A89E"/>
		<stop  offset="0.15" style="stop-color:#E9DED2"/>
		<stop  offset="0.25" style="stop-color:#F3EDE6"/>
		<stop  offset="0.52" style="stop-color:#CBC0B5"/>
		<stop  offset="0.69" style="stop-color:#B5ABA1"/>
		<stop  offset="0.8" style="stop-color:#AAA198"/>
		<stop  offset="0.97" style="stop-color:#A1988F"/>
		<stop  offset="1" style="stop-color:#B9AFA5"/>
	</linearGradient>
	<path fill="url(#SVGID_2_)" d="M105.664,8.457h8.25c3.75,0,6.855,3.031,6.855,6.77l-0.105,123.73c0,3.75-2.906,6.566-6.621,6.566
		l-8.379,0.184c-3.75,0-6.75-3.215-6.75-6.953V15.207c0-3.75,3.012-6.75,6.723-6.75H105.664z"/>
	
		<linearGradient id="SVGID_3_" gradientUnits="userSpaceOnUse" x1="225.728" y1="201.3057" x2="225.728" y2="156.3057" gradientTransform="matrix(0.75 0 0 -0.75 -30.8507 211.046)">
		<stop  offset="0" style="stop-color:#B2A89E"/>
		<stop  offset="0.15" style="stop-color:#E9DED2"/>
		<stop  offset="0.25" style="stop-color:#F3EDE6"/>
		<stop  offset="0.52" style="stop-color:#CBC0B5"/>
		<stop  offset="0.69" style="stop-color:#B5ABA1"/>
		<stop  offset="0.8" style="stop-color:#AAA198"/>
		<stop  offset="0.97" style="stop-color:#A1988F"/>
		<stop  offset="1" style="stop-color:#B9AFA5"/>
	</linearGradient>
	<path fill="url(#SVGID_3_)" d="M120.82,60.066h35.25v33.75h-35.25V60.066z"/>
	
		<linearGradient id="SVGID_4_" gradientUnits="userSpaceOnUse" x1="373.2241" y1="201.3027" x2="373.2241" y2="137.3027" gradientTransform="matrix(0.75 0 0 -0.75 4.1161 204.0509)">
		<stop  offset="0" style="stop-color:#B2A89E"/>
		<stop  offset="0.15" style="stop-color:#E9DED2"/>
		<stop  offset="0.25" style="stop-color:#F3EDE6"/>
		<stop  offset="0.52" style="stop-color:#CBC0B5"/>
		<stop  offset="0.69" style="stop-color:#B5ABA1"/>
		<stop  offset="0.8" style="stop-color:#AAA198"/>
		<stop  offset="0.97" style="stop-color:#A1988F"/>
		<stop  offset="1" style="stop-color:#B9AFA5"/>
	</linearGradient>
	<path fill="url(#SVGID_4_)" d="M155.785,53.074h256.5v48h-256.5V53.074z"/>
	
		<linearGradient id="SVGID_5_" gradientUnits="userSpaceOnUse" x1="225.7246" y1="201.3057" x2="225.7246" y2="156.3057" gradientTransform="matrix(0.75 0 0 -0.75 260.7684 211.046)">
		<stop  offset="0" style="stop-color:#B2A89E"/>
		<stop  offset="0.15" style="stop-color:#E9DED2"/>
		<stop  offset="0.25" style="stop-color:#F3EDE6"/>
		<stop  offset="0.52" style="stop-color:#CBC0B5"/>
		<stop  offset="0.69" style="stop-color:#B5ABA1"/>
		<stop  offset="0.8" style="stop-color:#AAA198"/>
		<stop  offset="0.97" style="stop-color:#A1988F"/>
		<stop  offset="1" style="stop-color:#B9AFA5"/>
	</linearGradient>
	<path fill="url(#SVGID_5_)" d="M412.437,60.066h35.25v33.75h-35.25V60.066z"/>
	
		<linearGradient id="SVGID_6_" gradientUnits="userSpaceOnUse" x1="233.2246" y1="177.8047" x2="202.2246" y2="177.8047" gradientTransform="matrix(0.75 0 0 -0.75 23.8466 244.7706)">
		<stop  offset="0" style="stop-color:#B2A89E"/>
		<stop  offset="0.15" style="stop-color:#E9DED2"/>
		<stop  offset="0.25" style="stop-color:#F3EDE6"/>
		<stop  offset="0.52" style="stop-color:#CBC0B5"/>
		<stop  offset="0.69" style="stop-color:#B5ABA1"/>
		<stop  offset="0.8" style="stop-color:#AAA198"/>
		<stop  offset="0.97" style="stop-color:#A1988F"/>
		<stop  offset="1" style="stop-color:#B9AFA5"/>
	</linearGradient>
	<path fill="url(#SVGID_6_)" d="M175.516,93.793h23.25v35.25h-23.25V93.793z"/>
	
		<linearGradient id="SVGID_7_" gradientUnits="userSpaceOnUse" x1="233.2271" y1="177.8047" x2="202.2271" y2="177.8047" gradientTransform="matrix(0.75 0 0 -0.75 217.2899 244.8888)">
		<stop  offset="0" style="stop-color:#B2A89E"/>
		<stop  offset="0.15" style="stop-color:#E9DED2"/>
		<stop  offset="0.25" style="stop-color:#F3EDE6"/>
		<stop  offset="0.52" style="stop-color:#CBC0B5"/>
		<stop  offset="0.69" style="stop-color:#B5ABA1"/>
		<stop  offset="0.8" style="stop-color:#AAA198"/>
		<stop  offset="0.97" style="stop-color:#A1988F"/>
		<stop  offset="1" style="stop-color:#B9AFA5"/>
	</linearGradient>
	<path fill="url(#SVGID_7_)" d="M368.96,93.91h23.25v35.25h-23.25V93.91z"/>
	
		<linearGradient id="SVGID_8_" gradientUnits="userSpaceOnUse" x1="233.2246" y1="177.8047" x2="202.2246" y2="177.8047" gradientTransform="matrix(0.75 0 0 -0.75 116.4247 244.7706)">
		<stop  offset="0" style="stop-color:#B2A89E"/>
		<stop  offset="0.15" style="stop-color:#E9DED2"/>
		<stop  offset="0.25" style="stop-color:#F3EDE6"/>
		<stop  offset="0.52" style="stop-color:#CBC0B5"/>
		<stop  offset="0.69" style="stop-color:#B5ABA1"/>
		<stop  offset="0.8" style="stop-color:#AAA198"/>
		<stop  offset="0.97" style="stop-color:#A1988F"/>
		<stop  offset="1" style="stop-color:#B9AFA5"/>
	</linearGradient>
	<path fill="url(#SVGID_8_)" d="M268.094,93.793h23.25v35.25h-23.25V93.793z"/>
	<path fill="#FFFFFF" fill-opacity="0.3686" d="M224.426,275.789h108.75v136.5h-108.75V275.789z"/>
	
		<linearGradient id="SVGID_9_" gradientUnits="userSpaceOnUse" x1="256.0586" y1="201.3018" x2="256.0586" y2="92.9316" gradientTransform="matrix(0.75 0 0 -0.75 86.8495 163.215)">
		<stop  offset="0" style="stop-color:#A18F7D"/>
		<stop  offset="0.15" style="stop-color:#D6C1AB"/>
		<stop  offset="0.25" style="stop-color:#E8DDD3"/>
		<stop  offset="0.52" style="stop-color:#B8A48F"/>
		<stop  offset="0.69" style="stop-color:#A4927F"/>
		<stop  offset="0.8" style="stop-color:#9B8977"/>
		<stop  offset="0.97" style="stop-color:#928170"/>
		<stop  offset="1" style="stop-color:#A89582"/>
	</linearGradient>
	<path fill="url(#SVGID_9_)" d="M238.52,52.738c0-22.5,18.016-40.5,40.371-40.5c21.878,0,40.375,18.156,40.375,40.637
		c0.254,22.363-18.129,40.641-40.375,40.641c-22.371-0.277-40.371-18.223-40.371-40.641V52.738z"/>
	
		<linearGradient id="SVGID_10_" gradientUnits="userSpaceOnUse" x1="281.7612" y1="209.8979" x2="217.0007" y2="97.7294" gradientTransform="matrix(0.75 0 0 -0.75 91.8148 168.213)">
		<stop  offset="0" style="stop-color:#E9DED2"/>
		<stop  offset="0.45" style="stop-color:#F3EDE6"/>
		<stop  offset="1" style="stop-color:#B5ABA1"/>
	</linearGradient>
	<path fill="url(#SVGID_10_)" d="M243.484,53.234c0-20.25,15.801-36,35.406-36c19.343,0,35.41,15.926,35.41,35.641
		c-0.316,19.859-15.898,35.641-35.41,35.641c-19.656-0.031-35.406-15.98-35.406-35.641V53.234z"/>
	<path d="M263.422,30.508h30.75c3.75,0,6.859,3.023,6.859,6.762l-0.109,31.488c0,3.75-2.902,6.418-6.617,6.418l-30.882,0.332
		c-3.75,0-6.75-3.363-6.75-7.102V37.258c0-3.75,2.988-6.75,6.703-6.75H263.422z"/>
	
		<linearGradient id="SVGID_11_" gradientUnits="userSpaceOnUse" x1="216.7939" y1="201.3037" x2="216.7939" y2="18.3037" gradientTransform="matrix(0.75 0 0 -0.75 294.3905 159.4357)">
		<stop  offset="0" style="stop-color:#B2A89E"/>
		<stop  offset="0.15" style="stop-color:#E9DED2"/>
		<stop  offset="0.25" style="stop-color:#F3EDE6"/>
		<stop  offset="0.52" style="stop-color:#CBC0B5"/>
		<stop  offset="0.69" style="stop-color:#B5ABA1"/>
		<stop  offset="0.8" style="stop-color:#AAA198"/>
		<stop  offset="0.97" style="stop-color:#A1988F"/>
		<stop  offset="1" style="stop-color:#B9AFA5"/>
	</linearGradient>
	<path fill="url(#SVGID_11_)" d="M452.808,8.457h8.25c3.75,0,6.855,3.031,6.855,6.77l-0.105,123.73c0,3.75-2.906,6.566-6.617,6.566
		l-8.383,0.184c-3.75,0-6.75-3.215-6.75-6.953V15.207c0-3.75,3.012-6.75,6.727-6.75H452.808z"/>
	<path fill="#3E3938" d="M259.613,52.969c0-10.5,8.574-19.555,19.219-19.555c10.781,0.055,19.277,8.688,19.277,19.402
		c-0.246,10.652-8.629,19.402-19.277,19.402c-10.969,0.25-19.277-8.688-19.277-19.402L259.613,52.969z"/>
</g>
</svg>
