<?xml version="1.0" encoding="utf-8"?>
<!-- Generator: Adobe Illustrator 16.0.0, SVG Export Plug-In . SVG Version: 6.00 Build 0)  -->
<!DOCTYPE svg PUBLIC "-//W3C//DTD SVG 1.1//EN" "http://www.w3.org/Graphics/SVG/1.1/DTD/svg11.dtd">
<svg preserveAspectRatio="none"   version="1.1" id="图层_1" xmlns="http://www.w3.org/2000/svg" xmlns:xlink="http://www.w3.org/1999/xlink" x="0px" y="0px"
	 width="183.523px" height="556.992px" viewBox="191.422 5 183.523 556.992" enable-background="new 191.422 5 183.523 556.992"
	 xml:space="preserve">
<g id="surface321">
	
		<linearGradient id="SVGID_1_" gradientUnits="userSpaceOnUse" x1="216.2231" y1="82.8057" x2="202.2231" y2="82.8057" gradientTransform="matrix(0.75 0 0 -0.75 110.1761 535.2208)">
		<stop  offset="0" style="stop-color:#9E9E9E"/>
		<stop  offset="0.15" style="stop-color:#F6F6F6"/>
		<stop  offset="0.26" style="stop-color:#FFFFFF"/>
		<stop  offset="0.41" style="stop-color:#FFFFFF"/>
		<stop  offset="0.6" style="stop-color:#D1D1D1"/>
		<stop  offset="0.8" style="stop-color:#A8A8A8"/>
		<stop  offset="0.93" style="stop-color:#898989"/>
	</linearGradient>
	<path fill="url(#SVGID_1_)" d="M261.844,384.242h10.5v177.75h-10.5V384.242z"/>
	
		<linearGradient id="SVGID_2_" gradientUnits="userSpaceOnUse" x1="401.4468" y1="188.2412" x2="201.2241" y2="188.2412" gradientTransform="matrix(0.75 0 0 -0.75 40.5033 310.1349)">
		<stop  offset="0" style="stop-color:#7E8E7A"/>
		<stop  offset="0.15" style="stop-color:#C6DEC0"/>
		<stop  offset="0.26" style="stop-color:#D3E9CE"/>
		<stop  offset="0.41" style="stop-color:#CEE6C8"/>
		<stop  offset="0.6" style="stop-color:#A8BDA3"/>
		<stop  offset="0.8" style="stop-color:#869782"/>
		<stop  offset="0.93" style="stop-color:#6D7B6A"/>
	</linearGradient>
	<path fill="url(#SVGID_2_)" d="M195.172,159.156h142.5c2.25,0,3.918,1.609,3.918,3.645l-0.168,12.105
		c0,2.25-1.48,3.848-3.516,3.848l-142.734-0.098c-1.5,0-3.383-1.551-3.383-3.586l-0.367-12.164c0-2.25,2.016-3.75,4.051-3.75
		H195.172z"/>
	
		<linearGradient id="SVGID_3_" gradientUnits="userSpaceOnUse" x1="374.3022" y1="131.3027" x2="202.2241" y2="131.3027" gradientTransform="matrix(0.75 0 0 -0.75 50.8114 205.0861)">
		<stop  offset="0" style="stop-color:#7E8E7A"/>
		<stop  offset="0.3" style="stop-color:#C6DEC0"/>
		<stop  offset="0.34" style="stop-color:#D3E9CE"/>
		<stop  offset="0.41" style="stop-color:#CEE6C8"/>
		<stop  offset="0.6" style="stop-color:#A8BDA3"/>
		<stop  offset="0.8" style="stop-color:#869782"/>
		<stop  offset="1" style="stop-color:#6D7B6A"/>
	</linearGradient>
	<path fill="url(#SVGID_3_)" d="M202.48,159.109l129.058-0.273c-29.309,0.273-35.074-104.727-35.074-104.727H237.73
		c0,0-6.211,104.727-35.25,104.727V159.109z"/>
	
		<linearGradient id="SVGID_4_" gradientUnits="userSpaceOnUse" x1="323.2427" y1="201.4502" x2="323.2427" y2="116.9453" gradientTransform="matrix(0.75 0 0 -0.75 41.5482 156.088)">
		<stop  offset="0" style="stop-color:#90A38C"/>
		<stop  offset="0.03" style="stop-color:#D8EBD4"/>
		<stop  offset="0.05" style="stop-color:#BDD4B7"/>
		<stop  offset="0.64" style="stop-color:#BAD0B4"/>
		<stop  offset="0.95" style="stop-color:#B5CCB0"/>
		<stop  offset="1" style="stop-color:#869782"/>
	</linearGradient>
	<path fill="url(#SVGID_4_)" d="M194.719,5.109h178.5c0.75,0,1.727,0.836,1.727,2.004l-0.227,59.496c0,0.75-0.469,1.77-1.324,1.77
		l-178.675-0.27c-0.75,0-1.703-0.676-1.703-1.844l0.203-58.906c0-1.5,0.488-2.359,1.344-2.359L194.719,5.109z"/>
	
		<linearGradient id="SVGID_5_" gradientUnits="userSpaceOnUse" x1="258.2227" y1="193.8047" x2="202.2236" y2="193.8047" gradientTransform="matrix(0.75 0 0 -0.75 94.4257 329.8136)">
		<stop  offset="0" style="stop-color:#7E8E7A"/>
		<stop  offset="0.15" style="stop-color:#C6DEC0"/>
		<stop  offset="0.26" style="stop-color:#D3E9CE"/>
		<stop  offset="0.41" style="stop-color:#CEE6C8"/>
		<stop  offset="0.6" style="stop-color:#A8BDA3"/>
		<stop  offset="0.8" style="stop-color:#869782"/>
		<stop  offset="0.93" style="stop-color:#6D7B6A"/>
	</linearGradient>
	<path fill="url(#SVGID_5_)" d="M246.094,178.836h42v11.25h-42V178.836z"/>
	
		<linearGradient id="SVGID_6_" gradientUnits="userSpaceOnUse" x1="243.2236" y1="70.8052" x2="202.2236" y2="70.8052" gradientTransform="matrix(0.75 0 0 -0.75 99.8788 340.712)">
		<stop  offset="0" style="stop-color:#9E9E9E"/>
		<stop  offset="0.15" style="stop-color:#F6F6F6"/>
		<stop  offset="0.26" style="stop-color:#FFFFFF"/>
		<stop  offset="0.41" style="stop-color:#FFFFFF"/>
		<stop  offset="0.6" style="stop-color:#D1D1D1"/>
		<stop  offset="0.8" style="stop-color:#A8A8A8"/>
		<stop  offset="0.93" style="stop-color:#898989"/>
	</linearGradient>
	<path fill="url(#SVGID_6_)" d="M251.547,189.734h30.75v195.75h-30.75V189.734z"/>
	
		<linearGradient id="SVGID_7_" gradientUnits="userSpaceOnUse" x1="284.2251" y1="198.8027" x2="202.2256" y2="198.8027" gradientTransform="matrix(0.75 0 0 -0.75 83.182 218.6681)">
		<stop  offset="0" style="stop-color:#6C8566"/>
		<stop  offset="0.3" style="stop-color:#ABD0A2"/>
		<stop  offset="0.34" style="stop-color:#BCDCB3"/>
		<stop  offset="0.41" style="stop-color:#B3D8A9"/>
		<stop  offset="0.6" style="stop-color:#91B189"/>
		<stop  offset="0.8" style="stop-color:#748D6D"/>
		<stop  offset="1" style="stop-color:#5E7358"/>
	</linearGradient>
	<path fill="url(#SVGID_7_)" d="M296.351,67.691h-61.5v3.75h61.5V67.691z"/>
	<path stroke="#000000" stroke-linejoin="bevel" stroke-miterlimit="10" d="M193.156,47.766c0-22.5,18.535-41.25,41.418-41.25
		c23.082,0,41.418,18.555,41.418,41.453c-0.336,23.047-18.547,41.449-41.418,41.449c-22.668,0.348-41.418-18.566-41.418-41.449
		V47.766z"/>
	<path fill="#9E9F9F" d="M196.652,48.27c0-21,16.973-38.25,37.922-38.25c20.578,0,37.918,16.984,37.918,37.949
		c-0.09,21.301-16.98,37.949-37.918,37.949c-20.672-0.148-37.922-17-37.922-37.949V48.27z"/>
	<path fill="#EBEAE9" d="M197.863,47.98c0-20.25,16.43-36.75,36.711-36.75c20.289,0,36.707,16.441,36.707,36.738
		c0.082,20.262-16.438,36.738-36.707,36.738c-20.211,0.023-36.711-16.457-36.711-36.738V47.98z"/>
	<path stroke="#000000" stroke-linejoin="bevel" stroke-miterlimit="10" d="M210.445,69.676l22.5-20.25c0,0,7.02-6.27,8.668-11.961
		c0.332-0.039,0.988-1.816,2.813,0l2.77,3.711c0,0,1.922,2.805-0.801,2.805c0.051,0.195-6.184,1.57-12.617,7.18L210.445,69.676z"/>
	<path stroke="#000000" stroke-linejoin="bevel" stroke-miterlimit="10" d="M232.629,48.387c0-1.5,1.344-3,3.008-3
		c1.492,0,3.008,1.348,3.008,3.016c-0.016,1.484-1.348,3.004-3.008,3.004c-1.508-0.02-3.008-1.348-3.008-3.004V48.387z"/>
	
		<linearGradient id="SVGID_8_" gradientUnits="userSpaceOnUse" x1="207.0698" y1="198.8896" x2="202.2197" y2="198.8896" gradientTransform="matrix(0.75 0 0 -0.75 82.1512 197.5695)">
		<stop  offset="0" style="stop-color:#C4AA84"/>
		<stop  offset="0.15" style="stop-color:#FFE0B3"/>
		<stop  offset="0.25" style="stop-color:#FFEED7"/>
		<stop  offset="0.44" style="stop-color:#DFC297"/>
		<stop  offset="0.6" style="stop-color:#C7AD86"/>
		<stop  offset="0.8" style="stop-color:#A89170"/>
		<stop  offset="0.97" style="stop-color:#998566"/>
		<stop  offset="1" style="stop-color:#CBB189"/>
	</linearGradient>
	<path fill="url(#SVGID_8_)" d="M233.82,48.094c0-0.75,0.809-1.512,1.809-1.512c1.191,0.012,1.813,0.813,1.813,1.816
		c0.129,1.195-0.809,1.813-1.813,1.813c-1.059,0.133-1.813-0.813-1.813-1.813L233.82,48.094z"/>
	<path fill="none" stroke="#000000" stroke-linejoin="bevel" stroke-miterlimit="10" d="M250.461,17.992l-2.25,4.5"/>
	<path fill="none" stroke="#000000" stroke-linejoin="bevel" stroke-miterlimit="10" d="M219.348,17.992l2.25,4.5"/>
	<path fill="none" stroke="#000000" stroke-linejoin="bevel" stroke-miterlimit="10" d="M263.629,43.824l5.25-0.75"/>
	<path fill="none" stroke="#000000" stroke-linejoin="bevel" stroke-miterlimit="10" d="M255.219,69.145l3.75,3.75"/>
	<path fill="none" stroke="#000000" stroke-linejoin="bevel" stroke-miterlimit="10" d="M213.789,66.918l-4.5,3.75"/>
	<path fill="none" stroke="#000000" stroke-linejoin="bevel" stroke-miterlimit="10" d="M206.047,44.074l-5.25-0.75"/>
	<path stroke="#000000" stroke-linejoin="bevel" stroke-miterlimit="10" d="M226.855,72.695h15.75v7.5h-15.75V72.695z"/>
	<path fill="none" stroke="#FFFFFF" stroke-width="0.75" stroke-linejoin="bevel" stroke-miterlimit="10" d="M228.141,73.781h12.75
		v5.25h-12.75V73.781z"/>
	<path fill="#FFFFFF" fill-opacity="0.7255" d="M252.328,59.578c16.5-24.75-2.586-46.5-2.586-46.5
		c13.086,6,22.762,19.262,22.762,34.824c0.074,20.676-16.992,37.961-37.926,37.961c-8.5-0.035-15.801-2.609-22-7.043
		c0.75,1.008,23.18,6.25,39.754-18.996L252.328,59.578z"/>
</g>
</svg>
