<?xml version="1.0" encoding="utf-8"?>
<!-- Generator: Adobe Illustrator 16.0.0, SVG Export Plug-In . SVG Version: 6.00 Build 0)  -->
<!DOCTYPE svg PUBLIC "-//W3C//DTD SVG 1.1//EN" "http://www.w3.org/Graphics/SVG/1.1/DTD/svg11.dtd">
<svg preserveAspectRatio="none" version="1.1" id="图层_1" xmlns="http://www.w3.org/2000/svg" xmlns:xlink="http://www.w3.org/1999/xlink" x="0px" y="0px"
	 width="552.197px" height="436.515px" viewBox="7.246 65.371 552.197 436.515"
	 enable-background="new 7.246 65.371 552.197 436.515" xml:space="preserve">
<g id="surface191">
	<path fill="#D6A46E" stroke="#D6A46E" stroke-width="0.25" stroke-linejoin="bevel" stroke-miterlimit="10" d="M7.809,110.262
		h489.75v391.5H7.809V110.262z"/>
	<path fill="#E3C29E" stroke="#E3C29E" stroke-width="0.25" stroke-linejoin="bevel" stroke-miterlimit="10" d="M495.531,110.496
		l63.75-45v391.5l-63.75,44.25V110.496z"/>
	<path fill="#DEB68C" stroke="#DEB68C" stroke-width="0.25" stroke-linejoin="bevel" stroke-miterlimit="10" d="M71.871,65.496
		h487.5l-63.75,45H7.371L71.871,65.496z"/>
	<path fill="#FFD900" stroke="#FFD900" stroke-width="0.25" stroke-linejoin="bevel" stroke-miterlimit="10" d="M7.371,262.039h25.5
		v25.5h-25.5V262.039z"/>
	<path stroke="#000000" stroke-width="0.25" stroke-linejoin="bevel" stroke-miterlimit="10" d="M7.371,287.675h25.5v25.5h-25.5
		V287.675z"/>
	<path stroke="#000000" stroke-width="0.25" stroke-linejoin="bevel" stroke-miterlimit="10" d="M33.086,262.039h25.5v25.5h-25.5
		V262.039z"/>
	<path fill="#FFD900" stroke="#FFD900" stroke-width="0.25" stroke-linejoin="bevel" stroke-miterlimit="10" d="M33.086,287.675
		h25.5v25.5h-25.5V287.675z"/>
	<path fill="#FFD900" stroke="#FFD900" stroke-width="0.25" stroke-linejoin="bevel" stroke-miterlimit="10" d="M58.758,262.039
		h25.5v25.5h-25.5V262.039z"/>
	<path stroke="#000000" stroke-width="0.25" stroke-linejoin="bevel" stroke-miterlimit="10" d="M58.758,287.675h25.5v25.5h-25.5
		V287.675z"/>
	<path stroke="#000000" stroke-width="0.25" stroke-linejoin="bevel" stroke-miterlimit="10" d="M84.473,262.039h25.5v25.5h-25.5
		V262.039z"/>
	<path fill="#FFD900" stroke="#FFD900" stroke-width="0.25" stroke-linejoin="bevel" stroke-miterlimit="10" d="M84.473,287.675
		h25.5v25.5h-25.5V287.675z"/>
	<path fill="#FFD900" stroke="#FFD900" stroke-width="0.25" stroke-linejoin="bevel" stroke-miterlimit="10" d="M109.602,262.039
		h25.5v25.5h-25.5V262.039z"/>
	<path stroke="#000000" stroke-width="0.25" stroke-linejoin="bevel" stroke-miterlimit="10" d="M109.602,287.675h25.5v25.5h-25.5
		V287.675z"/>
	<path stroke="#000000" stroke-width="0.25" stroke-linejoin="bevel" stroke-miterlimit="10" d="M135.32,262.039h25.5v25.5h-25.5
		V262.039z"/>
	<path fill="#FFD900" stroke="#FFD900" stroke-width="0.25" stroke-linejoin="bevel" stroke-miterlimit="10" d="M135.32,287.675
		h25.5v25.5h-25.5V287.675z"/>
	<path fill="#FFD900" stroke="#FFD900" stroke-width="0.25" stroke-linejoin="bevel" stroke-miterlimit="10" d="M160.992,262.039
		h25.5v25.5h-25.5V262.039z"/>
	<path stroke="#000000" stroke-width="0.25" stroke-linejoin="bevel" stroke-miterlimit="10" d="M160.992,287.675h25.5v25.5h-25.5
		V287.675z"/>
	<path stroke="#000000" stroke-width="0.25" stroke-linejoin="bevel" stroke-miterlimit="10" d="M186.707,262.039h25.5v25.5h-25.5
		V262.039z"/>
	<path fill="#FFD900" stroke="#FFD900" stroke-width="0.25" stroke-linejoin="bevel" stroke-miterlimit="10" d="M186.707,287.675
		h25.5v25.5h-25.5V287.675z"/>
	<path fill="#FFD900" stroke="#FFD900" stroke-width="0.25" stroke-linejoin="bevel" stroke-miterlimit="10" d="M212.313,262.039
		h25.5v25.5h-25.5V262.039z"/>
	<path stroke="#000000" stroke-width="0.25" stroke-linejoin="bevel" stroke-miterlimit="10" d="M212.313,287.675h25.5v25.5h-25.5
		V287.675z"/>
	<path stroke="#000000" stroke-width="0.25" stroke-linejoin="bevel" stroke-miterlimit="10" d="M238.027,262.039h25.5v25.5h-25.5
		V262.039z"/>
	<path fill="#FFD900" stroke="#FFD900" stroke-width="0.25" stroke-linejoin="bevel" stroke-miterlimit="10" d="M238.027,287.675
		h25.5v25.5h-25.5V287.675z"/>
	<path fill="#FFD900" stroke="#FFD900" stroke-width="0.25" stroke-linejoin="bevel" stroke-miterlimit="10" d="M263.699,262.039
		h25.5v25.5h-25.5V262.039z"/>
	<path stroke="#000000" stroke-width="0.25" stroke-linejoin="bevel" stroke-miterlimit="10" d="M263.699,287.675h25.5v25.5h-25.5
		V287.675z"/>
	<path stroke="#000000" stroke-width="0.25" stroke-linejoin="bevel" stroke-miterlimit="10" d="M289.414,262.039h25.5v25.5h-25.5
		V262.039z"/>
	<path fill="#FFD900" stroke="#FFD900" stroke-width="0.25" stroke-linejoin="bevel" stroke-miterlimit="10" d="M289.414,287.675
		h25.5v25.5h-25.5V287.675z"/>
	<path fill="#FFD900" stroke="#FFD900" stroke-width="0.25" stroke-linejoin="bevel" stroke-miterlimit="10" d="M314.542,262.039
		h25.5v25.5h-25.5V262.039z"/>
	<path stroke="#000000" stroke-width="0.25" stroke-linejoin="bevel" stroke-miterlimit="10" d="M314.542,287.675h25.5v25.5h-25.5
		V287.675z"/>
	<path stroke="#000000" stroke-width="0.25" stroke-linejoin="bevel" stroke-miterlimit="10" d="M340.261,262.039h25.5v25.5h-25.5
		V262.039z"/>
	<path fill="#FFD900" stroke="#FFD900" stroke-width="0.25" stroke-linejoin="bevel" stroke-miterlimit="10" d="M340.261,287.675
		h25.5v25.5h-25.5V287.675z"/>
	<path fill="#FFD900" stroke="#FFD900" stroke-width="0.25" stroke-linejoin="bevel" stroke-miterlimit="10" d="M365.933,262.039
		h25.5v25.5h-25.5V262.039z"/>
	<path stroke="#000000" stroke-width="0.25" stroke-linejoin="bevel" stroke-miterlimit="10" d="M365.933,287.675h25.5v25.5h-25.5
		V287.675z"/>
	<path stroke="#000000" stroke-width="0.25" stroke-linejoin="bevel" stroke-miterlimit="10" d="M391.648,262.039h25.5v25.5h-25.5
		V262.039z"/>
	<path fill="#FFD900" stroke="#FFD900" stroke-width="0.25" stroke-linejoin="bevel" stroke-miterlimit="10" d="M391.648,287.675
		h25.5v25.5h-25.5V287.675z"/>
	<path fill="#FFD900" stroke="#FFD900" stroke-width="0.25" stroke-linejoin="bevel" stroke-miterlimit="10" d="M418.824,262.039
		h25.5v25.5h-25.5V262.039z"/>
	<path stroke="#000000" stroke-width="0.25" stroke-linejoin="bevel" stroke-miterlimit="10" d="M418.824,287.675h25.5v25.5h-25.5
		V287.675z"/>
	<path stroke="#000000" stroke-width="0.25" stroke-linejoin="bevel" stroke-miterlimit="10" d="M444.539,262.039h25.5v25.5h-25.5
		V262.039z"/>
	<path fill="#FFD900" stroke="#FFD900" stroke-width="0.25" stroke-linejoin="bevel" stroke-miterlimit="10" d="M444.539,287.675
		h25.5v25.5h-25.5V287.675z"/>
	<path fill="#FFD900" stroke="#FFD900" stroke-width="0.25" stroke-linejoin="bevel" stroke-miterlimit="10" d="M470.21,262.039
		h25.5v25.5h-25.5V262.039z"/>
	<path stroke="#000000" stroke-width="0.25" stroke-linejoin="bevel" stroke-miterlimit="10" d="M470.21,287.675h25.5v25.5h-25.5
		V287.675z"/>
	<path fill="#FFD900" stroke="#FFD900" stroke-width="0.25" stroke-linejoin="bevel" stroke-miterlimit="10" d="M418.824,262.039
		h25.5v25.5h-25.5V262.039z"/>
	<path stroke="#000000" stroke-width="0.25" stroke-linejoin="bevel" stroke-miterlimit="10" d="M418.824,287.675h25.5v25.5h-25.5
		V287.675z"/>
	<path stroke="#000000" stroke-width="0.25" stroke-linejoin="bevel" stroke-miterlimit="10" d="M444.539,262.039h25.5v25.5h-25.5
		V262.039z"/>
	<path fill="#FFD900" stroke="#FFD900" stroke-width="0.25" stroke-linejoin="bevel" stroke-miterlimit="10" d="M444.539,287.675
		h25.5v25.5h-25.5V287.675z"/>
	<path fill="#FFD900" stroke="#FFD900" stroke-width="0.25" stroke-linejoin="bevel" stroke-miterlimit="10" d="M527.851,241.48
		l10.5-6.75v25.5l-10.5,6.75V241.48z"/>
	<path stroke="#000000" stroke-width="0.25" stroke-linejoin="bevel" stroke-miterlimit="10" d="M527.851,267.117l10.5-6.75v25.5
		l-10.5,6.75V267.117z"/>
	<path stroke="#000000" stroke-width="0.25" stroke-linejoin="bevel" stroke-miterlimit="10" d="M495.925,261.926l10.5-6.75v25.5
		l-10.5,6.75V261.926z"/>
	<path fill="#FFD900" stroke="#FFD900" stroke-width="0.25" stroke-linejoin="bevel" stroke-miterlimit="10" d="M495.925,287.566
		l10.5-6.75v25.5l-10.5,6.75V287.566z"/>
	<path fill="#FFD900" stroke="#FFD900" stroke-width="0.25" stroke-linejoin="bevel" stroke-miterlimit="10" d="M506.41,255.211
		l10.5-6.75v25.5l-10.5,6.75V255.211z"/>
	<path stroke="#000000" stroke-width="0.25" stroke-linejoin="bevel" stroke-miterlimit="10" d="M506.41,280.852l10.5-6.75v25.5
		l-10.5,6.75V280.852z"/>
	<path stroke="#000000" stroke-width="0.25" stroke-linejoin="bevel" stroke-miterlimit="10" d="M517.14,248.34l10.5-6.75v25.5
		l-10.5,6.75V248.34z"/>
	<path fill="#FFD900" stroke="#FFD900" stroke-width="0.25" stroke-linejoin="bevel" stroke-miterlimit="10" d="M517.14,274
		l10.5-6.75v25.5l-10.5,6.75V274z"/>
</g>
</svg>
