<?xml version="1.0" encoding="utf-8"?>
<!-- Generator: Adobe Illustrator 16.0.0, SVG Export Plug-In . SVG Version: 6.00 Build 0)  -->
<!DOCTYPE svg PUBLIC "-//W3C//DTD SVG 1.1//EN" "http://www.w3.org/Graphics/SVG/1.1/DTD/svg11.dtd">
<svg preserveAspectRatio="none" version="1.1" id="图层_1" xmlns="http://www.w3.org/2000/svg" xmlns:xlink="http://www.w3.org/1999/xlink" x="0px" y="0px"
	 width="563.015px" height="555.535px" viewBox="1.875 5.578 563.015 555.535" enable-background="new 1.875 5.578 563.015 555.535"
	 xml:space="preserve">
<g id="surface291">
	
		<linearGradient id="SVGID_1_" gradientUnits="userSpaceOnUse" x1="230.2241" y1="201.3057" x2="230.2241" y2="163.3057" gradientTransform="matrix(0.75 0 0 -0.75 -58.6329 529.8859)">
		<stop  offset="0" style="stop-color:#424141"/>
		<stop  offset="0.15" style="stop-color:#6D6C6C"/>
		<stop  offset="0.25" style="stop-color:#BCBCBC"/>
		<stop  offset="0.52" style="stop-color:#4D4B4B"/>
		<stop  offset="0.69" style="stop-color:#434242"/>
		<stop  offset="0.8" style="stop-color:#3F3E3E"/>
		<stop  offset="0.97" style="stop-color:#3B3A3A"/>
		<stop  offset="1" style="stop-color:#454444"/>
	</linearGradient>
	<path fill="url(#SVGID_1_)" d="M135.035,378.906h-42v28.5h42V378.906z"/>
	<path fill="#595757" d="M135.27,275.383h-20.25v75.75h20.25V275.383z"/>
	
		<linearGradient id="SVGID_2_" gradientUnits="userSpaceOnUse" x1="608.2241" y1="-24.6929" x2="202.2241" y2="-24.6929" gradientTransform="matrix(0.75 0 0 -0.75 -19.3488 295.8615)">
		<stop  offset="0" style="stop-color:#292525"/>
		<stop  offset="0.03" style="stop-color:#868584"/>
		<stop  offset="0.08" style="stop-color:#383433"/>
		<stop  offset="0.64" style="stop-color:#373332"/>
		<stop  offset="0.95" style="stop-color:#363130"/>
		<stop  offset="1" style="stop-color:#252221"/>
	</linearGradient>
	<path fill="url(#SVGID_2_)" d="M132.32,144.883h304.5v339h-304.5V144.883z"/>
	
		<linearGradient id="SVGID_3_" gradientUnits="userSpaceOnUse" x1="419.228" y1="201.3008" x2="419.228" y2="97.3008" gradientTransform="matrix(0.75 0 0 -0.75 -30.0338 634.089)">
		<stop  offset="0" style="stop-color:#9D938D"/>
		<stop  offset="0.03" style="stop-color:#E5DBD5"/>
		<stop  offset="0.08" style="stop-color:#CCC0B8"/>
		<stop  offset="0.64" style="stop-color:#C9BDB5"/>
		<stop  offset="0.95" style="stop-color:#C4B9B1"/>
		<stop  offset="1" style="stop-color:#918983"/>
	</linearGradient>
	<path fill="url(#SVGID_3_)" d="M121.637,483.113h325.5v78h-325.5V483.113z"/>
	
		<linearGradient id="SVGID_4_" gradientUnits="userSpaceOnUse" x1="220.2256" y1="201.3076" x2="220.2256" y2="125.3076" gradientTransform="matrix(0.75 0 0 -0.75 -57.3053 634.0851)">
		<stop  offset="0" style="stop-color:#978F88"/>
		<stop  offset="0.15" style="stop-color:#CAC0B9"/>
		<stop  offset="0.25" style="stop-color:#E2DDDA"/>
		<stop  offset="0.52" style="stop-color:#ADA39C"/>
		<stop  offset="0.69" style="stop-color:#9A918B"/>
		<stop  offset="0.8" style="stop-color:#918983"/>
		<stop  offset="0.97" style="stop-color:#89817B"/>
		<stop  offset="1" style="stop-color:#9D948E"/>
	</linearGradient>
	<path fill="url(#SVGID_4_)" d="M94.363,483.105h27v57h-27V483.105z"/>
	
		<linearGradient id="SVGID_5_" gradientUnits="userSpaceOnUse" x1="220.2275" y1="201.3086" x2="220.2275" y2="125.3076" gradientTransform="matrix(0.75 0 0 -0.75 295.6034 634.0851)">
		<stop  offset="0" style="stop-color:#978F88"/>
		<stop  offset="0.15" style="stop-color:#CAC0B9"/>
		<stop  offset="0.25" style="stop-color:#E2DDDA"/>
		<stop  offset="0.52" style="stop-color:#ADA39C"/>
		<stop  offset="0.69" style="stop-color:#9A918B"/>
		<stop  offset="0.8" style="stop-color:#918983"/>
		<stop  offset="0.97" style="stop-color:#89817B"/>
		<stop  offset="1" style="stop-color:#9D948E"/>
	</linearGradient>
	<path fill="url(#SVGID_5_)" d="M447.273,483.105h27v57h-27V483.105z"/>
	
		<linearGradient id="SVGID_6_" gradientUnits="userSpaceOnUse" x1="216.2246" y1="201.3047" x2="216.2246" y2="164.3047" gradientTransform="matrix(0.75 0 0 -0.75 -78.5743 648.6808)">
		<stop  offset="0" style="stop-color:#BAC0C1"/>
		<stop  offset="0.15" style="stop-color:#F4FAFC"/>
		<stop  offset="0.25" style="stop-color:#F8FCFD"/>
		<stop  offset="0.52" style="stop-color:#D5DBDD"/>
		<stop  offset="0.69" style="stop-color:#BDC3C4"/>
		<stop  offset="0.8" style="stop-color:#B3B8B9"/>
		<stop  offset="0.97" style="stop-color:#A9AEAF"/>
		<stop  offset="1" style="stop-color:#C2C7C9"/>
	</linearGradient>
	<path fill="url(#SVGID_6_)" d="M73.094,497.703h21v27.75h-21V497.703z"/>
	
		<linearGradient id="SVGID_7_" gradientUnits="userSpaceOnUse" x1="225.7295" y1="201.3076" x2="225.7295" y2="125.3076" gradientTransform="matrix(0.75 0 0 -0.75 -113.9874 634.0851)">
		<stop  offset="0" style="stop-color:#978F88"/>
		<stop  offset="0.15" style="stop-color:#CAC0B9"/>
		<stop  offset="0.25" style="stop-color:#E2DDDA"/>
		<stop  offset="0.52" style="stop-color:#ADA39C"/>
		<stop  offset="0.69" style="stop-color:#9A918B"/>
		<stop  offset="0.8" style="stop-color:#918983"/>
		<stop  offset="0.97" style="stop-color:#89817B"/>
		<stop  offset="1" style="stop-color:#9D948E"/>
	</linearGradient>
	<path fill="url(#SVGID_7_)" d="M37.684,483.105h35.25v57h-35.25V483.105z"/>
	
		<linearGradient id="SVGID_8_" gradientUnits="userSpaceOnUse" x1="225.7271" y1="201.3018" x2="225.7271" y2="182.3018" gradientTransform="matrix(0.75 0 0 -0.75 -149.7946 655.4484)">
		<stop  offset="0" style="stop-color:#BAC0C1"/>
		<stop  offset="0.15" style="stop-color:#F4FAFC"/>
		<stop  offset="0.25" style="stop-color:#F8FCFD"/>
		<stop  offset="0.52" style="stop-color:#D5DBDD"/>
		<stop  offset="0.69" style="stop-color:#BDC3C4"/>
		<stop  offset="0.8" style="stop-color:#B3B8B9"/>
		<stop  offset="0.97" style="stop-color:#A9AEAF"/>
		<stop  offset="1" style="stop-color:#C2C7C9"/>
	</linearGradient>
	<path fill="url(#SVGID_8_)" d="M1.875,504.472h35.25v14.25H1.875V504.472z"/>
	
		<linearGradient id="SVGID_9_" gradientUnits="userSpaceOnUse" x1="216.2246" y1="201.3057" x2="216.2246" y2="164.3057" gradientTransform="matrix(0.75 0 0 -0.75 322.7733 648.6808)">
		<stop  offset="0" style="stop-color:#BAC0C1"/>
		<stop  offset="0.15" style="stop-color:#F4FAFC"/>
		<stop  offset="0.25" style="stop-color:#F8FCFD"/>
		<stop  offset="0.52" style="stop-color:#D5DBDD"/>
		<stop  offset="0.69" style="stop-color:#BDC3C4"/>
		<stop  offset="0.8" style="stop-color:#B3B8B9"/>
		<stop  offset="0.97" style="stop-color:#A9AEAF"/>
		<stop  offset="1" style="stop-color:#C2C7C9"/>
	</linearGradient>
	<path fill="url(#SVGID_9_)" d="M474.441,497.703h21v27.75h-21V497.703z"/>
	
		<linearGradient id="SVGID_10_" gradientUnits="userSpaceOnUse" x1="225.7285" y1="201.3086" x2="225.7285" y2="125.3086" gradientTransform="matrix(0.75 0 0 -0.75 343.1805 634.0851)">
		<stop  offset="0" style="stop-color:#978F88"/>
		<stop  offset="0.15" style="stop-color:#CAC0B9"/>
		<stop  offset="0.25" style="stop-color:#E2DDDA"/>
		<stop  offset="0.52" style="stop-color:#ADA39C"/>
		<stop  offset="0.69" style="stop-color:#9A918B"/>
		<stop  offset="0.8" style="stop-color:#918983"/>
		<stop  offset="0.97" style="stop-color:#89817B"/>
		<stop  offset="1" style="stop-color:#9D948E"/>
	</linearGradient>
	<path fill="url(#SVGID_10_)" d="M494.851,483.105h35.25v57h-35.25V483.105z"/>
	
		<linearGradient id="SVGID_11_" gradientUnits="userSpaceOnUse" x1="225.7241" y1="201.3027" x2="225.7241" y2="182.3027" gradientTransform="matrix(0.75 0 0 -0.75 377.9725 655.4484)">
		<stop  offset="0" style="stop-color:#BAC0C1"/>
		<stop  offset="0.15" style="stop-color:#F4FAFC"/>
		<stop  offset="0.25" style="stop-color:#F8FCFD"/>
		<stop  offset="0.52" style="stop-color:#D5DBDD"/>
		<stop  offset="0.69" style="stop-color:#BDC3C4"/>
		<stop  offset="0.8" style="stop-color:#B3B8B9"/>
		<stop  offset="0.97" style="stop-color:#A9AEAF"/>
		<stop  offset="1" style="stop-color:#C2C7C9"/>
	</linearGradient>
	<path fill="url(#SVGID_11_)" d="M529.64,504.472h35.25v14.25h-35.25V504.472z"/>
	<path fill="#FFFFFF" fill-opacity="0.298" d="M208.387,483.113h152.25v78h-152.25V483.113z"/>
	
		<linearGradient id="SVGID_12_" gradientUnits="userSpaceOnUse" x1="593.0405" y1="243.0215" x2="219.7503" y2="107.155" gradientTransform="matrix(0.75 0 0 -0.75 -19.3488 261.6876)">
		<stop  offset="0" style="stop-color:#292525"/>
		<stop  offset="0.07" style="stop-color:#868584"/>
		<stop  offset="0.13" style="stop-color:#383433"/>
		<stop  offset="0.64" style="stop-color:#373332"/>
		<stop  offset="0.95" style="stop-color:#363130"/>
		<stop  offset="1" style="stop-color:#252221"/>
	</linearGradient>
	<path fill="url(#SVGID_12_)" d="M147.32,110.711h273l16.5,34.5h-304.5L147.32,110.711z"/>
	
		<linearGradient id="SVGID_13_" gradientUnits="userSpaceOnUse" x1="567.2261" y1="131.3062" x2="202.2271" y2="131.3061" gradientTransform="matrix(0.75 0 0 -0.75 -4.2877 156.5568)">
		<stop  offset="0" style="stop-color:#292525"/>
		<stop  offset="0.03" style="stop-color:#868584"/>
		<stop  offset="0.08" style="stop-color:#383433"/>
		<stop  offset="0.64" style="stop-color:#373332"/>
		<stop  offset="0.95" style="stop-color:#363130"/>
		<stop  offset="1" style="stop-color:#252221"/>
	</linearGradient>
	<path fill="url(#SVGID_13_)" d="M147.383,110.578h273.75v-105h-273.75V110.578z"/>
	<path fill="#BDC1CD" d="M170.082,194.898h234c3,0,4.871,2.102,4.871,4.781l-0.371,224.718c0,3-1.859,4.961-4.559,4.961
		l-233.941,0.289c-2.25,0-4.5-2.469-4.5-5.148V199.398c0-2.25,2.098-4.5,4.797-4.5H170.082z"/>
	<path fill="#B4B5B5" d="M177.227,17.309h212.25v64.5h-212.25V17.309z"/>
	<path fill="#718278" d="M180.684,20.945h205.5v57.75h-205.5V20.945z"/>
	
		<linearGradient id="SVGID_14_" gradientUnits="userSpaceOnUse" x1="216.2266" y1="201.3057" x2="216.2266" y2="156.3057" gradientTransform="matrix(0.75 0 0 -0.75 -78.4357 527.3068)">
		<stop  offset="0" style="stop-color:#424141"/>
		<stop  offset="0.15" style="stop-color:#6D6C6C"/>
		<stop  offset="0.25" style="stop-color:#BCBCBC"/>
		<stop  offset="0.52" style="stop-color:#4D4B4B"/>
		<stop  offset="0.69" style="stop-color:#434242"/>
		<stop  offset="0.8" style="stop-color:#3F3E3E"/>
		<stop  offset="0.97" style="stop-color:#3B3A3A"/>
		<stop  offset="1" style="stop-color:#454444"/>
	</linearGradient>
	<path fill="url(#SVGID_14_)" d="M94.234,376.328h-21v33.75h21V376.328z"/>
	<path fill="#FFFFFF" fill-opacity="0.1137" d="M170.082,193.668c0,0,80.48,3.777,99.563,45.477
		c18.937,41.523,12.973,108.417,70.214,127.371c57.473,19.152,69.094,57.984,69.094,57.984c-0.371,2.418-2.23,4.859-4.93,4.859
		l-233.941-0.191c-2.25,0-4.5-1.988-4.5-4.668V199.668c0-3,2.098-6,4.797-6H170.082z"/>
	<path fill="#FFFFFF" fill-opacity="0.2314" d="M189.527,395.054c0-13.5,11.207-24.805,25.082-24.805
		c13.918,0.055,25.031,11.148,25.031,24.934c0.137,13.371-11.223,24.879-25.031,24.879c-13.832-0.258-25.082-11.164-25.082-24.879
		V395.054z"/>
	<path fill="#FFFFFF" fill-opacity="0.2314" d="M203.488,347.414c0-7.5,6.172-13.531,13.816-13.531
		c7.934,0.031,13.785,6.141,13.785,13.734c0.148,7.297-6.18,13.699-13.785,13.699c-7.816,0.348-13.816-6.145-13.816-13.699V347.414z
		"/>
	<path fill="#FFFFFF" fill-opacity="0.2314" d="M265.32,410.667c0-6,4.953-11.273,11.09-11.273
		c6.16,0.023,11.066,4.93,11.066,11.023c0.344,6.25-4.96,11-11.066,11c-5.84-0.25-11.09-4.934-11.09-11V410.667z"/>
	<path fill="#FFFFFF" fill-opacity="0.2314" d="M270.605,379.152c0-3.75,2.594-6.012,5.805-6.012
		c3.195,0.012,5.793,2.578,5.793,5.766c-0.348,3.246-2.598,5.758-5.793,5.758c-3.555-0.262-5.805-2.582-5.805-5.758V379.152z"/>
	<path fill="#FFFFFF" fill-opacity="0.2314" d="M166.207,314.039c0-4.5,3.844-8.27,8.598-8.27c4.902,0.02,8.578,3.82,8.578,8.547
		c0.074,4.973-3.848,8.527-8.578,8.527c-4.848,0.195-8.598-3.828-8.598-8.527V314.039z"/>
	<path fill="#FFFFFF" fill-opacity="0.2314" d="M177.324,370.277c0-3,2.715-6.012,6.074-6.012c3.676,0.012,6.066,2.699,6.066,6.039
		c-0.141,2.973-2.719,6.027-6.066,6.027c-3.074-0.055-6.074-2.703-6.074-6.027V370.277z"/>
</g>
</svg>
