<?xml version="1.0" encoding="utf-8"?>
<!-- Generator: Adobe Illustrator 16.0.0, SVG Export Plug-In . SVG Version: 6.00 Build 0)  -->
<!DOCTYPE svg PUBLIC "-//W3C//DTD SVG 1.1//EN" "http://www.w3.org/Graphics/SVG/1.1/DTD/svg11.dtd">
<svg preserveAspectRatio="none" version="1.1" id="图层_1" xmlns="http://www.w3.org/2000/svg" xmlns:xlink="http://www.w3.org/1999/xlink" x="0px" y="0px"
	 width="563.144px" height="311.234px" viewBox="1.875 127.848 563.144 311.234"
	 enable-background="new 1.875 127.848 563.144 311.234" xml:space="preserve">
<g id="surface301">
	
		<linearGradient id="SVGID_1_" gradientUnits="userSpaceOnUse" x1="517.7261" y1="201.3066" x2="517.7261" y2="-82.6943" gradientTransform="matrix(0.75 0 0 -0.75 -104.9362 344.8458)">
		<stop  offset="0" style="stop-color:#B5BDC0"/>
		<stop  offset="0.15" style="stop-color:#EDF7FA"/>
		<stop  offset="0.25" style="stop-color:#F5FBFC"/>
		<stop  offset="0.44" style="stop-color:#CFD8DB"/>
		<stop  offset="0.6" style="stop-color:#B8C0C3"/>
		<stop  offset="0.8" style="stop-color:#9BA2A4"/>
		<stop  offset="0.97" style="stop-color:#8D9496"/>
		<stop  offset="1" style="stop-color:#BCC5C7"/>
	</linearGradient>
	<path fill="url(#SVGID_1_)" d="M46.734,193.867h473.25v213H46.734V193.867z"/>
	
		<linearGradient id="SVGID_2_" gradientUnits="userSpaceOnUse" x1="210.2266" y1="201.3027" x2="210.2266" y2="160.3027" gradientTransform="matrix(0.75 0 0 -0.75 354.701 335.4142)">
		<stop  offset="0" style="stop-color:#A5A9AB"/>
		<stop  offset="0.15" style="stop-color:#DADFE1"/>
		<stop  offset="0.25" style="stop-color:#EAEDEE"/>
		<stop  offset="0.44" style="stop-color:#BCC1C3"/>
		<stop  offset="0.6" style="stop-color:#A7ACAE"/>
		<stop  offset="0.8" style="stop-color:#8D9192"/>
		<stop  offset="0.97" style="stop-color:#808485"/>
		<stop  offset="1" style="stop-color:#ABB0B2"/>
	</linearGradient>
	<path fill="url(#SVGID_2_)" d="M506.371,184.438h12v30.75h-12V184.438z"/>
	
		<linearGradient id="SVGID_3_" gradientUnits="userSpaceOnUse" x1="210.2266" y1="201.3086" x2="210.2266" y2="160.3086" gradientTransform="matrix(0.75 0 0 -0.75 354.701 436.1554)">
		<stop  offset="0" style="stop-color:#A5A9AB"/>
		<stop  offset="0.15" style="stop-color:#DADFE1"/>
		<stop  offset="0.25" style="stop-color:#EAEDEE"/>
		<stop  offset="0.44" style="stop-color:#BCC1C3"/>
		<stop  offset="0.6" style="stop-color:#A7ACAE"/>
		<stop  offset="0.8" style="stop-color:#8D9192"/>
		<stop  offset="0.97" style="stop-color:#808485"/>
		<stop  offset="1" style="stop-color:#ABB0B2"/>
	</linearGradient>
	<path fill="url(#SVGID_3_)" d="M506.371,285.175h12v30.75h-12V285.175z"/>
	
		<linearGradient id="SVGID_4_" gradientUnits="userSpaceOnUse" x1="210.2266" y1="201.3057" x2="210.2266" y2="160.3057" gradientTransform="matrix(0.75 0 0 -0.75 354.701 536.8966)">
		<stop  offset="0" style="stop-color:#A5A9AB"/>
		<stop  offset="0.15" style="stop-color:#DADFE1"/>
		<stop  offset="0.25" style="stop-color:#EAEDEE"/>
		<stop  offset="0.44" style="stop-color:#BCC1C3"/>
		<stop  offset="0.6" style="stop-color:#A7ACAE"/>
		<stop  offset="0.8" style="stop-color:#8D9192"/>
		<stop  offset="0.97" style="stop-color:#808485"/>
		<stop  offset="1" style="stop-color:#ABB0B2"/>
	</linearGradient>
	<path fill="url(#SVGID_4_)" d="M506.371,385.917h12v30.75h-12V385.917z"/>
	
		<linearGradient id="SVGID_5_" gradientUnits="userSpaceOnUse" x1="310.2261" y1="201.3057" x2="310.2261" y2="-101.0635" gradientTransform="matrix(0.75 0 0 -0.75 50.6576 344.8458)">
		<stop  offset="0" style="stop-color:#A5A9AB"/>
		<stop  offset="0.15" style="stop-color:#DADFE1"/>
		<stop  offset="0.25" style="stop-color:#EAEDEE"/>
		<stop  offset="0.44" style="stop-color:#BCC1C3"/>
		<stop  offset="0.6" style="stop-color:#A7ACAE"/>
		<stop  offset="0.8" style="stop-color:#8D9192"/>
		<stop  offset="0.97" style="stop-color:#808485"/>
		<stop  offset="1" style="stop-color:#ABB0B2"/>
	</linearGradient>
	<path fill="url(#SVGID_5_)" d="M364.328,193.867v221.25c0,3-2.414,5.527-5.73,5.527l-150.269-0.277c-3,0-6-2.176-6-5.207V193.867
		H364.328z"/>
	
		<linearGradient id="SVGID_6_" gradientUnits="userSpaceOnUse" x1="300.7222" y1="201.3057" x2="300.7222" y2="-101.0635" gradientTransform="matrix(0.75 0 0 -0.75 57.9149 344.8458)">
		<stop  offset="0" style="stop-color:#B3B6B7"/>
		<stop  offset="0.15" style="stop-color:#EAEEF0"/>
		<stop  offset="0.25" style="stop-color:#F3F5F6"/>
		<stop  offset="0.44" style="stop-color:#CCCFD1"/>
		<stop  offset="0.6" style="stop-color:#B5B9BA"/>
		<stop  offset="0.8" style="stop-color:#999C9D"/>
		<stop  offset="0.97" style="stop-color:#8C8E8F"/>
		<stop  offset="1" style="stop-color:#BABDBE"/>
	</linearGradient>
	<path fill="url(#SVGID_6_)" d="M357.332,193.867v221.25c0,3-2.434,5.527-5.453,5.527l-137.046-0.277c-3,0-5.25-2.176-5.25-5.207
		V193.867H357.332z"/>
	
		<linearGradient id="SVGID_7_" gradientUnits="userSpaceOnUse" x1="210.2231" y1="201.3018" x2="210.2231" y2="160.3018" gradientTransform="matrix(0.75 0 0 -0.75 -104.5265 335.4142)">
		<stop  offset="0" style="stop-color:#A5A9AB"/>
		<stop  offset="0.15" style="stop-color:#DADFE1"/>
		<stop  offset="0.25" style="stop-color:#EAEDEE"/>
		<stop  offset="0.44" style="stop-color:#BCC1C3"/>
		<stop  offset="0.6" style="stop-color:#A7ACAE"/>
		<stop  offset="0.8" style="stop-color:#8D9192"/>
		<stop  offset="0.97" style="stop-color:#808485"/>
		<stop  offset="1" style="stop-color:#ABB0B2"/>
	</linearGradient>
	<path fill="url(#SVGID_7_)" d="M47.141,184.438h12v30.75h-12V184.438z"/>
	
		<linearGradient id="SVGID_8_" gradientUnits="userSpaceOnUse" x1="210.2231" y1="201.3076" x2="210.2231" y2="160.3076" gradientTransform="matrix(0.75 0 0 -0.75 -104.5265 436.1554)">
		<stop  offset="0" style="stop-color:#A5A9AB"/>
		<stop  offset="0.15" style="stop-color:#DADFE1"/>
		<stop  offset="0.25" style="stop-color:#EAEDEE"/>
		<stop  offset="0.44" style="stop-color:#BCC1C3"/>
		<stop  offset="0.6" style="stop-color:#A7ACAE"/>
		<stop  offset="0.8" style="stop-color:#8D9192"/>
		<stop  offset="0.97" style="stop-color:#808485"/>
		<stop  offset="1" style="stop-color:#ABB0B2"/>
	</linearGradient>
	<path fill="url(#SVGID_8_)" d="M47.141,285.175h12v30.75h-12V285.175z"/>
	
		<linearGradient id="SVGID_9_" gradientUnits="userSpaceOnUse" x1="210.2231" y1="201.3047" x2="210.2231" y2="160.3047" gradientTransform="matrix(0.75 0 0 -0.75 -104.5265 536.8966)">
		<stop  offset="0" style="stop-color:#A5A9AB"/>
		<stop  offset="0.15" style="stop-color:#DADFE1"/>
		<stop  offset="0.25" style="stop-color:#EAEDEE"/>
		<stop  offset="0.44" style="stop-color:#BCC1C3"/>
		<stop  offset="0.6" style="stop-color:#A7ACAE"/>
		<stop  offset="0.8" style="stop-color:#8D9192"/>
		<stop  offset="0.97" style="stop-color:#808485"/>
		<stop  offset="1" style="stop-color:#ABB0B2"/>
	</linearGradient>
	<path fill="url(#SVGID_9_)" d="M47.141,385.917h12v30.75h-12V385.917z"/>
	
		<linearGradient id="SVGID_10_" gradientUnits="userSpaceOnUse" x1="233.354" y1="201.3066" x2="233.354" y2="-169.0889" gradientTransform="matrix(0.75 0 0 -0.75 -149.795 312.2648)">
		<stop  offset="0" style="stop-color:#BAC0C1"/>
		<stop  offset="0.15" style="stop-color:#F4FAFC"/>
		<stop  offset="0.25" style="stop-color:#F8FCFD"/>
		<stop  offset="0.44" style="stop-color:#D5DBDD"/>
		<stop  offset="0.6" style="stop-color:#BDC3C4"/>
		<stop  offset="0.8" style="stop-color:#A0A4A6"/>
		<stop  offset="0.97" style="stop-color:#929697"/>
		<stop  offset="1" style="stop-color:#C2C7C9"/>
	</linearGradient>
	<path fill="url(#SVGID_10_)" d="M7.125,161.285h36c3,0,5.441,2.457,5.441,5.488l-0.191,266.761c0,3-2.258,5.547-5.277,5.547
		l-35.973-0.297c-3,0-5.25-2.16-5.25-5.191V166.535c0-3,2.445-5.25,5.465-5.25H7.125z"/>
	
		<linearGradient id="SVGID_11_" gradientUnits="userSpaceOnUse" x1="233.3521" y1="201.3076" x2="233.352" y2="-169.0879" gradientTransform="matrix(0.75 0 0 -0.75 366.6591 312.2648)">
		<stop  offset="0" style="stop-color:#BAC0C1"/>
		<stop  offset="0.15" style="stop-color:#F4FAFC"/>
		<stop  offset="0.25" style="stop-color:#F8FCFD"/>
		<stop  offset="0.44" style="stop-color:#D5DBDD"/>
		<stop  offset="0.6" style="stop-color:#BDC3C4"/>
		<stop  offset="0.8" style="stop-color:#A0A4A6"/>
		<stop  offset="0.97" style="stop-color:#929697"/>
		<stop  offset="1" style="stop-color:#C2C7C9"/>
	</linearGradient>
	<path fill="url(#SVGID_11_)" d="M523.578,161.285h36c3,0,5.441,2.457,5.441,5.488l-0.191,266.761c0,3-2.258,5.547-5.273,5.547
		l-35.977-0.297c-3,0-5.25-2.16-5.25-5.191V166.535c0-3,2.445-5.25,5.465-5.25H523.578z"/>
	
		<linearGradient id="SVGID_12_" gradientUnits="userSpaceOnUse" x1="300.2241" y1="177.3047" x2="202.2251" y2="177.3047" gradientTransform="matrix(0.75 0 0 -0.75 95.0687 278.8263)">
		<stop  offset="0" style="stop-color:#A5A9AB"/>
		<stop  offset="0.15" style="stop-color:#DADFE1"/>
		<stop  offset="0.25" style="stop-color:#EAEDEE"/>
		<stop  offset="0.44" style="stop-color:#BCC1C3"/>
		<stop  offset="0.6" style="stop-color:#A7ACAE"/>
		<stop  offset="0.8" style="stop-color:#8D9192"/>
		<stop  offset="0.97" style="stop-color:#808485"/>
		<stop  offset="1" style="stop-color:#ABB0B2"/>
	</linearGradient>
	<path fill="url(#SVGID_12_)" d="M246.738,163.848h73.5v-36h-73.5V163.848z"/>
	<path fill="#B6BBBD" d="M352.164,165.07h28.5v-13.5h-28.5V165.07z"/>
	<path fill="#A0A5A7" d="M352.164,165.07h7.5v-13.5h-7.5V165.07z"/>
	<path fill="#D1D7D9" d="M375.964,165.07h6.75v-13.5h-6.75V165.07z"/>
	<path fill="#B6BBBD" d="M184.086,165.07h28.5v-13.5h-28.5V165.07z"/>
	<path fill="#A0A5A7" d="M184.086,165.07h7.5v-13.5h-7.5V165.07z"/>
	<path fill="#D1D7D9" d="M207.887,165.07h6.75v-13.5h-6.75V165.07z"/>
	
		<linearGradient id="SVGID_13_" gradientUnits="userSpaceOnUse" x1="519.2222" y1="177.8071" x2="202.2231" y2="177.8071" gradientTransform="matrix(0.75 0 0 -0.75 13.0741 313.9786)">
		<stop  offset="0" style="stop-color:#BAC0C1"/>
		<stop  offset="0.15" style="stop-color:#F4FAFC"/>
		<stop  offset="0.25" style="stop-color:#F8FCFD"/>
		<stop  offset="0.44" style="stop-color:#D5DBDD"/>
		<stop  offset="0.6" style="stop-color:#BDC3C4"/>
		<stop  offset="0.8" style="stop-color:#A0A4A6"/>
		<stop  offset="0.97" style="stop-color:#929697"/>
		<stop  offset="1" style="stop-color:#C2C7C9"/>
	</linearGradient>
	<path fill="url(#SVGID_13_)" d="M169.992,163h226.5c3,0,5.695,2.457,5.695,5.488L402.492,193c0,3-2.754,5.156-5.773,5.156
		l-226.726,0.094c-3,0-5.25-2.551-5.25-5.582V168.25c0-3,2.449-5.25,5.469-5.25H169.992z"/>
</g>
</svg>
