<?xml version="1.0" encoding="utf-8"?>
<!-- Generator: Adobe Illustrator 16.0.0, SVG Export Plug-In . SVG Version: 6.00 Build 0)  -->
<!DOCTYPE svg PUBLIC "-//W3C//DTD SVG 1.1//EN" "http://www.w3.org/Graphics/SVG/1.1/DTD/svg11.dtd">
<svg preserveAspectRatio="none"   version="1.1" id="图层_1" xmlns="http://www.w3.org/2000/svg" xmlns:xlink="http://www.w3.org/1999/xlink" x="0px" y="0px"
	 width="177.075px" height="560.421px" viewBox="194.934 3.195 177.075 560.421"
	 enable-background="new 194.934 3.195 177.075 560.421" xml:space="preserve">
<g id="surface1">
	<path fill="#F2F7FB" d="M341.964,117.813v-9.75h-117v9.75c0,0-31.148,26.883-30,102.23c0-0.23,3.602,31.73,16.699,43.605
		c-0.199-0.336-16.699,7.895-16.699,44.097v224.816c0,0,2.609,12.859,11.586,21.949c8.664,8.801,17.531,9.105,17.531,9.105
		l117.882-0.305c0,0,9.445,1.77,18.211-6.266c8.789-7.984,11.789-24.098,11.789-24.098V307.562c0,0,0.734-31.265-16.797-43.949
		c0.297-0.301,14.609-8.141,16.797-43.602c0-0.199,2.512-70.453-29.844-101.941L341.964,117.813z"/>
	<path fill="#E9EEF2" d="M226.164,121.332c0,0-27.66,23.031-28.5,97.473c0,0.027,0,19.422,15.91,41.676
		c-0.16,0.352,6.289-22.141,43.031,0c0.309,0.352-6.703-16.355-24.668-19.891c0.227-0.008-3.992-1.516-3.992-8.59
		c-0.281-7.168-6.984-16.672-6.984-16.672c-0.047-0.246-16.168-22.91,5.145-93.996H226.164z"/>
	<path fill="#E9EEF2" d="M340.132,120.59c0,0,30.465,28.152,27.984,98.012c-0.234,0.238,0,30.266-16.367,40.297
		c-0.367-0.309-3.969-5.398-12.398-2.699c0.031,0.141,15.941-21.219,18.352-37.598c4.93-32.012-2.977-75.383-17.262-98.012H340.132z
		"/>
	<path fill="#E9EEF2" d="M352.375,218.676c0,0-38.387-14.5-57.383,4.73c-19.117,19.27-48.367,9.297-48.367,9.297
		c0,0.223,16.602,13.527,17.059,26.629c0.191-0.156,10.02,12.68,32.144,1.691c0.297-0.348,21.852-13.527,41.402-9.723
		c0.145,0.375,17.633-21.133,15.457-32.969L352.375,218.676z"/>
	
		<linearGradient id="SVGID_1_" gradientUnits="userSpaceOnUse" x1="202.2246" y1="-13.1973" x2="231.2246" y2="-13.1973" gradientTransform="matrix(0.75 0 0 -0.75 118.2767 260.1564)">
		<stop  offset="0" style="stop-color:#E5E5E5;stop-opacity:0.4039"/>
		<stop  offset="0.29" style="stop-color:#F9F9F9;stop-opacity:0.4471"/>
		<stop  offset="0.68" style="stop-color:#FFFFFF;stop-opacity:0.8157"/>
		<stop  offset="1" style="stop-color:#FEFEFE;stop-opacity:0.3922"/>
	</linearGradient>
	<path fill="url(#SVGID_1_)" d="M269.945,109.18h21.75v321.75h-21.75V109.18z"/>
	<path fill="#AFB5BB" fill-opacity="0.0902" d="M341.964,117.813v-9.75h-117v9.75c0,0-31.148,26.871-30,102.191
		c0-0.191,3.602,31.719,16.699,43.59l143.8-0.281c0,0,14.313-7.891,16.5-43.34c0-0.16,2.512-70.43-29.844-101.902L341.964,117.813z"
		/>
	<path fill="#E5E9ED" d="M224.785,108.063h117v9.75h-117V108.063z"/>
	<path fill="#FFFFFF" fill-opacity="0.898" d="M331.828,118.918l-33-0.75c0,0,30.191,11.484,38.332,47.332
		c-0.082-0.082,4.59,11.414,13.355,3.383c0.063,0.285,0.418-32.547-18.574-50.32L331.828,118.918z"/>
	<path fill="#FFFFFF" fill-opacity="0.6078" d="M230.316,119.371c0,0-12.137,13.582-15.059,66.84
		c0.059-0.09,2.504,22.402,9.184,33.059c-0.125-0.148,23.797,15.758,20.457-21.859c-3.332-37.539,25.602-78.789,25.602-78.789
		L230.316,119.371z"/>
	<path fill="#E9EEF2" d="M213.977,267.219c0,0-15,9.445-15,37.972v214.777c0,0,2.609,29.844,26.613,38.891l22.887,0.109
		c0,0,9.988-13.91-8.273-18.137c-17.977-4.363-27.137-23.777-27.137-51.25l0.16-184.863c0,0-3.063-33.503,0.883-37.5H213.977z"/>
	<path fill="#E9EEF2" d="M361.953,283.355c0,0,3.75,8.628,3.75,37.16v199.84c0,0,0.781,34.742-26.809,38.793l-63.941,0.207
		c0,0-8.66-5.844,7.777-5.844c11.722-0.156,71.23,6.34,72.011-48.344l6.461-186.563c0,0,0-17.902,1.043-35.25H361.953z"/>
	<path fill="#AFB5BB" fill-opacity="0.0902" d="M211.465,263.195c0,0-16.5,7.891-16.5,44.085v224.414
		c0,0,2.609,13.176,11.586,22.262c8.664,9.238,17.531,9.5,17.531,9.5l117.882-0.262c0,0,9.445,1.332,18.211-6.699
		c8.789-8.301,11.789-24.094,11.789-24.094V307.445c0,0,0.734-31.601-16.797-44.25H211.465z"/>
	<path fill="#F9FBFC" fill-opacity="0.851" d="M211,264.828c0,0,6.543-22.207,43.738-0.23c-0.238,0.23,20.832,16.91,42.167,0
		c0.344,0.23,32.938-23.246,58.902,0c-0.059,0.23,3.477,1.922,8.906,10.375c0.035,0.355-43.422,31.699-103.535,3.801
		c0.07,0.305-32.98-21.555-50.18-14.176V264.828z"/>
	<path fill="#FFFFFF" fill-opacity="0.6902" d="M330.48,314.628c0,0,16.281,0.918,23.48-7.5l-0.23,175.5c0,0,1,25.438-9.008,40.855
		l-14.242-0.355V314.628z"/>
	<path fill="#FFFFFF" fill-opacity="0.6078" d="M216,268.207v213c0,0-5.543,60.152,43.25,59.031
		c0.25,0.219,19.047,4.82,1.301-62.809c-0.301,0.027-16.176-32.758-16.695-122.047L243,275.707c0,0-13.234-3.801-26.805-7.5H216z"/>
	<path fill="#FFFFFF" fill-opacity="0.6902" d="M330.835,307.988c0,0,18.012-0.047,23.438-8.078l-0.188-8.422
		c0,0-14.84,7.152-24.023,8.422L330.835,307.988z"/>
	
		<linearGradient id="SVGID_2_" gradientUnits="userSpaceOnUse" x1="365.2974" y1="145.8027" x2="202.2256" y2="145.8027" gradientTransform="matrix(0.75 0 0 -0.75 70.6429 176.422)">
		<stop  offset="0" style="stop-color:#8E8B97"/>
		<stop  offset="0.15" style="stop-color:#C5C2D0"/>
		<stop  offset="0.25" style="stop-color:#DFDEE5"/>
		<stop  offset="0.66" style="stop-color:#93919D"/>
		<stop  offset="0.8" style="stop-color:#85838E"/>
		<stop  offset="0.92" style="stop-color:#84828D"/>
		<stop  offset="1" style="stop-color:#9996A2"/>
	</linearGradient>
	<path fill="url(#SVGID_2_)" d="M224.563,25.445h117.75c1.5,0,2.305,1.074,2.305,2.477l-0.055,77.773c0,1.5-1.074,2.863-2.457,2.863
		l-117.542,0.137c-1.5,0-2.25-1.34-2.25-2.738V27.695c0-1.5,1.102-2.25,2.484-2.25H224.563z"/>
	
		<linearGradient id="SVGID_3_" gradientUnits="userSpaceOnUse" x1="290.6821" y1="186.3438" x2="202.2236" y2="186.3437" gradientTransform="matrix(0.75 0 0 -0.75 98.5775 154.2325)">
		<stop  offset="0" style="stop-color:#8E8B97"/>
		<stop  offset="0.15" style="stop-color:#C5C2D0"/>
		<stop  offset="0.25" style="stop-color:#DFDEE5"/>
		<stop  offset="0.66" style="stop-color:#93919D"/>
		<stop  offset="0.8" style="stop-color:#85838E"/>
		<stop  offset="0.92" style="stop-color:#84828D"/>
		<stop  offset="1" style="stop-color:#9996A2"/>
	</linearGradient>
	<path fill="url(#SVGID_3_)" d="M252.496,3.254h61.5c1.5,0,2.594,1.078,2.594,2.477l-0.344,20.023h-66V5.504
		c0-1.5,1.09-2.309,2.473-2.309L252.496,3.254z"/>
</g>
</svg>
