<?xml version="1.0" encoding="utf-8"?>
<!-- Generator: Adobe Illustrator 16.0.0, SVG Export Plug-In . SVG Version: 6.00 Build 0)  -->
<!DOCTYPE svg PUBLIC "-//W3C//DTD SVG 1.1//EN" "http://www.w3.org/Graphics/SVG/1.1/DTD/svg11.dtd">
<svg preserveAspectRatio="none"   version="1.1" id="图层_1" xmlns="http://www.w3.org/2000/svg" xmlns:xlink="http://www.w3.org/1999/xlink" x="0px" y="0px"
	 width="361.577px" height="560.718px" viewBox="102.676 3.023 361.577 560.718"
	 enable-background="new 102.676 3.023 361.577 560.718" xml:space="preserve">
<g id="surface141">
	
		<linearGradient id="SVGID_1_" gradientUnits="userSpaceOnUse" x1="202.2261" y1="-139.4106" x2="684.2769" y2="-139.4106" gradientTransform="matrix(0.75 0 0 -0.75 -48.9547 203.6486)">
		<stop  offset="0" style="stop-color:#286C95"/>
		<stop  offset="0.17" style="stop-color:#307EAE"/>
		<stop  offset="0.68" style="stop-color:#5593C2"/>
		<stop  offset="0.86" style="stop-color:#4F8BB8"/>
		<stop  offset="0.91" style="stop-color:#487FA9"/>
		<stop  offset="1" style="stop-color:#24638A"/>
	</linearGradient>
	<path fill="url(#SVGID_1_)" d="M167.965,52.672c0,0-64.605,66.027-65.25,89.133c0,0.117,0,315.535,0,315.535
		c0,0.332,33.668,106.402,179.426,106.402c146.074-0.32,182.074-106.402,182.074-106.402V141.922c0,0,3.82-16.547-64.504-89.25
		H167.965z"/>
	
		<linearGradient id="SVGID_2_" gradientUnits="userSpaceOnUse" x1="202.2261" y1="121.2373" x2="684.2251" y2="121.2373" gradientTransform="matrix(0.75 0 0 -0.75 -48.9547 561.5177)">
		<stop  offset="0" style="stop-color:#2D5676"/>
		<stop  offset="0.17" style="stop-color:#36658A"/>
		<stop  offset="0.68" style="stop-color:#43739A"/>
		<stop  offset="0.86" style="stop-color:#3A6B92"/>
		<stop  offset="0.91" style="stop-color:#346185"/>
		<stop  offset="1" style="stop-color:#294F6D"/>
	</linearGradient>
	<path fill="url(#SVGID_2_)" d="M102.715,410.539c0,0,29.387,74.676,179.281,74.676c149.968,0.324,182.218-74.676,182.218-74.676
		v45.75c0,0-24.844,74.352-182.218,74.352c-157.531-0.102-179.281-74.719-179.281-74.719V410.539z"/>
	
		<linearGradient id="SVGID_3_" gradientUnits="userSpaceOnUse" x1="202.2261" y1="130.3999" x2="684.2251" y2="130.3999" gradientTransform="matrix(0.75 0 0 -0.75 -48.9547 608.3615)">
		<stop  offset="0" style="stop-color:#386587"/>
		<stop  offset="0.17" style="stop-color:#43769D"/>
		<stop  offset="0.68" style="stop-color:#5085AF"/>
		<stop  offset="0.86" style="stop-color:#477DA6"/>
		<stop  offset="0.91" style="stop-color:#417298"/>
		<stop  offset="1" style="stop-color:#345D7C"/>
	</linearGradient>
	<path fill="url(#SVGID_3_)" d="M102.715,457.382c0,0,33.727,106.359,179.457,106.359
		c146.042,0.141,182.042-106.359,182.042-106.359S431.894,531,282.031,530.644C131.965,530.132,102.715,457.382,102.715,457.382z"/>
	
		<linearGradient id="SVGID_4_" gradientUnits="userSpaceOnUse" x1="647.7544" y1="114.1113" x2="165.7036" y2="114.1113" gradientTransform="matrix(-0.75 0 0 -0.75 588.4923 203.6476)">
		<stop  offset="0" style="stop-color:#3D7095"/>
		<stop  offset="0.17" style="stop-color:#4983AE"/>
		<stop  offset="0.68" style="stop-color:#8DAFCF"/>
		<stop  offset="0.83" style="stop-color:#6E9EC6"/>
		<stop  offset="1" style="stop-color:#38678A"/>
	</linearGradient>
	<path fill="url(#SVGID_4_)" d="M398.964,52.672c0,0,64.605,66.023,65.25,89.16c0,0.09-37.234,41.625-180.75,41.625
		c-143.25-0.285-180.75-41.625-180.75-41.625c0,0.09-3.82-16.457,64.504-89.16H398.964z"/>
	
		<linearGradient id="SVGID_5_" gradientUnits="userSpaceOnUse" x1="202.2271" y1="169.9575" x2="536.2261" y2="169.9575" gradientTransform="matrix(0.75 0 0 -0.75 6.6034 173.3712)">
		<stop  offset="0" style="stop-color:#242830"/>
		<stop  offset="0.83" style="stop-color:#5D5F64"/>
		<stop  offset="1" style="stop-color:#20242C"/>
	</linearGradient>
	<path fill="url(#SVGID_5_)" d="M158.273,22.395c0,0,7.18,16.094,123.875,16.094c116.875-0.344,126.507-16.094,126.507-16.094
		l0.117,30c0,0-6.137,17.016-126.531,17.016c-120.219,0.234-123.969-16.645-123.969-16.645V22.395z"/>
	
		<linearGradient id="SVGID_6_" gradientUnits="userSpaceOnUse" x1="287.4966" y1="273.0371" x2="450.6937" y2="78.5464" gradientTransform="matrix(0.75 0 0 -0.75 6.6488 154.1378)">
		<stop  offset="0" style="stop-color:#434448"/>
		<stop  offset="0.83" style="stop-color:#727477"/>
		<stop  offset="1" style="stop-color:#3D3F42"/>
	</linearGradient>
	<path fill="url(#SVGID_6_)" d="M158.316,22.66c0-11.25,56.023-19.637,125.148-19.637c69.101,0.137,125.148,8.625,125.148,19.266
		c0.203,10.871-56.043,19.285-125.148,19.285c-68.898-0.164-125.148-8.641-125.148-19.285V22.66z"/>
	
		<linearGradient id="SVGID_7_" gradientUnits="userSpaceOnUse" x1="202.2261" y1="143.3667" x2="684.2251" y2="143.3667" gradientTransform="matrix(0.75 0 0 -0.75 -48.9547 301.5724)">
		<stop  offset="0" style="stop-color:#295475"/>
		<stop  offset="0.17" style="stop-color:#316389"/>
		<stop  offset="0.68" style="stop-color:#3E719A"/>
		<stop  offset="0.86" style="stop-color:#346991"/>
		<stop  offset="0.91" style="stop-color:#2F5F84"/>
		<stop  offset="1" style="stop-color:#254D6C"/>
	</linearGradient>
	<path fill="url(#SVGID_7_)" d="M102.715,150.594c0,0,29.68,41.488,179.574,41.488c149.675-0.238,181.925-41.488,181.925-41.488
		v45.75c0,0-24.551,41.156-181.925,41.156c-157.074,0.094-179.574-41.523-179.574-41.523V150.594z"/>
	
		<linearGradient id="SVGID_8_" gradientUnits="userSpaceOnUse" x1="202.2261" y1="143.3677" x2="684.2251" y2="143.3677" gradientTransform="matrix(0.75 0 0 -0.75 -48.9547 294.8907)">
		<stop  offset="0" style="stop-color:#4D799B"/>
		<stop  offset="0.17" style="stop-color:#5B8EB4"/>
		<stop  offset="0.68" style="stop-color:#689EC8"/>
		<stop  offset="0.86" style="stop-color:#6096BE"/>
		<stop  offset="0.91" style="stop-color:#5789AE"/>
		<stop  offset="1" style="stop-color:#47708F"/>
	</linearGradient>
	<path fill="url(#SVGID_8_)" d="M102.715,143.914c0,0,29.68,41.484,179.574,41.484c149.675-0.234,181.925-41.484,181.925-41.484
		v45.75c0,0-24.551,41.152-181.925,41.152c-157.074,0.098-179.574-41.523-179.574-41.523V143.914z"/>
	
		<linearGradient id="SVGID_9_" gradientUnits="userSpaceOnUse" x1="202.2261" y1="121.2388" x2="684.2251" y2="121.2388" gradientTransform="matrix(0.75 0 0 -0.75 -48.9547 552.5607)">
		<stop  offset="0" style="stop-color:#6B8CA5"/>
		<stop  offset="0.17" style="stop-color:#7DA4C0"/>
		<stop  offset="0.68" style="stop-color:#8DB6D4"/>
		<stop  offset="0.86" style="stop-color:#84ADCA"/>
		<stop  offset="0.91" style="stop-color:#799EB9"/>
		<stop  offset="1" style="stop-color:#638298"/>
	</linearGradient>
	<path fill="url(#SVGID_9_)" d="M102.715,401.582c0,0,29.387,74.672,179.281,74.672c149.968,0.328,182.218-74.672,182.218-74.672
		v45.75c0,0-24.844,74.352-182.218,74.352c-157.531-0.102-179.281-74.719-179.281-74.719V401.582z"/>
	
		<linearGradient id="SVGID_10_" gradientUnits="userSpaceOnUse" x1="202.2261" y1="121.2388" x2="684.2251" y2="121.2388" gradientTransform="matrix(0.75 0 0 -0.75 -48.9547 555.1447)">
		<stop  offset="0" style="stop-color:#4D799B"/>
		<stop  offset="0.17" style="stop-color:#5B8EB4"/>
		<stop  offset="0.68" style="stop-color:#689EC8"/>
		<stop  offset="0.86" style="stop-color:#6096BE"/>
		<stop  offset="0.91" style="stop-color:#5789AE"/>
		<stop  offset="1" style="stop-color:#47708F"/>
	</linearGradient>
	<path fill="url(#SVGID_10_)" d="M102.715,404.167c0,0,29.387,74.672,179.281,74.672c149.968,0.328,182.218-74.672,182.218-74.672
		v45.75c0,0-24.844,74.348-182.218,74.348c-157.531-0.098-179.281-74.719-179.281-74.719V404.167z"/>
</g>
</svg>
