<?xml version="1.0" encoding="utf-8"?>
<!-- Generator: Adobe Illustrator 16.0.0, SVG Export Plug-In . SVG Version: 6.00 Build 0)  -->
<!DOCTYPE svg PUBLIC "-//W3C//DTD SVG 1.1//EN" "http://www.w3.org/Graphics/SVG/1.1/DTD/svg11.dtd">
<svg preserveAspectRatio="none"   version="1.1" id="图层_1" xmlns="http://www.w3.org/2000/svg" xmlns:xlink="http://www.w3.org/1999/xlink" x="0px" y="0px"
	 width="177.075px" height="560.855px" viewBox="194.934 3.148 177.075 560.855"
	 enable-background="new 194.934 3.148 177.075 560.855" xml:space="preserve">
<g id="surface6">
	<path fill="#F2F7FB" d="M341.964,117.703v-9.75h-117v9.75c0,0-31.148,26.891-30,102.25c0-0.25,3.602,31.738,16.699,43.613
		c-0.199-0.363-16.699,7.895-16.699,44.105v224.781c0,0,2.609,12.938,11.586,22.027c8.664,9.473,17.531,9.105,17.531,9.105
		l117.882,0.367c0,0,9.445,1.102,18.211-6.934c8.789-8.066,11.789-24.105,11.789-24.105V307.453c0,0,0.734-31.234-16.797-43.921
		c0.297-0.328,14.609-8.141,16.797-43.609c0-0.219,2.512-70.465-29.844-101.957L341.964,117.703z"/>
	<path fill="#E9EEF2" d="M226.164,121.223c0,0-27.66,23.035-28.5,97.492c0,0.008,0,19.426,15.91,41.684
		c-0.16,0.324,6.289-22.145,43.031,0c0.309,0.324-6.703-16.359-24.668-19.895c0.227-0.031-3.992-1.516-3.992-8.59
		c-0.281-7.191-6.984-16.676-6.984-16.676c-0.047-0.266-16.168-22.914,5.145-94.016H226.164z"/>
	<path fill="#E9EEF2" d="M340.132,120.484c0,0,30.465,28.156,27.984,98.027c-0.234,0.223,0,30.27-16.367,40.301
		c-0.367-0.328-3.969-5.398-12.398-2.699c0.031,0.121,15.941-21.219,18.352-37.602c4.93-32.027-2.977-75.395-17.262-98.027H340.132z
		"/>
	<path fill="#E9EEF2" d="M352.375,218.586c0,0-38.387-14.504-57.383,4.73c-19.117,19.27-48.367,9.301-48.367,9.301
		c0,0.219,16.602,13.527,17.059,26.633c0.191-0.164,10.02,12.684,32.144,1.691c0.297-0.355,21.852-13.527,41.402-9.723
		c0.145,0.367,17.633-21.137,15.457-32.973L352.375,218.586z"/>
	
		<linearGradient id="SVGID_1_" gradientUnits="userSpaceOnUse" x1="202.2246" y1="-13.1978" x2="231.2246" y2="-13.1978" gradientTransform="matrix(0.75 0 0 -0.75 118.2767 260.047)">
		<stop  offset="0" style="stop-color:#E5E5E5;stop-opacity:0.4039"/>
		<stop  offset="0.29" style="stop-color:#F9F9F9;stop-opacity:0.4471"/>
		<stop  offset="0.68" style="stop-color:#FFFFFF;stop-opacity:0.8157"/>
		<stop  offset="1" style="stop-color:#FEFEFE;stop-opacity:0.3922"/>
	</linearGradient>
	<path fill="url(#SVGID_1_)" d="M269.945,109.07h21.75v321.75h-21.75V109.07z"/>
	<path fill="#AFB5BB" fill-opacity="0.0902" d="M341.964,117.703v-9.75h-117v9.75c0,0-31.148,26.879-30,102.211
		c0-0.211,3.602,31.727,16.699,43.598l143.8-0.309c0,0,14.313-7.863,16.5-43.32c0-0.18,2.512-70.441-29.844-101.922L341.964,117.703
		z"/>
	<path fill="#E5E9ED" d="M224.785,107.953h117v9.75h-117V107.953z"/>
	<path fill="#FFFFFF" fill-opacity="0.898" d="M331.828,118.809l-33-0.75c0,0,30.191,11.488,38.332,47.344
		c-0.082-0.094,4.59,11.414,13.355,3.383c0.063,0.273,0.418-32.555-18.574-50.328L331.828,118.809z"/>
	<path fill="#FFFFFF" fill-opacity="0.6078" d="M230.316,119.266c0,0-12.137,13.586-15.059,66.852
		c0.059-0.102,2.504,22.402,9.184,33.066c-0.125-0.168,23.797,15.758,20.457-21.867c-3.332-37.551,25.602-78.801,25.602-78.801
		L230.316,119.266z"/>
	<path fill="#E9EEF2" d="M213.977,267.137c0,0-15,9.445-15,37.98v214.77c0,0,2.609,29.895,26.613,38.945l22.887,0.055
		c0,0,9.988-13.859-8.273-18.09c-17.977-4.41-27.137-23.777-27.137-51.258l0.16-184.902c0,0-3.063-33.503,0.883-37.5H213.977z"/>
	<path fill="#E9EEF2" d="M361.953,283.277c0,0,3.75,8.628,3.75,37.164v199.836c0,0,0.781,34.789-26.809,38.84l-63.941,0.16
		c0,0-8.66-5.797,7.777-5.797c11.722-0.203,71.23,6.34,72.011-48.352l6.461-186.602c0,0,0-17.902,1.043-35.25H361.953z"/>
	<path fill="#AFB5BB" fill-opacity="0.0902" d="M211.465,263.113c0,0-16.5,7.895-16.5,44.093v224.406
		c0,0,2.609,13.227,11.586,22.316c8.664,9.184,17.531,9.5,17.531,9.5l117.882-0.316c0,0,9.445,1.383,18.211-6.648
		c8.789-8.352,11.789-24.098,11.789-24.098V307.363c0,0,0.734-31.601-16.797-44.25H211.465z"/>
	<path fill="#F9FBFC" fill-opacity="0.851" d="M211,264.746c0,0,6.543-22.211,43.738-0.227c-0.238,0.227,20.832,16.906,42.167,0
		c0.344,0.227,32.938-23.254,58.902,0c-0.059,0.227,3.477,1.918,8.906,10.371c0.035,0.355-43.422,31.707-103.535,3.805
		c0.07,0.301-32.98-21.559-50.18-14.176V264.746z"/>
	<path fill="#FFFFFF" fill-opacity="0.6902" d="M330.48,314.554c0,0,16.281,0.922,23.48-7.5l-0.23,175.5c0,0,1,25.473-9.008,40.895
		l-14.242,0.355V314.554z"/>
	<path fill="#FFFFFF" fill-opacity="0.6078" d="M216,268.129v213c0,0-5.543,60.199,43.25,59.074
		c0.25,0.176,19.047,4.82,1.301-62.816c-0.301-0.008-16.176-32.762-16.695-122.066L243,275.629c0,0-13.234-3.801-26.805-7.5H216z"/>
	<path fill="#FFFFFF" fill-opacity="0.6902" d="M330.835,308.66c0,0,18.012-0.793,23.438-8.828l-0.188-8.422
		c0,0-14.84,7.156-24.023,8.422L330.835,308.66z"/>
	
		<linearGradient id="SVGID_2_" gradientUnits="userSpaceOnUse" x1="202.2266" y1="145.8042" x2="365.2983" y2="145.8042" gradientTransform="matrix(0.75 0 0 -0.75 70.6429 176.3761)">
		<stop  offset="0" style="stop-color:#803B4D"/>
		<stop  offset="0.22" style="stop-color:#AF536C"/>
		<stop  offset="0.7" style="stop-color:#E9B3BF"/>
		<stop  offset="0.8" style="stop-color:#E0849A"/>
		<stop  offset="1" style="stop-color:#AB5169"/>
	</linearGradient>
	<path fill="url(#SVGID_2_)" d="M224.563,25.398h117.75c1.5,0,2.305,1.074,2.305,2.477l-0.055,77.773c0,1.5-1.074,2.879-2.457,2.879
		l-117.542,0.121c-1.5,0-2.25-1.324-2.25-2.723V27.648c0-1.5,1.102-2.25,2.484-2.25H224.563z"/>
	
		<linearGradient id="SVGID_3_" gradientUnits="userSpaceOnUse" x1="202.2246" y1="186.3413" x2="290.6831" y2="186.3413" gradientTransform="matrix(0.75 0 0 -0.75 98.5775 154.1837)">
		<stop  offset="0" style="stop-color:#803B4D"/>
		<stop  offset="0.22" style="stop-color:#AF536C"/>
		<stop  offset="0.7" style="stop-color:#E9B3BF"/>
		<stop  offset="0.8" style="stop-color:#E0849A"/>
		<stop  offset="1" style="stop-color:#AB5169"/>
	</linearGradient>
	<path fill="url(#SVGID_3_)" d="M252.496,3.207h61.5c1.5,0,2.594,1.074,2.594,2.477l-0.344,20.023h-66V5.457
		c0-1.5,1.09-2.309,2.473-2.309L252.496,3.207z"/>
</g>
</svg>
