<?xml version="1.0" encoding="utf-8"?>
<!-- Generator: Adobe Illustrator 16.0.0, SVG Export Plug-In . SVG Version: 6.00 Build 0)  -->
<!DOCTYPE svg PUBLIC "-//W3C//DTD SVG 1.1//EN" "http://www.w3.org/Graphics/SVG/1.1/DTD/svg11.dtd">
<svg preserveAspectRatio="none"   version="1.1" id="图层_1" xmlns="http://www.w3.org/2000/svg" xmlns:xlink="http://www.w3.org/1999/xlink" x="0px" y="0px"
	 width="184.696px" height="560.894px" viewBox="191.167 3.008 184.696 560.894"
	 enable-background="new 191.167 3.008 184.696 560.894" xml:space="preserve">
<g id="surface171">
	
		<linearGradient id="SVGID_1_" gradientUnits="userSpaceOnUse" x1="202.2261" y1="143.3071" x2="448.0054" y2="143.3071" gradientTransform="matrix(0.75 0 0 -0.75 39.6942 153.9913)">
		<stop  offset="0" style="stop-color:#242830"/>
		<stop  offset="0.83" style="stop-color:#5D5F64"/>
		<stop  offset="1" style="stop-color:#20242C"/>
	</linearGradient>
	<path fill="url(#SVGID_1_)" d="M191.363,90.012c0,0,8.371-8.906,92.102-8.906c83.398-0.094,92.101,8.563,92.101,8.563
		c0.297,0.344,0-60.531,0-60.531c-3.453-11.125-12.559-15.902-12.559-15.902c0.105,0.277-18.422-10.223-79.542-10.223
		c-61.352,0-78.984,10.223-78.984,10.223c-0.367,0.277-8.094,5.398-13.117,15.621c0-0.344,0,60.813,0,60.813V90.012z"/>
	<path d="M194.012,93.109c0,0,17.305-6.891,89.453-6.891c72.546,0.141,89.453,6.539,89.453,6.539l0.344-4.898
		c0,0-16.816-6.75-89.796-6.75c-72.953,0-89.453,6.531-89.453,6.531V93.109z"/>
	
		<linearGradient id="SVGID_2_" gradientUnits="userSpaceOnUse" x1="202.1621" y1="-118.2891" x2="448.2915" y2="-118.2891" gradientTransform="matrix(0.75 0 0 -0.75 39.5453 235.4894)">
		<stop  offset="0" style="stop-color:#9E9799"/>
		<stop  offset="0.17" style="stop-color:#C7BEC0"/>
		<stop  offset="0.68" style="stop-color:#E4DCDD"/>
		<stop  offset="0.83" style="stop-color:#DFD6D8"/>
		<stop  offset="1" style="stop-color:#9E9798"/>
	</linearGradient>
	<path fill="url(#SVGID_2_)" d="M191.215,95.762c0,0-5.191-11.25,92.25-11.25c97.5,0,92.25,11.074,92.25,11.074v450.175
		c0,0-0.363,5.871-6.227,9.281c0.227-0.281-15.734,8.859-86.023,8.859c-70.5-0.141-84.875-8.859-84.875-8.859
		c-5.875-1.781-7.375-9.656-7.375-9.656V95.762z"/>
	
		<linearGradient id="SVGID_3_" gradientUnits="userSpaceOnUse" x1="202.2236" y1="191.8062" x2="448.2251" y2="191.8062" gradientTransform="matrix(0.75 0 0 -0.75 39.5453 226.6632)">
		<stop  offset="0" style="stop-color:#000000"/>
		<stop  offset="0.17" style="stop-color:#000000"/>
		<stop  offset="0.83" style="stop-color:#505050"/>
		<stop  offset="1" style="stop-color:#000000"/>
	</linearGradient>
	<path fill="url(#SVGID_3_)" d="M191.215,89.934c0,0,8.379-8.836,92.25-8.836c84-0.164,92.25,8.57,92.25,8.57
		c0,0.266,0-5.164,0-5.164c-2.25-2.82-31.027-8.82-92.25-8.82c-60.75,0-92.52,5.445-92.25,10.273c0,0.227,0,3.711,0,3.711V89.934z"
		/>
	
		<linearGradient id="SVGID_4_" gradientUnits="userSpaceOnUse" x1="202.2261" y1="183.8042" x2="448.2251" y2="183.8042" gradientTransform="matrix(0.75 0 0 -0.75 39.6942 153.9865)">
		<stop  offset="0" style="stop-color:#31353D"/>
		<stop  offset="0.83" style="stop-color:#65686E"/>
		<stop  offset="1" style="stop-color:#2D3138"/>
	</linearGradient>
	<path fill="url(#SVGID_4_)" d="M375.863,29.258c-3.75-11.25-12.855-16.027-12.855-16.027c0.105,0.277-18.422-10.223-79.542-10.223
		c-61.352,0-78.984,10.223-78.984,10.223c-0.367,0.277-8.094,5.398-13.117,15.621c0-0.344,22.047-9.941,92.102-9.941
		c69.898-0.152,92.101,10.223,92.101,10.223L375.863,29.258z"/>
	
		<linearGradient id="SVGID_5_" gradientUnits="userSpaceOnUse" x1="202.1421" y1="-117.1377" x2="285.1313" y2="-117.1377" gradientTransform="matrix(0.75 0 0 -0.75 57.494 236.4923)">
		<stop  offset="0" style="stop-color:#FFFFFF;stop-opacity:0"/>
		<stop  offset="0.29" style="stop-color:#FFFFFF;stop-opacity:0.298"/>
		<stop  offset="0.51" style="stop-color:#FFFFFF;stop-opacity:0.4157"/>
		<stop  offset="0.72" style="stop-color:#FFFFFF;stop-opacity:0.2863"/>
		<stop  offset="1" style="stop-color:#FFFFFF;stop-opacity:0"/>
	</linearGradient>
	<path fill="url(#SVGID_5_)" d="M209.164,89.266c0,0,4.629-3.051,62.121-3.75c0.129,0,0,477.66,0,477.66
		c-66.621-2.91-62.121-6.141-62.121-6.141V89.266z"/>
	
		<linearGradient id="SVGID_6_" gradientUnits="userSpaceOnUse" x1="165.6387" y1="-117.1367" x2="239.4683" y2="-117.1367" gradientTransform="matrix(-0.75 0 0 -0.75 475.8615 236.1954)">
		<stop  offset="0" style="stop-color:#FFFFFF;stop-opacity:0"/>
		<stop  offset="0.21" style="stop-color:#FFFFFF;stop-opacity:0.298"/>
		<stop  offset="0.51" style="stop-color:#FFFFFF;stop-opacity:0.5647"/>
		<stop  offset="0.8" style="stop-color:#FFFFFF;stop-opacity:0.2863"/>
		<stop  offset="1" style="stop-color:#FFFFFF;stop-opacity:0"/>
	</linearGradient>
	<path fill="url(#SVGID_6_)" d="M351.585,88.969c0,0-4.113-3.055-55.184-3.75c-0.316,0,0,477.66,0,477.66
		c58.934-2.91,55.184-6.141,55.184-6.141V88.969z"/>
	<path fill="#FFFFFF" fill-opacity="0.3098" d="M191.34,89.34c0,0,2.633-1.508,15.199-3.648c-0.199-0.102,0.031-5.352,0.031-5.352
		c-9.23,1.5-15.18,3.406-15.082,5.086c-0.148,0.164-0.148,4.246-0.148,4.246V89.34z"/>
	<path fill="#FFFFFF" fill-opacity="0.251" d="M231.68,77.199v5.25c0,0,27.086-1.551,51.77-1.348l-0.02-5.402
		c0,0-37.883,0.27-51.75,1.734V77.199z"/>
	<path fill="#FFFFFF" fill-opacity="0.3333" d="M307.734,75.977v5.25c0,0,26.074,0.719,51.816,3.848l-0.066-5.348
		C359.484,79.727,332.589,76.367,307.734,75.977z"/>
	<path fill="#FFFFFF" fill-opacity="0.3098" d="M375.64,84.371v5.25c0,0-2.211-1.398-6.008-2.465l0.008-5.035
		c0,0,3.695,0.781,5.883,1.973L375.64,84.371z"/>
	<path fill="#FFFFFF" fill-opacity="0.0588" d="M332.917,22.766v53.25c0,0,13.848,0.734,22.039,1.828l-0.289-52.828
		C354.667,25.016,337.953,22.766,332.917,22.766z"/>
</g>
</svg>
