<?xml version="1.0" encoding="utf-8"?>
<!-- Generator: Adobe Illustrator 16.0.0, SVG Export Plug-In . SVG Version: 6.00 Build 0)  -->
<!DOCTYPE svg PUBLIC "-//W3C//DTD SVG 1.1//EN" "http://www.w3.org/Graphics/SVG/1.1/DTD/svg11.dtd">
<svg preserveAspectRatio="none"   version="1.1" id="图层_1" xmlns="http://www.w3.org/2000/svg" xmlns:xlink="http://www.w3.org/1999/xlink" x="0px" y="0px"
	 width="223.562px" height="566.355px" viewBox="171.684 0.285 223.562 566.355"
	 enable-background="new 171.684 0.285 223.562 566.355" xml:space="preserve">
<g id="surface166">
	<path fill="#F2F7FB" d="M202.434,7.789l-22.5,112.5c0,0-8.25,65.203-8.25,182.484c0,117.516,33.063,253.617,33.063,253.617
		c-0.063-0.352-1.156,10.25,77.176,10.25c78.011-0.102,79.289-10.25,79.289-10.25c0.223-0.352,34.035-123.441,34.035-253.617
		c-0.063-129.984-9.852-182.433-9.852-182.433L363.683,7.789c0,0-10.828-7.5-80.683-7.5c-70.066,0-80.633,7.734-80.633,7.77
		L202.434,7.789z"/>
	<path fill="#4A5B85" d="M180.203,120.336h204.75v4.5h-204.75V120.336z"/>
	
		<linearGradient id="SVGID_1_" gradientUnits="userSpaceOnUse" x1="202.228" y1="121.3052" x2="475.2271" y2="121.3052" gradientTransform="matrix(0.75 0 0 -0.75 28.5399 151.2716)">
		<stop  offset="0.12" style="stop-color:#5C74AC"/>
		<stop  offset="0.19" style="stop-color:#546A9F"/>
		<stop  offset="0.31" style="stop-color:#52679A"/>
		<stop  offset="0.51" style="stop-color:#617AB5"/>
		<stop  offset="0.54" style="stop-color:#637CB7"/>
		<stop  offset="0.8" style="stop-color:#9CABD4"/>
		<stop  offset="1" style="stop-color:#556BA0"/>
	</linearGradient>
	<path fill="url(#SVGID_1_)" d="M201.961,7.793l-21.75,112.5h204.75l-21.75-112.5c0,0-10.453-7.5-80.457-7.5
		c-69.543,0-80.484,7.734-80.484,7.77L201.961,7.793z"/>
	
		<linearGradient id="SVGID_2_" gradientUnits="userSpaceOnUse" x1="202.2241" y1="182.8022" x2="427.0151" y2="182.8022" gradientTransform="matrix(0.75 0 0 -0.75 46.6801 151.2618)">
		<stop  offset="0" style="stop-color:#4965A8"/>
		<stop  offset="0.08" style="stop-color:#354A7D"/>
		<stop  offset="0.17" style="stop-color:#374D81"/>
		<stop  offset="0.51" style="stop-color:#45609F"/>
		<stop  offset="0.54" style="stop-color:#385492"/>
		<stop  offset="0.71" style="stop-color:#7589C4"/>
		<stop  offset="0.91" style="stop-color:#3F5EA1"/>
	</linearGradient>
	<path fill="url(#SVGID_2_)" d="M202.098,7.785l-3.75,20.25c0,0,9.449-9.207,84.918-9.207c75.582,0.207,83.675,9.129,83.675,9.129
		l-3.594-20.172c0,0-10.586-7.5-80.703-7.5c-69.297,0-80.371,7.734-80.371,7.77L202.098,7.785z"/>
	
		<linearGradient id="SVGID_3_" gradientUnits="userSpaceOnUse" x1="202.1074" y1="140.2988" x2="283.2266" y2="140.2988" gradientTransform="matrix(0.75 0 0 -0.75 100.6385 169.8458)">
		<stop  offset="0.12" style="stop-color:#5C74AC"/>
		<stop  offset="0.19" style="stop-color:#546A9F"/>
		<stop  offset="0.31" style="stop-color:#52679A"/>
		<stop  offset="0.51" style="stop-color:#617AB5"/>
		<stop  offset="0.54" style="stop-color:#637CB7"/>
		<stop  offset="0.8" style="stop-color:#879AC7"/>
		<stop  offset="1" style="stop-color:#556BA0"/>
	</linearGradient>
	<path fill="url(#SVGID_3_)" d="M252.309,18.867l3.75,81.75c0,0-0.973,9.582,14.309,9.582l23.941,0.168
		c0,0,12.359,0.719,14.758-10.332l3.992-80.418c0,0-46.035-0.305-60.839-0.75H252.309z"/>
	
		<linearGradient id="SVGID_4_" gradientUnits="userSpaceOnUse" x1="202.2285" y1="140.3052" x2="226.3066" y2="140.3052" gradientTransform="matrix(0.75 0 0 -0.75 100.6298 169.8458)">
		<stop  offset="0" style="stop-color:#4965A8"/>
		<stop  offset="0.08" style="stop-color:#354A7D"/>
		<stop  offset="0.17" style="stop-color:#374D81"/>
		<stop  offset="0.51" style="stop-color:#45609F"/>
	</linearGradient>
	<path fill="url(#SVGID_4_)" d="M270.301,110.367c0,0-6.629-1.203-6.629-16.098l-0.121-75.402h-11.25l3.75,81.75
		c0,0-0.496,9.582,14.309,9.582L270.301,110.367z"/>
	
		<linearGradient id="SVGID_5_" gradientUnits="userSpaceOnUse" x1="165.7007" y1="140.3052" x2="189.7847" y2="140.3052" gradientTransform="matrix(-0.75 0 0 -0.75 437.2521 169.8458)">
		<stop  offset="0" style="stop-color:#4965A8"/>
		<stop  offset="0.08" style="stop-color:#354A7D"/>
		<stop  offset="0.17" style="stop-color:#374D81"/>
		<stop  offset="0.51" style="stop-color:#45609F"/>
		<stop  offset="0.54" style="stop-color:#385492"/>
		<stop  offset="0.71" style="stop-color:#7589C4"/>
		<stop  offset="0.91" style="stop-color:#3F5EA1"/>
	</linearGradient>
	<path fill="url(#SVGID_5_)" d="M294.976,110.367c0,0,6.625-1.203,6.625-16.098l0.125-75.402h11.25l-3.75,81.75
		c0,0,0.496,9.582-14.313,9.582L294.976,110.367z"/>
	
		<linearGradient id="SVGID_6_" gradientUnits="userSpaceOnUse" x1="202.2256" y1="194.8022" x2="271.2246" y2="194.8022" gradientTransform="matrix(0.75 0 0 -0.75 106.0028 160.6876)">
		<stop  offset="0" style="stop-color:#4965A8"/>
		<stop  offset="0.08" style="stop-color:#354A7D"/>
		<stop  offset="0.17" style="stop-color:#374D81"/>
		<stop  offset="0.54" style="stop-color:#385492"/>
		<stop  offset="0.91" style="stop-color:#3F5EA1"/>
	</linearGradient>
	<path fill="url(#SVGID_6_)" d="M309.421,19.461l-7.5-9.75h-34.5l-9.75,9.75H309.421z"/>
	<path fill="#E4EAEF" d="M184.066,129.984c0,0-26.598,247.121,30.719,419.199c0.031,0.051,51.941,12.613,89.558,8.109
		c-0.277,0.191-58.214-7.207-68.066-24.324c-10.211-17.484-51.047-214.426-31.344-400.917c0.133,0.184-17.016-3.602-18.809-2.816
		c-2.059,0.75-3.582,2.816-1.789,1.016L184.066,129.984z"/>
	<path fill="#E4EAEF" d="M381.32,129.98c0,0,26.598,246.593-30.719,418.671c-0.031-0.172-17.898,12.543-5.359-10.879
		C362.57,505.73,386.437,276.5,360.453,131.52c-0.133-0.039,17.016-3.602,18.809-3.039c2.059,1.5,3.582,3.039,1.789,1.238
		L381.32,129.98z"/>
	<path fill="#AFB5BB" fill-opacity="0.0902" d="M179.934,120.34c0,0-8.25,65.152-8.25,182.429
		c0,117.57,33.063,253.621,33.063,253.621c-0.063-0.301-1.156,10.25,77.176,10.25c78.011-0.051,79.292-10.25,79.292-10.25
		c0.219-0.301,34.031-123.441,34.031-253.621c-0.063-129.929-9.852-182.429-9.852-182.429H179.934z"/>
	<path fill="#FFFFFF" fill-opacity="0.898" d="M290.011,135.352c0,0,41.199,3.875,68.961-1.5c0.039,0,10.746,68.473,7.164,105.41
		c-0.375,0.34-36.418,9.25-75.586,2.523L290.011,135.352z"/>
	<path fill="#FFFFFF" fill-opacity="0.898" d="M291.132,255.773c0,0,51.48,3.789,73.996-5.34c0.254,0.09,0.891,27.871-1.02,41.324
		c-0.227,0.016-27.227,8.648-73.082,4.324L291.132,255.773z"/>
</g>
</svg>
