<?xml version="1.0" encoding="utf-8"?>
<!-- Generator: Adobe Illustrator 16.0.0, SVG Export Plug-In . SVG Version: 6.00 Build 0)  -->
<!DOCTYPE svg PUBLIC "-//W3C//DTD SVG 1.1//EN" "http://www.w3.org/Graphics/SVG/1.1/DTD/svg11.dtd">
<svg preserveAspectRatio="none"   version="1.1" id="图层_1" xmlns="http://www.w3.org/2000/svg" xmlns:xlink="http://www.w3.org/1999/xlink" x="0px" y="0px"
	 width="286.57px" height="561.137px" viewBox="140.18 2.84 286.57 561.137" enable-background="new 140.18 2.84 286.57 561.137"
	 xml:space="preserve">
<g id="surface31">
	
		<linearGradient id="SVGID_1_" gradientUnits="userSpaceOnUse" x1="202.2256" y1="-154.3384" x2="584.3179" y2="-154.3384" gradientTransform="matrix(0.75 0 0 -0.75 -11.4894 181.4904)">
		<stop  offset="0" style="stop-color:#B8BCBF"/>
		<stop  offset="0.17" style="stop-color:#D6DADE"/>
		<stop  offset="0.68" style="stop-color:#F0F4F7"/>
		<stop  offset="0.83" style="stop-color:#EEF2F6"/>
		<stop  offset="1" style="stop-color:#AAAEB1"/>
	</linearGradient>
	<path fill="url(#SVGID_1_)" d="M154.43,30.512c0,0,0.637,8.004-2.121,12.973c-0.129-0.223-12.129,11.035-12.129,25.125v432.152
		c0,0,5.926,23.301,33.43,32.363c0.32-0.113,3.789,9.016,13.715,15.086c9.855,5.801,25.637,9.168,25.637,9.168
		c-0.031-0.367,34.359,6.598,69.754,6.598c35.214-0.215,70.574-6.598,70.574-6.598c-0.109-0.367,15.715-2.27,25.918-9.168
		c9.973-6.949,13.574-15.109,13.574-15.109c0.148-0.09,29.434-7.52,33.969-32.078l-0.07-433.011c0,0,0.07-15.699-12.738-24.254
		c-0.012,0.254-3.031-3.586-2.895-13.246c-0.117,0-34.598,14.625-119.512,14.625c-84.605,0.375-136.882-14.625-136.882-14.625
		H154.43z"/>
	
		<linearGradient id="SVGID_2_" gradientUnits="userSpaceOnUse" x1="202.2261" y1="181.938" x2="545.2251" y2="181.938" gradientTransform="matrix(0.75 0 0 -0.75 2.9325 167.4171)">
		<stop  offset="0" style="stop-color:#C7C7C7"/>
		<stop  offset="0.17" style="stop-color:#E7E7E7"/>
		<stop  offset="0.68" style="stop-color:#FFFFFF"/>
		<stop  offset="0.83" style="stop-color:#FFFFFF"/>
		<stop  offset="1" style="stop-color:#B8B8B8"/>
	</linearGradient>
	<path fill="url(#SVGID_2_)" d="M154.602,30.691c0,0,23.324,14.148,128.441,14.75c113.808,1,128.441-14.93,128.441-14.93
		l0.367-14.07c0,0-29.426,15.176-128.808,14.898c-99.941,0.102-128.441-14.898-128.441-14.898V30.691z"/>
	
		<linearGradient id="SVGID_3_" gradientUnits="userSpaceOnUse" x1="544.9761" y1="180.8096" x2="202.2266" y2="180.8095" gradientTransform="matrix(0.75 0 0 -0.75 3.2631 153.8947)">
		<stop  offset="0" style="stop-color:#90949A"/>
		<stop  offset="0.17" style="stop-color:#A8ADB3"/>
		<stop  offset="0.68" style="stop-color:#D4D6DA"/>
		<stop  offset="0.83" style="stop-color:#C1C5CB"/>
		<stop  offset="1" style="stop-color:#85898E"/>
	</linearGradient>
	<path fill="url(#SVGID_3_)" d="M154.934,17.918c0-8.25,57.539-15.078,128.531-15.078c70.968,0.078,128.531,6.918,128.531,15.449
		c0.188,8.629-57.563,15.449-128.531,15.449c-70.781-0.07-128.531-6.918-128.531-15.449V17.918z"/>
	
		<linearGradient id="SVGID_4_" gradientUnits="userSpaceOnUse" x1="507.3315" y1="188.6704" x2="202.2222" y2="188.6704" gradientTransform="matrix(0.75 0 0 -0.75 17.3793 165.7736)">
		<stop  offset="0" style="stop-color:#A7A9AB"/>
		<stop  offset="0.17" style="stop-color:#C3C4C7"/>
		<stop  offset="0.68" style="stop-color:#E0E1E4"/>
		<stop  offset="0.83" style="stop-color:#DBDCDF"/>
		<stop  offset="1" style="stop-color:#9B9C9E"/>
	</linearGradient>
	<path fill="url(#SVGID_4_)" d="M169.047,25.297c0,0,38.023-10.5,114.102-10.5c76.398,0,114.73,10.75,114.73,10.75
		c-0.082-0.25-24.156,8.199-114.414,8.199c-90.418-0.199-114.418-9.027-114.418-8.199V25.297z"/>
	
		<linearGradient id="SVGID_5_" gradientUnits="userSpaceOnUse" x1="320.1665" y1="192.1733" x2="202.1587" y2="192.1733" gradientTransform="matrix(0.75 0 0 -0.75 84.369 167.213)">
		<stop  offset="0" style="stop-color:#979A9C"/>
		<stop  offset="0.17" style="stop-color:#B0B3B6"/>
		<stop  offset="0.68" style="stop-color:#D0D3D5"/>
		<stop  offset="0.83" style="stop-color:#C8CBCE"/>
		<stop  offset="1" style="stop-color:#8B8E90"/>
	</linearGradient>
	<path fill="url(#SVGID_5_)" d="M251.039,29.734c0,0-11.824,0.789-15-7.777c0,0.277-3.465-5.75,47.039-5.75
		c66.21,0.027,33.175,13.754,33.175,13.754l-17.965-2.477c0,0,14.23-6.375,2.102-6.375c-11.852-0.375-39.726,0.211-39.726,0.211
		c0.125,0.164-8.23,1.535,5.363,5.113L251.039,29.734z"/>
	
		<linearGradient id="SVGID_6_" gradientUnits="userSpaceOnUse" x1="247.2241" y1="201.3018" x2="247.2241" y2="194.3018" gradientTransform="matrix(0.75 0 0 -0.75 99.5194 177.3517)">
		<stop  offset="0" style="stop-color:#979A9C"/>
		<stop  offset="0.17" style="stop-color:#B0B3B6"/>
		<stop  offset="0.68" style="stop-color:#D0D3D5"/>
		<stop  offset="0.83" style="stop-color:#C8CBCE"/>
		<stop  offset="1" style="stop-color:#8B8E90"/>
	</linearGradient>
	<path fill="url(#SVGID_6_)" d="M252.688,26.375h64.5c0.75,0,1.258,0.695,1.258,1.559l0.242,2.191c0,0.75-0.828,1.375-1.527,1.375
		l-64.472,0.125c-0.75,0-1.5-0.824-1.5-1.684v-2.066c0-0.75,0.547-1.5,1.246-1.5H252.688z"/>
	
		<linearGradient id="SVGID_7_" gradientUnits="userSpaceOnUse" x1="584.3169" y1="159.4209" x2="202.2246" y2="159.4209" gradientTransform="matrix(0.75 0 0 -0.75 -11.4894 652.0372)">
		<stop  offset="0" style="stop-color:#979A9C"/>
		<stop  offset="0.17" style="stop-color:#B0B3B6"/>
		<stop  offset="0.68" style="stop-color:#D0D3D5"/>
		<stop  offset="0.83" style="stop-color:#C8CBCE"/>
		<stop  offset="1" style="stop-color:#8B8E90"/>
	</linearGradient>
	<path fill="url(#SVGID_7_)" d="M140.18,501.058c0,0,5.926,22.953,33.422,32.012c0.328,0.238,3.793,9.016,13.715,15.086
		c9.863,6.152,25.637,9.168,25.637,9.168c-0.023-0.016,34.352,6.652,69.738,6.652c35.238,0.082,70.562-6.652,70.562-6.652
		c-0.074-0.016,15.715-2.27,25.914-9.168c10.012-6.598,13.574-15.109,13.574-15.109c0.188,0.262,29.426-7.52,34.008-32.078
		c-0.07,0.09-38.328,20.922-143.285,22.453c-105.785,1.637-143.285-22.453-143.285-22.453V501.058z"/>
	
		<linearGradient id="SVGID_8_" gradientUnits="userSpaceOnUse" x1="202.2261" y1="180.6895" x2="494.2983" y2="180.6895" gradientTransform="matrix(0.75 0 0 -0.75 21.9554 684.0343)">
		<stop  offset="0" style="stop-color:#A0A3A6"/>
		<stop  offset="0.17" style="stop-color:#BABEC2"/>
		<stop  offset="0.68" style="stop-color:#D9DCDF"/>
		<stop  offset="0.83" style="stop-color:#D2D6DA"/>
		<stop  offset="1" style="stop-color:#94979A"/>
	</linearGradient>
	<path fill="url(#SVGID_8_)" d="M173.625,533.058c0,0,3.695,9.027,13.617,15.102c9.633,5.898,25.637,9.164,25.637,9.164
		c-0.254-0.266,34.352,6.652,69.738,6.652c35.007-0.168,70.566-6.652,70.566-6.652c-0.309-0.266,15.711-2.27,25.91-9.164
		c10.531-6.852,13.586-15.102,13.586-15.102c-0.055,0-20.676,15.93-109.527,15.93C194.625,548.808,173.625,533.058,173.625,533.058z
		"/>
	
		<linearGradient id="SVGID_9_" gradientUnits="userSpaceOnUse" x1="584.3169" y1="165.1646" x2="202.2246" y2="165.1645" gradientTransform="matrix(0.75 0 0 -0.75 -11.4894 181.4904)">
		<stop  offset="0" style="stop-color:#979A9C"/>
		<stop  offset="0.17" style="stop-color:#B0B3B6"/>
		<stop  offset="0.68" style="stop-color:#D0D3D5"/>
		<stop  offset="0.83" style="stop-color:#C8CBCE"/>
		<stop  offset="1" style="stop-color:#8B8E90"/>
	</linearGradient>
	<path fill="url(#SVGID_9_)" d="M154.43,30.512c0,0,0.637,8.004-2.121,12.969c-0.129-0.219-12.129,11.039-12.129,25.141
		c0,0.141,8.172,16.102,143.285,16.102C419.179,84.512,426.75,67.766,426.75,67.766c-0.07,0.246,0-15.453-12.852-24.008
		c0.031,0.254-3.031-3.586-2.895-13.246c-0.074,0-16.469,13.324-127.949,13.816C167.18,44.762,154.652,30.512,154.652,30.512H154.43
		z"/>
</g>
</svg>
