<?xml version="1.0" encoding="utf-8"?>
<!-- Generator: Adobe Illustrator 16.0.0, SVG Export Plug-In . SVG Version: 6.00 Build 0)  -->
<!DOCTYPE svg PUBLIC "-//W3C//DTD SVG 1.1//EN" "http://www.w3.org/Graphics/SVG/1.1/DTD/svg11.dtd">
<svg preserveAspectRatio="none"   version="1.1" id="图层_1" xmlns="http://www.w3.org/2000/svg" xmlns:xlink="http://www.w3.org/1999/xlink" x="0px" y="0px"
	 width="480.55px" height="553.492px" viewBox="43.215 6.855 480.55 553.492" enable-background="new 43.215 6.855 480.55 553.492"
	 xml:space="preserve">
<g id="surface241">
	
		<linearGradient id="SVGID_1_" gradientUnits="userSpaceOnUse" x1="482.2261" y1="201.3066" x2="482.2261" y2="-10.6943" gradientTransform="matrix(0.75 0 0 -0.75 -78.3888 515.7404)">
		<stop  offset="0" style="stop-color:#BAC0C1"/>
		<stop  offset="0.15" style="stop-color:#F4FAFC"/>
		<stop  offset="0.25" style="stop-color:#F8FCFD"/>
		<stop  offset="0.44" style="stop-color:#D5DBDD"/>
		<stop  offset="0.6" style="stop-color:#BDC3C4"/>
		<stop  offset="0.8" style="stop-color:#A0A4A6"/>
		<stop  offset="0.97" style="stop-color:#929697"/>
		<stop  offset="1" style="stop-color:#C2C7C9"/>
	</linearGradient>
	<path fill="url(#SVGID_1_)" d="M73.281,364.761h420v159h-420V364.761z"/>
	
		<linearGradient id="SVGID_2_" gradientUnits="userSpaceOnUse" x1="222.2031" y1="201.3018" x2="222.2031" y2="-107.6982" gradientTransform="matrix(0.75 0 0 -0.75 -108.4191 479.5743)">
		<stop  offset="0" style="stop-color:#BAC0C1"/>
		<stop  offset="0.15" style="stop-color:#F4FAFC"/>
		<stop  offset="0.25" style="stop-color:#F8FCFD"/>
		<stop  offset="0.44" style="stop-color:#D5DBDD"/>
		<stop  offset="0.6" style="stop-color:#BDC3C4"/>
		<stop  offset="0.8" style="stop-color:#A0A4A6"/>
		<stop  offset="0.97" style="stop-color:#929697"/>
		<stop  offset="1" style="stop-color:#C2C7C9"/>
	</linearGradient>
	<path fill="url(#SVGID_2_)" d="M50,328.597h16.5c3.75,0,6.645,2.875,6.645,6.512l0.105,218.488c0,3.75-3.035,6.406-6.652,6.406
		L50,560.347c-3.75,0-6.785-3.289-6.785-6.926l0.035-218.074c0-3.75,2.895-6.75,6.512-6.75H50z"/>
	
		<linearGradient id="SVGID_3_" gradientUnits="userSpaceOnUse" x1="222.2021" y1="201.3027" x2="222.2021" y2="-107.6973" gradientTransform="matrix(0.75 0 0 -0.75 342.0985 479.5743)">
		<stop  offset="0" style="stop-color:#BAC0C1"/>
		<stop  offset="0.15" style="stop-color:#F4FAFC"/>
		<stop  offset="0.25" style="stop-color:#F8FCFD"/>
		<stop  offset="0.44" style="stop-color:#D5DBDD"/>
		<stop  offset="0.6" style="stop-color:#BDC3C4"/>
		<stop  offset="0.8" style="stop-color:#A0A4A6"/>
		<stop  offset="0.97" style="stop-color:#929697"/>
		<stop  offset="1" style="stop-color:#C2C7C9"/>
	</linearGradient>
	<path fill="url(#SVGID_3_)" d="M500.515,328.597h16.5c3.75,0,6.645,2.875,6.645,6.512l0.105,218.488
		c0,3.75-3.035,6.406-6.648,6.406l-16.602,0.344c-3.75,0-6.781-3.289-6.781-6.926l0.031-218.074c0-3.75,2.898-6.75,6.512-6.75
		H500.515z"/>
	
		<linearGradient id="SVGID_4_" gradientUnits="userSpaceOnUse" x1="600.3687" y1="54.8022" x2="202.2231" y2="54.8022" gradientTransform="matrix(0.75 0 0 -0.75 -17.5079 157.8312)">
		<stop  offset="0" style="stop-color:#182830"/>
		<stop  offset="0.03" style="stop-color:#808689"/>
		<stop  offset="0.08" style="stop-color:#233742"/>
		<stop  offset="0.64" style="stop-color:#223640"/>
		<stop  offset="0.95" style="stop-color:#21353F"/>
		<stop  offset="1" style="stop-color:#16252C"/>
	</linearGradient>
	<path fill="url(#SVGID_4_)" d="M137.16,6.855h292.5c1.5,0,3.109,1.473,3.109,3.289l-0.109,213.461c0,1.5-1.359,2.934-3.164,2.934
		l-292.335,0.066c-1.5,0-3-1.539-3-3.359V9.855c0-1.5,1.465-3,3.273-3H137.16z"/>
	<path fill="#6C6D71" d="M148.027,18.988h270.75c1.5,0,3.125,1.461,3.125,3.258l-0.125,188.742c0,2.25-1.324,3.414-3.113,3.414
		l-270.636,0.336c-1.5,0-3-1.793-3-3.594V21.988c0-1.5,1.449-3,3.238-3H148.027z"/>
	<path d="M153.664,29.031h259.5v175.5h-259.5V29.031z"/>
	<path fill="#FFFFFF" fill-opacity="0.149" d="M156.953,32.449h252.75v168.75h-252.75V32.449z"/>
	<path fill="#495253" d="M216,78.156h135v77.25H216V78.156z"/>
	<path fill="#FFFFFF" fill-opacity="0.2863" d="M218.516,80.43h129.75v72.75h-129.75V80.43z"/>
	<path fill="#FFFFFF" fill-opacity="0.1137" d="M193.375,44.164h180v9.75h-180V44.164z"/>
	<path fill="#FFFFFF" fill-opacity="0.1137" d="M193.375,170.367h180v9.75h-180V170.367z"/>
	<path fill="#FFFFFF" fill-opacity="0.1137" d="M193.375,186.313h180v6h-180V186.313z"/>
	
		<linearGradient id="SVGID_5_" gradientUnits="userSpaceOnUse" x1="206.7231" y1="201.3057" x2="206.7231" y2="-10.6943" gradientTransform="matrix(0.75 0 0 -0.75 -78.4562 515.7404)">
		<stop  offset="0" style="stop-color:#939798"/>
		<stop  offset="0.15" style="stop-color:#C5CACB"/>
		<stop  offset="0.25" style="stop-color:#DFE2E2"/>
		<stop  offset="0.44" style="stop-color:#A8ADAE"/>
		<stop  offset="0.6" style="stop-color:#959A9B"/>
		<stop  offset="0.8" style="stop-color:#7D8182"/>
		<stop  offset="0.97" style="stop-color:#727676"/>
		<stop  offset="1" style="stop-color:#999D9E"/>
	</linearGradient>
	<path fill="url(#SVGID_5_)" d="M73.211,364.761h6.75v159h-6.75V364.761z"/>
	
		<linearGradient id="SVGID_6_" gradientUnits="userSpaceOnUse" x1="206.7251" y1="201.3066" x2="206.7251" y2="-10.6934" gradientTransform="matrix(0.75 0 0 -0.75 335.2645 515.7404)">
		<stop  offset="0" style="stop-color:#939798"/>
		<stop  offset="0.15" style="stop-color:#C5CACB"/>
		<stop  offset="0.25" style="stop-color:#DFE2E2"/>
		<stop  offset="0.44" style="stop-color:#A8ADAE"/>
		<stop  offset="0.6" style="stop-color:#959A9B"/>
		<stop  offset="0.8" style="stop-color:#7D8182"/>
		<stop  offset="0.97" style="stop-color:#727676"/>
		<stop  offset="1" style="stop-color:#999D9E"/>
	</linearGradient>
	<path fill="url(#SVGID_6_)" d="M486.933,364.761h6.75v159h-6.75V364.761z"/>
	
		<linearGradient id="SVGID_7_" gradientUnits="userSpaceOnUse" x1="296.2222" y1="99.6226" x2="202.2222" y2="99.6226" gradientTransform="matrix(0.75 0 0 -0.75 96.6683 376.4152)">
		<stop  offset="0" style="stop-color:#BAC0C1"/>
		<stop  offset="0.15" style="stop-color:#F4FAFC"/>
		<stop  offset="0.25" style="stop-color:#F8FCFD"/>
		<stop  offset="0.44" style="stop-color:#D5DBDD"/>
		<stop  offset="0.6" style="stop-color:#BDC3C4"/>
		<stop  offset="0.8" style="stop-color:#A0A4A6"/>
		<stop  offset="0.97" style="stop-color:#929697"/>
		<stop  offset="1" style="stop-color:#C2C7C9"/>
	</linearGradient>
	<path fill="url(#SVGID_7_)" d="M248.336,225.438h70.5v143.25c0,0-0.836,9.273-34.871,9.273
		c-34.128-0.273-35.628-9.246-35.628-9.246V225.438z"/>
</g>
</svg>
