<?xml version="1.0" encoding="utf-8"?>
<!-- Generator: Adobe Illustrator 16.0.0, SVG Export Plug-In . SVG Version: 6.00 Build 0)  -->
<!DOCTYPE svg PUBLIC "-//W3C//DTD SVG 1.1//EN" "http://www.w3.org/Graphics/SVG/1.1/DTD/svg11.dtd">
<svg preserveAspectRatio="none"   version="1.1" id="图层_1" xmlns="http://www.w3.org/2000/svg" xmlns:xlink="http://www.w3.org/1999/xlink" x="0px" y="0px"
	 width="563.5px" height="378.25px" viewBox="1.715 94.355 563.5 378.25" enable-background="new 1.715 94.355 563.5 378.25"
	 xml:space="preserve">
<g id="surface26">
	<path fill="#5B9899" stroke="#D8D8D8" stroke-width="0.25" stroke-linejoin="bevel" stroke-miterlimit="10" d="M5.59,94.48h555.75
		c2.25,0,3.75,1.539,3.75,3.434V468.73c0,2.25-1.563,3.719-3.473,3.719L5.59,472.48c-2.25,0-3.75-1.57-3.75-3.469V98.23
		c0-2.25,1.563-3.75,3.473-3.75H5.59z"/>
	<path fill="#48787A" d="M26.43,122.758h513.75v321.75H26.43V122.758z"/>
	<path fill="#6AA5A6" d="M32.121,128.84h502.5v309h-502.5V128.84z"/>
	
		<linearGradient id="SVGID_1_" gradientUnits="userSpaceOnUse" x1="202.2241" y1="-5.1978" x2="232.2241" y2="-5.1978" gradientTransform="matrix(0.75 0 0 -0.75 -81.6168 279.3829)">
		<stop  offset="0" style="stop-color:#3F6C6E"/>
		<stop  offset="0.21" style="stop-color:#589395"/>
		<stop  offset="0.22" style="stop-color:#6BA2A4"/>
		<stop  offset="0.72" style="stop-color:#589395"/>
		<stop  offset="0.76" style="stop-color:#6BA2A4"/>
		<stop  offset="1" style="stop-color:#4B7F81"/>
	</linearGradient>
	<path fill="url(#SVGID_1_)" stroke="#548C8E" stroke-width="0.25" stroke-linejoin="bevel" stroke-miterlimit="10" d="
		M70.051,128.406h22.5v309.75h-22.5V128.406z"/>
	
		<linearGradient id="SVGID_2_" gradientUnits="userSpaceOnUse" x1="202.2261" y1="-5.1978" x2="232.2261" y2="-5.1978" gradientTransform="matrix(0.75 0 0 -0.75 -2.1417 279.3829)">
		<stop  offset="0" style="stop-color:#3F6C6E"/>
		<stop  offset="0.21" style="stop-color:#589395"/>
		<stop  offset="0.22" style="stop-color:#6BA2A4"/>
		<stop  offset="0.72" style="stop-color:#589395"/>
		<stop  offset="0.76" style="stop-color:#6BA2A4"/>
		<stop  offset="1" style="stop-color:#4B7F81"/>
	</linearGradient>
	<path fill="url(#SVGID_2_)" stroke="#548C8E" stroke-width="0.25" stroke-linejoin="bevel" stroke-miterlimit="10" d="
		M149.527,128.406h22.5v309.75h-22.5V128.406z"/>
	
		<linearGradient id="SVGID_3_" gradientUnits="userSpaceOnUse" x1="202.2246" y1="-5.1978" x2="232.2246" y2="-5.1978" gradientTransform="matrix(0.75 0 0 -0.75 80.1366 279.3829)">
		<stop  offset="0" style="stop-color:#3F6C6E"/>
		<stop  offset="0.21" style="stop-color:#589395"/>
		<stop  offset="0.22" style="stop-color:#6BA2A4"/>
		<stop  offset="0.72" style="stop-color:#589395"/>
		<stop  offset="0.76" style="stop-color:#6BA2A4"/>
		<stop  offset="1" style="stop-color:#4B7F81"/>
	</linearGradient>
	<path fill="url(#SVGID_3_)" stroke="#548C8E" stroke-width="0.25" stroke-linejoin="bevel" stroke-miterlimit="10" d="
		M231.805,128.406h22.5v309.75h-22.5V128.406z"/>
	
		<linearGradient id="SVGID_4_" gradientUnits="userSpaceOnUse" x1="202.2266" y1="-5.1978" x2="232.2266" y2="-5.1978" gradientTransform="matrix(0.75 0 0 -0.75 161.0135 279.3829)">
		<stop  offset="0" style="stop-color:#3F6C6E"/>
		<stop  offset="0.21" style="stop-color:#589395"/>
		<stop  offset="0.22" style="stop-color:#6BA2A4"/>
		<stop  offset="0.72" style="stop-color:#589395"/>
		<stop  offset="0.76" style="stop-color:#6BA2A4"/>
		<stop  offset="1" style="stop-color:#4B7F81"/>
	</linearGradient>
	<path fill="url(#SVGID_4_)" stroke="#548C8E" stroke-width="0.25" stroke-linejoin="bevel" stroke-miterlimit="10" d="
		M312.683,128.406h22.5v309.75h-22.5V128.406z"/>
	
		<linearGradient id="SVGID_5_" gradientUnits="userSpaceOnUse" x1="202.2236" y1="-5.1978" x2="232.2236" y2="-5.1978" gradientTransform="matrix(0.75 0 0 -0.75 241.8905 279.3829)">
		<stop  offset="0" style="stop-color:#3F6C6E"/>
		<stop  offset="0.21" style="stop-color:#589395"/>
		<stop  offset="0.22" style="stop-color:#6BA2A4"/>
		<stop  offset="0.72" style="stop-color:#589395"/>
		<stop  offset="0.76" style="stop-color:#6BA2A4"/>
		<stop  offset="1" style="stop-color:#4B7F81"/>
	</linearGradient>
	<path fill="url(#SVGID_5_)" stroke="#548C8E" stroke-width="0.25" stroke-linejoin="bevel" stroke-miterlimit="10" d="
		M393.558,128.406h22.5v309.75h-22.5V128.406z"/>
	
		<linearGradient id="SVGID_6_" gradientUnits="userSpaceOnUse" x1="202.2222" y1="-5.1978" x2="232.2222" y2="-5.1978" gradientTransform="matrix(0.75 0 0 -0.75 322.7665 279.3829)">
		<stop  offset="0" style="stop-color:#3F6C6E"/>
		<stop  offset="0.21" style="stop-color:#589395"/>
		<stop  offset="0.22" style="stop-color:#6BA2A4"/>
		<stop  offset="0.72" style="stop-color:#589395"/>
		<stop  offset="0.76" style="stop-color:#6BA2A4"/>
		<stop  offset="1" style="stop-color:#4B7F81"/>
	</linearGradient>
	<path fill="url(#SVGID_6_)" stroke="#548C8E" stroke-width="0.25" stroke-linejoin="bevel" stroke-miterlimit="10" d="
		M474.433,128.406h22.5v309.75h-22.5V128.406z"/>
	<path fill="#FFFFFF" fill-opacity="0.1137" d="M458.296,123.508l81.75-0.75v321.75l-425.25-1.5L458.296,123.508z"/>
	<path fill="none" stroke="#48787A" stroke-linejoin="bevel" stroke-miterlimit="10" d="M2.813,95.695l23.25,27"/>
	<path fill="none" stroke="#48787A" stroke-linejoin="bevel" stroke-miterlimit="10" d="M540.476,444.265l24,27"/>
	<path fill="none" stroke="#48787A" stroke-linejoin="bevel" stroke-miterlimit="10" d="M2.762,471.25l24-27"/>
	<path fill="none" stroke="#48787A" stroke-linejoin="bevel" stroke-miterlimit="10" d="M540.476,122.664l24-27"/>
	<path fill="#48787A" stroke="#48787A" stroke-width="0.25" stroke-linejoin="bevel" stroke-miterlimit="10" d="M84.555,472.347
		l12-18h55.5l12.75,18H84.555z"/>
	<path fill="#5B9899" stroke="#5B9899" stroke-width="0.25" stroke-linejoin="bevel" stroke-miterlimit="10" d="M89.824,472.468
		l10.5-15.75h48l11.25,15.75H89.824z"/>
	<path fill="#48787A" stroke="#48787A" stroke-width="0.25" stroke-linejoin="bevel" stroke-miterlimit="10" d="M418.031,472.347
		l12-18h55.5l12.75,18H418.031z"/>
	<path fill="#5B9899" stroke="#5B9899" stroke-width="0.25" stroke-linejoin="bevel" stroke-miterlimit="10" d="M423.3,472.472
		l10.5-15.75h48l11.25,15.75H423.3z"/>
</g>
</svg>
