<?xml version="1.0" encoding="utf-8"?>
<!-- Generator: Adobe Illustrator 16.0.0, SVG Export Plug-In . SVG Version: 6.00 Build 0)  -->
<!DOCTYPE svg PUBLIC "-//W3C//DTD SVG 1.1//EN" "http://www.w3.org/Graphics/SVG/1.1/DTD/svg11.dtd">
<svg preserveAspectRatio="none"   version="1.1" id="图层_1" xmlns="http://www.w3.org/2000/svg" xmlns:xlink="http://www.w3.org/1999/xlink" x="0px" y="0px"
	 width="554.25px" height="241.609px" viewBox="6.449 162.715 554.25 241.609"
	 enable-background="new 6.449 162.715 554.25 241.609" xml:space="preserve">
<g id="surface206">
	
		<linearGradient id="SVGID_1_" gradientUnits="userSpaceOnUse" x1="219.2217" y1="173.8037" x2="202.2217" y2="173.8037" gradientTransform="matrix(0.75 0 0 -0.75 184.7274 313.6915)">
		<stop  offset="0" style="stop-color:#A5AEAF"/>
		<stop  offset="0.15" style="stop-color:#DBE5E6"/>
		<stop  offset="0.25" style="stop-color:#EBF0F1"/>
		<stop  offset="0.44" style="stop-color:#BDC7C7"/>
		<stop  offset="0.6" style="stop-color:#A8B1B1"/>
		<stop  offset="0.8" style="stop-color:#8D9595"/>
		<stop  offset="0.97" style="stop-color:#818889"/>
		<stop  offset="1" style="stop-color:#ACB5B6"/>
	</linearGradient>
	<path fill="url(#SVGID_1_)" d="M336.394,203.965h12.75v-41.25h-12.75V203.965z"/>
	
		<linearGradient id="SVGID_2_" gradientUnits="userSpaceOnUse" x1="188.7031" y1="201.3057" x2="188.7031" y2="162.3057" gradientTransform="matrix(-0.75 0 0 -0.75 574.4796 526.0529)">
		<stop  offset="0" style="stop-color:#A8ADB0"/>
		<stop  offset="0.01" style="stop-color:#F1F7FA"/>
		<stop  offset="0.05" style="stop-color:#DAE2E5"/>
		<stop  offset="0.9" style="stop-color:#D7DEE2"/>
		<stop  offset="0.95" style="stop-color:#D2D9DD"/>
		<stop  offset="1" style="stop-color:#9CA1A4"/>
	</linearGradient>
	<path fill="url(#SVGID_2_)" d="M440.453,375.074h-24.75l10.5,29.25h24L440.453,375.074z"/>
	
		<linearGradient id="SVGID_3_" gradientUnits="userSpaceOnUse" x1="225.2275" y1="201.3057" x2="225.2275" y2="162.3057" gradientTransform="matrix(0.75 0 0 -0.75 12.1888 526.0529)">
		<stop  offset="0" style="stop-color:#A8ADB0"/>
		<stop  offset="0.01" style="stop-color:#F1F7FA"/>
		<stop  offset="0.05" style="stop-color:#DAE2E5"/>
		<stop  offset="0.9" style="stop-color:#D7DEE2"/>
		<stop  offset="0.95" style="stop-color:#D2D9DD"/>
		<stop  offset="1" style="stop-color:#9CA1A4"/>
	</linearGradient>
	<path fill="url(#SVGID_3_)" d="M173.609,375.074h24.75l-10.5,29.25h-24L173.609,375.074z"/>
	
		<linearGradient id="SVGID_4_" gradientUnits="userSpaceOnUse" x1="526.7202" y1="201.3037" x2="526.7202" y2="-23.5449" gradientTransform="matrix(0.75 0 0 -0.75 -105.3448 358.6066)">
		<stop  offset="0.05" style="stop-color:#DAE2E5"/>
		<stop  offset="0.9" style="stop-color:#D7DEE2"/>
		<stop  offset="0.95" style="stop-color:#D2D9DD"/>
		<stop  offset="1" style="stop-color:#9CA1A4"/>
	</linearGradient>
	<path fill="url(#SVGID_4_)" d="M46.324,207.629c0,0,65.16,109.378,77.203,138.308c12.047,28.941,44.445,30.238,78.918,30.238
		c34.379,0.203,234.257,0,234.257,0c0.371,0.203,36.969-0.891,50.258-24.789c13.113-23.758,36.969-109.847,46.105-124.941
		l-241.492,3.684L46.324,207.629z"/>
	
		<linearGradient id="SVGID_5_" gradientUnits="userSpaceOnUse" x1="202.1909" y1="163.8267" x2="889.3472" y2="163.8267" gradientTransform="matrix(0.75 0 0 -0.75 -122.4005 316.6271)">
		<stop  offset="0" style="stop-color:#A3B0B4"/>
		<stop  offset="0.15" style="stop-color:#C8D9DD"/>
		<stop  offset="0.25" style="stop-color:#CFE0E5"/>
		<stop  offset="0.7" style="stop-color:#C0D0D5"/>
		<stop  offset="1" style="stop-color:#ABB9BD"/>
	</linearGradient>
	<path fill="url(#SVGID_5_)" d="M41.27,165.648c0,0-15.766-0.313-11.195,6.762c-0.055-0.012,41.535,37.262,278.703,48.582
		c0.242,0.156,175.277,7.129,234.258-20.965c-0.016,0.121,11.133-8.34-25.668-7.125c0.152-0.254-34.832,3.363-105.582,8.805
		c-87.016,6.691-249.371-18.895-274.136-23.063c-25.129-3.996-96.359-12.996-96.359-12.996H41.27z"/>
	<path fill="#7E7E7E" fill-opacity="0.0627" d="M118.984,222.879c0,0,45.871,153.453,80.344,153.453
		c34.406,0.297,233.968-0.168,233.968-0.168c-0.063-0.285,9.637,13.754,52.574-139.195c-0.137,0.16-62.875,4.023-172.527,2.012
		C203.734,237.129,118.984,222.879,118.984,222.879z"/>
	
		<linearGradient id="SVGID_6_" gradientUnits="userSpaceOnUse" x1="233.376" y1="201.3047" x2="233.376" y2="182.0186" gradientTransform="matrix(0.75 0 0 -0.75 167.9052 321.0294)">
		<stop  offset="0" style="stop-color:#A8ADB0"/>
		<stop  offset="0.01" style="stop-color:#F1F7FA"/>
		<stop  offset="0.05" style="stop-color:#DAE2E5"/>
		<stop  offset="0.9" style="stop-color:#D7DEE2"/>
		<stop  offset="0.95" style="stop-color:#D2D9DD"/>
		<stop  offset="1" style="stop-color:#9CA1A4"/>
	</linearGradient>
	<path fill="url(#SVGID_6_)" d="M321.824,170.051h42.75c0.75,0,1.727,0.902,1.727,2.012l-0.227,10.738
		c0,0.75-0.664,1.715-1.766,1.715l-42.484-0.215c-1.5,0-2.25-0.684-2.25-1.797v-10.203c0-1.5,0.895-2.25,1.992-2.25H321.824z"/>
	
		<linearGradient id="SVGID_7_" gradientUnits="userSpaceOnUse" x1="217.9731" y1="203" x2="205.1747" y2="180.8324" gradientTransform="matrix(0.75 0 0 -0.75 184.2987 321.2267)">
		<stop  offset="0" style="stop-color:#A0A8A9"/>
		<stop  offset="0.15" style="stop-color:#DBE5E6"/>
		<stop  offset="0.25" style="stop-color:#EBF0F1"/>
		<stop  offset="0.52" style="stop-color:#BDC7C7"/>
		<stop  offset="0.69" style="stop-color:#A8B1B1"/>
		<stop  offset="0.8" style="stop-color:#9EA7A7"/>
		<stop  offset="0.92" style="stop-color:#959D9E"/>
		<stop  offset="1" style="stop-color:#ACB5B6"/>
	</linearGradient>
	<path fill="url(#SVGID_7_)" d="M335.968,177c0-3.75,3.078-6.797,6.93-6.797c3.57,0.047,6.977,3.152,6.977,7.043
		c0.344,4.254-3.121,7.043-6.977,7.043c-3.93,0.211-6.977-3.152-6.977-7.043L335.968,177z"/>
	<path fill="#C1D1D5" fill-opacity="0.9294" d="M46.324,207.629c0,0,160.688,32.023,261.621,32.023
		c100.629,0.227,225.121-13.207,225.121-13.207l-2.992,7.434c0,0-31.066,20.027-222.129,13.766
		C132.574,242.129,50.84,214.496,50.84,214.496L46.324,207.629z"/>
	
		<linearGradient id="SVGID_8_" gradientUnits="userSpaceOnUse" x1="941.2231" y1="149.5732" x2="202.2236" y2="149.5732" gradientTransform="matrix(0.75 0 0 -0.75 -145.2194 316.4689)">
		<stop  offset="0" style="stop-color:#B7C0C1"/>
		<stop  offset="0.15" style="stop-color:#D2DCDE"/>
		<stop  offset="0.25" style="stop-color:#D8E2E4"/>
		<stop  offset="0.7" style="stop-color:#D0DADC"/>
		<stop  offset="1" style="stop-color:#C9D2D4"/>
	</linearGradient>
	<path fill="url(#SVGID_8_)" d="M6.449,175.242v14.25c0,0,4.105,12.633,62.297,24.793c58.453,11.957,247.929,43.184,425.253,21.383
		c-0.051,0.324,56.895-10.48,66.48-17.191l0.219-18.484c0,0-1.133-7.551-47.297-6.293c0.047,0.293,38.32,2.137,23.359,8.008
		c-0.063-0.215-42.395,22.641-218.215,19.703c-0.098,0.332-242.32-13.414-288.457-49c0.359-0.168-4.988-5.504,11.223-6.762
		c-0.363-0.156-30.652-2.41-34.863,9.277V175.242z"/>
	<path fill="#E0E9E9" d="M13.691,169.676c0,0,4.957,14.84,64.145,28.676c58.855,14.074,227.769,43.188,404.972,21.383
		c-0.367,0.191,63.984-8.68,77.668-20c-0.035,1.441,2.91-12.074-48.762-6.035c-0.023-0.023,37.551-0.168,24.672,8.008
		c0.055,0.219-42.367,22.641-218.059,19.703c-0.137,0.016-242.152-13.414-288.257-49c0.121,0.266-4.984-5.504,11.215-6.762
		c0.156,0.277-20.145-2.516-27.594,3.773V169.676z"/>
	<path fill="#FFFFFF" fill-opacity="0.1373" d="M483.917,244.117c0,0-30.848,107.984-42.813,125.296
		c0.063-0.047,11.301,0.461,20.602-2.555c-0.289,0.258,20.934-49.977,41.219-125.742c-0.258,0-10.918,2.676-18.922,2.676
		L483.917,244.117z"/>
</g>
</svg>
