<?xml version="1.0" encoding="utf-8"?>
<!-- Generator: Adobe Illustrator 16.0.0, SVG Export Plug-In . SVG Version: 6.00 Build 0)  -->
<!DOCTYPE svg PUBLIC "-//W3C//DTD SVG 1.1//EN" "http://www.w3.org/Graphics/SVG/1.1/DTD/svg11.dtd">
<svg preserveAspectRatio="none"   version="1.1" id="图层_1" xmlns="http://www.w3.org/2000/svg" xmlns:xlink="http://www.w3.org/1999/xlink" x="0px" y="0px"
	 width="234.187px" height="558.106px" viewBox="166.371 3.452 234.187 558.106"
	 enable-background="new 166.371 3.452 234.187 558.106" xml:space="preserve">
<g>
	<path fill="#F2F7FB" d="M321.621,142.262h-76.5v13.5c0,0-67.504,23.047-78.75,105.512c0,0.238,0,275.285,0,275.285
		c0,0.203,10.754,24.996,117.461,24.996c106.789-0.043,116.726-24.996,116.726-24.996l-0.188-276.546
		c0,0-5.898-77.867-78.676-103.977L321.621,142.262z"/>
	<path fill="#DCE3EA" d="M166.371,536.558c0,0,10.754,25,117.461,25c106.789-0.25,116.726-25,116.726-25
		c-0.188,0-6.82,16.051-117.093,15.555C173.121,551.558,166.371,536.558,166.371,536.558z"/>
	
		<linearGradient id="SVGID_1_" gradientUnits="userSpaceOnUse" x1="202.2261" y1="193.3042" x2="302.2261" y2="193.3042" gradientTransform="matrix(0.75 0 0 -0.75 94.7562 231.9034)">
		<stop  offset="0" style="stop-color:#4965A8"/>
		<stop  offset="0.08" style="stop-color:#354A7D"/>
		<stop  offset="0.17" style="stop-color:#374D81"/>
		<stop  offset="0.51" style="stop-color:#45609F"/>
		<stop  offset="0.54" style="stop-color:#385492"/>
		<stop  offset="0.71" style="stop-color:#7589C4"/>
		<stop  offset="0.91" style="stop-color:#3F5EA1"/>
	</linearGradient>
	<path fill="url(#SVGID_1_)" d="M246.426,92.926v-5.25c0,0,13.336-6.75,14.32-6.75c0.68,0,46.156,0,46.156,0l14.523,6.75v5.25
		H246.426z"/>
	
		<linearGradient id="SVGID_2_" gradientUnits="userSpaceOnUse" x1="202.2241" y1="161.8022" x2="264.2241" y2="161.8022" gradientTransform="matrix(0.75 0 0 -0.75 109.078 172.6525)">
		<stop  offset="0" style="stop-color:#7E96D5"/>
		<stop  offset="0.12" style="stop-color:#4B6AB1"/>
		<stop  offset="0.19" style="stop-color:#4561A3"/>
		<stop  offset="0.31" style="stop-color:#435E9E"/>
		<stop  offset="0.51" style="stop-color:#5070BB"/>
		<stop  offset="0.54" style="stop-color:#5171BD"/>
		<stop  offset="0.8" style="stop-color:#8B9FD8"/>
		<stop  offset="1" style="stop-color:#2F59A4"/>
	</linearGradient>
	<path fill="url(#SVGID_2_)" d="M260.746,80.926h46.5v-59.25h-46.5V80.926z"/>
	<g>
		<defs>
			<rect id="SVGID_3_" x="173" y="5" width="154" height="23"/>
		</defs>
		<clipPath id="SVGID_4_">
			<use xlink:href="#SVGID_3_"  overflow="visible"/>
		</clipPath>
		<g id="surface161" clip-path="url(#SVGID_4_)">
			<g>
				<defs>
					<path id="SVGID_5_" d="M173.711,18.859l8.25,8.25c0,0,42.965-5.438,78.879-5.438l46.371,0.188c0,0,9.039,5.738,16.441-0.188
						c0.059,0.188,5.922-7.902,0-15.309c0.059-0.254-6.418-2.469-16.254,0c-0.188-0.254-25.57,5.43-52.613,1.48
						c-27.074-3.984-81.074,10.863-81.074,10.863V18.859z"/>
				</defs>
				<clipPath id="SVGID_6_">
					<use xlink:href="#SVGID_5_"  overflow="visible"/>
				</clipPath>
				<g clip-path="url(#SVGID_6_)">
					
						<linearGradient id="SVGID_7_" gradientUnits="userSpaceOnUse" x1="304.229" y1="172.3066" x2="304.229" y2="202.3066" gradientTransform="matrix(0.75 0 0 -0.75 22.0399 156.338)">
						<stop  offset="0" style="stop-color:#43568C"/>
						<stop  offset="0.28" style="stop-color:#6A82C3"/>
						<stop  offset="0.62" style="stop-color:#4F65A3"/>
						<stop  offset="1" style="stop-color:#3C5A9F"/>
					</linearGradient>
					
						<linearGradient id="SVGID_8_" gradientUnits="userSpaceOnUse" x1="304.6558" y1="172.3042" x2="304.6558" y2="202.3047" gradientTransform="matrix(0.75 0 0 -0.75 22.0399 156.338)">
						<stop  offset="0" style="stop-color:#43568C"/>
						<stop  offset="0.28" style="stop-color:#6A82C3"/>
						<stop  offset="0.62" style="stop-color:#4F65A3"/>
						<stop  offset="1" style="stop-color:#3C5A9F"/>
					</linearGradient>
					<path fill="url(#SVGID_7_)" stroke="url(#SVGID_8_)" stroke-width="2" stroke-miterlimit="10" d="M173.711,4.609h153v22.5
						L173.711,4.609z"/>
					
						<linearGradient id="SVGID_9_" gradientUnits="userSpaceOnUse" x1="406.2271" y1="187.3066" x2="202.2271" y2="187.3066" gradientTransform="matrix(0.75 0 0 -0.75 22.0399 156.338)">
						<stop  offset="0" style="stop-color:#43568C"/>
						<stop  offset="0.28" style="stop-color:#6A82C3"/>
						<stop  offset="0.62" style="stop-color:#4F65A3"/>
						<stop  offset="1" style="stop-color:#3C5A9F"/>
					</linearGradient>
					
						<linearGradient id="SVGID_10_" gradientUnits="userSpaceOnUse" x1="406.3726" y1="187.3857" x2="202.3726" y2="187.3857" gradientTransform="matrix(0.75 0 0 -0.75 22.0399 156.338)">
						<stop  offset="0" style="stop-color:#43568C"/>
						<stop  offset="0.28" style="stop-color:#6A82C3"/>
						<stop  offset="0.62" style="stop-color:#4F65A3"/>
						<stop  offset="1" style="stop-color:#3C5A9F"/>
					</linearGradient>
					<path fill="url(#SVGID_9_)" stroke="url(#SVGID_10_)" stroke-width="2" stroke-miterlimit="10" d="M173.711,4.609v22.5h153
						L173.711,4.609z"/>
				</g>
			</g>
			
				<linearGradient id="SVGID_11_" gradientUnits="userSpaceOnUse" x1="202.228" y1="167.0869" x2="313.2271" y2="167.0869" gradientTransform="matrix(0.75 0 0 -0.75 90.2474 242.8634)">
				<stop  offset="0.12" style="stop-color:#5C74AC"/>
				<stop  offset="0.19" style="stop-color:#546A9F"/>
				<stop  offset="0.31" style="stop-color:#52679A"/>
				<stop  offset="0.51" style="stop-color:#617AB5"/>
				<stop  offset="0.54" style="stop-color:#637CB7"/>
				<stop  offset="0.8" style="stop-color:#9CABD4"/>
				<stop  offset="1" style="stop-color:#556BA0"/>
			</linearGradient>
			<path fill="url(#SVGID_11_)" d="M244.168,91.887h78.75c1.5,0,1.996,0.844,1.996,1.922l0.254,47.578
				c0,0.75-1.125,1.824-2.199,1.824l-78.8-0.324c-1.5,0-2.25-0.551-2.25-1.629V94.137c0-1.5,0.867-2.25,1.941-2.25H244.168z"/>
			<path fill="#E4EAEF" d="M173.227,268.688l-0.75,267.75c0,0,13.715,10.262,125.277,13.207c-0.027,0.293,18.441-2.082-5.531-11.34
				c-23.746-9.367-96.808,6.48-96.808-139.805c0.313-0.063-5.531-173.132-22.129-129.617L173.227,268.688z"/>
			<path fill="#DCE3EA" d="M243.832,160.789h57c0,0-1.598,16.559-17.808,26.434c-10.691,6.566-59.441,4.445-99.191,34.938
				c0,0.129,12.242-34.566,60.121-61.461L243.832,160.789z"/>
			
				<linearGradient id="SVGID_12_" gradientUnits="userSpaceOnUse" x1="202.2231" y1="192.3042" x2="304.2231" y2="192.3042" gradientTransform="matrix(0.75 0 0 -0.75 93.5629 293.2404)">
				<stop  offset="0" style="stop-color:#4965A8"/>
				<stop  offset="0.08" style="stop-color:#354A7D"/>
				<stop  offset="0.17" style="stop-color:#374D81"/>
				<stop  offset="0.51" style="stop-color:#45609F"/>
				<stop  offset="0.54" style="stop-color:#385492"/>
				<stop  offset="0.71" style="stop-color:#7589C4"/>
				<stop  offset="0.91" style="stop-color:#3F5EA1"/>
			</linearGradient>
			<path fill="url(#SVGID_12_)" d="M245.23,142.262h76.5v13.5h-76.5V142.262z"/>
			<path fill="#E4EAEF" d="M383.503,237.637c0,0,9.711,2.914,12.793,33.527l-0.043,258.972c0,0-4.023,8.168-12.75,8.746V237.637z"/>
			<path fill="#AFB5BB" fill-opacity="0.0902" d="M245.121,156.035c0,0-67.504,22.773-78.75,105.238c0-0.238,0,275.285,0,275.285
				c0-0.273,10.754,24.996,117.461,24.996c106.789,0.23,116.726-24.996,116.726-24.996l-0.188-276.273
				c0,0-5.898-78.141-78.676-104.25H245.121z"/>
			<path fill="#FFFFFF" fill-opacity="0.898" d="M323.699,177.211c0,0,46.75,28.648,49.699,97.285c2.801,68.464,0,245.41,0,245.41
				c-0.199,0.055-4.918,22.223-10.324-13.824c-0.375-0.371-7.625-189.613-7.625-227.14c-0.25,0.27-1.227-70.121-31.223-93.328
				c0.223-0.152-12.785-10.215-0.492-8.402H323.699z"/>
			<path fill="#E4EAEF" d="M192.07,273.281c0,0,62.965,11.71,158.007,2.66l0.242,198.339c0,0-91.074,45.703-121.07-62.93
				L192.07,273.281z"/>
		</g>
	</g>
</g>
</svg>
