<?xml version="1.0" encoding="utf-8"?>
<!-- Generator: Adobe Illustrator 16.0.0, SVG Export Plug-In . SVG Version: 6.00 Build 0)  -->
<!DOCTYPE svg PUBLIC "-//W3C//DTD SVG 1.1//EN" "http://www.w3.org/Graphics/SVG/1.1/DTD/svg11.dtd">
<svg preserveAspectRatio="none"   version="1.1" id="图层_1" xmlns="http://www.w3.org/2000/svg" xmlns:xlink="http://www.w3.org/1999/xlink" x="0px" y="0px"
	 width="208.502px" height="565.083px" viewBox="179.369 0.898 208.502 565.083"
	 enable-background="new 179.369 0.898 208.502 565.083" xml:space="preserve">
<g id="surface41">
	
		<linearGradient id="SVGID_1_" gradientUnits="userSpaceOnUse" x1="202.2261" y1="22.8218" x2="480.2261" y2="22.8218" gradientTransform="matrix(0.75 0 0 -0.75 27.7015 203.1564)">
		<stop  offset="0" style="stop-color:#960016"/>
		<stop  offset="0.17" style="stop-color:#AF001B"/>
		<stop  offset="0.68" style="stop-color:#CF7C7F"/>
		<stop  offset="0.83" style="stop-color:#C75056"/>
		<stop  offset="1" style="stop-color:#8A0013"/>
	</linearGradient>
	<path fill="url(#SVGID_1_)" d="M179.371,66.43v253.5h208.5V66.43c0,0-87.535-32.121-208.5-0.008V66.43z"/>
	
		<linearGradient id="SVGID_2_" gradientUnits="userSpaceOnUse" x1="165.6191" y1="188.8267" x2="393.7261" y2="188.8267" gradientTransform="matrix(-0.75 0 0 -0.75 493.9972 151.9611)">
		<stop  offset="0" style="stop-color:#C7C7C7"/>
		<stop  offset="0.17" style="stop-color:#E7E7E7"/>
		<stop  offset="0.68" style="stop-color:#FFFFFF"/>
		<stop  offset="0.83" style="stop-color:#FFFFFF"/>
		<stop  offset="1" style="stop-color:#B8B8B8"/>
	</linearGradient>
	<path fill="url(#SVGID_2_)" d="M367.468,19.734c0,0,4.953-2.262,0.367-8.98c-0.367-0.02-21.574-9.855-82.32-9.855
		c-60.546,0.086-84.886,9.855-84.886,9.855c0.34-0.02-3.52,2.055-1.156,9.031c-0.004-0.051,30.121-9.852,86.847-9.852
		c56.398,0.051,81.324,9.852,81.324,9.852L367.468,19.734z"/>
	
		<linearGradient id="SVGID_3_" gradientUnits="userSpaceOnUse" x1="202.2261" y1="163.6416" x2="479.8433" y2="163.6416" gradientTransform="matrix(0.75 0 0 -0.75 27.7015 160.9093)">
		<stop  offset="0" style="stop-color:#7E0011"/>
		<stop  offset="0.17" style="stop-color:#930016"/>
		<stop  offset="0.68" style="stop-color:#BA7C7E"/>
		<stop  offset="0.83" style="stop-color:#AD5054"/>
		<stop  offset="1" style="stop-color:#74000F"/>
	</linearGradient>
	<path fill="url(#SVGID_3_)" d="M199.621,19.684v12.75c0,0-19.168,17.066-20.25,33.988c0-0.238,43.727-7.48,104.473-7.066
		c60.527,0.078,103.714,7.066,103.714,7.066c0.313-0.238-1.977-18.305-20.027-33.289l0.09-13.449c0,0-12.57-9.75-84.156-9.75
		c-71.844,0-84.191,9.852-84.191,9.91L199.621,19.684z"/>
	
		<linearGradient id="SVGID_4_" gradientUnits="userSpaceOnUse" x1="479.8091" y1="179.0161" x2="202.2217" y2="179.0161" gradientTransform="matrix(0.75 0 0 -0.75 27.7015 683.4552)">
		<stop  offset="0" style="stop-color:#979A9C"/>
		<stop  offset="0.17" style="stop-color:#B0B3B6"/>
		<stop  offset="0.68" style="stop-color:#D0D3D5"/>
		<stop  offset="0.83" style="stop-color:#C8CBCE"/>
		<stop  offset="1" style="stop-color:#8B8E90"/>
	</linearGradient>
	<path fill="url(#SVGID_4_)" d="M179.371,532.476c0,0-0.527,9.738,13.957,15.074c0.293-0.074,9.25,6.57,11.027,10.523
		c-0.234-0.098,0.234,7.895,79.488,7.895c79.277,0.258,78.609-7.066,78.609-7.066c-0.082-0.176,1.449-6.563,8.285-10.258
		c6.633-3.418,16.82-9.047,16.82-16.23c0.313,0.063-69.922,4.871-104.519,4.871c-34.668-0.309-103.668-4.871-103.668-4.871V532.476z
		"/>
	
		<linearGradient id="SVGID_5_" gradientUnits="userSpaceOnUse" x1="202.2261" y1="50.5981" x2="480.2261" y2="50.5981" gradientTransform="matrix(0.75 0 0 -0.75 27.7015 463.0529)">
		<stop  offset="0" style="stop-color:#B8BCBF"/>
		<stop  offset="0.17" style="stop-color:#D6DADE"/>
		<stop  offset="0.68" style="stop-color:#F0F4F7"/>
		<stop  offset="0.83" style="stop-color:#EEF2F6"/>
		<stop  offset="1" style="stop-color:#AAAEB1"/>
	</linearGradient>
	<path fill="url(#SVGID_5_)" d="M179.371,532.574c0,0,113.511,12.621,208.187-0.16l0.313-220.34h-208.5V532.574z"/>
	
		<linearGradient id="SVGID_6_" gradientUnits="userSpaceOnUse" x1="202.2241" y1="189.0659" x2="439.5093" y2="189.0659" gradientTransform="matrix(0.75 0 0 -0.75 41.7303 698.5646)">
		<stop  offset="0" style="stop-color:#A0A3A6"/>
		<stop  offset="0.17" style="stop-color:#BABEC2"/>
		<stop  offset="0.68" style="stop-color:#D9DCDF"/>
		<stop  offset="0.83" style="stop-color:#D2D6DA"/>
		<stop  offset="1" style="stop-color:#94979A"/>
	</linearGradient>
	<path fill="url(#SVGID_6_)" d="M193.398,547.585c0,0,9.254,6.535,11.031,10.492c0.219,0.008,0.234,7.891,79.488,7.891
		c78.98,0.367,78.609-7.066,78.609-7.066c0.371-0.066,1.449-6.563,8.418-10.258c6.953-4.059-73.754,14.098-177.546-1.094V547.585z"
		/>
</g>
</svg>
