<?xml version="1.0" encoding="utf-8"?>
<!-- Generator: Adobe Illustrator 16.0.0, SVG Export Plug-In . SVG Version: 6.00 Build 0)  -->
<!DOCTYPE svg PUBLIC "-//W3C//DTD SVG 1.1//EN" "http://www.w3.org/Graphics/SVG/1.1/DTD/svg11.dtd">
<svg preserveAspectRatio="none" version="1.1" id="图层_1" xmlns="http://www.w3.org/2000/svg" xmlns:xlink="http://www.w3.org/1999/xlink" x="0px" y="0px"
	 width="563.167px" height="555.996px" viewBox="1.875 5.574 563.167 555.996" enable-background="new 1.875 5.574 563.167 555.996"
	 xml:space="preserve">
<g id="surface251">
	
		<linearGradient id="SVGID_1_" gradientUnits="userSpaceOnUse" x1="226.2275" y1="189.8369" x2="202.2275" y2="189.8369" gradientTransform="matrix(0.75 0 0 -0.75 194.3759 370.8868)">
		<stop  offset="0" style="stop-color:#BAC0C1"/>
		<stop  offset="0.15" style="stop-color:#F4FAFC"/>
		<stop  offset="0.25" style="stop-color:#F8FCFD"/>
		<stop  offset="0.52" style="stop-color:#D5DBDD"/>
		<stop  offset="0.69" style="stop-color:#BDC3C4"/>
		<stop  offset="0.8" style="stop-color:#B3B8B9"/>
		<stop  offset="0.97" style="stop-color:#A9AEAF"/>
		<stop  offset="1" style="stop-color:#C2C7C9"/>
	</linearGradient>
	<path fill="url(#SVGID_1_)" d="M364.046,222.91v14.25h-18v-14.25c0-1.5,1.281-3.051,2.855-3.051l12.145,0.051
		c1.5,0,2.656,1.223,2.656,2.789L364.046,222.91z"/>
	
		<linearGradient id="SVGID_2_" gradientUnits="userSpaceOnUse" x1="226.2227" y1="189.8369" x2="202.2227" y2="189.8369" gradientTransform="matrix(0.75 0 0 -0.75 50.9535 370.8868)">
		<stop  offset="0" style="stop-color:#BAC0C1"/>
		<stop  offset="0.15" style="stop-color:#F4FAFC"/>
		<stop  offset="0.25" style="stop-color:#F8FCFD"/>
		<stop  offset="0.52" style="stop-color:#D5DBDD"/>
		<stop  offset="0.69" style="stop-color:#BDC3C4"/>
		<stop  offset="0.8" style="stop-color:#B3B8B9"/>
		<stop  offset="0.97" style="stop-color:#A9AEAF"/>
		<stop  offset="1" style="stop-color:#C2C7C9"/>
	</linearGradient>
	<path fill="url(#SVGID_2_)" d="M220.621,222.91v14.25h-18v-14.25c0-1.5,1.285-3.051,2.855-3.051l12.145,0.051
		c1.5,0,2.656,1.223,2.656,2.789L220.621,222.91z"/>
	
		<linearGradient id="SVGID_3_" gradientUnits="userSpaceOnUse" x1="221.6973" y1="201.3027" x2="221.6973" y2="162.3027" gradientTransform="matrix(0.75 0 0 -0.75 11.0258 220.6915)">
		<stop  offset="0" style="stop-color:#BAC0C1"/>
		<stop  offset="0.15" style="stop-color:#F4FAFC"/>
		<stop  offset="0.25" style="stop-color:#F8FCFD"/>
		<stop  offset="0.52" style="stop-color:#D5DBDD"/>
		<stop  offset="0.69" style="stop-color:#BDC3C4"/>
		<stop  offset="0.8" style="stop-color:#B3B8B9"/>
		<stop  offset="0.97" style="stop-color:#A9AEAF"/>
		<stop  offset="1" style="stop-color:#C2C7C9"/>
	</linearGradient>
	<path fill="url(#SVGID_3_)" d="M167.195,69.715h24.75v29.25h-24.75c-2.25,0-4.543-2.02-4.543-4.633l0.043-20.117
		c0-2.25,2.078-4.5,4.699-4.5H167.195z"/>
	
		<linearGradient id="SVGID_4_" gradientUnits="userSpaceOnUse" x1="221.6973" y1="201.3027" x2="221.6973" y2="162.3027" gradientTransform="matrix(0.75 0 0 -0.75 11.0258 269.4532)">
		<stop  offset="0" style="stop-color:#BAC0C1"/>
		<stop  offset="0.15" style="stop-color:#F4FAFC"/>
		<stop  offset="0.25" style="stop-color:#F8FCFD"/>
		<stop  offset="0.52" style="stop-color:#D5DBDD"/>
		<stop  offset="0.69" style="stop-color:#BDC3C4"/>
		<stop  offset="0.8" style="stop-color:#B3B8B9"/>
		<stop  offset="0.97" style="stop-color:#A9AEAF"/>
		<stop  offset="1" style="stop-color:#C2C7C9"/>
	</linearGradient>
	<path fill="url(#SVGID_4_)" d="M167.195,118.477h24.75v29.25h-24.75c-2.25,0-4.543-2.02-4.543-4.633l0.043-20.117
		c0-2.25,2.078-4.5,4.699-4.5H167.195z"/>
	
		<linearGradient id="SVGID_5_" gradientUnits="userSpaceOnUse" x1="364.7261" y1="201.3047" x2="364.7261" y2="-83.6953" gradientTransform="matrix(0.75 0 0 -0.75 9.8187 498.799)">
		<stop  offset="0" style="stop-color:#BAC0C1"/>
		<stop  offset="0.15" style="stop-color:#F4FAFC"/>
		<stop  offset="0.25" style="stop-color:#F8FCFD"/>
		<stop  offset="0.52" style="stop-color:#D5DBDD"/>
		<stop  offset="0.69" style="stop-color:#BDC3C4"/>
		<stop  offset="0.8" style="stop-color:#B3B8B9"/>
		<stop  offset="0.97" style="stop-color:#A9AEAF"/>
		<stop  offset="1" style="stop-color:#C2C7C9"/>
	</linearGradient>
	<path fill="url(#SVGID_5_)" d="M161.488,347.82h243.75v213.75h-243.75V347.82z"/>
	
		<linearGradient id="SVGID_6_" gradientUnits="userSpaceOnUse" x1="208.2275" y1="201.3047" x2="208.2275" y2="-38.6953" gradientTransform="matrix(0.75 0 0 -0.75 0.4003 515.5099)">
		<stop  offset="0" style="stop-color:#BAC0C1"/>
		<stop  offset="0.15" style="stop-color:#F4FAFC"/>
		<stop  offset="0.25" style="stop-color:#F8FCFD"/>
		<stop  offset="0.52" style="stop-color:#D5DBDD"/>
		<stop  offset="0.69" style="stop-color:#BDC3C4"/>
		<stop  offset="0.8" style="stop-color:#B3B8B9"/>
		<stop  offset="0.97" style="stop-color:#A9AEAF"/>
		<stop  offset="1" style="stop-color:#C2C7C9"/>
	</linearGradient>
	<path fill="url(#SVGID_6_)" d="M161.07,364.531h-9v180h9V364.531z"/>
	
		<linearGradient id="SVGID_7_" gradientUnits="userSpaceOnUse" x1="289.7241" y1="201.3057" x2="289.7241" y2="-1.6943" gradientTransform="matrix(0.75 0 0 -0.75 -131.0743 529.4044)">
		<stop  offset="0" style="stop-color:#BAC0C1"/>
		<stop  offset="0.15" style="stop-color:#F4FAFC"/>
		<stop  offset="0.25" style="stop-color:#F8FCFD"/>
		<stop  offset="0.52" style="stop-color:#D5DBDD"/>
		<stop  offset="0.69" style="stop-color:#BDC3C4"/>
		<stop  offset="0.8" style="stop-color:#B3B8B9"/>
		<stop  offset="0.97" style="stop-color:#A9AEAF"/>
		<stop  offset="1" style="stop-color:#C2C7C9"/>
	</linearGradient>
	<path fill="url(#SVGID_7_)" d="M151.844,378.425H20.594v152.25h131.25V378.425z"/>
	
		<linearGradient id="SVGID_8_" gradientUnits="userSpaceOnUse" x1="203.7236" y1="201.3047" x2="203.7236" y2="-83.6953" gradientTransform="matrix(0.75 0 0 -0.75 9.4808 498.799)">
		<stop  offset="0" style="stop-color:#A2A7A8"/>
		<stop  offset="0.15" style="stop-color:#D7DCDE"/>
		<stop  offset="0.25" style="stop-color:#E9ECED"/>
		<stop  offset="0.52" style="stop-color:#B9BFC0"/>
		<stop  offset="0.69" style="stop-color:#A5AAAB"/>
		<stop  offset="0.8" style="stop-color:#9BA0A1"/>
		<stop  offset="0.97" style="stop-color:#939798"/>
		<stop  offset="1" style="stop-color:#A9AEAF"/>
	</linearGradient>
	<path fill="url(#SVGID_8_)" d="M161.148,347.82h2.25v213.75h-2.25V347.82z"/>
	
		<linearGradient id="SVGID_9_" gradientUnits="userSpaceOnUse" x1="203.728" y1="201.3057" x2="203.728" y2="-1.6943" gradientTransform="matrix(0.75 0 0 -0.75 -1.632 529.4044)">
		<stop  offset="0" style="stop-color:#A2A7A8"/>
		<stop  offset="0.15" style="stop-color:#D7DCDE"/>
		<stop  offset="0.25" style="stop-color:#E9ECED"/>
		<stop  offset="0.52" style="stop-color:#B9BFC0"/>
		<stop  offset="0.69" style="stop-color:#A5AAAB"/>
		<stop  offset="0.8" style="stop-color:#9BA0A1"/>
		<stop  offset="0.97" style="stop-color:#939798"/>
		<stop  offset="1" style="stop-color:#A9AEAF"/>
	</linearGradient>
	<path fill="url(#SVGID_9_)" d="M152.289,378.425h-2.25v152.25h2.25V378.425z"/>
	
		<linearGradient id="SVGID_10_" gradientUnits="userSpaceOnUse" x1="289.7231" y1="201.3066" x2="289.7231" y2="-1.6943" gradientTransform="matrix(0.75 0 0 -0.75 262.871 529.4044)">
		<stop  offset="0" style="stop-color:#BAC0C1"/>
		<stop  offset="0.15" style="stop-color:#F4FAFC"/>
		<stop  offset="0.25" style="stop-color:#F8FCFD"/>
		<stop  offset="0.52" style="stop-color:#D5DBDD"/>
		<stop  offset="0.69" style="stop-color:#BDC3C4"/>
		<stop  offset="0.8" style="stop-color:#B3B8B9"/>
		<stop  offset="0.97" style="stop-color:#A9AEAF"/>
		<stop  offset="1" style="stop-color:#C2C7C9"/>
	</linearGradient>
	<path fill="url(#SVGID_10_)" d="M545.789,378.425h-131.25v152.25h131.25V378.425z"/>
	
		<linearGradient id="SVGID_11_" gradientUnits="userSpaceOnUse" x1="208.2236" y1="201.3047" x2="208.2236" y2="-38.6953" gradientTransform="matrix(0.75 0 0 -0.75 253.6132 515.5099)">
		<stop  offset="0" style="stop-color:#BAC0C1"/>
		<stop  offset="0.15" style="stop-color:#F4FAFC"/>
		<stop  offset="0.25" style="stop-color:#F8FCFD"/>
		<stop  offset="0.52" style="stop-color:#D5DBDD"/>
		<stop  offset="0.69" style="stop-color:#BDC3C4"/>
		<stop  offset="0.8" style="stop-color:#B3B8B9"/>
		<stop  offset="0.97" style="stop-color:#A9AEAF"/>
		<stop  offset="1" style="stop-color:#C2C7C9"/>
	</linearGradient>
	<path fill="url(#SVGID_11_)" d="M414.281,364.531h-9v180h9V364.531z"/>
	
		<linearGradient id="SVGID_12_" gradientUnits="userSpaceOnUse" x1="203.7222" y1="201.3057" x2="203.7222" y2="-1.6943" gradientTransform="matrix(0.75 0 0 -0.75 263.0946 529.4044)">
		<stop  offset="0" style="stop-color:#A2A7A8"/>
		<stop  offset="0.15" style="stop-color:#D7DCDE"/>
		<stop  offset="0.25" style="stop-color:#E9ECED"/>
		<stop  offset="0.52" style="stop-color:#B9BFC0"/>
		<stop  offset="0.69" style="stop-color:#A5AAAB"/>
		<stop  offset="0.8" style="stop-color:#9BA0A1"/>
		<stop  offset="0.97" style="stop-color:#939798"/>
		<stop  offset="1" style="stop-color:#A9AEAF"/>
	</linearGradient>
	<path fill="url(#SVGID_12_)" d="M417.011,378.425h-2.25v152.25h2.25V378.425z"/>
	
		<linearGradient id="SVGID_13_" gradientUnits="userSpaceOnUse" x1="203.7266" y1="201.3047" x2="203.7265" y2="-83.6953" gradientTransform="matrix(0.75 0 0 -0.75 251.7909 498.799)">
		<stop  offset="0" style="stop-color:#A2A7A8"/>
		<stop  offset="0.15" style="stop-color:#D7DCDE"/>
		<stop  offset="0.25" style="stop-color:#E9ECED"/>
		<stop  offset="0.52" style="stop-color:#B9BFC0"/>
		<stop  offset="0.69" style="stop-color:#A5AAAB"/>
		<stop  offset="0.8" style="stop-color:#9BA0A1"/>
		<stop  offset="0.97" style="stop-color:#939798"/>
		<stop  offset="1" style="stop-color:#A9AEAF"/>
	</linearGradient>
	<path fill="url(#SVGID_13_)" d="M403.46,347.82h2.25v213.75h-2.25V347.82z"/>
	
		<linearGradient id="SVGID_14_" gradientUnits="userSpaceOnUse" x1="275.644" y1="130.9795" x2="202.2275" y2="130.9795" gradientTransform="matrix(0.75 0 0 -0.75 104.2631 403.6642)">
		<stop  offset="0" style="stop-color:#BAC0C1"/>
		<stop  offset="0.15" style="stop-color:#F4FAFC"/>
		<stop  offset="0.25" style="stop-color:#F8FCFD"/>
		<stop  offset="0.52" style="stop-color:#D5DBDD"/>
		<stop  offset="0.69" style="stop-color:#BDC3C4"/>
		<stop  offset="0.8" style="stop-color:#B3B8B9"/>
		<stop  offset="0.97" style="stop-color:#A9AEAF"/>
		<stop  offset="1" style="stop-color:#C2C7C9"/>
	</linearGradient>
	<path fill="url(#SVGID_14_)" d="M310.683,252.688h-54.75v96c0,0,0.816,9.48,28.089,9.48c27.41,0.27,26.973-9.656,26.973-9.656
		L310.683,252.688z"/>
	
		<linearGradient id="SVGID_15_" gradientUnits="userSpaceOnUse" x1="444.2231" y1="189.3257" x2="202.2236" y2="189.3257" gradientTransform="matrix(0.75 0 0 -0.75 41.1952 403.6945)">
		<stop  offset="0" style="stop-color:#BAC0C1"/>
		<stop  offset="0.15" style="stop-color:#F4FAFC"/>
		<stop  offset="0.25" style="stop-color:#F8FCFD"/>
		<stop  offset="0.52" style="stop-color:#D5DBDD"/>
		<stop  offset="0.69" style="stop-color:#BDC3C4"/>
		<stop  offset="0.8" style="stop-color:#B3B8B9"/>
		<stop  offset="0.97" style="stop-color:#A9AEAF"/>
		<stop  offset="1" style="stop-color:#C2C7C9"/>
	</linearGradient>
	<path fill="url(#SVGID_15_)" d="M197.363,252.715h171.75c3,0,4.953,2.09,4.953,4.707l0.297,8.793c0,2.25-2.465,4.477-5.086,4.477
		l-171.914,0.023c-2.25,0-4.5-2.156-4.5-4.773v-8.727c0-2.25,2.094-4.527,4.715-4.527L197.363,252.715z"/>
	
		<linearGradient id="SVGID_16_" gradientUnits="userSpaceOnUse" x1="444.2231" y1="189.3247" x2="202.2241" y2="189.3247" gradientTransform="matrix(0.75 0 0 -0.75 41.1947 385.7042)">
		<stop  offset="0" style="stop-color:#9D9D9D"/>
		<stop  offset="0.15" style="stop-color:#D0D1D1"/>
		<stop  offset="0.25" style="stop-color:#E5E6E6"/>
		<stop  offset="0.52" style="stop-color:#B3B4B4"/>
		<stop  offset="0.69" style="stop-color:#9FA0A0"/>
		<stop  offset="0.8" style="stop-color:#969797"/>
		<stop  offset="0.97" style="stop-color:#8E8E8E"/>
		<stop  offset="1" style="stop-color:#A3A4A4"/>
	</linearGradient>
	<path fill="url(#SVGID_16_)" d="M197.363,234.727h171.75c3,0,4.953,2.09,4.953,4.703l0.297,8.797c0,2.25-2.465,4.477-5.086,4.477
		l-171.914,0.023c-2.25,0-4.5-2.16-4.5-4.773v-8.727c0-2.25,2.094-4.531,4.715-4.531L197.363,234.727z"/>
	
		<linearGradient id="SVGID_17_" gradientUnits="userSpaceOnUse" x1="214.875" y1="201.3047" x2="214.875" y2="-68.9346" gradientTransform="matrix(0.75 0 0 -0.75 -149.795 504.2247)">
		<stop  offset="0" style="stop-color:#BAC0C1"/>
		<stop  offset="0.15" style="stop-color:#F4FAFC"/>
		<stop  offset="0.25" style="stop-color:#F8FCFD"/>
		<stop  offset="0.52" style="stop-color:#D5DBDD"/>
		<stop  offset="0.69" style="stop-color:#BDC3C4"/>
		<stop  offset="0.8" style="stop-color:#B3B8B9"/>
		<stop  offset="0.97" style="stop-color:#A9AEAF"/>
		<stop  offset="1" style="stop-color:#C2C7C9"/>
	</linearGradient>
	<path fill="url(#SVGID_17_)" d="M6.375,353.246h9.75c2.25,0,4.723,2.121,4.723,4.734l-0.223,193.266c0,2.25-1.918,4.68-4.535,4.68
		l-9.715-0.18c-2.25,0-4.5-2-4.5-4.613V357.746c0-2.25,2.109-4.5,4.727-4.5H6.375z"/>
	
		<linearGradient id="SVGID_18_" gradientUnits="userSpaceOnUse" x1="214.8716" y1="201.3057" x2="214.8716" y2="-68.9336" gradientTransform="matrix(0.75 0 0 -0.75 394.4022 504.2247)">
		<stop  offset="0" style="stop-color:#BAC0C1"/>
		<stop  offset="0.15" style="stop-color:#F4FAFC"/>
		<stop  offset="0.25" style="stop-color:#F8FCFD"/>
		<stop  offset="0.52" style="stop-color:#D5DBDD"/>
		<stop  offset="0.69" style="stop-color:#BDC3C4"/>
		<stop  offset="0.8" style="stop-color:#B3B8B9"/>
		<stop  offset="0.97" style="stop-color:#A9AEAF"/>
		<stop  offset="1" style="stop-color:#C2C7C9"/>
	</linearGradient>
	<path fill="url(#SVGID_18_)" d="M550.57,353.246h9.75c2.25,0,4.723,2.121,4.723,4.734l-0.223,193.266c0,2.25-1.914,4.68-4.535,4.68
		l-9.715-0.18c-2.25,0-4.5-2-4.5-4.613V357.746c0-2.25,2.109-4.5,4.73-4.5H550.57z"/>
	
		<linearGradient id="SVGID_19_" gradientUnits="userSpaceOnUse" x1="298.2241" y1="177.3066" x2="202.2251" y2="177.3066" gradientTransform="matrix(0.75 0 0 -0.75 95.827 350.7169)">
		<stop  offset="0" style="stop-color:#9D9D9D"/>
		<stop  offset="0.15" style="stop-color:#D0D1D1"/>
		<stop  offset="0.25" style="stop-color:#E5E6E6"/>
		<stop  offset="0.52" style="stop-color:#B3B4B4"/>
		<stop  offset="0.69" style="stop-color:#9FA0A0"/>
		<stop  offset="0.8" style="stop-color:#969797"/>
		<stop  offset="0.97" style="stop-color:#8E8E8E"/>
		<stop  offset="1" style="stop-color:#A3A4A4"/>
	</linearGradient>
	<path fill="url(#SVGID_19_)" d="M247.496,235.738h72l-8.25-36h-55.5L247.496,235.738z"/>
	<path fill="#90999C" d="M180.074,109.074c0-57,46.289-103.5,103.391-103.5c57.109,0,103.39,46.203,103.39,103.195
		c0.219,57.305-46.289,103.195-103.39,103.195c-56.891-0.141-103.391-46.203-103.391-103.195V109.074z"/>
	
		<linearGradient id="SVGID_20_" gradientUnits="userSpaceOnUse" x1="467.8403" y1="68.748" x2="202.2241" y2="68.748" gradientTransform="matrix(0.75 0 0 -0.75 32.1903 160.3322)">
		<stop  offset="0" style="stop-color:#BAC0C1"/>
		<stop  offset="0.15" style="stop-color:#F4FAFC"/>
		<stop  offset="0.25" style="stop-color:#F8FCFD"/>
		<stop  offset="0.52" style="stop-color:#D5DBDD"/>
		<stop  offset="0.69" style="stop-color:#BDC3C4"/>
		<stop  offset="0.8" style="stop-color:#B3B8B9"/>
		<stop  offset="0.97" style="stop-color:#A9AEAF"/>
		<stop  offset="1" style="stop-color:#C2C7C9"/>
	</linearGradient>
	<path fill="url(#SVGID_20_)" d="M183.859,109.105c0-55.5,44.594-99.75,99.605-99.75c54.894,0,99.605,44.508,99.605,99.414
		c0.289,55.086-44.594,99.418-99.605,99.418c-55.355-0.082-99.605-44.512-99.605-99.418V109.105z"/>
	<path d="M216.309,108.492c0-36.75,30.066-66.75,67.156-66.75c37.093,0,67.156,30.012,67.156,67.027
		c-0.063,37.223-30.066,67.027-67.156,67.027c-37.156,0.195-67.156-30.008-67.156-67.027V108.492z"/>
	<path fill="#0E0D0D" d="M220.754,112.859c0-34.5,28.074-62.25,62.711-62.25c34.789,0,62.71,28.027,62.71,62.594
		c-0.172,34.906-28.078,62.594-62.71,62.594c-34.961,0.063-62.711-28.023-62.711-62.594V112.859z"/>
	<path fill="#27342C" d="M246.367,78.59h70.5v70.5h-70.5V78.59z"/>
	<path fill="#4C5444" d="M249.5,81.719H314v64.5h-64.5V81.719z"/>
	<path fill="#FFFFFF" fill-opacity="0.2196" d="M237.324,60.469c25.984-25.984,68.437-25.961,94.64,0.242
		c26.273,26.273-3.707,3.629-48.648,45.176c-35.918,35.723-20.066,75.938-46.266,49.734c-26.242-26.211-26.168-68.711,0.016-94.895
		L237.324,60.469z"/>
</g>
</svg>
