<?xml version="1.0" encoding="utf-8"?>
<!-- Generator: Adobe Illustrator 16.0.0, SVG Export Plug-In . SVG Version: 6.00 Build 0)  -->
<!DOCTYPE svg PUBLIC "-//W3C//DTD SVG 1.1//EN" "http://www.w3.org/Graphics/SVG/1.1/DTD/svg11.dtd">
<svg preserveAspectRatio="none"   version="1.1" id="图层_1" xmlns="http://www.w3.org/2000/svg" xmlns:xlink="http://www.w3.org/1999/xlink" x="0px" y="0px"
	 width="336px" height="567px" viewBox="115.602 -0.148 336 567" enable-background="new 115.602 -0.148 336 567"
	 xml:space="preserve">
<g id="surface131">
	
		<linearGradient id="SVGID_1_" gradientUnits="userSpaceOnUse" x1="202.228" y1="-148.6963" x2="633.2271" y2="-148.6963" gradientTransform="matrix(0.75 0 0 -0.75 -29.9366 171.9777)">
		<stop  offset="0" style="stop-color:#D7D7D7"/>
		<stop  offset="0.12" style="stop-color:#B2B3B3"/>
		<stop  offset="0.19" style="stop-color:#A4A5A5"/>
		<stop  offset="0.31" style="stop-color:#9FA0A0"/>
		<stop  offset="0.51" style="stop-color:#BCBDBD"/>
		<stop  offset="0.54" style="stop-color:#BEBFBF"/>
		<stop  offset="0.8" style="stop-color:#D9DADA"/>
		<stop  offset="1" style="stop-color:#A5A6A6"/>
	</linearGradient>
	<path fill="url(#SVGID_1_)" d="M121.734,21h323.25v525h-323.25V21z"/>
	
		<linearGradient id="SVGID_2_" gradientUnits="userSpaceOnUse" x1="426.2241" y1="173.2598" x2="426.2241" y2="201.3066" gradientTransform="matrix(0.75 0 0 -0.75 -36.0665 150.8302)">
		<stop  offset="0.12" style="stop-color:#B2B3B3"/>
		<stop  offset="0.19" style="stop-color:#A4A5A5"/>
		<stop  offset="0.31" style="stop-color:#9FA0A0"/>
		<stop  offset="0.51" style="stop-color:#BCBDBD"/>
		<stop  offset="0.54" style="stop-color:#BEBFBF"/>
		<stop  offset="0.8" style="stop-color:#D9DADA"/>
		<stop  offset="1" style="stop-color:#A5A6A6"/>
	</linearGradient>
	<path fill="url(#SVGID_2_)" d="M120.102-0.148h327c2.25,0,4.227,2.055,4.227,4.59l0.273,11.91c0,2.25-2.371,4.535-4.871,4.535
		l-326.628-0.035c-2.25,0-4.5-2.02-4.5-4.555V4.352c0-2.25,1.957-4.5,4.457-4.5H120.102z"/>
	
		<linearGradient id="SVGID_3_" gradientUnits="userSpaceOnUse" x1="426.2241" y1="173.2588" x2="426.2241" y2="201.3057" gradientTransform="matrix(0.75 0 0 -0.75 -36.0665 303.8146)">
		<stop  offset="0.12" style="stop-color:#B2B3B3"/>
		<stop  offset="0.19" style="stop-color:#A4A5A5"/>
		<stop  offset="0.31" style="stop-color:#9FA0A0"/>
		<stop  offset="0.51" style="stop-color:#BCBDBD"/>
		<stop  offset="0.54" style="stop-color:#BEBFBF"/>
		<stop  offset="0.8" style="stop-color:#D9DADA"/>
		<stop  offset="1" style="stop-color:#A5A6A6"/>
	</linearGradient>
	<path fill="url(#SVGID_3_)" d="M120.102,152.836h327c2.25,0,4.227,2.055,4.227,4.59l0.273,11.91c0,2.25-2.371,4.535-4.871,4.535
		l-326.628-0.035c-2.25,0-4.5-2.02-4.5-4.555v-11.945c0-2.25,1.957-4.5,4.457-4.5H120.102z"/>
	
		<linearGradient id="SVGID_4_" gradientUnits="userSpaceOnUse" x1="426.2241" y1="173.2598" x2="426.2241" y2="201.3066" gradientTransform="matrix(0.75 0 0 -0.75 -36.0665 543.4904)">
		<stop  offset="0.12" style="stop-color:#B2B3B3"/>
		<stop  offset="0.19" style="stop-color:#A4A5A5"/>
		<stop  offset="0.31" style="stop-color:#9FA0A0"/>
		<stop  offset="0.51" style="stop-color:#BCBDBD"/>
		<stop  offset="0.54" style="stop-color:#BEBFBF"/>
		<stop  offset="0.8" style="stop-color:#D9DADA"/>
		<stop  offset="1" style="stop-color:#A5A6A6"/>
	</linearGradient>
	<path fill="url(#SVGID_4_)" d="M120.102,392.511h327c2.25,0,4.227,2.055,4.227,4.59l0.273,11.91c0,2.25-2.371,4.535-4.871,4.535
		l-326.628-0.035c-2.25,0-4.5-2.02-4.5-4.555v-11.945c0-2.25,1.957-4.5,4.457-4.5H120.102z"/>
	
		<linearGradient id="SVGID_5_" gradientUnits="userSpaceOnUse" x1="426.2241" y1="173.2578" x2="426.2241" y2="201.3047" gradientTransform="matrix(0.75 0 0 -0.75 -36.0665 696.7941)">
		<stop  offset="0.12" style="stop-color:#B2B3B3"/>
		<stop  offset="0.19" style="stop-color:#A4A5A5"/>
		<stop  offset="0.31" style="stop-color:#9FA0A0"/>
		<stop  offset="0.51" style="stop-color:#BCBDBD"/>
		<stop  offset="0.54" style="stop-color:#BEBFBF"/>
		<stop  offset="0.8" style="stop-color:#D9DADA"/>
		<stop  offset="1" style="stop-color:#A5A6A6"/>
	</linearGradient>
	<path fill="url(#SVGID_5_)" d="M120.102,545.816h327c2.25,0,4.227,2.055,4.227,4.59l0.273,11.91c0,2.25-2.371,4.535-4.871,4.535
		l-326.628-0.035c-2.25,0-4.5-2.02-4.5-4.555v-11.945c0-2.25,1.957-4.5,4.457-4.5H120.102z"/>
</g>
</svg>
