<?xml version="1.0" encoding="utf-8"?>
<!-- Generator: Adobe Illustrator 16.0.0, SVG Export Plug-In . SVG Version: 6.00 Build 0)  -->
<!DOCTYPE svg PUBLIC "-//W3C//DTD SVG 1.1//EN" "http://www.w3.org/Graphics/SVG/1.1/DTD/svg11.dtd">
<svg preserveAspectRatio="none"   version="1.1" id="图层_1" xmlns="http://www.w3.org/2000/svg" xmlns:xlink="http://www.w3.org/1999/xlink" x="0px" y="0px"
	 width="154.582px" height="558.546px" viewBox="206.309 4.145 154.582 558.546"
	 enable-background="new 206.309 4.145 154.582 558.546" xml:space="preserve">
<g id="surface306">
	
		<linearGradient id="SVGID_1_" gradientUnits="userSpaceOnUse" x1="405.3608" y1="89.769" x2="202.2261" y2="89.769" gradientTransform="matrix(0.75 0 0 -0.75 55.994 158.8829)">
		<stop  offset="0" style="stop-color:#B3A593"/>
		<stop  offset="0.03" style="stop-color:#FDEEDA"/>
		<stop  offset="0.05" style="stop-color:#E9D7BF"/>
		<stop  offset="0.64" style="stop-color:#E5D3BC"/>
		<stop  offset="0.95" style="stop-color:#E0CEB8"/>
		<stop  offset="1" style="stop-color:#A69988"/>
	</linearGradient>
	<path fill="url(#SVGID_1_)" d="M209.914,7.906h147.75c0.75,0,2.352,1.035,2.352,2.398l-0.102,162.602
		c0,1.5-1.129,2.301-2.512,2.301l-147.488-0.051c-1.5,0-2.25-1.078-2.25-2.445V10.156c0-1.5,0.996-2.25,2.379-2.25H209.914z"/>
	
		<linearGradient id="SVGID_2_" gradientUnits="userSpaceOnUse" x1="216.2236" y1="81.3027" x2="202.2236" y2="81.3027" gradientTransform="matrix(0.75 0 0 -0.75 126.8788 533.6681)">
		<stop  offset="0" style="stop-color:#9E9E9E"/>
		<stop  offset="0.15" style="stop-color:#F6F6F6"/>
		<stop  offset="0.26" style="stop-color:#FFFFFF"/>
		<stop  offset="0.41" style="stop-color:#FFFFFF"/>
		<stop  offset="0.6" style="stop-color:#D1D1D1"/>
		<stop  offset="0.8" style="stop-color:#A8A8A8"/>
		<stop  offset="0.93" style="stop-color:#898989"/>
	</linearGradient>
	<path fill="url(#SVGID_2_)" d="M278.547,382.691h10.5v180h-10.5V382.691z"/>
	
		<linearGradient id="SVGID_3_" gradientUnits="userSpaceOnUse" x1="259.2236" y1="193.8018" x2="202.2246" y2="193.8018" gradientTransform="matrix(0.75 0 0 -0.75 110.6908 325.257)">
		<stop  offset="0" style="stop-color:#9C9080"/>
		<stop  offset="0.15" style="stop-color:#F4E1C8"/>
		<stop  offset="0.26" style="stop-color:#FDEBD5"/>
		<stop  offset="0.41" style="stop-color:#FDE9D1"/>
		<stop  offset="0.6" style="stop-color:#D0BFAA"/>
		<stop  offset="0.8" style="stop-color:#A69988"/>
		<stop  offset="0.93" style="stop-color:#887D6F"/>
	</linearGradient>
	<path fill="url(#SVGID_3_)" d="M262.359,174.281h42.75v11.25h-42.75V174.281z"/>
	
		<linearGradient id="SVGID_4_" gradientUnits="userSpaceOnUse" x1="244.2256" y1="68.8066" x2="202.2256" y2="68.8066" gradientTransform="matrix(0.75 0 0 -0.75 116.2953 336.3146)">
		<stop  offset="0" style="stop-color:#9E9E9E"/>
		<stop  offset="0.15" style="stop-color:#F6F6F6"/>
		<stop  offset="0.26" style="stop-color:#FFFFFF"/>
		<stop  offset="0.41" style="stop-color:#FFFFFF"/>
		<stop  offset="0.6" style="stop-color:#D1D1D1"/>
		<stop  offset="0.8" style="stop-color:#A8A8A8"/>
		<stop  offset="0.93" style="stop-color:#898989"/>
	</linearGradient>
	<path fill="url(#SVGID_4_)" d="M267.965,185.336h31.5v198.75h-31.5V185.336z"/>
	
		<linearGradient id="SVGID_5_" gradientUnits="userSpaceOnUse" x1="407.2212" y1="195.2109" x2="202.2222" y2="195.2109" gradientTransform="matrix(0.75 0 0 -0.75 54.6415 155.2169)">
		<stop  offset="0" style="stop-color:#9C9080"/>
		<stop  offset="0.15" style="stop-color:#F4E1C8"/>
		<stop  offset="0.26" style="stop-color:#FDEBD5"/>
		<stop  offset="0.41" style="stop-color:#FDE9D1"/>
		<stop  offset="0.6" style="stop-color:#D0BFAA"/>
		<stop  offset="0.8" style="stop-color:#A69988"/>
		<stop  offset="0.93" style="stop-color:#887D6F"/>
	</linearGradient>
	<path fill="url(#SVGID_5_)" d="M208.559,4.238h148.5c1.5,0,2.777,1.012,2.777,2.375l0.223,4.375c0,1.5-1.395,2.484-2.777,2.484
		l-148.722-0.234c-1.5,0-2.25-0.871-2.25-2.234V6.488c0-1.5,1.121-2.344,2.504-2.344L208.559,4.238z"/>
	
		<linearGradient id="SVGID_6_" gradientUnits="userSpaceOnUse" x1="350.6216" y1="161.0688" x2="202.2261" y2="161.0688" gradientTransform="matrix(0.75 0 0 -0.75 76.5209 212.3146)">
		<stop  offset="0" style="stop-color:#000000"/>
		<stop  offset="0.03" style="stop-color:#7C7C7C"/>
		<stop  offset="0.05" style="stop-color:#000000"/>
		<stop  offset="0.64" style="stop-color:#000000"/>
		<stop  offset="0.95" style="stop-color:#000000"/>
		<stop  offset="1" style="stop-color:#000000"/>
	</linearGradient>
	<path fill="url(#SVGID_6_)" d="M230.441,61.336h106.5c1.5,0,2.547,1.105,2.547,2.469l-0.297,55.281c0,1.5-0.91,2.605-2.289,2.605
		l-106.46-0.355c-1.5,0-2.25-0.75-2.25-2.113V63.586c0-1.5,1.117-2.25,2.5-2.25H230.441z"/>
	<path fill="#3E3938" d="M233.793,66.867h99.75v49.5h-99.75V66.867z"/>
	
		<linearGradient id="SVGID_7_" gradientUnits="userSpaceOnUse" x1="304.7231" y1="201.3936" x2="304.7231" y2="175.3047" gradientTransform="matrix(0.75 0 0 -0.75 55.4725 307.0255)">
		<stop  offset="0" style="stop-color:#B3A593"/>
		<stop  offset="0.03" style="stop-color:#FDEEDA"/>
		<stop  offset="0.05" style="stop-color:#E9D7BF"/>
		<stop  offset="0.64" style="stop-color:#E5D3BC"/>
		<stop  offset="0.95" style="stop-color:#E0CEB8"/>
		<stop  offset="1" style="stop-color:#A69988"/>
	</linearGradient>
	<path fill="url(#SVGID_7_)" d="M207.891,156.047h151.5c0.75,0,1.148,0.301,1.148,0.754l0.352,17.246
		c0,0.75-0.734,1.137-1.195,1.137l-151.804,0.363c-0.75,0-0.75-0.734-0.75-1.188v-17.563c0-0.75,0.289-0.816,0.75-0.816V156.047z"/>
</g>
</svg>
