<?xml version="1.0" encoding="utf-8"?>
<!-- Generator: Adobe Illustrator 16.0.0, SVG Export Plug-In . SVG Version: 6.00 Build 0)  -->
<!DOCTYPE svg PUBLIC "-//W3C//DTD SVG 1.1//EN" "http://www.w3.org/Graphics/SVG/1.1/DTD/svg11.dtd">
<svg preserveAspectRatio="none"   version="1.1" id="图层_1" xmlns="http://www.w3.org/2000/svg" xmlns:xlink="http://www.w3.org/1999/xlink" x="0px" y="0px"
	 width="563.532px" height="548.429px" viewBox="1.577 9.207 563.532 548.429" enable-background="new 1.577 9.207 563.532 548.429"
	 xml:space="preserve">
<g id="surface21">
	
		<linearGradient id="SVGID_1_" gradientUnits="userSpaceOnUse" x1="202.2241" y1="-83.2417" x2="817.2241" y2="-83.2417" gradientTransform="matrix(0.75 0 0 -0.75 -97.6056 281.797)">
		<stop  offset="0" style="stop-color:#C59040"/>
		<stop  offset="0.17" style="stop-color:#E5A84C"/>
		<stop  offset="0.68" style="stop-color:#FDCA8F"/>
		<stop  offset="0.83" style="stop-color:#FDC170"/>
		<stop  offset="1" style="stop-color:#B7853B"/>
	</linearGradient>
	<path fill="url(#SVGID_1_)" d="M54.063,130.82l55.5,352.5c0,0,13.859,74.316,177.328,74.316
		c163.172-0.066,175.555-73.973,175.555-73.973l52.867-352.843c0,0-95.75,43.676-232.019,43.676
		C147.063,174.32,54.063,130.82,54.063,130.82z"/>
	<path fill="#DCDCDD" d="M23.59,93.906c0,0-2.852,106.395,49.645,162.121c52.355,55.378,126.633,63.488,126.633,63.488
		l173.222,0.141c0,0,91.238-36.453,128-93.32c50.5-70.93,42.199-132.773,42.199-132.773c0.051,0.344-4.059-20.66,9.297-20.66
		c13.254,0.004,11.746,20.66,11.746,20.66c0.008,0.344,13.238,92.469-69.766,175.254c0.023-0.16-95.895,91.199-211.101,91.199
		c0.375,0.141-118.48,4.605-204.246-70.191C79.09,289.656-3.664,227.707,1.84,91.707c0-0.051-1.41-22.973,14.758-21.051
		c12.242,1.5,8.77,15.914,6.934,22.906L23.59,93.906z"/>
	
		<linearGradient id="SVGID_2_" gradientUnits="userSpaceOnUse" x1="202.2261" y1="88.8296" x2="895.2358" y2="88.8296" gradientTransform="matrix(0.75 0 0 -0.75 -128.0831 166.5802)">
		<stop  offset="0" style="stop-color:#A6701D"/>
		<stop  offset="0.17" style="stop-color:#C28323"/>
		<stop  offset="0.68" style="stop-color:#DFAF80"/>
		<stop  offset="0.8" style="stop-color:#DA9E59"/>
		<stop  offset="1" style="stop-color:#9A671A"/>
	</linearGradient>
	<path fill="url(#SVGID_2_)" d="M23.586,99.602c0-46.5,116.352-84,259.879-84c143.621,0,259.878,37.77,259.878,84.359
		c-0.008,46.891-116.352,84.355-259.878,84.355c-143.629,0.035-259.879-37.77-259.879-84.355V99.602z"/>
	
		<linearGradient id="SVGID_3_" gradientUnits="userSpaceOnUse" x1="202.2261" y1="88.8276" x2="895.2358" y2="88.8276" gradientTransform="matrix(0.75 0 0 -0.75 -128.0831 160.1857)">
		<stop  offset="0" style="stop-color:#C48127"/>
		<stop  offset="0.17" style="stop-color:#E4972F"/>
		<stop  offset="0.68" style="stop-color:#FDBD83"/>
		<stop  offset="0.8" style="stop-color:#FCB05E"/>
		<stop  offset="1" style="stop-color:#B67723"/>
	</linearGradient>
	<path fill="url(#SVGID_3_)" d="M23.586,93.207c0-46.5,116.352-84,259.879-84c143.621,0,259.878,37.77,259.878,84.359
		c-0.008,46.891-116.352,84.355-259.878,84.355c-143.629,0.035-259.879-37.77-259.879-84.355V93.207z"/>
	
		<linearGradient id="SVGID_4_" gradientUnits="userSpaceOnUse" x1="773.0464" y1="69.9517" x2="161.5548" y2="177.7742" gradientTransform="matrix(-0.75 0 0 -0.75 633.9474 166.5802)">
		<stop  offset="0" style="stop-color:#D39D4B"/>
		<stop  offset="0.16" style="stop-color:#F4C998"/>
		<stop  offset="0.4" style="stop-color:#E6AC53"/>
		<stop  offset="1" style="stop-color:#B68740"/>
	</linearGradient>
	<path fill="url(#SVGID_4_)" d="M509.671,73.352c0-31.5-101.277-57.75-226.207-57.75c-124.793,0-226.207,25.984-226.207,58.039
		c0.164,31.961,101.277,58.035,226.207,58.035c124.957,0.176,226.207-25.984,226.207-58.035V73.352z"/>
	<path fill="#FBC789" fill-opacity="0.4941" d="M509.394,73.617c0,0,6.234,54.063-226.039,58.102
		C51.145,126.867,56.395,73.641,56.395,73.641c0-0.023-10.445,27.09,66.914,51.297c-0.164-0.32,110.148,31.414,262.925,13.246
		c76.66-9.066,117.238-29.129,131.234-44.762c9.176-9.305,12.438-26.492,4.145-33.344c-0.219,0.039-5.984-4.109-23.023-13.246
		c-16.945-9.215-19.801-4.566,1.383,9.137c10.922,7.148,9.59,17.727,9.59,17.727L509.394,73.617z"/>
	<path fill="#CDCECE" d="M23.66,93.906c0,0-3.043,106.395,49.449,162.121c51.801,55.378,126.633,63.488,126.633,63.488
		l173.417,0.141c0,0,91.047-36.453,127.809-93.32c50.691-70.93,42.199-132.773,42.199-132.773c0.242,0.344-4.063-20.66,9.293-20.66
		c-0.051,0.004,2.254,21.207,2.254,21.207c-0.055-0.203,6.039,89.066-76.27,163.289c-0.285,0.008-62.164,73.078-189.367,75.96
		c-127.417,2.797-199.156-56.55-199.156-56.55C89.66,276.906,9.34,221.43,13.91,94.68c0-0.023,2.563-24.023,2.563-24.023
		c11.688,1.5,8.77,15.914,6.938,22.906L23.66,93.906z"/>
	<path fill="#9E9F9F" stroke="#9E9F9F" stroke-linejoin="bevel" stroke-miterlimit="10" d="M205.152,316.128v15
		c0,0,84.265,27.898,159.835,0.035l-0.086-14.285l-158.25-0.75H205.152z"/>
	<path fill="#BBBCBC" d="M205.152,312.703v15c0,0,84.265,27.898,159.835,0.035l-0.086-14.285l-158.25-0.75H205.152z"/>
	<path fill="#EEEEEE" d="M204.824,312.664h-6v15.75h6V312.664z"/>
	<path fill="#EEEEEE" d="M370.988,312.703h-6v15.75h6V312.703z"/>
</g>
</svg>
