<?xml version="1.0" encoding="utf-8"?>
<!-- Generator: Adobe Illustrator 16.0.0, SVG Export Plug-In . SVG Version: 6.00 Build 0)  -->
<!DOCTYPE svg PUBLIC "-//W3C//DTD SVG 1.1//EN" "http://www.w3.org/Graphics/SVG/1.1/DTD/svg11.dtd">
<svg preserveAspectRatio="none"   version="1.1" id="图层_1" xmlns="http://www.w3.org/2000/svg" xmlns:xlink="http://www.w3.org/1999/xlink" x="0px" y="0px"
	 width="331.5px" height="559.671px" viewBox="117.844 3.641 331.5 559.671" enable-background="new 117.844 3.641 331.5 559.671"
	 xml:space="preserve">
<g id="surface201">
	
		<linearGradient id="SVGID_1_" gradientUnits="userSpaceOnUse" x1="202.2236" y1="-144.1943" x2="628.2222" y2="-144.1943" gradientTransform="matrix(0.75 0 0 -0.75 -27.777 175.4825)">
		<stop  offset="0" style="stop-color:#FEDB97"/>
		<stop  offset="0.12" style="stop-color:#DDB762"/>
		<stop  offset="0.19" style="stop-color:#CCA95A"/>
		<stop  offset="0.31" style="stop-color:#C6A457"/>
		<stop  offset="0.51" style="stop-color:#E9C168"/>
		<stop  offset="0.54" style="stop-color:#EBC369"/>
		<stop  offset="0.8" style="stop-color:#FEDEA0"/>
		<stop  offset="1" style="stop-color:#CEAA5B"/>
	</linearGradient>
	<path fill="url(#SVGID_1_)" d="M123.891,24.504h319.5v518.25h-319.5V24.504z"/>
	
		<linearGradient id="SVGID_2_" gradientUnits="userSpaceOnUse" x1="423.2261" y1="173.3008" x2="423.2261" y2="201.3008" gradientTransform="matrix(0.75 0 0 -0.75 -33.8248 154.6163)">
		<stop  offset="0.12" style="stop-color:#DDB762"/>
		<stop  offset="0.19" style="stop-color:#CCA95A"/>
		<stop  offset="0.31" style="stop-color:#C6A457"/>
		<stop  offset="0.51" style="stop-color:#E9C168"/>
		<stop  offset="0.54" style="stop-color:#EBC369"/>
		<stop  offset="0.8" style="stop-color:#FEDEA0"/>
		<stop  offset="1" style="stop-color:#CEAA5B"/>
	</linearGradient>
	<path fill="url(#SVGID_2_)" d="M122.344,3.641h322.5c2.25,0,4.242,2.027,4.242,4.527l0.258,11.973c0,2.25-2.328,4.254-4.797,4.254
		l-322.203,0.246c-2.25,0-4.5-2.273-4.5-4.777V8.141c0-2.25,1.93-4.5,4.398-4.5H122.344z"/>
	
		<linearGradient id="SVGID_3_" gradientUnits="userSpaceOnUse" x1="423.2261" y1="173.3037" x2="423.2261" y2="201.3037" gradientTransform="matrix(0.75 0 0 -0.75 -33.8248 305.5587)">
		<stop  offset="0.12" style="stop-color:#DDB762"/>
		<stop  offset="0.19" style="stop-color:#CCA95A"/>
		<stop  offset="0.31" style="stop-color:#C6A457"/>
		<stop  offset="0.51" style="stop-color:#E9C168"/>
		<stop  offset="0.54" style="stop-color:#EBC369"/>
		<stop  offset="0.8" style="stop-color:#FEDEA0"/>
		<stop  offset="1" style="stop-color:#CEAA5B"/>
	</linearGradient>
	<path fill="url(#SVGID_3_)" d="M122.344,154.582h322.5c2.25,0,4.242,2.027,4.242,4.527l0.258,11.973
		c0,2.25-2.328,4.254-4.797,4.254l-322.203,0.246c-2.25,0-4.5-2.273-4.5-4.773v-11.727c0-2.25,1.93-4.5,4.398-4.5H122.344z"/>
	
		<linearGradient id="SVGID_4_" gradientUnits="userSpaceOnUse" x1="423.2261" y1="173.3066" x2="423.2261" y2="201.3066" gradientTransform="matrix(0.75 0 0 -0.75 -33.8248 542.0333)">
		<stop  offset="0.12" style="stop-color:#DDB762"/>
		<stop  offset="0.19" style="stop-color:#CCA95A"/>
		<stop  offset="0.31" style="stop-color:#C6A457"/>
		<stop  offset="0.51" style="stop-color:#E9C168"/>
		<stop  offset="0.54" style="stop-color:#EBC369"/>
		<stop  offset="0.8" style="stop-color:#FEDEA0"/>
		<stop  offset="1" style="stop-color:#CEAA5B"/>
	</linearGradient>
	<path fill="url(#SVGID_4_)" d="M122.344,391.054h322.5c2.25,0,4.242,2.027,4.242,4.531l0.258,11.969
		c0,2.25-2.328,4.258-4.797,4.258l-322.203,0.242c-2.25,0-4.5-2.27-4.5-4.773v-11.727c0-2.25,1.93-4.5,4.398-4.5H122.344z"/>
	
		<linearGradient id="SVGID_5_" gradientUnits="userSpaceOnUse" x1="423.2241" y1="173.3066" x2="423.2241" y2="201.3066" gradientTransform="matrix(0.75 0 0 -0.75 -33.8248 693.2911)">
		<stop  offset="0.12" style="stop-color:#DDB762"/>
		<stop  offset="0.19" style="stop-color:#CCA95A"/>
		<stop  offset="0.31" style="stop-color:#C6A457"/>
		<stop  offset="0.51" style="stop-color:#E9C168"/>
		<stop  offset="0.54" style="stop-color:#EBC369"/>
		<stop  offset="0.8" style="stop-color:#FEDEA0"/>
		<stop  offset="1" style="stop-color:#CEAA5B"/>
	</linearGradient>
	<path fill="url(#SVGID_5_)" d="M122.344,542.312h322.5c2.25,0,4.242,2.027,4.242,4.531l0.258,11.969
		c0,2.25-2.328,4.254-4.797,4.254l-322.203,0.246c-2.25,0-4.5-2.273-4.5-4.773v-11.727c0-2.25,1.93-4.5,4.398-4.5H122.344z"/>
</g>
</svg>
