<?xml version="1.0" encoding="utf-8"?>
<!-- Generator: Adobe Illustrator 16.0.0, SVG Export Plug-In . SVG Version: 6.00 Build 0)  -->
<!DOCTYPE svg PUBLIC "-//W3C//DTD SVG 1.1//EN" "http://www.w3.org/Graphics/SVG/1.1/DTD/svg11.dtd">
<svg preserveAspectRatio="none"   version="1.1" id="图层_1" xmlns="http://www.w3.org/2000/svg" xmlns:xlink="http://www.w3.org/1999/xlink" x="0px" y="0px"
	 width="208.502px" height="565.08px" viewBox="179.369 0.871 208.502 565.08"
	 enable-background="new 179.369 0.871 208.502 565.08" xml:space="preserve">
<g id="surface36">
	
		<linearGradient id="SVGID_1_" gradientUnits="userSpaceOnUse" x1="202.2261" y1="22.8247" x2="480.2261" y2="22.8247" gradientTransform="matrix(0.75 0 0 -0.75 27.7015 203.1271)">
		<stop  offset="0" style="stop-color:#677E4F"/>
		<stop  offset="0.17" style="stop-color:#79935E"/>
		<stop  offset="0.68" style="stop-color:#A8BA97"/>
		<stop  offset="0.83" style="stop-color:#95AD7E"/>
		<stop  offset="1" style="stop-color:#5F7449"/>
	</linearGradient>
	<path fill="url(#SVGID_1_)" d="M179.371,66.398v253.5h208.5v-253.5c0,0-87.535-32.121-208.5-0.008V66.398z"/>
	
		<linearGradient id="SVGID_2_" gradientUnits="userSpaceOnUse" x1="165.6226" y1="188.8242" x2="393.728" y2="188.8242" gradientTransform="matrix(-0.75 0 0 -0.75 493.9347 151.9318)">
		<stop  offset="0" style="stop-color:#C7C7C7"/>
		<stop  offset="0.17" style="stop-color:#E7E7E7"/>
		<stop  offset="0.68" style="stop-color:#FFFFFF"/>
		<stop  offset="0.83" style="stop-color:#FFFFFF"/>
		<stop  offset="1" style="stop-color:#B8B8B8"/>
	</linearGradient>
	<path fill="url(#SVGID_2_)" d="M367.406,19.703c0,0,4.953-2.258,0.363-8.977c-0.363-0.023-21.57-9.855-82.316-9.855
		c-60.546,0.082-84.886,9.855-84.886,9.855c0.34-0.023-3.52,2.051-1.156,9.031c-0.004-0.055,30.121-9.855,86.847-9.855
		c56.398,0.051,81.324,9.855,81.324,9.855L367.406,19.703z"/>
	
		<linearGradient id="SVGID_3_" gradientUnits="userSpaceOnUse" x1="202.2261" y1="163.6465" x2="479.8433" y2="163.6465" gradientTransform="matrix(0.75 0 0 -0.75 27.7015 160.881)">
		<stop  offset="0" style="stop-color:#566A42"/>
		<stop  offset="0.17" style="stop-color:#667D4E"/>
		<stop  offset="0.68" style="stop-color:#9CAA8F"/>
		<stop  offset="0.83" style="stop-color:#849872"/>
		<stop  offset="1" style="stop-color:#50623C"/>
	</linearGradient>
	<path fill="url(#SVGID_3_)" d="M199.621,19.652v12.75c0,0-19.168,17.066-20.25,33.988c0-0.238,43.727-7.477,104.473-7.066
		c60.527,0.078,103.714,7.066,103.714,7.066c0.313-0.238-1.977-18.301-20.027-33.289l0.09-13.449c0,0-12.57-9.75-84.156-9.75
		c-71.844,0-84.191,9.855-84.191,9.914L199.621,19.652z"/>
	
		<linearGradient id="SVGID_4_" gradientUnits="userSpaceOnUse" x1="479.8091" y1="179.02" x2="202.2217" y2="179.02" gradientTransform="matrix(0.75 0 0 -0.75 27.7015 683.4269)">
		<stop  offset="0" style="stop-color:#979A9C"/>
		<stop  offset="0.17" style="stop-color:#B0B3B6"/>
		<stop  offset="0.68" style="stop-color:#D0D3D5"/>
		<stop  offset="0.83" style="stop-color:#C8CBCE"/>
		<stop  offset="1" style="stop-color:#8B8E90"/>
	</linearGradient>
	<path fill="url(#SVGID_4_)" d="M179.371,532.449c0,0-0.527,9.734,13.957,15.07c0.293-0.07,9.25,6.57,11.027,10.527
		c-0.234-0.098,0.234,7.891,79.488,7.891c79.277,0.262,78.609-7.066,78.609-7.066c-0.082-0.172,1.449-6.559,8.285-10.254
		c6.633-3.418,16.82-9.047,16.82-16.234c0.313,0.066-69.922,4.875-104.519,4.875c-34.668-0.309-103.668-4.875-103.668-4.875V532.449
		z"/>
	
		<linearGradient id="SVGID_5_" gradientUnits="userSpaceOnUse" x1="202.2261" y1="50.5972" x2="480.2261" y2="50.5972" gradientTransform="matrix(0.75 0 0 -0.75 27.7015 463.0236)">
		<stop  offset="0" style="stop-color:#B8BCBF"/>
		<stop  offset="0.17" style="stop-color:#D6DADE"/>
		<stop  offset="0.68" style="stop-color:#F0F4F7"/>
		<stop  offset="0.83" style="stop-color:#EEF2F6"/>
		<stop  offset="1" style="stop-color:#AAAEB1"/>
	</linearGradient>
	<path fill="url(#SVGID_5_)" d="M179.371,532.546c0,0,113.511,12.621,208.187-0.164l0.313-220.336h-208.5V532.546z"/>
	
		<linearGradient id="SVGID_6_" gradientUnits="userSpaceOnUse" x1="202.2251" y1="189.0659" x2="439.5103" y2="189.0659" gradientTransform="matrix(0.75 0 0 -0.75 41.6674 698.5353)">
		<stop  offset="0" style="stop-color:#A0A3A6"/>
		<stop  offset="0.17" style="stop-color:#BABEC2"/>
		<stop  offset="0.68" style="stop-color:#D9DCDF"/>
		<stop  offset="0.83" style="stop-color:#D2D6DA"/>
		<stop  offset="1" style="stop-color:#94979A"/>
	</linearGradient>
	<path fill="url(#SVGID_6_)" d="M193.336,547.558c0,0,9.254,6.531,11.031,10.488c0.219,0.012,0.234,7.891,79.488,7.891
		c78.98,0.371,78.609-7.066,78.609-7.066c0.371-0.063,1.445-6.559,8.418-10.254c6.953-4.059-73.754,14.098-177.546-1.094V547.558z"
		/>
</g>
</svg>
