<?xml version="1.0" encoding="utf-8"?>
<!-- Generator: Adobe Illustrator 16.0.0, SVG Export Plug-In . SVG Version: 6.00 Build 0)  -->
<!DOCTYPE svg PUBLIC "-//W3C//DTD SVG 1.1//EN" "http://www.w3.org/Graphics/SVG/1.1/DTD/svg11.dtd">
<svg preserveAspectRatio="none"   version="1.1" id="图层_1" xmlns="http://www.w3.org/2000/svg" xmlns:xlink="http://www.w3.org/1999/xlink" x="0px" y="0px"
	 width="234.839px" height="557.744px" viewBox="166.043 4.594 234.839 557.744"
	 enable-background="new 166.043 4.594 234.839 557.744" xml:space="preserve">
<g id="surface16">
	<path fill="#F2F7FB" d="M220.883,4.594h125.25c0,0,11.621,2.422,11.621,10.094l-0.371,87.406c0,0,1.832,5.855,11.891,14.348
		c0.109-0.098,31.609,25.016,31.609,57.719v359.183c0,0-8.008,28.992-115.43,28.992c-110.32,0.258-119.41-28.848-119.41-28.848
		l0.09-359.394c0,0-2.98-37.078,33.633-58.473c0.117-0.027,9.152-4.441,9.152-13.324l-0.035-87.953c0,0-0.086-9.75,11.809-9.75
		H220.883z"/>
	<path fill="#E9EEF2" d="M340.828,10.91c0,0,12.75,0.891,12.75,8.441V67.91h-12.75V10.91z"/>
	<path fill="#E9EEF2" d="M257.27,114.207c0,0-68.688-20.078-84,59.73v352.769c0,0,7.121,25.355,117.437,29.281
		c0.313-0.031,14.934-1.977-11.562-5.871c-0.125-0.16-62.625-8.758-65.754-31.387c-0.371-0.273-0.605-59.129-0.605-81.516
		l0.234-263.007c0,0,0.129-45.039,43.965-60.082L257.27,114.207z"/>
	<path fill="#E4E9ED" d="M210.738,80.137h144.75v20.25h-144.75V80.137z"/>
	<path fill="#E9EEF2" d="M373.019,145.793c0,0,15.598-10.301,17.25,21.586v361.664c0,0-5.75,9.883-43.324,12.859
		c-0.176-0.109-12.164-2.023,8.43-10.418c-0.355-0.191,4.578-0.832,17.102-10.078c-0.207,0.137,5.781-2.434,5.301-24.332
		l-0.258-327.281c0,0-0.344-12.402-4.559-23.957L373.019,145.793z"/>
	<path fill="#E9EEF2" d="M228.141,522.609c0-8.25,27.883-15.75,62.324-15.75c34.426,0,62.324,7.148,62.324,15.992
		c-0.148,8.758-27.922,15.988-62.324,15.988c-34.574,0.27-62.324-7.176-62.324-15.988V522.609z"/>
	<path fill="#DEE6EC" d="M241.176,10.688c0,0-29.594-3.746-28.5,8.355v50.145h28.5V10.688z"/>
	<path fill="#AFB5BB" fill-opacity="0.0902" d="M220.883,4.594h125.25c0,0,11.621,2.422,11.621,10.094l-0.371,87.406
		c0,0,1.832,5.855,11.891,14.348c0.109-0.098,31.609,25.016,31.609,57.719v359.183c0,0-8.008,28.992-115.43,28.992
		c-110.32,0.258-119.41-28.848-119.41-28.848l0.09-359.394c0,0-2.98-37.078,33.633-58.473c0.117-0.027,9.152-4.441,9.152-13.324
		l-0.035-87.953c0,0-0.086-9.75,11.809-9.75H220.883z"/>
	<path fill="#FFFFFF" fill-opacity="0.898" d="M344.117,111.16c0,0,20.773,8.273,26.473,29.199
		c1.277,0.051,2.371,5.477-2.809,10.219c-4.164,3.332-30.348,6.328-32.758,2.922c-4.406-5.59,8.672-8.273,2.891-22.875
		c-3.547-8.215-9.152-13.137-18.547-19.465H344.117z"/>
	<path fill="#FFFFFF" fill-opacity="0.6902" d="M356.046,168.949h9.75c5.25,0,9.965,5.121,9.965,11.543l-0.215,293.707
		c0,6.75-4.313,11.68-9.898,11.68l-9.602,0.32c-5.25,0-9.789-5.527-9.789-11.949l0.039-294.05c0-6,4.488-11.25,10.078-11.25H356.046
		z"/>
	<path fill="#FFFFFF" fill-opacity="0.6078" d="M214.594,176.477v296.25c0,0,4.816,22.277,15.055,27.789
		c-0.055-0.039,43.957-1.859,90.398-1.859c0.297,0.32,7.75-6.086-28.98-22.508c-36.722-16.172-37.332-139.305-37.332-139.305
		l-0.141-155.867C253.594,180.977,224.711,177.832,214.594,176.477z"/>
	<path fill="#FFFFFF" fill-opacity="0.6078" d="M215.609,172.695l39,2.25c0,0-0.875-6.602,3.34-13.902l-37.09-3.348
		c0,0-5.301,2.07-5.301,14.781L215.609,172.695z"/>
	<path fill="#FFFFFF" fill-opacity="0.898" d="M320.609,10.426h13.5c3,0,5.25,3.004,5.25,6.781v44.969
		c0,3.75-2.395,7.012-5.32,7.012l-13.43-0.262c-3,0-5.285-2.813-5.285-6.59l0.035-45.16c0-3.75,2.336-6.75,5.262-6.75H320.609z"/>
	<path fill="#FFFFFF" d="M215.879,6.418h132c1.5,0,2.199,0.852,2.199,1.914c0.051,1.086-0.977,1.926-2.086,1.926l-132.113-0.09
		c-1.5,0-2.25-0.773-2.25-1.836c0-1.164,0.852-1.914,1.961-1.914H215.879z"/>
	
		<linearGradient id="SVGID_1_" gradientUnits="userSpaceOnUse" x1="312.4194" y1="201.3027" x2="312.4194" y2="187.9229" gradientTransform="matrix(0.75 0 0 -0.75 49.1498 220.1652)">
		<stop  offset="0" style="stop-color:#898C8F"/>
		<stop  offset="0.22" style="stop-color:#BCC0C3"/>
		<stop  offset="0.7" style="stop-color:#F3F6F9"/>
		<stop  offset="0.8" style="stop-color:#EEF2F6"/>
		<stop  offset="1" style="stop-color:#B8BCBF"/>
	</linearGradient>
	<path fill="url(#SVGID_1_)" d="M206.07,69.188h155.25c2.25,0,4.789,2.246,4.789,5.02c-0.289,2.48-2.223,5.016-4.969,5.016
		l-155.07-0.285c-3,0-5.25-1.961-5.25-4.73s2.223-5.02,4.965-5.02H206.07z"/>
</g>
</svg>
