<?xml version="1.0" encoding="utf-8"?>
<!-- Generator: Adobe Illustrator 16.0.0, SVG Export Plug-In . SVG Version: 6.00 Build 0)  -->
<!DOCTYPE svg PUBLIC "-//W3C//DTD SVG 1.1//EN" "http://www.w3.org/Graphics/SVG/1.1/DTD/svg11.dtd">
<svg preserveAspectRatio="none"   version="1.1" id="图层_1" xmlns="http://www.w3.org/2000/svg" xmlns:xlink="http://www.w3.org/1999/xlink" x="0px" y="0px"
	 width="561.173px" height="554.046px" viewBox="2.902 6.59 561.173 554.046" enable-background="new 2.902 6.59 561.173 554.046"
	 xml:space="preserve">
<g id="surface116">
	<path fill="#BC873D" stroke="#683D14" stroke-linejoin="bevel" stroke-miterlimit="10" d="M3.406,71.516h494.25v488.25H3.406
		V71.516z"/>
	<path fill="none" stroke="#683D14" stroke-linejoin="bevel" stroke-miterlimit="10" d="M185.23,123.289l-0.008,386.25"/>
	<path fill="none" stroke="#683D14" stroke-linejoin="bevel" stroke-miterlimit="10" d="M250.406,123.289l-0.004,386.25"/>
	<path fill="none" stroke="#683D14" stroke-linejoin="bevel" stroke-miterlimit="10" d="M317.074,123.289l-0.008,386.25"/>
	<path fill="none" stroke="#683D14" stroke-linejoin="bevel" stroke-miterlimit="10" d="M380.765,123.289l-0.008,386.25"/>
	<path fill="none" stroke="#683D14" stroke-linejoin="bevel" stroke-miterlimit="10" d="M120.051,123.289l-0.008,386.25"/>
	<path fill="#A46C1C" stroke="#683D14" stroke-linejoin="bevel" stroke-miterlimit="10" d="M3.402,124.766v-53.25h494.25v53.25
		H3.402z"/>
	<path fill="#A46C1C" stroke="#683D14" stroke-linejoin="bevel" stroke-miterlimit="10" d="M3.406,560.136v-53.25h494.25v53.25
		H3.406z"/>
	<path fill="#A46C1C" stroke="#683D14" stroke-linejoin="bevel" stroke-miterlimit="10" d="M3.406,71.512h53.25v488.25H3.406V71.512
		z"/>
	<path fill="#A46C1C" stroke="#683D14" stroke-linejoin="bevel" stroke-miterlimit="10" d="M443.882,71.512h53.25v488.25h-53.25
		V71.512z"/>
	<path fill="#8A5B17" stroke="#683D14" stroke-linejoin="bevel" stroke-miterlimit="10" d="M497.453,71.59l66-64.5v488.25l-66,64.5
		V71.59z"/>
	<path fill="#BC873D" stroke="#683D14" stroke-linejoin="bevel" stroke-miterlimit="10" d="M69.406,7.09h494.25l-66,64.5H3.406
		L69.406,7.09z"/>
	<path fill="#AE721D" stroke="#683D14" stroke-linejoin="bevel" stroke-miterlimit="10" d="M75.133,7.09h488.25l-18,17.25h-489
		L75.133,7.09z"/>
	<path fill="#AE721D" stroke="#683D14" stroke-linejoin="bevel" stroke-miterlimit="10" d="M22.156,54.453h493.5l-18,17.25H3.406
		L22.156,54.453z"/>
	<path fill="#AE721D" stroke="#683D14" stroke-linejoin="bevel" stroke-miterlimit="10" d="M69.406,7.09h53.25l-66,64.5H3.406
		L69.406,7.09z"/>
	<path fill="#AE721D" stroke="#683D14" stroke-linejoin="bevel" stroke-miterlimit="10" d="M510.476,7.09h53.25l-66,64.5h-53.25
		L510.476,7.09z"/>
	<path fill="#865816" stroke="#683D14" stroke-linejoin="bevel" stroke-miterlimit="10" d="M497.453,71.59l66-64.5v53.25l-66,63.75
		V71.59z"/>
	<path fill="#865816" stroke="#683D14" stroke-linejoin="bevel" stroke-miterlimit="10" d="M497.453,506.964l66-64.5v53.25
		l-66,63.75V506.964z"/>
	<path fill="#865816" stroke="#683D14" stroke-linejoin="bevel" stroke-miterlimit="10" d="M497.453,71.656l22.5-22.5v488.25
		l-22.5,22.5V71.656z"/>
	<path fill="#865816" stroke="#683D14" stroke-linejoin="bevel" stroke-miterlimit="10" d="M545.371,24.34l18-17.25v488.25
		l-18,17.25V24.34z"/>
</g>
</svg>
