<?xml version="1.0" encoding="utf-8"?>
<!-- Generator: Adobe Illustrator 16.0.0, SVG Export Plug-In . SVG Version: 6.00 Build 0)  -->
<!DOCTYPE svg PUBLIC "-//W3C//DTD SVG 1.1//EN" "http://www.w3.org/Graphics/SVG/1.1/DTD/svg11.dtd">
<svg preserveAspectRatio="none"   version="1.1" id="图层_1" xmlns="http://www.w3.org/2000/svg" xmlns:xlink="http://www.w3.org/1999/xlink" x="0px" y="0px"
	 width="333px" height="562.535px" viewBox="116.965 2.152 333 562.535" enable-background="new 116.965 2.152 333 562.535"
	 xml:space="preserve">
<g id="surface11">
	
		<linearGradient id="SVGID_1_" gradientUnits="userSpaceOnUse" x1="202.2241" y1="-145.6953" x2="630.2231" y2="-145.6953" gradientTransform="matrix(0.75 0 0 -0.75 -28.6246 174.1075)">
		<stop  offset="0" style="stop-color:#7E96D5"/>
		<stop  offset="0.12" style="stop-color:#4B6AB1"/>
		<stop  offset="0.19" style="stop-color:#4561A3"/>
		<stop  offset="0.31" style="stop-color:#435E9E"/>
		<stop  offset="0.51" style="stop-color:#5070BB"/>
		<stop  offset="0.54" style="stop-color:#5171BD"/>
		<stop  offset="0.8" style="stop-color:#8B9FD8"/>
		<stop  offset="1" style="stop-color:#2F59A4"/>
	</linearGradient>
	<path fill="url(#SVGID_1_)" d="M123.043,23.129h321v520.5h-321V23.129z"/>
	
		<linearGradient id="SVGID_2_" gradientUnits="userSpaceOnUse" x1="424.2261" y1="173.3047" x2="424.2261" y2="201.3047" gradientTransform="matrix(0.75 0 0 -0.75 -34.7047 153.131)">
		<stop  offset="0.12" style="stop-color:#385597"/>
		<stop  offset="0.19" style="stop-color:#334E8B"/>
		<stop  offset="0.31" style="stop-color:#314B87"/>
		<stop  offset="0.51" style="stop-color:#3C5A9F"/>
		<stop  offset="0.54" style="stop-color:#3C5BA1"/>
		<stop  offset="0.8" style="stop-color:#8C99C4"/>
		<stop  offset="1" style="stop-color:#344F8C"/>
	</linearGradient>
	<path fill="url(#SVGID_2_)" d="M121.465,2.152h324c2.25,0,4.5,2.039,4.5,4.555v11.945c0,2.25-2.082,4.367-4.563,4.367
		l-323.937,0.133c-2.25,0-4.5-2.172-4.5-4.688V6.652c0-2.25,1.941-4.5,4.418-4.5H121.465z"/>
	
		<linearGradient id="SVGID_3_" gradientUnits="userSpaceOnUse" x1="424.2261" y1="173.3008" x2="424.2261" y2="201.3008" gradientTransform="matrix(0.75 0 0 -0.75 -34.7047 304.8741)">
		<stop  offset="0.12" style="stop-color:#385597"/>
		<stop  offset="0.19" style="stop-color:#334E8B"/>
		<stop  offset="0.31" style="stop-color:#314B87"/>
		<stop  offset="0.51" style="stop-color:#3C5A9F"/>
		<stop  offset="0.54" style="stop-color:#3C5BA1"/>
		<stop  offset="0.8" style="stop-color:#8C99C4"/>
		<stop  offset="1" style="stop-color:#344F8C"/>
	</linearGradient>
	<path fill="url(#SVGID_3_)" d="M121.465,153.898h324c2.25,0,4.5,2.035,4.5,4.551v11.949c0,2.25-2.082,4.363-4.563,4.363
		l-323.937,0.137c-2.25,0-4.5-2.176-4.5-4.688v-11.813c0-2.25,1.941-4.5,4.418-4.5H121.465z"/>
	
		<linearGradient id="SVGID_4_" gradientUnits="userSpaceOnUse" x1="424.2261" y1="173.3047" x2="424.2261" y2="201.3047" gradientTransform="matrix(0.75 0 0 -0.75 -34.7047 542.6056)">
		<stop  offset="0.12" style="stop-color:#385597"/>
		<stop  offset="0.19" style="stop-color:#334E8B"/>
		<stop  offset="0.31" style="stop-color:#314B87"/>
		<stop  offset="0.51" style="stop-color:#3C5A9F"/>
		<stop  offset="0.54" style="stop-color:#3C5BA1"/>
		<stop  offset="0.8" style="stop-color:#8C99C4"/>
		<stop  offset="1" style="stop-color:#344F8C"/>
	</linearGradient>
	<path fill="url(#SVGID_4_)" d="M121.465,391.628h324c2.25,0,4.5,2.035,4.5,4.551v11.949c0,2.25-2.082,4.363-4.563,4.363
		l-323.937,0.137c-2.25,0-4.5-2.176-4.5-4.688v-11.813c0-2.25,1.941-4.5,4.418-4.5H121.465z"/>
	
		<linearGradient id="SVGID_5_" gradientUnits="userSpaceOnUse" x1="424.2261" y1="173.3057" x2="424.2261" y2="201.3057" gradientTransform="matrix(0.75 0 0 -0.75 -34.7047 694.6661)">
		<stop  offset="0.12" style="stop-color:#385597"/>
		<stop  offset="0.19" style="stop-color:#334E8B"/>
		<stop  offset="0.31" style="stop-color:#314B87"/>
		<stop  offset="0.51" style="stop-color:#3C5A9F"/>
		<stop  offset="0.54" style="stop-color:#3C5BA1"/>
		<stop  offset="0.8" style="stop-color:#8C99C4"/>
		<stop  offset="1" style="stop-color:#344F8C"/>
	</linearGradient>
	<path fill="url(#SVGID_5_)" d="M121.465,543.687h324c2.25,0,4.5,2.039,4.5,4.555v11.945c0,2.25-2.082,4.367-4.563,4.367
		l-323.937,0.133c-2.25,0-4.5-2.172-4.5-4.688v-11.813c0-2.25,1.941-4.5,4.418-4.5H121.465z"/>
</g>
</svg>
