<?xml version="1.0" encoding="utf-8"?>
<!-- Generator: Adobe Illustrator 16.0.0, SVG Export Plug-In . SVG Version: 6.00 Build 0)  -->
<!DOCTYPE svg PUBLIC "-//W3C//DTD SVG 1.1//EN" "http://www.w3.org/Graphics/SVG/1.1/DTD/svg11.dtd">
<svg preserveAspectRatio="none" version="1.1" id="图层_1" xmlns="http://www.w3.org/2000/svg" xmlns:xlink="http://www.w3.org/1999/xlink" x="0px" y="0px"
	 width="480.679px" height="553.316px" viewBox="43.121 6.754 480.679 553.316"
	 enable-background="new 43.121 6.754 480.679 553.316" xml:space="preserve">
<g id="surface271">
	
		<linearGradient id="SVGID_1_" gradientUnits="userSpaceOnUse" x1="249.2261" y1="201.3057" x2="249.2261" y2="11.3057" gradientTransform="matrix(0.75 0 0 -0.75 -76.6539 492.5919)">
		<stop  offset="0" style="stop-color:#BAC0C1"/>
		<stop  offset="0.15" style="stop-color:#F4FAFC"/>
		<stop  offset="0.25" style="stop-color:#F8FCFD"/>
		<stop  offset="0.44" style="stop-color:#D5DBDD"/>
		<stop  offset="0.6" style="stop-color:#BDC3C4"/>
		<stop  offset="0.8" style="stop-color:#A0A4A6"/>
		<stop  offset="0.97" style="stop-color:#929697"/>
		<stop  offset="1" style="stop-color:#C2C7C9"/>
	</linearGradient>
	<path fill="url(#SVGID_1_)" d="M75.016,341.613h70.5v142.5h-70.5V341.613z"/>
	
		<linearGradient id="SVGID_2_" gradientUnits="userSpaceOnUse" x1="283.7227" y1="201.3057" x2="283.7227" y2="52.3057" gradientTransform="matrix(0.75 0 0 -0.75 83.5594 508.1593)">
		<stop  offset="0" style="stop-color:#B9BCBD"/>
		<stop  offset="0.15" style="stop-color:#F2F6F7"/>
		<stop  offset="0.25" style="stop-color:#F7FAFA"/>
		<stop  offset="0.44" style="stop-color:#D3D6D7"/>
		<stop  offset="0.6" style="stop-color:#BCBFC0"/>
		<stop  offset="0.8" style="stop-color:#9EA1A2"/>
		<stop  offset="0.97" style="stop-color:#919394"/>
		<stop  offset="1" style="stop-color:#C0C3C4"/>
	</linearGradient>
	<path fill="url(#SVGID_2_)" d="M235.227,357.179h122.25v111.75h-122.25V357.179z"/>
	
		<linearGradient id="SVGID_3_" gradientUnits="userSpaceOnUse" x1="249.2231" y1="201.3066" x2="249.2231" y2="11.3057" gradientTransform="matrix(0.75 0 0 -0.75 269.5673 492.5919)">
		<stop  offset="0" style="stop-color:#BAC0C1"/>
		<stop  offset="0.15" style="stop-color:#F4FAFC"/>
		<stop  offset="0.25" style="stop-color:#F8FCFD"/>
		<stop  offset="0.44" style="stop-color:#D5DBDD"/>
		<stop  offset="0.6" style="stop-color:#BDC3C4"/>
		<stop  offset="0.8" style="stop-color:#A0A4A6"/>
		<stop  offset="0.97" style="stop-color:#929697"/>
		<stop  offset="1" style="stop-color:#C2C7C9"/>
	</linearGradient>
	<path fill="url(#SVGID_3_)" d="M421.234,341.613h70.5v142.5h-70.5V341.613z"/>
	
		<linearGradient id="SVGID_4_" gradientUnits="userSpaceOnUse" x1="279.603" y1="209.1724" x2="243.4326" y2="4.0394" gradientTransform="matrix(0.75 0 0 -0.75 -8.1588 492.5919)">
		<stop  offset="0" style="stop-color:#BAC0C1"/>
		<stop  offset="0.26" style="stop-color:#F4FAFC"/>
		<stop  offset="0.33" style="stop-color:#F8FCFD"/>
		<stop  offset="0.44" style="stop-color:#D5DBDD"/>
		<stop  offset="0.6" style="stop-color:#BDC3C4"/>
		<stop  offset="0.8" style="stop-color:#A0A4A6"/>
		<stop  offset="0.97" style="stop-color:#929697"/>
		<stop  offset="1" style="stop-color:#C2C7C9"/>
	</linearGradient>
	<path fill="url(#SVGID_4_)" d="M143.512,341.613l91.5,15.75v111.75l-91.5,15V341.613z"/>
	
		<linearGradient id="SVGID_5_" gradientUnits="userSpaceOnUse" x1="229.877" y1="206.1792" x2="264.9922" y2="7.0305" gradientTransform="matrix(0.75 0 0 -0.75 205.5653 492.5919)">
		<stop  offset="0" style="stop-color:#BAC0C1"/>
		<stop  offset="0.25" style="stop-color:#F4FAFC"/>
		<stop  offset="0.31" style="stop-color:#F8FCFD"/>
		<stop  offset="0.44" style="stop-color:#D5DBDD"/>
		<stop  offset="0.6" style="stop-color:#BDC3C4"/>
		<stop  offset="0.8" style="stop-color:#A0A4A6"/>
		<stop  offset="0.97" style="stop-color:#929697"/>
		<stop  offset="1" style="stop-color:#C2C7C9"/>
	</linearGradient>
	<path fill="url(#SVGID_5_)" d="M357.234,357.363l65.25-15.75v142.5l-65.25-15V357.363z"/>
	
		<linearGradient id="SVGID_6_" gradientUnits="userSpaceOnUse" x1="264.2227" y1="132.8066" x2="202.2236" y2="132.8066" gradientTransform="matrix(0.75 0 0 -0.75 121.285 342.2911)">
		<stop  offset="0" style="stop-color:#ADB1B3"/>
		<stop  offset="0.15" style="stop-color:#E4E9EA"/>
		<stop  offset="0.25" style="stop-color:#F0F2F3"/>
		<stop  offset="0.44" style="stop-color:#C6CACC"/>
		<stop  offset="0.6" style="stop-color:#B0B4B5"/>
		<stop  offset="0.8" style="stop-color:#949799"/>
		<stop  offset="0.97" style="stop-color:#878A8C"/>
		<stop  offset="1" style="stop-color:#B4B8BA"/>
	</linearGradient>
	<path fill="url(#SVGID_6_)" d="M272.953,191.313h46.5v102.75h-46.5V191.313z"/>
	
		<linearGradient id="SVGID_7_" gradientUnits="userSpaceOnUse" x1="290.2251" y1="183.3066" x2="202.2251" y2="183.3066" gradientTransform="matrix(0.75 0 0 -0.75 111.3851 455.5177)">
		<stop  offset="0" style="stop-color:#BAC0C1"/>
		<stop  offset="0.15" style="stop-color:#F4FAFC"/>
		<stop  offset="0.25" style="stop-color:#F8FCFD"/>
		<stop  offset="0.44" style="stop-color:#D5DBDD"/>
		<stop  offset="0.6" style="stop-color:#BDC3C4"/>
		<stop  offset="0.8" style="stop-color:#A0A4A6"/>
		<stop  offset="0.97" style="stop-color:#929697"/>
		<stop  offset="1" style="stop-color:#C2C7C9"/>
	</linearGradient>
	<path fill="url(#SVGID_7_)" d="M263.055,304.539h66v27h-66V304.539z"/>
	
		<linearGradient id="SVGID_8_" gradientUnits="userSpaceOnUse" x1="273.2217" y1="170.8638" x2="202.1445" y2="170.8638" gradientTransform="matrix(0.75 0 0 -0.75 118.0243 302.2775)">
		<stop  offset="0" style="stop-color:#BAC0C1"/>
		<stop  offset="0.15" style="stop-color:#F4FAFC"/>
		<stop  offset="0.25" style="stop-color:#F8FCFD"/>
		<stop  offset="0.44" style="stop-color:#D5DBDD"/>
		<stop  offset="0.6" style="stop-color:#BDC3C4"/>
		<stop  offset="0.8" style="stop-color:#A0A4A6"/>
		<stop  offset="0.97" style="stop-color:#929697"/>
		<stop  offset="1" style="stop-color:#C2C7C9"/>
	</linearGradient>
	<path fill="url(#SVGID_8_)" d="M275.691,151.301h40.5c3.75,0,6.523,2.797,6.523,6.355l0.227,32.645c0,3.75-3.102,6.434-6.648,6.434
		l-40.601,0.316c-3,0-6.059-3.199-6.059-6.758l0.059-32.992c0-3,2.816-6.09,6.363-6.09L275.691,151.301z"/>
	
		<linearGradient id="SVGID_9_" gradientUnits="userSpaceOnUse" x1="290.2886" y1="200.9287" x2="202.549" y2="185.4578" gradientTransform="matrix(0.75 0 0 -0.75 111.3851 445.3185)">
		<stop  offset="0" style="stop-color:#BAC0C1"/>
		<stop  offset="0.15" style="stop-color:#F4FAFC"/>
		<stop  offset="0.25" style="stop-color:#F8FCFD"/>
		<stop  offset="0.44" style="stop-color:#D5DBDD"/>
		<stop  offset="0.6" style="stop-color:#BDC3C4"/>
		<stop  offset="0.8" style="stop-color:#A0A4A6"/>
		<stop  offset="0.97" style="stop-color:#929697"/>
		<stop  offset="1" style="stop-color:#C2C7C9"/>
	</linearGradient>
	<path fill="url(#SVGID_9_)" d="M272.805,294.339h46.5l9.75,10.5h-66L272.805,294.339z"/>
	
		<linearGradient id="SVGID_10_" gradientUnits="userSpaceOnUse" x1="290.2251" y1="166.9463" x2="202.2251" y2="166.9463" gradientTransform="matrix(0.75 0 0 -0.75 111.3851 482.3478)">
		<stop  offset="0" style="stop-color:#BAC0C1"/>
		<stop  offset="0.15" style="stop-color:#F4FAFC"/>
		<stop  offset="0.25" style="stop-color:#F8FCFD"/>
		<stop  offset="0.44" style="stop-color:#D5DBDD"/>
		<stop  offset="0.6" style="stop-color:#BDC3C4"/>
		<stop  offset="0.8" style="stop-color:#A0A4A6"/>
		<stop  offset="0.97" style="stop-color:#929697"/>
		<stop  offset="1" style="stop-color:#C2C7C9"/>
	</linearGradient>
	<path fill="url(#SVGID_10_)" d="M263.055,331.371h66v37.5c0,0-1.293,14.035-33.398,14.035
		c-31.851,0.215-32.601-13.742-32.601-13.742V331.371z"/>
	
		<linearGradient id="SVGID_11_" gradientUnits="userSpaceOnUse" x1="229.2246" y1="189.3027" x2="202.2246" y2="189.3027" gradientTransform="matrix(0.75 0 0 -0.75 107.9603 618.6007)">
		<stop  offset="0" style="stop-color:#BAC0C1"/>
		<stop  offset="0.15" style="stop-color:#F4FAFC"/>
		<stop  offset="0.25" style="stop-color:#F8FCFD"/>
		<stop  offset="0.44" style="stop-color:#D5DBDD"/>
		<stop  offset="0.6" style="stop-color:#BDC3C4"/>
		<stop  offset="0.8" style="stop-color:#A0A4A6"/>
		<stop  offset="0.97" style="stop-color:#929697"/>
		<stop  offset="1" style="stop-color:#C2C7C9"/>
	</linearGradient>
	<path fill="url(#SVGID_11_)" d="M259.629,467.625h20.25v18h-20.25V467.625z"/>
	
		<linearGradient id="SVGID_12_" gradientUnits="userSpaceOnUse" x1="222.2275" y1="193.3057" x2="202.2275" y2="193.3057" gradientTransform="matrix(0.75 0 0 -0.75 110.9579 637.0685)">
		<stop  offset="0" style="stop-color:#BAC0C1"/>
		<stop  offset="0.15" style="stop-color:#F4FAFC"/>
		<stop  offset="0.25" style="stop-color:#F8FCFD"/>
		<stop  offset="0.44" style="stop-color:#D5DBDD"/>
		<stop  offset="0.6" style="stop-color:#BDC3C4"/>
		<stop  offset="0.8" style="stop-color:#A0A4A6"/>
		<stop  offset="0.97" style="stop-color:#929697"/>
		<stop  offset="1" style="stop-color:#C2C7C9"/>
	</linearGradient>
	<path fill="url(#SVGID_12_)" d="M262.629,486.089h15v12h-15V486.089z"/>
	
		<linearGradient id="SVGID_13_" gradientUnits="userSpaceOnUse" x1="473.6187" y1="101.7236" x2="202.2241" y2="101.7236" gradientTransform="matrix(0.75 0 0 -0.75 42.7885 157.7325)">
		<stop  offset="0" style="stop-color:#182830"/>
		<stop  offset="0.03" style="stop-color:#808689"/>
		<stop  offset="0.08" style="stop-color:#233742"/>
		<stop  offset="0.64" style="stop-color:#223640"/>
		<stop  offset="0.95" style="stop-color:#21353F"/>
		<stop  offset="1" style="stop-color:#16252C"/>
	</linearGradient>
	<path fill="url(#SVGID_13_)" d="M196.707,6.754h198.75c1.5,0,2.547,1.004,2.547,2.238l-0.297,144.762
		c0,1.5-0.699,2.375-1.934,2.375l-199.066-0.125c-1.5,0-2.25-0.875-2.25-2.113V9.004c0-1.5,1-2.25,2.23-2.25H196.707z"/>
	<path fill="#6C6D71" d="M204.113,15.008h184.5c0.75,0,1.984,0.988,1.984,2.211l0.266,128.289c0,1.5-1.254,2.367-2.473,2.367
		l-184.277-0.117c-1.5,0-2.25-0.871-2.25-2.098V17.258c0-1.5,0.988-2.25,2.207-2.25H204.113z"/>
	<path d="M207.75,21.836h177v119.25h-177V21.836z"/>
	<path fill="#FFFFFF" fill-opacity="0.149" d="M209.996,24.16h172.5v114.75h-172.5V24.16z"/>
	<path fill="#495253" d="M250.242,55.238h92.25v52.5h-92.25V55.238z"/>
	<path fill="#FFFFFF" fill-opacity="0.2863" d="M251.957,56.781h88.5v49.5h-88.5V56.781z"/>
	<path fill="#FFFFFF" fill-opacity="0.1137" d="M234.82,32.125h123v6.75h-123V32.125z"/>
	
		<linearGradient id="SVGID_14_" gradientUnits="userSpaceOnUse" x1="206.2246" y1="201.3037" x2="206.2246" y2="11.3037" gradientTransform="matrix(0.75 0 0 -0.75 -76.5861 492.59)">
		<stop  offset="0" style="stop-color:#939798"/>
		<stop  offset="0.15" style="stop-color:#C5CACB"/>
		<stop  offset="0.25" style="stop-color:#DFE2E2"/>
		<stop  offset="0.44" style="stop-color:#A8ADAE"/>
		<stop  offset="0.6" style="stop-color:#959A9B"/>
		<stop  offset="0.8" style="stop-color:#7D8182"/>
		<stop  offset="0.97" style="stop-color:#727676"/>
		<stop  offset="1" style="stop-color:#999D9E"/>
	</linearGradient>
	<path fill="url(#SVGID_14_)" d="M75.082,341.613h6v142.5h-6V341.613z"/>
	
		<linearGradient id="SVGID_15_" gradientUnits="userSpaceOnUse" x1="206.2241" y1="201.3047" x2="206.2241" y2="11.3047" gradientTransform="matrix(0.75 0 0 -0.75 335.4413 492.5909)">
		<stop  offset="0" style="stop-color:#939798"/>
		<stop  offset="0.15" style="stop-color:#C5CACB"/>
		<stop  offset="0.25" style="stop-color:#DFE2E2"/>
		<stop  offset="0.44" style="stop-color:#A8ADAE"/>
		<stop  offset="0.6" style="stop-color:#959A9B"/>
		<stop  offset="0.8" style="stop-color:#7D8182"/>
		<stop  offset="0.97" style="stop-color:#727676"/>
		<stop  offset="1" style="stop-color:#999D9E"/>
	</linearGradient>
	<path fill="url(#SVGID_15_)" d="M487.109,341.613h6v142.5h-6V341.613z"/>
	
		<linearGradient id="SVGID_16_" gradientUnits="userSpaceOnUse" x1="223.7021" y1="201.3047" x2="223.7021" y2="-190.8506" gradientTransform="matrix(0.75 0 0 -0.75 339.8817 416.9318)">
		<stop  offset="0" style="stop-color:#BAC0C1"/>
		<stop  offset="0.15" style="stop-color:#F4FAFC"/>
		<stop  offset="0.25" style="stop-color:#F8FCFD"/>
		<stop  offset="0.44" style="stop-color:#D5DBDD"/>
		<stop  offset="0.6" style="stop-color:#BDC3C4"/>
		<stop  offset="0.8" style="stop-color:#A0A4A6"/>
		<stop  offset="0.97" style="stop-color:#929697"/>
		<stop  offset="1" style="stop-color:#C2C7C9"/>
	</linearGradient>
	<path fill="url(#SVGID_16_)" d="M498.3,265.953h18.75c3.75,0,6.574,2.82,6.574,6.375l0.176,281.625c0,3-3.051,6.117-6.598,6.117
		l-18.902-0.117c-3.75,0-6.785-2.766-6.785-6.324l0.035-281.675c0-3,2.84-6,6.387-6H498.3z"/>
	
		<linearGradient id="SVGID_17_" gradientUnits="userSpaceOnUse" x1="223.7041" y1="201.3037" x2="223.7041" y2="-190.8516" gradientTransform="matrix(0.75 0 0 -0.75 -108.5133 416.9318)">
		<stop  offset="0" style="stop-color:#BAC0C1"/>
		<stop  offset="0.15" style="stop-color:#F4FAFC"/>
		<stop  offset="0.25" style="stop-color:#F8FCFD"/>
		<stop  offset="0.44" style="stop-color:#D5DBDD"/>
		<stop  offset="0.6" style="stop-color:#BDC3C4"/>
		<stop  offset="0.8" style="stop-color:#A0A4A6"/>
		<stop  offset="0.97" style="stop-color:#929697"/>
		<stop  offset="1" style="stop-color:#C2C7C9"/>
	</linearGradient>
	<path fill="url(#SVGID_17_)" d="M49.906,265.953h18.75c3.75,0,6.574,2.82,6.574,6.375l0.176,281.625c0,3-3.051,6.117-6.598,6.117
		l-18.902-0.117c-3.75,0-6.785-2.766-6.785-6.324l0.035-281.675c0-3,2.84-6,6.387-6H49.906z"/>
	<path fill="#FED372" d="M287.746,124.215c0-3.75,3.492-7.52,7.836-7.52c4.164,0.02,7.836,3.523,7.836,7.887
		c0.078,4.133-3.52,7.867-7.836,7.867c-4.086,0.016-7.855-3.535-7.855-7.867L287.746,124.215z"/>
	
		<linearGradient id="SVGID_18_" gradientUnits="userSpaceOnUse" x1="204.8979" y1="202.8799" x2="216.5979" y2="182.615" gradientTransform="matrix(0.75 0 0 -0.75 137.5135 269.1329)">
		<stop  offset="0" style="stop-color:#FEDEA0"/>
		<stop  offset="1" style="stop-color:#E9C168"/>
	</linearGradient>
	<path fill="url(#SVGID_18_)" stroke="#FFFFFF" stroke-linejoin="bevel" stroke-miterlimit="10" d="M289.183,124.906
		c0-3.75,2.852-6.766,6.398-6.766c3.352,0.016,6.398,2.879,6.398,6.441c-0.047,3.324-2.875,6.426-6.398,6.426
		c-3.398-0.102-6.414-2.887-6.414-6.426L289.183,124.906z"/>
	<path fill="#7D040F" d="M268.66,124.215c0-3.75,3.488-7.52,7.836-7.52c4.164,0.02,7.835,3.523,7.835,7.887
		c0.078,4.133-3.523,7.867-7.835,7.867c-4.086,0.016-7.855-3.535-7.855-7.867L268.66,124.215z"/>
	
		<linearGradient id="SVGID_19_" gradientUnits="userSpaceOnUse" x1="204.8984" y1="202.8799" x2="216.5985" y2="182.6147" gradientTransform="matrix(0.75 0 0 -0.75 118.4257 269.1329)">
		<stop  offset="0" style="stop-color:#9F5153"/>
		<stop  offset="1" style="stop-color:#7B030D"/>
	</linearGradient>
	<path fill="url(#SVGID_19_)" stroke="#FFFFFF" stroke-linejoin="bevel" stroke-miterlimit="10" d="M270.094,124.906
		c0-3.75,2.852-6.766,6.402-6.766c3.348,0.016,6.398,2.879,6.398,6.441c-0.051,3.324-2.875,6.426-6.398,6.426
		c-3.402-0.102-6.418-2.887-6.418-6.426L270.094,124.906z"/>
	<path fill="#276F71" d="M308.074,124.215c0-3.75,3.492-7.52,7.836-7.52c4.164,0.02,7.836,3.523,7.836,7.887
		c0.078,4.133-3.52,7.867-7.836,7.867c-4.086,0.016-7.855-3.535-7.855-7.867L308.074,124.215z"/>
	
		<linearGradient id="SVGID_20_" gradientUnits="userSpaceOnUse" x1="204.8979" y1="202.8784" x2="216.5975" y2="182.6141" gradientTransform="matrix(0.75 0 0 -0.75 157.8407 269.1329)">
		<stop  offset="0" style="stop-color:#91CFD1"/>
		<stop  offset="1" style="stop-color:#49AEB1"/>
	</linearGradient>
	<path fill="url(#SVGID_20_)" stroke="#FFFFFF" stroke-linejoin="bevel" stroke-miterlimit="10" d="M309.507,124.906
		c0-3.75,2.852-6.766,6.402-6.766c3.348,0.016,6.398,2.879,6.398,6.441c-0.051,3.324-2.875,6.426-6.398,6.426
		c-3.402-0.102-6.418-2.887-6.418-6.426L309.507,124.906z"/>
</g>
</svg>
