<?xml version="1.0" encoding="utf-8"?>
<!-- Generator: Adobe Illustrator 16.0.0, SVG Export Plug-In . SVG Version: 6.00 Build 0)  -->
<!DOCTYPE svg PUBLIC "-//W3C//DTD SVG 1.1//EN" "http://www.w3.org/Graphics/SVG/1.1/DTD/svg11.dtd">
<svg preserveAspectRatio="none"   version="1.1" id="图层_1" xmlns="http://www.w3.org/2000/svg" xmlns:xlink="http://www.w3.org/1999/xlink" x="0px" y="0px"
	 width="564.25px" height="72.25px" viewBox="1.34 494.875 564.25 72.25" enable-background="new 1.34 494.875 564.25 72.25"
	 xml:space="preserve">
<g id="surface176">
	<path fill="#019AD3" stroke="#019AD3" stroke-width="0.25" stroke-linejoin="bevel" stroke-miterlimit="10" d="M2.965,495h560.25
		c1.5,0,2.25,0.844,2.25,1.914v19.836c0,0.75-0.891,1.746-1.906,1.746L2.965,518.25c-0.75,0-1.5-0.621-1.5-1.691V497.25
		c0-1.5,0.734-2.25,1.75-2.25H2.965z"/>
	<path fill="#048ABC" stroke="#048ABC" stroke-width="0.25" stroke-linejoin="bevel" stroke-miterlimit="10" d="M16.215,518.656
		h42.75c0.75,0,1.707,0.828,1.707,1.898l-0.207,44.602c0,0.75-0.617,1.844-1.633,1.844l-42.617-0.344c-0.75,0-1.5-0.523-1.5-1.594
		v-44.156c0-1.5,0.824-2.25,1.84-2.25H16.215z"/>
	<path fill="#048ABC" stroke="#048ABC" stroke-width="0.25" stroke-linejoin="bevel" stroke-miterlimit="10" d="M261.949,518.656
		h42.75c0.75,0,1.707,0.828,1.707,1.898l-0.207,44.602c0,0.75-0.617,1.844-1.633,1.844l-42.617-0.344c-0.75,0-1.5-0.523-1.5-1.594
		v-44.156c0-1.5,0.824-2.25,1.84-2.25H261.949z"/>
	<path fill="#048ABC" stroke="#048ABC" stroke-width="0.25" stroke-linejoin="bevel" stroke-miterlimit="10" d="M507.714,518.656
		h42.75c0.75,0,1.707,0.828,1.707,1.898l-0.207,44.602c0,0.75-0.617,1.844-1.633,1.844l-42.617-0.344c-0.75,0-1.5-0.523-1.5-1.594
		v-44.156c0-1.5,0.824-2.25,1.84-2.25H507.714z"/>
</g>
</svg>
