<?xml version="1.0" encoding="utf-8"?>
<!-- Generator: Adobe Illustrator 16.0.0, SVG Export Plug-In . SVG Version: 6.00 Build 0)  -->
<!DOCTYPE svg PUBLIC "-//W3C//DTD SVG 1.1//EN" "http://www.w3.org/Graphics/SVG/1.1/DTD/svg11.dtd">
<svg preserveAspectRatio="none"   version="1.1" id="图层_1" xmlns="http://www.w3.org/2000/svg" xmlns:xlink="http://www.w3.org/1999/xlink" x="0px" y="0px"
	 width="560.44px" height="54.98px" viewBox="3.281 495.625 560.44 54.98" enable-background="new 3.281 495.625 560.44 54.98"
	 xml:space="preserve">
<g id="surface121">
	<path fill="#E7C400" stroke="#E7C400" stroke-width="0.25" stroke-linejoin="bevel" stroke-miterlimit="10" d="M3.406,527.644
		h508.5v22.5H3.406V527.644z"/>
	<path fill="#FFD900" stroke="#FFD900" stroke-width="0.25" stroke-linejoin="bevel" stroke-miterlimit="10" d="M54.406,495.75
		h509.25l-51,31.5H3.406L54.406,495.75z"/>
	<path fill="#FFFFFF" d="M68.266,500.011h468l-37.5,23.25h-468L68.266,500.011z"/>
	<path fill="#FFD900" stroke="#FFD900" stroke-width="0.25" stroke-linejoin="bevel" stroke-miterlimit="10" d="M116.938,498.031
		h12.75l-40.5,25.5h-12.75L116.938,498.031z"/>
	<path fill="#FFD900" stroke="#FFD900" stroke-width="0.25" stroke-linejoin="bevel" stroke-miterlimit="10" d="M166.902,499.203
		h13.5l-39,24h-12.75L166.902,499.203z"/>
	<path fill="#FFD900" stroke="#FFD900" stroke-width="0.25" stroke-linejoin="bevel" stroke-miterlimit="10" d="M219.117,499.203
		h13.5l-39,24h-12.75L219.117,499.203z"/>
	<path fill="#FFD900" stroke="#FFD900" stroke-width="0.25" stroke-linejoin="bevel" stroke-miterlimit="10" d="M325.363,497.531
		h12.75l-41.25,25.5h-12.75L325.363,497.531z"/>
	<path fill="#FFD900" stroke="#FFD900" stroke-width="0.25" stroke-linejoin="bevel" stroke-miterlimit="10" d="M428.867,498.031
		h12.75l-40.5,25.5h-12.75L428.867,498.031z"/>
	<path fill="#FFD900" stroke="#FFD900" stroke-width="0.25" stroke-linejoin="bevel" stroke-miterlimit="10" d="M274.246,497.363
		h13.5l-42,26.25h-12.75L274.246,497.363z"/>
	<path fill="#FFD900" stroke="#FFD900" stroke-width="0.25" stroke-linejoin="bevel" stroke-miterlimit="10" d="M375.535,498.703
		h13.5l-39.75,24.75h-12.75L375.535,498.703z"/>
	<path fill="#FFD900" stroke="#FFD900" stroke-width="0.25" stroke-linejoin="bevel" stroke-miterlimit="10" d="M480.203,498.199
		h13.5l-40.5,24.75h-12.75L480.203,498.199z"/>
	<path fill="#FFD900" stroke="#FFD900" stroke-width="0.25" stroke-linejoin="bevel" stroke-miterlimit="10" d="M40.184,517.703
		l4.5-3h468l-4.5,3H40.184z"/>
	<path fill="#FFD900" stroke="#FFD900" stroke-width="0.25" stroke-linejoin="bevel" stroke-miterlimit="10" d="M53.91,509.128
		l4.5-3h468l-4.5,3H53.91z"/>
	<path fill="#FFE386" stroke="#FFE386" stroke-width="0.25" stroke-linejoin="bevel" stroke-miterlimit="10" d="M512.16,528
		l51-32.25v22.5l-51,32.25V528z"/>
</g>
</svg>
