<?xml version="1.0" encoding="utf-8"?>
<!-- Generator: Adobe Illustrator 16.0.0, SVG Export Plug-In . SVG Version: 6.00 Build 0)  -->
<!DOCTYPE svg PUBLIC "-//W3C//DTD SVG 1.1//EN" "http://www.w3.org/Graphics/SVG/1.1/DTD/svg11.dtd">
<svg preserveAspectRatio="none"   version="1.1" id="图层_1" xmlns="http://www.w3.org/2000/svg" xmlns:xlink="http://www.w3.org/1999/xlink" x="0px" y="0px"
	 width="560.5px" height="560.5px" viewBox="3.281 3.316 560.5 560.5" enable-background="new 3.281 3.316 560.5 560.5"
	 xml:space="preserve">
<g id="surface126">
	<path fill="#FFD900" stroke="#FFD900" stroke-width="0.25" stroke-linejoin="bevel" stroke-miterlimit="10" d="M3.406,3.441h560.25
		v560.25H3.406V3.441z"/>
	<path fill="#FFFFFF" d="M25.992,26.027h515.25v515.25H25.992V26.027z"/>
	<path fill="#FFD900" stroke="#FFD900" stroke-width="0.25" stroke-linejoin="bevel" stroke-miterlimit="10" d="M76.148,26.027
		h14.25v515.25h-14.25V26.027z"/>
	<path fill="#FFD900" stroke="#FFD900" stroke-width="0.25" stroke-linejoin="bevel" stroke-miterlimit="10" d="M133.586,26.027
		h14.25v515.25h-14.25V26.027z"/>
	<path fill="#FFD900" stroke="#FFD900" stroke-width="0.25" stroke-linejoin="bevel" stroke-miterlimit="10" d="M191.023,26.027
		h14.25v515.25h-14.25V26.027z"/>
	<path fill="#FFD900" stroke="#FFD900" stroke-width="0.25" stroke-linejoin="bevel" stroke-miterlimit="10" d="M304.589,26.027
		h14.25v515.25h-14.25V26.027z"/>
	<path fill="#FFD900" stroke="#FFD900" stroke-width="0.25" stroke-linejoin="bevel" stroke-miterlimit="10" d="M419.273,26.027
		h14.25v515.25h-14.25V26.027z"/>
	<path fill="#FFD900" stroke="#FFD900" stroke-width="0.25" stroke-linejoin="bevel" stroke-miterlimit="10" d="M248.363,26.027
		h14.25v515.25h-14.25V26.027z"/>
	<path fill="#FFD900" stroke="#FFD900" stroke-width="0.25" stroke-linejoin="bevel" stroke-miterlimit="10" d="M362.257,26.027
		h14.25v515.25h-14.25V26.027z"/>
	<path fill="#FFD900" stroke="#FFD900" stroke-width="0.25" stroke-linejoin="bevel" stroke-miterlimit="10" d="M476.566,26.027
		h14.25v515.25h-14.25V26.027z"/>
	<path fill="#FFD900" stroke="#FFD900" stroke-width="0.25" stroke-linejoin="bevel" stroke-miterlimit="10" d="M25.992,490.816
		v-14.25h515.25v14.25H25.992z"/>
	<path fill="#FFD900" stroke="#FFD900" stroke-width="0.25" stroke-linejoin="bevel" stroke-miterlimit="10" d="M25.992,433.378
		v-14.25h515.25v14.25H25.992z"/>
	<path fill="#FFD900" stroke="#FFD900" stroke-width="0.25" stroke-linejoin="bevel" stroke-miterlimit="10" d="M25.992,375.941
		v-14.25h515.25v14.25H25.992z"/>
	<path fill="#FFD900" stroke="#FFD900" stroke-width="0.25" stroke-linejoin="bevel" stroke-miterlimit="10" d="M25.992,262.375
		v-14.25h515.25v14.25H25.992z"/>
	<path fill="#FFD900" stroke="#FFD900" stroke-width="0.25" stroke-linejoin="bevel" stroke-miterlimit="10" d="M25.992,147.691
		v-14.25h515.25v14.25H25.992z"/>
	<path fill="#FFD900" stroke="#FFD900" stroke-width="0.25" stroke-linejoin="bevel" stroke-miterlimit="10" d="M25.992,318.601
		v-14.25h515.25v14.25H25.992z"/>
	<path fill="#FFD900" stroke="#FFD900" stroke-width="0.25" stroke-linejoin="bevel" stroke-miterlimit="10" d="M25.992,204.707
		v-14.25h515.25v14.25H25.992z"/>
	<path fill="#FFD900" stroke="#FFD900" stroke-width="0.25" stroke-linejoin="bevel" stroke-miterlimit="10" d="M25.992,90.398
		v-14.25h515.25v14.25H25.992z"/>
</g>
</svg>
