<?xml version="1.0" encoding="utf-8"?>
<!-- Generator: Adobe Illustrator 16.0.0, SVG Export Plug-In . SVG Version: 6.00 Build 0)  -->
<!DOCTYPE svg PUBLIC "-//W3C//DTD SVG 1.1//EN" "http://www.w3.org/Graphics/SVG/1.1/DTD/svg11.dtd">
<svg preserveAspectRatio="none"   version="1.1" id="图层_1" xmlns="http://www.w3.org/2000/svg" xmlns:xlink="http://www.w3.org/1999/xlink" x="0px" y="0px"
	 width="340.749px" height="553.117px" viewBox="113.262 7.074 340.749 553.117"
	 enable-background="new 113.262 7.074 340.749 553.117" xml:space="preserve">
<g id="surface151">
	<path fill="#FC970C" stroke="#FC970C" stroke-linejoin="bevel" stroke-miterlimit="10" d="M114.023,231.766
		c0,0-2.18-45.762,28.125-56.484c14.625-5.016,22.793-6.137,27.395-14.664c-0.02-0.102,0.105-12.102,0.105-12.102h228.625
		l-0.246,12.969c5.496,7.281,12.348,8.398,27.41,13.797c30.586,10.734,27.469,56.41,27.469,56.41l0.117,286.574
		c0,0-0.996,41.426-70.266,41.426c-0.234-0.176-199.222,0-199.222,0c-68.762-0.176-69.512-41.324-69.512-41.324V231.766z"/>
	<path fill="#C17307" stroke="#C17307" stroke-linejoin="bevel" stroke-miterlimit="10" d="M453.511,518.367
		c0,0-1.68,41.324-70.953,41.324c-0.297-0.074-199.218,0-199.218,0c-68.078-0.074-69.578-41.324-69.578-41.324
		s7.289,36.809,69.371,37.156c61.879,0.344,140.996,0,199.921,0c59.207,0.344,70.113-37.156,70.113-37.156H453.511z"/>
	<path fill="#DF7603" fill-opacity="0.3216" d="M142.551,175.492c0,0,24.063-6.594,26.762-14.875
		c0.238-0.125,0.105-7.625,0.105-7.625h6.883v406.5c0,0-12.773-0.551-18.387-1.668c-5.613-1.332-15.363-4.742-15.363-4.742V175.492z
		"/>
	<path fill="#DF7603" fill-opacity="0.3216" d="M241.25,152.715h83.25v406.5h-83.25V152.715z"/>
	<path fill="#DF7603" fill-opacity="0.3216" d="M425.441,175.492c0,0-24.059-6.594-26.762-14.879
		c-0.238-0.121-0.105-7.621-0.105-7.621h-6.883v406.5c0,0,12.777-0.551,18.387-1.668c5.613-1.332,15.363-4.742,15.363-4.742V175.492
		z"/>
	<path fill="#E07404" stroke="#E07404" stroke-linejoin="bevel" stroke-miterlimit="10" d="M141.613,175.516
		c15-5.25,23.164-6.371,27.766-14.898c-0.016-0.102,0.102-12.102,0.102-12.102h228.632l-0.25,12.969
		c5.5,7.281,12.344,8.398,27.453,13.797c-0.203,0.234-283.375,0-283.375,0L141.613,175.516z"/>
	<path fill="#C17307" stroke="#C17307" stroke-linejoin="bevel" stroke-miterlimit="10" d="M169.234,160.516v-12h228.75v12.75
		L169.234,160.516z"/>
	<path fill="#FFFFFF" fill-opacity="0.0706" d="M114.023,231.766c0,0-2.18-45.762,28.125-56.484
		c14.625-5.016,22.793-6.137,27.395-14.664c-0.02-0.102,0.105-12.102,0.105-12.102h228.625l-0.246,12.969
		c5.496,7.281,12.348,8.398,27.41,13.797c30.586,10.734,27.469,56.41,27.469,56.41l0.117,286.574c0,0-0.996,41.426-70.266,41.426
		c-0.234-0.176-199.222,0-199.222,0c-68.762-0.176-69.512-41.324-69.512-41.324V231.766z"/>
	
		<linearGradient id="SVGID_1_" gradientUnits="userSpaceOnUse" x1="202.2241" y1="104.0889" x2="580.3218" y2="104.0889" gradientTransform="matrix(0.75 0 0 -0.75 -9.9918 158.0509)">
		<stop  offset="0" style="stop-color:#E0D8D6"/>
		<stop  offset="0.24" style="stop-color:#EEE6E4"/>
		<stop  offset="0.7" style="stop-color:#F8F4F4"/>
		<stop  offset="1" style="stop-color:#E0D8D6"/>
	</linearGradient>
	<path fill="url(#SVGID_1_)" d="M146.176,7.074h274.5c3,0,4.574,1.82,4.574,4.133l-0.074,137.617c0,2.25-1.832,4.07-4.156,4.07
		l-274.843-0.32c-2.25,0-4.5-1.578-4.5-3.891V11.574c0-3,1.883-4.5,4.207-4.5H146.176z"/>
	
		<linearGradient id="SVGID_2_" gradientUnits="userSpaceOnUse" x1="202.2275" y1="5.3022" x2="654.2261" y2="5.3022" gradientTransform="matrix(0.75 0 0 -0.75 -37.7174 374.1407)">
		<stop  offset="0" style="stop-color:#E0D8D6"/>
		<stop  offset="0.24" style="stop-color:#EEE6E4"/>
		<stop  offset="0.7" style="stop-color:#F8F4F4"/>
		<stop  offset="1" style="stop-color:#E0D8D6"/>
	</linearGradient>
	<path fill="url(#SVGID_2_)" d="M113.953,223.164h339v294h-339V223.164z"/>
</g>
</svg>
