<?xml version="1.0" encoding="utf-8"?>
<!-- Generator: Adobe Illustrator 16.0.0, SVG Export Plug-In . SVG Version: 6.00 Build 0)  -->
<!DOCTYPE svg PUBLIC "-//W3C//DTD SVG 1.1//EN" "http://www.w3.org/Graphics/SVG/1.1/DTD/svg11.dtd">
<svg preserveAspectRatio="none"   version="1.1" id="图层_1" xmlns="http://www.w3.org/2000/svg" xmlns:xlink="http://www.w3.org/1999/xlink" x="0px" y="0px"
	 width="552.496px" height="411.226px" viewBox="7.246 77.875 552.496 411.226"
	 enable-background="new 7.246 77.875 552.496 411.226" xml:space="preserve">
<g id="surface186">
	<path fill="#D6A77C" stroke="#D6A77C" stroke-width="0.25" stroke-linejoin="bevel" stroke-miterlimit="10" d="M7.371,126.625
		h483.75v362.25H7.371V126.625z"/>
	<path fill="#DEB68C" stroke="#DEB68C" stroke-width="0.25" stroke-linejoin="bevel" stroke-miterlimit="10" d="M75.621,78h483.75
		l-68.25,48.75H7.371L75.621,78z"/>
	<path fill="#E3C29E" stroke="#E3C29E" stroke-width="0.25" stroke-linejoin="bevel" stroke-miterlimit="10" d="M491.367,126.75
		L559.617,78v362.25L491.367,489V126.75z"/>
	<path fill="#A9814D" stroke="#A9814D" stroke-width="0.25" stroke-linejoin="bevel" stroke-miterlimit="10" d="M7.371,271.477
		h483.75v48.75H7.371V271.477z"/>
	<path fill="#B48E5C" stroke="#B48E5C" stroke-width="0.25" stroke-linejoin="bevel" stroke-miterlimit="10" d="M491.367,271.414
		l34.5-22.5v48.75l-34.5,22.5V271.414z"/>
	<path fill="#FFFFFF" stroke="#FFFFFF" stroke-width="0.25" stroke-linejoin="bevel" stroke-miterlimit="10" d="M70.785,200.234
		h73.5v37.5h-73.5V200.234z"/>
	<path fill="#717070" d="M74.805,200.234h1.5v37.5h-1.5V200.234z"/>
	<path fill="#717070" d="M79.637,200.234l0.75,37.5L79.637,200.234z"/>
	<path fill="#717070" d="M85.5,200.234l0.75,37.5L85.5,200.234z"/>
	<path fill="#717070" d="M87.637,200.234l0.75,37.5L87.637,200.234z"/>
	<path fill="#717070" d="M97.059,200.234l0.75,37.5L97.059,200.234z"/>
	<path fill="#717070" d="M91.926,200.234l0.75,37.5L91.926,200.234z"/>
	<path fill="#717070" d="M103.922,200.234l0.75,37.5L103.922,200.234z"/>
	<path fill="#717070" d="M102.063,200.234l0.75,37.5L102.063,200.234z"/>
	<path fill="#717070" d="M110.898,200.234l0.75,37.5L110.898,200.234z"/>
	<path fill="#717070" d="M120.492,200.234l0.75,37.5L120.492,200.234z"/>
	<path fill="#717070" d="M128.395,200.234l0.75,37.5L128.395,200.234z"/>
	<path fill="#717070" d="M117.641,200.234h1.5v37.5h-1.5V200.234z"/>
	<path fill="#717070" d="M124.602,200.234h1.5v37.5h-1.5V200.234z"/>
	<path fill="#717070" d="M131.039,200.234h1.5v37.5h-1.5V200.234z"/>
	<path fill="#717070" d="M137.641,200.234l0.75,37.5L137.641,200.234z"/>
	<path fill="#717070" d="M106.492,200.234h1.5v37.5h-1.5V200.234z"/>
	<path fill="#717070" d="M140.203,200.234l0.75,37.5L140.203,200.234z"/>
</g>
</svg>
