<?xml version="1.0" encoding="utf-8"?>
<!-- Generator: Adobe Illustrator 16.0.0, SVG Export Plug-In . SVG Version: 6.00 Build 0)  -->
<!DOCTYPE svg PUBLIC "-//W3C//DTD SVG 1.1//EN" "http://www.w3.org/Graphics/SVG/1.1/DTD/svg11.dtd">
<svg preserveAspectRatio="none"   version="1.1" id="图层_1" xmlns="http://www.w3.org/2000/svg" xmlns:xlink="http://www.w3.org/1999/xlink" x="0px" y="0px"
	 width="554.45px" height="364.781px" viewBox="6.253 100.953 554.45 364.781"
	 enable-background="new 6.253 100.953 554.45 364.781" xml:space="preserve">
<g id="surface86">
	<path fill="#DDB487" stroke="#DDB487" stroke-width="0.25" stroke-linejoin="bevel" stroke-miterlimit="10" d="M70.09,150.582
		l-63.75,139.5l51-49.5l58.5-139.5L70.09,150.582z"/>
	<path fill="#D4A067" stroke="#D4A067" stroke-width="0.25" stroke-linejoin="bevel" stroke-miterlimit="10" d="M69.836,150.578h423
		l-43.5-48.75l-333.75-0.75L69.836,150.578z"/>
	<path fill="#DDB487" stroke="#DDB487" stroke-width="0.25" stroke-linejoin="bevel" stroke-miterlimit="10" d="M69.836,150.609h423
		v315h-423V150.609z"/>
	<path fill="#EBB570" stroke="#EBB570" stroke-width="0.25" stroke-linejoin="bevel" stroke-miterlimit="10" d="M69.836,150.578
		l45.75-49.5v49.5H69.836z"/>
	<path fill="#DDB487" stroke="#DDB487" stroke-width="0.25" stroke-linejoin="bevel" stroke-miterlimit="10" d="M496.839,150.578
		l63.75,139.5l-51-49.5l-58.5-139.5L496.839,150.578z"/>
	<path fill="#CB8F59" stroke="#CB8F59" stroke-width="0.25" stroke-linejoin="bevel" stroke-miterlimit="10" d="M492.375,153.578
		l-42-52.5v52.5H492.375z"/>
	<path fill="#F1CA98" stroke="#F1CA98" stroke-width="0.25" stroke-linejoin="bevel" stroke-miterlimit="10" d="M69.805,150.613h423
		l20.25,103.5l-459,2.25L69.805,150.613z"/>
</g>
</svg>
