<?xml version="1.0" encoding="utf-8"?>
<!-- Generator: Adobe Illustrator 16.0.0, SVG Export Plug-In . SVG Version: 6.00 Build 0)  -->
<!DOCTYPE svg PUBLIC "-//W3C//DTD SVG 1.1//EN" "http://www.w3.org/Graphics/SVG/1.1/DTD/svg11.dtd">
<svg preserveAspectRatio="none" version="1.1" id="图层_1" xmlns="http://www.w3.org/2000/svg" xmlns:xlink="http://www.w3.org/1999/xlink" x="0px" y="0px"
	 width="363.664px" height="553.066px" viewBox="101.605 7.082 363.664 553.066"
	 enable-background="new 101.605 7.082 363.664 553.066" xml:space="preserve">
<g id="surface256">
	
		<linearGradient id="SVGID_1_" gradientUnits="userSpaceOnUse" x1="215.3047" y1="201.3018" x2="215.3047" y2="-81.1611" gradientTransform="matrix(0.75 0 0 -0.75 -50.0626 493.297)">
		<stop  offset="0" style="stop-color:#BAC0C1"/>
		<stop  offset="0.15" style="stop-color:#F4FAFC"/>
		<stop  offset="0.25" style="stop-color:#F8FCFD"/>
		<stop  offset="0.52" style="stop-color:#D5DBDD"/>
		<stop  offset="0.69" style="stop-color:#BDC3C4"/>
		<stop  offset="0.8" style="stop-color:#B3B8B9"/>
		<stop  offset="0.97" style="stop-color:#A9AEAF"/>
		<stop  offset="1" style="stop-color:#C2C7C9"/>
	</linearGradient>
	<path fill="url(#SVGID_1_)" d="M106.855,342.32h9.75c2.25,0,4.621,2.215,4.621,4.945l-0.121,202.055c0,2.25-2.09,4.848-4.797,4.848
		l-9.453-0.348c-3,0-5.25-1.93-5.25-4.66V347.57c0-3,2.184-5.25,4.891-5.25H106.855z"/>
	
		<linearGradient id="SVGID_2_" gradientUnits="userSpaceOnUse" x1="215.3066" y1="201.3018" x2="215.3066" y2="-81.1611" gradientTransform="matrix(0.75 0 0 -0.75 293.9784 493.297)">
		<stop  offset="0" style="stop-color:#BAC0C1"/>
		<stop  offset="0.15" style="stop-color:#F4FAFC"/>
		<stop  offset="0.25" style="stop-color:#F8FCFD"/>
		<stop  offset="0.52" style="stop-color:#D5DBDD"/>
		<stop  offset="0.69" style="stop-color:#BDC3C4"/>
		<stop  offset="0.8" style="stop-color:#B3B8B9"/>
		<stop  offset="0.97" style="stop-color:#A9AEAF"/>
		<stop  offset="1" style="stop-color:#C2C7C9"/>
	</linearGradient>
	<path fill="url(#SVGID_2_)" d="M450.898,342.32h9.75c2.25,0,4.621,2.215,4.621,4.945l-0.121,202.055
		c0,2.25-2.094,4.848-4.801,4.848l-9.449-0.348c-3,0-5.25-1.93-5.25-4.66V347.57c0-3,2.18-5.25,4.887-5.25H450.898z"/>
	
		<linearGradient id="SVGID_3_" gradientUnits="userSpaceOnUse" x1="220.2251" y1="201.3057" x2="220.2251" y2="51.3057" gradientTransform="matrix(0.75 0 0 -0.75 -30.942 543.0919)">
		<stop  offset="0" style="stop-color:#BAC0C1"/>
		<stop  offset="0.15" style="stop-color:#F4FAFC"/>
		<stop  offset="0.25" style="stop-color:#F8FCFD"/>
		<stop  offset="0.52" style="stop-color:#D5DBDD"/>
		<stop  offset="0.69" style="stop-color:#BDC3C4"/>
		<stop  offset="0.8" style="stop-color:#B3B8B9"/>
		<stop  offset="0.97" style="stop-color:#A9AEAF"/>
		<stop  offset="1" style="stop-color:#C2C7C9"/>
	</linearGradient>
	<path fill="url(#SVGID_3_)" d="M147.727,392.113h-27v112.5h27V392.113z"/>
	
		<linearGradient id="SVGID_4_" gradientUnits="userSpaceOnUse" x1="220.2271" y1="201.3057" x2="220.2271" y2="51.3057" gradientTransform="matrix(0.75 0 0 -0.75 267.2089 543.0919)">
		<stop  offset="0" style="stop-color:#BAC0C1"/>
		<stop  offset="0.15" style="stop-color:#F4FAFC"/>
		<stop  offset="0.25" style="stop-color:#F8FCFD"/>
		<stop  offset="0.52" style="stop-color:#D5DBDD"/>
		<stop  offset="0.69" style="stop-color:#BDC3C4"/>
		<stop  offset="0.8" style="stop-color:#B3B8B9"/>
		<stop  offset="0.97" style="stop-color:#A9AEAF"/>
		<stop  offset="1" style="stop-color:#C2C7C9"/>
	</linearGradient>
	<path fill="url(#SVGID_4_)" d="M418.878,392.113h27v112.5h-27V392.113z"/>
	
		<linearGradient id="SVGID_5_" gradientUnits="userSpaceOnUse" x1="208.7236" y1="201.3037" x2="208.7236" y2="-49.6963" gradientTransform="matrix(0.75 0 0 -0.75 257.6327 505.0939)">
		<stop  offset="0" style="stop-color:#BAC0C1"/>
		<stop  offset="0.15" style="stop-color:#F4FAFC"/>
		<stop  offset="0.25" style="stop-color:#F8FCFD"/>
		<stop  offset="0.52" style="stop-color:#D5DBDD"/>
		<stop  offset="0.69" style="stop-color:#BDC3C4"/>
		<stop  offset="0.8" style="stop-color:#B3B8B9"/>
		<stop  offset="0.97" style="stop-color:#A9AEAF"/>
		<stop  offset="1" style="stop-color:#C2C7C9"/>
	</linearGradient>
	<path fill="url(#SVGID_5_)" d="M419.05,354.117h-9.75v188.25h9.75V354.117z"/>
	
		<linearGradient id="SVGID_6_" gradientUnits="userSpaceOnUse" x1="370.2261" y1="201.3057" x2="370.2261" y2="-96.6943" gradientTransform="matrix(0.75 0 0 -0.75 5.6503 487.6281)">
		<stop  offset="0" style="stop-color:#BAC0C1"/>
		<stop  offset="0.15" style="stop-color:#F4FAFC"/>
		<stop  offset="0.25" style="stop-color:#F8FCFD"/>
		<stop  offset="0.52" style="stop-color:#D5DBDD"/>
		<stop  offset="0.69" style="stop-color:#BDC3C4"/>
		<stop  offset="0.8" style="stop-color:#B3B8B9"/>
		<stop  offset="0.97" style="stop-color:#A9AEAF"/>
		<stop  offset="1" style="stop-color:#C2C7C9"/>
	</linearGradient>
	<path fill="url(#SVGID_6_)" d="M157.32,336.648h252v223.5h-252V336.648z"/>
	
		<linearGradient id="SVGID_7_" gradientUnits="userSpaceOnUse" x1="204.7256" y1="201.3057" x2="204.7256" y2="-96.6943" gradientTransform="matrix(0.75 0 0 -0.75 255.7489 487.6281)">
		<stop  offset="0" style="stop-color:#A2A7A8"/>
		<stop  offset="0.15" style="stop-color:#D7DCDE"/>
		<stop  offset="0.25" style="stop-color:#E9ECED"/>
		<stop  offset="0.52" style="stop-color:#B9BFC0"/>
		<stop  offset="0.69" style="stop-color:#A5AAAB"/>
		<stop  offset="0.8" style="stop-color:#9BA0A1"/>
		<stop  offset="0.97" style="stop-color:#939798"/>
		<stop  offset="1" style="stop-color:#A9AEAF"/>
	</linearGradient>
	<path fill="url(#SVGID_7_)" d="M407.417,336.648h3.75v223.5h-3.75V336.648z"/>
	
		<linearGradient id="SVGID_8_" gradientUnits="userSpaceOnUse" x1="278.2256" y1="127.8003" x2="202.2256" y2="127.8003" gradientTransform="matrix(0.75 0 0 -0.75 103.3226 388.1798)">
		<stop  offset="0" style="stop-color:#BAC0C1"/>
		<stop  offset="0.15" style="stop-color:#F4FAFC"/>
		<stop  offset="0.25" style="stop-color:#F8FCFD"/>
		<stop  offset="0.52" style="stop-color:#D5DBDD"/>
		<stop  offset="0.69" style="stop-color:#BDC3C4"/>
		<stop  offset="0.8" style="stop-color:#B3B8B9"/>
		<stop  offset="0.97" style="stop-color:#A9AEAF"/>
		<stop  offset="1" style="stop-color:#C2C7C9"/>
	</linearGradient>
	<path fill="url(#SVGID_8_)" d="M311.992,237.203h-57v100.5c0,0,0.848,9.754,29.05,9.754c27.949-0.004,27.895-10.094,27.895-10.094
		L311.992,237.203z"/>
	
		<linearGradient id="SVGID_9_" gradientUnits="userSpaceOnUse" x1="452.2251" y1="188.7998" x2="202.2261" y2="188.7998" gradientTransform="matrix(0.75 0 0 -0.75 38.0995 388.215)">
		<stop  offset="0" style="stop-color:#BAC0C1"/>
		<stop  offset="0.15" style="stop-color:#F4FAFC"/>
		<stop  offset="0.25" style="stop-color:#F8FCFD"/>
		<stop  offset="0.52" style="stop-color:#D5DBDD"/>
		<stop  offset="0.69" style="stop-color:#BDC3C4"/>
		<stop  offset="0.8" style="stop-color:#B3B8B9"/>
		<stop  offset="0.97" style="stop-color:#A9AEAF"/>
		<stop  offset="1" style="stop-color:#C2C7C9"/>
	</linearGradient>
	<path fill="url(#SVGID_9_)" d="M194.27,237.238h177.75c3,0,5.141,2.184,5.141,4.914l0.109,8.586c0,3-2.352,5.285-5.059,5.285
		l-177.941-0.035c-2.25,0-4.5-2.195-4.5-4.926v-8.574c0-3,2.164-5.281,4.875-5.281L194.27,237.238z"/>
	
		<linearGradient id="SVGID_10_" gradientUnits="userSpaceOnUse" x1="208.7251" y1="201.3037" x2="208.7251" y2="-49.6963" gradientTransform="matrix(0.75 0 0 -0.75 -4.2311 505.0939)">
		<stop  offset="0" style="stop-color:#BAC0C1"/>
		<stop  offset="0.15" style="stop-color:#F4FAFC"/>
		<stop  offset="0.25" style="stop-color:#F8FCFD"/>
		<stop  offset="0.52" style="stop-color:#D5DBDD"/>
		<stop  offset="0.69" style="stop-color:#BDC3C4"/>
		<stop  offset="0.8" style="stop-color:#B3B8B9"/>
		<stop  offset="0.97" style="stop-color:#A9AEAF"/>
		<stop  offset="1" style="stop-color:#C2C7C9"/>
	</linearGradient>
	<path fill="url(#SVGID_10_)" d="M157.188,354.117h-9.75v188.25h9.75V354.117z"/>
	
		<linearGradient id="SVGID_11_" gradientUnits="userSpaceOnUse" x1="204.7275" y1="201.3057" x2="204.7275" y2="-96.6943" gradientTransform="matrix(0.75 0 0 -0.75 5.451 487.6281)">
		<stop  offset="0" style="stop-color:#A2A7A8"/>
		<stop  offset="0.15" style="stop-color:#D7DCDE"/>
		<stop  offset="0.25" style="stop-color:#E9ECED"/>
		<stop  offset="0.52" style="stop-color:#B9BFC0"/>
		<stop  offset="0.69" style="stop-color:#A5AAAB"/>
		<stop  offset="0.8" style="stop-color:#9BA0A1"/>
		<stop  offset="0.97" style="stop-color:#939798"/>
		<stop  offset="1" style="stop-color:#A9AEAF"/>
	</linearGradient>
	<path fill="url(#SVGID_11_)" d="M157.121,336.648h3.75v223.5h-3.75V336.648z"/>
	
		<linearGradient id="SVGID_12_" gradientUnits="userSpaceOnUse" x1="330.2241" y1="201.3057" x2="330.2241" y2="82.3057" gradientTransform="matrix(0.75 0 0 -0.75 35.972 608.1202)">
		<stop  offset="0" style="stop-color:#F2F9FB"/>
		<stop  offset="0.52" style="stop-color:#D5DBDD"/>
		<stop  offset="1" style="stop-color:#BDC3C4"/>
	</linearGradient>
	<path fill="url(#SVGID_12_)" d="M187.641,457.14h192v89.25h-192V457.14z"/>
	<path fill-opacity="0.6314" d="M200.277,517.281v-30.75h78l12,11.25h60v-11.25l16.5,15l-16.5,15.75v-12h-60l-12.75,12H200.277z"/>
	
		<linearGradient id="SVGID_13_" gradientUnits="userSpaceOnUse" x1="452.2251" y1="188.8008" x2="202.2261" y2="188.8008" gradientTransform="matrix(0.75 0 0 -0.75 38.0995 368.1544)">
		<stop  offset="0" style="stop-color:#BAC0C1"/>
		<stop  offset="0.15" style="stop-color:#F4FAFC"/>
		<stop  offset="0.25" style="stop-color:#F8FCFD"/>
		<stop  offset="0.52" style="stop-color:#D5DBDD"/>
		<stop  offset="0.69" style="stop-color:#BDC3C4"/>
		<stop  offset="0.8" style="stop-color:#B3B8B9"/>
		<stop  offset="0.97" style="stop-color:#A9AEAF"/>
		<stop  offset="1" style="stop-color:#C2C7C9"/>
	</linearGradient>
	<path fill="url(#SVGID_13_)" d="M194.27,217.176h177.75c3,0,5.141,2.188,5.141,4.918l0.109,8.582c0,3-2.352,5.289-5.059,5.289
		l-177.941-0.039c-2.25,0-4.5-2.191-4.5-4.926v-8.574c0-3,2.164-5.281,4.875-5.281L194.27,217.176z"/>
	
		<linearGradient id="SVGID_14_" gradientUnits="userSpaceOnUse" x1="222.1934" y1="201.3037" x2="222.1934" y2="160.3037" gradientTransform="matrix(0.75 0 0 -0.75 6.7572 225.1066)">
		<stop  offset="0" style="stop-color:#BAC0C1"/>
		<stop  offset="0.15" style="stop-color:#F4FAFC"/>
		<stop  offset="0.25" style="stop-color:#F8FCFD"/>
		<stop  offset="0.52" style="stop-color:#D5DBDD"/>
		<stop  offset="0.69" style="stop-color:#BDC3C4"/>
		<stop  offset="0.8" style="stop-color:#B3B8B9"/>
		<stop  offset="0.97" style="stop-color:#A9AEAF"/>
		<stop  offset="1" style="stop-color:#C2C7C9"/>
	</linearGradient>
	<path fill="url(#SVGID_14_)" d="M162.926,74.129h25.5v30.75h-25.5c-2.25,0-4.547-2.285-4.547-5.02l0.047-20.48
		c0-3,2.152-5.25,4.859-5.25H162.926z"/>
	
		<linearGradient id="SVGID_15_" gradientUnits="userSpaceOnUse" x1="222.1934" y1="201.3047" x2="222.1934" y2="160.3047" gradientTransform="matrix(0.75 0 0 -0.75 6.7572 276.0646)">
		<stop  offset="0" style="stop-color:#BAC0C1"/>
		<stop  offset="0.15" style="stop-color:#F4FAFC"/>
		<stop  offset="0.25" style="stop-color:#F8FCFD"/>
		<stop  offset="0.52" style="stop-color:#D5DBDD"/>
		<stop  offset="0.69" style="stop-color:#BDC3C4"/>
		<stop  offset="0.8" style="stop-color:#B3B8B9"/>
		<stop  offset="0.97" style="stop-color:#A9AEAF"/>
		<stop  offset="1" style="stop-color:#C2C7C9"/>
	</linearGradient>
	<path fill="url(#SVGID_15_)" d="M162.926,125.086h25.5v30.75h-25.5c-2.25,0-4.547-2.285-4.547-5.02l0.047-20.48
		c0-3,2.152-5.25,4.859-5.25H162.926z"/>
	<path fill="#90999C" d="M176.539,115.082c0-60,47.871-108,106.926-108c58.824,0,106.925,48.293,106.925,107.863
		c-0.102,59.387-47.871,107.867-106.925,107.867c-58.926,0.27-106.926-48.293-106.926-107.867V115.082z"/>
	
		<linearGradient id="SVGID_16_" gradientUnits="userSpaceOnUse" x1="476.9136" y1="62.751" x2="202.2261" y2="62.751" gradientTransform="matrix(0.75 0 0 -0.75 28.787 162.0079)">
		<stop  offset="0" style="stop-color:#BAC0C1"/>
		<stop  offset="0.15" style="stop-color:#F4FAFC"/>
		<stop  offset="0.25" style="stop-color:#F8FCFD"/>
		<stop  offset="0.52" style="stop-color:#D5DBDD"/>
		<stop  offset="0.69" style="stop-color:#BDC3C4"/>
		<stop  offset="0.8" style="stop-color:#B3B8B9"/>
		<stop  offset="0.97" style="stop-color:#A9AEAF"/>
		<stop  offset="1" style="stop-color:#C2C7C9"/>
	</linearGradient>
	<path fill="url(#SVGID_16_)" d="M180.457,115.281c0-57.75,46.117-104.25,103.008-104.25c56.742,0,103.007,46.523,103.007,103.914
		c0.234,57.336-46.117,103.914-103.007,103.914c-57.258-0.078-103.008-46.523-103.008-103.914V115.281z"/>
	<path d="M214.016,114.633c0-38.25,31.094-69.75,69.449-69.75c38.55,0,69.449,31.367,69.449,70.063
		c-0.148,38.688-31.094,70.059-69.449,70.059c-38.699,0.129-69.449-31.367-69.449-70.059V114.633z"/>
	<path fill="#0E0D0D" d="M218.609,119.41c0-36,29.035-65.25,64.855-65.25c35.644,0,64.855,29.293,64.855,65.426
		c0.039,35.824-29.039,65.426-64.855,65.426c-35.605-0.352-64.855-29.293-64.855-65.426V119.41z"/>
	<path fill="#27342C" d="M244.957,83.402h72.75v73.5h-72.75V83.402z"/>
	<path fill="#4C5444" d="M248.195,86.668h66.75v66.75h-66.75V86.668z"/>
	<path fill="#FFFFFF" fill-opacity="0.2196" d="M235.277,64.445c27-27,71.14-27.059,98.265,0.301
		c26.984,27.449-3.84,3.789-50.355,47.176c-36.66,37.273-20.773,79.297-47.895,51.934c-27.016-27.41-27.09-71.75,0.016-99.094
		L235.277,64.445z"/>
</g>
</svg>
