<?xml version="1.0" encoding="utf-8"?>
<!-- Generator: Adobe Illustrator 16.0.0, SVG Export Plug-In . SVG Version: 6.00 Build 0)  -->
<!DOCTYPE svg PUBLIC "-//W3C//DTD SVG 1.1//EN" "http://www.w3.org/Graphics/SVG/1.1/DTD/svg11.dtd">
<svg preserveAspectRatio="none" version="1.1" id="图层_1" xmlns="http://www.w3.org/2000/svg" xmlns:xlink="http://www.w3.org/1999/xlink" x="0px" y="0px"
	 width="103.983px" height="141.719px" viewBox="18.849 0.184 103.983 141.719"
	 enable-background="new 18.849 0.184 103.983 141.719" xml:space="preserve">
<g id="surface196">
	
		<linearGradient id="SVGID_1_" gradientUnits="userSpaceOnUse" x1="333.5908" y1="-294.7583" x2="333.5908" y2="-345.7583" gradientTransform="matrix(0.75 0 0 -0.75 -172.7366 -126.7244)">
		<stop  offset="0" style="stop-color:#BAC0C1"/>
		<stop  offset="0.15" style="stop-color:#F4FAFC"/>
		<stop  offset="0.25" style="stop-color:#F8FCFD"/>
		<stop  offset="0.44" style="stop-color:#D5DBDD"/>
		<stop  offset="0.6" style="stop-color:#BDC3C4"/>
		<stop  offset="0.8" style="stop-color:#A0A4A6"/>
		<stop  offset="0.97" style="stop-color:#929697"/>
		<stop  offset="1" style="stop-color:#C2C7C9"/>
	</linearGradient>
	<path fill="url(#SVGID_1_)" d="M32.082,94.344h90.75v38.25h-90.75V94.344z"/>
	
		<linearGradient id="SVGID_2_" gradientUnits="userSpaceOnUse" x1="347.0898" y1="-330.2598" x2="273.0898" y2="-330.2598" gradientTransform="matrix(0.75 0 0 -0.75 -155.0793 -213.1492)">
		<stop  offset="0" style="stop-color:#B5B5B5"/>
		<stop  offset="0.03" style="stop-color:#FFFFFF"/>
		<stop  offset="0.08" style="stop-color:#EBEBEB"/>
		<stop  offset="0.64" style="stop-color:#E7E7E7"/>
		<stop  offset="0.95" style="stop-color:#E2E2E2"/>
		<stop  offset="1" style="stop-color:#A8A8A8"/>
	</linearGradient>
	<path fill="url(#SVGID_2_)" d="M50.488,7.922h54c0.75,0,0.73,0.355,0.73,0.793l0.02,51.707c0,0-0.293,0.547-0.629,0.547
		l-54.121,0.203c-0.75,0-0.75-0.559-0.75-1v-51.5c0-0.75,0.273-0.75,0.609-0.75H50.488z"/>
	<path fill="#B4B5B5" d="M52.508,10.852h50.25c0,0,0.441,0.352,0.441,0.785l0.309,45.715c0,0-0.578,0.688-0.91,0.688l-50.09,0.063
		c-0.75,0-0.75-0.414-0.75-0.852V11.602c0-0.75,0.27-0.75,0.602-0.75H52.508z"/>
	<path fill="#E5EAEB" d="M53.363,13.277h48v42h-48V13.277z"/>
	
		<linearGradient id="SVGID_3_" gradientUnits="userSpaceOnUse" x1="290.0928" y1="-319.3125" x2="273.0918" y2="-319.3125" gradientTransform="matrix(0.75 0 0 -0.75 -133.8665 -160.3669)">
		<stop  offset="0" style="stop-color:#BAC0C1"/>
		<stop  offset="0.15" style="stop-color:#F4FAFC"/>
		<stop  offset="0.25" style="stop-color:#F8FCFD"/>
		<stop  offset="0.44" style="stop-color:#D5DBDD"/>
		<stop  offset="0.6" style="stop-color:#BDC3C4"/>
		<stop  offset="0.8" style="stop-color:#A0A4A6"/>
		<stop  offset="0.97" style="stop-color:#929697"/>
		<stop  offset="1" style="stop-color:#C2C7C9"/>
	</linearGradient>
	<path fill="url(#SVGID_3_)" d="M70.953,60.703h12.75v34.5c0,0,0.191,2.332-6.133,2.332c-6.617-0.082-6.617-2.234-6.617-2.234
		V60.703z"/>
	
		<linearGradient id="SVGID_4_" gradientUnits="userSpaceOnUse" x1="276.79" y1="-294.7593" x2="276.79" y2="-369.7593" gradientTransform="matrix(0.75 0 0 -0.75 -165.8958 -135.4167)">
		<stop  offset="0" style="stop-color:#BAC0C1"/>
		<stop  offset="0.15" style="stop-color:#F4FAFC"/>
		<stop  offset="0.25" style="stop-color:#F8FCFD"/>
		<stop  offset="0.44" style="stop-color:#D5DBDD"/>
		<stop  offset="0.6" style="stop-color:#BDC3C4"/>
		<stop  offset="0.8" style="stop-color:#A0A4A6"/>
		<stop  offset="0.97" style="stop-color:#929697"/>
		<stop  offset="1" style="stop-color:#C2C7C9"/>
	</linearGradient>
	<path fill="url(#SVGID_4_)" d="M40.422,85.652h3c0.75,0,1.055,0.695,1.055,1.574l-0.305,52.426c0,1.5-0.238,1.887-0.91,1.887
		l-2.84,0.363c-0.75,0-1.504-1.074-1.504-1.953l0.004-52.797c0-0.75,0.539-1.5,1.211-1.5H40.422z"/>
	
		<linearGradient id="SVGID_5_" gradientUnits="userSpaceOnUse" x1="276.7881" y1="-294.7593" x2="276.7881" y2="-369.7593" gradientTransform="matrix(0.75 0 0 -0.75 -94.3435 -135.4167)">
		<stop  offset="0" style="stop-color:#BAC0C1"/>
		<stop  offset="0.15" style="stop-color:#F4FAFC"/>
		<stop  offset="0.25" style="stop-color:#F8FCFD"/>
		<stop  offset="0.44" style="stop-color:#D5DBDD"/>
		<stop  offset="0.6" style="stop-color:#BDC3C4"/>
		<stop  offset="0.8" style="stop-color:#A0A4A6"/>
		<stop  offset="0.97" style="stop-color:#929697"/>
		<stop  offset="1" style="stop-color:#C2C7C9"/>
	</linearGradient>
	<path fill="url(#SVGID_5_)" d="M111.977,85.652h3c0.75,0,1.051,0.695,1.051,1.574l-0.301,52.426c0,1.5-0.242,1.887-0.914,1.887
		l-2.836,0.363c-0.75,0-1.508-1.074-1.508-1.953l0.008-52.797c0-0.75,0.535-1.5,1.207-1.5H111.977z"/>
	
		<linearGradient id="SVGID_6_" gradientUnits="userSpaceOnUse" x1="274.0898" y1="-294.7603" x2="274.0898" y2="-345.7603" gradientTransform="matrix(0.75 0 0 -0.75 -160.3293 -126.6794)">
		<stop  offset="0" style="stop-color:#939798"/>
		<stop  offset="0.15" style="stop-color:#C5CACB"/>
		<stop  offset="0.25" style="stop-color:#DFE2E2"/>
		<stop  offset="0.44" style="stop-color:#A8ADAE"/>
		<stop  offset="0.6" style="stop-color:#959A9B"/>
		<stop  offset="0.8" style="stop-color:#7D8182"/>
		<stop  offset="0.97" style="stop-color:#727676"/>
		<stop  offset="1" style="stop-color:#999D9E"/>
	</linearGradient>
	<path fill="url(#SVGID_6_)" d="M44.488,94.391h1.5v38.25h-1.5V94.391z"/>
	
		<linearGradient id="SVGID_7_" gradientUnits="userSpaceOnUse" x1="274.0889" y1="-294.7603" x2="274.0889" y2="-345.7603" gradientTransform="matrix(0.75 0 0 -0.75 -95.614 -126.6794)">
		<stop  offset="0" style="stop-color:#939798"/>
		<stop  offset="0.15" style="stop-color:#C5CACB"/>
		<stop  offset="0.25" style="stop-color:#DFE2E2"/>
		<stop  offset="0.44" style="stop-color:#A8ADAE"/>
		<stop  offset="0.6" style="stop-color:#959A9B"/>
		<stop  offset="0.8" style="stop-color:#7D8182"/>
		<stop  offset="0.97" style="stop-color:#727676"/>
		<stop  offset="1" style="stop-color:#999D9E"/>
	</linearGradient>
	<path fill="url(#SVGID_7_)" d="M109.203,94.391h1.5v38.25h-1.5V94.391z"/>
	
		<linearGradient id="SVGID_8_" gradientUnits="userSpaceOnUse" x1="353.0898" y1="-301.2559" x2="273.0898" y2="-301.2559" gradientTransform="matrix(0.75 0 0 -0.75 -157.4983 -191.533)">
		<stop  offset="0" style="stop-color:#A1ABAD"/>
		<stop  offset="0.03" style="stop-color:#EAF4F6"/>
		<stop  offset="0.08" style="stop-color:#D2DEE1"/>
		<stop  offset="0.64" style="stop-color:#CFDADD"/>
		<stop  offset="0.95" style="stop-color:#CAD5D8"/>
		<stop  offset="1" style="stop-color:#959EA0"/>
	</linearGradient>
	<path fill="url(#SVGID_8_)" d="M47.32,29.535h60v9.75h-60V29.535z"/>
	
		<linearGradient id="SVGID_9_" gradientUnits="userSpaceOnUse" x1="281.0908" y1="-297.2588" x2="273.0908" y2="-297.2588" gradientTransform="matrix(0.75 0 0 -0.75 -149.092 -217.1013)">
		<stop  offset="0" style="stop-color:#BAC0C1"/>
		<stop  offset="0.15" style="stop-color:#F4FAFC"/>
		<stop  offset="0.25" style="stop-color:#F8FCFD"/>
		<stop  offset="0.44" style="stop-color:#D5DBDD"/>
		<stop  offset="0.6" style="stop-color:#BDC3C4"/>
		<stop  offset="0.8" style="stop-color:#A0A4A6"/>
		<stop  offset="0.97" style="stop-color:#929697"/>
		<stop  offset="1" style="stop-color:#C2C7C9"/>
	</linearGradient>
	<path fill="url(#SVGID_9_)" d="M55.727,3.969h6v3.75h-6V3.969z"/>
	
		<linearGradient id="SVGID_10_" gradientUnits="userSpaceOnUse" x1="277.0918" y1="-297.2588" x2="273.0918" y2="-297.2588" gradientTransform="matrix(0.75 0 0 -0.75 -147.5154 -220.8865)">
		<stop  offset="0" style="stop-color:#BAC0C1"/>
		<stop  offset="0.15" style="stop-color:#F4FAFC"/>
		<stop  offset="0.25" style="stop-color:#F8FCFD"/>
		<stop  offset="0.44" style="stop-color:#D5DBDD"/>
		<stop  offset="0.6" style="stop-color:#BDC3C4"/>
		<stop  offset="0.8" style="stop-color:#A0A4A6"/>
		<stop  offset="0.97" style="stop-color:#929697"/>
		<stop  offset="1" style="stop-color:#C2C7C9"/>
	</linearGradient>
	<path fill="url(#SVGID_10_)" d="M57.305,0.184h3v3.75h-3V0.184z"/>
	
		<linearGradient id="SVGID_11_" gradientUnits="userSpaceOnUse" x1="274.5908" y1="-294.7593" x2="274.5908" y2="-307.7593" gradientTransform="matrix(0.75 0 0 -0.75 -157.4983 -175.2732)">
		<stop  offset="0" style="stop-color:#BAC0C1"/>
		<stop  offset="0.15" style="stop-color:#F4FAFC"/>
		<stop  offset="0.25" style="stop-color:#F8FCFD"/>
		<stop  offset="0.44" style="stop-color:#D5DBDD"/>
		<stop  offset="0.6" style="stop-color:#BDC3C4"/>
		<stop  offset="0.8" style="stop-color:#A0A4A6"/>
		<stop  offset="0.97" style="stop-color:#929697"/>
		<stop  offset="1" style="stop-color:#C2C7C9"/>
	</linearGradient>
	<path fill="url(#SVGID_11_)" d="M47.32,45.797h2.25v9.75h-2.25V45.797z"/>
	
		<linearGradient id="SVGID_12_" gradientUnits="userSpaceOnUse" x1="290.0908" y1="-294.7554" x2="290.0908" y2="-298.7554" gradientTransform="matrix(0.75 0 0 -0.75 -182.4128 -172.0359)">
		<stop  offset="0" style="stop-color:#BAC0C1"/>
		<stop  offset="0.15" style="stop-color:#F4FAFC"/>
		<stop  offset="0.25" style="stop-color:#F8FCFD"/>
		<stop  offset="0.44" style="stop-color:#D5DBDD"/>
		<stop  offset="0.6" style="stop-color:#BDC3C4"/>
		<stop  offset="0.8" style="stop-color:#A0A4A6"/>
		<stop  offset="0.97" style="stop-color:#929697"/>
		<stop  offset="1" style="stop-color:#C2C7C9"/>
	</linearGradient>
	<path fill="url(#SVGID_12_)" d="M22.406,49.031h25.5v3h-25.5V49.031z"/>
	
		<linearGradient id="SVGID_13_" gradientUnits="userSpaceOnUse" x1="-473.2612" y1="473.0918" x2="-473.2612" y2="470.0918" gradientTransform="matrix(0 -0.75 0.75 0 -333.4045 -285.0007)">
		<stop  offset="0" style="stop-color:#BAC0C1"/>
		<stop  offset="0.15" style="stop-color:#F4FAFC"/>
		<stop  offset="0.25" style="stop-color:#F8FCFD"/>
		<stop  offset="0.44" style="stop-color:#D5DBDD"/>
		<stop  offset="0.6" style="stop-color:#BDC3C4"/>
		<stop  offset="0.8" style="stop-color:#A0A4A6"/>
		<stop  offset="0.97" style="stop-color:#929697"/>
		<stop  offset="1" style="stop-color:#C2C7C9"/>
	</linearGradient>
	<path fill="url(#SVGID_13_)" d="M21.414,86.07V53.82h-2.25v32.25H21.414z"/>
	
		<linearGradient id="SVGID_14_" gradientUnits="userSpaceOnUse" x1="-331.3511" y1="-300.041" x2="-324.7545" y2="-296.2325" gradientTransform="matrix(-0.75 0 0 -0.75 -225.3562 -172.0359)">
		<stop  offset="0" style="stop-color:#C7C7C7"/>
		<stop  offset="0.15" style="stop-color:#FFFFFF"/>
		<stop  offset="0.25" style="stop-color:#FFFFFF"/>
		<stop  offset="0.52" style="stop-color:#DFDFDF"/>
		<stop  offset="0.69" style="stop-color:#C7C7C7"/>
		<stop  offset="0.8" style="stop-color:#BCBCBC"/>
		<stop  offset="0.92" style="stop-color:#B1B1B1"/>
	</linearGradient>
	<path fill="url(#SVGID_14_)" d="M22.414,49.031c0,0-1.898,0.066-2.805,1.457c-0.945,1.543-0.742,3.563-0.742,3.563l2.797,0.23
		c0,0-0.328-1.496,0.75-2.004V49.031z"/>
</g>
</svg>
