<?xml version="1.0" encoding="utf-8"?>
<!-- Generator: Adobe Illustrator 16.0.0, SVG Export Plug-In . SVG Version: 6.00 Build 0)  -->
<!DOCTYPE svg PUBLIC "-//W3C//DTD SVG 1.1//EN" "http://www.w3.org/Graphics/SVG/1.1/DTD/svg11.dtd">
<svg preserveAspectRatio="none" version="1.1" id="图层_1" xmlns="http://www.w3.org/2000/svg" xmlns:xlink="http://www.w3.org/1999/xlink" x="0px" y="0px"
	 width="131.414px" height="141.816px" viewBox="5.305 0.102 131.414 141.816" enable-background="new 5.305 0.102 131.414 141.816"
	 xml:space="preserve">
<g id="surface201">
	
		<linearGradient id="SVGID_1_" gradientUnits="userSpaceOnUse" x1="349.5928" y1="-294.7573" x2="349.5928" y2="-345.7573" gradientTransform="matrix(0.75 0 0 -0.75 -182.8508 -126.697)">
		<stop  offset="0" style="stop-color:#BAC0C1"/>
		<stop  offset="0.15" style="stop-color:#F4FAFC"/>
		<stop  offset="0.25" style="stop-color:#F8FCFD"/>
		<stop  offset="0.44" style="stop-color:#D5DBDD"/>
		<stop  offset="0.6" style="stop-color:#BDC3C4"/>
		<stop  offset="0.8" style="stop-color:#A0A4A6"/>
		<stop  offset="0.97" style="stop-color:#929697"/>
		<stop  offset="1" style="stop-color:#C2C7C9"/>
	</linearGradient>
	<path fill="url(#SVGID_1_)" d="M21.969,94.371h114.75v38.25H21.969V94.371z"/>
	
		<linearGradient id="SVGID_2_" gradientUnits="userSpaceOnUse" x1="366.3516" y1="-330.2568" x2="273.0918" y2="-330.2568" gradientTransform="matrix(0.75 0 0 -0.75 -160.5886 -213.2214)">
		<stop  offset="0" style="stop-color:#B5B5B5"/>
		<stop  offset="0.03" style="stop-color:#FFFFFF"/>
		<stop  offset="0.08" style="stop-color:#EBEBEB"/>
		<stop  offset="0.64" style="stop-color:#E7E7E7"/>
		<stop  offset="0.95" style="stop-color:#E2E2E2"/>
		<stop  offset="1" style="stop-color:#A8A8A8"/>
	</linearGradient>
	<path fill="url(#SVGID_2_)" d="M44.98,7.848h68.25c0.75,0,0.945,0.355,0.945,0.797l-0.195,51.703c0,0-0.148,0.609-0.57,0.609
		l-68.43,0.141c-0.75,0-0.75-0.496-0.75-0.938V8.598c0-0.75,0.344-0.75,0.766-0.75H44.98z"/>
	<path fill="#B4B5B5" d="M47.523,10.781h63c0.75,0,1.105,0.352,1.105,0.789l-0.355,45.711c0,0.75,0.016,0.742-0.402,0.742
		l-63.348,0.008c-0.75,0-0.75-0.359-0.75-0.797V11.531c0-0.75,0.34-0.75,0.762-0.75H47.523z"/>
	<path fill="#E5EAEB" d="M48.797,13.211h60.75v42.75h-60.75V13.211z"/>
	
		<linearGradient id="SVGID_3_" gradientUnits="userSpaceOnUse" x1="295.0889" y1="-319.3389" x2="273.0889" y2="-319.3389" gradientTransform="matrix(0.75 0 0 -0.75 -133.8445 -160.3787)">
		<stop  offset="0" style="stop-color:#BAC0C1"/>
		<stop  offset="0.15" style="stop-color:#F4FAFC"/>
		<stop  offset="0.25" style="stop-color:#F8FCFD"/>
		<stop  offset="0.44" style="stop-color:#D5DBDD"/>
		<stop  offset="0.6" style="stop-color:#BDC3C4"/>
		<stop  offset="0.8" style="stop-color:#A0A4A6"/>
		<stop  offset="0.97" style="stop-color:#929697"/>
		<stop  offset="1" style="stop-color:#C2C7C9"/>
	</linearGradient>
	<path fill="url(#SVGID_3_)" d="M70.973,60.691h16.5v34.5c0,0-0.18,2.371-8.152,2.371c-8.348-0.121-8.348-2.234-8.348-2.234V60.691z
		"/>
	
		<linearGradient id="SVGID_4_" gradientUnits="userSpaceOnUse" x1="277.7539" y1="-294.7573" x2="277.7539" y2="-369.7573" gradientTransform="matrix(0.75 0 0 -0.75 -174.2263 -135.4001)">
		<stop  offset="0" style="stop-color:#BAC0C1"/>
		<stop  offset="0.15" style="stop-color:#F4FAFC"/>
		<stop  offset="0.25" style="stop-color:#F8FCFD"/>
		<stop  offset="0.44" style="stop-color:#D5DBDD"/>
		<stop  offset="0.6" style="stop-color:#BDC3C4"/>
		<stop  offset="0.8" style="stop-color:#A0A4A6"/>
		<stop  offset="0.97" style="stop-color:#929697"/>
		<stop  offset="1" style="stop-color:#C2C7C9"/>
	</linearGradient>
	<path fill="url(#SVGID_4_)" d="M32.094,85.668h3.75c0.75,0,1.75,0.699,1.75,1.578l-0.25,52.422c0,1.5-0.434,1.953-1.281,1.953
		l-3.969,0.297c-0.75,0-1.508-1.008-1.508-1.887l0.008-52.863c0-0.75,0.676-1.5,1.523-1.5H32.094z"/>
	
		<linearGradient id="SVGID_5_" gradientUnits="userSpaceOnUse" x1="277.7549" y1="-294.7573" x2="277.7549" y2="-369.7573" gradientTransform="matrix(0.75 0 0 -0.75 -84.0139 -135.4001)">
		<stop  offset="0" style="stop-color:#BAC0C1"/>
		<stop  offset="0.15" style="stop-color:#F4FAFC"/>
		<stop  offset="0.25" style="stop-color:#F8FCFD"/>
		<stop  offset="0.44" style="stop-color:#D5DBDD"/>
		<stop  offset="0.6" style="stop-color:#BDC3C4"/>
		<stop  offset="0.8" style="stop-color:#A0A4A6"/>
		<stop  offset="0.97" style="stop-color:#929697"/>
		<stop  offset="1" style="stop-color:#C2C7C9"/>
	</linearGradient>
	<path fill="url(#SVGID_5_)" d="M122.305,85.668h3.75c0.75,0,1.754,0.699,1.754,1.578l-0.254,52.422c0,1.5-0.434,1.953-1.281,1.953
		l-3.969,0.297c-0.75,0-1.508-1.008-1.508-1.887l0.008-52.863c0-0.75,0.68-1.5,1.523-1.5H122.305z"/>
	
		<linearGradient id="SVGID_6_" gradientUnits="userSpaceOnUse" x1="274.0889" y1="-294.7593" x2="274.0889" y2="-345.7593" gradientTransform="matrix(0.75 0 0 -0.75 -167.2078 -126.6521)">
		<stop  offset="0" style="stop-color:#939798"/>
		<stop  offset="0.15" style="stop-color:#C5CACB"/>
		<stop  offset="0.25" style="stop-color:#DFE2E2"/>
		<stop  offset="0.44" style="stop-color:#A8ADAE"/>
		<stop  offset="0.6" style="stop-color:#959A9B"/>
		<stop  offset="0.8" style="stop-color:#7D8182"/>
		<stop  offset="0.97" style="stop-color:#727676"/>
		<stop  offset="1" style="stop-color:#999D9E"/>
	</linearGradient>
	<path fill="url(#SVGID_6_)" d="M37.609,94.418h1.5v38.25h-1.5V94.418z"/>
	
		<linearGradient id="SVGID_7_" gradientUnits="userSpaceOnUse" x1="274.0908" y1="-294.7593" x2="274.0908" y2="-345.7593" gradientTransform="matrix(0.75 0 0 -0.75 -85.616 -126.6521)">
		<stop  offset="0" style="stop-color:#939798"/>
		<stop  offset="0.15" style="stop-color:#C5CACB"/>
		<stop  offset="0.25" style="stop-color:#DFE2E2"/>
		<stop  offset="0.44" style="stop-color:#A8ADAE"/>
		<stop  offset="0.6" style="stop-color:#959A9B"/>
		<stop  offset="0.8" style="stop-color:#7D8182"/>
		<stop  offset="0.97" style="stop-color:#727676"/>
		<stop  offset="1" style="stop-color:#999D9E"/>
	</linearGradient>
	<path fill="url(#SVGID_7_)" d="M119.203,94.418h1.5v38.25h-1.5V94.418z"/>
	
		<linearGradient id="SVGID_8_" gradientUnits="userSpaceOnUse" x1="374.0898" y1="-301.2559" x2="273.0898" y2="-301.2559" gradientTransform="matrix(0.75 0 0 -0.75 -163.6384 -191.5798)">
		<stop  offset="0" style="stop-color:#A1ABAD"/>
		<stop  offset="0.03" style="stop-color:#EAF4F6"/>
		<stop  offset="0.08" style="stop-color:#D2DEE1"/>
		<stop  offset="0.64" style="stop-color:#CFDADD"/>
		<stop  offset="0.95" style="stop-color:#CAD5D8"/>
		<stop  offset="1" style="stop-color:#959EA0"/>
	</linearGradient>
	<path fill="url(#SVGID_8_)" d="M41.18,29.488h75.75v9.75H41.18V29.488z"/>
	
		<linearGradient id="SVGID_9_" gradientUnits="userSpaceOnUse" x1="284.0898" y1="-297.2559" x2="273.0898" y2="-297.2559" gradientTransform="matrix(0.75 0 0 -0.75 -153.0403 -217.1775)">
		<stop  offset="0" style="stop-color:#BAC0C1"/>
		<stop  offset="0.15" style="stop-color:#F4FAFC"/>
		<stop  offset="0.25" style="stop-color:#F8FCFD"/>
		<stop  offset="0.44" style="stop-color:#D5DBDD"/>
		<stop  offset="0.6" style="stop-color:#BDC3C4"/>
		<stop  offset="0.8" style="stop-color:#A0A4A6"/>
		<stop  offset="0.97" style="stop-color:#929697"/>
		<stop  offset="1" style="stop-color:#C2C7C9"/>
	</linearGradient>
	<path fill="url(#SVGID_9_)" d="M51.777,3.891h8.25v3.75h-8.25V3.891z"/>
	
		<linearGradient id="SVGID_10_" gradientUnits="userSpaceOnUse" x1="278.0889" y1="-297.2568" x2="273.0889" y2="-297.2568" gradientTransform="matrix(0.75 0 0 -0.75 -151.052 -220.9675)">
		<stop  offset="0" style="stop-color:#BAC0C1"/>
		<stop  offset="0.15" style="stop-color:#F4FAFC"/>
		<stop  offset="0.25" style="stop-color:#F8FCFD"/>
		<stop  offset="0.44" style="stop-color:#D5DBDD"/>
		<stop  offset="0.6" style="stop-color:#BDC3C4"/>
		<stop  offset="0.8" style="stop-color:#A0A4A6"/>
		<stop  offset="0.97" style="stop-color:#929697"/>
		<stop  offset="1" style="stop-color:#C2C7C9"/>
	</linearGradient>
	<path fill="url(#SVGID_10_)" d="M53.766,0.102h3.75v3.75h-3.75V0.102z"/>
	
		<linearGradient id="SVGID_11_" gradientUnits="userSpaceOnUse" x1="275.0908" y1="-294.7573" x2="275.0908" y2="-307.7573" gradientTransform="matrix(0.75 0 0 -0.75 -163.6389 -175.3025)">
		<stop  offset="0" style="stop-color:#BAC0C1"/>
		<stop  offset="0.15" style="stop-color:#F4FAFC"/>
		<stop  offset="0.25" style="stop-color:#F8FCFD"/>
		<stop  offset="0.44" style="stop-color:#D5DBDD"/>
		<stop  offset="0.6" style="stop-color:#BDC3C4"/>
		<stop  offset="0.8" style="stop-color:#A0A4A6"/>
		<stop  offset="0.97" style="stop-color:#929697"/>
		<stop  offset="1" style="stop-color:#C2C7C9"/>
	</linearGradient>
	<path fill="url(#SVGID_11_)" d="M41.18,45.766h3v9.75h-3V45.766z"/>
	
		<linearGradient id="SVGID_12_" gradientUnits="userSpaceOnUse" x1="294.0928" y1="-294.7593" x2="294.0928" y2="-298.7593" gradientTransform="matrix(0.75 0 0 -0.75 -195.0505 -172.0613)">
		<stop  offset="0" style="stop-color:#BAC0C1"/>
		<stop  offset="0.15" style="stop-color:#F4FAFC"/>
		<stop  offset="0.25" style="stop-color:#F8FCFD"/>
		<stop  offset="0.44" style="stop-color:#D5DBDD"/>
		<stop  offset="0.6" style="stop-color:#BDC3C4"/>
		<stop  offset="0.8" style="stop-color:#A0A4A6"/>
		<stop  offset="0.97" style="stop-color:#929697"/>
		<stop  offset="1" style="stop-color:#C2C7C9"/>
	</linearGradient>
	<path fill="url(#SVGID_12_)" d="M9.77,49.008h31.5v3H9.77V49.008z"/>
	
		<linearGradient id="SVGID_13_" gradientUnits="userSpaceOnUse" x1="-473.2583" y1="473.0928" x2="-473.2583" y2="469.0928" gradientTransform="matrix(0 -0.75 0.75 0 -346.3005 -284.9832)">
		<stop  offset="0" style="stop-color:#BAC0C1"/>
		<stop  offset="0.15" style="stop-color:#F4FAFC"/>
		<stop  offset="0.25" style="stop-color:#F8FCFD"/>
		<stop  offset="0.44" style="stop-color:#D5DBDD"/>
		<stop  offset="0.6" style="stop-color:#BDC3C4"/>
		<stop  offset="0.8" style="stop-color:#A0A4A6"/>
		<stop  offset="0.97" style="stop-color:#929697"/>
		<stop  offset="1" style="stop-color:#C2C7C9"/>
	</linearGradient>
	<path fill="url(#SVGID_13_)" d="M8.52,86.086v-32.25h-3v32.25H8.52z"/>
	
		<linearGradient id="SVGID_14_" gradientUnits="userSpaceOnUse" x1="-331.1958" y1="-300.3125" x2="-323.6894" y2="-295.9787" gradientTransform="matrix(-0.75 0 0 -0.75 -237.9919 -172.0613)">
		<stop  offset="0" style="stop-color:#C7C7C7"/>
		<stop  offset="0.15" style="stop-color:#FFFFFF"/>
		<stop  offset="0.25" style="stop-color:#FFFFFF"/>
		<stop  offset="0.52" style="stop-color:#DFDFDF"/>
		<stop  offset="0.69" style="stop-color:#C7C7C7"/>
		<stop  offset="0.8" style="stop-color:#BCBCBC"/>
		<stop  offset="0.92" style="stop-color:#B1B1B1"/>
	</linearGradient>
	<path fill="url(#SVGID_14_)" d="M9.777,49.008c0,0-2.395,0.066-3.535,1.457c-0.965,1.543-0.938,3.566-0.938,3.566l2.973,0.227
		c0,0,0.145-1.492,1.5-2.004V49.008z"/>
</g>
</svg>
