<?xml version="1.0" encoding="utf-8"?>
<!-- Generator: Adobe Illustrator 16.0.0, SVG Export Plug-In . SVG Version: 6.00 Build 0)  -->
<!DOCTYPE svg PUBLIC "-//W3C//DTD SVG 1.1//EN" "http://www.w3.org/Graphics/SVG/1.1/DTD/svg11.dtd">
<svg preserveAspectRatio="none" version="1.1" id="图层_1" xmlns="http://www.w3.org/2000/svg" xmlns:xlink="http://www.w3.org/1999/xlink" x="0px" y="0px"
	 width="100.492px" height="142.078px" viewBox="18.727 -0.012 100.492 142.078"
	 enable-background="new 18.727 -0.012 100.492 142.078" xml:space="preserve">
<g id="surface226">
	
		<linearGradient id="SVGID_1_" gradientUnits="userSpaceOnUse" x1="329.5889" y1="-294.7603" x2="329.5889" y2="-339.7603" gradientTransform="matrix(0.75 0 0 -0.75 -178.0637 -118.1013)">
		<stop  offset="0" style="stop-color:#68AEAE"/>
		<stop  offset="0.15" style="stop-color:#95E5E5"/>
		<stop  offset="0.25" style="stop-color:#CAF0F0"/>
		<stop  offset="0.44" style="stop-color:#78C7C7"/>
		<stop  offset="0.6" style="stop-color:#6AB1B1"/>
		<stop  offset="0.8" style="stop-color:#599595"/>
		<stop  offset="0.97" style="stop-color:#518888"/>
	</linearGradient>
	<path fill="url(#SVGID_1_)" d="M26.754,102.969h84.75v33.75h-84.75V102.969z"/>
	
		<linearGradient id="SVGID_2_" gradientUnits="userSpaceOnUse" x1="292.5889" y1="-294.7583" x2="292.5889" y2="-342.7583" gradientTransform="matrix(0.75 0 0 -0.75 -150.2976 -120.3376)">
		<stop  offset="0" style="stop-color:#3B9E9E"/>
		<stop  offset="0.15" style="stop-color:#67D2D2"/>
		<stop  offset="0.25" style="stop-color:#BBE6E6"/>
		<stop  offset="0.44" style="stop-color:#45B5B5"/>
		<stop  offset="0.6" style="stop-color:#3CA1A1"/>
		<stop  offset="0.8" style="stop-color:#318787"/>
		<stop  offset="0.97" style="stop-color:#2C7B7B"/>
	</linearGradient>
	<path fill="url(#SVGID_2_)" d="M83.77,100.73v35.25c0,0-0.77,0.613-1.363,0.613L55.27,136.73c0,0-0.75-0.523-0.75-1.004V100.73
		H83.77z"/>
	
		<linearGradient id="SVGID_3_" gradientUnits="userSpaceOnUse" x1="290.5908" y1="-294.7583" x2="290.5908" y2="-342.7583" gradientTransform="matrix(0.75 0 0 -0.75 -149.0027 -120.3376)">
		<stop  offset="0" style="stop-color:#68AEAE"/>
		<stop  offset="0.15" style="stop-color:#95E5E5"/>
		<stop  offset="0.25" style="stop-color:#CAF0F0"/>
		<stop  offset="0.44" style="stop-color:#78C7C7"/>
		<stop  offset="0.6" style="stop-color:#6AB1B1"/>
		<stop  offset="0.8" style="stop-color:#599595"/>
		<stop  offset="0.97" style="stop-color:#518888"/>
	</linearGradient>
	<path fill="url(#SVGID_3_)" d="M82.066,100.73v35.25c0,0-0.32,0.613-0.859,0.613l-24.641,0.137c0,0-0.75-0.523-0.75-1.004V100.73
		H82.066z"/>
	
		<linearGradient id="SVGID_4_" gradientUnits="userSpaceOnUse" x1="278.6455" y1="-294.7593" x2="278.6455" y2="-353.7593" gradientTransform="matrix(0.75 0 0 -0.75 -186.092 -123.2537)">
		<stop  offset="0" style="stop-color:#68AEAE"/>
		<stop  offset="0.15" style="stop-color:#95E5E5"/>
		<stop  offset="0.25" style="stop-color:#CAF0F0"/>
		<stop  offset="0.44" style="stop-color:#78C7C7"/>
		<stop  offset="0.6" style="stop-color:#6AB1B1"/>
		<stop  offset="0.8" style="stop-color:#599595"/>
		<stop  offset="0.97" style="stop-color:#518888"/>
	</linearGradient>
	<path fill="url(#SVGID_4_)" d="M19.477,97.816h6.75c0.75,0,0.832,0.387,0.832,0.867l-0.082,41.883c0,0.75-0.355,1.18-0.895,1.18
		l-6.605,0.32c0,0-0.75-0.707-0.75-1.188V98.566c0,0,0.438-0.75,0.977-0.75H19.477z"/>
	
		<linearGradient id="SVGID_5_" gradientUnits="userSpaceOnUse" x1="278.6436" y1="-294.7593" x2="278.6436" y2="-353.7593" gradientTransform="matrix(0.75 0 0 -0.75 -93.9304 -123.2537)">
		<stop  offset="0" style="stop-color:#68AEAE"/>
		<stop  offset="0.15" style="stop-color:#95E5E5"/>
		<stop  offset="0.25" style="stop-color:#CAF0F0"/>
		<stop  offset="0.44" style="stop-color:#78C7C7"/>
		<stop  offset="0.6" style="stop-color:#6AB1B1"/>
		<stop  offset="0.8" style="stop-color:#599595"/>
		<stop  offset="0.97" style="stop-color:#518888"/>
	</linearGradient>
	<path fill="url(#SVGID_5_)" d="M111.637,97.816h6.75c0.75,0,0.832,0.387,0.832,0.867l-0.082,41.883c0,0.75-0.352,1.18-0.891,1.18
		l-6.609,0.32c0,0-0.75-0.707-0.75-1.188V98.566c0,0,0.438-0.75,0.977-0.75H111.637z"/>
	
		<linearGradient id="SVGID_6_" gradientUnits="userSpaceOnUse" x1="306.0908" y1="-361.7578" x2="273.0908" y2="-361.7578" gradientTransform="matrix(0.75 0 0 -0.75 -148.342 -221.0808)">
		<stop  offset="0" style="stop-color:#68AEAE"/>
		<stop  offset="0.15" style="stop-color:#95E5E5"/>
		<stop  offset="0.25" style="stop-color:#CAF0F0"/>
		<stop  offset="0.44" style="stop-color:#78C7C7"/>
		<stop  offset="0.6" style="stop-color:#6AB1B1"/>
		<stop  offset="0.8" style="stop-color:#599595"/>
		<stop  offset="0.97" style="stop-color:#518888"/>
	</linearGradient>
	<path fill="url(#SVGID_6_)" d="M56.477,100.488h24.75V8.238c0,0-0.059-8.25-12.117-8.25c-11.883,0-12.633,8.18-12.633,8.18V100.488
		z"/>
	
		<linearGradient id="SVGID_7_" gradientUnits="userSpaceOnUse" x1="315.0908" y1="-327.7588" x2="273.0908" y2="-327.7588" gradientTransform="matrix(0.75 0 0 -0.75 -151.5608 -174.5037)">
		<stop  offset="0" style="stop-color:#368688"/>
		<stop  offset="0.03" style="stop-color:#8CCDCF"/>
		<stop  offset="0.08" style="stop-color:#49AFB2"/>
		<stop  offset="0.64" style="stop-color:#48ACAF"/>
		<stop  offset="0.95" style="stop-color:#46A8AB"/>
		<stop  offset="1" style="stop-color:#317C7E"/>
	</linearGradient>
	<path fill="url(#SVGID_7_)" d="M54.758,46.566h28.5c0.75,0,1.484,0.473,1.484,1.094l0.016,46.906c0,0.75-0.586,1.359-1.281,1.359
		l-28.719,0.141c-0.75,0-1.5-0.66-1.5-1.277V47.316c0,0,0.551-0.75,1.242-0.75H54.758z"/>
	
		<linearGradient id="SVGID_8_" gradientUnits="userSpaceOnUse" x1="306.0908" y1="-295.7598" x2="273.0908" y2="-295.7598" gradientTransform="matrix(0.75 0 0 -0.75 -148.342 -177.7888)">
		<stop  offset="0" style="stop-color:#3B9E9E"/>
		<stop  offset="0.15" style="stop-color:#67D2D2"/>
		<stop  offset="0.25" style="stop-color:#BBE6E6"/>
		<stop  offset="0.44" style="stop-color:#45B5B5"/>
		<stop  offset="0.6" style="stop-color:#3CA1A1"/>
		<stop  offset="0.8" style="stop-color:#318787"/>
		<stop  offset="0.97" style="stop-color:#2C7B7B"/>
	</linearGradient>
	<path fill="url(#SVGID_8_)" d="M56.477,44.781h24.75v-1.5h-24.75V44.781z"/>
	
		<linearGradient id="SVGID_9_" gradientUnits="userSpaceOnUse" x1="306.0898" y1="-322.7559" x2="273.0898" y2="-322.7559" gradientTransform="matrix(0.75 0 0 -0.75 -148.2712 -170.6736)">
		<stop  offset="0" style="stop-color:#5C9F9F"/>
		<stop  offset="0.03" style="stop-color:#A7E7E7"/>
		<stop  offset="0.08" style="stop-color:#79CFCF"/>
		<stop  offset="0.64" style="stop-color:#77CCCC"/>
		<stop  offset="0.95" style="stop-color:#74C7C7"/>
		<stop  offset="1" style="stop-color:#559393"/>
	</linearGradient>
	<path fill="url(#SVGID_9_)" d="M56.547,50.395h24.75v42h-24.75V50.395z"/>
	
		<linearGradient id="SVGID_10_" gradientUnits="userSpaceOnUse" x1="306.0908" y1="-299.2559" x2="273.0908" y2="-299.2559" gradientTransform="matrix(0.75 0 0 -0.75 -148.342 -190.6775)">
		<stop  offset="0" style="stop-color:#3B9E9E"/>
		<stop  offset="0.15" style="stop-color:#67D2D2"/>
		<stop  offset="0.25" style="stop-color:#BBE6E6"/>
		<stop  offset="0.44" style="stop-color:#45B5B5"/>
		<stop  offset="0.6" style="stop-color:#3CA1A1"/>
		<stop  offset="0.8" style="stop-color:#318787"/>
		<stop  offset="0.97" style="stop-color:#2C7B7B"/>
	</linearGradient>
	<path fill="url(#SVGID_10_)" d="M56.477,37.141h24.75v-6.75h-24.75V37.141z"/>
	
		<linearGradient id="SVGID_11_" gradientUnits="userSpaceOnUse" x1="330.0898" y1="-297.8818" x2="273.0898" y2="-297.8818" gradientTransform="matrix(0.75 0 0 -0.75 -157.0178 -189.6482)">
		<stop  offset="0" style="stop-color:#68AEAE"/>
		<stop  offset="0.15" style="stop-color:#95E5E5"/>
		<stop  offset="0.25" style="stop-color:#CAF0F0"/>
		<stop  offset="0.44" style="stop-color:#78C7C7"/>
		<stop  offset="0.6" style="stop-color:#6AB1B1"/>
		<stop  offset="0.8" style="stop-color:#599595"/>
		<stop  offset="0.97" style="stop-color:#518888"/>
	</linearGradient>
	<path fill="url(#SVGID_11_)" d="M90.551,31.422v3.75c0,0.75-0.816,0.934-1.355,0.934l-40.645-0.184c0,0-0.75-0.203-0.75-0.684
		v-3.816H90.551z"/>
	
		<linearGradient id="SVGID_12_" gradientUnits="userSpaceOnUse" x1="306.0908" y1="-299.2598" x2="273.0908" y2="-299.2598" gradientTransform="matrix(0.75 0 0 -0.75 -148.342 -208.4802)">
		<stop  offset="0" style="stop-color:#3B9E9E"/>
		<stop  offset="0.15" style="stop-color:#67D2D2"/>
		<stop  offset="0.25" style="stop-color:#BBE6E6"/>
		<stop  offset="0.44" style="stop-color:#45B5B5"/>
		<stop  offset="0.6" style="stop-color:#3CA1A1"/>
		<stop  offset="0.8" style="stop-color:#318787"/>
		<stop  offset="0.97" style="stop-color:#2C7B7B"/>
	</linearGradient>
	<path fill="url(#SVGID_12_)" d="M56.477,19.34h24.75v-6.75h-24.75V19.34z"/>
	
		<linearGradient id="SVGID_13_" gradientUnits="userSpaceOnUse" x1="330.0898" y1="-297.7588" x2="273.0898" y2="-297.7588" gradientTransform="matrix(0.75 0 0 -0.75 -157.0178 -207.4685)">
		<stop  offset="0" style="stop-color:#68AEAE"/>
		<stop  offset="0.15" style="stop-color:#95E5E5"/>
		<stop  offset="0.25" style="stop-color:#CAF0F0"/>
		<stop  offset="0.44" style="stop-color:#78C7C7"/>
		<stop  offset="0.6" style="stop-color:#6AB1B1"/>
		<stop  offset="0.8" style="stop-color:#599595"/>
		<stop  offset="0.97" style="stop-color:#518888"/>
	</linearGradient>
	<path fill="url(#SVGID_13_)" d="M48.551,13.602h40.5c0.75,0,1.148,0.387,1.148,0.867l0.352,3.633h-42.75v-3.75
		c0,0,0.438-0.75,0.977-0.75H48.551z"/>
</g>
</svg>
