<?xml version="1.0" encoding="utf-8"?>
<!-- Generator: Adobe Illustrator 16.0.0, SVG Export Plug-In . SVG Version: 6.00 Build 0)  -->
<!DOCTYPE svg PUBLIC "-//W3C//DTD SVG 1.1//EN" "http://www.w3.org/Graphics/SVG/1.1/DTD/svg11.dtd">
<svg preserveAspectRatio="none" version="1.1" id="图层_1" xmlns="http://www.w3.org/2000/svg" xmlns:xlink="http://www.w3.org/1999/xlink" x="0px" y="0px"
	 width="141.75px" height="109.809px" viewBox="-0.008 16.117 141.75 109.809"
	 enable-background="new -0.008 16.117 141.75 109.809" xml:space="preserve">
<g id="surface271">
	
		<linearGradient id="SVGID_1_" gradientUnits="userSpaceOnUse" x1="315.5889" y1="-294.7612" x2="315.5889" y2="-303.7612" gradientTransform="matrix(0.75 0 0 -0.75 -151.4739 -204.9529)">
		<stop  offset="0" style="stop-color:#2F8357"/>
		<stop  offset="0.01" style="stop-color:#89CAA3"/>
		<stop  offset="0.02" style="stop-color:#40AB73"/>
		<stop  offset="0.64" style="stop-color:#3FA871"/>
		<stop  offset="0.99" style="stop-color:#3DA46E"/>
		<stop  offset="1" style="stop-color:#2B7950"/>
	</linearGradient>
	<path fill="url(#SVGID_1_)" d="M53.344,22.867h63.75v-6.75h-63.75V22.867z"/>
	
		<linearGradient id="SVGID_2_" gradientUnits="userSpaceOnUse" x1="305.5908" y1="-294.7573" x2="305.5908" y2="-339.7573" gradientTransform="matrix(0.75 0 0 -0.75 -129.7834 -134.7087)">
		<stop  offset="0" style="stop-color:#444E60"/>
		<stop  offset="0.15" style="stop-color:#717C90"/>
		<stop  offset="0.25" style="stop-color:#BDC1C8"/>
		<stop  offset="0.52" style="stop-color:#515E73"/>
		<stop  offset="0.69" style="stop-color:#475366"/>
		<stop  offset="0.8" style="stop-color:#434D5F"/>
		<stop  offset="0.92" style="stop-color:#3F495A"/>
		<stop  offset="1" style="stop-color:#495568"/>
	</linearGradient>
	<path fill="url(#SVGID_2_)" d="M75.035,86.359h48.75v33.75h-48.75V86.359z"/>
	
		<linearGradient id="SVGID_3_" gradientUnits="userSpaceOnUse" x1="283.7705" y1="-294.7573" x2="283.7705" y2="-340.1851" gradientTransform="matrix(0.75 0 0 -0.75 -81.0442 -134.7126)">
		<stop  offset="0" style="stop-color:#596476"/>
		<stop  offset="0.15" style="stop-color:#8794A9"/>
		<stop  offset="0.25" style="stop-color:#C5CAD2"/>
		<stop  offset="0.52" style="stop-color:#6A778C"/>
		<stop  offset="0.69" style="stop-color:#5E697C"/>
		<stop  offset="0.8" style="stop-color:#586375"/>
		<stop  offset="0.92" style="stop-color:#535D6E"/>
		<stop  offset="1" style="stop-color:#606C7F"/>
	</linearGradient>
	<path fill="url(#SVGID_3_)" d="M123.773,86.355h10.5c0,0,5.301,0.25,5.492,17.156c0.508,16.594-5.555,16.914-5.555,16.914
		l-10.438-0.32V86.355z"/>
	
		<linearGradient id="SVGID_4_" gradientUnits="userSpaceOnUse" x1="301.0908" y1="-294.7612" x2="301.0908" y2="-337.7612" gradientTransform="matrix(0.75 0 0 -0.75 -171.342 -133.9304)">
		<stop  offset="0" style="stop-color:#BDBDBD"/>
		<stop  offset="0.15" style="stop-color:#FFFFFF"/>
		<stop  offset="0.25" style="stop-color:#FFFFFF"/>
		<stop  offset="0.52" style="stop-color:#DFDFDF"/>
		<stop  offset="0.69" style="stop-color:#C7C7C7"/>
		<stop  offset="0.8" style="stop-color:#BCBCBC"/>
		<stop  offset="0.92" style="stop-color:#B1B1B1"/>
		<stop  offset="1" style="stop-color:#CBCBCB"/>
	</linearGradient>
	<path fill="url(#SVGID_4_)" d="M33.477,87.141h42v32.25h-42V87.141z"/>
	
		<linearGradient id="SVGID_5_" gradientUnits="userSpaceOnUse" x1="276.2822" y1="-294.7612" x2="276.2822" y2="-344.7612" gradientTransform="matrix(0.75 0 0 -0.75 -176.1296 -136.4216)">
		<stop  offset="0" style="stop-color:#BDBDBD"/>
		<stop  offset="0.15" style="stop-color:#FFFFFF"/>
		<stop  offset="0.25" style="stop-color:#FFFFFF"/>
		<stop  offset="0.52" style="stop-color:#DFDFDF"/>
		<stop  offset="0.69" style="stop-color:#C7C7C7"/>
		<stop  offset="0.8" style="stop-color:#BCBCBC"/>
		<stop  offset="0.92" style="stop-color:#B1B1B1"/>
		<stop  offset="1" style="stop-color:#CBCBCB"/>
	</linearGradient>
	<path fill="url(#SVGID_5_)" d="M28.688,84.648h4.5c0,0,0.289,0.066,0.289,0.145l-0.289,37.355c0,0,0.219-0.016,0.137-0.016
		l-4.637,0.016c0,0,0-0.082,0-0.164V84.648c0,0,0.07,0,0.156,0H28.688z"/>
	
		<linearGradient id="SVGID_6_" gradientUnits="userSpaceOnUse" x1="302.0898" y1="-294.7593" x2="302.0898" y2="-295.7593" gradientTransform="matrix(0.75 0 0 -0.75 -124.5364 -128.4177)">
		<stop  offset="0" style="stop-color:#596476"/>
		<stop  offset="0.15" style="stop-color:#8794A9"/>
		<stop  offset="0.25" style="stop-color:#C5CAD2"/>
		<stop  offset="0.52" style="stop-color:#6A778C"/>
		<stop  offset="0.69" style="stop-color:#5E697C"/>
		<stop  offset="0.8" style="stop-color:#586375"/>
		<stop  offset="0.92" style="stop-color:#535D6E"/>
		<stop  offset="1" style="stop-color:#606C7F"/>
	</linearGradient>
	<path fill="url(#SVGID_6_)" d="M80.281,92.652h43.5v0.75h-43.5V92.652z"/>
	
		<linearGradient id="SVGID_7_" gradientUnits="userSpaceOnUse" x1="302.0898" y1="-294.7593" x2="302.0898" y2="-295.7593" gradientTransform="matrix(0.75 0 0 -0.75 -124.5364 -124.988)">
		<stop  offset="0" style="stop-color:#596476"/>
		<stop  offset="0.15" style="stop-color:#8794A9"/>
		<stop  offset="0.25" style="stop-color:#C5CAD2"/>
		<stop  offset="0.52" style="stop-color:#6A778C"/>
		<stop  offset="0.69" style="stop-color:#5E697C"/>
		<stop  offset="0.8" style="stop-color:#586375"/>
		<stop  offset="0.92" style="stop-color:#535D6E"/>
		<stop  offset="1" style="stop-color:#606C7F"/>
	</linearGradient>
	<path fill="url(#SVGID_7_)" d="M80.281,96.082h43.5v0.75h-43.5V96.082z"/>
	
		<linearGradient id="SVGID_8_" gradientUnits="userSpaceOnUse" x1="302.0898" y1="-294.7593" x2="302.0898" y2="-295.7593" gradientTransform="matrix(0.75 0 0 -0.75 -124.5364 -121.4138)">
		<stop  offset="0" style="stop-color:#596476"/>
		<stop  offset="0.15" style="stop-color:#8794A9"/>
		<stop  offset="0.25" style="stop-color:#C5CAD2"/>
		<stop  offset="0.52" style="stop-color:#6A778C"/>
		<stop  offset="0.69" style="stop-color:#5E697C"/>
		<stop  offset="0.8" style="stop-color:#586375"/>
		<stop  offset="0.92" style="stop-color:#535D6E"/>
		<stop  offset="1" style="stop-color:#606C7F"/>
	</linearGradient>
	<path fill="url(#SVGID_8_)" d="M80.281,99.656h43.5v0.75h-43.5V99.656z"/>
	
		<linearGradient id="SVGID_9_" gradientUnits="userSpaceOnUse" x1="302.0898" y1="-294.7583" x2="302.0898" y2="-295.7583" gradientTransform="matrix(0.75 0 0 -0.75 -124.5364 -117.7595)">
		<stop  offset="0" style="stop-color:#596476"/>
		<stop  offset="0.15" style="stop-color:#8794A9"/>
		<stop  offset="0.25" style="stop-color:#C5CAD2"/>
		<stop  offset="0.52" style="stop-color:#6A778C"/>
		<stop  offset="0.69" style="stop-color:#5E697C"/>
		<stop  offset="0.8" style="stop-color:#586375"/>
		<stop  offset="0.92" style="stop-color:#535D6E"/>
		<stop  offset="1" style="stop-color:#606C7F"/>
	</linearGradient>
	<path fill="url(#SVGID_9_)" d="M80.281,103.309h43.5v0.75h-43.5V103.309z"/>
	
		<linearGradient id="SVGID_10_" gradientUnits="userSpaceOnUse" x1="302.0898" y1="-294.7603" x2="302.0898" y2="-295.7603" gradientTransform="matrix(0.75 0 0 -0.75 -124.5364 -114.4099)">
		<stop  offset="0" style="stop-color:#596476"/>
		<stop  offset="0.15" style="stop-color:#8794A9"/>
		<stop  offset="0.25" style="stop-color:#C5CAD2"/>
		<stop  offset="0.52" style="stop-color:#6A778C"/>
		<stop  offset="0.69" style="stop-color:#5E697C"/>
		<stop  offset="0.8" style="stop-color:#586375"/>
		<stop  offset="0.92" style="stop-color:#535D6E"/>
		<stop  offset="1" style="stop-color:#606C7F"/>
	</linearGradient>
	<path fill="url(#SVGID_10_)" d="M80.281,106.66h43.5v0.75h-43.5V106.66z"/>
	
		<linearGradient id="SVGID_11_" gradientUnits="userSpaceOnUse" x1="302.0898" y1="-294.7593" x2="302.0898" y2="-295.7593" gradientTransform="matrix(0.75 0 0 -0.75 -124.5364 -110.908)">
		<stop  offset="0" style="stop-color:#596476"/>
		<stop  offset="0.15" style="stop-color:#8794A9"/>
		<stop  offset="0.25" style="stop-color:#C5CAD2"/>
		<stop  offset="0.52" style="stop-color:#6A778C"/>
		<stop  offset="0.69" style="stop-color:#5E697C"/>
		<stop  offset="0.8" style="stop-color:#586375"/>
		<stop  offset="0.92" style="stop-color:#535D6E"/>
		<stop  offset="1" style="stop-color:#606C7F"/>
	</linearGradient>
	<path fill="url(#SVGID_11_)" d="M80.281,110.16h43.5v0.75h-43.5V110.16z"/>
	
		<linearGradient id="SVGID_12_" gradientUnits="userSpaceOnUse" x1="302.0898" y1="-294.7593" x2="302.0898" y2="-295.7593" gradientTransform="matrix(0.75 0 0 -0.75 -124.5364 -107.406)">
		<stop  offset="0" style="stop-color:#596476"/>
		<stop  offset="0.15" style="stop-color:#8794A9"/>
		<stop  offset="0.25" style="stop-color:#C5CAD2"/>
		<stop  offset="0.52" style="stop-color:#6A778C"/>
		<stop  offset="0.69" style="stop-color:#5E697C"/>
		<stop  offset="0.8" style="stop-color:#586375"/>
		<stop  offset="0.92" style="stop-color:#535D6E"/>
		<stop  offset="1" style="stop-color:#606C7F"/>
	</linearGradient>
	<path fill="url(#SVGID_12_)" d="M80.281,113.664h43.5v0.75h-43.5V113.664z"/>
	
		<linearGradient id="SVGID_13_" gradientUnits="userSpaceOnUse" x1="276.5908" y1="-294.7573" x2="276.5908" y2="-339.7573" gradientTransform="matrix(0.75 0 0 -0.75 -129.7839 -134.7087)">
		<stop  offset="0" style="stop-color:#596476"/>
		<stop  offset="0.15" style="stop-color:#8794A9"/>
		<stop  offset="0.25" style="stop-color:#C5CAD2"/>
		<stop  offset="0.52" style="stop-color:#6A778C"/>
		<stop  offset="0.69" style="stop-color:#5E697C"/>
		<stop  offset="0.8" style="stop-color:#586375"/>
		<stop  offset="0.92" style="stop-color:#535D6E"/>
		<stop  offset="1" style="stop-color:#606C7F"/>
	</linearGradient>
	<path fill="url(#SVGID_13_)" d="M75.035,86.359h5.25v33.75h-5.25V86.359z"/>
	
		<linearGradient id="SVGID_14_" gradientUnits="userSpaceOnUse" x1="277.0898" y1="-294.7583" x2="277.0898" y2="-323.7583" gradientTransform="matrix(0.75 0 0 -0.75 -181.99 -133.9431)">
		<stop  offset="0" style="stop-color:#BDBDBD"/>
		<stop  offset="0.15" style="stop-color:#FFFFFF"/>
		<stop  offset="0.25" style="stop-color:#FFFFFF"/>
		<stop  offset="0.52" style="stop-color:#DFDFDF"/>
		<stop  offset="0.69" style="stop-color:#C7C7C7"/>
		<stop  offset="0.8" style="stop-color:#BCBCBC"/>
		<stop  offset="0.92" style="stop-color:#B1B1B1"/>
		<stop  offset="1" style="stop-color:#CBCBCB"/>
	</linearGradient>
	<path fill="url(#SVGID_14_)" d="M22.828,108.875h6v-21.75h-6V108.875z"/>
	
		<linearGradient id="SVGID_15_" gradientUnits="userSpaceOnUse" x1="333.0908" y1="-294.7612" x2="333.0908" y2="-296.7612" gradientTransform="matrix(0.75 0 0 -0.75 -171.342 -131.3591)">
		<stop  offset="0" style="stop-color:#BDBDBD"/>
		<stop  offset="0.15" style="stop-color:#FFFFFF"/>
		<stop  offset="0.25" style="stop-color:#FFFFFF"/>
		<stop  offset="0.52" style="stop-color:#DFDFDF"/>
		<stop  offset="0.69" style="stop-color:#C7C7C7"/>
		<stop  offset="0.8" style="stop-color:#BCBCBC"/>
		<stop  offset="0.92" style="stop-color:#B1B1B1"/>
		<stop  offset="1" style="stop-color:#CBCBCB"/>
	</linearGradient>
	<path fill="url(#SVGID_15_)" d="M33.477,89.711h90v1.5h-90V89.711z"/>
	
		<linearGradient id="SVGID_16_" gradientUnits="userSpaceOnUse" x1="333.0908" y1="-294.7612" x2="333.0908" y2="-296.7612" gradientTransform="matrix(0.75 0 0 -0.75 -171.342 -104.7107)">
		<stop  offset="0" style="stop-color:#BDBDBD"/>
		<stop  offset="0.15" style="stop-color:#FFFFFF"/>
		<stop  offset="0.25" style="stop-color:#FFFFFF"/>
		<stop  offset="0.52" style="stop-color:#DFDFDF"/>
		<stop  offset="0.69" style="stop-color:#C7C7C7"/>
		<stop  offset="0.8" style="stop-color:#BCBCBC"/>
		<stop  offset="0.92" style="stop-color:#B1B1B1"/>
		<stop  offset="1" style="stop-color:#CBCBCB"/>
	</linearGradient>
	<path fill="url(#SVGID_16_)" d="M33.477,116.359h90v1.5h-90V116.359z"/>
	
		<linearGradient id="SVGID_17_" gradientUnits="userSpaceOnUse" x1="276.623" y1="-294.7534" x2="276.623" y2="-298.9355" gradientTransform="matrix(0.75 0 0 -0.75 -129.7957 -132.1853)">
		<stop  offset="0" style="stop-color:#444E60"/>
		<stop  offset="0.15" style="stop-color:#717C90"/>
		<stop  offset="0.25" style="stop-color:#BDC1C8"/>
		<stop  offset="0.52" style="stop-color:#515E73"/>
		<stop  offset="0.69" style="stop-color:#475366"/>
		<stop  offset="0.8" style="stop-color:#434D5F"/>
		<stop  offset="0.92" style="stop-color:#3F495A"/>
		<stop  offset="1" style="stop-color:#495568"/>
	</linearGradient>
	<path fill="url(#SVGID_17_)" d="M75.773,88.883h4.5c0,0,0.055,0.16,0.055,0.363l-0.055,2.637c0,0-0.117,0.129-0.328,0.129
		l-4.172-0.129c-0.75,0-0.758-0.035-0.758-0.238l0.008-2.762c0,0,0.164-0.004,0.375-0.004L75.773,88.883z"/>
	
		<linearGradient id="SVGID_18_" gradientUnits="userSpaceOnUse" x1="276.6201" y1="-294.7515" x2="276.6201" y2="-298.9341" gradientTransform="matrix(0.75 0 0 -0.75 -129.782 -105.6345)">
		<stop  offset="0" style="stop-color:#444E60"/>
		<stop  offset="0.15" style="stop-color:#717C90"/>
		<stop  offset="0.25" style="stop-color:#BDC1C8"/>
		<stop  offset="0.52" style="stop-color:#515E73"/>
		<stop  offset="0.69" style="stop-color:#475366"/>
		<stop  offset="0.8" style="stop-color:#434D5F"/>
		<stop  offset="0.92" style="stop-color:#3F495A"/>
		<stop  offset="1" style="stop-color:#495568"/>
	</linearGradient>
	<path fill="url(#SVGID_18_)" d="M75.785,115.434h4.5c0,0,0.055,0.16,0.055,0.363l-0.055,2.637c0,0-0.117,0.133-0.328,0.133
		l-4.172-0.133c-0.75,0-0.758-0.035-0.758-0.238l0.008-2.762c0,0,0.164-0.004,0.379-0.004L75.785,115.434z"/>
	
		<linearGradient id="SVGID_19_" gradientUnits="userSpaceOnUse" x1="316.0889" y1="-294.7612" x2="316.0889" y2="-365.7612" gradientTransform="matrix(0.75 0 0 -0.75 -151.4739 -198.0505)">
		<stop  offset="0" style="stop-color:#BDBDBD"/>
		<stop  offset="0.15" style="stop-color:#FFFFFF"/>
		<stop  offset="0.25" style="stop-color:#FFFFFF"/>
		<stop  offset="0.52" style="stop-color:#DFDFDF"/>
		<stop  offset="0.69" style="stop-color:#C7C7C7"/>
		<stop  offset="0.8" style="stop-color:#BCBCBC"/>
		<stop  offset="0.92" style="stop-color:#B1B1B1"/>
		<stop  offset="1" style="stop-color:#CBCBCB"/>
	</linearGradient>
	<path fill="url(#SVGID_19_)" d="M53.344,23.02h64.5v53.25h-64.5V23.02z"/>
	
		<linearGradient id="SVGID_20_" gradientUnits="userSpaceOnUse" x1="278.0898" y1="-339.7598" x2="273.0898" y2="-339.7598" gradientTransform="matrix(0.75 0 0 -0.75 -87.4314 -204.9529)">
		<stop  offset="0" style="stop-color:#2F8357"/>
		<stop  offset="0.03" style="stop-color:#89CAA3"/>
		<stop  offset="0.08" style="stop-color:#40AB73"/>
		<stop  offset="0.64" style="stop-color:#3FA871"/>
		<stop  offset="0.95" style="stop-color:#3DA46E"/>
		<stop  offset="1" style="stop-color:#2B7950"/>
	</linearGradient>
	<path fill="url(#SVGID_20_)" d="M121.137,16.117h-3.75v67.5h3.75V16.117z"/>
	
		<linearGradient id="SVGID_21_" gradientUnits="userSpaceOnUse" x1="278.0898" y1="-339.2598" x2="273.0898" y2="-339.2598" gradientTransform="matrix(0.75 0 0 -0.75 -155.1614 -204.8474)">
		<stop  offset="0" style="stop-color:#2F8357"/>
		<stop  offset="0.03" style="stop-color:#89CAA3"/>
		<stop  offset="0.08" style="stop-color:#40AB73"/>
		<stop  offset="0.64" style="stop-color:#3FA871"/>
		<stop  offset="0.95" style="stop-color:#3DA46E"/>
		<stop  offset="1" style="stop-color:#2B7950"/>
	</linearGradient>
	<path fill="url(#SVGID_21_)" d="M53.406,16.223h-3.75v66.75h3.75V16.223z"/>
	
		<linearGradient id="SVGID_22_" gradientUnits="userSpaceOnUse" x1="300.5928" y1="-294.7593" x2="300.5928" y2="-311.7593" gradientTransform="matrix(0.75 0 0 -0.75 -140.2571 -177.6511)">
		<stop  offset="0" style="stop-color:#2F8357"/>
		<stop  offset="0.03" style="stop-color:#89CAA3"/>
		<stop  offset="0.08" style="stop-color:#40AB73"/>
		<stop  offset="0.64" style="stop-color:#3FA871"/>
		<stop  offset="0.95" style="stop-color:#3DA46E"/>
		<stop  offset="1" style="stop-color:#2B7950"/>
	</linearGradient>
	<path fill="url(#SVGID_22_)" d="M64.563,43.418h41.25v12.75h-41.25V43.418z"/>
	
		<linearGradient id="SVGID_23_" gradientUnits="userSpaceOnUse" x1="355.5879" y1="-294.7573" x2="355.5879" y2="-300.7573" gradientTransform="matrix(0.75 0 0 -0.75 -188.6213 -138.3767)">
		<stop  offset="0" style="stop-color:#2F8357"/>
		<stop  offset="0.01" style="stop-color:#89CAA3"/>
		<stop  offset="0.02" style="stop-color:#40AB73"/>
		<stop  offset="0.64" style="stop-color:#3FA871"/>
		<stop  offset="0.99" style="stop-color:#3DA46E"/>
		<stop  offset="1" style="stop-color:#2B7950"/>
	</linearGradient>
	<path fill="url(#SVGID_23_)" d="M16.195,82.691h123.75v4.5H16.195V82.691z"/>
	<path fill="#369161" d="M52.23,49.563c0-17.25,14.758-31.5,32.992-31.5c18.008,0,32.992,14.176,32.992,31.719
		c0.016,17.781-14.793,31.723-32.992,31.723C67.23,81.813,52.23,67.289,52.23,49.781V49.563z"/>
	
		<radialGradient id="SVGID_24_" cx="314.8232" cy="-334.8867" r="57.8951" gradientTransform="matrix(0.75 0 0 -0.75 -150.8948 -201.3816)" gradientUnits="userSpaceOnUse">
		<stop  offset="0" style="stop-color:#44B579"/>
		<stop  offset="0.54" style="stop-color:#42B177"/>
		<stop  offset="0.84" style="stop-color:#7AC69A"/>
		<stop  offset="0.93" style="stop-color:#42B177"/>
		<stop  offset="1" style="stop-color:#42B177"/>
	</radialGradient>
	<path fill="url(#SVGID_24_)" stroke="#46BA7D" stroke-width="0.25" stroke-linejoin="bevel" stroke-miterlimit="10" d="
		M53.922,49.688c0-16.5,14.004-30,31.301-30c17.449,0,31.301,13.449,31.301,30.094c-0.352,16.406-14.035,30.098-31.301,30.098
		c-17.051-0.191-31.301-13.488-31.301-30.098V49.688z"/>
	<path fill="#3CA16C" d="M63.867,49.477c0-11.25,9.551-20.25,21.355-20.25c11.645,0,21.355,9.184,21.355,20.555
		c0.039,11.695-9.574,20.559-21.355,20.559c-11.605,0.137-21.355-9.211-21.355-20.559V49.477z"/>
	<path fill="#FFFFFF" fill-opacity="0.3647" d="M64.648,49.496c0-10.5,9.203-19.5,20.574-19.5c11.676,0,20.578,8.844,20.578,19.785
		c0.098,10.965-9.227,19.785-20.578,19.785c-11.574,0.18-20.574-8.867-20.574-19.785V49.496z"/>
	<path fill="#3E3938" d="M82.629,24.859c0-1.5,1.102-2.285,2.492-2.285c1.258,0.035,2.512,1.082,2.512,2.414
		c0.246,1.371-1.125,2.414-2.512,2.414c-1.742-0.293-2.516-1.082-2.516-2.414L82.629,24.859z"/>
	<path fill="#3E3938" d="M101.551,32.98c0-1.5,1.105-2.281,2.492-2.281c1.258,0.031,2.512,1.078,2.512,2.414
		c0.246,1.367-1.125,2.414-2.512,2.414c-1.742-0.297-2.512-1.082-2.512-2.414L101.551,32.98z"/>
	<path fill="#3E3938" d="M108.211,49.207c0-1.5,1.105-2.285,2.492-2.285c1.258,0.035,2.512,1.082,2.512,2.414
		c0.246,1.371-1.125,2.418-2.512,2.418c-1.742-0.297-2.512-1.082-2.512-2.418L108.211,49.207z"/>
	<path fill="#3E3938" d="M101.551,65.59c0-1.5,1.105-2.285,2.492-2.285c1.258,0.035,2.512,1.082,2.512,2.414
		c0.246,1.371-1.125,2.414-2.512,2.414c-1.742-0.293-2.512-1.082-2.512-2.414L101.551,65.59z"/>
	<path fill="#3E3938" d="M82.629,74.402c0-1.5,1.102-2.285,2.492-2.285c1.258,0.035,2.512,1.082,2.512,2.414
		c0.246,1.371-1.125,2.414-2.512,2.414c-1.742-0.293-2.516-1.082-2.516-2.414L82.629,74.402z"/>
	<path fill="#3E3938" d="M63.703,65.59c0-1.5,1.102-2.285,2.488-2.285c1.262,0.035,2.512,1.082,2.512,2.414
		c0.25,1.371-1.121,2.414-2.512,2.414c-1.738-0.293-2.512-1.082-2.512-2.414L63.703,65.59z"/>
	<path fill="#3E3938" d="M57.25,49.207c0-1.5,1.102-2.285,2.492-2.285c1.258,0.035,2.512,1.082,2.512,2.414
		c0.246,1.371-1.125,2.418-2.512,2.418c-1.742-0.297-2.516-1.082-2.516-2.418L57.25,49.207z"/>
	<path fill="#3E3938" d="M63.703,32.98c0-1.5,1.102-2.281,2.488-2.281c1.262,0.031,2.512,1.078,2.512,2.414
		c0.25,1.367-1.121,2.414-2.512,2.414c-1.738-0.297-2.512-1.082-2.512-2.414L63.703,32.98z"/>
	<path fill="#3CA16C" d="M84.617,29.711h1.5v40.5h-1.5V29.711z"/>
	<path fill="#3CA16C" d="M70.32,35.719l1.063-1.059l29.168,29.168l-1.063,1.059L70.32,35.719z"/>
	<path fill="#3CA16C" d="M100.125,35.719l-1.059-1.059L69.898,63.828l1.059,1.059L100.125,35.719z"/>
	<path fill="#3CA16C" d="M106.113,50.363v-1.5h-42v1.5H106.113z"/>
	<path fill="#3CA16C" d="M81.648,50.094c0-2.25,1.598-3.75,3.574-3.75c1.676,0,3.578,1.535,3.578,3.438
		c0.348,1.813-1.605,3.441-3.578,3.441c-2.074-0.129-3.574-1.543-3.574-3.441V50.094z"/>
	
		<linearGradient id="SVGID_25_" gradientUnits="userSpaceOnUse" x1="291.5938" y1="-294.7554" x2="291.5938" y2="-324.7554" gradientTransform="matrix(0.75 0 0 -0.75 -182.7385 -182.7117)">
		<stop  offset="0" style="stop-color:#BDBDBD"/>
		<stop  offset="0.15" style="stop-color:#FFFFFF"/>
		<stop  offset="0.25" style="stop-color:#FFFFFF"/>
		<stop  offset="0.52" style="stop-color:#DFDFDF"/>
		<stop  offset="0.69" style="stop-color:#C7C7C7"/>
		<stop  offset="0.8" style="stop-color:#BCBCBC"/>
		<stop  offset="0.92" style="stop-color:#B1B1B1"/>
		<stop  offset="1" style="stop-color:#CBCBCB"/>
	</linearGradient>
	<path fill="url(#SVGID_25_)" d="M49.832,38.355h-27.75v22.5h27.75V38.355z"/>
	
		<linearGradient id="SVGID_26_" gradientUnits="userSpaceOnUse" x1="279.0898" y1="-331.2578" x2="273.0898" y2="-331.2578" gradientTransform="matrix(0.75 0 0 -0.75 -160.0603 -198.7917)">
		<stop  offset="0" style="stop-color:#B5B5B5"/>
		<stop  offset="0.03" style="stop-color:#FFFFFF"/>
		<stop  offset="0.08" style="stop-color:#EBEBEB"/>
		<stop  offset="0.64" style="stop-color:#E7E7E7"/>
		<stop  offset="0.95" style="stop-color:#E2E2E2"/>
		<stop  offset="1" style="stop-color:#A8A8A8"/>
	</linearGradient>
	<path fill="url(#SVGID_26_)" d="M49.258,22.277h-4.5v54.75h4.5V22.277z"/>
	
		<linearGradient id="SVGID_27_" gradientUnits="userSpaceOnUse" x1="279.0889" y1="-331.2559" x2="273.0889" y2="-331.2559" gradientTransform="matrix(0.75 0 0 -0.75 -83.6882 -198.7908)">
		<stop  offset="0" style="stop-color:#B5B5B5"/>
		<stop  offset="0.03" style="stop-color:#FFFFFF"/>
		<stop  offset="0.08" style="stop-color:#EBEBEB"/>
		<stop  offset="0.64" style="stop-color:#E7E7E7"/>
		<stop  offset="0.95" style="stop-color:#E2E2E2"/>
		<stop  offset="1" style="stop-color:#A8A8A8"/>
	</linearGradient>
	<path fill="url(#SVGID_27_)" d="M125.629,22.277h-4.5v54.75h4.5V22.277z"/>
	
		<linearGradient id="SVGID_28_" gradientUnits="userSpaceOnUse" x1="287.1377" y1="-294.7573" x2="287.1377" y2="-411.2573" gradientTransform="matrix(0.75 0 0 -0.75 -203.1799 -186.3103)">
		<stop  offset="0" style="stop-color:#2F8357"/>
		<stop  offset="0.06" style="stop-color:#89CAA3"/>
		<stop  offset="0.16" style="stop-color:#40AB73"/>
		<stop  offset="0.79" style="stop-color:#3FA871"/>
		<stop  offset="0.84" style="stop-color:#3DA46E"/>
		<stop  offset="1" style="stop-color:#2B7950"/>
	</linearGradient>
	<path fill="url(#SVGID_28_)" d="M2.387,34.758h19.5c0.75,0,0.855,0.238,0.855,0.59l-0.105,86.41c0,0-0.191,0.375-0.555,0.375
		l-19.695-0.375c-0.75,0-0.781,0.09-0.781-0.258l0.031-85.992c0-0.75,0.262-0.75,0.629-0.75H2.387z"/>
	
		<linearGradient id="SVGID_29_" gradientUnits="userSpaceOnUse" x1="299.0928" y1="-294.7603" x2="299.0928" y2="-300.7603" gradientTransform="matrix(0.75 0 0 -0.75 -121.0896 -103.1599)">
		<stop  offset="0" style="stop-color:#4D5664"/>
		<stop  offset="0.01" style="stop-color:#9BA2AE"/>
		<stop  offset="0.02" style="stop-color:#677284"/>
		<stop  offset="0.64" style="stop-color:#657082"/>
		<stop  offset="0.99" style="stop-color:#626D7F"/>
		<stop  offset="1" style="stop-color:#474F5D"/>
	</linearGradient>
	<path fill="url(#SVGID_29_)" d="M83.73,117.91h39v4.5h-39V117.91z"/>
	
		<linearGradient id="SVGID_30_" gradientUnits="userSpaceOnUse" x1="367.5928" y1="-294.7134" x2="367.5928" y2="-299.7603" gradientTransform="matrix(0.75 0 0 -0.75 -204.8274 -98.8943)">
		<stop  offset="0" style="stop-color:#2F8357"/>
		<stop  offset="0.01" style="stop-color:#89CAA3"/>
		<stop  offset="0.02" style="stop-color:#40AB73"/>
		<stop  offset="0.64" style="stop-color:#3FA871"/>
		<stop  offset="0.99" style="stop-color:#3DA46E"/>
		<stop  offset="1" style="stop-color:#2B7950"/>
	</linearGradient>
	<path fill="url(#SVGID_30_)" d="M0.742,122.176h140.25c0.75,0,0.75,0.25,0.75,0.602v2.398c0,0-0.297,0.402-0.66,0.402
		l-140.34,0.348c-0.75,0-0.75-0.629-0.75-0.98v-2.02c0-0.75,0.262-0.785,0.625-0.785L0.742,122.176z"/>
</g>
</svg>
