<?xml version="1.0" encoding="utf-8"?>
<!-- Generator: Adobe Illustrator 16.0.0, SVG Export Plug-In . SVG Version: 6.00 Build 0)  -->
<!DOCTYPE svg PUBLIC "-//W3C//DTD SVG 1.1//EN" "http://www.w3.org/Graphics/SVG/1.1/DTD/svg11.dtd">
<svg preserveAspectRatio="none" version="1.1" id="图层_1" xmlns="http://www.w3.org/2000/svg" xmlns:xlink="http://www.w3.org/1999/xlink" x="0px" y="0px"
	 width="141.977px" height="108.773px" viewBox="-0.043 16.496 141.977 108.773"
	 enable-background="new -0.043 16.496 141.977 108.773" xml:space="preserve">
<g id="surface216">
	
		<linearGradient id="SVGID_1_" gradientUnits="userSpaceOnUse" x1="299.0928" y1="-316.7588" x2="273.0928" y2="-316.7588" gradientTransform="matrix(0.75 0 0 -0.75 -143.5466 -193.0193)">
		<stop  offset="0" style="stop-color:#6895B4"/>
		<stop  offset="0.15" style="stop-color:#94C7EC"/>
		<stop  offset="0.25" style="stop-color:#CAE1F4"/>
		<stop  offset="0.52" style="stop-color:#77AACE"/>
		<stop  offset="0.69" style="stop-color:#6997B7"/>
		<stop  offset="0.8" style="stop-color:#638FAD"/>
		<stop  offset="0.97" style="stop-color:#5D86A3"/>
		<stop  offset="1" style="stop-color:#6C9BBB"/>
	</linearGradient>
	<path fill="url(#SVGID_1_)" d="M61.273,28.051h19.5v33h-19.5V28.051z"/>
	
		<linearGradient id="SVGID_2_" gradientUnits="userSpaceOnUse" x1="360.8848" y1="-306.7568" x2="273.0879" y2="-306.7568" gradientTransform="matrix(0.75 0 0 -0.75 -166.8752 -204.573)">
		<stop  offset="0" style="stop-color:#6895B4"/>
		<stop  offset="0.15" style="stop-color:#94C7EC"/>
		<stop  offset="0.25" style="stop-color:#CAE1F4"/>
		<stop  offset="0.52" style="stop-color:#77AACE"/>
		<stop  offset="0.69" style="stop-color:#6997B7"/>
		<stop  offset="0.8" style="stop-color:#638FAD"/>
		<stop  offset="0.97" style="stop-color:#5D86A3"/>
		<stop  offset="1" style="stop-color:#6C9BBB"/>
	</linearGradient>
	<path fill="url(#SVGID_2_)" d="M37.941,34.496c0-9.75,14.727-18,32.926-18c18.074,0,32.922,7.926,32.922,17.746
		c0.152,0.254-65.848,0-65.848,0V34.496z"/>
	
		<linearGradient id="SVGID_3_" gradientUnits="userSpaceOnUse" x1="339.0908" y1="-294.7612" x2="339.0908" y2="-342.7612" gradientTransform="matrix(0.75 0 0 -0.75 -183.3225 -142.4802)">
		<stop  offset="0" style="stop-color:#5E8BAA"/>
		<stop  offset="0.15" style="stop-color:#8ABBE0"/>
		<stop  offset="0.25" style="stop-color:#C6DBEE"/>
		<stop  offset="0.44" style="stop-color:#6D9FC2"/>
		<stop  offset="0.6" style="stop-color:#608DAD"/>
		<stop  offset="0.8" style="stop-color:#507691"/>
		<stop  offset="0.97" style="stop-color:#486C85"/>
		<stop  offset="1" style="stop-color:#6290B1"/>
	</linearGradient>
	<path fill="url(#SVGID_3_)" d="M21.496,78.59h99v36h-99V78.59z"/>
	
		<linearGradient id="SVGID_4_" gradientUnits="userSpaceOnUse" x1="287.5889" y1="-294.7593" x2="287.5889" y2="-370.1968" gradientTransform="matrix(0.75 0 0 -0.75 -204.8601 -152.6208)">
		<stop  offset="0" style="stop-color:#6895B4"/>
		<stop  offset="0.15" style="stop-color:#94C7EC"/>
		<stop  offset="0.25" style="stop-color:#CAE1F4"/>
		<stop  offset="0.44" style="stop-color:#77AACE"/>
		<stop  offset="0.6" style="stop-color:#6997B7"/>
		<stop  offset="0.8" style="stop-color:#587F9A"/>
		<stop  offset="0.97" style="stop-color:#50748D"/>
		<stop  offset="1" style="stop-color:#6C9BBB"/>
	</linearGradient>
	<path fill="url(#SVGID_4_)" d="M1.457,68.449h18.75c0.75,0,1.238,0.5,1.238,1.117l0.262,54.383c0,0.75-0.789,1.078-1.418,1.078
		l-18.832-0.328c-0.75,0-1.5-0.191-1.5-0.813V69.199c0,0,0.512-0.75,1.137-0.75H1.457z"/>
	
		<linearGradient id="SVGID_5_" gradientUnits="userSpaceOnUse" x1="324.0928" y1="-294.7563" x2="324.0928" y2="-370.7563" gradientTransform="matrix(0.75 0 0 -0.75 -172.2805 -152.7976)">
		<stop  offset="0" style="stop-color:#6895B4"/>
		<stop  offset="0.15" style="stop-color:#94C7EC"/>
		<stop  offset="0.25" style="stop-color:#CAE1F4"/>
		<stop  offset="0.44" style="stop-color:#77AACE"/>
		<stop  offset="0.6" style="stop-color:#6997B7"/>
		<stop  offset="0.8" style="stop-color:#587F9A"/>
		<stop  offset="0.97" style="stop-color:#50748D"/>
		<stop  offset="1" style="stop-color:#6C9BBB"/>
	</linearGradient>
	<path fill="url(#SVGID_5_)" d="M32.539,68.27h76.5v57h-76.5V68.27z"/>
	
		<linearGradient id="SVGID_6_" gradientUnits="userSpaceOnUse" x1="287.5908" y1="-294.7593" x2="287.5908" y2="-370.1968" gradientTransform="matrix(0.75 0 0 -0.75 -84.635 -152.6208)">
		<stop  offset="0" style="stop-color:#6895B4"/>
		<stop  offset="0.15" style="stop-color:#94C7EC"/>
		<stop  offset="0.25" style="stop-color:#CAE1F4"/>
		<stop  offset="0.44" style="stop-color:#77AACE"/>
		<stop  offset="0.6" style="stop-color:#6997B7"/>
		<stop  offset="0.8" style="stop-color:#587F9A"/>
		<stop  offset="0.97" style="stop-color:#50748D"/>
		<stop  offset="1" style="stop-color:#6C9BBB"/>
	</linearGradient>
	<path fill="url(#SVGID_6_)" d="M121.684,68.449h18.75c0.75,0,1.238,0.5,1.238,1.117l0.262,54.383c0,0.75-0.789,1.078-1.418,1.078
		l-18.832-0.328c-0.75,0-1.5-0.191-1.5-0.813V69.199c0,0,0.508-0.75,1.137-0.75H121.684z"/>
	
		<linearGradient id="SVGID_7_" gradientUnits="userSpaceOnUse" x1="345.4688" y1="-303.7451" x2="273.0879" y2="-303.7451" gradientTransform="matrix(0.75 0 0 -0.75 -161.0945 -166.5886)">
		<stop  offset="0" style="stop-color:#6895B4"/>
		<stop  offset="0.15" style="stop-color:#94C7EC"/>
		<stop  offset="0.25" style="stop-color:#CAE1F4"/>
		<stop  offset="0.52" style="stop-color:#77AACE"/>
		<stop  offset="0.69" style="stop-color:#6997B7"/>
		<stop  offset="0.8" style="stop-color:#638FAD"/>
		<stop  offset="0.97" style="stop-color:#5D86A3"/>
		<stop  offset="1" style="stop-color:#6C9BBB"/>
	</linearGradient>
	<path fill="url(#SVGID_7_)" d="M44.473,54.48h52.5c0.75,0,1.035,0.223,1.035,0.523L97.723,67.98h-54V55.23
		c0-0.75,0.48-0.77,1.105-0.77L44.473,54.48z"/>
</g>
</svg>
