<?xml version="1.0" encoding="utf-8"?>
<!-- Generator: Adobe Illustrator 16.0.0, SVG Export Plug-In . SVG Version: 6.00 Build 0)  -->
<!DOCTYPE svg PUBLIC "-//W3C//DTD SVG 1.1//EN" "http://www.w3.org/Graphics/SVG/1.1/DTD/svg11.dtd">
<svg preserveAspectRatio="none" version="1.1" id="图层_1" xmlns="http://www.w3.org/2000/svg" xmlns:xlink="http://www.w3.org/1999/xlink" x="0px" y="0px"
	 width="140.254px" height="107.342px" viewBox="0.738 16.099 140.254 107.342"
	 enable-background="new 0.738 16.099 140.254 107.342" xml:space="preserve">
<g id="surface166">
	
		<linearGradient id="SVGID_1_" gradientUnits="userSpaceOnUse" x1="87.6143" y1="-383.0869" x2="97.6143" y2="-383.0869" gradientTransform="matrix(-0.5303 0.5303 -0.5303 -0.5303 -111.1836 -225.6366)">
		<stop  offset="0" style="stop-color:#C4AA84"/>
		<stop  offset="0.15" style="stop-color:#FFE0B3"/>
		<stop  offset="0.25" style="stop-color:#FFEED7"/>
		<stop  offset="0.52" style="stop-color:#DFC297"/>
		<stop  offset="0.69" style="stop-color:#C7AD86"/>
		<stop  offset="0.8" style="stop-color:#BCA37E"/>
		<stop  offset="0.97" style="stop-color:#B19A77"/>
		<stop  offset="1" style="stop-color:#CBB189"/>
	</linearGradient>
	<path fill="url(#SVGID_1_)" d="M39.414,17.891l-4.773,4.773c-0.531,0.531-0.305,0.406-0.242,0.469l11.91,12.258l5.305-5.301
		L39.414,17.891c0,0-0.051,0.051-0.113,0.113L39.414,17.891z"/>
	
		<linearGradient id="SVGID_2_" gradientUnits="userSpaceOnUse" x1="339.5889" y1="-294.7593" x2="339.5889" y2="-357.7593" gradientTransform="matrix(0.75 0 0 -0.75 -183.8835 -148.7957)">
		<stop  offset="0" style="stop-color:#C4AA84"/>
		<stop  offset="0.15" style="stop-color:#FFE0B3"/>
		<stop  offset="0.25" style="stop-color:#FFEED7"/>
		<stop  offset="0.52" style="stop-color:#DFC297"/>
		<stop  offset="0.69" style="stop-color:#C7AD86"/>
		<stop  offset="0.8" style="stop-color:#BCA37E"/>
		<stop  offset="0.97" style="stop-color:#B19A77"/>
		<stop  offset="1" style="stop-color:#CBB189"/>
	</linearGradient>
	<path fill="url(#SVGID_2_)" d="M20.934,72.273h99.75v47.25h-99.75V72.273z"/>
	
		<linearGradient id="SVGID_3_" gradientUnits="userSpaceOnUse" x1="87.6133" y1="-424.9292" x2="131.6162" y2="-424.9292" gradientTransform="matrix(-0.5303 0.5303 -0.5303 -0.5303 -94.9082 -227.641)">
		<stop  offset="0" style="stop-color:#C4AA84"/>
		<stop  offset="0.15" style="stop-color:#FFE0B3"/>
		<stop  offset="0.25" style="stop-color:#FFEED7"/>
		<stop  offset="0.52" style="stop-color:#DFC297"/>
		<stop  offset="0.69" style="stop-color:#C7AD86"/>
		<stop  offset="0.8" style="stop-color:#BCA37E"/>
		<stop  offset="0.97" style="stop-color:#B19A77"/>
		<stop  offset="1" style="stop-color:#CBB189"/>
	</linearGradient>
	<path fill="url(#SVGID_3_)" d="M55.16,16.418L32.887,38.691c-0.531,0.531-0.277,0.723,0.008,1.008l32.871,32.934
		c0,0,6.406,6.012,22.684,6.102c16.563,0.262,23.82-6.27,23.82-6.27L56.223,16.418c-0.531-0.531-0.762-0.301-1.047-0.016
		L55.16,16.418z"/>
	
		<linearGradient id="SVGID_4_" gradientUnits="userSpaceOnUse" x1="87.6123" y1="-375.085" x2="131.6152" y2="-375.085" gradientTransform="matrix(-0.5303 0.5303 -0.5303 -0.5303 -87.2754 -219.8246)">
		<stop  offset="0" style="stop-color:#C3A156"/>
		<stop  offset="0.15" style="stop-color:#FED681"/>
		<stop  offset="0.25" style="stop-color:#FEE8C2"/>
		<stop  offset="0.52" style="stop-color:#DEB863"/>
		<stop  offset="0.69" style="stop-color:#C6A457"/>
		<stop  offset="0.8" style="stop-color:#BB9B52"/>
		<stop  offset="0.97" style="stop-color:#B0924D"/>
		<stop  offset="1" style="stop-color:#CBA859"/>
	</linearGradient>
	<path fill="url(#SVGID_4_)" d="M39.988,47.039l3.711,3.711l23.336-23.336l-3.711-3.711L39.988,47.039z"/>
	
		<linearGradient id="SVGID_5_" gradientUnits="userSpaceOnUse" x1="87.6133" y1="-373.5859" x2="131.6123" y2="-373.5859" gradientTransform="matrix(-0.5303 0.5303 -0.5303 -0.5303 -92.0996 -224.5951)">
		<stop  offset="0" style="stop-color:#C3A156"/>
		<stop  offset="0.15" style="stop-color:#FED681"/>
		<stop  offset="0.25" style="stop-color:#FEE8C2"/>
		<stop  offset="0.52" style="stop-color:#DEB863"/>
		<stop  offset="0.69" style="stop-color:#C6A457"/>
		<stop  offset="0.8" style="stop-color:#BB9B52"/>
		<stop  offset="0.97" style="stop-color:#B0924D"/>
		<stop  offset="1" style="stop-color:#CBA859"/>
	</linearGradient>
	<path fill="url(#SVGID_5_)" d="M35.164,42.266l2.121,2.121l23.336-23.332L58.5,18.934L35.164,42.266z"/>
	
		<linearGradient id="SVGID_6_" gradientUnits="userSpaceOnUse" x1="274.0918" y1="-294.7593" x2="274.0918" y2="-357.7593" gradientTransform="matrix(0.75 0 0 -0.75 -183.8665 -148.7957)">
		<stop  offset="0" style="stop-color:#B99645"/>
		<stop  offset="0.15" style="stop-color:#F2C870"/>
		<stop  offset="0.25" style="stop-color:#F7E1BD"/>
		<stop  offset="0.52" style="stop-color:#D3AB4F"/>
		<stop  offset="0.69" style="stop-color:#BC9846"/>
		<stop  offset="0.8" style="stop-color:#B18F41"/>
		<stop  offset="0.97" style="stop-color:#A7873D"/>
		<stop  offset="1" style="stop-color:#C09C48"/>
	</linearGradient>
	<path fill="url(#SVGID_6_)" d="M20.953,72.273h1.5v47.25h-1.5V72.273z"/>
	
		<linearGradient id="SVGID_7_" gradientUnits="userSpaceOnUse" x1="274.0898" y1="-294.7593" x2="274.0898" y2="-357.7593" gradientTransform="matrix(0.75 0 0 -0.75 -85.5872 -148.7957)">
		<stop  offset="0" style="stop-color:#B99645"/>
		<stop  offset="0.15" style="stop-color:#F2C870"/>
		<stop  offset="0.25" style="stop-color:#F7E1BD"/>
		<stop  offset="0.52" style="stop-color:#D3AB4F"/>
		<stop  offset="0.69" style="stop-color:#BC9846"/>
		<stop  offset="0.8" style="stop-color:#B18F41"/>
		<stop  offset="0.97" style="stop-color:#A7873D"/>
		<stop  offset="1" style="stop-color:#C09C48"/>
	</linearGradient>
	<path fill="url(#SVGID_7_)" d="M119.23,72.273h1.5v47.25h-1.5V72.273z"/>
	
		<linearGradient id="SVGID_8_" gradientUnits="userSpaceOnUse" x1="278.5908" y1="-294.7573" x2="278.5908" y2="-368.0493" gradientTransform="matrix(0.75 0 0 -0.75 -83.9319 -152.5955)">
		<stop  offset="0" style="stop-color:#C4AA84"/>
		<stop  offset="0.15" style="stop-color:#FFE0B3"/>
		<stop  offset="0.25" style="stop-color:#FFEED7"/>
		<stop  offset="0.52" style="stop-color:#DFC297"/>
		<stop  offset="0.69" style="stop-color:#C7AD86"/>
		<stop  offset="0.8" style="stop-color:#BCA37E"/>
		<stop  offset="0.97" style="stop-color:#B19A77"/>
		<stop  offset="1" style="stop-color:#CBB189"/>
	</linearGradient>
	<path fill="url(#SVGID_8_)" d="M121.637,68.473h6.75c0.75,0,0.738,0.324,0.738,0.727l0.012,53.273c0,0.75-0.289,0.969-0.625,0.969
		l-6.875-0.219c-0.75,0-0.75-0.113-0.75-0.512V69.223c0-0.75,0.27-0.75,0.605-0.75H121.637z"/>
	
		<linearGradient id="SVGID_9_" gradientUnits="userSpaceOnUse" x1="278.5889" y1="-294.7573" x2="278.5889" y2="-368.0493" gradientTransform="matrix(0.75 0 0 -0.75 -75.7312 -152.5955)">
		<stop  offset="0" style="stop-color:#C4AA84"/>
		<stop  offset="0.15" style="stop-color:#FFE0B3"/>
		<stop  offset="0.25" style="stop-color:#FFEED7"/>
		<stop  offset="0.52" style="stop-color:#DFC297"/>
		<stop  offset="0.69" style="stop-color:#C7AD86"/>
		<stop  offset="0.8" style="stop-color:#BCA37E"/>
		<stop  offset="0.97" style="stop-color:#B19A77"/>
		<stop  offset="1" style="stop-color:#CBB189"/>
	</linearGradient>
	<path fill="url(#SVGID_9_)" d="M129.836,68.473h6.75c0.75,0,0.742,0.324,0.742,0.727l0.008,53.273c0,0.75-0.285,0.969-0.625,0.969
		l-6.875-0.219c-0.75,0-0.75-0.113-0.75-0.512V69.223c0-0.75,0.27-0.75,0.605-0.75H129.836z"/>
	
		<linearGradient id="SVGID_10_" gradientUnits="userSpaceOnUse" x1="275.583" y1="-294.7417" x2="275.583" y2="-306.7573" gradientTransform="matrix(0.75 0 0 -0.75 -87.7253 -149.1033)">
		<stop  offset="0" style="stop-color:#C4AA84"/>
		<stop  offset="0.15" style="stop-color:#FFE0B3"/>
		<stop  offset="0.25" style="stop-color:#FFEED7"/>
		<stop  offset="0.52" style="stop-color:#DFC297"/>
		<stop  offset="0.69" style="stop-color:#C7AD86"/>
		<stop  offset="0.8" style="stop-color:#BCA37E"/>
		<stop  offset="0.97" style="stop-color:#B19A77"/>
		<stop  offset="1" style="stop-color:#CBB189"/>
	</linearGradient>
	<path fill="url(#SVGID_10_)" d="M117.844,71.965h3v9h-3c-0.75,0-0.762-0.113-0.762-0.512l0.012-7.738
		c0-0.75,0.316-0.762,0.719-0.762L117.844,71.965z"/>
	
		<linearGradient id="SVGID_11_" gradientUnits="userSpaceOnUse" x1="275.583" y1="-294.7437" x2="275.583" y2="-306.7593" gradientTransform="matrix(0.75 0 0 -0.75 -87.7253 -129.7224)">
		<stop  offset="0" style="stop-color:#C4AA84"/>
		<stop  offset="0.15" style="stop-color:#FFE0B3"/>
		<stop  offset="0.25" style="stop-color:#FFEED7"/>
		<stop  offset="0.52" style="stop-color:#DFC297"/>
		<stop  offset="0.69" style="stop-color:#C7AD86"/>
		<stop  offset="0.8" style="stop-color:#BCA37E"/>
		<stop  offset="0.97" style="stop-color:#B19A77"/>
		<stop  offset="1" style="stop-color:#CBB189"/>
	</linearGradient>
	<path fill="url(#SVGID_11_)" d="M117.844,91.348h3v9h-3c-0.75,0-0.762-0.117-0.762-0.516l0.012-7.734
		c0-0.75,0.316-0.762,0.719-0.762L117.844,91.348z"/>
	
		<linearGradient id="SVGID_12_" gradientUnits="userSpaceOnUse" x1="275.583" y1="-294.7427" x2="275.583" y2="-306.7583" gradientTransform="matrix(0.75 0 0 -0.75 -87.7253 -110.3308)">
		<stop  offset="0" style="stop-color:#C4AA84"/>
		<stop  offset="0.15" style="stop-color:#FFE0B3"/>
		<stop  offset="0.25" style="stop-color:#FFEED7"/>
		<stop  offset="0.52" style="stop-color:#DFC297"/>
		<stop  offset="0.69" style="stop-color:#C7AD86"/>
		<stop  offset="0.8" style="stop-color:#BCA37E"/>
		<stop  offset="0.97" style="stop-color:#B19A77"/>
		<stop  offset="1" style="stop-color:#CBB189"/>
	</linearGradient>
	<path fill="url(#SVGID_12_)" d="M117.844,110.738h3v9h-3c-0.75,0-0.762-0.113-0.762-0.516l0.012-7.734
		c0-0.75,0.316-0.762,0.719-0.762L117.844,110.738z"/>
	
		<linearGradient id="SVGID_13_" gradientUnits="userSpaceOnUse" x1="-327.8657" y1="-294.7417" x2="-327.8657" y2="-306.7573" gradientTransform="matrix(-0.75 0 0 -0.75 -106.7888 -149.1033)">
		<stop  offset="0" style="stop-color:#C4AA84"/>
		<stop  offset="0.15" style="stop-color:#FFE0B3"/>
		<stop  offset="0.25" style="stop-color:#FFEED7"/>
		<stop  offset="0.52" style="stop-color:#DFC297"/>
		<stop  offset="0.69" style="stop-color:#C7AD86"/>
		<stop  offset="0.8" style="stop-color:#BCA37E"/>
		<stop  offset="0.97" style="stop-color:#B19A77"/>
		<stop  offset="1" style="stop-color:#CBB189"/>
	</linearGradient>
	<path fill="url(#SVGID_13_)" d="M140.23,71.965h-3v9h3c0.75,0,0.762-0.113,0.762-0.512l-0.012-7.738
		c0-0.75-0.316-0.762-0.719-0.762L140.23,71.965z"/>
	
		<linearGradient id="SVGID_14_" gradientUnits="userSpaceOnUse" x1="-327.8657" y1="-294.7437" x2="-327.8657" y2="-306.7593" gradientTransform="matrix(-0.75 0 0 -0.75 -106.7888 -129.7224)">
		<stop  offset="0" style="stop-color:#C4AA84"/>
		<stop  offset="0.15" style="stop-color:#FFE0B3"/>
		<stop  offset="0.25" style="stop-color:#FFEED7"/>
		<stop  offset="0.52" style="stop-color:#DFC297"/>
		<stop  offset="0.69" style="stop-color:#C7AD86"/>
		<stop  offset="0.8" style="stop-color:#BCA37E"/>
		<stop  offset="0.97" style="stop-color:#B19A77"/>
		<stop  offset="1" style="stop-color:#CBB189"/>
	</linearGradient>
	<path fill="url(#SVGID_14_)" d="M140.23,91.348h-3v9h3c0.75,0,0.762-0.117,0.762-0.516l-0.012-7.734
		c0-0.75-0.316-0.762-0.719-0.762L140.23,91.348z"/>
	
		<linearGradient id="SVGID_15_" gradientUnits="userSpaceOnUse" x1="-327.8657" y1="-294.7427" x2="-327.8657" y2="-306.7583" gradientTransform="matrix(-0.75 0 0 -0.75 -106.7888 -110.3308)">
		<stop  offset="0" style="stop-color:#C4AA84"/>
		<stop  offset="0.15" style="stop-color:#FFE0B3"/>
		<stop  offset="0.25" style="stop-color:#FFEED7"/>
		<stop  offset="0.52" style="stop-color:#DFC297"/>
		<stop  offset="0.69" style="stop-color:#C7AD86"/>
		<stop  offset="0.8" style="stop-color:#BCA37E"/>
		<stop  offset="0.97" style="stop-color:#B19A77"/>
		<stop  offset="1" style="stop-color:#CBB189"/>
	</linearGradient>
	<path fill="url(#SVGID_15_)" d="M140.23,110.738h-3v9h3c0.75,0,0.762-0.113,0.762-0.516l-0.012-7.734
		c0-0.75-0.316-0.762-0.719-0.762L140.23,110.738z"/>
	
		<linearGradient id="SVGID_16_" gradientUnits="userSpaceOnUse" x1="278.5908" y1="-294.7573" x2="278.5908" y2="-368.0493" gradientTransform="matrix(0.75 0 0 -0.75 -200.2751 -152.5955)">
		<stop  offset="0" style="stop-color:#C4AA84"/>
		<stop  offset="0.15" style="stop-color:#FFE0B3"/>
		<stop  offset="0.25" style="stop-color:#FFEED7"/>
		<stop  offset="0.52" style="stop-color:#DFC297"/>
		<stop  offset="0.69" style="stop-color:#C7AD86"/>
		<stop  offset="0.8" style="stop-color:#BCA37E"/>
		<stop  offset="0.97" style="stop-color:#B19A77"/>
		<stop  offset="1" style="stop-color:#CBB189"/>
	</linearGradient>
	<path fill="url(#SVGID_16_)" d="M5.293,68.473h6.75c0.75,0,0.742,0.324,0.742,0.727l0.008,53.273c0,0.75-0.289,0.969-0.625,0.969
		l-6.875-0.219c-0.75,0-0.75-0.113-0.75-0.512V69.223c0-0.75,0.27-0.75,0.605-0.75H5.293z"/>
	
		<linearGradient id="SVGID_17_" gradientUnits="userSpaceOnUse" x1="278.5889" y1="-294.7573" x2="278.5889" y2="-368.0493" gradientTransform="matrix(0.75 0 0 -0.75 -192.0745 -152.5955)">
		<stop  offset="0" style="stop-color:#C4AA84"/>
		<stop  offset="0.15" style="stop-color:#FFE0B3"/>
		<stop  offset="0.25" style="stop-color:#FFEED7"/>
		<stop  offset="0.52" style="stop-color:#DFC297"/>
		<stop  offset="0.69" style="stop-color:#C7AD86"/>
		<stop  offset="0.8" style="stop-color:#BCA37E"/>
		<stop  offset="0.97" style="stop-color:#B19A77"/>
		<stop  offset="1" style="stop-color:#CBB189"/>
	</linearGradient>
	<path fill="url(#SVGID_17_)" d="M13.492,68.473h6.75c0.75,0,0.742,0.324,0.742,0.727l0.008,53.273c0,0.75-0.285,0.969-0.625,0.969
		l-6.875-0.219c-0.75,0-0.75-0.113-0.75-0.512V69.223c0-0.75,0.27-0.75,0.609-0.75H13.492z"/>
	
		<linearGradient id="SVGID_18_" gradientUnits="userSpaceOnUse" x1="275.583" y1="-294.7417" x2="275.583" y2="-306.7573" gradientTransform="matrix(0.75 0 0 -0.75 -204.0686 -149.1033)">
		<stop  offset="0" style="stop-color:#C4AA84"/>
		<stop  offset="0.15" style="stop-color:#FFE0B3"/>
		<stop  offset="0.25" style="stop-color:#FFEED7"/>
		<stop  offset="0.52" style="stop-color:#DFC297"/>
		<stop  offset="0.69" style="stop-color:#C7AD86"/>
		<stop  offset="0.8" style="stop-color:#BCA37E"/>
		<stop  offset="0.97" style="stop-color:#B19A77"/>
		<stop  offset="1" style="stop-color:#CBB189"/>
	</linearGradient>
	<path fill="url(#SVGID_18_)" d="M1.5,71.965h3v9h-3c-0.75,0-0.762-0.113-0.762-0.512l0.012-7.738c0-0.75,0.316-0.762,0.719-0.762
		L1.5,71.965z"/>
	
		<linearGradient id="SVGID_19_" gradientUnits="userSpaceOnUse" x1="275.583" y1="-294.7437" x2="275.583" y2="-306.7593" gradientTransform="matrix(0.75 0 0 -0.75 -204.0686 -129.7224)">
		<stop  offset="0" style="stop-color:#C4AA84"/>
		<stop  offset="0.15" style="stop-color:#FFE0B3"/>
		<stop  offset="0.25" style="stop-color:#FFEED7"/>
		<stop  offset="0.52" style="stop-color:#DFC297"/>
		<stop  offset="0.69" style="stop-color:#C7AD86"/>
		<stop  offset="0.8" style="stop-color:#BCA37E"/>
		<stop  offset="0.97" style="stop-color:#B19A77"/>
		<stop  offset="1" style="stop-color:#CBB189"/>
	</linearGradient>
	<path fill="url(#SVGID_19_)" d="M1.5,91.348h3v9h-3c-0.75,0-0.762-0.117-0.762-0.516l0.012-7.734c0-0.75,0.316-0.762,0.719-0.762
		L1.5,91.348z"/>
	
		<linearGradient id="SVGID_20_" gradientUnits="userSpaceOnUse" x1="275.583" y1="-294.7427" x2="275.583" y2="-306.7583" gradientTransform="matrix(0.75 0 0 -0.75 -204.0686 -110.3308)">
		<stop  offset="0" style="stop-color:#C4AA84"/>
		<stop  offset="0.15" style="stop-color:#FFE0B3"/>
		<stop  offset="0.25" style="stop-color:#FFEED7"/>
		<stop  offset="0.52" style="stop-color:#DFC297"/>
		<stop  offset="0.69" style="stop-color:#C7AD86"/>
		<stop  offset="0.8" style="stop-color:#BCA37E"/>
		<stop  offset="0.97" style="stop-color:#B19A77"/>
		<stop  offset="1" style="stop-color:#CBB189"/>
	</linearGradient>
	<path fill="url(#SVGID_20_)" d="M1.5,110.738h3v9h-3c-0.75,0-0.762-0.113-0.762-0.516l0.012-7.734c0-0.75,0.316-0.762,0.719-0.762
		L1.5,110.738z"/>
	
		<linearGradient id="SVGID_21_" gradientUnits="userSpaceOnUse" x1="-327.8657" y1="-294.7417" x2="-327.8657" y2="-306.7573" gradientTransform="matrix(-0.75 0 0 -0.75 -223.1326 -149.1033)">
		<stop  offset="0" style="stop-color:#C4AA84"/>
		<stop  offset="0.15" style="stop-color:#FFE0B3"/>
		<stop  offset="0.25" style="stop-color:#FFEED7"/>
		<stop  offset="0.52" style="stop-color:#DFC297"/>
		<stop  offset="0.69" style="stop-color:#C7AD86"/>
		<stop  offset="0.8" style="stop-color:#BCA37E"/>
		<stop  offset="0.97" style="stop-color:#B19A77"/>
		<stop  offset="1" style="stop-color:#CBB189"/>
	</linearGradient>
	<path fill="url(#SVGID_21_)" d="M23.887,71.965h-3v9h3c0.75,0,0.762-0.113,0.762-0.512l-0.012-7.738
		c0-0.75-0.316-0.762-0.719-0.762L23.887,71.965z"/>
	
		<linearGradient id="SVGID_22_" gradientUnits="userSpaceOnUse" x1="-327.8657" y1="-294.7437" x2="-327.8657" y2="-306.7593" gradientTransform="matrix(-0.75 0 0 -0.75 -223.1326 -129.7224)">
		<stop  offset="0" style="stop-color:#C4AA84"/>
		<stop  offset="0.15" style="stop-color:#FFE0B3"/>
		<stop  offset="0.25" style="stop-color:#FFEED7"/>
		<stop  offset="0.52" style="stop-color:#DFC297"/>
		<stop  offset="0.69" style="stop-color:#C7AD86"/>
		<stop  offset="0.8" style="stop-color:#BCA37E"/>
		<stop  offset="0.97" style="stop-color:#B19A77"/>
		<stop  offset="1" style="stop-color:#CBB189"/>
	</linearGradient>
	<path fill="url(#SVGID_22_)" d="M23.887,91.348h-3v9h3c0.75,0,0.762-0.117,0.762-0.516l-0.012-7.734
		c0-0.75-0.316-0.762-0.719-0.762L23.887,91.348z"/>
	
		<linearGradient id="SVGID_23_" gradientUnits="userSpaceOnUse" x1="-327.8657" y1="-294.7427" x2="-327.8657" y2="-306.7583" gradientTransform="matrix(-0.75 0 0 -0.75 -223.1326 -110.3308)">
		<stop  offset="0" style="stop-color:#C4AA84"/>
		<stop  offset="0.15" style="stop-color:#FFE0B3"/>
		<stop  offset="0.25" style="stop-color:#FFEED7"/>
		<stop  offset="0.52" style="stop-color:#DFC297"/>
		<stop  offset="0.69" style="stop-color:#C7AD86"/>
		<stop  offset="0.8" style="stop-color:#BCA37E"/>
		<stop  offset="0.97" style="stop-color:#B19A77"/>
		<stop  offset="1" style="stop-color:#CBB189"/>
	</linearGradient>
	<path fill="url(#SVGID_23_)" d="M23.887,110.738h-3v9h3c0.75,0,0.762-0.113,0.762-0.516l-0.012-7.734
		c0-0.75-0.316-0.762-0.719-0.762L23.887,110.738z"/>
	
		<linearGradient id="SVGID_24_" gradientUnits="userSpaceOnUse" x1="274.0928" y1="-294.7612" x2="274.0928" y2="-367.7612" gradientTransform="matrix(0.75 0 0 -0.75 -193.1672 -152.5935)">
		<stop  offset="0" style="stop-color:#B99645"/>
		<stop  offset="0.15" style="stop-color:#F2C870"/>
		<stop  offset="0.25" style="stop-color:#F7E1BD"/>
		<stop  offset="0.52" style="stop-color:#D3AB4F"/>
		<stop  offset="0.69" style="stop-color:#BC9846"/>
		<stop  offset="0.8" style="stop-color:#B18F41"/>
		<stop  offset="0.97" style="stop-color:#A7873D"/>
		<stop  offset="1" style="stop-color:#C09C48"/>
	</linearGradient>
	<path fill="url(#SVGID_24_)" d="M11.652,68.477h1.5v54.75h-1.5V68.477z"/>
	
		<linearGradient id="SVGID_25_" gradientUnits="userSpaceOnUse" x1="274.0908" y1="-294.7612" x2="274.0908" y2="-367.7612" gradientTransform="matrix(0.75 0 0 -0.75 -76.5725 -152.5935)">
		<stop  offset="0" style="stop-color:#B99645"/>
		<stop  offset="0.15" style="stop-color:#F2C870"/>
		<stop  offset="0.25" style="stop-color:#F7E1BD"/>
		<stop  offset="0.52" style="stop-color:#D3AB4F"/>
		<stop  offset="0.69" style="stop-color:#BC9846"/>
		<stop  offset="0.8" style="stop-color:#B18F41"/>
		<stop  offset="0.97" style="stop-color:#A7873D"/>
		<stop  offset="1" style="stop-color:#C09C48"/>
	</linearGradient>
	<path fill="url(#SVGID_25_)" d="M128.246,68.477h1.5v54.75h-1.5V68.477z"/>
</g>
</svg>
