<?xml version="1.0" encoding="utf-8"?>
<!-- Generator: Adobe Illustrator 16.0.0, SVG Export Plug-In . SVG Version: 6.00 Build 0)  -->
<!DOCTYPE svg PUBLIC "-//W3C//DTD SVG 1.1//EN" "http://www.w3.org/Graphics/SVG/1.1/DTD/svg11.dtd">
<svg preserveAspectRatio="none" version="1.1" id="图层_1" xmlns="http://www.w3.org/2000/svg" xmlns:xlink="http://www.w3.org/1999/xlink" x="0px" y="0px"
	 width="111.56px" height="140.254px" viewBox="14.949 0.738 111.56 140.254" enable-background="new 14.949 0.738 111.56 140.254"
	 xml:space="preserve">
<g id="surface171">
	
		<linearGradient id="SVGID_1_" gradientUnits="userSpaceOnUse" x1="-571.5889" y1="43.1172" x2="-561.585" y2="43.1172" gradientTransform="matrix(-0.5303 -0.5303 0.5303 -0.5303 -207.0401 -234.5625)">
		<stop  offset="0" style="stop-color:#C4AA84"/>
		<stop  offset="0.15" style="stop-color:#FFE0B3"/>
		<stop  offset="0.25" style="stop-color:#FFEED7"/>
		<stop  offset="0.52" style="stop-color:#DFC297"/>
		<stop  offset="0.69" style="stop-color:#C7AD86"/>
		<stop  offset="0.8" style="stop-color:#BCA37E"/>
		<stop  offset="0.97" style="stop-color:#B19A77"/>
		<stop  offset="1" style="stop-color:#CBB189"/>
	</linearGradient>
	<path fill="url(#SVGID_1_)" d="M125.32,39.336l-5.305-5.305c0,0,0.012,0.113-0.051,0.176l-12.676,12.555l5.305,5.301L125.32,39.336
		c0,0-0.051-0.051-0.117-0.117L125.32,39.336z"/>
	
		<linearGradient id="SVGID_2_" gradientUnits="userSpaceOnUse" x1="503.9932" y1="473.0908" x2="503.9932" y2="407.0908" gradientTransform="matrix(0 0.75 0.75 0 -286.0833 -307.1824)">
		<stop  offset="0" style="stop-color:#C4AA84"/>
		<stop  offset="0.15" style="stop-color:#FFE0B3"/>
		<stop  offset="0.25" style="stop-color:#FFEED7"/>
		<stop  offset="0.52" style="stop-color:#DFC297"/>
		<stop  offset="0.69" style="stop-color:#C7AD86"/>
		<stop  offset="0.8" style="stop-color:#BCA37E"/>
		<stop  offset="0.97" style="stop-color:#B19A77"/>
		<stop  offset="1" style="stop-color:#CBB189"/>
	</linearGradient>
	<path fill="url(#SVGID_2_)" d="M68.734,20.938v99.75h-49.5v-99.75H68.734z"/>
	
		<linearGradient id="SVGID_3_" gradientUnits="userSpaceOnUse" x1="-571.5889" y1="0.6069" x2="-526.5889" y2="0.6069" gradientTransform="matrix(-0.5303 -0.5303 0.5303 -0.5303 -205.6378 -218.5723)">
		<stop  offset="0" style="stop-color:#C4AA84"/>
		<stop  offset="0.15" style="stop-color:#FFE0B3"/>
		<stop  offset="0.25" style="stop-color:#FFEED7"/>
		<stop  offset="0.52" style="stop-color:#DFC297"/>
		<stop  offset="0.69" style="stop-color:#C7AD86"/>
		<stop  offset="0.8" style="stop-color:#BCA37E"/>
		<stop  offset="0.97" style="stop-color:#B19A77"/>
		<stop  offset="1" style="stop-color:#CBB189"/>
	</linearGradient>
	<path fill="url(#SVGID_3_)" d="M126.191,54.797l-22.805-22.805c0,0-0.707-0.25-0.996,0.039L68.918,65.402
		c0,0-6.328,6.77-6.422,23.402c0.055,16.902,6.41,24.34,6.41,24.34l57.285-57.285c0.531-0.531,0.297-0.77,0.004-1.059
		L126.191,54.797z"/>
	
		<linearGradient id="SVGID_4_" gradientUnits="userSpaceOnUse" x1="-571.5859" y1="51.6177" x2="-526.585" y2="51.6177" gradientTransform="matrix(-0.5303 -0.5303 0.5303 -0.5303 -213.2101 -210.3575)">
		<stop  offset="0" style="stop-color:#C3A156"/>
		<stop  offset="0.15" style="stop-color:#FED681"/>
		<stop  offset="0.25" style="stop-color:#FEE8C2"/>
		<stop  offset="0.52" style="stop-color:#DEB863"/>
		<stop  offset="0.69" style="stop-color:#C6A457"/>
		<stop  offset="0.8" style="stop-color:#BB9B52"/>
		<stop  offset="0.97" style="stop-color:#B0924D"/>
		<stop  offset="1" style="stop-color:#CBA859"/>
	</linearGradient>
	<path fill="url(#SVGID_4_)" d="M95.285,39.676l-3.711,3.711l23.863,23.867l3.711-3.711L95.285,39.676z"/>
	
		<linearGradient id="SVGID_5_" gradientUnits="userSpaceOnUse" x1="-571.5869" y1="53.1177" x2="-526.5859" y2="53.1177" gradientTransform="matrix(-0.5303 -0.5303 0.5303 -0.5303 -208.214 -215.166)">
		<stop  offset="0" style="stop-color:#C3A156"/>
		<stop  offset="0.15" style="stop-color:#FED681"/>
		<stop  offset="0.25" style="stop-color:#FEE8C2"/>
		<stop  offset="0.52" style="stop-color:#DEB863"/>
		<stop  offset="0.69" style="stop-color:#C6A457"/>
		<stop  offset="0.8" style="stop-color:#BB9B52"/>
		<stop  offset="0.97" style="stop-color:#B0924D"/>
		<stop  offset="1" style="stop-color:#CBA859"/>
	</linearGradient>
	<path fill="url(#SVGID_5_)" d="M100.281,34.867l-2.121,2.121l23.863,23.867l2.121-2.121L100.281,34.867z"/>
	
		<linearGradient id="SVGID_6_" gradientUnits="userSpaceOnUse" x1="438.4912" y1="473.0908" x2="438.4912" y2="407.0908" gradientTransform="matrix(0 0.75 0.75 0 -286.0833 -307.1653)">
		<stop  offset="0" style="stop-color:#B99645"/>
		<stop  offset="0.15" style="stop-color:#F2C870"/>
		<stop  offset="0.25" style="stop-color:#F7E1BD"/>
		<stop  offset="0.52" style="stop-color:#D3AB4F"/>
		<stop  offset="0.69" style="stop-color:#BC9846"/>
		<stop  offset="0.8" style="stop-color:#B18F41"/>
		<stop  offset="0.97" style="stop-color:#A7873D"/>
		<stop  offset="1" style="stop-color:#C09C48"/>
	</linearGradient>
	<path fill="url(#SVGID_6_)" d="M68.734,20.953v1.5h-49.5v-1.5H68.734z"/>
	
		<linearGradient id="SVGID_7_" gradientUnits="userSpaceOnUse" x1="438.4893" y1="473.0908" x2="438.4893" y2="407.0908" gradientTransform="matrix(0 0.75 0.75 0 -286.0833 -208.886)">
		<stop  offset="0" style="stop-color:#B99645"/>
		<stop  offset="0.15" style="stop-color:#F2C870"/>
		<stop  offset="0.25" style="stop-color:#F7E1BD"/>
		<stop  offset="0.52" style="stop-color:#D3AB4F"/>
		<stop  offset="0.69" style="stop-color:#BC9846"/>
		<stop  offset="0.8" style="stop-color:#B18F41"/>
		<stop  offset="0.97" style="stop-color:#A7873D"/>
		<stop  offset="1" style="stop-color:#C09C48"/>
	</linearGradient>
	<path fill="url(#SVGID_7_)" d="M68.734,119.23v1.5h-49.5v-1.5H68.734z"/>
	
		<linearGradient id="SVGID_8_" gradientUnits="userSpaceOnUse" x1="442.9902" y1="473.0918" x2="442.9902" y2="396.0918" gradientTransform="matrix(0 0.75 0.75 0 -282.116 -207.2307)">
		<stop  offset="0" style="stop-color:#C4AA84"/>
		<stop  offset="0.15" style="stop-color:#FFE0B3"/>
		<stop  offset="0.25" style="stop-color:#FFEED7"/>
		<stop  offset="0.52" style="stop-color:#DFC297"/>
		<stop  offset="0.69" style="stop-color:#C7AD86"/>
		<stop  offset="0.8" style="stop-color:#BCA37E"/>
		<stop  offset="0.97" style="stop-color:#B19A77"/>
		<stop  offset="1" style="stop-color:#CBB189"/>
	</linearGradient>
	<path fill="url(#SVGID_8_)" d="M72.703,121.637v6.75c0,0.75-0.34,0.742-0.754,0.742l-56.246,0.008c0,0-0.391-0.285-0.391-0.625
		l-0.359-6.875c0-0.75,0.707-0.75,1.121-0.75h55.879c0.75,0,0.75,0.27,0.75,0.605V121.637z"/>
	
		<linearGradient id="SVGID_9_" gradientUnits="userSpaceOnUse" x1="442.9932" y1="473.0918" x2="442.9932" y2="396.0918" gradientTransform="matrix(0 0.75 0.75 0 -282.116 -199.03)">
		<stop  offset="0" style="stop-color:#C4AA84"/>
		<stop  offset="0.15" style="stop-color:#FFE0B3"/>
		<stop  offset="0.25" style="stop-color:#FFEED7"/>
		<stop  offset="0.52" style="stop-color:#DFC297"/>
		<stop  offset="0.69" style="stop-color:#C7AD86"/>
		<stop  offset="0.8" style="stop-color:#BCA37E"/>
		<stop  offset="0.97" style="stop-color:#B19A77"/>
		<stop  offset="1" style="stop-color:#CBB189"/>
	</linearGradient>
	<path fill="url(#SVGID_9_)" d="M72.703,129.84v6.75c0,0.75-0.34,0.738-0.754,0.738l-56.246,0.012c0,0-0.391-0.289-0.391-0.625
		l-0.359-6.875c0-0.75,0.707-0.75,1.121-0.75h55.879c0.75,0,0.75,0.266,0.75,0.605V129.84z"/>
	
		<linearGradient id="SVGID_10_" gradientUnits="userSpaceOnUse" x1="439.9824" y1="473.1084" x2="439.9824" y2="460.0928" gradientTransform="matrix(0 0.75 0.75 0 -285.7615 -211.0242)">
		<stop  offset="0" style="stop-color:#C4AA84"/>
		<stop  offset="0.15" style="stop-color:#FFE0B3"/>
		<stop  offset="0.25" style="stop-color:#FFEED7"/>
		<stop  offset="0.52" style="stop-color:#DFC297"/>
		<stop  offset="0.69" style="stop-color:#C7AD86"/>
		<stop  offset="0.8" style="stop-color:#BCA37E"/>
		<stop  offset="0.97" style="stop-color:#B19A77"/>
		<stop  offset="1" style="stop-color:#CBB189"/>
	</linearGradient>
	<path fill="url(#SVGID_10_)" d="M69.059,117.844v3h-9.75v-3c0-0.75,0.473-0.762,0.887-0.762l8.113,0.012
		c0.75,0,0.762,0.316,0.762,0.723L69.059,117.844z"/>
	
		<linearGradient id="SVGID_11_" gradientUnits="userSpaceOnUse" x1="439.9824" y1="473.1045" x2="439.9824" y2="460.0889" gradientTransform="matrix(0 0.75 0.75 0 -305.9968 -211.0242)">
		<stop  offset="0" style="stop-color:#C4AA84"/>
		<stop  offset="0.15" style="stop-color:#FFE0B3"/>
		<stop  offset="0.25" style="stop-color:#FFEED7"/>
		<stop  offset="0.52" style="stop-color:#DFC297"/>
		<stop  offset="0.69" style="stop-color:#C7AD86"/>
		<stop  offset="0.8" style="stop-color:#BCA37E"/>
		<stop  offset="0.97" style="stop-color:#B19A77"/>
		<stop  offset="1" style="stop-color:#CBB189"/>
	</linearGradient>
	<path fill="url(#SVGID_11_)" d="M48.82,117.844v3h-9.75v-3c0-0.75,0.473-0.762,0.891-0.762l8.109,0.012
		c0.75,0,0.762,0.316,0.762,0.723L48.82,117.844z"/>
	
		<linearGradient id="SVGID_12_" gradientUnits="userSpaceOnUse" x1="439.9824" y1="473.1055" x2="439.9824" y2="460.0898" gradientTransform="matrix(0 0.75 0.75 0 -326.2429 -211.0242)">
		<stop  offset="0" style="stop-color:#C4AA84"/>
		<stop  offset="0.15" style="stop-color:#FFE0B3"/>
		<stop  offset="0.25" style="stop-color:#FFEED7"/>
		<stop  offset="0.52" style="stop-color:#DFC297"/>
		<stop  offset="0.69" style="stop-color:#C7AD86"/>
		<stop  offset="0.8" style="stop-color:#BCA37E"/>
		<stop  offset="0.97" style="stop-color:#B19A77"/>
		<stop  offset="1" style="stop-color:#CBB189"/>
	</linearGradient>
	<path fill="url(#SVGID_12_)" d="M28.574,117.844v3h-9.75v-3c0-0.75,0.477-0.762,0.891-0.762l8.109,0.012
		c0.75,0,0.762,0.316,0.762,0.723L28.574,117.844z"/>
	
		<linearGradient id="SVGID_13_" gradientUnits="userSpaceOnUse" x1="-492.2642" y1="473.1084" x2="-492.2642" y2="460.0928" gradientTransform="matrix(0 -0.75 0.75 0 -285.7615 -230.0876)">
		<stop  offset="0" style="stop-color:#C4AA84"/>
		<stop  offset="0.15" style="stop-color:#FFE0B3"/>
		<stop  offset="0.25" style="stop-color:#FFEED7"/>
		<stop  offset="0.52" style="stop-color:#DFC297"/>
		<stop  offset="0.69" style="stop-color:#C7AD86"/>
		<stop  offset="0.8" style="stop-color:#BCA37E"/>
		<stop  offset="0.97" style="stop-color:#B19A77"/>
		<stop  offset="1" style="stop-color:#CBB189"/>
	</linearGradient>
	<path fill="url(#SVGID_13_)" d="M69.059,140.23v-3h-9.75v3c0,0.75,0.473,0.762,0.891,0.762l8.109-0.012
		c0.75,0,0.762-0.316,0.762-0.719L69.059,140.23z"/>
	
		<linearGradient id="SVGID_14_" gradientUnits="userSpaceOnUse" x1="-492.2642" y1="473.1045" x2="-492.2642" y2="460.0889" gradientTransform="matrix(0 -0.75 0.75 0 -305.9968 -230.0876)">
		<stop  offset="0" style="stop-color:#C4AA84"/>
		<stop  offset="0.15" style="stop-color:#FFE0B3"/>
		<stop  offset="0.25" style="stop-color:#FFEED7"/>
		<stop  offset="0.52" style="stop-color:#DFC297"/>
		<stop  offset="0.69" style="stop-color:#C7AD86"/>
		<stop  offset="0.8" style="stop-color:#BCA37E"/>
		<stop  offset="0.97" style="stop-color:#B19A77"/>
		<stop  offset="1" style="stop-color:#CBB189"/>
	</linearGradient>
	<path fill="url(#SVGID_14_)" d="M48.82,140.23v-3h-9.75v3c0,0.75,0.473,0.762,0.891,0.762l8.109-0.012
		c0.75,0,0.762-0.316,0.762-0.719L48.82,140.23z"/>
	
		<linearGradient id="SVGID_15_" gradientUnits="userSpaceOnUse" x1="-492.2642" y1="473.1055" x2="-492.2642" y2="460.0898" gradientTransform="matrix(0 -0.75 0.75 0 -326.2429 -230.0876)">
		<stop  offset="0" style="stop-color:#C4AA84"/>
		<stop  offset="0.15" style="stop-color:#FFE0B3"/>
		<stop  offset="0.25" style="stop-color:#FFEED7"/>
		<stop  offset="0.52" style="stop-color:#DFC297"/>
		<stop  offset="0.69" style="stop-color:#C7AD86"/>
		<stop  offset="0.8" style="stop-color:#BCA37E"/>
		<stop  offset="0.97" style="stop-color:#B19A77"/>
		<stop  offset="1" style="stop-color:#CBB189"/>
	</linearGradient>
	<path fill="url(#SVGID_15_)" d="M28.574,140.23v-3h-9.75v3c0,0.75,0.477,0.762,0.891,0.762l8.109-0.012
		c0.75,0,0.762-0.316,0.762-0.719L28.574,140.23z"/>
	
		<linearGradient id="SVGID_16_" gradientUnits="userSpaceOnUse" x1="442.9893" y1="473.0928" x2="442.9893" y2="396.0928" gradientTransform="matrix(0 0.75 0.75 0 -282.1165 -323.574)">
		<stop  offset="0" style="stop-color:#C4AA84"/>
		<stop  offset="0.15" style="stop-color:#FFE0B3"/>
		<stop  offset="0.25" style="stop-color:#FFEED7"/>
		<stop  offset="0.52" style="stop-color:#DFC297"/>
		<stop  offset="0.69" style="stop-color:#C7AD86"/>
		<stop  offset="0.8" style="stop-color:#BCA37E"/>
		<stop  offset="0.97" style="stop-color:#B19A77"/>
		<stop  offset="1" style="stop-color:#CBB189"/>
	</linearGradient>
	<path fill="url(#SVGID_16_)" d="M72.703,5.293v6.75c0,0.75-0.34,0.742-0.754,0.742l-56.246,0.008c0,0-0.391-0.285-0.391-0.625
		l-0.359-6.875c0-0.75,0.707-0.75,1.121-0.75h55.879c0.75,0,0.75,0.27,0.75,0.605V5.293z"/>
	
		<linearGradient id="SVGID_17_" gradientUnits="userSpaceOnUse" x1="442.9932" y1="473.0928" x2="442.9932" y2="396.0928" gradientTransform="matrix(0 0.75 0.75 0 -282.1165 -315.3733)">
		<stop  offset="0" style="stop-color:#C4AA84"/>
		<stop  offset="0.15" style="stop-color:#FFE0B3"/>
		<stop  offset="0.25" style="stop-color:#FFEED7"/>
		<stop  offset="0.52" style="stop-color:#DFC297"/>
		<stop  offset="0.69" style="stop-color:#C7AD86"/>
		<stop  offset="0.8" style="stop-color:#BCA37E"/>
		<stop  offset="0.97" style="stop-color:#B19A77"/>
		<stop  offset="1" style="stop-color:#CBB189"/>
	</linearGradient>
	<path fill="url(#SVGID_17_)" d="M72.703,13.496v6.75c0,0.75-0.34,0.738-0.754,0.738l-56.246,0.012c0,0-0.391-0.289-0.391-0.625
		l-0.359-6.875c0-0.75,0.707-0.75,1.121-0.75h55.879c0.75,0,0.75,0.266,0.75,0.605V13.496z"/>
	
		<linearGradient id="SVGID_18_" gradientUnits="userSpaceOnUse" x1="439.9814" y1="473.1084" x2="439.9814" y2="460.0928" gradientTransform="matrix(0 0.75 0.75 0 -285.7615 -327.3674)">
		<stop  offset="0" style="stop-color:#C4AA84"/>
		<stop  offset="0.15" style="stop-color:#FFE0B3"/>
		<stop  offset="0.25" style="stop-color:#FFEED7"/>
		<stop  offset="0.52" style="stop-color:#DFC297"/>
		<stop  offset="0.69" style="stop-color:#C7AD86"/>
		<stop  offset="0.8" style="stop-color:#BCA37E"/>
		<stop  offset="0.97" style="stop-color:#B19A77"/>
		<stop  offset="1" style="stop-color:#CBB189"/>
	</linearGradient>
	<path fill="url(#SVGID_18_)" d="M69.059,1.5v3h-9.75v-3c0-0.75,0.473-0.762,0.887-0.762l8.113,0.012
		c0.75,0,0.762,0.316,0.762,0.723L69.059,1.5z"/>
	
		<linearGradient id="SVGID_19_" gradientUnits="userSpaceOnUse" x1="439.9814" y1="473.1045" x2="439.9814" y2="460.0889" gradientTransform="matrix(0 0.75 0.75 0 -305.9968 -327.3674)">
		<stop  offset="0" style="stop-color:#C4AA84"/>
		<stop  offset="0.15" style="stop-color:#FFE0B3"/>
		<stop  offset="0.25" style="stop-color:#FFEED7"/>
		<stop  offset="0.52" style="stop-color:#DFC297"/>
		<stop  offset="0.69" style="stop-color:#C7AD86"/>
		<stop  offset="0.8" style="stop-color:#BCA37E"/>
		<stop  offset="0.97" style="stop-color:#B19A77"/>
		<stop  offset="1" style="stop-color:#CBB189"/>
	</linearGradient>
	<path fill="url(#SVGID_19_)" d="M48.82,1.5v3h-9.75v-3c0-0.75,0.473-0.762,0.891-0.762L48.07,0.75c0.75,0,0.762,0.316,0.762,0.723
		L48.82,1.5z"/>
	
		<linearGradient id="SVGID_20_" gradientUnits="userSpaceOnUse" x1="439.9814" y1="473.1055" x2="439.9814" y2="460.0898" gradientTransform="matrix(0 0.75 0.75 0 -326.2429 -327.3674)">
		<stop  offset="0" style="stop-color:#C4AA84"/>
		<stop  offset="0.15" style="stop-color:#FFE0B3"/>
		<stop  offset="0.25" style="stop-color:#FFEED7"/>
		<stop  offset="0.52" style="stop-color:#DFC297"/>
		<stop  offset="0.69" style="stop-color:#C7AD86"/>
		<stop  offset="0.8" style="stop-color:#BCA37E"/>
		<stop  offset="0.97" style="stop-color:#B19A77"/>
		<stop  offset="1" style="stop-color:#CBB189"/>
	</linearGradient>
	<path fill="url(#SVGID_20_)" d="M28.574,1.5v3h-9.75v-3c0-0.75,0.477-0.762,0.891-0.762l8.109,0.012
		c0.75,0,0.762,0.316,0.762,0.723L28.574,1.5z"/>
	
		<linearGradient id="SVGID_21_" gradientUnits="userSpaceOnUse" x1="-492.2642" y1="473.1084" x2="-492.2642" y2="460.0928" gradientTransform="matrix(0 -0.75 0.75 0 -285.7615 -346.4314)">
		<stop  offset="0" style="stop-color:#C4AA84"/>
		<stop  offset="0.15" style="stop-color:#FFE0B3"/>
		<stop  offset="0.25" style="stop-color:#FFEED7"/>
		<stop  offset="0.52" style="stop-color:#DFC297"/>
		<stop  offset="0.69" style="stop-color:#C7AD86"/>
		<stop  offset="0.8" style="stop-color:#BCA37E"/>
		<stop  offset="0.97" style="stop-color:#B19A77"/>
		<stop  offset="1" style="stop-color:#CBB189"/>
	</linearGradient>
	<path fill="url(#SVGID_21_)" d="M69.059,23.887v-3h-9.75v3c0,0.75,0.473,0.762,0.891,0.762l8.109-0.012
		c0.75,0,0.762-0.316,0.762-0.719L69.059,23.887z"/>
	
		<linearGradient id="SVGID_22_" gradientUnits="userSpaceOnUse" x1="-492.2642" y1="473.1045" x2="-492.2642" y2="460.0889" gradientTransform="matrix(0 -0.75 0.75 0 -305.9968 -346.4314)">
		<stop  offset="0" style="stop-color:#C4AA84"/>
		<stop  offset="0.15" style="stop-color:#FFE0B3"/>
		<stop  offset="0.25" style="stop-color:#FFEED7"/>
		<stop  offset="0.52" style="stop-color:#DFC297"/>
		<stop  offset="0.69" style="stop-color:#C7AD86"/>
		<stop  offset="0.8" style="stop-color:#BCA37E"/>
		<stop  offset="0.97" style="stop-color:#B19A77"/>
		<stop  offset="1" style="stop-color:#CBB189"/>
	</linearGradient>
	<path fill="url(#SVGID_22_)" d="M48.82,23.887v-3h-9.75v3c0,0.75,0.473,0.762,0.891,0.762l8.109-0.012
		c0.75,0,0.762-0.316,0.762-0.719L48.82,23.887z"/>
	
		<linearGradient id="SVGID_23_" gradientUnits="userSpaceOnUse" x1="-492.2642" y1="473.1055" x2="-492.2642" y2="460.0898" gradientTransform="matrix(0 -0.75 0.75 0 -326.2429 -346.4314)">
		<stop  offset="0" style="stop-color:#C4AA84"/>
		<stop  offset="0.15" style="stop-color:#FFE0B3"/>
		<stop  offset="0.25" style="stop-color:#FFEED7"/>
		<stop  offset="0.52" style="stop-color:#DFC297"/>
		<stop  offset="0.69" style="stop-color:#C7AD86"/>
		<stop  offset="0.8" style="stop-color:#BCA37E"/>
		<stop  offset="0.97" style="stop-color:#B19A77"/>
		<stop  offset="1" style="stop-color:#CBB189"/>
	</linearGradient>
	<path fill="url(#SVGID_23_)" d="M28.574,23.887v-3h-9.75v3c0,0.75,0.477,0.762,0.891,0.762l8.109-0.012
		c0.75,0,0.762-0.316,0.762-0.719L28.574,23.887z"/>
	
		<linearGradient id="SVGID_24_" gradientUnits="userSpaceOnUse" x1="438.4912" y1="473.0898" x2="438.4912" y2="396.0898" gradientTransform="matrix(0 0.75 0.75 0 -282.1179 -316.4661)">
		<stop  offset="0" style="stop-color:#B99645"/>
		<stop  offset="0.15" style="stop-color:#F2C870"/>
		<stop  offset="0.25" style="stop-color:#F7E1BD"/>
		<stop  offset="0.52" style="stop-color:#D3AB4F"/>
		<stop  offset="0.69" style="stop-color:#BC9846"/>
		<stop  offset="0.8" style="stop-color:#B18F41"/>
		<stop  offset="0.97" style="stop-color:#A7873D"/>
		<stop  offset="1" style="stop-color:#C09C48"/>
	</linearGradient>
	<path fill="url(#SVGID_24_)" d="M72.699,11.652v1.5h-57.75v-1.5H72.699z"/>
	
		<linearGradient id="SVGID_25_" gradientUnits="userSpaceOnUse" x1="438.4902" y1="473.0898" x2="438.4902" y2="396.0898" gradientTransform="matrix(0 0.75 0.75 0 -282.1179 -199.8713)">
		<stop  offset="0" style="stop-color:#B99645"/>
		<stop  offset="0.15" style="stop-color:#F2C870"/>
		<stop  offset="0.25" style="stop-color:#F7E1BD"/>
		<stop  offset="0.52" style="stop-color:#D3AB4F"/>
		<stop  offset="0.69" style="stop-color:#BC9846"/>
		<stop  offset="0.8" style="stop-color:#B18F41"/>
		<stop  offset="0.97" style="stop-color:#A7873D"/>
		<stop  offset="1" style="stop-color:#C09C48"/>
	</linearGradient>
	<path fill="url(#SVGID_25_)" d="M72.699,128.246v1.5h-57.75v-1.5H72.699z"/>
</g>
</svg>
