<?xml version="1.0" encoding="utf-8"?>
<!-- Generator: Adobe Illustrator 16.0.0, SVG Export Plug-In . SVG Version: 6.00 Build 0)  -->
<!DOCTYPE svg PUBLIC "-//W3C//DTD SVG 1.1//EN" "http://www.w3.org/Graphics/SVG/1.1/DTD/svg11.dtd">
<svg preserveAspectRatio="none" version="1.1" id="图层_1" xmlns="http://www.w3.org/2000/svg" xmlns:xlink="http://www.w3.org/1999/xlink" x="0px" y="0px"
	 width="140.453px" height="81.367px" viewBox="0.742 29.34 140.453 81.367" enable-background="new 0.742 29.34 140.453 81.367"
	 xml:space="preserve">
<g id="surface161">
	
		<linearGradient id="SVGID_1_" gradientUnits="userSpaceOnUse" x1="289.7305" y1="-295.2568" x2="273.0898" y2="-295.2568" gradientTransform="matrix(0.75 0 0 -0.75 -153.7131 -175.4158)">
		<stop  offset="0" style="stop-color:#A6B4B9"/>
		<stop  offset="0.15" style="stop-color:#DCECF2"/>
		<stop  offset="0.25" style="stop-color:#EBF4F7"/>
		<stop  offset="0.52" style="stop-color:#BECED3"/>
		<stop  offset="0.69" style="stop-color:#A9B7BC"/>
		<stop  offset="0.8" style="stop-color:#9FADB1"/>
		<stop  offset="0.97" style="stop-color:#96A3A7"/>
		<stop  offset="1" style="stop-color:#ADBBC0"/>
	</linearGradient>
	<path fill="url(#SVGID_1_)" d="M51.855,45.652h11.25c0,0,0.48,0.172,0.48,0.383l-12.48,0.367c0-0.75,0.164-0.75,0.375-0.75H51.855z
		"/>
	
		<linearGradient id="SVGID_2_" gradientUnits="userSpaceOnUse" x1="-328.356" y1="-294.7573" x2="-328.356" y2="-340.7573" gradientTransform="matrix(-0.75 0 0 -0.75 -136.4978 -145.9001)">
		<stop  offset="0" style="stop-color:#BAC0C1"/>
		<stop  offset="0.15" style="stop-color:#F4FAFC"/>
		<stop  offset="0.25" style="stop-color:#F8FCFD"/>
		<stop  offset="0.52" style="stop-color:#D5DBDD"/>
		<stop  offset="0.69" style="stop-color:#BDC3C4"/>
		<stop  offset="0.8" style="stop-color:#B3B8B9"/>
		<stop  offset="0.97" style="stop-color:#A9AEAF"/>
		<stop  offset="1" style="stop-color:#C2C7C9"/>
	</linearGradient>
	<path fill="url(#SVGID_2_)" d="M110.52,75.168h-1.5c0,0-0.473,0.172-0.473,0.383l-0.277,33.367c0,0,0.445,0.402,0.66,0.402
		l1.59,0.348c0.75,0,0.75-0.52,0.75-0.73v-33.02c0-0.75-0.168-0.75-0.383-0.75H110.52z"/>
	
		<linearGradient id="SVGID_3_" gradientUnits="userSpaceOnUse" x1="274.5918" y1="-294.7573" x2="274.5918" y2="-340.7573" gradientTransform="matrix(0.75 0 0 -0.75 -97.0071 -145.9001)">
		<stop  offset="0" style="stop-color:#95A8AD"/>
		<stop  offset="0.15" style="stop-color:#C7DDE4"/>
		<stop  offset="0.25" style="stop-color:#E1ECF0"/>
		<stop  offset="0.52" style="stop-color:#AAC0C6"/>
		<stop  offset="0.69" style="stop-color:#97AAB0"/>
		<stop  offset="0.8" style="stop-color:#8FA1A6"/>
		<stop  offset="0.97" style="stop-color:#86979C"/>
		<stop  offset="1" style="stop-color:#9BAEB4"/>
	</linearGradient>
	<path fill="url(#SVGID_3_)" d="M107.813,75.168h2.25v34.5h-2.25V75.168z"/>
	
		<linearGradient id="SVGID_4_" gradientUnits="userSpaceOnUse" x1="275.0889" y1="-294.7622" x2="275.0889" y2="-340.7622" gradientTransform="matrix(0.75 0 0 -0.75 -204.075 -145.8992)">
		<stop  offset="0" style="stop-color:#BAC0C1"/>
		<stop  offset="0.15" style="stop-color:#F4FAFC"/>
		<stop  offset="0.25" style="stop-color:#F8FCFD"/>
		<stop  offset="0.52" style="stop-color:#D5DBDD"/>
		<stop  offset="0.69" style="stop-color:#BDC3C4"/>
		<stop  offset="0.8" style="stop-color:#B3B8B9"/>
		<stop  offset="0.97" style="stop-color:#A9AEAF"/>
		<stop  offset="1" style="stop-color:#C2C7C9"/>
	</linearGradient>
	<path fill="url(#SVGID_4_)" d="M1.492,75.172h1.5c0,0,0.477,0.168,0.477,0.379l0.273,33.371c0,0-0.445,0.398-0.656,0.398
		l-1.594,0.352c-0.75,0-0.75-0.52-0.75-0.73v-33.02c0-0.75,0.172-0.75,0.383-0.75H1.492z"/>
	
		<linearGradient id="SVGID_5_" gradientUnits="userSpaceOnUse" x1="274.5918" y1="-294.7573" x2="274.5918" y2="-340.7573" gradientTransform="matrix(0.75 0 0 -0.75 -202.4011 -145.9001)">
		<stop  offset="0" style="stop-color:#95A8AD"/>
		<stop  offset="0.15" style="stop-color:#C7DDE4"/>
		<stop  offset="0.25" style="stop-color:#E1ECF0"/>
		<stop  offset="0.52" style="stop-color:#AAC0C6"/>
		<stop  offset="0.69" style="stop-color:#97AAB0"/>
		<stop  offset="0.8" style="stop-color:#8FA1A6"/>
		<stop  offset="0.97" style="stop-color:#86979C"/>
		<stop  offset="1" style="stop-color:#9BAEB4"/>
	</linearGradient>
	<path fill="url(#SVGID_5_)" d="M2.418,75.168h2.25v34.5h-2.25V75.168z"/>
	
		<linearGradient id="SVGID_6_" gradientUnits="userSpaceOnUse" x1="290.0898" y1="-298.2559" x2="273.0898" y2="-298.2559" gradientTransform="matrix(0.75 0 0 -0.75 -153.6892 -167.033)">
		<stop  offset="0" style="stop-color:#95A8AD"/>
		<stop  offset="0.15" style="stop-color:#C7DDE4"/>
		<stop  offset="0.25" style="stop-color:#E1ECF0"/>
		<stop  offset="0.52" style="stop-color:#AAC0C6"/>
		<stop  offset="0.69" style="stop-color:#97AAB0"/>
		<stop  offset="0.8" style="stop-color:#8FA1A6"/>
		<stop  offset="0.97" style="stop-color:#86979C"/>
		<stop  offset="1" style="stop-color:#9BAEB4"/>
	</linearGradient>
	<path fill="url(#SVGID_6_)" d="M51.129,59.285h12.75v-5.25h-12.75V59.285z"/>
	
		<linearGradient id="SVGID_7_" gradientUnits="userSpaceOnUse" x1="320.0928" y1="-294.7603" x2="320.0928" y2="-334.7603" gradientTransform="matrix(0.75 0 0 -0.75 -183.949 -143.8357)">
		<stop  offset="0" style="stop-color:#BAC0C1"/>
		<stop  offset="0.15" style="stop-color:#F4FAFC"/>
		<stop  offset="0.25" style="stop-color:#F8FCFD"/>
		<stop  offset="0.52" style="stop-color:#D5DBDD"/>
		<stop  offset="0.69" style="stop-color:#BDC3C4"/>
		<stop  offset="0.8" style="stop-color:#B3B8B9"/>
		<stop  offset="0.97" style="stop-color:#A9AEAF"/>
		<stop  offset="1" style="stop-color:#C2C7C9"/>
	</linearGradient>
	<path fill="url(#SVGID_7_)" d="M20.871,77.234h70.5v30h-70.5V77.234z"/>
	
		<linearGradient id="SVGID_8_" gradientUnits="userSpaceOnUse" x1="311.1553" y1="-294.7603" x2="311.1553" y2="-339.9116" gradientTransform="matrix(0.75 0 0 -0.75 -177.4348 -145.7576)">
		<stop  offset="0" style="stop-color:#A9B3B6"/>
		<stop  offset="0.15" style="stop-color:#DFEBEE"/>
		<stop  offset="0.25" style="stop-color:#EDF4F5"/>
		<stop  offset="0.52" style="stop-color:#C1CDCF"/>
		<stop  offset="0.69" style="stop-color:#ACB6B9"/>
		<stop  offset="0.8" style="stop-color:#A2ACAE"/>
		<stop  offset="0.97" style="stop-color:#99A2A4"/>
		<stop  offset="1" style="stop-color:#B0BABD"/>
	</linearGradient>
	<path fill="url(#SVGID_8_)" d="M28.133,75.313h56.25c0,0,0.098,0.168,0.098,0.379l-0.098,33.371c0,0-0.074,0.113-0.285,0.113
		l-55.965-0.113c-0.75,0-0.75-0.055-0.75-0.266V76.063c0-0.75,0.172-0.75,0.383-0.75H28.133z"/>
	
		<linearGradient id="SVGID_9_" gradientUnits="userSpaceOnUse" x1="305.7021" y1="-294.7612" x2="305.7021" y2="-342.7612" gradientTransform="matrix(0.75 0 0 -0.75 -173.3459 -146.7576)">
		<stop  offset="0" style="stop-color:#BAC0C1"/>
		<stop  offset="0.15" style="stop-color:#F4FAFC"/>
		<stop  offset="0.25" style="stop-color:#F8FCFD"/>
		<stop  offset="0.52" style="stop-color:#D5DBDD"/>
		<stop  offset="0.69" style="stop-color:#BDC3C4"/>
		<stop  offset="0.8" style="stop-color:#B3B8B9"/>
		<stop  offset="0.97" style="stop-color:#A9AEAF"/>
		<stop  offset="1" style="stop-color:#C2C7C9"/>
	</linearGradient>
	<path fill="url(#SVGID_9_)" d="M32.223,74.313h48c0,0,0.168,0.168,0.168,0.379l-0.168,34.871c0,0.75-0.004,0.613-0.215,0.613
		l-47.785,0.137c-0.75,0-0.75-0.305-0.75-0.516V75.063c0-0.75,0.172-0.75,0.383-0.75H32.223z"/>
	
		<linearGradient id="SVGID_10_" gradientUnits="userSpaceOnUse" x1="296.1152" y1="-306.1396" x2="273.0889" y2="-306.1396" gradientTransform="matrix(0.75 0 0 -0.75 -156.1067 -162.1736)">
		<stop  offset="0" style="stop-color:#BAC0C1"/>
		<stop  offset="0.15" style="stop-color:#F4FAFC"/>
		<stop  offset="0.25" style="stop-color:#F8FCFD"/>
		<stop  offset="0.52" style="stop-color:#D5DBDD"/>
		<stop  offset="0.69" style="stop-color:#BDC3C4"/>
		<stop  offset="0.8" style="stop-color:#B3B8B9"/>
		<stop  offset="0.97" style="stop-color:#A9AEAF"/>
		<stop  offset="1" style="stop-color:#C2C7C9"/>
	</linearGradient>
	<path fill="url(#SVGID_10_)" d="M48.711,74.645c0,0-0.242,1.207,8.555,1.309c8.695,0.191,8.715-1.492,8.715-1.492l-1.52-15.566
		h-14.25L48.711,74.645z"/>
	
		<linearGradient id="SVGID_11_" gradientUnits="userSpaceOnUse" x1="410.0898" y1="-322.2588" x2="273.0898" y2="-322.2588" gradientTransform="matrix(0.75 0 0 -0.75 -166.3728 -191.7302)">
		<stop  offset="0" style="stop-color:#BAC0C1"/>
		<stop  offset="0.15" style="stop-color:#F4FAFC"/>
		<stop  offset="0.25" style="stop-color:#F8FCFD"/>
		<stop  offset="0.52" style="stop-color:#D5DBDD"/>
		<stop  offset="0.69" style="stop-color:#BDC3C4"/>
		<stop  offset="0.8" style="stop-color:#B3B8B9"/>
		<stop  offset="0.97" style="stop-color:#A9AEAF"/>
		<stop  offset="1" style="stop-color:#C2C7C9"/>
	</linearGradient>
	<path fill="url(#SVGID_11_)" d="M42.945,70.59l-4.5-1.5l6-16.5h24l23.25-23.25h49.5v4.5h-48l-23.25,23.25h-22.5L42.945,70.59z"/>
	
		<linearGradient id="SVGID_12_" gradientUnits="userSpaceOnUse" x1="311.5889" y1="-294.7603" x2="311.5889" y2="-310.7603" gradientTransform="matrix(0.75 0 0 -0.75 -121.4739 -191.7302)">
		<stop  offset="0" style="stop-color:#B23E4B"/>
		<stop  offset="0.15" style="stop-color:#E96A76"/>
		<stop  offset="0.25" style="stop-color:#ED939A"/>
		<stop  offset="0.52" style="stop-color:#CB4857"/>
		<stop  offset="0.69" style="stop-color:#B5404C"/>
		<stop  offset="0.8" style="stop-color:#AA3B47"/>
		<stop  offset="0.97" style="stop-color:#A13843"/>
		<stop  offset="1" style="stop-color:#B9414E"/>
	</linearGradient>
	<path fill="url(#SVGID_12_)" d="M83.344,37.59l8.25-8.25h49.5v4.5h-48l-7.5,7.5L83.344,37.59z"/>
	
		<linearGradient id="SVGID_13_" gradientUnits="userSpaceOnUse" x1="293.0908" y1="-298.7598" x2="273.0908" y2="-298.7598" gradientTransform="matrix(0.75 0 0 -0.75 -154.8386 -174.4607)">
		<stop  offset="0" style="stop-color:#C4AA84"/>
		<stop  offset="0.15" style="stop-color:#FFE0B3"/>
		<stop  offset="0.25" style="stop-color:#FFEED7"/>
		<stop  offset="0.52" style="stop-color:#DFC297"/>
		<stop  offset="0.69" style="stop-color:#C7AD86"/>
		<stop  offset="0.8" style="stop-color:#BCA37E"/>
		<stop  offset="0.97" style="stop-color:#B19A77"/>
		<stop  offset="1" style="stop-color:#CBB189"/>
	</linearGradient>
	<path fill="url(#SVGID_13_)" d="M50.73,46.609h13.5c0,0,0.48,0.168,0.48,0.379l0.27,4.871c0,0.75-0.441,0.652-0.656,0.652
		L50.73,52.609c-0.75,0-0.75-0.27-0.75-0.477v-4.773c0-0.75,0.172-0.75,0.383-0.75H50.73z"/>
	
		<linearGradient id="SVGID_14_" gradientUnits="userSpaceOnUse" x1="285.0908" y1="-294.7593" x2="285.0908" y2="-343.7593" gradientTransform="matrix(0.75 0 0 -0.75 -201.3967 -147.113)">
		<stop  offset="0" style="stop-color:#BAC0C1"/>
		<stop  offset="0.15" style="stop-color:#F4FAFC"/>
		<stop  offset="0.25" style="stop-color:#F8FCFD"/>
		<stop  offset="0.52" style="stop-color:#D5DBDD"/>
		<stop  offset="0.69" style="stop-color:#BDC3C4"/>
		<stop  offset="0.8" style="stop-color:#B3B8B9"/>
		<stop  offset="0.97" style="stop-color:#A9AEAF"/>
		<stop  offset="1" style="stop-color:#C2C7C9"/>
	</linearGradient>
	<path fill="url(#SVGID_14_)" d="M3.422,73.957h17.25c0,0,0.398,0.168,0.398,0.379l0.352,35.621c0,0.75-0.5,0.578-0.688,0.578
		l-17.313,0.172c0,0,0-0.34,0-0.551V74.707c0-0.75,0.148-0.75,0.336-0.75H3.422z"/>
	
		<linearGradient id="SVGID_15_" gradientUnits="userSpaceOnUse" x1="-318.3589" y1="-294.7583" x2="-318.3589" y2="-343.7583" gradientTransform="matrix(-0.75 0 0 -0.75 -139.1755 -147.115)">
		<stop  offset="0" style="stop-color:#BAC0C1"/>
		<stop  offset="0.15" style="stop-color:#F4FAFC"/>
		<stop  offset="0.25" style="stop-color:#F8FCFD"/>
		<stop  offset="0.52" style="stop-color:#D5DBDD"/>
		<stop  offset="0.69" style="stop-color:#BDC3C4"/>
		<stop  offset="0.8" style="stop-color:#B3B8B9"/>
		<stop  offset="0.97" style="stop-color:#A9AEAF"/>
		<stop  offset="1" style="stop-color:#C2C7C9"/>
	</linearGradient>
	<path fill="url(#SVGID_15_)" d="M108.594,73.953h-17.25c0,0-0.402,0.172-0.402,0.383l-0.348,35.617c0,0.75,0.5,0.582,0.684,0.582
		l17.316,0.168c0,0,0-0.34,0-0.551V74.703c0-0.75-0.152-0.75-0.336-0.75H108.594z"/>
	
		<linearGradient id="SVGID_16_" gradientUnits="userSpaceOnUse" x1="273.5908" y1="-294.7603" x2="273.5908" y2="-334.7603" gradientTransform="matrix(0.75 0 0 -0.75 -183.7517 -143.8357)">
		<stop  offset="0" style="stop-color:#95A8AD"/>
		<stop  offset="0.15" style="stop-color:#C7DDE4"/>
		<stop  offset="0.25" style="stop-color:#E1ECF0"/>
		<stop  offset="0.52" style="stop-color:#AAC0C6"/>
		<stop  offset="0.69" style="stop-color:#97AAB0"/>
		<stop  offset="0.8" style="stop-color:#8FA1A6"/>
		<stop  offset="0.97" style="stop-color:#86979C"/>
		<stop  offset="1" style="stop-color:#9BAEB4"/>
	</linearGradient>
	<path fill="url(#SVGID_16_)" d="M21.066,77.234h0.75v30h-0.75V77.234z"/>
	
		<linearGradient id="SVGID_17_" gradientUnits="userSpaceOnUse" x1="273.5918" y1="-294.7603" x2="273.5918" y2="-334.7603" gradientTransform="matrix(0.75 0 0 -0.75 -114.8035 -143.8357)">
		<stop  offset="0" style="stop-color:#95A8AD"/>
		<stop  offset="0.15" style="stop-color:#C7DDE4"/>
		<stop  offset="0.25" style="stop-color:#E1ECF0"/>
		<stop  offset="0.52" style="stop-color:#AAC0C6"/>
		<stop  offset="0.69" style="stop-color:#97AAB0"/>
		<stop  offset="0.8" style="stop-color:#8FA1A6"/>
		<stop  offset="0.97" style="stop-color:#86979C"/>
		<stop  offset="1" style="stop-color:#9BAEB4"/>
	</linearGradient>
	<path fill="url(#SVGID_17_)" d="M90.016,77.234h0.75v30h-0.75V77.234z"/>
</g>
</svg>
