<?xml version="1.0" encoding="utf-8"?>
<!-- Generator: Adobe Illustrator 16.0.0, SVG Export Plug-In . SVG Version: 6.00 Build 0)  -->
<!DOCTYPE svg PUBLIC "-//W3C//DTD SVG 1.1//EN" "http://www.w3.org/Graphics/SVG/1.1/DTD/svg11.dtd">
<svg preserveAspectRatio="none"   version="1.1" id="图层_1" xmlns="http://www.w3.org/2000/svg" xmlns:xlink="http://www.w3.org/1999/xlink" x="0px" y="0px"
	 width="545.386px" height="208.945px" viewBox="10.5 178.75 545.386 208.945" enable-background="new 10.5 178.75 545.386 208.945"
	 xml:space="preserve">
<g id="surface269">
	
		<linearGradient id="SVGID_1_" gradientUnits="userSpaceOnUse" x1="554.7241" y1="201.3047" x2="554.7241" y2="185.3037" gradientTransform="matrix(0.75 0 0 -0.75 -134.3605 505.1173)">
		<stop  offset="0" style="stop-color:#9A9D9D"/>
		<stop  offset="0.03" style="stop-color:#E2E5E5"/>
		<stop  offset="0.08" style="stop-color:#DADEDE"/>
		<stop  offset="0.64" style="stop-color:#D7DBDB"/>
		<stop  offset="0.95" style="stop-color:#C1C4C4"/>
		<stop  offset="1" style="stop-color:#8F9191"/>
	</linearGradient>
	<path fill="url(#SVGID_1_)" d="M17.309,354.14h528.75v12H17.309V354.14z"/>
	
		<linearGradient id="SVGID_2_" gradientUnits="userSpaceOnUse" x1="564.2222" y1="201.3066" x2="564.2222" y2="-33.6943" gradientTransform="matrix(0.75 0 0 -0.75 -140.0504 329.7286)">
		<stop  offset="0" style="stop-color:#ADB0B1"/>
		<stop  offset="0.03" style="stop-color:#F7FAFB"/>
		<stop  offset="0.08" style="stop-color:#F5F9FA"/>
		<stop  offset="0.64" style="stop-color:#F2F6F7"/>
		<stop  offset="0.95" style="stop-color:#D9DDDD"/>
		<stop  offset="1" style="stop-color:#A1A4A4"/>
	</linearGradient>
	<path fill="url(#SVGID_2_)" d="M11.617,178.75h543V355h-543V178.75z"/>
	<path fill="#3E3938" d="M27.52,195.852h57.75c0.75,0,0.988,0.816,0.988,1.859c-0.238,1.141-0.461,1.883-1.004,1.883l-57.734,0.008
		c0,0-0.75-0.852-0.75-1.891c0-1.109,0.438-1.883,0.977-1.883L27.52,195.852z"/>
	<path fill="#3E3938" d="M103.074,195.852h57.75c0.75,0,0.988,0.816,0.988,1.859c-0.238,1.141-0.461,1.883-1,1.883l-57.738,0.008
		c0,0-0.75-0.852-0.75-1.891c0-1.109,0.438-1.883,0.98-1.883L103.074,195.852z"/>
	<path fill="#3E3938" d="M178.633,195.852h57.75c0.75,0,0.988,0.816,0.988,1.859c-0.238,1.141-0.465,1.883-1.004,1.883
		l-57.734,0.008c0,0-0.75-0.852-0.75-1.891c0-1.109,0.438-1.883,0.977-1.883L178.633,195.852z"/>
	<path fill="#3E3938" d="M254.199,195.852h57.75c0.75,0,0.988,0.816,0.988,1.859c-0.238,1.141-0.461,1.883-1.004,1.883
		l-57.734,0.008c0,0-0.75-0.852-0.75-1.891c0-1.109,0.438-1.883,0.977-1.883L254.199,195.852z"/>
	<path fill="#3E3938" d="M329.742,195.852h57.75c0.75,0,0.988,0.816,0.988,1.859c-0.238,1.141-0.461,1.883-1.004,1.883
		l-57.734,0.008c0,0-0.75-0.852-0.75-1.891c0-1.109,0.438-1.883,0.977-1.883L329.742,195.852z"/>
	<path fill="#3E3938" d="M405.296,195.852h57.75c0.75,0,0.988,0.816,0.988,1.859c-0.238,1.141-0.461,1.883-1,1.883l-57.738,0.008
		c0,0-0.75-0.852-0.75-1.891c0-1.109,0.438-1.883,0.98-1.883L405.296,195.852z"/>
	<path fill="#3E3938" d="M480.851,195.852h57.75c0.75,0,0.988,0.816,0.988,1.859c-0.238,1.141-0.461,1.883-1,1.883l-57.738,0.008
		c0,0-0.75-0.852-0.75-1.891c0-1.109,0.441-1.883,0.98-1.883L480.851,195.852z"/>
	<path fill="#3E3938" d="M27.52,213.621h57.75c0.75,0,0.988,0.82,0.988,1.859c-0.238,1.141-0.461,1.883-1.004,1.883l-57.734,0.008
		c0,0-0.75-0.848-0.75-1.891c0-1.109,0.438-1.883,0.977-1.883L27.52,213.621z"/>
	<path fill="#3E3938" d="M103.074,213.621h57.75c0.75,0,0.988,0.82,0.988,1.859c-0.238,1.141-0.461,1.883-1,1.883l-57.738,0.008
		c0,0-0.75-0.848-0.75-1.891c0-1.109,0.438-1.883,0.98-1.883L103.074,213.621z"/>
	<path fill="#3E3938" d="M178.633,213.621h57.75c0.75,0,0.984,0.82,0.984,1.859c-0.234,1.141-0.461,1.883-1,1.883l-57.734,0.008
		c0,0-0.75-0.848-0.75-1.891c0-1.109,0.438-1.883,0.977-1.883L178.633,213.621z"/>
	<path fill="#3E3938" d="M254.199,213.621h57.75c0.75,0,0.988,0.82,0.988,1.859c-0.238,1.141-0.461,1.883-1.004,1.883l-57.734,0.008
		c0,0-0.75-0.848-0.75-1.891c0-1.109,0.438-1.883,0.977-1.883L254.199,213.621z"/>
	<path fill="#3E3938" d="M329.742,213.621h57.75c0.75,0,0.988,0.82,0.988,1.859c-0.238,1.141-0.461,1.883-1.004,1.883l-57.734,0.008
		c0,0-0.75-0.848-0.75-1.891c0-1.109,0.438-1.883,0.977-1.883L329.742,213.621z"/>
	<path fill="#3E3938" d="M405.296,213.621h57.75c0.75,0,0.988,0.82,0.988,1.859c-0.238,1.141-0.461,1.883-1,1.883l-57.738,0.008
		c0,0-0.75-0.848-0.75-1.891c0-1.109,0.438-1.883,0.98-1.883L405.296,213.621z"/>
	<path fill="#3E3938" d="M480.851,213.621h57.75c0.75,0,0.988,0.82,0.988,1.859c-0.238,1.141-0.461,1.883-1,1.883l-57.738,0.008
		c0,0-0.75-0.848-0.75-1.891c0-1.109,0.441-1.883,0.98-1.883L480.851,213.621z"/>
	<path fill="#3E3938" d="M27.52,240.281h57.75c0.75,0,0.988,0.82,0.988,1.859c-0.238,1.141-0.461,1.883-1.004,1.883l-57.734,0.008
		c0,0-0.75-0.852-0.75-1.891c0-1.109,0.438-1.883,0.977-1.883L27.52,240.281z"/>
	<path fill="#3E3938" d="M103.074,240.281h57.75c0.75,0,0.988,0.82,0.988,1.859c-0.238,1.141-0.461,1.883-1,1.883l-57.738,0.008
		c0,0-0.75-0.852-0.75-1.891c0-1.109,0.438-1.883,0.98-1.883L103.074,240.281z"/>
	<path fill="#3E3938" d="M178.633,240.281h57.75c0.75,0,0.984,0.82,0.984,1.859c-0.234,1.141-0.461,1.883-1,1.883l-57.734,0.008
		c0,0-0.75-0.852-0.75-1.891c0-1.109,0.438-1.883,0.977-1.883L178.633,240.281z"/>
	<path fill="#3E3938" d="M254.199,240.281h57.75c0.75,0,0.988,0.82,0.988,1.859c-0.238,1.141-0.461,1.883-1.004,1.883l-57.734,0.008
		c0,0-0.75-0.852-0.75-1.891c0-1.109,0.438-1.883,0.977-1.883L254.199,240.281z"/>
	<path fill="#3E3938" d="M329.742,240.281h57.75c0.75,0,0.988,0.82,0.988,1.859c-0.238,1.141-0.461,1.883-1.004,1.883l-57.734,0.008
		c0,0-0.75-0.852-0.75-1.891c0-1.109,0.438-1.883,0.977-1.883L329.742,240.281z"/>
	<path fill="#3E3938" d="M405.296,240.281h57.75c0.75,0,0.988,0.82,0.988,1.859c-0.238,1.141-0.461,1.883-1,1.883l-57.738,0.008
		c0,0-0.75-0.852-0.75-1.891c0-1.109,0.438-1.883,0.98-1.883L405.296,240.281z"/>
	<path fill="#3E3938" d="M480.851,240.281h57.75c0.75,0,0.988,0.82,0.988,1.859c-0.238,1.141-0.461,1.883-1,1.883l-57.738,0.008
		c0,0-0.75-0.852-0.75-1.891c0-1.109,0.441-1.883,0.98-1.883L480.851,240.281z"/>
	<path fill="#3E3938" d="M27.52,293.601h57.75c0.75,0,0.988,0.816,0.988,1.859c-0.238,1.141-0.461,1.883-1.004,1.883l-57.734,0.008
		c0,0-0.75-0.852-0.75-1.891c0-1.109,0.438-1.883,0.977-1.883L27.52,293.601z"/>
	<path fill="#3E3938" d="M103.074,293.601h57.75c0.75,0,0.988,0.816,0.988,1.859c-0.238,1.141-0.461,1.883-1,1.883l-57.738,0.008
		c0,0-0.75-0.852-0.75-1.891c0-1.109,0.438-1.883,0.98-1.883L103.074,293.601z"/>
	<path fill="#3E3938" d="M178.633,293.601h57.75c0.75,0,0.984,0.816,0.984,1.859c-0.234,1.141-0.461,1.883-1,1.883l-57.734,0.008
		c0,0-0.75-0.852-0.75-1.891c0-1.109,0.438-1.883,0.977-1.883L178.633,293.601z"/>
	<path fill="#3E3938" d="M254.199,293.601h57.75c0.75,0,0.988,0.816,0.988,1.859c-0.238,1.141-0.461,1.883-1.004,1.883
		l-57.734,0.008c0,0-0.75-0.852-0.75-1.891c0-1.109,0.438-1.883,0.977-1.883L254.199,293.601z"/>
	<path fill="#3E3938" d="M329.742,293.601h57.75c0.75,0,0.988,0.816,0.988,1.859c-0.238,1.141-0.461,1.883-1.004,1.883
		l-57.734,0.008c0,0-0.75-0.852-0.75-1.891c0-1.109,0.438-1.883,0.977-1.883L329.742,293.601z"/>
	<path fill="#3E3938" d="M405.296,293.601h57.75c0.75,0,0.988,0.816,0.988,1.859c-0.238,1.141-0.461,1.883-1,1.883l-57.738,0.008
		c0,0-0.75-0.852-0.75-1.891c0-1.109,0.438-1.883,0.98-1.883L405.296,293.601z"/>
	<path fill="#3E3938" d="M480.851,293.601h57.75c0.75,0,0.988,0.816,0.988,1.859c-0.238,1.141-0.461,1.883-1,1.883l-57.738,0.008
		c0,0-0.75-0.852-0.75-1.891c0-1.109,0.441-1.883,0.98-1.883L480.851,293.601z"/>
	<path fill="#3E3938" d="M27.52,231.395h57.75c0.75,0,0.988,0.82,0.988,1.859c-0.238,1.141-0.461,1.883-1.004,1.883l-57.734,0.008
		c0,0-0.75-0.852-0.75-1.891c0-1.109,0.438-1.883,0.977-1.883L27.52,231.395z"/>
	<path fill="#3E3938" d="M103.074,231.395h57.75c0.75,0,0.988,0.82,0.988,1.859c-0.238,1.141-0.461,1.883-1,1.883l-57.738,0.008
		c0,0-0.75-0.852-0.75-1.891c0-1.109,0.438-1.883,0.98-1.883L103.074,231.395z"/>
	<path fill="#3E3938" d="M178.633,231.395h57.75c0.75,0,0.984,0.82,0.984,1.859c-0.234,1.141-0.461,1.883-1,1.883l-57.734,0.008
		c0,0-0.75-0.852-0.75-1.891c0-1.109,0.438-1.883,0.977-1.883L178.633,231.395z"/>
	<path fill="#3E3938" d="M254.199,231.395h57.75c0.75,0,0.988,0.82,0.988,1.859c-0.238,1.141-0.461,1.883-1.004,1.883l-57.734,0.008
		c0,0-0.75-0.852-0.75-1.891c0-1.109,0.438-1.883,0.977-1.883L254.199,231.395z"/>
	<path fill="#3E3938" d="M329.742,231.395h57.75c0.75,0,0.988,0.82,0.988,1.859c-0.238,1.141-0.461,1.883-1.004,1.883l-57.734,0.008
		c0,0-0.75-0.852-0.75-1.891c0-1.109,0.438-1.883,0.977-1.883L329.742,231.395z"/>
	<path fill="#3E3938" d="M405.296,231.395h57.75c0.75,0,0.988,0.82,0.988,1.859c-0.238,1.141-0.461,1.883-1,1.883l-57.738,0.008
		c0,0-0.75-0.852-0.75-1.891c0-1.109,0.438-1.883,0.98-1.883L405.296,231.395z"/>
	<path fill="#3E3938" d="M480.851,231.395h57.75c0.75,0,0.988,0.82,0.988,1.859c-0.238,1.141-0.461,1.883-1,1.883l-57.738,0.008
		c0,0-0.75-0.852-0.75-1.891c0-1.109,0.441-1.883,0.98-1.883L480.851,231.395z"/>
	<path fill="#3E3938" d="M27.52,205.688h57.75c0.75,0,0.988,0.816,0.988,1.859c-0.238,1.141-0.461,1.883-1.004,1.883l-57.734,0.008
		c0,0-0.75-0.852-0.75-1.891c0-1.109,0.438-1.883,0.977-1.883L27.52,205.688z"/>
	<path fill="#3E3938" d="M103.074,205.688h57.75c0.75,0,0.988,0.816,0.988,1.859c-0.238,1.141-0.461,1.883-1,1.883l-57.738,0.008
		c0,0-0.75-0.852-0.75-1.891c0-1.109,0.438-1.883,0.98-1.883L103.074,205.688z"/>
	<path fill="#3E3938" d="M178.633,205.688h57.75c0.75,0,0.984,0.816,0.984,1.859c-0.234,1.141-0.461,1.883-1,1.883l-57.734,0.008
		c0,0-0.75-0.852-0.75-1.891c0-1.109,0.438-1.883,0.977-1.883L178.633,205.688z"/>
	<path fill="#3E3938" d="M254.199,205.688h57.75c0.75,0,0.988,0.816,0.988,1.859c-0.238,1.141-0.461,1.883-1.004,1.883
		l-57.734,0.008c0,0-0.75-0.852-0.75-1.891c0-1.109,0.438-1.883,0.977-1.883L254.199,205.688z"/>
	<path fill="#3E3938" d="M329.742,205.688h57.75c0.75,0,0.988,0.816,0.988,1.859c-0.238,1.141-0.461,1.883-1.004,1.883
		l-57.734,0.008c0,0-0.75-0.852-0.75-1.891c0-1.109,0.438-1.883,0.977-1.883L329.742,205.688z"/>
	<path fill="#3E3938" d="M405.296,205.688h57.75c0.75,0,0.988,0.816,0.988,1.859c-0.238,1.141-0.461,1.883-1,1.883l-57.738,0.008
		c0,0-0.75-0.852-0.75-1.891c0-1.109,0.438-1.883,0.98-1.883L405.296,205.688z"/>
	<path fill="#3E3938" d="M480.851,205.688h57.75c0.75,0,0.988,0.816,0.988,1.859c-0.238,1.141-0.461,1.883-1,1.883l-57.738,0.008
		c0,0-0.75-0.852-0.75-1.891c0-1.109,0.441-1.883,0.98-1.883L480.851,205.688z"/>
	<path fill="#3E3938" d="M27.52,222.508h57.75c0.75,0,0.988,0.82,0.988,1.859c-0.238,1.141-0.461,1.883-1.004,1.883l-57.734,0.008
		c0,0-0.75-0.848-0.75-1.891c0-1.109,0.438-1.883,0.977-1.883L27.52,222.508z"/>
	<path fill="#3E3938" d="M103.074,222.508h57.75c0.75,0,0.988,0.82,0.988,1.859c-0.238,1.141-0.461,1.883-1,1.883l-57.738,0.008
		c0,0-0.75-0.848-0.75-1.891c0-1.109,0.438-1.883,0.98-1.883L103.074,222.508z"/>
	<path fill="#3E3938" d="M178.633,222.508h57.75c0.75,0,0.984,0.82,0.984,1.859c-0.234,1.141-0.461,1.883-1,1.883l-57.734,0.008
		c0,0-0.75-0.848-0.75-1.891c0-1.109,0.438-1.883,0.977-1.883L178.633,222.508z"/>
	<path fill="#3E3938" d="M254.199,222.508h57.75c0.75,0,0.988,0.82,0.988,1.859c-0.238,1.141-0.461,1.883-1.004,1.883l-57.734,0.008
		c0,0-0.75-0.848-0.75-1.891c0-1.109,0.438-1.883,0.977-1.883L254.199,222.508z"/>
	<path fill="#3E3938" d="M329.742,222.508h57.75c0.75,0,0.988,0.82,0.988,1.859c-0.238,1.141-0.461,1.883-1.004,1.883l-57.734,0.008
		c0,0-0.75-0.848-0.75-1.891c0-1.109,0.438-1.883,0.977-1.883L329.742,222.508z"/>
	<path fill="#3E3938" d="M405.296,222.508h57.75c0.75,0,0.988,0.82,0.988,1.859c-0.238,1.141-0.461,1.883-1,1.883l-57.738,0.008
		c0,0-0.75-0.848-0.75-1.891c0-1.109,0.438-1.883,0.98-1.883L405.296,222.508z"/>
	<path fill="#3E3938" d="M480.851,222.508h57.75c0.75,0,0.988,0.82,0.988,1.859c-0.238,1.141-0.461,1.883-1,1.883l-57.738,0.008
		c0,0-0.75-0.848-0.75-1.891c0-1.109,0.441-1.883,0.98-1.883L480.851,222.508z"/>
	<path fill="#3E3938" d="M27.52,275.828h57.75c0.75,0,0.988,0.82,0.988,1.859c-0.238,1.141-0.461,1.883-1.004,1.883l-57.734,0.008
		c0,0-0.75-0.852-0.75-1.891c0-1.109,0.438-1.883,0.977-1.883L27.52,275.828z"/>
	<path fill="#3E3938" d="M103.074,275.828h57.75c0.75,0,0.988,0.82,0.988,1.859c-0.238,1.141-0.461,1.883-1,1.883l-57.738,0.008
		c0,0-0.75-0.852-0.75-1.891c0-1.109,0.438-1.883,0.98-1.883L103.074,275.828z"/>
	<path fill="#3E3938" d="M178.633,275.828h57.75c0.75,0,0.984,0.82,0.984,1.859c-0.234,1.141-0.461,1.883-1,1.883l-57.734,0.008
		c0,0-0.75-0.852-0.75-1.891c0-1.109,0.438-1.883,0.977-1.883L178.633,275.828z"/>
	<path fill="#3E3938" d="M254.199,275.828h57.75c0.75,0,0.988,0.82,0.988,1.859c-0.238,1.141-0.461,1.883-1.004,1.883l-57.734,0.008
		c0,0-0.75-0.852-0.75-1.891c0-1.109,0.438-1.883,0.977-1.883L254.199,275.828z"/>
	<path fill="#3E3938" d="M329.742,275.828h57.75c0.75,0,0.988,0.82,0.988,1.859c-0.238,1.141-0.461,1.883-1.004,1.883l-57.734,0.008
		c0,0-0.75-0.852-0.75-1.891c0-1.109,0.438-1.883,0.977-1.883L329.742,275.828z"/>
	<path fill="#3E3938" d="M405.296,275.828h57.75c0.75,0,0.988,0.82,0.988,1.859c-0.238,1.141-0.461,1.883-1,1.883l-57.738,0.008
		c0,0-0.75-0.852-0.75-1.891c0-1.109,0.438-1.883,0.98-1.883L405.296,275.828z"/>
	<path fill="#3E3938" d="M480.851,275.828h57.75c0.75,0,0.988,0.82,0.988,1.859c-0.238,1.141-0.461,1.883-1,1.883l-57.738,0.008
		c0,0-0.75-0.852-0.75-1.891c0-1.109,0.441-1.883,0.98-1.883L480.851,275.828z"/>
	<path fill="#3E3938" d="M27.52,258.055h57.75c0.75,0,0.988,0.82,0.988,1.859c-0.238,1.141-0.461,1.883-1.004,1.883l-57.734,0.008
		c0,0-0.75-0.852-0.75-1.891c0-1.109,0.438-1.883,0.977-1.883L27.52,258.055z"/>
	<path fill="#3E3938" d="M103.074,258.055h57.75c0.75,0,0.988,0.82,0.988,1.859c-0.238,1.141-0.461,1.883-1,1.883l-57.738,0.008
		c0,0-0.75-0.852-0.75-1.891c0-1.109,0.438-1.883,0.98-1.883L103.074,258.055z"/>
	<path fill="#3E3938" d="M178.633,258.055h57.75c0.75,0,0.984,0.82,0.984,1.859c-0.234,1.141-0.461,1.883-1,1.883l-57.734,0.008
		c0,0-0.75-0.852-0.75-1.891c0-1.109,0.438-1.883,0.977-1.883L178.633,258.055z"/>
	<path fill="#3E3938" d="M254.199,258.055h57.75c0.75,0,0.988,0.82,0.988,1.859c-0.238,1.141-0.461,1.883-1.004,1.883l-57.734,0.008
		c0,0-0.75-0.852-0.75-1.891c0-1.109,0.438-1.883,0.977-1.883L254.199,258.055z"/>
	<path fill="#3E3938" d="M329.742,258.055h57.75c0.75,0,0.988,0.82,0.988,1.859c-0.238,1.141-0.461,1.883-1.004,1.883l-57.734,0.008
		c0,0-0.75-0.852-0.75-1.891c0-1.109,0.438-1.883,0.977-1.883L329.742,258.055z"/>
	<path fill="#3E3938" d="M405.296,258.055h57.75c0.75,0,0.988,0.82,0.988,1.859c-0.238,1.141-0.461,1.883-1,1.883l-57.738,0.008
		c0,0-0.75-0.852-0.75-1.891c0-1.109,0.438-1.883,0.98-1.883L405.296,258.055z"/>
	<path fill="#3E3938" d="M480.851,258.055h57.75c0.75,0,0.988,0.82,0.988,1.859c-0.238,1.141-0.461,1.883-1,1.883l-57.738,0.008
		c0,0-0.75-0.852-0.75-1.891c0-1.109,0.441-1.883,0.98-1.883L480.851,258.055z"/>
	<path fill="#3E3938" d="M27.52,302.488h57.75c0.75,0,0.988,0.816,0.988,1.859c-0.238,1.141-0.461,1.883-1.004,1.883l-57.734,0.008
		c0,0-0.75-0.852-0.75-1.891c0-1.109,0.438-1.883,0.977-1.883L27.52,302.488z"/>
	<path fill="#3E3938" d="M103.074,302.488h57.75c0.75,0,0.988,0.816,0.988,1.859c-0.238,1.141-0.461,1.883-1,1.883l-57.738,0.008
		c0,0-0.75-0.852-0.75-1.891c0-1.109,0.438-1.883,0.98-1.883L103.074,302.488z"/>
	<path fill="#3E3938" d="M178.633,302.488h57.75c0.75,0,0.984,0.816,0.984,1.859c-0.234,1.141-0.461,1.883-1,1.883l-57.734,0.008
		c0,0-0.75-0.852-0.75-1.891c0-1.109,0.438-1.883,0.977-1.883L178.633,302.488z"/>
	<path fill="#3E3938" d="M254.199,302.488h57.75c0.75,0,0.988,0.816,0.988,1.859c-0.238,1.141-0.461,1.883-1.004,1.883
		l-57.734,0.008c0,0-0.75-0.852-0.75-1.891c0-1.109,0.438-1.883,0.977-1.883L254.199,302.488z"/>
	<path fill="#3E3938" d="M329.742,302.488h57.75c0.75,0,0.988,0.816,0.988,1.859c-0.238,1.141-0.461,1.883-1.004,1.883
		l-57.734,0.008c0,0-0.75-0.852-0.75-1.891c0-1.109,0.438-1.883,0.977-1.883L329.742,302.488z"/>
	<path fill="#3E3938" d="M405.296,302.488h57.75c0.75,0,0.988,0.816,0.988,1.859c-0.238,1.141-0.461,1.883-1,1.883l-57.738,0.008
		c0,0-0.75-0.852-0.75-1.891c0-1.109,0.438-1.883,0.98-1.883L405.296,302.488z"/>
	<path fill="#3E3938" d="M480.851,302.488h57.75c0.75,0,0.988,0.816,0.988,1.859c-0.238,1.141-0.461,1.883-1,1.883l-57.738,0.008
		c0,0-0.75-0.852-0.75-1.891c0-1.109,0.441-1.883,0.98-1.883L480.851,302.488z"/>
	<path fill="#3E3938" d="M27.52,320.257h57.75c0.75,0,0.988,0.82,0.988,1.859C86.02,323.257,85.797,324,85.254,324l-57.734,0.008
		c0,0-0.75-0.848-0.75-1.891c0-1.109,0.438-1.883,0.977-1.883L27.52,320.257z"/>
	<path fill="#3E3938" d="M103.074,320.257h57.75c0.75,0,0.988,0.82,0.988,1.859c-0.238,1.141-0.461,1.883-1,1.883l-57.738,0.008
		c0,0-0.75-0.848-0.75-1.891c0-1.109,0.438-1.883,0.98-1.883L103.074,320.257z"/>
	<path fill="#3E3938" d="M178.633,320.257h57.75c0.75,0,0.984,0.82,0.984,1.859c-0.234,1.141-0.461,1.883-1,1.883l-57.734,0.008
		c0,0-0.75-0.848-0.75-1.891c0-1.109,0.438-1.883,0.977-1.883L178.633,320.257z"/>
	<path fill="#3E3938" d="M254.199,320.257h57.75c0.75,0,0.988,0.82,0.988,1.859c-0.238,1.141-0.461,1.883-1.004,1.883l-57.734,0.008
		c0,0-0.75-0.848-0.75-1.891c0-1.109,0.438-1.883,0.977-1.883L254.199,320.257z"/>
	<path fill="#3E3938" d="M329.742,320.257h57.75c0.75,0,0.988,0.82,0.988,1.859c-0.238,1.141-0.461,1.883-1.004,1.883l-57.734,0.008
		c0,0-0.75-0.848-0.75-1.891c0-1.109,0.438-1.883,0.977-1.883L329.742,320.257z"/>
	<path fill="#3E3938" d="M405.296,320.257h57.75c0.75,0,0.988,0.82,0.988,1.859c-0.238,1.141-0.461,1.883-1,1.883l-57.738,0.008
		c0,0-0.75-0.848-0.75-1.891c0-1.109,0.438-1.883,0.98-1.883L405.296,320.257z"/>
	<path fill="#3E3938" d="M480.851,320.257h57.75c0.75,0,0.988,0.82,0.988,1.859c-0.238,1.141-0.461,1.883-1,1.883l-57.738,0.008
		c0,0-0.75-0.848-0.75-1.891c0-1.109,0.441-1.883,0.98-1.883L480.851,320.257z"/>
	<path fill="#3E3938" d="M27.52,249.168h57.75c0.75,0,0.988,0.82,0.988,1.859c-0.238,1.141-0.461,1.883-1.004,1.883l-57.734,0.008
		c0,0-0.75-0.852-0.75-1.891c0-1.109,0.438-1.883,0.977-1.883L27.52,249.168z"/>
	<path fill="#3E3938" d="M103.074,249.168h57.75c0.75,0,0.988,0.82,0.988,1.859c-0.238,1.141-0.461,1.883-1,1.883l-57.738,0.008
		c0,0-0.75-0.852-0.75-1.891c0-1.109,0.438-1.883,0.98-1.883L103.074,249.168z"/>
	<path fill="#3E3938" d="M178.633,249.168h57.75c0.75,0,0.984,0.82,0.984,1.859c-0.234,1.141-0.461,1.883-1,1.883l-57.734,0.008
		c0,0-0.75-0.852-0.75-1.891c0-1.109,0.438-1.883,0.977-1.883L178.633,249.168z"/>
	<path fill="#3E3938" d="M254.199,249.168h57.75c0.75,0,0.988,0.82,0.988,1.859c-0.238,1.141-0.461,1.883-1.004,1.883l-57.734,0.008
		c0,0-0.75-0.852-0.75-1.891c0-1.109,0.438-1.883,0.977-1.883L254.199,249.168z"/>
	<path fill="#3E3938" d="M329.742,249.168h57.75c0.75,0,0.988,0.82,0.988,1.859c-0.238,1.141-0.461,1.883-1.004,1.883l-57.734,0.008
		c0,0-0.75-0.852-0.75-1.891c0-1.109,0.438-1.883,0.977-1.883L329.742,249.168z"/>
	<path fill="#3E3938" d="M405.296,249.168h57.75c0.75,0,0.988,0.82,0.988,1.859c-0.238,1.141-0.461,1.883-1,1.883l-57.738,0.008
		c0,0-0.75-0.852-0.75-1.891c0-1.109,0.438-1.883,0.98-1.883L405.296,249.168z"/>
	<path fill="#3E3938" d="M480.851,249.168h57.75c0.75,0,0.988,0.82,0.988,1.859c-0.238,1.141-0.461,1.883-1,1.883l-57.738,0.008
		c0,0-0.75-0.852-0.75-1.891c0-1.109,0.441-1.883,0.98-1.883L480.851,249.168z"/>
	<path fill="#3E3938" d="M27.52,266.941h57.75c0.75,0,0.988,0.82,0.988,1.859c-0.238,1.141-0.461,1.883-1.004,1.883l-57.734,0.008
		c0,0-0.75-0.852-0.75-1.891c0-1.109,0.438-1.883,0.977-1.883L27.52,266.941z"/>
	<path fill="#3E3938" d="M103.074,266.941h57.75c0.75,0,0.988,0.82,0.988,1.859c-0.238,1.141-0.461,1.883-1,1.883l-57.738,0.008
		c0,0-0.75-0.852-0.75-1.891c0-1.109,0.438-1.883,0.98-1.883L103.074,266.941z"/>
	<path fill="#3E3938" d="M178.633,266.941h57.75c0.75,0,0.984,0.82,0.984,1.859c-0.234,1.141-0.461,1.883-1,1.883l-57.734,0.008
		c0,0-0.75-0.852-0.75-1.891c0-1.109,0.438-1.883,0.977-1.883L178.633,266.941z"/>
	<path fill="#3E3938" d="M254.199,266.941h57.75c0.75,0,0.988,0.82,0.988,1.859c-0.238,1.141-0.461,1.883-1.004,1.883l-57.734,0.008
		c0,0-0.75-0.852-0.75-1.891c0-1.109,0.438-1.883,0.977-1.883L254.199,266.941z"/>
	<path fill="#3E3938" d="M329.742,266.941h57.75c0.75,0,0.988,0.82,0.988,1.859c-0.238,1.141-0.461,1.883-1.004,1.883l-57.734,0.008
		c0,0-0.75-0.852-0.75-1.891c0-1.109,0.438-1.883,0.977-1.883L329.742,266.941z"/>
	<path fill="#3E3938" d="M405.296,266.941h57.75c0.75,0,0.988,0.82,0.988,1.859c-0.238,1.141-0.461,1.883-1,1.883l-57.738,0.008
		c0,0-0.75-0.852-0.75-1.891c0-1.109,0.438-1.883,0.98-1.883L405.296,266.941z"/>
	<path fill="#3E3938" d="M480.851,266.941h57.75c0.75,0,0.988,0.82,0.988,1.859c-0.238,1.141-0.461,1.883-1,1.883l-57.738,0.008
		c0,0-0.75-0.852-0.75-1.891c0-1.109,0.441-1.883,0.98-1.883L480.851,266.941z"/>
	<path fill="#3E3938" d="M27.52,284.714h57.75c0.75,0,0.988,0.82,0.988,1.859c-0.238,1.141-0.461,1.883-1.004,1.883l-57.734,0.008
		c0,0-0.75-0.852-0.75-1.891c0-1.109,0.438-1.883,0.977-1.883L27.52,284.714z"/>
	<path fill="#3E3938" d="M103.074,284.714h57.75c0.75,0,0.988,0.82,0.988,1.859c-0.238,1.141-0.461,1.883-1,1.883l-57.738,0.008
		c0,0-0.75-0.852-0.75-1.891c0-1.109,0.438-1.883,0.98-1.883L103.074,284.714z"/>
	<path fill="#3E3938" d="M178.633,284.714h57.75c0.75,0,0.984,0.82,0.984,1.859c-0.234,1.141-0.461,1.883-1,1.883l-57.734,0.008
		c0,0-0.75-0.852-0.75-1.891c0-1.109,0.438-1.883,0.977-1.883L178.633,284.714z"/>
	<path fill="#3E3938" d="M254.199,284.714h57.75c0.75,0,0.988,0.82,0.988,1.859c-0.238,1.141-0.461,1.883-1.004,1.883l-57.734,0.008
		c0,0-0.75-0.852-0.75-1.891c0-1.109,0.438-1.883,0.977-1.883L254.199,284.714z"/>
	<path fill="#3E3938" d="M329.742,284.714h57.75c0.75,0,0.988,0.82,0.988,1.859c-0.238,1.141-0.461,1.883-1.004,1.883l-57.734,0.008
		c0,0-0.75-0.852-0.75-1.891c0-1.109,0.438-1.883,0.977-1.883L329.742,284.714z"/>
	<path fill="#3E3938" d="M405.296,284.714h57.75c0.75,0,0.988,0.82,0.988,1.859c-0.238,1.141-0.461,1.883-1,1.883l-57.738,0.008
		c0,0-0.75-0.852-0.75-1.891c0-1.109,0.438-1.883,0.98-1.883L405.296,284.714z"/>
	<path fill="#3E3938" d="M480.851,284.714h57.75c0.75,0,0.988,0.82,0.988,1.859c-0.238,1.141-0.461,1.883-1,1.883l-57.738,0.008
		c0,0-0.75-0.852-0.75-1.891c0-1.109,0.441-1.883,0.98-1.883L480.851,284.714z"/>
	<path fill="#3E3938" d="M27.52,311.371h57.75c0.75,0,0.988,0.82,0.988,1.859c-0.238,1.141-0.461,1.883-1.004,1.883l-57.734,0.008
		c0,0-0.75-0.848-0.75-1.891c0-1.109,0.438-1.883,0.977-1.883L27.52,311.371z"/>
	<path fill="#3E3938" d="M103.074,311.371h57.75c0.75,0,0.988,0.82,0.988,1.859c-0.238,1.141-0.461,1.883-1,1.883l-57.738,0.008
		c0,0-0.75-0.848-0.75-1.891c0-1.109,0.438-1.883,0.98-1.883L103.074,311.371z"/>
	<path fill="#3E3938" d="M178.633,311.371h57.75c0.75,0,0.984,0.82,0.984,1.859c-0.234,1.141-0.461,1.883-1,1.883l-57.734,0.008
		c0,0-0.75-0.848-0.75-1.891c0-1.109,0.438-1.883,0.977-1.883L178.633,311.371z"/>
	<path fill="#3E3938" d="M254.199,311.371h57.75c0.75,0,0.988,0.82,0.988,1.859c-0.238,1.141-0.461,1.883-1.004,1.883l-57.734,0.008
		c0,0-0.75-0.848-0.75-1.891c0-1.109,0.438-1.883,0.977-1.883L254.199,311.371z"/>
	<path fill="#3E3938" d="M329.742,311.371h57.75c0.75,0,0.988,0.82,0.988,1.859c-0.238,1.141-0.461,1.883-1.004,1.883l-57.734,0.008
		c0,0-0.75-0.848-0.75-1.891c0-1.109,0.438-1.883,0.977-1.883L329.742,311.371z"/>
	<path fill="#3E3938" d="M405.296,311.371h57.75c0.75,0,0.988,0.82,0.988,1.859c-0.238,1.141-0.461,1.883-1,1.883l-57.738,0.008
		c0,0-0.75-0.848-0.75-1.891c0-1.109,0.438-1.883,0.98-1.883L405.296,311.371z"/>
	<path fill="#3E3938" d="M480.851,311.371h57.75c0.75,0,0.988,0.82,0.988,1.859c-0.238,1.141-0.461,1.883-1,1.883l-57.738,0.008
		c0,0-0.75-0.848-0.75-1.891c0-1.109,0.441-1.883,0.98-1.883L480.851,311.371z"/>
	<path fill="#3E3938" d="M27.52,328.195h57.75c0.75,0,0.988,0.82,0.988,1.859c-0.238,1.141-0.461,1.883-1.004,1.883l-57.734,0.008
		c0,0-0.75-0.852-0.75-1.891c0-1.109,0.438-1.883,0.977-1.883L27.52,328.195z"/>
	<path fill="#3E3938" d="M103.074,328.195h57.75c0.75,0,0.988,0.82,0.988,1.859c-0.238,1.141-0.461,1.883-1,1.883l-57.738,0.008
		c0,0-0.75-0.852-0.75-1.891c0-1.109,0.438-1.883,0.98-1.883L103.074,328.195z"/>
	<path fill="#3E3938" d="M178.633,328.195h57.75c0.75,0,0.984,0.82,0.984,1.859c-0.234,1.141-0.461,1.883-1,1.883l-57.734,0.008
		c0,0-0.75-0.852-0.75-1.891c0-1.109,0.438-1.883,0.977-1.883L178.633,328.195z"/>
	<path fill="#3E3938" d="M254.199,328.195h57.75c0.75,0,0.988,0.82,0.988,1.859c-0.238,1.141-0.461,1.883-1.004,1.883l-57.734,0.008
		c0,0-0.75-0.852-0.75-1.891c0-1.109,0.438-1.883,0.977-1.883L254.199,328.195z"/>
	<path fill="#3E3938" d="M329.742,328.195h57.75c0.75,0,0.988,0.82,0.988,1.859c-0.238,1.141-0.461,1.883-1.004,1.883l-57.734,0.008
		c0,0-0.75-0.852-0.75-1.891c0-1.109,0.438-1.883,0.977-1.883L329.742,328.195z"/>
	<path fill="#3E3938" d="M405.296,328.195h57.75c0.75,0,0.988,0.82,0.988,1.859c-0.238,1.141-0.461,1.883-1,1.883l-57.738,0.008
		c0,0-0.75-0.852-0.75-1.891c0-1.109,0.438-1.883,0.98-1.883L405.296,328.195z"/>
	<path fill="#3E3938" d="M480.851,328.195h57.75c0.75,0,0.988,0.82,0.988,1.859c-0.238,1.141-0.461,1.883-1,1.883l-57.738,0.008
		c0,0-0.75-0.852-0.75-1.891c0-1.109,0.441-1.883,0.98-1.883L480.851,328.195z"/>
	<path fill="#3E3938" d="M27.52,338.031h57.75c0.75,0,0.988,0.82,0.988,1.859c-0.238,1.141-0.461,1.883-1.004,1.883l-57.734,0.008
		c0,0-0.75-0.852-0.75-1.891c0-1.109,0.438-1.883,0.977-1.883L27.52,338.031z"/>
	<path fill="#3E3938" d="M103.074,338.031h57.75c0.75,0,0.988,0.82,0.988,1.859c-0.238,1.141-0.461,1.883-1,1.883l-57.738,0.008
		c0,0-0.75-0.852-0.75-1.891c0-1.109,0.438-1.883,0.98-1.883L103.074,338.031z"/>
	<path fill="#3E3938" d="M178.633,338.031h57.75c0.75,0,0.984,0.82,0.984,1.859c-0.234,1.141-0.461,1.883-1,1.883l-57.734,0.008
		c0,0-0.75-0.852-0.75-1.891c0-1.109,0.438-1.883,0.977-1.883L178.633,338.031z"/>
	<path fill="#3E3938" d="M254.199,338.031h57.75c0.75,0,0.988,0.82,0.988,1.859c-0.238,1.141-0.461,1.883-1.004,1.883l-57.734,0.008
		c0,0-0.75-0.852-0.75-1.891c0-1.109,0.438-1.883,0.977-1.883L254.199,338.031z"/>
	<path fill="#3E3938" d="M329.742,338.031h57.75c0.75,0,0.988,0.82,0.988,1.859c-0.238,1.141-0.461,1.883-1.004,1.883l-57.734,0.008
		c0,0-0.75-0.852-0.75-1.891c0-1.109,0.438-1.883,0.977-1.883L329.742,338.031z"/>
	<path fill="#3E3938" d="M405.296,338.031h57.75c0.75,0,0.988,0.82,0.988,1.859c-0.238,1.141-0.461,1.883-1,1.883l-57.738,0.008
		c0,0-0.75-0.852-0.75-1.891c0-1.109,0.438-1.883,0.98-1.883L405.296,338.031z"/>
	<path fill="#3E3938" d="M480.851,338.031h57.75c0.75,0,0.988,0.82,0.988,1.859c-0.238,1.141-0.461,1.883-1,1.883l-57.738,0.008
		c0,0-0.75-0.852-0.75-1.891c0-1.109,0.441-1.883,0.98-1.883L480.851,338.031z"/>
	
		<linearGradient id="SVGID_3_" gradientUnits="userSpaceOnUse" x1="565.8159" y1="201.377" x2="565.8159" y2="172.3037" gradientTransform="matrix(0.75 0 0 -0.75 -141.1691 516.923)">
		<stop  offset="0" style="stop-color:#ADB0B1"/>
		<stop  offset="0.03" style="stop-color:#F7FAFB"/>
		<stop  offset="0.08" style="stop-color:#F5F9FA"/>
		<stop  offset="0.64" style="stop-color:#F2F6F7"/>
		<stop  offset="0.95" style="stop-color:#D9DDDD"/>
		<stop  offset="1" style="stop-color:#A1A4A4"/>
	</linearGradient>
	<path fill="url(#SVGID_3_)" d="M12,365.945h542.25c0.75,0,1.637,0.785,1.637,1.828l-0.137,17.672c0,1.5-0.574,2.133-1.449,2.133
		L12,387.695c-0.75,0-1.5-0.957-1.5-2v-18.25c0-0.75,0.664-1.555,1.539-1.555L12,365.945z"/>
</g>
</svg>
