<?xml version="1.0" encoding="utf-8"?>
<!-- Generator: Adobe Illustrator 16.0.0, SVG Export Plug-In . SVG Version: 6.00 Build 0)  -->
<!DOCTYPE svg PUBLIC "-//W3C//DTD SVG 1.1//EN" "http://www.w3.org/Graphics/SVG/1.1/DTD/svg11.dtd">
<svg preserveAspectRatio="none"   version="1.1" id="图层_1" xmlns="http://www.w3.org/2000/svg" xmlns:xlink="http://www.w3.org/1999/xlink" x="0px" y="0px"
	 width="455.056px" height="567px" viewBox="55.918 -0.035 455.056 567" enable-background="new 55.918 -0.035 455.056 567"
	 xml:space="preserve">
<g id="surface36">
	
		<linearGradient id="SVGID_1_" gradientUnits="userSpaceOnUse" x1="252.3813" y1="219.5591" x2="326.9501" y2="14.683" gradientTransform="matrix(0.75 0 0 -0.75 -89.9078 502.3868)">
		<stop  offset="0" style="stop-color:#A8A8A9"/>
		<stop  offset="0.15" style="stop-color:#DEDEDF"/>
		<stop  offset="0.25" style="stop-color:#EDEDED"/>
		<stop  offset="0.52" style="stop-color:#C0C0C1"/>
		<stop  offset="0.69" style="stop-color:#ABABAC"/>
		<stop  offset="0.8" style="stop-color:#A1A1A2"/>
		<stop  offset="0.97" style="stop-color:#989899"/>
		<stop  offset="1" style="stop-color:#AFAFB0"/>
	</linearGradient>
	<path fill="url(#SVGID_1_)" d="M61.762,367.16c0,0,44.082,1.98,130.852-15.75l2.648,106.5c0,0-26.629,5.066-133.5,18.922V367.16z"
		/>
	
		<linearGradient id="SVGID_2_" gradientUnits="userSpaceOnUse" x1="651.1157" y1="-176.6953" x2="202.2339" y2="-176.6954" gradientTransform="matrix(0.75 0 0 -0.75 22.6366 150.9415)">
		<stop  offset="0" style="stop-color:#A8A8A8"/>
		<stop  offset="0.03" style="stop-color:#F2F2F2"/>
		<stop  offset="0.08" style="stop-color:#DBDBDB"/>
		<stop  offset="0.64" style="stop-color:#D8D8D8"/>
		<stop  offset="0.95" style="stop-color:#D3D3D3"/>
		<stop  offset="1" style="stop-color:#9C9C9C"/>
	</linearGradient>
	<path fill="url(#SVGID_2_)" d="M206.555-0.035h268.5c3.75,0,6.012,2.508,7.52,7.914c44.23,222.336,23.59,551.167,23.59,551.167
		c-0.359,4.168-3.52,7.918-7.863,7.918H182.555c-3.75,0-7.637-3.543-7.637-7.918c0.137-0.332-6.879-291.91,23.594-551.167
		c1.293-4.164,3.52-7.914,7.863-7.914H206.555z"/>
	
		<linearGradient id="SVGID_3_" gradientUnits="userSpaceOnUse" x1="548.2261" y1="75.3052" x2="202.2261" y2="75.3051" gradientTransform="matrix(0.75 0 0 -0.75 61.2162 182.5216)">
		<stop  offset="0" style="stop-color:#B5B5B5"/>
		<stop  offset="0.03" style="stop-color:#FFFFFF"/>
		<stop  offset="0.08" style="stop-color:#EBEBEB"/>
		<stop  offset="0.64" style="stop-color:#E7E7E7"/>
		<stop  offset="0.95" style="stop-color:#E2E2E2"/>
		<stop  offset="1" style="stop-color:#A8A8A8"/>
	</linearGradient>
	<path fill="url(#SVGID_3_)" d="M220.387,31.543h244.5c3.75,0,7.488,3.543,7.488,7.918l0.012,172.832c0,4.5-3.531,8.25-7.875,8.25
		H220.387c-3.75,0-7.5-3.543-7.5-7.918V39.793c0-4.5,3.52-8.25,7.863-8.25H220.387z"/>
	<path fill="#3E3938" stroke="#000000" stroke-linejoin="bevel" stroke-miterlimit="10" d="M242.992,97.844h198.75
		c4.5,0,8.027,3.543,8.027,7.914l0.223,82.086c0,4.5-3.742,7.961-8.086,7.961l-198.914,0.289c-3.75,0-7.5-3.832-7.5-8.203v-81.797
		c0-4.5,3.52-8.25,7.863-8.25H242.992z"/>
	<path fill="#FEFEFE" stroke="#EEEEEE" stroke-linejoin="bevel" stroke-miterlimit="10" d="M311.183,42.43h80.25
		c3.75,0,7.594,3.543,7.594,7.914l-0.094,26.586c0,4.5-3.43,8.047-7.77,8.047l-79.98,0.203c-3.75,0-7.5-3.746-7.5-8.117V50.68
		c0-4.5,3.52-8.25,7.863-8.25H311.183z"/>
	
		<linearGradient id="SVGID_4_" gradientUnits="userSpaceOnUse" x1="344.2222" y1="201.3037" x2="344.2222" y2="195.3037" gradientTransform="matrix(0.75 0 0 -0.75 84.411 254.756)">
		<stop  offset="0" style="stop-color:#C1C2C3"/>
		<stop  offset="0.15" style="stop-color:#FBFDFE"/>
		<stop  offset="0.25" style="stop-color:#FDFEFE"/>
		<stop  offset="0.52" style="stop-color:#DCDEDE"/>
		<stop  offset="0.69" style="stop-color:#C4C5C6"/>
		<stop  offset="0.8" style="stop-color:#B9BABB"/>
		<stop  offset="0.97" style="stop-color:#AEB0B0"/>
		<stop  offset="1" style="stop-color:#C8CACB"/>
	</linearGradient>
	<path fill="url(#SVGID_4_)" d="M236.078,103.777h213v4.5h-213V103.777z"/>
	
		<linearGradient id="SVGID_5_" gradientUnits="userSpaceOnUse" x1="344.2222" y1="201.3027" x2="344.2222" y2="195.3027" gradientTransform="matrix(0.75 0 0 -0.75 84.411 265.3175)">
		<stop  offset="0" style="stop-color:#C1C2C3"/>
		<stop  offset="0.15" style="stop-color:#FBFDFE"/>
		<stop  offset="0.25" style="stop-color:#FDFEFE"/>
		<stop  offset="0.52" style="stop-color:#DCDEDE"/>
		<stop  offset="0.69" style="stop-color:#C4C5C6"/>
		<stop  offset="0.8" style="stop-color:#B9BABB"/>
		<stop  offset="0.97" style="stop-color:#AEB0B0"/>
		<stop  offset="1" style="stop-color:#C8CACB"/>
	</linearGradient>
	<path fill="url(#SVGID_5_)" d="M236.078,114.34h213v4.5h-213V114.34z"/>
	
		<linearGradient id="SVGID_6_" gradientUnits="userSpaceOnUse" x1="344.2222" y1="201.3027" x2="344.2222" y2="195.3027" gradientTransform="matrix(0.75 0 0 -0.75 84.411 305.0089)">
		<stop  offset="0" style="stop-color:#C1C2C3"/>
		<stop  offset="0.15" style="stop-color:#FBFDFE"/>
		<stop  offset="0.25" style="stop-color:#FDFEFE"/>
		<stop  offset="0.52" style="stop-color:#DCDEDE"/>
		<stop  offset="0.69" style="stop-color:#C4C5C6"/>
		<stop  offset="0.8" style="stop-color:#B9BABB"/>
		<stop  offset="0.97" style="stop-color:#AEB0B0"/>
		<stop  offset="1" style="stop-color:#C8CACB"/>
	</linearGradient>
	<path fill="url(#SVGID_6_)" d="M236.078,154.031h213v4.5h-213V154.031z"/>
	
		<linearGradient id="SVGID_7_" gradientUnits="userSpaceOnUse" x1="344.2222" y1="201.3027" x2="344.2222" y2="195.3027" gradientTransform="matrix(0.75 0 0 -0.75 84.411 314.6642)">
		<stop  offset="0" style="stop-color:#C1C2C3"/>
		<stop  offset="0.15" style="stop-color:#FBFDFE"/>
		<stop  offset="0.25" style="stop-color:#FDFEFE"/>
		<stop  offset="0.52" style="stop-color:#DCDEDE"/>
		<stop  offset="0.69" style="stop-color:#C4C5C6"/>
		<stop  offset="0.8" style="stop-color:#B9BABB"/>
		<stop  offset="0.97" style="stop-color:#AEB0B0"/>
		<stop  offset="1" style="stop-color:#C8CACB"/>
	</linearGradient>
	<path fill="url(#SVGID_7_)" d="M236.078,163.688h213v4.5h-213V163.688z"/>
	
		<linearGradient id="SVGID_8_" gradientUnits="userSpaceOnUse" x1="344.2222" y1="201.3037" x2="344.2222" y2="195.3037" gradientTransform="matrix(0.75 0 0 -0.75 84.411 325.3917)">
		<stop  offset="0" style="stop-color:#C1C2C3"/>
		<stop  offset="0.15" style="stop-color:#FBFDFE"/>
		<stop  offset="0.25" style="stop-color:#FDFEFE"/>
		<stop  offset="0.52" style="stop-color:#DCDEDE"/>
		<stop  offset="0.69" style="stop-color:#C4C5C6"/>
		<stop  offset="0.8" style="stop-color:#B9BABB"/>
		<stop  offset="0.97" style="stop-color:#AEB0B0"/>
		<stop  offset="1" style="stop-color:#C8CACB"/>
	</linearGradient>
	<path fill="url(#SVGID_8_)" d="M236.078,174.414h213v4.5h-213V174.414z"/>
	
		<linearGradient id="SVGID_9_" gradientUnits="userSpaceOnUse" x1="344.2222" y1="201.3057" x2="344.2222" y2="195.3057" gradientTransform="matrix(0.75 0 0 -0.75 84.411 335.9513)">
		<stop  offset="0" style="stop-color:#C1C2C3"/>
		<stop  offset="0.15" style="stop-color:#FBFDFE"/>
		<stop  offset="0.25" style="stop-color:#FDFEFE"/>
		<stop  offset="0.52" style="stop-color:#DCDEDE"/>
		<stop  offset="0.69" style="stop-color:#C4C5C6"/>
		<stop  offset="0.8" style="stop-color:#B9BABB"/>
		<stop  offset="0.97" style="stop-color:#AEB0B0"/>
		<stop  offset="1" style="stop-color:#C8CACB"/>
	</linearGradient>
	<path fill="url(#SVGID_9_)" d="M236.078,184.973h213v4.5h-213V184.973z"/>
	
		<linearGradient id="SVGID_10_" gradientUnits="userSpaceOnUse" x1="344.2222" y1="201.3018" x2="344.2222" y2="195.3018" gradientTransform="matrix(0.75 0 0 -0.75 84.411 285.6993)">
		<stop  offset="0" style="stop-color:#C1C2C3"/>
		<stop  offset="0.15" style="stop-color:#FBFDFE"/>
		<stop  offset="0.25" style="stop-color:#FDFEFE"/>
		<stop  offset="0.52" style="stop-color:#DCDEDE"/>
		<stop  offset="0.69" style="stop-color:#C4C5C6"/>
		<stop  offset="0.8" style="stop-color:#B9BABB"/>
		<stop  offset="0.97" style="stop-color:#AEB0B0"/>
		<stop  offset="1" style="stop-color:#C8CACB"/>
	</linearGradient>
	<path fill="url(#SVGID_10_)" d="M236.078,134.723h213v4.5h-213V134.723z"/>
	
		<linearGradient id="SVGID_11_" gradientUnits="userSpaceOnUse" x1="344.2222" y1="201.3027" x2="344.2222" y2="195.3027" gradientTransform="matrix(0.75 0 0 -0.75 84.411 274.6564)">
		<stop  offset="0" style="stop-color:#C1C2C3"/>
		<stop  offset="0.15" style="stop-color:#FBFDFE"/>
		<stop  offset="0.25" style="stop-color:#FDFEFE"/>
		<stop  offset="0.52" style="stop-color:#DCDEDE"/>
		<stop  offset="0.69" style="stop-color:#C4C5C6"/>
		<stop  offset="0.8" style="stop-color:#B9BABB"/>
		<stop  offset="0.97" style="stop-color:#AEB0B0"/>
		<stop  offset="1" style="stop-color:#C8CACB"/>
	</linearGradient>
	<path fill="url(#SVGID_11_)" d="M236.078,123.68h213v4.5h-213V123.68z"/>
	
		<linearGradient id="SVGID_12_" gradientUnits="userSpaceOnUse" x1="344.2222" y1="201.3066" x2="344.2222" y2="195.3066" gradientTransform="matrix(0.75 0 0 -0.75 84.411 295.3546)">
		<stop  offset="0" style="stop-color:#C1C2C3"/>
		<stop  offset="0.15" style="stop-color:#FBFDFE"/>
		<stop  offset="0.25" style="stop-color:#FDFEFE"/>
		<stop  offset="0.52" style="stop-color:#DCDEDE"/>
		<stop  offset="0.69" style="stop-color:#C4C5C6"/>
		<stop  offset="0.8" style="stop-color:#B9BABB"/>
		<stop  offset="0.97" style="stop-color:#AEB0B0"/>
		<stop  offset="1" style="stop-color:#C8CACB"/>
	</linearGradient>
	<path fill="url(#SVGID_12_)" d="M236.078,144.375h213v4.5h-213V144.375z"/>
	
		<linearGradient id="SVGID_13_" gradientUnits="userSpaceOnUse" x1="208.2246" y1="135.8037" x2="202.2246" y2="135.8037" gradientTransform="matrix(0.75 0 0 -0.75 91.6864 248.5822)">
		<stop  offset="0" style="stop-color:#C1C2C3"/>
		<stop  offset="0.15" style="stop-color:#FBFDFE"/>
		<stop  offset="0.25" style="stop-color:#FDFEFE"/>
		<stop  offset="0.52" style="stop-color:#DCDEDE"/>
		<stop  offset="0.69" style="stop-color:#C4C5C6"/>
		<stop  offset="0.8" style="stop-color:#B9BABB"/>
		<stop  offset="0.97" style="stop-color:#AEB0B0"/>
		<stop  offset="1" style="stop-color:#C8CACB"/>
	</linearGradient>
	<path fill="url(#SVGID_13_)" d="M243.355,97.605h4.5v98.25h-4.5V97.605z"/>
	
		<linearGradient id="SVGID_14_" gradientUnits="userSpaceOnUse" x1="208.2227" y1="135.8037" x2="202.2227" y2="135.8037" gradientTransform="matrix(0.75 0 0 -0.75 157.2147 248.5822)">
		<stop  offset="0" style="stop-color:#C1C2C3"/>
		<stop  offset="0.15" style="stop-color:#FBFDFE"/>
		<stop  offset="0.25" style="stop-color:#FDFEFE"/>
		<stop  offset="0.52" style="stop-color:#DCDEDE"/>
		<stop  offset="0.69" style="stop-color:#C4C5C6"/>
		<stop  offset="0.8" style="stop-color:#B9BABB"/>
		<stop  offset="0.97" style="stop-color:#AEB0B0"/>
		<stop  offset="1" style="stop-color:#C8CACB"/>
	</linearGradient>
	<path fill="url(#SVGID_14_)" d="M308.882,97.605h4.5v98.25h-4.5V97.605z"/>
	
		<linearGradient id="SVGID_15_" gradientUnits="userSpaceOnUse" x1="208.2217" y1="135.8037" x2="202.2217" y2="135.8037" gradientTransform="matrix(0.75 0 0 -0.75 220.1219 248.5822)">
		<stop  offset="0" style="stop-color:#C1C2C3"/>
		<stop  offset="0.15" style="stop-color:#FBFDFE"/>
		<stop  offset="0.25" style="stop-color:#FDFEFE"/>
		<stop  offset="0.52" style="stop-color:#DCDEDE"/>
		<stop  offset="0.69" style="stop-color:#C4C5C6"/>
		<stop  offset="0.8" style="stop-color:#B9BABB"/>
		<stop  offset="0.97" style="stop-color:#AEB0B0"/>
		<stop  offset="1" style="stop-color:#C8CACB"/>
	</linearGradient>
	<path fill="url(#SVGID_15_)" d="M371.789,97.605h4.5v98.25h-4.5V97.605z"/>
	
		<linearGradient id="SVGID_16_" gradientUnits="userSpaceOnUse" x1="208.2266" y1="135.8037" x2="202.2266" y2="135.8037" gradientTransform="matrix(0.75 0 0 -0.75 285.6493 248.5822)">
		<stop  offset="0" style="stop-color:#C1C2C3"/>
		<stop  offset="0.15" style="stop-color:#FBFDFE"/>
		<stop  offset="0.25" style="stop-color:#FDFEFE"/>
		<stop  offset="0.52" style="stop-color:#DCDEDE"/>
		<stop  offset="0.69" style="stop-color:#C4C5C6"/>
		<stop  offset="0.8" style="stop-color:#B9BABB"/>
		<stop  offset="0.97" style="stop-color:#AEB0B0"/>
		<stop  offset="1" style="stop-color:#C8CACB"/>
	</linearGradient>
	<path fill="url(#SVGID_16_)" d="M437.32,97.605h4.5v98.25h-4.5V97.605z"/>
	<path fill="#276F71" d="M334.871,72.668c0-3,2.484-5.266,5.574-5.266c3.426,0.016,5.57,2.52,5.57,5.633
		c0.105,3.383-2.504,5.621-5.57,5.621c-3.324,0.012-5.586-2.523-5.586-5.621L334.871,72.668z"/>
	
		<linearGradient id="SVGID_17_" gradientUnits="userSpaceOnUse" x1="204.1167" y1="202.4204" x2="212.4608" y2="187.9681" gradientTransform="matrix(0.75 0 0 -0.75 184.2235 219.4259)">
		<stop  offset="0" style="stop-color:#91CFD1"/>
		<stop  offset="1" style="stop-color:#49AEB1"/>
	</linearGradient>
	<path fill="url(#SVGID_17_)" stroke="#FFFFFF" stroke-linejoin="bevel" stroke-miterlimit="10" d="M335.89,72.949
		c0-2.25,2.031-4.512,4.555-4.512c2.195,0.012,4.551,2.055,4.551,4.598c-0.105,2.164-2.047,4.59-4.551,4.59
		c-2.305-0.176-4.563-2.063-4.563-4.59L335.89,72.949z"/>
	<path fill="#FED372" d="M313.199,72.668c0-3,2.48-5.266,5.57-5.266c3.43,0.016,5.574,2.52,5.574,5.633
		c0.105,3.383-2.504,5.621-5.574,5.621c-3.32,0.012-5.586-2.523-5.586-5.621L313.199,72.668z"/>
	
		<linearGradient id="SVGID_18_" gradientUnits="userSpaceOnUse" x1="204.1157" y1="202.4204" x2="212.4603" y2="187.9672" gradientTransform="matrix(0.75 0 0 -0.75 162.5507 219.4259)">
		<stop  offset="0" style="stop-color:#FED785"/>
		<stop  offset="1" style="stop-color:#D6B25F"/>
	</linearGradient>
	<path fill="url(#SVGID_18_)" stroke="#FFFFFF" stroke-linejoin="bevel" stroke-miterlimit="10" d="M314.218,72.949
		c0-2.25,2.027-4.512,4.551-4.512c2.199,0.012,4.555,2.055,4.555,4.598c-0.105,2.164-2.047,4.59-4.555,4.59
		c-2.301-0.176-4.563-2.063-4.563-4.59L314.218,72.949z"/>
	<path fill="#276F71" d="M357.046,72.668c0-3,2.484-5.266,5.574-5.266c3.426,0.016,5.574,2.52,5.574,5.633
		c0.102,3.383-2.504,5.621-5.574,5.621c-3.324,0.012-5.586-2.523-5.586-5.621L357.046,72.668z"/>
	
		<linearGradient id="SVGID_19_" gradientUnits="userSpaceOnUse" x1="204.1157" y1="202.4204" x2="212.4603" y2="187.9672" gradientTransform="matrix(0.75 0 0 -0.75 206.4003 219.4259)">
		<stop  offset="0" style="stop-color:#91CFD1"/>
		<stop  offset="1" style="stop-color:#49AEB1"/>
	</linearGradient>
	<path fill="url(#SVGID_19_)" stroke="#FFFFFF" stroke-linejoin="bevel" stroke-miterlimit="10" d="M358.07,72.949
		c0-2.25,2.027-4.512,4.551-4.512c2.199,0.012,4.551,2.055,4.551,4.598c-0.102,2.164-2.043,4.59-4.551,4.59
		c-2.301-0.176-4.563-2.063-4.563-4.59L358.07,72.949z"/>
	<path fill="#B60717" d="M378.218,72.668c0-3,2.48-5.266,5.57-5.266c3.43,0.016,5.574,2.52,5.574,5.633
		c0.105,3.383-2.504,5.621-5.574,5.621c-3.32,0.012-5.586-2.523-5.586-5.621L378.218,72.668z"/>
	
		<linearGradient id="SVGID_20_" gradientUnits="userSpaceOnUse" x1="204.1152" y1="202.4204" x2="212.4593" y2="187.9681" gradientTransform="matrix(0.75 0 0 -0.75 227.5702 219.4259)">
		<stop  offset="0" style="stop-color:#C98283"/>
		<stop  offset="1" style="stop-color:#A60614"/>
	</linearGradient>
	<path fill="url(#SVGID_20_)" stroke="#FFFFFF" stroke-linejoin="bevel" stroke-miterlimit="10" d="M379.238,72.949
		c0-2.25,2.027-4.512,4.551-4.512c2.199,0.012,4.555,2.055,4.555,4.598c-0.105,2.164-2.047,4.59-4.555,4.59
		c-2.301-0.176-4.563-2.063-4.563-4.59L379.238,72.949z"/>
	<path fill="#FDE9D0" d="M314.746,55.813c0-4.5,16.727-7.598,37.477-7.598c21.023,0.098,37.473,3.426,37.473,7.652
		c0.051,4.445-16.82,7.66-37.473,7.66c-20.977-0.215-37.477-3.434-37.477-7.66V55.813z"/>
	
		<linearGradient id="SVGID_21_" gradientUnits="userSpaceOnUse" x1="208.7407" y1="201.3047" x2="208.7407" y2="50.6807" gradientTransform="matrix(0.75 0 0 -0.75 -95.7506 516.9513)">
		<stop  offset="0" style="stop-color:#9D9D9D"/>
		<stop  offset="0.15" style="stop-color:#D0D1D1"/>
		<stop  offset="0.25" style="stop-color:#E5E6E6"/>
		<stop  offset="0.52" style="stop-color:#B3B4B4"/>
		<stop  offset="0.69" style="stop-color:#9FA0A0"/>
		<stop  offset="0.8" style="stop-color:#969797"/>
		<stop  offset="0.97" style="stop-color:#8E8E8E"/>
		<stop  offset="1" style="stop-color:#A3A4A4"/>
	</linearGradient>
	<path fill="url(#SVGID_21_)" d="M61.168,365.972c2.25,0,4.523,1.992,4.523,4.535l-0.023,103.465c0,3-2.164,4.941-4.867,4.941
		c-2.633,0.309-4.883-2.125-4.883-4.664V370.472c0-2.25,2.184-4.5,4.883-4.5H61.168z"/>
</g>
</svg>
