<?xml version="1.0" encoding="utf-8"?>
<!-- Generator: Adobe Illustrator 16.0.0, SVG Export Plug-In . SVG Version: 6.00 Build 0)  -->
<!DOCTYPE svg PUBLIC "-//W3C//DTD SVG 1.1//EN" "http://www.w3.org/Graphics/SVG/1.1/DTD/svg11.dtd">
<svg preserveAspectRatio="none"   version="1.1" id="图层_1" xmlns="http://www.w3.org/2000/svg" xmlns:xlink="http://www.w3.org/1999/xlink" x="0px" y="0px"
	 width="562.296px" height="231.75px" viewBox="2.254 167.672 562.296 231.75"
	 enable-background="new 2.254 167.672 562.296 231.75" xml:space="preserve">
<g id="surface329">
	
		<linearGradient id="SVGID_1_" gradientUnits="userSpaceOnUse" x1="568.2241" y1="201.3027" x2="568.2241" y2="155.3027" gradientTransform="matrix(0.75 0 0 -0.75 -136.1178 417.0118)">
		<stop  offset="0" style="stop-color:#A29D98"/>
		<stop  offset="0.15" style="stop-color:#D7D0CB"/>
		<stop  offset="0.25" style="stop-color:#E9E5E2"/>
		<stop  offset="0.52" style="stop-color:#B9B3AE"/>
		<stop  offset="0.69" style="stop-color:#A59F9B"/>
		<stop  offset="0.8" style="stop-color:#9B9692"/>
		<stop  offset="0.97" style="stop-color:#938E89"/>
		<stop  offset="1" style="stop-color:#A9A39E"/>
	</linearGradient>
	<path fill="url(#SVGID_1_)" d="M15.551,266.035h549v34.5h-549V266.035z"/>
	
		<linearGradient id="SVGID_2_" gradientUnits="userSpaceOnUse" x1="212.7256" y1="201.3027" x2="212.7256" y2="17.3027" gradientTransform="matrix(0.75 0 0 -0.75 364.5995 365.34)">
		<stop  offset="0" style="stop-color:#928A85"/>
		<stop  offset="0.15" style="stop-color:#C4BBB4"/>
		<stop  offset="0.25" style="stop-color:#DFDAD7"/>
		<stop  offset="0.52" style="stop-color:#A79E98"/>
		<stop  offset="0.69" style="stop-color:#948C87"/>
		<stop  offset="0.8" style="stop-color:#8C847F"/>
		<stop  offset="0.97" style="stop-color:#847D78"/>
		<stop  offset="1" style="stop-color:#98908A"/>
	</linearGradient>
	<path fill="url(#SVGID_2_)" d="M516.269,214.363h15.75v138h-15.75V214.363z"/>
	
		<linearGradient id="SVGID_3_" gradientUnits="userSpaceOnUse" x1="241.124" y1="201.3047" x2="241.124" y2="-91.9131" gradientTransform="matrix(0.75 0 0 -0.75 -96.3961 324.4865)">
		<stop  offset="0" style="stop-color:#A29D98"/>
		<stop  offset="0.15" style="stop-color:#D7D0CB"/>
		<stop  offset="0.25" style="stop-color:#E9E5E2"/>
		<stop  offset="0.52" style="stop-color:#B9B3AE"/>
		<stop  offset="0.69" style="stop-color:#A59F9B"/>
		<stop  offset="0.8" style="stop-color:#9B9692"/>
		<stop  offset="0.97" style="stop-color:#938E89"/>
		<stop  offset="1" style="stop-color:#A9A39E"/>
	</linearGradient>
	<path fill="url(#SVGID_3_)" d="M55.273,283.758c0-60.75,26.043-110.25,58.223-110.25c0.277,0,0,219.914,0,219.914
		c-31.973-0.164-58.223-49.242-58.223-109.957V283.758z"/>
	
		<linearGradient id="SVGID_4_" gradientUnits="userSpaceOnUse" x1="454.2222" y1="201.3027" x2="454.2222" y2="-90.6982" gradientTransform="matrix(0.75 0 0 -0.75 -11.4684 324.8751)">
		<stop  offset="0" style="stop-color:#A29D98"/>
		<stop  offset="0.15" style="stop-color:#D7D0CB"/>
		<stop  offset="0.25" style="stop-color:#E9E5E2"/>
		<stop  offset="0.52" style="stop-color:#B9B3AE"/>
		<stop  offset="0.69" style="stop-color:#A59F9B"/>
		<stop  offset="0.8" style="stop-color:#9B9692"/>
		<stop  offset="0.97" style="stop-color:#938E89"/>
		<stop  offset="1" style="stop-color:#A9A39E"/>
	</linearGradient>
	<path fill="url(#SVGID_4_)" d="M140.199,173.898h378v219h-378V173.898z"/>
	
		<linearGradient id="SVGID_5_" gradientUnits="userSpaceOnUse" x1="229.2275" y1="201.3018" x2="229.2275" y2="-90.6982" gradientTransform="matrix(0.75 0 0 -0.75 -44.8741 324.8751)">
		<stop  offset="0" style="stop-color:#8D857E"/>
		<stop  offset="0.15" style="stop-color:#BEB4AD"/>
		<stop  offset="0.25" style="stop-color:#DCD7D4"/>
		<stop  offset="0.52" style="stop-color:#A29891"/>
		<stop  offset="0.69" style="stop-color:#8F8780"/>
		<stop  offset="0.8" style="stop-color:#877F79"/>
		<stop  offset="0.97" style="stop-color:#7F7872"/>
		<stop  offset="1" style="stop-color:#938A83"/>
	</linearGradient>
	<path fill="url(#SVGID_5_)" d="M106.797,173.898h40.5v219h-40.5V173.898z"/>
	
		<linearGradient id="SVGID_6_" gradientUnits="userSpaceOnUse" x1="212.7256" y1="201.3047" x2="212.7256" y2="-107.6943" gradientTransform="matrix(0.75 0 0 -0.75 -41.1344 318.6505)">
		<stop  offset="0" style="stop-color:#A29D98"/>
		<stop  offset="0.15" style="stop-color:#D7D0CB"/>
		<stop  offset="0.25" style="stop-color:#E9E5E2"/>
		<stop  offset="0.52" style="stop-color:#B9B3AE"/>
		<stop  offset="0.69" style="stop-color:#A59F9B"/>
		<stop  offset="0.8" style="stop-color:#9B9692"/>
		<stop  offset="0.97" style="stop-color:#938E89"/>
		<stop  offset="1" style="stop-color:#A9A39E"/>
	</linearGradient>
	<path fill="url(#SVGID_6_)" d="M113.535,167.672h9.75c1.5,0,2.832,1.34,2.832,2.988l0.168,225.761c0,1.5-1.508,2.836-3.16,2.836
		l-9.59,0.164c-1.5,0-3-1.504-3-3.152V170.672c0-1.5,1.34-3,2.992-3H113.535z"/>
	
		<linearGradient id="SVGID_7_" gradientUnits="userSpaceOnUse" x1="212.7241" y1="201.3047" x2="212.7241" y2="-107.6943" gradientTransform="matrix(0.75 0 0 -0.75 -25.4923 318.6505)">
		<stop  offset="0" style="stop-color:#A29D98"/>
		<stop  offset="0.15" style="stop-color:#D7D0CB"/>
		<stop  offset="0.25" style="stop-color:#E9E5E2"/>
		<stop  offset="0.52" style="stop-color:#B9B3AE"/>
		<stop  offset="0.69" style="stop-color:#A59F9B"/>
		<stop  offset="0.8" style="stop-color:#9B9692"/>
		<stop  offset="0.97" style="stop-color:#938E89"/>
		<stop  offset="1" style="stop-color:#A9A39E"/>
	</linearGradient>
	<path fill="url(#SVGID_7_)" d="M129.176,167.672h9.75c1.5,0,2.832,1.34,2.832,2.988l0.168,225.761c0,1.5-1.508,2.836-3.16,2.836
		l-9.59,0.164c-1.5,0-3-1.504-3-3.152V170.672c0-1.5,1.34-3,2.992-3H129.176z"/>
	
		<linearGradient id="SVGID_8_" gradientUnits="userSpaceOnUse" x1="212.7744" y1="201.3057" x2="212.7744" y2="178.2793" gradientTransform="matrix(0.75 0 0 -0.75 -10.2838 333.1632)">
		<stop  offset="0" style="stop-color:#A29D98"/>
		<stop  offset="0.15" style="stop-color:#D7D0CB"/>
		<stop  offset="0.25" style="stop-color:#E9E5E2"/>
		<stop  offset="0.52" style="stop-color:#B9B3AE"/>
		<stop  offset="0.69" style="stop-color:#A59F9B"/>
		<stop  offset="0.8" style="stop-color:#9B9692"/>
		<stop  offset="0.97" style="stop-color:#938E89"/>
		<stop  offset="1" style="stop-color:#A9A39E"/>
	</linearGradient>
	<path fill="url(#SVGID_8_)" d="M141.387,182.184h12c2.25,0,3.82,1.453,3.82,3.316l-0.07,10.934c0,1.5-1.645,3.02-3.758,3.02
		l-11.992-0.02V182.184z"/>
	
		<linearGradient id="SVGID_9_" gradientUnits="userSpaceOnUse" x1="212.7744" y1="201.3008" x2="212.7744" y2="178.2803" gradientTransform="matrix(0.75 0 0 -0.75 -10.2838 379.4796)">
		<stop  offset="0" style="stop-color:#A29D98"/>
		<stop  offset="0.15" style="stop-color:#D7D0CB"/>
		<stop  offset="0.25" style="stop-color:#E9E5E2"/>
		<stop  offset="0.52" style="stop-color:#B9B3AE"/>
		<stop  offset="0.69" style="stop-color:#A59F9B"/>
		<stop  offset="0.8" style="stop-color:#9B9692"/>
		<stop  offset="0.97" style="stop-color:#938E89"/>
		<stop  offset="1" style="stop-color:#A9A39E"/>
	</linearGradient>
	<path fill="url(#SVGID_9_)" d="M141.387,228.504h12c2.25,0,3.82,1.449,3.82,3.313l-0.07,10.938c0,1.5-1.645,3.016-3.758,3.016
		l-11.992-0.016V228.504z"/>
	
		<linearGradient id="SVGID_10_" gradientUnits="userSpaceOnUse" x1="212.7744" y1="201.3027" x2="212.7744" y2="178.2822" gradientTransform="matrix(0.75 0 0 -0.75 -10.2838 472.1134)">
		<stop  offset="0" style="stop-color:#A29D98"/>
		<stop  offset="0.15" style="stop-color:#D7D0CB"/>
		<stop  offset="0.25" style="stop-color:#E9E5E2"/>
		<stop  offset="0.52" style="stop-color:#B9B3AE"/>
		<stop  offset="0.69" style="stop-color:#A59F9B"/>
		<stop  offset="0.8" style="stop-color:#9B9692"/>
		<stop  offset="0.97" style="stop-color:#938E89"/>
		<stop  offset="1" style="stop-color:#A9A39E"/>
	</linearGradient>
	<path fill="url(#SVGID_10_)" d="M141.387,321.136h12c2.25,0,3.82,1.449,3.82,3.313l-0.07,10.938c0,1.5-1.645,3.016-3.758,3.016
		l-11.992-0.016V321.136z"/>
	
		<linearGradient id="SVGID_11_" gradientUnits="userSpaceOnUse" x1="212.7744" y1="201.3037" x2="212.7744" y2="178.2822" gradientTransform="matrix(0.75 0 0 -0.75 -10.2838 518.4298)">
		<stop  offset="0" style="stop-color:#A29D98"/>
		<stop  offset="0.15" style="stop-color:#D7D0CB"/>
		<stop  offset="0.25" style="stop-color:#E9E5E2"/>
		<stop  offset="0.52" style="stop-color:#B9B3AE"/>
		<stop  offset="0.69" style="stop-color:#A59F9B"/>
		<stop  offset="0.8" style="stop-color:#9B9692"/>
		<stop  offset="0.97" style="stop-color:#938E89"/>
		<stop  offset="1" style="stop-color:#A9A39E"/>
	</linearGradient>
	<path fill="url(#SVGID_11_)" d="M141.387,367.453h12c2.25,0,3.82,1.449,3.82,3.313l-0.07,10.938c0,1.5-1.645,3.016-3.758,3.016
		l-11.992-0.016V367.453z"/>
	
		<linearGradient id="SVGID_12_" gradientUnits="userSpaceOnUse" x1="212.7744" y1="201.3027" x2="212.7744" y2="178.2822" gradientTransform="matrix(0.75 0 0 -0.75 -10.2838 426.1447)">
		<stop  offset="0" style="stop-color:#A29D98"/>
		<stop  offset="0.15" style="stop-color:#D7D0CB"/>
		<stop  offset="0.25" style="stop-color:#E9E5E2"/>
		<stop  offset="0.52" style="stop-color:#B9B3AE"/>
		<stop  offset="0.69" style="stop-color:#A59F9B"/>
		<stop  offset="0.8" style="stop-color:#9B9692"/>
		<stop  offset="0.97" style="stop-color:#938E89"/>
		<stop  offset="1" style="stop-color:#A9A39E"/>
	</linearGradient>
	<path fill="url(#SVGID_12_)" d="M141.387,275.168h12c2.25,0,3.82,1.449,3.82,3.313l-0.07,10.937c0,1.5-1.645,3.016-3.758,3.016
		l-11.992-0.016V275.168z"/>
	
		<linearGradient id="SVGID_13_" gradientUnits="userSpaceOnUse" x1="176.252" y1="201.3057" x2="176.252" y2="178.2793" gradientTransform="matrix(-0.75 0 0 -0.75 234.8126 333.1622)">
		<stop  offset="0" style="stop-color:#A29D98"/>
		<stop  offset="0.15" style="stop-color:#D7D0CB"/>
		<stop  offset="0.25" style="stop-color:#E9E5E2"/>
		<stop  offset="0.52" style="stop-color:#B9B3AE"/>
		<stop  offset="0.69" style="stop-color:#A59F9B"/>
		<stop  offset="0.8" style="stop-color:#9B9692"/>
		<stop  offset="0.97" style="stop-color:#938E89"/>
		<stop  offset="1" style="stop-color:#A9A39E"/>
	</linearGradient>
	<path fill="url(#SVGID_13_)" d="M110.535,182.184h-12c-2.25,0-3.82,1.453-3.82,3.316l0.07,10.934c0,1.5,1.645,3.02,3.758,3.02
		l11.992-0.02V182.184z"/>
	
		<linearGradient id="SVGID_14_" gradientUnits="userSpaceOnUse" x1="176.252" y1="201.3008" x2="176.252" y2="178.2803" gradientTransform="matrix(-0.75 0 0 -0.75 234.8126 379.4796)">
		<stop  offset="0" style="stop-color:#A29D98"/>
		<stop  offset="0.15" style="stop-color:#D7D0CB"/>
		<stop  offset="0.25" style="stop-color:#E9E5E2"/>
		<stop  offset="0.52" style="stop-color:#B9B3AE"/>
		<stop  offset="0.69" style="stop-color:#A59F9B"/>
		<stop  offset="0.8" style="stop-color:#9B9692"/>
		<stop  offset="0.97" style="stop-color:#938E89"/>
		<stop  offset="1" style="stop-color:#A9A39E"/>
	</linearGradient>
	<path fill="url(#SVGID_14_)" d="M110.535,228.504h-12c-2.25,0-3.82,1.449-3.82,3.313l0.07,10.938c0,1.5,1.645,3.016,3.758,3.016
		l11.992-0.016V228.504z"/>
	
		<linearGradient id="SVGID_15_" gradientUnits="userSpaceOnUse" x1="176.252" y1="201.3027" x2="176.252" y2="178.2822" gradientTransform="matrix(-0.75 0 0 -0.75 234.8126 472.1134)">
		<stop  offset="0" style="stop-color:#A29D98"/>
		<stop  offset="0.15" style="stop-color:#D7D0CB"/>
		<stop  offset="0.25" style="stop-color:#E9E5E2"/>
		<stop  offset="0.52" style="stop-color:#B9B3AE"/>
		<stop  offset="0.69" style="stop-color:#A59F9B"/>
		<stop  offset="0.8" style="stop-color:#9B9692"/>
		<stop  offset="0.97" style="stop-color:#938E89"/>
		<stop  offset="1" style="stop-color:#A9A39E"/>
	</linearGradient>
	<path fill="url(#SVGID_15_)" d="M110.535,321.136h-12c-2.25,0-3.82,1.449-3.82,3.313l0.07,10.938c0,1.5,1.645,3.016,3.758,3.016
		l11.992-0.016V321.136z"/>
	
		<linearGradient id="SVGID_16_" gradientUnits="userSpaceOnUse" x1="176.252" y1="201.3037" x2="176.252" y2="178.2822" gradientTransform="matrix(-0.75 0 0 -0.75 234.8126 518.4298)">
		<stop  offset="0" style="stop-color:#A29D98"/>
		<stop  offset="0.15" style="stop-color:#D7D0CB"/>
		<stop  offset="0.25" style="stop-color:#E9E5E2"/>
		<stop  offset="0.52" style="stop-color:#B9B3AE"/>
		<stop  offset="0.69" style="stop-color:#A59F9B"/>
		<stop  offset="0.8" style="stop-color:#9B9692"/>
		<stop  offset="0.97" style="stop-color:#938E89"/>
		<stop  offset="1" style="stop-color:#A9A39E"/>
	</linearGradient>
	<path fill="url(#SVGID_16_)" d="M110.535,367.453h-12c-2.25,0-3.82,1.449-3.82,3.313l0.07,10.938c0,1.5,1.645,3.016,3.758,3.016
		l11.992-0.016V367.453z"/>
	
		<linearGradient id="SVGID_17_" gradientUnits="userSpaceOnUse" x1="176.252" y1="201.3027" x2="176.252" y2="178.2822" gradientTransform="matrix(-0.75 0 0 -0.75 234.8126 426.1447)">
		<stop  offset="0" style="stop-color:#A29D98"/>
		<stop  offset="0.15" style="stop-color:#D7D0CB"/>
		<stop  offset="0.25" style="stop-color:#E9E5E2"/>
		<stop  offset="0.52" style="stop-color:#B9B3AE"/>
		<stop  offset="0.69" style="stop-color:#A59F9B"/>
		<stop  offset="0.8" style="stop-color:#9B9692"/>
		<stop  offset="0.97" style="stop-color:#938E89"/>
		<stop  offset="1" style="stop-color:#A9A39E"/>
	</linearGradient>
	<path fill="url(#SVGID_17_)" d="M110.535,275.168h-12c-2.25,0-3.82,1.449-3.82,3.313l0.07,10.937c0,1.5,1.645,3.016,3.758,3.016
		l11.992-0.016V275.168z"/>
	
		<linearGradient id="SVGID_18_" gradientUnits="userSpaceOnUse" x1="229.2266" y1="201.3027" x2="229.2265" y2="-90.6982" gradientTransform="matrix(0.75 0 0 -0.75 305.6464 324.8751)">
		<stop  offset="0" style="stop-color:#8D857E"/>
		<stop  offset="0.15" style="stop-color:#BEB4AD"/>
		<stop  offset="0.25" style="stop-color:#DCD7D4"/>
		<stop  offset="0.52" style="stop-color:#A29891"/>
		<stop  offset="0.69" style="stop-color:#8F8780"/>
		<stop  offset="0.8" style="stop-color:#877F79"/>
		<stop  offset="0.97" style="stop-color:#7F7872"/>
		<stop  offset="1" style="stop-color:#938A83"/>
	</linearGradient>
	<path fill="url(#SVGID_18_)" d="M457.316,173.898h40.5v219h-40.5V173.898z"/>
	
		<linearGradient id="SVGID_19_" gradientUnits="userSpaceOnUse" x1="212.7251" y1="201.3057" x2="212.7251" y2="-107.6943" gradientTransform="matrix(0.75 0 0 -0.75 311.5067 318.6505)">
		<stop  offset="0" style="stop-color:#A29D98"/>
		<stop  offset="0.15" style="stop-color:#D7D0CB"/>
		<stop  offset="0.25" style="stop-color:#E9E5E2"/>
		<stop  offset="0.52" style="stop-color:#B9B3AE"/>
		<stop  offset="0.69" style="stop-color:#A59F9B"/>
		<stop  offset="0.8" style="stop-color:#9B9692"/>
		<stop  offset="0.97" style="stop-color:#938E89"/>
		<stop  offset="1" style="stop-color:#A9A39E"/>
	</linearGradient>
	<path fill="url(#SVGID_19_)" d="M466.175,167.672h9.75c1.5,0,2.832,1.34,2.832,2.988l0.168,225.761c0,1.5-1.508,2.836-3.16,2.836
		l-9.59,0.164c-1.5,0-3-1.504-3-3.152V170.672c0-1.5,1.34-3,2.992-3H466.175z"/>
	
		<linearGradient id="SVGID_20_" gradientUnits="userSpaceOnUse" x1="212.7217" y1="201.3057" x2="212.7217" y2="-107.6934" gradientTransform="matrix(0.75 0 0 -0.75 327.1493 318.6505)">
		<stop  offset="0" style="stop-color:#A29D98"/>
		<stop  offset="0.15" style="stop-color:#D7D0CB"/>
		<stop  offset="0.25" style="stop-color:#E9E5E2"/>
		<stop  offset="0.52" style="stop-color:#B9B3AE"/>
		<stop  offset="0.69" style="stop-color:#A59F9B"/>
		<stop  offset="0.8" style="stop-color:#9B9692"/>
		<stop  offset="0.97" style="stop-color:#938E89"/>
		<stop  offset="1" style="stop-color:#A9A39E"/>
	</linearGradient>
	<path fill="url(#SVGID_20_)" d="M481.816,167.672h9.75c1.5,0,2.832,1.34,2.832,2.988l0.168,225.761c0,1.5-1.508,2.836-3.16,2.836
		l-9.59,0.164c-1.5,0-3-1.504-3-3.152V170.672c0-1.5,1.34-3,2.992-3H481.816z"/>
	
		<linearGradient id="SVGID_21_" gradientUnits="userSpaceOnUse" x1="212.7725" y1="201.3066" x2="212.7725" y2="178.2803" gradientTransform="matrix(0.75 0 0 -0.75 342.4745 333.1622)">
		<stop  offset="0" style="stop-color:#A29D98"/>
		<stop  offset="0.15" style="stop-color:#D7D0CB"/>
		<stop  offset="0.25" style="stop-color:#E9E5E2"/>
		<stop  offset="0.52" style="stop-color:#B9B3AE"/>
		<stop  offset="0.69" style="stop-color:#A59F9B"/>
		<stop  offset="0.8" style="stop-color:#9B9692"/>
		<stop  offset="0.97" style="stop-color:#938E89"/>
		<stop  offset="1" style="stop-color:#A9A39E"/>
	</linearGradient>
	<path fill="url(#SVGID_21_)" d="M494.144,182.184h12c2.25,0,3.82,1.453,3.82,3.316l-0.07,10.934c0,1.5-1.645,3.02-3.758,3.02
		l-11.992-0.02V182.184z"/>
	
		<linearGradient id="SVGID_22_" gradientUnits="userSpaceOnUse" x1="212.7725" y1="201.3018" x2="212.7725" y2="178.2813" gradientTransform="matrix(0.75 0 0 -0.75 342.4745 379.4796)">
		<stop  offset="0" style="stop-color:#A29D98"/>
		<stop  offset="0.15" style="stop-color:#D7D0CB"/>
		<stop  offset="0.25" style="stop-color:#E9E5E2"/>
		<stop  offset="0.52" style="stop-color:#B9B3AE"/>
		<stop  offset="0.69" style="stop-color:#A59F9B"/>
		<stop  offset="0.8" style="stop-color:#9B9692"/>
		<stop  offset="0.97" style="stop-color:#938E89"/>
		<stop  offset="1" style="stop-color:#A9A39E"/>
	</linearGradient>
	<path fill="url(#SVGID_22_)" d="M494.144,228.504h12c2.25,0,3.82,1.449,3.82,3.313l-0.07,10.938c0,1.5-1.645,3.016-3.758,3.016
		l-11.992-0.016V228.504z"/>
	
		<linearGradient id="SVGID_23_" gradientUnits="userSpaceOnUse" x1="212.7725" y1="201.3037" x2="212.7725" y2="178.2832" gradientTransform="matrix(0.75 0 0 -0.75 342.4745 472.1134)">
		<stop  offset="0" style="stop-color:#A29D98"/>
		<stop  offset="0.15" style="stop-color:#D7D0CB"/>
		<stop  offset="0.25" style="stop-color:#E9E5E2"/>
		<stop  offset="0.52" style="stop-color:#B9B3AE"/>
		<stop  offset="0.69" style="stop-color:#A59F9B"/>
		<stop  offset="0.8" style="stop-color:#9B9692"/>
		<stop  offset="0.97" style="stop-color:#938E89"/>
		<stop  offset="1" style="stop-color:#A9A39E"/>
	</linearGradient>
	<path fill="url(#SVGID_23_)" d="M494.144,321.136h12c2.25,0,3.82,1.449,3.82,3.313l-0.07,10.938c0,1.5-1.645,3.016-3.758,3.016
		l-11.992-0.016V321.136z"/>
	
		<linearGradient id="SVGID_24_" gradientUnits="userSpaceOnUse" x1="212.7725" y1="201.3047" x2="212.7725" y2="178.2832" gradientTransform="matrix(0.75 0 0 -0.75 342.4745 518.4298)">
		<stop  offset="0" style="stop-color:#A29D98"/>
		<stop  offset="0.15" style="stop-color:#D7D0CB"/>
		<stop  offset="0.25" style="stop-color:#E9E5E2"/>
		<stop  offset="0.52" style="stop-color:#B9B3AE"/>
		<stop  offset="0.69" style="stop-color:#A59F9B"/>
		<stop  offset="0.8" style="stop-color:#9B9692"/>
		<stop  offset="0.97" style="stop-color:#938E89"/>
		<stop  offset="1" style="stop-color:#A9A39E"/>
	</linearGradient>
	<path fill="url(#SVGID_24_)" d="M494.144,367.453h12c2.25,0,3.82,1.449,3.82,3.313l-0.07,10.938c0,1.5-1.645,3.016-3.758,3.016
		l-11.992-0.016V367.453z"/>
	
		<linearGradient id="SVGID_25_" gradientUnits="userSpaceOnUse" x1="212.7725" y1="201.3037" x2="212.7725" y2="178.2832" gradientTransform="matrix(0.75 0 0 -0.75 342.4745 426.1447)">
		<stop  offset="0" style="stop-color:#A29D98"/>
		<stop  offset="0.15" style="stop-color:#D7D0CB"/>
		<stop  offset="0.25" style="stop-color:#E9E5E2"/>
		<stop  offset="0.52" style="stop-color:#B9B3AE"/>
		<stop  offset="0.69" style="stop-color:#A59F9B"/>
		<stop  offset="0.8" style="stop-color:#9B9692"/>
		<stop  offset="0.97" style="stop-color:#938E89"/>
		<stop  offset="1" style="stop-color:#A9A39E"/>
	</linearGradient>
	<path fill="url(#SVGID_25_)" d="M494.144,275.168h12c2.25,0,3.82,1.449,3.82,3.313l-0.07,10.937c0,1.5-1.645,3.016-3.758,3.016
		l-11.992-0.016V275.168z"/>
	
		<linearGradient id="SVGID_26_" gradientUnits="userSpaceOnUse" x1="176.252" y1="201.3057" x2="176.252" y2="178.2793" gradientTransform="matrix(-0.75 0 0 -0.75 587.5704 333.1622)">
		<stop  offset="0" style="stop-color:#A29D98"/>
		<stop  offset="0.15" style="stop-color:#D7D0CB"/>
		<stop  offset="0.25" style="stop-color:#E9E5E2"/>
		<stop  offset="0.52" style="stop-color:#B9B3AE"/>
		<stop  offset="0.69" style="stop-color:#A59F9B"/>
		<stop  offset="0.8" style="stop-color:#9B9692"/>
		<stop  offset="0.97" style="stop-color:#938E89"/>
		<stop  offset="1" style="stop-color:#A9A39E"/>
	</linearGradient>
	<path fill="url(#SVGID_26_)" d="M463.292,182.184h-12c-2.25,0-3.82,1.453-3.82,3.316l0.07,10.934c0,1.5,1.645,3.02,3.758,3.02
		l11.992-0.02V182.184z"/>
	
		<linearGradient id="SVGID_27_" gradientUnits="userSpaceOnUse" x1="176.252" y1="201.3008" x2="176.252" y2="178.2803" gradientTransform="matrix(-0.75 0 0 -0.75 587.5704 379.4796)">
		<stop  offset="0" style="stop-color:#A29D98"/>
		<stop  offset="0.15" style="stop-color:#D7D0CB"/>
		<stop  offset="0.25" style="stop-color:#E9E5E2"/>
		<stop  offset="0.52" style="stop-color:#B9B3AE"/>
		<stop  offset="0.69" style="stop-color:#A59F9B"/>
		<stop  offset="0.8" style="stop-color:#9B9692"/>
		<stop  offset="0.97" style="stop-color:#938E89"/>
		<stop  offset="1" style="stop-color:#A9A39E"/>
	</linearGradient>
	<path fill="url(#SVGID_27_)" d="M463.292,228.504h-12c-2.25,0-3.82,1.449-3.82,3.313l0.07,10.938c0,1.5,1.645,3.016,3.758,3.016
		l11.992-0.016V228.504z"/>
	
		<linearGradient id="SVGID_28_" gradientUnits="userSpaceOnUse" x1="176.252" y1="201.3027" x2="176.252" y2="178.2822" gradientTransform="matrix(-0.75 0 0 -0.75 587.5704 472.1134)">
		<stop  offset="0" style="stop-color:#A29D98"/>
		<stop  offset="0.15" style="stop-color:#D7D0CB"/>
		<stop  offset="0.25" style="stop-color:#E9E5E2"/>
		<stop  offset="0.52" style="stop-color:#B9B3AE"/>
		<stop  offset="0.69" style="stop-color:#A59F9B"/>
		<stop  offset="0.8" style="stop-color:#9B9692"/>
		<stop  offset="0.97" style="stop-color:#938E89"/>
		<stop  offset="1" style="stop-color:#A9A39E"/>
	</linearGradient>
	<path fill="url(#SVGID_28_)" d="M463.292,321.136h-12c-2.25,0-3.82,1.449-3.82,3.313l0.07,10.938c0,1.5,1.645,3.016,3.758,3.016
		l11.992-0.016V321.136z"/>
	
		<linearGradient id="SVGID_29_" gradientUnits="userSpaceOnUse" x1="176.252" y1="201.3037" x2="176.252" y2="178.2822" gradientTransform="matrix(-0.75 0 0 -0.75 587.5704 518.4298)">
		<stop  offset="0" style="stop-color:#A29D98"/>
		<stop  offset="0.15" style="stop-color:#D7D0CB"/>
		<stop  offset="0.25" style="stop-color:#E9E5E2"/>
		<stop  offset="0.52" style="stop-color:#B9B3AE"/>
		<stop  offset="0.69" style="stop-color:#A59F9B"/>
		<stop  offset="0.8" style="stop-color:#9B9692"/>
		<stop  offset="0.97" style="stop-color:#938E89"/>
		<stop  offset="1" style="stop-color:#A9A39E"/>
	</linearGradient>
	<path fill="url(#SVGID_29_)" d="M463.292,367.453h-12c-2.25,0-3.82,1.449-3.82,3.313l0.07,10.938c0,1.5,1.645,3.016,3.758,3.016
		l11.992-0.016V367.453z"/>
	
		<linearGradient id="SVGID_30_" gradientUnits="userSpaceOnUse" x1="176.252" y1="201.3027" x2="176.252" y2="178.2822" gradientTransform="matrix(-0.75 0 0 -0.75 587.5704 426.1447)">
		<stop  offset="0" style="stop-color:#A29D98"/>
		<stop  offset="0.15" style="stop-color:#D7D0CB"/>
		<stop  offset="0.25" style="stop-color:#E9E5E2"/>
		<stop  offset="0.52" style="stop-color:#B9B3AE"/>
		<stop  offset="0.69" style="stop-color:#A59F9B"/>
		<stop  offset="0.8" style="stop-color:#9B9692"/>
		<stop  offset="0.97" style="stop-color:#938E89"/>
		<stop  offset="1" style="stop-color:#A9A39E"/>
	</linearGradient>
	<path fill="url(#SVGID_30_)" d="M463.292,275.168h-12c-2.25,0-3.82,1.449-3.82,3.313l0.07,10.937c0,1.5,1.645,3.016,3.758,3.016
		l11.992-0.016V275.168z"/>
	
		<linearGradient id="SVGID_31_" gradientUnits="userSpaceOnUse" x1="226.7227" y1="201.3018" x2="226.7227" y2="155.3027" gradientTransform="matrix(0.75 0 0 -0.75 -149.4132 417.0118)">
		<stop  offset="0" style="stop-color:#928A85"/>
		<stop  offset="0.15" style="stop-color:#C4BBB4"/>
		<stop  offset="0.25" style="stop-color:#DFDAD7"/>
		<stop  offset="0.52" style="stop-color:#A79E98"/>
		<stop  offset="0.69" style="stop-color:#948C87"/>
		<stop  offset="0.8" style="stop-color:#8C847F"/>
		<stop  offset="0.97" style="stop-color:#847D78"/>
		<stop  offset="1" style="stop-color:#98908A"/>
	</linearGradient>
	<path fill="url(#SVGID_31_)" d="M2.254,266.035h36.75v34.5H2.254V266.035z"/>
</g>
</svg>
