<?xml version="1.0" encoding="utf-8"?>
<!-- Generator: Adobe Illustrator 16.0.0, SVG Export Plug-In . SVG Version: 6.00 Build 0)  -->
<!DOCTYPE svg PUBLIC "-//W3C//DTD SVG 1.1//EN" "http://www.w3.org/Graphics/SVG/1.1/DTD/svg11.dtd">
<svg preserveAspectRatio="none"   version="1.1" id="图层_1" xmlns="http://www.w3.org/2000/svg" xmlns:xlink="http://www.w3.org/1999/xlink" x="0px" y="0px"
	 width="566.98px" height="470.25px" viewBox="-0.051 97.047 566.98 470.25" enable-background="new -0.051 97.047 566.98 470.25"
	 xml:space="preserve">
<g id="surface96">
	
		<linearGradient id="SVGID_1_" gradientUnits="userSpaceOnUse" x1="831.4653" y1="-112.1968" x2="202.2275" y2="-112.1968" gradientTransform="matrix(0.75 0 0 -0.75 -56.671 248.0236)">
		<stop  offset="0" style="stop-color:#92A6AE"/>
		<stop  offset="0.03" style="stop-color:#DAEFF8"/>
		<stop  offset="0.08" style="stop-color:#BED8E3"/>
		<stop  offset="0.64" style="stop-color:#BBD5DF"/>
		<stop  offset="0.95" style="stop-color:#B7D0DA"/>
		<stop  offset="1" style="stop-color:#879AA2"/>
	</linearGradient>
	<path fill="url(#SVGID_1_)" d="M102.5,97.047h456.75c4.5,0,7.68,3.383,7.68,7.633l-0.18,454.367c0,4.5-3.313,7.953-7.582,7.953
		L102.5,567.296c-3.75,0-7.5-3.773-7.5-8.023V104.547c0-3.75,3.395-7.5,7.664-7.5H102.5z"/>
	<path fill="#FFFFFF" d="M128.004,332.335c0-111.75,90.762-202.5,202.96-202.5c112.039,0,202.957,90.508,202.957,202.187
		C533.753,443.335,443,534.21,330.964,534.21c-112.21-0.125-202.96-90.574-202.96-202.188V332.335z"/>
	
		<linearGradient id="SVGID_2_" gradientUnits="userSpaceOnUse" x1="326.2231" y1="79.3047" x2="202.2236" y2="79.3047" gradientTransform="matrix(0.75 0 0 -0.75 -151.5079 533.2667)">
		<stop  offset="0" style="stop-color:#92A6AE"/>
		<stop  offset="0.03" style="stop-color:#DAEFF8"/>
		<stop  offset="0.08" style="stop-color:#BED8E3"/>
		<stop  offset="0.64" style="stop-color:#BBD5DF"/>
		<stop  offset="0.95" style="stop-color:#B7D0DA"/>
		<stop  offset="1" style="stop-color:#879AA2"/>
	</linearGradient>
	<path fill="url(#SVGID_2_)" d="M7.66,382.289h77.25c4.5,0,7.996,3.414,7.996,7.664l0.254,167.086c0,4.5-3.746,7.875-8.016,7.875
		L7.66,565.289c-3.75,0-7.5-3.82-7.5-8.07v-167.43c0-3.75,3.43-7.5,7.699-7.5H7.66z"/>
	
		<linearGradient id="SVGID_3_" gradientUnits="userSpaceOnUse" x1="257.2231" y1="78.168" x2="202.1401" y2="78.168" gradientTransform="matrix(0.75 0 0 -0.75 -97.8903 531.1827)">
		<stop  offset="0" style="stop-color:#92A6AE"/>
		<stop  offset="0.03" style="stop-color:#DAEFF8"/>
		<stop  offset="0.08" style="stop-color:#BED8E3"/>
		<stop  offset="0.64" style="stop-color:#BBD5DF"/>
		<stop  offset="0.95" style="stop-color:#B7D0DA"/>
		<stop  offset="1" style="stop-color:#879AA2"/>
	</linearGradient>
	<path fill="url(#SVGID_3_)" d="M61.277,380.203h26.25c3.75,0,7.406,3.414,7.406,7.668l0.094,169.332c0,4.5-3.555,7.711-7.82,7.711
		l-25.93-0.211c-3.75,0-7.563-3.266-7.563-7.516l0.063-169.484c0-3.75,3.398-7.5,7.664-7.5H61.277z"/>
	
		<linearGradient id="SVGID_4_" gradientUnits="userSpaceOnUse" x1="328.7144" y1="100.1152" x2="201.9858" y2="100.1152" gradientTransform="matrix(0.75 0 0 -0.75 -151.5406 422.4689)">
		<stop  offset="0" style="stop-color:#B5B5B5"/>
		<stop  offset="0.03" style="stop-color:#FFFFFF"/>
		<stop  offset="0.08" style="stop-color:#EBEBEB"/>
		<stop  offset="0.64" style="stop-color:#E7E7E7"/>
		<stop  offset="0.95" style="stop-color:#E2E2E2"/>
		<stop  offset="1" style="stop-color:#A8A8A8"/>
	</linearGradient>
	<path fill="url(#SVGID_4_)" d="M10.629,271.492h73.5c6,0,10.867,4.723,10.867,10.656l-0.367,130.343
		c0,6-4.551,10.781-10.512,10.781l-73.488-0.281c-6,0-10.68-4.531-10.68-10.465l0.18-130.535c0-6,4.652-10.5,10.609-10.5H10.629z"/>
	
		<linearGradient id="SVGID_5_" gradientUnits="userSpaceOnUse" x1="408.6255" y1="218.5625" x2="366.6255" y2="218.5625" gradientTransform="matrix(0 0.75 0.75 0 165.6112 -121.8014)">
		<stop  offset="0" style="stop-color:#92A6AE"/>
		<stop  offset="0.03" style="stop-color:#DAEFF8"/>
		<stop  offset="0.08" style="stop-color:#BED8E3"/>
		<stop  offset="0.64" style="stop-color:#BBD5DF"/>
		<stop  offset="0.95" style="stop-color:#B7D0DA"/>
		<stop  offset="1" style="stop-color:#879AA2"/>
	</linearGradient>
	<path fill="url(#SVGID_5_)" d="M192.031,184.668c19.5-21,44.426-31.5,44.426-31.5h190.324c0,0,22.297,11.191,40.5,29.32
		c-2.25-0.07-275.496,2.047-275.496,2.047L192.031,184.668z"/>
	
		<linearGradient id="SVGID_6_" gradientUnits="userSpaceOnUse" x1="444.6567" y1="159.2275" x2="366.6255" y2="159.2275" gradientTransform="matrix(0 0.75 0.75 0 210.951 -92.1564)">
		<stop  offset="0" style="stop-color:#92A6AE"/>
		<stop  offset="0.03" style="stop-color:#DAEFF8"/>
		<stop  offset="0.08" style="stop-color:#BED8E3"/>
		<stop  offset="0.64" style="stop-color:#BBD5DF"/>
		<stop  offset="0.95" style="stop-color:#B7D0DA"/>
		<stop  offset="1" style="stop-color:#879AA2"/>
	</linearGradient>
	<path fill="url(#SVGID_6_)" d="M148.121,241.313c17.25-37.5,46.426-58.5,46.426-58.5h272.324c0,0,25.828,16.055,45.75,58.523
		c0.75-0.023-364.375,0-364.375,0L148.121,241.313z"/>
	
		<linearGradient id="SVGID_7_" gradientUnits="userSpaceOnUse" x1="407.6245" y1="129.7227" x2="366.6245" y2="129.7227" gradientTransform="matrix(0 0.75 0.75 0 234.3094 12.8715)">
		<stop  offset="0" style="stop-color:#92A6AE"/>
		<stop  offset="0.03" style="stop-color:#DAEFF8"/>
		<stop  offset="0.08" style="stop-color:#BED8E3"/>
		<stop  offset="0.64" style="stop-color:#BBD5DF"/>
		<stop  offset="0.95" style="stop-color:#B7D0DA"/>
		<stop  offset="1" style="stop-color:#879AA2"/>
	</linearGradient>
	<path fill="url(#SVGID_7_)" d="M127.227,318.589l3.75-30.75h399l6,30.75H127.227z"/>
	
		<linearGradient id="SVGID_8_" gradientUnits="userSpaceOnUse" x1="444.6548" y1="129.2393" x2="366.6235" y2="129.2393" gradientTransform="matrix(0 0.75 0.75 0 234.3085 42.598)">
		<stop  offset="0" style="stop-color:#92A6AE"/>
		<stop  offset="0.03" style="stop-color:#DAEFF8"/>
		<stop  offset="0.08" style="stop-color:#BED8E3"/>
		<stop  offset="0.64" style="stop-color:#BBD5DF"/>
		<stop  offset="0.95" style="stop-color:#B7D0DA"/>
		<stop  offset="1" style="stop-color:#879AA2"/>
	</linearGradient>
	<path fill="url(#SVGID_8_)" d="M131.727,376.066c-6-17.25-5.207-58.5-5.207-58.5h409.457c0,0,0.695,48.258-7.551,58.523
		c0.051-0.023-396.394,0-396.394,0L131.727,376.066z"/>
	
		<linearGradient id="SVGID_9_" gradientUnits="userSpaceOnUse" x1="408.6255" y1="158.2275" x2="366.6255" y2="158.2275" gradientTransform="matrix(0 0.75 0.75 0 212.329 144.9091)">
		<stop  offset="0" style="stop-color:#92A6AE"/>
		<stop  offset="0.03" style="stop-color:#DAEFF8"/>
		<stop  offset="0.08" style="stop-color:#BED8E3"/>
		<stop  offset="0.64" style="stop-color:#BBD5DF"/>
		<stop  offset="0.95" style="stop-color:#B7D0DA"/>
		<stop  offset="1" style="stop-color:#879AA2"/>
	</linearGradient>
	<path fill="url(#SVGID_9_)" d="M166.75,450.628L148,419.878h366l-18,31.5L166.75,450.628z"/>
	
		<linearGradient id="SVGID_10_" gradientUnits="userSpaceOnUse" x1="443.6255" y1="182.2246" x2="366.6255" y2="182.2246" gradientTransform="matrix(0 0.75 0.75 0 194.4637 175.6864)">
		<stop  offset="0" style="stop-color:#92A6AE"/>
		<stop  offset="0.03" style="stop-color:#DAEFF8"/>
		<stop  offset="0.08" style="stop-color:#BED8E3"/>
		<stop  offset="0.64" style="stop-color:#BBD5DF"/>
		<stop  offset="0.95" style="stop-color:#B7D0DA"/>
		<stop  offset="1" style="stop-color:#879AA2"/>
	</linearGradient>
	<path fill="url(#SVGID_10_)" d="M166.133,450.656c-0.75,0,330,0.691,330,0.684c-30,42.066-64.57,56.918-64.57,56.918
		l-200.929,0.148c0,0-43.641-24.219-64.258-57.75H166.133z"/>
</g>
</svg>
