<?xml version="1.0" encoding="utf-8"?>
<!-- Generator: Adobe Illustrator 16.0.0, SVG Export Plug-In . SVG Version: 6.00 Build 0)  -->
<!DOCTYPE svg PUBLIC "-//W3C//DTD SVG 1.1//EN" "http://www.w3.org/Graphics/SVG/1.1/DTD/svg11.dtd">
<svg preserveAspectRatio="none"   version="1.1" id="图层_1" xmlns="http://www.w3.org/2000/svg" xmlns:xlink="http://www.w3.org/1999/xlink" x="0px" y="0px"
	 width="551.871px" height="326.968px" viewBox="7.473 120.148 551.871 326.968"
	 enable-background="new 7.473 120.148 551.871 326.968" xml:space="preserve">
<g id="surface239">
	
		<linearGradient id="SVGID_1_" gradientUnits="userSpaceOnUse" x1="234.2236" y1="193.8047" x2="202.2236" y2="193.8047" gradientTransform="matrix(0.75 0 0 -0.75 40.3358 271.1271)">
		<stop  offset="0" style="stop-color:#BAC0C1"/>
		<stop  offset="0.15" style="stop-color:#F4FAFC"/>
		<stop  offset="0.25" style="stop-color:#F8FCFD"/>
		<stop  offset="0.52" style="stop-color:#D5DBDD"/>
		<stop  offset="0.69" style="stop-color:#BDC3C4"/>
		<stop  offset="0.8" style="stop-color:#B3B8B9"/>
		<stop  offset="0.97" style="stop-color:#A9AEAF"/>
		<stop  offset="1" style="stop-color:#C2C7C9"/>
	</linearGradient>
	<path fill="url(#SVGID_1_)" d="M192.004,131.398h24v-11.25h-24V131.398z"/>
	
		<linearGradient id="SVGID_2_" gradientUnits="userSpaceOnUse" x1="454.7222" y1="201.3066" x2="454.7221" y2="-151.6934" gradientTransform="matrix(0.75 0 0 -0.75 -57.5699 333.1906)">
		<stop  offset="0" style="stop-color:#AEAEAD"/>
		<stop  offset="0.03" style="stop-color:#F8F8F7"/>
		<stop  offset="0.08" style="stop-color:#E3E3E2"/>
		<stop  offset="0.64" style="stop-color:#DFDFDE"/>
		<stop  offset="0.95" style="stop-color:#DADAD9"/>
		<stop  offset="1" style="stop-color:#A2A2A1"/>
	</linearGradient>
	<path fill="url(#SVGID_2_)" d="M94.098,182.211h378.75v264.75H94.098V182.211z"/>
	
		<linearGradient id="SVGID_3_" gradientUnits="userSpaceOnUse" x1="211.7236" y1="201.3018" x2="211.7236" y2="-151.6973" gradientTransform="matrix(0.75 0 0 -0.75 321.1053 333.1906)">
		<stop  offset="0" style="stop-color:#9A9CA1"/>
		<stop  offset="0.15" style="stop-color:#CED0D5"/>
		<stop  offset="0.25" style="stop-color:#E4E5E8"/>
		<stop  offset="0.52" style="stop-color:#B1B2B8"/>
		<stop  offset="0.69" style="stop-color:#9D9EA3"/>
		<stop  offset="0.8" style="stop-color:#94959A"/>
		<stop  offset="0.97" style="stop-color:#8B8D91"/>
		<stop  offset="1" style="stop-color:#A1A2A7"/>
	</linearGradient>
	<path fill="url(#SVGID_3_)" d="M472.773,182.215h14.25v264.75h-14.25V182.215z"/>
	
		<linearGradient id="SVGID_4_" gradientUnits="userSpaceOnUse" x1="211.7227" y1="201.3008" x2="211.7226" y2="-151.6982" gradientTransform="matrix(0.75 0 0 -0.75 -72.1984 333.1906)">
		<stop  offset="0" style="stop-color:#9A9CA1"/>
		<stop  offset="0.15" style="stop-color:#CED0D5"/>
		<stop  offset="0.25" style="stop-color:#E4E5E8"/>
		<stop  offset="0.52" style="stop-color:#B1B2B8"/>
		<stop  offset="0.69" style="stop-color:#9D9EA3"/>
		<stop  offset="0.8" style="stop-color:#94959A"/>
		<stop  offset="0.97" style="stop-color:#8B8D91"/>
		<stop  offset="1" style="stop-color:#A1A2A7"/>
	</linearGradient>
	<path fill="url(#SVGID_4_)" d="M79.469,182.215h14.25v264.75h-14.25V182.215z"/>
	
		<linearGradient id="SVGID_5_" gradientUnits="userSpaceOnUse" x1="314.8374" y1="191.7134" x2="152.6204" y2="-89.2548" gradientTransform="matrix(0.75 0 0 -0.75 335.6737 345.7736)">
		<stop  offset="0" style="stop-color:#9A9CA1"/>
		<stop  offset="0.15" style="stop-color:#CED0D5"/>
		<stop  offset="0.25" style="stop-color:#E4E5E8"/>
		<stop  offset="0.52" style="stop-color:#B1B2B8"/>
		<stop  offset="0.69" style="stop-color:#9D9EA3"/>
		<stop  offset="0.8" style="stop-color:#94959A"/>
		<stop  offset="0.97" style="stop-color:#8B8D91"/>
		<stop  offset="1" style="stop-color:#A1A2A7"/>
	</linearGradient>
	<path fill="url(#SVGID_5_)" d="M487.343,194.797c41.25,6.75,71.875,57.168,71.875,57.168l0.125,125.082
		c0,0-30.949,51.387-72,57.148C487.343,434.046,487.343,194.797,487.343,194.797z"/>
	
		<linearGradient id="SVGID_6_" gradientUnits="userSpaceOnUse" x1="278.3125" y1="191.7148" x2="116.0943" y2="-89.2552" gradientTransform="matrix(-0.75 0 0 -0.75 203.7482 345.7736)">
		<stop  offset="0" style="stop-color:#9A9CA1"/>
		<stop  offset="0.15" style="stop-color:#CED0D5"/>
		<stop  offset="0.25" style="stop-color:#E4E5E8"/>
		<stop  offset="0.52" style="stop-color:#B1B2B8"/>
		<stop  offset="0.69" style="stop-color:#9D9EA3"/>
		<stop  offset="0.8" style="stop-color:#94959A"/>
		<stop  offset="0.97" style="stop-color:#8B8D91"/>
		<stop  offset="1" style="stop-color:#A1A2A7"/>
	</linearGradient>
	<path fill="url(#SVGID_6_)" d="M79.473,194.797c-41.25,6.75-71.879,57.168-71.879,57.168L7.473,377.046
		c0,0,30.945,51.387,72,57.148C79.473,434.046,79.473,194.797,79.473,194.797z"/>
	
		<linearGradient id="SVGID_7_" gradientUnits="userSpaceOnUse" x1="302.2251" y1="166.3047" x2="202.2251" y2="166.3047" gradientTransform="matrix(0.75 0 0 -0.75 15.0765 281.1818)">
		<stop  offset="0" style="stop-color:#7AA5B7"/>
		<stop  offset="0.15" style="stop-color:#A8DBF0"/>
		<stop  offset="0.25" style="stop-color:#D2EBF6"/>
		<stop  offset="0.52" style="stop-color:#8BBDD1"/>
		<stop  offset="0.69" style="stop-color:#7CA8BA"/>
		<stop  offset="0.8" style="stop-color:#749EB0"/>
		<stop  offset="0.97" style="stop-color:#6E95A6"/>
		<stop  offset="1" style="stop-color:#7FACBE"/>
	</linearGradient>
	<path fill="url(#SVGID_7_)" d="M166.746,182.703h75v-52.5h-75V182.703z"/>
	
		<linearGradient id="SVGID_8_" gradientUnits="userSpaceOnUse" x1="454.7241" y1="201.3066" x2="454.7241" y2="33.3057" gradientTransform="matrix(0.75 0 0 -0.75 -57.5704 472.0958)">
		<stop  offset="0" style="stop-color:#AEAEAD"/>
		<stop  offset="0.03" style="stop-color:#F8F8F7"/>
		<stop  offset="0.08" style="stop-color:#E3E3E2"/>
		<stop  offset="0.64" style="stop-color:#DFDFDE"/>
		<stop  offset="0.95" style="stop-color:#DADAD9"/>
		<stop  offset="1" style="stop-color:#A2A2A1"/>
	</linearGradient>
	<path fill="url(#SVGID_8_)" d="M94.098,321.117h378.75v126H94.098V321.117z"/>
	
		<linearGradient id="SVGID_9_" gradientUnits="userSpaceOnUse" x1="454.7241" y1="201.3018" x2="454.7241" y2="156.3008" gradientTransform="matrix(0.75 0 0 -0.75 -57.5704 333.1906)">
		<stop  offset="0" style="stop-color:#AEAEAD"/>
		<stop  offset="0.03" style="stop-color:#F8F8F7"/>
		<stop  offset="0.08" style="stop-color:#E3E3E2"/>
		<stop  offset="0.64" style="stop-color:#DFDFDE"/>
		<stop  offset="0.95" style="stop-color:#DADAD9"/>
		<stop  offset="1" style="stop-color:#A2A2A1"/>
	</linearGradient>
	<path fill="url(#SVGID_9_)" d="M94.098,182.215h378.75v33.75H94.098V182.215z"/>
	
		<linearGradient id="SVGID_10_" gradientUnits="userSpaceOnUse" x1="210.7236" y1="201.3047" x2="210.7236" y2="172.3047" gradientTransform="matrix(0.75 0 0 -0.75 334.828 369.9161)">
		<stop  offset="0" style="stop-color:#BAC0C1"/>
		<stop  offset="0.15" style="stop-color:#F4FAFC"/>
		<stop  offset="0.25" style="stop-color:#F8FCFD"/>
		<stop  offset="0.52" style="stop-color:#D5DBDD"/>
		<stop  offset="0.69" style="stop-color:#BDC3C4"/>
		<stop  offset="0.8" style="stop-color:#B3B8B9"/>
		<stop  offset="0.97" style="stop-color:#A9AEAF"/>
		<stop  offset="1" style="stop-color:#C2C7C9"/>
	</linearGradient>
	<path fill="url(#SVGID_10_)" d="M486.496,218.938h12.75v21.75h-12.75V218.938z"/>
	
		<linearGradient id="SVGID_11_" gradientUnits="userSpaceOnUse" x1="210.7236" y1="201.3037" x2="210.7236" y2="172.3037" gradientTransform="matrix(0.75 0 0 -0.75 334.828 539.2267)">
		<stop  offset="0" style="stop-color:#BAC0C1"/>
		<stop  offset="0.15" style="stop-color:#F4FAFC"/>
		<stop  offset="0.25" style="stop-color:#F8FCFD"/>
		<stop  offset="0.52" style="stop-color:#D5DBDD"/>
		<stop  offset="0.69" style="stop-color:#BDC3C4"/>
		<stop  offset="0.8" style="stop-color:#B3B8B9"/>
		<stop  offset="0.97" style="stop-color:#A9AEAF"/>
		<stop  offset="1" style="stop-color:#C2C7C9"/>
	</linearGradient>
	<path fill="url(#SVGID_11_)" d="M486.496,388.25h12.75V410h-12.75V388.25z"/>
	
		<linearGradient id="SVGID_12_" gradientUnits="userSpaceOnUse" x1="210.7261" y1="201.3037" x2="210.7261" y2="172.3037" gradientTransform="matrix(0.75 0 0 -0.75 -85.1774 369.9152)">
		<stop  offset="0" style="stop-color:#BAC0C1"/>
		<stop  offset="0.15" style="stop-color:#F4FAFC"/>
		<stop  offset="0.25" style="stop-color:#F8FCFD"/>
		<stop  offset="0.52" style="stop-color:#D5DBDD"/>
		<stop  offset="0.69" style="stop-color:#BDC3C4"/>
		<stop  offset="0.8" style="stop-color:#B3B8B9"/>
		<stop  offset="0.97" style="stop-color:#A9AEAF"/>
		<stop  offset="1" style="stop-color:#C2C7C9"/>
	</linearGradient>
	<path fill="url(#SVGID_12_)" d="M66.492,218.938h12.75v21.75h-12.75V218.938z"/>
	
		<linearGradient id="SVGID_13_" gradientUnits="userSpaceOnUse" x1="210.7261" y1="201.3027" x2="210.7261" y2="172.3027" gradientTransform="matrix(0.75 0 0 -0.75 -85.1774 539.2267)">
		<stop  offset="0" style="stop-color:#BAC0C1"/>
		<stop  offset="0.15" style="stop-color:#F4FAFC"/>
		<stop  offset="0.25" style="stop-color:#F8FCFD"/>
		<stop  offset="0.52" style="stop-color:#D5DBDD"/>
		<stop  offset="0.69" style="stop-color:#BDC3C4"/>
		<stop  offset="0.8" style="stop-color:#B3B8B9"/>
		<stop  offset="0.97" style="stop-color:#A9AEAF"/>
		<stop  offset="1" style="stop-color:#C2C7C9"/>
	</linearGradient>
	<path fill="url(#SVGID_13_)" d="M66.492,388.25h12.75V410h-12.75V388.25z"/>
	<path fill="#9A9CA1" d="M300.98,369.011c0-5.25,4.48-9.75,10.035-9.75c5.715,0,10.059,4.488,10.059,10.031
		c0.156,5.719-4.504,10.031-10.059,10.031c-5.535,0.188-10.059-4.492-10.059-10.031L300.98,369.011z"/>
	
		<linearGradient id="SVGID_14_" gradientUnits="userSpaceOnUse" x1="220.7339" y1="203.3198" x2="205.716" y2="177.3081" gradientTransform="matrix(0.75 0 0 -0.75 151.1112 512.0314)">
		<stop  offset="0" style="stop-color:#F8FCFD"/>
		<stop  offset="0.69" style="stop-color:#BDC3C4"/>
		<stop  offset="0.8" style="stop-color:#B3B8B9"/>
		<stop  offset="1" style="stop-color:#A9AEAF"/>
	</linearGradient>
	<path fill="url(#SVGID_14_)" d="M302.781,369.304c0-4.5,3.676-8.25,8.238-8.25c4.512,0,8.262,3.688,8.262,8.238
		c0,4.512-3.699,8.238-8.262,8.238c-4.488,0.023-8.258-3.691-8.258-8.238L302.781,369.304z"/>
	<path fill="#818E94" d="M305.769,369.292c0-3,2.348-5.25,5.258-5.25c2.992,0,5.27,2.348,5.27,5.25c-0.027,3-2.359,5.25-5.27,5.25
		c-3.008,0-5.27-2.352-5.27-5.25H305.769z"/>
	<path fill="#9A9CA1" d="M245.852,369.011c0-5.25,4.477-9.75,10.035-9.75c5.715,0,10.055,4.488,10.055,10.031
		c0.16,5.719-4.5,10.031-10.055,10.031c-5.535,0.188-10.059-4.492-10.059-10.031L245.852,369.011z"/>
	
		<linearGradient id="SVGID_15_" gradientUnits="userSpaceOnUse" x1="220.7339" y1="203.3213" x2="205.7153" y2="177.3084" gradientTransform="matrix(0.75 0 0 -0.75 95.9799 512.0314)">
		<stop  offset="0" style="stop-color:#F8FCFD"/>
		<stop  offset="0.69" style="stop-color:#BDC3C4"/>
		<stop  offset="0.8" style="stop-color:#B3B8B9"/>
		<stop  offset="1" style="stop-color:#A9AEAF"/>
	</linearGradient>
	<path fill="url(#SVGID_15_)" d="M247.648,369.304c0-4.5,3.68-8.25,8.242-8.25c4.508,0,8.258,3.688,8.258,8.238
		c0,4.512-3.699,8.238-8.258,8.238c-4.492,0.023-8.262-3.691-8.262-8.238L247.648,369.304z"/>
	<path fill="#818E94" d="M250.641,369.292c0-3,2.348-5.25,5.254-5.25c2.996,0,5.27,2.348,5.27,5.25c-0.023,3-2.359,5.25-5.27,5.25
		c-3.004,0-5.266-2.352-5.266-5.25H250.641z"/>
	<path fill="#9A9CA1" d="M227.734,242.637c0-10.5,8.781-19.5,19.672-19.5c11.078,0,19.715,8.813,19.715,19.688
		c0.363,11.063-8.828,19.684-19.715,19.684c-10.672-0.371-19.719-8.813-19.719-19.684L227.734,242.637z"/>
	
		<linearGradient id="SVGID_16_" gradientUnits="userSpaceOnUse" x1="226.7241" y1="201.3037" x2="226.7241" y2="159.3037" gradientTransform="matrix(0.75 0 0 -0.75 77.3983 377.92)">
		<stop  offset="0" style="stop-color:#BAC0C1"/>
		<stop  offset="0.15" style="stop-color:#F4FAFC"/>
		<stop  offset="0.25" style="stop-color:#F8FCFD"/>
		<stop  offset="0.52" style="stop-color:#D5DBDD"/>
		<stop  offset="0.69" style="stop-color:#BDC3C4"/>
		<stop  offset="0.8" style="stop-color:#B3B8B9"/>
		<stop  offset="0.97" style="stop-color:#A9AEAF"/>
		<stop  offset="1" style="stop-color:#C2C7C9"/>
	</linearGradient>
	<path fill="url(#SVGID_16_)" d="M256.816,226.941l9,15.75l-9,15.75h-18.75l-9-15.75l9-15.75H256.816z"/>
	
		<linearGradient id="SVGID_17_" gradientUnits="userSpaceOnUse" x1="230.8257" y1="200.0317" x2="201.124" y2="175.1091" gradientTransform="matrix(0.75 0 0 -0.75 85.4535 383.4982)">
		<stop  offset="0" style="stop-color:#CACCD0"/>
		<stop  offset="0.47" style="stop-color:#93969A"/>
		<stop  offset="1" style="stop-color:#616265"/>
	</linearGradient>
	<path fill="url(#SVGID_17_)" d="M237.121,243.02c0-6,4.602-10.5,10.305-10.5c5.445,0,10.328,4.613,10.328,10.305
		c0.367,5.445-4.625,10.301-10.328,10.301c-5.805-0.355-10.328-4.613-10.328-10.301L237.121,243.02z"/>
	<path fill="#9A9CA1" d="M299.785,242.637c0-10.5,8.785-19.5,19.672-19.5c11.078,0,19.719,8.813,19.719,19.688
		c0.359,11.063-8.828,19.684-19.719,19.684c-10.672-0.371-19.715-8.813-19.715-19.684L299.785,242.637z"/>
	
		<linearGradient id="SVGID_18_" gradientUnits="userSpaceOnUse" x1="226.7236" y1="201.3037" x2="226.7236" y2="159.3037" gradientTransform="matrix(0.75 0 0 -0.75 149.453 377.92)">
		<stop  offset="0" style="stop-color:#BAC0C1"/>
		<stop  offset="0.15" style="stop-color:#F4FAFC"/>
		<stop  offset="0.25" style="stop-color:#F8FCFD"/>
		<stop  offset="0.52" style="stop-color:#D5DBDD"/>
		<stop  offset="0.69" style="stop-color:#BDC3C4"/>
		<stop  offset="0.8" style="stop-color:#B3B8B9"/>
		<stop  offset="0.97" style="stop-color:#A9AEAF"/>
		<stop  offset="1" style="stop-color:#C2C7C9"/>
	</linearGradient>
	<path fill="url(#SVGID_18_)" d="M328.871,226.941l9,15.75l-9,15.75h-18.75l-9-15.75l9-15.75H328.871z"/>
	
		<linearGradient id="SVGID_19_" gradientUnits="userSpaceOnUse" x1="230.8262" y1="200.0317" x2="201.1234" y2="175.1082" gradientTransform="matrix(0.75 0 0 -0.75 157.5077 383.4982)">
		<stop  offset="0" style="stop-color:#CACCD0"/>
		<stop  offset="0.47" style="stop-color:#93969A"/>
		<stop  offset="1" style="stop-color:#616265"/>
	</linearGradient>
	<path fill="url(#SVGID_19_)" d="M309.175,243.02c0-6,4.602-10.5,10.305-10.5c5.445,0,10.328,4.613,10.328,10.305
		c0.367,5.445-4.625,10.301-10.328,10.301c-5.805-0.355-10.328-4.613-10.328-10.301L309.175,243.02z"/>
</g>
</svg>
