<?xml version="1.0" encoding="utf-8"?>
<!-- Generator: Adobe Illustrator 16.0.0, SVG Export Plug-In . SVG Version: 6.00 Build 0)  -->
<!DOCTYPE svg PUBLIC "-//W3C//DTD SVG 1.1//EN" "http://www.w3.org/Graphics/SVG/1.1/DTD/svg11.dtd">
<svg preserveAspectRatio="none"   version="1.1" id="图层_1" xmlns="http://www.w3.org/2000/svg" xmlns:xlink="http://www.w3.org/1999/xlink" x="0px" y="0px"
	 width="354.75px" height="561.277px" viewBox="106.238 2.859 354.75 561.277"
	 enable-background="new 106.238 2.859 354.75 561.277" xml:space="preserve">
<g id="surface359">
	
		<linearGradient id="SVGID_1_" gradientUnits="userSpaceOnUse" x1="668.2231" y1="-69.6968" x2="202.2246" y2="-69.6968" gradientTransform="matrix(0.75 0 0 -0.75 -42.9777 176.5275)">
		<stop  offset="0" style="stop-color:#B59D79"/>
		<stop  offset="0.1" style="stop-color:#FFDFB0"/>
		<stop  offset="0.18" style="stop-color:#EBCC9F"/>
		<stop  offset="0.62" style="stop-color:#E7C99C"/>
		<stop  offset="0.85" style="stop-color:#E2C499"/>
		<stop  offset="1" style="stop-color:#A89170"/>
	</linearGradient>
	<path fill="url(#SVGID_1_)" d="M108.691,25.551h349.5l-65.25,406.5h-219L108.691,25.551z"/>
	
		<linearGradient id="SVGID_2_" gradientUnits="userSpaceOnUse" x1="494.2222" y1="124.3032" x2="202.2231" y2="124.3032" gradientTransform="matrix(0.75 0 0 -0.75 22.4139 583.4025)">
		<stop  offset="0" style="stop-color:#292525"/>
		<stop  offset="0.03" style="stop-color:#5E5C5B"/>
		<stop  offset="0.08" style="stop-color:#383433"/>
		<stop  offset="0.64" style="stop-color:#312E2C"/>
		<stop  offset="0.95" style="stop-color:#312E2C"/>
		<stop  offset="1" style="stop-color:#6A6868"/>
	</linearGradient>
	<path fill="url(#SVGID_2_)" d="M174.082,432.425h219v115.5h-219V432.425z"/>
	
		<linearGradient id="SVGID_3_" gradientUnits="userSpaceOnUse" x1="355.1772" y1="201.4033" x2="355.1772" y2="177.3047" gradientTransform="matrix(0.75 0 0 -0.75 17.0824 697.1144)">
		<stop  offset="0" style="stop-color:#292525"/>
		<stop  offset="0.03" style="stop-color:#868584"/>
		<stop  offset="0.08" style="stop-color:#383433"/>
		<stop  offset="0.64" style="stop-color:#373332"/>
		<stop  offset="0.95" style="stop-color:#363130"/>
		<stop  offset="1" style="stop-color:#252221"/>
	</linearGradient>
	<path fill="url(#SVGID_3_)" d="M177.75,546.136h211.5c5.25,0,8.93,3.953,8.93,8.922c0.07,5.328-3.992,8.992-8.918,8.992
		l-211.511,0.086c-5.25,0-9-4.113-9-9.078c0-5.172,3.957-8.996,8.883-8.996L177.75,546.136z"/>
	
		<linearGradient id="SVGID_4_" gradientUnits="userSpaceOnUse" x1="383.2231" y1="142.3066" x2="202.2246" y2="142.3066" gradientTransform="matrix(0.75 0 0 -0.75 63.8036 589.2999)">
		<stop  offset="0" style="stop-color:#4E4D4D"/>
		<stop  offset="0.03" style="stop-color:#9C9B9B"/>
		<stop  offset="0.08" style="stop-color:#686767"/>
		<stop  offset="0.64" style="stop-color:#666565"/>
		<stop  offset="0.95" style="stop-color:#636262"/>
		<stop  offset="1" style="stop-color:#484747"/>
	</linearGradient>
	<path fill="url(#SVGID_4_)" d="M215.473,438.32h135.75v88.5h-135.75V438.32z"/>
	
		<linearGradient id="SVGID_5_" gradientUnits="userSpaceOnUse" x1="337.2212" y1="158.3057" x2="202.2217" y2="158.3056" gradientTransform="matrix(0.75 0 0 -0.75 81.1298 601.4669)">
		<stop  offset="0" style="stop-color:#292525"/>
		<stop  offset="0.03" style="stop-color:#868584"/>
		<stop  offset="0.08" style="stop-color:#383433"/>
		<stop  offset="0.64" style="stop-color:#373332"/>
		<stop  offset="0.95" style="stop-color:#363130"/>
		<stop  offset="1" style="stop-color:#252221"/>
	</linearGradient>
	<path fill="url(#SVGID_5_)" d="M232.797,450.488h101.25v64.5h-101.25V450.488z"/>
	
		<linearGradient id="SVGID_6_" gradientUnits="userSpaceOnUse" x1="245.2246" y1="148.3066" x2="202.2246" y2="148.3066" gradientTransform="matrix(0.75 0 0 -0.75 115.745 509.8419)">
		<stop  offset="0" style="stop-color:#2D2929"/>
		<stop  offset="0.15" style="stop-color:#5B5858"/>
		<stop  offset="0.25" style="stop-color:#B8B7B7"/>
		<stop  offset="0.52" style="stop-color:#353130"/>
		<stop  offset="0.69" style="stop-color:#2E2A29"/>
		<stop  offset="0.8" style="stop-color:#2B2726"/>
		<stop  offset="0.97" style="stop-color:#282424"/>
		<stop  offset="1" style="stop-color:#2F2B2B"/>
	</linearGradient>
	<path fill="url(#SVGID_6_)" d="M267.414,438.363h32.25v-79.5h-32.25V438.363z"/>
	<path fill="#FFFFFF" stroke="#FFFFFF" stroke-linejoin="bevel" stroke-miterlimit="10" d="M239.586,457.91h87.75v34.5h-87.75
		V457.91z"/>
	<path fill="none" stroke="#000000" stroke-linejoin="bevel" stroke-miterlimit="10" d="M244.219,482.335
		c0,0,33.645-37.418,78.488,0.16"/>
	<path fill="#B60717" d="M281.574,461.308c0.75,0,1.328,0.672,1.328,1.543l0.172,30.707h-2.25v-30.75c0-0.75,0.465-1.5,1.039-1.5
		H281.574z"/>
	<path fill="none" stroke="#000000" stroke-linejoin="bevel" stroke-miterlimit="10" d="M240.496,478l8.25,8.25"/>
	<path fill="none" stroke="#000000" stroke-linejoin="bevel" stroke-miterlimit="10" d="M327.003,478.468l-8.25,8.25"/>
	<path fill="none" stroke="#000000" stroke-linejoin="bevel" stroke-miterlimit="10" d="M262.789,465.007l3.75,9"/>
	<path fill="none" stroke="#000000" stroke-linejoin="bevel" stroke-miterlimit="10" d="M301.828,465.007l-3.75,9"/>
	
		<linearGradient id="SVGID_7_" gradientUnits="userSpaceOnUse" x1="675.2222" y1="185.6768" x2="202.2231" y2="185.6767" gradientTransform="matrix(0.75 0 0 -0.75 -45.4293 153.8361)">
		<stop  offset="0" style="stop-color:#292525"/>
		<stop  offset="0.03" style="stop-color:#868584"/>
		<stop  offset="0.08" style="stop-color:#383433"/>
		<stop  offset="0.64" style="stop-color:#373332"/>
		<stop  offset="0.95" style="stop-color:#363130"/>
		<stop  offset="1" style="stop-color:#252221"/>
	</linearGradient>
	<path fill="url(#SVGID_7_)" d="M107.738,2.859h351.75c0.75,0,1.203,1.5,1.203,3.348l0.297,16.902c0,1.5-0.965,3.191-1.785,3.191
		l-351.464-0.191c-0.75,0-1.5-1.309-1.5-3.16V5.859c0-1.5,0.668-3,1.488-3H107.738z"/>
	
		<linearGradient id="SVGID_8_" gradientUnits="userSpaceOnUse" x1="254.2236" y1="196.8501" x2="202.1514" y2="196.8501" gradientTransform="matrix(0.75 0 0 -0.75 112.3827 503.8146)">
		<stop  offset="0" style="stop-color:#2D2929"/>
		<stop  offset="0.15" style="stop-color:#5B5858"/>
		<stop  offset="0.25" style="stop-color:#B8B7B7"/>
		<stop  offset="0.52" style="stop-color:#353130"/>
		<stop  offset="0.69" style="stop-color:#2E2A29"/>
		<stop  offset="0.8" style="stop-color:#2B2726"/>
		<stop  offset="0.97" style="stop-color:#282424"/>
		<stop  offset="1" style="stop-color:#2F2B2B"/>
	</linearGradient>
	<path fill="url(#SVGID_8_)" d="M265.551,352.835h36c0.75,0,1.285,0.605,1.285,1.434l0.215,3.816c0,0.75-0.883,1.48-1.703,1.48
		l-35.796,0.02c-0.75,0-1.555-0.691-1.555-1.52l0.055-3.73c0-0.75,0.609-1.566,1.43-1.566L265.551,352.835z"/>
</g>
</svg>
