<?xml version="1.0" encoding="utf-8"?>
<!-- Generator: Adobe Illustrator 16.0.0, SVG Export Plug-In . SVG Version: 6.00 Build 0)  -->
<!DOCTYPE svg PUBLIC "-//W3C//DTD SVG 1.1//EN" "http://www.w3.org/Graphics/SVG/1.1/DTD/svg11.dtd">
<svg preserveAspectRatio="none"   version="1.1" id="图层_1" xmlns="http://www.w3.org/2000/svg" xmlns:xlink="http://www.w3.org/1999/xlink" x="0px" y="0px"
	 width="563.566px" height="357.75px" viewBox="2.098 205.5 563.566 357.75" enable-background="new 2.098 205.5 563.566 357.75"
	 xml:space="preserve">
<g id="surface126">
	
		<linearGradient id="SVGID_1_" gradientUnits="userSpaceOnUse" x1="953.644" y1="-36.6929" x2="202.2231" y2="-36.6929" gradientTransform="matrix(0.75 0 0 -0.75 -149.5704 356.7404)">
		<stop  offset="0" style="stop-color:#B5B5B5"/>
		<stop  offset="0.02" style="stop-color:#FFFFFF"/>
		<stop  offset="0.05" style="stop-color:#EBEBEB"/>
		<stop  offset="0.64" style="stop-color:#E7E7E7"/>
		<stop  offset="0.97" style="stop-color:#E2E2E2"/>
		<stop  offset="1" style="stop-color:#A8A8A8"/>
	</linearGradient>
	<path fill="url(#SVGID_1_)" d="M8.098,205.762h551.25c3.75,0,6.316,2.055,6.316,4.672l-0.316,347.078c0,3-2.492,5.102-5.852,5.102
		L8.098,562.761c-3,0-6-2.336-6-4.953V210.262C2.098,208.012,4.738,205.762,8.098,205.762z"/>
	<path fill="#595757" d="M33.184,227.672h335.25c3,0,6.039,2.055,6.039,4.672l-0.039,302.078c0,3-2.684,4.801-6.043,4.801
		l-335.207-0.301c-3,0-6-1.852-6-4.469V232.172c0-2.25,2.684-4.5,6.039-4.5H33.184z"/>
	<path fill="#9E9F9F" d="M390.417,205.5h3.75v357.75h-3.75V205.5z"/>
	
		<linearGradient id="SVGID_2_" gradientUnits="userSpaceOnUse" x1="433.7241" y1="201.3027" x2="433.7241" y2="193.3027" gradientTransform="matrix(0.75 0 0 -0.75 -124.505 387.005)">
		<stop  offset="0" style="stop-color:#C4C4C4"/>
		<stop  offset="0.15" style="stop-color:#FFFFFF"/>
		<stop  offset="0.25" style="stop-color:#FFFFFF"/>
		<stop  offset="0.52" style="stop-color:#DFDFDF"/>
		<stop  offset="0.69" style="stop-color:#C7C7C7"/>
		<stop  offset="0.8" style="stop-color:#BCBCBC"/>
		<stop  offset="0.97" style="stop-color:#B1B1B1"/>
		<stop  offset="1" style="stop-color:#CBCBCB"/>
	</linearGradient>
	<path fill="url(#SVGID_2_)" d="M27.164,236.027h347.25v6H27.164V236.027z"/>
	
		<linearGradient id="SVGID_3_" gradientUnits="userSpaceOnUse" x1="433.7241" y1="201.3037" x2="433.7241" y2="193.3037" gradientTransform="matrix(0.75 0 0 -0.75 -124.505 404.0294)">
		<stop  offset="0" style="stop-color:#C4C4C4"/>
		<stop  offset="0.15" style="stop-color:#FFFFFF"/>
		<stop  offset="0.25" style="stop-color:#FFFFFF"/>
		<stop  offset="0.52" style="stop-color:#DFDFDF"/>
		<stop  offset="0.69" style="stop-color:#C7C7C7"/>
		<stop  offset="0.8" style="stop-color:#BCBCBC"/>
		<stop  offset="0.97" style="stop-color:#B1B1B1"/>
		<stop  offset="1" style="stop-color:#CBCBCB"/>
	</linearGradient>
	<path fill="url(#SVGID_3_)" d="M27.164,253.051h347.25v6H27.164V253.051z"/>
	
		<linearGradient id="SVGID_4_" gradientUnits="userSpaceOnUse" x1="433.7241" y1="201.3018" x2="433.7241" y2="193.3018" gradientTransform="matrix(0.75 0 0 -0.75 -124.505 421.0548)">
		<stop  offset="0" style="stop-color:#C4C4C4"/>
		<stop  offset="0.15" style="stop-color:#FFFFFF"/>
		<stop  offset="0.25" style="stop-color:#FFFFFF"/>
		<stop  offset="0.52" style="stop-color:#DFDFDF"/>
		<stop  offset="0.69" style="stop-color:#C7C7C7"/>
		<stop  offset="0.8" style="stop-color:#BCBCBC"/>
		<stop  offset="0.97" style="stop-color:#B1B1B1"/>
		<stop  offset="1" style="stop-color:#CBCBCB"/>
	</linearGradient>
	<path fill="url(#SVGID_4_)" d="M27.164,270.078h347.25v6H27.164V270.078z"/>
	
		<linearGradient id="SVGID_5_" gradientUnits="userSpaceOnUse" x1="433.7241" y1="201.3037" x2="433.7241" y2="193.3037" gradientTransform="matrix(0.75 0 0 -0.75 -124.505 438.0792)">
		<stop  offset="0" style="stop-color:#C4C4C4"/>
		<stop  offset="0.15" style="stop-color:#FFFFFF"/>
		<stop  offset="0.25" style="stop-color:#FFFFFF"/>
		<stop  offset="0.52" style="stop-color:#DFDFDF"/>
		<stop  offset="0.69" style="stop-color:#C7C7C7"/>
		<stop  offset="0.8" style="stop-color:#BCBCBC"/>
		<stop  offset="0.97" style="stop-color:#B1B1B1"/>
		<stop  offset="1" style="stop-color:#CBCBCB"/>
	</linearGradient>
	<path fill="url(#SVGID_5_)" d="M27.164,287.101h347.25v6H27.164V287.101z"/>
	
		<linearGradient id="SVGID_6_" gradientUnits="userSpaceOnUse" x1="433.7241" y1="201.3076" x2="433.7241" y2="193.3076" gradientTransform="matrix(0.75 0 0 -0.75 -124.505 455.1046)">
		<stop  offset="0" style="stop-color:#C4C4C4"/>
		<stop  offset="0.15" style="stop-color:#FFFFFF"/>
		<stop  offset="0.25" style="stop-color:#FFFFFF"/>
		<stop  offset="0.52" style="stop-color:#DFDFDF"/>
		<stop  offset="0.69" style="stop-color:#C7C7C7"/>
		<stop  offset="0.8" style="stop-color:#BCBCBC"/>
		<stop  offset="0.97" style="stop-color:#B1B1B1"/>
		<stop  offset="1" style="stop-color:#CBCBCB"/>
	</linearGradient>
	<path fill="url(#SVGID_6_)" d="M27.164,304.125h347.25v6H27.164V304.125z"/>
	
		<linearGradient id="SVGID_7_" gradientUnits="userSpaceOnUse" x1="433.7241" y1="201.3037" x2="433.7241" y2="193.3037" gradientTransform="matrix(0.75 0 0 -0.75 -124.505 472.129)">
		<stop  offset="0" style="stop-color:#C4C4C4"/>
		<stop  offset="0.15" style="stop-color:#FFFFFF"/>
		<stop  offset="0.25" style="stop-color:#FFFFFF"/>
		<stop  offset="0.52" style="stop-color:#DFDFDF"/>
		<stop  offset="0.69" style="stop-color:#C7C7C7"/>
		<stop  offset="0.8" style="stop-color:#BCBCBC"/>
		<stop  offset="0.97" style="stop-color:#B1B1B1"/>
		<stop  offset="1" style="stop-color:#CBCBCB"/>
	</linearGradient>
	<path fill="url(#SVGID_7_)" d="M27.164,321.152h347.25v6H27.164V321.152z"/>
	
		<linearGradient id="SVGID_8_" gradientUnits="userSpaceOnUse" x1="433.7241" y1="201.3047" x2="433.7241" y2="193.3047" gradientTransform="matrix(0.75 0 0 -0.75 -124.505 489.1544)">
		<stop  offset="0" style="stop-color:#C4C4C4"/>
		<stop  offset="0.15" style="stop-color:#FFFFFF"/>
		<stop  offset="0.25" style="stop-color:#FFFFFF"/>
		<stop  offset="0.52" style="stop-color:#DFDFDF"/>
		<stop  offset="0.69" style="stop-color:#C7C7C7"/>
		<stop  offset="0.8" style="stop-color:#BCBCBC"/>
		<stop  offset="0.97" style="stop-color:#B1B1B1"/>
		<stop  offset="1" style="stop-color:#CBCBCB"/>
	</linearGradient>
	<path fill="url(#SVGID_8_)" d="M27.164,338.175h347.25v6H27.164V338.175z"/>
	
		<linearGradient id="SVGID_9_" gradientUnits="userSpaceOnUse" x1="433.7241" y1="201.3027" x2="433.7241" y2="193.3027" gradientTransform="matrix(0.75 0 0 -0.75 -124.505 506.1798)">
		<stop  offset="0" style="stop-color:#C4C4C4"/>
		<stop  offset="0.15" style="stop-color:#FFFFFF"/>
		<stop  offset="0.25" style="stop-color:#FFFFFF"/>
		<stop  offset="0.52" style="stop-color:#DFDFDF"/>
		<stop  offset="0.69" style="stop-color:#C7C7C7"/>
		<stop  offset="0.8" style="stop-color:#BCBCBC"/>
		<stop  offset="0.97" style="stop-color:#B1B1B1"/>
		<stop  offset="1" style="stop-color:#CBCBCB"/>
	</linearGradient>
	<path fill="url(#SVGID_9_)" d="M27.164,355.203h347.25v6H27.164V355.203z"/>
	
		<linearGradient id="SVGID_10_" gradientUnits="userSpaceOnUse" x1="433.7241" y1="201.3018" x2="433.7241" y2="193.3018" gradientTransform="matrix(0.75 0 0 -0.75 -124.505 523.2032)">
		<stop  offset="0" style="stop-color:#C4C4C4"/>
		<stop  offset="0.15" style="stop-color:#FFFFFF"/>
		<stop  offset="0.25" style="stop-color:#FFFFFF"/>
		<stop  offset="0.52" style="stop-color:#DFDFDF"/>
		<stop  offset="0.69" style="stop-color:#C7C7C7"/>
		<stop  offset="0.8" style="stop-color:#BCBCBC"/>
		<stop  offset="0.97" style="stop-color:#B1B1B1"/>
		<stop  offset="1" style="stop-color:#CBCBCB"/>
	</linearGradient>
	<path fill="url(#SVGID_10_)" d="M27.164,372.226h347.25v6H27.164V372.226z"/>
	
		<linearGradient id="SVGID_11_" gradientUnits="userSpaceOnUse" x1="433.7241" y1="201.3057" x2="433.7241" y2="193.3057" gradientTransform="matrix(0.75 0 0 -0.75 -124.505 540.2286)">
		<stop  offset="0" style="stop-color:#C4C4C4"/>
		<stop  offset="0.15" style="stop-color:#FFFFFF"/>
		<stop  offset="0.25" style="stop-color:#FFFFFF"/>
		<stop  offset="0.52" style="stop-color:#DFDFDF"/>
		<stop  offset="0.69" style="stop-color:#C7C7C7"/>
		<stop  offset="0.8" style="stop-color:#BCBCBC"/>
		<stop  offset="0.97" style="stop-color:#B1B1B1"/>
		<stop  offset="1" style="stop-color:#CBCBCB"/>
	</linearGradient>
	<path fill="url(#SVGID_11_)" d="M27.164,389.25h347.25v6H27.164V389.25z"/>
	
		<linearGradient id="SVGID_12_" gradientUnits="userSpaceOnUse" x1="433.7241" y1="201.3037" x2="433.7241" y2="193.3037" gradientTransform="matrix(0.75 0 0 -0.75 -124.505 557.254)">
		<stop  offset="0" style="stop-color:#C4C4C4"/>
		<stop  offset="0.15" style="stop-color:#FFFFFF"/>
		<stop  offset="0.25" style="stop-color:#FFFFFF"/>
		<stop  offset="0.52" style="stop-color:#DFDFDF"/>
		<stop  offset="0.69" style="stop-color:#C7C7C7"/>
		<stop  offset="0.8" style="stop-color:#BCBCBC"/>
		<stop  offset="0.97" style="stop-color:#B1B1B1"/>
		<stop  offset="1" style="stop-color:#CBCBCB"/>
	</linearGradient>
	<path fill="url(#SVGID_12_)" d="M27.164,406.277h347.25v6H27.164V406.277z"/>
	
		<linearGradient id="SVGID_13_" gradientUnits="userSpaceOnUse" x1="433.7241" y1="201.3037" x2="433.7241" y2="193.3037" gradientTransform="matrix(0.75 0 0 -0.75 -124.505 592.715)">
		<stop  offset="0" style="stop-color:#C4C4C4"/>
		<stop  offset="0.15" style="stop-color:#FFFFFF"/>
		<stop  offset="0.25" style="stop-color:#FFFFFF"/>
		<stop  offset="0.52" style="stop-color:#DFDFDF"/>
		<stop  offset="0.69" style="stop-color:#C7C7C7"/>
		<stop  offset="0.8" style="stop-color:#BCBCBC"/>
		<stop  offset="0.97" style="stop-color:#B1B1B1"/>
		<stop  offset="1" style="stop-color:#CBCBCB"/>
	</linearGradient>
	<path fill="url(#SVGID_13_)" d="M27.164,441.738h347.25v6H27.164V441.738z"/>
	
		<linearGradient id="SVGID_14_" gradientUnits="userSpaceOnUse" x1="433.7241" y1="201.3047" x2="433.7241" y2="193.3047" gradientTransform="matrix(0.75 0 0 -0.75 -124.505 574.2784)">
		<stop  offset="0" style="stop-color:#C4C4C4"/>
		<stop  offset="0.15" style="stop-color:#FFFFFF"/>
		<stop  offset="0.25" style="stop-color:#FFFFFF"/>
		<stop  offset="0.52" style="stop-color:#DFDFDF"/>
		<stop  offset="0.69" style="stop-color:#C7C7C7"/>
		<stop  offset="0.8" style="stop-color:#BCBCBC"/>
		<stop  offset="0.97" style="stop-color:#B1B1B1"/>
		<stop  offset="1" style="stop-color:#CBCBCB"/>
	</linearGradient>
	<path fill="url(#SVGID_14_)" d="M27.164,423.3h347.25v6H27.164V423.3z"/>
	
		<linearGradient id="SVGID_15_" gradientUnits="userSpaceOnUse" x1="433.7241" y1="201.3018" x2="433.7241" y2="193.3018" gradientTransform="matrix(0.75 0 0 -0.75 -124.505 608.3282)">
		<stop  offset="0" style="stop-color:#C4C4C4"/>
		<stop  offset="0.15" style="stop-color:#FFFFFF"/>
		<stop  offset="0.25" style="stop-color:#FFFFFF"/>
		<stop  offset="0.52" style="stop-color:#DFDFDF"/>
		<stop  offset="0.69" style="stop-color:#C7C7C7"/>
		<stop  offset="0.8" style="stop-color:#BCBCBC"/>
		<stop  offset="0.97" style="stop-color:#B1B1B1"/>
		<stop  offset="1" style="stop-color:#CBCBCB"/>
	</linearGradient>
	<path fill="url(#SVGID_15_)" d="M27.164,457.351h347.25v6H27.164V457.351z"/>
	
		<linearGradient id="SVGID_16_" gradientUnits="userSpaceOnUse" x1="433.7261" y1="201.3037" x2="433.7261" y2="193.3037" gradientTransform="matrix(0.75 0 0 -0.75 -124.505 625.3527)">
		<stop  offset="0" style="stop-color:#C4C4C4"/>
		<stop  offset="0.15" style="stop-color:#FFFFFF"/>
		<stop  offset="0.25" style="stop-color:#FFFFFF"/>
		<stop  offset="0.52" style="stop-color:#DFDFDF"/>
		<stop  offset="0.69" style="stop-color:#C7C7C7"/>
		<stop  offset="0.8" style="stop-color:#BCBCBC"/>
		<stop  offset="0.97" style="stop-color:#B1B1B1"/>
		<stop  offset="1" style="stop-color:#CBCBCB"/>
	</linearGradient>
	<path fill="url(#SVGID_16_)" d="M27.164,474.375h347.25v6H27.164V474.375z"/>
	
		<linearGradient id="SVGID_17_" gradientUnits="userSpaceOnUse" x1="433.7261" y1="201.3066" x2="433.7261" y2="193.3066" gradientTransform="matrix(0.75 0 0 -0.75 -124.505 642.3781)">
		<stop  offset="0" style="stop-color:#C4C4C4"/>
		<stop  offset="0.15" style="stop-color:#FFFFFF"/>
		<stop  offset="0.25" style="stop-color:#FFFFFF"/>
		<stop  offset="0.52" style="stop-color:#DFDFDF"/>
		<stop  offset="0.69" style="stop-color:#C7C7C7"/>
		<stop  offset="0.8" style="stop-color:#BCBCBC"/>
		<stop  offset="0.97" style="stop-color:#B1B1B1"/>
		<stop  offset="1" style="stop-color:#CBCBCB"/>
	</linearGradient>
	<path fill="url(#SVGID_17_)" d="M27.164,491.398h347.25v6H27.164V491.398z"/>
	
		<linearGradient id="SVGID_18_" gradientUnits="userSpaceOnUse" x1="433.7261" y1="201.3057" x2="433.7261" y2="193.3057" gradientTransform="matrix(0.75 0 0 -0.75 -124.505 660.3224)">
		<stop  offset="0" style="stop-color:#C4C4C4"/>
		<stop  offset="0.15" style="stop-color:#FFFFFF"/>
		<stop  offset="0.25" style="stop-color:#FFFFFF"/>
		<stop  offset="0.52" style="stop-color:#DFDFDF"/>
		<stop  offset="0.69" style="stop-color:#C7C7C7"/>
		<stop  offset="0.8" style="stop-color:#BCBCBC"/>
		<stop  offset="0.97" style="stop-color:#B1B1B1"/>
		<stop  offset="1" style="stop-color:#CBCBCB"/>
	</linearGradient>
	<path fill="url(#SVGID_18_)" d="M27.164,509.343h347.25v6H27.164V509.343z"/>
	
		<linearGradient id="SVGID_19_" gradientUnits="userSpaceOnUse" x1="433.7261" y1="201.3057" x2="433.7261" y2="193.3057" gradientTransform="matrix(0.75 0 0 -0.75 -124.505 676.4279)">
		<stop  offset="0" style="stop-color:#C4C4C4"/>
		<stop  offset="0.15" style="stop-color:#FFFFFF"/>
		<stop  offset="0.25" style="stop-color:#FFFFFF"/>
		<stop  offset="0.52" style="stop-color:#DFDFDF"/>
		<stop  offset="0.69" style="stop-color:#C7C7C7"/>
		<stop  offset="0.8" style="stop-color:#BCBCBC"/>
		<stop  offset="0.97" style="stop-color:#B1B1B1"/>
		<stop  offset="1" style="stop-color:#CBCBCB"/>
	</linearGradient>
	<path fill="url(#SVGID_19_)" d="M27.164,525.449h347.25v6H27.164V525.449z"/>
	<path fill="#888889" d="M415.066,226.094h125.25c3.75,0,6.469,2.078,6.469,4.727l0.281,210.523c0,2.25-3.07,4.688-6.512,4.688
		l-125.488-0.188c-3,0-6-1.961-6-4.605V230.594c0-2.25,2.746-4.5,6.188-4.5H415.066z"/>
	<path fill="#3E3938" d="M419.054,229.875h117.75c3,0,5.992,2.121,5.992,4.738l0.008,203.011c0,2.25-2.73,4.625-6.09,4.625
		l-117.66-0.125c-3,0-6-1.996-6-4.613V234.375c0-2.25,2.723-4.5,6.082-4.5H419.054z"/>
	
		<linearGradient id="SVGID_20_" gradientUnits="userSpaceOnUse" x1="374.2261" y1="184.8057" x2="202.2261" y2="184.8056" gradientTransform="matrix(0.75 0 0 -0.75 261.7665 394.67)">
		<stop  offset="0" style="stop-color:#B5B5B5"/>
		<stop  offset="0.03" style="stop-color:#FFFFFF"/>
		<stop  offset="0.08" style="stop-color:#EBEBEB"/>
		<stop  offset="0.64" style="stop-color:#E7E7E7"/>
		<stop  offset="0.95" style="stop-color:#E2E2E2"/>
		<stop  offset="1" style="stop-color:#A8A8A8"/>
	</linearGradient>
	<path fill="url(#SVGID_20_)" d="M542.437,243.691v19.5c0,3-2.746,4.977-6.059,4.977l-116.941,0.273c-3,0-6-2.395-6-5.012v-19.738
		H542.437z"/>
	
		<linearGradient id="SVGID_21_" gradientUnits="userSpaceOnUse" x1="374.2261" y1="184.8052" x2="202.2261" y2="184.8052" gradientTransform="matrix(0.75 0 0 -0.75 261.7665 434.7325)">
		<stop  offset="0" style="stop-color:#B5B5B5"/>
		<stop  offset="0.03" style="stop-color:#FFFFFF"/>
		<stop  offset="0.08" style="stop-color:#EBEBEB"/>
		<stop  offset="0.64" style="stop-color:#E7E7E7"/>
		<stop  offset="0.95" style="stop-color:#E2E2E2"/>
		<stop  offset="1" style="stop-color:#A8A8A8"/>
	</linearGradient>
	<path fill="url(#SVGID_21_)" d="M542.437,283.754v19.5c0,3-2.746,4.973-6.059,4.973l-116.941,0.277c-3,0-6-2.398-6-5.012v-19.738
		H542.437z"/>
	
		<linearGradient id="SVGID_22_" gradientUnits="userSpaceOnUse" x1="374.2261" y1="184.8066" x2="202.2261" y2="184.8066" gradientTransform="matrix(0.75 0 0 -0.75 261.7665 474.8029)">
		<stop  offset="0" style="stop-color:#B5B5B5"/>
		<stop  offset="0.03" style="stop-color:#FFFFFF"/>
		<stop  offset="0.08" style="stop-color:#EBEBEB"/>
		<stop  offset="0.64" style="stop-color:#E7E7E7"/>
		<stop  offset="0.95" style="stop-color:#E2E2E2"/>
		<stop  offset="1" style="stop-color:#A8A8A8"/>
	</linearGradient>
	<path fill="url(#SVGID_22_)" d="M542.437,323.824v19.5c0,3-2.746,4.977-6.059,4.977l-116.941,0.273c-3,0-6-2.395-6-5.012v-19.738
		H542.437z"/>
	
		<linearGradient id="SVGID_23_" gradientUnits="userSpaceOnUse" x1="374.2261" y1="184.8047" x2="202.2261" y2="184.8047" gradientTransform="matrix(0.75 0 0 -0.75 261.7665 514.8556)">
		<stop  offset="0" style="stop-color:#B5B5B5"/>
		<stop  offset="0.03" style="stop-color:#FFFFFF"/>
		<stop  offset="0.08" style="stop-color:#EBEBEB"/>
		<stop  offset="0.64" style="stop-color:#E7E7E7"/>
		<stop  offset="0.95" style="stop-color:#E2E2E2"/>
		<stop  offset="1" style="stop-color:#A8A8A8"/>
	</linearGradient>
	<path fill="url(#SVGID_23_)" d="M542.437,363.878v19.5c0,3-2.746,4.973-6.059,4.973l-116.941,0.277c-3,0-6-2.398-6-5.012v-19.738
		H542.437z"/>
	
		<linearGradient id="SVGID_24_" gradientUnits="userSpaceOnUse" x1="374.2261" y1="184.8037" x2="202.2261" y2="184.8037" gradientTransform="matrix(0.75 0 0 -0.75 261.7665 554.9181)">
		<stop  offset="0" style="stop-color:#B5B5B5"/>
		<stop  offset="0.03" style="stop-color:#FFFFFF"/>
		<stop  offset="0.08" style="stop-color:#EBEBEB"/>
		<stop  offset="0.64" style="stop-color:#E7E7E7"/>
		<stop  offset="0.95" style="stop-color:#E2E2E2"/>
		<stop  offset="1" style="stop-color:#A8A8A8"/>
	</linearGradient>
	<path fill="url(#SVGID_24_)" d="M542.437,403.941v19.5c0,3-2.746,4.973-6.059,4.973l-116.941,0.277c-3,0-6-2.398-6-5.012v-19.738
		H542.437z"/>
	<path fill="#CDCECE" fill-opacity="0.7686" d="M417.027,449.714h121.5c3.75,0,6.297,2.004,6.297,4.555l-0.297,92.195
		c0,3-2.512,4.895-5.871,4.895l-121.629,0.355c-3,0-6-2.488-6-5.039v-92.461C411.027,451.964,413.667,449.714,417.027,449.714z"/>
</g>
</svg>
