<?xml version="1.0" encoding="utf-8"?>
<!-- Generator: Adobe Illustrator 16.0.0, SVG Export Plug-In . SVG Version: 6.00 Build 0)  -->
<!DOCTYPE svg PUBLIC "-//W3C//DTD SVG 1.1//EN" "http://www.w3.org/Graphics/SVG/1.1/DTD/svg11.dtd">
<svg preserveAspectRatio="none"   version="1.1" id="图层_1" xmlns="http://www.w3.org/2000/svg" xmlns:xlink="http://www.w3.org/1999/xlink" x="0px" y="0px"
	 width="562.328px" height="429.625px" viewBox="2.246 135.668 562.328 429.625"
	 enable-background="new 2.246 135.668 562.328 429.625" xml:space="preserve">
<g id="surface334">
	
		<linearGradient id="SVGID_1_" gradientUnits="userSpaceOnUse" x1="210.167" y1="201.3037" x2="210.167" y2="-130.4985" gradientTransform="matrix(-0.75 0 0 -0.75 688.8497 421.6935)">
		<stop  offset="0" style="stop-color:#C2B39F"/>
		<stop  offset="0.15" style="stop-color:#FDEAD3"/>
		<stop  offset="0.25" style="stop-color:#FEF3E7"/>
		<stop  offset="0.52" style="stop-color:#DECCB6"/>
		<stop  offset="0.69" style="stop-color:#C5B5A2"/>
		<stop  offset="0.8" style="stop-color:#BAAB98"/>
		<stop  offset="0.97" style="stop-color:#B0A190"/>
		<stop  offset="1" style="stop-color:#CABAA5"/>
	</linearGradient>
	<path fill="url(#SVGID_1_)" d="M564.574,395.214c0-69-29.816-124.5-66.652-124.5c-0.098,0,0,248.851,0,248.851
		c36.652,0.148,66.652-55.719,66.652-124.426V395.214z"/>
	
		<linearGradient id="SVGID_2_" gradientUnits="userSpaceOnUse" x1="246.6885" y1="201.3047" x2="246.6885" y2="-130.4976" gradientTransform="matrix(0.75 0 0 -0.75 -149.422 421.6935)">
		<stop  offset="0" style="stop-color:#C2B39F"/>
		<stop  offset="0.15" style="stop-color:#FDEAD3"/>
		<stop  offset="0.25" style="stop-color:#FEF3E7"/>
		<stop  offset="0.52" style="stop-color:#DECCB6"/>
		<stop  offset="0.69" style="stop-color:#C5B5A2"/>
		<stop  offset="0.8" style="stop-color:#BAAB98"/>
		<stop  offset="0.97" style="stop-color:#B0A190"/>
		<stop  offset="1" style="stop-color:#CABAA5"/>
	</linearGradient>
	<path fill="url(#SVGID_2_)" d="M2.246,395.214c0-69,29.813-124.5,66.652-124.5c0.098,0,0,248.851,0,248.851
		C32.246,519.714,2.246,463.847,2.246,395.14V395.214z"/>
	
		<linearGradient id="SVGID_3_" gradientUnits="userSpaceOnUse" x1="490.7251" y1="201.3047" x2="490.7251" y2="-129.6953" gradientTransform="matrix(0.75 0 0 -0.75 -83.5909 422.1339)">
		<stop  offset="0" style="stop-color:#C2B39F"/>
		<stop  offset="0.15" style="stop-color:#FDEAD3"/>
		<stop  offset="0.25" style="stop-color:#FEF3E7"/>
		<stop  offset="0.52" style="stop-color:#DECCB6"/>
		<stop  offset="0.69" style="stop-color:#C5B5A2"/>
		<stop  offset="0.8" style="stop-color:#BAAB98"/>
		<stop  offset="0.97" style="stop-color:#B0A190"/>
		<stop  offset="1" style="stop-color:#CABAA5"/>
	</linearGradient>
	<path fill="url(#SVGID_3_)" d="M68.078,271.156h432.75v248.25H68.078V271.156z"/>
	
		<linearGradient id="SVGID_4_" gradientUnits="userSpaceOnUse" x1="206.7065" y1="33.1133" x2="202.1284" y2="33.1133" gradientTransform="matrix(0.75 0 0 -0.75 -86.132 419.9767)">
		<stop  offset="0" style="stop-color:#C2B39F"/>
		<stop  offset="0.15" style="stop-color:#FDEAD3"/>
		<stop  offset="0.25" style="stop-color:#FEF3E7"/>
		<stop  offset="0.52" style="stop-color:#DECCB6"/>
		<stop  offset="0.69" style="stop-color:#C5B5A2"/>
		<stop  offset="0.8" style="stop-color:#BAAB98"/>
		<stop  offset="0.97" style="stop-color:#B0A190"/>
		<stop  offset="1" style="stop-color:#CABAA5"/>
	</linearGradient>
	<path fill="url(#SVGID_4_)" d="M67.039,269c0.75,0,1.859,0.73,1.859,1.664L68.539,519.5c0,0.75-0.41,1.785-1.359,1.785
		c-0.891-0.285-1.715-0.832-1.715-1.77L65.539,270.5c0-0.75,0.691-1.5,1.641-1.5H67.039z"/>
	
		<linearGradient id="SVGID_5_" gradientUnits="userSpaceOnUse" x1="206.7041" y1="33.1113" x2="202.126" y2="33.1113" gradientTransform="matrix(0.75 0 0 -0.75 347.37 419.9757)">
		<stop  offset="0" style="stop-color:#C2B39F"/>
		<stop  offset="0.15" style="stop-color:#FDEAD3"/>
		<stop  offset="0.25" style="stop-color:#FEF3E7"/>
		<stop  offset="0.52" style="stop-color:#DECCB6"/>
		<stop  offset="0.69" style="stop-color:#C5B5A2"/>
		<stop  offset="0.8" style="stop-color:#BAAB98"/>
		<stop  offset="0.97" style="stop-color:#B0A190"/>
		<stop  offset="1" style="stop-color:#CABAA5"/>
	</linearGradient>
	<path fill="url(#SVGID_5_)" d="M500.539,269c0.75,0,1.859,0.727,1.859,1.664L502.039,519.5c0,0.75-0.406,1.785-1.355,1.785
		c-0.895-0.285-1.719-0.832-1.719-1.77l0.074-249.015c0-0.75,0.695-1.5,1.645-1.5H500.539z"/>
	
		<linearGradient id="SVGID_6_" gradientUnits="userSpaceOnUse" x1="396.8423" y1="402.2261" x2="396.8423" y2="170.7788" gradientTransform="matrix(0 0.75 0.75 0 69.5292 -139.3014)">
		<stop  offset="0" style="stop-color:#C2B39F"/>
		<stop  offset="0.15" style="stop-color:#FDEAD3"/>
		<stop  offset="0.25" style="stop-color:#FEF3E7"/>
		<stop  offset="0.52" style="stop-color:#DECCB6"/>
		<stop  offset="0.69" style="stop-color:#C5B5A2"/>
		<stop  offset="0.8" style="stop-color:#BAAB98"/>
		<stop  offset="0.97" style="stop-color:#B0A190"/>
		<stop  offset="1" style="stop-color:#CABAA5"/>
	</linearGradient>
	<path fill="url(#SVGID_6_)" d="M284.199,135.668c48,0,87,20.273,87,45.324c0-0.324-173.585,0-173.585,0
		c0.336-25.074,38.867-45.324,86.792-45.324H284.199z"/>
	
		<linearGradient id="SVGID_7_" gradientUnits="userSpaceOnUse" x1="445.9956" y1="402.2251" x2="445.9956" y2="171.2251" gradientTransform="matrix(0 0.75 0.75 0 69.2216 -94.4547)">
		<stop  offset="0" style="stop-color:#C2B39F"/>
		<stop  offset="0.15" style="stop-color:#FDEAD3"/>
		<stop  offset="0.25" style="stop-color:#FEF3E7"/>
		<stop  offset="0.52" style="stop-color:#DECCB6"/>
		<stop  offset="0.69" style="stop-color:#C5B5A2"/>
		<stop  offset="0.8" style="stop-color:#BAAB98"/>
		<stop  offset="0.97" style="stop-color:#B0A190"/>
		<stop  offset="1" style="stop-color:#CABAA5"/>
	</linearGradient>
	<path fill="url(#SVGID_7_)" d="M370.89,180.516v94.5c0,0,0.395,24.55-86.508,24.55c-86.742,0.199-86.511-24.32-86.511-24.32
		l-0.23-94.73H370.89z"/>
	
		<linearGradient id="SVGID_8_" gradientUnits="userSpaceOnUse" x1="369.6733" y1="284.8354" x2="366.5581" y2="284.8354" gradientTransform="matrix(0 0.75 0.75 0 70.7626 -96.2623)">
		<stop  offset="0" style="stop-color:#C2B39F"/>
		<stop  offset="0.15" style="stop-color:#FDEAD3"/>
		<stop  offset="0.25" style="stop-color:#FEF3E7"/>
		<stop  offset="0.52" style="stop-color:#DECCB6"/>
		<stop  offset="0.69" style="stop-color:#C5B5A2"/>
		<stop  offset="0.8" style="stop-color:#BAAB98"/>
		<stop  offset="0.97" style="stop-color:#B0A190"/>
		<stop  offset="1" style="stop-color:#CABAA5"/>
	</linearGradient>
	<path fill="url(#SVGID_8_)" d="M372.429,179.457c0,0.75-0.508,1.535-1.16,1.535l-173.589-0.035c-0.75,0-1.301-0.488-1.301-1.133
		c-0.199-0.367,0.582-1.168,1.234-1.168l173.316,0.051c0.75,0,1.5,0.473,1.5,1.117V179.457z"/>
	
		<linearGradient id="SVGID_9_" gradientUnits="userSpaceOnUse" x1="228.7261" y1="201.3037" x2="228.7261" y2="172.3037" gradientTransform="matrix(0.75 0 0 -0.75 -33.7198 611.8683)">
		<stop  offset="0" style="stop-color:#A0917E"/>
		<stop  offset="0.03" style="stop-color:#E9D9C6"/>
		<stop  offset="0.08" style="stop-color:#D1BEA6"/>
		<stop  offset="0.64" style="stop-color:#CEBAA3"/>
		<stop  offset="0.95" style="stop-color:#C9B69F"/>
		<stop  offset="1" style="stop-color:#958775"/>
	</linearGradient>
	<path fill="url(#SVGID_9_)" d="M117.949,460.89h39.75v21.75h-39.75V460.89z"/>
	
		<linearGradient id="SVGID_10_" gradientUnits="userSpaceOnUse" x1="245.2266" y1="150.3066" x2="202.2266" y2="150.3066" gradientTransform="matrix(0.75 0 0 -0.75 -29.7247 617.881)">
		<stop  offset="0" style="stop-color:#B3A593"/>
		<stop  offset="0.03" style="stop-color:#FDEEDA"/>
		<stop  offset="0.08" style="stop-color:#E9D7BF"/>
		<stop  offset="0.64" style="stop-color:#E5D3BC"/>
		<stop  offset="0.95" style="stop-color:#E0CEB8"/>
		<stop  offset="1" style="stop-color:#A69988"/>
	</linearGradient>
	<path fill="url(#SVGID_10_)" d="M121.945,466.902h32.25v76.5h-32.25V466.902z"/>
	
		<linearGradient id="SVGID_11_" gradientUnits="userSpaceOnUse" x1="280.2256" y1="185.3066" x2="202.2256" y2="185.3066" gradientTransform="matrix(0.75 0 0 -0.75 -42.8527 692.2716)">
		<stop  offset="0" style="stop-color:#B3A593"/>
		<stop  offset="0.03" style="stop-color:#FDEEDA"/>
		<stop  offset="0.08" style="stop-color:#E9D7BF"/>
		<stop  offset="0.64" style="stop-color:#E5D3BC"/>
		<stop  offset="0.95" style="stop-color:#E0CEB8"/>
		<stop  offset="1" style="stop-color:#A69988"/>
	</linearGradient>
	<path fill="url(#SVGID_11_)" d="M108.816,541.292h58.5v24h-58.5V541.292z"/>
	
		<linearGradient id="SVGID_12_" gradientUnits="userSpaceOnUse" x1="228.7271" y1="201.3037" x2="228.7271" y2="172.3037" gradientTransform="matrix(0.75 0 0 -0.75 261.0917 611.8683)">
		<stop  offset="0" style="stop-color:#A0917E"/>
		<stop  offset="0.03" style="stop-color:#E9D9C6"/>
		<stop  offset="0.08" style="stop-color:#D1BEA6"/>
		<stop  offset="0.64" style="stop-color:#CEBAA3"/>
		<stop  offset="0.95" style="stop-color:#C9B69F"/>
		<stop  offset="1" style="stop-color:#958775"/>
	</linearGradient>
	<path fill="url(#SVGID_12_)" d="M412.761,460.89h39.75v21.75h-39.75V460.89z"/>
	
		<linearGradient id="SVGID_13_" gradientUnits="userSpaceOnUse" x1="245.2275" y1="150.3047" x2="202.2275" y2="150.3047" gradientTransform="matrix(0.75 0 0 -0.75 265.0868 617.88)">
		<stop  offset="0" style="stop-color:#B3A593"/>
		<stop  offset="0.03" style="stop-color:#FDEEDA"/>
		<stop  offset="0.08" style="stop-color:#E9D7BF"/>
		<stop  offset="0.64" style="stop-color:#E5D3BC"/>
		<stop  offset="0.95" style="stop-color:#E0CEB8"/>
		<stop  offset="1" style="stop-color:#A69988"/>
	</linearGradient>
	<path fill="url(#SVGID_13_)" d="M416.757,466.902h32.25v76.5h-32.25V466.902z"/>
	
		<linearGradient id="SVGID_14_" gradientUnits="userSpaceOnUse" x1="280.2256" y1="185.3066" x2="202.2256" y2="185.3066" gradientTransform="matrix(0.75 0 0 -0.75 251.9589 692.2716)">
		<stop  offset="0" style="stop-color:#B3A593"/>
		<stop  offset="0.03" style="stop-color:#FDEEDA"/>
		<stop  offset="0.08" style="stop-color:#E9D7BF"/>
		<stop  offset="0.64" style="stop-color:#E5D3BC"/>
		<stop  offset="0.95" style="stop-color:#E0CEB8"/>
		<stop  offset="1" style="stop-color:#A69988"/>
	</linearGradient>
	<path fill="url(#SVGID_14_)" d="M403.628,541.292h58.5v24h-58.5V541.292z"/>
	
		<linearGradient id="SVGID_15_" gradientUnits="userSpaceOnUse" x1="211.1001" y1="201.3018" x2="211.1001" y2="183.709" gradientTransform="matrix(0.75 0 0 -0.75 61.0302 352.3322)">
		<stop  offset="0" style="stop-color:#988674"/>
		<stop  offset="0.52" style="stop-color:#AE9A85"/>
		<stop  offset="1" style="stop-color:#9B8876"/>
	</linearGradient>
	<path fill="url(#SVGID_15_)" stroke="#958064" stroke-linejoin="bevel" stroke-miterlimit="10" d="M212.699,208.105
		c0-3.75,2.969-6.75,6.66-6.75c3.84,0,6.66,2.945,6.66,6.586c0.18,3.914-2.988,6.586-6.66,6.586
		c-3.66,0.328-6.676-2.953-6.676-6.586L212.699,208.105z"/>
	
		<linearGradient id="SVGID_16_" gradientUnits="userSpaceOnUse" x1="214.2271" y1="90.3071" x2="202.2271" y2="90.3071" gradientTransform="matrix(0.75 0 0 -0.75 63.2748 355.257)">
		<stop  offset="0" style="stop-color:#C2B39F"/>
		<stop  offset="0.15" style="stop-color:#FDEAD3"/>
		<stop  offset="0.25" style="stop-color:#FEF3E7"/>
		<stop  offset="0.52" style="stop-color:#DECCB6"/>
		<stop  offset="0.69" style="stop-color:#C5B5A2"/>
		<stop  offset="0.8" style="stop-color:#BAAB98"/>
		<stop  offset="0.97" style="stop-color:#B0A190"/>
		<stop  offset="1" style="stop-color:#CABAA5"/>
	</linearGradient>
	<path fill="url(#SVGID_16_)" d="M214.945,370.777h9v-163.5c0,0-0.441-3-4.625-3c-4.375,0-4.375,2.633-4.375,2.633V370.777z"/>
	
		<linearGradient id="SVGID_17_" gradientUnits="userSpaceOnUse" x1="214.2271" y1="201.3047" x2="214.2271" y2="189.3047" gradientTransform="matrix(0.75 0 0 -0.75 -75.5958 541.6193)">
		<stop  offset="0" style="stop-color:#C2B39F"/>
		<stop  offset="0.15" style="stop-color:#FDEAD3"/>
		<stop  offset="0.25" style="stop-color:#FEF3E7"/>
		<stop  offset="0.52" style="stop-color:#DECCB6"/>
		<stop  offset="0.69" style="stop-color:#C5B5A2"/>
		<stop  offset="0.8" style="stop-color:#BAAB98"/>
		<stop  offset="0.97" style="stop-color:#B0A190"/>
		<stop  offset="1" style="stop-color:#CABAA5"/>
	</linearGradient>
	<path fill="url(#SVGID_17_)" d="M76.074,390.64h18v9h-18V390.64z"/>
	
		<linearGradient id="SVGID_18_" gradientUnits="userSpaceOnUse" x1="214.2256" y1="201.3047" x2="214.2256" y2="189.3047" gradientTransform="matrix(0.75 0 0 -0.75 -45.1027 541.6193)">
		<stop  offset="0" style="stop-color:#C2B39F"/>
		<stop  offset="0.15" style="stop-color:#FDEAD3"/>
		<stop  offset="0.25" style="stop-color:#FEF3E7"/>
		<stop  offset="0.52" style="stop-color:#DECCB6"/>
		<stop  offset="0.69" style="stop-color:#C5B5A2"/>
		<stop  offset="0.8" style="stop-color:#BAAB98"/>
		<stop  offset="0.97" style="stop-color:#B0A190"/>
		<stop  offset="1" style="stop-color:#CABAA5"/>
	</linearGradient>
	<path fill="url(#SVGID_18_)" d="M106.566,390.64h18v9h-18V390.64z"/>
	
		<linearGradient id="SVGID_19_" gradientUnits="userSpaceOnUse" x1="214.2236" y1="201.3047" x2="214.2236" y2="189.3047" gradientTransform="matrix(0.75 0 0 -0.75 -14.609 541.6193)">
		<stop  offset="0" style="stop-color:#C2B39F"/>
		<stop  offset="0.15" style="stop-color:#FDEAD3"/>
		<stop  offset="0.25" style="stop-color:#FEF3E7"/>
		<stop  offset="0.52" style="stop-color:#DECCB6"/>
		<stop  offset="0.69" style="stop-color:#C5B5A2"/>
		<stop  offset="0.8" style="stop-color:#BAAB98"/>
		<stop  offset="0.97" style="stop-color:#B0A190"/>
		<stop  offset="1" style="stop-color:#CABAA5"/>
	</linearGradient>
	<path fill="url(#SVGID_19_)" d="M137.059,390.64h18v9h-18V390.64z"/>
	
		<linearGradient id="SVGID_20_" gradientUnits="userSpaceOnUse" x1="214.2266" y1="201.3047" x2="214.2266" y2="189.3047" gradientTransform="matrix(0.75 0 0 -0.75 15.8846 541.6193)">
		<stop  offset="0" style="stop-color:#C2B39F"/>
		<stop  offset="0.15" style="stop-color:#FDEAD3"/>
		<stop  offset="0.25" style="stop-color:#FEF3E7"/>
		<stop  offset="0.52" style="stop-color:#DECCB6"/>
		<stop  offset="0.69" style="stop-color:#C5B5A2"/>
		<stop  offset="0.8" style="stop-color:#BAAB98"/>
		<stop  offset="0.97" style="stop-color:#B0A190"/>
		<stop  offset="1" style="stop-color:#CABAA5"/>
	</linearGradient>
	<path fill="url(#SVGID_20_)" d="M167.555,390.64h18v9h-18V390.64z"/>
	
		<linearGradient id="SVGID_21_" gradientUnits="userSpaceOnUse" x1="214.2256" y1="201.3047" x2="214.2256" y2="189.3047" gradientTransform="matrix(0.75 0 0 -0.75 46.3778 541.6193)">
		<stop  offset="0" style="stop-color:#C2B39F"/>
		<stop  offset="0.15" style="stop-color:#FDEAD3"/>
		<stop  offset="0.25" style="stop-color:#FEF3E7"/>
		<stop  offset="0.52" style="stop-color:#DECCB6"/>
		<stop  offset="0.69" style="stop-color:#C5B5A2"/>
		<stop  offset="0.8" style="stop-color:#BAAB98"/>
		<stop  offset="0.97" style="stop-color:#B0A190"/>
		<stop  offset="1" style="stop-color:#CABAA5"/>
	</linearGradient>
	<path fill="url(#SVGID_21_)" d="M198.047,390.64h18v9h-18V390.64z"/>
	
		<linearGradient id="SVGID_22_" gradientUnits="userSpaceOnUse" x1="214.2241" y1="201.3047" x2="214.2241" y2="189.3047" gradientTransform="matrix(0.75 0 0 -0.75 76.871 541.6193)">
		<stop  offset="0" style="stop-color:#C2B39F"/>
		<stop  offset="0.15" style="stop-color:#FDEAD3"/>
		<stop  offset="0.25" style="stop-color:#FEF3E7"/>
		<stop  offset="0.52" style="stop-color:#DECCB6"/>
		<stop  offset="0.69" style="stop-color:#C5B5A2"/>
		<stop  offset="0.8" style="stop-color:#BAAB98"/>
		<stop  offset="0.97" style="stop-color:#B0A190"/>
		<stop  offset="1" style="stop-color:#CABAA5"/>
	</linearGradient>
	<path fill="url(#SVGID_22_)" d="M228.539,390.64h18v9h-18V390.64z"/>
	
		<linearGradient id="SVGID_23_" gradientUnits="userSpaceOnUse" x1="214.2275" y1="201.3047" x2="214.2275" y2="189.3047" gradientTransform="matrix(0.75 0 0 -0.75 107.3641 541.6193)">
		<stop  offset="0" style="stop-color:#C2B39F"/>
		<stop  offset="0.15" style="stop-color:#FDEAD3"/>
		<stop  offset="0.25" style="stop-color:#FEF3E7"/>
		<stop  offset="0.52" style="stop-color:#DECCB6"/>
		<stop  offset="0.69" style="stop-color:#C5B5A2"/>
		<stop  offset="0.8" style="stop-color:#BAAB98"/>
		<stop  offset="0.97" style="stop-color:#B0A190"/>
		<stop  offset="1" style="stop-color:#CABAA5"/>
	</linearGradient>
	<path fill="url(#SVGID_23_)" d="M259.035,390.64h18v9h-18V390.64z"/>
	
		<linearGradient id="SVGID_24_" gradientUnits="userSpaceOnUse" x1="214.2256" y1="201.3047" x2="214.2256" y2="189.3047" gradientTransform="matrix(0.75 0 0 -0.75 137.8578 541.6193)">
		<stop  offset="0" style="stop-color:#C2B39F"/>
		<stop  offset="0.15" style="stop-color:#FDEAD3"/>
		<stop  offset="0.25" style="stop-color:#FEF3E7"/>
		<stop  offset="0.52" style="stop-color:#DECCB6"/>
		<stop  offset="0.69" style="stop-color:#C5B5A2"/>
		<stop  offset="0.8" style="stop-color:#BAAB98"/>
		<stop  offset="0.97" style="stop-color:#B0A190"/>
		<stop  offset="1" style="stop-color:#CABAA5"/>
	</linearGradient>
	<path fill="url(#SVGID_24_)" d="M289.527,390.64h18v9h-18V390.64z"/>
	
		<linearGradient id="SVGID_25_" gradientUnits="userSpaceOnUse" x1="214.2236" y1="201.3047" x2="214.2236" y2="189.3047" gradientTransform="matrix(0.75 0 0 -0.75 168.3514 541.6193)">
		<stop  offset="0" style="stop-color:#C2B39F"/>
		<stop  offset="0.15" style="stop-color:#FDEAD3"/>
		<stop  offset="0.25" style="stop-color:#FEF3E7"/>
		<stop  offset="0.52" style="stop-color:#DECCB6"/>
		<stop  offset="0.69" style="stop-color:#C5B5A2"/>
		<stop  offset="0.8" style="stop-color:#BAAB98"/>
		<stop  offset="0.97" style="stop-color:#B0A190"/>
		<stop  offset="1" style="stop-color:#CABAA5"/>
	</linearGradient>
	<path fill="url(#SVGID_25_)" d="M320.019,390.64h18v9h-18V390.64z"/>
	
		<linearGradient id="SVGID_26_" gradientUnits="userSpaceOnUse" x1="214.2275" y1="201.3047" x2="214.2275" y2="189.3047" gradientTransform="matrix(0.75 0 0 -0.75 198.8446 541.6193)">
		<stop  offset="0" style="stop-color:#C2B39F"/>
		<stop  offset="0.15" style="stop-color:#FDEAD3"/>
		<stop  offset="0.25" style="stop-color:#FEF3E7"/>
		<stop  offset="0.52" style="stop-color:#DECCB6"/>
		<stop  offset="0.69" style="stop-color:#C5B5A2"/>
		<stop  offset="0.8" style="stop-color:#BAAB98"/>
		<stop  offset="0.97" style="stop-color:#B0A190"/>
		<stop  offset="1" style="stop-color:#CABAA5"/>
	</linearGradient>
	<path fill="url(#SVGID_26_)" d="M350.515,390.64h18v9h-18V390.64z"/>
	
		<linearGradient id="SVGID_27_" gradientUnits="userSpaceOnUse" x1="214.2261" y1="201.3047" x2="214.2261" y2="189.3047" gradientTransform="matrix(0.75 0 0 -0.75 229.3378 541.6193)">
		<stop  offset="0" style="stop-color:#C2B39F"/>
		<stop  offset="0.15" style="stop-color:#FDEAD3"/>
		<stop  offset="0.25" style="stop-color:#FEF3E7"/>
		<stop  offset="0.52" style="stop-color:#DECCB6"/>
		<stop  offset="0.69" style="stop-color:#C5B5A2"/>
		<stop  offset="0.8" style="stop-color:#BAAB98"/>
		<stop  offset="0.97" style="stop-color:#B0A190"/>
		<stop  offset="1" style="stop-color:#CABAA5"/>
	</linearGradient>
	<path fill="url(#SVGID_27_)" d="M381.007,390.64h18v9h-18V390.64z"/>
	
		<linearGradient id="SVGID_28_" gradientUnits="userSpaceOnUse" x1="214.2246" y1="201.3047" x2="214.2246" y2="189.3047" gradientTransform="matrix(0.75 0 0 -0.75 259.8309 541.6193)">
		<stop  offset="0" style="stop-color:#C2B39F"/>
		<stop  offset="0.15" style="stop-color:#FDEAD3"/>
		<stop  offset="0.25" style="stop-color:#FEF3E7"/>
		<stop  offset="0.52" style="stop-color:#DECCB6"/>
		<stop  offset="0.69" style="stop-color:#C5B5A2"/>
		<stop  offset="0.8" style="stop-color:#BAAB98"/>
		<stop  offset="0.97" style="stop-color:#B0A190"/>
		<stop  offset="1" style="stop-color:#CABAA5"/>
	</linearGradient>
	<path fill="url(#SVGID_28_)" d="M411.5,390.64h18v9h-18V390.64z"/>
	
		<linearGradient id="SVGID_29_" gradientUnits="userSpaceOnUse" x1="214.2222" y1="201.3047" x2="214.2222" y2="189.3047" gradientTransform="matrix(0.75 0 0 -0.75 290.3251 541.6193)">
		<stop  offset="0" style="stop-color:#C2B39F"/>
		<stop  offset="0.15" style="stop-color:#FDEAD3"/>
		<stop  offset="0.25" style="stop-color:#FEF3E7"/>
		<stop  offset="0.52" style="stop-color:#DECCB6"/>
		<stop  offset="0.69" style="stop-color:#C5B5A2"/>
		<stop  offset="0.8" style="stop-color:#BAAB98"/>
		<stop  offset="0.97" style="stop-color:#B0A190"/>
		<stop  offset="1" style="stop-color:#CABAA5"/>
	</linearGradient>
	<path fill="url(#SVGID_29_)" d="M441.992,390.64h18v9h-18V390.64z"/>
	
		<linearGradient id="SVGID_30_" gradientUnits="userSpaceOnUse" x1="214.2271" y1="201.3057" x2="214.2271" y2="189.3057" gradientTransform="matrix(0.75 0 0 -0.75 320.8173 541.6193)">
		<stop  offset="0" style="stop-color:#C2B39F"/>
		<stop  offset="0.15" style="stop-color:#FDEAD3"/>
		<stop  offset="0.25" style="stop-color:#FEF3E7"/>
		<stop  offset="0.52" style="stop-color:#DECCB6"/>
		<stop  offset="0.69" style="stop-color:#C5B5A2"/>
		<stop  offset="0.8" style="stop-color:#BAAB98"/>
		<stop  offset="0.97" style="stop-color:#B0A190"/>
		<stop  offset="1" style="stop-color:#CABAA5"/>
	</linearGradient>
	<path fill="url(#SVGID_30_)" d="M472.488,390.64h18v9h-18V390.64z"/>
	
		<linearGradient id="SVGID_31_" gradientUnits="userSpaceOnUse" x1="328.2251" y1="160.3047" x2="202.2251" y2="160.3047" gradientTransform="matrix(0.75 0 0 -0.75 -14.0172 513.8126)">
		<stop  offset="0" style="stop-color:#B3A593"/>
		<stop  offset="0.03" style="stop-color:#FDEEDA"/>
		<stop  offset="0.08" style="stop-color:#E9D7BF"/>
		<stop  offset="0.64" style="stop-color:#E5D3BC"/>
		<stop  offset="0.95" style="stop-color:#E0CEB8"/>
		<stop  offset="1" style="stop-color:#A69988"/>
	</linearGradient>
	<path fill="url(#SVGID_31_)" d="M137.652,362.835h94.5v61.5h-94.5V362.835z"/>
	
		<radialGradient id="SVGID_32_" cx="231.8066" cy="172.0952" r="41.5749" gradientTransform="matrix(0.75 0 0 -0.75 -1.3741 522.4865)" gradientUnits="userSpaceOnUse">
		<stop  offset="0" style="stop-color:#C7A578"/>
		<stop  offset="0.54" style="stop-color:#D4AF81"/>
		<stop  offset="0.74" style="stop-color:#E8D0B5"/>
		<stop  offset="0.91" style="stop-color:#C7A578"/>
		<stop  offset="1" style="stop-color:#D4AF81"/>
	</radialGradient>
	<path fill="url(#SVGID_32_)" stroke="#DEB887" stroke-width="0.25" stroke-linejoin="bevel" stroke-miterlimit="10" d="
		M150.293,393.257c0-12,9.934-21.75,22.188-21.75c12.313,0,22.188,9.809,22.188,21.906c-0.125,11.844-9.934,21.91-22.188,21.91
		c-12.438-0.316-22.188-9.809-22.188-21.91V393.257z"/>
	<path fill="#FDE9D0" stroke="#EACD98" stroke-linejoin="bevel" stroke-miterlimit="10" d="M154.309,393.429
		c0-9.75,8.137-18,18.172-18c10.328,0,18.176,8.055,18.176,17.984c-0.348,9.766-8.137,17.984-18.176,17.984
		c-9.922,0.031-18.172-8.051-18.172-17.984V393.429z"/>
	<path fill="#E35020" d="M166.32,401.164c0,0,12.797-21.973,13.965-21.297c1.383,0.715-11.367,22.797-11.367,22.797L166.32,401.164z
		"/>
	<path fill="#4B6884" d="M169.574,393.539c0-1.5,1.301-3,2.906-3c1.594,0,2.91,1.289,2.91,2.875c0.184,1.625-1.301,2.879-2.91,2.879
		c-1.406,0.246-2.906-1.289-2.906-2.879V393.539z"/>
	<path fill="none" stroke="#000000" stroke-linejoin="bevel" stroke-miterlimit="10" d="M172.008,378.324l-0.008,3.75"/>
	<path fill="none" stroke="#000000" stroke-linejoin="bevel" stroke-miterlimit="10" d="M158.207,392.867l3.75,0.008"/>
	<path fill="none" stroke="#000000" stroke-linejoin="bevel" stroke-miterlimit="10" d="M183.559,392.867l3.75,0.008"/>
	<path fill="none" stroke="#000000" stroke-linejoin="bevel" stroke-miterlimit="10" d="M162.359,382.847l2.645,2.656"/>
	<path fill="none" stroke="#000000" stroke-linejoin="bevel" stroke-miterlimit="10" d="M182.574,382.847l-2.645,2.656"/>
	<path fill="none" stroke="#3F77A8" stroke-linejoin="bevel" stroke-miterlimit="10" d="M165.727,403.914h13.5
		c1.5,0,1.961,0.66,1.961,1.531c0.289,1.469-0.715,1.84-1.598,1.84l-13.863-0.371c-0.75,0-1.555-0.336-1.555-1.207
		c0.055-1.043,0.715-1.84,1.594-1.84L165.727,403.914z"/>
	<path fill="#FFFFFF" fill-opacity="0.3804" d="M175.445,393.429c0-9.75-13.066-18-3.031-18c9.781,0,18.176,8.051,18.176,17.984
		c-0.145,9.766-8.137,17.988-18.176,17.988c-9.719,0.027,3.188-7.793,3.188-17.727L175.445,393.429z"/>
	
		<linearGradient id="SVGID_33_" gradientUnits="userSpaceOnUse" x1="243.4175" y1="201.3047" x2="243.4175" y2="119.6938" gradientTransform="matrix(0.75 0 0 -0.75 235.6649 515.0411)">
		<stop  offset="0" style="stop-color:#C2B39F"/>
		<stop  offset="0.15" style="stop-color:#FDEAD3"/>
		<stop  offset="0.25" style="stop-color:#FEF3E7"/>
		<stop  offset="0.52" style="stop-color:#DECCB6"/>
		<stop  offset="1" style="stop-color:#C5B5A2"/>
	</linearGradient>
	<path fill="url(#SVGID_33_)" stroke="#BAAB98" stroke-linejoin="bevel" stroke-miterlimit="10" d="M387.332,394.812
		c0-17.25,13.789-30.75,30.938-30.75c17.063,0,30.934,13.691,30.934,30.602c-0.371,16.648-13.867,30.602-30.934,30.602
		c-17.438,0.297-31.016-13.73-31.016-30.602L387.332,394.812z"/>
	<path fill="#B5A28A" d="M406.121,394.73c0-6.75,5.418-12.102,12.117-12.102c6.633,0.102,12.137,5.363,12.137,11.98
		c-0.254,6.871-5.434,11.992-12.137,11.992c-6.867,0.129-12.117-5.375-12.117-11.992V394.73z"/>
	
		<linearGradient id="SVGID_34_" gradientUnits="userSpaceOnUse" x1="208.2822" y1="201.4482" x2="208.2822" y2="189.457" gradientTransform="matrix(0.75 0 0 -0.75 262.036 519.0197)">
		<stop  offset="0" style="stop-color:#C2B39F"/>
		<stop  offset="0.15" style="stop-color:#FDEAD3"/>
		<stop  offset="0.25" style="stop-color:#FEF3E7"/>
		<stop  offset="0.52" style="stop-color:#DECCB6"/>
		<stop  offset="0.69" style="stop-color:#C5B5A2"/>
		<stop  offset="0.8" style="stop-color:#BAAB98"/>
		<stop  offset="0.97" style="stop-color:#B0A190"/>
		<stop  offset="1" style="stop-color:#CABAA5"/>
	</linearGradient>
	<path fill="url(#SVGID_34_)" stroke="#BAAB98" stroke-width="0.25" stroke-linejoin="bevel" stroke-miterlimit="10" d="
		M413.703,372.542c0-2.25,2.023-4.609,4.535-4.609c2.215,0.109,4.555,2.012,4.555,4.492c-0.09,2.367-2.039,4.496-4.555,4.496
		c-2.285,0.121-4.535-2.012-4.535-4.496V372.542z"/>
	
		<linearGradient id="SVGID_35_" gradientUnits="userSpaceOnUse" x1="208.2822" y1="201.4492" x2="208.2822" y2="189.4585" gradientTransform="matrix(0.75 0 0 -0.75 262.036 563.6056)">
		<stop  offset="0" style="stop-color:#C2B39F"/>
		<stop  offset="0.15" style="stop-color:#FDEAD3"/>
		<stop  offset="0.25" style="stop-color:#FEF3E7"/>
		<stop  offset="0.52" style="stop-color:#DECCB6"/>
		<stop  offset="0.69" style="stop-color:#C5B5A2"/>
		<stop  offset="0.8" style="stop-color:#BAAB98"/>
		<stop  offset="0.97" style="stop-color:#B0A190"/>
		<stop  offset="1" style="stop-color:#CABAA5"/>
	</linearGradient>
	<path fill="url(#SVGID_35_)" stroke="#BAAB98" stroke-width="0.25" stroke-linejoin="bevel" stroke-miterlimit="10" d="
		M413.703,417.128c0-2.25,2.023-4.609,4.535-4.609c2.215,0.109,4.555,2.012,4.555,4.492c-0.09,2.367-2.039,4.496-4.555,4.496
		c-2.285,0.121-4.535-2.012-4.535-4.496V417.128z"/>
	
		<linearGradient id="SVGID_36_" gradientUnits="userSpaceOnUse" x1="208.2837" y1="201.4482" x2="208.2837" y2="189.4575" gradientTransform="matrix(0.75 0 0 -0.75 237.8885 541.1954)">
		<stop  offset="0" style="stop-color:#C2B39F"/>
		<stop  offset="0.15" style="stop-color:#FDEAD3"/>
		<stop  offset="0.25" style="stop-color:#FEF3E7"/>
		<stop  offset="0.52" style="stop-color:#DECCB6"/>
		<stop  offset="0.69" style="stop-color:#C5B5A2"/>
		<stop  offset="0.8" style="stop-color:#BAAB98"/>
		<stop  offset="0.97" style="stop-color:#B0A190"/>
		<stop  offset="1" style="stop-color:#CABAA5"/>
	</linearGradient>
	<path fill="url(#SVGID_36_)" stroke="#BAAB98" stroke-width="0.25" stroke-linejoin="bevel" stroke-miterlimit="10" d="
		M389.558,394.718c0-2.25,2.02-4.609,4.535-4.609c2.215,0.109,4.551,2.012,4.551,4.492c-0.086,2.367-2.039,4.496-4.551,4.496
		c-2.285,0.121-4.535-2.012-4.535-4.496V394.718z"/>
	
		<linearGradient id="SVGID_37_" gradientUnits="userSpaceOnUse" x1="208.2822" y1="201.4482" x2="208.2822" y2="189.4575" gradientTransform="matrix(0.75 0 0 -0.75 285.1708 541.1954)">
		<stop  offset="0" style="stop-color:#C2B39F"/>
		<stop  offset="0.15" style="stop-color:#FDEAD3"/>
		<stop  offset="0.25" style="stop-color:#FEF3E7"/>
		<stop  offset="0.52" style="stop-color:#DECCB6"/>
		<stop  offset="0.69" style="stop-color:#C5B5A2"/>
		<stop  offset="0.8" style="stop-color:#BAAB98"/>
		<stop  offset="0.97" style="stop-color:#B0A190"/>
		<stop  offset="1" style="stop-color:#CABAA5"/>
	</linearGradient>
	<path fill="url(#SVGID_37_)" stroke="#BAAB98" stroke-width="0.25" stroke-linejoin="bevel" stroke-miterlimit="10" d="
		M436.839,394.718c0-2.25,2.023-4.609,4.535-4.609c2.215,0.109,4.551,2.012,4.551,4.492c-0.086,2.367-2.035,4.496-4.551,4.496
		c-2.285,0.121-4.535-2.012-4.535-4.496V394.718z"/>
	
		<linearGradient id="SVGID_38_" gradientUnits="userSpaceOnUse" x1="208.2822" y1="201.4463" x2="208.2822" y2="189.4609" gradientTransform="matrix(0.75 0 0 -0.75 246.245 524.9991)">
		<stop  offset="0" style="stop-color:#C2B39F"/>
		<stop  offset="0.15" style="stop-color:#FDEAD3"/>
		<stop  offset="0.25" style="stop-color:#FEF3E7"/>
		<stop  offset="0.52" style="stop-color:#DECCB6"/>
		<stop  offset="0.69" style="stop-color:#C5B5A2"/>
		<stop  offset="0.8" style="stop-color:#BAAB98"/>
		<stop  offset="0.97" style="stop-color:#B0A190"/>
		<stop  offset="1" style="stop-color:#CABAA5"/>
	</linearGradient>
	<path fill="url(#SVGID_38_)" stroke="#BAAB98" stroke-width="0.25" stroke-linejoin="bevel" stroke-miterlimit="10" d="
		M397.914,378.519c0-2.25,2.02-4.605,4.535-4.605c2.215,0.105,4.551,2.012,4.551,4.492c-0.086,2.363-2.039,4.492-4.551,4.492
		c-2.285,0.121-4.535-2.012-4.535-4.492V378.519z"/>
	
		<linearGradient id="SVGID_39_" gradientUnits="userSpaceOnUse" x1="208.2822" y1="201.4502" x2="208.2822" y2="189.4595" gradientTransform="matrix(0.75 0 0 -0.75 278.7118 556.8771)">
		<stop  offset="0" style="stop-color:#C2B39F"/>
		<stop  offset="0.15" style="stop-color:#FDEAD3"/>
		<stop  offset="0.25" style="stop-color:#FEF3E7"/>
		<stop  offset="0.52" style="stop-color:#DECCB6"/>
		<stop  offset="0.69" style="stop-color:#C5B5A2"/>
		<stop  offset="0.8" style="stop-color:#BAAB98"/>
		<stop  offset="0.97" style="stop-color:#B0A190"/>
		<stop  offset="1" style="stop-color:#CABAA5"/>
	</linearGradient>
	<path fill="url(#SVGID_39_)" stroke="#BAAB98" stroke-width="0.25" stroke-linejoin="bevel" stroke-miterlimit="10" d="
		M430.378,410.398c0-2.25,2.023-4.609,4.539-4.609c2.211,0.109,4.551,2.012,4.551,4.496c-0.09,2.363-2.039,4.492-4.551,4.492
		c-2.289,0.121-4.539-2.012-4.539-4.492V410.398z"/>
	
		<linearGradient id="SVGID_40_" gradientUnits="userSpaceOnUse" x1="208.2832" y1="201.4482" x2="208.2832" y2="189.457" gradientTransform="matrix(0.75 0 0 -0.75 277.9764 526.8712)">
		<stop  offset="0" style="stop-color:#C2B39F"/>
		<stop  offset="0.15" style="stop-color:#FDEAD3"/>
		<stop  offset="0.25" style="stop-color:#FEF3E7"/>
		<stop  offset="0.52" style="stop-color:#DECCB6"/>
		<stop  offset="0.69" style="stop-color:#C5B5A2"/>
		<stop  offset="0.8" style="stop-color:#BAAB98"/>
		<stop  offset="0.97" style="stop-color:#B0A190"/>
		<stop  offset="1" style="stop-color:#CABAA5"/>
	</linearGradient>
	<path fill="url(#SVGID_40_)" stroke="#BAAB98" stroke-width="0.25" stroke-linejoin="bevel" stroke-miterlimit="10" d="
		M429.644,380.394c0-2.25,2.023-4.609,4.535-4.609c2.215,0.109,4.555,2.012,4.555,4.492c-0.09,2.367-2.039,4.496-4.555,4.496
		c-2.285,0.121-4.535-2.012-4.535-4.496V380.394z"/>
	
		<linearGradient id="SVGID_41_" gradientUnits="userSpaceOnUse" x1="208.2822" y1="201.4502" x2="208.2822" y2="189.4595" gradientTransform="matrix(0.75 0 0 -0.75 244.3485 557.5792)">
		<stop  offset="0" style="stop-color:#C2B39F"/>
		<stop  offset="0.15" style="stop-color:#FDEAD3"/>
		<stop  offset="0.25" style="stop-color:#FEF3E7"/>
		<stop  offset="0.52" style="stop-color:#DECCB6"/>
		<stop  offset="0.69" style="stop-color:#C5B5A2"/>
		<stop  offset="0.8" style="stop-color:#BAAB98"/>
		<stop  offset="0.97" style="stop-color:#B0A190"/>
		<stop  offset="1" style="stop-color:#CABAA5"/>
	</linearGradient>
	<path fill="url(#SVGID_41_)" stroke="#BAAB98" stroke-width="0.25" stroke-linejoin="bevel" stroke-miterlimit="10" d="
		M396.015,411.101c0-2.25,2.023-4.609,4.535-4.609c2.215,0.109,4.555,2.012,4.555,4.492c-0.09,2.367-2.039,4.496-4.555,4.496
		c-2.285,0.121-4.535-2.012-4.535-4.496V411.101z"/>
	
		<linearGradient id="SVGID_42_" gradientUnits="userSpaceOnUse" x1="243.4175" y1="201.3047" x2="243.4175" y2="119.6938" gradientTransform="matrix(0.75 0 0 -0.75 147.2587 515.0411)">
		<stop  offset="0" style="stop-color:#C2B39F"/>
		<stop  offset="0.15" style="stop-color:#FDEAD3"/>
		<stop  offset="0.25" style="stop-color:#FEF3E7"/>
		<stop  offset="0.52" style="stop-color:#DECCB6"/>
		<stop  offset="1" style="stop-color:#C5B5A2"/>
	</linearGradient>
	<path fill="url(#SVGID_42_)" stroke="#BAAB98" stroke-linejoin="bevel" stroke-miterlimit="10" d="M298.925,394.812
		c0-17.25,13.789-30.75,30.938-30.75c17.063,0,30.934,13.691,30.934,30.602c-0.371,16.648-13.867,30.602-30.934,30.602
		c-17.438,0.297-31.016-13.73-31.016-30.602L298.925,394.812z"/>
	<path fill="#B5A28A" d="M317.714,394.73c0-6.75,5.418-12.102,12.121-12.102c6.629,0.102,12.137,5.363,12.137,11.98
		c-0.258,6.871-5.438,11.992-12.137,11.992c-6.871,0.129-12.121-5.375-12.121-11.992V394.73z"/>
	
		<linearGradient id="SVGID_43_" gradientUnits="userSpaceOnUse" x1="208.2822" y1="201.4482" x2="208.2822" y2="189.457" gradientTransform="matrix(0.75 0 0 -0.75 173.6298 519.0197)">
		<stop  offset="0" style="stop-color:#C2B39F"/>
		<stop  offset="0.15" style="stop-color:#FDEAD3"/>
		<stop  offset="0.25" style="stop-color:#FEF3E7"/>
		<stop  offset="0.52" style="stop-color:#DECCB6"/>
		<stop  offset="0.69" style="stop-color:#C5B5A2"/>
		<stop  offset="0.8" style="stop-color:#BAAB98"/>
		<stop  offset="0.97" style="stop-color:#B0A190"/>
		<stop  offset="1" style="stop-color:#CABAA5"/>
	</linearGradient>
	<path fill="url(#SVGID_43_)" stroke="#BAAB98" stroke-width="0.25" stroke-linejoin="bevel" stroke-miterlimit="10" d="
		M325.296,372.542c0-2.25,2.023-4.609,4.539-4.609c2.211,0.109,4.551,2.012,4.551,4.492c-0.09,2.367-2.039,4.496-4.551,4.496
		c-2.289,0.121-4.539-2.012-4.539-4.496V372.542z"/>
	
		<linearGradient id="SVGID_44_" gradientUnits="userSpaceOnUse" x1="208.2822" y1="201.4492" x2="208.2822" y2="189.4585" gradientTransform="matrix(0.75 0 0 -0.75 173.6298 563.6056)">
		<stop  offset="0" style="stop-color:#C2B39F"/>
		<stop  offset="0.15" style="stop-color:#FDEAD3"/>
		<stop  offset="0.25" style="stop-color:#FEF3E7"/>
		<stop  offset="0.52" style="stop-color:#DECCB6"/>
		<stop  offset="0.69" style="stop-color:#C5B5A2"/>
		<stop  offset="0.8" style="stop-color:#BAAB98"/>
		<stop  offset="0.97" style="stop-color:#B0A190"/>
		<stop  offset="1" style="stop-color:#CABAA5"/>
	</linearGradient>
	<path fill="url(#SVGID_44_)" stroke="#BAAB98" stroke-width="0.25" stroke-linejoin="bevel" stroke-miterlimit="10" d="
		M325.296,417.128c0-2.25,2.023-4.609,4.539-4.609c2.211,0.109,4.551,2.012,4.551,4.492c-0.09,2.367-2.039,4.496-4.551,4.496
		c-2.289,0.121-4.539-2.012-4.539-4.496V417.128z"/>
	
		<linearGradient id="SVGID_45_" gradientUnits="userSpaceOnUse" x1="208.2822" y1="201.4482" x2="208.2822" y2="189.4575" gradientTransform="matrix(0.75 0 0 -0.75 149.4833 541.1954)">
		<stop  offset="0" style="stop-color:#C2B39F"/>
		<stop  offset="0.15" style="stop-color:#FDEAD3"/>
		<stop  offset="0.25" style="stop-color:#FEF3E7"/>
		<stop  offset="0.52" style="stop-color:#DECCB6"/>
		<stop  offset="0.69" style="stop-color:#C5B5A2"/>
		<stop  offset="0.8" style="stop-color:#BAAB98"/>
		<stop  offset="0.97" style="stop-color:#B0A190"/>
		<stop  offset="1" style="stop-color:#CABAA5"/>
	</linearGradient>
	<path fill="url(#SVGID_45_)" stroke="#BAAB98" stroke-width="0.25" stroke-linejoin="bevel" stroke-miterlimit="10" d="
		M301.152,394.718c0-2.25,2.02-4.609,4.535-4.609c2.215,0.109,4.551,2.012,4.551,4.492c-0.086,2.367-2.039,4.496-4.551,4.496
		c-2.285,0.121-4.535-2.012-4.535-4.496V394.718z"/>
	
		<linearGradient id="SVGID_46_" gradientUnits="userSpaceOnUse" x1="208.2808" y1="201.4482" x2="208.2808" y2="189.4575" gradientTransform="matrix(0.75 0 0 -0.75 196.7655 541.1954)">
		<stop  offset="0" style="stop-color:#C2B39F"/>
		<stop  offset="0.15" style="stop-color:#FDEAD3"/>
		<stop  offset="0.25" style="stop-color:#FEF3E7"/>
		<stop  offset="0.52" style="stop-color:#DECCB6"/>
		<stop  offset="0.69" style="stop-color:#C5B5A2"/>
		<stop  offset="0.8" style="stop-color:#BAAB98"/>
		<stop  offset="0.97" style="stop-color:#B0A190"/>
		<stop  offset="1" style="stop-color:#CABAA5"/>
	</linearGradient>
	<path fill="url(#SVGID_46_)" stroke="#BAAB98" stroke-width="0.25" stroke-linejoin="bevel" stroke-miterlimit="10" d="
		M348.433,394.718c0-2.25,2.023-4.609,4.535-4.609c2.215,0.109,4.551,2.012,4.551,4.492c-0.086,2.367-2.035,4.496-4.551,4.496
		c-2.285,0.121-4.535-2.012-4.535-4.496V394.718z"/>
	
		<linearGradient id="SVGID_47_" gradientUnits="userSpaceOnUse" x1="208.2822" y1="201.4463" x2="208.2822" y2="189.4609" gradientTransform="matrix(0.75 0 0 -0.75 157.8387 524.9991)">
		<stop  offset="0" style="stop-color:#C2B39F"/>
		<stop  offset="0.15" style="stop-color:#FDEAD3"/>
		<stop  offset="0.25" style="stop-color:#FEF3E7"/>
		<stop  offset="0.52" style="stop-color:#DECCB6"/>
		<stop  offset="0.69" style="stop-color:#C5B5A2"/>
		<stop  offset="0.8" style="stop-color:#BAAB98"/>
		<stop  offset="0.97" style="stop-color:#B0A190"/>
		<stop  offset="1" style="stop-color:#CABAA5"/>
	</linearGradient>
	<path fill="url(#SVGID_47_)" stroke="#BAAB98" stroke-width="0.25" stroke-linejoin="bevel" stroke-miterlimit="10" d="
		M309.507,378.519c0-2.25,2.023-4.605,4.535-4.605c2.215,0.105,4.551,2.012,4.551,4.492c-0.086,2.363-2.035,4.492-4.551,4.492
		c-2.285,0.121-4.535-2.012-4.535-4.492V378.519z"/>
	
		<linearGradient id="SVGID_48_" gradientUnits="userSpaceOnUse" x1="208.2847" y1="201.4502" x2="208.2847" y2="189.4595" gradientTransform="matrix(0.75 0 0 -0.75 190.3055 556.8771)">
		<stop  offset="0" style="stop-color:#C2B39F"/>
		<stop  offset="0.15" style="stop-color:#FDEAD3"/>
		<stop  offset="0.25" style="stop-color:#FEF3E7"/>
		<stop  offset="0.52" style="stop-color:#DECCB6"/>
		<stop  offset="0.69" style="stop-color:#C5B5A2"/>
		<stop  offset="0.8" style="stop-color:#BAAB98"/>
		<stop  offset="0.97" style="stop-color:#B0A190"/>
		<stop  offset="1" style="stop-color:#CABAA5"/>
	</linearGradient>
	<path fill="url(#SVGID_48_)" stroke="#BAAB98" stroke-width="0.25" stroke-linejoin="bevel" stroke-miterlimit="10" d="
		M341.976,410.398c0-2.25,2.02-4.609,4.535-4.609c2.215,0.109,4.551,2.012,4.551,4.496c-0.086,2.363-2.039,4.492-4.551,4.492
		c-2.285,0.121-4.535-2.012-4.535-4.492V410.398z"/>
	
		<linearGradient id="SVGID_49_" gradientUnits="userSpaceOnUse" x1="208.2817" y1="201.4482" x2="208.2817" y2="189.457" gradientTransform="matrix(0.75 0 0 -0.75 189.5712 526.8712)">
		<stop  offset="0" style="stop-color:#C2B39F"/>
		<stop  offset="0.15" style="stop-color:#FDEAD3"/>
		<stop  offset="0.25" style="stop-color:#FEF3E7"/>
		<stop  offset="0.52" style="stop-color:#DECCB6"/>
		<stop  offset="0.69" style="stop-color:#C5B5A2"/>
		<stop  offset="0.8" style="stop-color:#BAAB98"/>
		<stop  offset="0.97" style="stop-color:#B0A190"/>
		<stop  offset="1" style="stop-color:#CABAA5"/>
	</linearGradient>
	<path fill="url(#SVGID_49_)" stroke="#BAAB98" stroke-width="0.25" stroke-linejoin="bevel" stroke-miterlimit="10" d="
		M341.238,380.394c0-2.25,2.023-4.609,4.535-4.609c2.215,0.109,4.555,2.012,4.555,4.492c-0.09,2.367-2.039,4.496-4.555,4.496
		c-2.285,0.121-4.535-2.012-4.535-4.496V380.394z"/>
	
		<linearGradient id="SVGID_50_" gradientUnits="userSpaceOnUse" x1="208.2822" y1="201.4502" x2="208.2822" y2="189.4595" gradientTransform="matrix(0.75 0 0 -0.75 155.9423 557.5792)">
		<stop  offset="0" style="stop-color:#C2B39F"/>
		<stop  offset="0.15" style="stop-color:#FDEAD3"/>
		<stop  offset="0.25" style="stop-color:#FEF3E7"/>
		<stop  offset="0.52" style="stop-color:#DECCB6"/>
		<stop  offset="0.69" style="stop-color:#C5B5A2"/>
		<stop  offset="0.8" style="stop-color:#BAAB98"/>
		<stop  offset="0.97" style="stop-color:#B0A190"/>
		<stop  offset="1" style="stop-color:#CABAA5"/>
	</linearGradient>
	<path fill="url(#SVGID_50_)" stroke="#BAAB98" stroke-width="0.25" stroke-linejoin="bevel" stroke-miterlimit="10" d="
		M307.609,411.101c0-2.25,2.023-4.609,4.539-4.609c2.211,0.109,4.551,2.012,4.551,4.492c-0.09,2.367-2.039,4.496-4.551,4.496
		c-2.289,0.121-4.539-2.012-4.539-4.496V411.101z"/>
	
		<linearGradient id="SVGID_51_" gradientUnits="userSpaceOnUse" x1="238.2246" y1="194.3047" x2="202.2246" y2="194.3047" gradientTransform="matrix(0.75 0 0 -0.75 43.8705 574.9738)">
		<stop  offset="0" style="stop-color:#C2B39F"/>
		<stop  offset="0.15" style="stop-color:#FDEAD3"/>
		<stop  offset="0.25" style="stop-color:#FEF3E7"/>
		<stop  offset="0.52" style="stop-color:#DECCB6"/>
		<stop  offset="0.69" style="stop-color:#C5B5A2"/>
		<stop  offset="0.8" style="stop-color:#BAAB98"/>
		<stop  offset="0.97" style="stop-color:#B0A190"/>
		<stop  offset="1" style="stop-color:#CABAA5"/>
	</linearGradient>
	<path fill="url(#SVGID_51_)" d="M195.539,434.496h27v-10.5c0,0-0.84,0-13.629,0c-12.621,0-13.371,0.164-13.371,0.164V434.496z"/>
	
		<linearGradient id="SVGID_52_" gradientUnits="userSpaceOnUse" x1="238.2241" y1="194.3047" x2="202.2241" y2="194.3047" gradientTransform="matrix(0.75 0 0 -0.75 -6.3053 574.9738)">
		<stop  offset="0" style="stop-color:#C2B39F"/>
		<stop  offset="0.15" style="stop-color:#FDEAD3"/>
		<stop  offset="0.25" style="stop-color:#FEF3E7"/>
		<stop  offset="0.52" style="stop-color:#DECCB6"/>
		<stop  offset="0.69" style="stop-color:#C5B5A2"/>
		<stop  offset="0.8" style="stop-color:#BAAB98"/>
		<stop  offset="0.97" style="stop-color:#B0A190"/>
		<stop  offset="1" style="stop-color:#CABAA5"/>
	</linearGradient>
	<path fill="url(#SVGID_52_)" d="M145.363,434.496h27v-10.5c0,0-0.836,0-13.629,0c-12.621,0-13.371,0.164-13.371,0.164V434.496z"/>
</g>
</svg>
