<?xml version="1.0" encoding="utf-8"?>
<!-- Generator: Adobe Illustrator 16.0.0, SVG Export Plug-In . SVG Version: 6.00 Build 0)  -->
<!DOCTYPE svg PUBLIC "-//W3C//DTD SVG 1.1//EN" "http://www.w3.org/Graphics/SVG/1.1/DTD/svg11.dtd">
<svg preserveAspectRatio="none"   version="1.1" id="图层_1" xmlns="http://www.w3.org/2000/svg" xmlns:xlink="http://www.w3.org/1999/xlink" x="0px" y="0px"
	 width="408px" height="563.894px" viewBox="79.445 1.547 408 563.894" enable-background="new 79.445 1.547 408 563.894"
	 xml:space="preserve">
<g id="surface166">
	<path fill="#999EA1" d="M79.445,26.488h408v517.5h-408V26.488z"/>
	
		<linearGradient id="SVGID_1_" gradientUnits="userSpaceOnUse" x1="722.2231" y1="-130.6953" x2="202.2241" y2="-130.6954" gradientTransform="matrix(0.75 0 0 -0.75 -63.0983 186.1447)">
		<stop  offset="0" style="stop-color:#ACB0B2"/>
		<stop  offset="0.03" style="stop-color:#F5FAFC"/>
		<stop  offset="0.08" style="stop-color:#E0E5E7"/>
		<stop  offset="0.64" style="stop-color:#DCE2E3"/>
		<stop  offset="0.95" style="stop-color:#D7DDDE"/>
		<stop  offset="1" style="stop-color:#A0A4A5"/>
	</linearGradient>
	<path fill="url(#SVGID_1_)" d="M88.57,35.168h390v498h-390V35.168z"/>
	
		<linearGradient id="SVGID_2_" gradientUnits="userSpaceOnUse" x1="746.2261" y1="186.8071" x2="202.2261" y2="186.8071" gradientTransform="matrix(0.75 0 0 -0.75 -72.2252 694.67)">
		<stop  offset="0" style="stop-color:#7A8586"/>
		<stop  offset="0.03" style="stop-color:#C2CCCE"/>
		<stop  offset="0.08" style="stop-color:#A0AEB0"/>
		<stop  offset="0.64" style="stop-color:#9DABAD"/>
		<stop  offset="0.95" style="stop-color:#9AA7A9"/>
		<stop  offset="1" style="stop-color:#717B7C"/>
	</linearGradient>
	<path fill="url(#SVGID_2_)" d="M79.445,543.691h408v21.75h-408V543.691z"/>
	<path fill="#3E3938" d="M114.492,87.441h338.25v393.75h-338.25V87.441z"/>
	
		<linearGradient id="SVGID_3_" gradientUnits="userSpaceOnUse" x1="400.2231" y1="188.8047" x2="202.2236" y2="188.8047" gradientTransform="matrix(0.75 0 0 -0.75 -39.1954 158.8849)">
		<stop  offset="0" style="stop-color:#ACB0B2"/>
		<stop  offset="0.03" style="stop-color:#F5FAFC"/>
		<stop  offset="0.08" style="stop-color:#E0E5E7"/>
		<stop  offset="0.64" style="stop-color:#DCE2E3"/>
		<stop  offset="0.95" style="stop-color:#D7DDDE"/>
		<stop  offset="1" style="stop-color:#A0A4A5"/>
	</linearGradient>
	<path fill="url(#SVGID_3_)" d="M112.473,7.906h148.5v18.75h-148.5V7.906z"/>
	
		<linearGradient id="SVGID_4_" gradientUnits="userSpaceOnUse" x1="413.2231" y1="197.3018" x2="202.2231" y2="197.3017" gradientTransform="matrix(0.75 0 0 -0.75 -44.2423 152.5226)">
		<stop  offset="0" style="stop-color:#9B9B9C"/>
		<stop  offset="0.03" style="stop-color:#E4E4E4"/>
		<stop  offset="0.08" style="stop-color:#CBCBCB"/>
		<stop  offset="0.64" style="stop-color:#C7C7C8"/>
		<stop  offset="0.95" style="stop-color:#C3C3C4"/>
		<stop  offset="1" style="stop-color:#909091"/>
	</linearGradient>
	<path fill="url(#SVGID_4_)" d="M107.426,1.547h158.25v6h-158.25V1.547z"/>
	
		<linearGradient id="SVGID_5_" gradientUnits="userSpaceOnUse" x1="400.2241" y1="188.8047" x2="202.2241" y2="188.8047" gradientTransform="matrix(0.75 0 0 -0.75 154.3739 158.8849)">
		<stop  offset="0" style="stop-color:#ACB0B2"/>
		<stop  offset="0.03" style="stop-color:#F5FAFC"/>
		<stop  offset="0.08" style="stop-color:#E0E5E7"/>
		<stop  offset="0.64" style="stop-color:#DCE2E3"/>
		<stop  offset="0.95" style="stop-color:#D7DDDE"/>
		<stop  offset="1" style="stop-color:#A0A4A5"/>
	</linearGradient>
	<path fill="url(#SVGID_5_)" d="M306.042,7.906h148.5v18.75h-148.5V7.906z"/>
	
		<linearGradient id="SVGID_6_" gradientUnits="userSpaceOnUse" x1="413.2231" y1="197.3018" x2="202.2236" y2="197.3017" gradientTransform="matrix(0.75 0 0 -0.75 149.327 152.5226)">
		<stop  offset="0" style="stop-color:#9B9B9C"/>
		<stop  offset="0.03" style="stop-color:#E4E4E4"/>
		<stop  offset="0.08" style="stop-color:#CBCBCB"/>
		<stop  offset="0.64" style="stop-color:#C7C7C8"/>
		<stop  offset="0.95" style="stop-color:#C3C3C4"/>
		<stop  offset="1" style="stop-color:#909091"/>
	</linearGradient>
	<path fill="url(#SVGID_6_)" d="M300.996,1.547h158.25v6h-158.25V1.547z"/>
	<path fill="#ACB0B2" d="M389.769,52.52h60v15h-60V52.52z"/>
	<path fill="#EEEEEE" d="M434.582,52.52h15v15h-15V52.52z"/>
	<path fill="#B4B5B5" d="M114.492,94.047h338.25v5.25h-338.25V94.047z"/>
	<path fill="#B4B5B5" d="M114.492,104.996h338.25v5.25h-338.25V104.996z"/>
	<path fill="#B4B5B5" d="M114.492,117.566h338.25v5.25h-338.25V117.566z"/>
	<path fill="#B4B5B5" d="M114.492,143.859h338.25v5.25h-338.25V143.859z"/>
	<path fill="#B4B5B5" d="M114.492,168.762h338.25v5.25h-338.25V168.762z"/>
	<path fill="#B4B5B5" d="M114.492,156.309h338.25v5.25h-338.25V156.309z"/>
	<path fill="#B4B5B5" d="M114.492,130.137h338.25v5.25h-338.25V130.137z"/>
	<path fill="#B4B5B5" d="M114.492,181.215h338.25v5.25h-338.25V181.215z"/>
	<path fill="#B4B5B5" d="M114.492,193.668h338.25v5.25h-338.25V193.668z"/>
	<path fill="#B4B5B5" d="M114.492,206.121h338.25v5.25h-338.25V206.121z"/>
	<path fill="#B4B5B5" d="M114.492,218.57h338.25v5.25h-338.25V218.57z"/>
	<path fill="#B4B5B5" d="M114.492,230.543h338.25v5.25h-338.25V230.543z"/>
	<path fill="#B4B5B5" d="M114.492,241.492h338.25v5.25h-338.25V241.492z"/>
	<path fill="#B4B5B5" d="M114.492,254.063h338.25v5.25h-338.25V254.063z"/>
	<path fill="#B4B5B5" d="M114.492,280.355h338.25v5.25h-338.25V280.355z"/>
	<path fill="#B4B5B5" d="M114.492,305.257h338.25v5.25h-338.25V305.257z"/>
	<path fill="#B4B5B5" d="M114.492,292.804h338.25v5.25h-338.25V292.804z"/>
	<path fill="#B4B5B5" d="M114.492,266.633h338.25v5.25h-338.25V266.633z"/>
	<path fill="#B4B5B5" d="M114.492,317.71h338.25v5.25h-338.25V317.71z"/>
	<path fill="#B4B5B5" d="M114.492,330.164h338.25v5.25h-338.25V330.164z"/>
	<path fill="#B4B5B5" d="M114.492,342.617h338.25v5.25h-338.25V342.617z"/>
	<path fill="#B4B5B5" d="M114.492,355.066h338.25v5.25h-338.25V355.066z"/>
	<path fill="#B4B5B5" d="M114.492,367.859h338.25v5.25h-338.25V367.859z"/>
	<path fill="#B4B5B5" d="M114.492,394.152h338.25v5.25h-338.25V394.152z"/>
	<path fill="#B4B5B5" d="M114.492,419.054h338.25v5.25h-338.25V419.054z"/>
	<path fill="#B4B5B5" d="M114.492,406.601h338.25v5.25h-338.25V406.601z"/>
	<path fill="#B4B5B5" d="M114.492,380.429h338.25v5.25h-338.25V380.429z"/>
	<path fill="#B4B5B5" d="M114.492,431.507h338.25v5.25h-338.25V431.507z"/>
	<path fill="#B4B5B5" d="M114.492,443.96h338.25v5.25h-338.25V443.96z"/>
	<path fill="#B4B5B5" d="M114.492,456.41h338.25v5.25h-338.25V456.41z"/>
	<path fill="#B4B5B5" d="M114.492,468.863h338.25v5.25h-338.25V468.863z"/>
</g>
</svg>
