<?xml version="1.0" encoding="utf-8"?>
<!-- Generator: Adobe Illustrator 16.0.0, SVG Export Plug-In . SVG Version: 6.00 Build 0)  -->
<!DOCTYPE svg PUBLIC "-//W3C//DTD SVG 1.1//EN" "http://www.w3.org/Graphics/SVG/1.1/DTD/svg11.dtd">
<svg preserveAspectRatio="none"   version="1.1" id="图层_1" xmlns="http://www.w3.org/2000/svg" xmlns:xlink="http://www.w3.org/1999/xlink" x="0px" y="0px"
	 width="565.691px" height="226.327px" viewBox="-0.008 338.789 565.691 226.327"
	 enable-background="new -0.008 338.789 565.691 226.327" xml:space="preserve">
<g id="surface396">
	
		<linearGradient id="SVGID_1_" gradientUnits="userSpaceOnUse" x1="245.7246" y1="201.3066" x2="245.7246" y2="156.3057" gradientTransform="matrix(0.75 0 0 -0.75 308.9608 645.3263)">
		<stop  offset="0" style="stop-color:#292525"/>
		<stop  offset="0.01" style="stop-color:#868584"/>
		<stop  offset="0.02" style="stop-color:#383433"/>
		<stop  offset="0.64" style="stop-color:#373332"/>
		<stop  offset="0.99" style="stop-color:#363130"/>
		<stop  offset="1" style="stop-color:#252221"/>
	</linearGradient>
	<path fill="url(#SVGID_1_)" d="M460.628,494.347h65.25v33.75h-65.25V494.347z"/>
	
		<linearGradient id="SVGID_2_" gradientUnits="userSpaceOnUse" x1="786.2241" y1="192.3052" x2="202.2251" y2="192.3051" gradientTransform="matrix(0.75 0 0 -0.75 -148.2745 648.9767)">
		<stop  offset="0" style="stop-color:#3D3B3B"/>
		<stop  offset="0.01" style="stop-color:#908F8F"/>
		<stop  offset="0.02" style="stop-color:#514F4F"/>
		<stop  offset="0.64" style="stop-color:#504E4E"/>
		<stop  offset="0.99" style="stop-color:#4E4C4C"/>
		<stop  offset="1" style="stop-color:#383636"/>
	</linearGradient>
	<path fill="url(#SVGID_2_)" d="M3.395,498h438v13.5h-438V498z"/>
	
		<linearGradient id="SVGID_3_" gradientUnits="userSpaceOnUse" x1="287.2271" y1="201.3057" x2="287.2271" y2="156.3057" gradientTransform="matrix(0.75 0 0 -0.75 -128.9083 650.4318)">
		<stop  offset="0" style="stop-color:#292525"/>
		<stop  offset="0.01" style="stop-color:#868584"/>
		<stop  offset="0.02" style="stop-color:#383433"/>
		<stop  offset="0.64" style="stop-color:#373332"/>
		<stop  offset="0.99" style="stop-color:#363130"/>
		<stop  offset="1" style="stop-color:#252221"/>
	</linearGradient>
	<path fill="url(#SVGID_3_)" d="M22.762,499.453h127.5v33.75h-127.5V499.453z"/>
	<path fill="#427272" d="M441.027,359.644c0,0,42.207-10.918,83.109,0.359c0.141-0.359,33.105,29.676,41.547,69.313l-0.156,89.328
		c0,0-0.813,4.113-6.309,4.113l-32.691-0.363c0,0-5.133-26.531-33.82-27c0.07,0-27.086-0.117-32.387,27.504l-19.293,0.246V359.644z"
		/>
	<path fill="#5F9EA0" d="M441,499.289H3.75c0,0-3.75-0.934-3.75-3.93v-155.82l441-0.75V499.289z"/>
	<path fill="#5F9EA0" d="M443.14,363.285c0,0,38.172-12.23,79.793,0.191c-0.293-0.191,31.754,28.469,39.801,66.484l-0.344,15.074
		H443.14V363.285z"/>
	<path d="M460.574,368.691h57l28.5,48v15h-86.25L460.574,368.691z"/>
	<path fill="#E8F4ED" d="M463.222,371.21h52.5l26.25,44.25v14.25h-79.5L463.222,371.21z"/>
	<path fill="#427272" d="M443.23,444.937h119.25v-3H443.23V444.937z"/>
	<path fill="#427272" d="M533.226,490.296v32.25h-6.75c0,0-5.082-26.684-33.77-27.152c0.02,0.152-27.086-0.113-32.387,27.625
		l-2.844-0.473v-32.25H533.226z"/>
	<path fill="#5F9EA0" d="M563.265,445.171v70.5c0,0-1.246,3.355-6.516,3.355l-27.984-0.355c0,0-4.34-26.117-36.012-27.195
		c0.012,0.195-30.203,0.742-35.285,27.355l-14.203-0.16v-73.5H563.265z"/>
	<path fill="#427272" d="M441.007,518.824h20.25v3.75l-20.25,0.75V518.824z"/>
	<path fill="#427272" d="M525.441,518.843c0,0,1.098,3.492,1.098,3.918l34.152-0.168c0,0,3.93-0.621,4.926-3.691L525.441,518.843z"
		/>
	
		<linearGradient id="SVGID_4_" gradientUnits="userSpaceOnUse" x1="281.7266" y1="201.3076" x2="281.7266" y2="-6.0322" gradientTransform="matrix(0.75 0 0 -0.75 291.8807 514.4679)">
		<stop  offset="0" style="stop-color:#FFFFFF;stop-opacity:0.149"/>
		<stop  offset="1" style="stop-color:#FFFFFF;stop-opacity:0.0235"/>
	</linearGradient>
	<path fill="url(#SVGID_4_)" d="M522.3,363.488c0,0,31.277,25.742,40.422,66.473l0.078,85.027c0,0-0.094,2.637-3.594,3.543
		l-29.406,0.207c0,0-7.488-26.789-36.176-27.262c0.176,0.262-30.867-0.383-36.168,27.516l-13.906-0.254v-7.5L522.3,363.488z"/>
	<path fill="#FFFFFF" fill-opacity="0.8039" d="M517.121,373.695l24.75,41.25v14.25h-54.75L517.121,373.695z"/>
	<path stroke="#000000" stroke-linejoin="bevel" stroke-miterlimit="10" d="M545.742,437.773c0-2.25,1.504-3.75,3.359-3.75
		c1.891,0,3.363,1.531,3.363,3.418c0.027,1.832-1.504,3.418-3.363,3.418c-1.859-0.086-3.359-1.531-3.359-3.418V437.773z"/>
	
		<linearGradient id="SVGID_5_" gradientUnits="userSpaceOnUse" x1="202.2251" y1="197.646" x2="209.4224" y2="197.646" gradientTransform="matrix(0.75 0 0 -0.75 394.7333 585.6759)">
		<stop  offset="0" style="stop-color:#AEAEAE"/>
		<stop  offset="0.41" style="stop-color:#C9C9C9"/>
		<stop  offset="1" style="stop-color:#565656"/>
	</linearGradient>
	<path fill="url(#SVGID_5_)" d="M546.402,437.699c0-1.5,1.207-3,2.699-3c1.801,0,2.699,1.227,2.699,2.742
		c-0.148,1.758-1.207,2.742-2.699,2.742c-1.199-0.234-2.699-1.227-2.699-2.742V437.699z"/>
	
		<linearGradient id="SVGID_6_" gradientUnits="userSpaceOnUse" x1="202.2261" y1="190.936" x2="204.3047" y2="190.936" gradientTransform="matrix(0.75 0 0 -0.75 396.287 574.4825)">
		<stop  offset="0" style="stop-color:#767676"/>
		<stop  offset="0.36" style="stop-color:#EFEFEF"/>
		<stop  offset="0.7" style="stop-color:#C0C0C0"/>
		<stop  offset="0.91" style="stop-color:#727272"/>
	</linearGradient>
	<path fill="url(#SVGID_6_)" d="M547.957,423.503h1.5v15c0,0,0.305,0.512-0.473,0.512c-1.027,0.238-1.027-0.586-1.027-0.586V423.503
		z"/>
	<path d="M544.984,411.816h5.25c0,0,0.555,0.484,0.555,1.078l0.195,14.672c0,0.75-0.488,1.34-0.844,1.34l-5.156,0.16
		c-0.75,0-0.758-0.648-0.758-1.246l0.008-15.254c0,0,0.277-0.75,0.633-0.75H544.984z"/>
	<path fill="#606060" d="M544.992,411.804h1.5v17.25h-1.5c-0.75,0-0.762-0.637-0.762-1.23l0.012-15.27c0,0,0.277-0.75,0.633-0.75
		H544.992z"/>
	
		<linearGradient id="SVGID_7_" gradientUnits="userSpaceOnUse" x1="283.4312" y1="204.0396" x2="205.1867" y2="110.7914" gradientTransform="matrix(0.75 0 0 -0.75 -65.2643 649.6632)">
		<stop  offset="0" style="stop-color:#000000"/>
		<stop  offset="0.53" style="stop-color:#4F4F4F"/>
		<stop  offset="1" style="stop-color:#000000"/>
	</linearGradient>
	<path fill="url(#SVGID_7_)" d="M86.406,531.683c0-18,13.957-33,31.527-33c17.223,0,31.82,14.727,31.82,32.891
		c-0.348,18.109-14.246,32.887-31.82,32.887c-17.277,0.223-31.816-14.723-31.816-32.887L86.406,531.683z"/>
	<path fill="#888889" d="M97.254,531.628c0-12,9.199-21.75,20.781-21.75c11.469,0,20.969,9.711,20.969,21.695
		c0.25,12.055-9.391,21.695-20.969,21.695c-11.781,0.109-20.969-9.715-20.969-21.695L97.254,531.628z"/>
	
		<linearGradient id="SVGID_8_" gradientUnits="userSpaceOnUse" x1="256.6855" y1="198.2803" x2="199.5045" y2="150.2997" gradientTransform="matrix(0.75 0 0 -0.75 -53.004 662.3146)">
		<stop  offset="0" style="stop-color:#C8C8C8"/>
		<stop  offset="0.28" style="stop-color:#A9A9A9"/>
		<stop  offset="0.56" style="stop-color:#E2E2E2"/>
		<stop  offset="0.78" style="stop-color:#C9C9C9"/>
		<stop  offset="1" style="stop-color:#373737"/>
	</linearGradient>
	<path fill="url(#SVGID_8_)" d="M98.664,531.585c0-11.25,8.582-20.25,19.383-20.25c10.617,0,19.559,9.063,19.559,20.238
		c0.059,11.262-8.758,20.234-19.559,20.234c-11.133,0.027-19.559-9.059-19.559-20.234L98.664,531.585z"/>
	<path fill="#404040" d="M108.746,531.519c0-5.25,4.156-9.75,9.391-9.75c5.609,0,9.48,4.387,9.48,9.805
		c-0.121,5.195-4.246,9.805-9.48,9.805c-4.891-0.109-9.477-4.391-9.477-9.805L108.746,531.519z"/>
	
		<linearGradient id="SVGID_9_" gradientUnits="userSpaceOnUse" x1="220.7402" y1="200.2983" x2="201.2917" y2="183.9791" gradientTransform="matrix(0.75 0 0 -0.75 -40.0934 675.672)">
		<stop  offset="0" style="stop-color:#282828"/>
		<stop  offset="0.36" style="stop-color:#B7B7B7"/>
		<stop  offset="0.57" style="stop-color:#C7C7C7"/>
		<stop  offset="0.83" style="stop-color:#B4B4B4"/>
		<stop  offset="0.9" style="stop-color:#3A3A3A"/>
	</linearGradient>
	<path fill="url(#SVGID_9_)" d="M111.574,531.445c0-3.75,2.918-6.75,6.59-6.75c3.91,0,6.648,3.078,6.648,6.879
		c0.262,3.621-2.977,6.879-6.648,6.879c-3.59-0.258-6.648-3.082-6.648-6.879L111.574,531.445z"/>
	
		<linearGradient id="SVGID_10_" gradientUnits="userSpaceOnUse" x1="211.584" y1="201.6396" x2="202.6926" y2="191.0433" gradientTransform="matrix(0.75 0 0 -0.75 -44.1598 666.13)">
		<stop  offset="0" style="stop-color:#000000"/>
		<stop  offset="0.53" style="stop-color:#4F4F4F"/>
		<stop  offset="1" style="stop-color:#000000"/>
	</linearGradient>
	<path fill="url(#SVGID_10_)" d="M107.508,518.902c0-2.25,1.617-3.75,3.641-3.75c2.359,0,3.664,1.652,3.664,3.688
		c0.195,2.313-1.641,3.688-3.664,3.688c-2.141,0.125-3.664-1.652-3.664-3.688L107.508,518.902z"/>
	
		<linearGradient id="SVGID_11_" gradientUnits="userSpaceOnUse" x1="211.584" y1="201.6396" x2="202.6926" y2="191.0433" gradientTransform="matrix(0.75 0 0 -0.75 -38.1061 694.6466)">
		<stop  offset="0" style="stop-color:#000000"/>
		<stop  offset="0.53" style="stop-color:#4F4F4F"/>
		<stop  offset="1" style="stop-color:#000000"/>
	</linearGradient>
	<path fill="url(#SVGID_11_)" d="M113.563,547.417c0-2.25,1.617-3.75,3.641-3.75c2.359,0,3.664,1.652,3.664,3.688
		c0.195,2.313-1.641,3.688-3.664,3.688c-2.141,0.125-3.664-1.648-3.664-3.688L113.563,547.417z"/>
	
		<linearGradient id="SVGID_12_" gradientUnits="userSpaceOnUse" x1="211.584" y1="201.6396" x2="202.6926" y2="191.0433" gradientTransform="matrix(0.75 0 0 -0.75 -51.5577 682.7452)">
		<stop  offset="0" style="stop-color:#000000"/>
		<stop  offset="0.53" style="stop-color:#4F4F4F"/>
		<stop  offset="1" style="stop-color:#000000"/>
	</linearGradient>
	<path fill="url(#SVGID_12_)" d="M100.113,535.515c0-2.25,1.613-3.75,3.637-3.75c2.363,0,3.664,1.652,3.664,3.688
		c0.199,2.313-1.641,3.691-3.664,3.691c-2.137,0.121-3.664-1.652-3.664-3.691L100.113,535.515z"/>
	
		<linearGradient id="SVGID_13_" gradientUnits="userSpaceOnUse" x1="211.583" y1="201.6392" x2="202.6925" y2="191.0439" gradientTransform="matrix(0.75 0 0 -0.75 -26.1818 668.9874)">
		<stop  offset="0" style="stop-color:#000000"/>
		<stop  offset="0.53" style="stop-color:#4F4F4F"/>
		<stop  offset="1" style="stop-color:#000000"/>
	</linearGradient>
	<path fill="url(#SVGID_13_)" d="M125.488,521.757c0-2.25,1.613-3.75,3.641-3.75c2.359,0,3.664,1.652,3.664,3.688
		c0.195,2.313-1.641,3.688-3.664,3.688c-2.141,0.125-3.668-1.648-3.668-3.688L125.488,521.757z"/>
	
		<linearGradient id="SVGID_14_" gradientUnits="userSpaceOnUse" x1="211.5854" y1="201.6367" x2="202.6949" y2="191.0414" gradientTransform="matrix(0.75 0 0 -0.75 -23.9669 685.672)">
		<stop  offset="0" style="stop-color:#000000"/>
		<stop  offset="0.53" style="stop-color:#4F4F4F"/>
		<stop  offset="1" style="stop-color:#000000"/>
	</linearGradient>
	<path fill="url(#SVGID_14_)" d="M127.703,538.445c0-2.25,1.613-3.75,3.637-3.75c2.363,0,3.668,1.648,3.668,3.688
		c0.195,2.313-1.641,3.688-3.668,3.688c-2.137,0.125-3.664-1.652-3.664-3.688L127.703,538.445z"/>
	
		<linearGradient id="SVGID_15_" gradientUnits="userSpaceOnUse" x1="283.4297" y1="204.041" x2="205.1861" y2="110.794" gradientTransform="matrix(0.75 0 0 -0.75 -128.6715 650.3156)">
		<stop  offset="0" style="stop-color:#000000"/>
		<stop  offset="0.53" style="stop-color:#4F4F4F"/>
		<stop  offset="1" style="stop-color:#000000"/>
	</linearGradient>
	<path fill="url(#SVGID_15_)" d="M22.996,532.335c0-18,13.957-33,31.531-33c17.219,0,31.82,14.727,31.82,32.891
		c-0.352,18.109-14.246,32.887-31.82,32.887c-17.281,0.223-31.82-14.723-31.82-32.887L22.996,532.335z"/>
	<path fill="#888889" d="M33.848,532.281c0-12,9.199-21.75,20.777-21.75c11.473,0,20.969,9.711,20.969,21.695
		c0.254,12.055-9.387,21.695-20.969,21.695c-11.777,0.109-20.969-9.715-20.969-21.695L33.848,532.281z"/>
	
		<linearGradient id="SVGID_16_" gradientUnits="userSpaceOnUse" x1="256.6851" y1="198.2788" x2="199.5061" y2="150.3" gradientTransform="matrix(0.75 0 0 -0.75 -116.4113 662.9659)">
		<stop  offset="0" style="stop-color:#C8C8C8"/>
		<stop  offset="0.28" style="stop-color:#A9A9A9"/>
		<stop  offset="0.56" style="stop-color:#E2E2E2"/>
		<stop  offset="0.78" style="stop-color:#C9C9C9"/>
		<stop  offset="1" style="stop-color:#373737"/>
	</linearGradient>
	<path fill="url(#SVGID_16_)" d="M35.258,532.238c0-11.25,8.578-20.25,19.383-20.25c10.617,0,19.559,9.063,19.559,20.238
		c0.059,11.262-8.758,20.234-19.559,20.234c-11.133,0.027-19.559-9.059-19.559-20.234L35.258,532.238z"/>
	<path fill="#404040" d="M45.34,532.167c0-5.25,4.156-9.75,9.391-9.75c5.609,0,9.477,4.391,9.477,9.809
		c-0.117,5.191-4.242,9.805-9.477,9.805c-4.891-0.113-9.477-4.391-9.477-9.805L45.34,532.167z"/>
	
		<linearGradient id="SVGID_17_" gradientUnits="userSpaceOnUse" x1="220.7407" y1="200.2964" x2="201.2922" y2="183.9771" gradientTransform="matrix(0.75 0 0 -0.75 -103.5006 676.3243)">
		<stop  offset="0" style="stop-color:#282828"/>
		<stop  offset="0.36" style="stop-color:#B7B7B7"/>
		<stop  offset="0.57" style="stop-color:#C7C7C7"/>
		<stop  offset="0.83" style="stop-color:#B4B4B4"/>
		<stop  offset="0.9" style="stop-color:#3A3A3A"/>
	</linearGradient>
	<path fill="url(#SVGID_17_)" d="M48.168,532.097c0-3.75,2.918-6.75,6.59-6.75c3.91,0,6.648,3.078,6.648,6.879
		c0.262,3.621-2.977,6.879-6.648,6.879c-3.59-0.258-6.648-3.082-6.648-6.879L48.168,532.097z"/>
	
		<linearGradient id="SVGID_18_" gradientUnits="userSpaceOnUse" x1="211.584" y1="201.6396" x2="202.6917" y2="191.0423" gradientTransform="matrix(0.75 0 0 -0.75 -107.567 666.7823)">
		<stop  offset="0" style="stop-color:#000000"/>
		<stop  offset="0.53" style="stop-color:#4F4F4F"/>
		<stop  offset="1" style="stop-color:#000000"/>
	</linearGradient>
	<path fill="url(#SVGID_18_)" d="M44.102,519.554c0-2.25,1.617-3.75,3.641-3.75c2.359,0,3.664,1.652,3.664,3.688
		c0.195,2.313-1.641,3.688-3.664,3.688c-2.141,0.125-3.664-1.652-3.664-3.688L44.102,519.554z"/>
	
		<linearGradient id="SVGID_19_" gradientUnits="userSpaceOnUse" x1="211.5845" y1="201.6382" x2="202.694" y2="191.0429" gradientTransform="matrix(0.75 0 0 -0.75 -101.5133 695.299)">
		<stop  offset="0" style="stop-color:#000000"/>
		<stop  offset="0.53" style="stop-color:#4F4F4F"/>
		<stop  offset="1" style="stop-color:#000000"/>
	</linearGradient>
	<path fill="url(#SVGID_19_)" d="M50.156,548.07c0-2.25,1.617-3.75,3.641-3.75c2.359,0,3.664,1.652,3.664,3.688
		c0.195,2.313-1.641,3.688-3.664,3.688c-2.141,0.125-3.664-1.648-3.664-3.688L50.156,548.07z"/>
	
		<linearGradient id="SVGID_20_" gradientUnits="userSpaceOnUse" x1="211.583" y1="201.6401" x2="202.6908" y2="191.0428" gradientTransform="matrix(0.75 0 0 -0.75 -114.965 683.3966)">
		<stop  offset="0" style="stop-color:#000000"/>
		<stop  offset="0.53" style="stop-color:#4F4F4F"/>
		<stop  offset="1" style="stop-color:#000000"/>
	</linearGradient>
	<path fill="url(#SVGID_20_)" d="M36.703,536.167c0-2.25,1.617-3.75,3.641-3.75c2.359,0,3.664,1.652,3.664,3.688
		c0.195,2.313-1.641,3.688-3.664,3.688c-2.141,0.125-3.664-1.648-3.664-3.688L36.703,536.167z"/>
	
		<linearGradient id="SVGID_21_" gradientUnits="userSpaceOnUse" x1="211.5825" y1="201.6396" x2="202.692" y2="191.0444" gradientTransform="matrix(0.75 0 0 -0.75 -89.589 669.6388)">
		<stop  offset="0" style="stop-color:#000000"/>
		<stop  offset="0.53" style="stop-color:#4F4F4F"/>
		<stop  offset="1" style="stop-color:#000000"/>
	</linearGradient>
	<path fill="url(#SVGID_21_)" d="M62.078,522.41c0-2.25,1.617-3.75,3.641-3.75c2.359,0,3.664,1.652,3.664,3.688
		c0.195,2.313-1.641,3.688-3.664,3.688c-2.141,0.125-3.664-1.648-3.664-3.688L62.078,522.41z"/>
	
		<linearGradient id="SVGID_22_" gradientUnits="userSpaceOnUse" x1="211.585" y1="201.6392" x2="202.6936" y2="191.0428" gradientTransform="matrix(0.75 0 0 -0.75 -87.3746 686.3234)">
		<stop  offset="0" style="stop-color:#000000"/>
		<stop  offset="0.53" style="stop-color:#4F4F4F"/>
		<stop  offset="1" style="stop-color:#000000"/>
	</linearGradient>
	<path fill="url(#SVGID_22_)" d="M64.293,539.097c0-2.25,1.617-3.75,3.641-3.75c2.359,0,3.664,1.648,3.664,3.688
		c0.195,2.313-1.641,3.688-3.664,3.688c-2.141,0.125-3.664-1.652-3.664-3.688L64.293,539.097z"/>
	
		<linearGradient id="SVGID_23_" gradientUnits="userSpaceOnUse" x1="286.7241" y1="201.3057" x2="286.7241" y2="156.3057" gradientTransform="matrix(0.75 0 0 -0.75 145.0433 650.4318)">
		<stop  offset="0" style="stop-color:#292525"/>
		<stop  offset="0.01" style="stop-color:#868584"/>
		<stop  offset="0.02" style="stop-color:#383433"/>
		<stop  offset="0.64" style="stop-color:#373332"/>
		<stop  offset="0.99" style="stop-color:#363130"/>
		<stop  offset="1" style="stop-color:#252221"/>
	</linearGradient>
	<path fill="url(#SVGID_23_)" d="M296.71,499.453h126.75v33.75H296.71V499.453z"/>
	
		<linearGradient id="SVGID_24_" gradientUnits="userSpaceOnUse" x1="283.4307" y1="204.0405" x2="205.1853" y2="110.7914" gradientTransform="matrix(0.75 0 0 -0.75 208.077 649.6632)">
		<stop  offset="0" style="stop-color:#000000"/>
		<stop  offset="0.53" style="stop-color:#4F4F4F"/>
		<stop  offset="1" style="stop-color:#000000"/>
	</linearGradient>
	<path fill="url(#SVGID_24_)" d="M359.746,531.683c0-18,13.957-33,31.531-33c17.219,0,31.816,14.727,31.816,32.891
		c-0.348,18.109-14.246,32.887-31.816,32.887c-17.281,0.223-31.82-14.723-31.82-32.887L359.746,531.683z"/>
	<path fill="#888889" d="M370.597,531.628c0-12,9.195-21.75,20.777-21.75c11.473,0,20.969,9.711,20.969,21.695
		c0.254,12.055-9.387,21.695-20.969,21.695c-11.777,0.109-20.969-9.715-20.969-21.695L370.597,531.628z"/>
	
		<linearGradient id="SVGID_25_" gradientUnits="userSpaceOnUse" x1="256.6841" y1="198.2798" x2="199.5031" y2="150.2992" gradientTransform="matrix(0.75 0 0 -0.75 220.3378 662.3146)">
		<stop  offset="0" style="stop-color:#C8C8C8"/>
		<stop  offset="0.28" style="stop-color:#A9A9A9"/>
		<stop  offset="0.56" style="stop-color:#E2E2E2"/>
		<stop  offset="0.78" style="stop-color:#C9C9C9"/>
		<stop  offset="1" style="stop-color:#373737"/>
	</linearGradient>
	<path fill="url(#SVGID_25_)" d="M372.007,531.585c0-11.25,8.578-20.25,19.379-20.25c10.621,0,19.559,9.063,19.559,20.238
		c0.063,11.262-8.754,20.234-19.559,20.234c-11.129,0.027-19.559-9.059-19.559-20.234L372.007,531.585z"/>
	<path fill="#404040" d="M382.089,531.519c0-5.25,4.156-9.75,9.391-9.75c5.609,0,9.477,4.387,9.477,9.805
		c-0.117,5.195-4.242,9.805-9.477,9.805c-4.891-0.109-9.477-4.391-9.477-9.805L382.089,531.519z"/>
	
		<linearGradient id="SVGID_26_" gradientUnits="userSpaceOnUse" x1="220.7378" y1="200.2979" x2="201.2903" y2="183.9795" gradientTransform="matrix(0.75 0 0 -0.75 233.2479 675.672)">
		<stop  offset="0" style="stop-color:#282828"/>
		<stop  offset="0.36" style="stop-color:#B7B7B7"/>
		<stop  offset="0.57" style="stop-color:#C7C7C7"/>
		<stop  offset="0.83" style="stop-color:#B4B4B4"/>
		<stop  offset="0.9" style="stop-color:#3A3A3A"/>
	</linearGradient>
	<path fill="url(#SVGID_26_)" d="M384.917,531.445c0-3.75,2.914-6.75,6.586-6.75c3.914,0,6.648,3.078,6.648,6.879
		c0.266,3.621-2.977,6.879-6.648,6.879c-3.586-0.258-6.648-3.082-6.648-6.879L384.917,531.445z"/>
	
		<linearGradient id="SVGID_27_" gradientUnits="userSpaceOnUse" x1="211.585" y1="201.6392" x2="202.6927" y2="191.0418" gradientTransform="matrix(0.75 0 0 -0.75 229.1815 666.13)">
		<stop  offset="0" style="stop-color:#000000"/>
		<stop  offset="0.53" style="stop-color:#4F4F4F"/>
		<stop  offset="1" style="stop-color:#000000"/>
	</linearGradient>
	<path fill="url(#SVGID_27_)" d="M380.851,518.902c0-2.25,1.617-3.75,3.641-3.75c2.359,0,3.664,1.652,3.664,3.688
		c0.195,2.313-1.641,3.688-3.664,3.688c-2.141,0.125-3.664-1.652-3.664-3.688L380.851,518.902z"/>
	
		<linearGradient id="SVGID_28_" gradientUnits="userSpaceOnUse" x1="211.5815" y1="201.6401" x2="202.6902" y2="191.0438" gradientTransform="matrix(0.75 0 0 -0.75 235.2352 694.6466)">
		<stop  offset="0" style="stop-color:#000000"/>
		<stop  offset="0.53" style="stop-color:#4F4F4F"/>
		<stop  offset="1" style="stop-color:#000000"/>
	</linearGradient>
	<path fill="url(#SVGID_28_)" d="M386.902,547.417c0-2.25,1.617-3.75,3.641-3.75c2.359,0,3.664,1.652,3.664,3.688
		c0.195,2.313-1.641,3.688-3.664,3.688c-2.141,0.125-3.664-1.648-3.664-3.688L386.902,547.417z"/>
	
		<linearGradient id="SVGID_29_" gradientUnits="userSpaceOnUse" x1="211.5835" y1="201.6401" x2="202.6913" y2="191.0428" gradientTransform="matrix(0.75 0 0 -0.75 221.7841 682.7452)">
		<stop  offset="0" style="stop-color:#000000"/>
		<stop  offset="0.53" style="stop-color:#4F4F4F"/>
		<stop  offset="1" style="stop-color:#000000"/>
	</linearGradient>
	<path fill="url(#SVGID_29_)" d="M373.453,535.515c0-2.25,1.617-3.75,3.641-3.75c2.359,0,3.664,1.652,3.664,3.688
		c0.195,2.313-1.641,3.691-3.664,3.691c-2.141,0.121-3.664-1.652-3.664-3.691L373.453,535.515z"/>
	
		<linearGradient id="SVGID_30_" gradientUnits="userSpaceOnUse" x1="211.5825" y1="201.6411" x2="202.6894" y2="191.0427" gradientTransform="matrix(0.75 0 0 -0.75 247.1591 668.9874)">
		<stop  offset="0" style="stop-color:#000000"/>
		<stop  offset="0.53" style="stop-color:#4F4F4F"/>
		<stop  offset="1" style="stop-color:#000000"/>
	</linearGradient>
	<path fill="url(#SVGID_30_)" d="M398.828,521.757c0-2.25,1.617-3.75,3.641-3.75c2.359,0,3.664,1.652,3.664,3.688
		c0.195,2.313-1.641,3.688-3.664,3.688c-2.141,0.125-3.664-1.648-3.664-3.688L398.828,521.757z"/>
	
		<linearGradient id="SVGID_31_" gradientUnits="userSpaceOnUse" x1="211.5845" y1="201.6362" x2="202.6948" y2="191.042" gradientTransform="matrix(0.75 0 0 -0.75 249.3739 685.672)">
		<stop  offset="0" style="stop-color:#000000"/>
		<stop  offset="0.53" style="stop-color:#4F4F4F"/>
		<stop  offset="1" style="stop-color:#000000"/>
	</linearGradient>
	<path fill="url(#SVGID_31_)" d="M401.042,538.445c0-2.25,1.617-3.75,3.641-3.75c2.359,0,3.664,1.648,3.664,3.688
		c0.195,2.313-1.641,3.688-3.664,3.688c-2.141,0.125-3.664-1.652-3.664-3.688L401.042,538.445z"/>
	
		<linearGradient id="SVGID_32_" gradientUnits="userSpaceOnUse" x1="283.4307" y1="204.04" x2="205.1862" y2="110.7919" gradientTransform="matrix(0.75 0 0 -0.75 144.6698 649.6632)">
		<stop  offset="0" style="stop-color:#000000"/>
		<stop  offset="0.53" style="stop-color:#4F4F4F"/>
		<stop  offset="1" style="stop-color:#000000"/>
	</linearGradient>
	<path fill="url(#SVGID_32_)" d="M296.339,531.683c0-18,13.957-33,31.527-33c17.223,0,31.82,14.727,31.82,32.891
		c-0.348,18.109-14.246,32.887-31.82,32.887c-17.277,0.223-31.816-14.723-31.816-32.887L296.339,531.683z"/>
	<path fill="#888889" d="M307.187,531.628c0-12,9.199-21.75,20.781-21.75c11.469,0,20.969,9.711,20.969,21.695
		c0.25,12.055-9.391,21.695-20.969,21.695C316.187,553.378,307,543.554,307,531.574L307.187,531.628z"/>
	
		<linearGradient id="SVGID_33_" gradientUnits="userSpaceOnUse" x1="256.6841" y1="198.2803" x2="199.5031" y2="150.2997" gradientTransform="matrix(0.75 0 0 -0.75 156.9305 662.3146)">
		<stop  offset="0" style="stop-color:#C8C8C8"/>
		<stop  offset="0.28" style="stop-color:#A9A9A9"/>
		<stop  offset="0.56" style="stop-color:#E2E2E2"/>
		<stop  offset="0.78" style="stop-color:#C9C9C9"/>
		<stop  offset="1" style="stop-color:#373737"/>
	</linearGradient>
	<path fill="url(#SVGID_33_)" d="M308.597,531.585c0-11.25,8.582-20.25,19.383-20.25c10.617,0,19.559,9.063,19.559,20.238
		c0.059,11.262-8.758,20.234-19.559,20.234c-11.133,0.027-19.559-9.059-19.559-20.234L308.597,531.585z"/>
	<path fill="#404040" d="M318.679,531.519c0-5.25,4.16-9.75,9.391-9.75c5.609,0,9.48,4.387,9.48,9.805
		c-0.121,5.195-4.246,9.805-9.48,9.805c-4.891-0.109-9.477-4.391-9.477-9.805L318.679,531.519z"/>
	
		<linearGradient id="SVGID_34_" gradientUnits="userSpaceOnUse" x1="220.7378" y1="200.2974" x2="201.2903" y2="183.979" gradientTransform="matrix(0.75 0 0 -0.75 169.8407 675.672)">
		<stop  offset="0" style="stop-color:#282828"/>
		<stop  offset="0.36" style="stop-color:#B7B7B7"/>
		<stop  offset="0.57" style="stop-color:#C7C7C7"/>
		<stop  offset="0.83" style="stop-color:#B4B4B4"/>
		<stop  offset="0.9" style="stop-color:#3A3A3A"/>
	</linearGradient>
	<path fill="url(#SVGID_34_)" d="M321.507,531.445c0-3.75,2.918-6.75,6.59-6.75c3.91,0,6.648,3.078,6.648,6.879
		c0.262,3.621-2.977,6.879-6.648,6.879c-3.59-0.258-6.648-3.082-6.648-6.879L321.507,531.445z"/>
	
		<linearGradient id="SVGID_35_" gradientUnits="userSpaceOnUse" x1="211.584" y1="201.6396" x2="202.6917" y2="191.0423" gradientTransform="matrix(0.75 0 0 -0.75 165.7743 666.13)">
		<stop  offset="0" style="stop-color:#000000"/>
		<stop  offset="0.53" style="stop-color:#4F4F4F"/>
		<stop  offset="1" style="stop-color:#000000"/>
	</linearGradient>
	<path fill="url(#SVGID_35_)" d="M317.445,518.902c0-2.25,1.613-3.75,3.637-3.75c2.363,0,3.664,1.652,3.664,3.688
		c0.199,2.313-1.641,3.688-3.664,3.688c-2.137,0.125-3.664-1.652-3.664-3.688L317.445,518.902z"/>
	
		<linearGradient id="SVGID_36_" gradientUnits="userSpaceOnUse" x1="211.582" y1="201.6387" x2="202.6915" y2="191.0434" gradientTransform="matrix(0.75 0 0 -0.75 171.828 694.6466)">
		<stop  offset="0" style="stop-color:#000000"/>
		<stop  offset="0.53" style="stop-color:#4F4F4F"/>
		<stop  offset="1" style="stop-color:#000000"/>
	</linearGradient>
	<path fill="url(#SVGID_36_)" d="M323.496,547.417c0-2.25,1.617-3.75,3.641-3.75c2.359,0,3.664,1.652,3.664,3.688
		c0.195,2.313-1.641,3.688-3.664,3.688c-2.141,0.125-3.664-1.648-3.664-3.688L323.496,547.417z"/>
	
		<linearGradient id="SVGID_37_" gradientUnits="userSpaceOnUse" x1="211.583" y1="201.6406" x2="202.6916" y2="191.0443" gradientTransform="matrix(0.75 0 0 -0.75 158.3768 682.7452)">
		<stop  offset="0" style="stop-color:#000000"/>
		<stop  offset="0.53" style="stop-color:#4F4F4F"/>
		<stop  offset="1" style="stop-color:#000000"/>
	</linearGradient>
	<path fill="url(#SVGID_37_)" d="M310.046,535.515c0-2.25,1.613-3.75,3.637-3.75c2.363,0,3.664,1.652,3.664,3.688
		c0.199,2.313-1.637,3.691-3.664,3.691c-2.137,0.121-3.664-1.652-3.664-3.691L310.046,535.515z"/>
	
		<linearGradient id="SVGID_38_" gradientUnits="userSpaceOnUse" x1="211.5835" y1="201.6401" x2="202.6904" y2="191.0417" gradientTransform="matrix(0.75 0 0 -0.75 183.7518 668.9874)">
		<stop  offset="0" style="stop-color:#000000"/>
		<stop  offset="0.53" style="stop-color:#4F4F4F"/>
		<stop  offset="1" style="stop-color:#000000"/>
	</linearGradient>
	<path fill="url(#SVGID_38_)" d="M335.421,521.757c0-2.25,1.617-3.75,3.641-3.75c2.359,0,3.664,1.652,3.664,3.688
		c0.195,2.313-1.641,3.688-3.664,3.688c-2.141,0.125-3.664-1.648-3.664-3.688L335.421,521.757z"/>
	
		<linearGradient id="SVGID_39_" gradientUnits="userSpaceOnUse" x1="211.5854" y1="201.6357" x2="202.6949" y2="191.0405" gradientTransform="matrix(0.75 0 0 -0.75 185.9667 685.672)">
		<stop  offset="0" style="stop-color:#000000"/>
		<stop  offset="0.53" style="stop-color:#4F4F4F"/>
		<stop  offset="1" style="stop-color:#000000"/>
	</linearGradient>
	<path fill="url(#SVGID_39_)" d="M337.636,538.445c0-2.25,1.617-3.75,3.641-3.75c2.359,0,3.664,1.648,3.664,3.688
		c0.195,2.313-1.641,3.688-3.664,3.688c-2.141,0.125-3.664-1.652-3.664-3.688L337.636,538.445z"/>
	
		<linearGradient id="SVGID_40_" gradientUnits="userSpaceOnUse" x1="496.7231" y1="201.3057" x2="496.7231" y2="193.3057" gradientTransform="matrix(0.75 0 0 -0.75 -151.6749 644.1544)">
		<stop  offset="0" style="stop-color:#B5B5B5"/>
		<stop  offset="0.01" style="stop-color:#FFFFFF"/>
		<stop  offset="0.02" style="stop-color:#EBEBEB"/>
		<stop  offset="0.64" style="stop-color:#E7E7E7"/>
		<stop  offset="0.99" style="stop-color:#E2E2E2"/>
		<stop  offset="1" style="stop-color:#A8A8A8"/>
	</linearGradient>
	<path fill="url(#SVGID_40_)" d="M441.742,499.175h-438c0,0-3.75-0.824-3.75-3.816v-2.184h441.75V499.175z"/>
	
		<linearGradient id="SVGID_41_" gradientUnits="userSpaceOnUse" x1="496.2241" y1="201.3057" x2="496.2241" y2="189.3057" gradientTransform="matrix(0.75 0 0 -0.75 -151.6691 489.7677)">
		<stop  offset="0" style="stop-color:#B5B5B5"/>
		<stop  offset="0.01" style="stop-color:#FFFFFF"/>
		<stop  offset="0.02" style="stop-color:#EBEBEB"/>
		<stop  offset="0.64" style="stop-color:#E7E7E7"/>
		<stop  offset="0.99" style="stop-color:#E2E2E2"/>
		<stop  offset="1" style="stop-color:#A8A8A8"/>
	</linearGradient>
	<path fill="url(#SVGID_41_)" d="M441,347.789H3.75c0,0-3.75-0.273-3.75-0.438v-8.563h441V347.789z"/>
	
		<linearGradient id="SVGID_42_" gradientUnits="userSpaceOnUse" x1="487.2739" y1="201.3047" x2="487.2739" y2="193.8203" gradientTransform="matrix(0.75 0 0 -0.75 -144.7999 553.4308)">
		<stop  offset="0" style="stop-color:#416E70"/>
		<stop  offset="0.01" style="stop-color:#93B7B8"/>
		<stop  offset="0.02" style="stop-color:#579193"/>
		<stop  offset="0.64" style="stop-color:#558F91"/>
		<stop  offset="0.99" style="stop-color:#538B8D"/>
		<stop  offset="1" style="stop-color:#3C6668"/>
	</linearGradient>
	<path fill="url(#SVGID_42_)" d="M8.371,402.453h424.5c0.75,0,1.57,0.371,1.57,0.828l-0.07,3.672c0,0.75-0.742,1.113-1.742,1.113
		L8.371,407.703c-0.75,0-1.5-0.012-1.5-0.469v-4.031c0-0.75,0.809-0.75,1.809-0.75H8.371z"/>
	
		<linearGradient id="SVGID_43_" gradientUnits="userSpaceOnUse" x1="487.2739" y1="201.3057" x2="487.2739" y2="193.8213" gradientTransform="matrix(0.75 0 0 -0.75 -144.7999 567.2404)">
		<stop  offset="0" style="stop-color:#416E70"/>
		<stop  offset="0.01" style="stop-color:#93B7B8"/>
		<stop  offset="0.02" style="stop-color:#579193"/>
		<stop  offset="0.64" style="stop-color:#558F91"/>
		<stop  offset="0.99" style="stop-color:#538B8D"/>
		<stop  offset="1" style="stop-color:#3C6668"/>
	</linearGradient>
	<path fill="url(#SVGID_43_)" d="M8.371,416.261h424.5c0.75,0,1.57,0.371,1.57,0.828l-0.07,3.672c0,0.75-0.742,1.113-1.742,1.113
		L8.371,421.511c-0.75,0-1.5-0.008-1.5-0.465v-4.035c0-0.75,0.809-0.75,1.809-0.75H8.371z"/>
	
		<linearGradient id="SVGID_44_" gradientUnits="userSpaceOnUse" x1="487.2739" y1="201.3018" x2="487.2739" y2="193.8174" gradientTransform="matrix(0.75 0 0 -0.75 -144.7999 581.047)">
		<stop  offset="0" style="stop-color:#416E70"/>
		<stop  offset="0.01" style="stop-color:#93B7B8"/>
		<stop  offset="0.02" style="stop-color:#579193"/>
		<stop  offset="0.64" style="stop-color:#558F91"/>
		<stop  offset="0.99" style="stop-color:#538B8D"/>
		<stop  offset="1" style="stop-color:#3C6668"/>
	</linearGradient>
	<path fill="url(#SVGID_44_)" d="M8.371,430.07h424.5c0.75,0,1.57,0.367,1.57,0.824l-0.07,3.676c0,0.75-0.742,1.113-1.742,1.113
		L8.371,435.32c-0.75,0-1.5-0.012-1.5-0.469v-4.031c0-0.75,0.809-0.75,1.809-0.75H8.371z"/>
	
		<linearGradient id="SVGID_45_" gradientUnits="userSpaceOnUse" x1="213.2251" y1="104.3037" x2="202.2251" y2="104.3037" gradientTransform="matrix(0.75 0 0 -0.75 -151.6691 498.3282)">
		<stop  offset="0" style="stop-color:#B5B5B5"/>
		<stop  offset="0.01" style="stop-color:#FFFFFF"/>
		<stop  offset="0.02" style="stop-color:#EBEBEB"/>
		<stop  offset="0.64" style="stop-color:#E7E7E7"/>
		<stop  offset="0.99" style="stop-color:#E2E2E2"/>
		<stop  offset="1" style="stop-color:#A8A8A8"/>
	</linearGradient>
	<path fill="url(#SVGID_45_)" d="M0,347.351h8.25v145.5H0V347.351z"/>
	
		<linearGradient id="SVGID_46_" gradientUnits="userSpaceOnUse" x1="213.2217" y1="104.3027" x2="202.2217" y2="104.3027" gradientTransform="matrix(0.75 0 0 -0.75 281.4227 498.4523)">
		<stop  offset="0" style="stop-color:#B5B5B5"/>
		<stop  offset="0.01" style="stop-color:#FFFFFF"/>
		<stop  offset="0.02" style="stop-color:#EBEBEB"/>
		<stop  offset="0.64" style="stop-color:#E7E7E7"/>
		<stop  offset="0.99" style="stop-color:#E2E2E2"/>
		<stop  offset="1" style="stop-color:#A8A8A8"/>
	</linearGradient>
	<path fill="url(#SVGID_46_)" d="M433.089,347.476h8.25v145.5h-8.25V347.476z"/>
	
		<linearGradient id="SVGID_47_" gradientUnits="userSpaceOnUse" x1="283.4312" y1="204.0396" x2="205.1866" y2="110.7913" gradientTransform="matrix(0.75 0 0 -0.75 310.3612 649.6613)">
		<stop  offset="0" style="stop-color:#000000"/>
		<stop  offset="0.53" style="stop-color:#4F4F4F"/>
		<stop  offset="1" style="stop-color:#000000"/>
	</linearGradient>
	<path fill="url(#SVGID_47_)" d="M462.031,531.683c0-18,13.957-33,31.531-33c17.219,0,31.816,14.723,31.816,32.887
		c-0.348,18.113-14.246,32.891-31.816,32.891c-17.281,0.223-31.82-14.727-31.82-32.891L462.031,531.683z"/>
	<path fill="#888889" d="M472.882,531.625c0-12,9.195-21.75,20.777-21.75c11.473,0,20.969,9.715,20.969,21.695
		c0.254,12.055-9.387,21.695-20.969,21.695c-11.777,0.109-20.969-9.711-20.969-21.695L472.882,531.625z"/>
	
		<linearGradient id="SVGID_48_" gradientUnits="userSpaceOnUse" x1="256.6851" y1="198.2773" x2="199.506" y2="150.2985" gradientTransform="matrix(0.75 0 0 -0.75 322.6219 662.3116)">
		<stop  offset="0" style="stop-color:#C8C8C8"/>
		<stop  offset="0.28" style="stop-color:#A9A9A9"/>
		<stop  offset="0.56" style="stop-color:#E2E2E2"/>
		<stop  offset="0.78" style="stop-color:#C9C9C9"/>
		<stop  offset="1" style="stop-color:#373737"/>
	</linearGradient>
	<path fill="url(#SVGID_48_)" d="M474.292,531.585c0-11.25,8.578-20.25,19.379-20.25c10.621,0,19.559,9.059,19.559,20.234
		c0.063,11.266-8.758,20.238-19.559,20.238c-11.129,0.027-19.559-9.063-19.559-20.238L474.292,531.585z"/>
	<path fill="#404040" d="M484.371,531.515c0-5.25,4.16-9.75,9.395-9.75c5.605,0,9.477,4.391,9.477,9.805
		c-0.121,5.195-4.242,9.809-9.477,9.809c-4.895-0.113-9.48-4.391-9.48-9.809L484.371,531.515z"/>
	
		<linearGradient id="SVGID_49_" gradientUnits="userSpaceOnUse" x1="220.7373" y1="200.2988" x2="201.2887" y2="183.9795" gradientTransform="matrix(0.75 0 0 -0.75 335.5321 675.67)">
		<stop  offset="0" style="stop-color:#282828"/>
		<stop  offset="0.36" style="stop-color:#B7B7B7"/>
		<stop  offset="0.57" style="stop-color:#C7C7C7"/>
		<stop  offset="0.83" style="stop-color:#B4B4B4"/>
		<stop  offset="0.9" style="stop-color:#3A3A3A"/>
	</linearGradient>
	<path fill="url(#SVGID_49_)" d="M487.203,531.441c0-3.75,2.914-6.75,6.586-6.75c3.914,0,6.648,3.082,6.648,6.879
		c0.266,3.621-2.977,6.879-6.648,6.879c-3.586-0.258-6.648-3.078-6.648-6.879L487.203,531.441z"/>
	
		<linearGradient id="SVGID_50_" gradientUnits="userSpaceOnUse" x1="211.5835" y1="201.6387" x2="202.693" y2="191.0434" gradientTransform="matrix(0.75 0 0 -0.75 331.4667 666.1281)">
		<stop  offset="0" style="stop-color:#000000"/>
		<stop  offset="0.53" style="stop-color:#4F4F4F"/>
		<stop  offset="1" style="stop-color:#000000"/>
	</linearGradient>
	<path fill="url(#SVGID_50_)" d="M483.136,518.898c0-2.25,1.613-3.75,3.637-3.75c2.363,0,3.668,1.652,3.668,3.688
		c0.195,2.313-1.641,3.691-3.668,3.691c-2.137,0.121-3.664-1.652-3.664-3.691L483.136,518.898z"/>
	
		<linearGradient id="SVGID_51_" gradientUnits="userSpaceOnUse" x1="211.584" y1="201.6382" x2="202.6926" y2="191.0418" gradientTransform="matrix(0.75 0 0 -0.75 337.5194 694.6447)">
		<stop  offset="0" style="stop-color:#000000"/>
		<stop  offset="0.53" style="stop-color:#4F4F4F"/>
		<stop  offset="1" style="stop-color:#000000"/>
	</linearGradient>
	<path fill="url(#SVGID_51_)" d="M489.187,547.417c0-2.25,1.617-3.75,3.641-3.75c2.359,0,3.664,1.652,3.664,3.688
		c0.195,2.313-1.641,3.688-3.664,3.688c-2.141,0.125-3.664-1.652-3.664-3.688L489.187,547.417z"/>
	
		<linearGradient id="SVGID_52_" gradientUnits="userSpaceOnUse" x1="211.5854" y1="201.6382" x2="202.6941" y2="191.0418" gradientTransform="matrix(0.75 0 0 -0.75 324.0682 682.7433)">
		<stop  offset="0" style="stop-color:#000000"/>
		<stop  offset="0.53" style="stop-color:#4F4F4F"/>
		<stop  offset="1" style="stop-color:#000000"/>
	</linearGradient>
	<path fill="url(#SVGID_52_)" d="M475.738,535.515c0-2.25,1.617-3.75,3.641-3.75c2.359,0,3.664,1.652,3.664,3.688
		c0.195,2.313-1.641,3.688-3.664,3.688c-2.141,0.125-3.664-1.652-3.664-3.688L475.738,535.515z"/>
	
		<linearGradient id="SVGID_53_" gradientUnits="userSpaceOnUse" x1="211.5854" y1="201.6387" x2="202.6932" y2="191.0413" gradientTransform="matrix(0.75 0 0 -0.75 349.4442 668.9845)">
		<stop  offset="0" style="stop-color:#000000"/>
		<stop  offset="0.53" style="stop-color:#4F4F4F"/>
		<stop  offset="1" style="stop-color:#000000"/>
	</linearGradient>
	<path fill="url(#SVGID_53_)" d="M501.113,521.757c0-2.25,1.617-3.75,3.641-3.75c2.359,0,3.664,1.652,3.664,3.688
		c0.195,2.313-1.641,3.688-3.664,3.688c-2.141,0.125-3.664-1.652-3.664-3.688L501.113,521.757z"/>
	
		<linearGradient id="SVGID_54_" gradientUnits="userSpaceOnUse" x1="211.583" y1="201.6392" x2="202.6925" y2="191.0439" gradientTransform="matrix(0.75 0 0 -0.75 351.6591 685.67)">
		<stop  offset="0" style="stop-color:#000000"/>
		<stop  offset="0.53" style="stop-color:#4F4F4F"/>
		<stop  offset="1" style="stop-color:#000000"/>
	</linearGradient>
	<path fill="url(#SVGID_54_)" d="M503.328,538.441c0-2.25,1.617-3.75,3.641-3.75c2.359,0,3.664,1.652,3.664,3.688
		c0.195,2.313-1.641,3.688-3.664,3.688c-2.141,0.125-3.664-1.648-3.664-3.688L503.328,538.441z"/>
</g>
</svg>
