<?xml version="1.0" encoding="utf-8"?>
<!-- Generator: Adobe Illustrator 16.0.0, SVG Export Plug-In . SVG Version: 6.00 Build 0)  -->
<!DOCTYPE svg PUBLIC "-//W3C//DTD SVG 1.1//EN" "http://www.w3.org/Graphics/SVG/1.1/DTD/svg11.dtd">
<svg preserveAspectRatio="none"   version="1.1" id="图层_1" xmlns="http://www.w3.org/2000/svg" xmlns:xlink="http://www.w3.org/1999/xlink" x="0px" y="0px"
	 width="561.123px" height="397.456px" viewBox="-0.039 169.336 561.123 397.456"
	 enable-background="new -0.039 169.336 561.123 397.456" xml:space="preserve">
<g id="surface641">
	<path fill="#A5A293" d="M300.992,169.336c0,0,15.238,1.453,26.941,11.66c6.809,4.84,199.332,5.273,204.68,0
		c10.629-9.41,26.992-11.66,26.992-11.66c0.887,0,1.453,0.57,1.453,1.27c0.184,0.23-2.984,11.574-12.5,24.301
		c-3.066,7.43-3.621,342.851,0.719,346.316c8.965,7.613,11.781,24.301,11.781,24.301c0.184,0.563-0.652,1.266-1.453,1.266
		c0.137,0.047-13.891-2.398-26.992-11.66c-4.371-2.543-200.648-1.961-204.68,0c-14.191,7.957-26.988,11.66-26.988,11.66
		c-0.703,0.047-1.453-0.566-1.453-1.266c0-0.188,1.199-12.184,12.496-24.301c4.004-3.637,4.785-340.625,0-346.316
		c-13.246-12.07-12.496-24.301-12.496-24.301c0-0.52,0.648-1.27,1.453-1.27H300.992z"/>
	<path fill="#D0C5AC" d="M324.128,191.059c0,0,22.469-4.961,46-0.086c23.75,4.586,47.723-3.336,65.043,0
		c17.207,3.086,33.203-3.848,57.914,0c24.543,3.836,44.602,0,44.602,0c0.191,0.086,5.527,11.535,0,32.047
		c-5.809,20.539,5.527,44.613,0,68.714c-5.809,23.824,6.117,40.512,0,64.609c-6.559,24.465,6.703,37.949,0,55.383
		c-7.309,17.082,6.703,43.586,0,66.664c-7.309,23.168,0,66.285,0,66.285c0.191-0.367-31.66,5.777-55.781,0
		c-24.277-5.617-54.656,0-54.656,0c-0.371-0.367-31.824,5.777-58.887,0c-26.984-5.617-44.121,0-44.121,0
		c-0.113-0.367-8.824-29.879,0-50.391c8.887-20.477-5.883-52.305,0-75.379c5.887-23.098-4.121-32.484,0-50.844
		c4.387-18.754-7.059-51.715,0-64.535c7.387-12.719-4.707-51.277,0-67.175c4.387-16.043,0-45.379,0-45.379L324.128,191.059z"/>
	<path fill="#FFFFFF" fill-opacity="0.1373" d="M445.968,191.02c0,0,37.84-3.207,46.758-0.277c5.742,1.777,22.43,1.563,28.422,2.297
		c4.32,0.23,7.59-3.52,10.438,0c2.883,3.98,5.145,0,5.145,0c-0.012,0.23,4.48,11.41,0,31.918c-4.512,20.063,0.637,44.426,0,68.425
		c-0.762,23.637,0.703,40.344,0,64.344c-0.762,23.793,0.773,37.789,0,55.148c-0.762,17.395,3.414,43.59,0,66.387
		c-3.762,26.008,0,66.008,0,66.008c-0.012-0.25-3.652,5.754-6.434,0c-2.578-5.5-6.301,0-6.301,0
		c-0.027-0.25-6.715,1.66-13.996,2.148c-7.031,0.602-8.262-19.895-7.246-40.32c0.965-20.578-2.348-35.801-1.672-58.781
		c0.387-23.297-6.605-43.633-6.129-62.18c0.516-18.867-5.832-57.676-5.016-70.441c0.281-6.926,1.074-43.82-16.164-67.039
		c-12.055-16.387-0.98-38.719-11.145-41.289c-17.41-4.348-16.66-16.52-16.66-16.52V191.02z"/>
	<path fill="#B5A169" fill-opacity="0.5294" d="M323.746,191.047c0,0-11.316-4.98,12.367-0.109
		c8.633,1.609,63.637,62.203,72.453,127.519c5.93,41.34,37.965,118.969,41.105,144.523c6.074,51.316,44.918,84.352,32.902,81.797
		c-24.578-5.73-55.016,0-55.016,0c-0.313,0.27-32.031,5.777-59.266,0c-27.297-5.73-44.41,0-44.41,0
		c-0.137,0.27-8.883-29.879,0-50.391c8.863-20.59-5.922-52.305,0-75.379c5.863-23.211-4.145-32.484,0-50.945
		c4.363-18.766-7.105-51.613,0-64.434c7.363-12.832-4.738-51.277,0-67.175c4.363-16.156,0-45.379,0-45.379L323.746,191.047z"/>
	<path fill="#A4997B" fill-opacity="0.8275" d="M342.496,325.156c11.25,15,20.52,26.27,29.285,91.582
		c5.965,41.168,16.367,45.371,19.508,70.926c5.957,51.242,36.34,56.781,36.34,56.781c0.367-0.289-32.102,5.777-59.34,0
		c-27.293-5.539-44.41,0-44.41,0c-0.133-0.289-8.879-29.879,0-50.391c8.867-20.398-5.922-52.305,0-75.379
		c5.867-23.02-4.145-32.484,0-50.945c4.367-18.574-7.105-51.613,0-64.434c7.367-12.641,4.406,4.734,18.367,22.113L342.496,325.156z"
		/>
	<path fill="#D1CDBD" d="M533.488,187.699c0,0,12.727-11.426,19.984-14.34c0.266,0.09-3.902,13.117-8.918,19.918
		c0.184-0.328,1.117-4.859,1.117-9.23c-0.184-4.598-13.934,3.402-12.262,3.41L533.488,187.699z"/>
	<path fill="#D1CDBD" d="M325.808,187.699c0,0-12.727-11.426-19.984-14.34c-0.266,0.09,3.898,13.117,8.914,19.918
		c-0.18-0.328-1.113-4.859-1.113-9.23c0.184-4.598,13.934,3.402,12.262,3.41L325.808,187.699z"/>
	<path fill="#D1CDBD" d="M327.898,547.8c0,0-12.727,11.43-19.984,14.344c-0.266-0.094,3.898-13.117,8.914-19.918
		c-0.18,0.324-1.113,4.855-1.113,9.23c0.184,4.594,13.934-3.402,12.262-3.41L327.898,547.8z"/>
	<path fill="#D1CDBD" d="M531.398,545.98c0,0,12.727,11.426,19.984,14.34c0.266-0.09-3.902-13.117-8.918-19.918
		c0.184,0.328,1.117,4.859,1.117,9.23c-0.184,4.598-13.934-3.398-12.262-3.406L531.398,545.98z"/>
	<path fill="#DAA84E" fill-opacity="0.6078" d="M300.992,169.336c0,0,15.238,1.453,26.941,11.66c6.809,4.84,199.332,5.273,204.68,0
		c10.629-9.41,26.992-11.66,26.992-11.66c0.887,0,1.453,0.57,1.453,1.27c0.184,0.23-2.984,11.574-12.5,24.301
		c-3.066,7.43-3.621,342.851,0.719,346.316c8.965,7.613,11.781,24.301,11.781,24.301c0.184,0.563-0.652,1.266-1.453,1.266
		c0.137,0.047-13.891-2.398-26.992-11.66c-4.371-2.543-200.648-1.961-204.68,0c-14.191,7.957-26.988,11.66-26.988,11.66
		c-0.703,0.047-1.453-0.566-1.453-1.266c0-0.188,1.199-12.184,12.496-24.301c4.004-3.637,4.785-340.625,0-346.316
		c-13.246-12.07-12.496-24.301-12.496-24.301c0-0.52,0.648-1.27,1.453-1.27H300.992z"/>
	<path fill="#FFFFFF" fill-opacity="0.1255" d="M459.117,185.828h78l6,13.5v336.75c0,0-1.23,22.883-6.227,13.867
		c-1.273-1.867-32.863,0.125-34.398,2.031c-5.125,8.102-6.023-13.539-6.023-13.539l-69.602-351.859L459.117,185.828z"/>
	<path fill="#A5A293" d="M151.359,169.336c0,0,15.238,1.453,26.941,11.66c6.809,4.84,199.335,5.273,204.683,0
		c10.625-9.41,26.988-11.66,26.988-11.66c0.887,0,1.453,0.57,1.453,1.27c0.184,0.23-2.984,11.574-12.496,24.301
		c-3.07,7.43-3.625,342.851,0.715,346.316c8.965,7.613,11.781,24.301,11.781,24.301c0.184,0.563-0.652,1.266-1.453,1.266
		c0.137,0.047-13.891-2.398-26.988-11.66c-4.375-2.543-200.652-1.961-204.683,0c-14.191,7.957-26.988,11.66-26.988,11.66
		c-0.703,0.047-1.453-0.566-1.453-1.266c0-0.188,1.199-12.184,12.496-24.301c4.004-3.637,4.785-340.625,0-346.316
		c-13.246-12.07-12.496-24.301-12.496-24.301c0-0.52,0.648-1.27,1.453-1.27H151.359z"/>
	<path fill="#D0C5AC" d="M174.5,191.059c0,0,22.465-4.961,45.996-0.086c23.754,4.586,47.723-3.336,65.042,0
		c17.211,3.086,33.207-3.848,57.914,0c24.547,3.836,44.602,0,44.602,0c0.195,0.086,5.531,11.535,0,32.047
		c-5.805,20.539,5.531,44.613,0,68.714c-5.805,23.824,6.117,40.512,0,64.609c-6.555,24.465,6.707,37.949,0,55.383
		c-7.305,17.082,6.707,43.586,0,66.664c-7.305,23.168,0,66.285,0,66.285c0.195-0.367-31.66,5.777-55.777,0
		c-24.277-5.617-54.66,0-54.66,0c-0.367-0.367-31.824,5.777-58.883,0c-26.984-5.617-44.125,0-44.125,0
		c-0.109-0.367-8.824-29.879,0-50.391c8.891-20.477-5.883-52.305,0-75.379c5.891-23.098-4.117-32.484,0-50.844
		c4.391-18.754-7.059-51.715,0-64.535c7.391-12.719-4.707-51.277,0-67.175c4.391-16.043,0-45.379,0-45.379L174.5,191.059z"/>
	<path fill="#FFFFFF" fill-opacity="0.1373" d="M296.335,191.02c0,0,37.84-3.207,46.758-0.277
		c5.742,1.777,22.434,1.563,28.422,2.297c4.32,0.23,7.59-3.52,10.438,0c2.883,3.98,5.145,0,5.145,0c-0.012,0.23,4.48,11.41,0,31.918
		c-4.512,20.063,0.637,44.426,0,68.425c-0.762,23.637,0.703,40.344,0,64.344c-0.762,23.793,0.773,37.789,0,55.148
		c-0.762,17.395,3.414,43.59,0,66.387c-3.762,26.008,0,66.008,0,66.008c-0.012-0.25-3.652,5.754-6.434,0c-2.578-5.5-6.301,0-6.301,0
		c-0.027-0.25-6.715,1.66-13.996,2.148c-7.031,0.602-8.262-19.895-7.242-40.32c0.961-20.578-2.352-35.801-1.672-58.781
		c0.383-23.297-6.605-43.633-6.133-62.18c0.516-18.867-5.828-57.676-5.016-70.441c0.281-6.926,1.074-43.82-16.16-67.039
		c-12.059-16.387-0.98-38.719-11.148-41.289c-17.41-4.348-16.66-16.52-16.66-16.52V191.02z"/>
	<path fill="#B5A169" fill-opacity="0.5294" d="M174.113,191.047c0,0-11.316-4.98,12.371-0.109
		c8.629,1.609,63.637,62.203,72.453,127.519c5.926,41.34,37.96,118.969,41.101,144.523c6.074,51.316,44.918,84.352,32.902,81.797
		c-24.578-5.73-55.015,0-55.015,0c-0.313,0.27-32.027,5.777-59.266,0c-27.297-5.73-44.41,0-44.41,0
		c-0.137,0.27-8.883-29.879,0-50.391c8.863-20.59-5.922-52.305,0-75.379c5.863-23.211-4.145-32.484,0-50.945
		c4.363-18.766-7.105-51.613,0-64.434c7.363-12.832-4.738-51.277,0-67.175c4.363-16.156,0-45.379,0-45.379L174.113,191.047z"/>
	<path fill="#A4997B" fill-opacity="0.8275" d="M192.863,325.156c11.25,15,20.52,26.27,29.289,91.582
		c5.961,41.168,16.363,45.371,19.504,70.926c5.957,51.242,36.34,56.781,36.34,56.781c0.367-0.289-32.102,5.777-59.34,0
		c-27.293-5.539-44.406,0-44.406,0c-0.137-0.289-8.883-29.879,0-50.391c8.863-20.398-5.922-52.305,0-75.379
		c5.863-23.02-4.145-32.484,0-50.945c4.363-18.574-7.105-51.613,0-64.434c7.363-12.641,4.402,4.734,18.363,22.113L192.863,325.156z"
		/>
	<path fill="#D1CDBD" d="M383.855,187.699c0,0,12.727-11.426,19.984-14.34c0.266,0.09-3.902,13.117-8.918,19.918
		c0.184-0.328,1.117-4.859,1.117-9.23c-0.184-4.598-13.934,3.402-12.262,3.41L383.855,187.699z"/>
	<path fill="#D1CDBD" d="M176.176,187.699c0,0-12.727-11.426-19.984-14.34c-0.266,0.09,3.902,13.117,8.918,19.918
		c-0.184-0.328-1.117-4.859-1.117-9.23c0.184-4.598,13.934,3.402,12.262,3.41L176.176,187.699z"/>
	<path fill="#D1CDBD" d="M178.266,547.8c0,0-12.727,11.43-19.984,14.344c-0.266-0.094,3.902-13.117,8.918-19.918
		c-0.184,0.324-1.117,4.855-1.117,9.23c0.184,4.594,13.934-3.402,12.262-3.41L178.266,547.8z"/>
	<path fill="#D1CDBD" d="M381.765,545.98c0,0,12.727,11.426,19.984,14.34c0.266-0.09-3.902-13.117-8.918-19.918
		c0.184,0.328,1.117,4.859,1.117,9.23c-0.184,4.598-13.934-3.398-12.262-3.406L381.765,545.98z"/>
	<path fill="#DAA84E" fill-opacity="0.6078" d="M151.359,169.336c0,0,15.238,1.453,26.941,11.66c6.809,4.84,199.335,5.273,204.683,0
		c10.625-9.41,26.988-11.66,26.988-11.66c0.887,0,1.453,0.57,1.453,1.27c0.184,0.23-2.984,11.574-12.496,24.301
		c-3.07,7.43-3.625,342.851,0.715,346.316c8.965,7.613,11.781,24.301,11.781,24.301c0.184,0.563-0.652,1.266-1.453,1.266
		c0.137,0.047-13.891-2.398-26.988-11.66c-4.375-2.543-200.652-1.961-204.683,0c-14.191,7.957-26.988,11.66-26.988,11.66
		c-0.703,0.047-1.453-0.566-1.453-1.266c0-0.188,1.199-12.184,12.496-24.301c4.004-3.637,4.785-340.625,0-346.316
		c-13.246-12.07-12.496-24.301-12.496-24.301c0-0.52,0.648-1.27,1.453-1.27H151.359z"/>
	<path fill="#FFFFFF" fill-opacity="0.1255" d="M309.488,185.828h78l6,13.5v336.75c0,0-1.234,22.883-6.23,13.867
		c-1.27-1.867-32.863,0.125-34.398,2.031c-5.121,8.102-6.023-13.539-6.023-13.539l-69.597-351.859L309.488,185.828z"/>
	<path fill="#A5A293" d="M1.469,169.336c0,0,15.242,1.453,26.945,11.66c6.805,4.84,199.332,5.273,204.68,0
		c10.625-9.41,26.988-11.66,26.988-11.66c0.887,0,1.453,0.57,1.453,1.27c0.184,0.23-2.98,11.574-12.496,24.301
		c-3.07,7.43-3.621,342.851,0.719,346.316c8.961,7.613,11.777,24.301,11.777,24.301c0.184,0.563-0.648,1.266-1.453,1.266
		c0.137,0.047-13.891-2.398-26.988-11.66c-4.375-2.543-200.652-1.961-204.68,0c-14.195,7.957-26.992,11.66-26.992,11.66
		c-0.703,0.047-1.453-0.566-1.453-1.266c0-0.188,1.203-12.184,12.5-24.301c4-3.637,4.785-340.625,0-346.316
		c-13.25-12.07-12.5-24.301-12.5-24.301c0-0.52,0.652-1.27,1.453-1.27H1.469z"/>
	<path fill="#D0C5AC" d="M24.609,191.059c0,0,22.469-4.961,46-0.086c23.75,4.586,47.723-3.336,65.043,0
		c17.207,3.086,33.203-3.848,57.91,0c24.547,3.836,44.602,0,44.602,0c0.195,0.086,5.531,11.535,0,32.047
		c-5.805,20.539,5.531,44.613,0,68.714c-5.805,23.824,6.117,40.512,0,64.609c-6.555,24.465,6.707,37.949,0,55.383
		c-7.305,17.082,6.707,43.586,0,66.664c-7.305,23.168,0,66.285,0,66.285c0.195-0.367-31.656,5.777-55.777,0
		c-24.277-5.617-54.66,0-54.66,0c-0.367-0.367-31.82,5.777-58.883,0c-26.984-5.617-44.125,0-44.125,0
		c-0.109-0.367-8.824-29.879,0-50.391c8.891-20.477-5.883-52.305,0-75.379c5.891-23.098-4.117-32.484,0-50.844
		c4.391-18.754-7.059-51.715,0-64.535c7.391-12.719-4.703-51.277,0-67.175c4.391-16.043,0-45.379,0-45.379L24.609,191.059z"/>
	<path fill="#FFFFFF" fill-opacity="0.1373" d="M146.449,191.02c0,0,37.84-3.207,46.754-0.277
		c5.746,1.777,22.434,1.563,28.422,2.297c4.324,0.23,7.59-3.52,10.441,0c2.883,3.98,5.141,0,5.141,0
		c-0.008,0.23,4.484,11.41,0,31.918c-4.508,20.063,0.641,44.426,0,68.425c-0.758,23.637,0.707,40.344,0,64.344
		c-0.758,23.793,0.773,37.789,0,55.148c-0.758,17.395,3.414,43.59,0,66.387c-3.758,26.008,0,66.008,0,66.008
		c-0.008-0.25-3.648,5.754-6.43,0c-2.578-5.5-6.305,0-6.305,0c-0.023-0.25-6.715,1.66-13.992,2.148
		c-7.031,0.602-8.262-19.895-7.246-40.32c0.965-20.578-2.352-35.801-1.672-58.781c0.387-23.297-6.605-43.633-6.129-62.18
		c0.516-18.867-5.832-57.676-5.016-70.441c0.281-6.926,1.07-43.82-16.164-67.039c-12.055-16.387-0.98-38.719-11.148-41.289
		c-17.406-4.348-16.656-16.52-16.656-16.52V191.02z"/>
	<path fill="#B5A169" fill-opacity="0.5294" d="M24.227,191.047c0,0-11.316-4.98,12.367-0.109
		c8.633,1.609,63.637,62.203,72.453,127.519c5.93,41.34,37.961,118.969,41.102,144.523c6.078,51.316,44.922,84.352,32.902,81.797
		c-24.574-5.73-55.012,0-55.012,0c-0.313,0.27-32.031,5.777-59.27,0c-27.293-5.73-44.41,0-44.41,0
		c-0.133,0.27-8.879-29.879,0-50.391c8.867-20.59-5.922-52.305,0-75.379c5.867-23.211-4.145-32.484,0-50.945
		c4.367-18.766-7.105-51.613,0-64.434c7.367-12.832-4.734-51.277,0-67.175c4.367-16.156,0-45.379,0-45.379L24.227,191.047z"/>
	<path fill="#A4997B" fill-opacity="0.8275" d="M42.973,325.156c11.25,15,20.523,26.27,29.289,91.582
		c5.961,41.168,16.367,45.371,19.508,70.926c5.953,51.242,36.34,56.781,36.34,56.781c0.363-0.289-32.102,5.777-59.34,0
		c-27.297-5.539-44.41,0-44.41,0c-0.137-0.289-8.883-29.879,0-50.391c8.863-20.398-5.922-52.305,0-75.379
		c5.863-23.02-4.145-32.484,0-50.945c4.363-18.574-7.105-51.613,0-64.434c7.363-12.641,4.406,4.734,18.363,22.113L42.973,325.156z"
		/>
	<path fill="#D1CDBD" d="M233.965,187.699c0,0,12.73-11.426,19.988-14.34c0.262,0.09-3.902,13.117-8.918,19.918
		c0.18-0.328,1.113-4.859,1.113-9.23c-0.184-4.598-13.934,3.402-12.262,3.41L233.965,187.699z"/>
	<path fill="#D1CDBD" d="M26.285,187.699c0,0-12.727-11.426-19.984-14.34c-0.266,0.09,3.902,13.117,8.918,19.918
		c-0.184-0.328-1.113-4.859-1.113-9.23c0.18-4.598,13.934,3.402,12.262,3.41L26.285,187.699z"/>
	<path fill="#D1CDBD" d="M28.379,547.8c0,0-12.73,11.43-19.988,14.344c-0.262-0.094,3.902-13.117,8.918-19.918
		c-0.18,0.324-1.113,4.855-1.113,9.23c0.184,4.594,13.934-3.402,12.262-3.41L28.379,547.8z"/>
	<path fill="#D1CDBD" d="M231.875,545.98c0,0,12.73,11.426,19.988,14.34c0.262-0.09-3.902-13.117-8.918-19.918
		c0.18,0.328,1.113,4.859,1.113,9.23c-0.184,4.598-13.934-3.398-12.262-3.406L231.875,545.98z"/>
	<path fill="#DAA84E" fill-opacity="0.6078" d="M1.469,169.336c0,0,15.242,1.453,26.945,11.66c6.805,4.84,199.332,5.273,204.68,0
		c10.625-9.41,26.988-11.66,26.988-11.66c0.887,0,1.453,0.57,1.453,1.27c0.184,0.23-2.98,11.574-12.496,24.301
		c-3.07,7.43-3.621,342.851,0.719,346.316c8.961,7.613,11.777,24.301,11.777,24.301c0.184,0.563-0.648,1.266-1.453,1.266
		c0.137,0.047-13.891-2.398-26.988-11.66c-4.375-2.543-200.652-1.961-204.68,0c-14.195,7.957-26.992,11.66-26.992,11.66
		c-0.703,0.047-1.453-0.566-1.453-1.266c0-0.188,1.203-12.184,12.5-24.301c4-3.637,4.785-340.625,0-346.316
		c-13.25-12.07-12.5-24.301-12.5-24.301c0-0.52,0.652-1.27,1.453-1.27H1.469z"/>
	<path fill="#FFFFFF" fill-opacity="0.1255" d="M159.598,185.828h78l6,13.5v336.75c0,0-1.234,22.883-6.23,13.867
		c-1.27-1.867-32.859,0.125-34.398,2.031c-5.121,8.102-6.02-13.539-6.02-13.539l-69.602-351.859L159.598,185.828z"/>
</g>
</svg>
