<?xml version="1.0" encoding="utf-8"?>
<!-- Generator: Adobe Illustrator 16.0.0, SVG Export Plug-In . SVG Version: 6.00 Build 0)  -->
<!DOCTYPE svg PUBLIC "-//W3C//DTD SVG 1.1//EN" "http://www.w3.org/Graphics/SVG/1.1/DTD/svg11.dtd">
<svg preserveAspectRatio="none"   version="1.1" id="图层_1" xmlns="http://www.w3.org/2000/svg" xmlns:xlink="http://www.w3.org/1999/xlink" x="0px" y="0px"
	 width="238.289px" height="565.992px" viewBox="1.668 1.434 238.289 565.992" enable-background="new 1.668 1.434 238.289 565.992"
	 xml:space="preserve">
<g id="surface611">
	
		<linearGradient id="SVGID_1_" gradientUnits="userSpaceOnUse" x1="440.2231" y1="196.8066" x2="202.2236" y2="196.8066" gradientTransform="matrix(0.75 0 0 -0.75 -150.0006 152.4122)">
		<stop  offset="0" style="stop-color:#92A6AE"/>
		<stop  offset="0.01" style="stop-color:#DAEFF8"/>
		<stop  offset="0.03" style="stop-color:#BED8E3"/>
		<stop  offset="0.64" style="stop-color:#BBD5DF"/>
		<stop  offset="0.98" style="stop-color:#B7D0DA"/>
		<stop  offset="1" style="stop-color:#879AA2"/>
	</linearGradient>
	<path fill="url(#SVGID_1_)" d="M1.668,1.434h178.5v6.75H1.668V1.434z"/>
	
		<linearGradient id="SVGID_2_" gradientUnits="userSpaceOnUse" x1="427.2231" y1="177.8057" x2="202.2227" y2="177.8056" gradientTransform="matrix(0.75 0 0 -0.75 -145.3864 159.0997)">
		<stop  offset="0" style="stop-color:#92A6AE"/>
		<stop  offset="0.01" style="stop-color:#DAEFF8"/>
		<stop  offset="0.03" style="stop-color:#BED8E3"/>
		<stop  offset="0.64" style="stop-color:#BBD5DF"/>
		<stop  offset="0.98" style="stop-color:#B7D0DA"/>
		<stop  offset="1" style="stop-color:#879AA2"/>
	</linearGradient>
	<path fill="url(#SVGID_2_)" d="M6.281,8.121h168.75v35.25H6.281V8.121z"/>
	
		<linearGradient id="SVGID_3_" gradientUnits="userSpaceOnUse" x1="427.2231" y1="152.8027" x2="202.2227" y2="152.8027" gradientTransform="matrix(0.75 0 0 -0.75 -145.3864 194.5968)">
		<stop  offset="0" style="stop-color:#92A6AE"/>
		<stop  offset="0.01" style="stop-color:#DAEFF8"/>
		<stop  offset="0.03" style="stop-color:#BED8E3"/>
		<stop  offset="0.64" style="stop-color:#BBD5DF"/>
		<stop  offset="0.98" style="stop-color:#B7D0DA"/>
		<stop  offset="1" style="stop-color:#879AA2"/>
	</linearGradient>
	<path fill="url(#SVGID_3_)" d="M6.281,43.621h168.75l-35.25,72.75h-97.5L6.281,43.621z"/>
	
		<linearGradient id="SVGID_4_" gradientUnits="userSpaceOnUse" x1="303.728" y1="201.3018" x2="303.728" y2="186.3018" gradientTransform="matrix(0.75 0 0 -0.75 -136.4757 613.7775)">
		<stop  offset="0" style="stop-color:#92A6AE"/>
		<stop  offset="0.01" style="stop-color:#DAEFF8"/>
		<stop  offset="0.03" style="stop-color:#BED8E3"/>
		<stop  offset="0.64" style="stop-color:#BBD5DF"/>
		<stop  offset="0.98" style="stop-color:#B7D0DA"/>
		<stop  offset="1" style="stop-color:#879AA2"/>
	</linearGradient>
	<path fill="url(#SVGID_4_)" d="M167.445,474.05H15.195V462.8h152.25V474.05z"/>
	
		<linearGradient id="SVGID_5_" gradientUnits="userSpaceOnUse" x1="301.2241" y1="201.3027" x2="301.2241" y2="123.3027" gradientTransform="matrix(0.75 0 0 -0.75 -135.2472 449.3907)">
		<stop  offset="0" style="stop-color:#92A6AE"/>
		<stop  offset="0.01" style="stop-color:#DAEFF8"/>
		<stop  offset="0.03" style="stop-color:#BED8E3"/>
		<stop  offset="0.64" style="stop-color:#BBD5DF"/>
		<stop  offset="0.98" style="stop-color:#B7D0DA"/>
		<stop  offset="1" style="stop-color:#879AA2"/>
	</linearGradient>
	<path fill="url(#SVGID_5_)" d="M16.422,298.414h148.5l-53.25,58.5h-42L16.422,298.414z"/>
	
		<linearGradient id="SVGID_6_" gradientUnits="userSpaceOnUse" x1="259.2256" y1="176.3057" x2="202.2256" y2="176.3057" gradientTransform="matrix(0.75 0 0 -0.75 -82.5836 506.8029)">
		<stop  offset="0" style="stop-color:#92A6AE"/>
		<stop  offset="0.01" style="stop-color:#DAEFF8"/>
		<stop  offset="0.03" style="stop-color:#BED8E3"/>
		<stop  offset="0.64" style="stop-color:#BBD5DF"/>
		<stop  offset="0.98" style="stop-color:#B7D0DA"/>
		<stop  offset="1" style="stop-color:#879AA2"/>
	</linearGradient>
	<path fill="url(#SVGID_6_)" d="M69.086,355.824h42.75v37.5h-42.75V355.824z"/>
	
		<linearGradient id="SVGID_7_" gradientUnits="userSpaceOnUse" x1="263.3472" y1="197.7676" x2="202.228" y2="197.7676" gradientTransform="matrix(0.75 0 0 -0.75 -83.7882 543.7032)">
		<stop  offset="0" style="stop-color:#7098A9"/>
		<stop  offset="0.01" style="stop-color:#B8E1F2"/>
		<stop  offset="0.03" style="stop-color:#93C7DC"/>
		<stop  offset="0.64" style="stop-color:#91C4D9"/>
		<stop  offset="0.98" style="stop-color:#8DBFD4"/>
		<stop  offset="1" style="stop-color:#688D9D"/>
	</linearGradient>
	<path fill="url(#SVGID_7_)" d="M67.883,392.726h45.75c0,0,0.09,0.227,0.09,0.605l-0.09,3.895c0,0.75-0.105,0.883-0.32,0.883
		l-45.43-0.133c0,0,0-0.172,0-0.551v-3.949c0-0.75,0.141-0.828,0.355-0.828L67.883,392.726z"/>
	
		<linearGradient id="SVGID_8_" gradientUnits="userSpaceOnUse" x1="438.2261" y1="78.8027" x2="202.2261" y2="78.8027" gradientTransform="matrix(0.75 0 0 -0.75 -149.276 267.1359)">
		<stop  offset="0" style="stop-color:#92A6AE"/>
		<stop  offset="0.01" style="stop-color:#DAEFF8"/>
		<stop  offset="0.03" style="stop-color:#BED8E3"/>
		<stop  offset="0.64" style="stop-color:#BBD5DF"/>
		<stop  offset="0.98" style="stop-color:#B7D0DA"/>
		<stop  offset="1" style="stop-color:#879AA2"/>
	</linearGradient>
	<path fill="url(#SVGID_8_)" d="M2.395,116.16h177v183.75h-177V116.16z"/>
	
		<linearGradient id="SVGID_9_" gradientUnits="userSpaceOnUse" x1="377.2231" y1="195.3027" x2="202.2236" y2="195.3027" gradientTransform="matrix(0.75 0 0 -0.75 -126.465 257.879)">
		<stop  offset="0" style="stop-color:#7098A9"/>
		<stop  offset="0.01" style="stop-color:#B8E1F2"/>
		<stop  offset="0.03" style="stop-color:#93C7DC"/>
		<stop  offset="0.64" style="stop-color:#91C4D9"/>
		<stop  offset="0.98" style="stop-color:#8DBFD4"/>
		<stop  offset="1" style="stop-color:#688D9D"/>
	</linearGradient>
	<path fill="url(#SVGID_9_)" d="M25.203,106.902h131.25v9H25.203V106.902z"/>
	
		<linearGradient id="SVGID_10_" gradientUnits="userSpaceOnUse" x1="320.2261" y1="201.3008" x2="320.2261" y2="190.3008" gradientTransform="matrix(0.75 0 0 -0.75 -149.2794 449.3898)">
		<stop  offset="0" style="stop-color:#7098A9"/>
		<stop  offset="0.01" style="stop-color:#B8E1F2"/>
		<stop  offset="0.03" style="stop-color:#93C7DC"/>
		<stop  offset="0.64" style="stop-color:#91C4D9"/>
		<stop  offset="0.98" style="stop-color:#8DBFD4"/>
		<stop  offset="1" style="stop-color:#688D9D"/>
	</linearGradient>
	<path fill="url(#SVGID_10_)" d="M2.391,298.414h177v8.25h-177V298.414z"/>
	
		<linearGradient id="SVGID_11_" gradientUnits="userSpaceOnUse" x1="320.2261" y1="201.3018" x2="320.2261" y2="190.3018" gradientTransform="matrix(0.75 0 0 -0.75 -149.276 267.1368)">
		<stop  offset="0" style="stop-color:#7098A9"/>
		<stop  offset="0.01" style="stop-color:#B8E1F2"/>
		<stop  offset="0.03" style="stop-color:#93C7DC"/>
		<stop  offset="0.64" style="stop-color:#91C4D9"/>
		<stop  offset="0.98" style="stop-color:#8DBFD4"/>
		<stop  offset="1" style="stop-color:#688D9D"/>
	</linearGradient>
	<path fill="url(#SVGID_11_)" d="M2.395,116.16h177v8.25h-177V116.16z"/>
	
		<linearGradient id="SVGID_12_" gradientUnits="userSpaceOnUse" x1="303.7261" y1="201.3008" x2="303.7261" y2="186.3008" gradientTransform="matrix(0.75 0 0 -0.75 -137.1193 529.9562)">
		<stop  offset="0" style="stop-color:#92A6AE"/>
		<stop  offset="0.01" style="stop-color:#DAEFF8"/>
		<stop  offset="0.03" style="stop-color:#BED8E3"/>
		<stop  offset="0.64" style="stop-color:#BBD5DF"/>
		<stop  offset="0.98" style="stop-color:#B7D0DA"/>
		<stop  offset="1" style="stop-color:#879AA2"/>
	</linearGradient>
	<path fill="url(#SVGID_12_)" d="M166.801,390.23H14.551v-11.25h152.25V390.23z"/>
	
		<linearGradient id="SVGID_13_" gradientUnits="userSpaceOnUse" x1="303.729" y1="201.3018" x2="303.729" y2="186.3018" gradientTransform="matrix(0.75 0 0 -0.75 -136.4757 697.6007)">
		<stop  offset="0" style="stop-color:#92A6AE"/>
		<stop  offset="0.01" style="stop-color:#DAEFF8"/>
		<stop  offset="0.03" style="stop-color:#BED8E3"/>
		<stop  offset="0.64" style="stop-color:#BBD5DF"/>
		<stop  offset="0.98" style="stop-color:#B7D0DA"/>
		<stop  offset="1" style="stop-color:#879AA2"/>
	</linearGradient>
	<path fill="url(#SVGID_13_)" d="M167.445,557.875H15.195v-11.25h152.25V557.875z"/>
	
		<linearGradient id="SVGID_14_" gradientUnits="userSpaceOnUse" x1="219.228" y1="26.8047" x2="202.228" y2="26.8047" gradientTransform="matrix(0.75 0 0 -0.75 -149.2726 456.6534)">
		<stop  offset="0" style="stop-color:#92A6AE"/>
		<stop  offset="0.01" style="stop-color:#DAEFF8"/>
		<stop  offset="0.03" style="stop-color:#BED8E3"/>
		<stop  offset="0.64" style="stop-color:#BBD5DF"/>
		<stop  offset="0.98" style="stop-color:#B7D0DA"/>
		<stop  offset="1" style="stop-color:#879AA2"/>
	</linearGradient>
	<path fill="url(#SVGID_14_)" d="M2.398,305.675h12.75v261.75H2.398V305.675z"/>
	
		<linearGradient id="SVGID_15_" gradientUnits="userSpaceOnUse" x1="219.228" y1="26.8047" x2="202.228" y2="26.8047" gradientTransform="matrix(0.75 0 0 -0.75 14.7313 456.6534)">
		<stop  offset="0" style="stop-color:#92A6AE"/>
		<stop  offset="0.01" style="stop-color:#DAEFF8"/>
		<stop  offset="0.03" style="stop-color:#BED8E3"/>
		<stop  offset="0.64" style="stop-color:#BBD5DF"/>
		<stop  offset="0.98" style="stop-color:#B7D0DA"/>
		<stop  offset="1" style="stop-color:#879AA2"/>
	</linearGradient>
	<path fill="url(#SVGID_15_)" d="M166.402,305.675h12.75v261.75h-12.75V305.675z"/>
	
		<linearGradient id="SVGID_16_" gradientUnits="userSpaceOnUse" x1="283.2227" y1="139.3066" x2="202.2227" y2="139.3066" gradientTransform="matrix(0.75 0 0 -0.75 27.5394 448.3927)">
		<stop  offset="0" style="stop-color:#92A6AE"/>
		<stop  offset="0.01" style="stop-color:#DAEFF8"/>
		<stop  offset="0.03" style="stop-color:#BED8E3"/>
		<stop  offset="0.64" style="stop-color:#BBD5DF"/>
		<stop  offset="0.98" style="stop-color:#B7D0DA"/>
		<stop  offset="1" style="stop-color:#879AA2"/>
	</linearGradient>
	<path fill="url(#SVGID_16_)" d="M179.207,297.414h60.75v93h-60.75V297.414z"/>
	<path fill="#3E3938" d="M189.148,310.742h40.5v18h-40.5V310.742z"/>
	<path fill="#7D040F" stroke="#000000" stroke-width="0.25" stroke-linejoin="bevel" stroke-miterlimit="10" d="M217.262,361.964
		c1.5,0,3.004,1.348,3.004,3.027c-0.004,1.473-1.355,3.031-3.031,3.031c-1.473-0.059-3.027-1.363-3.027-3.031
		c0.055-1.527,1.359-3.035,3.027-3.035L217.262,361.964z"/>
	
		<linearGradient id="SVGID_17_" gradientUnits="userSpaceOnUse" x1="367.5874" y1="402.7944" x2="372.1345" y2="394.9187" gradientTransform="matrix(0 0.75 0.75 0 -81.9635 87.5497)">
		<stop  offset="0" style="stop-color:#9F5153"/>
		<stop  offset="1" style="stop-color:#7B030D"/>
	</linearGradient>
	<path fill="url(#SVGID_17_)" stroke="#FFFFFF" stroke-width="0.25" stroke-linejoin="bevel" stroke-miterlimit="10" d="
		M217.457,362.519c1.5,0,2.254,1.102,2.254,2.473c-0.004,1.277-1.105,2.473-2.477,2.473c-1.277,0.305-2.473-1.109-2.473-2.473
		c-0.305-1.723,1.109-2.48,2.473-2.48L217.457,362.519z"/>
	<path fill="#276F71" stroke="#000000" stroke-width="0.25" stroke-linejoin="bevel" stroke-miterlimit="10" d="M209.445,361.964
		c1.5,0,3.008,1.348,3.008,3.027c-0.008,1.473-1.355,3.031-3.031,3.031c-1.477-0.059-3.027-1.363-3.027-3.031
		c0.051-1.527,1.359-3.035,3.027-3.035L209.445,361.964z"/>
	
		<linearGradient id="SVGID_18_" gradientUnits="userSpaceOnUse" x1="367.5874" y1="402.7944" x2="372.1345" y2="394.9187" gradientTransform="matrix(0 0.75 0.75 0 -89.777 87.5497)">
		<stop  offset="0" style="stop-color:#91CFD1"/>
		<stop  offset="1" style="stop-color:#49AEB1"/>
	</linearGradient>
	<path fill="url(#SVGID_18_)" stroke="#FFFFFF" stroke-width="0.25" stroke-linejoin="bevel" stroke-miterlimit="10" d="
		M209.641,362.519c1.5,0,2.258,1.102,2.258,2.473c-0.008,1.277-1.105,2.473-2.477,2.473c-1.281,0.305-2.473-1.109-2.473-2.473
		c-0.309-1.723,1.109-2.48,2.473-2.48L209.641,362.519z"/>
	<path fill="#7D040F" stroke="#000000" stroke-width="0.25" stroke-linejoin="bevel" stroke-miterlimit="10" d="M225.18,361.964
		c1.5,0,3.008,1.348,3.008,3.027c-0.008,1.473-1.355,3.031-3.035,3.031c-1.473-0.059-3.023-1.363-3.023-3.031
		c0.051-1.527,1.359-3.035,3.023-3.035L225.18,361.964z"/>
	
		<linearGradient id="SVGID_19_" gradientUnits="userSpaceOnUse" x1="367.5874" y1="402.7944" x2="372.1345" y2="394.9187" gradientTransform="matrix(0 0.75 0.75 0 -74.0441 87.5497)">
		<stop  offset="0" style="stop-color:#9F5153"/>
		<stop  offset="1" style="stop-color:#7B030D"/>
	</linearGradient>
	<path fill="url(#SVGID_19_)" stroke="#FFFFFF" stroke-width="0.25" stroke-linejoin="bevel" stroke-miterlimit="10" d="
		M225.375,362.519c1.5,0,2.258,1.102,2.258,2.473c-0.008,1.277-1.109,2.473-2.48,2.473c-1.277,0.305-2.469-1.109-2.469-2.473
		c-0.309-1.723,1.109-2.48,2.469-2.48L225.375,362.519z"/>
	<path fill="#276F71" stroke="#000000" stroke-width="0.25" stroke-linejoin="bevel" stroke-miterlimit="10" d="M201.613,361.964
		c1.5,0,3.008,1.348,3.008,3.027c-0.008,1.473-1.355,3.031-3.031,3.031c-1.477-0.059-3.027-1.363-3.027-3.031
		c0.051-1.527,1.359-3.035,3.027-3.035L201.613,361.964z"/>
	
		<linearGradient id="SVGID_20_" gradientUnits="userSpaceOnUse" x1="367.5864" y1="402.7944" x2="372.1337" y2="394.9184" gradientTransform="matrix(0 0.75 0.75 0 -97.609 87.5497)">
		<stop  offset="0" style="stop-color:#91CFD1"/>
		<stop  offset="1" style="stop-color:#49AEB1"/>
	</linearGradient>
	<path fill="url(#SVGID_20_)" stroke="#FFFFFF" stroke-width="0.25" stroke-linejoin="bevel" stroke-miterlimit="10" d="
		M201.809,362.519c1.5,0,2.258,1.102,2.258,2.473c-0.008,1.277-1.105,2.473-2.477,2.473c-1.281,0.305-2.473-1.109-2.473-2.473
		c-0.309-1.723,1.109-2.48,2.473-2.48L201.809,362.519z"/>
	<path fill="#7D040F" stroke="#000000" stroke-width="0.25" stroke-linejoin="bevel" stroke-miterlimit="10" d="M193.789,361.964
		c1.5,0,3.008,1.348,3.008,3.027c-0.008,1.473-1.355,3.031-3.031,3.031c-1.477-0.059-3.027-1.363-3.027-3.031
		c0.051-1.527,1.359-3.035,3.027-3.035L193.789,361.964z"/>
	
		<linearGradient id="SVGID_21_" gradientUnits="userSpaceOnUse" x1="367.5874" y1="402.7944" x2="372.1345" y2="394.9187" gradientTransform="matrix(0 0.75 0.75 0 -105.4327 87.5497)">
		<stop  offset="0" style="stop-color:#9F5153"/>
		<stop  offset="1" style="stop-color:#7B030D"/>
	</linearGradient>
	<path fill="url(#SVGID_21_)" stroke="#FFFFFF" stroke-width="0.25" stroke-linejoin="bevel" stroke-miterlimit="10" d="
		M193.988,362.519c1.5,0,2.254,1.102,2.254,2.473c-0.004,1.277-1.105,2.473-2.477,2.473c-1.277,0.305-2.473-1.109-2.473-2.473
		c-0.305-1.723,1.109-2.48,2.473-2.48L193.988,362.519z"/>
	<path fill="#7D040F" stroke="#000000" stroke-width="0.25" stroke-linejoin="bevel" stroke-miterlimit="10" d="M217.262,372.433
		c1.5,0,3.004,1.348,3.004,3.027c-0.004,1.473-1.355,3.031-3.031,3.031c-1.473-0.059-3.027-1.363-3.027-3.031
		c0.055-1.527,1.359-3.035,3.027-3.035L217.262,372.433z"/>
	
		<linearGradient id="SVGID_22_" gradientUnits="userSpaceOnUse" x1="367.5874" y1="402.7944" x2="372.1345" y2="394.9187" gradientTransform="matrix(0 0.75 0.75 0 -81.9635 98.0189)">
		<stop  offset="0" style="stop-color:#9F5153"/>
		<stop  offset="1" style="stop-color:#7B030D"/>
	</linearGradient>
	<path fill="url(#SVGID_22_)" stroke="#FFFFFF" stroke-width="0.25" stroke-linejoin="bevel" stroke-miterlimit="10" d="
		M217.457,372.988c1.5,0,2.254,1.102,2.254,2.473c-0.004,1.277-1.105,2.477-2.477,2.477c-1.277,0.301-2.473-1.113-2.473-2.477
		c-0.305-1.723,1.109-2.48,2.473-2.48L217.457,372.988z"/>
	<path fill="#276F71" stroke="#000000" stroke-width="0.25" stroke-linejoin="bevel" stroke-miterlimit="10" d="M209.445,372.433
		c1.5,0,3.008,1.348,3.008,3.027c-0.008,1.473-1.355,3.031-3.031,3.031c-1.477-0.059-3.027-1.363-3.027-3.031
		c0.051-1.527,1.359-3.035,3.027-3.035L209.445,372.433z"/>
	
		<linearGradient id="SVGID_23_" gradientUnits="userSpaceOnUse" x1="367.5894" y1="402.7944" x2="372.1364" y2="394.9187" gradientTransform="matrix(0 0.75 0.75 0 -89.777 98.0189)">
		<stop  offset="0" style="stop-color:#91CFD1"/>
		<stop  offset="1" style="stop-color:#49AEB1"/>
	</linearGradient>
	<path fill="url(#SVGID_23_)" stroke="#FFFFFF" stroke-width="0.25" stroke-linejoin="bevel" stroke-miterlimit="10" d="
		M209.641,372.988c1.5,0,2.258,1.102,2.258,2.473c-0.008,1.277-1.105,2.477-2.477,2.477c-1.281,0.301-2.473-1.113-2.473-2.477
		c-0.309-1.723,1.109-2.48,2.473-2.48L209.641,372.988z"/>
	<path fill="#7D040F" stroke="#000000" stroke-width="0.25" stroke-linejoin="bevel" stroke-miterlimit="10" d="M225.18,372.433
		c1.5,0,3.008,1.348,3.008,3.027c-0.008,1.473-1.355,3.031-3.035,3.031c-1.473-0.059-3.023-1.363-3.023-3.031
		c0.051-1.527,1.359-3.035,3.023-3.035L225.18,372.433z"/>
	
		<linearGradient id="SVGID_24_" gradientUnits="userSpaceOnUse" x1="367.5874" y1="402.7944" x2="372.1345" y2="394.9187" gradientTransform="matrix(0 0.75 0.75 0 -74.0441 98.0189)">
		<stop  offset="0" style="stop-color:#9F5153"/>
		<stop  offset="1" style="stop-color:#7B030D"/>
	</linearGradient>
	<path fill="url(#SVGID_24_)" stroke="#FFFFFF" stroke-width="0.25" stroke-linejoin="bevel" stroke-miterlimit="10" d="
		M225.375,372.988c1.5,0,2.258,1.102,2.258,2.473c-0.008,1.277-1.109,2.477-2.48,2.477c-1.277,0.301-2.469-1.113-2.469-2.477
		c-0.309-1.723,1.109-2.48,2.469-2.48L225.375,372.988z"/>
	<path fill="#276F71" stroke="#000000" stroke-width="0.25" stroke-linejoin="bevel" stroke-miterlimit="10" d="M201.613,372.433
		c1.5,0,3.008,1.348,3.008,3.027c-0.008,1.473-1.355,3.031-3.031,3.031c-1.477-0.059-3.027-1.363-3.027-3.031
		c0.051-1.527,1.359-3.035,3.027-3.035L201.613,372.433z"/>
	
		<linearGradient id="SVGID_25_" gradientUnits="userSpaceOnUse" x1="367.5874" y1="402.7954" x2="372.1346" y2="394.9194" gradientTransform="matrix(0 0.75 0.75 0 -97.609 98.0189)">
		<stop  offset="0" style="stop-color:#91CFD1"/>
		<stop  offset="1" style="stop-color:#49AEB1"/>
	</linearGradient>
	<path fill="url(#SVGID_25_)" stroke="#FFFFFF" stroke-width="0.25" stroke-linejoin="bevel" stroke-miterlimit="10" d="
		M201.809,372.988c1.5,0,2.258,1.102,2.258,2.473c-0.008,1.277-1.105,2.477-2.477,2.477c-1.281,0.301-2.473-1.113-2.473-2.477
		c-0.309-1.723,1.109-2.48,2.473-2.48L201.809,372.988z"/>
	<path fill="#7D040F" stroke="#000000" stroke-width="0.25" stroke-linejoin="bevel" stroke-miterlimit="10" d="M193.789,372.433
		c1.5,0,3.008,1.348,3.008,3.027c-0.008,1.473-1.355,3.031-3.031,3.031c-1.477-0.059-3.027-1.363-3.027-3.031
		c0.051-1.527,1.359-3.035,3.027-3.035L193.789,372.433z"/>
	
		<linearGradient id="SVGID_26_" gradientUnits="userSpaceOnUse" x1="367.5884" y1="402.7944" x2="372.1354" y2="394.9187" gradientTransform="matrix(0 0.75 0.75 0 -105.4327 98.0189)">
		<stop  offset="0" style="stop-color:#9F5153"/>
		<stop  offset="1" style="stop-color:#7B030D"/>
	</linearGradient>
	<path fill="url(#SVGID_26_)" stroke="#FFFFFF" stroke-width="0.25" stroke-linejoin="bevel" stroke-miterlimit="10" d="
		M193.988,372.988c1.5,0,2.254,1.102,2.254,2.473c-0.004,1.277-1.105,2.477-2.477,2.477c-1.277,0.301-2.473-1.113-2.473-2.477
		c-0.305-1.723,1.109-2.48,2.473-2.48L193.988,372.988z"/>
	<path fill="#3E3938" d="M189.148,331.898h40.5v18h-40.5V331.898z"/>
</g>
</svg>
