<?xml version="1.0" encoding="utf-8"?>
<!-- Generator: Adobe Illustrator 16.0.0, SVG Export Plug-In . SVG Version: 6.00 Build 0)  -->
<!DOCTYPE svg PUBLIC "-//W3C//DTD SVG 1.1//EN" "http://www.w3.org/Graphics/SVG/1.1/DTD/svg11.dtd">
<svg preserveAspectRatio="none"   version="1.1" id="图层_1" xmlns="http://www.w3.org/2000/svg" xmlns:xlink="http://www.w3.org/1999/xlink" x="0px" y="0px"
	 width="368.932px" height="560.183px" viewBox="96.719 6.82 368.932 560.183" enable-background="new 96.719 6.82 368.932 560.183"
	 xml:space="preserve">
<g id="surface626">
	<path fill="#A5A293" d="M98.996,6.82c0,0,21.359,2.051,37.863,16.434c9.387,6.816,281.128,7.434,288.671,0
		C440.246,9.82,463.593,6.82,463.593,6.82c1.402,0,2.051,0.801,2.051,1.785c0.102-0.285-4.207,16.316-17.625,34.25
		c-4.023,10.465-5.109,483.226,1.012,488.109c12.215,10.605,16.613,34.25,16.613,34.25c0.102,1.105-0.918,1.785-2.051,1.785
		c-0.098,0.07-19.59-3.383-38.063-16.434c-5.535-2.996-282.988-2.762-288.671,0C116.996,562.57,98.797,567,98.797,567
		c-1.301,0.07-2.051-0.801-2.051-1.785c0,0.355,1.691-17.172,17.625-34.25c5.625-5.895,6.75-480.082,0-488.109
		C95.246,25.57,96.746,8.605,96.746,8.605c0-1.035,0.918-1.785,2.051-1.785H98.996z"/>
	<path fill="#CAC5B3" d="M131.41,37.277c0,0,31.734-6.816,64.934,0.051c33.316,6.699,67.328-4.699,91.761,0
		c24.805,4.449,46.844-5.422,81.703,0c34.602,5.199,62.922,0,62.922,0c0.18-0.051,7.801,16.258,0,45.168
		c-8.07,29.031,7.801,62.875,0,96.84c-8.07,34.191,8.629,57.094,0,91.059c-8.82,33.882,9.461,53.48,0,78.05
		c-9.57,24.832,9.461,61.43,0,93.953c-9.57,32.879,0,93.418,0,93.418c0.18,0.211-44.664,8.141-78.691,0
		c-34.379-8.039-77.113,0-77.113,0c-0.016,0.211-44.895,8.141-83.07,0c-38.445-8.039-62.25,0-62.25,0
		c-0.195,0.211-12.449-42.109,0-71.016c12.555-29.273-8.301-73.715,0-106.234c8.055-32.539-5.809-45.781,0-71.656
		c5.805-26.882-9.957-72.882,0-90.953c10.305-18.43-6.641-72.27,0-94.672c6.555-22.758,0-63.957,0-63.957L131.41,37.277z"/>
	<path fill="#FFFFFF" fill-opacity="0.1373" d="M303.66,36.824c0,0,53.383-3.91,65.961,0.223c8.289,2.777,31.648,2.203,40.098,3.238
		c5.691,1.039,10.707-4.961,14.727,0c3.715,5.539,7.258,0,7.258,0c0.207,0.289,6.324,16.082,0,44.98
		c-6.543,28.059,0.898,62.613,0,96.438c-1.293,33.621,0.992,56.855,0,90.68c-1.293,33.691,1.09,53.257,0,77.726
		c-1.293,24.215,4.816,61.43,0,93.559c-5.793,36.406,0,93.027,0,93.027c0.207-0.371-5.152,8.109-9.074,0
		c-4.219-7.871-8.891,0-8.891,0c0.172-0.371-9.473,2.34-19.742,3.027c-10.086,0.352-11.66-28.039-10.223-56.824
		c1.637-29.074-3.316-50.457-2.359-82.844c0.996-32.48-9.316-61.492-8.648-87.633c0.645-25.848-8.227-81.281-7.078-99.273
		c0.973-9.824,1.516-61.758-22.801-94.48c-17.477-23.344-1.383-54.566-15.723-58.195c-24.254-6.398-23.504-23.277-23.504-23.277
		V36.824z"/>
	<path fill="#A5A293" fill-opacity="0.3451" d="M131.188,37.262c0,0-15.922-6.848,17.492,0.016
		c12.508,2.234,89.777,87.668,102.215,179.719c7.793,58.016,53.554,167.667,57.988,203.683
		c9.055,71.832,63.371,118.879,46.418,115.281c-34.363-8.199-77.613,0-77.613,0c-0.25,0.051-45.188,8.141-83.613,0
		c-38.137-8.199-62.652,0-62.652,0c-0.234,0.051-12.531-42.109,0-71.016c12.516-28.684-8.355-73.715,0-106.234
		c8.016-32.699-5.848-45.781,0-71.801c5.766-26.148-10.023-72.742,0-90.808c10.266-17.84-6.684-72.27,0-94.672
		c6.516-22.168,0-63.957,0-63.957L131.188,37.262z"/>
	<path fill="#A5A293" fill-opacity="0.3451" d="M157.438,226.984c16.5,20.25,29.191,36.52,41.563,128.57
		c7.938,58.18,23.09,63.941,27.52,99.957c8.918,72.223,51.266,80.023,51.266,80.023c-0.348-0.301-45.285,8.141-83.715,0
		c-38.133-7.801-62.652,0-62.652,0c-0.23-0.301-12.527-42.109,0-71.02c12.52-29.031-8.352-73.711,0-106.234
		c8.02-32.297-5.844-45.781,0-71.797c5.77-26.5-10.023-72.742,0-90.808c10.27-18.191,6.219,6.668,25.91,31.168L157.438,226.984z"/>
	<path fill="#D1CDBD" d="M427.128,32.176c0,0,17.957-15.52,28.195-19.625c0.305,0.125-5.504,18.484-12.582,28.07
		c0.137-0.195,1.574-6.848,1.574-13.012c0.063-5.934-19.656,4.793-17.297,4.805L427.128,32.176z"/>
	<path fill="#D1CDBD" d="M134.141,32.176c0,0-17.957-15.52-28.195-19.625c-0.305,0.125,5.504,18.484,12.578,28.07
		c-0.133-0.195-1.57-6.848-1.57-13.012c-0.063-5.934,19.656,4.793,17.297,4.805L134.141,32.176z"/>
	<path fill="#D1CDBD" d="M137.086,540.847c0,0-17.953,15.523-28.195,19.629c-0.305-0.129,5.508-18.484,12.582-28.07
		c-0.137,0.191-1.574,6.848-1.574,13.008c-0.063,5.934,19.66-4.793,17.301-4.805L137.086,540.847z"/>
	<path fill="#D1CDBD" d="M424.179,538.281c0,0,17.957,15.52,28.195,19.629c0.305-0.129-5.504-18.484-12.578-28.07
		c0.133,0.191,1.57,6.844,1.57,13.008c0.063,5.934-19.656-4.793-17.297-4.805L424.179,538.281z"/>
	<path fill="#FFFFFF" fill-opacity="0.1725" d="M98.996,6.82c0,0,21.359,2.051,37.863,16.434c9.387,6.816,281.128,7.434,288.671,0
		C440.246,9.82,463.593,6.82,463.593,6.82c1.402,0,2.051,0.801,2.051,1.785c0.102-0.285-4.207,16.316-17.625,34.25
		c-4.023,10.465-5.109,483.226,1.012,488.109c12.215,10.605,16.613,34.25,16.613,34.25c0.102,1.105-0.918,1.785-2.051,1.785
		c-0.098,0.07-19.59-3.383-38.063-16.434c-5.535-2.996-282.988-2.762-288.671,0C116.996,562.57,98.797,567,98.797,567
		c-1.301,0.07-2.051-0.801-2.051-1.785c0,0.355,1.691-17.172,17.625-34.25c5.625-5.895,6.75-480.082,0-488.109
		C95.246,25.57,96.746,8.605,96.746,8.605c0-1.035,0.918-1.785,2.051-1.785H98.996z"/>
	<path fill="#FFFFFF" fill-opacity="0.2863" d="M321.714,30.117h110.25l8.25,18.75l0.75,475.5c0,0-1.988,31.625-9.035,18.918
		c-2.215-3.168-46.359,0.176-48.527,2.863c-7.688,11.219-8.496-19.082-8.496-19.082L276.715,31.617L321.714,30.117z"/>
</g>
</svg>
