<?xml version="1.0" encoding="utf-8"?>
<!-- Generator: Adobe Illustrator 16.0.0, SVG Export Plug-In . SVG Version: 6.00 Build 0)  -->
<!DOCTYPE svg PUBLIC "-//W3C//DTD SVG 1.1//EN" "http://www.w3.org/Graphics/SVG/1.1/DTD/svg11.dtd">
<svg preserveAspectRatio="none"   version="1.1" id="图层_1" xmlns="http://www.w3.org/2000/svg" xmlns:xlink="http://www.w3.org/1999/xlink" x="0px" y="0px"
	 width="324px" height="567.031px" viewBox="121.465 -0.137 324 567.031" enable-background="new 121.465 -0.137 324 567.031"
	 xml:space="preserve">
<g id="surface246">
	
		<linearGradient id="SVGID_1_" gradientUnits="userSpaceOnUse" x1="581.2212" y1="-26.1943" x2="202.2222" y2="-26.1944" gradientTransform="matrix(0.75 0 0 -0.75 -10.3038 184.7589)">
		<stop  offset="0" style="stop-color:#B3BDBD"/>
		<stop  offset="0.15" style="stop-color:#EAF7F7"/>
		<stop  offset="0.25" style="stop-color:#F3FBFB"/>
		<stop  offset="0.44" style="stop-color:#CCD8D8"/>
		<stop  offset="0.6" style="stop-color:#B5C0C0"/>
		<stop  offset="0.8" style="stop-color:#99A2A2"/>
		<stop  offset="0.97" style="stop-color:#8C9494"/>
	</linearGradient>
	<path fill="url(#SVGID_1_)" d="M141.363,33.781h284.25v341.25h-284.25V33.781z"/>
	
		<linearGradient id="SVGID_2_" gradientUnits="userSpaceOnUse" x1="621.6519" y1="189.8032" x2="202.2251" y2="189.8032" gradientTransform="matrix(0.75 0 0 -0.75 -25.4899 170.3868)">
		<stop  offset="0" style="stop-color:#B3BDBD"/>
		<stop  offset="0.15" style="stop-color:#EAF7F7"/>
		<stop  offset="0.25" style="stop-color:#F3FBFB"/>
		<stop  offset="0.44" style="stop-color:#CCD8D8"/>
		<stop  offset="0.6" style="stop-color:#B5C0C0"/>
		<stop  offset="0.8" style="stop-color:#99A2A2"/>
		<stop  offset="0.97" style="stop-color:#8C9494"/>
	</linearGradient>
	<path fill="url(#SVGID_2_)" d="M127.68,19.41h312c0.75,0,1.07,0.617,1.07,1.379l-0.32,14.371c0,0.75-0.344,1.496-1.121,1.496
		L127.68,36.66c-0.75,0-1.5-0.621-1.5-1.387V20.91c0-0.75,0.555-1.5,1.328-1.5H127.68z"/>
	
		<linearGradient id="SVGID_3_" gradientUnits="userSpaceOnUse" x1="609.2241" y1="191.3521" x2="202.2251" y2="191.352" gradientTransform="matrix(0.75 0 0 -0.75 -20.8297 522.8488)">
		<stop  offset="0" style="stop-color:#B3BDBD"/>
		<stop  offset="0.15" style="stop-color:#EAF7F7"/>
		<stop  offset="0.25" style="stop-color:#F3FBFB"/>
		<stop  offset="0.44" style="stop-color:#CCD8D8"/>
		<stop  offset="0.6" style="stop-color:#B5C0C0"/>
		<stop  offset="0.8" style="stop-color:#99A2A2"/>
		<stop  offset="0.97" style="stop-color:#8C9494"/>
	</linearGradient>
	<path fill="url(#SVGID_3_)" d="M132.34,371.871h302.25c0.75,0,1.5,0.547,1.5,1.309v12.191c0,0.75-0.629,1.375-1.402,1.375
		l-302.347,0.125c-0.75,0-1.5-0.742-1.5-1.504v-11.996c0-0.75,0.629-1.57,1.402-1.57L132.34,371.871z"/>
	
		<linearGradient id="SVGID_4_" gradientUnits="userSpaceOnUse" x1="609.2241" y1="191.3525" x2="202.2251" y2="191.3525" gradientTransform="matrix(0.75 0 0 -0.75 -20.8297 537.4718)">
		<stop  offset="0" style="stop-color:#B3BDBD"/>
		<stop  offset="0.15" style="stop-color:#EAF7F7"/>
		<stop  offset="0.25" style="stop-color:#F3FBFB"/>
		<stop  offset="0.44" style="stop-color:#CCD8D8"/>
		<stop  offset="0.6" style="stop-color:#B5C0C0"/>
		<stop  offset="0.8" style="stop-color:#99A2A2"/>
		<stop  offset="0.97" style="stop-color:#8C9494"/>
	</linearGradient>
	<path fill="url(#SVGID_4_)" d="M132.34,386.496h302.25c0.75,0,1.5,0.543,1.5,1.305v12.195c0,0.75-0.629,1.371-1.402,1.371
		l-302.347,0.129c-0.75,0-1.5-0.746-1.5-1.508v-11.992c0-0.75,0.629-1.574,1.402-1.574L132.34,386.496z"/>
	
		<linearGradient id="SVGID_5_" gradientUnits="userSpaceOnUse" x1="582.2261" y1="110.3071" x2="202.2261" y2="110.3071" gradientTransform="matrix(0.75 0 0 -0.75 -12.401 552.3458)">
		<stop  offset="0" style="stop-color:#B3BDBD"/>
		<stop  offset="0.15" style="stop-color:#EAF7F7"/>
		<stop  offset="0.25" style="stop-color:#F3FBFB"/>
		<stop  offset="0.44" style="stop-color:#CCD8D8"/>
		<stop  offset="0.6" style="stop-color:#B5C0C0"/>
		<stop  offset="0.8" style="stop-color:#99A2A2"/>
		<stop  offset="0.97" style="stop-color:#8C9494"/>
	</linearGradient>
	<path fill="url(#SVGID_5_)" d="M139.27,401.367h285l-96,136.5h-93L139.27,401.367z"/>
	
		<linearGradient id="SVGID_6_" gradientUnits="userSpaceOnUse" x1="326.2231" y1="181.8086" x2="202.2236" y2="181.8086" gradientTransform="matrix(0.75 0 0 -0.75 83.6478 688.6241)">
		<stop  offset="0" style="stop-color:#B3BDBD"/>
		<stop  offset="0.15" style="stop-color:#EAF7F7"/>
		<stop  offset="0.25" style="stop-color:#F3FBFB"/>
		<stop  offset="0.44" style="stop-color:#CCD8D8"/>
		<stop  offset="0.6" style="stop-color:#B5C0C0"/>
		<stop  offset="0.8" style="stop-color:#99A2A2"/>
		<stop  offset="0.97" style="stop-color:#8C9494"/>
	</linearGradient>
	<path fill="url(#SVGID_6_)" d="M235.316,566.894h93v-29.25h-93V566.894z"/>
	
		<linearGradient id="SVGID_7_" gradientUnits="userSpaceOnUse" x1="609.2241" y1="198.3198" x2="202.2251" y2="198.3198" gradientTransform="matrix(0.75 0 0 -0.75 -20.8297 535.424)">
		<stop  offset="0" style="stop-color:#90A7AA"/>
		<stop  offset="0.15" style="stop-color:#C2DCE0"/>
		<stop  offset="0.25" style="stop-color:#DEECEE"/>
		<stop  offset="0.44" style="stop-color:#A5BFC2"/>
		<stop  offset="0.6" style="stop-color:#93AAAD"/>
		<stop  offset="0.8" style="stop-color:#7B8F91"/>
		<stop  offset="0.97" style="stop-color:#708285"/>
	</linearGradient>
	<path fill="url(#SVGID_7_)" d="M132.34,384.445h302.25c0.75,0,1.5,0.164,1.5,0.395v3.355c0,0.75-0.629,0.734-1.402,0.734
		l-302.347,0.016c-0.75,0-1.5-0.203-1.5-0.43v-3.32c0-0.75,0.629-0.77,1.402-0.77L132.34,384.445z"/>
	
		<linearGradient id="SVGID_8_" gradientUnits="userSpaceOnUse" x1="581.2212" y1="196.8071" x2="202.2222" y2="196.8071" gradientTransform="matrix(0.75 0 0 -0.75 -10.3038 187.92)">
		<stop  offset="0" style="stop-color:#90A7AA"/>
		<stop  offset="0.15" style="stop-color:#C2DCE0"/>
		<stop  offset="0.25" style="stop-color:#DEECEE"/>
		<stop  offset="0.44" style="stop-color:#A5BFC2"/>
		<stop  offset="0.6" style="stop-color:#93AAAD"/>
		<stop  offset="0.8" style="stop-color:#7B8F91"/>
		<stop  offset="0.97" style="stop-color:#708285"/>
	</linearGradient>
	<path fill="url(#SVGID_8_)" d="M141.363,36.941h284.25v6.75h-284.25V36.941z"/>
	
		<linearGradient id="SVGID_9_" gradientUnits="userSpaceOnUse" x1="581.2212" y1="198.3042" x2="202.2222" y2="198.3042" gradientTransform="matrix(0.75 0 0 -0.75 -10.3038 517.4884)">
		<stop  offset="0" style="stop-color:#90A7AA"/>
		<stop  offset="0.15" style="stop-color:#C2DCE0"/>
		<stop  offset="0.25" style="stop-color:#DEECEE"/>
		<stop  offset="0.44" style="stop-color:#A5BFC2"/>
		<stop  offset="0.6" style="stop-color:#93AAAD"/>
		<stop  offset="0.8" style="stop-color:#7B8F91"/>
		<stop  offset="0.97" style="stop-color:#708285"/>
	</linearGradient>
	<path fill="url(#SVGID_9_)" d="M141.363,366.511h284.25v4.5h-284.25V366.511z"/>
	
		<linearGradient id="SVGID_10_" gradientUnits="userSpaceOnUse" x1="582.2261" y1="198.3071" x2="202.2261" y2="198.3071" gradientTransform="matrix(0.75 0 0 -0.75 -12.401 551.8068)">
		<stop  offset="0" style="stop-color:#90A7AA"/>
		<stop  offset="0.15" style="stop-color:#C2DCE0"/>
		<stop  offset="0.25" style="stop-color:#DEECEE"/>
		<stop  offset="0.44" style="stop-color:#A5BFC2"/>
		<stop  offset="0.6" style="stop-color:#93AAAD"/>
		<stop  offset="0.8" style="stop-color:#7B8F91"/>
		<stop  offset="0.97" style="stop-color:#708285"/>
	</linearGradient>
	<path fill="url(#SVGID_10_)" d="M139.27,400.828h285l-3,3.75l-279,0.75L139.27,400.828z"/>
	
		<linearGradient id="SVGID_11_" gradientUnits="userSpaceOnUse" x1="621.6528" y1="197.3052" x2="202.2256" y2="197.3051" gradientTransform="matrix(0.75 0 0 -0.75 -25.4904 170.962)">
		<stop  offset="0" style="stop-color:#90A7AA"/>
		<stop  offset="0.15" style="stop-color:#C2DCE0"/>
		<stop  offset="0.25" style="stop-color:#DEECEE"/>
		<stop  offset="0.44" style="stop-color:#A5BFC2"/>
		<stop  offset="0.6" style="stop-color:#93AAAD"/>
		<stop  offset="0.8" style="stop-color:#7B8F91"/>
		<stop  offset="0.97" style="stop-color:#708285"/>
	</linearGradient>
	<path fill="url(#SVGID_11_)" d="M127.68,19.984h312c0.75,0,1.07,0.211,1.07,0.469l-0.32,4.781c0,0.75-0.344,0.613-1.121,0.613
		L127.68,25.984c-0.75,0-1.5-0.348-1.5-0.605v-4.645c0-0.75,0.555-0.75,1.328-0.75H127.68z"/>
	
		<linearGradient id="SVGID_12_" gradientUnits="userSpaceOnUse" x1="634.2241" y1="187.3306" x2="202.2251" y2="187.3305" gradientTransform="matrix(0.75 0 0 -0.75 -30.2047 150.8771)">
		<stop  offset="0" style="stop-color:#B3BDBD"/>
		<stop  offset="0.15" style="stop-color:#EAF7F7"/>
		<stop  offset="0.25" style="stop-color:#F3FBFB"/>
		<stop  offset="0.44" style="stop-color:#CCD8D8"/>
		<stop  offset="0.6" style="stop-color:#B5C0C0"/>
		<stop  offset="0.8" style="stop-color:#99A2A2"/>
		<stop  offset="0.97" style="stop-color:#8C9494"/>
	</linearGradient>
	<path fill="url(#SVGID_12_)" d="M122.965-0.102h321c0.75,0,1.5,0.582,1.5,1.344v18.156c0,0.75-0.664,1.391-1.441,1.391
		l-321.058,0.109c-0.75,0-1.5-0.727-1.5-1.488V1.398c0-0.75,0.629-1.535,1.402-1.535L122.965-0.102z"/>
</g>
</svg>
