<?xml version="1.0" encoding="utf-8"?>
<!-- Generator: Adobe Illustrator 16.0.0, SVG Export Plug-In . SVG Version: 6.00 Build 0)  -->
<!DOCTYPE svg PUBLIC "-//W3C//DTD SVG 1.1//EN" "http://www.w3.org/Graphics/SVG/1.1/DTD/svg11.dtd">
<svg preserveAspectRatio="none"   version="1.1" id="图层_1" xmlns="http://www.w3.org/2000/svg" xmlns:xlink="http://www.w3.org/1999/xlink" x="0px" y="0px"
	 width="567px" height="333.324px" viewBox="-0.035 234.414 567 333.324" enable-background="new -0.035 234.414 567 333.324"
	 xml:space="preserve">
<g id="surface306">
	
		<linearGradient id="SVGID_1_" gradientUnits="userSpaceOnUse" x1="527.2261" y1="201.3047" x2="527.2261" y2="31.3037" gradientTransform="matrix(0.75 0 0 -0.75 -111.8063 562.4337)">
		<stop  offset="0" style="stop-color:#3B9193"/>
		<stop  offset="0.15" style="stop-color:#67C3C5"/>
		<stop  offset="0.25" style="stop-color:#BBDEE0"/>
		<stop  offset="0.52" style="stop-color:#45A6A9"/>
		<stop  offset="0.69" style="stop-color:#3C9396"/>
		<stop  offset="0.8" style="stop-color:#388B8D"/>
		<stop  offset="0.97" style="stop-color:#358385"/>
		<stop  offset="1" style="stop-color:#3E9799"/>
	</linearGradient>
	<path fill="url(#SVGID_1_)" d="M39.863,411.457h487.5v127.5h-487.5V411.457z"/>
	
		<linearGradient id="SVGID_2_" gradientUnits="userSpaceOnUse" x1="207.8408" y1="201.3057" x2="207.8408" y2="21.3057" gradientTransform="matrix(0.75 0 0 -0.75 -119.984 558.9552)">
		<stop  offset="0" style="stop-color:#3B9193"/>
		<stop  offset="0.15" style="stop-color:#67C3C5"/>
		<stop  offset="0.25" style="stop-color:#BBDEE0"/>
		<stop  offset="0.52" style="stop-color:#45A6A9"/>
		<stop  offset="0.69" style="stop-color:#3C9396"/>
		<stop  offset="0.8" style="stop-color:#388B8D"/>
		<stop  offset="0.97" style="stop-color:#358385"/>
		<stop  offset="1" style="stop-color:#3E9799"/>
	</linearGradient>
	<path fill="url(#SVGID_2_)" d="M32.434,407.976h7.5c0,0,0.176,0.18,0.176,0.398l-0.176,133.852c0,0,0,0.383-0.219,0.383
		l-7.281,0.367c-0.75,0-0.75-0.547-0.75-0.766V408.726c0-0.75,0.18-0.75,0.398-0.75H32.434z"/>
	
		<linearGradient id="SVGID_3_" gradientUnits="userSpaceOnUse" x1="207.8413" y1="201.3057" x2="207.8413" y2="21.3057" gradientTransform="matrix(0.75 0 0 -0.75 -127.9142 558.9552)">
		<stop  offset="0" style="stop-color:#3B9193"/>
		<stop  offset="0.15" style="stop-color:#67C3C5"/>
		<stop  offset="0.25" style="stop-color:#BBDEE0"/>
		<stop  offset="0.52" style="stop-color:#45A6A9"/>
		<stop  offset="0.69" style="stop-color:#3C9396"/>
		<stop  offset="0.8" style="stop-color:#388B8D"/>
		<stop  offset="0.97" style="stop-color:#358385"/>
		<stop  offset="1" style="stop-color:#3E9799"/>
	</linearGradient>
	<path fill="url(#SVGID_3_)" d="M24.504,407.976h7.5c0,0,0.176,0.18,0.176,0.398l-0.176,133.852c0,0,0,0.383-0.219,0.383
		l-7.281,0.367c-0.75,0-0.75-0.547-0.75-0.766V408.726c0-0.75,0.18-0.75,0.398-0.75H24.504z"/>
	
		<linearGradient id="SVGID_4_" gradientUnits="userSpaceOnUse" x1="217.7266" y1="201.3018" x2="217.7265" y2="22.3018" gradientTransform="matrix(0.75 0 0 -0.75 -151.7047 559.2032)">
		<stop  offset="0" style="stop-color:#3B9193"/>
		<stop  offset="0.15" style="stop-color:#67C3C5"/>
		<stop  offset="0.25" style="stop-color:#BBDEE0"/>
		<stop  offset="0.52" style="stop-color:#45A6A9"/>
		<stop  offset="0.69" style="stop-color:#3C9396"/>
		<stop  offset="0.8" style="stop-color:#388B8D"/>
		<stop  offset="0.97" style="stop-color:#358385"/>
		<stop  offset="1" style="stop-color:#3E9799"/>
	</linearGradient>
	<path fill="url(#SVGID_4_)" d="M1.465,408.226h21.75v134.25H1.465c-0.75,0-1.5-0.832-1.5-1.711V409.726c0-0.75,0.691-1.5,1.57-1.5
		H1.465z"/>
	
		<linearGradient id="SVGID_5_" gradientUnits="userSpaceOnUse" x1="171.3184" y1="201.3047" x2="171.3183" y2="21.3047" gradientTransform="matrix(-0.75 0 0 -0.75 659.5216 558.9552)">
		<stop  offset="0" style="stop-color:#3B9193"/>
		<stop  offset="0.15" style="stop-color:#67C3C5"/>
		<stop  offset="0.25" style="stop-color:#BBDEE0"/>
		<stop  offset="0.52" style="stop-color:#45A6A9"/>
		<stop  offset="0.69" style="stop-color:#3C9396"/>
		<stop  offset="0.8" style="stop-color:#388B8D"/>
		<stop  offset="0.97" style="stop-color:#358385"/>
		<stop  offset="1" style="stop-color:#3E9799"/>
	</linearGradient>
	<path fill="url(#SVGID_5_)" d="M534.496,407.976h-7.5c0,0-0.176,0.18-0.176,0.398l0.176,133.852c0,0,0,0.383,0.219,0.383
		l7.281,0.367c0.75,0,0.75-0.547,0.75-0.766V408.726c0-0.75-0.18-0.75-0.398-0.75H534.496z"/>
	
		<linearGradient id="SVGID_6_" gradientUnits="userSpaceOnUse" x1="171.3203" y1="201.3047" x2="171.3203" y2="21.3047" gradientTransform="matrix(-0.75 0 0 -0.75 667.4523 558.9552)">
		<stop  offset="0" style="stop-color:#3B9193"/>
		<stop  offset="0.15" style="stop-color:#67C3C5"/>
		<stop  offset="0.25" style="stop-color:#BBDEE0"/>
		<stop  offset="0.52" style="stop-color:#45A6A9"/>
		<stop  offset="0.69" style="stop-color:#3C9396"/>
		<stop  offset="0.8" style="stop-color:#388B8D"/>
		<stop  offset="0.97" style="stop-color:#358385"/>
		<stop  offset="1" style="stop-color:#3E9799"/>
	</linearGradient>
	<path fill="url(#SVGID_6_)" d="M542.425,407.976h-7.5c0,0-0.176,0.18-0.176,0.398l0.176,133.852c0,0,0,0.383,0.219,0.383
		l7.281,0.367c0.75,0,0.75-0.547,0.75-0.766V408.726c0-0.75-0.18-0.75-0.398-0.75H542.425z"/>
	
		<linearGradient id="SVGID_7_" gradientUnits="userSpaceOnUse" x1="181.2056" y1="201.3008" x2="181.2056" y2="22.3008" gradientTransform="matrix(-0.75 0 0 -0.75 691.2423 559.2032)">
		<stop  offset="0" style="stop-color:#3B9193"/>
		<stop  offset="0.15" style="stop-color:#67C3C5"/>
		<stop  offset="0.25" style="stop-color:#BBDEE0"/>
		<stop  offset="0.52" style="stop-color:#45A6A9"/>
		<stop  offset="0.69" style="stop-color:#3C9396"/>
		<stop  offset="0.8" style="stop-color:#388B8D"/>
		<stop  offset="0.97" style="stop-color:#358385"/>
		<stop  offset="1" style="stop-color:#3E9799"/>
	</linearGradient>
	<path fill="url(#SVGID_7_)" d="M565.464,408.226h-21.75v134.25h21.75c0.75,0,1.5-0.832,1.5-1.711V409.726
		c0-0.75-0.695-1.5-1.57-1.5H565.464z"/>
	
		<linearGradient id="SVGID_8_" gradientUnits="userSpaceOnUse" x1="289.2261" y1="201.3037" x2="289.2261" y2="16.3037" gradientTransform="matrix(0.75 0 0 -0.75 32.1737 423.8292)">
		<stop  offset="0" style="stop-color:#3B9193"/>
		<stop  offset="0.15" style="stop-color:#67C3C5"/>
		<stop  offset="0.25" style="stop-color:#BBDEE0"/>
		<stop  offset="0.52" style="stop-color:#45A6A9"/>
		<stop  offset="0.69" style="stop-color:#3C9396"/>
		<stop  offset="0.8" style="stop-color:#388B8D"/>
		<stop  offset="0.97" style="stop-color:#358385"/>
		<stop  offset="1" style="stop-color:#3E9799"/>
	</linearGradient>
	<path fill="url(#SVGID_8_)" d="M183.844,411.601h130.5v-138.75h-130.5V411.601z"/>
	
		<linearGradient id="SVGID_9_" gradientUnits="userSpaceOnUse" x1="290.2222" y1="201.3047" x2="290.2222" y2="58.3047" gradientTransform="matrix(0.75 0 0 -0.75 -99.4679 455.9542)">
		<stop  offset="0" style="stop-color:#368688"/>
		<stop  offset="0.03" style="stop-color:#8CCDCF"/>
		<stop  offset="0.08" style="stop-color:#49AFB2"/>
		<stop  offset="0.64" style="stop-color:#48ACAF"/>
		<stop  offset="0.95" style="stop-color:#46A8AB"/>
		<stop  offset="1" style="stop-color:#317C7E"/>
	</linearGradient>
	<path fill="url(#SVGID_9_)" d="M52.199,304.976h132v107.25h-132V304.976z"/>
	
		<linearGradient id="SVGID_10_" gradientUnits="userSpaceOnUse" x1="290.2222" y1="201.3018" x2="290.2222" y2="150.3027" gradientTransform="matrix(0.75 0 0 -0.75 -99.4679 418.2657)">
		<stop  offset="0" style="stop-color:#368688"/>
		<stop  offset="0.03" style="stop-color:#8CCDCF"/>
		<stop  offset="0.08" style="stop-color:#49AFB2"/>
		<stop  offset="0.64" style="stop-color:#48ACAF"/>
		<stop  offset="0.95" style="stop-color:#46A8AB"/>
		<stop  offset="1" style="stop-color:#317C7E"/>
	</linearGradient>
	<path fill="url(#SVGID_10_)" d="M52.199,267.289h132v38.25h-132V267.289z"/>
	
		<linearGradient id="SVGID_11_" gradientUnits="userSpaceOnUse" x1="218.7231" y1="201.3018" x2="218.7231" y2="59.3018" gradientTransform="matrix(0.75 0 0 -0.75 162.3593 456.1202)">
		<stop  offset="0" style="stop-color:#368688"/>
		<stop  offset="0.03" style="stop-color:#8CCDCF"/>
		<stop  offset="0.08" style="stop-color:#49AFB2"/>
		<stop  offset="0.64" style="stop-color:#48ACAF"/>
		<stop  offset="0.95" style="stop-color:#46A8AB"/>
		<stop  offset="1" style="stop-color:#317C7E"/>
	</linearGradient>
	<path fill="url(#SVGID_11_)" d="M314.027,411.644h24.75v-106.5h-24.75V411.644z"/>
	
		<linearGradient id="SVGID_12_" gradientUnits="userSpaceOnUse" x1="403.2261" y1="201.3018" x2="403.2261" y2="178.25" gradientTransform="matrix(0.75 0 0 -0.75 -106.4044 562.5314)">
		<stop  offset="0" style="stop-color:#368688"/>
		<stop  offset="0.03" style="stop-color:#8CCDCF"/>
		<stop  offset="0.08" style="stop-color:#49AFB2"/>
		<stop  offset="0.64" style="stop-color:#48ACAF"/>
		<stop  offset="0.95" style="stop-color:#46A8AB"/>
		<stop  offset="1" style="stop-color:#317C7E"/>
	</linearGradient>
	<path fill="url(#SVGID_12_)" d="M46.016,411.554h300c0.75,0,0.723,0.258,0.723,0.574l0.027,15.926c0,0.75-0.027,0.789-0.43,0.789
		l-300.32-0.039c-0.75,0-0.75-0.219-0.75-0.539v-15.961c0-0.75,0-0.75,0.402-0.75H46.016z"/>
	
		<linearGradient id="SVGID_13_" gradientUnits="userSpaceOnUse" x1="207.2266" y1="127.3037" x2="202.2266" y2="127.3037" gradientTransform="matrix(0.75 0 0 -0.75 39.4427 451.9806)">
		<stop  offset="0" style="stop-color:#368688"/>
		<stop  offset="0.03" style="stop-color:#8CCDCF"/>
		<stop  offset="0.08" style="stop-color:#49AFB2"/>
		<stop  offset="0.64" style="stop-color:#48ACAF"/>
		<stop  offset="0.95" style="stop-color:#46A8AB"/>
		<stop  offset="1" style="stop-color:#317C7E"/>
	</linearGradient>
	<path fill="url(#SVGID_13_)" d="M191.113,301.003h3.75v111h-3.75V301.003z"/>
	
		<linearGradient id="SVGID_14_" gradientUnits="userSpaceOnUse" x1="207.2261" y1="127.3037" x2="202.2261" y2="127.3037" gradientTransform="matrix(0.75 0 0 -0.75 50.6112 451.9806)">
		<stop  offset="0" style="stop-color:#368688"/>
		<stop  offset="0.03" style="stop-color:#8CCDCF"/>
		<stop  offset="0.08" style="stop-color:#49AFB2"/>
		<stop  offset="0.64" style="stop-color:#48ACAF"/>
		<stop  offset="0.95" style="stop-color:#46A8AB"/>
		<stop  offset="1" style="stop-color:#317C7E"/>
	</linearGradient>
	<path fill="url(#SVGID_14_)" d="M202.281,301.003h3.75v111h-3.75V301.003z"/>
	
		<linearGradient id="SVGID_15_" gradientUnits="userSpaceOnUse" x1="207.2261" y1="127.3037" x2="202.2261" y2="127.3037" gradientTransform="matrix(0.75 0 0 -0.75 61.7792 451.9806)">
		<stop  offset="0" style="stop-color:#368688"/>
		<stop  offset="0.03" style="stop-color:#8CCDCF"/>
		<stop  offset="0.08" style="stop-color:#49AFB2"/>
		<stop  offset="0.64" style="stop-color:#48ACAF"/>
		<stop  offset="0.95" style="stop-color:#46A8AB"/>
		<stop  offset="1" style="stop-color:#317C7E"/>
	</linearGradient>
	<path fill="url(#SVGID_15_)" d="M213.449,301.003h3.75v111h-3.75V301.003z"/>
	
		<linearGradient id="SVGID_16_" gradientUnits="userSpaceOnUse" x1="207.2256" y1="127.3037" x2="202.2256" y2="127.3037" gradientTransform="matrix(0.75 0 0 -0.75 72.9476 451.9806)">
		<stop  offset="0" style="stop-color:#368688"/>
		<stop  offset="0.03" style="stop-color:#8CCDCF"/>
		<stop  offset="0.08" style="stop-color:#49AFB2"/>
		<stop  offset="0.64" style="stop-color:#48ACAF"/>
		<stop  offset="0.95" style="stop-color:#46A8AB"/>
		<stop  offset="1" style="stop-color:#317C7E"/>
	</linearGradient>
	<path fill="url(#SVGID_16_)" d="M224.617,301.003h3.75v111h-3.75V301.003z"/>
	
		<linearGradient id="SVGID_17_" gradientUnits="userSpaceOnUse" x1="207.2256" y1="141.8047" x2="202.2256" y2="141.8047" gradientTransform="matrix(0.75 0 0 -0.75 84.1156 473.84)">
		<stop  offset="0" style="stop-color:#368688"/>
		<stop  offset="0.03" style="stop-color:#8CCDCF"/>
		<stop  offset="0.08" style="stop-color:#49AFB2"/>
		<stop  offset="0.64" style="stop-color:#48ACAF"/>
		<stop  offset="0.95" style="stop-color:#46A8AB"/>
		<stop  offset="1" style="stop-color:#317C7E"/>
	</linearGradient>
	<path fill="url(#SVGID_17_)" d="M235.785,322.863h3.75v89.25h-3.75V322.863z"/>
	
		<linearGradient id="SVGID_18_" gradientUnits="userSpaceOnUse" x1="207.2275" y1="141.8047" x2="202.2275" y2="141.8047" gradientTransform="matrix(0.75 0 0 -0.75 94.6219 473.84)">
		<stop  offset="0" style="stop-color:#368688"/>
		<stop  offset="0.03" style="stop-color:#8CCDCF"/>
		<stop  offset="0.08" style="stop-color:#49AFB2"/>
		<stop  offset="0.64" style="stop-color:#48ACAF"/>
		<stop  offset="0.95" style="stop-color:#46A8AB"/>
		<stop  offset="1" style="stop-color:#317C7E"/>
	</linearGradient>
	<path fill="url(#SVGID_18_)" d="M246.293,322.863h3.75v89.25h-3.75V322.863z"/>
	
		<linearGradient id="SVGID_19_" gradientUnits="userSpaceOnUse" x1="207.2236" y1="141.8047" x2="202.2236" y2="141.8047" gradientTransform="matrix(0.75 0 0 -0.75 106.0311 473.84)">
		<stop  offset="0" style="stop-color:#368688"/>
		<stop  offset="0.03" style="stop-color:#8CCDCF"/>
		<stop  offset="0.08" style="stop-color:#49AFB2"/>
		<stop  offset="0.64" style="stop-color:#48ACAF"/>
		<stop  offset="0.95" style="stop-color:#46A8AB"/>
		<stop  offset="1" style="stop-color:#317C7E"/>
	</linearGradient>
	<path fill="url(#SVGID_19_)" d="M257.699,322.863h3.75v89.25h-3.75V322.863z"/>
	
		<linearGradient id="SVGID_20_" gradientUnits="userSpaceOnUse" x1="207.2246" y1="141.8047" x2="202.2246" y2="141.8047" gradientTransform="matrix(0.75 0 0 -0.75 117.62 473.84)">
		<stop  offset="0" style="stop-color:#368688"/>
		<stop  offset="0.03" style="stop-color:#8CCDCF"/>
		<stop  offset="0.08" style="stop-color:#49AFB2"/>
		<stop  offset="0.64" style="stop-color:#48ACAF"/>
		<stop  offset="0.95" style="stop-color:#46A8AB"/>
		<stop  offset="1" style="stop-color:#317C7E"/>
	</linearGradient>
	<path fill="url(#SVGID_20_)" d="M269.289,322.863h3.75v89.25h-3.75V322.863z"/>
	
		<linearGradient id="SVGID_21_" gradientUnits="userSpaceOnUse" x1="207.2241" y1="141.8047" x2="202.2241" y2="141.8047" gradientTransform="matrix(0.75 0 0 -0.75 128.7885 473.84)">
		<stop  offset="0" style="stop-color:#368688"/>
		<stop  offset="0.03" style="stop-color:#8CCDCF"/>
		<stop  offset="0.08" style="stop-color:#49AFB2"/>
		<stop  offset="0.64" style="stop-color:#48ACAF"/>
		<stop  offset="0.95" style="stop-color:#46A8AB"/>
		<stop  offset="1" style="stop-color:#317C7E"/>
	</linearGradient>
	<path fill="url(#SVGID_21_)" d="M280.457,322.863h3.75v89.25h-3.75V322.863z"/>
	
		<linearGradient id="SVGID_22_" gradientUnits="userSpaceOnUse" x1="207.2241" y1="141.8047" x2="202.2241" y2="141.8047" gradientTransform="matrix(0.75 0 0 -0.75 139.9564 473.84)">
		<stop  offset="0" style="stop-color:#368688"/>
		<stop  offset="0.03" style="stop-color:#8CCDCF"/>
		<stop  offset="0.08" style="stop-color:#49AFB2"/>
		<stop  offset="0.64" style="stop-color:#48ACAF"/>
		<stop  offset="0.95" style="stop-color:#46A8AB"/>
		<stop  offset="1" style="stop-color:#317C7E"/>
	</linearGradient>
	<path fill="url(#SVGID_22_)" d="M291.625,322.863h3.75v89.25h-3.75V322.863z"/>
	
		<linearGradient id="SVGID_23_" gradientUnits="userSpaceOnUse" x1="207.2236" y1="141.8047" x2="202.2236" y2="141.8047" gradientTransform="matrix(0.75 0 0 -0.75 151.1249 473.84)">
		<stop  offset="0" style="stop-color:#368688"/>
		<stop  offset="0.03" style="stop-color:#8CCDCF"/>
		<stop  offset="0.08" style="stop-color:#49AFB2"/>
		<stop  offset="0.64" style="stop-color:#48ACAF"/>
		<stop  offset="0.95" style="stop-color:#46A8AB"/>
		<stop  offset="1" style="stop-color:#317C7E"/>
	</linearGradient>
	<path fill="url(#SVGID_23_)" d="M302.792,322.863h3.75v89.25h-3.75V322.863z"/>
	
		<linearGradient id="SVGID_24_" gradientUnits="userSpaceOnUse" x1="228.2256" y1="179.8047" x2="202.2256" y2="179.8047" gradientTransform="matrix(0.75 0 0 -0.75 -94.3766 686.465)">
		<stop  offset="0" style="stop-color:#368688"/>
		<stop  offset="0.03" style="stop-color:#8CCDCF"/>
		<stop  offset="0.08" style="stop-color:#49AFB2"/>
		<stop  offset="0.64" style="stop-color:#48ACAF"/>
		<stop  offset="0.95" style="stop-color:#46A8AB"/>
		<stop  offset="1" style="stop-color:#317C7E"/>
	</linearGradient>
	<path fill="url(#SVGID_24_)" d="M57.293,535.488h19.5v32.25h-19.5V535.488z"/>
	
		<linearGradient id="SVGID_25_" gradientUnits="userSpaceOnUse" x1="228.2246" y1="179.8047" x2="202.2246" y2="179.8047" gradientTransform="matrix(0.75 0 0 -0.75 337.7684 686.465)">
		<stop  offset="0" style="stop-color:#368688"/>
		<stop  offset="0.03" style="stop-color:#8CCDCF"/>
		<stop  offset="0.08" style="stop-color:#49AFB2"/>
		<stop  offset="0.64" style="stop-color:#48ACAF"/>
		<stop  offset="0.95" style="stop-color:#46A8AB"/>
		<stop  offset="1" style="stop-color:#317C7E"/>
	</linearGradient>
	<path fill="url(#SVGID_25_)" d="M489.437,535.488h19.5v32.25h-19.5V535.488z"/>
	
		<linearGradient id="SVGID_26_" gradientUnits="userSpaceOnUse" x1="432.2222" y1="201.3018" x2="432.2222" y2="182.3018" gradientTransform="matrix(0.75 0 0 -0.75 -59.6832 388.7228)">
		<stop  offset="0" style="stop-color:#3B9193"/>
		<stop  offset="0.15" style="stop-color:#67C3C5"/>
		<stop  offset="0.25" style="stop-color:#BBDEE0"/>
		<stop  offset="0.52" style="stop-color:#45A6A9"/>
		<stop  offset="0.69" style="stop-color:#3C9396"/>
		<stop  offset="0.8" style="stop-color:#388B8D"/>
		<stop  offset="0.97" style="stop-color:#358385"/>
		<stop  offset="1" style="stop-color:#3E9799"/>
	</linearGradient>
	<path fill="url(#SVGID_26_)" d="M91.984,237.746h345v14.25h-345V237.746z"/>
	
		<linearGradient id="SVGID_27_" gradientUnits="userSpaceOnUse" x1="280.2275" y1="172.3047" x2="202.2275" y2="172.3047" gradientTransform="matrix(0.75 0 0 -0.75 277.3446 385.3917)">
		<stop  offset="0" style="stop-color:#3B9193"/>
		<stop  offset="0.15" style="stop-color:#67C3C5"/>
		<stop  offset="0.25" style="stop-color:#BBDEE0"/>
		<stop  offset="0.52" style="stop-color:#45A6A9"/>
		<stop  offset="0.69" style="stop-color:#3C9396"/>
		<stop  offset="0.8" style="stop-color:#388B8D"/>
		<stop  offset="0.97" style="stop-color:#358385"/>
		<stop  offset="1" style="stop-color:#3E9799"/>
	</linearGradient>
	<path fill="url(#SVGID_27_)" d="M429.015,277.914h58.5v-43.5h-58.5V277.914z"/>
	
		<linearGradient id="SVGID_28_" gradientUnits="userSpaceOnUse" x1="360.2212" y1="96.8027" x2="202.2212" y2="96.8027" gradientTransform="matrix(0.75 0 0 -0.75 246.286 423.8282)">
		<stop  offset="0" style="stop-color:#538B8C"/>
		<stop  offset="0.03" style="stop-color:#A0D2D4"/>
		<stop  offset="0.08" style="stop-color:#6EB5B7"/>
		<stop  offset="0.64" style="stop-color:#6CB2B4"/>
		<stop  offset="0.95" style="stop-color:#6AAEB0"/>
		<stop  offset="1" style="stop-color:#4D8182"/>
	</linearGradient>
	<path fill="url(#SVGID_28_)" d="M397.953,272.852h118.5v156.75h-118.5V272.852z"/>
	
		<linearGradient id="SVGID_29_" gradientUnits="userSpaceOnUse" x1="360.2212" y1="139.3047" x2="202.2212" y2="139.3047" gradientTransform="matrix(0.75 0 0 -0.75 246.286 487.9142)">
		<stop  offset="0" style="stop-color:#368688"/>
		<stop  offset="0.03" style="stop-color:#8CCDCF"/>
		<stop  offset="0.08" style="stop-color:#49AFB2"/>
		<stop  offset="0.64" style="stop-color:#48ACAF"/>
		<stop  offset="0.95" style="stop-color:#46A8AB"/>
		<stop  offset="1" style="stop-color:#317C7E"/>
	</linearGradient>
	<path fill="url(#SVGID_29_)" d="M397.953,336.937h118.5v93h-118.5V336.937z"/>
	
		<radialGradient id="SVGID_30_" cx="232.3643" cy="171.103" r="42.6701" gradientTransform="matrix(0.75 0 0 -0.75 309.3788 435.3341)" gradientUnits="userSpaceOnUse">
		<stop  offset="0" style="stop-color:#76A2C9"/>
		<stop  offset="0.54" style="stop-color:#7EADD6"/>
		<stop  offset="0.74" style="stop-color:#B4CEEA"/>
		<stop  offset="0.91" style="stop-color:#76A2C9"/>
		<stop  offset="1" style="stop-color:#7EADD6"/>
	</radialGradient>
	<path fill="url(#SVGID_30_)" stroke="#5F89B9" stroke-width="0.25" stroke-linejoin="bevel" stroke-miterlimit="10" d="
		M461.046,306.855c0-12,10.121-22.5,22.605-22.5c12.645,0,22.605,10.141,22.605,22.652c-0.211,12.598-10.121,22.652-22.605,22.652
		c-12.855-0.305-22.605-10.145-22.605-22.652V306.855z"/>
	<path fill="#C6D5E8" stroke="#384E64" stroke-linejoin="bevel" stroke-miterlimit="10" d="M465.132,307.179
		c0-10.5,8.293-18.75,18.52-18.75c9.98,0,18.523,8.316,18.523,18.578c-0.293,9.922-8.293,18.578-18.523,18.578
		c-10.27,0.344-18.52-8.32-18.52-18.578V307.179z"/>
	<path fill="#E35020" d="M477.394,315.054c0,0,13.113-22.656,14.313-21.969c1.41,0.734-11.715,23.469-11.715,23.469L477.394,315.054
		z"/>
	<path fill="#4B6884" d="M480.687,307.035c0-1.5,1.328-3,2.965-3c1.535,0,2.965,1.332,2.965,2.973
		c0.07,1.527-1.324,2.969-2.965,2.969c-1.465,0.059-2.965-1.328-2.965-2.969V307.035z"/>
	<path fill="none" stroke="#000000" stroke-linejoin="bevel" stroke-miterlimit="10" d="M483.171,291.457l-0.008,3.75"/>
	<path fill="none" stroke="#000000" stroke-linejoin="bevel" stroke-miterlimit="10" d="M469.136,306.48l3.75,0.008"/>
	<path fill="none" stroke="#000000" stroke-linejoin="bevel" stroke-miterlimit="10" d="M494.972,306.48l3.75,0.008"/>
	<path fill="none" stroke="#000000" stroke-linejoin="bevel" stroke-miterlimit="10" d="M473.359,296.14l2.645,2.656"/>
	<path fill="none" stroke="#000000" stroke-linejoin="bevel" stroke-miterlimit="10" d="M493.984,296.14l-2.648,2.656"/>
	<path fill="none" stroke="#3F77A8" stroke-linejoin="bevel" stroke-miterlimit="10" d="M476.773,317.886h14.25
		c0.75,0,1.531,0.684,1.531,1.582c-0.031,1.418-0.727,1.902-1.625,1.902l-14.156,0.266c-0.75,0-1.559-0.996-1.559-1.895
		c0.059-1.105,0.73-1.902,1.629-1.902L476.773,317.886z"/>
	<path fill="#FFFFFF" fill-opacity="0.3804" d="M486.578,307.179c0-10.5-13.188-18.75-2.961-18.75
		c10.461,0,18.523,8.316,18.523,18.578c0.188,9.922-8.293,18.578-18.523,18.578c-10.539,0.344,3.25-8.051,3.25-18.309
		L486.578,307.179z"/>
	
		<radialGradient id="SVGID_31_" cx="232.3667" cy="171.103" r="42.668" gradientTransform="matrix(0.75 0 0 -0.75 256.8827 435.3341)" gradientUnits="userSpaceOnUse">
		<stop  offset="0" style="stop-color:#76A2C9"/>
		<stop  offset="0.54" style="stop-color:#7EADD6"/>
		<stop  offset="0.74" style="stop-color:#B4CEEA"/>
		<stop  offset="0.91" style="stop-color:#76A2C9"/>
		<stop  offset="1" style="stop-color:#7EADD6"/>
	</radialGradient>
	<path fill="url(#SVGID_31_)" stroke="#5F89B9" stroke-width="0.25" stroke-linejoin="bevel" stroke-miterlimit="10" d="
		M408.55,306.855c0-12,10.121-22.5,22.605-22.5c12.645,0,22.609,10.141,22.609,22.652c-0.215,12.598-10.121,22.652-22.609,22.652
		c-12.855-0.305-22.605-10.145-22.605-22.652V306.855z"/>
	<path fill="#C6D5E8" stroke="#384E64" stroke-linejoin="bevel" stroke-miterlimit="10" d="M412.636,307.179
		c0-10.5,8.293-18.75,18.52-18.75c9.98,0,18.523,8.316,18.523,18.578c-0.293,9.922-8.293,18.578-18.523,18.578
		c-10.27,0.344-18.52-8.32-18.52-18.578V307.179z"/>
	<path fill="#E35020" d="M424.898,315.054c0,0,13.113-22.656,14.313-21.969c1.41,0.734-11.715,23.469-11.715,23.469L424.898,315.054
		z"/>
	<path fill="#4B6884" d="M428.191,307.035c0-1.5,1.328-3,2.965-3c1.535,0,2.965,1.332,2.965,2.973
		c0.07,1.527-1.324,2.969-2.965,2.969c-1.465,0.059-2.965-1.328-2.965-2.969V307.035z"/>
	<path fill="none" stroke="#000000" stroke-linejoin="bevel" stroke-miterlimit="10" d="M430.675,291.457l-0.008,3.75"/>
	<path fill="none" stroke="#000000" stroke-linejoin="bevel" stroke-miterlimit="10" d="M416.64,306.48l3.75,0.008"/>
	<path fill="none" stroke="#000000" stroke-linejoin="bevel" stroke-miterlimit="10" d="M442.476,306.48l3.75,0.008"/>
	<path fill="none" stroke="#000000" stroke-linejoin="bevel" stroke-miterlimit="10" d="M420.863,296.14l2.645,2.656"/>
	<path fill="none" stroke="#000000" stroke-linejoin="bevel" stroke-miterlimit="10" d="M441.488,296.14l-2.648,2.656"/>
	<path fill="none" stroke="#3F77A8" stroke-linejoin="bevel" stroke-miterlimit="10" d="M424.277,317.886h14.25
		c0.75,0,1.531,0.684,1.531,1.582c-0.031,1.418-0.727,1.902-1.625,1.902l-14.156,0.266c-0.75,0-1.555-0.996-1.555-1.895
		c0.055-1.105,0.727-1.902,1.625-1.902L424.277,317.886z"/>
	<path fill="#FFFFFF" fill-opacity="0.3804" d="M434.082,307.179c0-10.5-13.188-18.75-2.961-18.75
		c10.461,0,18.523,8.316,18.523,18.578c0.188,9.922-8.293,18.578-18.523,18.578c-10.539,0.344,3.25-8.051,3.25-18.309
		L434.082,307.179z"/>
	
		<linearGradient id="SVGID_32_" gradientUnits="userSpaceOnUse" x1="226.2231" y1="179.3047" x2="202.2231" y2="179.3047" gradientTransform="matrix(0.75 0 0 -0.75 -77.1949 385.3917)">
		<stop  offset="0" style="stop-color:#368688"/>
		<stop  offset="0.03" style="stop-color:#8CCDCF"/>
		<stop  offset="0.08" style="stop-color:#49AFB2"/>
		<stop  offset="0.64" style="stop-color:#48ACAF"/>
		<stop  offset="0.95" style="stop-color:#46A8AB"/>
		<stop  offset="1" style="stop-color:#317C7E"/>
	</linearGradient>
	<path fill="url(#SVGID_32_)" d="M74.473,267.414h18v-33h-18V267.414z"/>
	
		<linearGradient id="SVGID_33_" gradientUnits="userSpaceOnUse" x1="288.7261" y1="201.3018" x2="288.7261" y2="158.3018" gradientTransform="matrix(0.75 0 0 -0.75 32.1732 423.8282)">
		<stop  offset="0" style="stop-color:#368688"/>
		<stop  offset="0.03" style="stop-color:#8CCDCF"/>
		<stop  offset="0.08" style="stop-color:#49AFB2"/>
		<stop  offset="0.64" style="stop-color:#48ACAF"/>
		<stop  offset="0.95" style="stop-color:#46A8AB"/>
		<stop  offset="1" style="stop-color:#317C7E"/>
	</linearGradient>
	<path fill="url(#SVGID_33_)" d="M183.844,305.101h129.75v-32.25h-129.75V305.101z"/>
	
		<linearGradient id="SVGID_34_" gradientUnits="userSpaceOnUse" x1="218.7236" y1="201.3018" x2="218.7236" y2="158.3018" gradientTransform="matrix(0.75 0 0 -0.75 162.3553 423.8282)">
		<stop  offset="0" style="stop-color:#368688"/>
		<stop  offset="0.03" style="stop-color:#8CCDCF"/>
		<stop  offset="0.08" style="stop-color:#49AFB2"/>
		<stop  offset="0.64" style="stop-color:#48ACAF"/>
		<stop  offset="0.95" style="stop-color:#46A8AB"/>
		<stop  offset="1" style="stop-color:#317C7E"/>
	</linearGradient>
	<path fill="url(#SVGID_34_)" d="M314.023,305.101h24.75v-32.25h-24.75V305.101z"/>
	
		<linearGradient id="SVGID_35_" gradientUnits="userSpaceOnUse" x1="205.7236" y1="201.3037" x2="205.7236" y2="31.3037" gradientTransform="matrix(0.75 0 0 -0.75 -112.0543 562.4337)">
		<stop  offset="0" style="stop-color:#308385"/>
		<stop  offset="0.15" style="stop-color:#5EB2B4"/>
		<stop  offset="0.25" style="stop-color:#B8D7D7"/>
		<stop  offset="0.52" style="stop-color:#399698"/>
		<stop  offset="0.69" style="stop-color:#318587"/>
		<stop  offset="0.8" style="stop-color:#2E7D7F"/>
		<stop  offset="0.97" style="stop-color:#2B7678"/>
		<stop  offset="1" style="stop-color:#33888A"/>
	</linearGradient>
	<path fill="url(#SVGID_35_)" d="M39.613,411.457h5.25v127.5h-5.25V411.457z"/>
	
		<linearGradient id="SVGID_36_" gradientUnits="userSpaceOnUse" x1="205.7241" y1="201.3047" x2="205.7241" y2="31.3047" gradientTransform="matrix(0.75 0 0 -0.75 370.0585 562.4337)">
		<stop  offset="0" style="stop-color:#308385"/>
		<stop  offset="0.15" style="stop-color:#5EB2B4"/>
		<stop  offset="0.25" style="stop-color:#B8D7D7"/>
		<stop  offset="0.52" style="stop-color:#399698"/>
		<stop  offset="0.69" style="stop-color:#318587"/>
		<stop  offset="0.8" style="stop-color:#2E7D7F"/>
		<stop  offset="0.97" style="stop-color:#2B7678"/>
		<stop  offset="1" style="stop-color:#33888A"/>
	</linearGradient>
	<path fill="url(#SVGID_36_)" d="M521.726,411.457h5.25v127.5h-5.25V411.457z"/>
	
		<linearGradient id="SVGID_37_" gradientUnits="userSpaceOnUse" x1="204.7275" y1="566.6226" x2="204.7275" y2="543.6226" gradientTransform="matrix(0.75 0 0 0.75 39.4427 -13.0187)">
		<stop  offset="0" style="stop-color:#368688"/>
		<stop  offset="0.03" style="stop-color:#8CCDCF"/>
		<stop  offset="0.08" style="stop-color:#49AFB2"/>
		<stop  offset="0.64" style="stop-color:#48ACAF"/>
		<stop  offset="0.95" style="stop-color:#46A8AB"/>
		<stop  offset="1" style="stop-color:#317C7E"/>
	</linearGradient>
	<path fill="url(#SVGID_37_)" d="M191.113,411.949h3.75v-17.25h-3.75V411.949z"/>
	
		<linearGradient id="SVGID_38_" gradientUnits="userSpaceOnUse" x1="204.7271" y1="566.6226" x2="204.7271" y2="543.6226" gradientTransform="matrix(0.75 0 0 0.75 50.6112 -13.0187)">
		<stop  offset="0" style="stop-color:#3A7B7C"/>
		<stop  offset="0.03" style="stop-color:#8FC3C4"/>
		<stop  offset="0.08" style="stop-color:#4FA1A3"/>
		<stop  offset="0.64" style="stop-color:#4D9EA0"/>
		<stop  offset="0.95" style="stop-color:#4B9B9C"/>
		<stop  offset="1" style="stop-color:#367273"/>
	</linearGradient>
	<path fill="url(#SVGID_38_)" d="M202.281,411.949h3.75v-17.25h-3.75V411.949z"/>
	
		<linearGradient id="SVGID_39_" gradientUnits="userSpaceOnUse" x1="204.7271" y1="566.6226" x2="204.7271" y2="543.6226" gradientTransform="matrix(0.75 0 0 0.75 61.7792 -13.0187)">
		<stop  offset="0" style="stop-color:#3A7B7C"/>
		<stop  offset="0.03" style="stop-color:#8FC3C4"/>
		<stop  offset="0.08" style="stop-color:#4FA1A3"/>
		<stop  offset="0.64" style="stop-color:#4D9EA0"/>
		<stop  offset="0.95" style="stop-color:#4B9B9C"/>
		<stop  offset="1" style="stop-color:#367273"/>
	</linearGradient>
	<path fill="url(#SVGID_39_)" d="M213.449,411.949h3.75v-17.25h-3.75V411.949z"/>
	
		<linearGradient id="SVGID_40_" gradientUnits="userSpaceOnUse" x1="204.7266" y1="566.6226" x2="204.7266" y2="543.6226" gradientTransform="matrix(0.75 0 0 0.75 72.9476 -13.0187)">
		<stop  offset="0" style="stop-color:#3A7B7C"/>
		<stop  offset="0.03" style="stop-color:#8FC3C4"/>
		<stop  offset="0.08" style="stop-color:#4FA1A3"/>
		<stop  offset="0.64" style="stop-color:#4D9EA0"/>
		<stop  offset="0.95" style="stop-color:#4B9B9C"/>
		<stop  offset="1" style="stop-color:#367273"/>
	</linearGradient>
	<path fill="url(#SVGID_40_)" d="M224.617,411.949h3.75v-17.25h-3.75V411.949z"/>
	
		<linearGradient id="SVGID_41_" gradientUnits="userSpaceOnUse" x1="204.7266" y1="566.6255" x2="204.7266" y2="543.6255" gradientTransform="matrix(0.75 0 0 0.75 84.1156 -12.9503)">
		<stop  offset="0" style="stop-color:#3A7B7C"/>
		<stop  offset="0.03" style="stop-color:#8FC3C4"/>
		<stop  offset="0.08" style="stop-color:#4FA1A3"/>
		<stop  offset="0.64" style="stop-color:#4D9EA0"/>
		<stop  offset="0.95" style="stop-color:#4B9B9C"/>
		<stop  offset="1" style="stop-color:#367273"/>
	</linearGradient>
	<path fill="url(#SVGID_41_)" d="M235.785,412.019h3.75v-17.25h-3.75V412.019z"/>
	
		<linearGradient id="SVGID_42_" gradientUnits="userSpaceOnUse" x1="204.7285" y1="566.6255" x2="204.7285" y2="543.6255" gradientTransform="matrix(0.75 0 0 0.75 94.6219 -12.9503)">
		<stop  offset="0" style="stop-color:#3A7B7C"/>
		<stop  offset="0.03" style="stop-color:#8FC3C4"/>
		<stop  offset="0.08" style="stop-color:#4FA1A3"/>
		<stop  offset="0.64" style="stop-color:#4D9EA0"/>
		<stop  offset="0.95" style="stop-color:#4B9B9C"/>
		<stop  offset="1" style="stop-color:#367273"/>
	</linearGradient>
	<path fill="url(#SVGID_42_)" d="M246.293,412.019h3.75v-17.25h-3.75V412.019z"/>
	
		<linearGradient id="SVGID_43_" gradientUnits="userSpaceOnUse" x1="204.7251" y1="566.6255" x2="204.7251" y2="543.6255" gradientTransform="matrix(0.75 0 0 0.75 106.0306 -12.9503)">
		<stop  offset="0" style="stop-color:#3A7B7C"/>
		<stop  offset="0.03" style="stop-color:#8FC3C4"/>
		<stop  offset="0.08" style="stop-color:#4FA1A3"/>
		<stop  offset="0.64" style="stop-color:#4D9EA0"/>
		<stop  offset="0.95" style="stop-color:#4B9B9C"/>
		<stop  offset="1" style="stop-color:#367273"/>
	</linearGradient>
	<path fill="url(#SVGID_43_)" d="M257.699,412.019h3.75v-17.25h-3.75V412.019z"/>
	
		<linearGradient id="SVGID_44_" gradientUnits="userSpaceOnUse" x1="204.7256" y1="566.6255" x2="204.7256" y2="543.6255" gradientTransform="matrix(0.75 0 0 0.75 117.62 -12.9503)">
		<stop  offset="0" style="stop-color:#3A7B7C"/>
		<stop  offset="0.03" style="stop-color:#8FC3C4"/>
		<stop  offset="0.08" style="stop-color:#4FA1A3"/>
		<stop  offset="0.64" style="stop-color:#4D9EA0"/>
		<stop  offset="0.95" style="stop-color:#4B9B9C"/>
		<stop  offset="1" style="stop-color:#367273"/>
	</linearGradient>
	<path fill="url(#SVGID_44_)" d="M269.289,412.019h3.75v-17.25h-3.75V412.019z"/>
	
		<linearGradient id="SVGID_45_" gradientUnits="userSpaceOnUse" x1="204.7251" y1="566.6255" x2="204.7251" y2="543.6255" gradientTransform="matrix(0.75 0 0 0.75 128.7885 -12.9503)">
		<stop  offset="0" style="stop-color:#3A7B7C"/>
		<stop  offset="0.03" style="stop-color:#8FC3C4"/>
		<stop  offset="0.08" style="stop-color:#4FA1A3"/>
		<stop  offset="0.64" style="stop-color:#4D9EA0"/>
		<stop  offset="0.95" style="stop-color:#4B9B9C"/>
		<stop  offset="1" style="stop-color:#367273"/>
	</linearGradient>
	<path fill="url(#SVGID_45_)" d="M280.457,412.019h3.75v-17.25h-3.75V412.019z"/>
	
		<linearGradient id="SVGID_46_" gradientUnits="userSpaceOnUse" x1="204.7251" y1="566.6255" x2="204.7251" y2="543.6255" gradientTransform="matrix(0.75 0 0 0.75 139.9564 -12.9503)">
		<stop  offset="0" style="stop-color:#3A7B7C"/>
		<stop  offset="0.03" style="stop-color:#8FC3C4"/>
		<stop  offset="0.08" style="stop-color:#4FA1A3"/>
		<stop  offset="0.64" style="stop-color:#4D9EA0"/>
		<stop  offset="0.95" style="stop-color:#4B9B9C"/>
		<stop  offset="1" style="stop-color:#367273"/>
	</linearGradient>
	<path fill="url(#SVGID_46_)" d="M291.625,412.019h3.75v-17.25h-3.75V412.019z"/>
	
		<linearGradient id="SVGID_47_" gradientUnits="userSpaceOnUse" x1="204.7246" y1="566.6255" x2="204.7246" y2="543.6255" gradientTransform="matrix(0.75 0 0 0.75 151.1249 -12.9503)">
		<stop  offset="0" style="stop-color:#3A7B7C"/>
		<stop  offset="0.03" style="stop-color:#8FC3C4"/>
		<stop  offset="0.08" style="stop-color:#4FA1A3"/>
		<stop  offset="0.64" style="stop-color:#4D9EA0"/>
		<stop  offset="0.95" style="stop-color:#4B9B9C"/>
		<stop  offset="1" style="stop-color:#367273"/>
	</linearGradient>
	<path fill="url(#SVGID_47_)" d="M302.792,412.019h3.75v-17.25h-3.75V412.019z"/>
	
		<linearGradient id="SVGID_48_" gradientUnits="userSpaceOnUse" x1="204.7271" y1="566.6235" x2="204.7271" y2="519.6235" gradientTransform="matrix(0.75 0 0 0.75 39.4432 -84.6749)">
		<stop  offset="0" style="stop-color:#397274"/>
		<stop  offset="0.03" style="stop-color:#8EBABC"/>
		<stop  offset="0.08" style="stop-color:#4D9699"/>
		<stop  offset="0.64" style="stop-color:#4B9396"/>
		<stop  offset="0.95" style="stop-color:#499093"/>
		<stop  offset="1" style="stop-color:#346A6C"/>
	</linearGradient>
	<path fill="url(#SVGID_48_)" d="M191.113,340.292h3.75v-35.25h-3.75V340.292z"/>
	
		<linearGradient id="SVGID_49_" gradientUnits="userSpaceOnUse" x1="204.7266" y1="566.6235" x2="204.7266" y2="519.6235" gradientTransform="matrix(0.75 0 0 0.75 50.6117 -84.6749)">
		<stop  offset="0" style="stop-color:#397274"/>
		<stop  offset="0.03" style="stop-color:#8EBABC"/>
		<stop  offset="0.08" style="stop-color:#4D9699"/>
		<stop  offset="0.64" style="stop-color:#4B9396"/>
		<stop  offset="0.95" style="stop-color:#499093"/>
		<stop  offset="1" style="stop-color:#346A6C"/>
	</linearGradient>
	<path fill="url(#SVGID_49_)" d="M202.281,340.292h3.75v-35.25h-3.75V340.292z"/>
	
		<linearGradient id="SVGID_50_" gradientUnits="userSpaceOnUse" x1="204.7266" y1="566.6235" x2="204.7266" y2="519.6235" gradientTransform="matrix(0.75 0 0 0.75 61.7797 -84.6749)">
		<stop  offset="0" style="stop-color:#397274"/>
		<stop  offset="0.03" style="stop-color:#8EBABC"/>
		<stop  offset="0.08" style="stop-color:#4D9699"/>
		<stop  offset="0.64" style="stop-color:#4B9396"/>
		<stop  offset="0.95" style="stop-color:#499093"/>
		<stop  offset="1" style="stop-color:#346A6C"/>
	</linearGradient>
	<path fill="url(#SVGID_50_)" d="M213.449,340.292h3.75v-35.25h-3.75V340.292z"/>
	
		<linearGradient id="SVGID_51_" gradientUnits="userSpaceOnUse" x1="204.7256" y1="566.6235" x2="204.7256" y2="519.6235" gradientTransform="matrix(0.75 0 0 0.75 72.9481 -84.6749)">
		<stop  offset="0" style="stop-color:#397274"/>
		<stop  offset="0.03" style="stop-color:#8EBABC"/>
		<stop  offset="0.08" style="stop-color:#4D9699"/>
		<stop  offset="0.64" style="stop-color:#4B9396"/>
		<stop  offset="0.95" style="stop-color:#499093"/>
		<stop  offset="1" style="stop-color:#346A6C"/>
	</linearGradient>
	<path fill="url(#SVGID_51_)" d="M224.617,340.292h3.75v-35.25h-3.75V340.292z"/>
	
		<linearGradient id="SVGID_52_" gradientUnits="userSpaceOnUse" x1="204.7256" y1="566.6235" x2="204.7256" y2="519.6235" gradientTransform="matrix(0.75 0 0 0.75 84.1161 -84.5343)">
		<stop  offset="0" style="stop-color:#397274"/>
		<stop  offset="0.03" style="stop-color:#8EBABC"/>
		<stop  offset="0.08" style="stop-color:#4D9699"/>
		<stop  offset="0.64" style="stop-color:#4B9396"/>
		<stop  offset="0.95" style="stop-color:#499093"/>
		<stop  offset="1" style="stop-color:#346A6C"/>
	</linearGradient>
	<path fill="url(#SVGID_52_)" d="M235.785,340.433h3.75v-35.25h-3.75V340.433z"/>
	
		<linearGradient id="SVGID_53_" gradientUnits="userSpaceOnUse" x1="204.728" y1="566.6235" x2="204.728" y2="519.6235" gradientTransform="matrix(0.75 0 0 0.75 94.6224 -84.5343)">
		<stop  offset="0" style="stop-color:#397274"/>
		<stop  offset="0.03" style="stop-color:#8EBABC"/>
		<stop  offset="0.08" style="stop-color:#4D9699"/>
		<stop  offset="0.64" style="stop-color:#4B9396"/>
		<stop  offset="0.95" style="stop-color:#499093"/>
		<stop  offset="1" style="stop-color:#346A6C"/>
	</linearGradient>
	<path fill="url(#SVGID_53_)" d="M246.293,340.433h3.75v-35.25h-3.75V340.433z"/>
	
		<linearGradient id="SVGID_54_" gradientUnits="userSpaceOnUse" x1="204.7246" y1="566.6235" x2="204.7246" y2="519.6235" gradientTransform="matrix(0.75 0 0 0.75 106.0311 -84.5343)">
		<stop  offset="0" style="stop-color:#397274"/>
		<stop  offset="0.03" style="stop-color:#8EBABC"/>
		<stop  offset="0.08" style="stop-color:#4D9699"/>
		<stop  offset="0.64" style="stop-color:#4B9396"/>
		<stop  offset="0.95" style="stop-color:#499093"/>
		<stop  offset="1" style="stop-color:#346A6C"/>
	</linearGradient>
	<path fill="url(#SVGID_54_)" d="M257.699,340.433h3.75v-35.25h-3.75V340.433z"/>
	
		<linearGradient id="SVGID_55_" gradientUnits="userSpaceOnUse" x1="204.7246" y1="566.6235" x2="204.7246" y2="519.6235" gradientTransform="matrix(0.75 0 0 0.75 117.621 -84.5343)">
		<stop  offset="0" style="stop-color:#397274"/>
		<stop  offset="0.03" style="stop-color:#8EBABC"/>
		<stop  offset="0.08" style="stop-color:#4D9699"/>
		<stop  offset="0.64" style="stop-color:#4B9396"/>
		<stop  offset="0.95" style="stop-color:#499093"/>
		<stop  offset="1" style="stop-color:#346A6C"/>
	</linearGradient>
	<path fill="url(#SVGID_55_)" d="M269.289,340.433h3.75v-35.25h-3.75V340.433z"/>
	
		<linearGradient id="SVGID_56_" gradientUnits="userSpaceOnUse" x1="204.7246" y1="566.6235" x2="204.7246" y2="519.6235" gradientTransform="matrix(0.75 0 0 0.75 128.7889 -84.5343)">
		<stop  offset="0" style="stop-color:#397274"/>
		<stop  offset="0.03" style="stop-color:#8EBABC"/>
		<stop  offset="0.08" style="stop-color:#4D9699"/>
		<stop  offset="0.64" style="stop-color:#4B9396"/>
		<stop  offset="0.95" style="stop-color:#499093"/>
		<stop  offset="1" style="stop-color:#346A6C"/>
	</linearGradient>
	<path fill="url(#SVGID_56_)" d="M280.457,340.433h3.75v-35.25h-3.75V340.433z"/>
	
		<linearGradient id="SVGID_57_" gradientUnits="userSpaceOnUse" x1="204.7246" y1="566.6235" x2="204.7246" y2="519.6235" gradientTransform="matrix(0.75 0 0 0.75 139.9569 -84.5343)">
		<stop  offset="0" style="stop-color:#397274"/>
		<stop  offset="0.03" style="stop-color:#8EBABC"/>
		<stop  offset="0.08" style="stop-color:#4D9699"/>
		<stop  offset="0.64" style="stop-color:#4B9396"/>
		<stop  offset="0.95" style="stop-color:#499093"/>
		<stop  offset="1" style="stop-color:#346A6C"/>
	</linearGradient>
	<path fill="url(#SVGID_57_)" d="M291.625,340.433h3.75v-35.25h-3.75V340.433z"/>
	
		<linearGradient id="SVGID_58_" gradientUnits="userSpaceOnUse" x1="204.7246" y1="566.6235" x2="204.7246" y2="519.6235" gradientTransform="matrix(0.75 0 0 0.75 151.1249 -84.5343)">
		<stop  offset="0" style="stop-color:#397274"/>
		<stop  offset="0.03" style="stop-color:#8EBABC"/>
		<stop  offset="0.08" style="stop-color:#4D9699"/>
		<stop  offset="0.64" style="stop-color:#4B9396"/>
		<stop  offset="0.95" style="stop-color:#499093"/>
		<stop  offset="1" style="stop-color:#346A6C"/>
	</linearGradient>
	<path fill="url(#SVGID_58_)" d="M302.792,340.433h3.75v-35.25h-3.75V340.433z"/>
	
		<linearGradient id="SVGID_59_" gradientUnits="userSpaceOnUse" x1="307.4624" y1="159.7808" x2="202.2231" y2="159.7807" gradientTransform="matrix(0.75 0 0 -0.75 77.1522 411.9064)">
		<stop  offset="0" style="stop-color:#368688"/>
		<stop  offset="0.03" style="stop-color:#8CCDCF"/>
		<stop  offset="0.08" style="stop-color:#49AFB2"/>
		<stop  offset="0.64" style="stop-color:#48ACAF"/>
		<stop  offset="0.95" style="stop-color:#46A8AB"/>
		<stop  offset="1" style="stop-color:#317C7E"/>
	</linearGradient>
	<path fill="url(#SVGID_59_)" d="M230.32,260.93h75.75c0.75,0,1.68,0.711,1.68,1.59l-0.18,59.16c0,0.75-0.531,1.535-1.406,1.535
		l-75.843-0.035c-0.75,0-1.5-0.699-1.5-1.578V262.43c0-0.75,0.668-1.5,1.547-1.5H230.32z"/>
	
		<linearGradient id="SVGID_60_" gradientUnits="userSpaceOnUse" x1="274.4209" y1="185.8306" x2="202.2236" y2="185.8306" gradientTransform="matrix(0.75 0 0 -0.75 97.9686 388.4327)">
		<stop  offset="0" style="stop-color:#368688"/>
		<stop  offset="0.03" style="stop-color:#8CCDCF"/>
		<stop  offset="0.08" style="stop-color:#49AFB2"/>
		<stop  offset="0.64" style="stop-color:#48ACAF"/>
		<stop  offset="0.95" style="stop-color:#46A8AB"/>
		<stop  offset="1" style="stop-color:#317C7E"/>
	</linearGradient>
	<path fill="url(#SVGID_60_)" d="M251.137,237.457h51c0.75,0,1.648,0.668,1.648,1.547l-0.148,21.703h-54v-21.75
		c0-0.75,0.672-1.543,1.547-1.543L251.137,237.457z"/>
	<path fill="#FFFFFF" fill-opacity="0.2431" d="M240.531,272.199h55.5v39.75h-55.5V272.199z"/>
	
		<linearGradient id="SVGID_61_" gradientUnits="userSpaceOnUse" x1="259.7227" y1="201.3066" x2="259.7227" y2="136.3057" gradientTransform="matrix(0.75 0 0 -0.75 263.6327 504.9708)">
		<stop  offset="0" style="stop-color:#538B8C"/>
		<stop  offset="0.03" style="stop-color:#A0D2D4"/>
		<stop  offset="0.08" style="stop-color:#6EB5B7"/>
		<stop  offset="0.64" style="stop-color:#6CB2B4"/>
		<stop  offset="0.95" style="stop-color:#6AAEB0"/>
		<stop  offset="1" style="stop-color:#4D8182"/>
	</linearGradient>
	<path fill="url(#SVGID_61_)" d="M415.3,353.992h86.25v48.75H415.3V353.992z"/>
	
		<linearGradient id="SVGID_62_" gradientUnits="userSpaceOnUse" x1="218.3174" y1="201.3037" x2="218.3174" y2="179.3037" gradientTransform="matrix(0.75 0 0 -0.75 277.2206 520.4103)">
		<stop  offset="0" style="stop-color:#368688"/>
		<stop  offset="0.03" style="stop-color:#8CCDCF"/>
		<stop  offset="0.08" style="stop-color:#49AFB2"/>
		<stop  offset="0.64" style="stop-color:#48ACAF"/>
		<stop  offset="0.95" style="stop-color:#46A8AB"/>
		<stop  offset="1" style="stop-color:#317C7E"/>
	</linearGradient>
	<path fill="url(#SVGID_62_)" d="M428.89,369.433h24c0,0,0.137,0.133,0.137,0.316l-0.137,15.434c0,0.75-0.031,0.68-0.215,0.68
		l-23.785,0.07c0,0,0-0.219,0-0.402V369.433c0,0,0.148,0,0.332,0H428.89z"/>
	
		<linearGradient id="SVGID_63_" gradientUnits="userSpaceOnUse" x1="214.7251" y1="201.3037" x2="214.7251" y2="188.3037" gradientTransform="matrix(0.75 0 0 -0.75 280.0067 523.8439)">
		<stop  offset="0" style="stop-color:#3D3B3B"/>
		<stop  offset="0.03" style="stop-color:#908F8F"/>
		<stop  offset="0.05" style="stop-color:#514F4F"/>
		<stop  offset="0.64" style="stop-color:#504E4E"/>
		<stop  offset="0.95" style="stop-color:#4E4C4C"/>
		<stop  offset="1" style="stop-color:#383636"/>
	</linearGradient>
	<path fill="url(#SVGID_63_)" d="M431.675,372.867h18.75v9.75h-18.75V372.867z"/>
	
		<linearGradient id="SVGID_64_" gradientUnits="userSpaceOnUse" x1="218.3149" y1="201.3047" x2="218.3149" y2="179.3037" gradientTransform="matrix(0.75 0 0 -0.75 309.6366 520.4103)">
		<stop  offset="0" style="stop-color:#368688"/>
		<stop  offset="0.03" style="stop-color:#8CCDCF"/>
		<stop  offset="0.08" style="stop-color:#49AFB2"/>
		<stop  offset="0.64" style="stop-color:#48ACAF"/>
		<stop  offset="0.95" style="stop-color:#46A8AB"/>
		<stop  offset="1" style="stop-color:#317C7E"/>
	</linearGradient>
	<path fill="url(#SVGID_64_)" d="M461.304,369.433h24c0,0,0.137,0.133,0.137,0.316l-0.137,15.434c0,0.75-0.031,0.68-0.215,0.68
		l-23.785,0.07c0,0,0-0.219,0-0.402V369.433c0,0,0.148,0,0.332,0H461.304z"/>
	
		<linearGradient id="SVGID_65_" gradientUnits="userSpaceOnUse" x1="214.7236" y1="201.3047" x2="214.7236" y2="188.3037" gradientTransform="matrix(0.75 0 0 -0.75 312.4218 523.8439)">
		<stop  offset="0" style="stop-color:#3D3B3B"/>
		<stop  offset="0.03" style="stop-color:#908F8F"/>
		<stop  offset="0.05" style="stop-color:#514F4F"/>
		<stop  offset="0.64" style="stop-color:#504E4E"/>
		<stop  offset="0.95" style="stop-color:#4E4C4C"/>
		<stop  offset="1" style="stop-color:#383636"/>
	</linearGradient>
	<path fill="url(#SVGID_65_)" d="M464.089,372.867h18.75v9.75h-18.75V372.867z"/>
</g>
</svg>
