<?xml version="1.0" encoding="utf-8"?>
<!-- Generator: Adobe Illustrator 16.0.0, SVG Export Plug-In . SVG Version: 6.00 Build 0)  -->
<!DOCTYPE svg PUBLIC "-//W3C//DTD SVG 1.1//EN" "http://www.w3.org/Graphics/SVG/1.1/DTD/svg11.dtd">
<svg preserveAspectRatio="none"   version="1.1" id="图层_1" xmlns="http://www.w3.org/2000/svg" xmlns:xlink="http://www.w3.org/1999/xlink" x="0px" y="0px"
	 width="566.964px" height="98.355px" viewBox="-0.023 468 566.964 98.355" enable-background="new -0.023 468 566.964 98.355"
	 xml:space="preserve">
<g id="surface291">
	
		<linearGradient id="SVGID_1_" gradientUnits="userSpaceOnUse" x1="214.7275" y1="201.3057" x2="214.7275" y2="145.3057" gradientTransform="matrix(0.75 0 0 -0.75 -37.3068 647.2374)">
		<stop  offset="0" style="stop-color:#C7AD87"/>
		<stop  offset="0.15" style="stop-color:#FFE6C6"/>
		<stop  offset="0.25" style="stop-color:#FFE8CA"/>
		<stop  offset="0.52" style="stop-color:#DFC297"/>
		<stop  offset="0.69" style="stop-color:#C7AD86"/>
		<stop  offset="0.8" style="stop-color:#BCA37E"/>
		<stop  offset="0.92" style="stop-color:#B19A77"/>
	</linearGradient>
	<path fill="url(#SVGID_1_)" d="M133.113,496.257h-18.75v42h18.75V496.257z"/>
	
		<linearGradient id="SVGID_2_" gradientUnits="userSpaceOnUse" x1="218.2285" y1="201.3037" x2="218.2285" y2="92.3037" gradientTransform="matrix(0.75 0 0 -0.75 -61.0377 627.1681)">
		<stop  offset="0" style="stop-color:#C7AD87"/>
		<stop  offset="0.15" style="stop-color:#FFE6C6"/>
		<stop  offset="0.25" style="stop-color:#FFE8CA"/>
		<stop  offset="0.52" style="stop-color:#DFC297"/>
		<stop  offset="0.69" style="stop-color:#C7AD86"/>
		<stop  offset="0.8" style="stop-color:#BCA37E"/>
		<stop  offset="0.92" style="stop-color:#B19A77"/>
	</linearGradient>
	<path fill="url(#SVGID_2_)" d="M114.633,476.191h-24v81.75h24V476.191z"/>
	
		<linearGradient id="SVGID_3_" gradientUnits="userSpaceOnUse" x1="205.2261" y1="201.3037" x2="205.2261" y2="132.3037" gradientTransform="matrix(0.75 0 0 -0.75 -20.1456 642.255)">
		<stop  offset="0" style="stop-color:#C7AD87"/>
		<stop  offset="0.15" style="stop-color:#FFE6C6"/>
		<stop  offset="0.25" style="stop-color:#FFE8CA"/>
		<stop  offset="0.52" style="stop-color:#DFC297"/>
		<stop  offset="0.69" style="stop-color:#C7AD86"/>
		<stop  offset="0.8" style="stop-color:#BCA37E"/>
		<stop  offset="0.92" style="stop-color:#B19A77"/>
	</linearGradient>
	<path fill="url(#SVGID_3_)" d="M136.023,491.277h-4.5v51.75h4.5V491.277z"/>
	
		<linearGradient id="SVGID_4_" gradientUnits="userSpaceOnUse" x1="472.7261" y1="201.3047" x2="472.7261" y2="78.3037" gradientTransform="matrix(0.75 0 0 -0.75 -2.8922 622.1691)">
		<stop  offset="0" style="stop-color:#C7AD87"/>
		<stop  offset="0.15" style="stop-color:#FFE6C6"/>
		<stop  offset="0.25" style="stop-color:#FFE8CA"/>
		<stop  offset="0.52" style="stop-color:#DFC297"/>
		<stop  offset="0.69" style="stop-color:#C7AD86"/>
		<stop  offset="0.8" style="stop-color:#BCA37E"/>
		<stop  offset="0.92" style="stop-color:#B19A77"/>
	</linearGradient>
	<path fill="url(#SVGID_4_)" d="M148.777,471.191h405.75v92.25h-405.75V471.191z"/>
	
		<linearGradient id="SVGID_5_" gradientUnits="userSpaceOnUse" x1="206.2231" y1="201.3076" x2="206.2231" y2="78.3076" gradientTransform="matrix(0.75 0 0 -0.75 -15.5104 621.9679)">
		<stop  offset="0" style="stop-color:#C7AD87"/>
		<stop  offset="0.15" style="stop-color:#FFE6C6"/>
		<stop  offset="0.25" style="stop-color:#FFE8CA"/>
		<stop  offset="0.52" style="stop-color:#DFC297"/>
		<stop  offset="0.69" style="stop-color:#C7AD86"/>
		<stop  offset="0.8" style="stop-color:#BCA37E"/>
		<stop  offset="0.92" style="stop-color:#B19A77"/>
	</linearGradient>
	<path fill="url(#SVGID_5_)" d="M139.16,470.988h3v92.25h-3c-1.5,0-3.008-1.367-3.008-3l0.008-86.25c0-1.5,1.34-3,3.008-3H139.16z"
		/>
	
		<linearGradient id="SVGID_6_" gradientUnits="userSpaceOnUse" x1="208.1953" y1="201.3057" x2="208.1953" y2="78.3057" gradientTransform="matrix(0.75 0 0 -0.75 -10.8214 621.9591)">
		<stop  offset="0" style="stop-color:#9F8867"/>
		<stop  offset="0.15" style="stop-color:#DABE97"/>
		<stop  offset="0.25" style="stop-color:#EADCCB"/>
		<stop  offset="0.52" style="stop-color:#BCA27B"/>
		<stop  offset="0.69" style="stop-color:#A78F6D"/>
		<stop  offset="0.8" style="stop-color:#9E8766"/>
		<stop  offset="0.92" style="stop-color:#957F60"/>
		<stop  offset="1" style="stop-color:#AB936F"/>
	</linearGradient>
	<path fill="url(#SVGID_6_)" d="M140.848,470.98h9v92.25h-9l-0.047-92.25H140.848z"/>
	
		<linearGradient id="SVGID_7_" gradientUnits="userSpaceOnUse" x1="206.7202" y1="201.3037" x2="206.7202" y2="70.1631" gradientTransform="matrix(0.75 0 0 -0.75 -9.483 618.9777)">
		<stop  offset="0" style="stop-color:#C7AD87"/>
		<stop  offset="0.15" style="stop-color:#FFE6C6"/>
		<stop  offset="0.25" style="stop-color:#FFE8CA"/>
		<stop  offset="0.52" style="stop-color:#DFC297"/>
		<stop  offset="0.69" style="stop-color:#C7AD86"/>
		<stop  offset="0.8" style="stop-color:#BCA37E"/>
		<stop  offset="0.92" style="stop-color:#B19A77"/>
	</linearGradient>
	<path fill="url(#SVGID_7_)" d="M145.188,468c2.25,0,3.426,1.406,3.426,3.148l0.324,92.102c0,1.5-1.766,3.105-3.543,3.105
		c-1.707-0.105-3.219-1.438-3.219-3.18L142.188,471c0-1.5,1.43-3,3.207-3H145.188z"/>
	
		<linearGradient id="SVGID_8_" gradientUnits="userSpaceOnUse" x1="366.6245" y1="331.2046" x2="434.6245" y2="331.2046" gradientTransform="matrix(0 0.75 -0.75 0 301.8439 229.8671)">
		<stop  offset="0" style="stop-color:#C7AD87"/>
		<stop  offset="0.15" style="stop-color:#FFE6C6"/>
		<stop  offset="0.25" style="stop-color:#FFE8CA"/>
		<stop  offset="0.52" style="stop-color:#DFC297"/>
		<stop  offset="0.69" style="stop-color:#C7AD86"/>
		<stop  offset="0.8" style="stop-color:#BCA37E"/>
		<stop  offset="0.92" style="stop-color:#B19A77"/>
	</linearGradient>
	<path fill="url(#SVGID_8_)" d="M79.316,504.835h-51.75v51h51.75V504.835z"/>
	
		<linearGradient id="SVGID_9_" gradientUnits="userSpaceOnUse" x1="366.6235" y1="347.2036" x2="434.6235" y2="347.2036" gradientTransform="matrix(0 0.75 -0.75 0 274.254 229.8485)">
		<stop  offset="0" style="stop-color:#C7AD87"/>
		<stop  offset="0.15" style="stop-color:#FFE6C6"/>
		<stop  offset="0.25" style="stop-color:#FFE8CA"/>
		<stop  offset="0.52" style="stop-color:#DFC297"/>
		<stop  offset="0.69" style="stop-color:#C7AD86"/>
		<stop  offset="0.8" style="stop-color:#BCA37E"/>
		<stop  offset="0.92" style="stop-color:#B19A77"/>
	</linearGradient>
	<path fill="url(#SVGID_9_)" d="M27.727,504.816H5.977c0,0-2.637,0.383-3.398,3.238c-0.352-0.238-2.602,10.016-2.602,22.258
		c0,12.004,2.602,22.27,2.602,22.27c1.148,3.234,3.285,3.227,3.285,3.227l21.863,0.008V504.816z"/>
	
		<linearGradient id="SVGID_10_" gradientUnits="userSpaceOnUse" x1="366.6245" y1="365.2056" x2="434.6245" y2="365.2056" gradientTransform="matrix(0 0.75 -0.75 0 301.3722 229.8671)">
		<stop  offset="0" style="stop-color:#9F8867"/>
		<stop  offset="0.15" style="stop-color:#DABE97"/>
		<stop  offset="0.25" style="stop-color:#EADCCB"/>
		<stop  offset="0.52" style="stop-color:#BCA27B"/>
		<stop  offset="0.69" style="stop-color:#A78F6D"/>
		<stop  offset="0.8" style="stop-color:#9E8766"/>
		<stop  offset="0.92" style="stop-color:#957F60"/>
		<stop  offset="1" style="stop-color:#AB936F"/>
	</linearGradient>
	<path fill="url(#SVGID_10_)" d="M27.844,504.835l-0.75,51L27.844,504.835z"/>
	
		<linearGradient id="SVGID_11_" gradientUnits="userSpaceOnUse" x1="197.436" y1="201.3184" x2="197.436" y2="199.8838" gradientTransform="matrix(-0.75 0 0 -0.75 199.7072 680.754)">
		<stop  offset="0" style="stop-color:#C7AD87"/>
		<stop  offset="0.15" style="stop-color:#FFE6C6"/>
		<stop  offset="0.25" style="stop-color:#FFE8CA"/>
		<stop  offset="0.52" style="stop-color:#DFC297"/>
		<stop  offset="0.69" style="stop-color:#C7AD86"/>
		<stop  offset="0.8" style="stop-color:#BCA37E"/>
		<stop  offset="0.92" style="stop-color:#B19A77"/>
	</linearGradient>
	<path fill="url(#SVGID_11_)" d="M74.68,529.777h-46.5c0,0-0.348,0.137-0.348,0.324c0.348,0.426,0.203,0.738,0.453,0.738
		l46.395-0.313c0.75,0,0.75,0.164,0.75-0.02c0-0.73-0.188-0.742-0.441-0.742L74.68,529.777z"/>
	
		<linearGradient id="SVGID_12_" gradientUnits="userSpaceOnUse" x1="197.436" y1="201.3174" x2="197.436" y2="199.8828" gradientTransform="matrix(-0.75 0 0 -0.75 199.7072 684.3302)">
		<stop  offset="0" style="stop-color:#C7AD87"/>
		<stop  offset="0.15" style="stop-color:#FFE6C6"/>
		<stop  offset="0.25" style="stop-color:#FFE8CA"/>
		<stop  offset="0.52" style="stop-color:#DFC297"/>
		<stop  offset="0.69" style="stop-color:#C7AD86"/>
		<stop  offset="0.8" style="stop-color:#BCA37E"/>
		<stop  offset="0.92" style="stop-color:#B19A77"/>
	</linearGradient>
	<path fill="url(#SVGID_12_)" d="M74.68,533.351h-46.5c0,0-0.348,0.141-0.348,0.324c0.348,0.426,0.203,0.742,0.453,0.742
		l46.395-0.316c0.75,0,0.75,0.168,0.75-0.02c0-0.73-0.188-0.738-0.441-0.738L74.68,533.351z"/>
	
		<linearGradient id="SVGID_13_" gradientUnits="userSpaceOnUse" x1="197.436" y1="201.3174" x2="197.436" y2="199.8828" gradientTransform="matrix(-0.75 0 0 -0.75 199.7072 687.9103)">
		<stop  offset="0" style="stop-color:#C7AD87"/>
		<stop  offset="0.15" style="stop-color:#FFE6C6"/>
		<stop  offset="0.25" style="stop-color:#FFE8CA"/>
		<stop  offset="0.52" style="stop-color:#DFC297"/>
		<stop  offset="0.69" style="stop-color:#C7AD86"/>
		<stop  offset="0.8" style="stop-color:#BCA37E"/>
		<stop  offset="0.92" style="stop-color:#B19A77"/>
	</linearGradient>
	<path fill="url(#SVGID_13_)" d="M74.68,536.933h-46.5c0,0-0.348,0.137-0.348,0.324c0.348,0.426,0.203,0.738,0.453,0.738
		l46.395-0.313c0.75,0,0.75,0.164,0.75-0.02c0-0.73-0.188-0.742-0.441-0.742L74.68,536.933z"/>
	
		<linearGradient id="SVGID_14_" gradientUnits="userSpaceOnUse" x1="197.436" y1="201.3174" x2="197.436" y2="199.8828" gradientTransform="matrix(-0.75 0 0 -0.75 199.7072 691.4894)">
		<stop  offset="0" style="stop-color:#C7AD87"/>
		<stop  offset="0.15" style="stop-color:#FFE6C6"/>
		<stop  offset="0.25" style="stop-color:#FFE8CA"/>
		<stop  offset="0.52" style="stop-color:#DFC297"/>
		<stop  offset="0.69" style="stop-color:#C7AD86"/>
		<stop  offset="0.8" style="stop-color:#BCA37E"/>
		<stop  offset="0.92" style="stop-color:#B19A77"/>
	</linearGradient>
	<path fill="url(#SVGID_14_)" d="M74.68,540.511h-46.5c0,0-0.348,0.141-0.348,0.324c0.348,0.426,0.203,0.742,0.453,0.742
		l46.395-0.316c0.75,0,0.75,0.164,0.75-0.02c0-0.73-0.188-0.742-0.441-0.742L74.68,540.511z"/>
	
		<linearGradient id="SVGID_15_" gradientUnits="userSpaceOnUse" x1="197.436" y1="201.3164" x2="197.436" y2="199.8818" gradientTransform="matrix(-0.75 0 0 -0.75 199.7072 695.296)">
		<stop  offset="0" style="stop-color:#C7AD87"/>
		<stop  offset="0.15" style="stop-color:#FFE6C6"/>
		<stop  offset="0.25" style="stop-color:#FFE8CA"/>
		<stop  offset="0.52" style="stop-color:#DFC297"/>
		<stop  offset="0.69" style="stop-color:#C7AD86"/>
		<stop  offset="0.8" style="stop-color:#BCA37E"/>
		<stop  offset="0.92" style="stop-color:#B19A77"/>
	</linearGradient>
	<path fill="url(#SVGID_15_)" d="M74.68,544.316h-46.5c0,0-0.348,0.141-0.348,0.324c0.348,0.426,0.203,0.742,0.453,0.742
		l46.395-0.316c0.75,0,0.75,0.168,0.75-0.02c0-0.73-0.188-0.738-0.441-0.738L74.68,544.316z"/>
	
		<linearGradient id="SVGID_16_" gradientUnits="userSpaceOnUse" x1="197.436" y1="201.3174" x2="197.436" y2="199.8828" gradientTransform="matrix(-0.75 0 0 -0.75 199.7072 698.7628)">
		<stop  offset="0" style="stop-color:#C7AD87"/>
		<stop  offset="0.15" style="stop-color:#FFE6C6"/>
		<stop  offset="0.25" style="stop-color:#FFE8CA"/>
		<stop  offset="0.52" style="stop-color:#DFC297"/>
		<stop  offset="0.69" style="stop-color:#C7AD86"/>
		<stop  offset="0.8" style="stop-color:#BCA37E"/>
		<stop  offset="0.92" style="stop-color:#B19A77"/>
	</linearGradient>
	<path fill="url(#SVGID_16_)" d="M74.68,547.785h-46.5c0,0-0.348,0.141-0.348,0.324c0.348,0.426,0.203,0.742,0.453,0.742
		l46.395-0.316c0.75,0,0.75,0.164,0.75-0.02c0-0.73-0.188-0.742-0.441-0.742L74.68,547.785z"/>
	
		<linearGradient id="SVGID_17_" gradientUnits="userSpaceOnUse" x1="197.436" y1="201.3174" x2="197.436" y2="199.8828" gradientTransform="matrix(-0.75 0 0 -0.75 199.7072 677.171)">
		<stop  offset="0" style="stop-color:#C7AD87"/>
		<stop  offset="0.15" style="stop-color:#FFE6C6"/>
		<stop  offset="0.25" style="stop-color:#FFE8CA"/>
		<stop  offset="0.52" style="stop-color:#DFC297"/>
		<stop  offset="0.69" style="stop-color:#C7AD86"/>
		<stop  offset="0.8" style="stop-color:#BCA37E"/>
		<stop  offset="0.92" style="stop-color:#B19A77"/>
	</linearGradient>
	<path fill="url(#SVGID_17_)" d="M74.68,526.191h-46.5c0,0-0.348,0.141-0.348,0.324c0.348,0.426,0.203,0.742,0.453,0.742
		l46.395-0.316c0.75,0,0.75,0.168,0.75-0.016c0-0.734-0.188-0.742-0.441-0.742L74.68,526.191z"/>
	
		<linearGradient id="SVGID_18_" gradientUnits="userSpaceOnUse" x1="197.436" y1="201.3174" x2="197.436" y2="199.8828" gradientTransform="matrix(-0.75 0 0 -0.75 199.7072 702.2286)">
		<stop  offset="0" style="stop-color:#C7AD87"/>
		<stop  offset="0.15" style="stop-color:#FFE6C6"/>
		<stop  offset="0.25" style="stop-color:#FFE8CA"/>
		<stop  offset="0.52" style="stop-color:#DFC297"/>
		<stop  offset="0.69" style="stop-color:#C7AD86"/>
		<stop  offset="0.8" style="stop-color:#BCA37E"/>
		<stop  offset="0.92" style="stop-color:#B19A77"/>
	</linearGradient>
	<path fill="url(#SVGID_18_)" d="M74.68,551.25h-46.5c0,0-0.348,0.141-0.348,0.324c0.348,0.426,0.203,0.742,0.453,0.742L74.68,552
		c0.75,0,0.75,0.168,0.75-0.02c0-0.73-0.188-0.738-0.441-0.738L74.68,551.25z"/>
	
		<linearGradient id="SVGID_19_" gradientUnits="userSpaceOnUse" x1="197.436" y1="201.3174" x2="197.436" y2="199.8828" gradientTransform="matrix(-0.75 0 0 -0.75 199.7072 662.8527)">
		<stop  offset="0" style="stop-color:#C7AD87"/>
		<stop  offset="0.15" style="stop-color:#FFE6C6"/>
		<stop  offset="0.25" style="stop-color:#FFE8CA"/>
		<stop  offset="0.52" style="stop-color:#DFC297"/>
		<stop  offset="0.69" style="stop-color:#C7AD86"/>
		<stop  offset="0.8" style="stop-color:#BCA37E"/>
		<stop  offset="0.92" style="stop-color:#B19A77"/>
	</linearGradient>
	<path fill="url(#SVGID_19_)" d="M74.68,511.875h-46.5c0,0-0.348,0.141-0.348,0.324c0.348,0.426,0.203,0.742,0.453,0.742
		l46.395-0.316c0.75,0,0.75,0.164,0.75-0.02c0-0.73-0.188-0.742-0.441-0.742L74.68,511.875z"/>
	
		<linearGradient id="SVGID_20_" gradientUnits="userSpaceOnUse" x1="197.436" y1="201.3164" x2="197.436" y2="199.8818" gradientTransform="matrix(-0.75 0 0 -0.75 199.7072 666.4318)">
		<stop  offset="0" style="stop-color:#C7AD87"/>
		<stop  offset="0.15" style="stop-color:#FFE6C6"/>
		<stop  offset="0.25" style="stop-color:#FFE8CA"/>
		<stop  offset="0.52" style="stop-color:#DFC297"/>
		<stop  offset="0.69" style="stop-color:#C7AD86"/>
		<stop  offset="0.8" style="stop-color:#BCA37E"/>
		<stop  offset="0.92" style="stop-color:#B19A77"/>
	</linearGradient>
	<path fill="url(#SVGID_20_)" d="M74.68,515.453h-46.5c0,0-0.348,0.141-0.348,0.324c0.348,0.426,0.203,0.742,0.453,0.742
		l46.395-0.316c0.75,0,0.75,0.168,0.75-0.02c0-0.73-0.188-0.738-0.441-0.738L74.68,515.453z"/>
	
		<linearGradient id="SVGID_21_" gradientUnits="userSpaceOnUse" x1="197.436" y1="201.3174" x2="197.436" y2="199.8828" gradientTransform="matrix(-0.75 0 0 -0.75 199.7072 670.0118)">
		<stop  offset="0" style="stop-color:#C7AD87"/>
		<stop  offset="0.15" style="stop-color:#FFE6C6"/>
		<stop  offset="0.25" style="stop-color:#FFE8CA"/>
		<stop  offset="0.52" style="stop-color:#DFC297"/>
		<stop  offset="0.69" style="stop-color:#C7AD86"/>
		<stop  offset="0.8" style="stop-color:#BCA37E"/>
		<stop  offset="0.92" style="stop-color:#B19A77"/>
	</linearGradient>
	<path fill="url(#SVGID_21_)" d="M74.68,519.035h-46.5c0,0-0.348,0.137-0.348,0.324c0.348,0.426,0.203,0.738,0.453,0.738
		l46.395-0.313c0.75,0,0.75,0.164,0.75-0.02c0-0.73-0.188-0.742-0.441-0.742L74.68,519.035z"/>
	
		<linearGradient id="SVGID_22_" gradientUnits="userSpaceOnUse" x1="197.436" y1="201.3174" x2="197.436" y2="199.8828" gradientTransform="matrix(-0.75 0 0 -0.75 199.7072 673.5909)">
		<stop  offset="0" style="stop-color:#C7AD87"/>
		<stop  offset="0.15" style="stop-color:#FFE6C6"/>
		<stop  offset="0.25" style="stop-color:#FFE8CA"/>
		<stop  offset="0.52" style="stop-color:#DFC297"/>
		<stop  offset="0.69" style="stop-color:#C7AD86"/>
		<stop  offset="0.8" style="stop-color:#BCA37E"/>
		<stop  offset="0.92" style="stop-color:#B19A77"/>
	</linearGradient>
	<path fill="url(#SVGID_22_)" d="M74.68,522.613h-46.5c0,0-0.348,0.141-0.348,0.324c0.348,0.426,0.203,0.742,0.453,0.742
		l46.395-0.316c0.75,0,0.75,0.164,0.75-0.02c0-0.73-0.188-0.742-0.441-0.742L74.68,522.613z"/>
	
		<linearGradient id="SVGID_23_" gradientUnits="userSpaceOnUse" x1="197.436" y1="201.3164" x2="197.436" y2="199.8818" gradientTransform="matrix(-0.75 0 0 -0.75 199.7072 659.2726)">
		<stop  offset="0" style="stop-color:#C7AD87"/>
		<stop  offset="0.15" style="stop-color:#FFE6C6"/>
		<stop  offset="0.25" style="stop-color:#FFE8CA"/>
		<stop  offset="0.52" style="stop-color:#DFC297"/>
		<stop  offset="0.69" style="stop-color:#C7AD86"/>
		<stop  offset="0.8" style="stop-color:#BCA37E"/>
		<stop  offset="0.92" style="stop-color:#B19A77"/>
	</linearGradient>
	<path fill="url(#SVGID_23_)" d="M74.68,508.292h-46.5c0,0-0.348,0.141-0.348,0.328c0.348,0.422,0.203,0.738,0.453,0.738
		l46.395-0.316c0.75,0,0.75,0.168,0.75-0.016c0-0.734-0.188-0.742-0.441-0.742L74.68,508.292z"/>
	
		<linearGradient id="SVGID_24_" gradientUnits="userSpaceOnUse" x1="65.3047" y1="361.3267" x2="1.3047" y2="361.3267" gradientTransform="matrix(0 -0.75 -0.75 0 355.7648 555.38)">
		<stop  offset="0" style="stop-color:#C7AD87"/>
		<stop  offset="0.15" style="stop-color:#FFE6C6"/>
		<stop  offset="0.25" style="stop-color:#FFE8CA"/>
		<stop  offset="0.52" style="stop-color:#DFC297"/>
		<stop  offset="0.69" style="stop-color:#C7AD86"/>
		<stop  offset="0.8" style="stop-color:#BCA37E"/>
		<stop  offset="0.92" style="stop-color:#B19A77"/>
	</linearGradient>
	<path fill="url(#SVGID_24_)" d="M81.488,506.402c0,0,3.57,1.309,6.414,6.582c0.336,0.168,0,34.645,0,34.645
		c-3.414,6.023-6.414,6.773-6.414,6.773V506.402z"/>
	
		<linearGradient id="SVGID_25_" gradientUnits="userSpaceOnUse" x1="73.3047" y1="364.2075" x2="1.3047" y2="364.2075" gradientTransform="matrix(0 -0.75 -0.75 0 353.1818 558.1027)">
		<stop  offset="0" style="stop-color:#9F8867"/>
		<stop  offset="0.15" style="stop-color:#DABE97"/>
		<stop  offset="0.25" style="stop-color:#EADCCB"/>
		<stop  offset="0.52" style="stop-color:#BCA27B"/>
		<stop  offset="0.69" style="stop-color:#A78F6D"/>
		<stop  offset="0.8" style="stop-color:#9E8766"/>
		<stop  offset="0.92" style="stop-color:#957F60"/>
		<stop  offset="1" style="stop-color:#AB936F"/>
	</linearGradient>
	<path fill="url(#SVGID_25_)" d="M80.402,503.125h0.75v54h-0.75c-0.75,0-1.504-0.258-1.504-0.555l0.004-52.695
		c0,0,0.508-0.375,1.137-0.375L80.402,503.125z"/>
	
		<linearGradient id="SVGID_26_" gradientUnits="userSpaceOnUse" x1="73.3047" y1="364.2192" x2="1.3047" y2="364.2192" gradientTransform="matrix(0 -0.75 -0.75 0 354.17 558.1027)">
		<stop  offset="0" style="stop-color:#C7AD87"/>
		<stop  offset="0.15" style="stop-color:#FFE6C6"/>
		<stop  offset="0.25" style="stop-color:#FFE8CA"/>
		<stop  offset="0.52" style="stop-color:#DFC297"/>
		<stop  offset="0.69" style="stop-color:#C7AD86"/>
		<stop  offset="0.8" style="stop-color:#BCA37E"/>
		<stop  offset="0.92" style="stop-color:#B19A77"/>
	</linearGradient>
	<path fill="url(#SVGID_26_)" d="M80.645,503.125c0.75,0,1.168,0.621,1.168,0.914l0.332,52.336c0,0.75-0.648,0.75-1.039,0.75
		c-1.211,0-1.238-0.262-1.238-0.555l0.027-52.695c0,0,0.289-0.375,0.68-0.375L80.645,503.125z"/>
	
		<linearGradient id="SVGID_27_" gradientUnits="userSpaceOnUse" x1="202.7246" y1="201.3076" x2="202.7246" y2="155.3076" gradientTransform="matrix(0.75 0 0 -0.75 -64.3981 664.4484)">
		<stop  offset="0" style="stop-color:#9F8867"/>
		<stop  offset="0.15" style="stop-color:#DABE97"/>
		<stop  offset="0.25" style="stop-color:#EADCCB"/>
		<stop  offset="0.52" style="stop-color:#BCA27B"/>
		<stop  offset="0.69" style="stop-color:#A78F6D"/>
		<stop  offset="0.8" style="stop-color:#9E8766"/>
		<stop  offset="0.92" style="stop-color:#957F60"/>
		<stop  offset="1" style="stop-color:#AB936F"/>
	</linearGradient>
	<path fill="url(#SVGID_27_)" d="M88.02,513.468v34.5h-0.75v-34.5H88.02z"/>
	
		<linearGradient id="SVGID_28_" gradientUnits="userSpaceOnUse" x1="203.9497" y1="201.3057" x2="203.9497" y2="153.8369" gradientTransform="matrix(0.75 0 0 -0.75 -63.7448 663.4904)">
		<stop  offset="0" style="stop-color:#C7AD87"/>
		<stop  offset="0.15" style="stop-color:#FFE6C6"/>
		<stop  offset="0.25" style="stop-color:#FFE8CA"/>
		<stop  offset="0.52" style="stop-color:#DFC297"/>
		<stop  offset="0.69" style="stop-color:#C7AD86"/>
		<stop  offset="0.8" style="stop-color:#BCA37E"/>
		<stop  offset="0.92" style="stop-color:#B19A77"/>
	</linearGradient>
	<path fill="url(#SVGID_28_)" d="M89.426,512.511c0.75,0,1.09,0.527,1.09,1.176l-0.34,33.324c0,0.75-0.195,1.102-0.855,1.102
		c-0.645-0.352-1.402-0.539-1.402-1.188l0.008-32.914c0-0.75,0.527-1.5,1.188-1.5H89.426z"/>
	
		<linearGradient id="SVGID_29_" gradientUnits="userSpaceOnUse" x1="169.7031" y1="201.3066" x2="169.7031" y2="78.3066" gradientTransform="matrix(-0.75 0 0 -0.75 691.213 621.9679)">
		<stop  offset="0" style="stop-color:#C7AD87"/>
		<stop  offset="0.15" style="stop-color:#FFE6C6"/>
		<stop  offset="0.25" style="stop-color:#FFE8CA"/>
		<stop  offset="0.52" style="stop-color:#DFC297"/>
		<stop  offset="0.69" style="stop-color:#C7AD86"/>
		<stop  offset="0.8" style="stop-color:#BCA37E"/>
		<stop  offset="0.92" style="stop-color:#B19A77"/>
	</linearGradient>
	<path fill="url(#SVGID_29_)" d="M563.933,470.988h-3v92.25h3c1.5,0,3.008-1.367,3.008-3l-0.008-86.25c0-1.5-1.34-3-3.008-3H563.933
		z"/>
	
		<linearGradient id="SVGID_30_" gradientUnits="userSpaceOnUse" x1="208.1924" y1="201.3066" x2="208.1924" y2="78.3066" gradientTransform="matrix(0.75 0 0 -0.75 401.4501 621.9591)">
		<stop  offset="0" style="stop-color:#9F8867"/>
		<stop  offset="0.15" style="stop-color:#DABE97"/>
		<stop  offset="0.25" style="stop-color:#EADCCB"/>
		<stop  offset="0.52" style="stop-color:#BCA27B"/>
		<stop  offset="0.69" style="stop-color:#A78F6D"/>
		<stop  offset="0.8" style="stop-color:#9E8766"/>
		<stop  offset="0.92" style="stop-color:#957F60"/>
		<stop  offset="1" style="stop-color:#AB936F"/>
	</linearGradient>
	<path fill="url(#SVGID_30_)" d="M553.117,470.98h9v92.25h-9l-0.047-92.25H553.117z"/>
	
		<linearGradient id="SVGID_31_" gradientUnits="userSpaceOnUse" x1="170.1973" y1="201.3027" x2="170.1973" y2="70.1621" gradientTransform="matrix(-0.75 0 0 -0.75 685.1857 618.9777)">
		<stop  offset="0" style="stop-color:#C7AD87"/>
		<stop  offset="0.15" style="stop-color:#FFE6C6"/>
		<stop  offset="0.25" style="stop-color:#FFE8CA"/>
		<stop  offset="0.52" style="stop-color:#DFC297"/>
		<stop  offset="0.69" style="stop-color:#C7AD86"/>
		<stop  offset="0.8" style="stop-color:#BCA37E"/>
		<stop  offset="0.92" style="stop-color:#B19A77"/>
	</linearGradient>
	<path fill="url(#SVGID_31_)" d="M557.91,468c-2.25,0-3.43,1.406-3.43,3.148l-0.32,92.102c0,1.5,1.762,3.105,3.539,3.105
		c1.711-0.105,3.219-1.438,3.219-3.18L560.91,471c0-1.5-1.434-3-3.211-3H557.91z"/>
	
		<linearGradient id="SVGID_32_" gradientUnits="userSpaceOnUse" x1="441.7241" y1="201.3027" x2="441.7241" y2="105.3018" gradientTransform="matrix(0.75 0 0 -0.75 -1.6954 632.3048)">
		<stop  offset="0" style="stop-color:#B78F61"/>
		<stop  offset="0.15" style="stop-color:#ECC298"/>
		<stop  offset="0.25" style="stop-color:#EDC39B"/>
		<stop  offset="0.52" style="stop-color:#CEA26D"/>
		<stop  offset="0.69" style="stop-color:#B78F61"/>
		<stop  offset="0.8" style="stop-color:#AD875B"/>
		<stop  offset="0.92" style="stop-color:#A37F55"/>
	</linearGradient>
	<path fill="url(#SVGID_32_)" d="M149.973,481.328h359.25v72h-359.25V481.328z"/>
	
		<linearGradient id="SVGID_33_" gradientUnits="userSpaceOnUse" x1="441.2231" y1="201.3066" x2="441.2231" y2="185.3057" gradientTransform="matrix(0.75 0 0 -0.75 -1.6749 662.1271)">
		<stop  offset="0" style="stop-color:#B9B9B9"/>
		<stop  offset="0.15" style="stop-color:#EFEFEF"/>
		<stop  offset="0.25" style="stop-color:#EFEFEF"/>
		<stop  offset="0.52" style="stop-color:#D0D0D0"/>
		<stop  offset="0.69" style="stop-color:#B9B9B9"/>
		<stop  offset="0.8" style="stop-color:#AFAFAF"/>
		<stop  offset="0.92" style="stop-color:#A5A5A5"/>
	</linearGradient>
	<path fill="url(#SVGID_33_)" d="M149.992,511.148h358.5v12h-358.5V511.148z"/>
	
		<linearGradient id="SVGID_34_" gradientUnits="userSpaceOnUse" x1="208.7266" y1="201.3057" x2="208.7266" y2="123.3057" gradientTransform="matrix(0.75 0 0 -0.75 -1.6964 639.0226)">
		<stop  offset="0" style="stop-color:#C7C7C7"/>
		<stop  offset="0.15" style="stop-color:#FFFFFF"/>
		<stop  offset="0.25" style="stop-color:#FFFFFF"/>
		<stop  offset="0.52" style="stop-color:#DFDFDF"/>
		<stop  offset="0.69" style="stop-color:#C7C7C7"/>
		<stop  offset="0.8" style="stop-color:#BCBCBC"/>
		<stop  offset="0.92" style="stop-color:#B1B1B1"/>
	</linearGradient>
	<path fill="url(#SVGID_34_)" d="M149.973,488.042h9.75v58.5h-9.75V488.042z"/>
	
		<linearGradient id="SVGID_35_" gradientUnits="userSpaceOnUse" x1="230.2622" y1="567.8423" x2="211.8844" y2="536.0109" gradientTransform="matrix(0.75 0 0 0.75 214.411 116.9052)">
		<stop  offset="0" style="stop-color:#B9B9B9"/>
		<stop  offset="0.15" style="stop-color:#EFEFEF"/>
		<stop  offset="0.25" style="stop-color:#EFEFEF"/>
		<stop  offset="0.52" style="stop-color:#D0D0D0"/>
		<stop  offset="0.69" style="stop-color:#B9B9B9"/>
		<stop  offset="0.8" style="stop-color:#AFAFAF"/>
		<stop  offset="0.92" style="stop-color:#A5A5A5"/>
	</linearGradient>
	<path fill="url(#SVGID_35_)" d="M366.082,523.125h22.5c0,0-3.125,18.813-10.922,18.813c-7.828-0.063-11.625-17.551-11.625-18.457
		L366.082,523.125z"/>
	
		<linearGradient id="SVGID_36_" gradientUnits="userSpaceOnUse" x1="230.2593" y1="567.8423" x2="211.8826" y2="536.013" gradientTransform="matrix(0.75 0 0 0.75 34.0165 116.3485)">
		<stop  offset="0" style="stop-color:#B9B9B9"/>
		<stop  offset="0.15" style="stop-color:#EFEFEF"/>
		<stop  offset="0.25" style="stop-color:#EFEFEF"/>
		<stop  offset="0.52" style="stop-color:#D0D0D0"/>
		<stop  offset="0.69" style="stop-color:#B9B9B9"/>
		<stop  offset="0.8" style="stop-color:#AFAFAF"/>
		<stop  offset="0.92" style="stop-color:#A5A5A5"/>
	</linearGradient>
	<path fill="url(#SVGID_36_)" d="M185.684,522.566h22.5c0,0-3.121,18.816-10.922,18.816c-7.828-0.066-11.621-17.551-11.621-18.457
		L185.684,522.566z"/>
	
		<linearGradient id="SVGID_37_" gradientUnits="userSpaceOnUse" x1="230.2617" y1="567.8413" x2="211.8851" y2="536.012" gradientTransform="matrix(0.75 0 0 0.75 79.576 116.3485)">
		<stop  offset="0" style="stop-color:#B9B9B9"/>
		<stop  offset="0.15" style="stop-color:#EFEFEF"/>
		<stop  offset="0.25" style="stop-color:#EFEFEF"/>
		<stop  offset="0.52" style="stop-color:#D0D0D0"/>
		<stop  offset="0.69" style="stop-color:#B9B9B9"/>
		<stop  offset="0.8" style="stop-color:#AFAFAF"/>
		<stop  offset="0.92" style="stop-color:#A5A5A5"/>
	</linearGradient>
	<path fill="url(#SVGID_37_)" d="M231.246,522.566h22.5c0,0-3.121,18.816-10.922,18.816c-7.828-0.066-11.625-17.551-11.625-18.457
		L231.246,522.566z"/>
	
		<linearGradient id="SVGID_38_" gradientUnits="userSpaceOnUse" x1="230.2627" y1="567.8423" x2="211.8855" y2="536.012" gradientTransform="matrix(0.75 0 0 0.75 124.5555 116.3485)">
		<stop  offset="0" style="stop-color:#B9B9B9"/>
		<stop  offset="0.15" style="stop-color:#EFEFEF"/>
		<stop  offset="0.25" style="stop-color:#EFEFEF"/>
		<stop  offset="0.52" style="stop-color:#D0D0D0"/>
		<stop  offset="0.69" style="stop-color:#B9B9B9"/>
		<stop  offset="0.8" style="stop-color:#AFAFAF"/>
		<stop  offset="0.92" style="stop-color:#A5A5A5"/>
	</linearGradient>
	<path fill="url(#SVGID_38_)" d="M276.227,522.566h22.5c0,0-3.125,18.816-10.922,18.816c-7.828-0.066-11.625-17.551-11.625-18.457
		L276.227,522.566z"/>
	
		<linearGradient id="SVGID_39_" gradientUnits="userSpaceOnUse" x1="230.2593" y1="567.8442" x2="211.8826" y2="536.015" gradientTransform="matrix(0.75 0 0 0.75 169.4891 116.3485)">
		<stop  offset="0" style="stop-color:#B9B9B9"/>
		<stop  offset="0.15" style="stop-color:#EFEFEF"/>
		<stop  offset="0.25" style="stop-color:#EFEFEF"/>
		<stop  offset="0.52" style="stop-color:#D0D0D0"/>
		<stop  offset="0.69" style="stop-color:#B9B9B9"/>
		<stop  offset="0.8" style="stop-color:#AFAFAF"/>
		<stop  offset="0.92" style="stop-color:#A5A5A5"/>
	</linearGradient>
	<path fill="url(#SVGID_39_)" d="M321.156,522.566h22.5c0,0-3.121,18.816-10.922,18.816c-7.828-0.066-11.621-17.551-11.621-18.457
		L321.156,522.566z"/>
	
		<linearGradient id="SVGID_40_" gradientUnits="userSpaceOnUse" x1="230.2598" y1="567.8433" x2="211.8819" y2="536.0119" gradientTransform="matrix(0.75 0 0 0.75 214.2928 116.4061)">
		<stop  offset="0" style="stop-color:#B9B9B9"/>
		<stop  offset="0.15" style="stop-color:#EFEFEF"/>
		<stop  offset="0.25" style="stop-color:#EFEFEF"/>
		<stop  offset="0.52" style="stop-color:#D0D0D0"/>
		<stop  offset="0.69" style="stop-color:#B9B9B9"/>
		<stop  offset="0.8" style="stop-color:#AFAFAF"/>
		<stop  offset="0.92" style="stop-color:#A5A5A5"/>
	</linearGradient>
	<path fill="url(#SVGID_40_)" d="M365.96,522.625h22.5c0,0-3.121,18.813-10.922,18.813c-7.828-0.063-11.625-17.551-11.625-18.457
		L365.96,522.625z"/>
	
		<linearGradient id="SVGID_41_" gradientUnits="userSpaceOnUse" x1="230.2622" y1="567.8433" x2="211.8838" y2="536.0109" gradientTransform="matrix(0.75 0 0 0.75 259.9706 116.9052)">
		<stop  offset="0" style="stop-color:#B9B9B9"/>
		<stop  offset="0.15" style="stop-color:#EFEFEF"/>
		<stop  offset="0.25" style="stop-color:#EFEFEF"/>
		<stop  offset="0.52" style="stop-color:#D0D0D0"/>
		<stop  offset="0.69" style="stop-color:#B9B9B9"/>
		<stop  offset="0.8" style="stop-color:#AFAFAF"/>
		<stop  offset="0.92" style="stop-color:#A5A5A5"/>
	</linearGradient>
	<path fill="url(#SVGID_41_)" d="M411.64,523.125h22.5c0,0-3.121,18.813-10.922,18.813c-7.828-0.063-11.625-17.551-11.625-18.457
		L411.64,523.125z"/>
	
		<linearGradient id="SVGID_42_" gradientUnits="userSpaceOnUse" x1="230.2612" y1="567.8442" x2="211.8828" y2="536.0118" gradientTransform="matrix(0.75 0 0 0.75 304.951 116.9052)">
		<stop  offset="0" style="stop-color:#B9B9B9"/>
		<stop  offset="0.15" style="stop-color:#EFEFEF"/>
		<stop  offset="0.25" style="stop-color:#EFEFEF"/>
		<stop  offset="0.52" style="stop-color:#D0D0D0"/>
		<stop  offset="0.69" style="stop-color:#B9B9B9"/>
		<stop  offset="0.8" style="stop-color:#AFAFAF"/>
		<stop  offset="0.92" style="stop-color:#A5A5A5"/>
	</linearGradient>
	<path fill="url(#SVGID_42_)" d="M456.621,523.125h22.5c0,0-3.121,18.813-10.922,18.813c-7.828-0.063-11.625-17.551-11.625-18.457
		L456.621,523.125z"/>
	
		<linearGradient id="SVGID_43_" gradientUnits="userSpaceOnUse" x1="231.1401" y1="202.0293" x2="211.297" y2="167.66" gradientTransform="matrix(0.75 0 0 -0.75 12.2738 641.1788)">
		<stop  offset="0" style="stop-color:#B9B9B9"/>
		<stop  offset="0.15" style="stop-color:#EFEFEF"/>
		<stop  offset="0.25" style="stop-color:#EFEFEF"/>
		<stop  offset="0.52" style="stop-color:#D0D0D0"/>
		<stop  offset="0.69" style="stop-color:#B9B9B9"/>
		<stop  offset="0.8" style="stop-color:#AFAFAF"/>
		<stop  offset="0.92" style="stop-color:#A5A5A5"/>
	</linearGradient>
	<path fill="url(#SVGID_43_)" d="M163.941,511.203h22.5c0,0-3.121-21.074-10.922-21.074c-7.828,0.074-11.625,20.301-11.625,21.348
		L163.941,511.203z"/>
	
		<linearGradient id="SVGID_44_" gradientUnits="userSpaceOnUse" x1="231.1426" y1="202.0269" x2="211.3" y2="167.6585" gradientTransform="matrix(0.75 0 0 -0.75 57.8334 641.1788)">
		<stop  offset="0" style="stop-color:#B9B9B9"/>
		<stop  offset="0.15" style="stop-color:#EFEFEF"/>
		<stop  offset="0.25" style="stop-color:#EFEFEF"/>
		<stop  offset="0.52" style="stop-color:#D0D0D0"/>
		<stop  offset="0.69" style="stop-color:#B9B9B9"/>
		<stop  offset="0.8" style="stop-color:#AFAFAF"/>
		<stop  offset="0.92" style="stop-color:#A5A5A5"/>
	</linearGradient>
	<path fill="url(#SVGID_44_)" d="M209.504,511.203h22.5c0,0-3.121-21.074-10.922-21.074c-7.828,0.074-11.625,20.301-11.625,21.348
		L209.504,511.203z"/>
	
		<linearGradient id="SVGID_45_" gradientUnits="userSpaceOnUse" x1="231.144" y1="202.0259" x2="211.3015" y2="167.6576" gradientTransform="matrix(0.75 0 0 -0.75 102.8134 641.1788)">
		<stop  offset="0" style="stop-color:#B9B9B9"/>
		<stop  offset="0.15" style="stop-color:#EFEFEF"/>
		<stop  offset="0.25" style="stop-color:#EFEFEF"/>
		<stop  offset="0.52" style="stop-color:#D0D0D0"/>
		<stop  offset="0.69" style="stop-color:#B9B9B9"/>
		<stop  offset="0.8" style="stop-color:#AFAFAF"/>
		<stop  offset="0.92" style="stop-color:#A5A5A5"/>
	</linearGradient>
	<path fill="url(#SVGID_45_)" d="M254.484,511.203h22.5c0,0-3.125-21.074-10.922-21.074c-7.828,0.074-11.625,20.301-11.625,21.348
		L254.484,511.203z"/>
	
		<linearGradient id="SVGID_46_" gradientUnits="userSpaceOnUse" x1="231.1421" y1="202.0269" x2="211.2995" y2="167.6585" gradientTransform="matrix(0.75 0 0 -0.75 147.7333 641.1788)">
		<stop  offset="0" style="stop-color:#B9B9B9"/>
		<stop  offset="0.15" style="stop-color:#EFEFEF"/>
		<stop  offset="0.25" style="stop-color:#EFEFEF"/>
		<stop  offset="0.52" style="stop-color:#D0D0D0"/>
		<stop  offset="0.69" style="stop-color:#B9B9B9"/>
		<stop  offset="0.8" style="stop-color:#AFAFAF"/>
		<stop  offset="0.92" style="stop-color:#A5A5A5"/>
	</linearGradient>
	<path fill="url(#SVGID_46_)" d="M299.402,511.203h22.5c0,0-3.121-21.074-10.922-21.074c-7.828,0.074-11.625,20.301-11.625,21.348
		L299.402,511.203z"/>
	
		<linearGradient id="SVGID_47_" gradientUnits="userSpaceOnUse" x1="231.1382" y1="202.0293" x2="211.2962" y2="167.662" gradientTransform="matrix(0.75 0 0 -0.75 193.1454 642.4347)">
		<stop  offset="0" style="stop-color:#B9B9B9"/>
		<stop  offset="0.15" style="stop-color:#EFEFEF"/>
		<stop  offset="0.25" style="stop-color:#EFEFEF"/>
		<stop  offset="0.52" style="stop-color:#D0D0D0"/>
		<stop  offset="0.69" style="stop-color:#B9B9B9"/>
		<stop  offset="0.8" style="stop-color:#AFAFAF"/>
		<stop  offset="0.92" style="stop-color:#A5A5A5"/>
	</linearGradient>
	<path fill="url(#SVGID_47_)" d="M344.812,512.457h22.5c0,0-3.121-21.074-10.922-21.074c-7.828,0.074-11.621,20.301-11.621,21.352
		L344.812,512.457z"/>
	
		<linearGradient id="SVGID_48_" gradientUnits="userSpaceOnUse" x1="231.1382" y1="202.0288" x2="211.2962" y2="167.6615" gradientTransform="matrix(0.75 0 0 -0.75 238.1249 642.4347)">
		<stop  offset="0" style="stop-color:#B9B9B9"/>
		<stop  offset="0.15" style="stop-color:#EFEFEF"/>
		<stop  offset="0.25" style="stop-color:#EFEFEF"/>
		<stop  offset="0.52" style="stop-color:#D0D0D0"/>
		<stop  offset="0.69" style="stop-color:#B9B9B9"/>
		<stop  offset="0.8" style="stop-color:#AFAFAF"/>
		<stop  offset="0.92" style="stop-color:#A5A5A5"/>
	</linearGradient>
	<path fill="url(#SVGID_48_)" d="M389.792,512.457h22.5c0,0-3.121-21.074-10.922-21.074c-7.828,0.074-11.625,20.301-11.625,21.352
		L389.792,512.457z"/>
	
		<linearGradient id="SVGID_49_" gradientUnits="userSpaceOnUse" x1="231.1392" y1="202.0283" x2="211.2972" y2="167.6611" gradientTransform="matrix(0.75 0 0 -0.75 283.3241 642.2072)">
		<stop  offset="0" style="stop-color:#B9B9B9"/>
		<stop  offset="0.15" style="stop-color:#EFEFEF"/>
		<stop  offset="0.25" style="stop-color:#EFEFEF"/>
		<stop  offset="0.52" style="stop-color:#D0D0D0"/>
		<stop  offset="0.69" style="stop-color:#B9B9B9"/>
		<stop  offset="0.8" style="stop-color:#AFAFAF"/>
		<stop  offset="0.92" style="stop-color:#A5A5A5"/>
	</linearGradient>
	<path fill="url(#SVGID_49_)" d="M434.992,512.23h22.5c0,0-3.121-21.074-10.922-21.074c-7.828,0.074-11.625,20.301-11.625,21.352
		L434.992,512.23z"/>
	
		<linearGradient id="SVGID_50_" gradientUnits="userSpaceOnUse" x1="231.1401" y1="202.0293" x2="211.2976" y2="167.661" gradientTransform="matrix(0.75 0 0 -0.75 328.3046 642.2072)">
		<stop  offset="0" style="stop-color:#B9B9B9"/>
		<stop  offset="0.15" style="stop-color:#EFEFEF"/>
		<stop  offset="0.25" style="stop-color:#EFEFEF"/>
		<stop  offset="0.52" style="stop-color:#D0D0D0"/>
		<stop  offset="0.69" style="stop-color:#B9B9B9"/>
		<stop  offset="0.8" style="stop-color:#AFAFAF"/>
		<stop  offset="0.92" style="stop-color:#A5A5A5"/>
	</linearGradient>
	<path fill="url(#SVGID_50_)" d="M479.972,512.23h22.5c0,0-3.121-21.074-10.922-21.074c-7.828,0.074-11.625,20.301-11.625,21.352
		L479.972,512.23z"/>
</g>
</svg>
