<?xml version="1.0" encoding="utf-8"?>
<!-- Generator: Adobe Illustrator 16.0.0, SVG Export Plug-In . SVG Version: 6.00 Build 0)  -->
<!DOCTYPE svg PUBLIC "-//W3C//DTD SVG 1.1//EN" "http://www.w3.org/Graphics/SVG/1.1/DTD/svg11.dtd">
<svg preserveAspectRatio="none"   version="1.1" id="图层_1" xmlns="http://www.w3.org/2000/svg" xmlns:xlink="http://www.w3.org/1999/xlink" x="0px" y="0px"
	 width="558.093px" height="504.646px" viewBox="-0.047 27.113 558.093 504.646"
	 enable-background="new -0.047 27.113 558.093 504.646" xml:space="preserve">
<g id="surface211">
	
		<linearGradient id="SVGID_1_" gradientUnits="userSpaceOnUse" x1="919.0786" y1="143.105" x2="220.4852" y2="-111.1621" gradientTransform="matrix(0.75 0 0 -0.75 -119.2247 178.0958)">
		<stop  offset="0" style="stop-color:#BDA47F"/>
		<stop  offset="0.26" style="stop-color:#FFE0B3"/>
		<stop  offset="0.36" style="stop-color:#FFEED7"/>
		<stop  offset="0.52" style="stop-color:#DFC297"/>
		<stop  offset="0.69" style="stop-color:#C7AD86"/>
		<stop  offset="0.8" style="stop-color:#BCA37E"/>
		<stop  offset="1" style="stop-color:#B19A77"/>
	</linearGradient>
	<path fill="url(#SVGID_1_)" d="M291.945,27.117c54,0.75,262.25,196.723,262.25,196.723l-521.75-0.223
		c0,0,205.328-197.609,259.394-196.5H291.945z"/>
	
		<linearGradient id="SVGID_2_" gradientUnits="userSpaceOnUse" x1="897.2251" y1="12.3047" x2="202.2256" y2="12.3046" gradientTransform="matrix(0.75 0 0 -0.75 -119.2242 385.0597)">
		<stop  offset="0" style="stop-color:#BDA47F"/>
		<stop  offset="0.15" style="stop-color:#FFE0B3"/>
		<stop  offset="0.25" style="stop-color:#FFEED7"/>
		<stop  offset="0.52" style="stop-color:#DFC297"/>
		<stop  offset="0.69" style="stop-color:#C7AD86"/>
		<stop  offset="0.8" style="stop-color:#BCA37E"/>
		<stop  offset="0.92" style="stop-color:#B19A77"/>
		<stop  offset="1" style="stop-color:#CBB189"/>
	</linearGradient>
	<path fill="url(#SVGID_2_)" d="M32.445,234.082h521.25v283.5H32.445V234.082z"/>
	
		<linearGradient id="SVGID_3_" gradientUnits="userSpaceOnUse" x1="897.2251" y1="195.8022" x2="202.2256" y2="195.8022" gradientTransform="matrix(0.75 0 0 -0.75 -119.2242 385.0577)">
		<stop  offset="0" style="stop-color:#BD955B"/>
		<stop  offset="0.15" style="stop-color:#FFCE8A"/>
		<stop  offset="0.25" style="stop-color:#FFE4C6"/>
		<stop  offset="0.52" style="stop-color:#DFB16D"/>
		<stop  offset="0.69" style="stop-color:#C79D60"/>
		<stop  offset="0.8" style="stop-color:#BC945A"/>
		<stop  offset="0.92" style="stop-color:#B18B55"/>
		<stop  offset="1" style="stop-color:#CBA162"/>
	</linearGradient>
	<path fill="url(#SVGID_3_)" d="M32.445,234.082h521.25v8.25H32.445V234.082z"/>
	
		<linearGradient id="SVGID_4_" gradientUnits="userSpaceOnUse" x1="897.2251" y1="195.8071" x2="202.2256" y2="195.8071" gradientTransform="matrix(0.75 0 0 -0.75 -119.2242 659.8185)">
		<stop  offset="0" style="stop-color:#BD955B"/>
		<stop  offset="0.15" style="stop-color:#FFCE8A"/>
		<stop  offset="0.25" style="stop-color:#FFE4C6"/>
		<stop  offset="0.52" style="stop-color:#DFB16D"/>
		<stop  offset="0.69" style="stop-color:#C79D60"/>
		<stop  offset="0.8" style="stop-color:#BC945A"/>
		<stop  offset="0.92" style="stop-color:#B18B55"/>
		<stop  offset="1" style="stop-color:#CBA162"/>
	</linearGradient>
	<path fill="url(#SVGID_4_)" d="M32.445,508.839h521.25v8.25H32.445V508.839z"/>
	
		<linearGradient id="SVGID_5_" gradientUnits="userSpaceOnUse" x1="908.3745" y1="191.6367" x2="202.2241" y2="191.6367" gradientTransform="matrix(0.75 0 0 -0.75 -123.2355 667.8761)">
		<stop  offset="0" style="stop-color:#BDA47F"/>
		<stop  offset="0.15" style="stop-color:#FFE0B3"/>
		<stop  offset="0.25" style="stop-color:#FFEED7"/>
		<stop  offset="0.52" style="stop-color:#DFC297"/>
		<stop  offset="0.69" style="stop-color:#C7AD86"/>
		<stop  offset="0.8" style="stop-color:#BCA37E"/>
		<stop  offset="0.92" style="stop-color:#B19A77"/>
		<stop  offset="1" style="stop-color:#CBB189"/>
	</linearGradient>
	<path fill="url(#SVGID_5_)" d="M33.684,516.898h519c3,0,5.363,2.523,5.363,5.641l-0.113,3.359c0,3-2.402,5.504-5.504,5.504
		l-518.746-0.254c-3,0-5.25-2.273-5.25-5.387v-2.863c0-3.75,2.516-6,5.617-6H33.684z"/>
	
		<linearGradient id="SVGID_6_" gradientUnits="userSpaceOnUse" x1="897.2261" y1="194.3032" x2="202.2271" y2="194.3032" gradientTransform="matrix(0.75 0 0 -0.75 -119.2252 364.6407)">
		<stop  offset="0" style="stop-color:#BD955B"/>
		<stop  offset="0.15" style="stop-color:#FFCE8A"/>
		<stop  offset="0.25" style="stop-color:#FFE4C6"/>
		<stop  offset="0.52" style="stop-color:#DFB16D"/>
		<stop  offset="0.69" style="stop-color:#C79D60"/>
		<stop  offset="0.8" style="stop-color:#BC945A"/>
		<stop  offset="0.92" style="stop-color:#B18B55"/>
		<stop  offset="1" style="stop-color:#CBA162"/>
	</linearGradient>
	<path fill="url(#SVGID_6_)" d="M32.445,224.164h521.25l-12.75-10.5H46.695L32.445,224.164z"/>
	
		<linearGradient id="SVGID_7_" gradientUnits="userSpaceOnUse" x1="908.3745" y1="191.6367" x2="202.2241" y2="191.6367" gradientTransform="matrix(0.75 0 0 -0.75 -123.2355 371.3615)">
		<stop  offset="0" style="stop-color:#BDA47F"/>
		<stop  offset="0.15" style="stop-color:#FFE0B3"/>
		<stop  offset="0.25" style="stop-color:#FFEED7"/>
		<stop  offset="0.52" style="stop-color:#DFC297"/>
		<stop  offset="0.69" style="stop-color:#C7AD86"/>
		<stop  offset="0.8" style="stop-color:#BCA37E"/>
		<stop  offset="0.92" style="stop-color:#B19A77"/>
		<stop  offset="1" style="stop-color:#CBB189"/>
	</linearGradient>
	<path fill="url(#SVGID_7_)" d="M33.684,220.383h519c3,0,5.363,2.527,5.363,5.641l-0.113,3.359c0,3-2.402,5.504-5.504,5.504
		l-518.746-0.254c-3,0-5.25-2.27-5.25-5.387v-2.863c0-3.75,2.516-6,5.617-6H33.684z"/>
	
		<linearGradient id="SVGID_8_" gradientUnits="userSpaceOnUse" x1="215.2285" y1="201.3047" x2="215.2285" y2="182.3047" gradientTransform="matrix(0.75 0 0 -0.75 -133.9049 624.3888)">
		<stop  offset="0" style="stop-color:#AD976F"/>
		<stop  offset="0.15" style="stop-color:#EBD0A1"/>
		<stop  offset="0.25" style="stop-color:#F4E5CF"/>
		<stop  offset="0.52" style="stop-color:#CDB384"/>
		<stop  offset="0.69" style="stop-color:#B69F75"/>
		<stop  offset="0.8" style="stop-color:#AC966E"/>
		<stop  offset="0.92" style="stop-color:#A28E68"/>
		<stop  offset="1" style="stop-color:#BAA378"/>
	</linearGradient>
	<path fill="url(#SVGID_8_)" d="M17.766,473.41h19.5v14.25h-19.5V473.41z"/>
	
		<linearGradient id="SVGID_9_" gradientUnits="userSpaceOnUse" x1="215.228" y1="201.3018" x2="215.228" y2="182.3018" gradientTransform="matrix(0.75 0 0 -0.75 -133.9054 401.5079)">
		<stop  offset="0" style="stop-color:#AD976F"/>
		<stop  offset="0.15" style="stop-color:#EBD0A1"/>
		<stop  offset="0.25" style="stop-color:#F4E5CF"/>
		<stop  offset="0.52" style="stop-color:#CDB384"/>
		<stop  offset="0.69" style="stop-color:#B69F75"/>
		<stop  offset="0.8" style="stop-color:#AC966E"/>
		<stop  offset="0.92" style="stop-color:#A28E68"/>
		<stop  offset="1" style="stop-color:#BAA378"/>
	</linearGradient>
	<path fill="url(#SVGID_9_)" d="M17.766,250.531h19.5v14.25h-19.5V250.531z"/>
	
		<linearGradient id="SVGID_10_" gradientUnits="userSpaceOnUse" x1="227.6948" y1="-19.5469" x2="202.0952" y2="-19.5469" gradientTransform="matrix(0.75 0 0 -0.75 -151.4625 351.4591)">
		<stop  offset="0" style="stop-color:#BDA47F"/>
		<stop  offset="0.15" style="stop-color:#FFE0B3"/>
		<stop  offset="0.25" style="stop-color:#FFEED7"/>
		<stop  offset="0.52" style="stop-color:#DFC297"/>
		<stop  offset="0.69" style="stop-color:#C7AD86"/>
		<stop  offset="0.8" style="stop-color:#BCA37E"/>
		<stop  offset="0.92" style="stop-color:#B19A77"/>
		<stop  offset="1" style="stop-color:#CBB189"/>
	</linearGradient>
	<path fill="url(#SVGID_10_)" d="M9.957,200.48c5.25,0,9.352,4.195,9.352,9.523L18.957,522.23c0,5.25-3.945,9.52-9.246,9.52
		c-5.004,0.23-9.602-4.32-9.602-9.648L0.207,210.23c0-5.25,4.199-9.75,9.504-9.75H9.957z"/>
	
		<linearGradient id="SVGID_11_" gradientUnits="userSpaceOnUse" x1="227.9263" y1="188.2905" x2="202.0244" y2="188.2905" gradientTransform="matrix(0.75 0 0 -0.75 -151.5656 369.9659)">
		<stop  offset="0" style="stop-color:#BD8100"/>
		<stop  offset="0.15" style="stop-color:#FFB545"/>
		<stop  offset="0.25" style="stop-color:#FFD8B3"/>
		<stop  offset="0.52" style="stop-color:#DF9900"/>
		<stop  offset="0.69" style="stop-color:#C78800"/>
		<stop  offset="0.8" style="stop-color:#BC8000"/>
		<stop  offset="0.92" style="stop-color:#B17800"/>
		<stop  offset="1" style="stop-color:#CB8B00"/>
	</linearGradient>
	<path fill="url(#SVGID_11_)" d="M0.102,228.738c0-5.25,4.195-9.75,9.559-9.75c5.441,0,9.711,4.371,9.711,9.773
		c0.23,5.227-4.348,9.746-9.711,9.746c-5.059-0.02-9.707-4.367-9.707-9.746L0.102,228.738z"/>
	
		<linearGradient id="SVGID_12_" gradientUnits="userSpaceOnUse" x1="227.9263" y1="188.2925" x2="202.0244" y2="188.2925" gradientTransform="matrix(0.75 0 0 -0.75 -151.5656 438.8224)">
		<stop  offset="0" style="stop-color:#BD8100"/>
		<stop  offset="0.15" style="stop-color:#FFB545"/>
		<stop  offset="0.25" style="stop-color:#FFD8B3"/>
		<stop  offset="0.52" style="stop-color:#DF9900"/>
		<stop  offset="0.69" style="stop-color:#C78800"/>
		<stop  offset="0.8" style="stop-color:#BC8000"/>
		<stop  offset="0.92" style="stop-color:#B17800"/>
		<stop  offset="1" style="stop-color:#CB8B00"/>
	</linearGradient>
	<path fill="url(#SVGID_12_)" d="M0.102,297.593c0-5.25,4.195-9.75,9.559-9.75c5.441,0,9.711,4.371,9.711,9.773
		c0.23,5.227-4.348,9.746-9.711,9.746c-5.059-0.02-9.707-4.367-9.707-9.746L0.102,297.593z"/>
	
		<linearGradient id="SVGID_13_" gradientUnits="userSpaceOnUse" x1="227.9263" y1="188.29" x2="202.0244" y2="188.29" gradientTransform="matrix(0.75 0 0 -0.75 -151.5656 507.7345)">
		<stop  offset="0" style="stop-color:#BD8100"/>
		<stop  offset="0.15" style="stop-color:#FFB545"/>
		<stop  offset="0.25" style="stop-color:#FFD8B3"/>
		<stop  offset="0.52" style="stop-color:#DF9900"/>
		<stop  offset="0.69" style="stop-color:#C78800"/>
		<stop  offset="0.8" style="stop-color:#BC8000"/>
		<stop  offset="0.92" style="stop-color:#B17800"/>
		<stop  offset="1" style="stop-color:#CB8B00"/>
	</linearGradient>
	<path fill="url(#SVGID_13_)" d="M0.102,366.507c0-5.25,4.195-9.75,9.559-9.75c5.441,0,9.711,4.367,9.711,9.773
		c0.23,5.227-4.348,9.746-9.711,9.746c-5.059-0.02-9.707-4.371-9.707-9.746L0.102,366.507z"/>
	
		<linearGradient id="SVGID_14_" gradientUnits="userSpaceOnUse" x1="227.9263" y1="188.2935" x2="202.0244" y2="188.2935" gradientTransform="matrix(0.75 0 0 -0.75 -151.5656 576.5333)">
		<stop  offset="0" style="stop-color:#BD8100"/>
		<stop  offset="0.15" style="stop-color:#FFB545"/>
		<stop  offset="0.25" style="stop-color:#FFD8B3"/>
		<stop  offset="0.52" style="stop-color:#DF9900"/>
		<stop  offset="0.69" style="stop-color:#C78800"/>
		<stop  offset="0.8" style="stop-color:#BC8000"/>
		<stop  offset="0.92" style="stop-color:#B17800"/>
		<stop  offset="1" style="stop-color:#CB8B00"/>
	</linearGradient>
	<path fill="url(#SVGID_14_)" d="M0.102,435.304c0-5.25,4.195-9.75,9.559-9.75c5.441,0,9.711,4.371,9.711,9.773
		c0.23,5.227-4.348,9.746-9.711,9.746c-5.059-0.02-9.707-4.367-9.707-9.746L0.102,435.304z"/>
	
		<linearGradient id="SVGID_15_" gradientUnits="userSpaceOnUse" x1="227.9263" y1="188.2915" x2="202.0244" y2="188.2915" gradientTransform="matrix(0.75 0 0 -0.75 -151.5656 645.3907)">
		<stop  offset="0" style="stop-color:#BD8100"/>
		<stop  offset="0.15" style="stop-color:#FFB545"/>
		<stop  offset="0.25" style="stop-color:#FFD8B3"/>
		<stop  offset="0.52" style="stop-color:#DF9900"/>
		<stop  offset="0.69" style="stop-color:#C78800"/>
		<stop  offset="0.8" style="stop-color:#BC8000"/>
		<stop  offset="0.92" style="stop-color:#B17800"/>
		<stop  offset="1" style="stop-color:#CB8B00"/>
	</linearGradient>
	<path fill="url(#SVGID_15_)" d="M0.102,504.164c0-5.25,4.195-9.75,9.559-9.75c5.441,0,9.711,4.367,9.711,9.773
		c0.23,5.227-4.348,9.746-9.711,9.746c-5.059-0.02-9.707-4.371-9.707-9.746L0.102,504.164z"/>
</g>
</svg>
