<?xml version="1.0" encoding="utf-8"?>
<!-- Generator: Adobe Illustrator 16.0.0, SVG Export Plug-In . SVG Version: 6.00 Build 0)  -->
<!DOCTYPE svg PUBLIC "-//W3C//DTD SVG 1.1//EN" "http://www.w3.org/Graphics/SVG/1.1/DTD/svg11.dtd">
<svg preserveAspectRatio="none"   version="1.1" id="图层_1" xmlns="http://www.w3.org/2000/svg" xmlns:xlink="http://www.w3.org/1999/xlink" x="0px" y="0px"
	 width="567.152px" height="123.031px" viewBox="-0.203 441.734 567.152 123.031"
	 enable-background="new -0.203 441.734 567.152 123.031" xml:space="preserve">
<g id="surface311">
	
		<linearGradient id="SVGID_1_" gradientUnits="userSpaceOnUse" x1="202.1235" y1="201.3037" x2="202.1235" y2="52.168" gradientTransform="matrix(-0.75 0 0 -0.75 691.2277 598.3029)">
		<stop  offset="0" style="stop-color:#5E89B5"/>
		<stop  offset="0.15" style="stop-color:#8ABAED"/>
		<stop  offset="0.25" style="stop-color:#C6DAF5"/>
		<stop  offset="0.44" style="stop-color:#6D9DCF"/>
		<stop  offset="0.6" style="stop-color:#608BB8"/>
		<stop  offset="0.8" style="stop-color:#50759B"/>
		<stop  offset="0.97" style="stop-color:#486B8D"/>
		<stop  offset="1" style="stop-color:#628FBC"/>
	</linearGradient>
	<path fill="url(#SVGID_1_)" d="M566.949,503.574c0-31.5-24.387-56.25-54.617-56.25c-0.133,1.5,1.41,111.445,0,111.852
		c29.867-0.102,54.617-25.148,54.617-55.926V503.574z"/>
	
		<linearGradient id="SVGID_2_" gradientUnits="userSpaceOnUse" x1="509.2261" y1="201.3047" x2="509.2261" y2="51.3037" gradientTransform="matrix(0.75 0 0 -0.75 -97.6974 598.1066)">
		<stop  offset="0" style="stop-color:#5E89B5"/>
		<stop  offset="0.15" style="stop-color:#8ABAED"/>
		<stop  offset="0.25" style="stop-color:#C6DAF5"/>
		<stop  offset="0.44" style="stop-color:#6D9DCF"/>
		<stop  offset="0.6" style="stop-color:#608BB8"/>
		<stop  offset="0.8" style="stop-color:#50759B"/>
		<stop  offset="0.97" style="stop-color:#486B8D"/>
	</linearGradient>
	<path fill="url(#SVGID_2_)" d="M53.973,447.128h460.5v112.5h-460.5V447.128z"/>
	
		<linearGradient id="SVGID_3_" gradientUnits="userSpaceOnUse" x1="239.1172" y1="201.3672" x2="239.1172" y2="51.9175" gradientTransform="matrix(0.75 0 0 -0.75 -151.8722 598.2091)">
		<stop  offset="0" style="stop-color:#5E89B5"/>
		<stop  offset="0.15" style="stop-color:#8ABAED"/>
		<stop  offset="0.25" style="stop-color:#C6DAF5"/>
		<stop  offset="0.44" style="stop-color:#6D9DCF"/>
		<stop  offset="0.6" style="stop-color:#608BB8"/>
		<stop  offset="0.8" style="stop-color:#50759B"/>
		<stop  offset="0.97" style="stop-color:#486B8D"/>
		<stop  offset="1" style="stop-color:#628FBC"/>
	</linearGradient>
	<path fill="url(#SVGID_3_)" d="M-0.203,503.48c0-30.75,24.391-56.063,54.617-56.063c-0.617-6.188,1.891,112.242,0,111.852
		c-29.867-0.289-54.617-25.148-54.617-56.02V503.48z"/>
	
		<linearGradient id="SVGID_4_" gradientUnits="userSpaceOnUse" x1="204.8252" y1="201.3076" x2="204.8252" y2="184.9893" gradientTransform="matrix(0.75 0 0 -0.75 -90.1525 616.0265)">
		<stop  offset="0" style="stop-color:#5E89B5"/>
		<stop  offset="0.15" style="stop-color:#8ABAED"/>
		<stop  offset="0.25" style="stop-color:#C6DAF5"/>
		<stop  offset="0.44" style="stop-color:#6D9DCF"/>
		<stop  offset="0.6" style="stop-color:#608BB8"/>
		<stop  offset="0.8" style="stop-color:#50759B"/>
		<stop  offset="0.97" style="stop-color:#486B8D"/>
		<stop  offset="1" style="stop-color:#628FBC"/>
	</linearGradient>
	<path fill="url(#SVGID_4_)" d="M61.516,465.046h3.75c0,0,0.152,0.488,0.152,1.09l-0.152,10.16c0,0.75,0.02,0.988-0.145,0.988
		l-3.605-0.238c0,0,0-0.25,0-0.848v-10.402c0,0,0.133-0.75,0.297-0.75H61.516z"/>
	
		<linearGradient id="SVGID_5_" gradientUnits="userSpaceOnUse" x1="204.8262" y1="201.3047" x2="204.8262" y2="184.9922" gradientTransform="matrix(0.75 0 0 -0.75 -90.1525 637.3956)">
		<stop  offset="0" style="stop-color:#5E89B5"/>
		<stop  offset="0.15" style="stop-color:#8ABAED"/>
		<stop  offset="0.25" style="stop-color:#C6DAF5"/>
		<stop  offset="0.44" style="stop-color:#6D9DCF"/>
		<stop  offset="0.6" style="stop-color:#608BB8"/>
		<stop  offset="0.8" style="stop-color:#50759B"/>
		<stop  offset="0.97" style="stop-color:#486B8D"/>
		<stop  offset="1" style="stop-color:#628FBC"/>
	</linearGradient>
	<path fill="url(#SVGID_5_)" d="M61.516,486.417h3.75c0,0,0.152,0.488,0.152,1.086l-0.152,10.164c0,0.75,0.02,0.984-0.145,0.984
		l-3.605-0.234c0,0,0-0.25,0-0.852v-10.398c0,0,0.133-0.75,0.297-0.75H61.516z"/>
	
		<linearGradient id="SVGID_6_" gradientUnits="userSpaceOnUse" x1="204.8262" y1="201.3057" x2="204.8262" y2="184.9873" gradientTransform="matrix(0.75 0 0 -0.75 -90.1525 658.7638)">
		<stop  offset="0" style="stop-color:#5E89B5"/>
		<stop  offset="0.15" style="stop-color:#8ABAED"/>
		<stop  offset="0.25" style="stop-color:#C6DAF5"/>
		<stop  offset="0.44" style="stop-color:#6D9DCF"/>
		<stop  offset="0.6" style="stop-color:#608BB8"/>
		<stop  offset="0.8" style="stop-color:#50759B"/>
		<stop  offset="0.97" style="stop-color:#486B8D"/>
		<stop  offset="1" style="stop-color:#628FBC"/>
	</linearGradient>
	<path fill="url(#SVGID_6_)" d="M61.516,507.785h3.75c0,0,0.152,0.488,0.152,1.09l-0.152,10.16c0,0.75,0.02,0.988-0.145,0.988
		l-3.605-0.238c0,0,0-0.25,0-0.852v-10.398c0,0,0.133-0.75,0.297-0.75H61.516z"/>
	
		<linearGradient id="SVGID_7_" gradientUnits="userSpaceOnUse" x1="204.8262" y1="201.3027" x2="204.8262" y2="184.9902" gradientTransform="matrix(0.75 0 0 -0.75 -90.1525 680.1329)">
		<stop  offset="0" style="stop-color:#5E89B5"/>
		<stop  offset="0.15" style="stop-color:#8ABAED"/>
		<stop  offset="0.25" style="stop-color:#C6DAF5"/>
		<stop  offset="0.44" style="stop-color:#6D9DCF"/>
		<stop  offset="0.6" style="stop-color:#608BB8"/>
		<stop  offset="0.8" style="stop-color:#50759B"/>
		<stop  offset="0.97" style="stop-color:#486B8D"/>
		<stop  offset="1" style="stop-color:#628FBC"/>
	</linearGradient>
	<path fill="url(#SVGID_7_)" d="M61.516,529.156h3.75c0,0,0.152,0.484,0.152,1.086l-0.152,10.164c0,0.75,0.02,0.984-0.145,0.984
		l-3.605-0.234c0,0,0-0.25,0-0.852v-10.398c0,0,0.133-0.75,0.297-0.75H61.516z"/>
	
		<linearGradient id="SVGID_8_" gradientUnits="userSpaceOnUse" x1="204.8262" y1="201.3057" x2="204.8262" y2="184.9873" gradientTransform="matrix(0.75 0 0 -0.75 -90.1525 701.5021)">
		<stop  offset="0" style="stop-color:#5E89B5"/>
		<stop  offset="0.15" style="stop-color:#8ABAED"/>
		<stop  offset="0.25" style="stop-color:#C6DAF5"/>
		<stop  offset="0.44" style="stop-color:#6D9DCF"/>
		<stop  offset="0.6" style="stop-color:#608BB8"/>
		<stop  offset="0.8" style="stop-color:#50759B"/>
		<stop  offset="0.97" style="stop-color:#486B8D"/>
		<stop  offset="1" style="stop-color:#628FBC"/>
	</linearGradient>
	<path fill="url(#SVGID_8_)" d="M61.516,550.523h3.75c0,0,0.152,0.488,0.152,1.09l-0.152,10.16c0,0.75,0.02,0.988-0.145,0.988
		l-3.605-0.238c0,0,0-0.25,0-0.852v-10.398c0,0,0.133-0.75,0.297-0.75H61.516z"/>
	
		<linearGradient id="SVGID_9_" gradientUnits="userSpaceOnUse" x1="204.8252" y1="201.3047" x2="204.8252" y2="184.9873" gradientTransform="matrix(0.75 0 0 -0.75 -90.1525 594.6573)">
		<stop  offset="0" style="stop-color:#5E89B5"/>
		<stop  offset="0.15" style="stop-color:#8ABAED"/>
		<stop  offset="0.25" style="stop-color:#C6DAF5"/>
		<stop  offset="0.44" style="stop-color:#6D9DCF"/>
		<stop  offset="0.6" style="stop-color:#608BB8"/>
		<stop  offset="0.8" style="stop-color:#50759B"/>
		<stop  offset="0.97" style="stop-color:#486B8D"/>
		<stop  offset="1" style="stop-color:#628FBC"/>
	</linearGradient>
	<path fill="url(#SVGID_9_)" d="M61.516,443.679h3.75c0,0,0.152,0.488,0.152,1.086l-0.152,10.164c0,0.75,0.02,0.988-0.145,0.988
		l-3.605-0.238c0,0,0-0.25,0-0.852v-10.398c0,0,0.133-0.75,0.297-0.75H61.516z"/>
	
		<linearGradient id="SVGID_10_" gradientUnits="userSpaceOnUse" x1="204.8257" y1="201.3076" x2="204.8257" y2="184.9893" gradientTransform="matrix(0.75 0 0 -0.75 -101.1837 616.0265)">
		<stop  offset="0" style="stop-color:#5E89B5"/>
		<stop  offset="0.15" style="stop-color:#8ABAED"/>
		<stop  offset="0.25" style="stop-color:#C6DAF5"/>
		<stop  offset="0.44" style="stop-color:#6D9DCF"/>
		<stop  offset="0.6" style="stop-color:#608BB8"/>
		<stop  offset="0.8" style="stop-color:#50759B"/>
		<stop  offset="0.97" style="stop-color:#486B8D"/>
		<stop  offset="1" style="stop-color:#628FBC"/>
	</linearGradient>
	<path fill="url(#SVGID_10_)" d="M50.484,465.046h3.75c0,0,0.152,0.488,0.152,1.09l-0.152,10.16c0,0.75,0.02,0.988-0.145,0.988
		l-3.605-0.238c0,0,0-0.25,0-0.848v-10.402c0,0,0.133-0.75,0.297-0.75H50.484z"/>
	
		<linearGradient id="SVGID_11_" gradientUnits="userSpaceOnUse" x1="204.8267" y1="201.3047" x2="204.8267" y2="184.9922" gradientTransform="matrix(0.75 0 0 -0.75 -101.1837 637.3956)">
		<stop  offset="0" style="stop-color:#5E89B5"/>
		<stop  offset="0.15" style="stop-color:#8ABAED"/>
		<stop  offset="0.25" style="stop-color:#C6DAF5"/>
		<stop  offset="0.44" style="stop-color:#6D9DCF"/>
		<stop  offset="0.6" style="stop-color:#608BB8"/>
		<stop  offset="0.8" style="stop-color:#50759B"/>
		<stop  offset="0.97" style="stop-color:#486B8D"/>
		<stop  offset="1" style="stop-color:#628FBC"/>
	</linearGradient>
	<path fill="url(#SVGID_11_)" d="M50.484,486.417h3.75c0,0,0.152,0.488,0.152,1.086l-0.152,10.164c0,0.75,0.02,0.984-0.145,0.984
		l-3.605-0.234c0,0,0-0.25,0-0.852v-10.398c0,0,0.133-0.75,0.297-0.75H50.484z"/>
	
		<linearGradient id="SVGID_12_" gradientUnits="userSpaceOnUse" x1="204.8267" y1="201.3057" x2="204.8267" y2="184.9873" gradientTransform="matrix(0.75 0 0 -0.75 -101.1837 658.7638)">
		<stop  offset="0" style="stop-color:#5E89B5"/>
		<stop  offset="0.15" style="stop-color:#8ABAED"/>
		<stop  offset="0.25" style="stop-color:#C6DAF5"/>
		<stop  offset="0.44" style="stop-color:#6D9DCF"/>
		<stop  offset="0.6" style="stop-color:#608BB8"/>
		<stop  offset="0.8" style="stop-color:#50759B"/>
		<stop  offset="0.97" style="stop-color:#486B8D"/>
		<stop  offset="1" style="stop-color:#628FBC"/>
	</linearGradient>
	<path fill="url(#SVGID_12_)" d="M50.484,507.785h3.75c0,0,0.152,0.488,0.152,1.09l-0.152,10.16c0,0.75,0.02,0.988-0.145,0.988
		l-3.605-0.238c0,0,0-0.25,0-0.852v-10.398c0,0,0.133-0.75,0.297-0.75H50.484z"/>
	
		<linearGradient id="SVGID_13_" gradientUnits="userSpaceOnUse" x1="204.8267" y1="201.3027" x2="204.8267" y2="184.9902" gradientTransform="matrix(0.75 0 0 -0.75 -101.1837 680.1329)">
		<stop  offset="0" style="stop-color:#5E89B5"/>
		<stop  offset="0.15" style="stop-color:#8ABAED"/>
		<stop  offset="0.25" style="stop-color:#C6DAF5"/>
		<stop  offset="0.44" style="stop-color:#6D9DCF"/>
		<stop  offset="0.6" style="stop-color:#608BB8"/>
		<stop  offset="0.8" style="stop-color:#50759B"/>
		<stop  offset="0.97" style="stop-color:#486B8D"/>
		<stop  offset="1" style="stop-color:#628FBC"/>
	</linearGradient>
	<path fill="url(#SVGID_13_)" d="M50.484,529.156h3.75c0,0,0.152,0.484,0.152,1.086l-0.152,10.164c0,0.75,0.02,0.984-0.145,0.984
		l-3.605-0.234c0,0,0-0.25,0-0.852v-10.398c0,0,0.133-0.75,0.297-0.75H50.484z"/>
	
		<linearGradient id="SVGID_14_" gradientUnits="userSpaceOnUse" x1="204.8267" y1="201.3057" x2="204.8267" y2="184.9873" gradientTransform="matrix(0.75 0 0 -0.75 -101.1837 701.5021)">
		<stop  offset="0" style="stop-color:#5E89B5"/>
		<stop  offset="0.15" style="stop-color:#8ABAED"/>
		<stop  offset="0.25" style="stop-color:#C6DAF5"/>
		<stop  offset="0.44" style="stop-color:#6D9DCF"/>
		<stop  offset="0.6" style="stop-color:#608BB8"/>
		<stop  offset="0.8" style="stop-color:#50759B"/>
		<stop  offset="0.97" style="stop-color:#486B8D"/>
		<stop  offset="1" style="stop-color:#628FBC"/>
	</linearGradient>
	<path fill="url(#SVGID_14_)" d="M50.484,550.523h3.75c0,0,0.152,0.488,0.152,1.09l-0.152,10.16c0,0.75,0.02,0.988-0.145,0.988
		l-3.605-0.238c0,0,0-0.25,0-0.852v-10.398c0,0,0.133-0.75,0.297-0.75H50.484z"/>
	
		<linearGradient id="SVGID_15_" gradientUnits="userSpaceOnUse" x1="204.8257" y1="201.3047" x2="204.8257" y2="184.9873" gradientTransform="matrix(0.75 0 0 -0.75 -101.1837 594.6573)">
		<stop  offset="0" style="stop-color:#5E89B5"/>
		<stop  offset="0.15" style="stop-color:#8ABAED"/>
		<stop  offset="0.25" style="stop-color:#C6DAF5"/>
		<stop  offset="0.44" style="stop-color:#6D9DCF"/>
		<stop  offset="0.6" style="stop-color:#608BB8"/>
		<stop  offset="0.8" style="stop-color:#50759B"/>
		<stop  offset="0.97" style="stop-color:#486B8D"/>
		<stop  offset="1" style="stop-color:#628FBC"/>
	</linearGradient>
	<path fill="url(#SVGID_15_)" d="M50.484,443.679h3.75c0,0,0.152,0.488,0.152,1.086l-0.152,10.164c0,0.75,0.02,0.988-0.145,0.988
		l-3.605-0.238c0,0,0-0.25,0-0.852v-10.398c0,0,0.133-0.75,0.297-0.75H50.484z"/>
	
		<linearGradient id="SVGID_16_" gradientUnits="userSpaceOnUse" x1="207.4268" y1="201.3047" x2="207.4268" y2="37.2627" gradientTransform="matrix(0.75 0 0 -0.75 -97.4581 592.713)">
		<stop  offset="0" style="stop-color:#3967A4"/>
		<stop  offset="0.15" style="stop-color:#6593D9"/>
		<stop  offset="0.25" style="stop-color:#BAC9EA"/>
		<stop  offset="0.44" style="stop-color:#4276BB"/>
		<stop  offset="0.6" style="stop-color:#3A69A6"/>
		<stop  offset="0.8" style="stop-color:#2F578C"/>
		<stop  offset="0.97" style="stop-color:#2B4F80"/>
		<stop  offset="1" style="stop-color:#3C6BAA"/>
	</linearGradient>
	<path fill="url(#SVGID_16_)" d="M54.211,441.734h7.5c0,0,0.316,0.516,0.316,1.176l-0.316,120.324c0,0.75,0.168,1.531-0.012,1.531
		l-7.488-0.031c0,0-0.016-0.578-0.016-1.238l0.016-120.262c0-0.75,0.133-1.5,0.313-1.5H54.211z"/>
	
		<linearGradient id="SVGID_17_" gradientUnits="userSpaceOnUse" x1="206.229" y1="201.3047" x2="206.229" y2="37.2627" gradientTransform="matrix(0.75 0 0 -0.75 -96.5582 592.713)">
		<stop  offset="0" style="stop-color:#5183B7"/>
		<stop  offset="0.15" style="stop-color:#7CB2F0"/>
		<stop  offset="0.25" style="stop-color:#C1D7F6"/>
		<stop  offset="0.44" style="stop-color:#5E96D1"/>
		<stop  offset="0.6" style="stop-color:#5385BA"/>
		<stop  offset="0.8" style="stop-color:#44709D"/>
		<stop  offset="0.97" style="stop-color:#3E668F"/>
		<stop  offset="1" style="stop-color:#5588BE"/>
	</linearGradient>
	<path fill="url(#SVGID_17_)" d="M55.109,441.734h6c0,0,0.02,0.516,0.02,1.176l-0.02,120.324c0,0.75-0.094,1.531-0.23,1.531
		l-5.77-0.031c0,0-0.012-0.578-0.012-1.238l0.012-120.262c0-0.75,0.102-1.5,0.242-1.5H55.109z"/>
	
		<linearGradient id="SVGID_18_" gradientUnits="userSpaceOnUse" x1="204.8267" y1="201.3086" x2="204.8267" y2="184.9902" gradientTransform="matrix(0.75 0 0 -0.75 364.2177 616.0265)">
		<stop  offset="0" style="stop-color:#5E89B5"/>
		<stop  offset="0.15" style="stop-color:#8ABAED"/>
		<stop  offset="0.25" style="stop-color:#C6DAF5"/>
		<stop  offset="0.44" style="stop-color:#6D9DCF"/>
		<stop  offset="0.6" style="stop-color:#608BB8"/>
		<stop  offset="0.8" style="stop-color:#50759B"/>
		<stop  offset="0.97" style="stop-color:#486B8D"/>
		<stop  offset="1" style="stop-color:#628FBC"/>
	</linearGradient>
	<path fill="url(#SVGID_18_)" d="M515.886,465.046h3.75c0,0,0.152,0.488,0.152,1.09l-0.152,10.16c0,0.75,0.016,0.988-0.148,0.988
		l-3.602-0.238c0,0,0-0.25,0-0.848v-10.402c0,0,0.133-0.75,0.297-0.75H515.886z"/>
	
		<linearGradient id="SVGID_19_" gradientUnits="userSpaceOnUse" x1="204.8276" y1="201.3057" x2="204.8276" y2="184.9932" gradientTransform="matrix(0.75 0 0 -0.75 364.2177 637.3956)">
		<stop  offset="0" style="stop-color:#5E89B5"/>
		<stop  offset="0.15" style="stop-color:#8ABAED"/>
		<stop  offset="0.25" style="stop-color:#C6DAF5"/>
		<stop  offset="0.44" style="stop-color:#6D9DCF"/>
		<stop  offset="0.6" style="stop-color:#608BB8"/>
		<stop  offset="0.8" style="stop-color:#50759B"/>
		<stop  offset="0.97" style="stop-color:#486B8D"/>
		<stop  offset="1" style="stop-color:#628FBC"/>
	</linearGradient>
	<path fill="url(#SVGID_19_)" d="M515.886,486.417h3.75c0,0,0.152,0.488,0.152,1.086l-0.152,10.164c0,0.75,0.016,0.984-0.148,0.984
		l-3.602-0.234c0,0,0-0.25,0-0.852v-10.398c0,0,0.133-0.75,0.297-0.75H515.886z"/>
	
		<linearGradient id="SVGID_20_" gradientUnits="userSpaceOnUse" x1="204.8276" y1="201.3066" x2="204.8276" y2="184.9883" gradientTransform="matrix(0.75 0 0 -0.75 364.2177 658.7638)">
		<stop  offset="0" style="stop-color:#5E89B5"/>
		<stop  offset="0.15" style="stop-color:#8ABAED"/>
		<stop  offset="0.25" style="stop-color:#C6DAF5"/>
		<stop  offset="0.44" style="stop-color:#6D9DCF"/>
		<stop  offset="0.6" style="stop-color:#608BB8"/>
		<stop  offset="0.8" style="stop-color:#50759B"/>
		<stop  offset="0.97" style="stop-color:#486B8D"/>
		<stop  offset="1" style="stop-color:#628FBC"/>
	</linearGradient>
	<path fill="url(#SVGID_20_)" d="M515.886,507.785h3.75c0,0,0.152,0.488,0.152,1.09l-0.152,10.16c0,0.75,0.016,0.988-0.148,0.988
		l-3.602-0.238c0,0,0-0.25,0-0.852v-10.398c0,0,0.133-0.75,0.297-0.75H515.886z"/>
	
		<linearGradient id="SVGID_21_" gradientUnits="userSpaceOnUse" x1="204.8276" y1="201.3037" x2="204.8276" y2="184.9912" gradientTransform="matrix(0.75 0 0 -0.75 364.2177 680.1329)">
		<stop  offset="0" style="stop-color:#5E89B5"/>
		<stop  offset="0.15" style="stop-color:#8ABAED"/>
		<stop  offset="0.25" style="stop-color:#C6DAF5"/>
		<stop  offset="0.44" style="stop-color:#6D9DCF"/>
		<stop  offset="0.6" style="stop-color:#608BB8"/>
		<stop  offset="0.8" style="stop-color:#50759B"/>
		<stop  offset="0.97" style="stop-color:#486B8D"/>
		<stop  offset="1" style="stop-color:#628FBC"/>
	</linearGradient>
	<path fill="url(#SVGID_21_)" d="M515.886,529.156h3.75c0,0,0.152,0.484,0.152,1.086l-0.152,10.164c0,0.75,0.016,0.984-0.148,0.984
		l-3.602-0.234c0,0,0-0.25,0-0.852v-10.398c0,0,0.133-0.75,0.297-0.75H515.886z"/>
	
		<linearGradient id="SVGID_22_" gradientUnits="userSpaceOnUse" x1="204.8276" y1="201.3066" x2="204.8276" y2="184.9883" gradientTransform="matrix(0.75 0 0 -0.75 364.2177 701.5021)">
		<stop  offset="0" style="stop-color:#5E89B5"/>
		<stop  offset="0.15" style="stop-color:#8ABAED"/>
		<stop  offset="0.25" style="stop-color:#C6DAF5"/>
		<stop  offset="0.44" style="stop-color:#6D9DCF"/>
		<stop  offset="0.6" style="stop-color:#608BB8"/>
		<stop  offset="0.8" style="stop-color:#50759B"/>
		<stop  offset="0.97" style="stop-color:#486B8D"/>
		<stop  offset="1" style="stop-color:#628FBC"/>
	</linearGradient>
	<path fill="url(#SVGID_22_)" d="M515.886,550.523h3.75c0,0,0.152,0.488,0.152,1.09l-0.152,10.16c0,0.75,0.016,0.988-0.148,0.988
		l-3.602-0.238c0,0,0-0.25,0-0.852v-10.398c0,0,0.133-0.75,0.297-0.75H515.886z"/>
	
		<linearGradient id="SVGID_23_" gradientUnits="userSpaceOnUse" x1="204.8267" y1="201.3057" x2="204.8267" y2="184.9883" gradientTransform="matrix(0.75 0 0 -0.75 364.2177 594.6573)">
		<stop  offset="0" style="stop-color:#5E89B5"/>
		<stop  offset="0.15" style="stop-color:#8ABAED"/>
		<stop  offset="0.25" style="stop-color:#C6DAF5"/>
		<stop  offset="0.44" style="stop-color:#6D9DCF"/>
		<stop  offset="0.6" style="stop-color:#608BB8"/>
		<stop  offset="0.8" style="stop-color:#50759B"/>
		<stop  offset="0.97" style="stop-color:#486B8D"/>
		<stop  offset="1" style="stop-color:#628FBC"/>
	</linearGradient>
	<path fill="url(#SVGID_23_)" d="M515.886,443.679h3.75c0,0,0.152,0.488,0.152,1.086l-0.152,10.164c0,0.75,0.016,0.988-0.148,0.988
		l-3.602-0.238c0,0,0-0.25,0-0.852v-10.398c0,0,0.133-0.75,0.297-0.75H515.886z"/>
	
		<linearGradient id="SVGID_24_" gradientUnits="userSpaceOnUse" x1="204.8262" y1="201.3086" x2="204.8262" y2="184.9902" gradientTransform="matrix(0.75 0 0 -0.75 353.1864 616.0265)">
		<stop  offset="0" style="stop-color:#5E89B5"/>
		<stop  offset="0.15" style="stop-color:#8ABAED"/>
		<stop  offset="0.25" style="stop-color:#C6DAF5"/>
		<stop  offset="0.44" style="stop-color:#6D9DCF"/>
		<stop  offset="0.6" style="stop-color:#608BB8"/>
		<stop  offset="0.8" style="stop-color:#50759B"/>
		<stop  offset="0.97" style="stop-color:#486B8D"/>
		<stop  offset="1" style="stop-color:#628FBC"/>
	</linearGradient>
	<path fill="url(#SVGID_24_)" d="M504.855,465.046h3.75c0,0,0.152,0.488,0.152,1.09l-0.152,10.16c0,0.75,0.02,0.988-0.145,0.988
		l-3.605-0.238c0,0,0-0.25,0-0.848v-10.402c0,0,0.133-0.75,0.297-0.75H504.855z"/>
	
		<linearGradient id="SVGID_25_" gradientUnits="userSpaceOnUse" x1="204.8271" y1="201.3057" x2="204.8271" y2="184.9932" gradientTransform="matrix(0.75 0 0 -0.75 353.1864 637.3956)">
		<stop  offset="0" style="stop-color:#5E89B5"/>
		<stop  offset="0.15" style="stop-color:#8ABAED"/>
		<stop  offset="0.25" style="stop-color:#C6DAF5"/>
		<stop  offset="0.44" style="stop-color:#6D9DCF"/>
		<stop  offset="0.6" style="stop-color:#608BB8"/>
		<stop  offset="0.8" style="stop-color:#50759B"/>
		<stop  offset="0.97" style="stop-color:#486B8D"/>
		<stop  offset="1" style="stop-color:#628FBC"/>
	</linearGradient>
	<path fill="url(#SVGID_25_)" d="M504.855,486.417h3.75c0,0,0.152,0.488,0.152,1.086l-0.152,10.164c0,0.75,0.02,0.984-0.145,0.984
		l-3.605-0.234c0,0,0-0.25,0-0.852v-10.398c0,0,0.133-0.75,0.297-0.75H504.855z"/>
	
		<linearGradient id="SVGID_26_" gradientUnits="userSpaceOnUse" x1="204.8271" y1="201.3066" x2="204.8271" y2="184.9883" gradientTransform="matrix(0.75 0 0 -0.75 353.1864 658.7638)">
		<stop  offset="0" style="stop-color:#5E89B5"/>
		<stop  offset="0.15" style="stop-color:#8ABAED"/>
		<stop  offset="0.25" style="stop-color:#C6DAF5"/>
		<stop  offset="0.44" style="stop-color:#6D9DCF"/>
		<stop  offset="0.6" style="stop-color:#608BB8"/>
		<stop  offset="0.8" style="stop-color:#50759B"/>
		<stop  offset="0.97" style="stop-color:#486B8D"/>
		<stop  offset="1" style="stop-color:#628FBC"/>
	</linearGradient>
	<path fill="url(#SVGID_26_)" d="M504.855,507.785h3.75c0,0,0.152,0.488,0.152,1.09l-0.152,10.16c0,0.75,0.02,0.988-0.145,0.988
		l-3.605-0.238c0,0,0-0.25,0-0.852v-10.398c0,0,0.133-0.75,0.297-0.75H504.855z"/>
	
		<linearGradient id="SVGID_27_" gradientUnits="userSpaceOnUse" x1="204.8271" y1="201.3037" x2="204.8271" y2="184.9912" gradientTransform="matrix(0.75 0 0 -0.75 353.1864 680.1329)">
		<stop  offset="0" style="stop-color:#5E89B5"/>
		<stop  offset="0.15" style="stop-color:#8ABAED"/>
		<stop  offset="0.25" style="stop-color:#C6DAF5"/>
		<stop  offset="0.44" style="stop-color:#6D9DCF"/>
		<stop  offset="0.6" style="stop-color:#608BB8"/>
		<stop  offset="0.8" style="stop-color:#50759B"/>
		<stop  offset="0.97" style="stop-color:#486B8D"/>
		<stop  offset="1" style="stop-color:#628FBC"/>
	</linearGradient>
	<path fill="url(#SVGID_27_)" d="M504.855,529.156h3.75c0,0,0.152,0.484,0.152,1.086l-0.152,10.164c0,0.75,0.02,0.984-0.145,0.984
		l-3.605-0.234c0,0,0-0.25,0-0.852v-10.398c0,0,0.133-0.75,0.297-0.75H504.855z"/>
	
		<linearGradient id="SVGID_28_" gradientUnits="userSpaceOnUse" x1="204.8271" y1="201.3066" x2="204.8271" y2="184.9883" gradientTransform="matrix(0.75 0 0 -0.75 353.1864 701.5021)">
		<stop  offset="0" style="stop-color:#5E89B5"/>
		<stop  offset="0.15" style="stop-color:#8ABAED"/>
		<stop  offset="0.25" style="stop-color:#C6DAF5"/>
		<stop  offset="0.44" style="stop-color:#6D9DCF"/>
		<stop  offset="0.6" style="stop-color:#608BB8"/>
		<stop  offset="0.8" style="stop-color:#50759B"/>
		<stop  offset="0.97" style="stop-color:#486B8D"/>
		<stop  offset="1" style="stop-color:#628FBC"/>
	</linearGradient>
	<path fill="url(#SVGID_28_)" d="M504.855,550.523h3.75c0,0,0.152,0.488,0.152,1.09l-0.152,10.16c0,0.75,0.02,0.988-0.145,0.988
		l-3.605-0.238c0,0,0-0.25,0-0.852v-10.398c0,0,0.133-0.75,0.297-0.75H504.855z"/>
	
		<linearGradient id="SVGID_29_" gradientUnits="userSpaceOnUse" x1="204.8262" y1="201.3057" x2="204.8262" y2="184.9883" gradientTransform="matrix(0.75 0 0 -0.75 353.1864 594.6573)">
		<stop  offset="0" style="stop-color:#5E89B5"/>
		<stop  offset="0.15" style="stop-color:#8ABAED"/>
		<stop  offset="0.25" style="stop-color:#C6DAF5"/>
		<stop  offset="0.44" style="stop-color:#6D9DCF"/>
		<stop  offset="0.6" style="stop-color:#608BB8"/>
		<stop  offset="0.8" style="stop-color:#50759B"/>
		<stop  offset="0.97" style="stop-color:#486B8D"/>
		<stop  offset="1" style="stop-color:#628FBC"/>
	</linearGradient>
	<path fill="url(#SVGID_29_)" d="M504.855,443.679h3.75c0,0,0.152,0.488,0.152,1.086l-0.152,10.164c0,0.75,0.02,0.988-0.145,0.988
		l-3.605-0.238c0,0,0-0.25,0-0.852v-10.398c0,0,0.133-0.75,0.297-0.75H504.855z"/>
	
		<linearGradient id="SVGID_30_" gradientUnits="userSpaceOnUse" x1="207.4258" y1="201.3057" x2="207.4258" y2="37.2637" gradientTransform="matrix(0.75 0 0 -0.75 356.913 592.713)">
		<stop  offset="0" style="stop-color:#3967A4"/>
		<stop  offset="0.15" style="stop-color:#6593D9"/>
		<stop  offset="0.25" style="stop-color:#BAC9EA"/>
		<stop  offset="0.44" style="stop-color:#4276BB"/>
		<stop  offset="0.6" style="stop-color:#3A69A6"/>
		<stop  offset="0.8" style="stop-color:#2F578C"/>
		<stop  offset="0.97" style="stop-color:#2B4F80"/>
		<stop  offset="1" style="stop-color:#3C6BAA"/>
	</linearGradient>
	<path fill="url(#SVGID_30_)" d="M508.582,441.734h7.5c0,0,0.316,0.516,0.316,1.176l-0.316,120.324c0,0.75,0.168,1.531-0.012,1.531
		l-7.488-0.031c0,0-0.016-0.578-0.016-1.238l0.016-120.262c0-0.75,0.129-1.5,0.309-1.5H508.582z"/>
	
		<linearGradient id="SVGID_31_" gradientUnits="userSpaceOnUse" x1="206.2295" y1="201.3057" x2="206.2295" y2="37.2637" gradientTransform="matrix(0.75 0 0 -0.75 357.8124 592.713)">
		<stop  offset="0" style="stop-color:#5183B7"/>
		<stop  offset="0.15" style="stop-color:#7CB2F0"/>
		<stop  offset="0.25" style="stop-color:#C1D7F6"/>
		<stop  offset="0.44" style="stop-color:#5E96D1"/>
		<stop  offset="0.6" style="stop-color:#5385BA"/>
		<stop  offset="0.8" style="stop-color:#44709D"/>
		<stop  offset="0.97" style="stop-color:#3E668F"/>
		<stop  offset="1" style="stop-color:#5588BE"/>
	</linearGradient>
	<path fill="url(#SVGID_31_)" d="M509.48,441.734h6c0,0,0.02,0.516,0.02,1.176l-0.02,120.324c0,0.75-0.094,1.531-0.23,1.531
		l-5.77-0.031c0,0-0.012-0.578-0.012-1.238l0.012-120.262c0-0.75,0.102-1.5,0.238-1.5H509.48z"/>
</g>
</svg>
