<?xml version="1.0" encoding="utf-8"?>
<!-- Generator: Adobe Illustrator 16.0.0, SVG Export Plug-In . SVG Version: 6.00 Build 0)  -->
<!DOCTYPE svg PUBLIC "-//W3C//DTD SVG 1.1//EN" "http://www.w3.org/Graphics/SVG/1.1/DTD/svg11.dtd">
<svg preserveAspectRatio="none" version="1.1" id="图层_1" xmlns="http://www.w3.org/2000/svg" xmlns:xlink="http://www.w3.org/1999/xlink" x="0px" y="0px"
	 width="340.5px" height="148.598px" viewBox="0 0 340.5 148.598" enable-background="new 0 0 340.5 148.598" xml:space="preserve">
<g id="surface641">
	
		<linearGradient id="SVGID_1_" gradientUnits="userSpaceOnUse" x1="322.9756" y1="358.0139" x2="-1.0244" y2="358.0139" gradientTransform="matrix(0.75 0 0 0.75 49.3462 -142.2866)">
		<stop  offset="0" style="stop-color:#B5B5B5"/>
		<stop  offset="0.01" style="stop-color:#FFFFFF"/>
		<stop  offset="0.03" style="stop-color:#EBEBEB"/>
		<stop  offset="0.64" style="stop-color:#E7E7E7"/>
		<stop  offset="0.99" style="stop-color:#E2E2E2"/>
		<stop  offset="1" style="stop-color:#A8A8A8"/>
	</linearGradient>
	<path fill="url(#SVGID_1_)" d="M48.578,119.473h243v13.5h-243V119.473z"/>
	
		<linearGradient id="SVGID_2_" gradientUnits="userSpaceOnUse" x1="11.9746" y1="353.5168" x2="-1.0254" y2="353.5168" gradientTransform="matrix(0.75 0 0 0.75 53.1084 -128.8989)">
		<stop  offset="0" style="stop-color:#A8A8A8"/>
		<stop  offset="0.01" style="stop-color:#F2F2F2"/>
		<stop  offset="0.03" style="stop-color:#DBDBDB"/>
		<stop  offset="0.64" style="stop-color:#D8D8D8"/>
		<stop  offset="0.99" style="stop-color:#D3D3D3"/>
		<stop  offset="1" style="stop-color:#9C9C9C"/>
	</linearGradient>
	<path fill="url(#SVGID_2_)" d="M52.34,132.864h9.75v6.75h-9.75V132.864z"/>
	
		<radialGradient id="SVGID_3_" cx="7.147" cy="357.1897" r="11.5658" gradientTransform="matrix(0.75 0 0 0.75 51.7012 -125.5502)" gradientUnits="userSpaceOnUse">
		<stop  offset="0" style="stop-color:#4F4D4D"/>
		<stop  offset="0.54" style="stop-color:#555353"/>
		<stop  offset="0.71" style="stop-color:#A2A1A1"/>
		<stop  offset="0.92" style="stop-color:#4F4D4D"/>
		<stop  offset="1" style="stop-color:#555353"/>
	</radialGradient>
	<path fill="url(#SVGID_3_)" stroke="#D4D6DB" stroke-width="0.25" stroke-linejoin="bevel" stroke-miterlimit="10" d="
		M50.934,142.211c0-3,2.734-6,6.125-6c3.625,0,6.141,2.738,6.141,6.133c-0.266,3.617-2.75,6.129-6.141,6.129
		c-3.125-0.262-6.137-2.75-6.137-6.129L50.934,142.211z"/>
	
		<linearGradient id="SVGID_4_" gradientUnits="userSpaceOnUse" x1="3.9575" y1="351.509" x2="-1.0317" y2="351.509" gradientTransform="matrix(0.75 0 0 0.75 55.9683 -121.2885)">
		<stop  offset="0" style="stop-color:#C7C7C7"/>
		<stop  offset="0.15" style="stop-color:#FFFFFF"/>
		<stop  offset="0.25" style="stop-color:#FFFFFF"/>
		<stop  offset="0.52" style="stop-color:#DFDFDF"/>
		<stop  offset="0.69" style="stop-color:#C7C7C7"/>
		<stop  offset="0.8" style="stop-color:#BCBCBC"/>
		<stop  offset="0.92" style="stop-color:#B1B1B1"/>
	</linearGradient>
	<path fill="url(#SVGID_4_)" d="M55.199,141.973c0-0.75,0.836-1.5,1.867-1.5c1.133,0,1.871,0.836,1.871,1.871
		c0.012,1.129-0.836,1.867-1.871,1.867c-1.117,0.012-1.871-0.84-1.871-1.867L55.199,141.973z"/>
	
		<linearGradient id="SVGID_5_" gradientUnits="userSpaceOnUse" x1="11.978" y1="353.5168" x2="-1.022" y2="353.5168" gradientTransform="matrix(0.75 0 0 0.75 128.5322 -128.8989)">
		<stop  offset="0" style="stop-color:#A8A8A8"/>
		<stop  offset="0.01" style="stop-color:#F2F2F2"/>
		<stop  offset="0.03" style="stop-color:#DBDBDB"/>
		<stop  offset="0.64" style="stop-color:#D8D8D8"/>
		<stop  offset="0.99" style="stop-color:#D3D3D3"/>
		<stop  offset="1" style="stop-color:#9C9C9C"/>
	</linearGradient>
	<path fill="url(#SVGID_5_)" d="M127.766,132.864h9.75v6.75h-9.75V132.864z"/>
	
		<radialGradient id="SVGID_6_" cx="7.1426" cy="357.1897" r="11.5689" gradientTransform="matrix(0.75 0 0 0.75 127.125 -125.5502)" gradientUnits="userSpaceOnUse">
		<stop  offset="0" style="stop-color:#4F4D4D"/>
		<stop  offset="0.54" style="stop-color:#555353"/>
		<stop  offset="0.71" style="stop-color:#A2A1A1"/>
		<stop  offset="0.92" style="stop-color:#4F4D4D"/>
		<stop  offset="1" style="stop-color:#555353"/>
	</radialGradient>
	<path fill="url(#SVGID_6_)" stroke="#D4D6DB" stroke-width="0.25" stroke-linejoin="bevel" stroke-miterlimit="10" d="
		M126.355,142.211c0-3,2.738-6,6.129-6c3.621,0,6.137,2.738,6.137,6.133c-0.266,3.617-2.746,6.129-6.137,6.129
		c-3.129-0.262-6.141-2.75-6.141-6.129L126.355,142.211z"/>
	
		<linearGradient id="SVGID_7_" gradientUnits="userSpaceOnUse" x1="3.96" y1="351.509" x2="-1.0283" y2="351.509" gradientTransform="matrix(0.75 0 0 0.75 131.3921 -121.2885)">
		<stop  offset="0" style="stop-color:#C7C7C7"/>
		<stop  offset="0.15" style="stop-color:#FFFFFF"/>
		<stop  offset="0.25" style="stop-color:#FFFFFF"/>
		<stop  offset="0.52" style="stop-color:#DFDFDF"/>
		<stop  offset="0.69" style="stop-color:#C7C7C7"/>
		<stop  offset="0.8" style="stop-color:#BCBCBC"/>
		<stop  offset="0.92" style="stop-color:#B1B1B1"/>
	</linearGradient>
	<path fill="url(#SVGID_7_)" d="M130.625,141.973c0-0.75,0.832-1.5,1.867-1.5c1.133,0,1.871,0.836,1.871,1.871
		c0.012,1.129-0.84,1.867-1.871,1.867c-1.117,0.012-1.871-0.84-1.871-1.867L130.625,141.973z"/>
	
		<linearGradient id="SVGID_8_" gradientUnits="userSpaceOnUse" x1="11.9736" y1="353.5168" x2="-1.0264" y2="353.5168" gradientTransform="matrix(0.75 0 0 0.75 203.9565 -128.8989)">
		<stop  offset="0" style="stop-color:#A8A8A8"/>
		<stop  offset="0.01" style="stop-color:#F2F2F2"/>
		<stop  offset="0.03" style="stop-color:#DBDBDB"/>
		<stop  offset="0.64" style="stop-color:#D8D8D8"/>
		<stop  offset="0.99" style="stop-color:#D3D3D3"/>
		<stop  offset="1" style="stop-color:#9C9C9C"/>
	</linearGradient>
	<path fill="url(#SVGID_8_)" d="M203.188,132.864h9.75v6.75h-9.75V132.864z"/>
	
		<radialGradient id="SVGID_9_" cx="7.146" cy="357.1897" r="11.5665" gradientTransform="matrix(0.75 0 0 0.75 202.5488 -125.5502)" gradientUnits="userSpaceOnUse">
		<stop  offset="0" style="stop-color:#4F4D4D"/>
		<stop  offset="0.54" style="stop-color:#555353"/>
		<stop  offset="0.71" style="stop-color:#A2A1A1"/>
		<stop  offset="0.92" style="stop-color:#4F4D4D"/>
		<stop  offset="1" style="stop-color:#555353"/>
	</radialGradient>
	<path fill="url(#SVGID_9_)" stroke="#D4D6DB" stroke-width="0.25" stroke-linejoin="bevel" stroke-miterlimit="10" d="
		M201.781,142.211c0-3,2.734-6,6.125-6c3.625,0,6.141,2.738,6.141,6.133c-0.266,3.617-2.75,6.129-6.141,6.129
		c-3.125-0.262-6.137-2.75-6.137-6.129L201.781,142.211z"/>
	
		<linearGradient id="SVGID_10_" gradientUnits="userSpaceOnUse" x1="3.9624" y1="351.509" x2="-1.0317" y2="351.509" gradientTransform="matrix(0.75 0 0 0.75 206.8164 -121.2885)">
		<stop  offset="0" style="stop-color:#C7C7C7"/>
		<stop  offset="0.15" style="stop-color:#FFFFFF"/>
		<stop  offset="0.25" style="stop-color:#FFFFFF"/>
		<stop  offset="0.52" style="stop-color:#DFDFDF"/>
		<stop  offset="0.69" style="stop-color:#C7C7C7"/>
		<stop  offset="0.8" style="stop-color:#BCBCBC"/>
		<stop  offset="0.92" style="stop-color:#B1B1B1"/>
	</linearGradient>
	<path fill="url(#SVGID_10_)" d="M206.047,141.973c0-0.75,0.836-1.5,1.867-1.5c1.133,0,1.875,0.836,1.875,1.871
		c0.008,1.129-0.84,1.867-1.875,1.867c-1.117,0.012-1.871-0.84-1.871-1.867L206.047,141.973z"/>
	
		<linearGradient id="SVGID_11_" gradientUnits="userSpaceOnUse" x1="11.9761" y1="353.5168" x2="-1.0239" y2="353.5168" gradientTransform="matrix(0.75 0 0 0.75 279.3804 -128.8989)">
		<stop  offset="0" style="stop-color:#A8A8A8"/>
		<stop  offset="0.01" style="stop-color:#F2F2F2"/>
		<stop  offset="0.03" style="stop-color:#DBDBDB"/>
		<stop  offset="0.64" style="stop-color:#D8D8D8"/>
		<stop  offset="0.99" style="stop-color:#D3D3D3"/>
		<stop  offset="1" style="stop-color:#9C9C9C"/>
	</linearGradient>
	<path fill="url(#SVGID_11_)" d="M278.613,132.864h9.75v6.75h-9.75V132.864z"/>
	
		<radialGradient id="SVGID_12_" cx="7.1431" cy="357.1897" r="11.5685" gradientTransform="matrix(0.75 0 0 0.75 277.9731 -125.5502)" gradientUnits="userSpaceOnUse">
		<stop  offset="0" style="stop-color:#4F4D4D"/>
		<stop  offset="0.54" style="stop-color:#555353"/>
		<stop  offset="0.71" style="stop-color:#A2A1A1"/>
		<stop  offset="0.92" style="stop-color:#4F4D4D"/>
		<stop  offset="1" style="stop-color:#555353"/>
	</radialGradient>
	<path fill="url(#SVGID_12_)" stroke="#D4D6DB" stroke-width="0.25" stroke-linejoin="bevel" stroke-miterlimit="10" d="
		M277.207,142.211c0-3,2.734-6,6.125-6c3.625,0,6.137,2.738,6.137,6.133c-0.262,3.617-2.746,6.129-6.137,6.129
		c-3.125-0.262-6.141-2.75-6.141-6.129L277.207,142.211z"/>
	
		<linearGradient id="SVGID_13_" gradientUnits="userSpaceOnUse" x1="3.96" y1="351.509" x2="-1.0293" y2="351.509" gradientTransform="matrix(0.75 0 0 0.75 282.2402 -121.2885)">
		<stop  offset="0" style="stop-color:#C7C7C7"/>
		<stop  offset="0.15" style="stop-color:#FFFFFF"/>
		<stop  offset="0.25" style="stop-color:#FFFFFF"/>
		<stop  offset="0.52" style="stop-color:#DFDFDF"/>
		<stop  offset="0.69" style="stop-color:#C7C7C7"/>
		<stop  offset="0.8" style="stop-color:#BCBCBC"/>
		<stop  offset="0.92" style="stop-color:#B1B1B1"/>
	</linearGradient>
	<path fill="url(#SVGID_13_)" d="M281.473,141.973c0-0.75,0.836-1.5,1.867-1.5c1.133,0,1.871,0.836,1.871,1.871
		c0.012,1.129-0.836,1.867-1.871,1.867c-1.117,0.012-1.871-0.84-1.871-1.867L281.473,141.973z"/>
	
		<linearGradient id="SVGID_14_" gradientUnits="userSpaceOnUse" x1="63.9756" y1="352.5168" x2="-1.0244" y2="352.5168" gradientTransform="matrix(0.75 0 0 0.75 0.7676 -147.8862)">
		<stop  offset="0" style="stop-color:#3D3B3B"/>
		<stop  offset="0.01" style="stop-color:#908F8F"/>
		<stop  offset="0.03" style="stop-color:#514F4F"/>
		<stop  offset="0.64" style="stop-color:#504E4E"/>
		<stop  offset="0.99" style="stop-color:#4E4C4C"/>
		<stop  offset="1" style="stop-color:#383636"/>
	</linearGradient>
	<path fill="url(#SVGID_14_)" d="M0,113.875h48.75v5.25H0V113.875z"/>
	
		<linearGradient id="SVGID_15_" gradientUnits="userSpaceOnUse" x1="63.9756" y1="355.0139" x2="-1.0244" y2="355.0139" gradientTransform="matrix(0.75 0 0 0.75 0.7676 -142.2866)">
		<stop  offset="0" style="stop-color:#3D3B3B"/>
		<stop  offset="0.01" style="stop-color:#908F8F"/>
		<stop  offset="0.03" style="stop-color:#514F4F"/>
		<stop  offset="0.64" style="stop-color:#504E4E"/>
		<stop  offset="0.99" style="stop-color:#4E4C4C"/>
		<stop  offset="1" style="stop-color:#383636"/>
	</linearGradient>
	<path fill="url(#SVGID_15_)" d="M0,119.473h48.75v9L0,119.473z"/>
	
		<linearGradient id="SVGID_16_" gradientUnits="userSpaceOnUse" x1="-1112.4775" y1="352.5168" x2="-1177.4775" y2="352.5168" gradientTransform="matrix(-0.75 0 0 0.75 -542.6074 -147.8862)">
		<stop  offset="0" style="stop-color:#3D3B3B"/>
		<stop  offset="0.01" style="stop-color:#908F8F"/>
		<stop  offset="0.03" style="stop-color:#514F4F"/>
		<stop  offset="0.64" style="stop-color:#504E4E"/>
		<stop  offset="0.99" style="stop-color:#4E4C4C"/>
		<stop  offset="1" style="stop-color:#383636"/>
	</linearGradient>
	<path fill="url(#SVGID_16_)" d="M340.5,113.875h-48.75v5.25h48.75V113.875z"/>
	
		<linearGradient id="SVGID_17_" gradientUnits="userSpaceOnUse" x1="-1112.4775" y1="355.0139" x2="-1177.4775" y2="355.0139" gradientTransform="matrix(-0.75 0 0 0.75 -542.6074 -142.2866)">
		<stop  offset="0" style="stop-color:#3D3B3B"/>
		<stop  offset="0.01" style="stop-color:#908F8F"/>
		<stop  offset="0.03" style="stop-color:#514F4F"/>
		<stop  offset="0.64" style="stop-color:#504E4E"/>
		<stop  offset="0.99" style="stop-color:#4E4C4C"/>
		<stop  offset="1" style="stop-color:#383636"/>
	</linearGradient>
	<path fill="url(#SVGID_17_)" d="M340.5,119.473h-48.75v9L340.5,119.473z"/>
	
		<linearGradient id="SVGID_18_" gradientUnits="userSpaceOnUse" x1="79.9766" y1="401.0149" x2="-1.0234" y2="401.0149" gradientTransform="matrix(0.75 0 0 0.75 49.458 -220.1069)">
		<stop  offset="0" style="stop-color:#90A38C"/>
		<stop  offset="0.01" style="stop-color:#D8EBD4"/>
		<stop  offset="0.03" style="stop-color:#BDD4B7"/>
		<stop  offset="0.64" style="stop-color:#BAD0B4"/>
		<stop  offset="0.99" style="stop-color:#B5CCB0"/>
		<stop  offset="1" style="stop-color:#869782"/>
	</linearGradient>
	<path fill="url(#SVGID_18_)" d="M48.691,41.653h60.75v78h-60.75V41.653z"/>
	
		<linearGradient id="SVGID_19_" gradientUnits="userSpaceOnUse" x1="79.9775" y1="401.0149" x2="-1.0234" y2="401.0149" gradientTransform="matrix(0.75 0 0 0.75 110.2939 -220.1069)">
		<stop  offset="0" style="stop-color:#90A38C"/>
		<stop  offset="0.01" style="stop-color:#D8EBD4"/>
		<stop  offset="0.03" style="stop-color:#BDD4B7"/>
		<stop  offset="0.64" style="stop-color:#BAD0B4"/>
		<stop  offset="0.99" style="stop-color:#B5CCB0"/>
		<stop  offset="1" style="stop-color:#869782"/>
	</linearGradient>
	<path fill="url(#SVGID_19_)" d="M109.527,41.653h60.75v78h-60.75V41.653z"/>
	
		<linearGradient id="SVGID_20_" gradientUnits="userSpaceOnUse" x1="79.9741" y1="401.0149" x2="-1.0259" y2="401.0149" gradientTransform="matrix(0.75 0 0 0.75 170.9058 -220.1069)">
		<stop  offset="0" style="stop-color:#90A38C"/>
		<stop  offset="0.01" style="stop-color:#D8EBD4"/>
		<stop  offset="0.03" style="stop-color:#BDD4B7"/>
		<stop  offset="0.64" style="stop-color:#BAD0B4"/>
		<stop  offset="0.99" style="stop-color:#B5CCB0"/>
		<stop  offset="1" style="stop-color:#869782"/>
	</linearGradient>
	<path fill="url(#SVGID_20_)" d="M170.137,41.653h60.75v78h-60.75V41.653z"/>
	
		<linearGradient id="SVGID_21_" gradientUnits="userSpaceOnUse" x1="79.9746" y1="401.0149" x2="-1.0254" y2="401.0149" gradientTransform="matrix(0.75 0 0 0.75 231.7412 -220.1069)">
		<stop  offset="0" style="stop-color:#90A38C"/>
		<stop  offset="0.01" style="stop-color:#D8EBD4"/>
		<stop  offset="0.03" style="stop-color:#BDD4B7"/>
		<stop  offset="0.64" style="stop-color:#BAD0B4"/>
		<stop  offset="0.99" style="stop-color:#B5CCB0"/>
		<stop  offset="1" style="stop-color:#869782"/>
	</linearGradient>
	<path fill="url(#SVGID_21_)" d="M230.973,41.653h60.75v78h-60.75V41.653z"/>
	
		<linearGradient id="SVGID_22_" gradientUnits="userSpaceOnUse" x1="70.9756" y1="377.0149" x2="-1.0244" y2="377.0149" gradientTransform="matrix(0.75 0 0 0.75 63.8574 -261.7602)">
		<stop  offset="0" style="stop-color:#A8A8A8"/>
		<stop  offset="0.01" style="stop-color:#F2F2F2"/>
		<stop  offset="0.03" style="stop-color:#DBDBDB"/>
		<stop  offset="0.64" style="stop-color:#D8D8D8"/>
		<stop  offset="0.99" style="stop-color:#D3D3D3"/>
		<stop  offset="1" style="stop-color:#9C9C9C"/>
	</linearGradient>
	<path fill="url(#SVGID_22_)" d="M63.09,0h54v42h-54V0z"/>
	
		<linearGradient id="SVGID_23_" gradientUnits="userSpaceOnUse" x1="70.9746" y1="377.0149" x2="-1.0254" y2="377.0149" gradientTransform="matrix(0.75 0 0 0.75 117.4868 -261.7602)">
		<stop  offset="0" style="stop-color:#A8A8A8"/>
		<stop  offset="0.01" style="stop-color:#F2F2F2"/>
		<stop  offset="0.03" style="stop-color:#DBDBDB"/>
		<stop  offset="0.64" style="stop-color:#D8D8D8"/>
		<stop  offset="0.99" style="stop-color:#D3D3D3"/>
		<stop  offset="1" style="stop-color:#9C9C9C"/>
	</linearGradient>
	<path fill="url(#SVGID_23_)" d="M116.719,0h54v42h-54V0z"/>
	
		<linearGradient id="SVGID_24_" gradientUnits="userSpaceOnUse" x1="70.9771" y1="377.0149" x2="-1.0229" y2="377.0149" gradientTransform="matrix(0.75 0 0 0.75 170.9189 -261.7602)">
		<stop  offset="0" style="stop-color:#A8A8A8"/>
		<stop  offset="0.01" style="stop-color:#F2F2F2"/>
		<stop  offset="0.03" style="stop-color:#DBDBDB"/>
		<stop  offset="0.64" style="stop-color:#D8D8D8"/>
		<stop  offset="0.99" style="stop-color:#D3D3D3"/>
		<stop  offset="1" style="stop-color:#9C9C9C"/>
	</linearGradient>
	<path fill="url(#SVGID_24_)" d="M170.152,0h54v42h-54V0z"/>
	
		<linearGradient id="SVGID_25_" gradientUnits="userSpaceOnUse" x1="70.9761" y1="377.0149" x2="-1.0239" y2="377.0149" gradientTransform="matrix(0.75 0 0 0.75 224.5483 -261.7602)">
		<stop  offset="0" style="stop-color:#A8A8A8"/>
		<stop  offset="0.01" style="stop-color:#F2F2F2"/>
		<stop  offset="0.03" style="stop-color:#DBDBDB"/>
		<stop  offset="0.64" style="stop-color:#D8D8D8"/>
		<stop  offset="0.99" style="stop-color:#D3D3D3"/>
		<stop  offset="1" style="stop-color:#9C9C9C"/>
	</linearGradient>
	<path fill="url(#SVGID_25_)" d="M223.781,0h54v42h-54V0z"/>
	
		<linearGradient id="SVGID_26_" gradientUnits="userSpaceOnUse" x1="7.9736" y1="353.5168" x2="-1.0264" y2="353.5168" gradientTransform="matrix(0.75 0 0 0.75 101.0068 -184.4135)">
		<stop  offset="0" style="stop-color:#729243"/>
		<stop  offset="0.01" style="stop-color:#BADA94"/>
		<stop  offset="0.03" style="stop-color:#96BE5A"/>
		<stop  offset="0.64" style="stop-color:#93BB58"/>
		<stop  offset="0.99" style="stop-color:#90B756"/>
		<stop  offset="1" style="stop-color:#6A873E"/>
	</linearGradient>
	<path fill="url(#SVGID_26_)" d="M101.738,77.348h3c1.5,0,1.918,0.75,1.918,1.672l0.332,2.828c0,1.5-1.082,1.914-2.004,1.914
		l-3.246,0.336c-0.75,0-1.5-1.082-1.5-2.008v-3.242c0-0.75,0.75-1.5,1.676-1.5H101.738z"/>
	
		<linearGradient id="SVGID_27_" gradientUnits="userSpaceOnUse" x1="7.9756" y1="353.5168" x2="-1.0244" y2="353.5168" gradientTransform="matrix(0.75 0 0 0.75 161.6353 -184.4135)">
		<stop  offset="0" style="stop-color:#729243"/>
		<stop  offset="0.01" style="stop-color:#BADA94"/>
		<stop  offset="0.03" style="stop-color:#96BE5A"/>
		<stop  offset="0.64" style="stop-color:#93BB58"/>
		<stop  offset="0.99" style="stop-color:#90B756"/>
		<stop  offset="1" style="stop-color:#6A873E"/>
	</linearGradient>
	<path fill="url(#SVGID_27_)" d="M162.367,77.348h3c1.5,0,1.918,0.75,1.918,1.672l0.332,2.828c0,1.5-1.082,1.914-2.004,1.914
		l-3.246,0.336c-0.75,0-1.5-1.082-1.5-2.008v-3.242c0-0.75,0.75-1.5,1.676-1.5H162.367z"/>
	
		<linearGradient id="SVGID_28_" gradientUnits="userSpaceOnUse" x1="7.978" y1="353.5168" x2="-1.022" y2="353.5168" gradientTransform="matrix(0.75 0 0 0.75 222.0435 -184.4135)">
		<stop  offset="0" style="stop-color:#729243"/>
		<stop  offset="0.01" style="stop-color:#BADA94"/>
		<stop  offset="0.03" style="stop-color:#96BE5A"/>
		<stop  offset="0.64" style="stop-color:#93BB58"/>
		<stop  offset="0.99" style="stop-color:#90B756"/>
		<stop  offset="1" style="stop-color:#6A873E"/>
	</linearGradient>
	<path fill="url(#SVGID_28_)" d="M222.777,77.348h3c1.5,0,1.918,0.75,1.918,1.672l0.332,2.828c0,1.5-1.082,1.914-2.008,1.914
		l-3.242,0.336c-0.75,0-1.5-1.082-1.5-2.008v-3.242c0-0.75,0.75-1.5,1.672-1.5H222.777z"/>
	
		<linearGradient id="SVGID_29_" gradientUnits="userSpaceOnUse" x1="7.9756" y1="353.5168" x2="-1.0244" y2="353.5168" gradientTransform="matrix(0.75 0 0 0.75 282.9863 -184.4135)">
		<stop  offset="0" style="stop-color:#729243"/>
		<stop  offset="0.01" style="stop-color:#BADA94"/>
		<stop  offset="0.03" style="stop-color:#96BE5A"/>
		<stop  offset="0.64" style="stop-color:#93BB58"/>
		<stop  offset="0.99" style="stop-color:#90B756"/>
		<stop  offset="1" style="stop-color:#6A873E"/>
	</linearGradient>
	<path fill="url(#SVGID_29_)" d="M283.719,77.348h3c1.5,0,1.918,0.75,1.918,1.672l0.332,2.828c0,1.5-1.082,1.914-2.008,1.914
		l-3.242,0.336c-0.75,0-1.5-1.082-1.5-2.008v-3.242c0-0.75,0.75-1.5,1.676-1.5H283.719z"/>
	<path fill="#7D040F" d="M76.609,26.485c0-1.5,0.988-2.254,2.215-2.254c1.535,0.004,2.215,0.992,2.215,2.215
		c0.07,1.539-0.992,2.215-2.215,2.215c-1.465,0.074-2.219-0.996-2.219-2.215L76.609,26.485z"/>
	
		<linearGradient id="SVGID_30_" gradientUnits="userSpaceOnUse" x1="-0.2539" y1="348.5637" x2="3.0545" y2="354.2942" gradientTransform="matrix(0.75 0 0 0.75 77.7837 -237.1205)">
		<stop  offset="0" style="stop-color:#9F5153"/>
		<stop  offset="1" style="stop-color:#7B030D"/>
	</linearGradient>
	<path fill="url(#SVGID_30_)" stroke="#FFFFFF" stroke-linejoin="bevel" stroke-miterlimit="10" d="M77.016,26.141
		c0-0.75,0.805-1.504,1.809-1.504c1.191,0.004,1.809,0.809,1.809,1.809c0.133,1.195-0.813,1.81-1.809,1.81
		c-1.059,0.137-1.813-0.813-1.813-1.81L77.016,26.141z"/>
	<path fill="#7D040F" d="M87.785,26.485c0-1.5,0.984-2.254,2.215-2.254c1.535,0.004,2.215,0.992,2.215,2.215
		c0.07,1.539-0.996,2.215-2.215,2.215c-1.465,0.074-2.223-0.996-2.223-2.215L87.785,26.485z"/>
	
		<linearGradient id="SVGID_31_" gradientUnits="userSpaceOnUse" x1="-0.2544" y1="348.5627" x2="3.0527" y2="354.2908" gradientTransform="matrix(0.75 0 0 0.75 88.9575 -237.1205)">
		<stop  offset="0" style="stop-color:#9F5153"/>
		<stop  offset="1" style="stop-color:#7B030D"/>
	</linearGradient>
	<path fill="url(#SVGID_31_)" stroke="#FFFFFF" stroke-linejoin="bevel" stroke-miterlimit="10" d="M88.191,26.141
		c0-0.75,0.805-1.504,1.809-1.504c1.191,0.004,1.809,0.809,1.809,1.809c0.133,1.195-0.813,1.81-1.809,1.81
		c-1.059,0.137-1.816-0.813-1.816-1.81L88.191,26.141z"/>
	<path fill="#7D040F" d="M98.961,26.485c0-1.5,0.984-2.254,2.215-2.254c1.535,0.004,2.215,0.992,2.215,2.215
		c0.07,1.539-0.996,2.215-2.215,2.215c-1.465,0.074-2.223-0.996-2.223-2.215L98.961,26.485z"/>
	
		<linearGradient id="SVGID_32_" gradientUnits="userSpaceOnUse" x1="-0.2539" y1="348.5627" x2="3.0539" y2="354.292" gradientTransform="matrix(0.75 0 0 0.75 100.1338 -237.1205)">
		<stop  offset="0" style="stop-color:#9F5153"/>
		<stop  offset="1" style="stop-color:#7B030D"/>
	</linearGradient>
	<path fill="url(#SVGID_32_)" stroke="#FFFFFF" stroke-linejoin="bevel" stroke-miterlimit="10" d="M99.367,26.141
		c0-0.75,0.805-1.504,1.809-1.504c1.191,0.004,1.809,0.809,1.809,1.809c0.133,1.195-0.813,1.81-1.809,1.81
		c-1.059,0.137-1.813-0.813-1.813-1.81L99.367,26.141z"/>
	<path fill="#50BEC1" d="M76.609,34.911c0-1.5,0.988-2.258,2.215-2.258c1.535,0.008,2.215,0.992,2.215,2.219
		c0.07,1.539-0.992,2.211-2.215,2.211c-1.465,0.078-2.219-0.991-2.219-2.211L76.609,34.911z"/>
	
		<linearGradient id="SVGID_33_" gradientUnits="userSpaceOnUse" x1="-0.2539" y1="348.5647" x2="3.0531" y2="354.2926" gradientTransform="matrix(0.75 0 0 0.75 77.7837 -228.6967)">
		<stop  offset="0" style="stop-color:#6DC4C7"/>
		<stop  offset="1" style="stop-color:#42A0A2"/>
	</linearGradient>
	<path fill="url(#SVGID_33_)" stroke="#FFFFFF" stroke-linejoin="bevel" stroke-miterlimit="10" d="M77.016,34.563
		c0-0.75,0.805-1.504,1.809-1.504c1.191,0.004,1.809,0.809,1.809,1.813c0.133,1.191-0.813,1.806-1.809,1.806
		c-1.059,0.137-1.813-0.81-1.813-1.806L77.016,34.563z"/>
	<path fill="#50BEC1" d="M87.785,34.911c0-1.5,0.984-2.258,2.215-2.258c1.535,0.008,2.215,0.992,2.215,2.219
		c0.07,1.539-0.996,2.211-2.215,2.211c-1.465,0.078-2.223-0.991-2.223-2.211L87.785,34.911z"/>
	
		<linearGradient id="SVGID_34_" gradientUnits="userSpaceOnUse" x1="-0.2544" y1="348.5627" x2="3.0532" y2="354.2916" gradientTransform="matrix(0.75 0 0 0.75 88.9575 -228.6967)">
		<stop  offset="0" style="stop-color:#6DC4C7"/>
		<stop  offset="1" style="stop-color:#42A0A2"/>
	</linearGradient>
	<path fill="url(#SVGID_34_)" stroke="#FFFFFF" stroke-linejoin="bevel" stroke-miterlimit="10" d="M88.191,34.563
		c0-0.75,0.805-1.504,1.809-1.504c1.191,0.004,1.809,0.809,1.809,1.813c0.133,1.191-0.813,1.806-1.809,1.806
		c-1.059,0.137-1.816-0.81-1.816-1.806L88.191,34.563z"/>
	<path fill="#50BEC1" d="M98.961,34.911c0-1.5,0.984-2.258,2.215-2.258c1.535,0.008,2.215,0.992,2.215,2.219
		c0.07,1.539-0.996,2.211-2.215,2.211c-1.465,0.078-2.223-0.991-2.223-2.211L98.961,34.911z"/>
	
		<linearGradient id="SVGID_35_" gradientUnits="userSpaceOnUse" x1="-0.2539" y1="348.5627" x2="3.0545" y2="354.2931" gradientTransform="matrix(0.75 0 0 0.75 100.1338 -228.6967)">
		<stop  offset="0" style="stop-color:#6DC4C7"/>
		<stop  offset="1" style="stop-color:#42A0A2"/>
	</linearGradient>
	<path fill="url(#SVGID_35_)" stroke="#FFFFFF" stroke-linejoin="bevel" stroke-miterlimit="10" d="M99.367,34.563
		c0-0.75,0.805-1.504,1.809-1.504c1.191,0.004,1.809,0.809,1.809,1.813c0.133,1.191-0.813,1.806-1.809,1.806
		c-1.059,0.137-1.813-0.81-1.813-1.806L99.367,34.563z"/>
	<path fill="#595757" d="M73.133,4.352h12c0.75,0,1.5,0.608,1.5,1.397v10.603c0,0.75-0.637,1.082-1.426,1.082l-12.074-0.332
		c-0.75,0-1.5-0.313-1.5-1.099V5.852c0-0.75,0.637-1.527,1.422-1.527L73.133,4.352z"/>
	<path fill="#CFEBF6" fill-opacity="0.4824" d="M72.992,5.664h12v10.5h-12V5.664z"/>
	
		<linearGradient id="SVGID_36_" gradientUnits="userSpaceOnUse" x1="8.6606" y1="353.2737" x2="-1.0249" y2="353.2737" gradientTransform="matrix(0.75 0 0 0.75 99.1592 -254.0248)">
		<stop  offset="0" style="stop-color:#000000"/>
		<stop  offset="0.15" style="stop-color:#454545"/>
		<stop  offset="0.25" style="stop-color:#B3B3B3"/>
		<stop  offset="0.52" style="stop-color:#000000"/>
		<stop  offset="0.69" style="stop-color:#000000"/>
		<stop  offset="0.8" style="stop-color:#000000"/>
		<stop  offset="0.92" style="stop-color:#000000"/>
		<stop  offset="1" style="stop-color:#000000"/>
	</linearGradient>
	<path fill="url(#SVGID_36_)" d="M103.641,7.739c0.75,0,0.344,0.953,0.781,1.715c0.719,0.535,1.184,1.023,1.184,1.431
		c0.285,0.604-0.742,0.688-1.156,1.379c-0.059,0.727-0.242,1.5-0.648,1.733c-0.16,0.492-0.879-0.293-1.813-0.289
		c-0.598,0.031-1.441,0.478-1.793,0.289c-0.305-0.258-0.188-0.879-0.68-1.711c-0.375-0.797-1.125-0.938-1.125-1.401
		c0-0.146,0.66-0.652,1.152-1.47c0.348-0.926,0.391-1.512,0.652-1.641c0.445-0.035,0.809,0.285,1.82,0.285
		c0.875-0.32,1.512-0.457,1.785-0.285L103.641,7.739z"/>
	<path fill="#FFFFFF" fill-opacity="0.2" d="M103.836,7.903c0,0,0.039,0.906,0.453,1.629c0.297,0.621,1.121,0.969,1.121,1.353
		c-0.074,0.02-0.703,0.651-1.094,1.309c-0.48,0.961-0.227,1.418-0.613,1.641c-0.617,0.07-0.832-0.276-1.715-0.27
		c-1.152,0.34-1.363,0.445-1.695,0.27c-0.207,0.07-0.18-0.832-0.645-1.621c-0.313-0.559-1.063-0.887-1.063-1.327
		c0-0.73,0.625-0.617,1.09-1.392c0.41-0.84,0.367-1.434,0.617-1.555c0.543-0.035,0.766,0.27,1.723,0.27
		c1.07-0.305,1.426-0.434,1.688-0.27L103.836,7.903z"/>
	<path fill="#3E3938" stroke="#717070" stroke-linejoin="bevel" stroke-miterlimit="10" d="M99.781,10.934
		c0-1.5,0.992-2.25,2.219-2.25c1.531,0,2.215,0.988,2.215,2.211c0.066,1.539-0.992,2.211-2.215,2.211
		c-1.469,0.078-2.219-0.992-2.219-2.211V10.934z"/>
	<path fill="#FFFFFF" fill-opacity="0.1725" d="M102.316,11.231c0-1.5-1.383-2.25-0.324-2.25c1.074,0,1.918,0.854,1.918,1.914
		c-0.094,1.086-0.859,1.91-1.918,1.91c-1.176-0.074,0.109-0.715,0.109-1.773L102.316,11.231z"/>
	<path fill="#7D040F" d="M130.781,26.485c0-1.5,0.988-2.254,2.215-2.254c1.535,0.004,2.215,0.992,2.215,2.215
		c0.07,1.539-0.996,2.215-2.215,2.215c-1.465,0.074-2.219-0.996-2.219-2.215L130.781,26.485z"/>
	
		<linearGradient id="SVGID_37_" gradientUnits="userSpaceOnUse" x1="-0.2539" y1="348.5618" x2="3.0545" y2="354.2921" gradientTransform="matrix(0.75 0 0 0.75 131.9546 -237.1205)">
		<stop  offset="0" style="stop-color:#9F5153"/>
		<stop  offset="1" style="stop-color:#7B030D"/>
	</linearGradient>
	<path fill="url(#SVGID_37_)" stroke="#FFFFFF" stroke-linejoin="bevel" stroke-miterlimit="10" d="M131.188,26.141
		c0-0.75,0.805-1.504,1.809-1.504c1.191,0.004,1.809,0.809,1.809,1.809c0.133,1.195-0.813,1.81-1.809,1.81
		c-1.059,0.137-1.813-0.813-1.813-1.81L131.188,26.141z"/>
	<path fill="#7D040F" d="M141.953,26.485c0-1.5,0.988-2.254,2.215-2.254c1.535,0.004,2.215,0.992,2.215,2.215
		c0.07,1.539-0.992,2.215-2.215,2.215c-1.465,0.074-2.219-0.996-2.219-2.215L141.953,26.485z"/>
	
		<linearGradient id="SVGID_38_" gradientUnits="userSpaceOnUse" x1="-0.2549" y1="348.5627" x2="3.0523" y2="354.2908" gradientTransform="matrix(0.75 0 0 0.75 143.1279 -237.1205)">
		<stop  offset="0" style="stop-color:#9F5153"/>
		<stop  offset="1" style="stop-color:#7B030D"/>
	</linearGradient>
	<path fill="url(#SVGID_38_)" stroke="#FFFFFF" stroke-linejoin="bevel" stroke-miterlimit="10" d="M142.359,26.141
		c0-0.75,0.809-1.504,1.809-1.504c1.191,0.004,1.813,0.809,1.813,1.809c0.129,1.195-0.815,1.81-1.813,1.81
		c-1.059,0.137-1.813-0.813-1.813-1.81L142.359,26.141z"/>
	<path fill="#7D040F" d="M153.133,26.485c0-1.5,0.984-2.254,2.215-2.254c1.535,0.004,2.215,0.992,2.215,2.215
		c0.07,1.539-0.996,2.215-2.215,2.215c-1.465,0.074-2.223-0.996-2.223-2.215L153.133,26.485z"/>
	
		<linearGradient id="SVGID_39_" gradientUnits="userSpaceOnUse" x1="-0.2539" y1="348.5608" x2="3.0539" y2="354.29" gradientTransform="matrix(0.75 0 0 0.75 154.3047 -237.1205)">
		<stop  offset="0" style="stop-color:#9F5153"/>
		<stop  offset="1" style="stop-color:#7B030D"/>
	</linearGradient>
	<path fill="url(#SVGID_39_)" stroke="#FFFFFF" stroke-linejoin="bevel" stroke-miterlimit="10" d="M153.539,26.141
		c0-0.75,0.805-1.504,1.809-1.504c1.191,0.004,1.81,0.809,1.81,1.809c0.133,1.195-0.813,1.81-1.81,1.81
		c-1.059,0.137-1.815-0.813-1.815-1.81L153.539,26.141z"/>
	<path fill="#50BEC1" d="M130.781,34.911c0-1.5,0.988-2.258,2.215-2.258c1.535,0.008,2.215,0.992,2.215,2.219
		c0.07,1.539-0.996,2.211-2.215,2.211c-1.465,0.078-2.219-0.991-2.219-2.211L130.781,34.911z"/>
	
		<linearGradient id="SVGID_40_" gradientUnits="userSpaceOnUse" x1="-0.2529" y1="348.5618" x2="3.0553" y2="354.2918" gradientTransform="matrix(0.75 0 0 0.75 131.9546 -228.6967)">
		<stop  offset="0" style="stop-color:#6DC4C7"/>
		<stop  offset="1" style="stop-color:#42A0A2"/>
	</linearGradient>
	<path fill="url(#SVGID_40_)" stroke="#FFFFFF" stroke-linejoin="bevel" stroke-miterlimit="10" d="M131.188,34.563
		c0-0.75,0.805-1.504,1.809-1.504c1.191,0.004,1.809,0.809,1.809,1.813c0.133,1.191-0.813,1.806-1.809,1.806
		c-1.059,0.137-1.813-0.81-1.813-1.806L131.188,34.563z"/>
	<path fill="#50BEC1" d="M141.953,34.911c0-1.5,0.988-2.258,2.215-2.258c1.535,0.008,2.215,0.992,2.215,2.219
		c0.07,1.539-0.992,2.211-2.215,2.211c-1.465,0.078-2.219-0.991-2.219-2.211L141.953,34.911z"/>
	
		<linearGradient id="SVGID_41_" gradientUnits="userSpaceOnUse" x1="-0.2554" y1="348.5627" x2="3.0533" y2="354.2934" gradientTransform="matrix(0.75 0 0 0.75 143.1279 -228.6967)">
		<stop  offset="0" style="stop-color:#6DC4C7"/>
		<stop  offset="1" style="stop-color:#42A0A2"/>
	</linearGradient>
	<path fill="url(#SVGID_41_)" stroke="#FFFFFF" stroke-linejoin="bevel" stroke-miterlimit="10" d="M142.359,34.563
		c0-0.75,0.809-1.504,1.809-1.504c1.191,0.004,1.813,0.809,1.813,1.813c0.129,1.191-0.815,1.806-1.813,1.806
		c-1.059,0.137-1.813-0.81-1.813-1.806L142.359,34.563z"/>
	<path fill="#50BEC1" d="M153.133,34.911c0-1.5,0.984-2.258,2.215-2.258c1.535,0.008,2.215,0.992,2.215,2.219
		c0.07,1.539-0.996,2.211-2.215,2.211c-1.465,0.078-2.223-0.991-2.223-2.211L153.133,34.911z"/>
	
		<linearGradient id="SVGID_42_" gradientUnits="userSpaceOnUse" x1="-0.2539" y1="348.5608" x2="3.0543" y2="354.2908" gradientTransform="matrix(0.75 0 0 0.75 154.3047 -228.6967)">
		<stop  offset="0" style="stop-color:#6DC4C7"/>
		<stop  offset="1" style="stop-color:#42A0A2"/>
	</linearGradient>
	<path fill="url(#SVGID_42_)" stroke="#FFFFFF" stroke-linejoin="bevel" stroke-miterlimit="10" d="M153.539,34.563
		c0-0.75,0.805-1.504,1.809-1.504c1.191,0.004,1.81,0.809,1.81,1.813c0.133,1.191-0.813,1.806-1.81,1.806
		c-1.059,0.137-1.815-0.81-1.815-1.806L153.539,34.563z"/>
	<path fill="#595757" d="M127.301,4.352h12c0.75,0,1.504,0.608,1.504,1.397l-0.004,10.603c0,0.75-0.637,1.082-1.422,1.082
		l-12.078-0.332c-0.75,0-1.5-0.313-1.5-1.099V5.852c0-0.75,0.641-1.527,1.426-1.527L127.301,4.352z"/>
	<path fill="#CFEBF6" fill-opacity="0.4824" d="M127.164,5.664h12v10.5h-12V5.664z"/>
	
		<linearGradient id="SVGID_43_" gradientUnits="userSpaceOnUse" x1="8.6611" y1="353.2737" x2="-1.0244" y2="353.2737" gradientTransform="matrix(0.75 0 0 0.75 153.3301 -254.0248)">
		<stop  offset="0" style="stop-color:#000000"/>
		<stop  offset="0.15" style="stop-color:#454545"/>
		<stop  offset="0.25" style="stop-color:#B3B3B3"/>
		<stop  offset="0.52" style="stop-color:#000000"/>
		<stop  offset="0.69" style="stop-color:#000000"/>
		<stop  offset="0.8" style="stop-color:#000000"/>
		<stop  offset="0.92" style="stop-color:#000000"/>
		<stop  offset="1" style="stop-color:#000000"/>
	</linearGradient>
	<path fill="url(#SVGID_43_)" d="M157.813,7.739c0.75,0,0.34,0.953,0.777,1.715c0.723,0.535,1.188,1.023,1.188,1.431
		c0.285,0.604-0.741,0.688-1.155,1.379c-0.06,0.727-0.242,1.5-0.647,1.733c-0.16,0.492-0.884-0.293-1.813-0.289
		c-0.599,0.031-1.44,0.478-1.793,0.289c-0.306-0.258-0.191-0.879-0.681-1.711c-0.375-0.797-1.125-0.938-1.125-1.401
		c0-0.146,0.66-0.652,1.152-1.47c0.348-0.926,0.387-1.512,0.652-1.641c0.445-0.035,0.809,0.285,1.82,0.285
		c0.875-0.32,1.508-0.457,1.785-0.285L157.813,7.739z"/>
	<path fill="#FFFFFF" fill-opacity="0.2" d="M158.008,7.903c0,0,0.039,0.906,0.453,1.629c0.297,0.621,1.121,0.969,1.121,1.353
		c-0.074,0.02-0.703,0.651-1.094,1.309c-0.48,0.961-0.227,1.418-0.613,1.641c-0.617,0.07-0.832-0.276-1.715-0.27
		c-1.152,0.34-1.363,0.445-1.695,0.27c-0.207,0.07-0.18-0.832-0.645-1.621c-0.313-0.559-1.063-0.887-1.063-1.327
		c0-0.73,0.621-0.617,1.091-1.392c0.409-0.84,0.366-1.434,0.616-1.555c0.543-0.035,0.767,0.27,1.72,0.27
		c1.073-0.305,1.43-0.434,1.69-0.27L158.008,7.903z"/>
	<path fill="#3E3938" stroke="#717070" stroke-linejoin="bevel" stroke-miterlimit="10" d="M153.953,10.934
		c0-1.5,0.992-2.25,2.219-2.25c1.531,0,2.215,0.988,2.215,2.211c0.066,1.539-0.992,2.211-2.215,2.211
		c-1.469,0.078-2.219-0.992-2.219-2.211V10.934z"/>
	<path fill="#FFFFFF" fill-opacity="0.1725" d="M156.488,11.231c0-1.5-1.383-2.25-0.324-2.25c1.074,0,1.918,0.854,1.918,1.914
		c-0.094,1.086-0.859,1.91-1.918,1.91c-1.176-0.074,0.105-0.715,0.105-1.773L156.488,11.231z"/>
	<path fill="#7D040F" d="M184.617,26.485c0-1.5,0.984-2.254,2.215-2.254c1.535,0.004,2.215,0.992,2.215,2.215
		c0.07,1.539-0.996,2.215-2.215,2.215c-1.465,0.074-2.223-0.996-2.223-2.215L184.617,26.485z"/>
	
		<linearGradient id="SVGID_44_" gradientUnits="userSpaceOnUse" x1="-0.2539" y1="348.5627" x2="3.0545" y2="354.2931" gradientTransform="matrix(0.75 0 0 0.75 185.79 -237.1205)">
		<stop  offset="0" style="stop-color:#9F5153"/>
		<stop  offset="1" style="stop-color:#7B030D"/>
	</linearGradient>
	<path fill="url(#SVGID_44_)" stroke="#FFFFFF" stroke-linejoin="bevel" stroke-miterlimit="10" d="M185.023,26.141
		c0-0.75,0.805-1.504,1.809-1.504c1.191,0.004,1.809,0.809,1.809,1.809c0.133,1.195-0.813,1.81-1.809,1.81
		c-1.059,0.137-1.813-0.813-1.813-1.81L185.023,26.141z"/>
	<path fill="#7D040F" d="M195.789,26.485c0-1.5,0.988-2.254,2.215-2.254c1.535,0.004,2.215,0.992,2.215,2.215
		c0.07,1.539-0.992,2.215-2.215,2.215c-1.465,0.074-2.219-0.996-2.219-2.215L195.789,26.485z"/>
	
		<linearGradient id="SVGID_45_" gradientUnits="userSpaceOnUse" x1="-0.2549" y1="348.5637" x2="3.0536" y2="354.2942" gradientTransform="matrix(0.75 0 0 0.75 196.9634 -237.1205)">
		<stop  offset="0" style="stop-color:#9F5153"/>
		<stop  offset="1" style="stop-color:#7B030D"/>
	</linearGradient>
	<path fill="url(#SVGID_45_)" stroke="#FFFFFF" stroke-linejoin="bevel" stroke-miterlimit="10" d="M196.195,26.141
		c0-0.75,0.805-1.504,1.809-1.504c1.191,0.004,1.809,0.809,1.809,1.809c0.133,1.195-0.813,1.81-1.809,1.81
		c-1.059,0.137-1.813-0.813-1.813-1.81L196.195,26.141z"/>
	<path fill="#7D040F" d="M206.965,26.485c0-1.5,0.988-2.254,2.215-2.254c1.535,0.004,2.215,0.992,2.215,2.215
		c0.07,1.539-0.992,2.215-2.215,2.215c-1.465,0.074-2.219-0.996-2.219-2.215L206.965,26.485z"/>
	
		<linearGradient id="SVGID_46_" gradientUnits="userSpaceOnUse" x1="-0.2549" y1="348.5627" x2="3.0536" y2="354.2932" gradientTransform="matrix(0.75 0 0 0.75 208.1401 -237.1205)">
		<stop  offset="0" style="stop-color:#9F5153"/>
		<stop  offset="1" style="stop-color:#7B030D"/>
	</linearGradient>
	<path fill="url(#SVGID_46_)" stroke="#FFFFFF" stroke-linejoin="bevel" stroke-miterlimit="10" d="M207.371,26.141
		c0-0.75,0.809-1.504,1.809-1.504c1.191,0.004,1.813,0.809,1.813,1.809c0.129,1.195-0.813,1.81-1.813,1.81
		c-1.059,0.137-1.813-0.813-1.813-1.81L207.371,26.141z"/>
	<path fill="#50BEC1" d="M184.617,34.911c0-1.5,0.984-2.258,2.215-2.258c1.535,0.008,2.215,0.992,2.215,2.219
		c0.07,1.539-0.996,2.211-2.215,2.211c-1.465,0.078-2.223-0.991-2.223-2.211L184.617,34.911z"/>
	
		<linearGradient id="SVGID_47_" gradientUnits="userSpaceOnUse" x1="-0.2539" y1="348.5627" x2="3.053" y2="354.2905" gradientTransform="matrix(0.75 0 0 0.75 185.79 -228.6967)">
		<stop  offset="0" style="stop-color:#6DC4C7"/>
		<stop  offset="1" style="stop-color:#42A0A2"/>
	</linearGradient>
	<path fill="url(#SVGID_47_)" stroke="#FFFFFF" stroke-linejoin="bevel" stroke-miterlimit="10" d="M185.023,34.563
		c0-0.75,0.805-1.504,1.809-1.504c1.191,0.004,1.809,0.809,1.809,1.813c0.133,1.191-0.813,1.806-1.809,1.806
		c-1.059,0.137-1.813-0.81-1.813-1.806L185.023,34.563z"/>
	<path fill="#50BEC1" d="M195.789,34.911c0-1.5,0.988-2.258,2.215-2.258c1.535,0.008,2.215,0.992,2.215,2.219
		c0.07,1.539-0.992,2.211-2.215,2.211c-1.465,0.078-2.219-0.991-2.219-2.211L195.789,34.911z"/>
	
		<linearGradient id="SVGID_48_" gradientUnits="userSpaceOnUse" x1="-0.2549" y1="348.5637" x2="3.0522" y2="354.2916" gradientTransform="matrix(0.75 0 0 0.75 196.9634 -228.6967)">
		<stop  offset="0" style="stop-color:#6DC4C7"/>
		<stop  offset="1" style="stop-color:#42A0A2"/>
	</linearGradient>
	<path fill="url(#SVGID_48_)" stroke="#FFFFFF" stroke-linejoin="bevel" stroke-miterlimit="10" d="M196.195,34.563
		c0-0.75,0.805-1.504,1.809-1.504c1.191,0.004,1.809,0.809,1.809,1.813c0.133,1.191-0.813,1.806-1.809,1.806
		c-1.059,0.137-1.813-0.81-1.813-1.806L196.195,34.563z"/>
	<path fill="#50BEC1" d="M206.965,34.911c0-1.5,0.988-2.258,2.215-2.258c1.535,0.008,2.215,0.992,2.215,2.219
		c0.07,1.539-0.992,2.211-2.215,2.211c-1.465,0.078-2.219-0.991-2.219-2.211L206.965,34.911z"/>
	
		<linearGradient id="SVGID_49_" gradientUnits="userSpaceOnUse" x1="-0.2554" y1="348.5637" x2="3.0522" y2="354.2926" gradientTransform="matrix(0.75 0 0 0.75 208.1401 -228.6967)">
		<stop  offset="0" style="stop-color:#6DC4C7"/>
		<stop  offset="1" style="stop-color:#42A0A2"/>
	</linearGradient>
	<path fill="url(#SVGID_49_)" stroke="#FFFFFF" stroke-linejoin="bevel" stroke-miterlimit="10" d="M207.371,34.563
		c0-0.75,0.809-1.504,1.809-1.504c1.191,0.004,1.813,0.809,1.813,1.813c0.129,1.191-0.813,1.806-1.813,1.806
		c-1.059,0.137-1.813-0.81-1.813-1.806L207.371,34.563z"/>
	<path fill="#595757" d="M181.137,4.352h12c0.75,0,1.504,0.608,1.504,1.397l-0.004,10.603c0,0.75-0.637,1.082-1.422,1.082
		l-12.078-0.332c-0.75,0-1.5-0.313-1.5-1.099V5.852c0-0.75,0.637-1.527,1.426-1.527L181.137,4.352z"/>
	<path fill="#CFEBF6" fill-opacity="0.4824" d="M180.996,5.664h12v10.5h-12V5.664z"/>
	
		<linearGradient id="SVGID_50_" gradientUnits="userSpaceOnUse" x1="8.6626" y1="353.2737" x2="-1.0234" y2="353.2737" gradientTransform="matrix(0.75 0 0 0.75 207.1655 -254.0248)">
		<stop  offset="0" style="stop-color:#000000"/>
		<stop  offset="0.15" style="stop-color:#454545"/>
		<stop  offset="0.25" style="stop-color:#B3B3B3"/>
		<stop  offset="0.52" style="stop-color:#000000"/>
		<stop  offset="0.69" style="stop-color:#000000"/>
		<stop  offset="0.8" style="stop-color:#000000"/>
		<stop  offset="0.92" style="stop-color:#000000"/>
		<stop  offset="1" style="stop-color:#000000"/>
	</linearGradient>
	<path fill="url(#SVGID_50_)" d="M211.648,7.739c0.75,0,0.34,0.953,0.776,1.715c0.724,0.535,1.188,1.023,1.188,1.431
		c0.285,0.604-0.742,0.688-1.156,1.379c-0.059,0.727-0.242,1.5-0.648,1.733c-0.16,0.492-0.883-0.293-1.813-0.289
		c-0.598,0.031-1.441,0.478-1.793,0.289c-0.305-0.258-0.191-0.879-0.684-1.711c-0.371-0.797-1.121-0.938-1.121-1.401
		c0-0.146,0.656-0.652,1.147-1.47c0.353-0.926,0.392-1.512,0.656-1.641c0.444-0.035,0.809,0.285,1.819,0.285
		c0.875-0.32,1.508-0.457,1.785-0.285L211.648,7.739z"/>
	<path fill="#FFFFFF" fill-opacity="0.2" d="M211.844,7.903c0,0,0.039,0.906,0.453,1.629c0.297,0.621,1.121,0.969,1.121,1.353
		c-0.074,0.02-0.703,0.651-1.094,1.309c-0.48,0.961-0.23,1.418-0.613,1.641c-0.617,0.07-0.836-0.276-1.715-0.27
		c-1.152,0.34-1.363,0.445-1.695,0.27c-0.207,0.07-0.18-0.832-0.645-1.621c-0.313-0.559-1.063-0.887-1.063-1.327
		c0-0.73,0.621-0.617,1.087-1.392c0.413-0.84,0.37-1.434,0.62-1.555c0.543-0.035,0.763,0.27,1.72,0.27
		c1.073-0.305,1.43-0.434,1.69-0.27L211.844,7.903z"/>
	<path fill="#3E3938" stroke="#717070" stroke-linejoin="bevel" stroke-miterlimit="10" d="M207.789,10.934
		c0-1.5,0.992-2.25,2.215-2.25c1.535,0,2.219,0.988,2.219,2.211c0.066,1.539-0.992,2.211-2.219,2.211
		c-1.465,0.078-2.215-0.992-2.215-2.211V10.934z"/>
	<path fill="#FFFFFF" fill-opacity="0.1725" d="M210.324,11.231c0-1.5-1.383-2.25-0.324-2.25c1.074,0,1.918,0.854,1.918,1.914
		c-0.094,1.086-0.859,1.91-1.918,1.91c-1.176-0.074,0.105-0.715,0.105-1.773L210.324,11.231z"/>
	<path fill="#7D040F" d="M237.863,26.485c0-1.5,0.984-2.254,2.215-2.254c1.535,0.004,2.215,0.992,2.215,2.215
		c0.07,1.539-0.996,2.215-2.215,2.215c-1.465,0.074-2.223-0.996-2.223-2.215L237.863,26.485z"/>
	
		<linearGradient id="SVGID_51_" gradientUnits="userSpaceOnUse" x1="-0.2539" y1="348.5627" x2="3.0539" y2="354.2921" gradientTransform="matrix(0.75 0 0 0.75 239.0352 -237.1205)">
		<stop  offset="0" style="stop-color:#9F5153"/>
		<stop  offset="1" style="stop-color:#7B030D"/>
	</linearGradient>
	<path fill="url(#SVGID_51_)" stroke="#FFFFFF" stroke-linejoin="bevel" stroke-miterlimit="10" d="M238.266,26.141
		c0-0.75,0.81-1.504,1.813-1.504c1.188,0.004,1.81,0.809,1.81,1.809c0.129,1.195-0.813,1.81-1.81,1.81
		c-1.063,0.137-1.815-0.813-1.815-1.81L238.266,26.141z"/>
	<path fill="#7D040F" d="M249.035,26.485c0-1.5,0.988-2.254,2.215-2.254c1.535,0.004,2.215,0.992,2.215,2.215
		c0.07,1.539-0.996,2.215-2.215,2.215c-1.465,0.074-2.219-0.996-2.219-2.215L249.035,26.485z"/>
	
		<linearGradient id="SVGID_52_" gradientUnits="userSpaceOnUse" x1="-0.2549" y1="348.5627" x2="3.0529" y2="354.292" gradientTransform="matrix(0.75 0 0 0.75 250.2085 -237.1205)">
		<stop  offset="0" style="stop-color:#9F5153"/>
		<stop  offset="1" style="stop-color:#7B030D"/>
	</linearGradient>
	<path fill="url(#SVGID_52_)" stroke="#FFFFFF" stroke-linejoin="bevel" stroke-miterlimit="10" d="M249.441,26.141
		c0-0.75,0.805-1.504,1.809-1.504c1.191,0.004,1.809,0.809,1.809,1.809c0.133,1.195-0.813,1.81-1.809,1.81
		c-1.059,0.137-1.813-0.813-1.813-1.81L249.441,26.141z"/>
	<path fill="#7D040F" d="M260.211,26.485c0-1.5,0.988-2.254,2.215-2.254c1.535,0.004,2.215,0.992,2.215,2.215
		c0.07,1.539-0.996,2.215-2.215,2.215c-1.465,0.074-2.219-0.996-2.219-2.215L260.211,26.485z"/>
	
		<linearGradient id="SVGID_53_" gradientUnits="userSpaceOnUse" x1="-0.2549" y1="348.5637" x2="3.0529" y2="354.293" gradientTransform="matrix(0.75 0 0 0.75 261.3853 -237.1205)">
		<stop  offset="0" style="stop-color:#9F5153"/>
		<stop  offset="1" style="stop-color:#7B030D"/>
	</linearGradient>
	<path fill="url(#SVGID_53_)" stroke="#FFFFFF" stroke-linejoin="bevel" stroke-miterlimit="10" d="M260.617,26.141
		c0-0.75,0.805-1.504,1.809-1.504c1.191,0.004,1.809,0.809,1.809,1.809c0.134,1.195-0.813,1.81-1.809,1.81
		c-1.059,0.137-1.813-0.813-1.813-1.81L260.617,26.141z"/>
	<path fill="#50BEC1" d="M237.863,34.911c0-1.5,0.984-2.258,2.215-2.258c1.535,0.008,2.215,0.992,2.215,2.219
		c0.07,1.539-0.996,2.211-2.215,2.211c-1.465,0.078-2.223-0.991-2.223-2.211L237.863,34.911z"/>
	
		<linearGradient id="SVGID_54_" gradientUnits="userSpaceOnUse" x1="-0.2539" y1="348.5618" x2="3.0547" y2="354.2924" gradientTransform="matrix(0.75 0 0 0.75 239.0352 -228.6967)">
		<stop  offset="0" style="stop-color:#6DC4C7"/>
		<stop  offset="1" style="stop-color:#42A0A2"/>
	</linearGradient>
	<path fill="url(#SVGID_54_)" stroke="#FFFFFF" stroke-linejoin="bevel" stroke-miterlimit="10" d="M238.266,34.563
		c0-0.75,0.81-1.504,1.813-1.504c1.188,0.004,1.81,0.809,1.81,1.813c0.129,1.191-0.813,1.806-1.81,1.806
		c-1.063,0.137-1.815-0.81-1.815-1.806L238.266,34.563z"/>
	<path fill="#50BEC1" d="M249.035,34.911c0-1.5,0.988-2.258,2.215-2.258c1.535,0.008,2.215,0.992,2.215,2.219
		c0.07,1.539-0.996,2.211-2.215,2.211c-1.465,0.078-2.219-0.991-2.219-2.211L249.035,34.911z"/>
	
		<linearGradient id="SVGID_55_" gradientUnits="userSpaceOnUse" x1="-0.2539" y1="348.5627" x2="3.0537" y2="354.2916" gradientTransform="matrix(0.75 0 0 0.75 250.2085 -228.6967)">
		<stop  offset="0" style="stop-color:#6DC4C7"/>
		<stop  offset="1" style="stop-color:#42A0A2"/>
	</linearGradient>
	<path fill="url(#SVGID_55_)" stroke="#FFFFFF" stroke-linejoin="bevel" stroke-miterlimit="10" d="M249.441,34.563
		c0-0.75,0.805-1.504,1.809-1.504c1.191,0.004,1.809,0.809,1.809,1.813c0.133,1.191-0.813,1.806-1.809,1.806
		c-1.059,0.137-1.813-0.81-1.813-1.806L249.441,34.563z"/>
	<path fill="#50BEC1" d="M260.211,34.911c0-1.5,0.988-2.258,2.215-2.258c1.535,0.008,2.215,0.992,2.215,2.219
		c0.07,1.539-0.996,2.211-2.215,2.211c-1.465,0.078-2.219-0.991-2.219-2.211L260.211,34.911z"/>
	
		<linearGradient id="SVGID_56_" gradientUnits="userSpaceOnUse" x1="-0.2549" y1="348.5637" x2="3.0529" y2="354.293" gradientTransform="matrix(0.75 0 0 0.75 261.3853 -228.6967)">
		<stop  offset="0" style="stop-color:#6DC4C7"/>
		<stop  offset="1" style="stop-color:#42A0A2"/>
	</linearGradient>
	<path fill="url(#SVGID_56_)" stroke="#FFFFFF" stroke-linejoin="bevel" stroke-miterlimit="10" d="M260.617,34.563
		c0-0.75,0.805-1.504,1.809-1.504c1.191,0.004,1.809,0.809,1.809,1.813c0.134,1.191-0.813,1.806-1.809,1.806
		c-1.059,0.137-1.813-0.81-1.813-1.806L260.617,34.563z"/>
	<path fill="#595757" d="M234.383,4.352h12c0.75,0,1.5,0.608,1.5,1.397v10.603c0,0.75-0.637,1.082-1.422,1.082l-12.078-0.332
		c-0.75,0-1.5-0.313-1.5-1.099V5.852c0-0.75,0.637-1.527,1.426-1.527L234.383,4.352z"/>
	<path fill="#CFEBF6" fill-opacity="0.4824" d="M234.242,5.664h12v10.5h-12V5.664z"/>
	
		<linearGradient id="SVGID_57_" gradientUnits="userSpaceOnUse" x1="8.6631" y1="353.2737" x2="-1.022" y2="353.2737" gradientTransform="matrix(0.75 0 0 0.75 260.4106 -254.0248)">
		<stop  offset="0" style="stop-color:#000000"/>
		<stop  offset="0.15" style="stop-color:#454545"/>
		<stop  offset="0.25" style="stop-color:#B3B3B3"/>
		<stop  offset="0.52" style="stop-color:#000000"/>
		<stop  offset="0.69" style="stop-color:#000000"/>
		<stop  offset="0.8" style="stop-color:#000000"/>
		<stop  offset="0.92" style="stop-color:#000000"/>
		<stop  offset="1" style="stop-color:#000000"/>
	</linearGradient>
	<path fill="url(#SVGID_57_)" d="M264.895,7.739c0.75,0,0.34,0.953,0.777,1.715c0.723,0.535,1.188,1.023,1.188,1.431
		c0.285,0.604-0.741,0.688-1.155,1.379c-0.06,0.727-0.242,1.5-0.647,1.733c-0.16,0.492-0.884-0.293-1.813-0.289
		c-0.599,0.031-1.445,0.478-1.798,0.289c-0.301-0.258-0.188-0.879-0.68-1.711c-0.371-0.797-1.121-0.938-1.121-1.401
		c0-0.146,0.656-0.652,1.148-1.47c0.352-0.926,0.391-1.512,0.652-1.641c0.449-0.035,0.809,0.285,1.82,0.285
		c0.879-0.32,1.512-0.457,1.789-0.285L264.895,7.739z"/>
	<path fill="#FFFFFF" fill-opacity="0.2" d="M265.09,7.903c0,0,0.035,0.906,0.449,1.629c0.301,0.621,1.125,0.969,1.125,1.353
		c-0.074,0.02-0.703,0.651-1.094,1.309c-0.48,0.961-0.23,1.418-0.613,1.641c-0.617,0.07-0.836-0.276-1.715-0.27
		c-1.152,0.34-1.363,0.445-1.699,0.27c-0.203,0.07-0.176-0.832-0.641-1.621c-0.313-0.559-1.063-0.887-1.063-1.327
		c0-0.73,0.621-0.617,1.086-1.392c0.414-0.84,0.371-1.434,0.617-1.555c0.547-0.035,0.767,0.27,1.724,0.27
		c1.073-0.305,1.43-0.434,1.69-0.27L265.09,7.903z"/>
	<path fill="#3E3938" stroke="#717070" stroke-linejoin="bevel" stroke-miterlimit="10" d="M261.035,10.934
		c0-1.5,0.992-2.25,2.215-2.25c1.535,0,2.215,0.988,2.215,2.211c0.07,1.539-0.992,2.211-2.215,2.211
		c-1.465,0.078-2.215-0.992-2.215-2.211V10.934z"/>
	<path fill="#FFFFFF" fill-opacity="0.1725" d="M263.57,11.231c0-1.5-1.383-2.25-0.324-2.25c1.074,0,1.918,0.854,1.918,1.914
		c-0.094,1.086-0.859,1.91-1.918,1.91c-1.176-0.074,0.105-0.715,0.105-1.773L263.57,11.231z"/>
</g>
</svg>
