<?xml version="1.0" encoding="utf-8"?>
<!-- Generator: Adobe Illustrator 16.0.0, SVG Export Plug-In . SVG Version: 6.00 Build 0)  -->
<!DOCTYPE svg PUBLIC "-//W3C//DTD SVG 1.1//EN" "http://www.w3.org/Graphics/SVG/1.1/DTD/svg11.dtd">
<svg preserveAspectRatio="none" version="1.1" id="图层_1" xmlns="http://www.w3.org/2000/svg" xmlns:xlink="http://www.w3.org/1999/xlink" x="0px" y="0px"
	 width="84px" height="399.82px" viewBox="29.91 30.277 84 399.82" enable-background="new 29.91 30.277 84 399.82"
	 xml:space="preserve">
<g id="surface1126">
	
		<linearGradient id="SVGID_1_" gradientUnits="userSpaceOnUse" x1="101.3623" y1="401.9111" x2="57.3623" y2="401.9111" gradientTransform="matrix(0.75 0 0 -0.75 12.4854 376.0801)">
		<stop  offset="0" style="stop-color:#343232"/>
		<stop  offset="0.15" style="stop-color:#555454"/>
		<stop  offset="0.26" style="stop-color:#797777"/>
		<stop  offset="0.41" style="stop-color:#5D5B5B"/>
		<stop  offset="0.6" style="stop-color:#484646"/>
		<stop  offset="0.8" style="stop-color:#383636"/>
		<stop  offset="0.93" style="stop-color:#2C2B2B"/>
		<stop  offset="1" style="stop-color:#535151"/>
	</linearGradient>
	<path fill="url(#SVGID_1_)" d="M55.508,61.898h33v25.5h-33V61.898z"/>
	
		<linearGradient id="SVGID_2_" gradientUnits="userSpaceOnUse" x1="167.3643" y1="204.4126" x2="57.3647" y2="204.4126" gradientTransform="matrix(0.75 0 0 -0.75 -12.3989 401.4102)">
		<stop  offset="0" style="stop-color:#9EB4BD"/>
		<stop  offset="0.15" style="stop-color:#D2ECF7"/>
		<stop  offset="0.25" style="stop-color:#E6F4FA"/>
		<stop  offset="0.44" style="stop-color:#B5CED7"/>
		<stop  offset="0.6" style="stop-color:#A1B7C0"/>
		<stop  offset="0.8" style="stop-color:#879AA2"/>
		<stop  offset="0.97" style="stop-color:#7B8D94"/>
	</linearGradient>
	<path fill="url(#SVGID_2_)" d="M30.625,108.977c0,0,4.156-21.75,25.867-21.75c-0.367,0,30.742,0,30.742,0
		c21.391,0,25.867,21.953,25.867,21.953l0.023,299.797h-82.5V108.977z"/>
	
		<linearGradient id="SVGID_3_" gradientUnits="userSpaceOnUse" x1="148.3643" y1="397.4375" x2="57.3643" y2="397.4375" gradientTransform="matrix(0.75 0 0 -0.75 -5.1646 344.4971)">
		<stop  offset="0" style="stop-color:#343232"/>
		<stop  offset="0.15" style="stop-color:#555454"/>
		<stop  offset="0.26" style="stop-color:#797777"/>
		<stop  offset="0.41" style="stop-color:#5D5B5B"/>
		<stop  offset="0.6" style="stop-color:#484646"/>
		<stop  offset="0.8" style="stop-color:#383636"/>
		<stop  offset="0.93" style="stop-color:#2C2B2B"/>
		<stop  offset="1" style="stop-color:#535151"/>
	</linearGradient>
	<path fill="url(#SVGID_3_)" d="M39.359,30.313h65.25c0.75,0,1.258,0.574,1.258,1.32l0.242,29.43c0,0.75-0.965,1.285-1.793,1.285
		l-64.957,0.215c-0.75,0-1.5-0.82-1.5-1.566V31.813c0-0.75,0.648-1.535,1.477-1.535L39.359,30.313z"/>
	
		<linearGradient id="SVGID_4_" gradientUnits="userSpaceOnUse" x1="169.3633" y1="402.7178" x2="57.3633" y2="402.7178" gradientTransform="matrix(0.75 0 0 -0.75 -13.1128 719.9912)">
		<stop  offset="0" style="stop-color:#343232"/>
		<stop  offset="0.15" style="stop-color:#555454"/>
		<stop  offset="0.26" style="stop-color:#797777"/>
		<stop  offset="0.41" style="stop-color:#5D5B5B"/>
		<stop  offset="0.6" style="stop-color:#484646"/>
		<stop  offset="0.8" style="stop-color:#383636"/>
		<stop  offset="0.93" style="stop-color:#2C2B2B"/>
		<stop  offset="1" style="stop-color:#535151"/>
	</linearGradient>
	<path fill="url(#SVGID_4_)" d="M113.91,405.809v22.5c0,0.75-1.207,1.789-2.656,1.789l-79.094-0.289c-0.75,0-2.25-0.465-2.25-1.395
		v-22.605H113.91z"/>
	
		<linearGradient id="SVGID_5_" gradientUnits="userSpaceOnUse" x1="85.8613" y1="418.9443" x2="85.8613" y2="400.8301" gradientTransform="matrix(0.75 0 0 -0.75 7.6548 389.5088)">
		<stop  offset="0" style="stop-color:#3D3B3B"/>
		<stop  offset="0.03" style="stop-color:#908F8F"/>
		<stop  offset="0.08" style="stop-color:#514F4F"/>
		<stop  offset="0.64" style="stop-color:#504E4E"/>
		<stop  offset="0.95" style="stop-color:#4E4C4C"/>
		<stop  offset="1" style="stop-color:#383636"/>
	</linearGradient>
	<path fill="url(#SVGID_5_)" d="M52.926,75.324h38.25c0.75,0,1.977,0.582,1.977,1.332l0.273,10.668c0,0.75-1.195,1.563-2.332,1.563
		l-38.168-0.063c-1.5,0-2.25-0.543-2.25-1.293V76.824c0-0.75,0.918-1.523,2.051-1.523L52.926,75.324z"/>
	
		<linearGradient id="SVGID_6_" gradientUnits="userSpaceOnUse" x1="82.8613" y1="418.9121" x2="82.8613" y2="408.9121" gradientTransform="matrix(0.75 0 0 -0.75 9.4243 379.9492)">
		<stop  offset="0" style="stop-color:#343232"/>
		<stop  offset="0.15" style="stop-color:#555454"/>
		<stop  offset="0.26" style="stop-color:#797777"/>
		<stop  offset="0.41" style="stop-color:#5D5B5B"/>
		<stop  offset="0.6" style="stop-color:#484646"/>
		<stop  offset="0.8" style="stop-color:#383636"/>
		<stop  offset="0.93" style="stop-color:#2C2B2B"/>
		<stop  offset="1" style="stop-color:#535151"/>
	</linearGradient>
	<path fill="url(#SVGID_6_)" d="M52.445,65.766h38.25v7.5h-38.25V65.766z"/>
	
		<linearGradient id="SVGID_7_" gradientUnits="userSpaceOnUse" x1="60.8628" y1="418.9121" x2="60.8628" y2="406.9121" gradientTransform="matrix(0.75 0 0 -0.75 47.314 379.0469)">
		<stop  offset="0" style="stop-color:#343232"/>
		<stop  offset="0.15" style="stop-color:#555454"/>
		<stop  offset="0.26" style="stop-color:#797777"/>
		<stop  offset="0.41" style="stop-color:#5D5B5B"/>
		<stop  offset="0.6" style="stop-color:#484646"/>
		<stop  offset="0.8" style="stop-color:#383636"/>
		<stop  offset="0.93" style="stop-color:#2C2B2B"/>
		<stop  offset="1" style="stop-color:#535151"/>
	</linearGradient>
	<path fill="url(#SVGID_7_)" d="M90.336,64.863h5.25v9h-5.25V64.863z"/>
</g>
</svg>
