<?xml version="1.0" encoding="utf-8"?>
<!-- Generator: Adobe Illustrator 16.0.0, SVG Export Plug-In . SVG Version: 6.00 Build 0)  -->
<!DOCTYPE svg PUBLIC "-//W3C//DTD SVG 1.1//EN" "http://www.w3.org/Graphics/SVG/1.1/DTD/svg11.dtd">
<svg preserveAspectRatio="none" version="1.1" id="图层_1" xmlns="http://www.w3.org/2000/svg" xmlns:xlink="http://www.w3.org/1999/xlink" x="0px" y="0px"
	 width="33px" height="174.879px" viewBox="30 14.926 33 174.879" enable-background="new 30 14.926 33 174.879"
	 xml:space="preserve">
<g id="surface46">
	
		<linearGradient id="SVGID_1_" gradientUnits="userSpaceOnUse" x1="108.8604" y1="33.5405" x2="65.8604" y2="33.5405" gradientTransform="matrix(0.75 0 0 -0.75 -19.0869 140.1348)">
		<stop  offset="0" style="stop-color:#C2B39F"/>
		<stop  offset="0.15" style="stop-color:#FDEAD3"/>
		<stop  offset="0.25" style="stop-color:#FEF3E7"/>
		<stop  offset="0.44" style="stop-color:#DECCB6"/>
		<stop  offset="0.6" style="stop-color:#C5B5A2"/>
		<stop  offset="0.8" style="stop-color:#A69988"/>
		<stop  offset="0.97" style="stop-color:#988C7C"/>
	</linearGradient>
	<path fill="url(#SVGID_1_)" d="M30.309,49.73h32.25v130.5h-32.25V49.73z"/>
	
		<linearGradient id="SVGID_2_" gradientUnits="userSpaceOnUse" x1="73.9727" y1="120.5518" x2="73.9727" y2="112.5361" gradientTransform="matrix(0.75 0 0 -0.75 -8.98 124.2646)">
		<stop  offset="0" style="stop-color:#343232"/>
		<stop  offset="0.15" style="stop-color:#555454"/>
		<stop  offset="0.26" style="stop-color:#797777"/>
		<stop  offset="0.41" style="stop-color:#5D5B5B"/>
		<stop  offset="0.6" style="stop-color:#484646"/>
		<stop  offset="0.8" style="stop-color:#383636"/>
		<stop  offset="0.93" style="stop-color:#2C2B2B"/>
		<stop  offset="1" style="stop-color:#535151"/>
	</linearGradient>
	<path fill="url(#SVGID_2_)" d="M41.168,33.863h10.5c0.75,0,0.914,0.254,0.914,0.578l-0.164,4.672c0,0.75-0.098,0.668-0.426,0.668
		l-10.824,0.082c-0.75,0-0.75-0.348-0.75-0.672v-4.578c0-0.75,0.262-0.762,0.586-0.762L41.168,33.863z"/>
	
		<linearGradient id="SVGID_3_" gradientUnits="userSpaceOnUse" x1="74.8613" y1="113.0361" x2="65.8613" y2="113.0361" gradientTransform="matrix(0.75 0 0 -0.75 -6.3809 119.1279)">
		<stop  offset="0" style="stop-color:#343232"/>
		<stop  offset="0.15" style="stop-color:#555454"/>
		<stop  offset="0.26" style="stop-color:#797777"/>
		<stop  offset="0.41" style="stop-color:#5D5B5B"/>
		<stop  offset="0.6" style="stop-color:#484646"/>
		<stop  offset="0.8" style="stop-color:#383636"/>
		<stop  offset="0.93" style="stop-color:#2C2B2B"/>
		<stop  offset="1" style="stop-color:#535151"/>
	</linearGradient>
	<path fill="url(#SVGID_3_)" d="M43.016,28.727h6.75v11.25h-6.75V28.727z"/>
	<path d="M33.902,14.941h25.5c0,0,0.445,0.246,0.445,0.574l0.305,12.926c0,0-0.586,0.48-0.91,0.48l-25.34,0.27
		c-0.75,0-0.75-0.535-0.75-0.859V15.691c0-0.75,0.254-0.766,0.578-0.766L33.902,14.941z"/>
	
		<linearGradient id="SVGID_4_" gradientUnits="userSpaceOnUse" x1="75.3633" y1="120.5352" x2="75.3633" y2="116.5352" gradientTransform="matrix(0.75 0 0 -0.75 -9.2529 124.5488)">
		<stop  offset="0" style="stop-color:#343232"/>
		<stop  offset="0.15" style="stop-color:#555454"/>
		<stop  offset="0.26" style="stop-color:#797777"/>
		<stop  offset="0.41" style="stop-color:#5D5B5B"/>
		<stop  offset="0.6" style="stop-color:#484646"/>
		<stop  offset="0.8" style="stop-color:#383636"/>
		<stop  offset="0.93" style="stop-color:#2C2B2B"/>
		<stop  offset="1" style="stop-color:#535151"/>
	</linearGradient>
	<path fill="url(#SVGID_4_)" d="M40.145,34.148h14.25v3h-14.25V34.148z"/>
	
		<linearGradient id="SVGID_5_" gradientUnits="userSpaceOnUse" x1="67.3643" y1="120.5332" x2="67.3643" y2="115.5332" gradientTransform="matrix(0.75 0 0 -0.75 5.0698 124.1543)">
		<stop  offset="0" style="stop-color:#343232"/>
		<stop  offset="0.15" style="stop-color:#555454"/>
		<stop  offset="0.26" style="stop-color:#797777"/>
		<stop  offset="0.41" style="stop-color:#5D5B5B"/>
		<stop  offset="0.6" style="stop-color:#484646"/>
		<stop  offset="0.8" style="stop-color:#383636"/>
		<stop  offset="0.93" style="stop-color:#2C2B2B"/>
		<stop  offset="1" style="stop-color:#535151"/>
	</linearGradient>
	<path fill="url(#SVGID_5_)" d="M54.469,33.754h2.25v3.75h-2.25V33.754z"/>
	<path fill="#3E3938" d="M34.844,16.027h23.25c0.75,0,0.813,0.258,0.813,0.586l-0.063,10.664c0,0-0.211,0.578-0.535,0.578
		l-23.465,0.172c-0.75,0-0.75-0.441-0.75-0.77v-10.48c0-0.75,0.242-0.75,0.57-0.75H34.844z"/>
	
		<linearGradient id="SVGID_6_" gradientUnits="userSpaceOnUse" x1="109.8623" y1="113.4717" x2="65.8623" y2="113.4717" gradientTransform="matrix(0.75 0 0 -0.75 -19.3975 269.6064)">
		<stop  offset="0" style="stop-color:#343232"/>
		<stop  offset="0.15" style="stop-color:#555454"/>
		<stop  offset="0.26" style="stop-color:#797777"/>
		<stop  offset="0.41" style="stop-color:#5D5B5B"/>
		<stop  offset="0.6" style="stop-color:#484646"/>
		<stop  offset="0.8" style="stop-color:#383636"/>
		<stop  offset="0.93" style="stop-color:#2C2B2B"/>
		<stop  offset="1" style="stop-color:#535151"/>
	</linearGradient>
	<path fill="url(#SVGID_6_)" d="M63,179.203v9.75c0,0.75-0.473,0.852-1.043,0.852l-31.207-0.102c0,0-0.75-0.227-0.75-0.633v-9.867
		H63z"/>
	
		<linearGradient id="SVGID_7_" gradientUnits="userSpaceOnUse" x1="109.8623" y1="635.8975" x2="65.8623" y2="635.8975" gradientTransform="matrix(0.75 0 0 0.75 -19.3975 -432.1372)">
		<stop  offset="0" style="stop-color:#343232"/>
		<stop  offset="0.15" style="stop-color:#555454"/>
		<stop  offset="0.26" style="stop-color:#797777"/>
		<stop  offset="0.41" style="stop-color:#5D5B5B"/>
		<stop  offset="0.6" style="stop-color:#484646"/>
		<stop  offset="0.8" style="stop-color:#383636"/>
		<stop  offset="0.93" style="stop-color:#2C2B2B"/>
		<stop  offset="1" style="stop-color:#535151"/>
	</linearGradient>
	<path fill="url(#SVGID_7_)" d="M63,50.086v-9.75c0-0.75-0.473-0.852-1.043-0.852L30.75,39.586c0,0-0.75,0.227-0.75,0.633v9.867H63z
		"/>
	<path fill="#FFFFFF" d="M34.789,16.828h11.25v10.5h-11.25V16.828z"/>
	<path fill="#595757" stroke="#595757" stroke-linejoin="bevel" stroke-miterlimit="10" d="M47.512,22.145c0-3,2.25-5.25,5.027-5.25
		c2.473,0,5.023,2.262,5.023,5.055c-0.301,2.445-2.25,5.055-5.023,5.055c-2.777-0.359-5.027-2.266-5.027-5.055V22.145z"/>
	<path fill="#9E9F9F" d="M48.082,21.969c0-2.25,1.992-4.5,4.457-4.5c2.293,0,4.453,2.004,4.453,4.48
		c0.09,2.27-1.992,4.48-4.453,4.48c-2.207,0.039-4.457-2.008-4.457-4.48V21.969z"/>
	<path fill="#FFFFFF" fill-opacity="0.3569" d="M54.363,23.621c2.25-3.75,0.008-6,0.008-6c1.492,0.75,2.766,2.348,2.766,4.246
		c0.227,2.504-2.063,4.633-4.605,4.633c-1.168,0.121-1.918-0.32-2.668-0.859c0,0.23,2.813,0.762,4.824-2.32L54.363,23.621z"/>
	<path stroke="#000000" stroke-linejoin="bevel" stroke-miterlimit="10" d="M49.43,24.191l2.871-2.523c0,0,0.824-0.305,1.547-0.316
		c0.129,0.215,0.242-0.059,0.086-0.332c-0.332-0.102-0.617-0.758-0.703-0.438c-0.004-0.316-0.379,0.68-1.238,1.258L49.43,24.191z"/>
	<path stroke="#000000" stroke-linejoin="bevel" stroke-miterlimit="10" d="M52.238,22.211c0,0,0.438-0.211,0.492-0.406
		c0.156,0.031-0.066-0.395-0.262-0.449c0.043-0.172-0.395,0.063-0.449,0.258c-0.156-0.055,0.066,0.398,0.262,0.449L52.238,22.211z"
		/>
	
		<linearGradient id="SVGID_8_" gradientUnits="userSpaceOnUse" x1="-130.9268" y1="857.4004" x2="-131.6791" y2="857.4004" gradientTransform="matrix(0.6495 -0.375 0.375 0.6495 -183.8439 -584.5081)">
		<stop  offset="0" style="stop-color:#C4AA84"/>
		<stop  offset="0.15" style="stop-color:#FFE0B3"/>
		<stop  offset="0.25" style="stop-color:#FFEED7"/>
		<stop  offset="0.44" style="stop-color:#DFC297"/>
		<stop  offset="0.6" style="stop-color:#C7AD86"/>
		<stop  offset="0.8" style="stop-color:#A89170"/>
		<stop  offset="0.97" style="stop-color:#998566"/>
		<stop  offset="1" style="stop-color:#CBB189"/>
	</linearGradient>
	<path fill="url(#SVGID_8_)" d="M52.293,22.012c0,0,0.266-0.125,0.297-0.246c0.352-0.129-0.039-0.238-0.156-0.27
		c-0.516-0.133-0.242,0.039-0.273,0.156c0.133,0.359,0.039,0.238,0.156,0.27L52.293,22.012z"/>
</g>
</svg>
