<?xml version="1.0" encoding="utf-8"?>
<!-- Generator: Adobe Illustrator 16.0.0, SVG Export Plug-In . SVG Version: 6.00 Build 0)  -->
<!DOCTYPE svg PUBLIC "-//W3C//DTD SVG 1.1//EN" "http://www.w3.org/Graphics/SVG/1.1/DTD/svg11.dtd">
<svg preserveAspectRatio="none" version="1.1" id="图层_1" xmlns="http://www.w3.org/2000/svg" xmlns:xlink="http://www.w3.org/1999/xlink" x="0px" y="0px"
	 width="340.563px" height="358.66px" viewBox="30 -37.707 340.563 358.66" enable-background="new 30 -37.707 340.563 358.66"
	 xml:space="preserve">
<g id="surface736">
	
		<linearGradient id="SVGID_1_" gradientUnits="userSpaceOnUse" x1="250.6104" y1="194.79" x2="14.6108" y2="194.79" gradientTransform="matrix(0.75 0 0 -0.75 182.604 137.0449)">
		<stop  offset="0" style="stop-color:#90A38C"/>
		<stop  offset="0.01" style="stop-color:#D8EBD4"/>
		<stop  offset="0.03" style="stop-color:#BDD4B7"/>
		<stop  offset="0.64" style="stop-color:#BAD0B4"/>
		<stop  offset="0.99" style="stop-color:#B5CCB0"/>
		<stop  offset="1" style="stop-color:#869782"/>
	</linearGradient>
	<path fill="url(#SVGID_1_)" d="M196.563-22.922h171c1.5,0,2.93,1.234,2.93,2.754l0.07,24.996h-177v-24.75c0-1.5,1.23-3,2.742-3
		H196.563z"/>
	
		<linearGradient id="SVGID_2_" gradientUnits="userSpaceOnUse" x1="24.6147" y1="162.7871" x2="14.6147" y2="162.7871" gradientTransform="matrix(0.75 0 0 -0.75 161.2651 171.457)">
		<stop  offset="0" style="stop-color:#90A38C"/>
		<stop  offset="0.01" style="stop-color:#D8EBD4"/>
		<stop  offset="0.03" style="stop-color:#BDD4B7"/>
		<stop  offset="0.64" style="stop-color:#BAD0B4"/>
		<stop  offset="0.99" style="stop-color:#B5CCB0"/>
		<stop  offset="1" style="stop-color:#869782"/>
	</linearGradient>
	<path fill="url(#SVGID_2_)" d="M172.227,11.492h7.5v75.75h-7.5V11.492z"/>
	
		<linearGradient id="SVGID_3_" gradientUnits="userSpaceOnUse" x1="50.6104" y1="208.29" x2="14.6104" y2="208.29" gradientTransform="matrix(0.75 0 0 -0.75 156.3936 167.8877)">
		<stop  offset="0" style="stop-color:#90A38C"/>
		<stop  offset="0.01" style="stop-color:#D8EBD4"/>
		<stop  offset="0.03" style="stop-color:#BDD4B7"/>
		<stop  offset="0.64" style="stop-color:#BAD0B4"/>
		<stop  offset="0.99" style="stop-color:#B5CCB0"/>
		<stop  offset="1" style="stop-color:#869782"/>
	</linearGradient>
	<path fill="url(#SVGID_3_)" d="M167.352,7.922h27v7.5h-27V7.922z"/>
	
		<linearGradient id="SVGID_4_" gradientUnits="userSpaceOnUse" x1="41.6147" y1="147.7861" x2="14.6147" y2="147.7861" gradientTransform="matrix(0.75 0 0 -0.75 47.3906 382.667)">
		<stop  offset="0" style="stop-color:#90A38C"/>
		<stop  offset="0.01" style="stop-color:#D8EBD4"/>
		<stop  offset="0.03" style="stop-color:#BDD4B7"/>
		<stop  offset="0.64" style="stop-color:#BAD0B4"/>
		<stop  offset="0.99" style="stop-color:#B5CCB0"/>
		<stop  offset="1" style="stop-color:#869782"/>
	</linearGradient>
	<path fill="url(#SVGID_4_)" d="M58.352,222.703h20.25v98.25h-20.25V222.703z"/>
	
		<linearGradient id="SVGID_5_" gradientUnits="userSpaceOnUse" x1="41.6128" y1="147.7861" x2="14.6128" y2="147.7861" gradientTransform="matrix(0.75 0 0 -0.75 339.0439 379.6084)">
		<stop  offset="0" style="stop-color:#90A38C"/>
		<stop  offset="0.01" style="stop-color:#D8EBD4"/>
		<stop  offset="0.03" style="stop-color:#BDD4B7"/>
		<stop  offset="0.64" style="stop-color:#BAD0B4"/>
		<stop  offset="0.99" style="stop-color:#B5CCB0"/>
		<stop  offset="1" style="stop-color:#869782"/>
	</linearGradient>
	<path fill="url(#SVGID_5_)" d="M350.004,219.645h20.25v98.25h-20.25V219.645z"/>
	
		<linearGradient id="SVGID_6_" gradientUnits="userSpaceOnUse" x1="431.6123" y1="134.2871" x2="14.6128" y2="134.2871" gradientTransform="matrix(0.75 0 0 -0.75 46.7471 266.332)">
		<stop  offset="0" style="stop-color:#90A38C"/>
		<stop  offset="0.01" style="stop-color:#D8EBD4"/>
		<stop  offset="0.03" style="stop-color:#BDD4B7"/>
		<stop  offset="0.64" style="stop-color:#BAD0B4"/>
		<stop  offset="0.99" style="stop-color:#B5CCB0"/>
		<stop  offset="1" style="stop-color:#869782"/>
	</linearGradient>
	<path fill="url(#SVGID_6_)" d="M57.707,106.367h312.75v118.5H57.707V106.367z"/>
	
		<linearGradient id="SVGID_7_" gradientUnits="userSpaceOnUse" x1="161.6152" y1="134.2896" x2="14.6152" y2="134.2895" gradientTransform="matrix(0.75 0 0 -0.75 47.3901 122.2598)">
		<stop  offset="0" style="stop-color:#90A38C"/>
		<stop  offset="0.01" style="stop-color:#D8EBD4"/>
		<stop  offset="0.03" style="stop-color:#BDD4B7"/>
		<stop  offset="0.64" style="stop-color:#BAD0B4"/>
		<stop  offset="0.99" style="stop-color:#B5CCB0"/>
		<stop  offset="1" style="stop-color:#869782"/>
	</linearGradient>
	<path fill="url(#SVGID_7_)" d="M58.352-37.707h110.25v118.5H58.352V-37.707z"/>
	
		<linearGradient id="SVGID_8_" gradientUnits="userSpaceOnUse" x1="161.6152" y1="210.2852" x2="14.6152" y2="210.2851" gradientTransform="matrix(0.75 0 0 -0.75 47.3901 236.0137)">
		<stop  offset="0" style="stop-color:#669561"/>
		<stop  offset="0.01" style="stop-color:#B0DDAB"/>
		<stop  offset="0.03" style="stop-color:#87C280"/>
		<stop  offset="0.64" style="stop-color:#85BF7E"/>
		<stop  offset="0.99" style="stop-color:#82BB7B"/>
		<stop  offset="1" style="stop-color:#5F8A5A"/>
	</linearGradient>
	<path fill="url(#SVGID_8_)" d="M58.352,76.051h110.25v4.5H58.352V76.051z"/>
	
		<linearGradient id="SVGID_9_" gradientUnits="userSpaceOnUse" x1="250.6143" y1="162.7881" x2="14.6147" y2="162.7881" gradientTransform="matrix(0.75 0 0 -0.75 182.2803 164.5742)">
		<stop  offset="0" style="stop-color:#90A38C"/>
		<stop  offset="0.01" style="stop-color:#D8EBD4"/>
		<stop  offset="0.03" style="stop-color:#BDD4B7"/>
		<stop  offset="0.64" style="stop-color:#BAD0B4"/>
		<stop  offset="0.99" style="stop-color:#B5CCB0"/>
		<stop  offset="1" style="stop-color:#869782"/>
	</linearGradient>
	<path fill="url(#SVGID_9_)" d="M193.242,4.609h177v75.75h-177V4.609z"/>
	
		<linearGradient id="SVGID_10_" gradientUnits="userSpaceOnUse" x1="250.6143" y1="201.2881" x2="14.6147" y2="201.2881" gradientTransform="matrix(0.75 0 0 -0.75 182.2803 164.5742)">
		<stop  offset="0" style="stop-color:#9BAB98"/>
		<stop  offset="0.01" style="stop-color:#E3F4E0"/>
		<stop  offset="0.03" style="stop-color:#CADEC6"/>
		<stop  offset="0.64" style="stop-color:#C6DAC3"/>
		<stop  offset="0.99" style="stop-color:#C2D5BE"/>
		<stop  offset="1" style="stop-color:#8F9E8D"/>
	</linearGradient>
	<path fill="url(#SVGID_10_)" d="M193.242,4.609h177v18h-177V4.609z"/>
	
		<linearGradient id="SVGID_11_" gradientUnits="userSpaceOnUse" x1="32.6113" y1="195.2861" x2="14.6113" y2="195.2861" gradientTransform="matrix(0.75 0 0 -0.75 96.2441 240.6631)">
		<stop  offset="0" style="stop-color:#90A38C"/>
		<stop  offset="0.01" style="stop-color:#D8EBD4"/>
		<stop  offset="0.03" style="stop-color:#BDD4B7"/>
		<stop  offset="0.64" style="stop-color:#BAD0B4"/>
		<stop  offset="0.99" style="stop-color:#B5CCB0"/>
		<stop  offset="1" style="stop-color:#869782"/>
	</linearGradient>
	<path fill="url(#SVGID_11_)" d="M107.203,80.699h13.5v27h-13.5V80.699z"/>
	
		<linearGradient id="SVGID_12_" gradientUnits="userSpaceOnUse" x1="183.6138" y1="208.29" x2="14.6138" y2="208.29" gradientTransform="matrix(0.75 0 0 -0.75 109.6953 246.6543)">
		<stop  offset="0" style="stop-color:#90A38C"/>
		<stop  offset="0.01" style="stop-color:#D8EBD4"/>
		<stop  offset="0.03" style="stop-color:#BDD4B7"/>
		<stop  offset="0.64" style="stop-color:#BAD0B4"/>
		<stop  offset="0.99" style="stop-color:#B5CCB0"/>
		<stop  offset="1" style="stop-color:#869782"/>
	</linearGradient>
	<path fill="url(#SVGID_12_)" d="M120.656,86.688h126.75v7.5h-126.75V86.688z"/>
	
		<linearGradient id="SVGID_13_" gradientUnits="userSpaceOnUse" x1="178.6147" y1="156.7871" x2="14.6147" y2="156.7871" gradientTransform="matrix(0.75 0 0 -0.75 226.187 175.2773)">
		<stop  offset="0" style="stop-color:#90A38C"/>
		<stop  offset="0.01" style="stop-color:#D8EBD4"/>
		<stop  offset="0.03" style="stop-color:#BDD4B7"/>
		<stop  offset="0.64" style="stop-color:#BAD0B4"/>
		<stop  offset="0.99" style="stop-color:#B5CCB0"/>
		<stop  offset="1" style="stop-color:#869782"/>
	</linearGradient>
	<path fill="url(#SVGID_13_)" d="M237.148,15.313h123v84.75h-123V15.313z"/>
	
		<linearGradient id="SVGID_14_" gradientUnits="userSpaceOnUse" x1="45.6118" y1="208.2881" x2="14.6118" y2="208.2881" gradientTransform="matrix(0.75 0 0 -0.75 238.3335 259.9063)">
		<stop  offset="0" style="stop-color:#90A38C"/>
		<stop  offset="0.01" style="stop-color:#D8EBD4"/>
		<stop  offset="0.03" style="stop-color:#BDD4B7"/>
		<stop  offset="0.64" style="stop-color:#BAD0B4"/>
		<stop  offset="0.99" style="stop-color:#B5CCB0"/>
		<stop  offset="1" style="stop-color:#869782"/>
	</linearGradient>
	<path fill="url(#SVGID_14_)" d="M249.293,99.941h23.25v7.5h-23.25V99.941z"/>
	
		<linearGradient id="SVGID_15_" gradientUnits="userSpaceOnUse" x1="45.6118" y1="208.2881" x2="14.6118" y2="208.2881" gradientTransform="matrix(0.75 0 0 -0.75 315.9316 259.9063)">
		<stop  offset="0" style="stop-color:#90A38C"/>
		<stop  offset="0.01" style="stop-color:#D8EBD4"/>
		<stop  offset="0.03" style="stop-color:#BDD4B7"/>
		<stop  offset="0.64" style="stop-color:#BAD0B4"/>
		<stop  offset="0.99" style="stop-color:#B5CCB0"/>
		<stop  offset="1" style="stop-color:#869782"/>
	</linearGradient>
	<path fill="url(#SVGID_15_)" d="M326.891,99.941h23.25v7.5h-23.25V99.941z"/>
	
		<linearGradient id="SVGID_16_" gradientUnits="userSpaceOnUse" x1="178.6147" y1="210.2871" x2="14.6147" y2="210.2871" gradientTransform="matrix(0.75 0 0 -0.75 226.187 175.2773)">
		<stop  offset="0" style="stop-color:#669561"/>
		<stop  offset="0.01" style="stop-color:#B0DDAB"/>
		<stop  offset="0.03" style="stop-color:#87C280"/>
		<stop  offset="0.64" style="stop-color:#85BF7E"/>
		<stop  offset="0.99" style="stop-color:#82BB7B"/>
		<stop  offset="1" style="stop-color:#5F8A5A"/>
	</linearGradient>
	<path fill="url(#SVGID_16_)" d="M237.148,15.313h123v4.5h-123V15.313z"/>
	
		<linearGradient id="SVGID_17_" gradientUnits="userSpaceOnUse" x1="178.6147" y1="210.2852" x2="14.6147" y2="210.2851" gradientTransform="matrix(0.75 0 0 -0.75 226.187 255.4199)">
		<stop  offset="0" style="stop-color:#669561"/>
		<stop  offset="0.01" style="stop-color:#B0DDAB"/>
		<stop  offset="0.03" style="stop-color:#87C280"/>
		<stop  offset="0.64" style="stop-color:#85BF7E"/>
		<stop  offset="0.99" style="stop-color:#82BB7B"/>
		<stop  offset="1" style="stop-color:#5F8A5A"/>
	</linearGradient>
	<path fill="url(#SVGID_17_)" d="M237.148,95.457h123v4.5h-123V95.457z"/>
	
		<linearGradient id="SVGID_18_" gradientUnits="userSpaceOnUse" x1="26.6157" y1="135.2905" x2="14.6157" y2="135.2905" gradientTransform="matrix(0.75 0 0 -0.75 173.9053 149.6621)">
		<stop  offset="0" style="stop-color:#90A38C"/>
		<stop  offset="0.01" style="stop-color:#D8EBD4"/>
		<stop  offset="0.03" style="stop-color:#BDD4B7"/>
		<stop  offset="0.64" style="stop-color:#BAD0B4"/>
		<stop  offset="0.99" style="stop-color:#B5CCB0"/>
		<stop  offset="1" style="stop-color:#869782"/>
	</linearGradient>
	<path fill="url(#SVGID_18_)" d="M187.867-10.305h3c1.5,0,2.754,1.25,2.754,2.789l0.246,114.211h-9v-114c0-1.5,1.227-3,2.738-3
		H187.867z"/>
	<path stroke="#000000" stroke-linejoin="bevel" stroke-miterlimit="10" d="M256.379,25.113h15v17.25h-15V25.113z"/>
	<path fill="#EEEEEE" stroke="#000000" stroke-linejoin="bevel" stroke-miterlimit="10" d="M258.043,26.785h12v14.25h-12V26.785z"/>
	<path fill="#717070" stroke="#000000" stroke-linejoin="bevel" stroke-miterlimit="10" d="M258.043,36.309h12v4.5h-12V36.309z"/>
	
		<linearGradient id="SVGID_19_" gradientUnits="userSpaceOnUse" x1="29.6772" y1="205.7197" x2="14.6147" y2="205.7197" gradientTransform="matrix(0.75 0 0 -0.75 281.644 190.9453)">
		<stop  offset="0" style="stop-color:#A64B4E"/>
		<stop  offset="0.03" style="stop-color:#EF9A9C"/>
		<stop  offset="0.08" style="stop-color:#D86468"/>
		<stop  offset="0.64" style="stop-color:#D56266"/>
		<stop  offset="0.95" style="stop-color:#D06063"/>
		<stop  offset="1" style="stop-color:#9A4548"/>
	</linearGradient>
	<path fill="url(#SVGID_19_)" d="M292.605,36.98c0-3.75,2.527-6,5.648-6c3.352,0,5.648,2.539,5.648,5.676
		c-0.047,3.324-2.531,5.676-5.648,5.676c-3.398-0.102-5.648-2.539-5.648-5.676V36.98z"/>
	<path stroke="#000000" stroke-linejoin="bevel" stroke-miterlimit="10" d="M324.824,25.113h15v17.25h-15V25.113z"/>
	<path fill="#EEEEEE" stroke="#000000" stroke-linejoin="bevel" stroke-miterlimit="10" d="M326.488,26.785h12v14.25h-12V26.785z"/>
	<path fill="#717070" stroke="#000000" stroke-linejoin="bevel" stroke-miterlimit="10" d="M326.488,36.309h12v4.5h-12V36.309z"/>
	
		<linearGradient id="SVGID_20_" gradientUnits="userSpaceOnUse" x1="26.4526" y1="207.3643" x2="14.6118" y2="207.3643" gradientTransform="matrix(0.75 0 0 -0.75 258.4546 239.1406)">
		<stop  offset="0" style="stop-color:#B86D76"/>
		<stop  offset="0.15" style="stop-color:#F19AA3"/>
		<stop  offset="0.25" style="stop-color:#F7CCD0"/>
		<stop  offset="0.44" style="stop-color:#D27D87"/>
		<stop  offset="0.6" style="stop-color:#BB6F78"/>
		<stop  offset="0.8" style="stop-color:#9E5D64"/>
		<stop  offset="0.97" style="stop-color:#90545B"/>
		<stop  offset="1" style="stop-color:#BF727B"/>
	</linearGradient>
	<path fill="url(#SVGID_20_)" d="M269.414,83.676c0-2.25,1.988-4.512,4.441-4.512c2.309,0.012,4.434,1.996,4.434,4.461
		c0.125,2.301-1.988,4.445-4.434,4.445c-2.191,0.105-4.441-1.996-4.441-4.445V83.676z"/>
	<path fill="#2D2929" d="M271.848,83.859c0-1.5,0.895-2.262,2.004-2.262c0.996,0.012,2.008,0.902,2.008,2.016
		c-0.262,0.996-0.898,2.016-2.008,2.016c-1.254-0.27-2.008-0.902-2.008-2.016L271.848,83.859z"/>
	
		<linearGradient id="SVGID_21_" gradientUnits="userSpaceOnUse" x1="26.4546" y1="207.3643" x2="14.6138" y2="207.3643" gradientTransform="matrix(0.75 0 0 -0.75 240.2539 239.1406)">
		<stop  offset="0" style="stop-color:#787979"/>
		<stop  offset="0.15" style="stop-color:#A6A7A7"/>
		<stop  offset="0.25" style="stop-color:#D1D1D1"/>
		<stop  offset="0.44" style="stop-color:#8A8B8B"/>
		<stop  offset="0.6" style="stop-color:#7A7B7B"/>
		<stop  offset="0.8" style="stop-color:#666767"/>
		<stop  offset="0.97" style="stop-color:#5D5E5E"/>
		<stop  offset="1" style="stop-color:#7D7E7E"/>
	</linearGradient>
	<path fill="url(#SVGID_21_)" d="M251.215,83.676c0-2.25,1.984-4.512,4.441-4.512c2.309,0.012,4.434,1.996,4.434,4.461
		c0.125,2.301-1.988,4.445-4.434,4.445c-2.191,0.105-4.441-1.996-4.441-4.445V83.676z"/>
	<path fill="#2D2929" d="M253.648,83.859c0-1.5,0.895-2.262,2.004-2.262c0.996,0.012,2.008,0.902,2.008,2.016
		c-0.262,0.996-0.898,2.016-2.008,2.016c-1.254-0.27-2.012-0.902-2.012-2.016L253.648,83.859z"/>
	
		<linearGradient id="SVGID_22_" gradientUnits="userSpaceOnUse" x1="26.4546" y1="207.3662" x2="14.6138" y2="207.3662" gradientTransform="matrix(0.75 0 0 -0.75 240.2539 213.1221)">
		<stop  offset="0" style="stop-color:#3B9193"/>
		<stop  offset="0.15" style="stop-color:#67C3C5"/>
		<stop  offset="0.25" style="stop-color:#BBDEE0"/>
		<stop  offset="0.44" style="stop-color:#45A6A9"/>
		<stop  offset="0.6" style="stop-color:#3C9396"/>
		<stop  offset="0.8" style="stop-color:#317C7E"/>
		<stop  offset="0.97" style="stop-color:#2C7173"/>
		<stop  offset="1" style="stop-color:#3E9799"/>
	</linearGradient>
	<path fill="url(#SVGID_22_)" d="M251.215,57.656c0-2.25,1.984-4.512,4.441-4.512c2.309,0.012,4.434,1.996,4.434,4.461
		c0.125,2.301-1.988,4.445-4.434,4.445c-2.191,0.105-4.441-1.996-4.441-4.445V57.656z"/>
	<path fill="#2D2929" d="M253.648,57.84c0-1.5,0.895-2.262,2.004-2.262c0.996,0.012,2.008,0.902,2.008,2.016
		c-0.262,0.996-0.898,2.016-2.008,2.016c-1.254-0.27-2.012-0.902-2.012-2.016L253.648,57.84z"/>
	
		<linearGradient id="SVGID_23_" gradientUnits="userSpaceOnUse" x1="26.4526" y1="207.3643" x2="14.6118" y2="207.3643" gradientTransform="matrix(0.75 0 0 -0.75 258.4546 213.1211)">
		<stop  offset="0" style="stop-color:#3B9193"/>
		<stop  offset="0.15" style="stop-color:#67C3C5"/>
		<stop  offset="0.25" style="stop-color:#BBDEE0"/>
		<stop  offset="0.44" style="stop-color:#45A6A9"/>
		<stop  offset="0.6" style="stop-color:#3C9396"/>
		<stop  offset="0.8" style="stop-color:#317C7E"/>
		<stop  offset="0.97" style="stop-color:#2C7173"/>
		<stop  offset="1" style="stop-color:#3E9799"/>
	</linearGradient>
	<path fill="url(#SVGID_23_)" d="M269.414,57.656c0-2.25,1.988-4.512,4.441-4.512c2.309,0.012,4.434,1.992,4.434,4.461
		c0.125,2.301-1.988,4.445-4.434,4.445c-2.191,0.105-4.441-1.996-4.441-4.445V57.656z"/>
	<path fill="#2D2929" d="M271.848,57.84c0-1.5,0.895-2.262,2.004-2.262c0.996,0.012,2.008,0.902,2.008,2.016
		c-0.262,0.996-0.898,2.016-2.008,2.016c-1.254-0.27-2.008-0.902-2.008-2.016L271.848,57.84z"/>
	
		<linearGradient id="SVGID_24_" gradientUnits="userSpaceOnUse" x1="26.4517" y1="207.3643" x2="14.6108" y2="207.3643" gradientTransform="matrix(0.75 0 0 -0.75 276.6548 213.1211)">
		<stop  offset="0" style="stop-color:#3B9193"/>
		<stop  offset="0.15" style="stop-color:#67C3C5"/>
		<stop  offset="0.25" style="stop-color:#BBDEE0"/>
		<stop  offset="0.44" style="stop-color:#45A6A9"/>
		<stop  offset="0.6" style="stop-color:#3C9396"/>
		<stop  offset="0.8" style="stop-color:#317C7E"/>
		<stop  offset="0.97" style="stop-color:#2C7173"/>
		<stop  offset="1" style="stop-color:#3E9799"/>
	</linearGradient>
	<path fill="url(#SVGID_24_)" d="M287.613,57.656c0-2.25,1.988-4.512,4.445-4.512c2.305,0.012,4.43,1.992,4.43,4.461
		c0.125,2.301-1.984,4.445-4.43,4.445c-2.195,0.105-4.445-1.996-4.445-4.445V57.656z"/>
	<path fill="#2D2929" d="M290.047,57.84c0-1.5,0.895-2.262,2.004-2.262c0.996,0.012,2.012,0.902,2.012,2.016
		c-0.266,0.996-0.902,2.016-2.012,2.016c-1.254-0.27-2.008-0.902-2.008-2.016L290.047,57.84z"/>
	
		<linearGradient id="SVGID_25_" gradientUnits="userSpaceOnUse" x1="26.4546" y1="207.3643" x2="14.6147" y2="207.3643" gradientTransform="matrix(0.75 0 0 -0.75 294.8555 213.1211)">
		<stop  offset="0" style="stop-color:#3B9193"/>
		<stop  offset="0.15" style="stop-color:#67C3C5"/>
		<stop  offset="0.25" style="stop-color:#BBDEE0"/>
		<stop  offset="0.44" style="stop-color:#45A6A9"/>
		<stop  offset="0.6" style="stop-color:#3C9396"/>
		<stop  offset="0.8" style="stop-color:#317C7E"/>
		<stop  offset="0.97" style="stop-color:#2C7173"/>
		<stop  offset="1" style="stop-color:#3E9799"/>
	</linearGradient>
	<path fill="url(#SVGID_25_)" d="M305.816,57.656c0-2.25,1.984-4.512,4.441-4.512c2.309,0.012,4.434,1.992,4.434,4.461
		c0.125,2.301-1.988,4.445-4.434,4.445c-2.191,0.105-4.441-1.996-4.441-4.445V57.656z"/>
	<path fill="#2D2929" d="M308.25,57.84c0-1.5,0.895-2.262,2.004-2.262c0.996,0.012,2.008,0.902,2.008,2.016
		c-0.262,0.996-0.898,2.016-2.008,2.016c-1.254-0.27-2.012-0.902-2.012-2.016L308.25,57.84z"/>
	
		<linearGradient id="SVGID_26_" gradientUnits="userSpaceOnUse" x1="26.4526" y1="207.3643" x2="14.6128" y2="207.3643" gradientTransform="matrix(0.75 0 0 -0.75 313.0562 213.1211)">
		<stop  offset="0" style="stop-color:#3B9193"/>
		<stop  offset="0.15" style="stop-color:#67C3C5"/>
		<stop  offset="0.25" style="stop-color:#BBDEE0"/>
		<stop  offset="0.44" style="stop-color:#45A6A9"/>
		<stop  offset="0.6" style="stop-color:#3C9396"/>
		<stop  offset="0.8" style="stop-color:#317C7E"/>
		<stop  offset="0.97" style="stop-color:#2C7173"/>
		<stop  offset="1" style="stop-color:#3E9799"/>
	</linearGradient>
	<path fill="url(#SVGID_26_)" d="M324.016,57.656c0-2.25,1.988-4.512,4.441-4.512c2.309,0.012,4.434,1.992,4.434,4.461
		c0.125,2.301-1.988,4.445-4.434,4.445c-2.191,0.105-4.441-1.996-4.441-4.445V57.656z"/>
	<path fill="#2D2929" d="M326.449,57.84c0-1.5,0.895-2.262,2.004-2.262c0.996,0.012,2.008,0.902,2.008,2.016
		c-0.262,0.996-0.898,2.016-2.008,2.016c-1.254-0.27-2.008-0.902-2.008-2.016L326.449,57.84z"/>
	
		<linearGradient id="SVGID_27_" gradientUnits="userSpaceOnUse" x1="26.4507" y1="207.3643" x2="14.6108" y2="207.3643" gradientTransform="matrix(0.75 0 0 -0.75 331.2568 213.1211)">
		<stop  offset="0" style="stop-color:#3B9193"/>
		<stop  offset="0.15" style="stop-color:#67C3C5"/>
		<stop  offset="0.25" style="stop-color:#BBDEE0"/>
		<stop  offset="0.44" style="stop-color:#45A6A9"/>
		<stop  offset="0.6" style="stop-color:#3C9396"/>
		<stop  offset="0.8" style="stop-color:#317C7E"/>
		<stop  offset="0.97" style="stop-color:#2C7173"/>
		<stop  offset="1" style="stop-color:#3E9799"/>
	</linearGradient>
	<path fill="url(#SVGID_27_)" d="M342.215,57.656c0-2.25,1.988-4.512,4.445-4.512c2.305,0.012,4.43,1.992,4.43,4.461
		c0.125,2.301-1.984,4.445-4.43,4.445c-2.195,0.105-4.445-1.996-4.445-4.445V57.656z"/>
	<path fill="#2D2929" d="M344.648,57.84c0-1.5,0.895-2.262,2.004-2.262c0.996,0.012,2.012,0.902,2.012,2.016
		c-0.266,0.996-0.898,2.016-2.012,2.016c-1.254-0.27-2.008-0.902-2.008-2.016L344.648,57.84z"/>
	
		<linearGradient id="SVGID_28_" gradientUnits="userSpaceOnUse" x1="26.4517" y1="207.3643" x2="14.6118" y2="207.3643" gradientTransform="matrix(0.75 0 0 -0.75 277.2012 239.1406)">
		<stop  offset="0" style="stop-color:#B86D76"/>
		<stop  offset="0.15" style="stop-color:#F19AA3"/>
		<stop  offset="0.25" style="stop-color:#F7CCD0"/>
		<stop  offset="0.44" style="stop-color:#D27D87"/>
		<stop  offset="0.6" style="stop-color:#BB6F78"/>
		<stop  offset="0.8" style="stop-color:#9E5D64"/>
		<stop  offset="0.97" style="stop-color:#90545B"/>
		<stop  offset="1" style="stop-color:#BF727B"/>
	</linearGradient>
	<path fill="url(#SVGID_28_)" d="M288.16,83.676c0-2.25,1.988-4.512,4.445-4.512c2.305,0.012,4.43,1.996,4.43,4.461
		c0.125,2.301-1.984,4.445-4.43,4.445c-2.195,0.105-4.445-1.996-4.445-4.445V83.676z"/>
	<path fill="#2D2929" d="M290.594,83.859c0-1.5,0.895-2.262,2.004-2.262c0.996,0.012,2.012,0.902,2.012,2.016
		c-0.266,0.996-0.902,2.016-2.012,2.016c-1.254-0.27-2.008-0.902-2.008-2.016L290.594,83.859z"/>
	
		<linearGradient id="SVGID_29_" gradientUnits="userSpaceOnUse" x1="26.4546" y1="207.3604" x2="14.6138" y2="207.3604" gradientTransform="matrix(0.75 0 0 -0.75 240.2539 225.8496)">
		<stop  offset="0" style="stop-color:#3B9193"/>
		<stop  offset="0.15" style="stop-color:#67C3C5"/>
		<stop  offset="0.25" style="stop-color:#BBDEE0"/>
		<stop  offset="0.44" style="stop-color:#45A6A9"/>
		<stop  offset="0.6" style="stop-color:#3C9396"/>
		<stop  offset="0.8" style="stop-color:#317C7E"/>
		<stop  offset="0.97" style="stop-color:#2C7173"/>
		<stop  offset="1" style="stop-color:#3E9799"/>
	</linearGradient>
	<path fill="url(#SVGID_29_)" d="M251.215,70.387c0-2.25,1.984-4.512,4.441-4.512c2.309,0.012,4.434,1.992,4.434,4.457
		c0.125,2.305-1.988,4.449-4.434,4.449c-2.191,0.105-4.441-1.996-4.441-4.449V70.387z"/>
	<path fill="#2D2929" d="M253.648,70.566c0-1.5,0.895-2.258,2.004-2.258c0.996,0.008,2.008,0.902,2.008,2.016
		c-0.262,0.992-0.898,2.016-2.008,2.016c-1.254-0.273-2.012-0.902-2.012-2.016L253.648,70.566z"/>
	
		<linearGradient id="SVGID_30_" gradientUnits="userSpaceOnUse" x1="26.4536" y1="207.3604" x2="14.6128" y2="207.3604" gradientTransform="matrix(0.75 0 0 -0.75 258.4541 225.8496)">
		<stop  offset="0" style="stop-color:#3B9193"/>
		<stop  offset="0.15" style="stop-color:#67C3C5"/>
		<stop  offset="0.25" style="stop-color:#BBDEE0"/>
		<stop  offset="0.44" style="stop-color:#45A6A9"/>
		<stop  offset="0.6" style="stop-color:#3C9396"/>
		<stop  offset="0.8" style="stop-color:#317C7E"/>
		<stop  offset="0.97" style="stop-color:#2C7173"/>
		<stop  offset="1" style="stop-color:#3E9799"/>
	</linearGradient>
	<path fill="url(#SVGID_30_)" d="M269.414,70.387c0-2.25,1.988-4.512,4.441-4.512c2.309,0.012,4.434,1.992,4.434,4.457
		c0.125,2.305-1.988,4.449-4.434,4.449c-2.191,0.105-4.441-2-4.441-4.449V70.387z"/>
	<path fill="#2D2929" d="M271.848,70.566c0-1.5,0.895-2.258,2.004-2.258c0.996,0.008,2.008,0.902,2.008,2.016
		c-0.262,0.992-0.898,2.012-2.008,2.012c-1.254-0.27-2.008-0.902-2.008-2.012L271.848,70.566z"/>
	
		<linearGradient id="SVGID_31_" gradientUnits="userSpaceOnUse" x1="26.4517" y1="207.3604" x2="14.6108" y2="207.3604" gradientTransform="matrix(0.75 0 0 -0.75 276.6548 225.8496)">
		<stop  offset="0" style="stop-color:#3B9193"/>
		<stop  offset="0.15" style="stop-color:#67C3C5"/>
		<stop  offset="0.25" style="stop-color:#BBDEE0"/>
		<stop  offset="0.44" style="stop-color:#45A6A9"/>
		<stop  offset="0.6" style="stop-color:#3C9396"/>
		<stop  offset="0.8" style="stop-color:#317C7E"/>
		<stop  offset="0.97" style="stop-color:#2C7173"/>
		<stop  offset="1" style="stop-color:#3E9799"/>
	</linearGradient>
	<path fill="url(#SVGID_31_)" d="M287.613,70.387c0-2.25,1.988-4.512,4.445-4.512c2.305,0.012,4.43,1.992,4.43,4.457
		c0.125,2.305-1.984,4.449-4.43,4.449c-2.195,0.105-4.445-2-4.445-4.449V70.387z"/>
	<path fill="#2D2929" d="M290.047,70.566c0-1.5,0.895-2.258,2.004-2.258c0.996,0.008,2.012,0.902,2.012,2.016
		c-0.266,0.992-0.902,2.012-2.012,2.012c-1.254-0.27-2.008-0.902-2.008-2.012L290.047,70.566z"/>
	
		<linearGradient id="SVGID_32_" gradientUnits="userSpaceOnUse" x1="26.4507" y1="207.3604" x2="14.6152" y2="207.3604" gradientTransform="matrix(0.75 0 0 -0.75 294.855 225.8496)">
		<stop  offset="0" style="stop-color:#3B9193"/>
		<stop  offset="0.15" style="stop-color:#67C3C5"/>
		<stop  offset="0.25" style="stop-color:#BBDEE0"/>
		<stop  offset="0.44" style="stop-color:#45A6A9"/>
		<stop  offset="0.6" style="stop-color:#3C9396"/>
		<stop  offset="0.8" style="stop-color:#317C7E"/>
		<stop  offset="0.97" style="stop-color:#2C7173"/>
		<stop  offset="1" style="stop-color:#3E9799"/>
	</linearGradient>
	<path fill="url(#SVGID_32_)" d="M305.816,70.387c0-2.25,1.984-4.512,4.441-4.512c2.309,0.012,4.43,1.992,4.43,4.457
		c0.129,2.305-1.984,4.449-4.43,4.449c-2.191,0.105-4.441-2-4.441-4.449V70.387z"/>
	<path fill="#2D2929" d="M308.25,70.566c0-1.5,0.891-2.258,2.004-2.258c0.996,0.008,2.008,0.902,2.008,2.016
		c-0.262,0.992-0.898,2.012-2.008,2.012c-1.254-0.27-2.012-0.902-2.012-2.012L308.25,70.566z"/>
	
		<linearGradient id="SVGID_33_" gradientUnits="userSpaceOnUse" x1="26.4531" y1="207.3604" x2="14.6133" y2="207.3604" gradientTransform="matrix(0.75 0 0 -0.75 313.0557 225.8496)">
		<stop  offset="0" style="stop-color:#3B9193"/>
		<stop  offset="0.15" style="stop-color:#67C3C5"/>
		<stop  offset="0.25" style="stop-color:#BBDEE0"/>
		<stop  offset="0.44" style="stop-color:#45A6A9"/>
		<stop  offset="0.6" style="stop-color:#3C9396"/>
		<stop  offset="0.8" style="stop-color:#317C7E"/>
		<stop  offset="0.97" style="stop-color:#2C7173"/>
		<stop  offset="1" style="stop-color:#3E9799"/>
	</linearGradient>
	<path fill="url(#SVGID_33_)" d="M324.016,70.387c0-2.25,1.988-4.512,4.441-4.512c2.309,0.012,4.434,1.992,4.434,4.457
		c0.125,2.305-1.988,4.449-4.434,4.449c-2.191,0.105-4.441-2-4.441-4.449V70.387z"/>
	<path fill="#2D2929" d="M326.449,70.566c0-1.5,0.895-2.258,2.004-2.258c0.996,0.008,2.008,0.902,2.008,2.016
		c-0.262,0.992-0.898,2.012-2.008,2.012c-1.254-0.27-2.008-0.902-2.008-2.012L326.449,70.566z"/>
	
		<linearGradient id="SVGID_34_" gradientUnits="userSpaceOnUse" x1="26.4507" y1="207.3604" x2="14.6108" y2="207.3604" gradientTransform="matrix(0.75 0 0 -0.75 331.2568 225.8496)">
		<stop  offset="0" style="stop-color:#3B9193"/>
		<stop  offset="0.15" style="stop-color:#67C3C5"/>
		<stop  offset="0.25" style="stop-color:#BBDEE0"/>
		<stop  offset="0.44" style="stop-color:#45A6A9"/>
		<stop  offset="0.6" style="stop-color:#3C9396"/>
		<stop  offset="0.8" style="stop-color:#317C7E"/>
		<stop  offset="0.97" style="stop-color:#2C7173"/>
		<stop  offset="1" style="stop-color:#3E9799"/>
	</linearGradient>
	<path fill="url(#SVGID_34_)" d="M342.215,70.387c0-2.25,1.988-4.512,4.445-4.512c2.305,0.012,4.43,1.992,4.43,4.457
		c0.125,2.305-1.984,4.449-4.43,4.449c-2.195,0.105-4.445-2-4.445-4.449V70.387z"/>
	<path fill="#2D2929" d="M344.648,70.566c0-1.5,0.895-2.258,2.004-2.258c0.996,0.008,2.012,0.902,2.012,2.016
		c-0.266,0.992-0.898,2.012-2.012,2.012c-1.254-0.27-2.008-0.902-2.008-2.012L344.648,70.566z"/>
	
		<linearGradient id="SVGID_35_" gradientUnits="userSpaceOnUse" x1="26.4546" y1="207.3643" x2="14.6147" y2="207.3643" gradientTransform="matrix(0.75 0 0 -0.75 294.8555 239.1406)">
		<stop  offset="0" style="stop-color:#787979"/>
		<stop  offset="0.15" style="stop-color:#A6A7A7"/>
		<stop  offset="0.25" style="stop-color:#D1D1D1"/>
		<stop  offset="0.44" style="stop-color:#8A8B8B"/>
		<stop  offset="0.6" style="stop-color:#7A7B7B"/>
		<stop  offset="0.8" style="stop-color:#666767"/>
		<stop  offset="0.97" style="stop-color:#5D5E5E"/>
		<stop  offset="1" style="stop-color:#7D7E7E"/>
	</linearGradient>
	<path fill="url(#SVGID_35_)" d="M305.816,83.676c0-2.25,1.984-4.512,4.441-4.512c2.309,0.012,4.434,1.996,4.434,4.461
		c0.125,2.301-1.988,4.445-4.434,4.445c-2.191,0.105-4.441-1.996-4.441-4.445V83.676z"/>
	<path fill="#2D2929" d="M308.25,83.859c0-1.5,0.895-2.262,2.004-2.262c0.996,0.012,2.008,0.902,2.008,2.016
		c-0.262,0.996-0.898,2.016-2.008,2.016c-1.254-0.27-2.012-0.902-2.012-2.016L308.25,83.859z"/>
	
		<linearGradient id="SVGID_36_" gradientUnits="userSpaceOnUse" x1="26.4526" y1="207.3643" x2="14.6128" y2="207.3643" gradientTransform="matrix(0.75 0 0 -0.75 313.0562 239.1406)">
		<stop  offset="0" style="stop-color:#787979"/>
		<stop  offset="0.15" style="stop-color:#A6A7A7"/>
		<stop  offset="0.25" style="stop-color:#D1D1D1"/>
		<stop  offset="0.44" style="stop-color:#8A8B8B"/>
		<stop  offset="0.6" style="stop-color:#7A7B7B"/>
		<stop  offset="0.8" style="stop-color:#666767"/>
		<stop  offset="0.97" style="stop-color:#5D5E5E"/>
		<stop  offset="1" style="stop-color:#7D7E7E"/>
	</linearGradient>
	<path fill="url(#SVGID_36_)" d="M324.016,83.676c0-2.25,1.988-4.512,4.441-4.512c2.309,0.012,4.434,1.996,4.434,4.461
		c0.125,2.301-1.988,4.445-4.434,4.445c-2.191,0.105-4.441-1.996-4.441-4.445V83.676z"/>
	<path fill="#2D2929" d="M326.449,83.859c0-1.5,0.895-2.262,2.004-2.262c0.996,0.012,2.008,0.902,2.008,2.016
		c-0.262,0.996-0.898,2.016-2.008,2.016c-1.254-0.27-2.008-0.902-2.008-2.016L326.449,83.859z"/>
	
		<linearGradient id="SVGID_37_" gradientUnits="userSpaceOnUse" x1="431.6123" y1="208.2871" x2="14.6128" y2="208.2871" gradientTransform="matrix(0.75 0 0 -0.75 46.7471 266.332)">
		<stop  offset="0" style="stop-color:#669561"/>
		<stop  offset="0.01" style="stop-color:#B0DDAB"/>
		<stop  offset="0.03" style="stop-color:#87C280"/>
		<stop  offset="0.64" style="stop-color:#85BF7E"/>
		<stop  offset="0.99" style="stop-color:#82BB7B"/>
		<stop  offset="1" style="stop-color:#5F8A5A"/>
	</linearGradient>
	<path fill="url(#SVGID_37_)" d="M57.707,106.367h312.75v7.5H57.707V106.367z"/>
	
		<linearGradient id="SVGID_38_" gradientUnits="userSpaceOnUse" x1="431.6133" y1="208.2881" x2="14.6133" y2="208.2881" gradientTransform="matrix(0.75 0 0 -0.75 46.7466 377.2656)">
		<stop  offset="0" style="stop-color:#669561"/>
		<stop  offset="0.01" style="stop-color:#B0DDAB"/>
		<stop  offset="0.03" style="stop-color:#87C280"/>
		<stop  offset="0.64" style="stop-color:#85BF7E"/>
		<stop  offset="0.99" style="stop-color:#82BB7B"/>
		<stop  offset="1" style="stop-color:#5F8A5A"/>
	</linearGradient>
	<path fill="url(#SVGID_38_)" d="M57.707,217.301h312.75v7.5H57.707V217.301z"/>
	
		<linearGradient id="SVGID_39_" gradientUnits="userSpaceOnUse" x1="28.6099" y1="53.2876" x2="14.6099" y2="53.2876" gradientTransform="matrix(0.75 0 0 -0.75 200.5537 224.8438)">
		<stop  offset="0" style="stop-color:#C7C7C7"/>
		<stop  offset="0.15" style="stop-color:#FFFFFF"/>
		<stop  offset="0.25" style="stop-color:#FFFFFF"/>
		<stop  offset="0.52" style="stop-color:#DFDFDF"/>
		<stop  offset="0.69" style="stop-color:#C7C7C7"/>
		<stop  offset="0.8" style="stop-color:#BCBCBC"/>
		<stop  offset="0.92" style="stop-color:#B1B1B1"/>
	</linearGradient>
	<path fill="url(#SVGID_39_)" d="M214.512,64.879h4.5c1.5,0,2.855,1.223,2.855,2.742l0.145,234.258c0,1.5-1.371,2.832-2.883,2.832
		l-4.617,0.168c-1.5,0-3-1.426-3-2.949V67.879c0-1.5,1.23-3,2.742-3H214.512z"/>
	
		<linearGradient id="SVGID_40_" gradientUnits="userSpaceOnUse" x1="31.6294" y1="194.5674" x2="14.5776" y2="194.5674" gradientTransform="matrix(0.75 0 0 -0.75 199.3403 348.4414)">
		<stop  offset="0" style="stop-color:#ABABAC"/>
		<stop  offset="0.15" style="stop-color:#E5E5E6"/>
		<stop  offset="0.25" style="stop-color:#E7E7E8"/>
		<stop  offset="0.52" style="stop-color:#C0C0C1"/>
		<stop  offset="0.69" style="stop-color:#ABABAC"/>
		<stop  offset="0.8" style="stop-color:#A1A1A2"/>
		<stop  offset="0.92" style="stop-color:#989899"/>
	</linearGradient>
	<path fill="url(#SVGID_40_)" d="M213.301,188.477h6.75c1.5,0,3.012,1.203,3.012,2.723l-0.012,22.777c0,1.5-1.215,2.613-2.73,2.613
		l-7.02-0.363c-1.5,0-3.027-0.871-3.027-2.391l0.027-22.359c0-1.5,1.199-3.031,2.711-3.031L213.301,188.477z"/>
	
		<linearGradient id="SVGID_41_" gradientUnits="userSpaceOnUse" x1="31.6294" y1="194.5664" x2="14.5776" y2="194.5664" gradientTransform="matrix(0.75 0 0 -0.75 199.3403 417.8418)">
		<stop  offset="0" style="stop-color:#ABABAC"/>
		<stop  offset="0.15" style="stop-color:#E5E5E6"/>
		<stop  offset="0.25" style="stop-color:#E7E7E8"/>
		<stop  offset="0.52" style="stop-color:#C0C0C1"/>
		<stop  offset="0.69" style="stop-color:#ABABAC"/>
		<stop  offset="0.8" style="stop-color:#A1A1A2"/>
		<stop  offset="0.92" style="stop-color:#989899"/>
	</linearGradient>
	<path fill="url(#SVGID_41_)" d="M213.301,257.875h6.75c1.5,0,3.012,1.207,3.012,2.727l-0.012,22.773c0,1.5-1.215,2.613-2.73,2.613
		l-7.02-0.363c-1.5,0-3.027-0.867-3.027-2.387l0.027-22.363c0-1.5,1.199-3.027,2.711-3.027L213.301,257.875z"/>
	
		<linearGradient id="SVGID_42_" gradientUnits="userSpaceOnUse" x1="31.6294" y1="207.1816" x2="14.5776" y2="207.1816" gradientTransform="matrix(0.75 0 0 -0.75 199.3403 243.5889)">
		<stop  offset="0" style="stop-color:#ABABAC"/>
		<stop  offset="0.15" style="stop-color:#E5E5E6"/>
		<stop  offset="0.25" style="stop-color:#E7E7E8"/>
		<stop  offset="0.52" style="stop-color:#C0C0C1"/>
		<stop  offset="0.69" style="stop-color:#ABABAC"/>
		<stop  offset="0.8" style="stop-color:#A1A1A2"/>
		<stop  offset="0.92" style="stop-color:#989899"/>
	</linearGradient>
	<path fill="url(#SVGID_42_)" d="M213.301,83.625h6.75c1.5,0,3.012,0.391,3.012,0.887l-0.012,7.363c0,0.75-1.215,0.918-2.73,0.918
		l-7.02-0.168c-1.5,0-3.027-0.234-3.027-0.73l0.027-7.52c0,0,1.199-0.762,2.711-0.762L213.301,83.625z"/>
	
		<linearGradient id="SVGID_43_" gradientUnits="userSpaceOnUse" x1="89.6133" y1="185.29" x2="14.6128" y2="185.29" gradientTransform="matrix(0.75 0 0 -0.75 19.04 225.8535)">
		<stop  offset="0" style="stop-color:#90A38C"/>
		<stop  offset="0.01" style="stop-color:#D8EBD4"/>
		<stop  offset="0.03" style="stop-color:#BDD4B7"/>
		<stop  offset="0.64" style="stop-color:#BAD0B4"/>
		<stop  offset="0.99" style="stop-color:#B5CCB0"/>
		<stop  offset="1" style="stop-color:#869782"/>
	</linearGradient>
	<path fill="url(#SVGID_43_)" d="M30,107.887h56.25v-25.5c0,0,0.398-16.5-27.824-16.5C30,65.887,30,82.473,30,82.473V107.887z"/>
	
		<linearGradient id="SVGID_44_" gradientUnits="userSpaceOnUse" x1="89.6128" y1="134.7876" x2="14.6128" y2="134.7876" gradientTransform="matrix(0.75 0 0 -0.75 19.04 266.4346)">
		<stop  offset="0" style="stop-color:#90A38C"/>
		<stop  offset="0.01" style="stop-color:#D8EBD4"/>
		<stop  offset="0.03" style="stop-color:#BDD4B7"/>
		<stop  offset="0.64" style="stop-color:#BAD0B4"/>
		<stop  offset="0.99" style="stop-color:#B5CCB0"/>
		<stop  offset="1" style="stop-color:#869782"/>
	</linearGradient>
	<path fill="url(#SVGID_44_)" d="M30,224.219h56.25v-117.75H30V224.219z"/>
	<path fill="#888889" stroke="#9E9F9F" stroke-linejoin="bevel" stroke-miterlimit="10" d="M87.719,210.68
		c0-2.25,1.633-3.77,3.66-3.77c2.34,0.02,3.68,1.656,3.68,3.695c0.16,2.324-1.648,3.691-3.68,3.691
		c-2.16,0.133-3.676-1.652-3.676-3.691L87.719,210.68z"/>
	
		<linearGradient id="SVGID_45_" gradientUnits="userSpaceOnUse" x1="23.9038" y1="208.626" x2="14.6128" y2="208.626" gradientTransform="matrix(0.75 0 0 -0.75 76.9351 367.0723)">
		<stop  offset="0" style="stop-color:#C4C4C4"/>
		<stop  offset="0.15" style="stop-color:#FFFFFF"/>
		<stop  offset="0.25" style="stop-color:#FFFFFF"/>
		<stop  offset="0.44" style="stop-color:#DFDFDF"/>
		<stop  offset="0.6" style="stop-color:#C7C7C7"/>
		<stop  offset="0.8" style="stop-color:#A8A8A8"/>
		<stop  offset="0.97" style="stop-color:#999999"/>
		<stop  offset="1" style="stop-color:#CBCBCB"/>
	</linearGradient>
	<path fill="url(#SVGID_45_)" d="M87.895,210.859c0-2.25,1.559-3.75,3.484-3.75c1.766,0,3.484,1.563,3.484,3.492
		c-0.219,1.758-1.559,3.496-3.484,3.496c-1.984-0.238-3.484-1.563-3.484-3.496V210.859z"/>
	<path fill="#888889" d="M89.832,208.645c0,0,0.246,0.027,0.422,0.203l2.758,2.977c0,0,0.301,0.371,0.125,0.547
		c-0.125,0.516-0.465,0.176-0.641,0l-2.664-2.668c-0.531-0.527-0.395-0.676-0.215-0.855L89.832,208.645z"/>
	<path fill="#888889" d="M93.344,209.074c0,0-0.031,0.246-0.207,0.426l-2.977,2.754c0,0-0.367,0.301-0.543,0.125
		c-0.516-0.125-0.176-0.465,0-0.641l2.664-2.664c0.531-0.531,0.68-0.395,0.855-0.215L93.344,209.074z"/>
	<path fill="#888889" stroke="#9E9F9F" stroke-linejoin="bevel" stroke-miterlimit="10" d="M87.719,121.285
		c0-2.25,1.633-3.77,3.66-3.77c2.34,0.02,3.68,1.656,3.68,3.695c0.16,2.324-1.648,3.691-3.68,3.691
		c-2.16,0.133-3.676-1.652-3.676-3.691L87.719,121.285z"/>
	
		<linearGradient id="SVGID_46_" gradientUnits="userSpaceOnUse" x1="23.9038" y1="208.627" x2="14.6128" y2="208.627" gradientTransform="matrix(0.75 0 0 -0.75 76.9351 277.6777)">
		<stop  offset="0" style="stop-color:#C4C4C4"/>
		<stop  offset="0.15" style="stop-color:#FFFFFF"/>
		<stop  offset="0.25" style="stop-color:#FFFFFF"/>
		<stop  offset="0.44" style="stop-color:#DFDFDF"/>
		<stop  offset="0.6" style="stop-color:#C7C7C7"/>
		<stop  offset="0.8" style="stop-color:#A8A8A8"/>
		<stop  offset="0.97" style="stop-color:#999999"/>
		<stop  offset="1" style="stop-color:#CBCBCB"/>
	</linearGradient>
	<path fill="url(#SVGID_46_)" d="M87.895,121.465c0-2.25,1.559-3.75,3.484-3.75c1.766,0,3.484,1.563,3.484,3.492
		c-0.219,1.758-1.559,3.496-3.484,3.496c-1.984-0.238-3.484-1.566-3.484-3.496V121.465z"/>
	<path fill="#888889" d="M89.832,119.25c0,0,0.246,0.027,0.422,0.203l2.758,2.977c0,0,0.301,0.367,0.125,0.547
		c-0.125,0.516-0.465,0.176-0.641,0l-2.664-2.668c-0.531-0.527-0.395-0.676-0.215-0.855L89.832,119.25z"/>
	<path fill="#888889" d="M93.344,119.68c0,0-0.031,0.246-0.207,0.422l-2.977,2.758c0,0-0.367,0.301-0.543,0.125
		c-0.516-0.125-0.176-0.465,0-0.641l2.664-2.664c0.531-0.531,0.68-0.395,0.855-0.215L93.344,119.68z"/>
	<path fill="#888889" stroke="#9E9F9F" stroke-linejoin="bevel" stroke-miterlimit="10" d="M356.797,210.68
		c0-2.25,1.633-3.766,3.66-3.766c2.34,0.016,3.68,1.652,3.68,3.691c0.16,2.324-1.648,3.691-3.68,3.691
		c-2.16,0.133-3.676-1.652-3.676-3.691L356.797,210.68z"/>
	
		<linearGradient id="SVGID_47_" gradientUnits="userSpaceOnUse" x1="23.9043" y1="208.626" x2="14.6123" y2="208.626" gradientTransform="matrix(0.75 0 0 -0.75 346.0132 367.0723)">
		<stop  offset="0" style="stop-color:#C4C4C4"/>
		<stop  offset="0.15" style="stop-color:#FFFFFF"/>
		<stop  offset="0.25" style="stop-color:#FFFFFF"/>
		<stop  offset="0.44" style="stop-color:#DFDFDF"/>
		<stop  offset="0.6" style="stop-color:#C7C7C7"/>
		<stop  offset="0.8" style="stop-color:#A8A8A8"/>
		<stop  offset="0.97" style="stop-color:#999999"/>
		<stop  offset="1" style="stop-color:#CBCBCB"/>
	</linearGradient>
	<path fill="url(#SVGID_47_)" d="M356.973,210.859c0-2.25,1.559-3.75,3.484-3.75c1.766,0,3.484,1.563,3.484,3.492
		c-0.219,1.758-1.559,3.496-3.484,3.496c-1.984-0.238-3.484-1.563-3.484-3.496V210.859z"/>
	<path fill="#888889" d="M358.91,208.645c0,0,0.246,0.027,0.426,0.203l2.754,2.977c0,0,0.301,0.371,0.125,0.547
		c-0.125,0.516-0.465,0.176-0.641,0l-2.664-2.668c-0.531-0.527-0.395-0.676-0.215-0.855L358.91,208.645z"/>
	<path fill="#888889" d="M362.422,209.074c0,0-0.027,0.246-0.207,0.426l-2.977,2.754c0,0-0.367,0.301-0.543,0.125
		c-0.516-0.125-0.176-0.465,0-0.641l2.664-2.664c0.531-0.531,0.68-0.395,0.855-0.215L362.422,209.074z"/>
	<path fill="#888889" stroke="#9E9F9F" stroke-linejoin="bevel" stroke-miterlimit="10" d="M356.797,121.285
		c0-2.25,1.633-3.77,3.66-3.77c2.34,0.02,3.68,1.652,3.68,3.691c0.16,2.328-1.648,3.695-3.68,3.695
		c-2.16,0.133-3.676-1.656-3.676-3.695L356.797,121.285z"/>
	
		<linearGradient id="SVGID_48_" gradientUnits="userSpaceOnUse" x1="23.9043" y1="208.6299" x2="14.6123" y2="208.6299" gradientTransform="matrix(0.75 0 0 -0.75 346.0132 277.6777)">
		<stop  offset="0" style="stop-color:#C4C4C4"/>
		<stop  offset="0.15" style="stop-color:#FFFFFF"/>
		<stop  offset="0.25" style="stop-color:#FFFFFF"/>
		<stop  offset="0.44" style="stop-color:#DFDFDF"/>
		<stop  offset="0.6" style="stop-color:#C7C7C7"/>
		<stop  offset="0.8" style="stop-color:#A8A8A8"/>
		<stop  offset="0.97" style="stop-color:#999999"/>
		<stop  offset="1" style="stop-color:#CBCBCB"/>
	</linearGradient>
	<path fill="url(#SVGID_48_)" d="M356.973,121.461c0-2.25,1.559-3.75,3.484-3.75c1.766,0,3.484,1.566,3.484,3.496
		c-0.219,1.754-1.559,3.496-3.484,3.496c-1.984-0.242-3.484-1.566-3.484-3.496V121.461z"/>
	<path fill="#888889" d="M358.91,119.25c0,0,0.246,0.027,0.426,0.203l2.754,2.977c0,0,0.301,0.367,0.125,0.547
		c-0.125,0.516-0.465,0.176-0.641,0l-2.664-2.668c-0.531-0.531-0.395-0.676-0.215-0.855L358.91,119.25z"/>
	<path fill="#888889" d="M362.422,119.68c0,0-0.027,0.246-0.207,0.422l-2.977,2.758c0,0-0.367,0.301-0.543,0.125
		c-0.516-0.125-0.176-0.465,0-0.641l2.664-2.664c0.531-0.531,0.68-0.395,0.855-0.219L362.422,119.68z"/>
</g>
</svg>
