<?xml version="1.0" encoding="utf-8"?>
<!-- Generator: Adobe Illustrator 16.0.0, SVG Export Plug-In . SVG Version: 6.00 Build 0)  -->
<!DOCTYPE svg PUBLIC "-//W3C//DTD SVG 1.1//EN" "http://www.w3.org/Graphics/SVG/1.1/DTD/svg11.dtd">
<svg preserveAspectRatio="none" version="1.1" id="图层_1" xmlns="http://www.w3.org/2000/svg" xmlns:xlink="http://www.w3.org/1999/xlink" x="0px" y="0px"
	 width="340.5px" height="437.598px" viewBox="30 -34.938 340.5 437.598" enable-background="new 30 -34.938 340.5 437.598"
	 xml:space="preserve">
<g id="surface911">
	
		<linearGradient id="SVGID_1_" gradientUnits="userSpaceOnUse" x1="35.0444" y1="34.7798" x2="14.6128" y2="34.7798" gradientTransform="matrix(0.75 0 0 -0.75 298.4077 294.8633)">
		<stop  offset="0" style="stop-color:#BDA47F"/>
		<stop  offset="0.15" style="stop-color:#FFE0B3"/>
		<stop  offset="0.25" style="stop-color:#FFEED7"/>
		<stop  offset="0.52" style="stop-color:#DFC297"/>
		<stop  offset="0.69" style="stop-color:#C7AD86"/>
		<stop  offset="0.8" style="stop-color:#BCA37E"/>
		<stop  offset="0.92" style="stop-color:#B19A77"/>
		<stop  offset="1" style="stop-color:#CBB189"/>
	</linearGradient>
	<path fill="url(#SVGID_1_)" d="M311.617,134.898h10.5c1.5,0,2.574,1.012,2.574,2.258l-0.324,263.242c0,1.5-0.691,2.262-1.945,2.262
		l-10.805-0.012c-1.5,0-2.25-1-2.25-2.25v-263.25c0-1.5,1.016-2.25,2.27-2.25H311.617z"/>
	
		<linearGradient id="SVGID_2_" gradientUnits="userSpaceOnUse" x1="35.0444" y1="34.7798" x2="14.6118" y2="34.7798" gradientTransform="matrix(0.75 0 0 -0.75 64.4858 294.8633)">
		<stop  offset="0" style="stop-color:#BDA47F"/>
		<stop  offset="0.15" style="stop-color:#FFE0B3"/>
		<stop  offset="0.25" style="stop-color:#FFEED7"/>
		<stop  offset="0.52" style="stop-color:#DFC297"/>
		<stop  offset="0.69" style="stop-color:#C7AD86"/>
		<stop  offset="0.8" style="stop-color:#BCA37E"/>
		<stop  offset="0.92" style="stop-color:#B19A77"/>
		<stop  offset="1" style="stop-color:#CBB189"/>
	</linearGradient>
	<path fill="url(#SVGID_2_)" d="M77.695,134.898h10.5c1.5,0,2.574,1.012,2.574,2.258l-0.324,263.242c0,1.5-0.691,2.262-1.945,2.262
		l-10.805-0.012c-1.5,0-2.25-1-2.25-2.25v-263.25c0-1.5,1.016-2.25,2.27-2.25H77.695z"/>
	
		<linearGradient id="SVGID_3_" gradientUnits="userSpaceOnUse" x1="468.6123" y1="-12.6714" x2="14.6123" y2="-12.6714" gradientTransform="matrix(0.75 0 0 -0.75 19.04 125.0273)">
		<stop  offset="0" style="stop-color:#BDA47F"/>
		<stop  offset="0.15" style="stop-color:#FFE0B3"/>
		<stop  offset="0.25" style="stop-color:#FFEED7"/>
		<stop  offset="0.52" style="stop-color:#DFC297"/>
		<stop  offset="0.69" style="stop-color:#C7AD86"/>
		<stop  offset="0.8" style="stop-color:#BCA37E"/>
		<stop  offset="0.92" style="stop-color:#B19A77"/>
		<stop  offset="1" style="stop-color:#CBB189"/>
	</linearGradient>
	<path fill="url(#SVGID_3_)" d="M30,134.563c0-93.75,76.223-169.5,170.25-169.5c93.75,0,170.25,75.863,170.25,169.469
		C370.5,228.313,294.277,304,200.25,304C106.5,304.063,30,228.117,30,134.531V134.563z"/>
	
		<linearGradient id="SVGID_4_" gradientUnits="userSpaceOnUse" x1="463.6104" y1="208.7822" x2="14.6104" y2="208.7822" gradientTransform="matrix(0.75 0 0 -0.75 20.9868 291.2383)">
		<stop  offset="0" style="stop-color:#AD976F"/>
		<stop  offset="0.15" style="stop-color:#EBD0A1"/>
		<stop  offset="0.25" style="stop-color:#F4E5CF"/>
		<stop  offset="0.52" style="stop-color:#CDB384"/>
		<stop  offset="0.69" style="stop-color:#B69F75"/>
		<stop  offset="0.8" style="stop-color:#AC966E"/>
		<stop  offset="0.92" style="stop-color:#A28E68"/>
		<stop  offset="1" style="stop-color:#BAA378"/>
	</linearGradient>
	<path fill="url(#SVGID_4_)" d="M34.195,131.273h332.25c1.5,0,2.109,1,2.109,2.25l0.141,2.25c0,1.5-1.09,2.27-2.227,2.27
		l-332.273-0.02c-1.5,0-2.25-0.992-2.25-2.242v-2.258c0-1.5,0.902-2.262,2.039-2.262L34.195,131.273z"/>
	
		<linearGradient id="SVGID_5_" gradientUnits="userSpaceOnUse" x1="449.0938" y1="208.7822" x2="14.6143" y2="208.7822" gradientTransform="matrix(0.75 0 0 -0.75 26.3589 246.2676)">
		<stop  offset="0" style="stop-color:#AD976F"/>
		<stop  offset="0.15" style="stop-color:#EBD0A1"/>
		<stop  offset="0.25" style="stop-color:#F4E5CF"/>
		<stop  offset="0.52" style="stop-color:#CDB384"/>
		<stop  offset="0.69" style="stop-color:#B69F75"/>
		<stop  offset="0.8" style="stop-color:#AC966E"/>
		<stop  offset="0.92" style="stop-color:#A28E68"/>
		<stop  offset="1" style="stop-color:#BAA378"/>
	</linearGradient>
	<path fill="url(#SVGID_5_)" d="M39.57,86.301h321.75c0.75,0,1.859,1.004,1.859,2.25l-0.359,2.25c0,1.5-0.559,2.27-1.656,2.27
		L39.57,93.051c-1.5,0-2.25-0.992-2.25-2.238v-2.262c0-1.5,0.871-2.258,1.969-2.258L39.57,86.301z"/>
	
		<linearGradient id="SVGID_6_" gradientUnits="userSpaceOnUse" x1="449.0938" y1="208.7822" x2="14.6143" y2="208.7822" gradientTransform="matrix(0.75 0 0 -0.75 26.3589 336.209)">
		<stop  offset="0" style="stop-color:#AD976F"/>
		<stop  offset="0.15" style="stop-color:#EBD0A1"/>
		<stop  offset="0.25" style="stop-color:#F4E5CF"/>
		<stop  offset="0.52" style="stop-color:#CDB384"/>
		<stop  offset="0.69" style="stop-color:#B69F75"/>
		<stop  offset="0.8" style="stop-color:#AC966E"/>
		<stop  offset="0.92" style="stop-color:#A28E68"/>
		<stop  offset="1" style="stop-color:#BAA378"/>
	</linearGradient>
	<path fill="url(#SVGID_6_)" d="M39.57,176.242h321.75c0.75,0,1.859,1.004,1.859,2.25l-0.359,2.25c0,1.5-0.559,2.27-1.656,2.27
		l-321.594-0.02c-1.5,0-2.25-0.992-2.25-2.238v-2.262c0-1.5,0.871-2.258,1.969-2.258L39.57,176.242z"/>
	
		<linearGradient id="SVGID_7_" gradientUnits="userSpaceOnUse" x1="399.6123" y1="208.7832" x2="14.6123" y2="208.7832" gradientTransform="matrix(0.75 0 0 -0.75 45.0132 201.2949)">
		<stop  offset="0" style="stop-color:#AD976F"/>
		<stop  offset="0.15" style="stop-color:#EBD0A1"/>
		<stop  offset="0.25" style="stop-color:#F4E5CF"/>
		<stop  offset="0.52" style="stop-color:#CDB384"/>
		<stop  offset="0.69" style="stop-color:#B69F75"/>
		<stop  offset="0.8" style="stop-color:#AC966E"/>
		<stop  offset="0.92" style="stop-color:#A28E68"/>
		<stop  offset="1" style="stop-color:#BAA378"/>
	</linearGradient>
	<path fill="url(#SVGID_7_)" d="M57.473,41.332h285c1.5,0,2.055,1,2.055,2.246l0.195,2.254c0,1.5-1.008,2.266-1.98,2.266
		l-285.27-0.016c-0.75,0-1.5-0.996-1.5-2.242v-2.258c0-1.5,0.773-2.262,1.746-2.262L57.473,41.332z"/>
	
		<linearGradient id="SVGID_8_" gradientUnits="userSpaceOnUse" x1="399.6123" y1="208.7822" x2="14.6123" y2="208.7822" gradientTransform="matrix(0.75 0 0 -0.75 45.0132 381.1816)">
		<stop  offset="0" style="stop-color:#AD976F"/>
		<stop  offset="0.15" style="stop-color:#EBD0A1"/>
		<stop  offset="0.25" style="stop-color:#F4E5CF"/>
		<stop  offset="0.52" style="stop-color:#CDB384"/>
		<stop  offset="0.69" style="stop-color:#B69F75"/>
		<stop  offset="0.8" style="stop-color:#AC966E"/>
		<stop  offset="0.92" style="stop-color:#A28E68"/>
		<stop  offset="1" style="stop-color:#BAA378"/>
	</linearGradient>
	<path fill="url(#SVGID_8_)" d="M57.473,221.215h285c1.5,0,2.055,1.004,2.055,2.25l0.195,2.25c0,1.5-1.008,2.27-1.98,2.27
		l-285.27-0.02c-0.75,0-1.5-0.992-1.5-2.238v-2.262c0-1.5,0.773-2.258,1.746-2.258L57.473,221.215z"/>
	
		<linearGradient id="SVGID_9_" gradientUnits="userSpaceOnUse" x1="282.6104" y1="208.7832" x2="14.6108" y2="208.7832" gradientTransform="matrix(0.75 0 0 -0.75 88.8657 156.3242)">
		<stop  offset="0" style="stop-color:#AD976F"/>
		<stop  offset="0.15" style="stop-color:#EBD0A1"/>
		<stop  offset="0.25" style="stop-color:#F4E5CF"/>
		<stop  offset="0.52" style="stop-color:#CDB384"/>
		<stop  offset="0.69" style="stop-color:#B69F75"/>
		<stop  offset="0.8" style="stop-color:#AC966E"/>
		<stop  offset="0.92" style="stop-color:#A28E68"/>
		<stop  offset="1" style="stop-color:#BAA378"/>
	</linearGradient>
	<path fill="url(#SVGID_9_)" d="M101.324-3.641h198c0.75,0,1.352,1,1.352,2.25l0.148,2.25c0,1.5-0.715,2.27-1.395,2.27
		l-198.105-0.02c-0.75,0-1.5-0.992-1.5-2.242v-2.258c0-1.5,0.539-2.262,1.215-2.262L101.324-3.641z"/>
	
		<linearGradient id="SVGID_10_" gradientUnits="userSpaceOnUse" x1="277.6152" y1="208.7822" x2="14.6152" y2="208.7822" gradientTransform="matrix(0.75 0 0 -0.75 90.7256 425.3555)">
		<stop  offset="0" style="stop-color:#AD976F"/>
		<stop  offset="0.15" style="stop-color:#EBD0A1"/>
		<stop  offset="0.25" style="stop-color:#F4E5CF"/>
		<stop  offset="0.52" style="stop-color:#CDB384"/>
		<stop  offset="0.69" style="stop-color:#B69F75"/>
		<stop  offset="0.8" style="stop-color:#AC966E"/>
		<stop  offset="0.92" style="stop-color:#A28E68"/>
		<stop  offset="1" style="stop-color:#BAA378"/>
	</linearGradient>
	<path fill="url(#SVGID_10_)" d="M103.188,265.391h194.25c0.75,0,1.375,1,1.375,2.25l0.125,2.25c0,1.5-0.68,2.27-1.344,2.27
		l-194.406-0.02c-0.75,0-1.5-0.992-1.5-2.242v-2.258c0-1.5,0.527-2.262,1.191-2.262L103.188,265.391z"/>
	
		<linearGradient id="SVGID_11_" gradientUnits="userSpaceOnUse" x1="35.043" y1="34.7798" x2="14.6113" y2="34.7798" gradientTransform="matrix(0.75 0 0 -0.75 41.8618 294.8633)">
		<stop  offset="0" style="stop-color:#BDA47F"/>
		<stop  offset="0.15" style="stop-color:#FFE0B3"/>
		<stop  offset="0.25" style="stop-color:#FFEED7"/>
		<stop  offset="0.52" style="stop-color:#DFC297"/>
		<stop  offset="0.69" style="stop-color:#C7AD86"/>
		<stop  offset="0.8" style="stop-color:#BCA37E"/>
		<stop  offset="0.92" style="stop-color:#B19A77"/>
		<stop  offset="1" style="stop-color:#CBB189"/>
	</linearGradient>
	<path fill="url(#SVGID_11_)" d="M55.07,134.898h10.5c1.5,0,2.574,1.012,2.574,2.258L67.82,400.398c0,1.5-0.691,2.262-1.945,2.262
		l-10.805-0.012c-1.5,0-2.25-1-2.25-2.25v-263.25c0-1.5,1.02-2.25,2.273-2.25H55.07z"/>
	
		<linearGradient id="SVGID_12_" gradientUnits="userSpaceOnUse" x1="35.0474" y1="34.7798" x2="14.6147" y2="34.7798" gradientTransform="matrix(0.75 0 0 -0.75 321.0308 294.8633)">
		<stop  offset="0" style="stop-color:#BDA47F"/>
		<stop  offset="0.15" style="stop-color:#FFE0B3"/>
		<stop  offset="0.25" style="stop-color:#FFEED7"/>
		<stop  offset="0.52" style="stop-color:#DFC297"/>
		<stop  offset="0.69" style="stop-color:#C7AD86"/>
		<stop  offset="0.8" style="stop-color:#BCA37E"/>
		<stop  offset="0.92" style="stop-color:#B19A77"/>
		<stop  offset="1" style="stop-color:#CBB189"/>
	</linearGradient>
	<path fill="url(#SVGID_12_)" d="M334.242,134.898h10.5c1.5,0,2.574,1.012,2.574,2.258l-0.324,263.242
		c0,1.5-0.695,2.262-1.949,2.262l-10.801-0.012c-1.5,0-2.25-1-2.25-2.25v-263.25c0-1.5,1.016-2.25,2.27-2.25H334.242z"/>
</g>
</svg>
