<?xml version="1.0" encoding="utf-8"?>
<!-- Generator: Adobe Illustrator 16.0.0, SVG Export Plug-In . SVG Version: 6.00 Build 0)  -->
<!DOCTYPE svg PUBLIC "-//W3C//DTD SVG 1.1//EN" "http://www.w3.org/Graphics/SVG/1.1/DTD/svg11.dtd">
<svg preserveAspectRatio="none" version="1.1" id="图层_1" xmlns="http://www.w3.org/2000/svg" xmlns:xlink="http://www.w3.org/1999/xlink" x="0px" y="0px"
	 width="340.602px" height="224.044px" viewBox="30 29.44 340.602 224.044" enable-background="new 30 29.44 340.602 224.044"
	 xml:space="preserve">
<g id="surface926">
	
		<linearGradient id="SVGID_1_" gradientUnits="userSpaceOnUse" x1="199.6118" y1="213.2871" x2="199.6118" y2="9.2871" gradientTransform="matrix(0.75 0 0 -0.75 82.1431 219.0664)">
		<stop  offset="0" style="stop-color:#A7B1B4"/>
		<stop  offset="0.15" style="stop-color:#DCE9EC"/>
		<stop  offset="0.25" style="stop-color:#ECF2F4"/>
		<stop  offset="0.44" style="stop-color:#BFCACE"/>
		<stop  offset="0.6" style="stop-color:#AAB4B7"/>
		<stop  offset="0.8" style="stop-color:#8F979A"/>
		<stop  offset="0.97" style="stop-color:#828A8D"/>
		<stop  offset="1" style="stop-color:#AEB8BB"/>
	</linearGradient>
	<path fill="url(#SVGID_1_)" d="M94.602,59.102h276v153h-276c-0.75,0-1.5-0.922-1.5-1.816V60.602c0-0.75,0.73-1.5,1.629-1.5H94.602z
		"/>
	
		<linearGradient id="SVGID_2_" gradientUnits="userSpaceOnUse" x1="25.3198" y1="640.2959" x2="-52.3138" y2="732.816" gradientTransform="matrix(0 0.75 0.75 0 -461.7422 212.1646)">
		<stop  offset="0" style="stop-color:#BAC0C1"/>
		<stop  offset="0.15" style="stop-color:#F4FAFC"/>
		<stop  offset="0.25" style="stop-color:#F8FCFD"/>
		<stop  offset="0.44" style="stop-color:#D5DBDD"/>
		<stop  offset="0.6" style="stop-color:#BDC3C4"/>
		<stop  offset="0.8" style="stop-color:#A0A4A6"/>
		<stop  offset="0.97" style="stop-color:#929697"/>
		<stop  offset="1" style="stop-color:#C2C7C9"/>
	</linearGradient>
	<path fill="url(#SVGID_2_)" d="M67.844,158.324c0,0-2.582,17.926,6.387,53.617c8.613,33.383-25.18,53.629-40.891,8.195
		c0.004-0.313-8.23-38.734,8.977-61.813H67.844z"/>
	
		<linearGradient id="SVGID_3_" gradientUnits="userSpaceOnUse" x1="44.1992" y1="213.2881" x2="44.1992" y2="152.2676" gradientTransform="matrix(0.75 0 0 -0.75 25.5537 272.6025)">
		<stop  offset="0" style="stop-color:#A7B1B4"/>
		<stop  offset="0.15" style="stop-color:#DCE9EC"/>
		<stop  offset="0.25" style="stop-color:#ECF2F4"/>
		<stop  offset="0.44" style="stop-color:#BFCACE"/>
		<stop  offset="0.6" style="stop-color:#AAB4B7"/>
		<stop  offset="0.8" style="stop-color:#8F979A"/>
		<stop  offset="0.97" style="stop-color:#828A8D"/>
		<stop  offset="1" style="stop-color:#AEB8BB"/>
	</linearGradient>
	<path fill="url(#SVGID_3_)" d="M36.516,112.637h42.75c0.75,0,1.625,0.727,1.625,1.621l-0.125,42.629
		c0,0.75-0.605,1.516-1.504,1.516l-42.746-0.016V112.637z"/>
	
		<linearGradient id="SVGID_4_" gradientUnits="userSpaceOnUse" x1="-449.2334" y1="54.0757" x2="-416.519" y2="143.9579" gradientTransform="matrix(0 -0.75 -0.75 0 126.4941 -248.5215)">
		<stop  offset="0" style="stop-color:#BAC0C1"/>
		<stop  offset="0.15" style="stop-color:#F4FAFC"/>
		<stop  offset="0.25" style="stop-color:#F8FCFD"/>
		<stop  offset="0.44" style="stop-color:#D5DBDD"/>
		<stop  offset="0.6" style="stop-color:#BDC3C4"/>
		<stop  offset="0.8" style="stop-color:#A0A4A6"/>
		<stop  offset="0.97" style="stop-color:#929697"/>
		<stop  offset="1" style="stop-color:#C2C7C9"/>
	</linearGradient>
	<path fill="url(#SVGID_4_)" d="M38.828,117.637c0,0,2.582-17.922-6.387-53.617c-8.613-33.383,25.18-53.629,40.891-8.191
		c-0.004,0.309,8.23,38.73-8.977,61.809H38.828z"/>
	
		<linearGradient id="SVGID_5_" gradientUnits="userSpaceOnUse" x1="19.1011" y1="213.2852" x2="19.1011" y2="152.3369" gradientTransform="matrix(0.75 0 0 -0.75 19.04 272.627)">
		<stop  offset="0" style="stop-color:#92A5A8"/>
		<stop  offset="0.15" style="stop-color:#C4DADE"/>
		<stop  offset="0.25" style="stop-color:#DFEAED"/>
		<stop  offset="0.44" style="stop-color:#A7BCC0"/>
		<stop  offset="0.6" style="stop-color:#94A7AB"/>
		<stop  offset="0.8" style="stop-color:#7C8D90"/>
		<stop  offset="0.97" style="stop-color:#728084"/>
		<stop  offset="1" style="stop-color:#98ABAF"/>
	</linearGradient>
	<path fill="url(#SVGID_5_)" d="M30,135.164c0-12,3.008-22.5,6.719-22.5c0.031,0,0,45.711,0,45.711C33,158.414,30,148.105,30,135.52
		V135.164z"/>
	
		<linearGradient id="SVGID_6_" gradientUnits="userSpaceOnUse" x1="17.6118" y1="213.2861" x2="17.6118" y2="152.2656" gradientTransform="matrix(0.75 0 0 -0.75 64.8892 272.6016)">
		<stop  offset="0" style="stop-color:#92A5A8"/>
		<stop  offset="0.15" style="stop-color:#C4DADE"/>
		<stop  offset="0.25" style="stop-color:#DFEAED"/>
		<stop  offset="0.44" style="stop-color:#A7BCC0"/>
		<stop  offset="0.6" style="stop-color:#94A7AB"/>
		<stop  offset="0.8" style="stop-color:#7C8D90"/>
		<stop  offset="0.97" style="stop-color:#728084"/>
		<stop  offset="1" style="stop-color:#98ABAF"/>
	</linearGradient>
	<path fill="url(#SVGID_6_)" d="M75.848,112.637h3.75c0.75,0,0.477,0.727,0.477,1.621l0.273,42.629c0,0.75-0.344,1.516-0.426,1.516
		l-4.074-0.016V112.637z"/>
	
		<linearGradient id="SVGID_7_" gradientUnits="userSpaceOnUse" x1="24.6157" y1="213.2852" x2="24.6157" y2="141.2852" gradientTransform="matrix(0.75 0 0 -0.75 67.8936 268.7295)">
		<stop  offset="0" style="stop-color:#A7B1B4"/>
		<stop  offset="0.15" style="stop-color:#DCE9EC"/>
		<stop  offset="0.25" style="stop-color:#ECF2F4"/>
		<stop  offset="0.44" style="stop-color:#BFCACE"/>
		<stop  offset="0.6" style="stop-color:#AAB4B7"/>
		<stop  offset="0.8" style="stop-color:#8F979A"/>
		<stop  offset="0.97" style="stop-color:#828A8D"/>
		<stop  offset="1" style="stop-color:#AEB8BB"/>
	</linearGradient>
	<path fill="url(#SVGID_7_)" d="M80.355,108.766h13.5v54h-13.5c-0.75,0-1.5-0.863-1.5-1.758v-50.742c0-0.75,0.727-1.5,1.625-1.5
		H80.355z"/>
	
		<linearGradient id="SVGID_8_" gradientUnits="userSpaceOnUse" x1="39.314" y1="213.2871" x2="39.314" y2="9.2871" gradientTransform="matrix(0.75 0 0 -0.75 203.1318 219.0664)">
		<stop  offset="0" style="stop-color:#92A5A8"/>
		<stop  offset="0.15" style="stop-color:#C4DADE"/>
		<stop  offset="0.25" style="stop-color:#DFEAED"/>
		<stop  offset="0.44" style="stop-color:#A7BCC0"/>
		<stop  offset="0.6" style="stop-color:#94A7AB"/>
		<stop  offset="0.8" style="stop-color:#7C8D90"/>
		<stop  offset="0.97" style="stop-color:#728084"/>
		<stop  offset="1" style="stop-color:#98ABAF"/>
	</linearGradient>
	<path fill="url(#SVGID_8_)" d="M214.094,59.102h36.75c0,0,0.297,0.707,0.297,1.602l-0.297,149.898c0,0.75,0.195,1.336,0.078,1.336
		l-36.828,0.164c0,0,0-0.922,0-1.816V60.602c0-0.75,0.094-1.5,0.215-1.5H214.094z"/>
	
		<linearGradient id="SVGID_9_" gradientUnits="userSpaceOnUse" x1="35.5894" y1="213.29" x2="35.5893" y2="3.29" gradientTransform="matrix(0.75 0 0 -0.75 205.9307 216.916)">
		<stop  offset="0" style="stop-color:#A7B1B4"/>
		<stop  offset="0.15" style="stop-color:#DCE9EC"/>
		<stop  offset="0.25" style="stop-color:#ECF2F4"/>
		<stop  offset="0.44" style="stop-color:#BFCACE"/>
		<stop  offset="0.6" style="stop-color:#AAB4B7"/>
		<stop  offset="0.8" style="stop-color:#8F979A"/>
		<stop  offset="0.97" style="stop-color:#828A8D"/>
		<stop  offset="1" style="stop-color:#AEB8BB"/>
	</linearGradient>
	<path fill="url(#SVGID_9_)" d="M218.391,56.949h28.5c0.75,0,1.449,0.691,1.449,1.586l0.051,153.664c0,1.5-0.781,1.891-1.68,1.891
		l-28.32,0.359c-0.75,0-1.535-1.121-1.535-2.016l0.035-153.984c0-0.75,0.695-1.5,1.594-1.5H218.391z"/>
	
		<linearGradient id="SVGID_10_" gradientUnits="userSpaceOnUse" x1="79.751" y1="184.2842" x2="14.6152" y2="184.2842" gradientTransform="matrix(0.75 0 0 -0.75 99.2412 367.752)">
		<stop  offset="0" style="stop-color:#3D3B3B"/>
		<stop  offset="0.01" style="stop-color:#908F8F"/>
		<stop  offset="0.05" style="stop-color:#514F4F"/>
		<stop  offset="0.9" style="stop-color:#504E4E"/>
		<stop  offset="0.95" style="stop-color:#4E4C4C"/>
		<stop  offset="1" style="stop-color:#383636"/>
	</linearGradient>
	<path fill="url(#SVGID_10_)" d="M111.703,207.789h45.75c0.75,0,1.602,0.832,1.602,1.863l-0.102,39.387
		c0,1.5-0.629,2.074-1.527,2.074l-45.723,0.176c-0.75,0-1.5-1.008-1.5-2.039v-39.961c0-0.75,0.727-1.5,1.625-1.5H111.703z"/>
	
		<linearGradient id="SVGID_11_" gradientUnits="userSpaceOnUse" x1="79.7515" y1="184.2842" x2="14.6108" y2="184.2842" gradientTransform="matrix(0.75 0 0 -0.75 296.2603 367.752)">
		<stop  offset="0" style="stop-color:#3D3B3B"/>
		<stop  offset="0.01" style="stop-color:#908F8F"/>
		<stop  offset="0.05" style="stop-color:#514F4F"/>
		<stop  offset="0.9" style="stop-color:#504E4E"/>
		<stop  offset="0.95" style="stop-color:#4E4C4C"/>
		<stop  offset="1" style="stop-color:#383636"/>
	</linearGradient>
	<path fill="url(#SVGID_11_)" d="M308.719,207.789h45.75c0.75,0,1.605,0.832,1.605,1.863l-0.105,39.387
		c0,1.5-0.625,2.074-1.523,2.074l-45.727,0.176c-0.75,0-1.5-1.008-1.5-2.039v-39.961c0-0.75,0.73-1.5,1.629-1.5H308.719z"/>
	
		<linearGradient id="SVGID_12_" gradientUnits="userSpaceOnUse" x1="53.3579" y1="213.2861" x2="53.3579" y2="205.0049" gradientTransform="matrix(0.75 0 0 -0.75 94.6104 407.2383)">
		<stop  offset="0" style="stop-color:#3D3B3B"/>
		<stop  offset="0.01" style="stop-color:#908F8F"/>
		<stop  offset="0.05" style="stop-color:#514F4F"/>
		<stop  offset="0.9" style="stop-color:#504E4E"/>
		<stop  offset="0.95" style="stop-color:#4E4C4C"/>
		<stop  offset="1" style="stop-color:#383636"/>
	</linearGradient>
	<path fill="url(#SVGID_12_)" d="M107.07,247.273h54.75c0.75,0,1.867,0.727,1.867,1.621l-0.367,2.879
		c0,0.75-0.398,1.711-1.297,1.711l-54.953-0.211c-0.75,0-1.5-0.516-1.5-1.41v-3.09c0-0.75,0.73-1.5,1.629-1.5H107.07z"/>
	
		<linearGradient id="SVGID_13_" gradientUnits="userSpaceOnUse" x1="53.356" y1="213.2861" x2="53.356" y2="205.0049" gradientTransform="matrix(0.75 0 0 -0.75 291.6294 407.2383)">
		<stop  offset="0" style="stop-color:#3D3B3B"/>
		<stop  offset="0.01" style="stop-color:#908F8F"/>
		<stop  offset="0.05" style="stop-color:#514F4F"/>
		<stop  offset="0.9" style="stop-color:#504E4E"/>
		<stop  offset="0.95" style="stop-color:#4E4C4C"/>
		<stop  offset="1" style="stop-color:#383636"/>
	</linearGradient>
	<path fill="url(#SVGID_13_)" d="M304.09,247.273h54.75c0.75,0,1.863,0.727,1.863,1.621l-0.363,2.879
		c0,0.75-0.398,1.711-1.297,1.711l-54.953-0.211c-0.75,0-1.5-0.516-1.5-1.41v-3.09c0-0.75,0.727-1.5,1.629-1.5H304.09z"/>
</g>
</svg>
