<?xml version="1.0" encoding="utf-8"?>
<!-- Generator: Adobe Illustrator 16.0.0, SVG Export Plug-In . SVG Version: 6.00 Build 0)  -->
<!DOCTYPE svg PUBLIC "-//W3C//DTD SVG 1.1//EN" "http://www.w3.org/Graphics/SVG/1.1/DTD/svg11.dtd">
<svg preserveAspectRatio="none" version="1.1" id="图层_1" xmlns="http://www.w3.org/2000/svg" xmlns:xlink="http://www.w3.org/1999/xlink" x="0px" y="0px"
	 width="340.5px" height="327.93px" viewBox="30 -22.371 340.5 327.93" enable-background="new 30 -22.371 340.5 327.93"
	 xml:space="preserve">
<g id="surface1091">
	
		<linearGradient id="SVGID_1_" gradientUnits="userSpaceOnUse" x1="21.6118" y1="187.7861" x2="14.6118" y2="187.7861" gradientTransform="matrix(0.75 0 0 -0.75 186.5293 137.5928)">
		<stop  offset="0" style="stop-color:#BDBDBD"/>
		<stop  offset="0.15" style="stop-color:#FFFFFF"/>
		<stop  offset="0.25" style="stop-color:#FFFFFF"/>
		<stop  offset="0.52" style="stop-color:#DFDFDF"/>
		<stop  offset="0.69" style="stop-color:#C7C7C7"/>
		<stop  offset="0.8" style="stop-color:#BCBCBC"/>
		<stop  offset="0.92" style="stop-color:#B1B1B1"/>
		<stop  offset="1" style="stop-color:#CBCBCB"/>
	</linearGradient>
	<path fill="url(#SVGID_1_)" d="M197.488,15.879h5.25v-38.25h-5.25V15.879z"/>
	
		<linearGradient id="SVGID_2_" gradientUnits="userSpaceOnUse" x1="100.6113" y1="206.2881" x2="14.6113" y2="206.2881" gradientTransform="matrix(0.75 0 0 -0.75 157.0806 174.0078)">
		<stop  offset="0" style="stop-color:#747575"/>
		<stop  offset="0.15" style="stop-color:#A6A7A7"/>
		<stop  offset="0.25" style="stop-color:#D1D1D1"/>
		<stop  offset="0.52" style="stop-color:#8A8B8B"/>
		<stop  offset="0.69" style="stop-color:#7A7B7B"/>
		<stop  offset="0.8" style="stop-color:#737474"/>
		<stop  offset="0.92" style="stop-color:#6C6D6D"/>
		<stop  offset="1" style="stop-color:#7D7E7E"/>
	</linearGradient>
	<path fill="url(#SVGID_2_)" d="M168.039,24.543h64.5v-10.5h-64.5V24.543z"/>
	
		<linearGradient id="SVGID_3_" gradientUnits="userSpaceOnUse" x1="14.6128" y1="192.7871" x2="67.6128" y2="192.7871" gradientTransform="matrix(0.75 0 0 -0.75 25.4819 434.7734)">
		<stop  offset="0" style="stop-color:#4E4D4D"/>
		<stop  offset="0.01" style="stop-color:#9C9B9B"/>
		<stop  offset="0.05" style="stop-color:#686767"/>
		<stop  offset="0.9" style="stop-color:#666565"/>
		<stop  offset="0.95" style="stop-color:#636262"/>
		<stop  offset="1" style="stop-color:#484747"/>
	</linearGradient>
	<path fill="url(#SVGID_3_)" d="M36.441,274.809h39.75l-22.5,30.75h-17.25V274.809z"/>
	
		<linearGradient id="SVGID_4_" gradientUnits="userSpaceOnUse" x1="-574.6123" y1="192.7871" x2="-521.6123" y2="192.7871" gradientTransform="matrix(-0.75 0 0 -0.75 -67.8223 434.7734)">
		<stop  offset="0" style="stop-color:#4E4D4D"/>
		<stop  offset="0.01" style="stop-color:#9C9B9B"/>
		<stop  offset="0.05" style="stop-color:#686767"/>
		<stop  offset="0.9" style="stop-color:#666565"/>
		<stop  offset="0.95" style="stop-color:#636262"/>
		<stop  offset="1" style="stop-color:#484747"/>
	</linearGradient>
	<path fill="url(#SVGID_4_)" d="M363.137,274.809h-39.75l22.5,30.75h17.25V274.809z"/>
	
		<linearGradient id="SVGID_5_" gradientUnits="userSpaceOnUse" x1="14.6133" y1="65.7842" x2="468.6133" y2="65.7842" gradientTransform="matrix(0.75 0 0 -0.75 19.04 191.4941)">
		<stop  offset="0" style="stop-color:#9B9B9C"/>
		<stop  offset="0.01" style="stop-color:#E4E4E4"/>
		<stop  offset="0.02" style="stop-color:#CBCBCB"/>
		<stop  offset="0.9" style="stop-color:#C7C7C8"/>
		<stop  offset="0.99" style="stop-color:#C3C3C4"/>
		<stop  offset="1" style="stop-color:#909091"/>
	</linearGradient>
	<path fill="url(#SVGID_5_)" d="M30,31.531h340.5v221.25H30V31.531z"/>
	
		<linearGradient id="SVGID_6_" gradientUnits="userSpaceOnUse" x1="241.6123" y1="213.2861" x2="241.6123" y2="183.2861" gradientTransform="matrix(0.75 0 0 -0.75 19.04 412.4531)">
		<stop  offset="0" style="stop-color:#7E7F7F"/>
		<stop  offset="0.01" style="stop-color:#C6C7C7"/>
		<stop  offset="0.05" style="stop-color:#A6A6A6"/>
		<stop  offset="0.9" style="stop-color:#A3A4A4"/>
		<stop  offset="0.95" style="stop-color:#9FA0A0"/>
		<stop  offset="1" style="stop-color:#757676"/>
	</linearGradient>
	<path fill="url(#SVGID_6_)" d="M30,252.488h340.5v22.5H30V252.488z"/>
	
		<linearGradient id="SVGID_7_" gradientUnits="userSpaceOnUse" x1="241.6123" y1="213.2832" x2="241.6123" y2="201.2832" gradientTransform="matrix(0.75 0 0 -0.75 19.04 182.8535)">
		<stop  offset="0" style="stop-color:#7E7F7F"/>
		<stop  offset="0.01" style="stop-color:#C6C7C7"/>
		<stop  offset="0.05" style="stop-color:#A6A6A6"/>
		<stop  offset="0.9" style="stop-color:#A3A4A4"/>
		<stop  offset="0.95" style="stop-color:#9FA0A0"/>
		<stop  offset="1" style="stop-color:#757676"/>
	</linearGradient>
	<path fill="url(#SVGID_7_)" d="M30,22.891h340.5v9H30V22.891z"/>
	
		<radialGradient id="SVGID_8_" cx="30.2324" cy="614.0039" r="22.1499" gradientTransform="matrix(0.75 0 0 0.75 125.0859 -390.6206)" gradientUnits="userSpaceOnUse">
		<stop  offset="0" style="stop-color:#848485"/>
		<stop  offset="0.54" style="stop-color:#828283"/>
		<stop  offset="0.74" style="stop-color:#EFEFEF"/>
		<stop  offset="0.91" style="stop-color:#828283"/>
		<stop  offset="1" style="stop-color:#828283"/>
	</radialGradient>
	<path fill="url(#SVGID_8_)" stroke="#CDCECE" stroke-width="0.25" stroke-linejoin="bevel" stroke-miterlimit="10" d="
		M136.047,69.664c0,6.75,5.242,12,11.727,12c6.273,0,11.699-5.262,11.699-11.781c-0.176-6.219-5.246-11.781-11.699-11.781
		c-6.477,0.313-11.727,5.277-11.727,11.781V69.664z"/>
	<path fill="#888889" d="M137.711,70.242c0,5.25,4.5,9.75,10.063,9.75c5.688,0,10.035-4.516,10.035-10.109
		c0.152-5.641-4.5-10.109-10.035-10.109c-5.563-0.031-10.063,4.531-10.063,10.109V70.242z"/>
	
		<linearGradient id="SVGID_9_" gradientUnits="userSpaceOnUse" x1="42.6797" y1="608.0156" x2="12.2346" y2="625.5931" gradientTransform="matrix(0.75 0 0 0.75 127.1748 -392.7173)">
		<stop  offset="0" style="stop-color:#676768"/>
		<stop  offset="0.15" style="stop-color:#939394"/>
		<stop  offset="0.25" style="stop-color:#AFAFAF"/>
		<stop  offset="0.44" style="stop-color:#767677"/>
		<stop  offset="0.6" style="stop-color:#696969"/>
		<stop  offset="0.8" style="stop-color:#575758"/>
		<stop  offset="0.97" style="stop-color:#4F4F50"/>
		<stop  offset="1" style="stop-color:#6B6B6C"/>
	</linearGradient>
	<path fill="url(#SVGID_9_)" d="M138.137,69.816c0,5.25,4.309,9.75,9.637,9.75c5.363,0,9.613-4.324,9.613-9.684
		c0.25-5.316-4.309-9.684-9.613-9.684c-5.137-0.133-9.637,4.34-9.637,9.684V69.816z"/>
	
		<linearGradient id="SVGID_10_" gradientUnits="userSpaceOnUse" x1="19.6875" y1="616.7422" x2="14.5938" y2="616.7422" gradientTransform="matrix(0.75 0 0 0.75 134.8936 -392.7861)">
		<stop  offset="0" style="stop-color:#676768"/>
		<stop  offset="0.15" style="stop-color:#939394"/>
		<stop  offset="0.25" style="stop-color:#C9C9CA"/>
		<stop  offset="0.44" style="stop-color:#767677"/>
		<stop  offset="0.6" style="stop-color:#696969"/>
		<stop  offset="0.8" style="stop-color:#575758"/>
		<stop  offset="0.97" style="stop-color:#4F4F50"/>
		<stop  offset="1" style="stop-color:#6B6B6C"/>
	</linearGradient>
	<path fill="url(#SVGID_10_)" d="M147.355,79.5h0.75c0.75,0,1.555-0.574,1.555-1.336L149.605,61.5c0-0.75-0.555-1.191-1.309-1.191
		L147.355,60c-0.75,0-1.516,0.922-1.516,1.684L145.855,78c0,0.75,0.594,1.539,1.348,1.539L147.355,79.5z"/>
	<path fill="#888889" d="M147.168,77.777h0.75c0,0,0.461-0.094,0.461-0.207l0.289-2.043c0-0.75-0.383-0.535-0.496-0.535
		l-1.004-0.215c0,0,0,0.309,0,0.422V77.777c0,0,0.094,0,0.207,0H147.168z"/>
	
		<linearGradient id="SVGID_11_" gradientUnits="userSpaceOnUse" x1="26.6138" y1="213.2871" x2="26.6138" y2="200.2871" gradientTransform="matrix(0.75 0 0 -0.75 180.3174 157.3438)">
		<stop  offset="0" style="stop-color:#B5B5B5"/>
		<stop  offset="0.01" style="stop-color:#FFFFFF"/>
		<stop  offset="0.05" style="stop-color:#EBEBEB"/>
		<stop  offset="0.9" style="stop-color:#E7E7E7"/>
		<stop  offset="0.95" style="stop-color:#E2E2E2"/>
		<stop  offset="1" style="stop-color:#A8A8A8"/>
	</linearGradient>
	<path fill="url(#SVGID_11_)" d="M191.277,7.129h18v-9.75h-18V7.129z"/>
	
		<linearGradient id="SVGID_12_" gradientUnits="userSpaceOnUse" x1="26.6138" y1="213.2852" x2="26.6138" y2="205.2852" gradientTransform="matrix(0.75 0 0 -0.75 180.3174 159.3662)">
		<stop  offset="0" style="stop-color:#6E6F6F"/>
		<stop  offset="0.01" style="stop-color:#B7B8B8"/>
		<stop  offset="0.05" style="stop-color:#919292"/>
		<stop  offset="0.9" style="stop-color:#8F9090"/>
		<stop  offset="0.95" style="stop-color:#8B8C8C"/>
		<stop  offset="1" style="stop-color:#666767"/>
	</linearGradient>
	<path fill="url(#SVGID_12_)" d="M191.277,5.402h18v-6h-18V5.402z"/>
	
		<linearGradient id="SVGID_13_" gradientUnits="userSpaceOnUse" x1="26.6138" y1="203.2871" x2="14.6138" y2="203.2871" gradientTransform="matrix(0.75 0 0 -0.75 184.9341 159.4326)">
		<stop  offset="0" style="stop-color:#B0B0B0"/>
		<stop  offset="0.15" style="stop-color:#EFEFEF"/>
		<stop  offset="0.25" style="stop-color:#F6F6F6"/>
		<stop  offset="0.52" style="stop-color:#D0D0D0"/>
		<stop  offset="0.69" style="stop-color:#B9B9B9"/>
		<stop  offset="0.8" style="stop-color:#AFAFAF"/>
		<stop  offset="0.92" style="stop-color:#A5A5A5"/>
		<stop  offset="1" style="stop-color:#BEBEBE"/>
	</linearGradient>
	<path fill="url(#SVGID_13_)" d="M195.895,14.469h9v-15h-9V14.469z"/>
	
		<linearGradient id="SVGID_14_" gradientUnits="userSpaceOnUse" x1="22.6108" y1="208.2861" x2="14.6108" y2="208.2861" gradientTransform="matrix(0.75 0 0 -0.75 186.2842 190.3076)">
		<stop  offset="0" style="stop-color:#B0B0B0"/>
		<stop  offset="0.15" style="stop-color:#EFEFEF"/>
		<stop  offset="0.25" style="stop-color:#F6F6F6"/>
		<stop  offset="0.52" style="stop-color:#D0D0D0"/>
		<stop  offset="0.69" style="stop-color:#B9B9B9"/>
		<stop  offset="0.8" style="stop-color:#AFAFAF"/>
		<stop  offset="0.92" style="stop-color:#A5A5A5"/>
		<stop  offset="1" style="stop-color:#BEBEBE"/>
	</linearGradient>
	<path fill="url(#SVGID_14_)" d="M197.242,37.844h6v-7.5h-6V37.844z"/>
	
		<linearGradient id="SVGID_15_" gradientUnits="userSpaceOnUse" x1="27.6118" y1="201.7861" x2="14.6118" y2="201.7861" gradientTransform="matrix(0.75 0 0 -0.75 184.4741 173.7559)">
		<stop  offset="0" style="stop-color:#BDBDBD"/>
		<stop  offset="0.15" style="stop-color:#FFFFFF"/>
		<stop  offset="0.25" style="stop-color:#FFFFFF"/>
		<stop  offset="0.52" style="stop-color:#DFDFDF"/>
		<stop  offset="0.69" style="stop-color:#C7C7C7"/>
		<stop  offset="0.8" style="stop-color:#BCBCBC"/>
		<stop  offset="0.92" style="stop-color:#B1B1B1"/>
		<stop  offset="1" style="stop-color:#CBCBCB"/>
	</linearGradient>
	<path fill="url(#SVGID_15_)" d="M195.434,31.043h9.75v-17.25h-9.75V31.043z"/>
	
		<linearGradient id="SVGID_16_" gradientUnits="userSpaceOnUse" x1="241.6123" y1="213.2871" x2="241.6123" y2="205.2871" gradientTransform="matrix(0.75 0 0 -0.75 19.04 350.083)">
		<stop  offset="0" style="stop-color:#909191"/>
		<stop  offset="0.01" style="stop-color:#D8D9D9"/>
		<stop  offset="0.05" style="stop-color:#BDBEBE"/>
		<stop  offset="0.9" style="stop-color:#BABABA"/>
		<stop  offset="0.95" style="stop-color:#B5B6B6"/>
		<stop  offset="1" style="stop-color:#868787"/>
	</linearGradient>
	<path fill="url(#SVGID_16_)" d="M30,190.117h340.5v6H30V190.117z"/>
	
		<linearGradient id="SVGID_17_" gradientUnits="userSpaceOnUse" x1="37.6108" y1="213.2891" x2="37.6108" y2="205.2891" gradientTransform="matrix(0.75 0 0 -0.75 311.8311 344.2363)">
		<stop  offset="0" style="stop-color:#A8A8A8"/>
		<stop  offset="0.01" style="stop-color:#F2F2F2"/>
		<stop  offset="0.05" style="stop-color:#DBDBDB"/>
		<stop  offset="0.9" style="stop-color:#D8D8D8"/>
		<stop  offset="0.95" style="stop-color:#D3D3D3"/>
		<stop  offset="1" style="stop-color:#9C9C9C"/>
	</linearGradient>
	<path fill="url(#SVGID_17_)" d="M357.289,190.27h-34.5v-6h34.5V190.27z"/>
	
		<linearGradient id="SVGID_18_" gradientUnits="userSpaceOnUse" x1="37.6147" y1="213.2832" x2="37.6147" y2="205.2832" gradientTransform="matrix(0.75 0 0 -0.75 265.1484 344.2324)">
		<stop  offset="0" style="stop-color:#A8A8A8"/>
		<stop  offset="0.01" style="stop-color:#F2F2F2"/>
		<stop  offset="0.05" style="stop-color:#DBDBDB"/>
		<stop  offset="0.9" style="stop-color:#D8D8D8"/>
		<stop  offset="0.95" style="stop-color:#D3D3D3"/>
		<stop  offset="1" style="stop-color:#9C9C9C"/>
	</linearGradient>
	<path fill="url(#SVGID_18_)" d="M310.609,190.27h-34.5v-6h34.5V190.27z"/>
	
		<linearGradient id="SVGID_19_" gradientUnits="userSpaceOnUse" x1="37.6128" y1="213.2891" x2="37.6128" y2="205.2891" gradientTransform="matrix(0.75 0 0 -0.75 218.4663 344.2363)">
		<stop  offset="0" style="stop-color:#A8A8A8"/>
		<stop  offset="0.01" style="stop-color:#F2F2F2"/>
		<stop  offset="0.05" style="stop-color:#DBDBDB"/>
		<stop  offset="0.9" style="stop-color:#D8D8D8"/>
		<stop  offset="0.95" style="stop-color:#D3D3D3"/>
		<stop  offset="1" style="stop-color:#9C9C9C"/>
	</linearGradient>
	<path fill="url(#SVGID_19_)" d="M263.926,190.27h-34.5v-6h34.5V190.27z"/>
	
		<linearGradient id="SVGID_20_" gradientUnits="userSpaceOnUse" x1="37.6108" y1="213.2891" x2="37.6108" y2="205.2891" gradientTransform="matrix(0.75 0 0 -0.75 172.1001 344.2363)">
		<stop  offset="0" style="stop-color:#A8A8A8"/>
		<stop  offset="0.01" style="stop-color:#F2F2F2"/>
		<stop  offset="0.05" style="stop-color:#DBDBDB"/>
		<stop  offset="0.9" style="stop-color:#D8D8D8"/>
		<stop  offset="0.95" style="stop-color:#D3D3D3"/>
		<stop  offset="1" style="stop-color:#9C9C9C"/>
	</linearGradient>
	<path fill="url(#SVGID_20_)" d="M217.559,190.27h-34.5v-6h34.5V190.27z"/>
	
		<linearGradient id="SVGID_21_" gradientUnits="userSpaceOnUse" x1="37.6138" y1="213.2891" x2="37.6138" y2="205.2891" gradientTransform="matrix(0.75 0 0 -0.75 125.1021 344.2363)">
		<stop  offset="0" style="stop-color:#A8A8A8"/>
		<stop  offset="0.01" style="stop-color:#F2F2F2"/>
		<stop  offset="0.05" style="stop-color:#DBDBDB"/>
		<stop  offset="0.9" style="stop-color:#D8D8D8"/>
		<stop  offset="0.95" style="stop-color:#D3D3D3"/>
		<stop  offset="1" style="stop-color:#9C9C9C"/>
	</linearGradient>
	<path fill="url(#SVGID_21_)" d="M170.563,190.27h-34.5v-6h34.5V190.27z"/>
	
		<linearGradient id="SVGID_22_" gradientUnits="userSpaceOnUse" x1="37.6118" y1="213.2891" x2="37.6118" y2="205.2891" gradientTransform="matrix(0.75 0 0 -0.75 78.4199 344.2363)">
		<stop  offset="0" style="stop-color:#A8A8A8"/>
		<stop  offset="0.01" style="stop-color:#F2F2F2"/>
		<stop  offset="0.05" style="stop-color:#DBDBDB"/>
		<stop  offset="0.9" style="stop-color:#D8D8D8"/>
		<stop  offset="0.95" style="stop-color:#D3D3D3"/>
		<stop  offset="1" style="stop-color:#9C9C9C"/>
	</linearGradient>
	<path fill="url(#SVGID_22_)" d="M123.879,190.27h-34.5v-6h34.5V190.27z"/>
	
		<linearGradient id="SVGID_23_" gradientUnits="userSpaceOnUse" x1="37.6152" y1="213.2891" x2="37.6152" y2="205.2891" gradientTransform="matrix(0.75 0 0 -0.75 31.7378 344.2363)">
		<stop  offset="0" style="stop-color:#A8A8A8"/>
		<stop  offset="0.01" style="stop-color:#F2F2F2"/>
		<stop  offset="0.05" style="stop-color:#DBDBDB"/>
		<stop  offset="0.9" style="stop-color:#D8D8D8"/>
		<stop  offset="0.95" style="stop-color:#D3D3D3"/>
		<stop  offset="1" style="stop-color:#9C9C9C"/>
	</linearGradient>
	<path fill="url(#SVGID_23_)" d="M77.199,190.27h-34.5v-6h34.5V190.27z"/>
	
		<linearGradient id="SVGID_24_" gradientUnits="userSpaceOnUse" x1="14.6152" y1="162.7344" x2="113.6152" y2="162.7344" gradientTransform="matrix(0.75 0 0 -0.75 41.3472 209.0156)">
		<stop  offset="0" style="stop-color:#5F5F5F"/>
		<stop  offset="0.01" style="stop-color:#A9A9AA"/>
		<stop  offset="0.05" style="stop-color:#7D7D7E"/>
		<stop  offset="0.9" style="stop-color:#7B7B7C"/>
		<stop  offset="0.95" style="stop-color:#787879"/>
		<stop  offset="1" style="stop-color:#575758"/>
	</linearGradient>
	<path fill="url(#SVGID_24_)" d="M55.309,49.051h68.25c1.5,0,2.887,1.336,2.887,2.98l0.113,69.77c0,1.5-1.441,3.078-3.078,3.078
		l-68.172-0.078c-1.5,0-3-1.293-3-2.941V52.051c0-1.5,1.324-3,2.965-3H55.309z"/>
	<path fill="#595757" stroke="#717070" stroke-linejoin="bevel" stroke-miterlimit="10" d="M59.113,55.238h60.75v23.25h-60.75
		V55.238z"/>
	
		<linearGradient id="SVGID_25_" gradientUnits="userSpaceOnUse" x1="20.6143" y1="213.2871" x2="20.6143" y2="203.2871" gradientTransform="matrix(0.75 0 0 -0.75 48.1411 246.9102)">
		<stop  offset="0" style="stop-color:#90A38C"/>
		<stop  offset="0.01" style="stop-color:#D8EBD4"/>
		<stop  offset="0.05" style="stop-color:#BDD4B7"/>
		<stop  offset="0.9" style="stop-color:#BAD0B4"/>
		<stop  offset="0.95" style="stop-color:#B5CCB0"/>
		<stop  offset="1" style="stop-color:#869782"/>
	</linearGradient>
	<path fill="url(#SVGID_25_)" d="M59.102,86.945h9v7.5h-9V86.945z"/>
	
		<linearGradient id="SVGID_26_" gradientUnits="userSpaceOnUse" x1="20.6147" y1="213.2871" x2="20.6147" y2="203.2871" gradientTransform="matrix(0.75 0 0 -0.75 65.4331 246.9102)">
		<stop  offset="0" style="stop-color:#92A6AE"/>
		<stop  offset="0.01" style="stop-color:#DAEFF8"/>
		<stop  offset="0.05" style="stop-color:#BED8E3"/>
		<stop  offset="0.9" style="stop-color:#BBD5DF"/>
		<stop  offset="0.95" style="stop-color:#B7D0DA"/>
		<stop  offset="1" style="stop-color:#879AA2"/>
	</linearGradient>
	<path fill="url(#SVGID_26_)" d="M76.395,86.945h9v7.5h-9V86.945z"/>
	
		<linearGradient id="SVGID_27_" gradientUnits="userSpaceOnUse" x1="20.6108" y1="213.2871" x2="20.6108" y2="203.2871" gradientTransform="matrix(0.75 0 0 -0.75 82.7256 246.9102)">
		<stop  offset="0" style="stop-color:#92A6AE"/>
		<stop  offset="0.01" style="stop-color:#DAEFF8"/>
		<stop  offset="0.05" style="stop-color:#BED8E3"/>
		<stop  offset="0.9" style="stop-color:#BBD5DF"/>
		<stop  offset="0.95" style="stop-color:#B7D0DA"/>
		<stop  offset="1" style="stop-color:#879AA2"/>
	</linearGradient>
	<path fill="url(#SVGID_27_)" d="M93.684,86.945h9v7.5h-9V86.945z"/>
	
		<linearGradient id="SVGID_28_" gradientUnits="userSpaceOnUse" x1="20.6123" y1="213.2871" x2="20.6123" y2="203.2871" gradientTransform="matrix(0.75 0 0 -0.75 100.0171 246.9102)">
		<stop  offset="0" style="stop-color:#A96460"/>
		<stop  offset="0.01" style="stop-color:#F2ADAA"/>
		<stop  offset="0.05" style="stop-color:#DC837F"/>
		<stop  offset="0.9" style="stop-color:#D9817D"/>
		<stop  offset="0.95" style="stop-color:#D47E7A"/>
		<stop  offset="1" style="stop-color:#9D5C59"/>
	</linearGradient>
	<path fill="url(#SVGID_28_)" d="M110.977,86.945h9v7.5h-9V86.945z"/>
	<path fill="#FFFFFF" fill-opacity="0.2745" d="M59.113,55.238h21l39.75,23.25h-60.75V55.238z"/>
	
		<linearGradient id="SVGID_29_" gradientUnits="userSpaceOnUse" x1="20.6143" y1="213.2861" x2="20.6143" y2="203.2861" gradientTransform="matrix(0.75 0 0 -0.75 48.1411 259.1123)">
		<stop  offset="0" style="stop-color:#B3A593"/>
		<stop  offset="0.01" style="stop-color:#FDEEDA"/>
		<stop  offset="0.05" style="stop-color:#E9D7BF"/>
		<stop  offset="0.9" style="stop-color:#E5D3BC"/>
		<stop  offset="0.95" style="stop-color:#E0CEB8"/>
		<stop  offset="1" style="stop-color:#A69988"/>
	</linearGradient>
	<path fill="url(#SVGID_29_)" d="M59.102,99.148h9v7.5h-9V99.148z"/>
	
		<linearGradient id="SVGID_30_" gradientUnits="userSpaceOnUse" x1="20.6147" y1="213.2861" x2="20.6147" y2="203.2861" gradientTransform="matrix(0.75 0 0 -0.75 65.4331 259.1123)">
		<stop  offset="0" style="stop-color:#B3A593"/>
		<stop  offset="0.01" style="stop-color:#FDEEDA"/>
		<stop  offset="0.05" style="stop-color:#E9D7BF"/>
		<stop  offset="0.9" style="stop-color:#E5D3BC"/>
		<stop  offset="0.95" style="stop-color:#E0CEB8"/>
		<stop  offset="1" style="stop-color:#A69988"/>
	</linearGradient>
	<path fill="url(#SVGID_30_)" d="M76.395,99.148h9v7.5h-9V99.148z"/>
	
		<linearGradient id="SVGID_31_" gradientUnits="userSpaceOnUse" x1="20.6128" y1="213.2861" x2="20.6128" y2="203.2861" gradientTransform="matrix(0.75 0 0 -0.75 82.7241 259.1123)">
		<stop  offset="0" style="stop-color:#B3A593"/>
		<stop  offset="0.01" style="stop-color:#FDEEDA"/>
		<stop  offset="0.05" style="stop-color:#E9D7BF"/>
		<stop  offset="0.9" style="stop-color:#E5D3BC"/>
		<stop  offset="0.95" style="stop-color:#E0CEB8"/>
		<stop  offset="1" style="stop-color:#A69988"/>
	</linearGradient>
	<path fill="url(#SVGID_31_)" d="M93.684,99.148h9v7.5h-9V99.148z"/>
	
		<linearGradient id="SVGID_32_" gradientUnits="userSpaceOnUse" x1="20.6123" y1="213.2861" x2="20.6123" y2="203.2861" gradientTransform="matrix(0.75 0 0 -0.75 100.0171 259.1123)">
		<stop  offset="0" style="stop-color:#B3A593"/>
		<stop  offset="0.01" style="stop-color:#FDEEDA"/>
		<stop  offset="0.05" style="stop-color:#E9D7BF"/>
		<stop  offset="0.9" style="stop-color:#E5D3BC"/>
		<stop  offset="0.95" style="stop-color:#E0CEB8"/>
		<stop  offset="1" style="stop-color:#A69988"/>
	</linearGradient>
	<path fill="url(#SVGID_32_)" d="M110.977,99.148h9v7.5h-9V99.148z"/>
	
		<linearGradient id="SVGID_33_" gradientUnits="userSpaceOnUse" x1="20.6143" y1="213.2852" x2="20.6143" y2="203.2852" gradientTransform="matrix(0.75 0 0 -0.75 48.1411 271.3145)">
		<stop  offset="0" style="stop-color:#B3A593"/>
		<stop  offset="0.01" style="stop-color:#FDEEDA"/>
		<stop  offset="0.05" style="stop-color:#E9D7BF"/>
		<stop  offset="0.9" style="stop-color:#E5D3BC"/>
		<stop  offset="0.95" style="stop-color:#E0CEB8"/>
		<stop  offset="1" style="stop-color:#A69988"/>
	</linearGradient>
	<path fill="url(#SVGID_33_)" d="M59.102,111.352h9v7.5h-9V111.352z"/>
	
		<linearGradient id="SVGID_34_" gradientUnits="userSpaceOnUse" x1="20.6147" y1="213.2852" x2="20.6147" y2="203.2852" gradientTransform="matrix(0.75 0 0 -0.75 65.4331 271.3145)">
		<stop  offset="0" style="stop-color:#B3A593"/>
		<stop  offset="0.01" style="stop-color:#FDEEDA"/>
		<stop  offset="0.05" style="stop-color:#E9D7BF"/>
		<stop  offset="0.9" style="stop-color:#E5D3BC"/>
		<stop  offset="0.95" style="stop-color:#E0CEB8"/>
		<stop  offset="1" style="stop-color:#A69988"/>
	</linearGradient>
	<path fill="url(#SVGID_34_)" d="M76.395,111.352h9v7.5h-9V111.352z"/>
	
		<linearGradient id="SVGID_35_" gradientUnits="userSpaceOnUse" x1="20.6128" y1="213.2852" x2="20.6128" y2="203.2852" gradientTransform="matrix(0.75 0 0 -0.75 82.7397 271.3145)">
		<stop  offset="0" style="stop-color:#B3A593"/>
		<stop  offset="0.01" style="stop-color:#FDEEDA"/>
		<stop  offset="0.05" style="stop-color:#E9D7BF"/>
		<stop  offset="0.9" style="stop-color:#E5D3BC"/>
		<stop  offset="0.95" style="stop-color:#E0CEB8"/>
		<stop  offset="1" style="stop-color:#A69988"/>
	</linearGradient>
	<path fill="url(#SVGID_35_)" d="M93.699,111.352h9v7.5h-9V111.352z"/>
	
		<linearGradient id="SVGID_36_" gradientUnits="userSpaceOnUse" x1="20.6123" y1="213.2852" x2="20.6123" y2="203.2852" gradientTransform="matrix(0.75 0 0 -0.75 100.0171 271.3145)">
		<stop  offset="0" style="stop-color:#B3A593"/>
		<stop  offset="0.01" style="stop-color:#FDEEDA"/>
		<stop  offset="0.05" style="stop-color:#E9D7BF"/>
		<stop  offset="0.9" style="stop-color:#E5D3BC"/>
		<stop  offset="0.95" style="stop-color:#E0CEB8"/>
		<stop  offset="1" style="stop-color:#A69988"/>
	</linearGradient>
	<path fill="url(#SVGID_36_)" d="M110.977,111.352h9v7.5h-9V111.352z"/>
	
		<radialGradient id="SVGID_37_" cx="30.2324" cy="614.0049" r="22.1486" gradientTransform="matrix(0.75 0 0 0.75 125.0859 -354.6406)" gradientUnits="userSpaceOnUse">
		<stop  offset="0" style="stop-color:#848485"/>
		<stop  offset="0.54" style="stop-color:#828283"/>
		<stop  offset="0.74" style="stop-color:#EFEFEF"/>
		<stop  offset="0.91" style="stop-color:#828283"/>
		<stop  offset="1" style="stop-color:#828283"/>
	</radialGradient>
	<path fill="url(#SVGID_37_)" stroke="#CDCECE" stroke-width="0.25" stroke-linejoin="bevel" stroke-miterlimit="10" d="
		M136.047,105.645c0,6.75,5.242,12,11.727,12c6.273,0,11.699-5.262,11.699-11.781c-0.176-6.219-5.246-11.781-11.699-11.781
		c-6.477,0.313-11.727,5.277-11.727,11.781V105.645z"/>
	<path fill="#888889" d="M137.711,106.223c0,5.25,4.5,9.75,10.063,9.75c5.688,0,10.035-4.516,10.035-10.109
		c0.152-5.641-4.5-10.109-10.035-10.109c-5.563-0.031-10.063,4.527-10.063,10.109V106.223z"/>
	
		<linearGradient id="SVGID_38_" gradientUnits="userSpaceOnUse" x1="42.6787" y1="608.0166" x2="12.2344" y2="625.5936" gradientTransform="matrix(0.75 0 0 0.75 127.1748 -356.7373)">
		<stop  offset="0" style="stop-color:#676768"/>
		<stop  offset="0.15" style="stop-color:#939394"/>
		<stop  offset="0.25" style="stop-color:#AFAFAF"/>
		<stop  offset="0.44" style="stop-color:#767677"/>
		<stop  offset="0.6" style="stop-color:#696969"/>
		<stop  offset="0.8" style="stop-color:#575758"/>
		<stop  offset="0.97" style="stop-color:#4F4F50"/>
		<stop  offset="1" style="stop-color:#6B6B6C"/>
	</linearGradient>
	<path fill="url(#SVGID_38_)" d="M138.137,105.797c0,5.25,4.309,9.75,9.637,9.75c5.363,0,9.613-4.324,9.613-9.684
		c0.25-5.316-4.309-9.684-9.613-9.684c-5.137-0.133-9.637,4.34-9.637,9.684V105.797z"/>
	
		<linearGradient id="SVGID_39_" gradientUnits="userSpaceOnUse" x1="19.6875" y1="616.7432" x2="14.5938" y2="616.7432" gradientTransform="matrix(0.75 0 0 0.75 134.8936 -356.8062)">
		<stop  offset="0" style="stop-color:#676768"/>
		<stop  offset="0.15" style="stop-color:#939394"/>
		<stop  offset="0.25" style="stop-color:#C9C9CA"/>
		<stop  offset="0.44" style="stop-color:#767677"/>
		<stop  offset="0.6" style="stop-color:#696969"/>
		<stop  offset="0.8" style="stop-color:#575758"/>
		<stop  offset="0.97" style="stop-color:#4F4F50"/>
		<stop  offset="1" style="stop-color:#6B6B6C"/>
	</linearGradient>
	<path fill="url(#SVGID_39_)" d="M147.355,115.48h0.75c0.75,0,1.555-0.578,1.555-1.336l-0.055-16.664
		c0-0.75-0.555-1.191-1.309-1.191l-0.941-0.309c-0.75,0-1.516,0.922-1.516,1.684l0.016,16.316c0,0.75,0.594,1.539,1.348,1.539
		L147.355,115.48z"/>
	<path fill="#888889" d="M147.168,113.758h0.75c0,0,0.461-0.094,0.461-0.207l0.289-2.043c0-0.75-0.383-0.535-0.496-0.535
		l-1.004-0.215c0,0,0,0.309,0,0.422V113.758c0,0,0.094,0,0.207,0H147.168z"/>
	<path fill="#FFFFFF" fill-opacity="0.4039" d="M300.805,47.832h48.75c0,0,0.055,0.164,0.055,0.371l-0.055,28.879
		c0,0-0.113,0.086-0.316,0.086l-48.434-0.086c0,0,0-0.082,0-0.285V47.832c0,0,0.164,0,0.367,0H300.805z"/>
	<path fill="#B4B5B5" d="M335.004,56.941c0-2.25,2.133-4.5,4.773-4.5c2.727,0,4.777,2.148,4.777,4.801
		c0.199,2.699-2.145,4.801-4.777,4.801c-2.523,0.148-4.773-2.148-4.773-4.801V56.941z"/>
	
		<radialGradient id="SVGID_40_" cx="20.6733" cy="207.1904" r="8.5954" gradientTransform="matrix(0.75 0 0 -0.75 324.2744 212.6348)" gradientUnits="userSpaceOnUse">
		<stop  offset="0" style="stop-color:#D6D6D7"/>
		<stop  offset="0.54" style="stop-color:#D2D2D3"/>
		<stop  offset="0.74" style="stop-color:#FAFAFB"/>
		<stop  offset="0.91" style="stop-color:#D2D2D3"/>
		<stop  offset="1" style="stop-color:#D2D2D3"/>
	</radialGradient>
	<path fill="url(#SVGID_40_)" stroke="#CDCECE" stroke-width="0.25" stroke-linejoin="bevel" stroke-miterlimit="10" d="
		M335.234,57.172c0-2.25,2.027-4.5,4.543-4.5c2.207,0,4.547,2.047,4.547,4.57c-0.09,2.18-2.039,4.57-4.547,4.57
		c-2.293-0.141-4.543-2.047-4.543-4.57V57.172z"/>
	<path fill="#106428" d="M336.293,57.488c0-2.25,1.559-3.75,3.484-3.75c1.766,0,3.484,1.566,3.484,3.504
		c-0.219,1.746-1.563,3.504-3.484,3.504c-1.984-0.258-3.484-1.566-3.484-3.504V57.488z"/>
	
		<radialGradient id="SVGID_41_" cx="18.9521" cy="208.9297" r="6.1515" gradientTransform="matrix(0.75 0 0 -0.75 325.5771 213.9502)" gradientUnits="userSpaceOnUse">
		<stop  offset="0" style="stop-color:#00C25C"/>
		<stop  offset="0.56" style="stop-color:#50CC77"/>
		<stop  offset="0.79" style="stop-color:#00BE5A"/>
		<stop  offset="0.89" style="stop-color:#00BE5A"/>
		<stop  offset="1" style="stop-color:#00BE5A"/>
	</radialGradient>
	<path fill="url(#SVGID_41_)" stroke="#1D953F" stroke-width="0.25" stroke-linejoin="bevel" stroke-miterlimit="10" d="
		M336.535,56.984c0-1.5,1.453-3,3.242-3c2.008,0,3.242,1.461,3.242,3.258c0.266,1.992-1.449,3.258-3.242,3.258
		c-1.742,0.234-3.242-1.461-3.242-3.258V56.984z"/>
	
		<linearGradient id="SVGID_42_" gradientUnits="userSpaceOnUse" x1="22.6147" y1="208.79" x2="14.6147" y2="208.79" gradientTransform="matrix(0.75 0 0 -0.75 325.8867 225.5723)">
		<stop  offset="0" style="stop-color:#3D3B3B"/>
		<stop  offset="0.03" style="stop-color:#908F8F"/>
		<stop  offset="0.05" style="stop-color:#514F4F"/>
		<stop  offset="0.64" style="stop-color:#504E4E"/>
		<stop  offset="0.95" style="stop-color:#4E4C4C"/>
		<stop  offset="1" style="stop-color:#383636"/>
	</linearGradient>
	<path fill="url(#SVGID_42_)" d="M336.848,65.605h6v6.75h-6V65.605z"/>
	<path fill="#B60717" d="M337.777,66.301h3.75v6h-3.75V66.301z"/>
	<path fill="#C16264" d="M337.777,66.301h3.75v2.25h-3.75V66.301z"/>
	<path fill="#B4B5B5" d="M320.203,56.941c0-2.25,2.129-4.5,4.773-4.5c2.727,0,4.773,2.148,4.773,4.801
		c0.203,2.699-2.145,4.801-4.773,4.801c-2.523,0.148-4.773-2.148-4.773-4.801V56.941z"/>
	
		<radialGradient id="SVGID_43_" cx="20.6729" cy="207.1904" r="8.5957" gradientTransform="matrix(0.75 0 0 -0.75 309.4702 212.6348)" gradientUnits="userSpaceOnUse">
		<stop  offset="0" style="stop-color:#D6D6D7"/>
		<stop  offset="0.54" style="stop-color:#D2D2D3"/>
		<stop  offset="0.74" style="stop-color:#FAFAFB"/>
		<stop  offset="0.91" style="stop-color:#D2D2D3"/>
		<stop  offset="1" style="stop-color:#D2D2D3"/>
	</radialGradient>
	<path fill="url(#SVGID_43_)" stroke="#CDCECE" stroke-width="0.25" stroke-linejoin="bevel" stroke-miterlimit="10" d="
		M320.43,57.172c0-2.25,2.031-4.5,4.547-4.5c2.203,0,4.543,2.047,4.543,4.57c-0.09,2.18-2.039,4.57-4.543,4.57
		c-2.297-0.141-4.547-2.047-4.547-4.57V57.172z"/>
	<path fill="#106428" d="M321.492,57.488c0-2.25,1.555-3.75,3.484-3.75c1.766,0,3.484,1.566,3.484,3.504
		c-0.219,1.746-1.566,3.504-3.484,3.504c-1.984-0.258-3.484-1.566-3.484-3.504V57.488z"/>
	
		<radialGradient id="SVGID_44_" cx="18.9561" cy="208.9297" r="6.1488" gradientTransform="matrix(0.75 0 0 -0.75 310.7729 213.9502)" gradientUnits="userSpaceOnUse">
		<stop  offset="0" style="stop-color:#00C25C"/>
		<stop  offset="0.56" style="stop-color:#50CC77"/>
		<stop  offset="0.79" style="stop-color:#00BE5A"/>
		<stop  offset="0.89" style="stop-color:#00BE5A"/>
		<stop  offset="1" style="stop-color:#00BE5A"/>
	</radialGradient>
	<path fill="url(#SVGID_44_)" stroke="#1D953F" stroke-width="0.25" stroke-linejoin="bevel" stroke-miterlimit="10" d="
		M321.734,56.984c0-1.5,1.449-3,3.242-3c2.008,0,3.242,1.461,3.242,3.258c0.266,1.992-1.453,3.258-3.242,3.258
		c-1.742,0.234-3.242-1.461-3.242-3.258V56.984z"/>
	
		<linearGradient id="SVGID_45_" gradientUnits="userSpaceOnUse" x1="22.6128" y1="208.79" x2="14.6128" y2="208.79" gradientTransform="matrix(0.75 0 0 -0.75 311.083 225.5723)">
		<stop  offset="0" style="stop-color:#3D3B3B"/>
		<stop  offset="0.03" style="stop-color:#908F8F"/>
		<stop  offset="0.05" style="stop-color:#514F4F"/>
		<stop  offset="0.64" style="stop-color:#504E4E"/>
		<stop  offset="0.95" style="stop-color:#4E4C4C"/>
		<stop  offset="1" style="stop-color:#383636"/>
	</linearGradient>
	<path fill="url(#SVGID_45_)" d="M322.043,65.605h6v6.75h-6V65.605z"/>
	<path fill="#B60717" d="M322.973,66.301h3.75v6h-3.75V66.301z"/>
	<path fill="#C16264" d="M322.973,66.301h3.75v2.25h-3.75V66.301z"/>
	
		<linearGradient id="SVGID_46_" gradientUnits="userSpaceOnUse" x1="22.6118" y1="208.79" x2="14.6118" y2="208.79" gradientTransform="matrix(0.75 0 0 -0.75 296.2793 225.5723)">
		<stop  offset="0" style="stop-color:#3D3B3B"/>
		<stop  offset="0.03" style="stop-color:#908F8F"/>
		<stop  offset="0.05" style="stop-color:#514F4F"/>
		<stop  offset="0.64" style="stop-color:#504E4E"/>
		<stop  offset="0.95" style="stop-color:#4E4C4C"/>
		<stop  offset="1" style="stop-color:#383636"/>
	</linearGradient>
	<path fill="url(#SVGID_46_)" d="M307.238,65.605h6v6.75h-6V65.605z"/>
	<path fill="#B60717" d="M308.172,66.301h3.75v6h-3.75V66.301z"/>
	<path fill="#C16264" d="M308.172,66.301h3.75v2.25h-3.75V66.301z"/>
	<path fill="#B4B5B5" d="M305.398,56.941c0-2.25,2.129-4.5,4.773-4.5c2.727,0,4.773,2.148,4.773,4.801
		c0.203,2.699-2.145,4.801-4.773,4.801c-2.523,0.148-4.773-2.148-4.773-4.801V56.941z"/>
	
		<radialGradient id="SVGID_47_" cx="20.6714" cy="207.1904" r="8.5967" gradientTransform="matrix(0.75 0 0 -0.75 294.6665 212.6348)" gradientUnits="userSpaceOnUse">
		<stop  offset="0" style="stop-color:#D6D6D7"/>
		<stop  offset="0.54" style="stop-color:#D2D2D3"/>
		<stop  offset="0.74" style="stop-color:#FAFAFB"/>
		<stop  offset="0.91" style="stop-color:#D2D2D3"/>
		<stop  offset="1" style="stop-color:#D2D2D3"/>
	</radialGradient>
	<path fill="url(#SVGID_47_)" stroke="#CDCECE" stroke-width="0.25" stroke-linejoin="bevel" stroke-miterlimit="10" d="
		M305.625,57.172c0-2.25,2.031-4.5,4.547-4.5c2.203,0,4.543,2.047,4.543,4.57c-0.09,2.18-2.039,4.57-4.543,4.57
		c-2.297-0.141-4.547-2.047-4.547-4.57V57.172z"/>
	<path fill="#106428" d="M306.688,57.488c0-2.25,1.555-3.75,3.484-3.75c1.766,0,3.484,1.566,3.484,3.504
		c-0.219,1.746-1.566,3.504-3.484,3.504c-1.984-0.258-3.484-1.566-3.484-3.504V57.488z"/>
	
		<radialGradient id="SVGID_48_" cx="18.9551" cy="208.9297" r="6.1495" gradientTransform="matrix(0.75 0 0 -0.75 295.9692 213.9502)" gradientUnits="userSpaceOnUse">
		<stop  offset="0" style="stop-color:#00C25C"/>
		<stop  offset="0.56" style="stop-color:#50CC77"/>
		<stop  offset="0.79" style="stop-color:#00BE5A"/>
		<stop  offset="0.89" style="stop-color:#00BE5A"/>
		<stop  offset="1" style="stop-color:#00BE5A"/>
	</radialGradient>
	<path fill="url(#SVGID_48_)" stroke="#1D953F" stroke-width="0.25" stroke-linejoin="bevel" stroke-miterlimit="10" d="
		M306.93,56.984c0-1.5,1.449-3,3.242-3c2.008,0,3.242,1.461,3.242,3.258c0.266,1.992-1.453,3.258-3.242,3.258
		c-1.742,0.234-3.242-1.461-3.242-3.258V56.984z"/>
</g>
</svg>
