<?xml version="1.0" encoding="utf-8"?>
<!-- Generator: Adobe Illustrator 16.0.0, SVG Export Plug-In . SVG Version: 6.00 Build 0)  -->
<!DOCTYPE svg PUBLIC "-//W3C//DTD SVG 1.1//EN" "http://www.w3.org/Graphics/SVG/1.1/DTD/svg11.dtd">
<svg preserveAspectRatio="none" version="1.1" id="图层_1" xmlns="http://www.w3.org/2000/svg" xmlns:xlink="http://www.w3.org/1999/xlink" x="0px" y="0px"
	 width="300.25px" height="217.75px" viewBox="29.5 13.699 300.25 217.75" enable-background="new 29.5 13.699 300.25 217.75"
	 xml:space="preserve">
<g id="surface476">
	<path fill="#CFEBF6" stroke="#CFEBF6" stroke-linejoin="bevel" stroke-miterlimit="10" d="M38.27,24.664h282v197.25h-282V24.664z"
		/>
	<path fill="#FDE9D0" stroke="#EACD98" stroke-linejoin="bevel" stroke-miterlimit="10" d="M39,14.199h-9v216.75h299.25V14.199h-9
		v207.75H39V14.199z"/>
	
		<linearGradient id="SVGID_1_" gradientUnits="userSpaceOnUse" x1="39.4888" y1="145.7871" x2="21.4888" y2="145.7871" gradientTransform="matrix(0.75 0 0 -0.75 58.3169 323.1201)">
		<stop  offset="0" style="stop-color:#C4AA84"/>
		<stop  offset="0.15" style="stop-color:#FFE0B3"/>
		<stop  offset="0.25" style="stop-color:#FFEED7"/>
		<stop  offset="0.52" style="stop-color:#DFC297"/>
		<stop  offset="0.69" style="stop-color:#C7AD86"/>
		<stop  offset="0.8" style="stop-color:#BCA37E"/>
		<stop  offset="0.97" style="stop-color:#B19A77"/>
		<stop  offset="1" style="stop-color:#CBB189"/>
	</linearGradient>
	<path fill="url(#SVGID_1_)" d="M74.434,230.281h13.5v-33h-13.5V230.281z"/>
	
		<linearGradient id="SVGID_2_" gradientUnits="userSpaceOnUse" x1="39.4902" y1="145.7871" x2="21.4902" y2="145.7871" gradientTransform="matrix(0.75 0 0 -0.75 107.4839 323.1201)">
		<stop  offset="0" style="stop-color:#C4AA84"/>
		<stop  offset="0.15" style="stop-color:#FFE0B3"/>
		<stop  offset="0.25" style="stop-color:#FFEED7"/>
		<stop  offset="0.52" style="stop-color:#DFC297"/>
		<stop  offset="0.69" style="stop-color:#C7AD86"/>
		<stop  offset="0.8" style="stop-color:#BCA37E"/>
		<stop  offset="0.97" style="stop-color:#B19A77"/>
		<stop  offset="1" style="stop-color:#CBB189"/>
	</linearGradient>
	<path fill="url(#SVGID_2_)" d="M123.602,230.281h13.5v-33h-13.5V230.281z"/>
	
		<linearGradient id="SVGID_3_" gradientUnits="userSpaceOnUse" x1="39.4858" y1="145.7871" x2="21.4858" y2="145.7871" gradientTransform="matrix(0.75 0 0 -0.75 156.6509 323.1201)">
		<stop  offset="0" style="stop-color:#C4AA84"/>
		<stop  offset="0.15" style="stop-color:#FFE0B3"/>
		<stop  offset="0.25" style="stop-color:#FFEED7"/>
		<stop  offset="0.52" style="stop-color:#DFC297"/>
		<stop  offset="0.69" style="stop-color:#C7AD86"/>
		<stop  offset="0.8" style="stop-color:#BCA37E"/>
		<stop  offset="0.97" style="stop-color:#B19A77"/>
		<stop  offset="1" style="stop-color:#CBB189"/>
	</linearGradient>
	<path fill="url(#SVGID_3_)" d="M172.766,230.281h13.5v-33h-13.5V230.281z"/>
	
		<linearGradient id="SVGID_4_" gradientUnits="userSpaceOnUse" x1="39.4868" y1="145.7871" x2="21.4868" y2="145.7871" gradientTransform="matrix(0.75 0 0 -0.75 205.8184 323.1201)">
		<stop  offset="0" style="stop-color:#C4AA84"/>
		<stop  offset="0.15" style="stop-color:#FFE0B3"/>
		<stop  offset="0.25" style="stop-color:#FFEED7"/>
		<stop  offset="0.52" style="stop-color:#DFC297"/>
		<stop  offset="0.69" style="stop-color:#C7AD86"/>
		<stop  offset="0.8" style="stop-color:#BCA37E"/>
		<stop  offset="0.97" style="stop-color:#B19A77"/>
		<stop  offset="1" style="stop-color:#CBB189"/>
	</linearGradient>
	<path fill="url(#SVGID_4_)" d="M221.934,230.281h13.5v-33h-13.5V230.281z"/>
	
		<linearGradient id="SVGID_5_" gradientUnits="userSpaceOnUse" x1="39.4878" y1="145.7871" x2="21.4878" y2="145.7871" gradientTransform="matrix(0.75 0 0 -0.75 254.9854 323.1201)">
		<stop  offset="0" style="stop-color:#C4AA84"/>
		<stop  offset="0.15" style="stop-color:#FFE0B3"/>
		<stop  offset="0.25" style="stop-color:#FFEED7"/>
		<stop  offset="0.52" style="stop-color:#DFC297"/>
		<stop  offset="0.69" style="stop-color:#C7AD86"/>
		<stop  offset="0.8" style="stop-color:#BCA37E"/>
		<stop  offset="0.97" style="stop-color:#B19A77"/>
		<stop  offset="1" style="stop-color:#CBB189"/>
	</linearGradient>
	<path fill="url(#SVGID_5_)" d="M271.102,230.281h13.5v-33h-13.5V230.281z"/>
	<path fill="#FFFFFF" fill-opacity="0.6784" d="M70.113,184.809c0-3,2.668-6,5.961-6c3.039,0,2.156,3.852,2.156,7.137
		c0.133,3.363,0.793,2.266-2.496,2.266c-3.371,0.348-5.621-0.168-5.621-3.453V184.809z"/>
	<path fill="#FFFFFF" fill-opacity="0.6784" d="M79.785,186.781c0-3,2.469-5.621,5.535-5.621c2.715,0.371,4.879-3.801,4.879-0.738
		c0.086,3.359-2.484,5.543-5.555,5.543c-3.359,0.066-4.879,3.801-4.879,0.738L79.785,186.781z"/>
	<path fill="#FFFFFF" fill-opacity="0.6784" d="M79.973,162.617c0-3-2.078-6,0.652-6c3.098,0,4.938,2.211,4.938,4.934
		c-0.34,2.566-4.188,4.93-6.914,4.93c-2.426-0.113,0.965-1.141,0.965-3.863H79.973z"/>
	<path fill="#FFFFFF" fill-opacity="0.6784" d="M70.117,163.66c0-1.5,1.973-0.227,4.059-0.227c1.941,0.227,3.5-1.621,3.5,0.461
		c-0.059,2.016-1.695,3.773-3.773,3.773c-2.285-0.258-3.785-1.688-3.785-3.773V163.66z"/>
	<path fill="#FFFFFF" fill-opacity="0.6784" d="M77.066,143.367c0-2.25,1.746-3.75,3.906-3.75c2.094,0,1.414,2.523,1.414,4.676
		c-0.07,2.074,0.52,1.488-1.637,1.488c-2.184-0.164-3.684-0.113-3.684-2.266V143.367z"/>
	<path fill="#FFFFFF" fill-opacity="0.6784" d="M74.672,194.504c0-3.75,1.391-2.871,4.984-2.871
		c3.266-0.129,8.117-5.566,8.117-1.984c-0.352,3.355-2.914,6.492-6.504,6.492c-3.598-0.137-6.598,1.684-6.598-1.902V194.504z"/>
	<path fill="#FFFFFF" fill-opacity="0.6784" d="M72.781,173.527c0-2.25-0.652-3.75,0.898-3.75c1.352,0,2.805,1.25,2.805,2.797
		c0.047,1.703-2.379,2.801-3.93,2.801c-1.273-0.348,0.551-0.648,0.551-2.195L72.781,173.527z"/>
	<path fill="#FFFFFF" fill-opacity="0.6784" d="M87.172,174.297c0-3.75-2.957-9-0.563-9c2.063,0,2.961,0.926,2.961,4.648
		c-0.148,3.602-0.566,8.836-2.961,8.836c-2.438,0.016,0.27-0.926,0.27-4.648L87.172,174.297z"/>
	<path fill="#FFFFFF" fill-opacity="0.6784" d="M72.73,154.742c0-3.75-0.094-2.723,3.102-2.723c2.898-0.277,2.504-1.379,2.504,1.824
		c-0.355,3.148-2.59,5.766-5.785,5.766c-3.57-0.367-0.035-1.914-0.035-5.105L72.73,154.742z"/>
	<path fill="#FFFFFF" fill-opacity="0.6784" d="M79.883,149.273c0-1.5,1.973-0.227,4.059-0.227c1.941,0.227,3.5-1.621,3.5,0.461
		c-0.059,2.016-1.695,3.773-3.773,3.773c-2.285-0.258-3.785-1.691-3.785-3.773V149.273z"/>
	<path fill="#FFFFFF" fill-opacity="0.6784" d="M86.289,161.004c0-2.25-0.652-3.75,0.895-3.75c1.355,0,2.805,1.254,2.805,2.801
		c0.051,1.699-2.375,2.797-3.926,2.797c-1.273-0.348,0.551-0.648,0.551-2.191L86.289,161.004z"/>
	<path fill="#FFFFFF" fill-opacity="0.6784" d="M77.871,172.281c0-1.5,1.973-0.227,4.059-0.227c1.941,0.227,3.5-1.621,3.5,0.465
		c-0.059,2.012-1.691,3.77-3.773,3.77c-2.285-0.258-3.785-1.688-3.785-3.77V172.281z"/>
	<path fill="#FFFFFF" fill-opacity="0.6784" d="M120.613,184.809c0-3,2.668-6,5.957-6c3.043,0,2.16,3.852,2.16,7.137
		c0.133,3.363,0.793,2.266-2.5,2.266c-3.367,0.348-5.617-0.168-5.617-3.453V184.809z"/>
	<path fill="#FFFFFF" fill-opacity="0.6784" d="M130.285,186.781c0-3,2.465-5.621,5.535-5.621c2.715,0.371,4.879-3.801,4.879-0.738
		c0.086,3.359-2.488,5.543-5.555,5.543c-3.359,0.066-4.879,3.801-4.879,0.738L130.285,186.781z"/>
	<path fill="#FFFFFF" fill-opacity="0.6784" d="M130.473,162.617c0-3-2.078-6,0.648-6c3.102,0,4.941,2.211,4.941,4.934
		c-0.34,2.566-4.188,4.93-6.918,4.93c-2.422-0.113,0.969-1.141,0.969-3.863H130.473z"/>
	<path fill="#FFFFFF" fill-opacity="0.6784" d="M120.613,163.66c0-1.5,1.977-0.227,4.063-0.227c1.938,0.227,3.496-1.621,3.496,0.461
		c-0.059,2.016-1.691,3.773-3.77,3.773c-2.289-0.258-3.789-1.688-3.789-3.773V163.66z"/>
	<path fill="#FFFFFF" fill-opacity="0.6784" d="M127.563,143.367c0-2.25,1.75-3.75,3.906-3.75c2.094,0,1.414,2.523,1.414,4.676
		c-0.07,2.074,0.52,1.488-1.637,1.488c-2.184-0.164-3.684-0.113-3.684-2.266V143.367z"/>
	<path fill="#FFFFFF" fill-opacity="0.6784" d="M125.172,194.504c0-3.75,1.391-2.871,4.98-2.871c3.27-0.129,8.117-5.566,8.117-1.984
		c-0.348,3.355-2.91,6.492-6.504,6.492c-3.594-0.137-6.594,1.684-6.594-1.902V194.504z"/>
	<path fill="#FFFFFF" fill-opacity="0.6784" d="M123.281,173.527c0-2.25-0.652-3.75,0.895-3.75c1.355,0,2.805,1.25,2.805,2.797
		c0.051,1.703-2.379,2.801-3.926,2.801c-1.273-0.348,0.547-0.648,0.547-2.195L123.281,173.527z"/>
	<path fill="#FFFFFF" fill-opacity="0.6784" d="M137.668,174.297c0-3.75-2.953-9-0.559-9c2.059,0,2.961,0.926,2.961,4.648
		c-0.152,3.602-0.57,8.836-2.961,8.836c-2.441,0.016,0.27-0.926,0.27-4.648L137.668,174.297z"/>
	<path fill="#FFFFFF" fill-opacity="0.6784" d="M123.23,154.742c0-3.75-0.098-2.723,3.098-2.723
		c2.902-0.277,2.508-1.379,2.508,1.824c-0.355,3.148-2.594,5.766-5.789,5.766c-3.566-0.367-0.035-1.914-0.035-5.105L123.23,154.742z
		"/>
	<path fill="#FFFFFF" fill-opacity="0.6784" d="M130.379,149.273c0-1.5,1.977-0.227,4.063-0.227
		c1.938,0.227,3.496-1.621,3.496,0.461c-0.059,2.016-1.691,3.773-3.77,3.773c-2.289-0.258-3.789-1.691-3.789-3.773V149.273z"/>
	<path fill="#FFFFFF" fill-opacity="0.6784" d="M136.789,161.004c0-2.25-0.656-3.75,0.895-3.75c1.355,0,2.805,1.254,2.805,2.801
		c0.051,1.699-2.379,2.797-3.926,2.797c-1.273-0.348,0.547-0.648,0.547-2.191L136.789,161.004z"/>
	<path fill="#FFFFFF" fill-opacity="0.6784" d="M128.367,172.281c0-1.5,1.977-0.227,4.063-0.227
		c1.938,0.227,3.496-1.621,3.496,0.465c-0.059,2.012-1.691,3.77-3.77,3.77c-2.289-0.258-3.789-1.688-3.789-3.77V172.281z"/>
	<path fill="#FFFFFF" fill-opacity="0.6784" d="M169.531,184.809c0-3,2.668-6,5.961-6c3.039,0,2.156,3.852,2.156,7.137
		c0.133,3.363,0.793,2.266-2.496,2.266c-3.371,0.348-5.621-0.168-5.621-3.453V184.809z"/>
	<path fill="#FFFFFF" fill-opacity="0.6784" d="M179.203,186.781c0-3,2.469-5.621,5.535-5.621c2.715,0.371,4.883-3.801,4.883-0.738
		c0.082,3.359-2.488,5.543-5.555,5.543c-3.363,0.066-4.883,3.801-4.883,0.738L179.203,186.781z"/>
	<path fill="#FFFFFF" fill-opacity="0.6784" d="M179.395,162.617c0-3-2.082-6,0.648-6c3.102,0,4.941,2.211,4.941,4.934
		c-0.34,2.566-4.191,4.93-6.918,4.93c-2.422-0.113,0.969-1.141,0.969-3.863H179.395z"/>
	<path fill="#FFFFFF" fill-opacity="0.6784" d="M169.535,163.66c0-1.5,1.973-0.227,4.063-0.227c1.938,0.227,3.496-1.621,3.496,0.461
		c-0.059,2.016-1.691,3.773-3.773,3.773c-2.285-0.258-3.785-1.688-3.785-3.773V163.66z"/>
	<path fill="#FFFFFF" fill-opacity="0.6784" d="M176.484,143.367c0-2.25,1.75-3.75,3.906-3.75c2.094,0,1.414,2.523,1.414,4.676
		c-0.07,2.074,0.52,1.488-1.637,1.488c-2.184-0.164-3.684-0.113-3.684-2.266V143.367z"/>
	<path fill="#FFFFFF" fill-opacity="0.6784" d="M174.094,194.504c0-3.75,1.391-2.871,4.98-2.871c3.27-0.129,8.117-5.566,8.117-1.984
		c-0.348,3.355-2.91,6.492-6.504,6.492c-3.594-0.137-6.594,1.684-6.594-1.902V194.504z"/>
	<path fill="#FFFFFF" fill-opacity="0.6784" d="M172.199,173.527c0-2.25-0.652-3.75,0.898-3.75c1.352,0,2.805,1.25,2.805,2.797
		c0.047,1.703-2.379,2.801-3.93,2.801c-1.273-0.348,0.551-0.648,0.551-2.195L172.199,173.527z"/>
	<path fill="#FFFFFF" fill-opacity="0.6784" d="M186.59,174.297c0-3.75-2.957-9-0.563-9c2.063,0,2.965,0.926,2.965,4.648
		c-0.152,3.602-0.57,8.836-2.965,8.836c-2.438,0.016,0.273-0.926,0.273-4.648L186.59,174.297z"/>
	<path fill="#FFFFFF" fill-opacity="0.6784" d="M172.152,154.742c0-3.75-0.098-2.723,3.098-2.723
		c2.902-0.277,2.504-1.379,2.504,1.824c-0.352,3.148-2.59,5.766-5.785,5.766c-3.566-0.367-0.035-1.914-0.035-5.105L172.152,154.742z
		"/>
	<path fill="#FFFFFF" fill-opacity="0.6784" d="M179.301,149.273c0-1.5,1.973-0.227,4.063-0.227
		c1.938,0.227,3.496-1.621,3.496,0.461c-0.059,2.016-1.691,3.773-3.773,3.773c-2.285-0.258-3.785-1.691-3.785-3.773V149.273z"/>
	<path fill="#FFFFFF" fill-opacity="0.6784" d="M185.707,161.004c0-2.25-0.652-3.75,0.898-3.75c1.352,0,2.805,1.254,2.805,2.801
		c0.047,1.699-2.379,2.797-3.93,2.797c-1.273-0.348,0.551-0.648,0.551-2.191L185.707,161.004z"/>
	<path fill="#FFFFFF" fill-opacity="0.6784" d="M177.289,172.281c0-1.5,1.973-0.227,4.063-0.227
		c1.938,0.227,3.496-1.621,3.496,0.465c-0.059,2.012-1.691,3.77-3.773,3.77c-2.285-0.258-3.785-1.688-3.785-3.77V172.281z"/>
	<path fill="#FFFFFF" fill-opacity="0.6784" d="M217.867,184.809c0-3,2.668-6,5.961-6c3.039,0,2.156,3.852,2.156,7.137
		c0.133,3.363,0.797,2.266-2.496,2.266c-3.371,0.348-5.621-0.168-5.621-3.453V184.809z"/>
	<path fill="#FFFFFF" fill-opacity="0.6784" d="M227.543,186.781c0-3,2.465-5.621,5.535-5.621c2.715,0.371,4.879-3.801,4.879-0.738
		c0.086,3.359-2.488,5.543-5.555,5.543c-3.359,0.066-4.879,3.801-4.879,0.738L227.543,186.781z"/>
	<path fill="#FFFFFF" fill-opacity="0.6784" d="M227.73,162.617c0-3-2.082-6,0.648-6c3.102,0,4.941,2.211,4.941,4.934
		c-0.34,2.566-4.191,4.93-6.918,4.93c-2.422-0.113,0.969-1.141,0.969-3.863H227.73z"/>
	<path fill="#FFFFFF" fill-opacity="0.6784" d="M217.871,163.66c0-1.5,1.973-0.227,4.063-0.227c1.938,0.227,3.496-1.621,3.496,0.461
		c-0.059,2.016-1.691,3.773-3.773,3.773c-2.285-0.258-3.785-1.688-3.785-3.773V163.66z"/>
	<path fill="#FFFFFF" fill-opacity="0.6784" d="M224.82,143.367c0-2.25,1.75-3.75,3.906-3.75c2.094,0,1.414,2.523,1.414,4.676
		c-0.07,2.074,0.52,1.488-1.637,1.488c-2.184-0.164-3.684-0.113-3.684-2.266V143.367z"/>
	<path fill="#FFFFFF" fill-opacity="0.6784" d="M222.43,194.504c0-3.75,1.391-2.871,4.98-2.871c3.27-0.129,8.117-5.566,8.117-1.984
		c-0.348,3.355-2.91,6.492-6.504,6.492c-3.594-0.137-6.594,1.684-6.594-1.902V194.504z"/>
	<path fill="#FFFFFF" fill-opacity="0.6784" d="M220.539,173.527c0-2.25-0.656-3.75,0.895-3.75c1.355,0,2.805,1.25,2.805,2.797
		c0.051,1.703-2.379,2.801-3.926,2.801c-1.273-0.348,0.547-0.648,0.547-2.195L220.539,173.527z"/>
	<path fill="#FFFFFF" fill-opacity="0.6784" d="M234.926,174.297c0-3.75-2.953-9-0.563-9c2.063,0,2.965,0.926,2.965,4.648
		c-0.152,3.602-0.57,8.836-2.965,8.836c-2.438,0.016,0.273-0.926,0.273-4.648L234.926,174.297z"/>
	<path fill="#FFFFFF" fill-opacity="0.6784" d="M220.488,154.742c0-3.75-0.098-2.723,3.098-2.723
		c2.902-0.277,2.508-1.379,2.508,1.824c-0.355,3.148-2.594,5.766-5.789,5.766c-3.566-0.367-0.035-1.914-0.035-5.105L220.488,154.742
		z"/>
	<path fill="#FFFFFF" fill-opacity="0.6784" d="M227.637,149.273c0-1.5,1.973-0.227,4.063-0.227
		c1.938,0.227,3.496-1.621,3.496,0.461c-0.059,2.016-1.691,3.773-3.773,3.773c-2.285-0.258-3.785-1.691-3.785-3.773V149.273z"/>
	<path fill="#FFFFFF" fill-opacity="0.6784" d="M234.043,161.004c0-2.25-0.652-3.75,0.898-3.75c1.352,0,2.805,1.254,2.805,2.801
		c0.047,1.699-2.379,2.797-3.93,2.797c-1.273-0.348,0.551-0.648,0.551-2.191L234.043,161.004z"/>
	<path fill="#FFFFFF" fill-opacity="0.6784" d="M225.625,172.281c0-1.5,1.973-0.227,4.063-0.227
		c1.938,0.227,3.496-1.621,3.496,0.465c-0.059,2.012-1.691,3.77-3.773,3.77c-2.285-0.258-3.785-1.688-3.785-3.77V172.281z"/>
	<path fill="#FFFFFF" fill-opacity="0.6784" d="M266.43,184.809c0-3,2.668-6,5.961-6c3.039,0,2.156,3.852,2.156,7.137
		c0.133,3.363,0.797,2.266-2.496,2.266c-3.371,0.348-5.621-0.168-5.621-3.453V184.809z"/>
	<path fill="#FFFFFF" fill-opacity="0.6784" d="M276.105,186.781c0-3,2.465-5.621,5.535-5.621c2.715,0.371,4.879-3.801,4.879-0.738
		c0.086,3.359-2.488,5.543-5.555,5.543c-3.359,0.066-4.879,3.801-4.879,0.738L276.105,186.781z"/>
	<path fill="#FFFFFF" fill-opacity="0.6784" d="M276.293,162.617c0-3-2.082-6,0.648-6c3.102,0,4.941,2.211,4.941,4.934
		c-0.34,2.566-4.191,4.93-6.918,4.93c-2.422-0.113,0.969-1.141,0.969-3.863H276.293z"/>
	<path fill="#FFFFFF" fill-opacity="0.6784" d="M266.434,163.66c0-1.5,1.973-0.227,4.063-0.227c1.938,0.227,3.496-1.621,3.496,0.461
		c-0.059,2.016-1.691,3.773-3.773,3.773c-2.285-0.258-3.785-1.688-3.785-3.773V163.66z"/>
	<path fill="#FFFFFF" fill-opacity="0.6784" d="M273.383,143.367c0-2.25,1.75-3.75,3.906-3.75c2.094,0,1.414,2.523,1.414,4.676
		c-0.07,2.074,0.52,1.488-1.637,1.488c-2.184-0.164-3.684-0.113-3.684-2.266V143.367z"/>
	<path fill="#FFFFFF" fill-opacity="0.6784" d="M270.992,194.504c0-3.75,1.391-2.871,4.98-2.871c3.27-0.129,8.117-5.566,8.117-1.984
		c-0.348,3.355-2.91,6.492-6.504,6.492c-3.594-0.137-6.594,1.684-6.594-1.902V194.504z"/>
	<path fill="#FFFFFF" fill-opacity="0.6784" d="M269.102,173.527c0-2.25-0.656-3.75,0.895-3.75c1.355,0,2.805,1.25,2.805,2.797
		c0.051,1.703-2.379,2.801-3.926,2.801c-1.273-0.348,0.547-0.648,0.547-2.195L269.102,173.527z"/>
	<path fill="#FFFFFF" fill-opacity="0.6784" d="M283.488,174.297c0-3.75-2.953-9-0.563-9c2.063,0,2.965,0.926,2.965,4.648
		c-0.152,3.602-0.57,8.836-2.965,8.836c-2.438,0.016,0.273-0.926,0.273-4.648L283.488,174.297z"/>
	<path fill="#FFFFFF" fill-opacity="0.6784" d="M269.051,154.742c0-3.75-0.098-2.723,3.098-2.723
		c2.902-0.277,2.508-1.379,2.508,1.824c-0.355,3.148-2.594,5.766-5.789,5.766c-3.566-0.367-0.035-1.914-0.035-5.105L269.051,154.742
		z"/>
	<path fill="#FFFFFF" fill-opacity="0.6784" d="M276.199,149.273c0-1.5,1.973-0.227,4.063-0.227
		c1.938,0.227,3.496-1.621,3.496,0.461c-0.059,2.016-1.691,3.773-3.773,3.773c-2.285-0.258-3.785-1.691-3.785-3.773V149.273z"/>
	<path fill="#FFFFFF" fill-opacity="0.6784" d="M282.605,161.004c0-2.25-0.652-3.75,0.898-3.75c1.352,0,2.805,1.254,2.805,2.801
		c0.047,1.699-2.379,2.797-3.93,2.797c-1.273-0.348,0.551-0.648,0.551-2.191L282.605,161.004z"/>
	<path fill="#FFFFFF" fill-opacity="0.6784" d="M274.188,172.281c0-1.5,1.973-0.227,4.063-0.227
		c1.938,0.227,3.496-1.621,3.496,0.465c-0.059,2.012-1.691,3.77-3.773,3.77c-2.285-0.258-3.785-1.688-3.785-3.77V172.281z"/>
</g>
</svg>
