<?xml version="1.0" encoding="utf-8"?>
<!-- Generator: Adobe Illustrator 16.0.0, SVG Export Plug-In . SVG Version: 6.00 Build 0)  -->
<!DOCTYPE svg PUBLIC "-//W3C//DTD SVG 1.1//EN" "http://www.w3.org/Graphics/SVG/1.1/DTD/svg11.dtd">
<svg preserveAspectRatio="none" version="1.1" id="图层_1" xmlns="http://www.w3.org/2000/svg" xmlns:xlink="http://www.w3.org/1999/xlink" x="0px" y="0px"
	 width="220.824px" height="429.895px" viewBox="29.961 105.762 220.824 429.895"
	 enable-background="new 29.961 105.762 220.824 429.895" xml:space="preserve">
<g id="surface31">
	
		<linearGradient id="SVGID_1_" gradientUnits="userSpaceOnUse" x1="64.9858" y1="508.0381" x2="34.6108" y2="508.0381" gradientTransform="matrix(0.75 0 0 -0.75 113.9277 855.1797)">
		<stop  offset="0" style="stop-color:#343232"/>
		<stop  offset="0.15" style="stop-color:#555454"/>
		<stop  offset="0.26" style="stop-color:#797777"/>
		<stop  offset="0.41" style="stop-color:#5D5B5B"/>
		<stop  offset="0.6" style="stop-color:#484646"/>
		<stop  offset="0.8" style="stop-color:#383636"/>
		<stop  offset="0.93" style="stop-color:#2C2B2B"/>
		<stop  offset="1" style="stop-color:#535151"/>
	</linearGradient>
	<path fill="url(#SVGID_1_)" d="M140.637,418.277h21.75c0,0,0.281,0.293,0.281,0.652l-0.281,110.348c0,0-0.012,0.516-0.367,0.516
		l-21.383,0.234c-0.75,0-0.75-0.527-0.75-0.887V419.027c0-0.75,0.289-0.75,0.648-0.75H140.637z"/>
	
		<linearGradient id="SVGID_2_" gradientUnits="userSpaceOnUse" x1="93.6123" y1="575.5342" x2="34.6123" y2="575.5342" gradientTransform="matrix(0.75 0 0 -0.75 4.04 591.1582)">
		<stop  offset="0" style="stop-color:#343232"/>
		<stop  offset="0.15" style="stop-color:#555454"/>
		<stop  offset="0.26" style="stop-color:#797777"/>
		<stop  offset="0.41" style="stop-color:#5D5B5B"/>
		<stop  offset="0.6" style="stop-color:#484646"/>
		<stop  offset="0.8" style="stop-color:#383636"/>
		<stop  offset="0.93" style="stop-color:#2C2B2B"/>
		<stop  offset="1" style="stop-color:#535151"/>
	</linearGradient>
	<path fill="url(#SVGID_2_)" d="M74.25,154.258H30v10.5h44.25V154.258z"/>
	
		<linearGradient id="SVGID_3_" gradientUnits="userSpaceOnUse" x1="71.6973" y1="570.5605" x2="34.6133" y2="570.5605" gradientTransform="matrix(0.75 0 0 -0.75 16.5195 573.1934)">
		<stop  offset="0" style="stop-color:#343232"/>
		<stop  offset="0.15" style="stop-color:#555454"/>
		<stop  offset="0.26" style="stop-color:#797777"/>
		<stop  offset="0.41" style="stop-color:#5D5B5B"/>
		<stop  offset="0.6" style="stop-color:#484646"/>
		<stop  offset="0.8" style="stop-color:#383636"/>
		<stop  offset="0.93" style="stop-color:#2C2B2B"/>
		<stop  offset="1" style="stop-color:#535151"/>
	</linearGradient>
	<path fill="url(#SVGID_3_)" d="M43.23,136.293h26.25c0.75,0,0.813,0.363,0.813,0.859l-0.063,16.391c0,0-0.336,0.723-0.828,0.723
		l-26.172,0.027c0,0-0.75-0.441-0.75-0.941v-16.309c0-0.75,0.387-0.789,0.879-0.789L43.23,136.293z"/>
	
		<linearGradient id="SVGID_4_" gradientUnits="userSpaceOnUse" x1="48.6123" y1="572.4932" x2="34.5605" y2="572.4932" gradientTransform="matrix(0.75 0 0 -0.75 4.04 588.6953)">
		<stop  offset="0" style="stop-color:#343232"/>
		<stop  offset="0.15" style="stop-color:#555454"/>
		<stop  offset="0.26" style="stop-color:#797777"/>
		<stop  offset="0.41" style="stop-color:#5D5B5B"/>
		<stop  offset="0.6" style="stop-color:#484646"/>
		<stop  offset="0.8" style="stop-color:#383636"/>
		<stop  offset="0.93" style="stop-color:#2C2B2B"/>
		<stop  offset="1" style="stop-color:#535151"/>
	</linearGradient>
	<path fill="url(#SVGID_4_)" d="M30.75,151.793h9c0,0,0.551,0.254,0.551,0.613l0.199,13.637c0,0.75-0.586,0.852-1.059,0.852
		l-8.691-0.102c-0.75,0-0.789-0.199-0.789-0.559L30,152.543c0-0.75,0.348-0.785,0.824-0.785L30.75,151.793z"/>
	
		<linearGradient id="SVGID_5_" gradientUnits="userSpaceOnUse" x1="58.7188" y1="570.5381" x2="34.6143" y2="570.5381" gradientTransform="matrix(0.75 0 0 -0.75 47.4761 584.2588)">
		<stop  offset="0" style="stop-color:#343232"/>
		<stop  offset="0.15" style="stop-color:#555454"/>
		<stop  offset="0.26" style="stop-color:#797777"/>
		<stop  offset="0.41" style="stop-color:#5D5B5B"/>
		<stop  offset="0.6" style="stop-color:#484646"/>
		<stop  offset="0.8" style="stop-color:#383636"/>
		<stop  offset="0.93" style="stop-color:#2C2B2B"/>
		<stop  offset="1" style="stop-color:#535151"/>
	</linearGradient>
	<path fill="url(#SVGID_5_)" d="M74.188,147.355h16.5c0.75,0,0.828,0.281,0.828,0.641l-0.078,16.609c0,0.75-0.211,0.738-0.566,0.738
		l-16.684,0.012c-0.75,0-0.75-0.305-0.75-0.664v-16.586c0-0.75,0.277-0.75,0.633-0.75H74.188z"/>
	
		<linearGradient id="SVGID_6_" gradientUnits="userSpaceOnUse" x1="288.6143" y1="395.7412" x2="34.6138" y2="395.7412" gradientTransform="matrix(0.75 0 0 -0.75 29.9336 615.6172)">
		<stop  offset="0" style="stop-color:#C4C4C4"/>
		<stop  offset="0.15" style="stop-color:#FFFFFF"/>
		<stop  offset="0.25" style="stop-color:#FFFFFF"/>
		<stop  offset="0.44" style="stop-color:#DFDFDF"/>
		<stop  offset="0.6" style="stop-color:#C7C7C7"/>
		<stop  offset="0.8" style="stop-color:#A8A8A8"/>
		<stop  offset="0.97" style="stop-color:#999999"/>
		<stop  offset="1" style="stop-color:#CBCBCB"/>
	</linearGradient>
	<path fill="url(#SVGID_6_)" d="M55.895,178.715h190.5v262.5c0,0,0.266,17.691-94.75,17.691c-95,0.309-95.75-18.051-95.75-18.051
		V178.715z"/>
	
		<linearGradient id="SVGID_7_" gradientUnits="userSpaceOnUse" x1="288.6143" y1="572.5342" x2="34.6138" y2="572.5342" gradientTransform="matrix(0.75 0 0 -0.75 29.9336 601.3184)">
		<stop  offset="0" style="stop-color:#9EB4BD"/>
		<stop  offset="0.15" style="stop-color:#D2ECF7"/>
		<stop  offset="0.25" style="stop-color:#DBF0F8"/>
		<stop  offset="0.44" style="stop-color:#B5CED7"/>
		<stop  offset="0.6" style="stop-color:#A1B7C0"/>
		<stop  offset="0.8" style="stop-color:#879AA2"/>
		<stop  offset="0.97" style="stop-color:#7B8D94"/>
		<stop  offset="1" style="stop-color:#A5BBC4"/>
	</linearGradient>
	<path fill="url(#SVGID_7_)" d="M55.895,164.418h190.5v15h-190.5V164.418z"/>
	
		<linearGradient id="SVGID_8_" gradientUnits="userSpaceOnUse" x1="159.6143" y1="569.0352" x2="34.6138" y2="569.0352" gradientTransform="matrix(0.75 0 0 -0.75 78.2969 580.5449)">
		<stop  offset="0" style="stop-color:#9EB4BD"/>
		<stop  offset="0.15" style="stop-color:#D2ECF7"/>
		<stop  offset="0.25" style="stop-color:#DBF0F8"/>
		<stop  offset="0.44" style="stop-color:#B5CED7"/>
		<stop  offset="0.6" style="stop-color:#A1B7C0"/>
		<stop  offset="0.8" style="stop-color:#879AA2"/>
		<stop  offset="0.97" style="stop-color:#7B8D94"/>
		<stop  offset="1" style="stop-color:#A5BBC4"/>
	</linearGradient>
	<path fill="url(#SVGID_8_)" d="M104.258,143.645h93.75v20.25h-93.75V143.645z"/>
	
		<linearGradient id="SVGID_9_" gradientUnits="userSpaceOnUse" x1="175.6133" y1="575.5381" x2="34.6133" y2="575.5381" gradientTransform="matrix(0.75 0 0 -0.75 72.5044 569.875)">
		<stop  offset="0" style="stop-color:#9EB4BD"/>
		<stop  offset="0.15" style="stop-color:#D2ECF7"/>
		<stop  offset="0.25" style="stop-color:#DBF0F8"/>
		<stop  offset="0.44" style="stop-color:#B5CED7"/>
		<stop  offset="0.6" style="stop-color:#A1B7C0"/>
		<stop  offset="0.8" style="stop-color:#879AA2"/>
		<stop  offset="0.97" style="stop-color:#7B8D94"/>
		<stop  offset="1" style="stop-color:#A5BBC4"/>
	</linearGradient>
	<path fill="url(#SVGID_9_)" d="M98.465,132.973h105.75l-6,10.5h-93.75L98.465,132.973z"/>
	
		<linearGradient id="SVGID_10_" gradientUnits="userSpaceOnUse" x1="175.6143" y1="564.0361" x2="34.6143" y2="564.0361" gradientTransform="matrix(0.75 0 0 -0.75 72.5039 542.6631)">
		<stop  offset="0" style="stop-color:#9EB4BD"/>
		<stop  offset="0.15" style="stop-color:#D2ECF7"/>
		<stop  offset="0.25" style="stop-color:#DBF0F8"/>
		<stop  offset="0.44" style="stop-color:#B5CED7"/>
		<stop  offset="0.6" style="stop-color:#A1B7C0"/>
		<stop  offset="0.8" style="stop-color:#879AA2"/>
		<stop  offset="0.97" style="stop-color:#7B8D94"/>
		<stop  offset="1" style="stop-color:#A5BBC4"/>
	</linearGradient>
	<path fill="url(#SVGID_10_)" d="M98.465,105.762h105.75v27.75H98.465V105.762z"/>
	
		<linearGradient id="SVGID_11_" gradientUnits="userSpaceOnUse" x1="39.6113" y1="429.9414" x2="34.6113" y2="429.9414" gradientTransform="matrix(0.75 0 0 -0.75 39.2324 619.9258)">
		<stop  offset="0" style="stop-color:#C4C4C4"/>
		<stop  offset="0.15" style="stop-color:#FFFFFF"/>
		<stop  offset="0.25" style="stop-color:#FFFFFF"/>
		<stop  offset="0.44" style="stop-color:#DFDFDF"/>
		<stop  offset="0.6" style="stop-color:#C7C7C7"/>
		<stop  offset="0.8" style="stop-color:#A8A8A8"/>
		<stop  offset="0.97" style="stop-color:#999999"/>
		<stop  offset="1" style="stop-color:#CBCBCB"/>
	</linearGradient>
	<path fill="url(#SVGID_11_)" d="M65.941,183.023h2.25c0,0,0.395,0.262,0.395,0.586l0.355,227.414c0,0.75-0.645,0.895-1.004,0.895
		l-1.996-0.145c-0.75,0-0.75-0.117-0.75-0.441V183.773c0-0.75,0.289-0.75,0.648-0.75H65.941z"/>
	
		<linearGradient id="SVGID_12_" gradientUnits="userSpaceOnUse" x1="39.6113" y1="429.9414" x2="34.6113" y2="429.9414" gradientTransform="matrix(0.75 0 0 -0.75 72.9868 619.9258)">
		<stop  offset="0" style="stop-color:#C4C4C4"/>
		<stop  offset="0.15" style="stop-color:#FFFFFF"/>
		<stop  offset="0.25" style="stop-color:#FFFFFF"/>
		<stop  offset="0.44" style="stop-color:#DFDFDF"/>
		<stop  offset="0.6" style="stop-color:#C7C7C7"/>
		<stop  offset="0.8" style="stop-color:#A8A8A8"/>
		<stop  offset="0.97" style="stop-color:#999999"/>
		<stop  offset="1" style="stop-color:#CBCBCB"/>
	</linearGradient>
	<path fill="url(#SVGID_12_)" d="M99.695,183.023h2.25c0,0,0.395,0.262,0.395,0.586l0.355,227.414c0,0.75-0.645,0.895-1.004,0.895
		l-1.996-0.145c-0.75,0-0.75-0.117-0.75-0.441V183.773c0-0.75,0.289-0.75,0.648-0.75H99.695z"/>
	
		<linearGradient id="SVGID_13_" gradientUnits="userSpaceOnUse" x1="39.6152" y1="429.9414" x2="34.6152" y2="429.9414" gradientTransform="matrix(0.75 0 0 -0.75 106.7412 619.9258)">
		<stop  offset="0" style="stop-color:#C4C4C4"/>
		<stop  offset="0.15" style="stop-color:#FFFFFF"/>
		<stop  offset="0.25" style="stop-color:#FFFFFF"/>
		<stop  offset="0.44" style="stop-color:#DFDFDF"/>
		<stop  offset="0.6" style="stop-color:#C7C7C7"/>
		<stop  offset="0.8" style="stop-color:#A8A8A8"/>
		<stop  offset="0.97" style="stop-color:#999999"/>
		<stop  offset="1" style="stop-color:#CBCBCB"/>
	</linearGradient>
	<path fill="url(#SVGID_13_)" d="M133.453,183.023h2.25c0,0,0.391,0.262,0.391,0.586l0.359,227.414c0,0.75-0.648,0.895-1.004,0.895
		l-1.996-0.145c-0.75,0-0.75-0.117-0.75-0.441V183.773c0-0.75,0.289-0.75,0.645-0.75H133.453z"/>
	
		<linearGradient id="SVGID_14_" gradientUnits="userSpaceOnUse" x1="39.6152" y1="429.9414" x2="34.6152" y2="429.9414" gradientTransform="matrix(0.75 0 0 -0.75 140.4956 619.9258)">
		<stop  offset="0" style="stop-color:#C4C4C4"/>
		<stop  offset="0.15" style="stop-color:#FFFFFF"/>
		<stop  offset="0.25" style="stop-color:#FFFFFF"/>
		<stop  offset="0.44" style="stop-color:#DFDFDF"/>
		<stop  offset="0.6" style="stop-color:#C7C7C7"/>
		<stop  offset="0.8" style="stop-color:#A8A8A8"/>
		<stop  offset="0.97" style="stop-color:#999999"/>
		<stop  offset="1" style="stop-color:#CBCBCB"/>
	</linearGradient>
	<path fill="url(#SVGID_14_)" d="M167.207,183.023h2.25c0,0,0.391,0.262,0.391,0.586l0.359,227.414c0,0.75-0.648,0.895-1.004,0.895
		l-1.996-0.145c-0.75,0-0.75-0.117-0.75-0.441V183.773c0-0.75,0.289-0.75,0.645-0.75H167.207z"/>
	
		<linearGradient id="SVGID_15_" gradientUnits="userSpaceOnUse" x1="39.6143" y1="429.9414" x2="34.6143" y2="429.9414" gradientTransform="matrix(0.75 0 0 -0.75 174.25 619.9258)">
		<stop  offset="0" style="stop-color:#C4C4C4"/>
		<stop  offset="0.15" style="stop-color:#FFFFFF"/>
		<stop  offset="0.25" style="stop-color:#FFFFFF"/>
		<stop  offset="0.44" style="stop-color:#DFDFDF"/>
		<stop  offset="0.6" style="stop-color:#C7C7C7"/>
		<stop  offset="0.8" style="stop-color:#A8A8A8"/>
		<stop  offset="0.97" style="stop-color:#999999"/>
		<stop  offset="1" style="stop-color:#CBCBCB"/>
	</linearGradient>
	<path fill="url(#SVGID_15_)" d="M200.961,183.023h2.25c0,0,0.391,0.262,0.391,0.586l0.359,227.414c0,0.75-0.648,0.895-1.004,0.895
		l-1.996-0.145c-0.75,0-0.75-0.117-0.75-0.441V183.773c0-0.75,0.289-0.75,0.645-0.75H200.961z"/>
	
		<linearGradient id="SVGID_16_" gradientUnits="userSpaceOnUse" x1="39.6133" y1="429.9414" x2="34.6133" y2="429.9414" gradientTransform="matrix(0.75 0 0 -0.75 208.0044 619.9258)">
		<stop  offset="0" style="stop-color:#C4C4C4"/>
		<stop  offset="0.15" style="stop-color:#FFFFFF"/>
		<stop  offset="0.25" style="stop-color:#FFFFFF"/>
		<stop  offset="0.44" style="stop-color:#DFDFDF"/>
		<stop  offset="0.6" style="stop-color:#C7C7C7"/>
		<stop  offset="0.8" style="stop-color:#A8A8A8"/>
		<stop  offset="0.97" style="stop-color:#999999"/>
		<stop  offset="1" style="stop-color:#CBCBCB"/>
	</linearGradient>
	<path fill="url(#SVGID_16_)" d="M234.715,183.023h2.25c0,0,0.391,0.262,0.391,0.586l0.359,227.414c0,0.75-0.648,0.895-1.004,0.895
		l-1.996-0.145c-0.75,0-0.75-0.117-0.75-0.441V183.773c0-0.75,0.289-0.75,0.645-0.75H234.715z"/>
	
		<linearGradient id="SVGID_17_" gradientUnits="userSpaceOnUse" x1="64.9839" y1="508.0381" x2="34.6138" y2="508.0381" gradientTransform="matrix(0.75 0 0 -0.75 29.9336 855.1797)">
		<stop  offset="0" style="stop-color:#343232"/>
		<stop  offset="0.15" style="stop-color:#555454"/>
		<stop  offset="0.26" style="stop-color:#797777"/>
		<stop  offset="0.41" style="stop-color:#5D5B5B"/>
		<stop  offset="0.6" style="stop-color:#484646"/>
		<stop  offset="0.8" style="stop-color:#383636"/>
		<stop  offset="0.93" style="stop-color:#2C2B2B"/>
		<stop  offset="1" style="stop-color:#535151"/>
	</linearGradient>
	<path fill="url(#SVGID_17_)" d="M56.645,418.277h21.75c0,0,0.277,0.293,0.277,0.652l-0.277,110.348c0,0-0.012,0.516-0.367,0.516
		l-21.383,0.234c-0.75,0-0.75-0.527-0.75-0.887V419.027c0-0.75,0.289-0.75,0.645-0.75H56.645z"/>
	
		<linearGradient id="SVGID_18_" gradientUnits="userSpaceOnUse" x1="64.9824" y1="508.0381" x2="34.6123" y2="508.0381" gradientTransform="matrix(0.75 0 0 -0.75 197.9229 855.1797)">
		<stop  offset="0" style="stop-color:#343232"/>
		<stop  offset="0.15" style="stop-color:#555454"/>
		<stop  offset="0.26" style="stop-color:#797777"/>
		<stop  offset="0.41" style="stop-color:#5D5B5B"/>
		<stop  offset="0.6" style="stop-color:#484646"/>
		<stop  offset="0.8" style="stop-color:#383636"/>
		<stop  offset="0.93" style="stop-color:#2C2B2B"/>
		<stop  offset="1" style="stop-color:#535151"/>
	</linearGradient>
	<path fill="url(#SVGID_18_)" d="M224.633,418.277h21.75c0,0,0.277,0.293,0.277,0.652l-0.277,110.348c0,0-0.012,0.516-0.367,0.516
		l-21.383,0.234c-0.75,0-0.75-0.527-0.75-0.887V419.027c0-0.75,0.289-0.75,0.645-0.75H224.633z"/>
	
		<linearGradient id="SVGID_19_" gradientUnits="userSpaceOnUse" x1="75.6133" y1="577.0566" x2="34.5664" y2="577.0566" gradientTransform="matrix(0.75 0 0 -0.75 26.0864 964.3096)">
		<stop  offset="0" style="stop-color:#343232"/>
		<stop  offset="0.15" style="stop-color:#555454"/>
		<stop  offset="0.26" style="stop-color:#797777"/>
		<stop  offset="0.41" style="stop-color:#5D5B5B"/>
		<stop  offset="0.6" style="stop-color:#484646"/>
		<stop  offset="0.8" style="stop-color:#383636"/>
		<stop  offset="0.93" style="stop-color:#2C2B2B"/>
		<stop  offset="1" style="stop-color:#535151"/>
	</linearGradient>
	<path fill="url(#SVGID_19_)" d="M52.797,527.406h29.25c0,0,0.473,0.266,0.473,0.625l0.277,6.875c0,0-0.574,0.559-0.934,0.559
		l-29.066,0.191c-0.75,0-0.785-0.484-0.785-0.844l0.035-6.656c0-0.75,0.254-0.777,0.609-0.777L52.797,527.406z"/>
	
		<linearGradient id="SVGID_20_" gradientUnits="userSpaceOnUse" x1="75.6147" y1="577.0566" x2="34.563" y2="577.0566" gradientTransform="matrix(0.75 0 0 -0.75 110.0811 964.3096)">
		<stop  offset="0" style="stop-color:#343232"/>
		<stop  offset="0.15" style="stop-color:#555454"/>
		<stop  offset="0.26" style="stop-color:#797777"/>
		<stop  offset="0.41" style="stop-color:#5D5B5B"/>
		<stop  offset="0.6" style="stop-color:#484646"/>
		<stop  offset="0.8" style="stop-color:#383636"/>
		<stop  offset="0.93" style="stop-color:#2C2B2B"/>
		<stop  offset="1" style="stop-color:#535151"/>
	</linearGradient>
	<path fill="url(#SVGID_20_)" d="M136.793,527.406h29.25c0,0,0.469,0.266,0.469,0.625l0.281,6.875c0,0-0.578,0.559-0.934,0.559
		l-29.066,0.191c-0.75,0-0.789-0.484-0.789-0.844l0.039-6.656c0-0.75,0.25-0.777,0.609-0.777L136.793,527.406z"/>
	
		<linearGradient id="SVGID_21_" gradientUnits="userSpaceOnUse" x1="75.6123" y1="577.0566" x2="34.5654" y2="577.0566" gradientTransform="matrix(0.75 0 0 -0.75 194.0757 964.3096)">
		<stop  offset="0" style="stop-color:#343232"/>
		<stop  offset="0.15" style="stop-color:#555454"/>
		<stop  offset="0.26" style="stop-color:#797777"/>
		<stop  offset="0.41" style="stop-color:#5D5B5B"/>
		<stop  offset="0.6" style="stop-color:#484646"/>
		<stop  offset="0.8" style="stop-color:#383636"/>
		<stop  offset="0.93" style="stop-color:#2C2B2B"/>
		<stop  offset="1" style="stop-color:#535151"/>
	</linearGradient>
	<path fill="url(#SVGID_21_)" d="M220.785,527.406h29.25c0,0,0.473,0.266,0.473,0.625l0.277,6.875c0,0-0.574,0.559-0.934,0.559
		l-29.066,0.191c-0.75,0-0.785-0.484-0.785-0.844l0.035-6.656c0-0.75,0.254-0.777,0.609-0.777L220.785,527.406z"/>
</g>
</svg>
