<?xml version="1.0" encoding="utf-8"?>
<!-- Generator: Adobe Illustrator 16.0.0, SVG Export Plug-In . SVG Version: 6.00 Build 0)  -->
<!DOCTYPE svg PUBLIC "-//W3C//DTD SVG 1.1//EN" "http://www.w3.org/Graphics/SVG/1.1/DTD/svg11.dtd">
<svg preserveAspectRatio="none" version="1.1" id="图层_1" xmlns="http://www.w3.org/2000/svg" xmlns:xlink="http://www.w3.org/1999/xlink" x="0px" y="0px"
	 width="340.504px" height="157.141px" viewBox="30 63.09 340.504 157.141" enable-background="new 30 63.09 340.504 157.141"
	 xml:space="preserve">
<g id="surface811">
	
		<linearGradient id="SVGID_1_" gradientUnits="userSpaceOnUse" x1="19.8237" y1="213.3262" x2="19.8237" y2="193.2842" gradientTransform="matrix(0.75 0 0 -0.75 40.5796 280.3926)">
		<stop  offset="0" style="stop-color:#2E2A29"/>
		<stop  offset="0.15" style="stop-color:#8F8E8E"/>
		<stop  offset="0.25" style="stop-color:#9A9999"/>
		<stop  offset="0.52" style="stop-color:#353130"/>
		<stop  offset="0.69" style="stop-color:#2E2A29"/>
		<stop  offset="0.8" style="stop-color:#2B2726"/>
		<stop  offset="0.92" style="stop-color:#282424"/>
	</linearGradient>
	<path fill="url(#SVGID_1_)" d="M52.289,120.43h6.75c0,0,0.344,0.172,0.344,0.426l-0.344,13.824c0,0.75,0.129,0.746-0.125,0.746
		l-6.625,0.004c-0.75,0-0.777-0.223-0.777-0.477l0.027-13.773c0-0.75,0.18-0.781,0.434-0.781L52.289,120.43z"/>
	
		<linearGradient id="SVGID_2_" gradientUnits="userSpaceOnUse" x1="29.1128" y1="213.2852" x2="29.1128" y2="204.2852" gradientTransform="matrix(0.75 0 0 -0.75 19.04 284.4795)">
		<stop  offset="0" style="stop-color:#2E2A29"/>
		<stop  offset="0.15" style="stop-color:#8F8E8E"/>
		<stop  offset="0.25" style="stop-color:#9A9999"/>
		<stop  offset="0.52" style="stop-color:#353130"/>
		<stop  offset="0.69" style="stop-color:#2E2A29"/>
		<stop  offset="0.8" style="stop-color:#2B2726"/>
		<stop  offset="0.92" style="stop-color:#282424"/>
	</linearGradient>
	<path fill="url(#SVGID_2_)" d="M51.75,124.516H30v6.75h21.75V124.516z"/>
	
		<linearGradient id="SVGID_3_" gradientUnits="userSpaceOnUse" x1="19.8525" y1="213.3252" x2="19.8525" y2="181.2891" gradientTransform="matrix(0.75 0 0 -0.75 26.4487 276.0762)">
		<stop  offset="0" style="stop-color:#2E2A29"/>
		<stop  offset="0.15" style="stop-color:#8F8E8E"/>
		<stop  offset="0.25" style="stop-color:#9A9999"/>
		<stop  offset="0.52" style="stop-color:#353130"/>
		<stop  offset="0.69" style="stop-color:#2E2A29"/>
		<stop  offset="0.8" style="stop-color:#2B2726"/>
		<stop  offset="0.92" style="stop-color:#282424"/>
	</linearGradient>
	<path fill="url(#SVGID_3_)" d="M38.16,116.109h6.75c0,0,0.355,0.176,0.355,0.43l-0.355,22.82c0,0,0.148,0.383-0.105,0.383
		l-6.645,0.367c-0.75,0-0.75-0.578-0.75-0.828v-22.422c0-0.75,0.199-0.777,0.453-0.777L38.16,116.109z"/>
	
		<linearGradient id="SVGID_4_" gradientUnits="userSpaceOnUse" x1="23.1123" y1="213.3135" x2="23.1123" y2="192.0898" gradientTransform="matrix(0.75 0 0 -0.75 36.2788 320.8672)">
		<stop  offset="0" style="stop-color:#2E2A29"/>
		<stop  offset="0.15" style="stop-color:#8F8E8E"/>
		<stop  offset="0.25" style="stop-color:#9A9999"/>
		<stop  offset="0.52" style="stop-color:#353130"/>
		<stop  offset="0.69" style="stop-color:#2E2A29"/>
		<stop  offset="0.8" style="stop-color:#2B2726"/>
		<stop  offset="0.92" style="stop-color:#282424"/>
	</linearGradient>
	<path fill="url(#SVGID_4_)" d="M47.988,160.902h11.25c0,0,0.484,0.184,0.484,0.434l0.266,15.316c0,0-0.473,0.148-0.73,0.148
		l-11.27-0.148c-0.75,0-0.75-0.055-0.75-0.305v-14.695c0-0.75,0.199-0.77,0.457-0.77L47.988,160.902z"/>
	
		<linearGradient id="SVGID_5_" gradientUnits="userSpaceOnUse" x1="37.4565" y1="213.2832" x2="37.4565" y2="94.2832" gradientTransform="matrix(0.75 0 0 -0.75 325.2788 263.0801)">
		<stop  offset="0" style="stop-color:#5D7180"/>
		<stop  offset="0.15" style="stop-color:#A7B4C0"/>
		<stop  offset="0.25" style="stop-color:#AEBBC5"/>
		<stop  offset="0.52" style="stop-color:#697F90"/>
		<stop  offset="0.69" style="stop-color:#5D7180"/>
		<stop  offset="0.8" style="stop-color:#576A78"/>
		<stop  offset="0.92" style="stop-color:#526471"/>
	</linearGradient>
	<path fill="url(#SVGID_5_)" d="M336.238,103.117h23.25c0,0,11.012,0.453,11.012,45.027c0.238,44.223-10.668,44.129-10.668,44.129
		l-23.594,0.094V103.117z"/>
	
		<linearGradient id="SVGID_6_" gradientUnits="userSpaceOnUse" x1="14.6118" y1="206.7842" x2="37.6118" y2="206.7842" gradientTransform="matrix(0.75 0 0 -0.75 306.3306 247.6152)">
		<stop  offset="0" style="stop-color:#C7C7C7"/>
		<stop  offset="0.22" style="stop-color:#E0E0E0"/>
		<stop  offset="0.57" style="stop-color:#F6F6F6"/>
		<stop  offset="0.84" style="stop-color:#F2F2F2"/>
		<stop  offset="1" style="stop-color:#D8D8D8"/>
	</linearGradient>
	<path fill="url(#SVGID_6_)" d="M317.289,97.402h17.25v-9.75h-17.25V97.402z"/>
	
		<linearGradient id="SVGID_7_" gradientUnits="userSpaceOnUse" x1="151.6128" y1="213.2832" x2="151.6128" y2="94.2832" gradientTransform="matrix(0.75 0 0 -0.75 93.0557 263.0801)">
		<stop  offset="0" style="stop-color:#5D7180"/>
		<stop  offset="0.15" style="stop-color:#A7B4C0"/>
		<stop  offset="0.25" style="stop-color:#AEBBC5"/>
		<stop  offset="0.52" style="stop-color:#697F90"/>
		<stop  offset="0.69" style="stop-color:#5D7180"/>
		<stop  offset="0.8" style="stop-color:#576A78"/>
		<stop  offset="0.92" style="stop-color:#526471"/>
	</linearGradient>
	<path fill="url(#SVGID_7_)" d="M104.016,103.117h205.5v89.25h-205.5V103.117z"/>
	
		<linearGradient id="SVGID_8_" gradientUnits="userSpaceOnUse" x1="46.1157" y1="94.2837" x2="46.1157" y2="213.2837" gradientTransform="matrix(0.75 0 0 -0.75 45.8706 263.0801)">
		<stop  offset="0" style="stop-color:#BEBBAC"/>
		<stop  offset="0.22" style="stop-color:#D5D3C2"/>
		<stop  offset="0.57" style="stop-color:#F0EFE6"/>
		<stop  offset="0.84" style="stop-color:#E9E7D9"/>
		<stop  offset="1" style="stop-color:#CECBBA"/>
	</linearGradient>
	<path fill="url(#SVGID_8_)" d="M63.582,111.367l40.5-8.25v89.25l-40.5-9c0,0-6.75,0.711-6.75-35.223
		c0-36.027,6.574-36.461,6.574-36.461L63.582,111.367z"/>
	
		<linearGradient id="SVGID_9_" gradientUnits="userSpaceOnUse" x1="18.1138" y1="213.29" x2="18.1138" y2="88.29" gradientTransform="matrix(0.75 0 0 -0.75 298.9111 260.8027)">
		<stop  offset="0" style="stop-color:#2E2A29"/>
		<stop  offset="0.15" style="stop-color:#8F8E8E"/>
		<stop  offset="0.25" style="stop-color:#9A9999"/>
		<stop  offset="0.52" style="stop-color:#353130"/>
		<stop  offset="0.69" style="stop-color:#2E2A29"/>
		<stop  offset="0.8" style="stop-color:#2B2726"/>
		<stop  offset="0.92" style="stop-color:#282424"/>
	</linearGradient>
	<path fill="url(#SVGID_9_)" d="M310.621,100.836h3.75c0.75,0,0.59,0.191,0.59,0.441l0.16,92.559c0,0.75-0.367,0.707-0.625,0.707
		l-3.875,0.043c-0.75,0-0.75-0.266-0.75-0.52v-92.48c0-0.75,0.207-0.75,0.461-0.75H310.621z"/>
	
		<linearGradient id="SVGID_10_" gradientUnits="userSpaceOnUse" x1="14.6104" y1="141.7871" x2="44.6104" y2="141.7871" gradientTransform="matrix(0.75 0 0 -0.75 304.0068 256.7266)">
		<stop  offset="0" style="stop-color:#BEBBAC"/>
		<stop  offset="0.22" style="stop-color:#D5D3C2"/>
		<stop  offset="0.57" style="stop-color:#F0EFE6"/>
		<stop  offset="0.84" style="stop-color:#E9E7D9"/>
		<stop  offset="1" style="stop-color:#CECBBA"/>
	</linearGradient>
	<path fill="url(#SVGID_10_)" d="M315.715,96.762h21c0,0,0.449,0.191,0.449,0.441l0.301,106.059c0,0-0.508,0.391-0.762,0.391
		l-20.988,0.359c-0.75,0-0.75-0.578-0.75-0.828V97.512c0-0.75,0.203-0.75,0.457-0.75H315.715z"/>
	
		<linearGradient id="SVGID_11_" gradientUnits="userSpaceOnUse" x1="14.6123" y1="209.7871" x2="35.6123" y2="209.7871" gradientTransform="matrix(0.75 0 0 -0.75 307.2559 363.7539)">
		<stop  offset="0" style="stop-color:#C7C7C7"/>
		<stop  offset="0.22" style="stop-color:#E0E0E0"/>
		<stop  offset="0.57" style="stop-color:#F6F6F6"/>
		<stop  offset="0.84" style="stop-color:#F2F2F2"/>
		<stop  offset="1" style="stop-color:#D8D8D8"/>
	</linearGradient>
	<path fill="url(#SVGID_11_)" d="M318.215,203.789h15.75v5.25h-15.75V203.789z"/>
	
		<linearGradient id="SVGID_12_" gradientUnits="userSpaceOnUse" x1="14.6113" y1="205.7891" x2="52.8721" y2="205.7891" gradientTransform="matrix(0.75 0 0 -0.75 300.772 368.9463)">
		<stop  offset="0" style="stop-color:#322E2D"/>
		<stop  offset="0.22" style="stop-color:#3A3534"/>
		<stop  offset="0.57" style="stop-color:#B8B7B7"/>
		<stop  offset="0.84" style="stop-color:#868584"/>
		<stop  offset="1" style="stop-color:#373332"/>
	</linearGradient>
	<path fill="url(#SVGID_12_)" d="M312.48,208.98h27.75c0,0,0.195,0.203,0.195,0.457l-0.195,10.043c0,0-0.031,0.418-0.289,0.418
		l-27.461,0.332c-0.75,0-0.75-0.535-0.75-0.789v-9.711c0-0.75,0.203-0.75,0.457-0.75H312.48z"/>
	
		<linearGradient id="SVGID_13_" gradientUnits="userSpaceOnUse" x1="120.6152" y1="177.7871" x2="14.6152" y2="177.7871" gradientTransform="matrix(0.75 0 0 -0.75 219.5034 223.0537)">
		<stop  offset="0" style="stop-color:#B5B5B5"/>
		<stop  offset="0.03" style="stop-color:#FFFFFF"/>
		<stop  offset="0.08" style="stop-color:#EBEBEB"/>
		<stop  offset="0.64" style="stop-color:#E7E7E7"/>
		<stop  offset="0.95" style="stop-color:#E2E2E2"/>
		<stop  offset="1" style="stop-color:#A8A8A8"/>
	</linearGradient>
	<path fill="url(#SVGID_13_)" d="M230.465,116.34h79.5V63.09h-79.5V116.34z"/>
	
		<linearGradient id="SVGID_14_" gradientUnits="userSpaceOnUse" x1="70.6118" y1="194.7881" x2="14.6118" y2="194.7881" gradientTransform="matrix(0.75 0 0 -0.75 178.5527 248.4414)">
		<stop  offset="0" style="stop-color:#B5B5B5"/>
		<stop  offset="0.03" style="stop-color:#FFFFFF"/>
		<stop  offset="0.08" style="stop-color:#EBEBEB"/>
		<stop  offset="0.64" style="stop-color:#E7E7E7"/>
		<stop  offset="0.95" style="stop-color:#E2E2E2"/>
		<stop  offset="1" style="stop-color:#A8A8A8"/>
	</linearGradient>
	<path fill="url(#SVGID_14_)" d="M189.512,116.227h42v-27.75h-42V116.227z"/>
</g>
</svg>
