<?xml version="1.0" encoding="utf-8"?>
<!-- Generator: Adobe Illustrator 16.0.0, SVG Export Plug-In . SVG Version: 6.00 Build 0)  -->
<!DOCTYPE svg PUBLIC "-//W3C//DTD SVG 1.1//EN" "http://www.w3.org/Graphics/SVG/1.1/DTD/svg11.dtd">
<svg preserveAspectRatio="none" version="1.1" id="图层_1" xmlns="http://www.w3.org/2000/svg" xmlns:xlink="http://www.w3.org/1999/xlink" x="0px" y="0px"
	 width="340.813px" height="304.5px" viewBox="30 -10.648 340.813 304.5" enable-background="new 30 -10.648 340.813 304.5"
	 xml:space="preserve">
<g id="surface646">
	
		<linearGradient id="SVGID_1_" gradientUnits="userSpaceOnUse" x1="236.1113" y1="213.2842" x2="236.1113" y2="168.1074" gradientTransform="matrix(0.75 0 0 -0.75 24.0527 185.4355)">
		<stop  offset="0" style="stop-color:#B4954F"/>
		<stop  offset="0.03" style="stop-color:#FEDD9C"/>
		<stop  offset="0.08" style="stop-color:#EAC268"/>
		<stop  offset="0.64" style="stop-color:#E6BF67"/>
		<stop  offset="0.95" style="stop-color:#E1BB64"/>
		<stop  offset="1" style="stop-color:#A78A48"/>
	</linearGradient>
	<path fill="url(#SVGID_1_)" d="M36.512,25.473h329.25c0.75,0,1.25,0.617,1.25,1.383l0.25,30.867c0,0.75-0.918,1.633-1.688,1.633
		L36.512,59.223c-0.75,0-1.5-0.484-1.5-1.25v-31c0-0.75,0.594-1.5,1.363-1.5H36.512z"/>
	
		<linearGradient id="SVGID_2_" gradientUnits="userSpaceOnUse" x1="191.9272" y1="86.6069" x2="14.6147" y2="86.6069" gradientTransform="matrix(0.75 0 0 -0.75 21.1362 232.3418)">
		<stop  offset="0" style="stop-color:#C7AD86"/>
		<stop  offset="0.15" style="stop-color:#FFE6C5"/>
		<stop  offset="0.25" style="stop-color:#FFE8C9"/>
		<stop  offset="0.52" style="stop-color:#DFC297"/>
		<stop  offset="0.69" style="stop-color:#C7AD86"/>
		<stop  offset="0.8" style="stop-color:#BCA37E"/>
		<stop  offset="0.92" style="stop-color:#B19A77"/>
	</linearGradient>
	<path fill="url(#SVGID_2_)" d="M32.098,91.129c0,0,2.691-15.211,38.523-18.75c-0.273,0,55.922,0,55.922,0
		c36.055,1.5,38.539,18.645,38.539,18.645l-0.234,145.605c0,0-0.867,25.766-66.5,25.766c-65.5-0.266-66.25-25.484-66.25-25.484
		V91.129z"/>
	
		<linearGradient id="SVGID_3_" gradientUnits="userSpaceOnUse" x1="191.6147" y1="193.9561" x2="14.6147" y2="193.956" gradientTransform="matrix(0.75 0 0 -0.75 21.1362 393.3594)">
		<stop  offset="0" style="stop-color:#C7AD86"/>
		<stop  offset="0.15" style="stop-color:#FFE6C5"/>
		<stop  offset="0.25" style="stop-color:#FFE8C9"/>
		<stop  offset="0.52" style="stop-color:#DFC297"/>
		<stop  offset="0.69" style="stop-color:#C7AD86"/>
		<stop  offset="0.8" style="stop-color:#BCA37E"/>
		<stop  offset="0.92" style="stop-color:#B19A77"/>
	</linearGradient>
	<path fill="url(#SVGID_3_)" d="M164.848,233.395c0,0-0.867,28.996-66.5,28.996c-65.5,0.254-66.25-28.996-66.25-28.996H164.848z"/>
	
		<linearGradient id="SVGID_4_" gradientUnits="userSpaceOnUse" x1="191.6108" y1="212.2891" x2="14.6108" y2="212.289" gradientTransform="matrix(0.75 0 0 -0.75 21.186 257.0752)">
		<stop  offset="0" style="stop-color:#C29D24"/>
		<stop  offset="0.15" style="stop-color:#FAD88C"/>
		<stop  offset="0.25" style="stop-color:#FBDB98"/>
		<stop  offset="0.52" style="stop-color:#DAB12A"/>
		<stop  offset="0.69" style="stop-color:#C29D24"/>
		<stop  offset="0.8" style="stop-color:#B79421"/>
		<stop  offset="0.92" style="stop-color:#AD8B1F"/>
	</linearGradient>
	<path fill="url(#SVGID_4_)" d="M32.145,97.109h132.75v1.5H32.145V97.109z"/>
	
		<linearGradient id="SVGID_5_" gradientUnits="userSpaceOnUse" x1="192.6118" y1="212.2871" x2="14.6118" y2="212.2871" gradientTransform="matrix(0.75 0 0 -0.75 21.0562 392.6719)">
		<stop  offset="0" style="stop-color:#C29D24"/>
		<stop  offset="0.15" style="stop-color:#FAD88C"/>
		<stop  offset="0.25" style="stop-color:#FBDB98"/>
		<stop  offset="0.52" style="stop-color:#DAB12A"/>
		<stop  offset="0.69" style="stop-color:#C29D24"/>
		<stop  offset="0.8" style="stop-color:#B79421"/>
		<stop  offset="0.92" style="stop-color:#AD8B1F"/>
	</linearGradient>
	<path fill="url(#SVGID_5_)" d="M32.016,232.707h133.5v1.5h-133.5V232.707z"/>
	
		<linearGradient id="SVGID_6_" gradientUnits="userSpaceOnUse" x1="191.6108" y1="212.2881" x2="14.6108" y2="212.2881" gradientTransform="matrix(0.75 0 0 -0.75 21.186 261.875)">
		<stop  offset="0" style="stop-color:#C29D24"/>
		<stop  offset="0.15" style="stop-color:#FAD88C"/>
		<stop  offset="0.25" style="stop-color:#FBDB98"/>
		<stop  offset="0.52" style="stop-color:#DAB12A"/>
		<stop  offset="0.69" style="stop-color:#C29D24"/>
		<stop  offset="0.8" style="stop-color:#B79421"/>
		<stop  offset="0.92" style="stop-color:#AD8B1F"/>
	</linearGradient>
	<path fill="url(#SVGID_6_)" d="M32.145,101.91h132.75v1.5H32.145V101.91z"/>
	
		<linearGradient id="SVGID_7_" gradientUnits="userSpaceOnUse" x1="192.6118" y1="212.2852" x2="14.6118" y2="212.2851" gradientTransform="matrix(0.75 0 0 -0.75 21.0562 397.791)">
		<stop  offset="0" style="stop-color:#C29D24"/>
		<stop  offset="0.15" style="stop-color:#FAD88C"/>
		<stop  offset="0.25" style="stop-color:#FBDB98"/>
		<stop  offset="0.52" style="stop-color:#DAB12A"/>
		<stop  offset="0.69" style="stop-color:#C29D24"/>
		<stop  offset="0.8" style="stop-color:#B79421"/>
		<stop  offset="0.92" style="stop-color:#AD8B1F"/>
	</linearGradient>
	<path fill="url(#SVGID_7_)" d="M32.016,237.828h133.5v1.5h-133.5V237.828z"/>
	
		<linearGradient id="SVGID_8_" gradientUnits="userSpaceOnUse" x1="89.6138" y1="204.7891" x2="14.6138" y2="204.7891" gradientTransform="matrix(0.75 0 0 -0.75 59.6606 219.3643)">
		<stop  offset="0" style="stop-color:#C7AD86"/>
		<stop  offset="0.15" style="stop-color:#FFE6C5"/>
		<stop  offset="0.25" style="stop-color:#FFE8C9"/>
		<stop  offset="0.52" style="stop-color:#DFC297"/>
		<stop  offset="0.69" style="stop-color:#C7AD86"/>
		<stop  offset="0.8" style="stop-color:#BCA37E"/>
		<stop  offset="0.92" style="stop-color:#B19A77"/>
	</linearGradient>
	<path fill="url(#SVGID_8_)" d="M70.621,72.148h56.25v-12.75h-56.25V72.148z"/>
	
		<linearGradient id="SVGID_9_" gradientUnits="userSpaceOnUse" x1="191.9263" y1="86.6069" x2="14.6138" y2="86.6069" gradientTransform="matrix(0.75 0 0 -0.75 226.4224 232.3418)">
		<stop  offset="0" style="stop-color:#C7AD86"/>
		<stop  offset="0.15" style="stop-color:#FFE6C5"/>
		<stop  offset="0.25" style="stop-color:#FFE8C9"/>
		<stop  offset="0.52" style="stop-color:#DFC297"/>
		<stop  offset="0.69" style="stop-color:#C7AD86"/>
		<stop  offset="0.8" style="stop-color:#BCA37E"/>
		<stop  offset="0.92" style="stop-color:#B19A77"/>
	</linearGradient>
	<path fill="url(#SVGID_9_)" d="M237.383,91.129c0,0,2.691-15.211,38.523-18.75c-0.273,0,55.922,0,55.922,0
		c36.055,1.5,38.539,18.645,38.539,18.645l-0.234,145.605c0,0-0.867,25.766-66.496,25.766
		c-65.504-0.266-66.254-25.484-66.254-25.484V91.129z"/>
	
		<linearGradient id="SVGID_10_" gradientUnits="userSpaceOnUse" x1="191.6138" y1="193.9561" x2="14.6138" y2="193.956" gradientTransform="matrix(0.75 0 0 -0.75 226.4224 393.3594)">
		<stop  offset="0" style="stop-color:#C7AD86"/>
		<stop  offset="0.15" style="stop-color:#FFE6C5"/>
		<stop  offset="0.25" style="stop-color:#FFE8C9"/>
		<stop  offset="0.52" style="stop-color:#DFC297"/>
		<stop  offset="0.69" style="stop-color:#C7AD86"/>
		<stop  offset="0.8" style="stop-color:#BCA37E"/>
		<stop  offset="0.92" style="stop-color:#B19A77"/>
	</linearGradient>
	<path fill="url(#SVGID_10_)" d="M370.133,233.395c0,0-0.867,28.996-66.496,28.996c-65.504,0.254-66.254-28.996-66.254-28.996
		H370.133z"/>
	
		<linearGradient id="SVGID_11_" gradientUnits="userSpaceOnUse" x1="191.6138" y1="212.2891" x2="14.6138" y2="212.289" gradientTransform="matrix(0.75 0 0 -0.75 226.4727 257.0752)">
		<stop  offset="0" style="stop-color:#C29D24"/>
		<stop  offset="0.15" style="stop-color:#FAD88C"/>
		<stop  offset="0.25" style="stop-color:#FBDB98"/>
		<stop  offset="0.52" style="stop-color:#DAB12A"/>
		<stop  offset="0.69" style="stop-color:#C29D24"/>
		<stop  offset="0.8" style="stop-color:#B79421"/>
		<stop  offset="0.92" style="stop-color:#AD8B1F"/>
	</linearGradient>
	<path fill="url(#SVGID_11_)" d="M237.434,97.109h132.75v1.5h-132.75V97.109z"/>
	
		<linearGradient id="SVGID_12_" gradientUnits="userSpaceOnUse" x1="192.6118" y1="212.2871" x2="14.6118" y2="212.2871" gradientTransform="matrix(0.75 0 0 -0.75 226.3418 392.6719)">
		<stop  offset="0" style="stop-color:#C29D24"/>
		<stop  offset="0.15" style="stop-color:#FAD88C"/>
		<stop  offset="0.25" style="stop-color:#FBDB98"/>
		<stop  offset="0.52" style="stop-color:#DAB12A"/>
		<stop  offset="0.69" style="stop-color:#C29D24"/>
		<stop  offset="0.8" style="stop-color:#B79421"/>
		<stop  offset="0.92" style="stop-color:#AD8B1F"/>
	</linearGradient>
	<path fill="url(#SVGID_12_)" d="M237.301,232.707h133.5v1.5h-133.5V232.707z"/>
	
		<linearGradient id="SVGID_13_" gradientUnits="userSpaceOnUse" x1="191.6138" y1="212.2881" x2="14.6138" y2="212.2881" gradientTransform="matrix(0.75 0 0 -0.75 226.4727 261.875)">
		<stop  offset="0" style="stop-color:#C29D24"/>
		<stop  offset="0.15" style="stop-color:#FAD88C"/>
		<stop  offset="0.25" style="stop-color:#FBDB98"/>
		<stop  offset="0.52" style="stop-color:#DAB12A"/>
		<stop  offset="0.69" style="stop-color:#C29D24"/>
		<stop  offset="0.8" style="stop-color:#B79421"/>
		<stop  offset="0.92" style="stop-color:#AD8B1F"/>
	</linearGradient>
	<path fill="url(#SVGID_13_)" d="M237.434,101.91h132.75v1.5h-132.75V101.91z"/>
	
		<linearGradient id="SVGID_14_" gradientUnits="userSpaceOnUse" x1="192.6118" y1="212.2852" x2="14.6118" y2="212.2851" gradientTransform="matrix(0.75 0 0 -0.75 226.3418 397.791)">
		<stop  offset="0" style="stop-color:#C29D24"/>
		<stop  offset="0.15" style="stop-color:#FAD88C"/>
		<stop  offset="0.25" style="stop-color:#FBDB98"/>
		<stop  offset="0.52" style="stop-color:#DAB12A"/>
		<stop  offset="0.69" style="stop-color:#C29D24"/>
		<stop  offset="0.8" style="stop-color:#B79421"/>
		<stop  offset="0.92" style="stop-color:#AD8B1F"/>
	</linearGradient>
	<path fill="url(#SVGID_14_)" d="M237.301,237.828h133.5v1.5h-133.5V237.828z"/>
	
		<linearGradient id="SVGID_15_" gradientUnits="userSpaceOnUse" x1="89.6118" y1="204.7891" x2="14.6118" y2="204.7891" gradientTransform="matrix(0.75 0 0 -0.75 264.9468 219.3643)">
		<stop  offset="0" style="stop-color:#C7AD86"/>
		<stop  offset="0.15" style="stop-color:#FFE6C5"/>
		<stop  offset="0.25" style="stop-color:#FFE8C9"/>
		<stop  offset="0.52" style="stop-color:#DFC297"/>
		<stop  offset="0.69" style="stop-color:#C7AD86"/>
		<stop  offset="0.8" style="stop-color:#BCA37E"/>
		<stop  offset="0.92" style="stop-color:#B19A77"/>
	</linearGradient>
	<path fill="url(#SVGID_15_)" d="M275.906,72.148h56.25v-12.75h-56.25V72.148z"/>
	
		<linearGradient id="SVGID_16_" gradientUnits="userSpaceOnUse" x1="111.6128" y1="10.2896" x2="14.6128" y2="10.2895" gradientTransform="matrix(0.75 0 0 -0.75 153.7632 149.3184)">
		<stop  offset="0" style="stop-color:#B4954F"/>
		<stop  offset="0.03" style="stop-color:#FEDD9C"/>
		<stop  offset="0.08" style="stop-color:#EAC268"/>
		<stop  offset="0.64" style="stop-color:#E6BF67"/>
		<stop  offset="0.95" style="stop-color:#E1BB64"/>
		<stop  offset="1" style="stop-color:#A78A48"/>
	</linearGradient>
	<path fill="url(#SVGID_16_)" d="M166.223-10.648h69.75c0.75,0,1.328,0.59,1.328,1.352l0.172,301.648c0,0.75-0.84,1.281-1.609,1.281
		l-69.641,0.219c-0.75,0-1.5-0.871-1.5-1.633V-9.148c0-0.75,0.625-1.5,1.395-1.5H166.223z"/>
	
		<linearGradient id="SVGID_17_" gradientUnits="userSpaceOnUse" x1="81.1128" y1="213.3359" x2="81.1128" y2="171.8408" gradientTransform="matrix(0.75 0 0 -0.75 19.04 174.5215)">
		<stop  offset="0" style="stop-color:#B4954F"/>
		<stop  offset="0.03" style="stop-color:#FEDD9C"/>
		<stop  offset="0.08" style="stop-color:#EAC268"/>
		<stop  offset="0.64" style="stop-color:#E6BF67"/>
		<stop  offset="0.95" style="stop-color:#E1BB64"/>
		<stop  offset="1" style="stop-color:#A78A48"/>
	</linearGradient>
	<path fill="url(#SVGID_17_)" d="M31.5,14.559h96.75c0.75,0,1.137,0.582,1.137,1.344l0.363,28.656c0,0.75-1.004,1.082-1.777,1.082
		L31.5,45.309c-0.75,0-1.5-0.285-1.5-1.051V16.059c0-0.75,0.605-1.539,1.375-1.539L31.5,14.559z"/>
	
		<linearGradient id="SVGID_18_" gradientUnits="userSpaceOnUse" x1="81.1147" y1="213.3359" x2="81.1147" y2="171.8408" gradientTransform="matrix(0.75 0 0 -0.75 260.1016 174.5215)">
		<stop  offset="0" style="stop-color:#B4954F"/>
		<stop  offset="0.03" style="stop-color:#FEDD9C"/>
		<stop  offset="0.08" style="stop-color:#EAC268"/>
		<stop  offset="0.64" style="stop-color:#E6BF67"/>
		<stop  offset="0.95" style="stop-color:#E1BB64"/>
		<stop  offset="1" style="stop-color:#A78A48"/>
	</linearGradient>
	<path fill="url(#SVGID_18_)" d="M272.563,14.559h96.75c0.75,0,1.137,0.582,1.137,1.344l0.363,28.656
		c0,0.75-1.008,1.082-1.777,1.082l-96.473-0.332c-0.75,0-1.5-0.285-1.5-1.051V16.059c0-0.75,0.605-1.539,1.375-1.539L272.563,14.559
		z"/>
	
		<linearGradient id="SVGID_19_" gradientUnits="userSpaceOnUse" x1="42.9536" y1="10.2896" x2="14.6157" y2="10.2895" gradientTransform="matrix(0.75 0 0 -0.75 179.4248 149.3184)">
		<stop  offset="0" style="stop-color:#B4954F"/>
		<stop  offset="0.03" style="stop-color:#FEDD9C"/>
		<stop  offset="0.08" style="stop-color:#EAC268"/>
		<stop  offset="0.64" style="stop-color:#E6BF67"/>
		<stop  offset="0.95" style="stop-color:#E1BB64"/>
		<stop  offset="1" style="stop-color:#A78A48"/>
	</linearGradient>
	<path fill="url(#SVGID_19_)" d="M191.137-10.648h20.25c0,0,0.254,0.59,0.254,1.352l-0.254,301.648c0,0.75,0.059,1.281-0.168,1.281
		l-20.082,0.219c-0.75,0-0.75-0.871-0.75-1.633V-9.148c0-0.75,0.18-1.5,0.406-1.5H191.137z"/>
</g>
</svg>
