<?xml version="1.0" encoding="utf-8"?>
<!-- Generator: Adobe Illustrator 16.0.0, SVG Export Plug-In . SVG Version: 6.00 Build 0)  -->
<!DOCTYPE svg PUBLIC "-//W3C//DTD SVG 1.1//EN" "http://www.w3.org/Graphics/SVG/1.1/DTD/svg11.dtd">
<svg preserveAspectRatio="none" version="1.1" id="图层_1" xmlns="http://www.w3.org/2000/svg" xmlns:xlink="http://www.w3.org/1999/xlink" x="0px" y="0px"
	 width="340.473px" height="260.016px" viewBox="30 11.559 340.473 260.016" enable-background="new 30 11.559 340.473 260.016"
	 xml:space="preserve">
<g id="surface676">
	
		<linearGradient id="SVGID_1_" gradientUnits="userSpaceOnUse" x1="43.6157" y1="185.2881" x2="14.6157" y2="185.2881" gradientTransform="matrix(0.75 0 0 -0.75 108.3428 171.5234)">
		<stop  offset="0" style="stop-color:#A8A8A8"/>
		<stop  offset="0.01" style="stop-color:#F2F2F2"/>
		<stop  offset="0.03" style="stop-color:#DBDBDB"/>
		<stop  offset="0.64" style="stop-color:#D8D8D8"/>
		<stop  offset="0.99" style="stop-color:#D3D3D3"/>
		<stop  offset="1" style="stop-color:#9C9C9C"/>
	</linearGradient>
	<path fill="url(#SVGID_1_)" d="M122.305,11.559h15.75c1.5,0,2.871,1.223,2.871,2.781l0.129,39.219h-21.75v-39c0-1.5,1.219-3,2.77-3
		H122.305z"/>
	
		<linearGradient id="SVGID_2_" gradientUnits="userSpaceOnUse" x1="43.6108" y1="185.2881" x2="14.6108" y2="185.2881" gradientTransform="matrix(0.75 0 0 -0.75 249.6743 171.5234)">
		<stop  offset="0" style="stop-color:#A8A8A8"/>
		<stop  offset="0.01" style="stop-color:#F2F2F2"/>
		<stop  offset="0.03" style="stop-color:#DBDBDB"/>
		<stop  offset="0.64" style="stop-color:#D8D8D8"/>
		<stop  offset="0.99" style="stop-color:#D3D3D3"/>
		<stop  offset="1" style="stop-color:#9C9C9C"/>
	</linearGradient>
	<path fill="url(#SVGID_2_)" d="M263.633,11.559h15.75c1.5,0,2.871,1.223,2.871,2.781l0.129,39.219h-21.75v-39
		c0-1.5,1.223-3,2.773-3H263.633z"/>
	
		<linearGradient id="SVGID_3_" gradientUnits="userSpaceOnUse" x1="30.6147" y1="203.7881" x2="14.6147" y2="203.7881" gradientTransform="matrix(0.75 0 0 -0.75 44.1445 200.7461)">
		<stop  offset="0" style="stop-color:#C4C4C4"/>
		<stop  offset="0.15" style="stop-color:#FFFFFF"/>
		<stop  offset="0.25" style="stop-color:#FFFFFF"/>
		<stop  offset="0.52" style="stop-color:#DFDFDF"/>
		<stop  offset="0.69" style="stop-color:#C7C7C7"/>
		<stop  offset="0.8" style="stop-color:#BCBCBC"/>
		<stop  offset="0.97" style="stop-color:#B1B1B1"/>
		<stop  offset="1" style="stop-color:#CBCBCB"/>
	</linearGradient>
	<path fill="url(#SVGID_3_)" d="M57.355,40.781h6.75c1.5,0,2.797,1.105,2.797,2.469l0.203,11.781h-12v-12
		c0-1.5,1.102-2.25,2.461-2.25H57.355z"/>
	
		<linearGradient id="SVGID_4_" gradientUnits="userSpaceOnUse" x1="30.6152" y1="203.7881" x2="14.6152" y2="203.7881" gradientTransform="matrix(0.75 0 0 -0.75 113.7651 200.7461)">
		<stop  offset="0" style="stop-color:#C4C4C4"/>
		<stop  offset="0.15" style="stop-color:#FFFFFF"/>
		<stop  offset="0.25" style="stop-color:#FFFFFF"/>
		<stop  offset="0.52" style="stop-color:#DFDFDF"/>
		<stop  offset="0.69" style="stop-color:#C7C7C7"/>
		<stop  offset="0.8" style="stop-color:#BCBCBC"/>
		<stop  offset="0.97" style="stop-color:#B1B1B1"/>
		<stop  offset="1" style="stop-color:#CBCBCB"/>
	</linearGradient>
	<path fill="url(#SVGID_4_)" d="M126.977,40.781h6.75c1.5,0,2.797,1.105,2.797,2.469l0.203,11.781h-12v-12
		c0-1.5,1.102-2.25,2.461-2.25H126.977z"/>
	
		<linearGradient id="SVGID_5_" gradientUnits="userSpaceOnUse" x1="30.6152" y1="203.7881" x2="14.6152" y2="203.7881" gradientTransform="matrix(0.75 0 0 -0.75 183.3745 200.7461)">
		<stop  offset="0" style="stop-color:#C4C4C4"/>
		<stop  offset="0.15" style="stop-color:#FFFFFF"/>
		<stop  offset="0.25" style="stop-color:#FFFFFF"/>
		<stop  offset="0.52" style="stop-color:#DFDFDF"/>
		<stop  offset="0.69" style="stop-color:#C7C7C7"/>
		<stop  offset="0.8" style="stop-color:#BCBCBC"/>
		<stop  offset="0.97" style="stop-color:#B1B1B1"/>
		<stop  offset="1" style="stop-color:#CBCBCB"/>
	</linearGradient>
	<path fill="url(#SVGID_5_)" d="M196.586,40.781h6.75c1.5,0,2.797,1.105,2.797,2.469l0.203,11.781h-12v-12
		c0-1.5,1.102-2.25,2.461-2.25H196.586z"/>
	
		<linearGradient id="SVGID_6_" gradientUnits="userSpaceOnUse" x1="30.6133" y1="203.7881" x2="14.6133" y2="203.7881" gradientTransform="matrix(0.75 0 0 -0.75 322.6255 200.7461)">
		<stop  offset="0" style="stop-color:#C4C4C4"/>
		<stop  offset="0.15" style="stop-color:#FFFFFF"/>
		<stop  offset="0.25" style="stop-color:#FFFFFF"/>
		<stop  offset="0.52" style="stop-color:#DFDFDF"/>
		<stop  offset="0.69" style="stop-color:#C7C7C7"/>
		<stop  offset="0.8" style="stop-color:#BCBCBC"/>
		<stop  offset="0.97" style="stop-color:#B1B1B1"/>
		<stop  offset="1" style="stop-color:#CBCBCB"/>
	</linearGradient>
	<path fill="url(#SVGID_6_)" d="M335.836,40.781h6.75c1.5,0,2.797,1.105,2.797,2.469l0.203,11.781h-12v-12
		c0-1.5,1.102-2.25,2.461-2.25H335.836z"/>
	
		<linearGradient id="SVGID_7_" gradientUnits="userSpaceOnUse" x1="30.6147" y1="203.7881" x2="14.6147" y2="203.7881" gradientTransform="matrix(0.75 0 0 -0.75 254.1597 200.7461)">
		<stop  offset="0" style="stop-color:#C4C4C4"/>
		<stop  offset="0.15" style="stop-color:#FFFFFF"/>
		<stop  offset="0.25" style="stop-color:#FFFFFF"/>
		<stop  offset="0.52" style="stop-color:#DFDFDF"/>
		<stop  offset="0.69" style="stop-color:#C7C7C7"/>
		<stop  offset="0.8" style="stop-color:#BCBCBC"/>
		<stop  offset="0.97" style="stop-color:#B1B1B1"/>
		<stop  offset="1" style="stop-color:#CBCBCB"/>
	</linearGradient>
	<path fill="url(#SVGID_7_)" d="M267.371,40.781h6.75c1.5,0,2.797,1.105,2.797,2.469l0.203,11.781h-12v-12
		c0-1.5,1.102-2.25,2.461-2.25H267.371z"/>
	
		<linearGradient id="SVGID_8_" gradientUnits="userSpaceOnUse" x1="381.6143" y1="83.2837" x2="14.6143" y2="83.2837" gradientTransform="matrix(0.75 0 0 -0.75 51.8394 236.5371)">
		<stop  offset="0" style="stop-color:#C4C4C4"/>
		<stop  offset="0.15" style="stop-color:#FFFFFF"/>
		<stop  offset="0.25" style="stop-color:#FFFFFF"/>
		<stop  offset="0.52" style="stop-color:#DFDFDF"/>
		<stop  offset="0.69" style="stop-color:#C7C7C7"/>
		<stop  offset="0.8" style="stop-color:#BCBCBC"/>
		<stop  offset="0.97" style="stop-color:#B1B1B1"/>
		<stop  offset="1" style="stop-color:#CBCBCB"/>
	</linearGradient>
	<path fill="url(#SVGID_8_)" d="M65.051,76.574h270c1.5,0,2.648,1.32,2.648,3.055l0.352,188.945c0,1.5-1.453,2.848-2.813,2.848
		l-270.188,0.152c-1.5,0-2.25-1.598-2.25-3.332V79.574c0-1.5,1.035-3,2.398-3H65.051z"/>
	
		<linearGradient id="SVGID_9_" gradientUnits="userSpaceOnUse" x1="425.0088" y1="205.3291" x2="14.6128" y2="205.3291" gradientTransform="matrix(0.75 0 0 -0.75 35.3916 225.7383)">
		<stop  offset="0" style="stop-color:#C4C4C4"/>
		<stop  offset="0.15" style="stop-color:#FFFFFF"/>
		<stop  offset="0.25" style="stop-color:#FFFFFF"/>
		<stop  offset="0.52" style="stop-color:#DFDFDF"/>
		<stop  offset="0.69" style="stop-color:#C7C7C7"/>
		<stop  offset="0.8" style="stop-color:#BCBCBC"/>
		<stop  offset="0.97" style="stop-color:#B1B1B1"/>
		<stop  offset="1" style="stop-color:#CBCBCB"/>
	</linearGradient>
	<path fill="url(#SVGID_9_)" d="M48.602,65.773h303c1.5,0,2.547,1.039,2.547,2.402l-0.297,6.598c0,1.5-0.871,2.668-2.23,2.668
		l-303.02,0.332c-1.5,0-2.25-1.445-2.25-2.809v-6.941c0-1.5,1.039-2.313,2.398-2.313L48.602,65.773z"/>
	
		<linearGradient id="SVGID_10_" gradientUnits="userSpaceOnUse" x1="425.0088" y1="205.3311" x2="14.6128" y2="205.331" gradientTransform="matrix(0.75 0 0 -0.75 35.3916 214.0713)">
		<stop  offset="0" style="stop-color:#C4C4C4"/>
		<stop  offset="0.15" style="stop-color:#FFFFFF"/>
		<stop  offset="0.25" style="stop-color:#FFFFFF"/>
		<stop  offset="0.52" style="stop-color:#DFDFDF"/>
		<stop  offset="0.69" style="stop-color:#C7C7C7"/>
		<stop  offset="0.8" style="stop-color:#BCBCBC"/>
		<stop  offset="0.97" style="stop-color:#B1B1B1"/>
		<stop  offset="1" style="stop-color:#CBCBCB"/>
	</linearGradient>
	<path fill="url(#SVGID_10_)" d="M48.602,54.105h303c1.5,0,2.547,1.043,2.547,2.406l-0.297,6.594c0,1.5-0.871,2.668-2.23,2.668
		l-303.02,0.332c-1.5,0-2.25-1.445-2.25-2.809v-6.941c0-1.5,1.039-2.313,2.398-2.313L48.602,54.105z"/>
	
		<linearGradient id="SVGID_11_" gradientUnits="userSpaceOnUse" x1="94.6187" y1="205.0605" x2="14.6128" y2="205.0605" gradientTransform="matrix(0.75 0 0 -0.75 19.04 419.0439)">
		<stop  offset="0" style="stop-color:#A8A8A8"/>
		<stop  offset="0.01" style="stop-color:#F2F2F2"/>
		<stop  offset="0.03" style="stop-color:#DBDBDB"/>
		<stop  offset="0.64" style="stop-color:#D8D8D8"/>
		<stop  offset="0.99" style="stop-color:#D3D3D3"/>
		<stop  offset="1" style="stop-color:#9C9C9C"/>
	</linearGradient>
	<path fill="url(#SVGID_11_)" d="M32.25,259.078h55.5c1.5,0,2.254,1.105,2.254,2.469L90,268.828c0,1.5-1.098,2.594-2.457,2.594
		l-55.293-0.344c-1.5,0-2.25-0.762-2.25-2.125v-7.625c0-1.5,1.102-2.25,2.461-2.25H32.25z"/>
	
		<linearGradient id="SVGID_12_" gradientUnits="userSpaceOnUse" x1="94.6167" y1="205.0605" x2="14.6118" y2="205.0605" gradientTransform="matrix(0.75 0 0 -0.75 299.5098 419.0439)">
		<stop  offset="0" style="stop-color:#A8A8A8"/>
		<stop  offset="0.01" style="stop-color:#F2F2F2"/>
		<stop  offset="0.03" style="stop-color:#DBDBDB"/>
		<stop  offset="0.64" style="stop-color:#D8D8D8"/>
		<stop  offset="0.99" style="stop-color:#D3D3D3"/>
		<stop  offset="1" style="stop-color:#9C9C9C"/>
	</linearGradient>
	<path fill="url(#SVGID_12_)" d="M312.719,259.078h55.5c1.5,0,2.254,1.105,2.254,2.469l-0.004,7.281c0,1.5-1.098,2.594-2.457,2.594
		l-55.293-0.344c-1.5,0-2.25-0.762-2.25-2.125v-7.625c0-1.5,1.102-2.25,2.461-2.25H312.719z"/>
	
		<linearGradient id="SVGID_13_" gradientUnits="userSpaceOnUse" x1="381.6143" y1="210.6338" x2="14.6143" y2="210.6338" gradientTransform="matrix(0.75 0 0 -0.75 51.8394 236.5371)">
		<stop  offset="0" style="stop-color:#A8A8A9"/>
		<stop  offset="0.15" style="stop-color:#DEDEDF"/>
		<stop  offset="0.25" style="stop-color:#EDEDED"/>
		<stop  offset="0.52" style="stop-color:#C0C0C1"/>
		<stop  offset="0.69" style="stop-color:#ABABAC"/>
		<stop  offset="0.8" style="stop-color:#A1A1A2"/>
		<stop  offset="0.97" style="stop-color:#989899"/>
		<stop  offset="1" style="stop-color:#AFAFB0"/>
	</linearGradient>
	<path fill="url(#SVGID_13_)" d="M65.051,76.574h270c1.5,0,2.648,0.027,2.648,0.063l0.352,3.688c0,0-1.453,0.227-2.813,0.227
		L65.051,80.324c-1.5,0-2.25,0.195-2.25,0.16v-3.91c0,0,1.035,0,2.398,0H65.051z"/>
	
		<linearGradient id="SVGID_14_" gradientUnits="userSpaceOnUse" x1="76.8765" y1="182.1123" x2="14.5483" y2="182.1123" gradientTransform="matrix(0.75 0 0 -0.75 107.0024 278.4619)">
		<stop  offset="0" style="stop-color:#9D9D9D"/>
		<stop  offset="0.15" style="stop-color:#D0D1D1"/>
		<stop  offset="0.25" style="stop-color:#E5E6E6"/>
		<stop  offset="0.52" style="stop-color:#B3B4B4"/>
		<stop  offset="0.69" style="stop-color:#9FA0A0"/>
		<stop  offset="0.8" style="stop-color:#969797"/>
		<stop  offset="0.97" style="stop-color:#8E8E8E"/>
		<stop  offset="1" style="stop-color:#A3A4A4"/>
	</linearGradient>
	<path fill="url(#SVGID_14_)" d="M117.961,141.746c0-12.75,10.418-23.297,23.328-23.297c12.672,0.047,23.371,10.488,23.371,23.43
		c-0.199,12.617-10.465,23.43-23.371,23.43c-12.828-0.313-23.375-10.488-23.375-23.43L117.961,141.746z"/>
	
		<linearGradient id="SVGID_15_" gradientUnits="userSpaceOnUse" x1="67.0117" y1="187.0752" x2="14.6104" y2="187.0752" gradientTransform="matrix(0.75 0 0 -0.75 110.7021 282.207)">
		<stop  offset="0" style="stop-color:#C4C4C4"/>
		<stop  offset="0.15" style="stop-color:#FFFFFF"/>
		<stop  offset="0.25" style="stop-color:#FFFFFF"/>
		<stop  offset="0.52" style="stop-color:#DFDFDF"/>
		<stop  offset="0.69" style="stop-color:#C7C7C7"/>
		<stop  offset="0.8" style="stop-color:#BCBCBC"/>
		<stop  offset="0.97" style="stop-color:#B1B1B1"/>
		<stop  offset="1" style="stop-color:#CBCBCB"/>
	</linearGradient>
	<path fill="url(#SVGID_15_)" d="M121.66,141.742c0-10.5,8.781-19.551,19.676-19.551c11.074,0.051,19.625,8.828,19.625,19.734
		c-0.301,11.066-8.801,19.688-19.625,19.688c-10.676-0.371-19.676-8.824-19.676-19.688V141.742z"/>
	<path fill="#717070" d="M123.816,141.613c0-9.75,7.844-17.25,17.52-17.25c9.48,0,17.52,7.84,17.52,17.563
		c0.211,9.438-7.844,17.566-17.52,17.566c-10.02,0.121-17.52-7.891-17.52-17.566V141.613z"/>
	
		<linearGradient id="SVGID_16_" gradientUnits="userSpaceOnUse" x1="57.6118" y1="194.2881" x2="14.6118" y2="194.2881" gradientTransform="matrix(0.75 0 0 -0.75 114.1543 287.8096)">
		<stop  offset="0" style="stop-color:#C4C4C4"/>
		<stop  offset="0.15" style="stop-color:#FFFFFF"/>
		<stop  offset="0.25" style="stop-color:#FFFFFF"/>
		<stop  offset="0.52" style="stop-color:#DFDFDF"/>
		<stop  offset="0.69" style="stop-color:#C7C7C7"/>
		<stop  offset="0.8" style="stop-color:#BCBCBC"/>
		<stop  offset="0.97" style="stop-color:#B1B1B1"/>
		<stop  offset="1" style="stop-color:#CBCBCB"/>
	</linearGradient>
	<path fill="url(#SVGID_16_)" d="M149.113,127.844l8.25,14.25l-8.25,14.25h-15.75l-8.25-14.25l8.25-14.25H149.113z"/>
	<path fill="#555454" d="M129.559,142.121c0-6.75,5.273-12,11.777-12c6.223,0,11.777,5.27,11.777,11.805
		c-0.305,6.195-5.273,11.809-11.777,11.809c-6.527-0.363-11.777-5.305-11.777-11.809V142.121z"/>
	
		<linearGradient id="SVGID_17_" gradientUnits="userSpaceOnUse" x1="76.8774" y1="182.1123" x2="14.5493" y2="182.1123" gradientTransform="matrix(0.75 0 0 -0.75 224.8101 278.4619)">
		<stop  offset="0" style="stop-color:#9D9D9D"/>
		<stop  offset="0.15" style="stop-color:#D0D1D1"/>
		<stop  offset="0.25" style="stop-color:#E5E6E6"/>
		<stop  offset="0.52" style="stop-color:#B3B4B4"/>
		<stop  offset="0.69" style="stop-color:#9FA0A0"/>
		<stop  offset="0.8" style="stop-color:#969797"/>
		<stop  offset="0.97" style="stop-color:#8E8E8E"/>
		<stop  offset="1" style="stop-color:#A3A4A4"/>
	</linearGradient>
	<path fill="url(#SVGID_17_)" d="M235.77,141.746c0-12.75,10.418-23.297,23.324-23.297c12.676,0.047,23.375,10.488,23.375,23.43
		c-0.199,12.617-10.465,23.43-23.375,23.43c-12.824-0.313-23.371-10.488-23.371-23.43L235.77,141.746z"/>
	
		<linearGradient id="SVGID_18_" gradientUnits="userSpaceOnUse" x1="67.0137" y1="187.0752" x2="14.6123" y2="187.0752" gradientTransform="matrix(0.75 0 0 -0.75 228.5093 282.207)">
		<stop  offset="0" style="stop-color:#C4C4C4"/>
		<stop  offset="0.15" style="stop-color:#FFFFFF"/>
		<stop  offset="0.25" style="stop-color:#FFFFFF"/>
		<stop  offset="0.52" style="stop-color:#DFDFDF"/>
		<stop  offset="0.69" style="stop-color:#C7C7C7"/>
		<stop  offset="0.8" style="stop-color:#BCBCBC"/>
		<stop  offset="0.97" style="stop-color:#B1B1B1"/>
		<stop  offset="1" style="stop-color:#CBCBCB"/>
	</linearGradient>
	<path fill="url(#SVGID_18_)" d="M239.469,141.742c0-10.5,8.777-19.551,19.676-19.551c11.074,0.051,19.625,8.828,19.625,19.734
		c-0.301,11.066-8.805,19.688-19.625,19.688c-10.676-0.371-19.676-8.824-19.676-19.688V141.742z"/>
	<path fill="#717070" d="M241.621,141.613c0-9.75,7.848-17.25,17.523-17.25c9.477,0,17.52,7.84,17.52,17.563
		c0.207,9.438-7.844,17.566-17.52,17.566c-10.023,0.121-17.523-7.891-17.523-17.566V141.613z"/>
	
		<linearGradient id="SVGID_19_" gradientUnits="userSpaceOnUse" x1="57.6133" y1="194.2881" x2="14.6133" y2="194.2881" gradientTransform="matrix(0.75 0 0 -0.75 231.9619 287.8096)">
		<stop  offset="0" style="stop-color:#C4C4C4"/>
		<stop  offset="0.15" style="stop-color:#FFFFFF"/>
		<stop  offset="0.25" style="stop-color:#FFFFFF"/>
		<stop  offset="0.52" style="stop-color:#DFDFDF"/>
		<stop  offset="0.69" style="stop-color:#C7C7C7"/>
		<stop  offset="0.8" style="stop-color:#BCBCBC"/>
		<stop  offset="0.97" style="stop-color:#B1B1B1"/>
		<stop  offset="1" style="stop-color:#CBCBCB"/>
	</linearGradient>
	<path fill="url(#SVGID_19_)" d="M266.922,127.844l8.25,14.25l-8.25,14.25h-15.75l-8.25-14.25l8.25-14.25H266.922z"/>
	<path fill="#555454" d="M247.367,142.121c0-6.75,5.273-12,11.777-12c6.223,0,11.773,5.27,11.773,11.805
		c-0.301,6.195-5.27,11.809-11.773,11.809c-6.527-0.363-11.777-5.305-11.777-11.809V142.121z"/>
</g>
</svg>
