<?xml version="1.0" encoding="utf-8"?>
<!-- Generator: Adobe Illustrator 16.0.0, SVG Export Plug-In . SVG Version: 6.00 Build 0)  -->
<!DOCTYPE svg PUBLIC "-//W3C//DTD SVG 1.1//EN" "http://www.w3.org/Graphics/SVG/1.1/DTD/svg11.dtd">
<svg preserveAspectRatio="none" version="1.1" id="图层_1" xmlns="http://www.w3.org/2000/svg" xmlns:xlink="http://www.w3.org/1999/xlink" x="0px" y="0px"
	 width="46.496px" height="114.094px" viewBox="29.988 30 46.496 114.094" enable-background="new 29.988 30 46.496 114.094"
	 xml:space="preserve">
<g id="surface1106">
	
		<linearGradient id="SVGID_1_" gradientUnits="userSpaceOnUse" x1="74.6123" y1="73.5376" x2="63.6123" y2="73.5376" gradientTransform="matrix(0.75 0 0 -0.75 1.4146 94.1523)">
		<stop  offset="0" style="stop-color:#939393"/>
		<stop  offset="0.15" style="stop-color:#E5E5E5"/>
		<stop  offset="0.26" style="stop-color:#F0F0F0"/>
		<stop  offset="0.41" style="stop-color:#EEEEEE"/>
		<stop  offset="0.6" style="stop-color:#C3C3C3"/>
		<stop  offset="0.8" style="stop-color:#9C9C9C"/>
		<stop  offset="0.93" style="stop-color:#7F7F7F"/>
		<stop  offset="1" style="stop-color:#E0E0E0"/>
	</linearGradient>
	<path fill="url(#SVGID_1_)" d="M49.875,30h6c0.75,0,1.27,0.488,1.27,1.117L57.375,48h-8.25V30.75c0,0,0.496-0.75,1.113-0.75H49.875
		z"/>
	
		<linearGradient id="SVGID_2_" gradientUnits="userSpaceOnUse" x1="80.8955" y1="83.0547" x2="63.6143" y2="83.0547" gradientTransform="matrix(0.75 0 0 -0.75 -1.0479 108.6211)">
		<stop  offset="0" style="stop-color:#939393"/>
		<stop  offset="0.15" style="stop-color:#E5E5E5"/>
		<stop  offset="0.26" style="stop-color:#F0F0F0"/>
		<stop  offset="0.41" style="stop-color:#EEEEEE"/>
		<stop  offset="0.6" style="stop-color:#C3C3C3"/>
		<stop  offset="0.8" style="stop-color:#9C9C9C"/>
		<stop  offset="0.93" style="stop-color:#7F7F7F"/>
		<stop  offset="1" style="stop-color:#E0E0E0"/>
	</linearGradient>
	<path fill="url(#SVGID_2_)" d="M47.414,44.469h11.25c0.75,0,0.961,0.344,0.961,0.801l-0.211,2.949h-12.75v-3
		c0-0.75,0.363-0.777,0.816-0.777L47.414,44.469z"/>
	
		<linearGradient id="SVGID_3_" gradientUnits="userSpaceOnUse" x1="90.6143" y1="39.5513" x2="63.6143" y2="39.5513" gradientTransform="matrix(0.75 0 0 -0.75 -4.7896 136.0576)">
		<stop  offset="0" style="stop-color:#343232"/>
		<stop  offset="0.15" style="stop-color:#555454"/>
		<stop  offset="0.26" style="stop-color:#797777"/>
		<stop  offset="0.41" style="stop-color:#5D5B5B"/>
		<stop  offset="0.6" style="stop-color:#484646"/>
		<stop  offset="0.8" style="stop-color:#383636"/>
		<stop  offset="0.93" style="stop-color:#2C2B2B"/>
		<stop  offset="1" style="stop-color:#535151"/>
	</linearGradient>
	<path fill="url(#SVGID_3_)" d="M42.922,71.906h20.25v62.25c0,0-0.605,6.727-10.156,6.727c-9.344,0.023-10.094-6.57-10.094-6.57
		V71.906z"/>
	
		<linearGradient id="SVGID_4_" gradientUnits="userSpaceOnUse" x1="67.1045" y1="85.5483" x2="67.1045" y2="76.5327" gradientTransform="matrix(0.75 0 0 -0.75 -17.71 117.5215)">
		<stop  offset="0" style="stop-color:#9E8969"/>
		<stop  offset="0.15" style="stop-color:#F6D6A7"/>
		<stop  offset="0.26" style="stop-color:#FFE2B7"/>
		<stop  offset="0.41" style="stop-color:#FFDEAE"/>
		<stop  offset="0.6" style="stop-color:#D1B68D"/>
		<stop  offset="0.8" style="stop-color:#A89170"/>
		<stop  offset="0.93" style="stop-color:#89765B"/>
		<stop  offset="1" style="stop-color:#F0D1A2"/>
	</linearGradient>
	<path fill="url(#SVGID_4_)" d="M30.75,53.371h4.5v6.75h-4.5c-0.75,0-0.762-0.746-0.762-1.203L30,54.121
		c0-0.75,0.355-0.762,0.809-0.762L30.75,53.371z"/>
	
		<linearGradient id="SVGID_5_" gradientUnits="userSpaceOnUse" x1="66.2129" y1="85.5669" x2="66.2129" y2="72.5356" gradientTransform="matrix(0.75 0 0 -0.75 -12.5933 115.9688)">
		<stop  offset="0" style="stop-color:#9E8969"/>
		<stop  offset="0.15" style="stop-color:#F6D6A7"/>
		<stop  offset="0.26" style="stop-color:#FFE2B7"/>
		<stop  offset="0.41" style="stop-color:#FFDEAE"/>
		<stop  offset="0.6" style="stop-color:#D1B68D"/>
		<stop  offset="0.8" style="stop-color:#A89170"/>
		<stop  offset="0.93" style="stop-color:#89765B"/>
		<stop  offset="1" style="stop-color:#F0D1A2"/>
	</linearGradient>
	<path fill="url(#SVGID_5_)" d="M35.867,51.816h2.25c0.75,0,0.91,0.348,0.91,0.805l-0.16,8.195c0,0-0.203,0.473-0.656,0.473
		l-2.344,0.277c-0.75,0-0.762-0.648-0.762-1.105l0.012-7.895c0-0.75,0.355-0.773,0.809-0.773L35.867,51.816z"/>
	
		<linearGradient id="SVGID_6_" gradientUnits="userSpaceOnUse" x1="-914.1182" y1="85.5483" x2="-914.1182" y2="76.5327" gradientTransform="matrix(-0.75 0 0 -0.75 -611.7344 117.5215)">
		<stop  offset="0" style="stop-color:#9E8969"/>
		<stop  offset="0.15" style="stop-color:#F6D6A7"/>
		<stop  offset="0.26" style="stop-color:#FFE2B7"/>
		<stop  offset="0.41" style="stop-color:#FFDEAE"/>
		<stop  offset="0.6" style="stop-color:#D1B68D"/>
		<stop  offset="0.8" style="stop-color:#A89170"/>
		<stop  offset="0.93" style="stop-color:#89765B"/>
		<stop  offset="1" style="stop-color:#F0D1A2"/>
	</linearGradient>
	<path fill="url(#SVGID_6_)" d="M75.727,53.371h-4.5v6.75h4.5c0.75,0,0.758-0.746,0.758-1.203l-0.008-4.797
		c0-0.75-0.359-0.762-0.809-0.762L75.727,53.371z"/>
	
		<linearGradient id="SVGID_7_" gradientUnits="userSpaceOnUse" x1="-915.0103" y1="85.5669" x2="-915.0103" y2="72.5356" gradientTransform="matrix(-0.75 0 0 -0.75 -616.8516 115.9688)">
		<stop  offset="0" style="stop-color:#9E8969"/>
		<stop  offset="0.15" style="stop-color:#F6D6A7"/>
		<stop  offset="0.26" style="stop-color:#FFE2B7"/>
		<stop  offset="0.41" style="stop-color:#FFDEAE"/>
		<stop  offset="0.6" style="stop-color:#D1B68D"/>
		<stop  offset="0.8" style="stop-color:#A89170"/>
		<stop  offset="0.93" style="stop-color:#89765B"/>
		<stop  offset="1" style="stop-color:#F0D1A2"/>
	</linearGradient>
	<path fill="url(#SVGID_7_)" d="M70.609,51.816h-2.25c-0.75,0-0.914,0.348-0.914,0.805l0.164,8.195c0,0,0.203,0.473,0.656,0.473
		l2.344,0.277c0.75,0,0.758-0.648,0.758-1.105l-0.008-7.895c0-0.75-0.355-0.773-0.809-0.773L70.609,51.816z"/>
	
		<linearGradient id="SVGID_8_" gradientUnits="userSpaceOnUse" x1="74.6123" y1="83.0356" x2="63.585" y2="83.0356" gradientTransform="matrix(0.75 0 0 -0.75 1.4468 204.4941)">
		<stop  offset="0" style="stop-color:#343232"/>
		<stop  offset="0.15" style="stop-color:#555454"/>
		<stop  offset="0.26" style="stop-color:#797777"/>
		<stop  offset="0.41" style="stop-color:#5D5B5B"/>
		<stop  offset="0.6" style="stop-color:#484646"/>
		<stop  offset="0.8" style="stop-color:#383636"/>
		<stop  offset="0.93" style="stop-color:#2C2B2B"/>
		<stop  offset="1" style="stop-color:#535151"/>
	</linearGradient>
	<path fill="url(#SVGID_8_)" d="M57.406,140.344v3c0,0-0.621,0.633-1.074,0.633l-6.426,0.117c-0.75,0-0.77-0.484-0.77-0.945
		l0.02-2.805H57.406z"/>
	
		<linearGradient id="SVGID_9_" gradientUnits="userSpaceOnUse" x1="101.8174" y1="67.0376" x2="63.6143" y2="67.0376" gradientTransform="matrix(0.75 0 0 -0.75 -8.8828 112.3438)">
		<stop  offset="0" style="stop-color:#343232"/>
		<stop  offset="0.15" style="stop-color:#555454"/>
		<stop  offset="0.26" style="stop-color:#797777"/>
		<stop  offset="0.41" style="stop-color:#5D5B5B"/>
		<stop  offset="0.6" style="stop-color:#484646"/>
		<stop  offset="0.8" style="stop-color:#383636"/>
		<stop  offset="0.93" style="stop-color:#2C2B2B"/>
		<stop  offset="1" style="stop-color:#535151"/>
	</linearGradient>
	<path fill="url(#SVGID_9_)" d="M39.578,48.191h27c0.75,0,0.902,0.391,0.902,0.902l-0.152,25.348c0,0.75-0.234,1.141-0.688,1.141
		l-27.063,0.359c-0.75,0-0.75-0.785-0.75-1.297V48.941c0,0,0.344-0.75,0.797-0.75H39.578z"/>
	<path fill="#3E3938" d="M44.48,57.383h17.25c0.75,0,0.824,0.391,0.824,0.918L62.48,68.633c0,0-0.348,0.801-0.867,0.801
		L44.48,69.383c0,0-0.777-0.379-0.777-0.906l0.027-10.344c0,0,0.395-0.785,0.918-0.785L44.48,57.383z"/>
	
		<linearGradient id="SVGID_10_" gradientUnits="userSpaceOnUse" x1="101.8174" y1="84.0376" x2="63.6143" y2="84.0376" gradientTransform="matrix(0.75 0 0 -0.75 -8.8828 112.3438)">
		<stop  offset="0" style="stop-color:#221F1F"/>
		<stop  offset="0.15" style="stop-color:#3B3736"/>
		<stop  offset="0.26" style="stop-color:#6A6767"/>
		<stop  offset="0.41" style="stop-color:#44403F"/>
		<stop  offset="0.6" style="stop-color:#312D2C"/>
		<stop  offset="0.8" style="stop-color:#252221"/>
		<stop  offset="0.93" style="stop-color:#1D1A19"/>
		<stop  offset="1" style="stop-color:#3A3534"/>
	</linearGradient>
	<path fill="url(#SVGID_10_)" d="M39.578,48.191h27c0.75,0,0.902,0.391,0.902,0.902l-0.152,1.348h-28.5v-1.5
		c0,0,0.344-0.75,0.797-0.75H39.578z"/>
	
		<linearGradient id="SVGID_11_" gradientUnits="userSpaceOnUse" x1="101.8174" y1="646.4639" x2="63.6143" y2="646.4639" gradientTransform="matrix(0.75 0 0 0.75 -8.8989 -410.3901)">
		<stop  offset="0" style="stop-color:#221F1F"/>
		<stop  offset="0.15" style="stop-color:#3B3736"/>
		<stop  offset="0.26" style="stop-color:#6A6767"/>
		<stop  offset="0.41" style="stop-color:#44403F"/>
		<stop  offset="0.6" style="stop-color:#312D2C"/>
		<stop  offset="0.8" style="stop-color:#252221"/>
		<stop  offset="0.93" style="stop-color:#1D1A19"/>
		<stop  offset="1" style="stop-color:#3A3534"/>
	</linearGradient>
	<path fill="url(#SVGID_11_)" d="M39.563,75.582h27c0.75,0,0.902-0.391,0.902-0.902l-0.152-1.348h-28.5v1.5
		c0,0,0.344,0.75,0.797,0.75H39.563z"/>
	
		<linearGradient id="SVGID_12_" gradientUnits="userSpaceOnUse" x1="90.6143" y1="81.1548" x2="63.6143" y2="81.1548" gradientTransform="matrix(0.75 0 0 -0.75 -4.7896 198.4629)">
		<stop  offset="0" style="stop-color:#221F1F"/>
		<stop  offset="0.15" style="stop-color:#3B3736"/>
		<stop  offset="0.26" style="stop-color:#6A6767"/>
		<stop  offset="0.41" style="stop-color:#44403F"/>
		<stop  offset="0.6" style="stop-color:#312D2C"/>
		<stop  offset="0.8" style="stop-color:#252221"/>
		<stop  offset="0.93" style="stop-color:#1D1A19"/>
		<stop  offset="1" style="stop-color:#3A3534"/>
	</linearGradient>
	<path fill="url(#SVGID_12_)" d="M63.172,134.309c0,0-0.605,6.574-10.156,6.574c-9.344,0.176-10.094-6.574-10.094-6.574H63.172z"/>
</g>
</svg>
