<?xml version="1.0" encoding="utf-8"?>
<!-- Generator: Adobe Illustrator 16.0.0, SVG Export Plug-In . SVG Version: 6.00 Build 0)  -->
<!DOCTYPE svg PUBLIC "-//W3C//DTD SVG 1.1//EN" "http://www.w3.org/Graphics/SVG/1.1/DTD/svg11.dtd">
<svg preserveAspectRatio="none" version="1.1" id="图层_1" xmlns="http://www.w3.org/2000/svg" xmlns:xlink="http://www.w3.org/1999/xlink" x="0px" y="0px"
	 width="281.988px" height="334.176px" viewBox="38.801 -21.848 281.988 334.176"
	 enable-background="new 38.801 -21.848 281.988 334.176" xml:space="preserve">
<g id="surface951">
	
		<linearGradient id="SVGID_1_" gradientUnits="userSpaceOnUse" x1="176.6118" y1="194.7871" x2="14.6118" y2="194.7871" gradientTransform="matrix(0.75 0 0 -0.75 31.7319 438.6094)">
		<stop  offset="0" style="stop-color:#004774"/>
		<stop  offset="0.01" style="stop-color:#7C97BC"/>
		<stop  offset="0.05" style="stop-color:#015F98"/>
		<stop  offset="0.9" style="stop-color:#015E95"/>
		<stop  offset="0.95" style="stop-color:#015B92"/>
		<stop  offset="1" style="stop-color:#00426B"/>
	</linearGradient>
	<path fill="url(#SVGID_1_)" d="M42.691,278.645h121.5v27.75h-121.5V278.645z"/>
	
		<linearGradient id="SVGID_2_" gradientUnits="userSpaceOnUse" x1="-209.9053" y1="37.9434" x2="-218.9063" y2="37.9434" gradientTransform="matrix(0.5303 -0.5303 -0.5303 -0.5303 420.0267 201.5095)">
		<stop  offset="0" style="stop-color:#006190"/>
		<stop  offset="0.01" style="stop-color:#7CABD7"/>
		<stop  offset="0.05" style="stop-color:#0080BC"/>
		<stop  offset="0.9" style="stop-color:#007EB9"/>
		<stop  offset="0.95" style="stop-color:#007BB4"/>
		<stop  offset="1" style="stop-color:#005A85"/>
	</linearGradient>
	<path fill="url(#SVGID_2_)" d="M268.961,282.629l4.773-4.773l29.695,29.699l-4.77,4.773L268.961,282.629z"/>
	
		<linearGradient id="SVGID_3_" gradientUnits="userSpaceOnUse" x1="-441.2104" y1="100.8872" x2="-488.2104" y2="100.8872" gradientTransform="matrix(0 -0.75 -0.75 0 262.7979 -248.8418)">
		<stop  offset="0" style="stop-color:#C7C7C7"/>
		<stop  offset="0.15" style="stop-color:#FFFFFF"/>
		<stop  offset="0.25" style="stop-color:#FFFFFF"/>
		<stop  offset="0.52" style="stop-color:#DFDFDF"/>
		<stop  offset="0.69" style="stop-color:#C7C7C7"/>
		<stop  offset="0.8" style="stop-color:#BCBCBC"/>
		<stop  offset="0.92" style="stop-color:#B1B1B1"/>
	</linearGradient>
	<path fill="url(#SVGID_3_)" d="M167.633,117.316v-35.25h39v35.25H167.633z"/>
	
		<linearGradient id="SVGID_4_" gradientUnits="userSpaceOnUse" x1="186.978" y1="69.1909" x2="14.6128" y2="69.1909" gradientTransform="matrix(0.75 0 0 -0.75 27.8408 222.4316)">
		<stop  offset="0" style="stop-color:#B5B5B5"/>
		<stop  offset="0.01" style="stop-color:#FFFFFF"/>
		<stop  offset="0.05" style="stop-color:#EBEBEB"/>
		<stop  offset="0.9" style="stop-color:#E7E7E7"/>
		<stop  offset="0.95" style="stop-color:#E2E2E2"/>
		<stop  offset="1" style="stop-color:#A8A8A8"/>
	</linearGradient>
	<path fill="url(#SVGID_4_)" d="M40.301,62.469h126c0.75,0,1.773,0.703,1.773,1.574l-0.273,212.926c0,0.75-0.434,1.641-1.305,1.641
		l-126.195-0.141c-0.75,0-1.5-0.566-1.5-1.438V63.969c0-0.75,0.707-1.5,1.578-1.5H40.301z"/>
	
		<linearGradient id="SVGID_5_" gradientUnits="userSpaceOnUse" x1="168.6128" y1="106.7905" x2="14.6128" y2="106.7905" gradientTransform="matrix(0.75 0 0 -0.75 194.3291 138.1191)">
		<stop  offset="0" style="stop-color:#C7A900"/>
		<stop  offset="0.15" style="stop-color:#FFE386"/>
		<stop  offset="0.25" style="stop-color:#FFE593"/>
		<stop  offset="0.52" style="stop-color:#DFBE00"/>
		<stop  offset="0.69" style="stop-color:#C7A900"/>
		<stop  offset="0.8" style="stop-color:#BC9F00"/>
		<stop  offset="0.92" style="stop-color:#B19600"/>
	</linearGradient>
	<path fill="url(#SVGID_5_)" d="M205.289-21.848h115.5v159.75h-115.5V-21.848z"/>
	
		<linearGradient id="SVGID_6_" gradientUnits="userSpaceOnUse" x1="168.4043" y1="621.6846" x2="14.6123" y2="621.6846" gradientTransform="matrix(0.75 0 0 0.75 194.3291 -323.2593)">
		<stop  offset="0" style="stop-color:#C79C12"/>
		<stop  offset="0.15" style="stop-color:#FFD889"/>
		<stop  offset="0.25" style="stop-color:#FFDA94"/>
		<stop  offset="0.52" style="stop-color:#DFB016"/>
		<stop  offset="0.69" style="stop-color:#C79C12"/>
		<stop  offset="0.8" style="stop-color:#BC9311"/>
		<stop  offset="0.92" style="stop-color:#B18B0F"/>
	</linearGradient>
	<path fill="url(#SVGID_6_)" d="M205.289,137.027c0,6.75,25.82,12,57.672,12c31.578,0,57.672-5.395,57.672-12.047
		c0.156,0.047-115.344,0-115.344,0V137.027z"/>
	
		<linearGradient id="SVGID_7_" gradientUnits="userSpaceOnUse" x1="168.6128" y1="208.7871" x2="14.6128" y2="208.7871" gradientTransform="matrix(0.75 0 0 -0.75 194.3291 290.8711)">
		<stop  offset="0" style="stop-color:#C7C7C7"/>
		<stop  offset="0.15" style="stop-color:#FFFFFF"/>
		<stop  offset="0.25" style="stop-color:#FFFFFF"/>
		<stop  offset="0.52" style="stop-color:#DFDFDF"/>
		<stop  offset="0.69" style="stop-color:#C7C7C7"/>
		<stop  offset="0.8" style="stop-color:#BCBCBC"/>
		<stop  offset="0.92" style="stop-color:#B1B1B1"/>
	</linearGradient>
	<path fill="url(#SVGID_7_)" d="M205.289,130.906h115.5v6.75h-115.5V130.906z"/>
	
		<linearGradient id="SVGID_8_" gradientUnits="userSpaceOnUse" x1="70.8862" y1="194.5537" x2="14.6157" y2="194.5537" gradientTransform="matrix(0.75 0 0 -0.75 230.8975 305.9092)">
		<stop  offset="0" style="stop-color:#B5B5B5"/>
		<stop  offset="0.01" style="stop-color:#FFFFFF"/>
		<stop  offset="0.05" style="stop-color:#EBEBEB"/>
		<stop  offset="0.9" style="stop-color:#E7E7E7"/>
		<stop  offset="0.95" style="stop-color:#E2E2E2"/>
		<stop  offset="1" style="stop-color:#A8A8A8"/>
	</linearGradient>
	<path fill="url(#SVGID_8_)" d="M243.359,145.945h39.75c0.75,0,0.953,0.449,0.953,1.008l-0.203,25.992
		c0,0.75-0.309,1.098-0.938,1.098l-39.563-0.348c-0.75,0-1.5-0.105-1.5-0.664v-26.336c0,0,0.508-0.75,1.141-0.75H243.359z"/>
	
		<linearGradient id="SVGID_9_" gradientUnits="userSpaceOnUse" x1="61.6157" y1="184.7852" x2="14.6157" y2="184.7852" gradientTransform="matrix(0.75 0 0 -0.75 234.2217 334.0059)">
		<stop  offset="0" style="stop-color:#C7C7C7"/>
		<stop  offset="0.15" style="stop-color:#FFFFFF"/>
		<stop  offset="0.25" style="stop-color:#FFFFFF"/>
		<stop  offset="0.52" style="stop-color:#DFDFDF"/>
		<stop  offset="0.69" style="stop-color:#C7C7C7"/>
		<stop  offset="0.8" style="stop-color:#BCBCBC"/>
		<stop  offset="0.92" style="stop-color:#B1B1B1"/>
	</linearGradient>
	<path fill="url(#SVGID_9_)" d="M245.184,174.043h35.25v42.75h-35.25V174.043z"/>
	
		<linearGradient id="SVGID_10_" gradientUnits="userSpaceOnUse" x1="-441.2114" y1="85.3892" x2="-488.2114" y2="85.3892" gradientTransform="matrix(0 -0.75 -0.75 0 263.1279 -94.8975)">
		<stop  offset="0" style="stop-color:#C7C7C7"/>
		<stop  offset="0.15" style="stop-color:#FFFFFF"/>
		<stop  offset="0.25" style="stop-color:#FFFFFF"/>
		<stop  offset="0.52" style="stop-color:#DFDFDF"/>
		<stop  offset="0.69" style="stop-color:#C7C7C7"/>
		<stop  offset="0.8" style="stop-color:#BCBCBC"/>
		<stop  offset="0.92" style="stop-color:#B1B1B1"/>
	</linearGradient>
	<path fill="url(#SVGID_10_)" d="M167.961,271.262v-35.25h62.25v35.25H167.961z"/>
	
		<linearGradient id="SVGID_11_" gradientUnits="userSpaceOnUse" x1="16.4341" y1="552.8027" x2="82.3086" y2="631.309" gradientTransform="matrix(0.75 0 0 0.75 218.0415 -201.0479)">
		<stop  offset="0" style="stop-color:#C4C4C4"/>
		<stop  offset="0.15" style="stop-color:#FFFFFF"/>
		<stop  offset="0.25" style="stop-color:#FFFFFF"/>
		<stop  offset="0.44" style="stop-color:#DFDFDF"/>
		<stop  offset="0.6" style="stop-color:#C7C7C7"/>
		<stop  offset="0.8" style="stop-color:#A8A8A8"/>
		<stop  offset="0.97" style="stop-color:#999999"/>
		<stop  offset="1" style="stop-color:#CBCBCB"/>
	</linearGradient>
	<path fill="url(#SVGID_11_)" d="M229,271.238c0,0,27.887-0.742,41.156-16.41c12.844-15.09,10.941-40.129,10.941-40.129
		l-36.348,0.289c0,0,0.055,13.977-15.75,19.715V271.238z"/>
	
		<linearGradient id="SVGID_12_" gradientUnits="userSpaceOnUse" x1="18.1396" y1="213.4004" x2="18.1396" y2="147.1914" gradientTransform="matrix(0.75 0 0 -0.75 157.085 388.6826)">
		<stop  offset="0" style="stop-color:#ABABAC"/>
		<stop  offset="0.15" style="stop-color:#E5E5E6"/>
		<stop  offset="0.25" style="stop-color:#E7E7E8"/>
		<stop  offset="0.52" style="stop-color:#C0C0C1"/>
		<stop  offset="0.69" style="stop-color:#ABABAC"/>
		<stop  offset="0.8" style="stop-color:#A1A1A2"/>
		<stop  offset="0.92" style="stop-color:#989899"/>
	</linearGradient>
	<path fill="url(#SVGID_12_)" d="M169.543,228.719h2.25c0.75,0,1.57,0.516,1.57,1.25l-0.07,46.75c0,0.75-0.527,1.57-1.266,1.57
		l-2.484-0.07c-0.75,0-1.527-0.555-1.527-1.293l0.027-46.707c0-0.75,0.57-1.586,1.309-1.586L169.543,228.719z"/>
	
		<linearGradient id="SVGID_13_" gradientUnits="userSpaceOnUse" x1="18.1396" y1="213.3984" x2="18.1396" y2="147.1953" gradientTransform="matrix(0.75 0 0 -0.75 156.8506 234.0684)">
		<stop  offset="0" style="stop-color:#ABABAC"/>
		<stop  offset="0.15" style="stop-color:#E5E5E6"/>
		<stop  offset="0.25" style="stop-color:#E7E7E8"/>
		<stop  offset="0.52" style="stop-color:#C0C0C1"/>
		<stop  offset="0.69" style="stop-color:#ABABAC"/>
		<stop  offset="0.8" style="stop-color:#A1A1A2"/>
		<stop  offset="0.92" style="stop-color:#989899"/>
	</linearGradient>
	<path fill="url(#SVGID_13_)" d="M169.309,74.102h2.25c0.75,0,1.57,0.516,1.57,1.254l-0.07,46.746c0,0.75-0.527,1.57-1.266,1.57
		l-2.484-0.07c-0.75,0-1.527-0.551-1.527-1.289l0.027-46.711c0-0.75,0.57-1.582,1.309-1.582L169.309,74.102z"/>
	
		<linearGradient id="SVGID_14_" gradientUnits="userSpaceOnUse" x1="92.6133" y1="184.3291" x2="14.5352" y2="184.3291" gradientTransform="matrix(0.75 0 0 -0.75 63.376 255.9004)">
		<stop  offset="0" style="stop-color:#525365"/>
		<stop  offset="0.01" style="stop-color:#9FA0AF"/>
		<stop  offset="0.05" style="stop-color:#6C6E85"/>
		<stop  offset="0.9" style="stop-color:#6A6C83"/>
		<stop  offset="0.95" style="stop-color:#686A80"/>
		<stop  offset="1" style="stop-color:#4B4D5D"/>
	</linearGradient>
	<path fill="url(#SVGID_14_)" d="M75.836,95.934h55.5c0.75,0,1.203,0.539,1.203,1.277l0.297,40.723c0,0.75-0.895,1.398-1.633,1.398
		l-55.367,0.102c-0.75,0-1.559-0.73-1.559-1.469l0.059-40.531c0-0.75,0.539-1.559,1.277-1.559L75.836,95.934z"/>
	<path fill="#3E3938" stroke="#3E3938" stroke-linejoin="bevel" stroke-miterlimit="10" d="M78.844,100.453h49.5v34.5h-49.5V100.453
		z"/>
	
		<linearGradient id="SVGID_15_" gradientUnits="userSpaceOnUse" x1="61.6147" y1="204.7881" x2="14.6147" y2="204.7881" gradientTransform="matrix(0.75 0 0 -0.75 106.4683 209.5508)">
		<stop  offset="0" style="stop-color:#C7C7C7"/>
		<stop  offset="0.15" style="stop-color:#FFFFFF"/>
		<stop  offset="0.25" style="stop-color:#FFFFFF"/>
		<stop  offset="0.52" style="stop-color:#DFDFDF"/>
		<stop  offset="0.69" style="stop-color:#C7C7C7"/>
		<stop  offset="0.8" style="stop-color:#BCBCBC"/>
		<stop  offset="0.92" style="stop-color:#B1B1B1"/>
	</linearGradient>
	<path fill="url(#SVGID_15_)" d="M117.43,49.586h35.25v12.75h-35.25V49.586z"/>
	
		<linearGradient id="SVGID_16_" gradientUnits="userSpaceOnUse" x1="50.6099" y1="204.79" x2="14.6099" y2="204.79" gradientTransform="matrix(0.75 0 0 -0.75 110.8818 174.2324)">
		<stop  offset="0" style="stop-color:#C7C7C7"/>
		<stop  offset="0.15" style="stop-color:#FFFFFF"/>
		<stop  offset="0.25" style="stop-color:#FFFFFF"/>
		<stop  offset="0.52" style="stop-color:#DFDFDF"/>
		<stop  offset="0.69" style="stop-color:#C7C7C7"/>
		<stop  offset="0.8" style="stop-color:#BCBCBC"/>
		<stop  offset="0.92" style="stop-color:#B1B1B1"/>
	</linearGradient>
	<path fill="url(#SVGID_16_)" d="M121.84,14.266h27v12.75h-27V14.266z"/>
	
		<linearGradient id="SVGID_17_" gradientUnits="userSpaceOnUse" x1="77.6123" y1="194.7451" x2="14.6123" y2="194.7451" gradientTransform="matrix(0.75 0 0 -0.75 100.7866 186.4678)">
		<stop  offset="0" style="stop-color:#B5B5B5"/>
		<stop  offset="0.01" style="stop-color:#FFFFFF"/>
		<stop  offset="0.05" style="stop-color:#EBEBEB"/>
		<stop  offset="0.9" style="stop-color:#E7E7E7"/>
		<stop  offset="0.95" style="stop-color:#E2E2E2"/>
		<stop  offset="1" style="stop-color:#A8A8A8"/>
	</linearGradient>
	<path fill="url(#SVGID_17_)" d="M112.496,26.504h45c0.75,0,1.172,0.418,1.172,0.996l0.328,26.004c0,0.75-0.82,0.859-1.395,0.859
		l-45.105-0.109c0,0-0.75-0.355-0.75-0.93v-26.07c0,0,0.445-0.797,1.02-0.797L112.496,26.504z"/>
	
		<linearGradient id="SVGID_18_" gradientUnits="userSpaceOnUse" x1="41.7153" y1="566.499" x2="16.4185" y2="566.499" gradientTransform="matrix(0.2565 0.7048 0.7048 -0.2565 -239.1149 131.8951)">
		<stop  offset="0" style="stop-color:#C7C7C7"/>
		<stop  offset="0.15" style="stop-color:#FFFFFF"/>
		<stop  offset="0.25" style="stop-color:#FFFFFF"/>
		<stop  offset="0.52" style="stop-color:#DFDFDF"/>
		<stop  offset="0.69" style="stop-color:#C7C7C7"/>
		<stop  offset="0.8" style="stop-color:#BCBCBC"/>
		<stop  offset="0.92" style="stop-color:#B1B1B1"/>
	</linearGradient>
	<path fill="url(#SVGID_18_)" d="M204.969-16.633c0,0,5.066,2.449,5.066,9.703c0.383,7.469-4.246,10.188-4.246,10.188
		l-57.133,20.559c0,0-3.691-4.23-10.438-6.68c-8.34-3.246-16.41-2.852-16.41-2.852L204.969-16.633z"/>
	
		<linearGradient id="SVGID_19_" gradientUnits="userSpaceOnUse" x1="23.6147" y1="198.2861" x2="14.6147" y2="198.2861" gradientTransform="matrix(0.75 0 0 -0.75 46.2612 439.373)">
		<stop  offset="0" style="stop-color:#C7C7C7"/>
		<stop  offset="0.15" style="stop-color:#FFFFFF"/>
		<stop  offset="0.25" style="stop-color:#FFFFFF"/>
		<stop  offset="0.52" style="stop-color:#DFDFDF"/>
		<stop  offset="0.69" style="stop-color:#C7C7C7"/>
		<stop  offset="0.8" style="stop-color:#BCBCBC"/>
		<stop  offset="0.92" style="stop-color:#B1B1B1"/>
	</linearGradient>
	<path fill="url(#SVGID_19_)" d="M57.223,279.41h6.75v22.5h-6.75V279.41z"/>
	
		<linearGradient id="SVGID_20_" gradientUnits="userSpaceOnUse" x1="77.6147" y1="209.2881" x2="14.6147" y2="209.2881" gradientTransform="matrix(0.75 0 0 -0.75 100.894 205.3516)">
		<stop  offset="0" style="stop-color:#006190"/>
		<stop  offset="0.01" style="stop-color:#7CABD7"/>
		<stop  offset="0.05" style="stop-color:#0080BC"/>
		<stop  offset="0.9" style="stop-color:#007EB9"/>
		<stop  offset="0.95" style="stop-color:#007BB4"/>
		<stop  offset="1" style="stop-color:#005A85"/>
	</linearGradient>
	<path fill="url(#SVGID_20_)" d="M111.855,45.387h47.25v6h-47.25V45.387z"/>
	
		<linearGradient id="SVGID_21_" gradientUnits="userSpaceOnUse" x1="-626.5527" y1="454.5918" x2="-635.5537" y2="454.5918" gradientTransform="matrix(-0.5303 -0.5303 0.5303 -0.5303 -336.2572 201.5095)">
		<stop  offset="0" style="stop-color:#006190"/>
		<stop  offset="0.01" style="stop-color:#7CABD7"/>
		<stop  offset="0.05" style="stop-color:#0080BC"/>
		<stop  offset="0.9" style="stop-color:#007EB9"/>
		<stop  offset="0.95" style="stop-color:#007BB4"/>
		<stop  offset="1" style="stop-color:#005A85"/>
	</linearGradient>
	<path fill="url(#SVGID_21_)" d="M256.73,282.629l-4.773-4.773l-29.699,29.699l4.773,4.773L256.73,282.629z"/>
	
		<linearGradient id="SVGID_22_" gradientUnits="userSpaceOnUse" x1="44.6108" y1="46.2876" x2="14.6108" y2="46.2876" gradientTransform="matrix(0.75 0 0 -0.75 240.897 215.2773)">
		<stop  offset="0" style="stop-color:#006190"/>
		<stop  offset="0.01" style="stop-color:#7CABD7"/>
		<stop  offset="0.05" style="stop-color:#0080BC"/>
		<stop  offset="0.9" style="stop-color:#007EB9"/>
		<stop  offset="0.95" style="stop-color:#007BB4"/>
		<stop  offset="1" style="stop-color:#005A85"/>
	</linearGradient>
	<path fill="url(#SVGID_22_)" d="M251.855,55.313h22.5v250.5h-22.5V55.313z"/>
	
		<linearGradient id="SVGID_23_" gradientUnits="userSpaceOnUse" x1="32.6138" y1="206.7725" x2="14.5923" y2="206.7725" gradientTransform="matrix(0.75 0 0 -0.75 56.813 325.6084)">
		<stop  offset="0" style="stop-color:#525365"/>
		<stop  offset="0.01" style="stop-color:#9FA0AF"/>
		<stop  offset="0.05" style="stop-color:#6C6E85"/>
		<stop  offset="0.9" style="stop-color:#6A6C83"/>
		<stop  offset="0.95" style="stop-color:#686A80"/>
		<stop  offset="1" style="stop-color:#4B4D5D"/>
	</linearGradient>
	<path fill="url(#SVGID_23_)" d="M67.773,165.645h12.75c0,0,0.375,0.121,0.375,0.285l0.375,9.465c0,0-0.508,0.035-0.676,0.035
		l-12.824-0.035c0,0-0.016-0.105-0.016-0.273L67.773,165.645c0,0,0.121-0.016,0.289-0.016L67.773,165.645z"/>
	
		<linearGradient id="SVGID_24_" gradientUnits="userSpaceOnUse" x1="32.6113" y1="206.7725" x2="14.5957" y2="206.7725" gradientTransform="matrix(0.75 0 0 -0.75 85.9243 325.6084)">
		<stop  offset="0" style="stop-color:#525365"/>
		<stop  offset="0.01" style="stop-color:#9FA0AF"/>
		<stop  offset="0.05" style="stop-color:#6C6E85"/>
		<stop  offset="0.9" style="stop-color:#6A6C83"/>
		<stop  offset="0.95" style="stop-color:#686A80"/>
		<stop  offset="1" style="stop-color:#4B4D5D"/>
	</linearGradient>
	<path fill="url(#SVGID_24_)" d="M96.883,165.645h12.75c0,0,0.379,0.121,0.379,0.285l0.371,9.465c0,0-0.508,0.035-0.672,0.035
		l-12.828-0.035c0,0-0.012-0.105-0.012-0.273L96.883,165.645c0,0,0.125-0.016,0.289-0.016L96.883,165.645z"/>
	
		<linearGradient id="SVGID_25_" gradientUnits="userSpaceOnUse" x1="32.6128" y1="206.7725" x2="14.5972" y2="206.7725" gradientTransform="matrix(0.75 0 0 -0.75 115.0361 325.6084)">
		<stop  offset="0" style="stop-color:#525365"/>
		<stop  offset="0.01" style="stop-color:#9FA0AF"/>
		<stop  offset="0.05" style="stop-color:#6C6E85"/>
		<stop  offset="0.9" style="stop-color:#6A6C83"/>
		<stop  offset="0.95" style="stop-color:#686A80"/>
		<stop  offset="1" style="stop-color:#4B4D5D"/>
	</linearGradient>
	<path fill="url(#SVGID_25_)" d="M125.996,165.645h12.75c0,0,0.375,0.121,0.375,0.285l0.375,9.465c0,0-0.508,0.035-0.676,0.035
		l-12.824-0.035c0,0-0.012-0.105-0.012-0.273L125.996,165.645c0,0,0.121-0.016,0.289-0.016L125.996,165.645z"/>
	<path fill="#FFFFFF" fill-opacity="0.6667" d="M59.586,209.48h87.75c0.75,0,1.453,0.566,1.453,1.305l0.047,18.195
		c0,0.75-0.676,0.988-1.414,0.988l-87.836-0.238c-0.75,0-1.5-0.359-1.5-1.098V210.98c0-0.75,0.535-1.531,1.277-1.531L59.586,209.48z
		"/>
</g>
</svg>
