<?xml version="1.0" encoding="utf-8"?>
<!-- Generator: Adobe Illustrator 16.0.0, SVG Export Plug-In . SVG Version: 6.00 Build 0)  -->
<!DOCTYPE svg PUBLIC "-//W3C//DTD SVG 1.1//EN" "http://www.w3.org/Graphics/SVG/1.1/DTD/svg11.dtd">
<svg preserveAspectRatio="none" version="1.1" id="图层_1" xmlns="http://www.w3.org/2000/svg" xmlns:xlink="http://www.w3.org/1999/xlink" x="0px" y="0px"
	 width="299.25px" height="271.891px" viewBox="30 -13.371 299.25 271.891" enable-background="new 30 -13.371 299.25 271.891"
	 xml:space="preserve">
<g id="surface486">
	
		<linearGradient id="SVGID_1_" gradientUnits="userSpaceOnUse" x1="420.4873" y1="18.2842" x2="21.4873" y2="18.2841" gradientTransform="matrix(0.75 0 0 -0.75 13.8838 160.1074)">
		<stop  offset="0" style="stop-color:#C4AA84"/>
		<stop  offset="0.15" style="stop-color:#FFE0B3"/>
		<stop  offset="0.25" style="stop-color:#FFEED7"/>
		<stop  offset="0.52" style="stop-color:#DFC297"/>
		<stop  offset="0.69" style="stop-color:#C7AD86"/>
		<stop  offset="0.8" style="stop-color:#BCA37E"/>
		<stop  offset="0.97" style="stop-color:#B19A77"/>
		<stop  offset="1" style="stop-color:#CBB189"/>
	</linearGradient>
	<path fill="url(#SVGID_1_)" d="M33.75,34.27H325.5c2.25,0,3.75,1.449,3.75,3.324V254.77c0,1.5-1.621,3.555-3.508,3.555
		L33.75,258.52c-2.25,0-3.75-1.898-3.75-3.773V37.27c0-1.5,1.492-3,3.379-3H33.75z"/>
	
		<linearGradient id="SVGID_2_" gradientUnits="userSpaceOnUse" x1="26.8979" y1="149.2861" x2="21.4868" y2="149.2861" gradientTransform="matrix(0.75 0 0 -0.75 16.3496 112.4678)">
		<stop  offset="0" style="stop-color:#BDA47F"/>
		<stop  offset="0.15" style="stop-color:#FFE0B3"/>
		<stop  offset="0.25" style="stop-color:#FFEED7"/>
		<stop  offset="0.52" style="stop-color:#DFC297"/>
		<stop  offset="0.69" style="stop-color:#C7AD86"/>
		<stop  offset="0.8" style="stop-color:#BCA37E"/>
		<stop  offset="0.92" style="stop-color:#B19A77"/>
		<stop  offset="1" style="stop-color:#CBB189"/>
	</linearGradient>
	<path fill="url(#SVGID_2_)" d="M33.965-13.371h0.75c0.75,0,1.809,0.695,1.809,1.594l-0.309,26.156h-3.75v-26.25
		c0-0.75,0.711-1.5,1.609-1.5H33.965z"/>
	
		<linearGradient id="SVGID_3_" gradientUnits="userSpaceOnUse" x1="26.896" y1="149.2861" x2="21.4897" y2="149.2861" gradientTransform="matrix(0.75 0 0 -0.75 32.3979 112.4678)">
		<stop  offset="0" style="stop-color:#BDA47F"/>
		<stop  offset="0.15" style="stop-color:#FFE0B3"/>
		<stop  offset="0.25" style="stop-color:#FFEED7"/>
		<stop  offset="0.52" style="stop-color:#DFC297"/>
		<stop  offset="0.69" style="stop-color:#C7AD86"/>
		<stop  offset="0.8" style="stop-color:#BCA37E"/>
		<stop  offset="0.92" style="stop-color:#B19A77"/>
		<stop  offset="1" style="stop-color:#CBB189"/>
	</linearGradient>
	<path fill="url(#SVGID_3_)" d="M50.016-13.371h0.75c0.75,0,1.805,0.695,1.805,1.594l-0.305,26.156h-3.75v-26.25
		c0-0.75,0.707-1.5,1.609-1.5H50.016z"/>
	
		<linearGradient id="SVGID_4_" gradientUnits="userSpaceOnUse" x1="26.8994" y1="149.2861" x2="21.4883" y2="149.2861" gradientTransform="matrix(0.75 0 0 -0.75 48.4463 112.4678)">
		<stop  offset="0" style="stop-color:#BDA47F"/>
		<stop  offset="0.15" style="stop-color:#FFE0B3"/>
		<stop  offset="0.25" style="stop-color:#FFEED7"/>
		<stop  offset="0.52" style="stop-color:#DFC297"/>
		<stop  offset="0.69" style="stop-color:#C7AD86"/>
		<stop  offset="0.8" style="stop-color:#BCA37E"/>
		<stop  offset="0.92" style="stop-color:#B19A77"/>
		<stop  offset="1" style="stop-color:#CBB189"/>
	</linearGradient>
	<path fill="url(#SVGID_4_)" d="M66.063-13.371h0.75c0.75,0,1.809,0.695,1.809,1.594l-0.309,26.156h-3.75v-26.25
		c0-0.75,0.707-1.5,1.609-1.5H66.063z"/>
	
		<linearGradient id="SVGID_5_" gradientUnits="userSpaceOnUse" x1="26.897" y1="149.2861" x2="21.4858" y2="149.2861" gradientTransform="matrix(0.75 0 0 -0.75 64.4946 112.4678)">
		<stop  offset="0" style="stop-color:#BDA47F"/>
		<stop  offset="0.15" style="stop-color:#FFE0B3"/>
		<stop  offset="0.25" style="stop-color:#FFEED7"/>
		<stop  offset="0.52" style="stop-color:#DFC297"/>
		<stop  offset="0.69" style="stop-color:#C7AD86"/>
		<stop  offset="0.8" style="stop-color:#BCA37E"/>
		<stop  offset="0.92" style="stop-color:#B19A77"/>
		<stop  offset="1" style="stop-color:#CBB189"/>
	</linearGradient>
	<path fill="url(#SVGID_5_)" d="M82.109-13.371h0.75c0.75,0,1.809,0.695,1.809,1.594l-0.309,26.156h-3.75v-26.25
		c0-0.75,0.711-1.5,1.609-1.5H82.109z"/>
	
		<linearGradient id="SVGID_6_" gradientUnits="userSpaceOnUse" x1="26.8989" y1="149.2861" x2="21.4878" y2="149.2861" gradientTransform="matrix(0.75 0 0 -0.75 96.5522 112.4678)">
		<stop  offset="0" style="stop-color:#BDA47F"/>
		<stop  offset="0.15" style="stop-color:#FFE0B3"/>
		<stop  offset="0.25" style="stop-color:#FFEED7"/>
		<stop  offset="0.52" style="stop-color:#DFC297"/>
		<stop  offset="0.69" style="stop-color:#C7AD86"/>
		<stop  offset="0.8" style="stop-color:#BCA37E"/>
		<stop  offset="0.92" style="stop-color:#B19A77"/>
		<stop  offset="1" style="stop-color:#CBB189"/>
	</linearGradient>
	<path fill="url(#SVGID_6_)" d="M114.168-13.371h0.75c0.75,0,1.809,0.695,1.809,1.594l-0.309,26.156h-3.75v-26.25
		c0-0.75,0.707-1.5,1.609-1.5H114.168z"/>
	
		<linearGradient id="SVGID_7_" gradientUnits="userSpaceOnUse" x1="26.8965" y1="149.2861" x2="21.4854" y2="149.2861" gradientTransform="matrix(0.75 0 0 -0.75 112.6006 112.4678)">
		<stop  offset="0" style="stop-color:#BDA47F"/>
		<stop  offset="0.15" style="stop-color:#FFE0B3"/>
		<stop  offset="0.25" style="stop-color:#FFEED7"/>
		<stop  offset="0.52" style="stop-color:#DFC297"/>
		<stop  offset="0.69" style="stop-color:#C7AD86"/>
		<stop  offset="0.8" style="stop-color:#BCA37E"/>
		<stop  offset="0.92" style="stop-color:#B19A77"/>
		<stop  offset="1" style="stop-color:#CBB189"/>
	</linearGradient>
	<path fill="url(#SVGID_7_)" d="M130.215-13.371h0.75c0.75,0,1.809,0.695,1.809,1.594l-0.309,26.156h-3.75v-26.25
		c0-0.75,0.711-1.5,1.613-1.5H130.215z"/>
	
		<linearGradient id="SVGID_8_" gradientUnits="userSpaceOnUse" x1="26.8999" y1="149.2861" x2="21.4888" y2="149.2861" gradientTransform="matrix(0.75 0 0 -0.75 128.6489 112.4678)">
		<stop  offset="0" style="stop-color:#BDA47F"/>
		<stop  offset="0.15" style="stop-color:#FFE0B3"/>
		<stop  offset="0.25" style="stop-color:#FFEED7"/>
		<stop  offset="0.52" style="stop-color:#DFC297"/>
		<stop  offset="0.69" style="stop-color:#C7AD86"/>
		<stop  offset="0.8" style="stop-color:#BCA37E"/>
		<stop  offset="0.92" style="stop-color:#B19A77"/>
		<stop  offset="1" style="stop-color:#CBB189"/>
	</linearGradient>
	<path fill="url(#SVGID_8_)" d="M146.266-13.371h0.75c0.75,0,1.809,0.695,1.809,1.594l-0.309,26.156h-3.75v-26.25
		c0-0.75,0.707-1.5,1.609-1.5H146.266z"/>
	
		<linearGradient id="SVGID_9_" gradientUnits="userSpaceOnUse" x1="26.8999" y1="149.2861" x2="21.4888" y2="149.2861" gradientTransform="matrix(0.75 0 0 -0.75 161.4771 112.4678)">
		<stop  offset="0" style="stop-color:#BDA47F"/>
		<stop  offset="0.15" style="stop-color:#FFE0B3"/>
		<stop  offset="0.25" style="stop-color:#FFEED7"/>
		<stop  offset="0.52" style="stop-color:#DFC297"/>
		<stop  offset="0.69" style="stop-color:#C7AD86"/>
		<stop  offset="0.8" style="stop-color:#BCA37E"/>
		<stop  offset="0.92" style="stop-color:#B19A77"/>
		<stop  offset="1" style="stop-color:#CBB189"/>
	</linearGradient>
	<path fill="url(#SVGID_9_)" d="M179.094-13.371h0.75c0.75,0,1.809,0.695,1.809,1.594l-0.309,26.156h-3.75v-26.25
		c0-0.75,0.707-1.5,1.609-1.5H179.094z"/>
	
		<linearGradient id="SVGID_10_" gradientUnits="userSpaceOnUse" x1="26.8965" y1="149.2861" x2="21.4902" y2="149.2861" gradientTransform="matrix(0.75 0 0 -0.75 177.2925 112.4678)">
		<stop  offset="0" style="stop-color:#BDA47F"/>
		<stop  offset="0.15" style="stop-color:#FFE0B3"/>
		<stop  offset="0.25" style="stop-color:#FFEED7"/>
		<stop  offset="0.52" style="stop-color:#DFC297"/>
		<stop  offset="0.69" style="stop-color:#C7AD86"/>
		<stop  offset="0.8" style="stop-color:#BCA37E"/>
		<stop  offset="0.92" style="stop-color:#B19A77"/>
		<stop  offset="1" style="stop-color:#CBB189"/>
	</linearGradient>
	<path fill="url(#SVGID_10_)" d="M194.91-13.371h0.75c0.75,0,1.805,0.695,1.805,1.594l-0.305,26.156h-3.75v-26.25
		c0-0.75,0.707-1.5,1.609-1.5H194.91z"/>
	
		<linearGradient id="SVGID_11_" gradientUnits="userSpaceOnUse" x1="26.9004" y1="149.2861" x2="21.4893" y2="149.2861" gradientTransform="matrix(0.75 0 0 -0.75 193.3398 112.4678)">
		<stop  offset="0" style="stop-color:#BDA47F"/>
		<stop  offset="0.15" style="stop-color:#FFE0B3"/>
		<stop  offset="0.25" style="stop-color:#FFEED7"/>
		<stop  offset="0.52" style="stop-color:#DFC297"/>
		<stop  offset="0.69" style="stop-color:#C7AD86"/>
		<stop  offset="0.8" style="stop-color:#BCA37E"/>
		<stop  offset="0.92" style="stop-color:#B19A77"/>
		<stop  offset="1" style="stop-color:#CBB189"/>
	</linearGradient>
	<path fill="url(#SVGID_11_)" d="M210.957-13.371h0.75c0.75,0,1.809,0.695,1.809,1.594l-0.309,26.156h-3.75v-26.25
		c0-0.75,0.707-1.5,1.609-1.5H210.957z"/>
	
		<linearGradient id="SVGID_12_" gradientUnits="userSpaceOnUse" x1="26.8965" y1="149.2861" x2="21.4902" y2="149.2861" gradientTransform="matrix(0.75 0 0 -0.75 80.5425 112.4678)">
		<stop  offset="0" style="stop-color:#BDA47F"/>
		<stop  offset="0.15" style="stop-color:#FFE0B3"/>
		<stop  offset="0.25" style="stop-color:#FFEED7"/>
		<stop  offset="0.52" style="stop-color:#DFC297"/>
		<stop  offset="0.69" style="stop-color:#C7AD86"/>
		<stop  offset="0.8" style="stop-color:#BCA37E"/>
		<stop  offset="0.92" style="stop-color:#B19A77"/>
		<stop  offset="1" style="stop-color:#CBB189"/>
	</linearGradient>
	<path fill="url(#SVGID_12_)" d="M98.16-13.371h0.75c0.75,0,1.805,0.695,1.805,1.594l-0.305,26.156h-3.75v-26.25
		c0-0.75,0.707-1.5,1.609-1.5H98.16z"/>
	
		<linearGradient id="SVGID_13_" gradientUnits="userSpaceOnUse" x1="26.8984" y1="149.2861" x2="21.4873" y2="149.2861" gradientTransform="matrix(0.75 0 0 -0.75 144.6968 112.4678)">
		<stop  offset="0" style="stop-color:#BDA47F"/>
		<stop  offset="0.15" style="stop-color:#FFE0B3"/>
		<stop  offset="0.25" style="stop-color:#FFEED7"/>
		<stop  offset="0.52" style="stop-color:#DFC297"/>
		<stop  offset="0.69" style="stop-color:#C7AD86"/>
		<stop  offset="0.8" style="stop-color:#BCA37E"/>
		<stop  offset="0.92" style="stop-color:#B19A77"/>
		<stop  offset="1" style="stop-color:#CBB189"/>
	</linearGradient>
	<path fill="url(#SVGID_13_)" d="M162.313-13.371h0.75c0.75,0,1.809,0.695,1.809,1.594l-0.309,26.156h-3.75v-26.25
		c0-0.75,0.707-1.5,1.609-1.5H162.313z"/>
	
		<linearGradient id="SVGID_14_" gradientUnits="userSpaceOnUse" x1="26.8984" y1="149.2861" x2="21.4873" y2="149.2861" gradientTransform="matrix(0.75 0 0 -0.75 209.1265 112.4678)">
		<stop  offset="0" style="stop-color:#BDA47F"/>
		<stop  offset="0.15" style="stop-color:#FFE0B3"/>
		<stop  offset="0.25" style="stop-color:#FFEED7"/>
		<stop  offset="0.52" style="stop-color:#DFC297"/>
		<stop  offset="0.69" style="stop-color:#C7AD86"/>
		<stop  offset="0.8" style="stop-color:#BCA37E"/>
		<stop  offset="0.92" style="stop-color:#B19A77"/>
		<stop  offset="1" style="stop-color:#CBB189"/>
	</linearGradient>
	<path fill="url(#SVGID_14_)" d="M226.742-13.371h0.75c0.75,0,1.809,0.695,1.809,1.594l-0.309,26.156h-3.75v-26.25
		c0-0.75,0.707-1.5,1.609-1.5H226.742z"/>
	
		<linearGradient id="SVGID_15_" gradientUnits="userSpaceOnUse" x1="26.8989" y1="149.2861" x2="21.4878" y2="149.2861" gradientTransform="matrix(0.75 0 0 -0.75 241.2236 112.4678)">
		<stop  offset="0" style="stop-color:#BDA47F"/>
		<stop  offset="0.15" style="stop-color:#FFE0B3"/>
		<stop  offset="0.25" style="stop-color:#FFEED7"/>
		<stop  offset="0.52" style="stop-color:#DFC297"/>
		<stop  offset="0.69" style="stop-color:#C7AD86"/>
		<stop  offset="0.8" style="stop-color:#BCA37E"/>
		<stop  offset="0.92" style="stop-color:#B19A77"/>
		<stop  offset="1" style="stop-color:#CBB189"/>
	</linearGradient>
	<path fill="url(#SVGID_15_)" d="M258.84-13.371h0.75c0.75,0,1.809,0.695,1.809,1.594l-0.309,26.156h-3.75v-26.25
		c0-0.75,0.707-1.5,1.609-1.5H258.84z"/>
	
		<linearGradient id="SVGID_16_" gradientUnits="userSpaceOnUse" x1="26.897" y1="149.2861" x2="21.4849" y2="149.2861" gradientTransform="matrix(0.75 0 0 -0.75 273.2803 112.4678)">
		<stop  offset="0" style="stop-color:#BDA47F"/>
		<stop  offset="0.15" style="stop-color:#FFE0B3"/>
		<stop  offset="0.25" style="stop-color:#FFEED7"/>
		<stop  offset="0.52" style="stop-color:#DFC297"/>
		<stop  offset="0.69" style="stop-color:#C7AD86"/>
		<stop  offset="0.8" style="stop-color:#BCA37E"/>
		<stop  offset="0.92" style="stop-color:#B19A77"/>
		<stop  offset="1" style="stop-color:#CBB189"/>
	</linearGradient>
	<path fill="url(#SVGID_16_)" d="M290.895-13.371h0.75c0.75,0,1.809,0.695,1.809,1.594l-0.309,26.156h-3.75v-26.25
		c0-0.75,0.711-1.5,1.613-1.5H290.895z"/>
	
		<linearGradient id="SVGID_17_" gradientUnits="userSpaceOnUse" x1="26.8999" y1="149.2861" x2="21.4888" y2="149.2861" gradientTransform="matrix(0.75 0 0 -0.75 289.3286 112.4678)">
		<stop  offset="0" style="stop-color:#BDA47F"/>
		<stop  offset="0.15" style="stop-color:#FFE0B3"/>
		<stop  offset="0.25" style="stop-color:#FFEED7"/>
		<stop  offset="0.52" style="stop-color:#DFC297"/>
		<stop  offset="0.69" style="stop-color:#C7AD86"/>
		<stop  offset="0.8" style="stop-color:#BCA37E"/>
		<stop  offset="0.92" style="stop-color:#B19A77"/>
		<stop  offset="1" style="stop-color:#CBB189"/>
	</linearGradient>
	<path fill="url(#SVGID_17_)" d="M306.945-13.371h0.75c0.75,0,1.809,0.695,1.809,1.594l-0.309,26.156h-3.75v-26.25
		c0-0.75,0.707-1.5,1.609-1.5H306.945z"/>
	
		<linearGradient id="SVGID_18_" gradientUnits="userSpaceOnUse" x1="26.8979" y1="149.2861" x2="21.4858" y2="149.2861" gradientTransform="matrix(0.75 0 0 -0.75 305.3774 112.4678)">
		<stop  offset="0" style="stop-color:#BDA47F"/>
		<stop  offset="0.15" style="stop-color:#FFE0B3"/>
		<stop  offset="0.25" style="stop-color:#FFEED7"/>
		<stop  offset="0.52" style="stop-color:#DFC297"/>
		<stop  offset="0.69" style="stop-color:#C7AD86"/>
		<stop  offset="0.8" style="stop-color:#BCA37E"/>
		<stop  offset="0.92" style="stop-color:#B19A77"/>
		<stop  offset="1" style="stop-color:#CBB189"/>
	</linearGradient>
	<path fill="url(#SVGID_18_)" d="M322.992-13.371h0.75c0.75,0,1.809,0.695,1.809,1.594l-0.309,26.156h-3.75v-26.25
		c0-0.75,0.711-1.5,1.609-1.5H322.992z"/>
	
		<linearGradient id="SVGID_19_" gradientUnits="userSpaceOnUse" x1="26.8999" y1="149.2861" x2="21.4878" y2="149.2861" gradientTransform="matrix(0.75 0 0 -0.75 257.2705 112.4678)">
		<stop  offset="0" style="stop-color:#BDA47F"/>
		<stop  offset="0.15" style="stop-color:#FFE0B3"/>
		<stop  offset="0.25" style="stop-color:#FFEED7"/>
		<stop  offset="0.52" style="stop-color:#DFC297"/>
		<stop  offset="0.69" style="stop-color:#C7AD86"/>
		<stop  offset="0.8" style="stop-color:#BCA37E"/>
		<stop  offset="0.92" style="stop-color:#B19A77"/>
		<stop  offset="1" style="stop-color:#CBB189"/>
	</linearGradient>
	<path fill="url(#SVGID_19_)" d="M274.887-13.371h0.75c0.75,0,1.809,0.695,1.809,1.594l-0.309,26.156h-3.75v-26.25
		c0-0.75,0.707-1.5,1.609-1.5H274.887z"/>
	
		<linearGradient id="SVGID_20_" gradientUnits="userSpaceOnUse" x1="420.4873" y1="151.3086" x2="21.4873" y2="151.3086" gradientTransform="matrix(0.75 0 0 -0.75 13.8838 138.5723)">
		<stop  offset="0" style="stop-color:#C3A156"/>
		<stop  offset="0.15" style="stop-color:#FED681"/>
		<stop  offset="0.25" style="stop-color:#FEE8C2"/>
		<stop  offset="0.52" style="stop-color:#DEB863"/>
		<stop  offset="0.69" style="stop-color:#C6A457"/>
		<stop  offset="0.8" style="stop-color:#BB9B52"/>
		<stop  offset="0.97" style="stop-color:#B0924D"/>
		<stop  offset="1" style="stop-color:#CBA859"/>
	</linearGradient>
	<path fill="url(#SVGID_20_)" d="M33.75,12.734H325.5c2.25,0,3.75,1.484,3.75,3.359v21.391H30v-21.75c0-1.5,1.523-3.035,3.406-3.035
		L33.75,12.734z"/>
	
		<linearGradient id="SVGID_21_" gradientUnits="userSpaceOnUse" x1="-530.5962" y1="59.0361" x2="-534.8354" y2="59.0361" gradientTransform="matrix(0 -0.75 -0.75 0 288.7725 -307.002)">
		<stop  offset="0" style="stop-color:#B9B9B9"/>
		<stop  offset="0.15" style="stop-color:#F2F2F2"/>
		<stop  offset="0.25" style="stop-color:#F3F3F3"/>
		<stop  offset="0.52" style="stop-color:#D0D0D0"/>
		<stop  offset="0.69" style="stop-color:#B9B9B9"/>
		<stop  offset="0.8" style="stop-color:#AFAFAF"/>
		<stop  offset="0.92" style="stop-color:#A5A5A5"/>
	</linearGradient>
	<path fill="url(#SVGID_21_)" d="M228.859,92.625c0-0.75,0.262-1.68,0.586-1.68l30.164,0.18c0,0,0.43,0.477,0.43,1.289
		c0.32,0.961-0.266,1.711-0.59,1.711h-29.84c-0.75,0-0.75-0.656-0.75-1.469V92.625z"/>
	
		<linearGradient id="SVGID_22_" gradientUnits="userSpaceOnUse" x1="-530.5952" y1="59.0376" x2="-534.8394" y2="59.0376" gradientTransform="matrix(0 -0.75 -0.75 0 289.0137 -288.8887)">
		<stop  offset="0" style="stop-color:#B9B9B9"/>
		<stop  offset="0.15" style="stop-color:#F2F2F2"/>
		<stop  offset="0.25" style="stop-color:#F3F3F3"/>
		<stop  offset="0.52" style="stop-color:#D0D0D0"/>
		<stop  offset="0.69" style="stop-color:#B9B9B9"/>
		<stop  offset="0.8" style="stop-color:#AFAFAF"/>
		<stop  offset="0.92" style="stop-color:#A5A5A5"/>
	</linearGradient>
	<path fill="url(#SVGID_22_)" d="M229.098,110.742c0-0.75,0.262-1.684,0.59-1.684l30.16,0.184c0,0,0.434,0.473,0.434,1.285
		c0.316,0.965-0.266,1.715-0.59,1.715h-29.844c-0.75,0-0.75-0.66-0.75-1.469V110.742z"/>
	
		<linearGradient id="SVGID_23_" gradientUnits="userSpaceOnUse" x1="-530.5952" y1="59.0386" x2="-534.8403" y2="59.0386" gradientTransform="matrix(0 -0.75 -0.75 0 289.209 -271.209)">
		<stop  offset="0" style="stop-color:#B9B9B9"/>
		<stop  offset="0.15" style="stop-color:#F2F2F2"/>
		<stop  offset="0.25" style="stop-color:#F3F3F3"/>
		<stop  offset="0.52" style="stop-color:#D0D0D0"/>
		<stop  offset="0.69" style="stop-color:#B9B9B9"/>
		<stop  offset="0.8" style="stop-color:#AFAFAF"/>
		<stop  offset="0.92" style="stop-color:#A5A5A5"/>
	</linearGradient>
	<path fill="url(#SVGID_23_)" d="M229.293,128.422c0-0.75,0.262-1.684,0.59-1.684l30.16,0.184c0,0,0.434,0.473,0.434,1.285
		c0.316,0.965-0.266,1.715-0.594,1.715h-29.84c-0.75,0-0.75-0.66-0.75-1.473V128.422z"/>
	
		<linearGradient id="SVGID_24_" gradientUnits="userSpaceOnUse" x1="-530.5933" y1="59.0376" x2="-534.8374" y2="59.0376" gradientTransform="matrix(0 -0.75 -0.75 0 289.0137 -325.1211)">
		<stop  offset="0" style="stop-color:#B9B9B9"/>
		<stop  offset="0.15" style="stop-color:#F2F2F2"/>
		<stop  offset="0.25" style="stop-color:#F3F3F3"/>
		<stop  offset="0.52" style="stop-color:#D0D0D0"/>
		<stop  offset="0.69" style="stop-color:#B9B9B9"/>
		<stop  offset="0.8" style="stop-color:#AFAFAF"/>
		<stop  offset="0.92" style="stop-color:#A5A5A5"/>
	</linearGradient>
	<path fill="url(#SVGID_24_)" d="M229.098,74.508c0-0.75,0.262-1.684,0.59-1.684l30.16,0.184c0,0,0.434,0.473,0.434,1.285
		c0.316,0.965-0.266,1.715-0.59,1.715h-29.844c-0.75,0-0.75-0.66-0.75-1.469V74.508z"/>
	
		<linearGradient id="SVGID_25_" gradientUnits="userSpaceOnUse" x1="-530.5913" y1="59.0361" x2="-534.8364" y2="59.0361" gradientTransform="matrix(0 -0.75 -0.75 0 288.3623 -343.2412)">
		<stop  offset="0" style="stop-color:#B9B9B9"/>
		<stop  offset="0.15" style="stop-color:#F2F2F2"/>
		<stop  offset="0.25" style="stop-color:#F3F3F3"/>
		<stop  offset="0.52" style="stop-color:#D0D0D0"/>
		<stop  offset="0.69" style="stop-color:#B9B9B9"/>
		<stop  offset="0.8" style="stop-color:#AFAFAF"/>
		<stop  offset="0.92" style="stop-color:#A5A5A5"/>
	</linearGradient>
	<path fill="url(#SVGID_25_)" d="M228.449,56.387c0-0.75,0.262-1.684,0.586-1.684l30.164,0.184c0,0,0.43,0.477,0.43,1.289
		c0.32,0.961-0.266,1.711-0.59,1.711h-29.84c-0.75,0-0.75-0.656-0.75-1.469V56.387z"/>
	
		<linearGradient id="SVGID_26_" gradientUnits="userSpaceOnUse" x1="-530.5962" y1="59.0376" x2="-534.8354" y2="59.0376" gradientTransform="matrix(0 -0.75 -0.75 0 288.3574 -361.4824)">
		<stop  offset="0" style="stop-color:#B9B9B9"/>
		<stop  offset="0.15" style="stop-color:#F2F2F2"/>
		<stop  offset="0.25" style="stop-color:#F3F3F3"/>
		<stop  offset="0.52" style="stop-color:#D0D0D0"/>
		<stop  offset="0.69" style="stop-color:#B9B9B9"/>
		<stop  offset="0.8" style="stop-color:#AFAFAF"/>
		<stop  offset="0.92" style="stop-color:#A5A5A5"/>
	</linearGradient>
	<path fill="url(#SVGID_26_)" d="M228.441,38.145c0-0.75,0.262-1.68,0.59-1.68l30.16,0.18c0,0,0.434,0.477,0.434,1.289
		c0.316,0.961-0.266,1.711-0.594,1.711h-29.84c-0.75,0-0.75-0.656-0.75-1.469V38.145z"/>
	
		<linearGradient id="SVGID_27_" gradientUnits="userSpaceOnUse" x1="-530.5952" y1="59.0386" x2="-534.8394" y2="59.0386" gradientTransform="matrix(0 -0.75 -0.75 0 288.3652 -379.5439)">
		<stop  offset="0" style="stop-color:#B9B9B9"/>
		<stop  offset="0.15" style="stop-color:#F2F2F2"/>
		<stop  offset="0.25" style="stop-color:#F3F3F3"/>
		<stop  offset="0.52" style="stop-color:#D0D0D0"/>
		<stop  offset="0.69" style="stop-color:#B9B9B9"/>
		<stop  offset="0.8" style="stop-color:#AFAFAF"/>
		<stop  offset="0.92" style="stop-color:#A5A5A5"/>
	</linearGradient>
	<path fill="url(#SVGID_27_)" d="M228.449,20.086c0-0.75,0.262-1.684,0.59-1.684l30.16,0.184c0,0,0.434,0.473,0.434,1.285
		c0.316,0.965-0.266,1.715-0.59,1.715h-29.844c-0.75,0-0.75-0.66-0.75-1.469V20.086z"/>
	
		<linearGradient id="SVGID_28_" gradientUnits="userSpaceOnUse" x1="-530.5933" y1="59.0356" x2="-534.8384" y2="59.0356" gradientTransform="matrix(0 -0.75 -0.75 0 289.0117 -397.6064)">
		<stop  offset="0" style="stop-color:#B9B9B9"/>
		<stop  offset="0.15" style="stop-color:#F2F2F2"/>
		<stop  offset="0.25" style="stop-color:#F3F3F3"/>
		<stop  offset="0.52" style="stop-color:#D0D0D0"/>
		<stop  offset="0.69" style="stop-color:#B9B9B9"/>
		<stop  offset="0.8" style="stop-color:#AFAFAF"/>
		<stop  offset="0.92" style="stop-color:#A5A5A5"/>
	</linearGradient>
	<path fill="url(#SVGID_28_)" d="M229.098,2.023c0-0.75,0.262-1.684,0.586-1.684l30.164,0.184c0,0,0.434,0.473,0.434,1.285
		c0.316,0.965-0.27,1.715-0.594,1.715h-29.84c-0.75,0-0.75-0.66-0.75-1.469V2.023z"/>
	
		<linearGradient id="SVGID_29_" gradientUnits="userSpaceOnUse" x1="27.7007" y1="67.9106" x2="21.4878" y2="67.9106" gradientTransform="matrix(0.75 0 0 -0.75 209.3687 113.2324)">
		<stop  offset="0" style="stop-color:#B9B9B9"/>
		<stop  offset="0.15" style="stop-color:#F2F2F2"/>
		<stop  offset="0.25" style="stop-color:#F3F3F3"/>
		<stop  offset="0.52" style="stop-color:#D0D0D0"/>
		<stop  offset="0.69" style="stop-color:#B9B9B9"/>
		<stop  offset="0.8" style="stop-color:#AFAFAF"/>
		<stop  offset="0.92" style="stop-color:#A5A5A5"/>
	</linearGradient>
	<path fill="url(#SVGID_29_)" d="M227.734-12.605c1.5,0,2.41,0.715,2.41,1.629l-0.16,146.871c0,0.75-0.887,1.277-2.172,1.277
		c-1.578,0.223-2.328-0.738-2.328-1.652V-11.105c0-0.75,1.035-1.5,2.328-1.5H227.734z"/>
	
		<linearGradient id="SVGID_30_" gradientUnits="userSpaceOnUse" x1="27.6978" y1="67.9106" x2="21.4897" y2="67.9106" gradientTransform="matrix(0.75 0 0 -0.75 240.3398 113.2324)">
		<stop  offset="0" style="stop-color:#B9B9B9"/>
		<stop  offset="0.15" style="stop-color:#F2F2F2"/>
		<stop  offset="0.25" style="stop-color:#F3F3F3"/>
		<stop  offset="0.52" style="stop-color:#D0D0D0"/>
		<stop  offset="0.69" style="stop-color:#B9B9B9"/>
		<stop  offset="0.8" style="stop-color:#AFAFAF"/>
		<stop  offset="0.92" style="stop-color:#A5A5A5"/>
	</linearGradient>
	<path fill="url(#SVGID_30_)" d="M258.707-12.605c1.5,0,2.406,0.715,2.406,1.629l-0.156,146.871c0,0.75-0.887,1.277-2.172,1.277
		c-1.578,0.223-2.328-0.738-2.328-1.652V-11.105c0-0.75,1.035-1.5,2.328-1.5H258.707z"/>
	
		<linearGradient id="SVGID_31_" gradientUnits="userSpaceOnUse" x1="113.4897" y1="165.7842" x2="21.4897" y2="165.7842" gradientTransform="matrix(0.75 0 0 -0.75 192.8237 239.5605)">
		<stop  offset="0" style="stop-color:#BDA47F"/>
		<stop  offset="0.15" style="stop-color:#FFE0B3"/>
		<stop  offset="0.25" style="stop-color:#FFEED7"/>
		<stop  offset="0.52" style="stop-color:#DFC297"/>
		<stop  offset="0.69" style="stop-color:#C7AD86"/>
		<stop  offset="0.8" style="stop-color:#BCA37E"/>
		<stop  offset="0.92" style="stop-color:#B19A77"/>
		<stop  offset="1" style="stop-color:#CBB189"/>
	</linearGradient>
	<path fill="url(#SVGID_31_)" d="M208.941,113.723h69v3h-69V113.723z"/>
	
		<linearGradient id="SVGID_32_" gradientUnits="userSpaceOnUse" x1="26.897" y1="149.291" x2="21.4858" y2="149.291" gradientTransform="matrix(0.75 0 0 -0.75 192.3931 233.498)">
		<stop  offset="0" style="stop-color:#BDA47F"/>
		<stop  offset="0.15" style="stop-color:#FFE0B3"/>
		<stop  offset="0.25" style="stop-color:#FFEED7"/>
		<stop  offset="0.52" style="stop-color:#DFC297"/>
		<stop  offset="0.69" style="stop-color:#C7AD86"/>
		<stop  offset="0.8" style="stop-color:#BCA37E"/>
		<stop  offset="0.92" style="stop-color:#B19A77"/>
		<stop  offset="1" style="stop-color:#CBB189"/>
	</linearGradient>
	<path fill="url(#SVGID_32_)" d="M210.008,107.656h0.75c0.75,0,1.809,0.699,1.809,1.594l-0.309,26.156h-3.75v-26.25
		c0-0.75,0.711-1.5,1.609-1.5H210.008z"/>
	
		<linearGradient id="SVGID_33_" gradientUnits="userSpaceOnUse" x1="26.356" y1="165.3789" x2="21.4497" y2="165.3789" gradientTransform="matrix(0.75 0 0 -0.75 192.5845 239.377)">
		<stop  offset="0" style="stop-color:#B37900"/>
		<stop  offset="0.15" style="stop-color:#F2AC45"/>
		<stop  offset="0.25" style="stop-color:#F7D4B3"/>
		<stop  offset="0.52" style="stop-color:#D39000"/>
		<stop  offset="0.69" style="stop-color:#BC8000"/>
		<stop  offset="0.8" style="stop-color:#B17800"/>
		<stop  offset="0.92" style="stop-color:#A77100"/>
		<stop  offset="1" style="stop-color:#C08300"/>
	</linearGradient>
	<path fill="url(#SVGID_33_)" d="M208.699,115.039c0-0.75,0.793-1.523,1.809-1.523c1.191,0.023,1.836,0.816,1.836,1.824
		c0.105,1.199-0.82,1.82-1.836,1.82c-1.059,0.129-1.836-0.816-1.836-1.82L208.699,115.039z"/>
	
		<linearGradient id="SVGID_34_" gradientUnits="userSpaceOnUse" x1="26.8979" y1="149.291" x2="21.4868" y2="149.291" gradientTransform="matrix(0.75 0 0 -0.75 224.4512 233.498)">
		<stop  offset="0" style="stop-color:#BDA47F"/>
		<stop  offset="0.15" style="stop-color:#FFE0B3"/>
		<stop  offset="0.25" style="stop-color:#FFEED7"/>
		<stop  offset="0.52" style="stop-color:#DFC297"/>
		<stop  offset="0.69" style="stop-color:#C7AD86"/>
		<stop  offset="0.8" style="stop-color:#BCA37E"/>
		<stop  offset="0.92" style="stop-color:#B19A77"/>
		<stop  offset="1" style="stop-color:#CBB189"/>
	</linearGradient>
	<path fill="url(#SVGID_34_)" d="M242.066,107.656h0.75c0.75,0,1.809,0.699,1.809,1.594l-0.309,26.156h-3.75v-26.25
		c0-0.75,0.711-1.5,1.609-1.5H242.066z"/>
	
		<linearGradient id="SVGID_35_" gradientUnits="userSpaceOnUse" x1="26.895" y1="149.291" x2="21.4888" y2="149.291" gradientTransform="matrix(0.75 0 0 -0.75 240.5 233.498)">
		<stop  offset="0" style="stop-color:#BDA47F"/>
		<stop  offset="0.15" style="stop-color:#FFE0B3"/>
		<stop  offset="0.25" style="stop-color:#FFEED7"/>
		<stop  offset="0.52" style="stop-color:#DFC297"/>
		<stop  offset="0.69" style="stop-color:#C7AD86"/>
		<stop  offset="0.8" style="stop-color:#BCA37E"/>
		<stop  offset="0.92" style="stop-color:#B19A77"/>
		<stop  offset="1" style="stop-color:#CBB189"/>
	</linearGradient>
	<path fill="url(#SVGID_35_)" d="M258.117,107.656h0.75c0.75,0,1.805,0.699,1.805,1.594l-0.305,26.156h-3.75v-26.25
		c0-0.75,0.707-1.5,1.609-1.5H258.117z"/>
	
		<linearGradient id="SVGID_36_" gradientUnits="userSpaceOnUse" x1="26.896" y1="149.291" x2="21.4897" y2="149.291" gradientTransform="matrix(0.75 0 0 -0.75 256.5469 233.498)">
		<stop  offset="0" style="stop-color:#BDA47F"/>
		<stop  offset="0.15" style="stop-color:#FFE0B3"/>
		<stop  offset="0.25" style="stop-color:#FFEED7"/>
		<stop  offset="0.52" style="stop-color:#DFC297"/>
		<stop  offset="0.69" style="stop-color:#C7AD86"/>
		<stop  offset="0.8" style="stop-color:#BCA37E"/>
		<stop  offset="0.92" style="stop-color:#B19A77"/>
		<stop  offset="1" style="stop-color:#CBB189"/>
	</linearGradient>
	<path fill="url(#SVGID_36_)" d="M274.164,107.656h0.75c0.75,0,1.805,0.699,1.805,1.594l-0.305,26.156h-3.75v-26.25
		c0-0.75,0.707-1.5,1.609-1.5H274.164z"/>
	
		<linearGradient id="SVGID_37_" gradientUnits="userSpaceOnUse" x1="26.3569" y1="165.3799" x2="21.4507" y2="165.3799" gradientTransform="matrix(0.75 0 0 -0.75 224.6426 239.6563)">
		<stop  offset="0" style="stop-color:#B37900"/>
		<stop  offset="0.15" style="stop-color:#F2AC45"/>
		<stop  offset="0.25" style="stop-color:#F7D4B3"/>
		<stop  offset="0.52" style="stop-color:#D39000"/>
		<stop  offset="0.69" style="stop-color:#BC8000"/>
		<stop  offset="0.8" style="stop-color:#B17800"/>
		<stop  offset="0.92" style="stop-color:#A77100"/>
		<stop  offset="1" style="stop-color:#C08300"/>
	</linearGradient>
	<path fill="url(#SVGID_37_)" d="M240.758,115.316c0-0.75,0.793-1.523,1.809-1.523c1.191,0.023,1.836,0.816,1.836,1.824
		c0.105,1.199-0.824,1.824-1.836,1.824c-1.059,0.125-1.836-0.816-1.836-1.824L240.758,115.316z"/>
	
		<linearGradient id="SVGID_38_" gradientUnits="userSpaceOnUse" x1="26.355" y1="165.3779" x2="21.4478" y2="165.3779" gradientTransform="matrix(0.75 0 0 -0.75 240.6914 239.375)">
		<stop  offset="0" style="stop-color:#B37900"/>
		<stop  offset="0.15" style="stop-color:#F2AC45"/>
		<stop  offset="0.25" style="stop-color:#F7D4B3"/>
		<stop  offset="0.52" style="stop-color:#D39000"/>
		<stop  offset="0.69" style="stop-color:#BC8000"/>
		<stop  offset="0.8" style="stop-color:#B17800"/>
		<stop  offset="0.92" style="stop-color:#A77100"/>
		<stop  offset="1" style="stop-color:#C08300"/>
	</linearGradient>
	<path fill="url(#SVGID_38_)" d="M256.809,115.035c0-0.75,0.793-1.52,1.805-1.52c1.195,0.02,1.836,0.813,1.836,1.82
		c0.109,1.199-0.82,1.824-1.836,1.824c-1.055,0.125-1.836-0.816-1.836-1.824L256.809,115.035z"/>
	
		<linearGradient id="SVGID_39_" gradientUnits="userSpaceOnUse" x1="26.3574" y1="165.3779" x2="21.4512" y2="165.3779" gradientTransform="matrix(0.75 0 0 -0.75 256.7397 239.375)">
		<stop  offset="0" style="stop-color:#B37900"/>
		<stop  offset="0.15" style="stop-color:#F2AC45"/>
		<stop  offset="0.25" style="stop-color:#F7D4B3"/>
		<stop  offset="0.52" style="stop-color:#D39000"/>
		<stop  offset="0.69" style="stop-color:#BC8000"/>
		<stop  offset="0.8" style="stop-color:#B17800"/>
		<stop  offset="0.92" style="stop-color:#A77100"/>
		<stop  offset="1" style="stop-color:#C08300"/>
	</linearGradient>
	<path fill="url(#SVGID_39_)" d="M272.855,115.035c0-0.75,0.793-1.52,1.809-1.52c1.191,0.02,1.836,0.813,1.836,1.82
		c0.105,1.199-0.824,1.824-1.836,1.824c-1.059,0.125-1.836-0.816-1.836-1.824L272.855,115.035z"/>
	
		<linearGradient id="SVGID_40_" gradientUnits="userSpaceOnUse" x1="26.8999" y1="149.291" x2="21.4888" y2="149.291" gradientTransform="matrix(0.75 0 0 -0.75 208.4419 233.498)">
		<stop  offset="0" style="stop-color:#BDA47F"/>
		<stop  offset="0.15" style="stop-color:#FFE0B3"/>
		<stop  offset="0.25" style="stop-color:#FFEED7"/>
		<stop  offset="0.52" style="stop-color:#DFC297"/>
		<stop  offset="0.69" style="stop-color:#C7AD86"/>
		<stop  offset="0.8" style="stop-color:#BCA37E"/>
		<stop  offset="0.92" style="stop-color:#B19A77"/>
		<stop  offset="1" style="stop-color:#CBB189"/>
	</linearGradient>
	<path fill="url(#SVGID_40_)" d="M226.059,107.656h0.75c0.75,0,1.809,0.699,1.809,1.594l-0.309,26.156h-3.75v-26.25
		c0-0.75,0.707-1.5,1.609-1.5H226.059z"/>
	
		<linearGradient id="SVGID_41_" gradientUnits="userSpaceOnUse" x1="26.355" y1="165.3789" x2="21.4526" y2="165.3789" gradientTransform="matrix(0.75 0 0 -0.75 208.6333 239.6592)">
		<stop  offset="0" style="stop-color:#B37900"/>
		<stop  offset="0.15" style="stop-color:#F2AC45"/>
		<stop  offset="0.25" style="stop-color:#F7D4B3"/>
		<stop  offset="0.52" style="stop-color:#D39000"/>
		<stop  offset="0.69" style="stop-color:#BC8000"/>
		<stop  offset="0.8" style="stop-color:#B17800"/>
		<stop  offset="0.92" style="stop-color:#A77100"/>
		<stop  offset="1" style="stop-color:#C08300"/>
	</linearGradient>
	<path fill="url(#SVGID_41_)" d="M224.75,115.32c0-0.75,0.793-1.523,1.805-1.523c1.195,0.023,1.836,0.816,1.836,1.824
		c0.109,1.199-0.82,1.824-1.836,1.824c-1.055,0.125-1.832-0.816-1.832-1.824L224.75,115.32z"/>
	
		<linearGradient id="SVGID_42_" gradientUnits="userSpaceOnUse" x1="120.9556" y1="163.8213" x2="21.4868" y2="163.8213" gradientTransform="matrix(0.75 0 0 -0.75 189.916 260.5723)">
		<stop  offset="0" style="stop-color:#C3A156"/>
		<stop  offset="0.15" style="stop-color:#FED681"/>
		<stop  offset="0.25" style="stop-color:#FEE8C2"/>
		<stop  offset="0.52" style="stop-color:#DEB863"/>
		<stop  offset="0.69" style="stop-color:#C6A457"/>
		<stop  offset="0.8" style="stop-color:#BB9B52"/>
		<stop  offset="0.97" style="stop-color:#B0924D"/>
		<stop  offset="1" style="stop-color:#CBA859"/>
	</linearGradient>
	<path fill="url(#SVGID_42_)" d="M209.031,134.73h68.25c2.25,0,3.352,1.27,3.352,2.895c-0.352,1.605-1.367,2.941-3,2.941
		l-68.602,0.164c-1.5,0-3-1.48-3-3.105c0-1.395,1.309-2.941,2.941-2.941L209.031,134.73z"/>
</g>
</svg>
