<?xml version="1.0" encoding="utf-8"?>
<!-- Generator: Adobe Illustrator 16.0.0, SVG Export Plug-In . SVG Version: 6.00 Build 0)  -->
<!DOCTYPE svg PUBLIC "-//W3C//DTD SVG 1.1//EN" "http://www.w3.org/Graphics/SVG/1.1/DTD/svg11.dtd">
<svg preserveAspectRatio="none" version="1.1" id="图层_1" xmlns="http://www.w3.org/2000/svg" xmlns:xlink="http://www.w3.org/1999/xlink" x="0px" y="0px"
	 width="340.5px" height="340.5px" viewBox="30 -28.758 340.5 340.5" enable-background="new 30 -28.758 340.5 340.5"
	 xml:space="preserve">
<g id="surface971">
	
		<linearGradient id="SVGID_1_" gradientUnits="userSpaceOnUse" x1="468.6123" y1="-13.71" x2="14.6123" y2="-13.71" gradientTransform="matrix(0.75 0 0 -0.75 19.04 131.208)">
		<stop  offset="0" style="stop-color:#368688"/>
		<stop  offset="0.01" style="stop-color:#8CCDCF"/>
		<stop  offset="0.03" style="stop-color:#49AFB2"/>
		<stop  offset="0.9" style="stop-color:#48ACAF"/>
		<stop  offset="0.98" style="stop-color:#46A8AB"/>
		<stop  offset="1" style="stop-color:#317C7E"/>
	</linearGradient>
	<path fill="url(#SVGID_1_)" d="M30.75-28.758h339c0.75,0,0.75,0,0.75,0.465v339.285c0,0.75,0,0.75-0.512,0.75H30.75
		c-0.75,0-0.75,0-0.75-0.488V-28.008c0-0.75,0-0.75,0.438-0.75H30.75z"/>
	<path fill="#FDE9D0" stroke="#EACD98" stroke-linejoin="bevel" stroke-miterlimit="10" d="M52.629,217.859
		c0-39,31.629-70.5,70.707-70.5c38.793,0,70.703,31.656,70.703,70.707c0.34,38.793-31.68,70.707-70.703,70.707
		c-39.207,0.336-70.707-31.656-70.707-70.707V217.859z"/>
	<path fill="#A0D8EF" stroke="#89C3EB" stroke-linejoin="bevel" stroke-miterlimit="10" d="M59.34,217.816
		c0-35.25,28.629-63.75,63.996-63.75c35.004,0,63.996,28.652,63.996,63.996c0.258,35.004-28.676,63.996-63.996,63.996
		c-35.496,0.258-63.996-28.652-63.996-63.996V217.816z"/>
	<path fill="#FDE9D0" stroke="#EACD98" stroke-linejoin="bevel" stroke-miterlimit="10" d="M52.629,64.676
		c0-39,31.629-70.5,70.707-70.5c38.793,0,70.703,31.656,70.703,70.707c0.34,38.793-31.68,70.707-70.703,70.707
		c-39.207,0.336-70.707-31.656-70.707-70.707V64.676z"/>
	<path fill="#A0D8EF" stroke="#89C3EB" stroke-linejoin="bevel" stroke-miterlimit="10" d="M59.336,64.633
		c0-35.25,28.633-63.75,64-63.75c35,0,63.996,28.652,63.996,63.996c0.254,35.004-28.676,64-63.996,64c-35.5,0.254-64-28.652-64-64
		V64.633z"/>
	<path fill="#FDE9D0" stroke="#EACD98" stroke-linejoin="bevel" stroke-miterlimit="10" d="M206.367,217.859
		c0-39,31.633-70.5,70.707-70.5c38.793,0,70.703,31.656,70.703,70.707c0.34,38.793-31.68,70.707-70.703,70.707
		c-39.207,0.336-70.707-31.656-70.707-70.707V217.859z"/>
	<path fill="#A0D8EF" stroke="#89C3EB" stroke-linejoin="bevel" stroke-miterlimit="10" d="M213.078,217.816
		c0-35.25,28.629-63.75,63.996-63.75c35.004,0,63.996,28.652,63.996,63.996c0.258,35.004-28.676,63.996-63.996,63.996
		c-35.496,0.258-63.996-28.648-63.996-63.996V217.816z"/>
	<path fill="#FDE9D0" stroke="#EACD98" stroke-linejoin="bevel" stroke-miterlimit="10" d="M206.367,64.676
		c0-39,31.633-70.5,70.707-70.5c38.793,0,70.703,31.656,70.703,70.707c0.34,38.793-31.68,70.707-70.703,70.707
		c-39.207,0.336-70.707-31.656-70.707-70.707V64.676z"/>
	<path fill="#A0D8EF" stroke="#89C3EB" stroke-linejoin="bevel" stroke-miterlimit="10" d="M213.078,64.633
		c0-35.25,28.629-63.75,63.996-63.75c35.004,0,63.996,28.652,63.996,63.996c0.258,35.004-28.676,64-63.996,64
		c-35.496,0.254-63.996-28.652-63.996-64V64.633z"/>
	<path fill="#FFFFFF" stroke="#FED372" stroke-linejoin="bevel" stroke-miterlimit="10" d="M108.961,64.648l12.727-12.727
		c0.531-0.531,0.688-0.379,0.879-0.188l12.91,12.914c0.531,0.531,0.383,0.688,0.191,0.875l-12.922,12.914
		c-0.527,0.531-0.68,0.379-0.871,0.191l-12.914-12.918c-0.531-0.531-0.379-0.684-0.188-0.875L108.961,64.648z"/>
	
		<linearGradient id="SVGID_2_" gradientUnits="userSpaceOnUse" x1="-201.7847" y1="15.2056" x2="-218.9063" y2="15.2056" gradientTransform="matrix(0.5303 -0.5303 -0.5303 -0.5303 265.0111 -15.1351)">
		<stop  offset="0" style="stop-color:#B4954F"/>
		<stop  offset="0.01" style="stop-color:#FEDD9C"/>
		<stop  offset="0.05" style="stop-color:#EAC268"/>
		<stop  offset="0.9" style="stop-color:#E6BF67"/>
		<stop  offset="0.95" style="stop-color:#E1BB64"/>
		<stop  offset="1" style="stop-color:#A78A48"/>
	</linearGradient>
	<path fill="url(#SVGID_2_)" d="M113.945,65.984l9.016-9.016c0,0,0.668,0.539,1.41,1.281l51.094,51.219
		c0.527,0.531,1.277,1.355,1.152,1.48l-9.109,8.598c0,0-0.348-0.348-1.09-1.09l-50.883-50.883c-1.059-1.059-1.488-1.691-1.363-1.816
		L113.945,65.984z"/>
	<path fill="#FFFFFF" stroke="#FED372" stroke-linejoin="bevel" stroke-miterlimit="10" d="M278.285,51.957l12.73,12.727
		c0.527,0.531,0.379,0.688,0.188,0.879l-12.918,12.91c-0.527,0.531-0.684,0.383-0.875,0.191L264.5,65.746
		c-0.531-0.531-0.383-0.684-0.191-0.871l12.918-12.918c0.531-0.531,0.684-0.375,0.875-0.188L278.285,51.957z"/>
	<path fill="#FED372" stroke="#FED372" stroke-linejoin="bevel" stroke-miterlimit="10" d="M276.953,56.941l9.016,9.016
		c0,0-0.539,0.668-1.281,1.41l-51.223,51.094c-0.531,0.531-1.352,1.277-1.477,1.152l-8.598-9.105c0,0,0.344-0.348,1.09-1.09
		l50.879-50.883c1.063-1.063,1.695-1.492,1.82-1.367L276.953,56.941z"/>
	<path fill="#FFFFFF" stroke="#FED372" stroke-linejoin="bevel" stroke-miterlimit="10" d="M110.18,218.543l12.727,12.727
		c0.531,0.531,0.688,0.379,0.879,0.191l12.91-12.918c0.531-0.531,0.383-0.688,0.191-0.875l-12.922-12.914
		c-0.527-0.531-0.68-0.379-0.871-0.191L110.18,217.48c-0.531,0.531-0.379,0.684-0.188,0.875L110.18,218.543z"/>
	<path fill="#FED372" stroke="#FED372" stroke-linejoin="bevel" stroke-miterlimit="10" d="M115.164,217.211l9.016,9.016
		c0,0,0.668-0.539,1.41-1.281l51.094-51.223c0.527-0.531,1.277-1.355,1.152-1.48l-9.109-8.598c0,0-0.348,0.348-1.09,1.09
		l-50.883,50.883c-1.059,1.063-1.488,1.695-1.363,1.82L115.164,217.211z"/>
	<path fill="#FFFFFF" stroke="#FED372" stroke-linejoin="bevel" stroke-miterlimit="10" d="M289.84,218.504l-12.73,12.73
		c-0.527,0.531-0.688,0.379-0.875,0.188l-12.91-12.918c-0.531-0.527-0.387-0.684-0.195-0.875l12.922-12.91
		c0.531-0.531,0.68-0.383,0.871-0.191l12.918,12.918c0.531,0.531,0.375,0.684,0.184,0.875L289.84,218.504z"/>
	<path fill="#FED372" stroke="#FED372" stroke-linejoin="bevel" stroke-miterlimit="10" d="M284.855,217.172l-9.016,9.016
		c0,0-0.668-0.539-1.41-1.281l-51.094-51.223c-0.531-0.531-1.281-1.352-1.152-1.477l9.105-8.598c0,0,0.348,0.348,1.09,1.09
		l50.883,50.883c1.063,1.059,1.488,1.691,1.363,1.816L284.855,217.172z"/>
	
		<linearGradient id="SVGID_3_" gradientUnits="userSpaceOnUse" x1="89.6147" y1="188.2471" x2="14.6147" y2="188.2471" gradientTransform="matrix(0.75 0 0 -0.75 156.1909 282.6768)">
		<stop  offset="0" style="stop-color:#B5B5B5"/>
		<stop  offset="0.01" style="stop-color:#FFFFFF"/>
		<stop  offset="0.05" style="stop-color:#EBEBEB"/>
		<stop  offset="0.9" style="stop-color:#E7E7E7"/>
		<stop  offset="0.95" style="stop-color:#E2E2E2"/>
		<stop  offset="1" style="stop-color:#A8A8A8"/>
	</linearGradient>
	<path fill="url(#SVGID_3_)" d="M167.902,122.711h54.75c0,0,0.461,0.277,0.461,0.613l0.289,36.137c0,0.75-0.566,0.813-0.902,0.813
		l-54.598-0.063c-0.75,0-0.75-0.211-0.75-0.551v-36.199c0-0.75,0.273-0.75,0.613-0.75H167.902z"/>
	
		<linearGradient id="SVGID_4_" gradientUnits="userSpaceOnUse" x1="35.6108" y1="195.3389" x2="14.6108" y2="195.3389" gradientTransform="matrix(0.75 0 0 -0.75 211.3857 287.6602)">
		<stop  offset="0" style="stop-color:#B5B5B5"/>
		<stop  offset="0.01" style="stop-color:#FFFFFF"/>
		<stop  offset="0.05" style="stop-color:#EBEBEB"/>
		<stop  offset="0.9" style="stop-color:#E7E7E7"/>
		<stop  offset="0.95" style="stop-color:#E2E2E2"/>
		<stop  offset="1" style="stop-color:#A8A8A8"/>
	</linearGradient>
	<path fill="url(#SVGID_4_)" d="M223.094,127.695h14.25c0,0,0.539,0.199,0.539,0.535l0.211,25.715c0,0.75-0.488,0.676-0.824,0.676
		l-14.176,0.074c-0.75,0-0.75-0.367-0.75-0.707v-25.543c0-0.75,0.277-0.828,0.613-0.828L223.094,127.695z"/>
</g>
</svg>
