<?xml version="1.0" encoding="utf-8"?>
<!-- Generator: Adobe Illustrator 16.0.0, SVG Export Plug-In . SVG Version: 6.00 Build 0)  -->
<!DOCTYPE svg PUBLIC "-//W3C//DTD SVG 1.1//EN" "http://www.w3.org/Graphics/SVG/1.1/DTD/svg11.dtd">
<svg preserveAspectRatio="none" version="1.1" id="图层_1" xmlns="http://www.w3.org/2000/svg" xmlns:xlink="http://www.w3.org/1999/xlink" x="0px" y="0px"
	 width="340.5px" height="420.297px" viewBox="30 -34.027 340.5 420.297" enable-background="new 30 -34.027 340.5 420.297"
	 xml:space="preserve">
<g id="surface1006">
	
		<linearGradient id="SVGID_1_" gradientUnits="userSpaceOnUse" x1="120.6104" y1="74.8794" x2="14.6104" y2="74.8794" gradientTransform="matrix(0.75 0 0 -0.75 32.9365 338.4668)">
		<stop  offset="0" style="stop-color:#B7C0C4"/>
		<stop  offset="0.15" style="stop-color:#F0F8FC"/>
		<stop  offset="0.25" style="stop-color:#F1F9FC"/>
		<stop  offset="0.52" style="stop-color:#CED7DC"/>
		<stop  offset="0.69" style="stop-color:#B7C0C4"/>
		<stop  offset="0.8" style="stop-color:#ADB5B9"/>
		<stop  offset="0.92" style="stop-color:#A3ABAE"/>
	</linearGradient>
	<path fill="url(#SVGID_1_)" d="M43.895,178.504h79.5v197.25c0,0-0.207,10.242-9.793,10.242c0.043,0.258-59.379,0-59.379,0
		c-10.328,0.258-10.328-10.168-10.328-10.168V178.504z"/>
	
		<linearGradient id="SVGID_2_" gradientUnits="userSpaceOnUse" x1="120.6104" y1="202.2861" x2="14.6104" y2="202.2861" gradientTransform="matrix(0.75 0 0 -0.75 32.9365 277.1279)">
		<stop  offset="0" style="stop-color:#AEBCC1"/>
		<stop  offset="0.15" style="stop-color:#E8F4FA"/>
		<stop  offset="0.25" style="stop-color:#EAF5FA"/>
		<stop  offset="0.52" style="stop-color:#C4D3D9"/>
		<stop  offset="0.69" style="stop-color:#AEBCC1"/>
		<stop  offset="0.8" style="stop-color:#A4B1B6"/>
		<stop  offset="0.92" style="stop-color:#9BA7AC"/>
	</linearGradient>
	<path fill="url(#SVGID_2_)" d="M43.895,117.164h79.5v16.5h-79.5V117.164z"/>
	
		<linearGradient id="SVGID_3_" gradientUnits="userSpaceOnUse" x1="153.6099" y1="183.0537" x2="14.6099" y2="183.0537" gradientTransform="matrix(0.75 0 0 -0.75 20.7295 293.1357)">
		<stop  offset="0" style="stop-color:#B7C0C4"/>
		<stop  offset="0.15" style="stop-color:#F0F8FC"/>
		<stop  offset="0.25" style="stop-color:#F1F9FC"/>
		<stop  offset="0.52" style="stop-color:#CED7DC"/>
		<stop  offset="0.69" style="stop-color:#B7C0C4"/>
		<stop  offset="0.8" style="stop-color:#ADB5B9"/>
		<stop  offset="0.92" style="stop-color:#A3ABAE"/>
	</linearGradient>
	<path fill="url(#SVGID_3_)" d="M33.938,133.172h99.75c0.75,0,1.973,1,1.973,2.238l0.277,40.512c0,1.5-1.309,2.598-2.539,2.598
		l-99.461-0.348c-1.5,0-2.25-0.672-2.25-1.91v-40.84c0-1.5,0.984-2.25,2.211-2.25H33.938z"/>
	
		<linearGradient id="SVGID_4_" gradientUnits="userSpaceOnUse" x1="153.6099" y1="183.0537" x2="14.6099" y2="183.0537" gradientTransform="matrix(0.75 0 0 -0.75 20.7295 293.1357)">
		<stop  offset="0" style="stop-color:#B7C0C4"/>
		<stop  offset="0.15" style="stop-color:#F0F8FC"/>
		<stop  offset="0.25" style="stop-color:#F1F9FC"/>
		<stop  offset="0.52" style="stop-color:#CED7DC"/>
		<stop  offset="0.69" style="stop-color:#B7C0C4"/>
		<stop  offset="0.8" style="stop-color:#ADB5B9"/>
		<stop  offset="0.92" style="stop-color:#A3ABAE"/>
	</linearGradient>
	<path fill="url(#SVGID_4_)" d="M33.938,133.172h99.75c0.75,0,1.973,1,1.973,2.238l0.277,40.512c0,1.5-1.309,2.598-2.539,2.598
		l-99.461-0.348c-1.5,0-2.25-0.672-2.25-1.91v-40.84c0-1.5,0.984-2.25,2.211-2.25H33.938z"/>
	
		<linearGradient id="SVGID_5_" gradientUnits="userSpaceOnUse" x1="153.6099" y1="211.29" x2="14.6099" y2="211.29" gradientTransform="matrix(0.75 0 0 -0.75 20.7295 329.666)">
		<stop  offset="0" style="stop-color:#9BA8B4"/>
		<stop  offset="0.15" style="stop-color:#D7E2ED"/>
		<stop  offset="0.25" style="stop-color:#DAE4EE"/>
		<stop  offset="0.52" style="stop-color:#AFBDCA"/>
		<stop  offset="0.69" style="stop-color:#9BA8B4"/>
		<stop  offset="0.8" style="stop-color:#929EAA"/>
		<stop  offset="0.92" style="stop-color:#8A95A0"/>
	</linearGradient>
	<path fill="url(#SVGID_5_)" d="M135.938,169.699v3H31.688v-3H135.938z"/>
	
		<linearGradient id="SVGID_6_" gradientUnits="userSpaceOnUse" x1="18.6128" y1="74.7896" x2="14.6128" y2="74.7896" gradientTransform="matrix(0.75 0 0 -0.75 42.7471 338.4785)">
		<stop  offset="0" style="stop-color:#B7C0C4"/>
		<stop  offset="0.15" style="stop-color:#F0F8FC"/>
		<stop  offset="0.25" style="stop-color:#F1F9FC"/>
		<stop  offset="0.52" style="stop-color:#CED7DC"/>
		<stop  offset="0.69" style="stop-color:#B7C0C4"/>
		<stop  offset="0.8" style="stop-color:#ADB5B9"/>
		<stop  offset="0.92" style="stop-color:#A3ABAE"/>
	</linearGradient>
	<path fill="url(#SVGID_6_)" d="M53.707,178.512h3v207.75h-3V178.512z"/>
	
		<linearGradient id="SVGID_7_" gradientUnits="userSpaceOnUse" x1="18.6113" y1="74.7896" x2="14.6113" y2="74.7896" gradientTransform="matrix(0.75 0 0 -0.75 49.5098 338.4785)">
		<stop  offset="0" style="stop-color:#B7C0C4"/>
		<stop  offset="0.15" style="stop-color:#F0F8FC"/>
		<stop  offset="0.25" style="stop-color:#F1F9FC"/>
		<stop  offset="0.52" style="stop-color:#CED7DC"/>
		<stop  offset="0.69" style="stop-color:#B7C0C4"/>
		<stop  offset="0.8" style="stop-color:#ADB5B9"/>
		<stop  offset="0.92" style="stop-color:#A3ABAE"/>
	</linearGradient>
	<path fill="url(#SVGID_7_)" d="M60.469,178.512h3v207.75h-3V178.512z"/>
	
		<linearGradient id="SVGID_8_" gradientUnits="userSpaceOnUse" x1="18.6133" y1="74.7905" x2="14.6133" y2="74.7905" gradientTransform="matrix(0.75 0 0 -0.75 92.8677 338.4863)">
		<stop  offset="0" style="stop-color:#B7C0C4"/>
		<stop  offset="0.15" style="stop-color:#F0F8FC"/>
		<stop  offset="0.25" style="stop-color:#F1F9FC"/>
		<stop  offset="0.52" style="stop-color:#CED7DC"/>
		<stop  offset="0.69" style="stop-color:#B7C0C4"/>
		<stop  offset="0.8" style="stop-color:#ADB5B9"/>
		<stop  offset="0.92" style="stop-color:#A3ABAE"/>
	</linearGradient>
	<path fill="url(#SVGID_8_)" d="M103.828,178.52h3v207.75h-3V178.52z"/>
	
		<linearGradient id="SVGID_9_" gradientUnits="userSpaceOnUse" x1="18.6128" y1="74.7905" x2="14.6128" y2="74.7905" gradientTransform="matrix(0.75 0 0 -0.75 99.6299 338.4863)">
		<stop  offset="0" style="stop-color:#B7C0C4"/>
		<stop  offset="0.15" style="stop-color:#F0F8FC"/>
		<stop  offset="0.25" style="stop-color:#F1F9FC"/>
		<stop  offset="0.52" style="stop-color:#CED7DC"/>
		<stop  offset="0.69" style="stop-color:#B7C0C4"/>
		<stop  offset="0.8" style="stop-color:#ADB5B9"/>
		<stop  offset="0.92" style="stop-color:#A3ABAE"/>
	</linearGradient>
	<path fill="url(#SVGID_9_)" d="M110.59,178.52h3v207.75h-3V178.52z"/>
	
		<linearGradient id="SVGID_10_" gradientUnits="userSpaceOnUse" x1="120.6138" y1="74.8794" x2="14.6138" y2="74.8794" gradientTransform="matrix(0.75 0 0 -0.75 149.5122 338.4668)">
		<stop  offset="0" style="stop-color:#B7C0C4"/>
		<stop  offset="0.15" style="stop-color:#F0F8FC"/>
		<stop  offset="0.25" style="stop-color:#F1F9FC"/>
		<stop  offset="0.52" style="stop-color:#CED7DC"/>
		<stop  offset="0.69" style="stop-color:#B7C0C4"/>
		<stop  offset="0.8" style="stop-color:#ADB5B9"/>
		<stop  offset="0.92" style="stop-color:#A3ABAE"/>
	</linearGradient>
	<path fill="url(#SVGID_10_)" d="M160.473,178.504h79.5v197.25c0,0-0.211,10.242-9.797,10.242c0.047,0.258-59.375,0-59.375,0
		c-10.328,0.258-10.328-10.168-10.328-10.168V178.504z"/>
	
		<linearGradient id="SVGID_11_" gradientUnits="userSpaceOnUse" x1="120.6138" y1="202.2861" x2="14.6138" y2="202.2861" gradientTransform="matrix(0.75 0 0 -0.75 149.5122 277.1279)">
		<stop  offset="0" style="stop-color:#AEBCC1"/>
		<stop  offset="0.15" style="stop-color:#E8F4FA"/>
		<stop  offset="0.25" style="stop-color:#EAF5FA"/>
		<stop  offset="0.52" style="stop-color:#C4D3D9"/>
		<stop  offset="0.69" style="stop-color:#AEBCC1"/>
		<stop  offset="0.8" style="stop-color:#A4B1B6"/>
		<stop  offset="0.92" style="stop-color:#9BA7AC"/>
	</linearGradient>
	<path fill="url(#SVGID_11_)" d="M160.473,117.164h79.5v16.5h-79.5V117.164z"/>
	
		<linearGradient id="SVGID_12_" gradientUnits="userSpaceOnUse" x1="153.6138" y1="183.0537" x2="14.6138" y2="183.0537" gradientTransform="matrix(0.75 0 0 -0.75 137.3047 293.1357)">
		<stop  offset="0" style="stop-color:#B7C0C4"/>
		<stop  offset="0.15" style="stop-color:#F0F8FC"/>
		<stop  offset="0.25" style="stop-color:#F1F9FC"/>
		<stop  offset="0.52" style="stop-color:#CED7DC"/>
		<stop  offset="0.69" style="stop-color:#B7C0C4"/>
		<stop  offset="0.8" style="stop-color:#ADB5B9"/>
		<stop  offset="0.92" style="stop-color:#A3ABAE"/>
	</linearGradient>
	<path fill="url(#SVGID_12_)" d="M150.516,133.172h99.75c0.75,0,1.969,1,1.969,2.238l0.281,40.512c0,1.5-1.313,2.598-2.543,2.598
		l-99.457-0.348c-1.5,0-2.25-0.672-2.25-1.91v-40.84c0-1.5,0.98-2.25,2.211-2.25H150.516z"/>
	
		<linearGradient id="SVGID_13_" gradientUnits="userSpaceOnUse" x1="153.6138" y1="183.0537" x2="14.6138" y2="183.0537" gradientTransform="matrix(0.75 0 0 -0.75 137.3047 293.1357)">
		<stop  offset="0" style="stop-color:#B7C0C4"/>
		<stop  offset="0.15" style="stop-color:#F0F8FC"/>
		<stop  offset="0.25" style="stop-color:#F1F9FC"/>
		<stop  offset="0.52" style="stop-color:#CED7DC"/>
		<stop  offset="0.69" style="stop-color:#B7C0C4"/>
		<stop  offset="0.8" style="stop-color:#ADB5B9"/>
		<stop  offset="0.92" style="stop-color:#A3ABAE"/>
	</linearGradient>
	<path fill="url(#SVGID_13_)" d="M150.516,133.172h99.75c0.75,0,1.969,1,1.969,2.238l0.281,40.512c0,1.5-1.313,2.598-2.543,2.598
		l-99.457-0.348c-1.5,0-2.25-0.672-2.25-1.91v-40.84c0-1.5,0.98-2.25,2.211-2.25H150.516z"/>
	
		<linearGradient id="SVGID_14_" gradientUnits="userSpaceOnUse" x1="153.6138" y1="211.29" x2="14.6138" y2="211.29" gradientTransform="matrix(0.75 0 0 -0.75 137.3047 329.666)">
		<stop  offset="0" style="stop-color:#9BA8B4"/>
		<stop  offset="0.15" style="stop-color:#D7E2ED"/>
		<stop  offset="0.25" style="stop-color:#DAE4EE"/>
		<stop  offset="0.52" style="stop-color:#AFBDCA"/>
		<stop  offset="0.69" style="stop-color:#9BA8B4"/>
		<stop  offset="0.8" style="stop-color:#929EAA"/>
		<stop  offset="0.92" style="stop-color:#8A95A0"/>
	</linearGradient>
	<path fill="url(#SVGID_14_)" d="M252.516,169.699v3h-104.25v-3H252.516z"/>
	
		<linearGradient id="SVGID_15_" gradientUnits="userSpaceOnUse" x1="18.6143" y1="74.7896" x2="14.6143" y2="74.7896" gradientTransform="matrix(0.75 0 0 -0.75 159.2969 338.4785)">
		<stop  offset="0" style="stop-color:#B7C0C4"/>
		<stop  offset="0.15" style="stop-color:#F0F8FC"/>
		<stop  offset="0.25" style="stop-color:#F1F9FC"/>
		<stop  offset="0.52" style="stop-color:#CED7DC"/>
		<stop  offset="0.69" style="stop-color:#B7C0C4"/>
		<stop  offset="0.8" style="stop-color:#ADB5B9"/>
		<stop  offset="0.92" style="stop-color:#A3ABAE"/>
	</linearGradient>
	<path fill="url(#SVGID_15_)" d="M170.258,178.512h3v207.75h-3V178.512z"/>
	
		<linearGradient id="SVGID_16_" gradientUnits="userSpaceOnUse" x1="18.6128" y1="74.7896" x2="14.6128" y2="74.7896" gradientTransform="matrix(0.75 0 0 -0.75 166.0596 338.4785)">
		<stop  offset="0" style="stop-color:#B7C0C4"/>
		<stop  offset="0.15" style="stop-color:#F0F8FC"/>
		<stop  offset="0.25" style="stop-color:#F1F9FC"/>
		<stop  offset="0.52" style="stop-color:#CED7DC"/>
		<stop  offset="0.69" style="stop-color:#B7C0C4"/>
		<stop  offset="0.8" style="stop-color:#ADB5B9"/>
		<stop  offset="0.92" style="stop-color:#A3ABAE"/>
	</linearGradient>
	<path fill="url(#SVGID_16_)" d="M177.02,178.512h3v207.75h-3V178.512z"/>
	
		<linearGradient id="SVGID_17_" gradientUnits="userSpaceOnUse" x1="18.6147" y1="74.7896" x2="14.6147" y2="74.7896" gradientTransform="matrix(0.75 0 0 -0.75 209.4175 338.4785)">
		<stop  offset="0" style="stop-color:#B7C0C4"/>
		<stop  offset="0.15" style="stop-color:#F0F8FC"/>
		<stop  offset="0.25" style="stop-color:#F1F9FC"/>
		<stop  offset="0.52" style="stop-color:#CED7DC"/>
		<stop  offset="0.69" style="stop-color:#B7C0C4"/>
		<stop  offset="0.8" style="stop-color:#ADB5B9"/>
		<stop  offset="0.92" style="stop-color:#A3ABAE"/>
	</linearGradient>
	<path fill="url(#SVGID_17_)" d="M220.379,178.512h3v207.75h-3V178.512z"/>
	
		<linearGradient id="SVGID_18_" gradientUnits="userSpaceOnUse" x1="18.6143" y1="74.7896" x2="14.6143" y2="74.7896" gradientTransform="matrix(0.75 0 0 -0.75 216.1797 338.4785)">
		<stop  offset="0" style="stop-color:#B7C0C4"/>
		<stop  offset="0.15" style="stop-color:#F0F8FC"/>
		<stop  offset="0.25" style="stop-color:#F1F9FC"/>
		<stop  offset="0.52" style="stop-color:#CED7DC"/>
		<stop  offset="0.69" style="stop-color:#B7C0C4"/>
		<stop  offset="0.8" style="stop-color:#ADB5B9"/>
		<stop  offset="0.92" style="stop-color:#A3ABAE"/>
	</linearGradient>
	<path fill="url(#SVGID_18_)" d="M227.141,178.512h3v207.75h-3V178.512z"/>
	
		<linearGradient id="SVGID_19_" gradientUnits="userSpaceOnUse" x1="120.6133" y1="74.8794" x2="14.6133" y2="74.8794" gradientTransform="matrix(0.75 0 0 -0.75 266.0356 338.4668)">
		<stop  offset="0" style="stop-color:#B7C0C4"/>
		<stop  offset="0.15" style="stop-color:#F0F8FC"/>
		<stop  offset="0.25" style="stop-color:#F1F9FC"/>
		<stop  offset="0.52" style="stop-color:#CED7DC"/>
		<stop  offset="0.69" style="stop-color:#B7C0C4"/>
		<stop  offset="0.8" style="stop-color:#ADB5B9"/>
		<stop  offset="0.92" style="stop-color:#A3ABAE"/>
	</linearGradient>
	<path fill="url(#SVGID_19_)" d="M276.996,178.504h79.5v197.25c0,0-0.211,10.242-9.797,10.242c0.047,0.258-59.375,0-59.375,0
		c-10.328,0.258-10.328-10.168-10.328-10.168V178.504z"/>
	
		<linearGradient id="SVGID_20_" gradientUnits="userSpaceOnUse" x1="120.6133" y1="202.2861" x2="14.6133" y2="202.2861" gradientTransform="matrix(0.75 0 0 -0.75 266.0356 277.1279)">
		<stop  offset="0" style="stop-color:#AEBCC1"/>
		<stop  offset="0.15" style="stop-color:#E8F4FA"/>
		<stop  offset="0.25" style="stop-color:#EAF5FA"/>
		<stop  offset="0.52" style="stop-color:#C4D3D9"/>
		<stop  offset="0.69" style="stop-color:#AEBCC1"/>
		<stop  offset="0.8" style="stop-color:#A4B1B6"/>
		<stop  offset="0.92" style="stop-color:#9BA7AC"/>
	</linearGradient>
	<path fill="url(#SVGID_20_)" d="M276.996,117.164h79.5v16.5h-79.5V117.164z"/>
	
		<linearGradient id="SVGID_21_" gradientUnits="userSpaceOnUse" x1="153.6138" y1="183.0537" x2="14.6138" y2="183.0537" gradientTransform="matrix(0.75 0 0 -0.75 253.8286 293.1357)">
		<stop  offset="0" style="stop-color:#B7C0C4"/>
		<stop  offset="0.15" style="stop-color:#F0F8FC"/>
		<stop  offset="0.25" style="stop-color:#F1F9FC"/>
		<stop  offset="0.52" style="stop-color:#CED7DC"/>
		<stop  offset="0.69" style="stop-color:#B7C0C4"/>
		<stop  offset="0.8" style="stop-color:#ADB5B9"/>
		<stop  offset="0.92" style="stop-color:#A3ABAE"/>
	</linearGradient>
	<path fill="url(#SVGID_21_)" d="M267.039,133.172h99.75c0.75,0,1.969,1,1.969,2.238l0.281,40.512c0,1.5-1.309,2.598-2.539,2.598
		l-99.461-0.348c-1.5,0-2.25-0.672-2.25-1.91v-40.84c0-1.5,0.98-2.25,2.211-2.25H267.039z"/>
	
		<linearGradient id="SVGID_22_" gradientUnits="userSpaceOnUse" x1="153.6138" y1="183.0537" x2="14.6138" y2="183.0537" gradientTransform="matrix(0.75 0 0 -0.75 253.8286 293.1357)">
		<stop  offset="0" style="stop-color:#B7C0C4"/>
		<stop  offset="0.15" style="stop-color:#F0F8FC"/>
		<stop  offset="0.25" style="stop-color:#F1F9FC"/>
		<stop  offset="0.52" style="stop-color:#CED7DC"/>
		<stop  offset="0.69" style="stop-color:#B7C0C4"/>
		<stop  offset="0.8" style="stop-color:#ADB5B9"/>
		<stop  offset="0.92" style="stop-color:#A3ABAE"/>
	</linearGradient>
	<path fill="url(#SVGID_22_)" d="M267.039,133.172h99.75c0.75,0,1.969,1,1.969,2.238l0.281,40.512c0,1.5-1.309,2.598-2.539,2.598
		l-99.461-0.348c-1.5,0-2.25-0.672-2.25-1.91v-40.84c0-1.5,0.98-2.25,2.211-2.25H267.039z"/>
	
		<linearGradient id="SVGID_23_" gradientUnits="userSpaceOnUse" x1="153.6138" y1="211.29" x2="14.6138" y2="211.29" gradientTransform="matrix(0.75 0 0 -0.75 253.8286 329.666)">
		<stop  offset="0" style="stop-color:#9BA8B4"/>
		<stop  offset="0.15" style="stop-color:#D7E2ED"/>
		<stop  offset="0.25" style="stop-color:#DAE4EE"/>
		<stop  offset="0.52" style="stop-color:#AFBDCA"/>
		<stop  offset="0.69" style="stop-color:#9BA8B4"/>
		<stop  offset="0.8" style="stop-color:#929EAA"/>
		<stop  offset="0.92" style="stop-color:#8A95A0"/>
	</linearGradient>
	<path fill="url(#SVGID_23_)" d="M369.039,169.699v3h-104.25v-3H369.039z"/>
	
		<linearGradient id="SVGID_24_" gradientUnits="userSpaceOnUse" x1="18.6099" y1="74.7896" x2="14.6099" y2="74.7896" gradientTransform="matrix(0.75 0 0 -0.75 275.8467 338.4785)">
		<stop  offset="0" style="stop-color:#B7C0C4"/>
		<stop  offset="0.15" style="stop-color:#F0F8FC"/>
		<stop  offset="0.25" style="stop-color:#F1F9FC"/>
		<stop  offset="0.52" style="stop-color:#CED7DC"/>
		<stop  offset="0.69" style="stop-color:#B7C0C4"/>
		<stop  offset="0.8" style="stop-color:#ADB5B9"/>
		<stop  offset="0.92" style="stop-color:#A3ABAE"/>
	</linearGradient>
	<path fill="url(#SVGID_24_)" d="M286.805,178.512h3v207.75h-3V178.512z"/>
	
		<linearGradient id="SVGID_25_" gradientUnits="userSpaceOnUse" x1="18.6152" y1="74.7896" x2="14.6152" y2="74.7896" gradientTransform="matrix(0.75 0 0 -0.75 282.6089 338.4785)">
		<stop  offset="0" style="stop-color:#B7C0C4"/>
		<stop  offset="0.15" style="stop-color:#F0F8FC"/>
		<stop  offset="0.25" style="stop-color:#F1F9FC"/>
		<stop  offset="0.52" style="stop-color:#CED7DC"/>
		<stop  offset="0.69" style="stop-color:#B7C0C4"/>
		<stop  offset="0.8" style="stop-color:#ADB5B9"/>
		<stop  offset="0.92" style="stop-color:#A3ABAE"/>
	</linearGradient>
	<path fill="url(#SVGID_25_)" d="M293.57,178.512h3v207.75h-3V178.512z"/>
	
		<linearGradient id="SVGID_26_" gradientUnits="userSpaceOnUse" x1="18.6108" y1="74.7896" x2="14.6108" y2="74.7896" gradientTransform="matrix(0.75 0 0 -0.75 325.9673 338.4785)">
		<stop  offset="0" style="stop-color:#B7C0C4"/>
		<stop  offset="0.15" style="stop-color:#F0F8FC"/>
		<stop  offset="0.25" style="stop-color:#F1F9FC"/>
		<stop  offset="0.52" style="stop-color:#CED7DC"/>
		<stop  offset="0.69" style="stop-color:#B7C0C4"/>
		<stop  offset="0.8" style="stop-color:#ADB5B9"/>
		<stop  offset="0.92" style="stop-color:#A3ABAE"/>
	</linearGradient>
	<path fill="url(#SVGID_26_)" d="M336.926,178.512h3v207.75h-3V178.512z"/>
	
		<linearGradient id="SVGID_27_" gradientUnits="userSpaceOnUse" x1="18.6099" y1="74.7896" x2="14.6099" y2="74.7896" gradientTransform="matrix(0.75 0 0 -0.75 332.7295 338.4785)">
		<stop  offset="0" style="stop-color:#B7C0C4"/>
		<stop  offset="0.15" style="stop-color:#F0F8FC"/>
		<stop  offset="0.25" style="stop-color:#F1F9FC"/>
		<stop  offset="0.52" style="stop-color:#CED7DC"/>
		<stop  offset="0.69" style="stop-color:#B7C0C4"/>
		<stop  offset="0.8" style="stop-color:#ADB5B9"/>
		<stop  offset="0.92" style="stop-color:#A3ABAE"/>
	</linearGradient>
	<path fill="url(#SVGID_27_)" d="M343.688,178.512h3v207.75h-3V178.512z"/>
	
		<linearGradient id="SVGID_28_" gradientUnits="userSpaceOnUse" x1="468.6123" y1="191.7881" x2="14.6123" y2="191.788" gradientTransform="matrix(0.75 0 0 -0.75 19.04 244.8359)">
		<stop  offset="0" style="stop-color:#909CA2"/>
		<stop  offset="0.01" style="stop-color:#D8E4EB"/>
		<stop  offset="0.02" style="stop-color:#BDCBD3"/>
		<stop  offset="0.64" style="stop-color:#BAC8CF"/>
		<stop  offset="0.99" style="stop-color:#B5C4CB"/>
		<stop  offset="1" style="stop-color:#869196"/>
	</linearGradient>
	<path fill="url(#SVGID_28_)" d="M36,84.871h327.75c3.75,0,6.75,2.852,6.75,6.371v25.879H30v-26.25c0-3,2.828-6,6.344-6H36z"/>
	
		<linearGradient id="SVGID_29_" gradientUnits="userSpaceOnUse" x1="436.7246" y1="133.79" x2="14.6094" y2="133.79" gradientTransform="matrix(0.75 0 0 -0.75 31.3701 125.9395)">
		<stop  offset="0" style="stop-color:#899398"/>
		<stop  offset="0.01" style="stop-color:#D1DAE0"/>
		<stop  offset="0.02" style="stop-color:#B3BFC6"/>
		<stop  offset="0.64" style="stop-color:#B0BCC3"/>
		<stop  offset="0.99" style="stop-color:#ACB8BE"/>
		<stop  offset="1" style="stop-color:#7F888D"/>
	</linearGradient>
	<path fill="url(#SVGID_29_)" d="M49.078-34.027h303.75c3,0,6.086,2.906,6.086,6.488l-0.086,112.762h-316.5v-112.5
		c0-3.75,3.332-6.75,6.848-6.75H49.078z"/>
	
		<linearGradient id="SVGID_30_" gradientUnits="userSpaceOnUse" x1="102.1113" y1="213.2852" x2="102.1113" y2="160.2852" gradientTransform="matrix(0.75 0 0 -0.75 202.9165 206.0889)">
		<stop  offset="0" style="stop-color:#3D3B3B"/>
		<stop  offset="0.03" style="stop-color:#908F8F"/>
		<stop  offset="0.08" style="stop-color:#514F4F"/>
		<stop  offset="0.64" style="stop-color:#504E4E"/>
		<stop  offset="0.95" style="stop-color:#4E4C4C"/>
		<stop  offset="1" style="stop-color:#383636"/>
	</linearGradient>
	<path fill="url(#SVGID_30_)" d="M213.875,46.125h129.75c0.75,0,1.469,0.672,1.469,1.555l0.031,35.945
		c0,1.5-0.762,1.949-1.641,1.949l-129.609,0.301V46.125z"/>
	
		<linearGradient id="SVGID_31_" gradientUnits="userSpaceOnUse" x1="36.6123" y1="213.2871" x2="36.6123" y2="118.8916" gradientTransform="matrix(0.75 0 0 -0.75 289.8301 126.2891)">
		<stop  offset="0" style="stop-color:#C4C4C6"/>
		<stop  offset="0.15" style="stop-color:#FCFDFE"/>
		<stop  offset="0.25" style="stop-color:#FCFDFE"/>
		<stop  offset="0.52" style="stop-color:#DCDDDE"/>
		<stop  offset="0.69" style="stop-color:#C4C4C6"/>
		<stop  offset="0.8" style="stop-color:#B9B9BB"/>
		<stop  offset="0.92" style="stop-color:#AEAFB0"/>
	</linearGradient>
	<path fill="url(#SVGID_31_)" d="M302.289-33.676h29.25c1.5,0,1.918,0.688,1.918,1.57l0.332,67.43c0,0.75-1.043,1.797-1.922,1.797
		l-29.578-0.297c-0.75,0-1.5-0.422-1.5-1.305v-67.695c0-0.75,0.711-1.5,1.59-1.5H302.289z"/>
	
		<linearGradient id="SVGID_32_" gradientUnits="userSpaceOnUse" x1="143.1128" y1="213.29" x2="143.1128" y2="148.29" gradientTransform="matrix(0.75 0 0 -0.75 99.7397 132.3418)">
		<stop  offset="0" style="stop-color:#B7C0C4"/>
		<stop  offset="0.15" style="stop-color:#F0F8FC"/>
		<stop  offset="0.25" style="stop-color:#F1F9FC"/>
		<stop  offset="0.52" style="stop-color:#CED7DC"/>
		<stop  offset="0.69" style="stop-color:#B7C0C4"/>
		<stop  offset="0.8" style="stop-color:#ADB5B9"/>
		<stop  offset="0.92" style="stop-color:#A3ABAE"/>
	</linearGradient>
	<path fill="url(#SVGID_32_)" d="M110.699-27.625h192.75v48.75h-192.75V-27.625z"/>
	
		<linearGradient id="SVGID_33_" gradientUnits="userSpaceOnUse" x1="20.5034" y1="213.29" x2="20.5034" y2="148.5557" gradientTransform="matrix(0.75 0 0 -0.75 292.0029 132.3418)">
		<stop  offset="0" style="stop-color:#C4C4C6"/>
		<stop  offset="0.15" style="stop-color:#FCFDFE"/>
		<stop  offset="0.25" style="stop-color:#FCFDFE"/>
		<stop  offset="0.52" style="stop-color:#DCDDDE"/>
		<stop  offset="0.69" style="stop-color:#C4C4C6"/>
		<stop  offset="0.8" style="stop-color:#B9B9BB"/>
		<stop  offset="0.92" style="stop-color:#AEAFB0"/>
	</linearGradient>
	<path fill="url(#SVGID_33_)" d="M302.961-27.625c0,0,8.457,0,8.711,10.402c0.289,0.098,0,27.996,0,27.996
		c-0.461,10.352-8.711,10.152-8.711,10.152V-27.625z"/>
	
		<linearGradient id="SVGID_34_" gradientUnits="userSpaceOnUse" x1="20.1831" y1="213.2861" x2="20.1831" y2="148.2861" gradientTransform="matrix(0.75 0 0 -0.75 91.3862 132.4688)">
		<stop  offset="0" style="stop-color:#C4C4C6"/>
		<stop  offset="0.15" style="stop-color:#FCFDFE"/>
		<stop  offset="0.25" style="stop-color:#FCFDFE"/>
		<stop  offset="0.52" style="stop-color:#DCDDDE"/>
		<stop  offset="0.69" style="stop-color:#C4C4C6"/>
		<stop  offset="0.8" style="stop-color:#B9B9BB"/>
		<stop  offset="0.92" style="stop-color:#AEAFB0"/>
	</linearGradient>
	<path fill="url(#SVGID_34_)" d="M102.348-16.996c0-9.75,8.352-10.5,8.352-10.5l-0.102,48.75c0,0-8.25-0.617-8.25-10.484
		c0-9.766,0-18.133,0-28V-16.996z"/>
	
		<linearGradient id="SVGID_35_" gradientUnits="userSpaceOnUse" x1="20.1147" y1="213.29" x2="20.1147" y2="176.29" gradientTransform="matrix(0.75 0 0 -0.75 82.7651 142.7363)">
		<stop  offset="0" style="stop-color:#B7C0C4"/>
		<stop  offset="0.15" style="stop-color:#F0F8FC"/>
		<stop  offset="0.25" style="stop-color:#F1F9FC"/>
		<stop  offset="0.52" style="stop-color:#CED7DC"/>
		<stop  offset="0.69" style="stop-color:#B7C0C4"/>
		<stop  offset="0.8" style="stop-color:#ADB5B9"/>
		<stop  offset="0.92" style="stop-color:#A3ABAE"/>
	</linearGradient>
	<path fill="url(#SVGID_35_)" d="M93.727-17.23h8.25v27.75h-8.25V-17.23z"/>
	
		<linearGradient id="SVGID_36_" gradientUnits="userSpaceOnUse" x1="20.1118" y1="213.29" x2="20.1118" y2="176.29" gradientTransform="matrix(0.75 0 0 -0.75 300.709 142.7363)">
		<stop  offset="0" style="stop-color:#B7C0C4"/>
		<stop  offset="0.15" style="stop-color:#F0F8FC"/>
		<stop  offset="0.25" style="stop-color:#F1F9FC"/>
		<stop  offset="0.52" style="stop-color:#CED7DC"/>
		<stop  offset="0.69" style="stop-color:#B7C0C4"/>
		<stop  offset="0.8" style="stop-color:#ADB5B9"/>
		<stop  offset="0.92" style="stop-color:#A3ABAE"/>
	</linearGradient>
	<path fill="url(#SVGID_36_)" d="M311.668-17.23h8.25v27.75h-8.25V-17.23z"/>
	
		<radialGradient id="SVGID_37_" cx="-574.6133" cy="154.2861" r="79.922" gradientTransform="matrix(-0.75 0 0 -0.75 -337.2363 142.7324)" gradientUnits="userSpaceOnUse">
		<stop  offset="0" style="stop-color:#B1B1B1"/>
		<stop  offset="0.1" style="stop-color:#FFFFFF"/>
		<stop  offset="0.32" style="stop-color:#FFFFFF"/>
		<stop  offset="0.49" style="stop-color:#DFDFDF"/>
		<stop  offset="0.62" style="stop-color:#C7C7C7"/>
		<stop  offset="0.64" style="stop-color:#BCBCBC"/>
		<stop  offset="1" style="stop-color:#A4A4A4"/>
	</radialGradient>
	<path fill="url(#SVGID_37_)" d="M93.723-17.23c0,0-21.59,0.602-31.859,12.75c-10.141,12-8.473,31.141-8.473,31.141l28.332,0.359
		c0,0-0.234-11.445,12-15.898V-17.23z"/>
	
		<linearGradient id="SVGID_38_" gradientUnits="userSpaceOnUse" x1="25.1123" y1="213.2852" x2="25.1123" y2="197.2852" gradientTransform="matrix(0.75 0 0 -0.75 322.603 150.5811)">
		<stop  offset="0" style="stop-color:#B7C0C4"/>
		<stop  offset="0.15" style="stop-color:#F0F8FC"/>
		<stop  offset="0.25" style="stop-color:#F1F9FC"/>
		<stop  offset="0.52" style="stop-color:#CED7DC"/>
		<stop  offset="0.69" style="stop-color:#B7C0C4"/>
		<stop  offset="0.8" style="stop-color:#ADB5B9"/>
		<stop  offset="0.92" style="stop-color:#A3ABAE"/>
	</linearGradient>
	<path fill="url(#SVGID_38_)" d="M333.563-9.383h15.75v12h-15.75V-9.383z"/>
	
		<linearGradient id="SVGID_39_" gradientUnits="userSpaceOnUse" x1="23.0942" y1="213.2871" x2="23.0942" y2="191.1094" gradientTransform="matrix(0.75 0 0 -0.75 335.5757 148.2344)">
		<stop  offset="0" style="stop-color:#B7C0C4"/>
		<stop  offset="0.15" style="stop-color:#F0F8FC"/>
		<stop  offset="0.25" style="stop-color:#F1F9FC"/>
		<stop  offset="0.52" style="stop-color:#CED7DC"/>
		<stop  offset="0.69" style="stop-color:#B7C0C4"/>
		<stop  offset="0.8" style="stop-color:#ADB5B9"/>
		<stop  offset="0.92" style="stop-color:#A3ABAE"/>
	</linearGradient>
	<path fill="url(#SVGID_39_)" d="M348.035-11.73h9.75c0.75,0,1.449,0.711,1.449,1.594l0.051,13.406c0,0.75-0.762,1.633-1.641,1.633
		l-9.609-0.133c-0.75,0-1.527-0.582-1.527-1.469l0.027-13.531c0-0.75,0.684-1.5,1.563-1.5H348.035z"/>
	
		<linearGradient id="SVGID_40_" gradientUnits="userSpaceOnUse" x1="50.6123" y1="174.29" x2="14.6123" y2="174.29" gradientTransform="matrix(0.75 0 0 -0.75 234.2163 186.7207)">
		<stop  offset="0" style="stop-color:#9B9B9C"/>
		<stop  offset="0.03" style="stop-color:#E4E4E4"/>
		<stop  offset="0.08" style="stop-color:#CBCBCB"/>
		<stop  offset="0.64" style="stop-color:#C7C7C8"/>
		<stop  offset="0.95" style="stop-color:#C3C3C4"/>
		<stop  offset="1" style="stop-color:#909091"/>
	</linearGradient>
	<path fill="url(#SVGID_40_)" d="M245.176,26.754h27v58.5h-27V26.754z"/>
	
		<linearGradient id="SVGID_41_" gradientUnits="userSpaceOnUse" x1="35.6616" y1="213.2861" x2="35.6616" y2="137.1563" gradientTransform="matrix(0.75 0 0 -0.75 202.6426 185.1211)">
		<stop  offset="0" style="stop-color:#343232"/>
		<stop  offset="0.15" style="stop-color:#555454"/>
		<stop  offset="0.26" style="stop-color:#797777"/>
		<stop  offset="0.41" style="stop-color:#5D5B5B"/>
		<stop  offset="0.6" style="stop-color:#484646"/>
		<stop  offset="0.8" style="stop-color:#383636"/>
		<stop  offset="0.93" style="stop-color:#2C2B2B"/>
		<stop  offset="1" style="stop-color:#535151"/>
	</linearGradient>
	<path fill="url(#SVGID_41_)" d="M213.602,25.156h30c0.75,0,1.574,0.715,1.574,1.598l-0.074,53.902c0,0.75-0.652,1.598-1.531,1.598
		l-29.969-0.098V25.156z"/>
	
		<linearGradient id="SVGID_42_" gradientUnits="userSpaceOnUse" x1="38.105" y1="213.2871" x2="38.105" y2="128.2871" gradientTransform="matrix(0.75 0 0 -0.75 37.103 181.9375)">
		<stop  offset="0" style="stop-color:#343232"/>
		<stop  offset="0.15" style="stop-color:#555454"/>
		<stop  offset="0.26" style="stop-color:#797777"/>
		<stop  offset="0.41" style="stop-color:#5D5B5B"/>
		<stop  offset="0.6" style="stop-color:#484646"/>
		<stop  offset="0.8" style="stop-color:#383636"/>
		<stop  offset="0.93" style="stop-color:#2C2B2B"/>
		<stop  offset="1" style="stop-color:#535151"/>
	</linearGradient>
	<path fill="url(#SVGID_42_)" d="M54.813,21.973h28.5v63.75h-28.5c0,0-6.699-0.496-6.699-8.133c-0.051-7.617-0.109-39.91,0-47.77
		c-0.051-7.848,6.684-7.848,6.684-7.848H54.813z"/>
	
		<linearGradient id="SVGID_43_" gradientUnits="userSpaceOnUse" x1="102.1138" y1="213.2871" x2="102.1138" y2="128.2871" gradientTransform="matrix(0.75 0 0 -0.75 72.1606 181.9375)">
		<stop  offset="0" style="stop-color:#343232"/>
		<stop  offset="0.15" style="stop-color:#555454"/>
		<stop  offset="0.26" style="stop-color:#797777"/>
		<stop  offset="0.41" style="stop-color:#5D5B5B"/>
		<stop  offset="0.6" style="stop-color:#484646"/>
		<stop  offset="0.8" style="stop-color:#383636"/>
		<stop  offset="0.93" style="stop-color:#2C2B2B"/>
		<stop  offset="1" style="stop-color:#535151"/>
	</linearGradient>
	<path fill="url(#SVGID_43_)" d="M83.121,21.973h131.25v63.75H83.121V21.973z"/>
	
		<linearGradient id="SVGID_44_" gradientUnits="userSpaceOnUse" x1="62.6138" y1="213.2871" x2="62.6138" y2="144.2871" gradientTransform="matrix(0.75 0 0 -0.75 102.0479 181.9297)">
		<stop  offset="0" style="stop-color:#C4C4C6"/>
		<stop  offset="0.15" style="stop-color:#FBFCFE"/>
		<stop  offset="0.25" style="stop-color:#FCFCFE"/>
		<stop  offset="0.52" style="stop-color:#DCDDDE"/>
		<stop  offset="0.69" style="stop-color:#C4C4C6"/>
		<stop  offset="0.8" style="stop-color:#B9B9BB"/>
		<stop  offset="0.92" style="stop-color:#AEAFB0"/>
	</linearGradient>
	<path fill="url(#SVGID_44_)" d="M113.008,21.965h72v51.75h-72V21.965z"/>
	
		<linearGradient id="SVGID_45_" gradientUnits="userSpaceOnUse" x1="34.1138" y1="213.29" x2="34.1138" y2="209.29" gradientTransform="matrix(0.75 0 0 -0.75 42.6138 184.4551)">
		<stop  offset="0" style="stop-color:#343232"/>
		<stop  offset="0.15" style="stop-color:#555454"/>
		<stop  offset="0.26" style="stop-color:#797777"/>
		<stop  offset="0.41" style="stop-color:#5D5B5B"/>
		<stop  offset="0.6" style="stop-color:#484646"/>
		<stop  offset="0.8" style="stop-color:#383636"/>
		<stop  offset="0.93" style="stop-color:#2C2B2B"/>
		<stop  offset="1" style="stop-color:#535151"/>
	</linearGradient>
	<path fill="url(#SVGID_45_)" d="M53.574,24.488h29.25v3h-29.25V24.488z"/>
	
		<linearGradient id="SVGID_46_" gradientUnits="userSpaceOnUse" x1="34.1138" y1="213.2871" x2="34.1138" y2="209.2871" gradientTransform="matrix(0.75 0 0 -0.75 42.6138 191.4102)">
		<stop  offset="0" style="stop-color:#343232"/>
		<stop  offset="0.15" style="stop-color:#555454"/>
		<stop  offset="0.26" style="stop-color:#797777"/>
		<stop  offset="0.41" style="stop-color:#5D5B5B"/>
		<stop  offset="0.6" style="stop-color:#484646"/>
		<stop  offset="0.8" style="stop-color:#383636"/>
		<stop  offset="0.93" style="stop-color:#2C2B2B"/>
		<stop  offset="1" style="stop-color:#535151"/>
	</linearGradient>
	<path fill="url(#SVGID_46_)" d="M53.574,31.445h29.25v3h-29.25V31.445z"/>
	
		<linearGradient id="SVGID_47_" gradientUnits="userSpaceOnUse" x1="34.1138" y1="213.2881" x2="34.1138" y2="209.2881" gradientTransform="matrix(0.75 0 0 -0.75 42.6138 198.3643)">
		<stop  offset="0" style="stop-color:#343232"/>
		<stop  offset="0.15" style="stop-color:#555454"/>
		<stop  offset="0.26" style="stop-color:#797777"/>
		<stop  offset="0.41" style="stop-color:#5D5B5B"/>
		<stop  offset="0.6" style="stop-color:#484646"/>
		<stop  offset="0.8" style="stop-color:#383636"/>
		<stop  offset="0.93" style="stop-color:#2C2B2B"/>
		<stop  offset="1" style="stop-color:#535151"/>
	</linearGradient>
	<path fill="url(#SVGID_47_)" d="M53.574,38.398h29.25v3h-29.25V38.398z"/>
	
		<linearGradient id="SVGID_48_" gradientUnits="userSpaceOnUse" x1="34.1138" y1="213.2832" x2="34.1138" y2="209.2832" gradientTransform="matrix(0.75 0 0 -0.75 42.6138 205.3184)">
		<stop  offset="0" style="stop-color:#343232"/>
		<stop  offset="0.15" style="stop-color:#555454"/>
		<stop  offset="0.26" style="stop-color:#797777"/>
		<stop  offset="0.41" style="stop-color:#5D5B5B"/>
		<stop  offset="0.6" style="stop-color:#484646"/>
		<stop  offset="0.8" style="stop-color:#383636"/>
		<stop  offset="0.93" style="stop-color:#2C2B2B"/>
		<stop  offset="1" style="stop-color:#535151"/>
	</linearGradient>
	<path fill="url(#SVGID_48_)" d="M53.574,45.355h29.25v3h-29.25V45.355z"/>
	
		<linearGradient id="SVGID_49_" gradientUnits="userSpaceOnUse" x1="34.1138" y1="213.2861" x2="34.1138" y2="209.2861" gradientTransform="matrix(0.75 0 0 -0.75 42.6138 212.2734)">
		<stop  offset="0" style="stop-color:#343232"/>
		<stop  offset="0.15" style="stop-color:#555454"/>
		<stop  offset="0.26" style="stop-color:#797777"/>
		<stop  offset="0.41" style="stop-color:#5D5B5B"/>
		<stop  offset="0.6" style="stop-color:#484646"/>
		<stop  offset="0.8" style="stop-color:#383636"/>
		<stop  offset="0.93" style="stop-color:#2C2B2B"/>
		<stop  offset="1" style="stop-color:#535151"/>
	</linearGradient>
	<path fill="url(#SVGID_49_)" d="M53.574,52.309h29.25v3h-29.25V52.309z"/>
	
		<linearGradient id="SVGID_50_" gradientUnits="userSpaceOnUse" x1="34.1138" y1="213.2891" x2="34.1138" y2="209.2891" gradientTransform="matrix(0.75 0 0 -0.75 42.6138 219.2275)">
		<stop  offset="0" style="stop-color:#343232"/>
		<stop  offset="0.15" style="stop-color:#555454"/>
		<stop  offset="0.26" style="stop-color:#797777"/>
		<stop  offset="0.41" style="stop-color:#5D5B5B"/>
		<stop  offset="0.6" style="stop-color:#484646"/>
		<stop  offset="0.8" style="stop-color:#383636"/>
		<stop  offset="0.93" style="stop-color:#2C2B2B"/>
		<stop  offset="1" style="stop-color:#535151"/>
	</linearGradient>
	<path fill="url(#SVGID_50_)" d="M53.574,59.262h29.25v3h-29.25V59.262z"/>
	
		<linearGradient id="SVGID_51_" gradientUnits="userSpaceOnUse" x1="34.1138" y1="213.2842" x2="34.1138" y2="209.2842" gradientTransform="matrix(0.75 0 0 -0.75 42.6138 226.1816)">
		<stop  offset="0" style="stop-color:#343232"/>
		<stop  offset="0.15" style="stop-color:#555454"/>
		<stop  offset="0.26" style="stop-color:#797777"/>
		<stop  offset="0.41" style="stop-color:#5D5B5B"/>
		<stop  offset="0.6" style="stop-color:#484646"/>
		<stop  offset="0.8" style="stop-color:#383636"/>
		<stop  offset="0.93" style="stop-color:#2C2B2B"/>
		<stop  offset="1" style="stop-color:#535151"/>
	</linearGradient>
	<path fill="url(#SVGID_51_)" d="M53.574,66.219h29.25v3h-29.25V66.219z"/>
	
		<linearGradient id="SVGID_52_" gradientUnits="userSpaceOnUse" x1="34.1138" y1="213.2871" x2="34.1138" y2="209.2871" gradientTransform="matrix(0.75 0 0 -0.75 42.6138 233.1367)">
		<stop  offset="0" style="stop-color:#343232"/>
		<stop  offset="0.15" style="stop-color:#555454"/>
		<stop  offset="0.26" style="stop-color:#797777"/>
		<stop  offset="0.41" style="stop-color:#5D5B5B"/>
		<stop  offset="0.6" style="stop-color:#484646"/>
		<stop  offset="0.8" style="stop-color:#383636"/>
		<stop  offset="0.93" style="stop-color:#2C2B2B"/>
		<stop  offset="1" style="stop-color:#535151"/>
	</linearGradient>
	<path fill="url(#SVGID_52_)" d="M53.574,73.172h29.25v3h-29.25V73.172z"/>
	
		<linearGradient id="SVGID_53_" gradientUnits="userSpaceOnUse" x1="34.1138" y1="213.2891" x2="34.1138" y2="209.2891" gradientTransform="matrix(0.75 0 0 -0.75 42.6138 240.0918)">
		<stop  offset="0" style="stop-color:#343232"/>
		<stop  offset="0.15" style="stop-color:#555454"/>
		<stop  offset="0.26" style="stop-color:#797777"/>
		<stop  offset="0.41" style="stop-color:#5D5B5B"/>
		<stop  offset="0.6" style="stop-color:#484646"/>
		<stop  offset="0.8" style="stop-color:#383636"/>
		<stop  offset="0.93" style="stop-color:#2C2B2B"/>
		<stop  offset="1" style="stop-color:#535151"/>
	</linearGradient>
	<path fill="url(#SVGID_53_)" d="M53.574,80.125h29.25v3h-29.25V80.125z"/>
	
		<linearGradient id="SVGID_54_" gradientUnits="userSpaceOnUse" x1="21.1108" y1="213.2871" x2="21.1108" y2="151.2871" gradientTransform="matrix(0.75 0 0 -0.75 120.0264 181.9297)">
		<stop  offset="0" style="stop-color:#0E5E94"/>
		<stop  offset="0.15" style="stop-color:#88A8D1"/>
		<stop  offset="0.25" style="stop-color:#94AFD4"/>
		<stop  offset="0.52" style="stop-color:#126BA7"/>
		<stop  offset="0.69" style="stop-color:#0E5E94"/>
		<stop  offset="0.8" style="stop-color:#0D598C"/>
		<stop  offset="0.92" style="stop-color:#0C5384"/>
	</linearGradient>
	<path fill="url(#SVGID_54_)" d="M130.984,21.965h9.75v46.5h-9.75V21.965z"/>
	<path fill="#10649C" d="M113.008,67.23h72v3.75h-72V67.23z"/>
</g>
</svg>
