<?xml version="1.0" encoding="utf-8"?>
<!-- Generator: Adobe Illustrator 16.0.0, SVG Export Plug-In . SVG Version: 6.00 Build 0)  -->
<!DOCTYPE svg PUBLIC "-//W3C//DTD SVG 1.1//EN" "http://www.w3.org/Graphics/SVG/1.1/DTD/svg11.dtd">
<svg preserveAspectRatio="none" version="1.1" id="图层_1" xmlns="http://www.w3.org/2000/svg" xmlns:xlink="http://www.w3.org/1999/xlink" x="0px" y="0px"
	 width="220.434px" height="493.148px" viewBox="30 62.563 220.434 493.148" enable-background="new 30 62.563 220.434 493.148"
	 xml:space="preserve">
<g id="surface26">
	
		<linearGradient id="SVGID_1_" gradientUnits="userSpaceOnUse" x1="69.6128" y1="582.5371" x2="69.6128" y2="497.5371" gradientTransform="matrix(0.75 0 0 -0.75 4.04 643.3164)">
		<stop  offset="0" style="stop-color:#C4C4C4"/>
		<stop  offset="0.15" style="stop-color:#FFFFFF"/>
		<stop  offset="0.25" style="stop-color:#FFFFFF"/>
		<stop  offset="0.44" style="stop-color:#DFDFDF"/>
		<stop  offset="0.6" style="stop-color:#C7C7C7"/>
		<stop  offset="0.8" style="stop-color:#A8A8A8"/>
		<stop  offset="0.97" style="stop-color:#999999"/>
		<stop  offset="1" style="stop-color:#CBCBCB"/>
	</linearGradient>
	<path fill="url(#SVGID_1_)" d="M82.5,206.414H30v63.75h52.5V206.414z"/>
	
		<linearGradient id="SVGID_2_" gradientUnits="userSpaceOnUse" x1="69.6128" y1="582.5361" x2="69.6128" y2="497.5361" gradientTransform="matrix(0.75 0 0 -0.75 4.04 850.7568)">
		<stop  offset="0" style="stop-color:#C4C4C4"/>
		<stop  offset="0.15" style="stop-color:#FFFFFF"/>
		<stop  offset="0.25" style="stop-color:#FFFFFF"/>
		<stop  offset="0.44" style="stop-color:#DFDFDF"/>
		<stop  offset="0.6" style="stop-color:#C7C7C7"/>
		<stop  offset="0.8" style="stop-color:#A8A8A8"/>
		<stop  offset="0.97" style="stop-color:#999999"/>
		<stop  offset="1" style="stop-color:#CBCBCB"/>
	</linearGradient>
	<path fill="url(#SVGID_2_)" d="M82.5,413.855H30v63.75h52.5V413.855z"/>
	<path fill="#4E6C8E" d="M133.387,174.598h108.75c0,0,0.754,0.363,0.754,0.902l-0.004,326.848c0,0.75,0.277,17.863-54.711,17.863
		c-54.789,0.137-55.539-17.801-55.539-17.801V175.348c0-0.75,0.398-0.75,0.938-0.75H133.387z"/>
	
		<linearGradient id="SVGID_3_" gradientUnits="userSpaceOnUse" x1="48.1138" y1="582.5391" x2="48.1138" y2="496.5391" gradientTransform="matrix(0.75 0 0 -0.75 85.8525 642.8301)">
		<stop  offset="0" style="stop-color:#C4C4C4"/>
		<stop  offset="0.15" style="stop-color:#FFFFFF"/>
		<stop  offset="0.25" style="stop-color:#FFFFFF"/>
		<stop  offset="0.44" style="stop-color:#DFDFDF"/>
		<stop  offset="0.6" style="stop-color:#C7C7C7"/>
		<stop  offset="0.8" style="stop-color:#A8A8A8"/>
		<stop  offset="0.97" style="stop-color:#999999"/>
		<stop  offset="1" style="stop-color:#CBCBCB"/>
	</linearGradient>
	<path fill="url(#SVGID_3_)" d="M132.063,205.926h-20.25v64.5h20.25V205.926z"/>
	
		<linearGradient id="SVGID_4_" gradientUnits="userSpaceOnUse" x1="55.6143" y1="582.5352" x2="55.6143" y2="470.5352" gradientTransform="matrix(0.75 0 0 -0.75 53.6489 633.0771)">
		<stop  offset="0" style="stop-color:#424141"/>
		<stop  offset="0.15" style="stop-color:#6D6C6C"/>
		<stop  offset="0.25" style="stop-color:#949494"/>
		<stop  offset="0.44" style="stop-color:#4D4B4B"/>
		<stop  offset="0.6" style="stop-color:#434242"/>
		<stop  offset="0.8" style="stop-color:#383636"/>
		<stop  offset="0.97" style="stop-color:#323131"/>
		<stop  offset="1" style="stop-color:#454444"/>
	</linearGradient>
	<path fill="url(#SVGID_4_)" d="M111.109,196.176h-31.5v84h31.5V196.176z"/>
	
		<linearGradient id="SVGID_5_" gradientUnits="userSpaceOnUse" x1="48.1133" y1="582.5391" x2="48.1133" y2="496.5391" gradientTransform="matrix(0.75 0 0 -0.75 85.8525 850.2705)">
		<stop  offset="0" style="stop-color:#C4C4C4"/>
		<stop  offset="0.15" style="stop-color:#FFFFFF"/>
		<stop  offset="0.25" style="stop-color:#FFFFFF"/>
		<stop  offset="0.44" style="stop-color:#DFDFDF"/>
		<stop  offset="0.6" style="stop-color:#C7C7C7"/>
		<stop  offset="0.8" style="stop-color:#A8A8A8"/>
		<stop  offset="0.97" style="stop-color:#999999"/>
		<stop  offset="1" style="stop-color:#CBCBCB"/>
	</linearGradient>
	<path fill="url(#SVGID_5_)" d="M132.063,413.367h-20.25v64.5h20.25V413.367z"/>
	
		<linearGradient id="SVGID_6_" gradientUnits="userSpaceOnUse" x1="55.6147" y1="582.5381" x2="55.6147" y2="470.5381" gradientTransform="matrix(0.75 0 0 -0.75 53.6489 840.5166)">
		<stop  offset="0" style="stop-color:#424141"/>
		<stop  offset="0.15" style="stop-color:#6D6C6C"/>
		<stop  offset="0.25" style="stop-color:#949494"/>
		<stop  offset="0.44" style="stop-color:#4D4B4B"/>
		<stop  offset="0.6" style="stop-color:#434242"/>
		<stop  offset="0.8" style="stop-color:#383636"/>
		<stop  offset="0.97" style="stop-color:#323131"/>
		<stop  offset="1" style="stop-color:#454444"/>
	</linearGradient>
	<path fill="url(#SVGID_6_)" d="M111.109,403.613h-31.5v84h31.5V403.613z"/>
	
		<linearGradient id="SVGID_7_" gradientUnits="userSpaceOnUse" x1="51.7402" y1="565.3711" x2="34.5625" y2="565.3711" gradientTransform="matrix(0.75 0 0 -0.75 130.1943 612.5957)">
		<stop  offset="0" style="stop-color:#9EB4BD"/>
		<stop  offset="0.15" style="stop-color:#D2ECF7"/>
		<stop  offset="0.25" style="stop-color:#DBF0F8"/>
		<stop  offset="0.44" style="stop-color:#B5CED7"/>
		<stop  offset="0.6" style="stop-color:#A1B7C0"/>
		<stop  offset="0.8" style="stop-color:#879AA2"/>
		<stop  offset="0.97" style="stop-color:#7B8D94"/>
		<stop  offset="1" style="stop-color:#A5BBC4"/>
	</linearGradient>
	<path fill="url(#SVGID_7_)" d="M156.906,175.695h11.25c0.75,0,0.844,0.434,0.844,0.973l-0.094,23.777
		c0,0.75-0.344,0.996-0.883,0.996l-11.117-0.246c0,0-0.789-0.191-0.789-0.73l0.039-24.02c0,0,0.398-0.75,0.938-0.75H156.906z"/>
	
		<linearGradient id="SVGID_8_" gradientUnits="userSpaceOnUse" x1="51.7368" y1="565.3711" x2="34.5649" y2="565.3711" gradientTransform="matrix(0.75 0 0 -0.75 155.0327 612.5957)">
		<stop  offset="0" style="stop-color:#9EB4BD"/>
		<stop  offset="0.15" style="stop-color:#D2ECF7"/>
		<stop  offset="0.25" style="stop-color:#DBF0F8"/>
		<stop  offset="0.44" style="stop-color:#B5CED7"/>
		<stop  offset="0.6" style="stop-color:#A1B7C0"/>
		<stop  offset="0.8" style="stop-color:#879AA2"/>
		<stop  offset="0.97" style="stop-color:#7B8D94"/>
		<stop  offset="1" style="stop-color:#A5BBC4"/>
	</linearGradient>
	<path fill="url(#SVGID_8_)" d="M181.742,175.695h11.25c0.75,0,0.844,0.434,0.844,0.973l-0.094,23.777
		c0,0.75-0.34,0.996-0.879,0.996l-11.121-0.246c0,0-0.785-0.191-0.785-0.73l0.035-24.02c0,0,0.402-0.75,0.941-0.75H181.742z"/>
	
		<linearGradient id="SVGID_9_" gradientUnits="userSpaceOnUse" x1="56.6133" y1="555.0371" x2="34.5508" y2="555.0371" gradientTransform="matrix(0.75 0 0 -0.75 179.731 612.5967)">
		<stop  offset="0" style="stop-color:#292525"/>
		<stop  offset="0.03" style="stop-color:#868584"/>
		<stop  offset="0.08" style="stop-color:#383433"/>
		<stop  offset="0.64" style="stop-color:#373332"/>
		<stop  offset="0.95" style="stop-color:#363130"/>
		<stop  offset="1" style="stop-color:#252221"/>
	</linearGradient>
	<path fill="url(#SVGID_9_)" d="M207.191,175.695h13.5c0.75,0,1.324,0.691,1.324,1.547l0.176,37.453c0,1.5-0.73,1.902-1.414,1.902
		l-13.586,0.348c-0.75,0-1.547-1.043-1.547-1.898l0.047-37.852c0-0.75,0.508-1.5,1.191-1.5H207.191z"/>
	
		<linearGradient id="SVGID_10_" gradientUnits="userSpaceOnUse" x1="134.6118" y1="455.5381" x2="34.6118" y2="455.5381" gradientTransform="matrix(0.75 0 0 -0.75 124.3301 653.0703)">
		<stop  offset="0" style="stop-color:#292525"/>
		<stop  offset="0.03" style="stop-color:#868584"/>
		<stop  offset="0.08" style="stop-color:#383433"/>
		<stop  offset="0.64" style="stop-color:#373332"/>
		<stop  offset="0.95" style="stop-color:#363130"/>
		<stop  offset="1" style="stop-color:#252221"/>
	</linearGradient>
	<path fill="url(#SVGID_10_)" d="M150.289,216.168h75v190.5h-75V216.168z"/>
	
		<linearGradient id="SVGID_11_" gradientUnits="userSpaceOnUse" x1="134.6133" y1="574.0342" x2="34.6133" y2="574.0342" gradientTransform="matrix(0.75 0 0 -0.75 124.3286 689.1152)">
		<stop  offset="0" style="stop-color:#B5B5B5"/>
		<stop  offset="0.03" style="stop-color:#FFFFFF"/>
		<stop  offset="0.08" style="stop-color:#EBEBEB"/>
		<stop  offset="0.64" style="stop-color:#E7E7E7"/>
		<stop  offset="0.95" style="stop-color:#E2E2E2"/>
		<stop  offset="1" style="stop-color:#A8A8A8"/>
	</linearGradient>
	<path fill="url(#SVGID_11_)" d="M150.289,252.215h75v12.75h-75V252.215z"/>
	
		<linearGradient id="SVGID_12_" gradientUnits="userSpaceOnUse" x1="58.6104" y1="570.0352" x2="34.6104" y2="570.0352" gradientTransform="matrix(0.75 0 0 -0.75 199.0532 686.1895)">
		<stop  offset="0" style="stop-color:#92A6AE"/>
		<stop  offset="0.03" style="stop-color:#DAEFF8"/>
		<stop  offset="0.08" style="stop-color:#BED8E3"/>
		<stop  offset="0.64" style="stop-color:#BBD5DF"/>
		<stop  offset="0.95" style="stop-color:#B7D0DA"/>
		<stop  offset="1" style="stop-color:#879AA2"/>
	</linearGradient>
	<path fill="url(#SVGID_12_)" d="M225.012,249.289h18v18.75h-18V249.289z"/>
	
		<linearGradient id="SVGID_13_" gradientUnits="userSpaceOnUse" x1="134.6133" y1="574.0352" x2="34.6133" y2="574.0352" gradientTransform="matrix(0.75 0 0 -0.75 124.3286 790.1582)">
		<stop  offset="0" style="stop-color:#B5B5B5"/>
		<stop  offset="0.03" style="stop-color:#FFFFFF"/>
		<stop  offset="0.08" style="stop-color:#EBEBEB"/>
		<stop  offset="0.64" style="stop-color:#E7E7E7"/>
		<stop  offset="0.95" style="stop-color:#E2E2E2"/>
		<stop  offset="1" style="stop-color:#A8A8A8"/>
	</linearGradient>
	<path fill="url(#SVGID_13_)" d="M150.289,353.258h75v12.75h-75V353.258z"/>
	
		<linearGradient id="SVGID_14_" gradientUnits="userSpaceOnUse" x1="58.6094" y1="570.041" x2="34.6094" y2="570.041" gradientTransform="matrix(0.75 0 0 -0.75 199.0537 787.2324)">
		<stop  offset="0" style="stop-color:#92A6AE"/>
		<stop  offset="0.03" style="stop-color:#DAEFF8"/>
		<stop  offset="0.08" style="stop-color:#BED8E3"/>
		<stop  offset="0.64" style="stop-color:#BBD5DF"/>
		<stop  offset="0.95" style="stop-color:#B7D0DA"/>
		<stop  offset="1" style="stop-color:#879AA2"/>
	</linearGradient>
	<path fill="url(#SVGID_14_)" d="M225.012,350.328h18v18.75h-18V350.328z"/>
	<path fill="#FFFFFF" fill-opacity="0.102" d="M224.863,176.328h9c0.75,0,1.242,0.789,1.242,1.922l0.258,331.078
		c0,0.75-0.953,2.063-1.809,2.063l-8.691,0.188c-0.75,0-1.527-1.219-1.527-2.352l0.027-330.648c0-1.5,0.664-2.25,1.52-2.25H224.863z
		"/>
	<path fill="#536882" fill-opacity="0.7922" d="M136.254,176.328h8.25c0.75,0,1.129,0.789,1.129,1.922l0.371,331.078
		c0,0.75-1,2.219-1.781,2.219l-7.969-5.219c-0.75,0-1.5-1.199-1.5-2.332V178.578c0-1.5,0.801-2.25,1.578-2.25H136.254z"/>
	<path fill="#FFFFFF" fill-opacity="0.1373" d="M146.129,176.328h7.5c0.75,0,1.684,0.789,1.684,1.922l-0.184,331.078
		c0,0.75-0.449,2.063-1.227,2.063l-7.773,0.188c-0.75,0-1.527-1.219-1.527-2.352l0.027-330.648c0-1.5,0.602-2.25,1.383-2.25H146.129
		z"/>
	
		<linearGradient id="SVGID_15_" gradientUnits="userSpaceOnUse" x1="62.6113" y1="558.0371" x2="34.5332" y2="558.0371" gradientTransform="matrix(0.75 0 0 -0.75 151.3921 499.4648)">
		<stop  offset="0" style="stop-color:#C3A156"/>
		<stop  offset="0.15" style="stop-color:#FED681"/>
		<stop  offset="0.25" style="stop-color:#FEDEA0"/>
		<stop  offset="0.44" style="stop-color:#DEB863"/>
		<stop  offset="0.6" style="stop-color:#C6A457"/>
		<stop  offset="0.8" style="stop-color:#A78A48"/>
		<stop  offset="0.97" style="stop-color:#997E42"/>
		<stop  offset="1" style="stop-color:#CBA859"/>
	</linearGradient>
	<path fill="url(#SVGID_15_)" d="M178.852,62.563h18c0.75,0,1.234,0.617,1.234,1.379l0.266,33.871c0,0.75-0.973,1.191-1.84,1.191
		l-17.66,0.309c-0.75,0-1.559-0.926-1.559-1.688l0.059-33.563c0-0.75,0.645-1.5,1.516-1.5H178.852z"/>
	
		<linearGradient id="SVGID_16_" gradientUnits="userSpaceOnUse" x1="84.6143" y1="565.374" x2="34.4688" y2="565.374" gradientTransform="matrix(0.75 0 0 -0.75 143.1011 533.2695)">
		<stop  offset="0" style="stop-color:#C3A156"/>
		<stop  offset="0.15" style="stop-color:#FED681"/>
		<stop  offset="0.25" style="stop-color:#FEDEA0"/>
		<stop  offset="0.44" style="stop-color:#DEB863"/>
		<stop  offset="0.6" style="stop-color:#C6A457"/>
		<stop  offset="0.8" style="stop-color:#A78A48"/>
		<stop  offset="0.97" style="stop-color:#997E42"/>
		<stop  offset="1" style="stop-color:#CBA859"/>
	</linearGradient>
	<path fill="url(#SVGID_16_)" d="M172.063,96.367h31.5c1.5,0,2.742,0.438,2.742,0.977l0.258,23.773c0,0.75-1.523,0.996-3.086,0.996
		l-31.414-0.246c-1.5,0-3.109-0.188-3.109-0.727l0.109-24.023c0,0,1.16-0.75,2.723-0.75H172.063z"/>
	
		<linearGradient id="SVGID_17_" gradientUnits="userSpaceOnUse" x1="193.9229" y1="561.5283" x2="34.6152" y2="561.5283" gradientTransform="matrix(0.75 0 0 -0.75 102.0615 551.7393)">
		<stop  offset="0" style="stop-color:#7AA5B7"/>
		<stop  offset="0.15" style="stop-color:#A8DBF0"/>
		<stop  offset="0.25" style="stop-color:#BBE1F3"/>
		<stop  offset="0.44" style="stop-color:#8BBDD1"/>
		<stop  offset="0.6" style="stop-color:#7CA8BA"/>
		<stop  offset="0.8" style="stop-color:#688D9D"/>
		<stop  offset="0.97" style="stop-color:#5E818F"/>
		<stop  offset="1" style="stop-color:#7FACBE"/>
	</linearGradient>
	<path fill="url(#SVGID_17_)" d="M128.773,114.836h117.75c0.75,0,0.98,0.609,0.98,1.469l-0.23,28.531
		c0,0.75-0.262,1.602-0.801,1.602l-117.699-0.102c0,0-0.75-0.594-0.75-1.453v-28.547c0-0.75,0.418-1.586,0.957-1.586
		L128.773,114.836z"/>
	
		<linearGradient id="SVGID_18_" gradientUnits="userSpaceOnUse" x1="201.7324" y1="561.5576" x2="34.6123" y2="561.5576" gradientTransform="matrix(0.75 0 0 -0.75 99.1338 582.2412)">
		<stop  offset="0" style="stop-color:#C4C4C4"/>
		<stop  offset="0.15" style="stop-color:#FFFFFF"/>
		<stop  offset="0.25" style="stop-color:#FFFFFF"/>
		<stop  offset="0.44" style="stop-color:#DFDFDF"/>
		<stop  offset="0.6" style="stop-color:#C7C7C7"/>
		<stop  offset="0.8" style="stop-color:#A8A8A8"/>
		<stop  offset="0.97" style="stop-color:#999999"/>
		<stop  offset="1" style="stop-color:#CBCBCB"/>
	</linearGradient>
	<path fill="url(#SVGID_18_)" d="M125.844,145.34h123.75c0,0,0.84,0.363,0.84,0.902l-0.09,29.848c0,0-0.422,0.793-0.961,0.793
		l-123.539-0.043c0,0-0.75-0.41-0.75-0.949V146.09c0-0.75,0.398-0.824,0.938-0.824L125.844,145.34z"/>
	<path fill="#FFFFFF" fill-opacity="0.1843" d="M133.387,174.598h108.75c0,0,0.754,0.363,0.754,0.902l-0.004,326.848
		c0,0.75,0.277,17.863-54.711,17.863c-54.789,0.137-55.539-17.801-55.539-17.801V175.348c0-0.75,0.398-0.75,0.938-0.75H133.387z"/>
	
		<linearGradient id="SVGID_19_" gradientUnits="userSpaceOnUse" x1="159.6143" y1="570.5381" x2="34.6138" y2="570.5381" gradientTransform="matrix(0.75 0 0 -0.75 114.7656 951.4072)">
		<stop  offset="0" style="stop-color:#9EB4BD"/>
		<stop  offset="0.15" style="stop-color:#D2ECF7"/>
		<stop  offset="0.25" style="stop-color:#DBF0F8"/>
		<stop  offset="0.44" style="stop-color:#B5CED7"/>
		<stop  offset="0.6" style="stop-color:#A1B7C0"/>
		<stop  offset="0.8" style="stop-color:#879AA2"/>
		<stop  offset="0.97" style="stop-color:#7B8D94"/>
		<stop  offset="1" style="stop-color:#A5BBC4"/>
	</linearGradient>
	<path fill="url(#SVGID_19_)" d="M140.727,514.504h93.75v18h-93.75V514.504z"/>
	
		<linearGradient id="SVGID_20_" gradientUnits="userSpaceOnUse" x1="173.6123" y1="567.041" x2="34.6128" y2="567.041" gradientTransform="matrix(0.75 0 0 -0.75 109.7002 969.3652)">
		<stop  offset="0" style="stop-color:#7AA5B7"/>
		<stop  offset="0.15" style="stop-color:#A8DBF0"/>
		<stop  offset="0.25" style="stop-color:#BBE1F3"/>
		<stop  offset="0.44" style="stop-color:#8BBDD1"/>
		<stop  offset="0.6" style="stop-color:#7CA8BA"/>
		<stop  offset="0.8" style="stop-color:#688D9D"/>
		<stop  offset="0.97" style="stop-color:#5E818F"/>
		<stop  offset="1" style="stop-color:#7FACBE"/>
	</linearGradient>
	<path fill="url(#SVGID_20_)" d="M136.41,532.461h102.75c0,0,0.703,0.426,0.703,0.965l0.047,20.785c0,0.75-0.512,1.258-1.051,1.258
		l-102.449,0.242c0,0-0.75-0.68-0.75-1.219v-21.281c0,0,0.387-0.75,0.926-0.75H136.41z"/>
	<path fill="#FFFFFF" fill-opacity="0.1725" d="M233.723,176.391c0.75,0,0.691,0.652,0.691,1.531l0.059,252.719
		c0,1.5-0.223,2.027-0.422,2.027c-0.328,0.223-0.367-0.855-0.367-1.734l0.039-253.043c0-0.75,0.125-1.5,0.328-1.5H233.723z"/>
</g>
</svg>
