<?xml version="1.0" encoding="utf-8"?>
<!-- Generator: Adobe Illustrator 16.0.0, SVG Export Plug-In . SVG Version: 6.00 Build 0)  -->
<!DOCTYPE svg PUBLIC "-//W3C//DTD SVG 1.1//EN" "http://www.w3.org/Graphics/SVG/1.1/DTD/svg11.dtd">
<svg preserveAspectRatio="none" version="1.1" id="图层_1" xmlns="http://www.w3.org/2000/svg" xmlns:xlink="http://www.w3.org/1999/xlink" x="0px" y="0px"
	 width="33px" height="143.992px" viewBox="30.02 30.367 33 143.992" enable-background="new 30.02 30.367 33 143.992"
	 xml:space="preserve">
<g id="surface41">
	
		<linearGradient id="SVGID_1_" gradientUnits="userSpaceOnUse" x1="108.8594" y1="51.5396" x2="65.8594" y2="51.5395" gradientTransform="matrix(0.75 0 0 -0.75 -19.0674 151.915)">
		<stop  offset="0" style="stop-color:#9EB4BD"/>
		<stop  offset="0.15" style="stop-color:#D2ECF7"/>
		<stop  offset="0.25" style="stop-color:#E6F4FA"/>
		<stop  offset="0.44" style="stop-color:#B5CED7"/>
		<stop  offset="0.6" style="stop-color:#A1B7C0"/>
		<stop  offset="0.8" style="stop-color:#879AA2"/>
		<stop  offset="0.97" style="stop-color:#7B8D94"/>
	</linearGradient>
	<path fill="url(#SVGID_1_)" d="M30.328,61.512h32.25v103.5h-32.25V61.512z"/>
	
		<linearGradient id="SVGID_2_" gradientUnits="userSpaceOnUse" x1="73.9629" y1="120.5527" x2="73.9629" y2="112.5059" gradientTransform="matrix(0.75 0 0 -0.75 -8.9727 135.7705)">
		<stop  offset="0" style="stop-color:#343232"/>
		<stop  offset="0.15" style="stop-color:#555454"/>
		<stop  offset="0.26" style="stop-color:#797777"/>
		<stop  offset="0.41" style="stop-color:#5D5B5B"/>
		<stop  offset="0.6" style="stop-color:#484646"/>
		<stop  offset="0.8" style="stop-color:#383636"/>
		<stop  offset="0.93" style="stop-color:#2C2B2B"/>
		<stop  offset="1" style="stop-color:#535151"/>
	</linearGradient>
	<path fill="url(#SVGID_2_)" d="M41.176,45.367h10.5c0.75,0,0.898,0.258,0.898,0.59l-0.148,4.66c0,0.75-0.113,0.773-0.438,0.773
		l-10.813-0.023c-0.75,0-0.75-0.246-0.75-0.578v-4.672c0-0.75,0.262-0.762,0.586-0.762L41.176,45.367z"/>
	
		<linearGradient id="SVGID_3_" gradientUnits="userSpaceOnUse" x1="74.8604" y1="113.04" x2="65.8604" y2="113.04" gradientTransform="matrix(0.75 0 0 -0.75 -6.3765 130.5449)">
		<stop  offset="0" style="stop-color:#343232"/>
		<stop  offset="0.15" style="stop-color:#555454"/>
		<stop  offset="0.26" style="stop-color:#797777"/>
		<stop  offset="0.41" style="stop-color:#5D5B5B"/>
		<stop  offset="0.6" style="stop-color:#484646"/>
		<stop  offset="0.8" style="stop-color:#383636"/>
		<stop  offset="0.93" style="stop-color:#2C2B2B"/>
		<stop  offset="1" style="stop-color:#535151"/>
	</linearGradient>
	<path fill="url(#SVGID_3_)" d="M43.02,40.141h6.75v11.25h-6.75V40.141z"/>
	<path d="M33.918,30.383h25.5c0,0,0.414,0.254,0.414,0.586l0.336,12.914c0,0.75-0.617,0.723-0.941,0.723l-25.309,0.027
		c-0.75,0-0.75-0.297-0.75-0.629V31.133c0-0.75,0.254-0.766,0.578-0.766L33.918,30.383z"/>
	
		<linearGradient id="SVGID_4_" gradientUnits="userSpaceOnUse" x1="75.3633" y1="120.5391" x2="75.3633" y2="116.5391" gradientTransform="matrix(0.75 0 0 -0.75 -9.2646 136.0605)">
		<stop  offset="0" style="stop-color:#343232"/>
		<stop  offset="0.15" style="stop-color:#555454"/>
		<stop  offset="0.26" style="stop-color:#797777"/>
		<stop  offset="0.41" style="stop-color:#5D5B5B"/>
		<stop  offset="0.6" style="stop-color:#484646"/>
		<stop  offset="0.8" style="stop-color:#383636"/>
		<stop  offset="0.93" style="stop-color:#2C2B2B"/>
		<stop  offset="1" style="stop-color:#535151"/>
	</linearGradient>
	<path fill="url(#SVGID_4_)" d="M40.133,45.656h14.25v3h-14.25V45.656z"/>
	
		<linearGradient id="SVGID_5_" gradientUnits="userSpaceOnUse" x1="67.3613" y1="120.5352" x2="67.3613" y2="115.5352" gradientTransform="matrix(0.75 0 0 -0.75 5.041 135.6582)">
		<stop  offset="0" style="stop-color:#343232"/>
		<stop  offset="0.15" style="stop-color:#555454"/>
		<stop  offset="0.26" style="stop-color:#797777"/>
		<stop  offset="0.41" style="stop-color:#5D5B5B"/>
		<stop  offset="0.6" style="stop-color:#484646"/>
		<stop  offset="0.8" style="stop-color:#383636"/>
		<stop  offset="0.93" style="stop-color:#2C2B2B"/>
		<stop  offset="1" style="stop-color:#535151"/>
	</linearGradient>
	<path fill="url(#SVGID_5_)" d="M54.438,45.258h2.25v3.75h-2.25V45.258z"/>
	<path fill="#3E3938" d="M34.859,31.484h23.25c0.75,0,0.781,0.266,0.781,0.598l-0.031,10.652c0,0.75-0.238,0.785-0.566,0.785
		l-23.434-0.035c-0.75,0-0.75-0.238-0.75-0.57v-10.68c0-0.75,0.242-0.75,0.566-0.75H34.859z"/>
	
		<linearGradient id="SVGID_6_" gradientUnits="userSpaceOnUse" x1="109.8623" y1="113.3486" x2="65.8623" y2="113.3486" gradientTransform="matrix(0.75 0 0 -0.75 -19.3774 253.9775)">
		<stop  offset="0" style="stop-color:#343232"/>
		<stop  offset="0.15" style="stop-color:#555454"/>
		<stop  offset="0.26" style="stop-color:#797777"/>
		<stop  offset="0.41" style="stop-color:#5D5B5B"/>
		<stop  offset="0.6" style="stop-color:#484646"/>
		<stop  offset="0.8" style="stop-color:#383636"/>
		<stop  offset="0.93" style="stop-color:#2C2B2B"/>
		<stop  offset="1" style="stop-color:#535151"/>
	</linearGradient>
	<path fill="url(#SVGID_6_)" d="M63.02,163.574v9.75c0,0.75-0.512,1.035-1.082,1.035l-31.168-0.285c0,0-0.75-0.047-0.75-0.461
		v-10.039H63.02z"/>
	
		<linearGradient id="SVGID_7_" gradientUnits="userSpaceOnUse" x1="109.8623" y1="635.7744" x2="65.8623" y2="635.7744" gradientTransform="matrix(0.75 0 0 0.75 -19.3774 -420.3511)">
		<stop  offset="0" style="stop-color:#343232"/>
		<stop  offset="0.15" style="stop-color:#555454"/>
		<stop  offset="0.26" style="stop-color:#797777"/>
		<stop  offset="0.41" style="stop-color:#5D5B5B"/>
		<stop  offset="0.6" style="stop-color:#484646"/>
		<stop  offset="0.8" style="stop-color:#383636"/>
		<stop  offset="0.93" style="stop-color:#2C2B2B"/>
		<stop  offset="1" style="stop-color:#535151"/>
	</linearGradient>
	<path fill="url(#SVGID_7_)" d="M63.02,61.871v-9.75c0-0.75-0.512-1.035-1.082-1.035L30.77,51.371c0,0-0.75,0.051-0.75,0.461v10.039
		H63.02z"/>
	<path fill="#FFFFFF" d="M36.836,35.938c0-0.75,0.777-1.523,1.734-1.523c1.266,0.023,1.734,0.797,1.734,1.777
		c0.281,1.246-0.777,1.777-1.734,1.777c-0.984,0.219-1.734-0.797-1.734-1.777V35.938z"/>
	<path fill="#FFFFFF" d="M41.391,38.82c0-1.5,0.965-2.273,2.215-2.273c1.535,0.023,2.254,1.035,2.254,2.309
		c0.031,1.465-1.008,2.309-2.254,2.309c-1.465-0.094-2.258-1.031-2.258-2.309L41.391,38.82z"/>
</g>
</svg>
