<?xml version="1.0" encoding="utf-8"?>
<!-- Generator: Adobe Illustrator 16.0.0, SVG Export Plug-In . SVG Version: 6.00 Build 0)  -->
<!DOCTYPE svg PUBLIC "-//W3C//DTD SVG 1.1//EN" "http://www.w3.org/Graphics/SVG/1.1/DTD/svg11.dtd">
<svg preserveAspectRatio="none" version="1.1" id="图层_1" xmlns="http://www.w3.org/2000/svg" xmlns:xlink="http://www.w3.org/1999/xlink" x="0px" y="0px"
	 width="300.25px" height="300.25px" viewBox="29.5 -27.645 300.25 300.25" enable-background="new 29.5 -27.645 300.25 300.25"
	 xml:space="preserve">
<g id="surface551">
	<path stroke="#000000" stroke-linejoin="bevel" stroke-miterlimit="10" d="M30,122.855c0-83.25,66.961-150,149.625-150
		c82.875,0,149.625,66.965,149.625,149.625c0,82.875-66.996,149.625-149.625,149.625C96.75,272.105,30,205.082,30,122.48V122.855z"
		/>
	<path fill="#9E9F9F" d="M42.59,122.758c0-75.75,61.324-137.25,137.035-137.25c75.965,0,137.035,61.301,137.035,136.973
		c-0.32,75.277-61.359,136.973-137.035,136.973C104.09,259.258,42.59,198.098,42.59,122.48V122.758z"/>
	<path fill="#EBEAE9" d="M46.965,124.258c0-73.5,59.367-132.75,132.66-132.75c73.59,0,132.66,59.348,132.66,132.602
		c0.18,72.898-59.402,132.602-132.66,132.602c-73.41,0.297-132.66-59.398-132.66-132.602V124.258z"/>
	<path fill="none" stroke="#000000" stroke-linejoin="bevel" stroke-miterlimit="10" d="M267.457,39.113L256.469,53.93"/>
	<path fill="none" stroke="#000000" stroke-linejoin="bevel" stroke-miterlimit="10" d="M254.117,198.984l13.5,13.5"/>
	<path fill="none" stroke="#000000" stroke-linejoin="bevel" stroke-miterlimit="10" d="M104.641,190.945l-16.5,14.25"/>
	<path fill="none" stroke="#000000" stroke-linejoin="bevel" stroke-miterlimit="10" d="M178.426,2.059l-0.008,19.5"/>
	<path fill="none" stroke="#000000" stroke-linejoin="bevel" stroke-miterlimit="10" d="M178.426,225.43l-0.008,19.5"/>
	<path fill="none" stroke="#000000" stroke-linejoin="bevel" stroke-miterlimit="10" d="M52.727,122.91l19.5,0.008"/>
	<path fill="none" stroke="#000000" stroke-linejoin="bevel" stroke-miterlimit="10" d="M286.586,122.91l19.5,0.008"/>
	<path fill="none" stroke="#000000" stroke-linejoin="bevel" stroke-miterlimit="10" d="M94.465,34.734l13.5,13.5"/>
	<path fill="#FFFFFF" fill-opacity="0.7255" d="M244.023,165.371c59.25-91.5-9.691-168.75-9.691-168.75
		c48.691,21,82.25,69.516,82.25,125.691c0.191,75.309-61.398,137.02-137.055,137.02c-30.004-0.211-57.105-9.426-79.504-25.43
		c3,3.469,83.77,22.559,143.664-68.566L244.023,165.371z"/>
	<path stroke="#000000" stroke-linejoin="bevel" stroke-miterlimit="10" d="M79.82,51.434l90.906,58.547
		c0,0,28.387,19.609,49.805,20.047c0.059,0.082,7.262,1.758,2.633,9.816l-10.777,14.977c0,0-7.586,7.469-10.133-2.023
		c0.191-0.254-11.262-20.109-36.871-37.305L79.82,51.434z"/>
	<path stroke="#000000" stroke-linejoin="bevel" stroke-miterlimit="10" d="M173.852,108.59c5.773-0.996,11.918,2.145,13.473,7.949
		c1.816,6.074-1.891,11.746-7.711,13.301c-5.77,1.262-11.754-1.891-13.305-7.68c-1.328-5.703,1.891-11.742,7.676-13.293
		L173.852,108.59z"/>
	
		<linearGradient id="SVGID_1_" gradientUnits="userSpaceOnUse" x1="112.8198" y1="351.5479" x2="95.4087" y2="351.5479" gradientTransform="matrix(0.6495 0.375 0.375 -0.6495 -22.6895 308.5388)">
		<stop  offset="0" style="stop-color:#C4AA84"/>
		<stop  offset="0.15" style="stop-color:#FFE0B3"/>
		<stop  offset="0.25" style="stop-color:#FFEED7"/>
		<stop  offset="0.44" style="stop-color:#DFC297"/>
		<stop  offset="0.6" style="stop-color:#C7AD86"/>
		<stop  offset="0.8" style="stop-color:#A89170"/>
		<stop  offset="0.97" style="stop-color:#998566"/>
		<stop  offset="1" style="stop-color:#CBB189"/>
	</linearGradient>
	<path fill="url(#SVGID_1_)" d="M175.207,113.43c3.449-1.473,7,0.707,7.938,4.199c0.68,3.375-1.141,7.086-4.637,8.02
		c-3.078,0.902-7.094-1.137-8.031-4.633c-1.242-3.238,1.137-7.082,4.637-8.02L175.207,113.43z"/>
</g>
</svg>
