<?xml version="1.0" encoding="utf-8"?>
<!-- Generator: Adobe Illustrator 16.0.0, SVG Export Plug-In . SVG Version: 6.00 Build 0)  -->
<!DOCTYPE svg PUBLIC "-//W3C//DTD SVG 1.1//EN" "http://www.w3.org/Graphics/SVG/1.1/DTD/svg11.dtd">
<svg preserveAspectRatio="none" version="1.1" id="图层_1" xmlns="http://www.w3.org/2000/svg" xmlns:xlink="http://www.w3.org/1999/xlink" x="0px" y="0px"
	 width="299.23px" height="248.109px" viewBox="30 -1.582 299.23 248.109" enable-background="new 30 -1.582 299.23 248.109"
	 xml:space="preserve">
<g id="surface581">
	<path fill="#3E3938" stroke="#000000" stroke-linejoin="bevel" stroke-miterlimit="10" d="M57.449,28.406h244.5v37.5h-244.5V28.406
		z"/>
	
		<linearGradient id="SVGID_1_" gradientUnits="userSpaceOnUse" x1="363.4883" y1="70.2876" x2="21.4883" y2="70.2876" gradientTransform="matrix(0.75 0 0 -0.75 35.1216 197.8203)">
		<stop  offset="0" style="stop-color:#B5B5B5"/>
		<stop  offset="0.03" style="stop-color:#FFFFFF"/>
		<stop  offset="0.08" style="stop-color:#EBEBEB"/>
		<stop  offset="0.64" style="stop-color:#E7E7E7"/>
		<stop  offset="0.95" style="stop-color:#E2E2E2"/>
		<stop  offset="1" style="stop-color:#A8A8A8"/>
	</linearGradient>
	<path fill="url(#SVGID_1_)" d="M51.238,71.98h256.5v146.25h-256.5V71.98z"/>
	
		<linearGradient id="SVGID_2_" gradientUnits="userSpaceOnUse" x1="389.8594" y1="162.293" x2="21.4844" y2="162.2929" gradientTransform="matrix(0.75 0 0 -0.75 25.3701 190.2813)">
		<stop  offset="0" style="stop-color:#7098A9"/>
		<stop  offset="0.03" style="stop-color:#B8E1F2"/>
		<stop  offset="0.08" style="stop-color:#93C7DC"/>
		<stop  offset="0.64" style="stop-color:#91C4D9"/>
		<stop  offset="0.95" style="stop-color:#8DBFD4"/>
		<stop  offset="1" style="stop-color:#688D9D"/>
	</linearGradient>
	<path fill="url(#SVGID_2_)" d="M41.484,64.441h276c0,0,0.281,0.148,0.281,0.34l-0.281,7.16c0,0.75,0.281,0.578-0.125,0.578
		L41.484,72.691c0,0,0-0.328,0-0.52V64.441c0,0,0-0.008,0.332-0.008L41.484,64.441z"/>
	
		<linearGradient id="SVGID_3_" gradientUnits="userSpaceOnUse" x1="373.4893" y1="165.5762" x2="21.4893" y2="165.5761" gradientTransform="matrix(0.75 0 0 -0.75 31.5854 242.877)">
		<stop  offset="0" style="stop-color:#7098A9"/>
		<stop  offset="0.03" style="stop-color:#B8E1F2"/>
		<stop  offset="0.08" style="stop-color:#93C7DC"/>
		<stop  offset="0.64" style="stop-color:#91C4D9"/>
		<stop  offset="0.95" style="stop-color:#8DBFD4"/>
		<stop  offset="1" style="stop-color:#688D9D"/>
	</linearGradient>
	<path fill="url(#SVGID_3_)" d="M47.703,117.035h263.25c0.75,0,0.594,0.063,0.594,0.141l0.156,2.859c0,0-0.156,0.324-0.539,0.324
		l-263.461-0.324c0,0,0,0.258,0,0.18V117.035c0,0,0-0.004,0.316-0.004L47.703,117.035z"/>
	
		<linearGradient id="SVGID_4_" gradientUnits="userSpaceOnUse" x1="373.4893" y1="165.5762" x2="21.4893" y2="165.5761" gradientTransform="matrix(0.75 0 0 -0.75 31.5854 292.875)">
		<stop  offset="0" style="stop-color:#7098A9"/>
		<stop  offset="0.03" style="stop-color:#B8E1F2"/>
		<stop  offset="0.08" style="stop-color:#93C7DC"/>
		<stop  offset="0.64" style="stop-color:#91C4D9"/>
		<stop  offset="0.95" style="stop-color:#8DBFD4"/>
		<stop  offset="1" style="stop-color:#688D9D"/>
	</linearGradient>
	<path fill="url(#SVGID_4_)" d="M47.703,167.035h263.25c0.75,0,0.594,0.059,0.594,0.141l0.156,2.859c0,0-0.156,0.32-0.539,0.32
		l-263.461-0.32c0,0,0,0.258,0,0.176V167.035c0,0,0-0.004,0.316-0.004L47.703,167.035z"/>
	
		<linearGradient id="SVGID_5_" gradientUnits="userSpaceOnUse" x1="45.4883" y1="51.7876" x2="21.4883" y2="51.7876" gradientTransform="matrix(0.75 0 0 -0.75 16.9111 198.3672)">
		<stop  offset="0" style="stop-color:#7098A9"/>
		<stop  offset="0.03" style="stop-color:#B8E1F2"/>
		<stop  offset="0.08" style="stop-color:#93C7DC"/>
		<stop  offset="0.64" style="stop-color:#91C4D9"/>
		<stop  offset="0.95" style="stop-color:#8DBFD4"/>
		<stop  offset="1" style="stop-color:#688D9D"/>
	</linearGradient>
	<path fill="url(#SVGID_5_)" d="M44.277,72.527h6.75v174h-18L44.277,72.527z"/>
	
		<linearGradient id="SVGID_6_" gradientUnits="userSpaceOnUse" x1="-598.7378" y1="51.7876" x2="-622.7378" y2="51.7876" gradientTransform="matrix(-0.75 0 0 -0.75 -141.2871 198.3672)">
		<stop  offset="0" style="stop-color:#7098A9"/>
		<stop  offset="0.03" style="stop-color:#B8E1F2"/>
		<stop  offset="0.08" style="stop-color:#93C7DC"/>
		<stop  offset="0.64" style="stop-color:#91C4D9"/>
		<stop  offset="0.95" style="stop-color:#8DBFD4"/>
		<stop  offset="1" style="stop-color:#688D9D"/>
	</linearGradient>
	<path fill="url(#SVGID_6_)" d="M314.516,72.527h-6.75v174h18L314.516,72.527z"/>
	
		<linearGradient id="SVGID_7_" gradientUnits="userSpaceOnUse" x1="192.0488" y1="167.7969" x2="192.0488" y2="156.7871" gradientTransform="matrix(0.75 0 0 -0.75 35.5874 149.8516)">
		<stop  offset="0" style="stop-color:#B5B5B5"/>
		<stop  offset="0.03" style="stop-color:#FFFFFF"/>
		<stop  offset="0.08" style="stop-color:#EBEBEB"/>
		<stop  offset="0.64" style="stop-color:#E7E7E7"/>
		<stop  offset="0.95" style="stop-color:#E2E2E2"/>
		<stop  offset="1" style="stop-color:#A8A8A8"/>
	</linearGradient>
	<path fill="url(#SVGID_7_)" d="M51.703,24.012h255.75c0,0,0.094,0.148,0.094,0.34l-0.094,7.16c0,0.75,0.094,0.578-0.281,0.578
		L51.703,32.262c0,0,0-0.328,0-0.52V24.012c0,0,0-0.008,0.309-0.008L51.703,24.012z"/>
	
		<linearGradient id="SVGID_8_" gradientUnits="userSpaceOnUse" x1="-480.8374" y1="74.3906" x2="-534.8374" y2="74.3906" gradientTransform="matrix(0 -0.75 -0.75 0 111.543 -336.6953)">
		<stop  offset="0" style="stop-color:#B5B5B5"/>
		<stop  offset="0.03" style="stop-color:#FFFFFF"/>
		<stop  offset="0.08" style="stop-color:#EBEBEB"/>
		<stop  offset="0.64" style="stop-color:#E7E7E7"/>
		<stop  offset="0.95" style="stop-color:#E2E2E2"/>
		<stop  offset="1" style="stop-color:#A8A8A8"/>
	</linearGradient>
	<path fill="url(#SVGID_8_)" d="M51.629,64.434v-40.5c0,0,0.148,0.066,0.344,0.066l7.156-0.066c0.75,0,0.652,0.066,0.652,0.125
		l0.098,40.375c0,0-0.258,0-0.449,0H51.629c0,0-0.008,0-0.008-0.051L51.629,64.434z"/>
	
		<linearGradient id="SVGID_9_" gradientUnits="userSpaceOnUse" x1="-480.8374" y1="74.3945" x2="-534.8374" y2="74.3945" gradientTransform="matrix(0 -0.75 -0.75 0 359.2568 -336.6953)">
		<stop  offset="0" style="stop-color:#B5B5B5"/>
		<stop  offset="0.03" style="stop-color:#FFFFFF"/>
		<stop  offset="0.08" style="stop-color:#EBEBEB"/>
		<stop  offset="0.64" style="stop-color:#E7E7E7"/>
		<stop  offset="0.95" style="stop-color:#E2E2E2"/>
		<stop  offset="1" style="stop-color:#A8A8A8"/>
	</linearGradient>
	<path fill="url(#SVGID_9_)" d="M299.34,64.434v-40.5c0,0,0.152,0.066,0.344,0.066l7.156-0.066c0.75,0,0.652,0.066,0.652,0.125
		l0.098,40.375c0,0-0.254,0-0.449,0H299.34c0,0-0.008,0-0.008-0.051L299.34,64.434z"/>
	
		<linearGradient id="SVGID_10_" gradientUnits="userSpaceOnUse" x1="28.4868" y1="146.2871" x2="21.4868" y2="146.2871" gradientTransform="matrix(0.75 0 0 -0.75 54.2402 157.8389)">
		<stop  offset="0" style="stop-color:#B5B5B5"/>
		<stop  offset="0.03" style="stop-color:#FFFFFF"/>
		<stop  offset="0.08" style="stop-color:#EBEBEB"/>
		<stop  offset="0.64" style="stop-color:#E7E7E7"/>
		<stop  offset="0.95" style="stop-color:#E2E2E2"/>
		<stop  offset="1" style="stop-color:#A8A8A8"/>
	</linearGradient>
	<path fill="url(#SVGID_10_)" d="M70.355,32h5.25v32.25h-5.25V32z"/>
	
		<linearGradient id="SVGID_11_" gradientUnits="userSpaceOnUse" x1="28.4873" y1="146.2871" x2="21.4873" y2="146.2871" gradientTransform="matrix(0.75 0 0 -0.75 66.8022 157.8389)">
		<stop  offset="0" style="stop-color:#B5B5B5"/>
		<stop  offset="0.03" style="stop-color:#FFFFFF"/>
		<stop  offset="0.08" style="stop-color:#EBEBEB"/>
		<stop  offset="0.64" style="stop-color:#E7E7E7"/>
		<stop  offset="0.95" style="stop-color:#E2E2E2"/>
		<stop  offset="1" style="stop-color:#A8A8A8"/>
	</linearGradient>
	<path fill="url(#SVGID_11_)" d="M82.918,32h5.25v32.25h-5.25V32z"/>
	
		<linearGradient id="SVGID_12_" gradientUnits="userSpaceOnUse" x1="28.4888" y1="146.2871" x2="21.4888" y2="146.2871" gradientTransform="matrix(0.75 0 0 -0.75 79.3638 157.8389)">
		<stop  offset="0" style="stop-color:#B5B5B5"/>
		<stop  offset="0.03" style="stop-color:#FFFFFF"/>
		<stop  offset="0.08" style="stop-color:#EBEBEB"/>
		<stop  offset="0.64" style="stop-color:#E7E7E7"/>
		<stop  offset="0.95" style="stop-color:#E2E2E2"/>
		<stop  offset="1" style="stop-color:#A8A8A8"/>
	</linearGradient>
	<path fill="url(#SVGID_12_)" d="M95.48,32h5.25v32.25h-5.25V32z"/>
	
		<linearGradient id="SVGID_13_" gradientUnits="userSpaceOnUse" x1="28.4893" y1="146.2871" x2="21.4893" y2="146.2871" gradientTransform="matrix(0.75 0 0 -0.75 91.9258 157.8389)">
		<stop  offset="0" style="stop-color:#B5B5B5"/>
		<stop  offset="0.03" style="stop-color:#FFFFFF"/>
		<stop  offset="0.08" style="stop-color:#EBEBEB"/>
		<stop  offset="0.64" style="stop-color:#E7E7E7"/>
		<stop  offset="0.95" style="stop-color:#E2E2E2"/>
		<stop  offset="1" style="stop-color:#A8A8A8"/>
	</linearGradient>
	<path fill="url(#SVGID_13_)" d="M108.043,32h5.25v32.25h-5.25V32z"/>
	
		<linearGradient id="SVGID_14_" gradientUnits="userSpaceOnUse" x1="28.4907" y1="146.2871" x2="21.4907" y2="146.2871" gradientTransform="matrix(0.75 0 0 -0.75 104.4873 157.8389)">
		<stop  offset="0" style="stop-color:#B5B5B5"/>
		<stop  offset="0.03" style="stop-color:#FFFFFF"/>
		<stop  offset="0.08" style="stop-color:#EBEBEB"/>
		<stop  offset="0.64" style="stop-color:#E7E7E7"/>
		<stop  offset="0.95" style="stop-color:#E2E2E2"/>
		<stop  offset="1" style="stop-color:#A8A8A8"/>
	</linearGradient>
	<path fill="url(#SVGID_14_)" d="M120.605,32h5.25v32.25h-5.25V32z"/>
	
		<linearGradient id="SVGID_15_" gradientUnits="userSpaceOnUse" x1="28.4868" y1="146.2871" x2="21.4868" y2="146.2871" gradientTransform="matrix(0.75 0 0 -0.75 117.0488 157.8389)">
		<stop  offset="0" style="stop-color:#B5B5B5"/>
		<stop  offset="0.03" style="stop-color:#FFFFFF"/>
		<stop  offset="0.08" style="stop-color:#EBEBEB"/>
		<stop  offset="0.64" style="stop-color:#E7E7E7"/>
		<stop  offset="0.95" style="stop-color:#E2E2E2"/>
		<stop  offset="1" style="stop-color:#A8A8A8"/>
	</linearGradient>
	<path fill="url(#SVGID_15_)" d="M133.164,32h5.25v32.25h-5.25V32z"/>
	
		<linearGradient id="SVGID_16_" gradientUnits="userSpaceOnUse" x1="28.4878" y1="146.2871" x2="21.4878" y2="146.2871" gradientTransform="matrix(0.75 0 0 -0.75 129.6108 157.8389)">
		<stop  offset="0" style="stop-color:#B5B5B5"/>
		<stop  offset="0.03" style="stop-color:#FFFFFF"/>
		<stop  offset="0.08" style="stop-color:#EBEBEB"/>
		<stop  offset="0.64" style="stop-color:#E7E7E7"/>
		<stop  offset="0.95" style="stop-color:#E2E2E2"/>
		<stop  offset="1" style="stop-color:#A8A8A8"/>
	</linearGradient>
	<path fill="url(#SVGID_16_)" d="M145.727,32h5.25v32.25h-5.25V32z"/>
	
		<linearGradient id="SVGID_17_" gradientUnits="userSpaceOnUse" x1="28.4883" y1="146.2871" x2="21.4883" y2="146.2871" gradientTransform="matrix(0.75 0 0 -0.75 142.1729 157.8389)">
		<stop  offset="0" style="stop-color:#B5B5B5"/>
		<stop  offset="0.03" style="stop-color:#FFFFFF"/>
		<stop  offset="0.08" style="stop-color:#EBEBEB"/>
		<stop  offset="0.64" style="stop-color:#E7E7E7"/>
		<stop  offset="0.95" style="stop-color:#E2E2E2"/>
		<stop  offset="1" style="stop-color:#A8A8A8"/>
	</linearGradient>
	<path fill="url(#SVGID_17_)" d="M158.289,32h5.25v32.25h-5.25V32z"/>
	
		<linearGradient id="SVGID_18_" gradientUnits="userSpaceOnUse" x1="28.4897" y1="146.2871" x2="21.4897" y2="146.2871" gradientTransform="matrix(0.75 0 0 -0.75 154.7344 157.8389)">
		<stop  offset="0" style="stop-color:#B5B5B5"/>
		<stop  offset="0.03" style="stop-color:#FFFFFF"/>
		<stop  offset="0.08" style="stop-color:#EBEBEB"/>
		<stop  offset="0.64" style="stop-color:#E7E7E7"/>
		<stop  offset="0.95" style="stop-color:#E2E2E2"/>
		<stop  offset="1" style="stop-color:#A8A8A8"/>
	</linearGradient>
	<path fill="url(#SVGID_18_)" d="M170.852,32h5.25v32.25h-5.25V32z"/>
	
		<linearGradient id="SVGID_19_" gradientUnits="userSpaceOnUse" x1="28.4907" y1="146.2871" x2="21.4907" y2="146.2871" gradientTransform="matrix(0.75 0 0 -0.75 167.2959 157.8389)">
		<stop  offset="0" style="stop-color:#B5B5B5"/>
		<stop  offset="0.03" style="stop-color:#FFFFFF"/>
		<stop  offset="0.08" style="stop-color:#EBEBEB"/>
		<stop  offset="0.64" style="stop-color:#E7E7E7"/>
		<stop  offset="0.95" style="stop-color:#E2E2E2"/>
		<stop  offset="1" style="stop-color:#A8A8A8"/>
	</linearGradient>
	<path fill="url(#SVGID_19_)" d="M183.414,32h5.25v32.25h-5.25V32z"/>
	
		<linearGradient id="SVGID_20_" gradientUnits="userSpaceOnUse" x1="28.4858" y1="146.2871" x2="21.4858" y2="146.2871" gradientTransform="matrix(0.75 0 0 -0.75 179.8579 157.8389)">
		<stop  offset="0" style="stop-color:#B5B5B5"/>
		<stop  offset="0.03" style="stop-color:#FFFFFF"/>
		<stop  offset="0.08" style="stop-color:#EBEBEB"/>
		<stop  offset="0.64" style="stop-color:#E7E7E7"/>
		<stop  offset="0.95" style="stop-color:#E2E2E2"/>
		<stop  offset="1" style="stop-color:#A8A8A8"/>
	</linearGradient>
	<path fill="url(#SVGID_20_)" d="M195.973,32h5.25v32.25h-5.25V32z"/>
	
		<linearGradient id="SVGID_21_" gradientUnits="userSpaceOnUse" x1="28.4868" y1="146.2871" x2="21.4868" y2="146.2871" gradientTransform="matrix(0.75 0 0 -0.75 192.4194 157.8389)">
		<stop  offset="0" style="stop-color:#B5B5B5"/>
		<stop  offset="0.03" style="stop-color:#FFFFFF"/>
		<stop  offset="0.08" style="stop-color:#EBEBEB"/>
		<stop  offset="0.64" style="stop-color:#E7E7E7"/>
		<stop  offset="0.95" style="stop-color:#E2E2E2"/>
		<stop  offset="1" style="stop-color:#A8A8A8"/>
	</linearGradient>
	<path fill="url(#SVGID_21_)" d="M208.535,32h5.25v32.25h-5.25V32z"/>
	
		<linearGradient id="SVGID_22_" gradientUnits="userSpaceOnUse" x1="28.4878" y1="146.2871" x2="21.4878" y2="146.2871" gradientTransform="matrix(0.75 0 0 -0.75 204.9814 157.8389)">
		<stop  offset="0" style="stop-color:#B5B5B5"/>
		<stop  offset="0.03" style="stop-color:#FFFFFF"/>
		<stop  offset="0.08" style="stop-color:#EBEBEB"/>
		<stop  offset="0.64" style="stop-color:#E7E7E7"/>
		<stop  offset="0.95" style="stop-color:#E2E2E2"/>
		<stop  offset="1" style="stop-color:#A8A8A8"/>
	</linearGradient>
	<path fill="url(#SVGID_22_)" d="M221.098,32h5.25v32.25h-5.25V32z"/>
	
		<linearGradient id="SVGID_23_" gradientUnits="userSpaceOnUse" x1="28.4888" y1="146.2871" x2="21.4888" y2="146.2871" gradientTransform="matrix(0.75 0 0 -0.75 217.543 157.8389)">
		<stop  offset="0" style="stop-color:#B5B5B5"/>
		<stop  offset="0.03" style="stop-color:#FFFFFF"/>
		<stop  offset="0.08" style="stop-color:#EBEBEB"/>
		<stop  offset="0.64" style="stop-color:#E7E7E7"/>
		<stop  offset="0.95" style="stop-color:#E2E2E2"/>
		<stop  offset="1" style="stop-color:#A8A8A8"/>
	</linearGradient>
	<path fill="url(#SVGID_23_)" d="M233.66,32h5.25v32.25h-5.25V32z"/>
	
		<linearGradient id="SVGID_24_" gradientUnits="userSpaceOnUse" x1="28.4897" y1="146.2871" x2="21.4897" y2="146.2871" gradientTransform="matrix(0.75 0 0 -0.75 230.105 157.8389)">
		<stop  offset="0" style="stop-color:#B5B5B5"/>
		<stop  offset="0.03" style="stop-color:#FFFFFF"/>
		<stop  offset="0.08" style="stop-color:#EBEBEB"/>
		<stop  offset="0.64" style="stop-color:#E7E7E7"/>
		<stop  offset="0.95" style="stop-color:#E2E2E2"/>
		<stop  offset="1" style="stop-color:#A8A8A8"/>
	</linearGradient>
	<path fill="url(#SVGID_24_)" d="M246.223,32h5.25v32.25h-5.25V32z"/>
	
		<linearGradient id="SVGID_25_" gradientUnits="userSpaceOnUse" x1="28.4858" y1="146.2871" x2="21.4858" y2="146.2871" gradientTransform="matrix(0.75 0 0 -0.75 242.6665 157.8389)">
		<stop  offset="0" style="stop-color:#B5B5B5"/>
		<stop  offset="0.03" style="stop-color:#FFFFFF"/>
		<stop  offset="0.08" style="stop-color:#EBEBEB"/>
		<stop  offset="0.64" style="stop-color:#E7E7E7"/>
		<stop  offset="0.95" style="stop-color:#E2E2E2"/>
		<stop  offset="1" style="stop-color:#A8A8A8"/>
	</linearGradient>
	<path fill="url(#SVGID_25_)" d="M258.781,32h5.25v32.25h-5.25V32z"/>
	
		<linearGradient id="SVGID_26_" gradientUnits="userSpaceOnUse" x1="28.4868" y1="146.2871" x2="21.4868" y2="146.2871" gradientTransform="matrix(0.75 0 0 -0.75 255.2285 157.8389)">
		<stop  offset="0" style="stop-color:#B5B5B5"/>
		<stop  offset="0.03" style="stop-color:#FFFFFF"/>
		<stop  offset="0.08" style="stop-color:#EBEBEB"/>
		<stop  offset="0.64" style="stop-color:#E7E7E7"/>
		<stop  offset="0.95" style="stop-color:#E2E2E2"/>
		<stop  offset="1" style="stop-color:#A8A8A8"/>
	</linearGradient>
	<path fill="url(#SVGID_26_)" d="M271.344,32h5.25v32.25h-5.25V32z"/>
	
		<linearGradient id="SVGID_27_" gradientUnits="userSpaceOnUse" x1="28.4873" y1="146.2871" x2="21.4873" y2="146.2871" gradientTransform="matrix(0.75 0 0 -0.75 267.7905 157.8389)">
		<stop  offset="0" style="stop-color:#B5B5B5"/>
		<stop  offset="0.03" style="stop-color:#FFFFFF"/>
		<stop  offset="0.08" style="stop-color:#EBEBEB"/>
		<stop  offset="0.64" style="stop-color:#E7E7E7"/>
		<stop  offset="0.95" style="stop-color:#E2E2E2"/>
		<stop  offset="1" style="stop-color:#A8A8A8"/>
	</linearGradient>
	<path fill="url(#SVGID_27_)" d="M283.906,32h5.25v32.25h-5.25V32z"/>
	
		<linearGradient id="SVGID_28_" gradientUnits="userSpaceOnUse" x1="32.4888" y1="131.2314" x2="21.4888" y2="131.2314" gradientTransform="matrix(0.75 0 0 -0.75 26.0083 135.8271)">
		<stop  offset="0" style="stop-color:#BAC0C1"/>
		<stop  offset="0.15" style="stop-color:#F4FAFC"/>
		<stop  offset="0.25" style="stop-color:#F8FCFD"/>
		<stop  offset="0.44" style="stop-color:#D5DBDD"/>
		<stop  offset="0.6" style="stop-color:#BDC3C4"/>
		<stop  offset="0.8" style="stop-color:#A0A4A6"/>
		<stop  offset="0.97" style="stop-color:#929697"/>
		<stop  offset="1" style="stop-color:#C2C7C9"/>
	</linearGradient>
	<path fill="url(#SVGID_28_)" d="M42.125,9.988h7.5c0,0,0.434,0.156,0.434,0.348l0.316,54.402c0,0-0.473,0.082-0.668,0.082
		l-7.582-0.082c0,0,0-0.102,0-0.293V9.988c0,0,0.156,0,0.352,0H42.125z"/>
	
		<linearGradient id="SVGID_29_" gradientUnits="userSpaceOnUse" x1="32.4863" y1="131.2314" x2="21.4863" y2="131.2314" gradientTransform="matrix(0.75 0 0 -0.75 292.9785 135.8271)">
		<stop  offset="0" style="stop-color:#BAC0C1"/>
		<stop  offset="0.15" style="stop-color:#F4FAFC"/>
		<stop  offset="0.25" style="stop-color:#F8FCFD"/>
		<stop  offset="0.44" style="stop-color:#D5DBDD"/>
		<stop  offset="0.6" style="stop-color:#BDC3C4"/>
		<stop  offset="0.8" style="stop-color:#A0A4A6"/>
		<stop  offset="0.97" style="stop-color:#929697"/>
		<stop  offset="1" style="stop-color:#C2C7C9"/>
	</linearGradient>
	<path fill="url(#SVGID_29_)" d="M309.094,9.988h7.5c0,0,0.434,0.156,0.434,0.348l0.316,54.402c0,0-0.473,0.082-0.668,0.082
		l-7.582-0.082c0,0,0-0.102,0-0.293V9.988c0,0,0.156,0,0.352,0H309.094z"/>
	
		<linearGradient id="SVGID_30_" gradientUnits="userSpaceOnUse" x1="211.4893" y1="167.7861" x2="211.4893" y2="148.7861" gradientTransform="matrix(0.75 0 0 -0.75 20.875 129.5381)">
		<stop  offset="0" style="stop-color:#BAC0C1"/>
		<stop  offset="0.15" style="stop-color:#F4FAFC"/>
		<stop  offset="0.25" style="stop-color:#F8FCFD"/>
		<stop  offset="0.44" style="stop-color:#D5DBDD"/>
		<stop  offset="0.6" style="stop-color:#BDC3C4"/>
		<stop  offset="0.8" style="stop-color:#A0A4A6"/>
		<stop  offset="0.97" style="stop-color:#929697"/>
		<stop  offset="1" style="stop-color:#C2C7C9"/>
	</linearGradient>
	<path fill="url(#SVGID_30_)" d="M36.992,3.699h285v14.25h-285V3.699z"/>
	
		<linearGradient id="SVGID_31_" gradientUnits="userSpaceOnUse" x1="26.1206" y1="167.7891" x2="26.1206" y2="134.5439" gradientTransform="matrix(0.75 0 0 -0.75 13.8838 124.2598)">
		<stop  offset="0" style="stop-color:#BAC0C1"/>
		<stop  offset="0.15" style="stop-color:#F4FAFC"/>
		<stop  offset="0.25" style="stop-color:#F8FCFD"/>
		<stop  offset="0.44" style="stop-color:#D5DBDD"/>
		<stop  offset="0.6" style="stop-color:#BDC3C4"/>
		<stop  offset="0.8" style="stop-color:#A0A4A6"/>
		<stop  offset="0.97" style="stop-color:#929697"/>
		<stop  offset="1" style="stop-color:#C2C7C9"/>
	</linearGradient>
	<path fill="url(#SVGID_31_)" d="M30-1.582h6.75c0,0,0.199,0.156,0.199,0.352L36.75,23.168c0,0,0.043,0.184-0.152,0.184L30,23.168
		c0,0,0,0.027,0-0.164V-1.582c0,0,0.156,0,0.352,0H30z"/>
	
		<linearGradient id="SVGID_32_" gradientUnits="userSpaceOnUse" x1="26.1216" y1="167.7891" x2="26.1216" y2="134.5439" gradientTransform="matrix(0.75 0 0 -0.75 306.165 124.2598)">
		<stop  offset="0" style="stop-color:#BAC0C1"/>
		<stop  offset="0.15" style="stop-color:#F4FAFC"/>
		<stop  offset="0.25" style="stop-color:#F8FCFD"/>
		<stop  offset="0.44" style="stop-color:#D5DBDD"/>
		<stop  offset="0.6" style="stop-color:#BDC3C4"/>
		<stop  offset="0.8" style="stop-color:#A0A4A6"/>
		<stop  offset="0.97" style="stop-color:#929697"/>
		<stop  offset="1" style="stop-color:#C2C7C9"/>
	</linearGradient>
	<path fill="url(#SVGID_32_)" d="M322.281-1.582h6.75c0,0,0.199,0.156,0.199,0.352l-0.199,24.398c0,0,0.043,0.184-0.152,0.184
		l-6.598-0.184c0,0,0,0.027,0-0.164V-1.582c0,0,0.156,0,0.352,0H322.281z"/>
	
		<linearGradient id="SVGID_33_" gradientUnits="userSpaceOnUse" x1="26.4883" y1="70.2876" x2="21.4883" y2="70.2876" gradientTransform="matrix(0.75 0 0 -0.75 53.9497 197.8203)">
		<stop  offset="0" style="stop-color:#7098A9"/>
		<stop  offset="0.03" style="stop-color:#B8E1F2"/>
		<stop  offset="0.08" style="stop-color:#93C7DC"/>
		<stop  offset="0.64" style="stop-color:#91C4D9"/>
		<stop  offset="0.95" style="stop-color:#8DBFD4"/>
		<stop  offset="1" style="stop-color:#688D9D"/>
	</linearGradient>
	<path fill="url(#SVGID_33_)" d="M70.066,71.98h3.75v146.25h-3.75V71.98z"/>
	
		<linearGradient id="SVGID_34_" gradientUnits="userSpaceOnUse" x1="26.4902" y1="70.2876" x2="21.4902" y2="70.2876" gradientTransform="matrix(0.75 0 0 -0.75 107.8472 197.8203)">
		<stop  offset="0" style="stop-color:#7098A9"/>
		<stop  offset="0.03" style="stop-color:#B8E1F2"/>
		<stop  offset="0.08" style="stop-color:#93C7DC"/>
		<stop  offset="0.64" style="stop-color:#91C4D9"/>
		<stop  offset="0.95" style="stop-color:#8DBFD4"/>
		<stop  offset="1" style="stop-color:#688D9D"/>
	</linearGradient>
	<path fill="url(#SVGID_34_)" d="M123.965,71.98h3.75v146.25h-3.75V71.98z"/>
	
		<linearGradient id="SVGID_35_" gradientUnits="userSpaceOnUse" x1="26.4863" y1="70.2876" x2="21.4863" y2="70.2876" gradientTransform="matrix(0.75 0 0 -0.75 161.7446 197.8203)">
		<stop  offset="0" style="stop-color:#7098A9"/>
		<stop  offset="0.03" style="stop-color:#B8E1F2"/>
		<stop  offset="0.08" style="stop-color:#93C7DC"/>
		<stop  offset="0.64" style="stop-color:#91C4D9"/>
		<stop  offset="0.95" style="stop-color:#8DBFD4"/>
		<stop  offset="1" style="stop-color:#688D9D"/>
	</linearGradient>
	<path fill="url(#SVGID_35_)" d="M177.859,71.98h3.75v146.25h-3.75V71.98z"/>
	
		<linearGradient id="SVGID_36_" gradientUnits="userSpaceOnUse" x1="26.4873" y1="70.2876" x2="21.4873" y2="70.2876" gradientTransform="matrix(0.75 0 0 -0.75 215.6421 197.8203)">
		<stop  offset="0" style="stop-color:#7098A9"/>
		<stop  offset="0.03" style="stop-color:#B8E1F2"/>
		<stop  offset="0.08" style="stop-color:#93C7DC"/>
		<stop  offset="0.64" style="stop-color:#91C4D9"/>
		<stop  offset="0.95" style="stop-color:#8DBFD4"/>
		<stop  offset="1" style="stop-color:#688D9D"/>
	</linearGradient>
	<path fill="url(#SVGID_36_)" d="M231.758,71.98h3.75v146.25h-3.75V71.98z"/>
	
		<linearGradient id="SVGID_37_" gradientUnits="userSpaceOnUse" x1="26.4883" y1="70.2876" x2="21.4883" y2="70.2876" gradientTransform="matrix(0.75 0 0 -0.75 269.5396 197.8203)">
		<stop  offset="0" style="stop-color:#7098A9"/>
		<stop  offset="0.03" style="stop-color:#B8E1F2"/>
		<stop  offset="0.08" style="stop-color:#93C7DC"/>
		<stop  offset="0.64" style="stop-color:#91C4D9"/>
		<stop  offset="0.95" style="stop-color:#8DBFD4"/>
		<stop  offset="1" style="stop-color:#688D9D"/>
	</linearGradient>
	<path fill="url(#SVGID_37_)" d="M285.656,71.98h3.75v146.25h-3.75V71.98z"/>
	
		<radialGradient id="SVGID_38_" cx="45.8569" cy="143.6328" r="34.3094" gradientTransform="matrix(0.75 0 0 -0.75 64.1523 300.6387)" gradientUnits="userSpaceOnUse">
		<stop  offset="0" style="stop-color:#E5E5E5"/>
		<stop  offset="0.54" style="stop-color:#F3F3F3"/>
		<stop  offset="0.89" style="stop-color:#FFFFFF"/>
		<stop  offset="0.94" style="stop-color:#E5E5E5"/>
		<stop  offset="1" style="stop-color:#F3F3F3"/>
	</radialGradient>
	<path fill="url(#SVGID_38_)" stroke="#DCDCDD" stroke-width="0.25" stroke-linejoin="bevel" stroke-miterlimit="10" d="
		M80.27,192.797c0-9.75,8.18-18,18.273-18c10.227,0,18.273,8.113,18.273,18.117c0.203,9.633-8.184,18.117-18.273,18.117
		c-10.023-0.234-18.273-8.113-18.273-18.117V192.797z"/>
	<path fill="#CDCECE" stroke="#CDCECE" stroke-linejoin="bevel" stroke-miterlimit="10" d="M82.598,192.859
		c0-9,7.137-15.75,15.945-15.75c8.805,0,15.941,7.078,15.941,15.805c0.363,8.945-7.141,15.805-15.941,15.805
		c-8.445-0.109-15.945-7.078-15.945-15.805V192.859z"/>
	<path fill="#717070" stroke="#717070" stroke-linejoin="bevel" stroke-miterlimit="10" d="M87.039,192.762
		c0-6,5.148-11.25,11.504-11.25c6.496,0,11.504,5.105,11.504,11.402c0.242,6.598-5.152,11.402-11.504,11.402
		c-6.254-0.305-11.504-5.105-11.504-11.402V192.762z"/>
	
		<linearGradient id="SVGID_39_" gradientUnits="userSpaceOnUse" x1="-63.1543" y1="80.0059" x2="-66.2609" y2="76.3035" gradientTransform="matrix(0 0.75 -0.75 0 166.4678 230.8706)">
		<stop  offset="0" style="stop-color:#B4B5B5"/>
		<stop  offset="0.15" style="stop-color:#BABBBB"/>
		<stop  offset="0.52" style="stop-color:#9D9E9E"/>
		<stop  offset="0.69" style="stop-color:#8B8C8C"/>
		<stop  offset="0.8" style="stop-color:#838484"/>
		<stop  offset="0.92" style="stop-color:#7C7D7D"/>
		<stop  offset="1" style="stop-color:#8F9090"/>
	</linearGradient>
	<path fill="url(#SVGID_39_)" d="M108.051,181.063c-0.75,0-1.504,0.551-1.504,1.258c0.004,0.992,0.578,1.281,1.289,1.281
		c0.965-0.289,1.293-0.57,1.293-1.281c-0.328-0.508-0.578-1.277-1.293-1.277L108.051,181.063z"/>
	
		<linearGradient id="SVGID_40_" gradientUnits="userSpaceOnUse" x1="-63.1533" y1="80.0034" x2="-66.2609" y2="76.3" gradientTransform="matrix(0 0.75 -0.75 0 157.1621 227.6367)">
		<stop  offset="0" style="stop-color:#B4B5B5"/>
		<stop  offset="0.15" style="stop-color:#BABBBB"/>
		<stop  offset="0.52" style="stop-color:#9D9E9E"/>
		<stop  offset="0.69" style="stop-color:#8B8C8C"/>
		<stop  offset="0.8" style="stop-color:#838484"/>
		<stop  offset="0.92" style="stop-color:#7C7D7D"/>
		<stop  offset="1" style="stop-color:#8F9090"/>
	</linearGradient>
	<path fill="url(#SVGID_40_)" d="M98.746,177.828c-0.75,0-1.504,0.555-1.504,1.262c0.004,0.988,0.578,1.281,1.289,1.281
		c0.965-0.293,1.293-0.574,1.293-1.281c-0.328-0.512-0.578-1.281-1.293-1.281L98.746,177.828z"/>
	
		<linearGradient id="SVGID_41_" gradientUnits="userSpaceOnUse" x1="-63.1528" y1="80.0044" x2="-66.2595" y2="76.302" gradientTransform="matrix(0 0.75 -0.75 0 147.4414 231.293)">
		<stop  offset="0" style="stop-color:#B4B5B5"/>
		<stop  offset="0.15" style="stop-color:#BABBBB"/>
		<stop  offset="0.52" style="stop-color:#9D9E9E"/>
		<stop  offset="0.69" style="stop-color:#8B8C8C"/>
		<stop  offset="0.8" style="stop-color:#838484"/>
		<stop  offset="0.92" style="stop-color:#7C7D7D"/>
		<stop  offset="1" style="stop-color:#8F9090"/>
	</linearGradient>
	<path fill="url(#SVGID_41_)" d="M89.027,181.484c-0.75,0-1.508,0.555-1.508,1.262c0.008,0.988,0.578,1.281,1.293,1.281
		c0.965-0.293,1.289-0.574,1.289-1.281c-0.324-0.512-0.578-1.281-1.289-1.281L89.027,181.484z"/>
	
		<linearGradient id="SVGID_42_" gradientUnits="userSpaceOnUse" x1="-63.1523" y1="80.0054" x2="-66.2599" y2="76.3019" gradientTransform="matrix(0 0.75 -0.75 0 143.2266 241.3833)">
		<stop  offset="0" style="stop-color:#B4B5B5"/>
		<stop  offset="0.15" style="stop-color:#BABBBB"/>
		<stop  offset="0.52" style="stop-color:#9D9E9E"/>
		<stop  offset="0.69" style="stop-color:#8B8C8C"/>
		<stop  offset="0.8" style="stop-color:#838484"/>
		<stop  offset="0.92" style="stop-color:#7C7D7D"/>
		<stop  offset="1" style="stop-color:#8F9090"/>
	</linearGradient>
	<path fill="url(#SVGID_42_)" d="M84.813,191.574c-0.75,0-1.508,0.555-1.508,1.262c0.008,0.988,0.578,1.281,1.293,1.281
		c0.965-0.293,1.289-0.574,1.289-1.281c-0.324-0.512-0.578-1.281-1.289-1.281L84.813,191.574z"/>
	
		<linearGradient id="SVGID_43_" gradientUnits="userSpaceOnUse" x1="-63.1533" y1="80.0049" x2="-66.26" y2="76.3025" gradientTransform="matrix(0 0.75 -0.75 0 147.4414 251.478)">
		<stop  offset="0" style="stop-color:#B4B5B5"/>
		<stop  offset="0.15" style="stop-color:#BABBBB"/>
		<stop  offset="0.52" style="stop-color:#9D9E9E"/>
		<stop  offset="0.69" style="stop-color:#8B8C8C"/>
		<stop  offset="0.8" style="stop-color:#838484"/>
		<stop  offset="0.92" style="stop-color:#7C7D7D"/>
		<stop  offset="1" style="stop-color:#8F9090"/>
	</linearGradient>
	<path fill="url(#SVGID_43_)" d="M89.027,201.668c-0.75,0-1.508,0.555-1.508,1.262c0.008,0.988,0.578,1.281,1.293,1.281
		c0.965-0.293,1.289-0.574,1.289-1.281c-0.324-0.512-0.578-1.281-1.289-1.281L89.027,201.668z"/>
	
		<linearGradient id="SVGID_44_" gradientUnits="userSpaceOnUse" x1="-63.1523" y1="80.0073" x2="-66.2617" y2="76.3017" gradientTransform="matrix(0 0.75 -0.75 0 157.1621 255.2607)">
		<stop  offset="0" style="stop-color:#B4B5B5"/>
		<stop  offset="0.15" style="stop-color:#BABBBB"/>
		<stop  offset="0.52" style="stop-color:#9D9E9E"/>
		<stop  offset="0.69" style="stop-color:#8B8C8C"/>
		<stop  offset="0.8" style="stop-color:#838484"/>
		<stop  offset="0.92" style="stop-color:#7C7D7D"/>
		<stop  offset="1" style="stop-color:#8F9090"/>
	</linearGradient>
	<path fill="url(#SVGID_44_)" d="M98.746,205.453c-0.75,0-1.504,0.551-1.504,1.258c0.004,0.992,0.578,1.281,1.289,1.281
		c0.965-0.289,1.293-0.574,1.293-1.281c-0.328-0.508-0.578-1.281-1.293-1.281L98.746,205.453z"/>
	
		<linearGradient id="SVGID_45_" gradientUnits="userSpaceOnUse" x1="-63.1523" y1="80.0044" x2="-66.259" y2="76.302" gradientTransform="matrix(0 0.75 -0.75 0 171.1006 241.3833)">
		<stop  offset="0" style="stop-color:#B4B5B5"/>
		<stop  offset="0.15" style="stop-color:#BABBBB"/>
		<stop  offset="0.52" style="stop-color:#9D9E9E"/>
		<stop  offset="0.69" style="stop-color:#8B8C8C"/>
		<stop  offset="0.8" style="stop-color:#838484"/>
		<stop  offset="0.92" style="stop-color:#7C7D7D"/>
		<stop  offset="1" style="stop-color:#8F9090"/>
	</linearGradient>
	<path fill="url(#SVGID_45_)" d="M112.688,191.574c-0.75,0-1.508,0.555-1.508,1.262c0.008,0.988,0.578,1.281,1.289,1.281
		c0.969-0.293,1.293-0.574,1.293-1.281c-0.324-0.512-0.578-1.281-1.293-1.281L112.688,191.574z"/>
	
		<linearGradient id="SVGID_46_" gradientUnits="userSpaceOnUse" x1="-63.1538" y1="80.0054" x2="-66.2614" y2="76.3019" gradientTransform="matrix(0 0.75 -0.75 0 166.4678 251.7642)">
		<stop  offset="0" style="stop-color:#B4B5B5"/>
		<stop  offset="0.15" style="stop-color:#BABBBB"/>
		<stop  offset="0.52" style="stop-color:#9D9E9E"/>
		<stop  offset="0.69" style="stop-color:#8B8C8C"/>
		<stop  offset="0.8" style="stop-color:#838484"/>
		<stop  offset="0.92" style="stop-color:#7C7D7D"/>
		<stop  offset="1" style="stop-color:#8F9090"/>
	</linearGradient>
	<path fill="url(#SVGID_46_)" d="M108.051,201.957c-0.75,0-1.504,0.551-1.504,1.258c0.004,0.992,0.578,1.281,1.289,1.281
		c0.965-0.289,1.293-0.574,1.293-1.281c-0.328-0.508-0.578-1.281-1.293-1.281L108.051,201.957z"/>
	
		<radialGradient id="SVGID_47_" cx="45.8569" cy="143.6328" r="34.3094" gradientTransform="matrix(0.75 0 0 -0.75 225.543 300.6387)" gradientUnits="userSpaceOnUse">
		<stop  offset="0" style="stop-color:#E5E5E5"/>
		<stop  offset="0.54" style="stop-color:#F3F3F3"/>
		<stop  offset="0.89" style="stop-color:#FFFFFF"/>
		<stop  offset="0.94" style="stop-color:#E5E5E5"/>
		<stop  offset="1" style="stop-color:#F3F3F3"/>
	</radialGradient>
	<path fill="url(#SVGID_47_)" stroke="#DCDCDD" stroke-width="0.25" stroke-linejoin="bevel" stroke-miterlimit="10" d="
		M241.66,192.797c0-9.75,8.18-18,18.273-18c10.227,0,18.273,8.113,18.273,18.117c0.203,9.633-8.184,18.117-18.273,18.117
		c-10.023-0.234-18.273-8.113-18.273-18.117V192.797z"/>
	<path fill="#CDCECE" stroke="#CDCECE" stroke-linejoin="bevel" stroke-miterlimit="10" d="M243.988,192.859
		c0-9,7.137-15.75,15.945-15.75c8.805,0,15.941,7.078,15.941,15.805c0.363,8.945-7.141,15.805-15.941,15.805
		c-8.445-0.109-15.945-7.078-15.945-15.805V192.859z"/>
	<path fill="#717070" stroke="#717070" stroke-linejoin="bevel" stroke-miterlimit="10" d="M248.43,192.762
		c0-6,5.148-11.25,11.504-11.25c6.496,0,11.504,5.105,11.504,11.402c0.242,6.598-5.152,11.402-11.504,11.402
		c-6.254-0.305-11.504-5.105-11.504-11.402V192.762z"/>
	
		<linearGradient id="SVGID_48_" gradientUnits="userSpaceOnUse" x1="-63.1538" y1="80.0054" x2="-66.2614" y2="76.3019" gradientTransform="matrix(0 0.75 -0.75 0 327.8584 230.8706)">
		<stop  offset="0" style="stop-color:#B4B5B5"/>
		<stop  offset="0.15" style="stop-color:#BABBBB"/>
		<stop  offset="0.52" style="stop-color:#9D9E9E"/>
		<stop  offset="0.69" style="stop-color:#8B8C8C"/>
		<stop  offset="0.8" style="stop-color:#838484"/>
		<stop  offset="0.92" style="stop-color:#7C7D7D"/>
		<stop  offset="1" style="stop-color:#8F9090"/>
	</linearGradient>
	<path fill="url(#SVGID_48_)" d="M269.441,181.063c-0.75,0-1.504,0.551-1.504,1.258c0.004,0.992,0.578,1.281,1.289,1.281
		c0.965-0.289,1.293-0.57,1.293-1.281c-0.328-0.508-0.578-1.277-1.293-1.277L269.441,181.063z"/>
	
		<linearGradient id="SVGID_49_" gradientUnits="userSpaceOnUse" x1="-63.1519" y1="80.0039" x2="-66.2603" y2="76.2994" gradientTransform="matrix(0 0.75 -0.75 0 318.5527 227.6367)">
		<stop  offset="0" style="stop-color:#B4B5B5"/>
		<stop  offset="0.15" style="stop-color:#BABBBB"/>
		<stop  offset="0.52" style="stop-color:#9D9E9E"/>
		<stop  offset="0.69" style="stop-color:#8B8C8C"/>
		<stop  offset="0.8" style="stop-color:#838484"/>
		<stop  offset="0.92" style="stop-color:#7C7D7D"/>
		<stop  offset="1" style="stop-color:#8F9090"/>
	</linearGradient>
	<path fill="url(#SVGID_49_)" d="M260.137,177.828c-0.75,0-1.504,0.555-1.504,1.262c0.004,0.988,0.578,1.281,1.289,1.281
		c0.965-0.293,1.293-0.574,1.293-1.281c-0.328-0.512-0.578-1.281-1.293-1.281L260.137,177.828z"/>
	
		<linearGradient id="SVGID_50_" gradientUnits="userSpaceOnUse" x1="-63.1523" y1="80.0039" x2="-66.259" y2="76.3016" gradientTransform="matrix(0 0.75 -0.75 0 308.832 231.293)">
		<stop  offset="0" style="stop-color:#B4B5B5"/>
		<stop  offset="0.15" style="stop-color:#BABBBB"/>
		<stop  offset="0.52" style="stop-color:#9D9E9E"/>
		<stop  offset="0.69" style="stop-color:#8B8C8C"/>
		<stop  offset="0.8" style="stop-color:#838484"/>
		<stop  offset="0.92" style="stop-color:#7C7D7D"/>
		<stop  offset="1" style="stop-color:#8F9090"/>
	</linearGradient>
	<path fill="url(#SVGID_50_)" d="M250.418,181.484c-0.75,0-1.508,0.555-1.508,1.262c0.008,0.988,0.578,1.281,1.293,1.281
		c0.965-0.293,1.289-0.574,1.289-1.281c-0.324-0.512-0.578-1.281-1.289-1.281L250.418,181.484z"/>
	
		<linearGradient id="SVGID_51_" gradientUnits="userSpaceOnUse" x1="-63.1523" y1="80.0039" x2="-66.2599" y2="76.3005" gradientTransform="matrix(0 0.75 -0.75 0 304.6172 241.3833)">
		<stop  offset="0" style="stop-color:#B4B5B5"/>
		<stop  offset="0.15" style="stop-color:#BABBBB"/>
		<stop  offset="0.52" style="stop-color:#9D9E9E"/>
		<stop  offset="0.69" style="stop-color:#8B8C8C"/>
		<stop  offset="0.8" style="stop-color:#838484"/>
		<stop  offset="0.92" style="stop-color:#7C7D7D"/>
		<stop  offset="1" style="stop-color:#8F9090"/>
	</linearGradient>
	<path fill="url(#SVGID_51_)" d="M246.203,191.574c-0.75,0-1.508,0.555-1.508,1.262c0.008,0.988,0.578,1.281,1.293,1.281
		c0.965-0.293,1.289-0.574,1.289-1.281c-0.324-0.512-0.578-1.281-1.289-1.281L246.203,191.574z"/>
	
		<linearGradient id="SVGID_52_" gradientUnits="userSpaceOnUse" x1="-63.1538" y1="80.0054" x2="-66.2604" y2="76.303" gradientTransform="matrix(0 0.75 -0.75 0 308.832 251.478)">
		<stop  offset="0" style="stop-color:#B4B5B5"/>
		<stop  offset="0.15" style="stop-color:#BABBBB"/>
		<stop  offset="0.52" style="stop-color:#9D9E9E"/>
		<stop  offset="0.69" style="stop-color:#8B8C8C"/>
		<stop  offset="0.8" style="stop-color:#838484"/>
		<stop  offset="0.92" style="stop-color:#7C7D7D"/>
		<stop  offset="1" style="stop-color:#8F9090"/>
	</linearGradient>
	<path fill="url(#SVGID_52_)" d="M250.418,201.668c-0.75,0-1.508,0.555-1.508,1.262c0.008,0.988,0.578,1.281,1.293,1.281
		c0.965-0.293,1.289-0.574,1.289-1.281c-0.324-0.512-0.578-1.281-1.289-1.281L250.418,201.668z"/>
	
		<linearGradient id="SVGID_53_" gradientUnits="userSpaceOnUse" x1="-63.1533" y1="80.0049" x2="-66.2609" y2="76.3015" gradientTransform="matrix(0 0.75 -0.75 0 318.5527 255.2607)">
		<stop  offset="0" style="stop-color:#B4B5B5"/>
		<stop  offset="0.15" style="stop-color:#BABBBB"/>
		<stop  offset="0.52" style="stop-color:#9D9E9E"/>
		<stop  offset="0.69" style="stop-color:#8B8C8C"/>
		<stop  offset="0.8" style="stop-color:#838484"/>
		<stop  offset="0.92" style="stop-color:#7C7D7D"/>
		<stop  offset="1" style="stop-color:#8F9090"/>
	</linearGradient>
	<path fill="url(#SVGID_53_)" d="M260.137,205.453c-0.75,0-1.504,0.551-1.504,1.258c0.004,0.992,0.578,1.281,1.289,1.281
		c0.965-0.289,1.293-0.574,1.293-1.281c-0.328-0.508-0.578-1.281-1.293-1.281L260.137,205.453z"/>
	
		<linearGradient id="SVGID_54_" gradientUnits="userSpaceOnUse" x1="-63.1528" y1="80.0029" x2="-66.2586" y2="76.3017" gradientTransform="matrix(0 0.75 -0.75 0 332.4912 241.3833)">
		<stop  offset="0" style="stop-color:#B4B5B5"/>
		<stop  offset="0.15" style="stop-color:#BABBBB"/>
		<stop  offset="0.52" style="stop-color:#9D9E9E"/>
		<stop  offset="0.69" style="stop-color:#8B8C8C"/>
		<stop  offset="0.8" style="stop-color:#838484"/>
		<stop  offset="0.92" style="stop-color:#7C7D7D"/>
		<stop  offset="1" style="stop-color:#8F9090"/>
	</linearGradient>
	<path fill="url(#SVGID_54_)" d="M274.078,191.574c-0.75,0-1.508,0.555-1.508,1.262c0.008,0.988,0.578,1.281,1.289,1.281
		c0.969-0.293,1.293-0.574,1.293-1.281c-0.324-0.512-0.578-1.281-1.293-1.281L274.078,191.574z"/>
	
		<linearGradient id="SVGID_55_" gradientUnits="userSpaceOnUse" x1="-63.1538" y1="80.0054" x2="-66.2604" y2="76.303" gradientTransform="matrix(0 0.75 -0.75 0 327.8584 251.7642)">
		<stop  offset="0" style="stop-color:#B4B5B5"/>
		<stop  offset="0.15" style="stop-color:#BABBBB"/>
		<stop  offset="0.52" style="stop-color:#9D9E9E"/>
		<stop  offset="0.69" style="stop-color:#8B8C8C"/>
		<stop  offset="0.8" style="stop-color:#838484"/>
		<stop  offset="0.92" style="stop-color:#7C7D7D"/>
		<stop  offset="1" style="stop-color:#8F9090"/>
	</linearGradient>
	<path fill="url(#SVGID_55_)" d="M269.441,201.957c-0.75,0-1.504,0.551-1.504,1.258c0.004,0.992,0.578,1.281,1.289,1.281
		c0.965-0.289,1.293-0.574,1.293-1.281c-0.328-0.508-0.578-1.281-1.293-1.281L269.441,201.957z"/>
</g>
</svg>
