<?xml version="1.0" encoding="utf-8"?>
<!-- Generator: Adobe Illustrator 16.0.0, SVG Export Plug-In . SVG Version: 6.00 Build 0)  -->
<!DOCTYPE svg PUBLIC "-//W3C//DTD SVG 1.1//EN" "http://www.w3.org/Graphics/SVG/1.1/DTD/svg11.dtd">
<svg preserveAspectRatio="none" version="1.1" id="图层_1" xmlns="http://www.w3.org/2000/svg" xmlns:xlink="http://www.w3.org/1999/xlink" x="0px" y="0px"
	 width="76.5px" height="107.91px" viewBox="30 50.414 76.5 107.91" enable-background="new 30 50.414 76.5 107.91"
	 xml:space="preserve">
<g id="surface1166">
	
		<linearGradient id="SVGID_1_" gradientUnits="userSpaceOnUse" x1="92.6143" y1="88.2866" x2="58.6147" y2="88.2866" gradientTransform="matrix(0.75 0 0 -0.75 11.5776 192.3281)">
		<stop  offset="0" style="stop-color:#C5B5A2"/>
		<stop  offset="0.15" style="stop-color:#FDEFDD"/>
		<stop  offset="0.25" style="stop-color:#FEF0DF"/>
		<stop  offset="0.52" style="stop-color:#DECCB6"/>
		<stop  offset="0.69" style="stop-color:#C5B5A2"/>
		<stop  offset="0.8" style="stop-color:#BAAB98"/>
		<stop  offset="0.92" style="stop-color:#B0A190"/>
	</linearGradient>
	<path fill="url(#SVGID_1_)" d="M55.539,97.988h25.5v56.25h-25.5V97.988z"/>
	
		<linearGradient id="SVGID_2_" gradientUnits="userSpaceOnUse" x1="101.6123" y1="122.2861" x2="58.6123" y2="122.2861" gradientTransform="matrix(0.75 0 0 -0.75 8.2432 247.4131)">
		<stop  offset="0" style="stop-color:#C5B5A2"/>
		<stop  offset="0.15" style="stop-color:#FDEFDD"/>
		<stop  offset="0.25" style="stop-color:#FEF0DF"/>
		<stop  offset="0.52" style="stop-color:#DECCB6"/>
		<stop  offset="0.69" style="stop-color:#C5B5A2"/>
		<stop  offset="0.8" style="stop-color:#BAAB98"/>
		<stop  offset="0.92" style="stop-color:#B0A190"/>
	</linearGradient>
	<path fill="url(#SVGID_2_)" d="M52.203,153.074h31.5c0.75,0,0.594,0.148,0.594,0.332l0.156,4.168c0,0-0.305,0.508-0.488,0.508
		l-31.762,0.242c0,0,0-0.391,0-0.578V153.074c0,0,0.148,0,0.332,0H52.203z"/>
	
		<linearGradient id="SVGID_3_" gradientUnits="userSpaceOnUse" x1="92.6143" y1="124.7861" x2="58.6147" y2="124.7861" gradientTransform="matrix(0.75 0 0 -0.75 11.5776 198.5879)">
		<stop  offset="0" style="stop-color:#B69F75"/>
		<stop  offset="0.15" style="stop-color:#EFDAB8"/>
		<stop  offset="0.25" style="stop-color:#F0DDBE"/>
		<stop  offset="0.52" style="stop-color:#CDB384"/>
		<stop  offset="0.69" style="stop-color:#B69F75"/>
		<stop  offset="0.8" style="stop-color:#AC966E"/>
		<stop  offset="0.92" style="stop-color:#A28E68"/>
	</linearGradient>
	<path fill="url(#SVGID_3_)" d="M55.539,104.25h25.5v1.5h-25.5V104.25z"/>
	
		<linearGradient id="SVGID_4_" gradientUnits="userSpaceOnUse" x1="92.6143" y1="124.7881" x2="58.6147" y2="124.7881" gradientTransform="matrix(0.75 0 0 -0.75 11.5776 239.9023)">
		<stop  offset="0" style="stop-color:#B69F75"/>
		<stop  offset="0.15" style="stop-color:#EFDAB8"/>
		<stop  offset="0.25" style="stop-color:#F0DDBE"/>
		<stop  offset="0.52" style="stop-color:#CDB384"/>
		<stop  offset="0.69" style="stop-color:#B69F75"/>
		<stop  offset="0.8" style="stop-color:#AC966E"/>
		<stop  offset="0.92" style="stop-color:#A28E68"/>
	</linearGradient>
	<path fill="url(#SVGID_4_)" d="M55.539,145.563h25.5v1.5h-25.5V145.563z"/>
	
		<linearGradient id="SVGID_5_" gradientUnits="userSpaceOnUse" x1="156.6123" y1="108.7881" x2="58.6128" y2="108.7881" gradientTransform="matrix(0.75 0 0 -0.75 -12.5967 163.7422)">
		<stop  offset="0" style="stop-color:#B3A593"/>
		<stop  offset="0.01" style="stop-color:#FDEEDA"/>
		<stop  offset="0.03" style="stop-color:#E9D7BF"/>
		<stop  offset="0.64" style="stop-color:#E5D3BC"/>
		<stop  offset="0.99" style="stop-color:#E0CEB8"/>
		<stop  offset="1" style="stop-color:#A69988"/>
	</linearGradient>
	<path fill="url(#SVGID_5_)" d="M31.363,69.402h73.5v25.5h-73.5V69.402z"/>
	
		<linearGradient id="SVGID_6_" gradientUnits="userSpaceOnUse" x1="160.6123" y1="123.7041" x2="58.6123" y2="123.7041" gradientTransform="matrix(0.75 0 0 -0.75 -13.96 160.8213)">
		<stop  offset="0" style="stop-color:#B3A593"/>
		<stop  offset="0.01" style="stop-color:#FDEEDA"/>
		<stop  offset="0.03" style="stop-color:#E9D7BF"/>
		<stop  offset="0.64" style="stop-color:#E5D3BC"/>
		<stop  offset="0.99" style="stop-color:#E0CEB8"/>
		<stop  offset="1" style="stop-color:#A69988"/>
	</linearGradient>
	<path fill="url(#SVGID_6_)" d="M30,66.48h76.5c0,0,0,0.148,0,0.336v2.664c0,0-0.148,0.129-0.332,0.129L30,69.48c0,0,0-0.02,0-0.203
		V66.48c0,0,0.148,0,0.332,0H30z"/>
	
		<linearGradient id="SVGID_7_" gradientUnits="userSpaceOnUse" x1="160.6123" y1="123.7021" x2="58.6123" y2="123.7021" gradientTransform="matrix(0.75 0 0 -0.75 -13.96 189.4072)">
		<stop  offset="0" style="stop-color:#B3A593"/>
		<stop  offset="0.01" style="stop-color:#FDEEDA"/>
		<stop  offset="0.03" style="stop-color:#E9D7BF"/>
		<stop  offset="0.64" style="stop-color:#E5D3BC"/>
		<stop  offset="0.99" style="stop-color:#E0CEB8"/>
		<stop  offset="1" style="stop-color:#A69988"/>
	</linearGradient>
	<path fill="url(#SVGID_7_)" d="M30,95.066h76.5c0,0,0,0.148,0,0.336v2.664c0,0-0.148,0.129-0.332,0.129L30,98.066
		c0,0,0-0.02,0-0.203V95.066c0,0,0.148,0,0.332,0H30z"/>
	
		<linearGradient id="SVGID_8_" gradientUnits="userSpaceOnUse" x1="81.6143" y1="116.7871" x2="58.6143" y2="116.7871" gradientTransform="matrix(0.75 0 0 -0.75 -8.3203 147.2578)">
		<stop  offset="0" style="stop-color:#C5B5A2"/>
		<stop  offset="0.15" style="stop-color:#FDEFDD"/>
		<stop  offset="0.25" style="stop-color:#FEF0DF"/>
		<stop  offset="0.52" style="stop-color:#DECCB6"/>
		<stop  offset="0.69" style="stop-color:#C5B5A2"/>
		<stop  offset="0.8" style="stop-color:#BAAB98"/>
		<stop  offset="0.92" style="stop-color:#B0A190"/>
	</linearGradient>
	<path fill="url(#SVGID_8_)" d="M35.641,66.418h17.25v-13.5h-17.25V66.418z"/>
	
		<linearGradient id="SVGID_9_" gradientUnits="userSpaceOnUse" x1="87.6133" y1="124.1201" x2="58.6133" y2="124.1201" gradientTransform="matrix(0.75 0 0 -0.75 -10.3003 144.7549)">
		<stop  offset="0" style="stop-color:#C5B5A2"/>
		<stop  offset="0.15" style="stop-color:#FDEFDD"/>
		<stop  offset="0.25" style="stop-color:#FEF0DF"/>
		<stop  offset="0.52" style="stop-color:#DECCB6"/>
		<stop  offset="0.69" style="stop-color:#C5B5A2"/>
		<stop  offset="0.8" style="stop-color:#BAAB98"/>
		<stop  offset="0.92" style="stop-color:#B0A190"/>
	</linearGradient>
	<path fill="url(#SVGID_9_)" d="M33.66,50.414h21c0,0,0.465,0.148,0.465,0.336l0.285,1.914c0,0-0.434,0.254-0.617,0.254
		L33.66,52.664c0,0,0,0.105,0-0.078V50.414c0,0,0.148,0,0.332,0H33.66z"/>
	
		<linearGradient id="SVGID_10_" gradientUnits="userSpaceOnUse" x1="72.7842" y1="121.0576" x2="58.6123" y2="121.0576" gradientTransform="matrix(0.75 0 0 -0.75 29.8174 153.7266)">
		<stop  offset="0" style="stop-color:#C5B5A2"/>
		<stop  offset="0.15" style="stop-color:#FDEFDD"/>
		<stop  offset="0.25" style="stop-color:#FEF0DF"/>
		<stop  offset="0.52" style="stop-color:#DECCB6"/>
		<stop  offset="0.69" style="stop-color:#C5B5A2"/>
		<stop  offset="0.8" style="stop-color:#BAAB98"/>
		<stop  offset="0.92" style="stop-color:#B0A190"/>
	</linearGradient>
	<path fill="url(#SVGID_10_)" d="M73.777,59.387h10.5c0,0,0.129,0.148,0.129,0.336l-0.129,6.414c0,0-0.02,0.344-0.207,0.344
		l-10.293-0.344c0,0,0,0.195,0,0.012V59.387c0,0,0.148,0,0.332,0H73.777z"/>
	
		<linearGradient id="SVGID_11_" gradientUnits="userSpaceOnUse" x1="67.7832" y1="123.2881" x2="58.6113" y2="123.2881" gradientTransform="matrix(0.75 0 0 -0.75 47.3228 157.2734)">
		<stop  offset="0" style="stop-color:#C5B5A2"/>
		<stop  offset="0.15" style="stop-color:#FDEFDD"/>
		<stop  offset="0.25" style="stop-color:#FEF0DF"/>
		<stop  offset="0.52" style="stop-color:#DECCB6"/>
		<stop  offset="0.69" style="stop-color:#C5B5A2"/>
		<stop  offset="0.8" style="stop-color:#BAAB98"/>
		<stop  offset="0.92" style="stop-color:#B0A190"/>
	</linearGradient>
	<path fill="url(#SVGID_11_)" d="M91.281,62.934h6.75c0,0,0.129,0.148,0.129,0.336l-0.129,2.664c0,0.75-0.02,0.547-0.203,0.547
		l-6.547,0.203c0,0,0-0.352,0-0.535V62.934c0,0,0.152,0,0.336,0H91.281z"/>
	
		<linearGradient id="SVGID_12_" gradientUnits="userSpaceOnUse" x1="156.6123" y1="125.29" x2="58.6128" y2="125.29" gradientTransform="matrix(0.75 0 0 -0.75 -12.5967 164.0557)">
		<stop  offset="0" style="stop-color:#A5906A"/>
		<stop  offset="0.01" style="stop-color:#EED8B3"/>
		<stop  offset="0.03" style="stop-color:#D7BD8C"/>
		<stop  offset="0.64" style="stop-color:#D4BA89"/>
		<stop  offset="0.99" style="stop-color:#CFB586"/>
		<stop  offset="1" style="stop-color:#9A8662"/>
	</linearGradient>
	<path fill="url(#SVGID_12_)" d="M31.363,69.715h73.5v0.75h-73.5V69.715z"/>
	
		<linearGradient id="SVGID_13_" gradientUnits="userSpaceOnUse" x1="156.6123" y1="125.2871" x2="58.6128" y2="125.2871" gradientTransform="matrix(0.75 0 0 -0.75 -12.5967 188.5664)">
		<stop  offset="0" style="stop-color:#A5906A"/>
		<stop  offset="0.01" style="stop-color:#EED8B3"/>
		<stop  offset="0.03" style="stop-color:#D7BD8C"/>
		<stop  offset="0.64" style="stop-color:#D4BA89"/>
		<stop  offset="0.99" style="stop-color:#CFB586"/>
		<stop  offset="1" style="stop-color:#9A8662"/>
	</linearGradient>
	<path fill="url(#SVGID_13_)" d="M31.363,94.227h73.5v0.75h-73.5V94.227z"/>
</g>
</svg>
