<?xml version="1.0" encoding="utf-8"?>
<!-- Generator: Adobe Illustrator 16.0.0, SVG Export Plug-In . SVG Version: 6.00 Build 0)  -->
<!DOCTYPE svg PUBLIC "-//W3C//DTD SVG 1.1//EN" "http://www.w3.org/Graphics/SVG/1.1/DTD/svg11.dtd">
<svg preserveAspectRatio="none" version="1.1" id="图层_1" xmlns="http://www.w3.org/2000/svg" xmlns:xlink="http://www.w3.org/1999/xlink" x="0px" y="0px"
	 width="316.598px" height="427.977px" viewBox="35.734 -75.453 316.598 427.977"
	 enable-background="new 35.734 -75.453 316.598 427.977" xml:space="preserve">
<g id="surface831">
	
		<linearGradient id="SVGID_1_" gradientUnits="userSpaceOnUse" x1="102.6157" y1="115.2876" x2="14.6157" y2="115.2876" gradientTransform="matrix(0.75 0 0 -0.75 36.4717 84.5117)">
		<stop  offset="0" style="stop-color:#ADA7AB"/>
		<stop  offset="0.01" style="stop-color:#F7F0F5"/>
		<stop  offset="0.03" style="stop-color:#E2D9DF"/>
		<stop  offset="0.64" style="stop-color:#DED6DB"/>
		<stop  offset="0.99" style="stop-color:#D9D1D6"/>
		<stop  offset="1" style="stop-color:#A19B9F"/>
	</linearGradient>
	<path fill="url(#SVGID_1_)" d="M47.434-75.453h66v147h-66V-75.453z"/>
	
		<linearGradient id="SVGID_2_" gradientUnits="userSpaceOnUse" x1="197.1138" y1="213.2871" x2="197.1138" y2="10.2871" gradientTransform="matrix(0.75 0 0 -0.75 24.7739 231.6172)">
		<stop  offset="0" style="stop-color:#ADA7AB"/>
		<stop  offset="0.01" style="stop-color:#F7F0F5"/>
		<stop  offset="0.03" style="stop-color:#E2D9DF"/>
		<stop  offset="0.64" style="stop-color:#DED6DB"/>
		<stop  offset="0.99" style="stop-color:#D9D1D6"/>
		<stop  offset="1" style="stop-color:#A19B9F"/>
	</linearGradient>
	<path fill="url(#SVGID_2_)" d="M112.984,71.652h196.5l-76.5,111.75v40.5h-196.5l-0.75-40.5L112.984,71.652z"/>
	
		<linearGradient id="SVGID_3_" gradientUnits="userSpaceOnUse" x1="333.6123" y1="133.2905" x2="14.6123" y2="133.2905" gradientTransform="matrix(0.75 0 0 -0.75 102.1221 111.5293)">
		<stop  offset="0" style="stop-color:#ADA7AB"/>
		<stop  offset="0.01" style="stop-color:#F7F0F5"/>
		<stop  offset="0.03" style="stop-color:#E2D9DF"/>
		<stop  offset="0.64" style="stop-color:#DED6DB"/>
		<stop  offset="0.99" style="stop-color:#D9D1D6"/>
		<stop  offset="1" style="stop-color:#A19B9F"/>
	</linearGradient>
	<path fill="url(#SVGID_3_)" d="M113.082,71.563h195.75v-42l43.5-22.5v-55.5h-239.25V71.563z"/>
	
		<linearGradient id="SVGID_4_" gradientUnits="userSpaceOnUse" x1="276.6143" y1="159.2852" x2="14.6143" y2="159.2851" gradientTransform="matrix(0.75 0 0 -0.75 25.2729 384.0332)">
		<stop  offset="0" style="stop-color:#B9ADB3"/>
		<stop  offset="0.15" style="stop-color:#F1E6EC"/>
		<stop  offset="0.25" style="stop-color:#F2E8EE"/>
		<stop  offset="0.52" style="stop-color:#CFC2C9"/>
		<stop  offset="0.69" style="stop-color:#B9ADB3"/>
		<stop  offset="0.8" style="stop-color:#AEA3A9"/>
		<stop  offset="0.92" style="stop-color:#A49A9F"/>
	</linearGradient>
	<path fill="url(#SVGID_4_)" d="M36.234,224.07h196.5l-87.75,81h-21L36.234,224.07z"/>
	
		<linearGradient id="SVGID_5_" gradientUnits="userSpaceOnUse" x1="38.6138" y1="100.7856" x2="14.6138" y2="100.7856" gradientTransform="matrix(0.75 0 0 -0.75 24.7739 343.7373)">
		<stop  offset="0" style="stop-color:#ADA7AB"/>
		<stop  offset="0.01" style="stop-color:#F7F0F5"/>
		<stop  offset="0.03" style="stop-color:#E2D9DF"/>
		<stop  offset="0.64" style="stop-color:#DED6DB"/>
		<stop  offset="0.99" style="stop-color:#D9D1D6"/>
		<stop  offset="1" style="stop-color:#A19B9F"/>
	</linearGradient>
	<path fill="url(#SVGID_5_)" d="M35.734,183.773h18v168.75h-18V183.773z"/>
	
		<linearGradient id="SVGID_6_" gradientUnits="userSpaceOnUse" x1="38.6147" y1="100.7905" x2="14.6147" y2="100.7905" gradientTransform="matrix(0.75 0 0 -0.75 204.1289 343.7363)">
		<stop  offset="0" style="stop-color:#ADA7AB"/>
		<stop  offset="0.01" style="stop-color:#F7F0F5"/>
		<stop  offset="0.03" style="stop-color:#E2D9DF"/>
		<stop  offset="0.64" style="stop-color:#DED6DB"/>
		<stop  offset="0.99" style="stop-color:#D9D1D6"/>
		<stop  offset="1" style="stop-color:#A19B9F"/>
	</linearGradient>
	<path fill="url(#SVGID_6_)" d="M215.09,183.77h18v168.75h-18V183.77z"/>
	
		<linearGradient id="SVGID_7_" gradientUnits="userSpaceOnUse" x1="29.897" y1="9.2856" x2="14.4497" y2="9.2856" gradientTransform="matrix(0.75 0 0 -0.75 177.2524 104.9678)">
		<stop  offset="0" style="stop-color:#B9ADB3"/>
		<stop  offset="0.15" style="stop-color:#F1E6EC"/>
		<stop  offset="0.25" style="stop-color:#F2E8EE"/>
		<stop  offset="0.52" style="stop-color:#CFC2C9"/>
		<stop  offset="0.69" style="stop-color:#B9ADB3"/>
		<stop  offset="0.8" style="stop-color:#AEA3A9"/>
		<stop  offset="0.92" style="stop-color:#A49A9F"/>
	</linearGradient>
	<path fill="url(#SVGID_7_)" d="M190.461-54.996h6.75c1.5,0,2.465,1.035,2.465,2.316l-0.215,301.434c0,0.75-0.82,2.203-2.102,2.203
		l-6.898,0.047c-1.5,0-2.371-1.145-2.371-2.426l0.121-301.324c0-1.5,0.918-2.25,2.199-2.25H190.461z"/>
	
		<linearGradient id="SVGID_8_" gradientUnits="userSpaceOnUse" x1="29.8979" y1="9.2856" x2="14.4497" y2="9.2856" gradientTransform="matrix(0.75 0 0 -0.75 154.209 104.9668)">
		<stop  offset="0" style="stop-color:#B9ADB3"/>
		<stop  offset="0.15" style="stop-color:#F1E6EC"/>
		<stop  offset="0.25" style="stop-color:#F2E8EE"/>
		<stop  offset="0.52" style="stop-color:#CFC2C9"/>
		<stop  offset="0.69" style="stop-color:#B9ADB3"/>
		<stop  offset="0.8" style="stop-color:#AEA3A9"/>
		<stop  offset="0.92" style="stop-color:#A49A9F"/>
	</linearGradient>
	<path fill="url(#SVGID_8_)" d="M167.418-54.996h6.75c1.5,0,2.465,1.035,2.465,2.316l-0.215,301.434c0,0.75-0.82,2.203-2.102,2.203
		l-6.898,0.047c-1.5,0-2.371-1.145-2.371-2.426l0.121-301.324c0-1.5,0.918-2.25,2.195-2.25H167.418z"/>
	
		<linearGradient id="SVGID_9_" gradientUnits="userSpaceOnUse" x1="56.6128" y1="172.2881" x2="14.6128" y2="172.2881" gradientTransform="matrix(0.75 0 0 -0.75 297.6182 172.5156)">
		<stop  offset="0" style="stop-color:#9F989D"/>
		<stop  offset="0.01" style="stop-color:#E7E1E5"/>
		<stop  offset="0.03" style="stop-color:#CFC7CC"/>
		<stop  offset="0.64" style="stop-color:#CCC4C9"/>
		<stop  offset="0.99" style="stop-color:#C7BFC4"/>
		<stop  offset="1" style="stop-color:#938D91"/>
	</linearGradient>
	<path fill="url(#SVGID_9_)" d="M308.578,29.801l31.5-17.25l-31.5,61.5V29.801z"/>
	
		<linearGradient id="SVGID_10_" gradientUnits="userSpaceOnUse" x1="41.6118" y1="206.7412" x2="14.6118" y2="206.7412" gradientTransform="matrix(0.75 0 0 -0.75 149.9551 389.834)">
		<stop  offset="0" style="stop-color:#AF9BA6"/>
		<stop  offset="0.15" style="stop-color:#E9D7E1"/>
		<stop  offset="0.25" style="stop-color:#EADAE3"/>
		<stop  offset="0.52" style="stop-color:#C5AFBB"/>
		<stop  offset="0.69" style="stop-color:#AF9BA6"/>
		<stop  offset="0.8" style="stop-color:#A5929D"/>
		<stop  offset="0.92" style="stop-color:#9C8A94"/>
	</linearGradient>
	<path fill="url(#SVGID_10_)" d="M163.164,229.871h15.75c0.75,0,2.094,0.926,2.094,2.207l0.156,5.293c0,1.5-1.207,2.426-2.484,2.426
		l-15.516-0.176c-1.5,0-2.25-0.859-2.25-2.141v-5.359c0-1.5,1.039-2.359,2.316-2.359L163.164,229.871z"/>
	
		<linearGradient id="SVGID_11_" gradientUnits="userSpaceOnUse" x1="41.6118" y1="206.7412" x2="14.6118" y2="206.7412" gradientTransform="matrix(0.75 0 0 -0.75 172.998 389.834)">
		<stop  offset="0" style="stop-color:#AF9BA6"/>
		<stop  offset="0.15" style="stop-color:#E9D7E1"/>
		<stop  offset="0.25" style="stop-color:#EADAE3"/>
		<stop  offset="0.52" style="stop-color:#C5AFBB"/>
		<stop  offset="0.69" style="stop-color:#AF9BA6"/>
		<stop  offset="0.8" style="stop-color:#A5929D"/>
		<stop  offset="0.92" style="stop-color:#9C8A94"/>
	</linearGradient>
	<path fill="url(#SVGID_11_)" d="M186.207,229.871h15.75c0.75,0,2.094,0.926,2.094,2.207l0.156,5.293c0,1.5-1.203,2.426-2.484,2.426
		l-15.516-0.176c-1.5,0-2.25-0.859-2.25-2.141v-5.359c0-1.5,1.039-2.359,2.316-2.359L186.207,229.871z"/>
</g>
</svg>
