<?xml version="1.0" encoding="utf-8"?>
<!-- Generator: Adobe Illustrator 16.0.0, SVG Export Plug-In . SVG Version: 6.00 Build 0)  -->
<!DOCTYPE svg PUBLIC "-//W3C//DTD SVG 1.1//EN" "http://www.w3.org/Graphics/SVG/1.1/DTD/svg11.dtd">
<svg preserveAspectRatio="none" version="1.1" id="图层_1" xmlns="http://www.w3.org/2000/svg" xmlns:xlink="http://www.w3.org/1999/xlink" x="0px" y="0px"
	 width="299.25px" height="286.516px" viewBox="30 -40.066 299.25 286.516" enable-background="new 30 -40.066 299.25 286.516"
	 xml:space="preserve">
<g id="surface576">
	
		<linearGradient id="SVGID_1_" gradientUnits="userSpaceOnUse" x1="48.4888" y1="138.1104" x2="21.4888" y2="138.1104" gradientTransform="matrix(0.75 0 0 -0.75 153.3911 85.7754)">
		<stop  offset="0" style="stop-color:#BAC0C1"/>
		<stop  offset="0.15" style="stop-color:#F4FAFC"/>
		<stop  offset="0.25" style="stop-color:#F8FCFD"/>
		<stop  offset="0.44" style="stop-color:#D5DBDD"/>
		<stop  offset="0.6" style="stop-color:#BDC3C4"/>
		<stop  offset="0.8" style="stop-color:#A0A4A6"/>
		<stop  offset="0.97" style="stop-color:#929697"/>
		<stop  offset="1" style="stop-color:#C2C7C9"/>
	</linearGradient>
	<path fill="url(#SVGID_1_)" d="M171.008-40.066h17.25c0.75,0,1.332,0.609,1.332,1.402l0.168,41.348c0,0.75-0.813,1.77-1.609,1.77
		l-17.141-0.27c-0.75,0-1.5-0.41-1.5-1.203v-41.547c0-0.75,0.633-1.5,1.43-1.5H171.008z"/>
	
		<linearGradient id="SVGID_2_" gradientUnits="userSpaceOnUse" x1="66.9849" y1="130.3799" x2="21.3345" y2="130.3799" gradientTransform="matrix(0.75 0 0 -0.75 146.4131 125.9443)">
		<stop  offset="0" style="stop-color:#BAC0C1"/>
		<stop  offset="0.15" style="stop-color:#F4FAFC"/>
		<stop  offset="0.25" style="stop-color:#F8FCFD"/>
		<stop  offset="0.44" style="stop-color:#D5DBDD"/>
		<stop  offset="0.6" style="stop-color:#BDC3C4"/>
		<stop  offset="0.8" style="stop-color:#A0A4A6"/>
		<stop  offset="0.97" style="stop-color:#929697"/>
		<stop  offset="1" style="stop-color:#C2C7C9"/>
	</linearGradient>
	<path fill="url(#SVGID_2_)" d="M164.027,0.105h31.5c0.75,0,1.125,0.504,1.125,1.297l-0.375,53.453c0,0.75-0.273,1.496-1.066,1.496
		l-31.184,0.004c-0.75,0-1.613-0.645-1.613-1.438l0.113-53.313c0-0.75,0.531-1.641,1.328-1.641L164.027,0.105z"/>
	
		<linearGradient id="SVGID_3_" gradientUnits="userSpaceOnUse" x1="414.4893" y1="144.7871" x2="21.4893" y2="144.7871" gradientTransform="matrix(0.75 0 0 -0.75 16.043 184.6045)">
		<stop  offset="0" style="stop-color:#BAC0C1"/>
		<stop  offset="0.15" style="stop-color:#F4FAFC"/>
		<stop  offset="0.25" style="stop-color:#F8FCFD"/>
		<stop  offset="0.44" style="stop-color:#D5DBDD"/>
		<stop  offset="0.6" style="stop-color:#BDC3C4"/>
		<stop  offset="0.8" style="stop-color:#A0A4A6"/>
		<stop  offset="0.97" style="stop-color:#929697"/>
	</linearGradient>
	<path fill="url(#SVGID_3_)" d="M32.16,58.766h294.75v34.5H32.16V58.766z"/>
	
		<linearGradient id="SVGID_4_" gradientUnits="userSpaceOnUse" x1="414.4893" y1="65.2881" x2="21.4893" y2="65.288" gradientTransform="matrix(0.75 0 0 -0.75 16.043 218.5391)">
		<stop  offset="0" style="stop-color:#BAC0C1"/>
		<stop  offset="0.15" style="stop-color:#F4FAFC"/>
		<stop  offset="0.25" style="stop-color:#F8FCFD"/>
		<stop  offset="0.44" style="stop-color:#D5DBDD"/>
		<stop  offset="0.6" style="stop-color:#BDC3C4"/>
		<stop  offset="0.8" style="stop-color:#A0A4A6"/>
		<stop  offset="0.97" style="stop-color:#929697"/>
		<stop  offset="1" style="stop-color:#C2C7C9"/>
	</linearGradient>
	<path fill="url(#SVGID_4_)" d="M32.16,92.699h294.75l-93,153.75H125.16L32.16,92.699z"/>
	
		<linearGradient id="SVGID_5_" gradientUnits="userSpaceOnUse" x1="28.9277" y1="167.9736" x2="28.9277" y2="116.5313" gradientTransform="matrix(0.75 0 0 -0.75 129.9644 93.8906)">
		<stop  offset="0" style="stop-color:#BAC0C1"/>
		<stop  offset="0.15" style="stop-color:#F4FAFC"/>
		<stop  offset="0.25" style="stop-color:#F8FCFD"/>
		<stop  offset="0.44" style="stop-color:#D5DBDD"/>
		<stop  offset="0.6" style="stop-color:#BDC3C4"/>
		<stop  offset="0.8" style="stop-color:#A0A4A6"/>
		<stop  offset="0.97" style="stop-color:#929697"/>
		<stop  offset="1" style="stop-color:#C2C7C9"/>
	</linearGradient>
	<path fill="url(#SVGID_5_)" d="M147.582-31.949h8.25c0.75,0,1.32,0.504,1.32,1.297l0.18,35.453c0,0.75-0.824,1.691-1.621,1.691
		l-8.129-0.191c-0.75,0-1.594-0.453-1.594-1.246l0.094-35.504c0-0.75,0.551-1.641,1.348-1.641L147.582-31.949z"/>
	
		<linearGradient id="SVGID_6_" gradientUnits="userSpaceOnUse" x1="214.4893" y1="167.7871" x2="214.4893" y2="162.7871" gradientTransform="matrix(0.75 0 0 -0.75 19.1558 152.5156)">
		<stop  offset="0" style="stop-color:#BAC0C1"/>
		<stop  offset="0.15" style="stop-color:#F4FAFC"/>
		<stop  offset="0.25" style="stop-color:#F8FCFD"/>
		<stop  offset="0.44" style="stop-color:#D5DBDD"/>
		<stop  offset="0.6" style="stop-color:#BDC3C4"/>
		<stop  offset="0.8" style="stop-color:#A0A4A6"/>
		<stop  offset="0.97" style="stop-color:#929697"/>
		<stop  offset="1" style="stop-color:#C2C7C9"/>
	</linearGradient>
	<path fill="url(#SVGID_6_)" d="M35.273,26.676h289.5v3.75h-289.5V26.676z"/>
	
		<linearGradient id="SVGID_7_" gradientUnits="userSpaceOnUse" x1="31.7139" y1="149.3652" x2="21.4902" y2="149.3652" gradientTransform="matrix(0.75 0 0 -0.75 16.1479 143.4189)">
		<stop  offset="0" style="stop-color:#BAC0C1"/>
		<stop  offset="0.15" style="stop-color:#F4FAFC"/>
		<stop  offset="0.25" style="stop-color:#F8FCFD"/>
		<stop  offset="0.44" style="stop-color:#D5DBDD"/>
		<stop  offset="0.6" style="stop-color:#BDC3C4"/>
		<stop  offset="0.8" style="stop-color:#A0A4A6"/>
		<stop  offset="0.97" style="stop-color:#929697"/>
		<stop  offset="1" style="stop-color:#C2C7C9"/>
	</linearGradient>
	<path fill="url(#SVGID_7_)" d="M33.766,17.578h4.5c0.75,0,1.668,0.52,1.668,1.301l-0.168,24.949c0,0.75-0.465,1.316-1.25,1.316
		l-4.75,0.184c-0.75,0-1.5-0.844-1.5-1.625V19.078c0-0.75,0.633-1.613,1.418-1.613L33.766,17.578z"/>
	
		<linearGradient id="SVGID_8_" gradientUnits="userSpaceOnUse" x1="31.7188" y1="149.3652" x2="21.4902" y2="149.3652" gradientTransform="matrix(0.75 0 0 -0.75 73.5464 143.4189)">
		<stop  offset="0" style="stop-color:#BAC0C1"/>
		<stop  offset="0.15" style="stop-color:#F4FAFC"/>
		<stop  offset="0.25" style="stop-color:#F8FCFD"/>
		<stop  offset="0.44" style="stop-color:#D5DBDD"/>
		<stop  offset="0.6" style="stop-color:#BDC3C4"/>
		<stop  offset="0.8" style="stop-color:#A0A4A6"/>
		<stop  offset="0.97" style="stop-color:#929697"/>
		<stop  offset="1" style="stop-color:#C2C7C9"/>
	</linearGradient>
	<path fill="url(#SVGID_8_)" d="M91.164,17.578h4.5c0.75,0,1.672,0.52,1.672,1.301l-0.172,24.949c0,0.75-0.465,1.316-1.25,1.316
		l-4.75,0.184c-0.75,0-1.5-0.844-1.5-1.625V19.078c0-0.75,0.633-1.613,1.418-1.613L91.164,17.578z"/>
	
		<linearGradient id="SVGID_9_" gradientUnits="userSpaceOnUse" x1="31.7183" y1="149.3652" x2="21.4897" y2="149.3652" gradientTransform="matrix(0.75 0 0 -0.75 130.9453 143.4189)">
		<stop  offset="0" style="stop-color:#BAC0C1"/>
		<stop  offset="0.15" style="stop-color:#F4FAFC"/>
		<stop  offset="0.25" style="stop-color:#F8FCFD"/>
		<stop  offset="0.44" style="stop-color:#D5DBDD"/>
		<stop  offset="0.6" style="stop-color:#BDC3C4"/>
		<stop  offset="0.8" style="stop-color:#A0A4A6"/>
		<stop  offset="0.97" style="stop-color:#929697"/>
		<stop  offset="1" style="stop-color:#C2C7C9"/>
	</linearGradient>
	<path fill="url(#SVGID_9_)" d="M148.563,17.578h4.5c0.75,0,1.672,0.52,1.672,1.301l-0.172,24.949c0,0.75-0.465,1.316-1.25,1.316
		l-4.75,0.184c-0.75,0-1.5-0.844-1.5-1.625V19.078c0-0.75,0.633-1.613,1.418-1.613L148.563,17.578z"/>
	
		<linearGradient id="SVGID_10_" gradientUnits="userSpaceOnUse" x1="31.7183" y1="149.3652" x2="21.4897" y2="149.3652" gradientTransform="matrix(0.75 0 0 -0.75 188.3438 143.4189)">
		<stop  offset="0" style="stop-color:#BAC0C1"/>
		<stop  offset="0.15" style="stop-color:#F4FAFC"/>
		<stop  offset="0.25" style="stop-color:#F8FCFD"/>
		<stop  offset="0.44" style="stop-color:#D5DBDD"/>
		<stop  offset="0.6" style="stop-color:#BDC3C4"/>
		<stop  offset="0.8" style="stop-color:#A0A4A6"/>
		<stop  offset="0.97" style="stop-color:#929697"/>
		<stop  offset="1" style="stop-color:#C2C7C9"/>
	</linearGradient>
	<path fill="url(#SVGID_10_)" d="M205.961,17.578h4.5c0.75,0,1.672,0.52,1.672,1.301l-0.172,24.949c0,0.75-0.465,1.316-1.25,1.316
		l-4.75,0.184c-0.75,0-1.5-0.844-1.5-1.625V19.078c0-0.75,0.633-1.613,1.418-1.613L205.961,17.578z"/>
	
		<linearGradient id="SVGID_11_" gradientUnits="userSpaceOnUse" x1="31.7173" y1="149.3652" x2="21.4888" y2="149.3652" gradientTransform="matrix(0.75 0 0 -0.75 245.7427 143.4189)">
		<stop  offset="0" style="stop-color:#BAC0C1"/>
		<stop  offset="0.15" style="stop-color:#F4FAFC"/>
		<stop  offset="0.25" style="stop-color:#F8FCFD"/>
		<stop  offset="0.44" style="stop-color:#D5DBDD"/>
		<stop  offset="0.6" style="stop-color:#BDC3C4"/>
		<stop  offset="0.8" style="stop-color:#A0A4A6"/>
		<stop  offset="0.97" style="stop-color:#929697"/>
		<stop  offset="1" style="stop-color:#C2C7C9"/>
	</linearGradient>
	<path fill="url(#SVGID_11_)" d="M263.359,17.578h4.5c0.75,0,1.672,0.52,1.672,1.301l-0.172,24.949c0,0.75-0.465,1.316-1.25,1.316
		l-4.75,0.184c-0.75,0-1.5-0.844-1.5-1.625V19.078c0-0.75,0.637-1.613,1.418-1.613L263.359,17.578z"/>
	
		<linearGradient id="SVGID_12_" gradientUnits="userSpaceOnUse" x1="31.7173" y1="149.3652" x2="21.4888" y2="149.3652" gradientTransform="matrix(0.75 0 0 -0.75 303.1411 143.4189)">
		<stop  offset="0" style="stop-color:#BAC0C1"/>
		<stop  offset="0.15" style="stop-color:#F4FAFC"/>
		<stop  offset="0.25" style="stop-color:#F8FCFD"/>
		<stop  offset="0.44" style="stop-color:#D5DBDD"/>
		<stop  offset="0.6" style="stop-color:#BDC3C4"/>
		<stop  offset="0.8" style="stop-color:#A0A4A6"/>
		<stop  offset="0.97" style="stop-color:#929697"/>
		<stop  offset="1" style="stop-color:#C2C7C9"/>
	</linearGradient>
	<path fill="url(#SVGID_12_)" d="M320.758,17.578h4.5c0.75,0,1.672,0.52,1.672,1.301l-0.172,24.949c0,0.75-0.465,1.316-1.25,1.316
		l-4.75,0.184c-0.75,0-1.5-0.844-1.5-1.625V19.078c0-0.75,0.637-1.613,1.418-1.613L320.758,17.578z"/>
	
		<linearGradient id="SVGID_13_" gradientUnits="userSpaceOnUse" x1="420.4873" y1="157.874" x2="21.4873" y2="157.874" gradientTransform="matrix(0.75 0 0 -0.75 13.8838 169.5801)">
		<stop  offset="0" style="stop-color:#BAC0C1"/>
		<stop  offset="0.15" style="stop-color:#F4FAFC"/>
		<stop  offset="0.25" style="stop-color:#F8FCFD"/>
		<stop  offset="0.44" style="stop-color:#D5DBDD"/>
		<stop  offset="0.6" style="stop-color:#BDC3C4"/>
		<stop  offset="0.8" style="stop-color:#A0A4A6"/>
		<stop  offset="0.97" style="stop-color:#929697"/>
		<stop  offset="1" style="stop-color:#C2C7C9"/>
	</linearGradient>
	<path fill="url(#SVGID_13_)" d="M31.5,43.742h296.25c0.75,0,1.5,0.535,1.5,1.375v12.125c0,0.75-0.656,1.516-1.453,1.516
		L31.5,58.742c-0.75,0-1.5-0.668-1.5-1.512V45.242c0-0.75,0.586-1.648,1.383-1.648L31.5,43.742z"/>
	
		<linearGradient id="SVGID_14_" gradientUnits="userSpaceOnUse" x1="414.4893" y1="164.2871" x2="21.4893" y2="164.2871" gradientTransform="matrix(0.75 0 0 -0.75 16.043 184.6045)">
		<stop  offset="0" style="stop-color:#9AA7A8"/>
		<stop  offset="0.15" style="stop-color:#CDDCDE"/>
		<stop  offset="0.25" style="stop-color:#E3ECED"/>
		<stop  offset="0.44" style="stop-color:#B0BFC0"/>
		<stop  offset="0.6" style="stop-color:#9CAAAB"/>
		<stop  offset="0.8" style="stop-color:#838F90"/>
		<stop  offset="0.97" style="stop-color:#788284"/>
		<stop  offset="1" style="stop-color:#A0AEAF"/>
	</linearGradient>
	<path fill="url(#SVGID_14_)" d="M32.16,58.766h294.75v5.25H32.16V58.766z"/>
</g>
</svg>
