<?xml version="1.0" encoding="utf-8"?>
<!-- Generator: Adobe Illustrator 16.0.0, SVG Export Plug-In . SVG Version: 6.00 Build 0)  -->
<!DOCTYPE svg PUBLIC "-//W3C//DTD SVG 1.1//EN" "http://www.w3.org/Graphics/SVG/1.1/DTD/svg11.dtd">
<svg preserveAspectRatio="none" version="1.1" id="图层_1" xmlns="http://www.w3.org/2000/svg" xmlns:xlink="http://www.w3.org/1999/xlink" x="0px" y="0px"
	 width="76.5px" height="149.078px" viewBox="30 29.711 76.5 149.078" enable-background="new 30 29.711 76.5 149.078"
	 xml:space="preserve">
<g id="surface1156">
	
		<linearGradient id="SVGID_1_" gradientUnits="userSpaceOnUse" x1="127.6094" y1="116.7861" x2="58.6094" y2="116.7861" gradientTransform="matrix(0.75 0 0 -0.75 -1.501 136.4248)">
		<stop  offset="0" style="stop-color:#B3A593"/>
		<stop  offset="0.01" style="stop-color:#FDEEDA"/>
		<stop  offset="0.03" style="stop-color:#E9D7BF"/>
		<stop  offset="0.64" style="stop-color:#E5D3BC"/>
		<stop  offset="0.99" style="stop-color:#E0CEB8"/>
		<stop  offset="1" style="stop-color:#A69988"/>
	</linearGradient>
	<path fill="url(#SVGID_1_)" d="M42.457,42.086h51c0.75,0,0.586,0.102,0.586,0.23l0.164,13.27h-51.75V42.086c0,0,0.105,0,0.234,0
		H42.457z"/>
	
		<linearGradient id="SVGID_2_" gradientUnits="userSpaceOnUse" x1="81.6104" y1="121.2871" x2="58.6108" y2="121.2871" gradientTransform="matrix(0.75 0 0 -0.75 15.7363 129.9717)">
		<stop  offset="0" style="stop-color:#C5B5A2"/>
		<stop  offset="0.15" style="stop-color:#FDEFDD"/>
		<stop  offset="0.25" style="stop-color:#FEF0DF"/>
		<stop  offset="0.52" style="stop-color:#DECCB6"/>
		<stop  offset="0.69" style="stop-color:#C5B5A2"/>
		<stop  offset="0.8" style="stop-color:#BAAB98"/>
		<stop  offset="0.92" style="stop-color:#B0A190"/>
	</linearGradient>
	<path fill="url(#SVGID_2_)" d="M59.695,42.383h17.25v-6.75h-17.25V42.383z"/>
	
		<linearGradient id="SVGID_3_" gradientUnits="userSpaceOnUse" x1="97.6143" y1="122.1709" x2="58.6143" y2="122.1709" gradientTransform="matrix(0.75 0 0 -0.75 9.769 124.6895)">
		<stop  offset="0" style="stop-color:#C5B5A2"/>
		<stop  offset="0.15" style="stop-color:#FDEFDD"/>
		<stop  offset="0.25" style="stop-color:#FEF0DF"/>
		<stop  offset="0.52" style="stop-color:#DECCB6"/>
		<stop  offset="0.69" style="stop-color:#C5B5A2"/>
		<stop  offset="0.8" style="stop-color:#BAAB98"/>
		<stop  offset="0.92" style="stop-color:#B0A190"/>
	</linearGradient>
	<path fill="url(#SVGID_3_)" d="M53.73,30.352h28.5c0.75,0,0.539,0.09,0.539,0.219l0.211,5.031c0,0-0.32,0.188-0.445,0.188
		L53.73,35.602c0,0,0,0.082,0-0.047V30.352c0,0,0.086-0.016,0.215-0.016L53.73,30.352z"/>
	
		<linearGradient id="SVGID_4_" gradientUnits="userSpaceOnUse" x1="103.8076" y1="118.7881" x2="58.6099" y2="118.7881" gradientTransform="matrix(0.75 0 0 -0.75 7.3428 138.2422)">
		<stop  offset="0" style="stop-color:#C7AD86"/>
		<stop  offset="0.15" style="stop-color:#FFE6C5"/>
		<stop  offset="0.25" style="stop-color:#FFE8C9"/>
		<stop  offset="0.52" style="stop-color:#DFC297"/>
		<stop  offset="0.69" style="stop-color:#C7AD86"/>
		<stop  offset="0.8" style="stop-color:#BCA37E"/>
		<stop  offset="0.92" style="stop-color:#B19A77"/>
	</linearGradient>
	<path fill="url(#SVGID_4_)" d="M51.301,43.902h33.75c0,0,0.148,0.078,0.148,0.172l-0.148,10.328h-33.75V43.902c0,0,0.07,0,0.152,0
		H51.301z"/>
	
		<linearGradient id="SVGID_5_" gradientUnits="userSpaceOnUse" x1="59.936" y1="121.292" x2="58.6003" y2="121.292" gradientTransform="matrix(0.75 0 0 -0.75 9.6064 124.0605)">
		<stop  offset="0" style="stop-color:#C5B5A2"/>
		<stop  offset="0.15" style="stop-color:#FDEFDD"/>
		<stop  offset="0.25" style="stop-color:#FEF0DF"/>
		<stop  offset="0.52" style="stop-color:#DECCB6"/>
		<stop  offset="0.69" style="stop-color:#C5B5A2"/>
		<stop  offset="0.8" style="stop-color:#BAAB98"/>
		<stop  offset="0.92" style="stop-color:#B0A190"/>
	</linearGradient>
	<path fill="url(#SVGID_5_)" d="M53.566,29.723c0.75,0,0.992,0.094,0.992,0.223l-0.242,6.527c0,0,0.137-0.066,0.008-0.066
		c-0.758,0.066-0.77-0.105-0.77-0.234L53.566,29.723c0,0,0.094-0.012,0.219-0.012L53.566,29.723z"/>
	
		<linearGradient id="SVGID_6_" gradientUnits="userSpaceOnUse" x1="59.9351" y1="121.292" x2="58.5994" y2="121.292" gradientTransform="matrix(0.75 0 0 -0.75 11.7886 124.0605)">
		<stop  offset="0" style="stop-color:#C5B5A2"/>
		<stop  offset="0.15" style="stop-color:#FDEFDD"/>
		<stop  offset="0.25" style="stop-color:#FEF0DF"/>
		<stop  offset="0.52" style="stop-color:#DECCB6"/>
		<stop  offset="0.69" style="stop-color:#C5B5A2"/>
		<stop  offset="0.8" style="stop-color:#BAAB98"/>
		<stop  offset="0.92" style="stop-color:#B0A190"/>
	</linearGradient>
	<path fill="url(#SVGID_6_)" d="M55.75,29.723c0.75,0,0.988,0.094,0.988,0.223L56.5,36.473c0,0,0.137-0.066,0.008-0.066
		c-0.758,0.066-0.77-0.105-0.77-0.234L55.75,29.723c0,0,0.09-0.012,0.219-0.012L55.75,29.723z"/>
	
		<linearGradient id="SVGID_7_" gradientUnits="userSpaceOnUse" x1="59.9351" y1="121.292" x2="58.5994" y2="121.292" gradientTransform="matrix(0.75 0 0 -0.75 13.9702 124.0605)">
		<stop  offset="0" style="stop-color:#C5B5A2"/>
		<stop  offset="0.15" style="stop-color:#FDEFDD"/>
		<stop  offset="0.25" style="stop-color:#FEF0DF"/>
		<stop  offset="0.52" style="stop-color:#DECCB6"/>
		<stop  offset="0.69" style="stop-color:#C5B5A2"/>
		<stop  offset="0.8" style="stop-color:#BAAB98"/>
		<stop  offset="0.92" style="stop-color:#B0A190"/>
	</linearGradient>
	<path fill="url(#SVGID_7_)" d="M57.93,29.723c0.75,0,0.992,0.094,0.992,0.223l-0.242,6.527c0,0,0.137-0.066,0.012-0.066
		c-0.762,0.066-0.773-0.105-0.773-0.234L57.93,29.723c0,0,0.094-0.012,0.223-0.012L57.93,29.723z"/>
	
		<linearGradient id="SVGID_8_" gradientUnits="userSpaceOnUse" x1="59.9351" y1="121.292" x2="58.5994" y2="121.292" gradientTransform="matrix(0.75 0 0 -0.75 16.1523 124.0605)">
		<stop  offset="0" style="stop-color:#C5B5A2"/>
		<stop  offset="0.15" style="stop-color:#FDEFDD"/>
		<stop  offset="0.25" style="stop-color:#FEF0DF"/>
		<stop  offset="0.52" style="stop-color:#DECCB6"/>
		<stop  offset="0.69" style="stop-color:#C5B5A2"/>
		<stop  offset="0.8" style="stop-color:#BAAB98"/>
		<stop  offset="0.92" style="stop-color:#B0A190"/>
	</linearGradient>
	<path fill="url(#SVGID_8_)" d="M60.113,29.723c0.75,0,0.988,0.094,0.988,0.223l-0.238,6.527c0,0,0.137-0.066,0.008-0.066
		c-0.758,0.066-0.77-0.105-0.77-0.234L60.113,29.723c0,0,0.09-0.012,0.219-0.012L60.113,29.723z"/>
	
		<linearGradient id="SVGID_9_" gradientUnits="userSpaceOnUse" x1="59.9351" y1="121.292" x2="58.5994" y2="121.292" gradientTransform="matrix(0.75 0 0 -0.75 18.334 124.0605)">
		<stop  offset="0" style="stop-color:#C5B5A2"/>
		<stop  offset="0.15" style="stop-color:#FDEFDD"/>
		<stop  offset="0.25" style="stop-color:#FEF0DF"/>
		<stop  offset="0.52" style="stop-color:#DECCB6"/>
		<stop  offset="0.69" style="stop-color:#C5B5A2"/>
		<stop  offset="0.8" style="stop-color:#BAAB98"/>
		<stop  offset="0.92" style="stop-color:#B0A190"/>
	</linearGradient>
	<path fill="url(#SVGID_9_)" d="M62.293,29.723c0.75,0,0.992,0.094,0.992,0.223l-0.242,6.527c0,0,0.137-0.066,0.012-0.066
		c-0.762,0.066-0.773-0.105-0.773-0.234L62.293,29.723c0,0,0.094-0.012,0.223-0.012L62.293,29.723z"/>
	
		<linearGradient id="SVGID_10_" gradientUnits="userSpaceOnUse" x1="59.9351" y1="121.292" x2="58.5994" y2="121.292" gradientTransform="matrix(0.75 0 0 -0.75 20.5161 124.0605)">
		<stop  offset="0" style="stop-color:#C5B5A2"/>
		<stop  offset="0.15" style="stop-color:#FDEFDD"/>
		<stop  offset="0.25" style="stop-color:#FEF0DF"/>
		<stop  offset="0.52" style="stop-color:#DECCB6"/>
		<stop  offset="0.69" style="stop-color:#C5B5A2"/>
		<stop  offset="0.8" style="stop-color:#BAAB98"/>
		<stop  offset="0.92" style="stop-color:#B0A190"/>
	</linearGradient>
	<path fill="url(#SVGID_10_)" d="M64.477,29.723c0.75,0,0.992,0.094,0.992,0.223l-0.242,6.527c0,0,0.137-0.066,0.008-0.066
		c-0.758,0.066-0.77-0.105-0.77-0.234L64.477,29.723c0,0,0.094-0.012,0.219-0.012L64.477,29.723z"/>
	
		<linearGradient id="SVGID_11_" gradientUnits="userSpaceOnUse" x1="59.9351" y1="121.292" x2="58.5994" y2="121.292" gradientTransform="matrix(0.75 0 0 -0.75 22.6655 124.0605)">
		<stop  offset="0" style="stop-color:#C5B5A2"/>
		<stop  offset="0.15" style="stop-color:#FDEFDD"/>
		<stop  offset="0.25" style="stop-color:#FEF0DF"/>
		<stop  offset="0.52" style="stop-color:#DECCB6"/>
		<stop  offset="0.69" style="stop-color:#C5B5A2"/>
		<stop  offset="0.8" style="stop-color:#BAAB98"/>
		<stop  offset="0.92" style="stop-color:#B0A190"/>
	</linearGradient>
	<path fill="url(#SVGID_11_)" d="M66.625,29.723c0.75,0,0.992,0.094,0.992,0.223l-0.242,6.527c0,0,0.137-0.066,0.012-0.066
		c-0.762,0.066-0.773-0.105-0.773-0.234L66.625,29.723c0,0,0.094-0.012,0.223-0.012L66.625,29.723z"/>
	
		<linearGradient id="SVGID_12_" gradientUnits="userSpaceOnUse" x1="59.9355" y1="121.292" x2="58.5999" y2="121.292" gradientTransform="matrix(0.75 0 0 -0.75 24.8799 124.0605)">
		<stop  offset="0" style="stop-color:#C5B5A2"/>
		<stop  offset="0.15" style="stop-color:#FDEFDD"/>
		<stop  offset="0.25" style="stop-color:#FEF0DF"/>
		<stop  offset="0.52" style="stop-color:#DECCB6"/>
		<stop  offset="0.69" style="stop-color:#C5B5A2"/>
		<stop  offset="0.8" style="stop-color:#BAAB98"/>
		<stop  offset="0.92" style="stop-color:#B0A190"/>
	</linearGradient>
	<path fill="url(#SVGID_12_)" d="M68.84,29.723c0.75,0,0.992,0.094,0.992,0.223l-0.242,6.527c0,0,0.137-0.066,0.008-0.066
		c-0.758,0.066-0.77-0.105-0.77-0.234L68.84,29.723c0,0,0.094-0.012,0.219-0.012L68.84,29.723z"/>
	
		<linearGradient id="SVGID_13_" gradientUnits="userSpaceOnUse" x1="59.936" y1="121.292" x2="58.6003" y2="121.292" gradientTransform="matrix(0.75 0 0 -0.75 26.9971 124.0605)">
		<stop  offset="0" style="stop-color:#C5B5A2"/>
		<stop  offset="0.15" style="stop-color:#FDEFDD"/>
		<stop  offset="0.25" style="stop-color:#FEF0DF"/>
		<stop  offset="0.52" style="stop-color:#DECCB6"/>
		<stop  offset="0.69" style="stop-color:#C5B5A2"/>
		<stop  offset="0.8" style="stop-color:#BAAB98"/>
		<stop  offset="0.92" style="stop-color:#B0A190"/>
	</linearGradient>
	<path fill="url(#SVGID_13_)" d="M70.957,29.723c0.75,0,0.992,0.094,0.992,0.223l-0.242,6.527c0,0,0.137-0.066,0.012-0.066
		c-0.762,0.066-0.773-0.105-0.773-0.234L70.957,29.723c0,0,0.094-0.012,0.219-0.012L70.957,29.723z"/>
	
		<linearGradient id="SVGID_14_" gradientUnits="userSpaceOnUse" x1="59.9355" y1="121.292" x2="58.5999" y2="121.292" gradientTransform="matrix(0.75 0 0 -0.75 29.2437 124.0605)">
		<stop  offset="0" style="stop-color:#C5B5A2"/>
		<stop  offset="0.15" style="stop-color:#FDEFDD"/>
		<stop  offset="0.25" style="stop-color:#FEF0DF"/>
		<stop  offset="0.52" style="stop-color:#DECCB6"/>
		<stop  offset="0.69" style="stop-color:#C5B5A2"/>
		<stop  offset="0.8" style="stop-color:#BAAB98"/>
		<stop  offset="0.92" style="stop-color:#B0A190"/>
	</linearGradient>
	<path fill="url(#SVGID_14_)" d="M73.203,29.723c0.75,0,0.992,0.094,0.992,0.223l-0.242,6.527c0,0,0.137-0.066,0.012-0.066
		c-0.762,0.066-0.773-0.105-0.773-0.234L73.203,29.723c0,0,0.094-0.012,0.223-0.012L73.203,29.723z"/>
	
		<linearGradient id="SVGID_15_" gradientUnits="userSpaceOnUse" x1="59.9351" y1="121.292" x2="58.5994" y2="121.292" gradientTransform="matrix(0.75 0 0 -0.75 31.4253 124.0605)">
		<stop  offset="0" style="stop-color:#C5B5A2"/>
		<stop  offset="0.15" style="stop-color:#FDEFDD"/>
		<stop  offset="0.25" style="stop-color:#FEF0DF"/>
		<stop  offset="0.52" style="stop-color:#DECCB6"/>
		<stop  offset="0.69" style="stop-color:#C5B5A2"/>
		<stop  offset="0.8" style="stop-color:#BAAB98"/>
		<stop  offset="0.92" style="stop-color:#B0A190"/>
	</linearGradient>
	<path fill="url(#SVGID_15_)" d="M75.387,29.723c0.75,0,0.988,0.094,0.988,0.223l-0.238,6.527c0,0,0.137-0.066,0.008-0.066
		c-0.758,0.066-0.77-0.105-0.77-0.234L75.387,29.723c0,0,0.09-0.012,0.219-0.012L75.387,29.723z"/>
	
		<linearGradient id="SVGID_16_" gradientUnits="userSpaceOnUse" x1="59.9346" y1="121.292" x2="58.5989" y2="121.292" gradientTransform="matrix(0.75 0 0 -0.75 33.6074 124.0605)">
		<stop  offset="0" style="stop-color:#C5B5A2"/>
		<stop  offset="0.15" style="stop-color:#FDEFDD"/>
		<stop  offset="0.25" style="stop-color:#FEF0DF"/>
		<stop  offset="0.52" style="stop-color:#DECCB6"/>
		<stop  offset="0.69" style="stop-color:#C5B5A2"/>
		<stop  offset="0.8" style="stop-color:#BAAB98"/>
		<stop  offset="0.92" style="stop-color:#B0A190"/>
	</linearGradient>
	<path fill="url(#SVGID_16_)" d="M77.566,29.723c0.75,0,0.992,0.094,0.992,0.223l-0.242,6.527c0,0,0.137-0.066,0.012-0.066
		c-0.762,0.066-0.773-0.105-0.773-0.234L77.566,29.723c0,0,0.094-0.012,0.223-0.012L77.566,29.723z"/>
	
		<linearGradient id="SVGID_17_" gradientUnits="userSpaceOnUse" x1="59.936" y1="121.292" x2="58.6003" y2="121.292" gradientTransform="matrix(0.75 0 0 -0.75 35.7896 124.0605)">
		<stop  offset="0" style="stop-color:#C5B5A2"/>
		<stop  offset="0.15" style="stop-color:#FDEFDD"/>
		<stop  offset="0.25" style="stop-color:#FEF0DF"/>
		<stop  offset="0.52" style="stop-color:#DECCB6"/>
		<stop  offset="0.69" style="stop-color:#C5B5A2"/>
		<stop  offset="0.8" style="stop-color:#BAAB98"/>
		<stop  offset="0.92" style="stop-color:#B0A190"/>
	</linearGradient>
	<path fill="url(#SVGID_17_)" d="M79.75,29.723c0.75,0,0.992,0.094,0.992,0.223L80.5,36.473c0,0,0.137-0.066,0.008-0.066
		c-0.758,0.066-0.77-0.105-0.77-0.234L79.75,29.723c0,0,0.094-0.012,0.219-0.012L79.75,29.723z"/>
	
		<linearGradient id="SVGID_18_" gradientUnits="userSpaceOnUse" x1="59.9351" y1="121.292" x2="58.5994" y2="121.292" gradientTransform="matrix(0.75 0 0 -0.75 37.9712 124.0605)">
		<stop  offset="0" style="stop-color:#C5B5A2"/>
		<stop  offset="0.15" style="stop-color:#FDEFDD"/>
		<stop  offset="0.25" style="stop-color:#FEF0DF"/>
		<stop  offset="0.52" style="stop-color:#DECCB6"/>
		<stop  offset="0.69" style="stop-color:#C5B5A2"/>
		<stop  offset="0.8" style="stop-color:#BAAB98"/>
		<stop  offset="0.92" style="stop-color:#B0A190"/>
	</linearGradient>
	<path fill="url(#SVGID_18_)" d="M81.93,29.723c0.75,0,0.992,0.094,0.992,0.223l-0.242,6.527c0,0,0.141-0.066,0.012-0.066
		c-0.762,0.066-0.77-0.105-0.77-0.234L81.93,29.723c0,0,0.094-0.012,0.223-0.012L81.93,29.723z"/>
	
		<linearGradient id="SVGID_19_" gradientUnits="userSpaceOnUse" x1="127.6094" y1="125.2891" x2="58.6094" y2="125.2891" gradientTransform="matrix(0.75 0 0 -0.75 -1.501 149.4033)">
		<stop  offset="0" style="stop-color:#95836C"/>
		<stop  offset="0.01" style="stop-color:#DDCAB4"/>
		<stop  offset="0.03" style="stop-color:#C2AB8D"/>
		<stop  offset="0.64" style="stop-color:#BFA88B"/>
		<stop  offset="0.99" style="stop-color:#BBA488"/>
		<stop  offset="1" style="stop-color:#8A7963"/>
	</linearGradient>
	<path fill="url(#SVGID_19_)" d="M42.457,55.063h51c0.75,0,0.586,0.008,0.586,0.016l0.164,0.734h-51.75V55.063c0,0,0.105,0,0.234,0
		H42.457z"/>
	
		<linearGradient id="SVGID_20_" gradientUnits="userSpaceOnUse" x1="151.6143" y1="85.7485" x2="58.6143" y2="85.7485" gradientTransform="matrix(0.75 0 0 -0.75 -10.5044 208.9883)">
		<stop  offset="0" style="stop-color:#937E64"/>
		<stop  offset="0.01" style="stop-color:#DAC5AE"/>
		<stop  offset="0.03" style="stop-color:#BFA584"/>
		<stop  offset="0.64" style="stop-color:#BCA282"/>
		<stop  offset="0.99" style="stop-color:#B89E7F"/>
		<stop  offset="1" style="stop-color:#88745D"/>
	</linearGradient>
	<path fill="url(#SVGID_20_)" d="M103.207,114.648v60c0,0-0.273,0.059-0.402,0.059l-69.348-0.059c0,0,0,0.059,0-0.176v-59.824
		H103.207z"/>
	
		<linearGradient id="SVGID_21_" gradientUnits="userSpaceOnUse" x1="64.6133" y1="89.2876" x2="58.6133" y2="89.2876" gradientTransform="matrix(0.75 0 0 -0.75 22.063 154.1758)">
		<stop  offset="0" style="stop-color:#C5B5A2"/>
		<stop  offset="0.15" style="stop-color:#FDEFDD"/>
		<stop  offset="0.25" style="stop-color:#FEF0DF"/>
		<stop  offset="0.52" style="stop-color:#DECCB6"/>
		<stop  offset="0.69" style="stop-color:#C5B5A2"/>
		<stop  offset="0.8" style="stop-color:#BAAB98"/>
		<stop  offset="0.92" style="stop-color:#B0A190"/>
	</linearGradient>
	<path fill="url(#SVGID_21_)" d="M66.023,59.836h4.5v54.75h-4.5V59.836z"/>
	
		<linearGradient id="SVGID_22_" gradientUnits="userSpaceOnUse" x1="147.6143" y1="87.2876" x2="58.6147" y2="87.2876" gradientTransform="matrix(0.75 0 0 -0.75 -9.0869 210.2891)">
		<stop  offset="0" style="stop-color:#B3A593"/>
		<stop  offset="0.01" style="stop-color:#FDEEDA"/>
		<stop  offset="0.03" style="stop-color:#E9D7BF"/>
		<stop  offset="0.64" style="stop-color:#E5D3BC"/>
		<stop  offset="0.99" style="stop-color:#E0CEB8"/>
		<stop  offset="1" style="stop-color:#A69988"/>
	</linearGradient>
	<path fill="url(#SVGID_22_)" d="M34.875,115.949h66.75v57.75h-66.75V115.949z"/>
	
		<linearGradient id="SVGID_23_" gradientUnits="userSpaceOnUse" x1="160.6123" y1="43.751" x2="58.6123" y2="43.751" gradientTransform="matrix(0.75 0 0 -0.75 -13.96 150.0742)">
		<stop  offset="0" style="stop-color:#B3A593"/>
		<stop  offset="0.01" style="stop-color:#FDEEDA"/>
		<stop  offset="0.03" style="stop-color:#E9D7BF"/>
		<stop  offset="0.64" style="stop-color:#E5D3BC"/>
		<stop  offset="0.99" style="stop-color:#E0CEB8"/>
		<stop  offset="1" style="stop-color:#A69988"/>
	</linearGradient>
	<path fill="url(#SVGID_23_)" d="M30,55.734h76.5c0,0,0,0,0,0.227v122.773c0,0-0.117,0.055-0.25,0.055L30,178.734
		c0,0,0,0.055,0-0.191V55.734c0,0,0.102,0,0.23,0H30z M33.75,59.484h69v114.75l-69,0.75V59.484z"/>
</g>
</svg>
