<?xml version="1.0" encoding="utf-8"?>
<!-- Generator: Adobe Illustrator 16.0.0, SVG Export Plug-In . SVG Version: 6.00 Build 0)  -->
<!DOCTYPE svg PUBLIC "-//W3C//DTD SVG 1.1//EN" "http://www.w3.org/Graphics/SVG/1.1/DTD/svg11.dtd">
<svg preserveAspectRatio="none" version="1.1" id="图层_1" xmlns="http://www.w3.org/2000/svg" xmlns:xlink="http://www.w3.org/1999/xlink" x="0px" y="0px"
	 width="340.184px" height="351.473px" viewBox="29.945 -39.563 340.184 351.473"
	 enable-background="new 29.945 -39.563 340.184 351.473" xml:space="preserve">
<g id="surface751">
	
		<linearGradient id="SVGID_1_" gradientUnits="userSpaceOnUse" x1="454.6123" y1="-10.7139" x2="14.6123" y2="-10.7139" gradientTransform="matrix(0.75 0 0 -0.75 29.1694 120.4004)">
		<stop  offset="0" style="stop-color:#ADAFAC"/>
		<stop  offset="0.01" style="stop-color:#F6F9F5"/>
		<stop  offset="0.03" style="stop-color:#E1E4E0"/>
		<stop  offset="0.64" style="stop-color:#DDE0DC"/>
		<stop  offset="0.99" style="stop-color:#D8DBD7"/>
		<stop  offset="1" style="stop-color:#A0A2A0"/>
	</linearGradient>
	<path fill="url(#SVGID_1_)" d="M40.129-39.563h330v78h-95.25l-69.75,82.5v175.5h-165V-39.563z"/>
	
		<linearGradient id="SVGID_2_" gradientUnits="userSpaceOnUse" x1="37.6118" y1="40.7837" x2="14.6118" y2="40.7837" gradientTransform="matrix(0.75 0 0 -0.75 263.7012 197.6309)">
		<stop  offset="0" style="stop-color:#C7C7C7"/>
		<stop  offset="0.15" style="stop-color:#FFFFFF"/>
		<stop  offset="0.25" style="stop-color:#FFFFFF"/>
		<stop  offset="0.52" style="stop-color:#DFDFDF"/>
		<stop  offset="0.69" style="stop-color:#C7C7C7"/>
		<stop  offset="0.8" style="stop-color:#BCBCBC"/>
		<stop  offset="0.92" style="stop-color:#B1B1B1"/>
	</linearGradient>
	<path fill="url(#SVGID_2_)" d="M274.66,37.668h17.25v258.75h-17.25V37.668z"/>
	
		<linearGradient id="SVGID_3_" gradientUnits="userSpaceOnUse" x1="36.6147" y1="193.2881" x2="14.6147" y2="193.2881" gradientTransform="matrix(0.75 0 0 -0.75 319.0229 198.4189)">
		<stop  offset="0" style="stop-color:#565656"/>
		<stop  offset="0.15" style="stop-color:#A3A2A2"/>
		<stop  offset="0.25" style="stop-color:#ABABAB"/>
		<stop  offset="0.52" style="stop-color:#626161"/>
		<stop  offset="0.69" style="stop-color:#565656"/>
		<stop  offset="0.8" style="stop-color:#515050"/>
		<stop  offset="0.92" style="stop-color:#4C4B4B"/>
	</linearGradient>
	<path fill="url(#SVGID_3_)" d="M329.984,38.453h16.5v30h-16.5V38.453z"/>
	
		<linearGradient id="SVGID_4_" gradientUnits="userSpaceOnUse" x1="65.6157" y1="206.7861" x2="14.6157" y2="206.7861" gradientTransform="matrix(0.75 0 0 -0.75 308.8936 228.3652)">
		<stop  offset="0" style="stop-color:#565656"/>
		<stop  offset="0.15" style="stop-color:#A3A2A2"/>
		<stop  offset="0.25" style="stop-color:#ABABAB"/>
		<stop  offset="0.52" style="stop-color:#626161"/>
		<stop  offset="0.69" style="stop-color:#565656"/>
		<stop  offset="0.8" style="stop-color:#515050"/>
		<stop  offset="0.92" style="stop-color:#4C4B4B"/>
	</linearGradient>
	<path fill="url(#SVGID_4_)" d="M322.855,68.402h32.25c1.5,0,2.93,1.41,2.93,3.148l0.07,2.852c0,2.25-1.469,3.453-3.188,3.453
		l-32.063,0.297c-1.5,0-3-1.707-3-3.449v-3.301c0-1.5,1.395-3,3.113-3H322.855z"/>
	
		<linearGradient id="SVGID_5_" gradientUnits="userSpaceOnUse" x1="18.6138" y1="213.2871" x2="18.6138" y2="165.2871" gradientTransform="matrix(0.75 0 0 -0.75 139.2505 419.0547)">
		<stop  offset="0" style="stop-color:#949990"/>
		<stop  offset="0.15" style="stop-color:#CDD2C7"/>
		<stop  offset="0.25" style="stop-color:#E3E6E1"/>
		<stop  offset="0.52" style="stop-color:#B0B5AA"/>
		<stop  offset="0.69" style="stop-color:#9CA197"/>
		<stop  offset="0.8" style="stop-color:#93988F"/>
		<stop  offset="0.92" style="stop-color:#8B8F86"/>
		<stop  offset="1" style="stop-color:#A0A59B"/>
	</linearGradient>
	<path fill="url(#SVGID_5_)" d="M150.211,259.09h6v36h-6V259.09z"/>
	
		<linearGradient id="SVGID_6_" gradientUnits="userSpaceOnUse" x1="-71.7847" y1="83.3887" x2="16.2153" y2="83.3887" gradientTransform="matrix(0 0.75 -0.75 0 159.7871 298.1201)">
		<stop  offset="0" style="stop-color:#949990"/>
		<stop  offset="0.15" style="stop-color:#CDD2C7"/>
		<stop  offset="0.25" style="stop-color:#E3E6E1"/>
		<stop  offset="0.52" style="stop-color:#B0B5AA"/>
		<stop  offset="0.69" style="stop-color:#9CA197"/>
		<stop  offset="0.8" style="stop-color:#93988F"/>
		<stop  offset="0.92" style="stop-color:#8B8F86"/>
		<stop  offset="1" style="stop-color:#A0A59B"/>
	</linearGradient>
	<path fill="url(#SVGID_6_)" d="M129.871,244.281h-65.25v66h65.25V244.281z"/>
	
		<linearGradient id="SVGID_7_" gradientUnits="userSpaceOnUse" x1="-71.7847" y1="103.8848" x2="16.2153" y2="103.8848" gradientTransform="matrix(0 0.75 -0.75 0 125.1094 298.0967)">
		<stop  offset="0" style="stop-color:#949990"/>
		<stop  offset="0.15" style="stop-color:#CDD2C7"/>
		<stop  offset="0.25" style="stop-color:#E3E6E1"/>
		<stop  offset="0.52" style="stop-color:#B0B5AA"/>
		<stop  offset="0.69" style="stop-color:#9CA197"/>
		<stop  offset="0.8" style="stop-color:#93988F"/>
		<stop  offset="0.92" style="stop-color:#8B8F86"/>
		<stop  offset="1" style="stop-color:#A0A59B"/>
	</linearGradient>
	<path fill="url(#SVGID_7_)" d="M64.445,244.258h-27c0,0-3.27,0.492-4.227,4.188c-0.273,0.313-3.273,12.957-3.273,28.789
		c0,15.773,3.273,28.809,3.273,28.809c1.227,4.215,4.133,4.172,4.133,4.172l27.094,0.043V244.258z"/>
	
		<linearGradient id="SVGID_8_" gradientUnits="userSpaceOnUse" x1="-71.7847" y1="126.3877" x2="16.2153" y2="126.3877" gradientTransform="matrix(0 0.75 -0.75 0 159.1924 298.1201)">
		<stop  offset="0" style="stop-color:#7B7E77"/>
		<stop  offset="0.15" style="stop-color:#AEB2AA"/>
		<stop  offset="0.25" style="stop-color:#D5D7D3"/>
		<stop  offset="0.52" style="stop-color:#92968D"/>
		<stop  offset="0.69" style="stop-color:#81857D"/>
		<stop  offset="0.8" style="stop-color:#7A7D76"/>
		<stop  offset="0.92" style="stop-color:#73766F"/>
		<stop  offset="1" style="stop-color:#848880"/>
	</linearGradient>
	<path fill="url(#SVGID_8_)" d="M64.777,244.281h-0.75v66h0.75V244.281z"/>
	
		<linearGradient id="SVGID_9_" gradientUnits="userSpaceOnUse" x1="-534.689" y1="213.3047" x2="-534.689" y2="211.2857" gradientTransform="matrix(-0.75 0 0 -0.75 -306.1543 436.707)">
		<stop  offset="0" style="stop-color:#949990"/>
		<stop  offset="0.15" style="stop-color:#CDD2C7"/>
		<stop  offset="0.25" style="stop-color:#E3E6E1"/>
		<stop  offset="0.52" style="stop-color:#B0B5AA"/>
		<stop  offset="0.69" style="stop-color:#9CA197"/>
		<stop  offset="0.8" style="stop-color:#93988F"/>
		<stop  offset="0.92" style="stop-color:#8B8F86"/>
		<stop  offset="1" style="stop-color:#A0A59B"/>
	</linearGradient>
	<path fill="url(#SVGID_9_)" d="M124.055,276.742h-58.5c0,0-0.602,0.18-0.602,0.418c-0.148,1.082,0.258,0.961,0.57,0.961
		l58.531,0.121c0.75,0,0.75-0.316,0.75-0.555c0-0.945-0.234-0.961-0.551-0.961L124.055,276.742z"/>
	
		<linearGradient id="SVGID_10_" gradientUnits="userSpaceOnUse" x1="-534.689" y1="213.3047" x2="-534.689" y2="211.2866" gradientTransform="matrix(-0.75 0 0 -0.75 -306.1543 441.333)">
		<stop  offset="0" style="stop-color:#949990"/>
		<stop  offset="0.15" style="stop-color:#CDD2C7"/>
		<stop  offset="0.25" style="stop-color:#E3E6E1"/>
		<stop  offset="0.52" style="stop-color:#B0B5AA"/>
		<stop  offset="0.69" style="stop-color:#9CA197"/>
		<stop  offset="0.8" style="stop-color:#93988F"/>
		<stop  offset="0.92" style="stop-color:#8B8F86"/>
		<stop  offset="1" style="stop-color:#A0A59B"/>
	</linearGradient>
	<path fill="url(#SVGID_10_)" d="M124.055,281.367h-58.5c0,0-0.602,0.18-0.602,0.422c-0.148,1.078,0.258,0.957,0.57,0.957
		l58.531,0.121c0.75,0,0.75-0.316,0.75-0.555c0-0.945-0.234-0.957-0.551-0.957L124.055,281.367z"/>
	
		<linearGradient id="SVGID_11_" gradientUnits="userSpaceOnUse" x1="-534.689" y1="213.3057" x2="-534.689" y2="211.2876" gradientTransform="matrix(-0.75 0 0 -0.75 -306.1543 432.0723)">
		<stop  offset="0" style="stop-color:#949990"/>
		<stop  offset="0.15" style="stop-color:#CDD2C7"/>
		<stop  offset="0.25" style="stop-color:#E3E6E1"/>
		<stop  offset="0.52" style="stop-color:#B0B5AA"/>
		<stop  offset="0.69" style="stop-color:#9CA197"/>
		<stop  offset="0.8" style="stop-color:#93988F"/>
		<stop  offset="0.92" style="stop-color:#8B8F86"/>
		<stop  offset="1" style="stop-color:#A0A59B"/>
	</linearGradient>
	<path fill="url(#SVGID_11_)" d="M124.055,272.105h-58.5c0,0-0.602,0.184-0.602,0.422c-0.148,1.078,0.258,0.957,0.57,0.957
		l58.531,0.121c0.75,0,0.75-0.313,0.75-0.555c0-0.945-0.234-0.957-0.551-0.957L124.055,272.105z"/>
	
		<linearGradient id="SVGID_12_" gradientUnits="userSpaceOnUse" x1="-534.689" y1="213.3066" x2="-534.689" y2="211.2876" gradientTransform="matrix(-0.75 0 0 -0.75 -306.1543 413.5498)">
		<stop  offset="0" style="stop-color:#949990"/>
		<stop  offset="0.15" style="stop-color:#CDD2C7"/>
		<stop  offset="0.25" style="stop-color:#E3E6E1"/>
		<stop  offset="0.52" style="stop-color:#B0B5AA"/>
		<stop  offset="0.69" style="stop-color:#9CA197"/>
		<stop  offset="0.8" style="stop-color:#93988F"/>
		<stop  offset="0.92" style="stop-color:#8B8F86"/>
		<stop  offset="1" style="stop-color:#A0A59B"/>
	</linearGradient>
	<path fill="url(#SVGID_12_)" d="M124.055,253.586h-58.5c0,0-0.602,0.18-0.602,0.418c-0.148,1.082,0.258,0.961,0.57,0.961
		l58.531,0.121c0.75,0,0.75-0.316,0.75-0.555c0-0.945-0.234-0.961-0.551-0.961L124.055,253.586z"/>
	
		<linearGradient id="SVGID_13_" gradientUnits="userSpaceOnUse" x1="-534.689" y1="213.3027" x2="-534.689" y2="211.2847" gradientTransform="matrix(-0.75 0 0 -0.75 -306.1543 418.1797)">
		<stop  offset="0" style="stop-color:#949990"/>
		<stop  offset="0.15" style="stop-color:#CDD2C7"/>
		<stop  offset="0.25" style="stop-color:#E3E6E1"/>
		<stop  offset="0.52" style="stop-color:#B0B5AA"/>
		<stop  offset="0.69" style="stop-color:#9CA197"/>
		<stop  offset="0.8" style="stop-color:#93988F"/>
		<stop  offset="0.92" style="stop-color:#8B8F86"/>
		<stop  offset="1" style="stop-color:#A0A59B"/>
	</linearGradient>
	<path fill="url(#SVGID_13_)" d="M124.055,258.215h-58.5c0,0-0.602,0.18-0.602,0.422c-0.148,1.078,0.258,0.957,0.57,0.957
		l58.531,0.121c0.75,0,0.75-0.316,0.75-0.555c0-0.945-0.234-0.957-0.551-0.957L124.055,258.215z"/>
	
		<linearGradient id="SVGID_14_" gradientUnits="userSpaceOnUse" x1="-534.689" y1="213.3047" x2="-534.689" y2="211.2866" gradientTransform="matrix(-0.75 0 0 -0.75 -306.1543 422.8105)">
		<stop  offset="0" style="stop-color:#949990"/>
		<stop  offset="0.15" style="stop-color:#CDD2C7"/>
		<stop  offset="0.25" style="stop-color:#E3E6E1"/>
		<stop  offset="0.52" style="stop-color:#B0B5AA"/>
		<stop  offset="0.69" style="stop-color:#9CA197"/>
		<stop  offset="0.8" style="stop-color:#93988F"/>
		<stop  offset="0.92" style="stop-color:#8B8F86"/>
		<stop  offset="1" style="stop-color:#A0A59B"/>
	</linearGradient>
	<path fill="url(#SVGID_14_)" d="M124.055,262.848h-58.5c0,0-0.602,0.18-0.602,0.418c-0.148,1.082,0.258,0.957,0.57,0.957
		l58.531,0.125c0.75,0,0.75-0.316,0.75-0.555c0-0.945-0.234-0.961-0.551-0.961L124.055,262.848z"/>
	
		<linearGradient id="SVGID_15_" gradientUnits="userSpaceOnUse" x1="-534.689" y1="213.3018" x2="-534.689" y2="211.2837" gradientTransform="matrix(-0.75 0 0 -0.75 -306.1543 427.4414)">
		<stop  offset="0" style="stop-color:#949990"/>
		<stop  offset="0.15" style="stop-color:#CDD2C7"/>
		<stop  offset="0.25" style="stop-color:#E3E6E1"/>
		<stop  offset="0.52" style="stop-color:#B0B5AA"/>
		<stop  offset="0.69" style="stop-color:#9CA197"/>
		<stop  offset="0.8" style="stop-color:#93988F"/>
		<stop  offset="0.92" style="stop-color:#8B8F86"/>
		<stop  offset="1" style="stop-color:#A0A59B"/>
	</linearGradient>
	<path fill="url(#SVGID_15_)" d="M124.055,267.477h-58.5c0,0-0.602,0.18-0.602,0.418c-0.148,1.082,0.258,0.961,0.57,0.961
		l58.531,0.121c0.75,0,0.75-0.316,0.75-0.555c0-0.945-0.234-0.957-0.551-0.957L124.055,267.477z"/>
	
		<linearGradient id="SVGID_16_" gradientUnits="userSpaceOnUse" x1="-534.689" y1="213.3047" x2="-534.689" y2="211.2866" gradientTransform="matrix(-0.75 0 0 -0.75 -306.1543 408.9189)">
		<stop  offset="0" style="stop-color:#949990"/>
		<stop  offset="0.15" style="stop-color:#CDD2C7"/>
		<stop  offset="0.25" style="stop-color:#E3E6E1"/>
		<stop  offset="0.52" style="stop-color:#B0B5AA"/>
		<stop  offset="0.69" style="stop-color:#9CA197"/>
		<stop  offset="0.8" style="stop-color:#93988F"/>
		<stop  offset="0.92" style="stop-color:#8B8F86"/>
		<stop  offset="1" style="stop-color:#A0A59B"/>
	</linearGradient>
	<path fill="url(#SVGID_16_)" d="M124.055,248.953h-58.5c0,0-0.602,0.18-0.602,0.422c-0.148,1.078,0.258,0.957,0.57,0.957
		l58.531,0.121c0.75,0,0.75-0.313,0.75-0.555c0-0.945-0.234-0.957-0.551-0.957L124.055,248.953z"/>
	
		<linearGradient id="SVGID_17_" gradientUnits="userSpaceOnUse" x1="-395.7485" y1="125.3911" x2="-488.2124" y2="125.3911" gradientTransform="matrix(0 -0.75 -0.75 0 224.3398 -54.25)">
		<stop  offset="0" style="stop-color:#7B7E77"/>
		<stop  offset="0.15" style="stop-color:#AEB2AA"/>
		<stop  offset="0.25" style="stop-color:#D5D7D3"/>
		<stop  offset="0.52" style="stop-color:#92968D"/>
		<stop  offset="0.69" style="stop-color:#81857D"/>
		<stop  offset="0.8" style="stop-color:#7A7D76"/>
		<stop  offset="0.92" style="stop-color:#73766F"/>
		<stop  offset="1" style="stop-color:#848880"/>
	</linearGradient>
	<path fill="url(#SVGID_17_)" d="M130.676,242.91h0.75v69h-0.75c-0.75,0-1.508-0.336-1.508-0.719l0.008-68.281
		c0,0,0.637-0.348,1.43-0.348L130.676,242.91z"/>
	
		<linearGradient id="SVGID_18_" gradientUnits="userSpaceOnUse" x1="-395.7485" y1="125.2969" x2="-488.2124" y2="125.2969" gradientTransform="matrix(0 -0.75 -0.75 0 225.584 -54.25)">
		<stop  offset="0" style="stop-color:#949990"/>
		<stop  offset="0.15" style="stop-color:#CDD2C7"/>
		<stop  offset="0.25" style="stop-color:#E3E6E1"/>
		<stop  offset="0.52" style="stop-color:#B0B5AA"/>
		<stop  offset="0.69" style="stop-color:#9CA197"/>
		<stop  offset="0.8" style="stop-color:#93988F"/>
		<stop  offset="0.92" style="stop-color:#8B8F86"/>
		<stop  offset="1" style="stop-color:#A0A59B"/>
	</linearGradient>
	<path fill="url(#SVGID_18_)" d="M131.168,242.91c1.5,0,1.664-0.031,1.664,0.352l-0.164,67.898c0,0.75-0.234,0.75-0.723,0.75
		c-1.527,0-1.555-0.336-1.555-0.719l0.027-68.281c0,0,0.367-0.348,0.855-0.348L131.168,242.91z"/>
	
		<linearGradient id="SVGID_19_" gradientUnits="userSpaceOnUse" x1="17.1094" y1="213.29" x2="17.1094" y2="149.2949" gradientTransform="matrix(0.75 0 0 -0.75 136.9336 413.2051)">
		<stop  offset="0" style="stop-color:#7E817B"/>
		<stop  offset="0.15" style="stop-color:#B2B5AE"/>
		<stop  offset="0.25" style="stop-color:#D6D8D5"/>
		<stop  offset="0.52" style="stop-color:#959992"/>
		<stop  offset="0.69" style="stop-color:#848881"/>
		<stop  offset="0.8" style="stop-color:#7D807A"/>
		<stop  offset="0.92" style="stop-color:#757873"/>
		<stop  offset="1" style="stop-color:#888B84"/>
	</linearGradient>
	<path fill="url(#SVGID_19_)" d="M149.395,253.238c1.5,0,1.898,0.711,1.898,1.582l0.352,44.918c0,0.75-1.055,1.496-1.918,1.496
		c-1.082,0.004-1.84-0.727-1.84-1.598l0.008-44.898c0-0.75,0.691-1.5,1.559-1.5H149.395z"/>
	
		<linearGradient id="SVGID_20_" gradientUnits="userSpaceOnUse" x1="-405.2144" y1="116.4839" x2="-488.2144" y2="116.4839" gradientTransform="matrix(0 -0.75 -0.75 0 227.6045 -57.7432)">
		<stop  offset="0" style="stop-color:#949990"/>
		<stop  offset="0.15" style="stop-color:#CDD2C7"/>
		<stop  offset="0.25" style="stop-color:#E3E6E1"/>
		<stop  offset="0.52" style="stop-color:#B0B5AA"/>
		<stop  offset="0.69" style="stop-color:#9CA197"/>
		<stop  offset="0.8" style="stop-color:#93988F"/>
		<stop  offset="0.92" style="stop-color:#8B8F86"/>
		<stop  offset="1" style="stop-color:#A0A59B"/>
	</linearGradient>
	<path fill="url(#SVGID_20_)" d="M132.441,246.168c0,0,8.914,1.988,15.445,8.574c0.305-0.324,0.063,44.914,0.063,44.914
		c-8.008,7.262-15.508,8.762-15.508,8.762V246.168z"/>
	
		<linearGradient id="SVGID_21_" gradientUnits="userSpaceOnUse" x1="86.1123" y1="213.29" x2="86.1123" y2="187.29" gradientTransform="matrix(0.75 0 0 -0.75 144.5059 427.5488)">
		<stop  offset="0" style="stop-color:#BDA47F"/>
		<stop  offset="0.15" style="stop-color:#FFE0B3"/>
		<stop  offset="0.25" style="stop-color:#FFEED7"/>
		<stop  offset="0.52" style="stop-color:#DFC297"/>
		<stop  offset="0.69" style="stop-color:#C7AD86"/>
		<stop  offset="0.8" style="stop-color:#BCA37E"/>
		<stop  offset="0.92" style="stop-color:#B19A77"/>
		<stop  offset="1" style="stop-color:#CBB189"/>
	</linearGradient>
	<path fill="url(#SVGID_21_)" d="M155.465,267.582h107.25v19.5h-107.25V267.582z"/>
	
		<linearGradient id="SVGID_22_" gradientUnits="userSpaceOnUse" x1="18.1157" y1="213.2832" x2="18.1157" y2="173.2832" gradientTransform="matrix(0.75 0 0 -0.75 145.1362 422.0684)">
		<stop  offset="0" style="stop-color:#C4AA84"/>
		<stop  offset="0.15" style="stop-color:#FFE0B3"/>
		<stop  offset="0.25" style="stop-color:#FFEED7"/>
		<stop  offset="0.44" style="stop-color:#DFC297"/>
		<stop  offset="0.6" style="stop-color:#C7AD86"/>
		<stop  offset="0.8" style="stop-color:#A89170"/>
		<stop  offset="0.97" style="stop-color:#998566"/>
		<stop  offset="1" style="stop-color:#CBB189"/>
	</linearGradient>
	<path fill="url(#SVGID_22_)" d="M156.098,262.105l5.25,6v18l-5.25,6V262.105z"/>
	
		<linearGradient id="SVGID_23_" gradientUnits="userSpaceOnUse" x1="55.6128" y1="173.6855" x2="14.6128" y2="173.6855" gradientTransform="matrix(0.75 0 0 -0.75 233.3135 397.7988)">
		<stop  offset="0" style="stop-color:#ADAFAC"/>
		<stop  offset="0.01" style="stop-color:#F6F9F5"/>
		<stop  offset="0.03" style="stop-color:#E1E4E0"/>
		<stop  offset="0.64" style="stop-color:#DDE0DC"/>
		<stop  offset="0.99" style="stop-color:#D8DBD7"/>
		<stop  offset="1" style="stop-color:#A0A2A0"/>
	</linearGradient>
	<path fill="url(#SVGID_23_)" d="M247.273,237.836h24.75c1.5,0,2.898,1.41,2.898,3.152l0.102,53.098c0,1.5-1.496,3.148-3.219,3.148
		l-24.531-0.148c-1.5,0-3-1.297-3-3.035v-53.215c0-1.5,1.395-3,3.117-3H247.273z"/>
	
		<linearGradient id="SVGID_24_" gradientUnits="userSpaceOnUse" x1="28.6147" y1="161.2861" x2="14.6147" y2="161.2861" gradientTransform="matrix(0.75 0 0 -0.75 267.1948 120.4004)">
		<stop  offset="0" style="stop-color:#C7C7C7"/>
		<stop  offset="0.15" style="stop-color:#FFFFFF"/>
		<stop  offset="0.25" style="stop-color:#FFFFFF"/>
		<stop  offset="0.52" style="stop-color:#DFDFDF"/>
		<stop  offset="0.69" style="stop-color:#C7C7C7"/>
		<stop  offset="0.8" style="stop-color:#BCBCBC"/>
		<stop  offset="0.92" style="stop-color:#B1B1B1"/>
	</linearGradient>
	<path fill="url(#SVGID_24_)" d="M278.156-39.563h10.5v78h-10.5V-39.563z"/>
	
		<linearGradient id="SVGID_25_" gradientUnits="userSpaceOnUse" x1="41.6133" y1="207.7842" x2="14.6133" y2="207.7842" gradientTransform="matrix(0.75 0 0 -0.75 262.1919 197.6309)">
		<stop  offset="0" style="stop-color:#B9B9B9"/>
		<stop  offset="0.15" style="stop-color:#F2F2F2"/>
		<stop  offset="0.25" style="stop-color:#F3F3F3"/>
		<stop  offset="0.52" style="stop-color:#D0D0D0"/>
		<stop  offset="0.69" style="stop-color:#B9B9B9"/>
		<stop  offset="0.8" style="stop-color:#AFAFAF"/>
		<stop  offset="0.92" style="stop-color:#A5A5A5"/>
	</linearGradient>
	<path fill="url(#SVGID_25_)" d="M276.152,37.668h14.25c1.5,0,2.852,1.41,2.852,3.152l0.148,1.348c0,2.25-1.543,3.484-3.266,3.484
		l-13.984,0.266c-1.5,0-3-1.676-3-3.418v-1.832c0-1.5,1.395-3,3.117-3H276.152z"/>
</g>
</svg>
