<?xml version="1.0" encoding="utf-8"?>
<!-- Generator: Adobe Illustrator 16.0.0, SVG Export Plug-In . SVG Version: 6.00 Build 0)  -->
<!DOCTYPE svg PUBLIC "-//W3C//DTD SVG 1.1//EN" "http://www.w3.org/Graphics/SVG/1.1/DTD/svg11.dtd">
<svg preserveAspectRatio="none" version="1.1" id="图层_1" xmlns="http://www.w3.org/2000/svg" xmlns:xlink="http://www.w3.org/1999/xlink" x="0px" y="0px"
	 width="76.574px" height="129.387px" viewBox="29.98 23.121 76.574 129.387" enable-background="new 29.98 23.121 76.574 129.387"
	 xml:space="preserve">
<g id="surface1146">
	
		<linearGradient id="SVGID_1_" gradientUnits="userSpaceOnUse" x1="61.6128" y1="78.6626" x2="58.6128" y2="78.6626" gradientTransform="matrix(0.75 0 0 -0.75 -13.979 89.2422)">
		<stop  offset="0" style="stop-color:#B9B9B9"/>
		<stop  offset="0.15" style="stop-color:#F2F2F2"/>
		<stop  offset="0.25" style="stop-color:#F3F3F3"/>
		<stop  offset="0.52" style="stop-color:#D0D0D0"/>
		<stop  offset="0.69" style="stop-color:#B9B9B9"/>
		<stop  offset="0.8" style="stop-color:#AFAFAF"/>
		<stop  offset="0.92" style="stop-color:#A5A5A5"/>
	</linearGradient>
	<path fill="url(#SVGID_1_)" d="M30.73,23.121c0.75,0,1.469,0.367,1.469,0.836l0.031,13.414h-2.25v-13.5
		c0-0.75,0.387-0.75,0.879-0.75H30.73z"/>
	
		<linearGradient id="SVGID_2_" gradientUnits="userSpaceOnUse" x1="61.6133" y1="78.6626" x2="58.6133" y2="78.6626" gradientTransform="matrix(0.75 0 0 -0.75 -1.5972 89.2422)">
		<stop  offset="0" style="stop-color:#B9B9B9"/>
		<stop  offset="0.15" style="stop-color:#F2F2F2"/>
		<stop  offset="0.25" style="stop-color:#F3F3F3"/>
		<stop  offset="0.52" style="stop-color:#D0D0D0"/>
		<stop  offset="0.69" style="stop-color:#B9B9B9"/>
		<stop  offset="0.8" style="stop-color:#AFAFAF"/>
		<stop  offset="0.92" style="stop-color:#A5A5A5"/>
	</linearGradient>
	<path fill="url(#SVGID_2_)" d="M43.113,23.121c0.75,0,1.469,0.367,1.469,0.836l0.031,13.414h-2.25v-13.5
		c0-0.75,0.387-0.75,0.879-0.75H43.113z"/>
	
		<linearGradient id="SVGID_3_" gradientUnits="userSpaceOnUse" x1="61.6147" y1="78.6626" x2="58.6147" y2="78.6626" gradientTransform="matrix(0.75 0 0 -0.75 10.7847 89.2422)">
		<stop  offset="0" style="stop-color:#B9B9B9"/>
		<stop  offset="0.15" style="stop-color:#F2F2F2"/>
		<stop  offset="0.25" style="stop-color:#F3F3F3"/>
		<stop  offset="0.52" style="stop-color:#D0D0D0"/>
		<stop  offset="0.69" style="stop-color:#B9B9B9"/>
		<stop  offset="0.8" style="stop-color:#AFAFAF"/>
		<stop  offset="0.92" style="stop-color:#A5A5A5"/>
	</linearGradient>
	<path fill="url(#SVGID_3_)" d="M55.496,23.121c0.75,0,1.469,0.367,1.469,0.836l0.031,13.414h-2.25v-13.5
		c0-0.75,0.387-0.75,0.879-0.75H55.496z"/>
	
		<linearGradient id="SVGID_4_" gradientUnits="userSpaceOnUse" x1="61.6138" y1="78.6626" x2="58.6138" y2="78.6626" gradientTransform="matrix(0.75 0 0 -0.75 23.1787 89.2422)">
		<stop  offset="0" style="stop-color:#B9B9B9"/>
		<stop  offset="0.15" style="stop-color:#F2F2F2"/>
		<stop  offset="0.25" style="stop-color:#F3F3F3"/>
		<stop  offset="0.52" style="stop-color:#D0D0D0"/>
		<stop  offset="0.69" style="stop-color:#B9B9B9"/>
		<stop  offset="0.8" style="stop-color:#AFAFAF"/>
		<stop  offset="0.92" style="stop-color:#A5A5A5"/>
	</linearGradient>
	<path fill="url(#SVGID_4_)" d="M67.887,23.121c0.75,0,1.473,0.367,1.473,0.836l0.027,13.414h-2.25v-13.5
		c0-0.75,0.391-0.75,0.883-0.75H67.887z"/>
	
		<linearGradient id="SVGID_5_" gradientUnits="userSpaceOnUse" x1="61.6138" y1="78.6626" x2="58.6138" y2="78.6626" gradientTransform="matrix(0.75 0 0 -0.75 34.9731 89.2422)">
		<stop  offset="0" style="stop-color:#B9B9B9"/>
		<stop  offset="0.15" style="stop-color:#F2F2F2"/>
		<stop  offset="0.25" style="stop-color:#F3F3F3"/>
		<stop  offset="0.52" style="stop-color:#D0D0D0"/>
		<stop  offset="0.69" style="stop-color:#B9B9B9"/>
		<stop  offset="0.8" style="stop-color:#AFAFAF"/>
		<stop  offset="0.92" style="stop-color:#A5A5A5"/>
	</linearGradient>
	<path fill="url(#SVGID_5_)" d="M79.684,23.121c0.75,0,1.469,0.367,1.469,0.836l0.031,13.414h-2.25v-13.5
		c0-0.75,0.387-0.75,0.879-0.75H79.684z"/>
	
		<linearGradient id="SVGID_6_" gradientUnits="userSpaceOnUse" x1="61.6133" y1="78.6626" x2="58.6133" y2="78.6626" gradientTransform="matrix(0.75 0 0 -0.75 47.9307 89.2422)">
		<stop  offset="0" style="stop-color:#B9B9B9"/>
		<stop  offset="0.15" style="stop-color:#F2F2F2"/>
		<stop  offset="0.25" style="stop-color:#F3F3F3"/>
		<stop  offset="0.52" style="stop-color:#D0D0D0"/>
		<stop  offset="0.69" style="stop-color:#B9B9B9"/>
		<stop  offset="0.8" style="stop-color:#AFAFAF"/>
		<stop  offset="0.92" style="stop-color:#A5A5A5"/>
	</linearGradient>
	<path fill="url(#SVGID_6_)" d="M92.641,23.121c0.75,0,1.469,0.367,1.469,0.836l0.031,13.414h-2.25v-13.5
		c0-0.75,0.387-0.75,0.879-0.75H92.641z"/>
	
		<linearGradient id="SVGID_7_" gradientUnits="userSpaceOnUse" x1="61.6138" y1="78.6626" x2="58.6138" y2="78.6626" gradientTransform="matrix(0.75 0 0 -0.75 60.3125 89.2422)">
		<stop  offset="0" style="stop-color:#B9B9B9"/>
		<stop  offset="0.15" style="stop-color:#F2F2F2"/>
		<stop  offset="0.25" style="stop-color:#F3F3F3"/>
		<stop  offset="0.52" style="stop-color:#D0D0D0"/>
		<stop  offset="0.69" style="stop-color:#B9B9B9"/>
		<stop  offset="0.8" style="stop-color:#AFAFAF"/>
		<stop  offset="0.92" style="stop-color:#A5A5A5"/>
	</linearGradient>
	<path fill="url(#SVGID_7_)" d="M105.023,23.121c0.75,0,1.469,0.367,1.469,0.836l0.031,13.414h-2.25v-13.5
		c0-0.75,0.387-0.75,0.879-0.75H105.023z"/>
	
		<linearGradient id="SVGID_8_" gradientUnits="userSpaceOnUse" x1="131.6143" y1="31.6646" x2="58.6138" y2="31.6645" gradientTransform="matrix(0.75 0 0 -0.75 -2.9492 133.8809)">
		<stop  offset="0" style="stop-color:#C2B39F"/>
		<stop  offset="0.15" style="stop-color:#FDEAD3"/>
		<stop  offset="0.25" style="stop-color:#FEF3E7"/>
		<stop  offset="0.52" style="stop-color:#DECCB6"/>
		<stop  offset="0.69" style="stop-color:#C5B5A2"/>
		<stop  offset="0.8" style="stop-color:#BAAB98"/>
		<stop  offset="0.97" style="stop-color:#B0A190"/>
		<stop  offset="1" style="stop-color:#CABAA5"/>
	</linearGradient>
	<path fill="url(#SVGID_8_)" d="M95.762,67.758v83.25c0,0.75-0.684,1.344-1.195,1.344l-52.805,0.156c0,0-0.75-0.641-0.75-1.207
		V67.758H95.762z"/>
	
		<linearGradient id="SVGID_9_" gradientUnits="userSpaceOnUse" x1="131.6143" y1="86.6606" x2="58.6138" y2="86.6606" gradientTransform="matrix(0.75 0 0 -0.75 -2.9492 134.4639)">
		<stop  offset="0" style="stop-color:#B39D73"/>
		<stop  offset="0.15" style="stop-color:#EBD0A1"/>
		<stop  offset="0.25" style="stop-color:#F4E5CF"/>
		<stop  offset="0.52" style="stop-color:#CDB384"/>
		<stop  offset="0.69" style="stop-color:#B69F75"/>
		<stop  offset="0.8" style="stop-color:#AC966E"/>
		<stop  offset="0.97" style="stop-color:#A28E68"/>
		<stop  offset="1" style="stop-color:#BAA378"/>
	</linearGradient>
	<path fill="url(#SVGID_9_)" d="M95.762,68.344v2.25c0,0-0.684-0.301-1.195-0.301l-52.805,0.301c0,0-0.75-0.313-0.75-0.324v-1.926
		H95.762z"/>
	
		<linearGradient id="SVGID_10_" gradientUnits="userSpaceOnUse" x1="160.6133" y1="67.1646" x2="58.6133" y2="67.1645" gradientTransform="matrix(0.75 0 0 -0.75 -13.9058 103.4121)">
		<stop  offset="0" style="stop-color:#C2B39F"/>
		<stop  offset="0.15" style="stop-color:#FDEAD3"/>
		<stop  offset="0.25" style="stop-color:#FEF3E7"/>
		<stop  offset="0.52" style="stop-color:#DECCB6"/>
		<stop  offset="0.69" style="stop-color:#C5B5A2"/>
		<stop  offset="0.8" style="stop-color:#BAAB98"/>
		<stop  offset="0.97" style="stop-color:#B0A190"/>
		<stop  offset="1" style="stop-color:#CABAA5"/>
	</linearGradient>
	<path fill="url(#SVGID_10_)" d="M30.805,37.289h75c0,0,0.641,0.406,0.641,0.922l0.109,29.828c0,0-0.547,0.742-1.055,0.742
		l-74.695,0.008c0,0-0.75-0.438-0.75-0.953V38.039c0,0,0.398-0.75,0.91-0.75H30.805z"/>
	
		<linearGradient id="SVGID_11_" gradientUnits="userSpaceOnUse" x1="160.6123" y1="87.1587" x2="58.6123" y2="87.1587" gradientTransform="matrix(0.75 0 0 -0.75 -13.96 92.373)">
		<stop  offset="0" style="stop-color:#B9B9B9"/>
		<stop  offset="0.15" style="stop-color:#F2F2F2"/>
		<stop  offset="0.25" style="stop-color:#F3F3F3"/>
		<stop  offset="0.52" style="stop-color:#D0D0D0"/>
		<stop  offset="0.69" style="stop-color:#B9B9B9"/>
		<stop  offset="0.8" style="stop-color:#AFAFAF"/>
		<stop  offset="0.92" style="stop-color:#A5A5A5"/>
	</linearGradient>
	<path fill="url(#SVGID_11_)" d="M30,26.254h76.5v1.5H30V26.254z"/>
	
		<linearGradient id="SVGID_12_" gradientUnits="userSpaceOnUse" x1="160.6123" y1="87.1655" x2="58.6123" y2="87.1655" gradientTransform="matrix(0.75 0 0 -0.75 -13.96 98.8848)">
		<stop  offset="0" style="stop-color:#B9B9B9"/>
		<stop  offset="0.15" style="stop-color:#F2F2F2"/>
		<stop  offset="0.25" style="stop-color:#F3F3F3"/>
		<stop  offset="0.52" style="stop-color:#D0D0D0"/>
		<stop  offset="0.69" style="stop-color:#B9B9B9"/>
		<stop  offset="0.8" style="stop-color:#AFAFAF"/>
		<stop  offset="0.92" style="stop-color:#A5A5A5"/>
	</linearGradient>
	<path fill="url(#SVGID_12_)" d="M30,32.762h76.5v1.5H30V32.762z"/>
</g>
</svg>
