<?xml version="1.0" encoding="utf-8"?>
<!-- Generator: Adobe Illustrator 16.0.0, SVG Export Plug-In . SVG Version: 6.00 Build 0)  -->
<!DOCTYPE svg PUBLIC "-//W3C//DTD SVG 1.1//EN" "http://www.w3.org/Graphics/SVG/1.1/DTD/svg11.dtd">
<svg preserveAspectRatio="none" version="1.1" id="图层_1" xmlns="http://www.w3.org/2000/svg" xmlns:xlink="http://www.w3.org/1999/xlink" x="0px" y="0px"
	 width="341.5px" height="89.5px" viewBox="29.5 96.93 341.5 89.5" enable-background="new 29.5 96.93 341.5 89.5"
	 xml:space="preserve">
<g id="surface741">
	<path fill="#FFDEAD" stroke="#FED372" stroke-linejoin="bevel" stroke-miterlimit="10" d="M113.57,97.43h173.25v88.5H113.57V97.43z
		"/>
	<path fill="#FFDEAD" stroke="#FED372" stroke-linejoin="bevel" stroke-miterlimit="10" d="M53.25,116.93l60-19.5v88.5l-60-20.25H30
		v-48.75H53.25z"/>
	<path fill="#FFDEAD" stroke="#FED372" stroke-linejoin="bevel" stroke-miterlimit="10" d="M347.25,116.93l-60-19.5v88.5l60-20.25
		h23.25v-48.75H347.25z"/>
	<path fill="#CFEBF6" stroke="#A0D8EF" stroke-linejoin="bevel" stroke-miterlimit="10" d="M113.57,102.598h173.25v78H113.57
		V102.598z"/>
	<path fill="#FFDEAD" stroke="#FED372" stroke-linejoin="bevel" stroke-miterlimit="10" d="M113.57,97.43h3.75v88.5h-3.75V97.43z"/>
	<path fill="#FFDEAD" stroke="#FED372" stroke-linejoin="bevel" stroke-miterlimit="10" d="M283.164,97.43h3.75v88.5h-3.75V97.43z"
		/>
	<path fill="#FFDEAD" stroke="#FED372" stroke-linejoin="bevel" stroke-miterlimit="10" d="M155.969,97.43h3.75v88.5h-3.75V97.43z"
		/>
	<path fill="#FFDEAD" stroke="#FED372" stroke-linejoin="bevel" stroke-miterlimit="10" d="M198.367,97.43h3.75v88.5h-3.75V97.43z"
		/>
	<path fill="#FFDEAD" stroke="#FED372" stroke-linejoin="bevel" stroke-miterlimit="10" d="M240.766,97.43h3.75v88.5h-3.75V97.43z"
		/>
	<path fill="#CFEBF6" stroke="#A0D8EF" stroke-linejoin="bevel" stroke-miterlimit="10" d="M52.879,121.266l60.75-18.75v78
		l-60.75-18.75h-18.75v-40.5H52.879z"/>
	<path fill="#FFDEAD" stroke="#FED372" stroke-linejoin="bevel" stroke-miterlimit="10" d="M50.777,121.473h2.25v39.75h-2.25
		V121.473z"/>
	<path fill="#CFEBF6" stroke="#A0D8EF" stroke-linejoin="bevel" stroke-miterlimit="10" d="M347.621,121.266l-60.75-18.75v78
		l60.75-18.75h18.75v-40.5H347.621z"/>
	<path fill="#FFDEAD" stroke="#FED372" stroke-linejoin="bevel" stroke-miterlimit="10" d="M349.723,121.473h-2.25v39.75h2.25
		V121.473z"/>
	<path fill="#FFDEAD" stroke="#FED372" stroke-linejoin="bevel" stroke-miterlimit="10" d="M113.465,139.371h173.25v4.5h-173.25
		V139.371z"/>
	
		<linearGradient id="SVGID_1_" gradientUnits="userSpaceOnUse" x1="51.8755" y1="194.4355" x2="14.6147" y2="194.4355" gradientTransform="matrix(0.75 0 0 -0.75 153.8237 308.3398)">
		<stop  offset="0" style="stop-color:#C7C7C7"/>
		<stop  offset="0.15" style="stop-color:#FFFFFF"/>
		<stop  offset="0.25" style="stop-color:#FFFFFF"/>
		<stop  offset="0.52" style="stop-color:#DFDFDF"/>
		<stop  offset="0.69" style="stop-color:#C7C7C7"/>
		<stop  offset="0.8" style="stop-color:#BCBCBC"/>
		<stop  offset="0.92" style="stop-color:#B1B1B1"/>
	</linearGradient>
	<path fill="url(#SVGID_1_)" d="M164.785,162.625c0-8.25,6.246-14.25,13.973-14.25c7.777,0,13.973,6.305,13.973,14.137
		c-0.195,7.613-6.258,14.137-13.973,14.137c-7.973,0.227-13.973-6.344-13.973-14.137V162.625z"/>
	
		<linearGradient id="SVGID_2_" gradientUnits="userSpaceOnUse" x1="44.2651" y1="198.2793" x2="14.5801" y2="198.2793" gradientTransform="matrix(0.75 0 0 -0.75 156.6704 311.2197)">
		<stop  offset="0" style="stop-color:#9FA0A0"/>
		<stop  offset="0.15" style="stop-color:#DADBDB"/>
		<stop  offset="0.25" style="stop-color:#DDDEDE"/>
		<stop  offset="0.52" style="stop-color:#B3B4B4"/>
		<stop  offset="0.69" style="stop-color:#9FA0A0"/>
		<stop  offset="0.8" style="stop-color:#969797"/>
		<stop  offset="0.92" style="stop-color:#8E8E8E"/>
	</linearGradient>
	<path fill="url(#SVGID_2_)" d="M167.629,162.504c0-6,4.957-11.25,11.102-11.25c6.148,0,11.129,5.039,11.129,11.258
		c0.27,5.992-4.98,11.258-11.129,11.258c-5.852-0.016-11.125-5.039-11.125-11.258L167.629,162.504z"/>
	<path fill="#565656" d="M169.121,162.512c0-5.25,4.297-9.75,9.637-9.75c5.363,0,9.637,4.348,9.637,9.75
		c0.227,5.25-4.332,9.75-9.637,9.75C173.621,172.262,169.121,167.879,169.121,162.512z"/>
	
		<linearGradient id="SVGID_3_" gradientUnits="userSpaceOnUse" x1="51.8765" y1="194.4355" x2="14.6108" y2="194.4355" gradientTransform="matrix(0.75 0 0 -0.75 196.4634 308.3398)">
		<stop  offset="0" style="stop-color:#C7C7C7"/>
		<stop  offset="0.15" style="stop-color:#FFFFFF"/>
		<stop  offset="0.25" style="stop-color:#FFFFFF"/>
		<stop  offset="0.52" style="stop-color:#DFDFDF"/>
		<stop  offset="0.69" style="stop-color:#C7C7C7"/>
		<stop  offset="0.8" style="stop-color:#BCBCBC"/>
		<stop  offset="0.92" style="stop-color:#B1B1B1"/>
	</linearGradient>
	<path fill="url(#SVGID_3_)" d="M207.422,162.625c0-8.25,6.246-14.25,13.977-14.25c7.773,0,13.973,6.305,13.973,14.137
		c-0.199,7.613-6.262,14.137-13.973,14.137c-7.977,0.227-13.977-6.344-13.977-14.137V162.625z"/>
	
		<linearGradient id="SVGID_4_" gradientUnits="userSpaceOnUse" x1="44.2666" y1="198.2793" x2="14.5815" y2="198.2793" gradientTransform="matrix(0.75 0 0 -0.75 199.3096 311.2197)">
		<stop  offset="0" style="stop-color:#9FA0A0"/>
		<stop  offset="0.15" style="stop-color:#DADBDB"/>
		<stop  offset="0.25" style="stop-color:#DDDEDE"/>
		<stop  offset="0.52" style="stop-color:#B3B4B4"/>
		<stop  offset="0.69" style="stop-color:#9FA0A0"/>
		<stop  offset="0.8" style="stop-color:#969797"/>
		<stop  offset="0.92" style="stop-color:#8E8E8E"/>
	</linearGradient>
	<path fill="url(#SVGID_4_)" d="M210.27,162.504c0-6,4.957-11.25,11.102-11.25c6.148,0,11.129,5.039,11.129,11.258
		c0.27,5.992-4.984,11.258-11.129,11.258c-5.852-0.016-11.125-5.039-11.125-11.258L210.27,162.504z"/>
	<path fill="#565656" d="M211.762,162.512c0-5.25,4.297-9.75,9.637-9.75c5.363,0,9.633,4.348,9.633,9.75
		c0.23,5.25-4.332,9.75-9.633,9.75C216.262,172.262,211.762,167.879,211.762,162.512z"/>
</g>
</svg>
