<?xml version="1.0" encoding="utf-8"?>
<!-- Generator: Adobe Illustrator 16.0.0, SVG Export Plug-In . SVG Version: 6.00 Build 0)  -->
<!DOCTYPE svg PUBLIC "-//W3C//DTD SVG 1.1//EN" "http://www.w3.org/Graphics/SVG/1.1/DTD/svg11.dtd">
<svg preserveAspectRatio="none" version="1.1" id="图层_1" xmlns="http://www.w3.org/2000/svg" xmlns:xlink="http://www.w3.org/1999/xlink" x="0px" y="0px"
	 width="340.5px" height="250.008px" viewBox="30 16.457 340.5 250.008" enable-background="new 30 16.457 340.5 250.008"
	 xml:space="preserve">
<g id="surface836">
	
		<linearGradient id="SVGID_1_" gradientUnits="userSpaceOnUse" x1="21.6118" y1="213.2871" x2="21.6118" y2="118.2871" gradientTransform="matrix(0.75 0 0 -0.75 194.6978 341.0898)">
		<stop  offset="0" style="stop-color:#6490AE"/>
		<stop  offset="0.15" style="stop-color:#94C7EC"/>
		<stop  offset="0.25" style="stop-color:#CAE1F4"/>
		<stop  offset="0.52" style="stop-color:#77AACE"/>
		<stop  offset="0.69" style="stop-color:#6997B7"/>
		<stop  offset="0.8" style="stop-color:#638FAD"/>
		<stop  offset="0.92" style="stop-color:#5D86A3"/>
		<stop  offset="1" style="stop-color:#6C9BBB"/>
	</linearGradient>
	<path fill="url(#SVGID_1_)" d="M216.156,252.375h-10.5v-71.25h10.5V252.375z"/>
	
		<linearGradient id="SVGID_2_" gradientUnits="userSpaceOnUse" x1="81.8296" y1="196.7334" x2="14.6108" y2="196.7334" gradientTransform="matrix(0.75 0 0 -0.75 236.9126 190.0566)">
		<stop  offset="0" style="stop-color:#5F89A6"/>
		<stop  offset="0.03" style="stop-color:#AAD1EF"/>
		<stop  offset="0.08" style="stop-color:#7EB3D8"/>
		<stop  offset="0.64" style="stop-color:#7CB0D5"/>
		<stop  offset="0.95" style="stop-color:#79ACD0"/>
		<stop  offset="1" style="stop-color:#587F9A"/>
	</linearGradient>
	<path fill="url(#SVGID_2_)" d="M248.621,30.094h48.75c0.75,0,0.914,0.453,0.914,1.027l-0.164,22.973c0,0-0.309,0.828-0.879,0.828
		l-48.621-0.078c0,0-0.75-0.391-0.75-0.965V30.844c0,0,0.465-0.75,1.035-0.75H248.621z"/>
	
		<linearGradient id="SVGID_3_" gradientUnits="userSpaceOnUse" x1="177.6118" y1="81.7847" x2="14.6118" y2="81.7847" gradientTransform="matrix(0.75 0 0 -0.75 203.5991 214.6035)">
		<stop  offset="0" style="stop-color:#6490AE"/>
		<stop  offset="0.15" style="stop-color:#94C7EC"/>
		<stop  offset="0.25" style="stop-color:#CAE1F4"/>
		<stop  offset="0.52" style="stop-color:#77AACE"/>
		<stop  offset="0.69" style="stop-color:#6997B7"/>
		<stop  offset="0.8" style="stop-color:#638FAD"/>
		<stop  offset="0.92" style="stop-color:#5D86A3"/>
		<stop  offset="1" style="stop-color:#6C9BBB"/>
	</linearGradient>
	<path fill="url(#SVGID_3_)" d="M214.559,54.641h122.25v197.25h-122.25V54.641z"/>
	
		<linearGradient id="SVGID_4_" gradientUnits="userSpaceOnUse" x1="177.6118" y1="209.7881" x2="14.6118" y2="209.7881" gradientTransform="matrix(0.75 0 0 -0.75 203.5991 214.6025)">
		<stop  offset="0" style="stop-color:#006697"/>
		<stop  offset="0.15" style="stop-color:#4596D0"/>
		<stop  offset="0.25" style="stop-color:#B3CBE5"/>
		<stop  offset="0.52" style="stop-color:#007AB2"/>
		<stop  offset="0.69" style="stop-color:#006C9E"/>
		<stop  offset="0.8" style="stop-color:#006595"/>
		<stop  offset="0.92" style="stop-color:#005F8D"/>
		<stop  offset="1" style="stop-color:#006EA2"/>
	</linearGradient>
	<path fill="url(#SVGID_4_)" d="M214.559,54.637h122.25v5.25h-122.25V54.637z"/>
	
		<linearGradient id="SVGID_5_" gradientUnits="userSpaceOnUse" x1="177.6118" y1="209.7891" x2="14.6118" y2="209.789" gradientTransform="matrix(0.75 0 0 -0.75 203.5991 406.665)">
		<stop  offset="0" style="stop-color:#006697"/>
		<stop  offset="0.15" style="stop-color:#4596D0"/>
		<stop  offset="0.25" style="stop-color:#B3CBE5"/>
		<stop  offset="0.52" style="stop-color:#007AB2"/>
		<stop  offset="0.69" style="stop-color:#006C9E"/>
		<stop  offset="0.8" style="stop-color:#006595"/>
		<stop  offset="0.92" style="stop-color:#005F8D"/>
		<stop  offset="1" style="stop-color:#006EA2"/>
	</linearGradient>
	<path fill="url(#SVGID_5_)" d="M214.559,246.699h122.25v5.25h-122.25V246.699z"/>
	
		<linearGradient id="SVGID_6_" gradientUnits="userSpaceOnUse" x1="25.6108" y1="196.291" x2="14.6108" y2="196.291" gradientTransform="matrix(0.75 0 0 -0.75 293.5845 189.1309)">
		<stop  offset="0" style="stop-color:#6490AE"/>
		<stop  offset="0.15" style="stop-color:#94C7EC"/>
		<stop  offset="0.25" style="stop-color:#CAE1F4"/>
		<stop  offset="0.52" style="stop-color:#77AACE"/>
		<stop  offset="0.69" style="stop-color:#6997B7"/>
		<stop  offset="0.8" style="stop-color:#638FAD"/>
		<stop  offset="0.92" style="stop-color:#5D86A3"/>
		<stop  offset="1" style="stop-color:#6C9BBB"/>
	</linearGradient>
	<path fill="url(#SVGID_6_)" d="M304.543,54.664h8.25v-25.5h-8.25V54.664z"/>
	
		<linearGradient id="SVGID_7_" gradientUnits="userSpaceOnUse" x1="28.6147" y1="208.7871" x2="14.6147" y2="208.7871" gradientTransform="matrix(0.75 0 0 -0.75 219.4526 208.0664)">
		<stop  offset="0" style="stop-color:#006697"/>
		<stop  offset="0.15" style="stop-color:#4596D0"/>
		<stop  offset="0.25" style="stop-color:#B3CBE5"/>
		<stop  offset="0.52" style="stop-color:#007AB2"/>
		<stop  offset="0.69" style="stop-color:#006C9E"/>
		<stop  offset="0.8" style="stop-color:#006595"/>
		<stop  offset="0.92" style="stop-color:#005F8D"/>
		<stop  offset="1" style="stop-color:#006EA2"/>
	</linearGradient>
	<path fill="url(#SVGID_7_)" d="M230.414,48.102h10.5v6.75h-10.5V48.102z"/>
	
		<linearGradient id="SVGID_8_" gradientUnits="userSpaceOnUse" x1="30.6128" y1="205.7861" x2="14.6128" y2="205.7861" gradientTransform="matrix(0.75 0 0 -0.75 218.5596 190.3311)">
		<stop  offset="0" style="stop-color:#BDBDBD"/>
		<stop  offset="0.15" style="stop-color:#FFFFFF"/>
		<stop  offset="0.25" style="stop-color:#FFFFFF"/>
		<stop  offset="0.52" style="stop-color:#DFDFDF"/>
		<stop  offset="0.69" style="stop-color:#C7C7C7"/>
		<stop  offset="0.8" style="stop-color:#BCBCBC"/>
		<stop  offset="0.92" style="stop-color:#B1B1B1"/>
		<stop  offset="1" style="stop-color:#CBCBCB"/>
	</linearGradient>
	<path fill="url(#SVGID_8_)" d="M229.52,30.367h12v11.25h-12V30.367z"/>
	
		<linearGradient id="SVGID_9_" gradientUnits="userSpaceOnUse" x1="21.6118" y1="205.79" x2="14.6118" y2="205.79" gradientTransform="matrix(0.75 0 0 -0.75 221.9082 179.0605)">
		<stop  offset="0" style="stop-color:#BDBDBD"/>
		<stop  offset="0.15" style="stop-color:#FFFFFF"/>
		<stop  offset="0.25" style="stop-color:#FFFFFF"/>
		<stop  offset="0.52" style="stop-color:#DFDFDF"/>
		<stop  offset="0.69" style="stop-color:#C7C7C7"/>
		<stop  offset="0.8" style="stop-color:#BCBCBC"/>
		<stop  offset="0.92" style="stop-color:#B1B1B1"/>
		<stop  offset="1" style="stop-color:#CBCBCB"/>
	</linearGradient>
	<path fill="url(#SVGID_9_)" d="M232.867,19.094h5.25v11.25h-5.25V19.094z"/>
	
		<linearGradient id="SVGID_10_" gradientUnits="userSpaceOnUse" x1="33.6152" y1="208.7861" x2="14.6152" y2="208.7861" gradientTransform="matrix(0.75 0 0 -0.75 217.3311 201.6699)">
		<stop  offset="0" style="stop-color:#BDBDBD"/>
		<stop  offset="0.15" style="stop-color:#FFFFFF"/>
		<stop  offset="0.25" style="stop-color:#FFFFFF"/>
		<stop  offset="0.52" style="stop-color:#DFDFDF"/>
		<stop  offset="0.69" style="stop-color:#C7C7C7"/>
		<stop  offset="0.8" style="stop-color:#BCBCBC"/>
		<stop  offset="0.92" style="stop-color:#B1B1B1"/>
		<stop  offset="1" style="stop-color:#CBCBCB"/>
	</linearGradient>
	<path fill="url(#SVGID_10_)" d="M228.293,41.707h14.25v6.75h-14.25V41.707z"/>
	
		<linearGradient id="SVGID_11_" gradientUnits="userSpaceOnUse" x1="33.6113" y1="209.7861" x2="14.6113" y2="209.7861" gradientTransform="matrix(0.75 0 0 -0.75 329.1426 334.3037)">
		<stop  offset="0" style="stop-color:#6490AE"/>
		<stop  offset="0.15" style="stop-color:#94C7EC"/>
		<stop  offset="0.25" style="stop-color:#CAE1F4"/>
		<stop  offset="0.52" style="stop-color:#77AACE"/>
		<stop  offset="0.69" style="stop-color:#6997B7"/>
		<stop  offset="0.8" style="stop-color:#638FAD"/>
		<stop  offset="0.92" style="stop-color:#5D86A3"/>
		<stop  offset="1" style="stop-color:#6C9BBB"/>
	</linearGradient>
	<path fill="url(#SVGID_11_)" d="M340.102,179.59h14.25v-5.25h-14.25V179.59z"/>
	
		<linearGradient id="SVGID_12_" gradientUnits="userSpaceOnUse" x1="46.6138" y1="190.3145" x2="14.6138" y2="190.3145" gradientTransform="matrix(0.75 0 0 -0.75 324.2891 300.6123)">
		<stop  offset="0" style="stop-color:#6490AE"/>
		<stop  offset="0.15" style="stop-color:#94C7EC"/>
		<stop  offset="0.25" style="stop-color:#CAE1F4"/>
		<stop  offset="0.52" style="stop-color:#77AACE"/>
		<stop  offset="0.69" style="stop-color:#6997B7"/>
		<stop  offset="0.8" style="stop-color:#638FAD"/>
		<stop  offset="0.92" style="stop-color:#5D86A3"/>
	</linearGradient>
	<path fill="url(#SVGID_12_)" d="M340.5,140.648h12.75c3,0,5.707,2.469,5.707,5.57l0.293,22.93c0,3.75-2.781,5.898-5.855,5.898
		l-12.895,0.102c-3,0-5.25-2.617-5.25-5.719v-23.531c0-3,2.465-5.293,5.539-5.293L340.5,140.648z"/>
	
		<linearGradient id="SVGID_13_" gradientUnits="userSpaceOnUse" x1="42.6123" y1="164.7881" x2="14.6123" y2="164.7881" gradientTransform="matrix(0.75 0 0 -0.75 325.4819 339.3086)">
		<stop  offset="0" style="stop-color:#6490AE"/>
		<stop  offset="0.15" style="stop-color:#94C7EC"/>
		<stop  offset="0.25" style="stop-color:#CAE1F4"/>
		<stop  offset="0.52" style="stop-color:#77AACE"/>
		<stop  offset="0.69" style="stop-color:#6997B7"/>
		<stop  offset="0.8" style="stop-color:#638FAD"/>
		<stop  offset="0.92" style="stop-color:#5D86A3"/>
	</linearGradient>
	<path fill="url(#SVGID_13_)" d="M336.441,179.344h21v72.75h-21V179.344z"/>
	
		<linearGradient id="SVGID_14_" gradientUnits="userSpaceOnUse" x1="25.6128" y1="140.2866" x2="14.6128" y2="140.2866" gradientTransform="matrix(0.75 0 0 -0.75 330.9541 191.3662)">
		<stop  offset="0" style="stop-color:#6490AE"/>
		<stop  offset="0.15" style="stop-color:#94C7EC"/>
		<stop  offset="0.25" style="stop-color:#CAE1F4"/>
		<stop  offset="0.52" style="stop-color:#77AACE"/>
		<stop  offset="0.69" style="stop-color:#6997B7"/>
		<stop  offset="0.8" style="stop-color:#638FAD"/>
		<stop  offset="0.92" style="stop-color:#5D86A3"/>
		<stop  offset="1" style="stop-color:#6C9BBB"/>
	</linearGradient>
	<path fill="url(#SVGID_14_)" d="M341.914,140.902h8.25v-109.5h-8.25V140.902z"/>
	
		<linearGradient id="SVGID_15_" gradientUnits="userSpaceOnUse" x1="-477.2163" y1="111.3872" x2="-488.2163" y2="111.3872" gradientTransform="matrix(0 -0.75 -0.75 0 410.8184 -337.916)">
		<stop  offset="0" style="stop-color:#6490AE"/>
		<stop  offset="0.15" style="stop-color:#94C7EC"/>
		<stop  offset="0.25" style="stop-color:#CAE1F4"/>
		<stop  offset="0.52" style="stop-color:#77AACE"/>
		<stop  offset="0.69" style="stop-color:#6997B7"/>
		<stop  offset="0.8" style="stop-color:#638FAD"/>
		<stop  offset="0.92" style="stop-color:#5D86A3"/>
		<stop  offset="1" style="stop-color:#6C9BBB"/>
	</linearGradient>
	<path fill="url(#SVGID_15_)" d="M338.902,28.246v-8.25h-23.25v8.25H338.902z"/>
	
		<linearGradient id="SVGID_16_" gradientUnits="userSpaceOnUse" x1="-576.4595" y1="199.4805" x2="-557.6299" y2="210.3517" gradientTransform="matrix(-0.75 0 0 -0.75 -114.9697 179.9883)">
		<stop  offset="0" style="stop-color:#6895B4"/>
		<stop  offset="0.15" style="stop-color:#94C7EC"/>
		<stop  offset="0.25" style="stop-color:#CAE1F4"/>
		<stop  offset="0.44" style="stop-color:#77AACE"/>
		<stop  offset="0.6" style="stop-color:#6997B7"/>
		<stop  offset="0.8" style="stop-color:#587F9A"/>
		<stop  offset="0.97" style="stop-color:#50748D"/>
		<stop  offset="1" style="stop-color:#6C9BBB"/>
	</linearGradient>
	<path fill="url(#SVGID_16_)" d="M315.988,20.023c0,0-6.113,0.164-9.02,3.633c-2.98,3.117-2.402,8.879-2.402,8.879l7.672,0.238
		c0,0,0.289-3.395,3.75-4.664V20.023z"/>
	
		<linearGradient id="SVGID_17_" gradientUnits="userSpaceOnUse" x1="12.7686" y1="199.4805" x2="31.5968" y2="210.351" gradientTransform="matrix(0.75 0 0 -0.75 327.5474 180.0977)">
		<stop  offset="0" style="stop-color:#6895B4"/>
		<stop  offset="0.15" style="stop-color:#94C7EC"/>
		<stop  offset="0.25" style="stop-color:#CAE1F4"/>
		<stop  offset="0.44" style="stop-color:#77AACE"/>
		<stop  offset="0.6" style="stop-color:#6997B7"/>
		<stop  offset="0.8" style="stop-color:#587F9A"/>
		<stop  offset="0.97" style="stop-color:#50748D"/>
		<stop  offset="1" style="stop-color:#6C9BBB"/>
	</linearGradient>
	<path fill="url(#SVGID_17_)" d="M338.508,20.133c0,0,6.113,0.164,9.023,3.633c2.977,3.117,2.398,8.883,2.398,8.883l-7.672,0.234
		c0,0-0.285-3.395-3.75-4.664V20.133z"/>
	
		<linearGradient id="SVGID_18_" gradientUnits="userSpaceOnUse" x1="241.6123" y1="213.2891" x2="241.6123" y2="194.0547" gradientTransform="matrix(0.75 0 0 -0.75 19.04 412.0059)">
		<stop  offset="0" style="stop-color:#3D3B3B"/>
		<stop  offset="0.03" style="stop-color:#908F8F"/>
		<stop  offset="0.08" style="stop-color:#514F4F"/>
		<stop  offset="0.64" style="stop-color:#504E4E"/>
		<stop  offset="0.95" style="stop-color:#4E4C4C"/>
		<stop  offset="1" style="stop-color:#383636"/>
	</linearGradient>
	<path fill="url(#SVGID_18_)" d="M30.75,252.039h339c0,0,0.75,0.469,0.75,1.043v12.457c0,0.75-0.461,0.926-1.031,0.926
		L30.75,266.289c0,0-0.75-0.293-0.75-0.867v-12.633c0,0,0.461-0.75,1.031-0.75H30.75z"/>
	
		<linearGradient id="SVGID_19_" gradientUnits="userSpaceOnUse" x1="161.6113" y1="56.2329" x2="14.6113" y2="56.2329" gradientTransform="matrix(0.75 0 0 -0.75 86.3066 176.4229)">
		<stop  offset="0" style="stop-color:#5F89A6"/>
		<stop  offset="0.01" style="stop-color:#AAD1EF"/>
		<stop  offset="0.03" style="stop-color:#7EB3D8"/>
		<stop  offset="0.64" style="stop-color:#7CB0D5"/>
		<stop  offset="0.99" style="stop-color:#79ACD0"/>
		<stop  offset="1" style="stop-color:#587F9A"/>
	</linearGradient>
	<path fill="url(#SVGID_19_)" d="M98.016,16.457h108c0.75,0,1.379,0.469,1.379,1.043l0.121,233.707c0,0-0.586,0.832-1.152,0.832
		l-108.348-0.082c0,0-0.75-0.383-0.75-0.957V17.207c0,0,0.465-0.75,1.031-0.75H98.016z"/>
	
		<linearGradient id="SVGID_20_" gradientUnits="userSpaceOnUse" x1="81.6143" y1="171.7881" x2="14.6143" y2="171.7881" gradientTransform="matrix(0.75 0 0 -0.75 136.0469 245.3125)">
		<stop  offset="0" style="stop-color:#92A6AE"/>
		<stop  offset="0.01" style="stop-color:#DAEFF8"/>
		<stop  offset="0.03" style="stop-color:#BED8E3"/>
		<stop  offset="0.64" style="stop-color:#BBD5DF"/>
		<stop  offset="0.99" style="stop-color:#B7D0DA"/>
		<stop  offset="1" style="stop-color:#879AA2"/>
	</linearGradient>
	<path fill="url(#SVGID_20_)" d="M147.758,85.348h48c0.75,0,1.133,0.363,1.133,0.809l0.367,60.691c0,0-0.727,0.516-1.168,0.516
		l-48.332,0.234c-0.75,0-0.75-0.594-0.75-1.043V86.098c0-0.75,0.359-0.75,0.801-0.75H147.758z"/>
	
		<linearGradient id="SVGID_21_" gradientUnits="userSpaceOnUse" x1="76.6143" y1="175.7871" x2="14.6143" y2="175.7871" gradientTransform="matrix(0.75 0 0 -0.75 137.7344 248.3438)">
		<stop  offset="0" style="stop-color:#B5B5B5"/>
		<stop  offset="0.01" style="stop-color:#FFFFFF"/>
		<stop  offset="0.03" style="stop-color:#EBEBEB"/>
		<stop  offset="0.64" style="stop-color:#E7E7E7"/>
		<stop  offset="0.99" style="stop-color:#E2E2E2"/>
		<stop  offset="1" style="stop-color:#A8A8A8"/>
	</linearGradient>
	<path fill="url(#SVGID_21_)" d="M181.695,88.379l13.5,16.5v23.25l-13.5,16.5h-19.5l-13.5-16.5v-23.25l13.5-16.5H181.695z"/>
	
		<linearGradient id="SVGID_22_" gradientUnits="userSpaceOnUse" x1="128.6133" y1="186.7881" x2="14.6133" y2="186.7881" gradientTransform="matrix(0.75 0 0 -0.75 100.4072 191.0713)">
		<stop  offset="0" style="stop-color:#92A6AE"/>
		<stop  offset="0.01" style="stop-color:#DAEFF8"/>
		<stop  offset="0.03" style="stop-color:#BED8E3"/>
		<stop  offset="0.64" style="stop-color:#BBD5DF"/>
		<stop  offset="0.99" style="stop-color:#B7D0DA"/>
		<stop  offset="1" style="stop-color:#879AA2"/>
	</linearGradient>
	<path fill="url(#SVGID_22_)" d="M112.117,31.105h83.25c0.75,0,1.313,0.441,1.313,1.02l0.188,37.23c0,0.75-0.652,1.414-1.223,1.414
		l-83.527,0.086c0,0-0.75-0.574-0.75-1.152V31.855c0,0,0.449-0.75,1.02-0.75H112.117z"/>
	
		<linearGradient id="SVGID_23_" gradientUnits="userSpaceOnUse" x1="119.6152" y1="192.2842" x2="14.6152" y2="192.2842" gradientTransform="matrix(0.75 0 0 -0.75 103.5698 195.0527)">
		<stop  offset="0" style="stop-color:#5F89A6"/>
		<stop  offset="0.01" style="stop-color:#AAD1EF"/>
		<stop  offset="0.03" style="stop-color:#7EB3D8"/>
		<stop  offset="0.64" style="stop-color:#7CB0D5"/>
		<stop  offset="0.99" style="stop-color:#79ACD0"/>
		<stop  offset="1" style="stop-color:#587F9A"/>
	</linearGradient>
	<path fill="url(#SVGID_23_)" d="M114.531,35.09h78.75v31.5h-78.75V35.09z"/>
	
		<linearGradient id="SVGID_24_" gradientUnits="userSpaceOnUse" x1="21.6113" y1="156.2881" x2="14.6113" y2="156.2881" gradientTransform="matrix(0.75 0 0 -0.75 140.8735 320.457)">
		<stop  offset="0" style="stop-color:#6490AE"/>
		<stop  offset="0.15" style="stop-color:#94C7EC"/>
		<stop  offset="0.25" style="stop-color:#CAE1F4"/>
		<stop  offset="0.52" style="stop-color:#77AACE"/>
		<stop  offset="0.69" style="stop-color:#6997B7"/>
		<stop  offset="0.8" style="stop-color:#638FAD"/>
		<stop  offset="0.92" style="stop-color:#5D86A3"/>
		<stop  offset="1" style="stop-color:#6C9BBB"/>
	</linearGradient>
	<path fill="url(#SVGID_24_)" d="M151.832,160.492h5.25v85.5h-5.25V160.492z"/>
	
		<linearGradient id="SVGID_25_" gradientUnits="userSpaceOnUse" x1="21.6143" y1="213.2861" x2="21.6143" y2="207.2861" gradientTransform="matrix(0.75 0 0 -0.75 135.5161 401.5889)">
		<stop  offset="0" style="stop-color:#6490AE"/>
		<stop  offset="0.15" style="stop-color:#94C7EC"/>
		<stop  offset="0.25" style="stop-color:#CAE1F4"/>
		<stop  offset="0.52" style="stop-color:#77AACE"/>
		<stop  offset="0.69" style="stop-color:#6997B7"/>
		<stop  offset="0.8" style="stop-color:#638FAD"/>
		<stop  offset="0.92" style="stop-color:#5D86A3"/>
		<stop  offset="1" style="stop-color:#6C9BBB"/>
	</linearGradient>
	<path fill="url(#SVGID_25_)" d="M156.977,246.125h-10.5v-4.5h10.5V246.125z"/>
	
		<linearGradient id="SVGID_26_" gradientUnits="userSpaceOnUse" x1="24.6133" y1="202.6377" x2="14.5977" y2="202.6377" gradientTransform="matrix(0.75 0 0 -0.75 139.6958 306.459)">
		<stop  offset="0" style="stop-color:#403E3E"/>
		<stop  offset="0.15" style="stop-color:#6D6C6C"/>
		<stop  offset="0.25" style="stop-color:#BCBCBC"/>
		<stop  offset="0.52" style="stop-color:#4D4B4B"/>
		<stop  offset="0.69" style="stop-color:#434242"/>
		<stop  offset="0.8" style="stop-color:#3F3E3E"/>
		<stop  offset="0.92" style="stop-color:#3B3A3A"/>
		<stop  offset="1" style="stop-color:#454444"/>
	</linearGradient>
	<path fill="url(#SVGID_26_)" d="M151.406,146.492h5.25c0.75,0,1.129,0.441,1.129,1.02l0.371,13.98c0,0.75-0.832,1.004-1.402,1.004
		l-5.348-0.254c0,0-0.762-0.215-0.762-0.789l0.012-14.211c0,0,0.449-0.773,1.02-0.773L151.406,146.492z"/>
	<path fill="#595757" stroke="#595757" stroke-linejoin="bevel" stroke-miterlimit="10" d="M157.422,99.512h29.25v9.75h-29.25
		V99.512z"/>
	
		<linearGradient id="SVGID_27_" gradientUnits="userSpaceOnUse" x1="26.042" y1="207.79" x2="14.6152" y2="207.79" gradientTransform="matrix(0.75 0 0 -0.75 164.4019 275.502)">
		<stop  offset="0" style="stop-color:#B59D79"/>
		<stop  offset="0.01" style="stop-color:#FFE5C1"/>
		<stop  offset="0.03" style="stop-color:#EBCC9F"/>
		<stop  offset="0.64" style="stop-color:#E7C99C"/>
		<stop  offset="0.99" style="stop-color:#E2C499"/>
		<stop  offset="1" style="stop-color:#A89170"/>
	</linearGradient>
	<path fill="url(#SVGID_27_)" d="M176.113,115.535h6.75c0.75,0,1.07,0.402,1.07,0.895l-0.32,6.605c0,0-0.078,0.746-0.566,0.746
		l-6.934,0.004c0,0-0.75-0.402-0.75-0.895v-6.605c0,0,0.387-0.75,0.879-0.75H176.113z"/>
	
		<linearGradient id="SVGID_28_" gradientUnits="userSpaceOnUse" x1="26.0371" y1="207.79" x2="14.6104" y2="207.79" gradientTransform="matrix(0.75 0 0 -0.75 148.9756 275.502)">
		<stop  offset="0" style="stop-color:#B59D79"/>
		<stop  offset="0.01" style="stop-color:#FFE5C1"/>
		<stop  offset="0.03" style="stop-color:#EBCC9F"/>
		<stop  offset="0.64" style="stop-color:#E7C99C"/>
		<stop  offset="0.99" style="stop-color:#E2C499"/>
		<stop  offset="1" style="stop-color:#A89170"/>
	</linearGradient>
	<path fill="url(#SVGID_28_)" d="M160.684,115.535h6.75c0.75,0,1.07,0.402,1.07,0.895l-0.32,6.605c0,0-0.074,0.746-0.563,0.746
		l-6.938,0.004c0,0-0.75-0.402-0.75-0.895v-6.605c0,0,0.391-0.75,0.879-0.75H160.684z"/>
	
		<linearGradient id="SVGID_29_" gradientUnits="userSpaceOnUse" x1="26.042" y1="207.7881" x2="14.6152" y2="207.7881" gradientTransform="matrix(0.75 0 0 -0.75 164.4019 289.415)">
		<stop  offset="0" style="stop-color:#B59D79"/>
		<stop  offset="0.01" style="stop-color:#FFE5C1"/>
		<stop  offset="0.03" style="stop-color:#EBCC9F"/>
		<stop  offset="0.64" style="stop-color:#E7C99C"/>
		<stop  offset="0.99" style="stop-color:#E2C499"/>
		<stop  offset="1" style="stop-color:#A89170"/>
	</linearGradient>
	<path fill="url(#SVGID_29_)" d="M176.113,129.449h6.75c0.75,0,1.07,0.402,1.07,0.895l-0.32,6.605c0,0-0.078,0.746-0.566,0.746
		l-6.934,0.004c0,0-0.75-0.402-0.75-0.895v-6.605c0,0,0.387-0.75,0.879-0.75H176.113z"/>
	
		<linearGradient id="SVGID_30_" gradientUnits="userSpaceOnUse" x1="26.0371" y1="207.7881" x2="14.6104" y2="207.7881" gradientTransform="matrix(0.75 0 0 -0.75 148.9756 289.415)">
		<stop  offset="0" style="stop-color:#B59D79"/>
		<stop  offset="0.01" style="stop-color:#FFE5C1"/>
		<stop  offset="0.03" style="stop-color:#EBCC9F"/>
		<stop  offset="0.64" style="stop-color:#E7C99C"/>
		<stop  offset="0.99" style="stop-color:#E2C499"/>
		<stop  offset="1" style="stop-color:#A89170"/>
	</linearGradient>
	<path fill="url(#SVGID_30_)" d="M160.684,129.449h6.75c0.75,0,1.07,0.402,1.07,0.895l-0.32,6.605c0,0-0.074,0.746-0.563,0.746
		l-6.938,0.004c0,0-0.75-0.402-0.75-0.895v-6.605c0,0,0.391-0.75,0.879-0.75H160.684z"/>
	
		<linearGradient id="SVGID_31_" gradientUnits="userSpaceOnUse" x1="21.6162" y1="213.2891" x2="21.6162" y2="195.2891" gradientTransform="matrix(0.75 0 0 -0.75 103.5693 397.1182)">
		<stop  offset="0" style="stop-color:#6490AE"/>
		<stop  offset="0.15" style="stop-color:#94C7EC"/>
		<stop  offset="0.25" style="stop-color:#CAE1F4"/>
		<stop  offset="0.52" style="stop-color:#77AACE"/>
		<stop  offset="0.69" style="stop-color:#6997B7"/>
		<stop  offset="0.8" style="stop-color:#638FAD"/>
		<stop  offset="0.92" style="stop-color:#5D86A3"/>
		<stop  offset="1" style="stop-color:#6C9BBB"/>
	</linearGradient>
	<path fill="url(#SVGID_31_)" d="M125.031,250.652h-10.5v-13.5h10.5V250.652z"/>
	
		<linearGradient id="SVGID_32_" gradientUnits="userSpaceOnUse" x1="122.6138" y1="146.2471" x2="14.6138" y2="146.2471" gradientTransform="matrix(0.75 0 0 -0.75 24.9922 312.043)">
		<stop  offset="0" style="stop-color:#7098A9"/>
		<stop  offset="0.01" style="stop-color:#B8E1F2"/>
		<stop  offset="0.03" style="stop-color:#93C7DC"/>
		<stop  offset="0.64" style="stop-color:#91C4D9"/>
		<stop  offset="0.99" style="stop-color:#8DBFD4"/>
		<stop  offset="1" style="stop-color:#688D9D"/>
	</linearGradient>
	<path fill="url(#SVGID_32_)" d="M37.453,152.078h78c0.75,0,1.383,0.586,1.383,1.313l0.117,97.688c0,0.75-0.699,1.563-1.414,1.563
		l-78.086-0.063c-0.75,0-1.5-0.527-1.5-1.25v-97.75c0-0.75,0.582-1.5,1.297-1.5H37.453z"/>
	
		<linearGradient id="SVGID_33_" gradientUnits="userSpaceOnUse" x1="43.7017" y1="155.7881" x2="14.6128" y2="155.7881" gradientTransform="matrix(0.75 0 0 -0.75 114.0986 326.4766)">
		<stop  offset="0" style="stop-color:#7098A9"/>
		<stop  offset="0.01" style="stop-color:#B8E1F2"/>
		<stop  offset="0.03" style="stop-color:#93C7DC"/>
		<stop  offset="0.64" style="stop-color:#91C4D9"/>
		<stop  offset="0.99" style="stop-color:#8DBFD4"/>
		<stop  offset="1" style="stop-color:#688D9D"/>
	</linearGradient>
	<path fill="url(#SVGID_33_)" d="M125.809,166.512h20.25c0,0,0.816,0.441,0.816,1.016l-0.066,83.734c0,0.75-0.398,1.379-0.969,1.379
		l-20.031,0.121c0,0-0.75-0.602-0.75-1.176v-84.324c0,0,0.449-0.75,1.02-0.75H125.809z"/>
</g>
</svg>
