<?xml version="1.0" encoding="utf-8"?>
<!-- Generator: Adobe Illustrator 16.0.0, SVG Export Plug-In . SVG Version: 6.00 Build 0)  -->
<!DOCTYPE svg PUBLIC "-//W3C//DTD SVG 1.1//EN" "http://www.w3.org/Graphics/SVG/1.1/DTD/svg11.dtd">
<svg preserveAspectRatio="none" version="1.1" id="图层_1" xmlns="http://www.w3.org/2000/svg" xmlns:xlink="http://www.w3.org/1999/xlink" x="0px" y="0px"
	 width="340.5px" height="224.289px" viewBox="30 29.469 340.5 224.289" enable-background="new 30 29.469 340.5 224.289"
	 xml:space="preserve">
<g id="surface601">
	
		<linearGradient id="SVGID_1_" gradientUnits="userSpaceOnUse" x1="173.6143" y1="206.2861" x2="14.6143" y2="206.2861" gradientTransform="matrix(0.75 0 0 -0.75 208.082 212.0225)">
		<stop  offset="0" style="stop-color:#BDA47F"/>
		<stop  offset="0.15" style="stop-color:#FFE0B3"/>
		<stop  offset="0.25" style="stop-color:#FFEED7"/>
		<stop  offset="0.52" style="stop-color:#DFC297"/>
		<stop  offset="0.69" style="stop-color:#C7AD86"/>
		<stop  offset="0.8" style="stop-color:#BCA37E"/>
		<stop  offset="0.92" style="stop-color:#B19A77"/>
		<stop  offset="1" style="stop-color:#CBB189"/>
	</linearGradient>
	<path fill="url(#SVGID_1_)" d="M274.543,52.059h8.25l55.5,10.5h-119.25L274.543,52.059z"/>
	
		<linearGradient id="SVGID_2_" gradientUnits="userSpaceOnUse" x1="25.6099" y1="207.7881" x2="14.6099" y2="207.7881" gradientTransform="matrix(0.75 0 0 -0.75 261.4443 203.9971)">
		<stop  offset="0" style="stop-color:#403E3E"/>
		<stop  offset="0.15" style="stop-color:#6D6C6C"/>
		<stop  offset="0.25" style="stop-color:#BCBCBC"/>
		<stop  offset="0.52" style="stop-color:#4D4B4B"/>
		<stop  offset="0.69" style="stop-color:#434242"/>
		<stop  offset="0.8" style="stop-color:#3F3E3E"/>
		<stop  offset="0.92" style="stop-color:#3B3A3A"/>
		<stop  offset="1" style="stop-color:#454444"/>
	</linearGradient>
	<path fill="url(#SVGID_2_)" d="M272.402,44.031h8.25v8.25h-8.25V44.031z"/>
	
		<linearGradient id="SVGID_3_" gradientUnits="userSpaceOnUse" x1="47.9214" y1="90.1436" x2="14.6147" y2="90.1436" gradientTransform="matrix(0.75 0 0 -0.75 140.4258 199.7988)">
		<stop  offset="0" style="stop-color:#BDA47F"/>
		<stop  offset="0.15" style="stop-color:#FFE0B3"/>
		<stop  offset="0.25" style="stop-color:#FFEED7"/>
		<stop  offset="0.52" style="stop-color:#DFC297"/>
		<stop  offset="0.69" style="stop-color:#C7AD86"/>
		<stop  offset="0.8" style="stop-color:#BCA37E"/>
		<stop  offset="0.92" style="stop-color:#B19A77"/>
		<stop  offset="1" style="stop-color:#CBB189"/>
	</linearGradient>
	<path fill="url(#SVGID_3_)" d="M151.387,39.832h24.75c0,0,0.23,0.453,0.23,1.176l-0.23,182.574c0,0,0.066,0.969-0.125,0.969
		l-24.625-0.219c0,0,0-0.379,0-1.102V41.332c0-0.75,0.145-1.5,0.332-1.5H151.387z"/>
	
		<linearGradient id="SVGID_4_" gradientUnits="userSpaceOnUse" x1="173.6104" y1="107.8545" x2="14.6104" y2="107.8545" gradientTransform="matrix(0.75 0 0 -0.75 205.9873 226.0996)">
		<stop  offset="0" style="stop-color:#BDA47F"/>
		<stop  offset="0.15" style="stop-color:#FFE0B3"/>
		<stop  offset="0.25" style="stop-color:#FFEED7"/>
		<stop  offset="0.52" style="stop-color:#DFC297"/>
		<stop  offset="0.69" style="stop-color:#C7AD86"/>
		<stop  offset="0.8" style="stop-color:#BCA37E"/>
		<stop  offset="0.92" style="stop-color:#B19A77"/>
		<stop  offset="1" style="stop-color:#CBB189"/>
	</linearGradient>
	<path fill="url(#SVGID_4_)" d="M216.945,66.137h119.25v146.25c0,0-1.094,11.895-59.969,11.895
		c-57.781,0.105-59.281-12.098-59.281-12.098V66.137z"/>
	
		<linearGradient id="SVGID_5_" gradientUnits="userSpaceOnUse" x1="183.6104" y1="210.6309" x2="14.6104" y2="210.6308" gradientTransform="matrix(0.75 0 0 -0.75 202.3076 222.3857)">
		<stop  offset="0" style="stop-color:#BDA47F"/>
		<stop  offset="0.15" style="stop-color:#FFE0B3"/>
		<stop  offset="0.25" style="stop-color:#FFEED7"/>
		<stop  offset="0.52" style="stop-color:#DFC297"/>
		<stop  offset="0.69" style="stop-color:#C7AD86"/>
		<stop  offset="0.8" style="stop-color:#BCA37E"/>
		<stop  offset="0.92" style="stop-color:#B19A77"/>
		<stop  offset="1" style="stop-color:#CBB189"/>
	</linearGradient>
	<path fill="url(#SVGID_5_)" d="M214.016,62.422h125.25c0.75,0,0.57,0.184,0.57,0.41l0.18,3.34c0,0-0.367,0.234-0.594,0.234
		l-125.406-0.234c-0.75,0-0.75,0.051-0.75-0.176v-2.824c0-0.75,0.188-0.75,0.414-0.75H214.016z"/>
	
		<linearGradient id="SVGID_6_" gradientUnits="userSpaceOnUse" x1="25.6128" y1="213.2891" x2="25.6128" y2="173.2891" gradientTransform="matrix(0.75 0 0 -0.75 325.3447 238.3301)">
		<stop  offset="0" style="stop-color:#BDA47F"/>
		<stop  offset="0.15" style="stop-color:#FFE0B3"/>
		<stop  offset="0.25" style="stop-color:#FFEED7"/>
		<stop  offset="0.52" style="stop-color:#DFC297"/>
		<stop  offset="0.69" style="stop-color:#C7AD86"/>
		<stop  offset="0.8" style="stop-color:#BCA37E"/>
		<stop  offset="0.92" style="stop-color:#B19A77"/>
		<stop  offset="1" style="stop-color:#CBB189"/>
	</linearGradient>
	<path fill="url(#SVGID_6_)" d="M336.305,78.363h16.5v30h-16.5V78.363z"/>
	
		<linearGradient id="SVGID_7_" gradientUnits="userSpaceOnUse" x1="19.2173" y1="213.2852" x2="19.2173" y2="154.2852" gradientTransform="matrix(0.75 0 0 -0.75 341.917 231.1553)">
		<stop  offset="0" style="stop-color:#BDA47F"/>
		<stop  offset="0.15" style="stop-color:#FFE0B3"/>
		<stop  offset="0.25" style="stop-color:#FFEED7"/>
		<stop  offset="0.52" style="stop-color:#DFC297"/>
		<stop  offset="0.69" style="stop-color:#C7AD86"/>
		<stop  offset="0.8" style="stop-color:#BCA37E"/>
		<stop  offset="0.92" style="stop-color:#B19A77"/>
		<stop  offset="1" style="stop-color:#CBB189"/>
	</linearGradient>
	<path fill="url(#SVGID_7_)" d="M353.625,71.191h6c0,0,0.176,0.164,0.176,0.371l-0.176,43.129c0,0.75-0.008,0.609-0.234,0.609
		l-5.766,0.141c-0.75,0-0.766-0.336-0.766-0.539l0.016-43.711c0,0,0.172,0,0.398,0H353.625z"/>
	
		<linearGradient id="SVGID_8_" gradientUnits="userSpaceOnUse" x1="38.8438" y1="184.5889" x2="14.6143" y2="184.5889" gradientTransform="matrix(0.75 0 0 -0.75 256.5039 341.9658)">
		<stop  offset="0" style="stop-color:#B59D79"/>
		<stop  offset="0.03" style="stop-color:#FFE5C1"/>
		<stop  offset="0.08" style="stop-color:#EBCC9F"/>
		<stop  offset="0.64" style="stop-color:#E7C99C"/>
		<stop  offset="0.95" style="stop-color:#E2C499"/>
		<stop  offset="1" style="stop-color:#A89170"/>
	</linearGradient>
	<path fill="url(#SVGID_8_)" d="M268.215,182h17.25c0,0,0.172,0.188,0.172,0.414l-0.172,42.336c0,0-0.027,0.301-0.258,0.301
		l-16.992-0.301c-0.75,0-0.75,0.117-0.75-0.113V182.75c0-0.75,0.184-0.75,0.414-0.75H268.215z"/>
	
		<linearGradient id="SVGID_9_" gradientUnits="userSpaceOnUse" x1="44.0845" y1="205.1201" x2="14.6108" y2="205.1201" gradientTransform="matrix(0.75 0 0 -0.75 90.0767 384.5166)">
		<stop  offset="0" style="stop-color:#B59D79"/>
		<stop  offset="0.03" style="stop-color:#FFE5C1"/>
		<stop  offset="0.08" style="stop-color:#EBCC9F"/>
		<stop  offset="0.64" style="stop-color:#E7C99C"/>
		<stop  offset="0.95" style="stop-color:#E2C499"/>
		<stop  offset="1" style="stop-color:#A89170"/>
	</linearGradient>
	<path fill="url(#SVGID_9_)" d="M101.785,224.551h21c0,0,0.355,0.098,0.355,0.246l-0.355,11.754c0,0,0.168,0.273-0.059,0.273
		l-20.941-0.273c-0.75,0-0.75,0.152-0.75,0.004v-12.004c0,0,0.188-0.02,0.414-0.02L101.785,224.551z"/>
	
		<linearGradient id="SVGID_10_" gradientUnits="userSpaceOnUse" x1="468.6123" y1="201.8105" x2="14.6123" y2="201.8105" gradientTransform="matrix(0.75 0 0 -0.75 19.04 396.4746)">
		<stop  offset="0" style="stop-color:#B59D79"/>
		<stop  offset="0.03" style="stop-color:#FFE5C1"/>
		<stop  offset="0.08" style="stop-color:#EBCC9F"/>
		<stop  offset="0.64" style="stop-color:#E7C99C"/>
		<stop  offset="0.95" style="stop-color:#E2C499"/>
		<stop  offset="1" style="stop-color:#A89170"/>
	</linearGradient>
	<path fill="url(#SVGID_10_)" d="M30,236.508h339.75c0.75,0,0.75,0.152,0.75,0.379v16.121c0,0,0,0.492-0.406,0.492L30,253.758
		c0,0,0-0.457,0-0.688v-15.813c0-0.75,0-0.781,0.359-0.781L30,236.508z"/>
	
		<linearGradient id="SVGID_11_" gradientUnits="userSpaceOnUse" x1="51.1118" y1="213.29" x2="51.1118" y2="172.29" gradientTransform="matrix(0.75 0 0 -0.75 151.248 341.6504)">
		<stop  offset="0" style="stop-color:#BDBDBD"/>
		<stop  offset="0.15" style="stop-color:#FFFFFF"/>
		<stop  offset="0.25" style="stop-color:#FFFFFF"/>
		<stop  offset="0.52" style="stop-color:#DFDFDF"/>
		<stop  offset="0.69" style="stop-color:#C7C7C7"/>
		<stop  offset="0.8" style="stop-color:#BCBCBC"/>
		<stop  offset="0.92" style="stop-color:#B1B1B1"/>
		<stop  offset="1" style="stop-color:#CBCBCB"/>
	</linearGradient>
	<path fill="url(#SVGID_11_)" d="M216.957,181.684h-54.75v30.75h54.75V181.684z"/>
	
		<linearGradient id="SVGID_12_" gradientUnits="userSpaceOnUse" x1="-567.6099" y1="213.2832" x2="-567.6099" y2="154.2832" gradientTransform="matrix(-0.75 0 0 -0.75 -281.3018 335.1035)">
		<stop  offset="0" style="stop-color:#BDBDBD"/>
		<stop  offset="0.15" style="stop-color:#FFFFFF"/>
		<stop  offset="0.25" style="stop-color:#FFFFFF"/>
		<stop  offset="0.52" style="stop-color:#DFDFDF"/>
		<stop  offset="0.69" style="stop-color:#C7C7C7"/>
		<stop  offset="0.8" style="stop-color:#BCBCBC"/>
		<stop  offset="0.92" style="stop-color:#B1B1B1"/>
		<stop  offset="1" style="stop-color:#CBCBCB"/>
	</linearGradient>
	<path fill="url(#SVGID_12_)" d="M149.656,175.141h-10.5v44.25h10.5V175.141z"/>
	
		<linearGradient id="SVGID_13_" gradientUnits="userSpaceOnUse" x1="-569.1118" y1="213.2852" x2="-569.1118" y2="133.2852" gradientTransform="matrix(-0.75 0 0 -0.75 -291.2402 326.8662)">
		<stop  offset="0" style="stop-color:#BDA47F"/>
		<stop  offset="0.15" style="stop-color:#FFE0B3"/>
		<stop  offset="0.25" style="stop-color:#FFEED7"/>
		<stop  offset="0.52" style="stop-color:#DFC297"/>
		<stop  offset="0.69" style="stop-color:#C7AD86"/>
		<stop  offset="0.8" style="stop-color:#BCA37E"/>
		<stop  offset="0.92" style="stop-color:#B19A77"/>
		<stop  offset="1" style="stop-color:#CBB189"/>
	</linearGradient>
	<path fill="url(#SVGID_13_)" d="M138.219,166.902h-6.75v60h6.75c0.75,0,1.5-0.82,1.5-1.605v-56.895c0-0.75-0.641-1.5-1.43-1.5
		H138.219z"/>
	
		<linearGradient id="SVGID_14_" gradientUnits="userSpaceOnUse" x1="-532.1138" y1="213.2861" x2="-532.1138" y2="130.2861" gradientTransform="matrix(-0.75 0 0 -0.75 -302.75 325.7227)">
		<stop  offset="0" style="stop-color:#BDA47F"/>
		<stop  offset="0.15" style="stop-color:#FFE0B3"/>
		<stop  offset="0.25" style="stop-color:#FFEED7"/>
		<stop  offset="0.52" style="stop-color:#DFC297"/>
		<stop  offset="0.69" style="stop-color:#C7AD86"/>
		<stop  offset="0.8" style="stop-color:#BCA37E"/>
		<stop  offset="0.92" style="stop-color:#B19A77"/>
		<stop  offset="1" style="stop-color:#CBB189"/>
	</linearGradient>
	<path fill="url(#SVGID_14_)" d="M128.211,165.758h-63.75v62.25h63.75V165.758z"/>
	
		<linearGradient id="SVGID_15_" gradientUnits="userSpaceOnUse" x1="-555.5278" y1="213.2861" x2="-555.5278" y2="130.2861" gradientTransform="matrix(-0.75 0 0 -0.75 -366.3945 325.7227)">
		<stop  offset="0" style="stop-color:#BDA47F"/>
		<stop  offset="0.15" style="stop-color:#FFE0B3"/>
		<stop  offset="0.25" style="stop-color:#FFEED7"/>
		<stop  offset="0.52" style="stop-color:#DFC297"/>
		<stop  offset="0.69" style="stop-color:#C7AD86"/>
		<stop  offset="0.8" style="stop-color:#BCA37E"/>
		<stop  offset="0.92" style="stop-color:#B19A77"/>
		<stop  offset="1" style="stop-color:#CBB189"/>
	</linearGradient>
	<path fill="url(#SVGID_15_)" d="M64.566,165.758h-22.5c0,0-5.996,0-6.129,31.102c0.129,31.148,5.813,31.098,5.813,31.098
		l22.816,0.051V165.758z"/>
	
		<linearGradient id="SVGID_16_" gradientUnits="userSpaceOnUse" x1="-573.6108" y1="213.2861" x2="-573.6108" y2="130.2861" gradientTransform="matrix(-0.75 0 0 -0.75 -366.1621 325.7227)">
		<stop  offset="0" style="stop-color:#BC9C53"/>
		<stop  offset="0.15" style="stop-color:#FED681"/>
		<stop  offset="0.25" style="stop-color:#FEE8C2"/>
		<stop  offset="0.52" style="stop-color:#DEB863"/>
		<stop  offset="0.69" style="stop-color:#C6A457"/>
		<stop  offset="0.8" style="stop-color:#BB9B52"/>
		<stop  offset="0.92" style="stop-color:#B0924D"/>
		<stop  offset="1" style="stop-color:#CBA859"/>
	</linearGradient>
	<path fill="url(#SVGID_16_)" d="M64.797,165.758h-1.5v62.25h1.5V165.758z"/>
	
		<linearGradient id="SVGID_17_" gradientUnits="userSpaceOnUse" x1="17.1333" y1="213.2861" x2="17.1333" y2="125.9004" gradientTransform="matrix(0.75 0 0 -0.75 117.1479 324.0117)">
		<stop  offset="0" style="stop-color:#BC9C53"/>
		<stop  offset="0.15" style="stop-color:#FED681"/>
		<stop  offset="0.25" style="stop-color:#FEE8C2"/>
		<stop  offset="0.52" style="stop-color:#DEB863"/>
		<stop  offset="0.69" style="stop-color:#C6A457"/>
		<stop  offset="0.8" style="stop-color:#BB9B52"/>
		<stop  offset="0.92" style="stop-color:#B0924D"/>
		<stop  offset="1" style="stop-color:#CBA859"/>
	</linearGradient>
	<path fill="url(#SVGID_17_)" d="M128.859,164.047h2.25c0.75,0,0.805,0.285,0.805,0.648l-0.055,63.852
		c0,0.75-0.238,1.039-0.598,1.039l-2.402-0.289c-0.75,0-0.777-0.023-0.777-0.387l0.027-64.113c0-0.75,0.27-0.75,0.629-0.75H128.859z
		"/>
	
		<linearGradient id="SVGID_18_" gradientUnits="userSpaceOnUse" x1="16.1274" y1="213.2891" x2="16.1274" y2="126.1016" gradientTransform="matrix(0.75 0 0 -0.75 118.6523 324.0879)">
		<stop  offset="0" style="stop-color:#BDA47F"/>
		<stop  offset="0.15" style="stop-color:#FFE0B3"/>
		<stop  offset="0.25" style="stop-color:#FFEED7"/>
		<stop  offset="0.52" style="stop-color:#DFC297"/>
		<stop  offset="0.69" style="stop-color:#C7AD86"/>
		<stop  offset="0.8" style="stop-color:#BCA37E"/>
		<stop  offset="0.92" style="stop-color:#B19A77"/>
		<stop  offset="1" style="stop-color:#CBB189"/>
	</linearGradient>
	<path fill="url(#SVGID_18_)" d="M130.363,164.121c1.5,0,1.551,0.293,1.551,0.652l-0.051,63.848c0,0.75-0.328,0.891-0.797,0.891
		c-1.453-0.141-1.484-0.313-1.484-0.672l0.031-63.969c0-0.75,0.348-0.75,0.813-0.75H130.363z"/>
	<path fill="#EACD98" d="M125.465,218.535h-58.5v13.5h58.5V218.535z"/>
	<path fill="#FFDEAD" d="M125.465,231.695h-58.5v4.5h58.5V231.695z"/>
	
		<linearGradient id="SVGID_19_" gradientUnits="userSpaceOnUse" x1="-537.5879" y1="213.3145" x2="-537.5879" y2="210.2891" gradientTransform="matrix(-0.75 0 0 -0.75 -309.7109 339.6611)">
		<stop  offset="0" style="stop-color:#BDA47F"/>
		<stop  offset="0.15" style="stop-color:#FFE0B3"/>
		<stop  offset="0.25" style="stop-color:#FFEED7"/>
		<stop  offset="0.52" style="stop-color:#DFC297"/>
		<stop  offset="0.69" style="stop-color:#C7AD86"/>
		<stop  offset="0.8" style="stop-color:#BCA37E"/>
		<stop  offset="0.92" style="stop-color:#B19A77"/>
		<stop  offset="1" style="stop-color:#CBB189"/>
	</linearGradient>
	<path fill="url(#SVGID_19_)" d="M120.5,179.695h-54c-0.75,0-0.789,0.273-0.789,0.633l0.039,0.867c0,0,0.199,0.578,0.492,0.578
		l54.258,0.172c0.75,0,0.75-0.465,0.75-0.824v-0.676c0-0.75-0.223-0.77-0.516-0.77L120.5,179.695z"/>
	
		<linearGradient id="SVGID_20_" gradientUnits="userSpaceOnUse" x1="-537.5879" y1="213.3135" x2="-537.5879" y2="210.2871" gradientTransform="matrix(-0.75 0 0 -0.75 -309.7109 345.7705)">
		<stop  offset="0" style="stop-color:#BDA47F"/>
		<stop  offset="0.15" style="stop-color:#FFE0B3"/>
		<stop  offset="0.25" style="stop-color:#FFEED7"/>
		<stop  offset="0.52" style="stop-color:#DFC297"/>
		<stop  offset="0.69" style="stop-color:#C7AD86"/>
		<stop  offset="0.8" style="stop-color:#BCA37E"/>
		<stop  offset="0.92" style="stop-color:#B19A77"/>
		<stop  offset="1" style="stop-color:#CBB189"/>
	</linearGradient>
	<path fill="url(#SVGID_20_)" d="M120.5,185.805h-54c-0.75,0-0.789,0.273-0.789,0.633l0.039,0.867c0,0,0.199,0.578,0.492,0.578
		l54.258,0.172c0.75,0,0.75-0.465,0.75-0.824v-0.676c0-0.75-0.223-0.77-0.516-0.77L120.5,185.805z"/>
	
		<linearGradient id="SVGID_21_" gradientUnits="userSpaceOnUse" x1="-537.5879" y1="213.3164" x2="-537.5879" y2="210.29" gradientTransform="matrix(-0.75 0 0 -0.75 -309.7109 351.8809)">
		<stop  offset="0" style="stop-color:#BDA47F"/>
		<stop  offset="0.15" style="stop-color:#FFE0B3"/>
		<stop  offset="0.25" style="stop-color:#FFEED7"/>
		<stop  offset="0.52" style="stop-color:#DFC297"/>
		<stop  offset="0.69" style="stop-color:#C7AD86"/>
		<stop  offset="0.8" style="stop-color:#BCA37E"/>
		<stop  offset="0.92" style="stop-color:#B19A77"/>
		<stop  offset="1" style="stop-color:#CBB189"/>
	</linearGradient>
	<path fill="url(#SVGID_21_)" d="M120.5,191.914h-54c-0.75,0-0.789,0.273-0.789,0.633l0.039,0.867c0,0,0.199,0.578,0.492,0.578
		l54.258,0.172c0.75,0,0.75-0.465,0.75-0.824v-0.676c0-0.75-0.223-0.77-0.516-0.77L120.5,191.914z"/>
	
		<linearGradient id="SVGID_22_" gradientUnits="userSpaceOnUse" x1="-537.5879" y1="213.3145" x2="-537.5879" y2="210.2872" gradientTransform="matrix(-0.75 0 0 -0.75 -309.7109 357.9902)">
		<stop  offset="0" style="stop-color:#BDA47F"/>
		<stop  offset="0.15" style="stop-color:#FFE0B3"/>
		<stop  offset="0.25" style="stop-color:#FFEED7"/>
		<stop  offset="0.52" style="stop-color:#DFC297"/>
		<stop  offset="0.69" style="stop-color:#C7AD86"/>
		<stop  offset="0.8" style="stop-color:#BCA37E"/>
		<stop  offset="0.92" style="stop-color:#B19A77"/>
		<stop  offset="1" style="stop-color:#CBB189"/>
	</linearGradient>
	<path fill="url(#SVGID_22_)" d="M120.5,198.027h-54c-0.75,0-0.789,0.27-0.789,0.629l0.039,0.871c0,0,0.199,0.574,0.492,0.574
		l54.258,0.176c0.75,0,0.75-0.465,0.75-0.828v-0.672c0-0.75-0.223-0.773-0.516-0.773L120.5,198.027z"/>
	
		<linearGradient id="SVGID_23_" gradientUnits="userSpaceOnUse" x1="-537.5879" y1="213.3154" x2="-537.5879" y2="210.2882" gradientTransform="matrix(-0.75 0 0 -0.75 -309.7109 364.0996)">
		<stop  offset="0" style="stop-color:#BDA47F"/>
		<stop  offset="0.15" style="stop-color:#FFE0B3"/>
		<stop  offset="0.25" style="stop-color:#FFEED7"/>
		<stop  offset="0.52" style="stop-color:#DFC297"/>
		<stop  offset="0.69" style="stop-color:#C7AD86"/>
		<stop  offset="0.8" style="stop-color:#BCA37E"/>
		<stop  offset="0.92" style="stop-color:#B19A77"/>
		<stop  offset="1" style="stop-color:#CBB189"/>
	</linearGradient>
	<path fill="url(#SVGID_23_)" d="M120.5,204.137h-54c-0.75,0-0.789,0.27-0.789,0.629l0.039,0.871c0,0,0.199,0.574,0.492,0.574
		l54.258,0.176c0.75,0,0.75-0.465,0.75-0.828v-0.672c0-0.75-0.223-0.773-0.516-0.773L120.5,204.137z"/>
	
		<linearGradient id="SVGID_24_" gradientUnits="userSpaceOnUse" x1="-537.5879" y1="213.3105" x2="-537.5879" y2="210.2852" gradientTransform="matrix(-0.75 0 0 -0.75 -309.7109 370.21)">
		<stop  offset="0" style="stop-color:#BDA47F"/>
		<stop  offset="0.15" style="stop-color:#FFE0B3"/>
		<stop  offset="0.25" style="stop-color:#FFEED7"/>
		<stop  offset="0.52" style="stop-color:#DFC297"/>
		<stop  offset="0.69" style="stop-color:#C7AD86"/>
		<stop  offset="0.8" style="stop-color:#BCA37E"/>
		<stop  offset="0.92" style="stop-color:#B19A77"/>
		<stop  offset="1" style="stop-color:#CBB189"/>
	</linearGradient>
	<path fill="url(#SVGID_24_)" d="M120.5,210.246h-54c-0.75,0-0.789,0.27-0.789,0.633l0.039,0.867c0,0,0.199,0.578,0.492,0.578
		l54.258,0.172c0.75,0,0.75-0.465,0.75-0.828v-0.672c0-0.75-0.223-0.77-0.516-0.77L120.5,210.246z"/>
	<path fill="#FFDEAD" d="M127.551,154.938h-32.25l3.75,11.25h24.75L127.551,154.938z"/>
	<path fill="#EACD98" d="M128.262,153.441h-33c0,0-0.488,0.145-0.488,0.324l-0.262,1.926c0,0,0.406-0.02,0.586-0.02l33.164,0.02
		c0,0,0-0.168,0-0.348V153.441c0,0-0.133,0-0.313,0H128.262z"/>
	
		<linearGradient id="SVGID_25_" gradientUnits="userSpaceOnUse" x1="34.8403" y1="213.2842" x2="34.8403" y2="135.9561" gradientTransform="matrix(0.75 0 0 -0.75 137.7466 328.0645)">
		<stop  offset="0" style="stop-color:#BDA47F"/>
		<stop  offset="0.15" style="stop-color:#FFE0B3"/>
		<stop  offset="0.25" style="stop-color:#FFEED7"/>
		<stop  offset="0.52" style="stop-color:#DFC297"/>
		<stop  offset="0.69" style="stop-color:#C7AD86"/>
		<stop  offset="0.8" style="stop-color:#BCA37E"/>
		<stop  offset="0.92" style="stop-color:#B19A77"/>
		<stop  offset="1" style="stop-color:#CBB189"/>
	</linearGradient>
	<path fill="url(#SVGID_25_)" d="M149.457,168.102h29.25c0,0,0.34,0.141,0.34,0.367l-0.34,57.383c0,0,0.137,0.246-0.09,0.246
		l-29.16-0.246c-0.75,0-0.75,0.059-0.75-0.172v-57.578c0,0,0.176,0,0.402,0H149.457z"/>
	<path fill="#EACD98" d="M176.492,218.418h-25.5v18h25.5V218.418z"/>
	
		<linearGradient id="SVGID_26_" gradientUnits="userSpaceOnUse" x1="150.5952" y1="145.5928" x2="14.6108" y2="145.5928" gradientTransform="matrix(0.75 0 0 -0.75 101.9243 217.3203)">
		<stop  offset="0" style="stop-color:#AD976F"/>
		<stop  offset="0.15" style="stop-color:#EBD0A1"/>
		<stop  offset="0.25" style="stop-color:#F4E5CF"/>
		<stop  offset="0.52" style="stop-color:#CDB384"/>
		<stop  offset="0.69" style="stop-color:#B69F75"/>
		<stop  offset="0.8" style="stop-color:#AC966E"/>
		<stop  offset="0.92" style="stop-color:#A28E68"/>
		<stop  offset="1" style="stop-color:#BAA378"/>
	</linearGradient>
	<path fill="url(#SVGID_26_)" d="M112.883,108.355c0-28.5,22.801-51,50.992-51c28.508,0,50.996,22.723,50.996,50.773
		c0.012,27.977-22.852,50.77-50.996,50.77c-28.492-0.293-50.992-22.758-50.992-50.77V108.355z"/>
	
		<linearGradient id="SVGID_27_" gradientUnits="userSpaceOnUse" x1="73.6152" y1="209.2891" x2="14.6152" y2="209.2891" gradientTransform="matrix(0.75 0 0 -0.75 204.0112 264.9033)">
		<stop  offset="0" style="stop-color:#B59D79"/>
		<stop  offset="0.03" style="stop-color:#FFE5C1"/>
		<stop  offset="0.08" style="stop-color:#EBCC9F"/>
		<stop  offset="0.64" style="stop-color:#E7C99C"/>
		<stop  offset="0.95" style="stop-color:#E2C499"/>
		<stop  offset="1" style="stop-color:#A89170"/>
	</linearGradient>
	<path fill="url(#SVGID_27_)" d="M214.973,104.938h44.25v6h-44.25V104.938z"/>
	<path fill="#EED7B6" d="M115.492,107.953c0-26.25,21.637-48,48.383-48c26.617,0,48.387,21.563,48.387,48.176
		c-0.02,26.824-21.684,48.172-48.387,48.172c-26.633-0.348-48.383-21.594-48.383-48.172V107.953z"/>
	
		<linearGradient id="SVGID_28_" gradientUnits="userSpaceOnUse" x1="23.3535" y1="208.9336" x2="14.6157" y2="208.9336" gradientTransform="matrix(0.75 0 0 -0.75 149.6475 264.8369)">
		<stop  offset="0" style="stop-color:#BDA47F"/>
		<stop  offset="0.15" style="stop-color:#FFE0B3"/>
		<stop  offset="0.25" style="stop-color:#FFEED7"/>
		<stop  offset="0.52" style="stop-color:#DFC297"/>
		<stop  offset="0.69" style="stop-color:#C7AD86"/>
		<stop  offset="0.8" style="stop-color:#BCA37E"/>
		<stop  offset="0.92" style="stop-color:#B19A77"/>
		<stop  offset="1" style="stop-color:#CBB189"/>
	</linearGradient>
	<path fill="url(#SVGID_28_)" d="M160.609,107.871c0-1.5,1.461-3,3.266-3c1.984,0,3.27,1.457,3.27,3.258
		c0.215,1.992-1.465,3.254-3.27,3.254c-1.766,0.238-3.266-1.461-3.266-3.254V107.871z"/>
	
		<linearGradient id="SVGID_29_" gradientUnits="userSpaceOnUse" x1="55.8687" y1="209.7988" x2="14.5659" y2="209.7988" gradientTransform="matrix(0.75 0 0 -0.75 137.4463 195.8291)">
		<stop  offset="0" style="stop-color:#BDA47F"/>
		<stop  offset="0.15" style="stop-color:#FFE0B3"/>
		<stop  offset="0.25" style="stop-color:#FFEED7"/>
		<stop  offset="0.52" style="stop-color:#DFC297"/>
		<stop  offset="0.69" style="stop-color:#C7AD86"/>
		<stop  offset="0.8" style="stop-color:#BCA37E"/>
		<stop  offset="0.92" style="stop-color:#B19A77"/>
		<stop  offset="1" style="stop-color:#CBB189"/>
	</linearGradient>
	<path fill="url(#SVGID_29_)" d="M149.156,35.863h30c0,0,0.191,0.168,0.191,0.395l-0.191,4.105c0,0.75,0.004,0.645-0.223,0.645
		l-29.777,0.105c-0.75,0-0.785-0.289-0.785-0.516l0.035-3.984c0-0.75,0.152-0.766,0.379-0.766L149.156,35.863z"/>
	
		<linearGradient id="SVGID_30_" gradientUnits="userSpaceOnUse" x1="93.6504" y1="208.7041" x2="14.6133" y2="208.7041" gradientTransform="matrix(0.75 0 0 -0.75 123.2778 189.4512)">
		<stop  offset="0" style="stop-color:#BDA47F"/>
		<stop  offset="0.15" style="stop-color:#FFE0B3"/>
		<stop  offset="0.25" style="stop-color:#FFEED7"/>
		<stop  offset="0.52" style="stop-color:#DFC297"/>
		<stop  offset="0.69" style="stop-color:#C7AD86"/>
		<stop  offset="0.8" style="stop-color:#BCA37E"/>
		<stop  offset="0.92" style="stop-color:#B19A77"/>
		<stop  offset="1" style="stop-color:#CBB189"/>
	</linearGradient>
	<path fill="url(#SVGID_30_)" d="M134.988,29.488h57.75c0.75,0,0.777,0.168,0.777,0.395l-0.027,6.355c0,0-0.176,0.141-0.402,0.141
		l-58.098-0.141c-0.75,0-0.75-0.043-0.75-0.27v-5.73c0-0.75,0.168-0.77,0.395-0.77L134.988,29.488z"/>
</g>
</svg>
