<?xml version="1.0" encoding="utf-8"?>
<!-- Generator: Adobe Illustrator 16.0.0, SVG Export Plug-In . SVG Version: 6.00 Build 0)  -->
<!DOCTYPE svg PUBLIC "-//W3C//DTD SVG 1.1//EN" "http://www.w3.org/Graphics/SVG/1.1/DTD/svg11.dtd">
<svg preserveAspectRatio="none" version="1.1" id="图层_1" xmlns="http://www.w3.org/2000/svg" xmlns:xlink="http://www.w3.org/1999/xlink" x="0px" y="0px"
	 width="331.656px" height="693.75px" viewBox="0 0 331.656 693.75" enable-background="new 0 0 331.656 693.75"
	 xml:space="preserve">
<g id="surface961">
	
		<linearGradient id="SVGID_1_" gradientUnits="userSpaceOnUse" x1="414.4463" y1="1074.332" x2="-19.5537" y2="1074.332" gradientTransform="matrix(0.75 0 0 0.75 7.1685 -466.3486)">
		<stop  offset="0" style="stop-color:#C7C7C7"/>
		<stop  offset="0.15" style="stop-color:#FFFFFF"/>
		<stop  offset="0.25" style="stop-color:#FFFFFF"/>
		<stop  offset="0.52" style="stop-color:#DFDFDF"/>
		<stop  offset="0.69" style="stop-color:#C7C7C7"/>
		<stop  offset="0.8" style="stop-color:#BCBCBC"/>
		<stop  offset="0.92" style="stop-color:#B1B1B1"/>
	</linearGradient>
	<path fill="url(#SVGID_1_)" d="M-7.496-7.476h325.5v693.75h-325.5V-7.476z"/>
	
		<linearGradient id="SVGID_2_" gradientUnits="userSpaceOnUse" x1="414.4482" y1="627.8311" x2="-19.5518" y2="627.8311" gradientTransform="matrix(0.75 0 0 0.75 7.1685 -243.4473)">
		<stop  offset="0" style="stop-color:#9FA0A0"/>
		<stop  offset="0.15" style="stop-color:#DADBDB"/>
		<stop  offset="0.25" style="stop-color:#DDDEDE"/>
		<stop  offset="0.52" style="stop-color:#B3B4B4"/>
		<stop  offset="0.69" style="stop-color:#9FA0A0"/>
		<stop  offset="0.8" style="stop-color:#969797"/>
		<stop  offset="0.92" style="stop-color:#8E8E8E"/>
	</linearGradient>
	<path fill="url(#SVGID_2_)" d="M-7.496,215.427h325.5v24h-325.5V215.427z"/>
	
		<linearGradient id="SVGID_3_" gradientUnits="userSpaceOnUse" x1="414.4463" y1="627.8301" x2="-19.5537" y2="627.83" gradientTransform="matrix(0.75 0 0 0.75 7.1685 -18.1797)">
		<stop  offset="0" style="stop-color:#9FA0A0"/>
		<stop  offset="0.15" style="stop-color:#DADBDB"/>
		<stop  offset="0.25" style="stop-color:#DDDEDE"/>
		<stop  offset="0.52" style="stop-color:#B3B4B4"/>
		<stop  offset="0.69" style="stop-color:#9FA0A0"/>
		<stop  offset="0.8" style="stop-color:#969797"/>
		<stop  offset="0.92" style="stop-color:#8E8E8E"/>
	</linearGradient>
	<path fill="url(#SVGID_3_)" d="M-7.496,440.692h325.5v24h-325.5V440.692z"/>
	
		<linearGradient id="SVGID_4_" gradientUnits="userSpaceOnUse" x1="-3.5576" y1="637.2695" x2="-19.8232" y2="637.2695" gradientTransform="matrix(0.75 0 0 0.75 10.7847 -250.5723)">
		<stop  offset="0" style="stop-color:#C7C7C7"/>
		<stop  offset="0.15" style="stop-color:#FFFFFF"/>
		<stop  offset="0.25" style="stop-color:#FFFFFF"/>
		<stop  offset="0.52" style="stop-color:#DFDFDF"/>
		<stop  offset="0.69" style="stop-color:#C7C7C7"/>
		<stop  offset="0.8" style="stop-color:#BCBCBC"/>
		<stop  offset="0.92" style="stop-color:#B1B1B1"/>
	</linearGradient>
	<path fill="url(#SVGID_4_)" d="M-2.383,208.297h8.25c1.5,0,1.914,0.652,1.914,1.559l0.336,35.191c0,0.75-1.063,1.488-1.953,1.488
		l-8.547,0.012c-0.75,0-1.699-0.75-1.699-1.656l0.199-35.094c0-0.75,0.523-1.586,1.418-1.586L-2.383,208.297z"/>
	
		<linearGradient id="SVGID_5_" gradientUnits="userSpaceOnUse" x1="-3.5527" y1="637.2695" x2="-19.8242" y2="637.2695" gradientTransform="matrix(0.75 0 0 0.75 61.8481 -250.5723)">
		<stop  offset="0" style="stop-color:#C7C7C7"/>
		<stop  offset="0.15" style="stop-color:#FFFFFF"/>
		<stop  offset="0.25" style="stop-color:#FFFFFF"/>
		<stop  offset="0.52" style="stop-color:#DFDFDF"/>
		<stop  offset="0.69" style="stop-color:#C7C7C7"/>
		<stop  offset="0.8" style="stop-color:#BCBCBC"/>
		<stop  offset="0.92" style="stop-color:#B1B1B1"/>
	</linearGradient>
	<path fill="url(#SVGID_5_)" d="M48.684,208.297h8.25c1.5,0,1.91,0.652,1.91,1.559l0.34,35.191c0,0.75-1.063,1.488-1.957,1.488
		l-8.543,0.012c-0.75,0-1.703-0.75-1.703-1.656l0.203-35.094c0-0.75,0.52-1.586,1.414-1.586L48.684,208.297z"/>
	
		<linearGradient id="SVGID_6_" gradientUnits="userSpaceOnUse" x1="-3.5552" y1="637.2695" x2="-19.8257" y2="637.2695" gradientTransform="matrix(0.75 0 0 0.75 112.9116 -250.5723)">
		<stop  offset="0" style="stop-color:#C7C7C7"/>
		<stop  offset="0.15" style="stop-color:#FFFFFF"/>
		<stop  offset="0.25" style="stop-color:#FFFFFF"/>
		<stop  offset="0.52" style="stop-color:#DFDFDF"/>
		<stop  offset="0.69" style="stop-color:#C7C7C7"/>
		<stop  offset="0.8" style="stop-color:#BCBCBC"/>
		<stop  offset="0.92" style="stop-color:#B1B1B1"/>
	</linearGradient>
	<path fill="url(#SVGID_6_)" d="M99.746,208.297h8.25c1.5,0,1.91,0.652,1.91,1.559l0.34,35.191c0,0.75-1.063,1.488-1.957,1.488
		l-8.543,0.012c-0.75,0-1.703-0.75-1.703-1.656l0.203-35.094c0-0.75,0.523-1.586,1.414-1.586L99.746,208.297z"/>
	
		<linearGradient id="SVGID_7_" gradientUnits="userSpaceOnUse" x1="-3.5571" y1="637.2695" x2="-19.8228" y2="637.2695" gradientTransform="matrix(0.75 0 0 0.75 163.9717 -250.5723)">
		<stop  offset="0" style="stop-color:#C7C7C7"/>
		<stop  offset="0.15" style="stop-color:#FFFFFF"/>
		<stop  offset="0.25" style="stop-color:#FFFFFF"/>
		<stop  offset="0.52" style="stop-color:#DFDFDF"/>
		<stop  offset="0.69" style="stop-color:#C7C7C7"/>
		<stop  offset="0.8" style="stop-color:#BCBCBC"/>
		<stop  offset="0.92" style="stop-color:#B1B1B1"/>
	</linearGradient>
	<path fill="url(#SVGID_7_)" d="M150.805,208.297h8.25c1.5,0,1.914,0.652,1.914,1.559l0.336,35.191c0,0.75-1.063,1.488-1.957,1.488
		l-8.543,0.012c-0.75,0-1.699-0.75-1.699-1.656l0.199-35.094c0-0.75,0.523-1.586,1.418-1.586L150.805,208.297z"/>
	
		<linearGradient id="SVGID_8_" gradientUnits="userSpaceOnUse" x1="-3.5581" y1="637.2695" x2="-19.8237" y2="637.2695" gradientTransform="matrix(0.75 0 0 0.75 215.0391 -250.5723)">
		<stop  offset="0" style="stop-color:#C7C7C7"/>
		<stop  offset="0.15" style="stop-color:#FFFFFF"/>
		<stop  offset="0.25" style="stop-color:#FFFFFF"/>
		<stop  offset="0.52" style="stop-color:#DFDFDF"/>
		<stop  offset="0.69" style="stop-color:#C7C7C7"/>
		<stop  offset="0.8" style="stop-color:#BCBCBC"/>
		<stop  offset="0.92" style="stop-color:#B1B1B1"/>
	</linearGradient>
	<path fill="url(#SVGID_8_)" d="M201.871,208.297h8.25c1.5,0,1.914,0.652,1.914,1.559l0.336,35.191c0,0.75-1.063,1.488-1.953,1.488
		l-8.547,0.012c-0.75,0-1.699-0.75-1.699-1.656l0.199-35.094c0-0.75,0.523-1.586,1.418-1.586L201.871,208.297z"/>
	
		<linearGradient id="SVGID_9_" gradientUnits="userSpaceOnUse" x1="-3.5537" y1="637.2695" x2="-19.8252" y2="637.2695" gradientTransform="matrix(0.75 0 0 0.75 266.1025 -250.5723)">
		<stop  offset="0" style="stop-color:#C7C7C7"/>
		<stop  offset="0.15" style="stop-color:#FFFFFF"/>
		<stop  offset="0.25" style="stop-color:#FFFFFF"/>
		<stop  offset="0.52" style="stop-color:#DFDFDF"/>
		<stop  offset="0.69" style="stop-color:#C7C7C7"/>
		<stop  offset="0.8" style="stop-color:#BCBCBC"/>
		<stop  offset="0.92" style="stop-color:#B1B1B1"/>
	</linearGradient>
	<path fill="url(#SVGID_9_)" d="M252.938,208.297h8.25c1.5,0,1.91,0.652,1.91,1.559l0.34,35.191c0,0.75-1.063,1.488-1.957,1.488
		l-8.543,0.012c-0.75,0-1.703-0.75-1.703-1.656l0.203-35.094c0-0.75,0.52-1.586,1.414-1.586L252.938,208.297z"/>
	
		<linearGradient id="SVGID_10_" gradientUnits="userSpaceOnUse" x1="-3.5562" y1="637.2695" x2="-19.8267" y2="637.2695" gradientTransform="matrix(0.75 0 0 0.75 317.1665 -250.5723)">
		<stop  offset="0" style="stop-color:#C7C7C7"/>
		<stop  offset="0.15" style="stop-color:#FFFFFF"/>
		<stop  offset="0.25" style="stop-color:#FFFFFF"/>
		<stop  offset="0.52" style="stop-color:#DFDFDF"/>
		<stop  offset="0.69" style="stop-color:#C7C7C7"/>
		<stop  offset="0.8" style="stop-color:#BCBCBC"/>
		<stop  offset="0.92" style="stop-color:#B1B1B1"/>
	</linearGradient>
	<path fill="url(#SVGID_10_)" d="M304,208.297h8.25c1.5,0,1.914,0.652,1.914,1.559l0.336,35.191c0,0.75-1.063,1.488-1.957,1.488
		L304,246.547c-0.75,0-1.703-0.75-1.703-1.656l0.203-35.094c0-0.75,0.523-1.586,1.418-1.586L304,208.297z"/>
	
		<linearGradient id="SVGID_11_" gradientUnits="userSpaceOnUse" x1="422.6504" y1="623.7725" x2="-19.5576" y2="623.7724" gradientTransform="matrix(0.75 0 0 0.75 4.0859 -240.3086)">
		<stop  offset="0" style="stop-color:#C7C7C7"/>
		<stop  offset="0.15" style="stop-color:#FFFFFF"/>
		<stop  offset="0.25" style="stop-color:#FFFFFF"/>
		<stop  offset="0.52" style="stop-color:#DFDFDF"/>
		<stop  offset="0.69" style="stop-color:#C7C7C7"/>
		<stop  offset="0.8" style="stop-color:#BCBCBC"/>
		<stop  offset="0.92" style="stop-color:#B1B1B1"/>
	</linearGradient>
	<path fill="url(#SVGID_11_)" d="M-6.832,218.563h324c2.25,0,3.906,1.629,3.906,3.746l-0.156,9.754c0,2.25-1.535,4.207-3.621,4.207
		l-324.129,0.293c-2.25,0-3.75-2.008-3.75-4.125v-10.125c0-2.25,1.691-3.836,3.777-3.836L-6.832,218.563z"/>
	
		<linearGradient id="SVGID_12_" gradientUnits="userSpaceOnUse" x1="-3.5576" y1="637.2725" x2="-19.8232" y2="637.2725" gradientTransform="matrix(0.75 0 0 0.75 10.7847 -25.3047)">
		<stop  offset="0" style="stop-color:#C7C7C7"/>
		<stop  offset="0.15" style="stop-color:#FFFFFF"/>
		<stop  offset="0.25" style="stop-color:#FFFFFF"/>
		<stop  offset="0.52" style="stop-color:#DFDFDF"/>
		<stop  offset="0.69" style="stop-color:#C7C7C7"/>
		<stop  offset="0.8" style="stop-color:#BCBCBC"/>
		<stop  offset="0.92" style="stop-color:#B1B1B1"/>
	</linearGradient>
	<path fill="url(#SVGID_12_)" d="M-2.383,433.567h8.25c1.5,0,1.914,0.647,1.914,1.556l0.336,35.194c0,0.75-1.063,1.484-1.953,1.484
		l-8.547,0.016c-0.75,0-1.699-0.75-1.699-1.655l0.199-35.095c0-0.75,0.523-1.586,1.418-1.586L-2.383,433.567z"/>
	
		<linearGradient id="SVGID_13_" gradientUnits="userSpaceOnUse" x1="-3.5527" y1="637.2725" x2="-19.8242" y2="637.2725" gradientTransform="matrix(0.75 0 0 0.75 61.8481 -25.3047)">
		<stop  offset="0" style="stop-color:#C7C7C7"/>
		<stop  offset="0.15" style="stop-color:#FFFFFF"/>
		<stop  offset="0.25" style="stop-color:#FFFFFF"/>
		<stop  offset="0.52" style="stop-color:#DFDFDF"/>
		<stop  offset="0.69" style="stop-color:#C7C7C7"/>
		<stop  offset="0.8" style="stop-color:#BCBCBC"/>
		<stop  offset="0.92" style="stop-color:#B1B1B1"/>
	</linearGradient>
	<path fill="url(#SVGID_13_)" d="M48.684,433.567h8.25c1.5,0,1.91,0.647,1.91,1.556l0.34,35.194c0,0.75-1.063,1.484-1.957,1.484
		l-8.543,0.016c-0.75,0-1.703-0.75-1.703-1.655l0.203-35.095c0-0.75,0.52-1.586,1.414-1.586L48.684,433.567z"/>
	
		<linearGradient id="SVGID_14_" gradientUnits="userSpaceOnUse" x1="-3.5552" y1="637.2725" x2="-19.8257" y2="637.2725" gradientTransform="matrix(0.75 0 0 0.75 112.9116 -25.3047)">
		<stop  offset="0" style="stop-color:#C7C7C7"/>
		<stop  offset="0.15" style="stop-color:#FFFFFF"/>
		<stop  offset="0.25" style="stop-color:#FFFFFF"/>
		<stop  offset="0.52" style="stop-color:#DFDFDF"/>
		<stop  offset="0.69" style="stop-color:#C7C7C7"/>
		<stop  offset="0.8" style="stop-color:#BCBCBC"/>
		<stop  offset="0.92" style="stop-color:#B1B1B1"/>
	</linearGradient>
	<path fill="url(#SVGID_14_)" d="M99.746,433.567h8.25c1.5,0,1.91,0.647,1.91,1.556l0.34,35.194c0,0.75-1.063,1.484-1.957,1.484
		l-8.543,0.016c-0.75,0-1.703-0.75-1.703-1.655l0.203-35.095c0-0.75,0.523-1.586,1.414-1.586L99.746,433.567z"/>
	
		<linearGradient id="SVGID_15_" gradientUnits="userSpaceOnUse" x1="-3.5571" y1="637.2725" x2="-19.8228" y2="637.2725" gradientTransform="matrix(0.75 0 0 0.75 163.9717 -25.3047)">
		<stop  offset="0" style="stop-color:#C7C7C7"/>
		<stop  offset="0.15" style="stop-color:#FFFFFF"/>
		<stop  offset="0.25" style="stop-color:#FFFFFF"/>
		<stop  offset="0.52" style="stop-color:#DFDFDF"/>
		<stop  offset="0.69" style="stop-color:#C7C7C7"/>
		<stop  offset="0.8" style="stop-color:#BCBCBC"/>
		<stop  offset="0.92" style="stop-color:#B1B1B1"/>
	</linearGradient>
	<path fill="url(#SVGID_15_)" d="M150.805,433.567h8.25c1.5,0,1.914,0.647,1.914,1.556l0.336,35.194c0,0.75-1.063,1.484-1.957,1.484
		l-8.543,0.016c-0.75,0-1.699-0.75-1.699-1.655l0.199-35.095c0-0.75,0.523-1.586,1.418-1.586L150.805,433.567z"/>
	
		<linearGradient id="SVGID_16_" gradientUnits="userSpaceOnUse" x1="-3.5581" y1="637.2725" x2="-19.8237" y2="637.2725" gradientTransform="matrix(0.75 0 0 0.75 215.0391 -25.3047)">
		<stop  offset="0" style="stop-color:#C7C7C7"/>
		<stop  offset="0.15" style="stop-color:#FFFFFF"/>
		<stop  offset="0.25" style="stop-color:#FFFFFF"/>
		<stop  offset="0.52" style="stop-color:#DFDFDF"/>
		<stop  offset="0.69" style="stop-color:#C7C7C7"/>
		<stop  offset="0.8" style="stop-color:#BCBCBC"/>
		<stop  offset="0.92" style="stop-color:#B1B1B1"/>
	</linearGradient>
	<path fill="url(#SVGID_16_)" d="M201.871,433.567h8.25c1.5,0,1.914,0.647,1.914,1.556l0.336,35.194c0,0.75-1.063,1.484-1.953,1.484
		l-8.547,0.016c-0.75,0-1.699-0.75-1.699-1.655l0.199-35.095c0-0.75,0.523-1.586,1.418-1.586L201.871,433.567z"/>
	
		<linearGradient id="SVGID_17_" gradientUnits="userSpaceOnUse" x1="-3.5537" y1="637.2725" x2="-19.8252" y2="637.2725" gradientTransform="matrix(0.75 0 0 0.75 266.1025 -25.3047)">
		<stop  offset="0" style="stop-color:#C7C7C7"/>
		<stop  offset="0.15" style="stop-color:#FFFFFF"/>
		<stop  offset="0.25" style="stop-color:#FFFFFF"/>
		<stop  offset="0.52" style="stop-color:#DFDFDF"/>
		<stop  offset="0.69" style="stop-color:#C7C7C7"/>
		<stop  offset="0.8" style="stop-color:#BCBCBC"/>
		<stop  offset="0.92" style="stop-color:#B1B1B1"/>
	</linearGradient>
	<path fill="url(#SVGID_17_)" d="M252.938,433.567h8.25c1.5,0,1.91,0.647,1.91,1.556l0.34,35.194c0,0.75-1.063,1.484-1.957,1.484
		l-8.543,0.016c-0.75,0-1.703-0.75-1.703-1.655l0.203-35.095c0-0.75,0.52-1.586,1.414-1.586L252.938,433.567z"/>
	
		<linearGradient id="SVGID_18_" gradientUnits="userSpaceOnUse" x1="-3.5562" y1="637.2725" x2="-19.8267" y2="637.2725" gradientTransform="matrix(0.75 0 0 0.75 317.1665 -25.3047)">
		<stop  offset="0" style="stop-color:#C7C7C7"/>
		<stop  offset="0.15" style="stop-color:#FFFFFF"/>
		<stop  offset="0.25" style="stop-color:#FFFFFF"/>
		<stop  offset="0.52" style="stop-color:#DFDFDF"/>
		<stop  offset="0.69" style="stop-color:#C7C7C7"/>
		<stop  offset="0.8" style="stop-color:#BCBCBC"/>
		<stop  offset="0.92" style="stop-color:#B1B1B1"/>
	</linearGradient>
	<path fill="url(#SVGID_18_)" d="M304,433.567h8.25c1.5,0,1.914,0.647,1.914,1.556l0.336,35.194c0,0.75-1.063,1.484-1.957,1.484
		L304,471.817c-0.75,0-1.703-0.75-1.703-1.655l0.203-35.095c0-0.75,0.523-1.586,1.418-1.586L304,433.567z"/>
	
		<linearGradient id="SVGID_19_" gradientUnits="userSpaceOnUse" x1="422.6504" y1="623.7744" x2="-19.5576" y2="623.7744" gradientTransform="matrix(0.75 0 0 0.75 4.0859 -15.041)">
		<stop  offset="0" style="stop-color:#C7C7C7"/>
		<stop  offset="0.15" style="stop-color:#FFFFFF"/>
		<stop  offset="0.25" style="stop-color:#FFFFFF"/>
		<stop  offset="0.52" style="stop-color:#DFDFDF"/>
		<stop  offset="0.69" style="stop-color:#C7C7C7"/>
		<stop  offset="0.8" style="stop-color:#BCBCBC"/>
		<stop  offset="0.92" style="stop-color:#B1B1B1"/>
	</linearGradient>
	<path fill="url(#SVGID_19_)" d="M-6.832,443.834h324c2.25,0,3.906,1.629,3.906,3.742l-0.156,9.758c0,2.25-1.535,4.203-3.621,4.203
		l-324.129,0.297c-2.25,0-3.75-2.013-3.75-4.129v-10.121c0-2.25,1.691-3.84,3.777-3.84L-6.832,443.834z"/>
</g>
</svg>
