<?xml version="1.0" encoding="utf-8"?>
<!-- Generator: Adobe Illustrator 16.0.0, SVG Export Plug-In . SVG Version: 6.00 Build 0)  -->
<!DOCTYPE svg PUBLIC "-//W3C//DTD SVG 1.1//EN" "http://www.w3.org/Graphics/SVG/1.1/DTD/svg11.dtd">
<svg preserveAspectRatio="none" version="1.1" id="图层_1" xmlns="http://www.w3.org/2000/svg" xmlns:xlink="http://www.w3.org/1999/xlink" x="0px" y="0px"
	 width="300.25px" height="217.75px" viewBox="29.5 13.699 300.25 217.75" enable-background="new 29.5 13.699 300.25 217.75"
	 xml:space="preserve">
<g id="surface471">
	<path fill="#CFEBF6" stroke="#CFEBF6" stroke-linejoin="bevel" stroke-miterlimit="10" d="M38.27,24.664h282v197.25h-282V24.664z"
		/>
	<path fill="#FDE9D0" stroke="#EACD98" stroke-linejoin="bevel" stroke-miterlimit="10" d="M39,14.199h-9v216.75h299.25V14.199h-9
		v207.75H228l-8.25-10.5H139.5l-8.25,10.5H39V14.199z"/>
	<path fill="#FFFFFF" fill-opacity="0.6784" d="M148.883,195.625c0-3,2.668-6,5.961-6c3.039,0,2.156,3.855,2.156,7.141
		c0.133,3.359,0.793,2.266-2.5,2.266c-3.367,0.344-5.617-0.172-5.617-3.457V195.625z"/>
	<path fill="#FFFFFF" fill-opacity="0.6784" d="M171.684,205.656c0-4.5,3.762-8.387,8.441-8.387
		c4.309,0.137,7.441-5.793,7.441-1.125c-0.133,5.012-3.793,8.453-8.473,8.453c-4.41,0.309-7.438,5.793-7.438,1.125L171.684,205.656z
		"/>
	<path fill="#FFFFFF" fill-opacity="0.6784" d="M171.156,169.816c0-3.75,3.527-0.563,7.258-0.563
		c3.992-0.188,6.254-2.898,6.254,0.824c-0.012,3.488-3.027,6.742-6.746,6.742c-3.766-0.254-6.766-3.02-6.766-6.742V169.816z"/>
	<path fill="#FFFFFF" fill-opacity="0.6784" d="M201.688,179.078c0-3.75-4.52-9-0.789-9c3.789,0,4.617,0.926,4.617,4.648
		c-0.078,3.602-0.887,8.836-4.617,8.836c-3.711,0.016,0.426-0.926,0.426-4.648L201.688,179.078z"/>
	<path fill="#FFFFFF" fill-opacity="0.6784" d="M151.352,144.781c0-3-2.082-6,0.648-6c3.102,0,4.941,2.207,4.941,4.934
		c-0.34,2.566-4.191,4.93-6.918,4.93c-2.422-0.113,0.969-1.141,0.969-3.863H151.352z"/>
	<path fill="#FFFFFF" fill-opacity="0.6784" d="M180.289,125.332c0-3,2.066-2.129,5.547-2.129c3.453-0.121,3.871-0.254,3.871,3.223
		c0.332,3.406,0.367,5.313-3.102,5.313c-3.316,0.344-6.316-2.816-6.316-6.293V125.332z"/>
	<path fill="#FFFFFF" fill-opacity="0.6784" d="M203.117,109.004c0-3.75,1.391-2.867,4.98-2.867c3.27-0.133,8.117-5.57,8.117-1.984
		c-0.348,3.352-2.91,6.492-6.504,6.492c-3.594-0.141-6.594,1.684-6.594-1.902V109.004z"/>
	<path fill="#FFFFFF" fill-opacity="0.6784" d="M144.703,96.797c0-3.75,0.137-2.672,3.867-2.672
		c3.633-0.328,2.926-1.609,2.926,2.125c-0.043,3.547-3.023,6.73-6.754,6.73c-3.789-0.184-0.043-2.234-0.043-5.957L144.703,96.797z"
		/>
	<path fill="#FFFFFF" fill-opacity="0.6784" d="M158.855,112.453c0-3.75,2.695-6.199,6.043-6.199
		c3.707,0.199,5.332-4.148,5.332-0.805c-0.125,3.254-2.719,6.051-6.066,6.051c-3.059,0.203-5.328,4.152-5.328,0.809L158.855,112.453
		z"/>
	<path fill="#FFFFFF" fill-opacity="0.6784" d="M169.133,48.973c0-3,1.805-2.145,4.852-2.145c3.398-0.105,3.387-0.219,3.387,2.816
		c0.012,3.078,0.316,4.648-2.715,4.648c-3.273-0.07-5.523-2.465-5.523-5.5V48.973z"/>
	<path fill="#FFFFFF" fill-opacity="0.6784" d="M149.648,61.934c0-3.75-4.52-9-0.785-9c3.785,0,4.617,0.926,4.617,4.648
		c-0.082,3.602-0.887,8.836-4.617,8.836c-3.715,0.016,0.422-0.926,0.422-4.648L149.648,61.934z"/>
	<path fill="#FFFFFF" fill-opacity="0.6784" d="M197.754,80.699c0-3-2.078-6,0.652-6c3.098,0,4.941,2.207,4.941,4.93
		c-0.344,2.57-4.191,4.934-6.918,4.934c-2.426-0.113,0.965-1.141,0.965-3.867L197.754,80.699z"/>
	<path fill="#FFFFFF" fill-opacity="0.6784" d="M185.016,56.973c0-1.5,1.977-0.227,4.063-0.227c1.938,0.227,3.496-1.621,3.496,0.461
		c-0.059,2.016-1.691,3.773-3.773,3.773c-2.285-0.258-3.785-1.691-3.785-3.773V56.973z"/>
	<path fill="#FFFFFF" fill-opacity="0.6784" d="M160.391,76.965c0-2.25,1.75-3.75,3.906-3.75c2.094,0,1.414,2.523,1.414,4.676
		c-0.07,2.074,0.52,1.484-1.637,1.484c-2.184-0.16-3.684-0.109-3.684-2.262V76.965z"/>
	<path fill="#FFFFFF" fill-opacity="0.6784" d="M203.371,209.5c0-3.75,1.387-2.867,4.98-2.867c3.27-0.133,8.117-5.566,8.117-1.984
		c-0.348,3.352-2.91,6.492-6.504,6.492c-3.594-0.141-6.594,1.684-6.594-1.902V209.5z"/>
	<path fill="#FFFFFF" fill-opacity="0.6784" d="M202.379,151.75c0-2.25-0.652-3.75,0.898-3.75c1.352,0,2.805,1.254,2.805,2.801
		c0.047,1.699-2.379,2.797-3.93,2.797c-1.273-0.348,0.551-0.648,0.551-2.191L202.379,151.75z"/>
	<path fill="#FFFFFF" fill-opacity="0.6784" d="M203.398,42.93c0-3.75,0.137-2.672,3.867-2.672c3.633-0.328,2.926-1.609,2.926,2.125
		c-0.043,3.547-3.023,6.73-6.754,6.73c-3.789-0.184-0.043-2.234-0.043-5.957L203.398,42.93z"/>
	<path fill="#FFFFFF" fill-opacity="0.6784" d="M155.172,32.566c0-3,2.609-5.516,5.852-5.516c3.148,0.266,5.16-4.02,5.16-0.781
		c0.238,3.297-2.629,5.863-5.871,5.863c-2.891-0.316-5.16,4.02-5.16,0.781L155.172,32.566z"/>
</g>
</svg>
