<?xml version="1.0" encoding="utf-8"?>
<!-- Generator: Adobe Illustrator 16.0.0, SVG Export Plug-In . SVG Version: 6.00 Build 0)  -->
<!DOCTYPE svg PUBLIC "-//W3C//DTD SVG 1.1//EN" "http://www.w3.org/Graphics/SVG/1.1/DTD/svg11.dtd">
<svg preserveAspectRatio="none" version="1.1" id="图层_1" xmlns="http://www.w3.org/2000/svg" xmlns:xlink="http://www.w3.org/1999/xlink" x="0px" y="0px"
	 width="321.504px" height="345.75px" viewBox="39.715 -38.215 321.504 345.75"
	 enable-background="new 39.715 -38.215 321.504 345.75" xml:space="preserve">
<g id="surface801">
	
		<linearGradient id="SVGID_1_" gradientUnits="userSpaceOnUse" x1="18.6226" y1="213.3623" x2="18.6226" y2="196.2891" gradientTransform="matrix(0.75 0 0 -0.75 212.5234 148.1113)">
		<stop  offset="0" style="stop-color:#50525C"/>
		<stop  offset="0.15" style="stop-color:#9FA0A6"/>
		<stop  offset="0.25" style="stop-color:#A8A9AE"/>
		<stop  offset="0.52" style="stop-color:#5B5D68"/>
		<stop  offset="0.69" style="stop-color:#50525C"/>
		<stop  offset="0.8" style="stop-color:#4B4D56"/>
		<stop  offset="0.92" style="stop-color:#474851"/>
	</linearGradient>
	<path fill="url(#SVGID_1_)" d="M224.234-11.855h4.5c0.75,0,0.781,0.289,0.781,0.711l-0.031,11.289c0,0-0.309,0.691-0.727,0.691
		l-4.523,0.059c-0.75,0-0.77-0.402-0.77-0.824l0.02-11.176c0-0.75,0.316-0.805,0.734-0.805L224.234-11.855z"/>
	
		<linearGradient id="SVGID_2_" gradientUnits="userSpaceOnUse" x1="18.1001" y1="213.3525" x2="18.1001" y2="190.2852" gradientTransform="matrix(0.75 0 0 -0.75 207.6182 145.96)">
		<stop  offset="0" style="stop-color:#50525C"/>
		<stop  offset="0.15" style="stop-color:#9FA0A6"/>
		<stop  offset="0.25" style="stop-color:#A8A9AE"/>
		<stop  offset="0.52" style="stop-color:#5B5D68"/>
		<stop  offset="0.69" style="stop-color:#50525C"/>
		<stop  offset="0.8" style="stop-color:#4B4D56"/>
		<stop  offset="0.92" style="stop-color:#474851"/>
	</linearGradient>
	<path fill="url(#SVGID_2_)" d="M219.328-14.004h3.75c0.75,0,0.762,0.289,0.762,0.711l-0.012,15.789c0,0-0.324,0.527-0.742,0.527
		l-3.758,0.223c-0.75,0-0.781-0.566-0.781-0.988l0.031-15.512c0-0.75,0.309-0.801,0.727-0.801L219.328-14.004z"/>
	
		<linearGradient id="SVGID_3_" gradientUnits="userSpaceOnUse" x1="137.6108" y1="-17.2124" x2="14.6108" y2="-17.2124" gradientTransform="matrix(0.75 0 0 -0.75 28.7563 121.75)">
		<stop  offset="0" style="stop-color:#666971"/>
		<stop  offset="0.03" style="stop-color:#B0B2BA"/>
		<stop  offset="0.08" style="stop-color:#878A95"/>
		<stop  offset="0.64" style="stop-color:#858792"/>
		<stop  offset="0.95" style="stop-color:#82848F"/>
		<stop  offset="1" style="stop-color:#5F6169"/>
	</linearGradient>
	<path fill="url(#SVGID_3_)" d="M39.715-38.215h92.25v345.75h-92.25V-38.215z"/>
	
		<linearGradient id="SVGID_4_" gradientUnits="userSpaceOnUse" x1="167.6118" y1="109.2856" x2="14.6118" y2="109.2856" gradientTransform="matrix(0.75 0 0 -0.75 120.7871 311.0225)">
		<stop  offset="0" style="stop-color:#666971"/>
		<stop  offset="0.03" style="stop-color:#B0B2BA"/>
		<stop  offset="0.08" style="stop-color:#878A95"/>
		<stop  offset="0.64" style="stop-color:#858792"/>
		<stop  offset="0.95" style="stop-color:#82848F"/>
		<stop  offset="1" style="stop-color:#5F6169"/>
	</linearGradient>
	<path fill="url(#SVGID_4_)" d="M131.746,151.059h114.75v156h-114.75V151.059z"/>
	
		<linearGradient id="SVGID_5_" gradientUnits="userSpaceOnUse" x1="167.6108" y1="129.7896" x2="14.6108" y2="129.7895" gradientTransform="matrix(0.75 0 0 -0.75 235.5103 342.251)">
		<stop  offset="0" style="stop-color:#666971"/>
		<stop  offset="0.03" style="stop-color:#B0B2BA"/>
		<stop  offset="0.08" style="stop-color:#878A95"/>
		<stop  offset="0.64" style="stop-color:#858792"/>
		<stop  offset="0.95" style="stop-color:#82848F"/>
		<stop  offset="1" style="stop-color:#5F6169"/>
	</linearGradient>
	<path fill="url(#SVGID_5_)" d="M246.469,182.285h114.75v125.25h-114.75V182.285z"/>
	
		<linearGradient id="SVGID_6_" gradientUnits="userSpaceOnUse" x1="18.2222" y1="213.2891" x2="18.2222" y2="97.2891" gradientTransform="matrix(0.75 0 0 -0.75 120.6948 164.6885)">
		<stop  offset="0" style="stop-color:#383A42"/>
		<stop  offset="0.03" style="stop-color:#8E8F94"/>
		<stop  offset="0.08" style="stop-color:#4C4F59"/>
		<stop  offset="0.64" style="stop-color:#4A4D57"/>
		<stop  offset="0.95" style="stop-color:#494B55"/>
		<stop  offset="1" style="stop-color:#34363D"/>
	</linearGradient>
	<path fill="url(#SVGID_6_)" d="M132.406,4.723h3.75c0.75,0,0.91,0.41,0.91,0.914l-0.16,85.336c0,0-0.242,0.563-0.742,0.563
		l-3.758,0.188c0,0-0.75-0.598-0.75-1.102V5.473c0,0,0.402-0.75,0.902-0.75H132.406z"/>
	<path fill="#282D33" d="M136.559,9.52h102.75v77.25h-102.75V9.52z"/>
	
		<linearGradient id="SVGID_7_" gradientUnits="userSpaceOnUse" x1="75.6113" y1="213.2871" x2="75.6113" y2="202.2871" gradientTransform="matrix(0.75 0 0 -0.75 125.6665 169.4336)">
		<stop  offset="0" style="stop-color:#4B4D58"/>
		<stop  offset="0.03" style="stop-color:#9A9BA4"/>
		<stop  offset="0.08" style="stop-color:#646774"/>
		<stop  offset="0.64" style="stop-color:#626572"/>
		<stop  offset="0.95" style="stop-color:#606270"/>
		<stop  offset="1" style="stop-color:#454751"/>
	</linearGradient>
	<path fill="url(#SVGID_7_)" d="M136.625,9.469h91.5v8.25h-91.5V9.469z"/>
	
		<linearGradient id="SVGID_8_" gradientUnits="userSpaceOnUse" x1="75.6113" y1="213.2891" x2="75.6113" y2="208.2891" gradientTransform="matrix(0.75 0 0 -0.75 125.6665 181.7559)">
		<stop  offset="0" style="stop-color:#4B4D58"/>
		<stop  offset="0.03" style="stop-color:#9A9BA4"/>
		<stop  offset="0.08" style="stop-color:#646774"/>
		<stop  offset="0.64" style="stop-color:#626572"/>
		<stop  offset="0.95" style="stop-color:#606270"/>
		<stop  offset="1" style="stop-color:#454751"/>
	</linearGradient>
	<path fill="url(#SVGID_8_)" d="M136.625,21.789h91.5v3.75h-91.5V21.789z"/>
	
		<linearGradient id="SVGID_9_" gradientUnits="userSpaceOnUse" x1="75.6113" y1="213.2891" x2="75.6113" y2="210.2891" gradientTransform="matrix(0.75 0 0 -0.75 125.6665 189.4785)">
		<stop  offset="0" style="stop-color:#4B4D58"/>
		<stop  offset="0.03" style="stop-color:#9A9BA4"/>
		<stop  offset="0.08" style="stop-color:#646774"/>
		<stop  offset="0.64" style="stop-color:#626572"/>
		<stop  offset="0.95" style="stop-color:#606270"/>
		<stop  offset="1" style="stop-color:#454751"/>
	</linearGradient>
	<path fill="url(#SVGID_9_)" d="M136.625,29.512h91.5v2.25h-91.5V29.512z"/>
	
		<linearGradient id="SVGID_10_" gradientUnits="userSpaceOnUse" x1="75.6113" y1="213.2881" x2="75.6113" y2="210.2881" gradientTransform="matrix(0.75 0 0 -0.75 125.6665 194.4736)">
		<stop  offset="0" style="stop-color:#4B4D58"/>
		<stop  offset="0.03" style="stop-color:#9A9BA4"/>
		<stop  offset="0.08" style="stop-color:#646774"/>
		<stop  offset="0.64" style="stop-color:#626572"/>
		<stop  offset="0.95" style="stop-color:#606270"/>
		<stop  offset="1" style="stop-color:#454751"/>
	</linearGradient>
	<path fill="url(#SVGID_10_)" d="M136.625,34.508h91.5v2.25h-91.5V34.508z"/>
	
		<linearGradient id="SVGID_11_" gradientUnits="userSpaceOnUse" x1="75.6113" y1="213.2871" x2="75.6113" y2="210.2871" gradientTransform="matrix(0.75 0 0 -0.75 125.6665 199.4688)">
		<stop  offset="0" style="stop-color:#4B4D58"/>
		<stop  offset="0.03" style="stop-color:#9A9BA4"/>
		<stop  offset="0.08" style="stop-color:#646774"/>
		<stop  offset="0.64" style="stop-color:#626572"/>
		<stop  offset="0.95" style="stop-color:#606270"/>
		<stop  offset="1" style="stop-color:#454751"/>
	</linearGradient>
	<path fill="url(#SVGID_11_)" d="M136.625,39.504h91.5v2.25h-91.5V39.504z"/>
	
		<linearGradient id="SVGID_12_" gradientUnits="userSpaceOnUse" x1="75.6113" y1="213.2871" x2="75.6113" y2="210.2871" gradientTransform="matrix(0.75 0 0 -0.75 125.6665 204.4648)">
		<stop  offset="0" style="stop-color:#4B4D58"/>
		<stop  offset="0.03" style="stop-color:#9A9BA4"/>
		<stop  offset="0.08" style="stop-color:#646774"/>
		<stop  offset="0.64" style="stop-color:#626572"/>
		<stop  offset="0.95" style="stop-color:#606270"/>
		<stop  offset="1" style="stop-color:#454751"/>
	</linearGradient>
	<path fill="url(#SVGID_12_)" d="M136.625,44.5h91.5v2.25h-91.5V44.5z"/>
	
		<linearGradient id="SVGID_13_" gradientUnits="userSpaceOnUse" x1="75.6113" y1="213.2861" x2="75.6113" y2="210.2861" gradientTransform="matrix(0.75 0 0 -0.75 125.6665 209.46)">
		<stop  offset="0" style="stop-color:#4B4D58"/>
		<stop  offset="0.03" style="stop-color:#9A9BA4"/>
		<stop  offset="0.08" style="stop-color:#646774"/>
		<stop  offset="0.64" style="stop-color:#626572"/>
		<stop  offset="0.95" style="stop-color:#606270"/>
		<stop  offset="1" style="stop-color:#454751"/>
	</linearGradient>
	<path fill="url(#SVGID_13_)" d="M136.625,49.496h91.5v2.25h-91.5V49.496z"/>
	
		<linearGradient id="SVGID_14_" gradientUnits="userSpaceOnUse" x1="75.6113" y1="213.2852" x2="75.6113" y2="210.2852" gradientTransform="matrix(0.75 0 0 -0.75 125.6665 214.4551)">
		<stop  offset="0" style="stop-color:#4B4D58"/>
		<stop  offset="0.03" style="stop-color:#9A9BA4"/>
		<stop  offset="0.08" style="stop-color:#646774"/>
		<stop  offset="0.64" style="stop-color:#626572"/>
		<stop  offset="0.95" style="stop-color:#606270"/>
		<stop  offset="1" style="stop-color:#454751"/>
	</linearGradient>
	<path fill="url(#SVGID_14_)" d="M136.625,54.492h91.5v2.25h-91.5V54.492z"/>
	
		<linearGradient id="SVGID_15_" gradientUnits="userSpaceOnUse" x1="75.6113" y1="213.2891" x2="75.6113" y2="210.2891" gradientTransform="matrix(0.75 0 0 -0.75 125.6665 219.4512)">
		<stop  offset="0" style="stop-color:#4B4D58"/>
		<stop  offset="0.03" style="stop-color:#9A9BA4"/>
		<stop  offset="0.08" style="stop-color:#646774"/>
		<stop  offset="0.64" style="stop-color:#626572"/>
		<stop  offset="0.95" style="stop-color:#606270"/>
		<stop  offset="1" style="stop-color:#454751"/>
	</linearGradient>
	<path fill="url(#SVGID_15_)" d="M136.625,59.484h91.5v2.25h-91.5V59.484z"/>
	
		<linearGradient id="SVGID_16_" gradientUnits="userSpaceOnUse" x1="75.6113" y1="213.2871" x2="75.6113" y2="210.2871" gradientTransform="matrix(0.75 0 0 -0.75 125.6665 224.4453)">
		<stop  offset="0" style="stop-color:#4B4D58"/>
		<stop  offset="0.03" style="stop-color:#9A9BA4"/>
		<stop  offset="0.08" style="stop-color:#646774"/>
		<stop  offset="0.64" style="stop-color:#626572"/>
		<stop  offset="0.95" style="stop-color:#606270"/>
		<stop  offset="1" style="stop-color:#454751"/>
	</linearGradient>
	<path fill="url(#SVGID_16_)" d="M136.625,64.48h91.5v2.25h-91.5V64.48z"/>
	
		<linearGradient id="SVGID_17_" gradientUnits="userSpaceOnUse" x1="75.6113" y1="213.2871" x2="75.6113" y2="202.2871" gradientTransform="matrix(0.75 0 0 -0.75 125.6665 238.707)">
		<stop  offset="0" style="stop-color:#4B4D58"/>
		<stop  offset="0.03" style="stop-color:#9A9BA4"/>
		<stop  offset="0.08" style="stop-color:#646774"/>
		<stop  offset="0.64" style="stop-color:#626572"/>
		<stop  offset="0.95" style="stop-color:#606270"/>
		<stop  offset="1" style="stop-color:#454751"/>
	</linearGradient>
	<path fill="url(#SVGID_17_)" d="M136.625,78.742h91.5v8.25h-91.5V78.742z"/>
	
		<linearGradient id="SVGID_18_" gradientUnits="userSpaceOnUse" x1="75.6113" y1="213.2871" x2="75.6113" y2="208.2871" gradientTransform="matrix(0.75 0 0 -0.75 125.6665 230.5049)">
		<stop  offset="0" style="stop-color:#4B4D58"/>
		<stop  offset="0.03" style="stop-color:#9A9BA4"/>
		<stop  offset="0.08" style="stop-color:#646774"/>
		<stop  offset="0.64" style="stop-color:#626572"/>
		<stop  offset="0.95" style="stop-color:#606270"/>
		<stop  offset="1" style="stop-color:#454751"/>
	</linearGradient>
	<path fill="url(#SVGID_18_)" d="M136.625,70.539h91.5v3.75h-91.5V70.539z"/>
	
		<linearGradient id="SVGID_19_" gradientUnits="userSpaceOnUse" x1="34.6108" y1="213.29" x2="34.6108" y2="122.29" gradientTransform="matrix(0.75 0 0 -0.75 262.0181 174.1426)">
		<stop  offset="0" style="stop-color:#383A42"/>
		<stop  offset="0.03" style="stop-color:#8E8F94"/>
		<stop  offset="0.08" style="stop-color:#4C4F59"/>
		<stop  offset="0.64" style="stop-color:#4A4D57"/>
		<stop  offset="0.95" style="stop-color:#494B55"/>
		<stop  offset="1" style="stop-color:#34363D"/>
	</linearGradient>
	<path fill="url(#SVGID_19_)" d="M272.977,14.176h28.5c0.75,0,1.164,0.41,1.164,0.914l0.336,65.836c0,0.75-0.738,1.156-1.238,1.156
		l-28.762,0.344V14.176z"/>
	
		<linearGradient id="SVGID_20_" gradientUnits="userSpaceOnUse" x1="45.1123" y1="213.2861" x2="45.1123" y2="144.2861" gradientTransform="matrix(0.75 0 0 -0.75 216.459 182.3545)">
		<stop  offset="0" style="stop-color:#383A42"/>
		<stop  offset="0.03" style="stop-color:#8E8F94"/>
		<stop  offset="0.08" style="stop-color:#4C4F59"/>
		<stop  offset="0.64" style="stop-color:#4A4D57"/>
		<stop  offset="0.95" style="stop-color:#494B55"/>
		<stop  offset="1" style="stop-color:#34363D"/>
	</linearGradient>
	<path fill="url(#SVGID_20_)" d="M227.418,22.391h45.75v51.75h-45.75V22.391z"/>
	
		<linearGradient id="SVGID_21_" gradientUnits="userSpaceOnUse" x1="45.1123" y1="213.2861" x2="45.1123" y2="193.2861" gradientTransform="matrix(0.75 0 0 -0.75 216.459 233.7773)">
		<stop  offset="0" style="stop-color:#383A42"/>
		<stop  offset="0.03" style="stop-color:#8E8F94"/>
		<stop  offset="0.08" style="stop-color:#4C4F59"/>
		<stop  offset="0.64" style="stop-color:#4A4D57"/>
		<stop  offset="0.95" style="stop-color:#494B55"/>
		<stop  offset="1" style="stop-color:#34363D"/>
	</linearGradient>
	<path fill="url(#SVGID_21_)" d="M227.418,73.813h45.75v15h-45.75V73.813z"/>
	
		<linearGradient id="SVGID_22_" gradientUnits="userSpaceOnUse" x1="45.1123" y1="213.2861" x2="45.1123" y2="193.2861" gradientTransform="matrix(0.75 0 0 -0.75 216.459 167.168)">
		<stop  offset="0" style="stop-color:#4B4D58"/>
		<stop  offset="0.03" style="stop-color:#9A9BA4"/>
		<stop  offset="0.08" style="stop-color:#646774"/>
		<stop  offset="0.64" style="stop-color:#626572"/>
		<stop  offset="0.95" style="stop-color:#606270"/>
		<stop  offset="1" style="stop-color:#454751"/>
	</linearGradient>
	<path fill="url(#SVGID_22_)" d="M227.418,7.203h45.75v15h-45.75V7.203z"/>
	
		<linearGradient id="SVGID_23_" gradientUnits="userSpaceOnUse" x1="17.6123" y1="213.2861" x2="17.6123" y2="144.2861" gradientTransform="matrix(0.75 0 0 -0.75 258.002 182.3555)">
		<stop  offset="0" style="stop-color:#4B4D58"/>
		<stop  offset="0.03" style="stop-color:#9A9BA4"/>
		<stop  offset="0.08" style="stop-color:#646774"/>
		<stop  offset="0.64" style="stop-color:#626572"/>
		<stop  offset="0.95" style="stop-color:#606270"/>
		<stop  offset="1" style="stop-color:#454751"/>
	</linearGradient>
	<path fill="url(#SVGID_23_)" d="M268.961,22.391h4.5v51.75h-4.5V22.391z"/>
	
		<linearGradient id="SVGID_24_" gradientUnits="userSpaceOnUse" x1="17.6123" y1="213.2861" x2="17.6123" y2="193.2861" gradientTransform="matrix(0.75 0 0 -0.75 258.002 167.168)">
		<stop  offset="0" style="stop-color:#60616B"/>
		<stop  offset="0.03" style="stop-color:#AAABB4"/>
		<stop  offset="0.08" style="stop-color:#7F808D"/>
		<stop  offset="0.64" style="stop-color:#7D7E8A"/>
		<stop  offset="0.95" style="stop-color:#7A7B87"/>
		<stop  offset="1" style="stop-color:#595A63"/>
	</linearGradient>
	<path fill="url(#SVGID_24_)" d="M268.961,7.203h4.5v15h-4.5V7.203z"/>
	
		<linearGradient id="SVGID_25_" gradientUnits="userSpaceOnUse" x1="17.6123" y1="213.2861" x2="17.6123" y2="193.2861" gradientTransform="matrix(0.75 0 0 -0.75 258.002 233.7773)">
		<stop  offset="0" style="stop-color:#4B4D58"/>
		<stop  offset="0.03" style="stop-color:#9A9BA4"/>
		<stop  offset="0.08" style="stop-color:#646774"/>
		<stop  offset="0.64" style="stop-color:#626572"/>
		<stop  offset="0.95" style="stop-color:#606270"/>
		<stop  offset="1" style="stop-color:#454751"/>
	</linearGradient>
	<path fill="url(#SVGID_25_)" d="M268.961,73.813h4.5v15h-4.5V73.813z"/>
	
		<linearGradient id="SVGID_26_" gradientUnits="userSpaceOnUse" x1="18.9707" y1="211.0879" x2="14.6113" y2="211.0879" gradientTransform="matrix(0.75 0 0 -0.75 217.9668 187.8242)">
		<stop  offset="0" style="stop-color:#898A8A"/>
		<stop  offset="0.15" style="stop-color:#BABBBB"/>
		<stop  offset="0.25" style="stop-color:#DADADA"/>
		<stop  offset="0.44" style="stop-color:#9D9E9E"/>
		<stop  offset="0.6" style="stop-color:#8B8C8C"/>
		<stop  offset="0.8" style="stop-color:#757676"/>
		<stop  offset="0.97" style="stop-color:#6B6B6B"/>
		<stop  offset="1" style="stop-color:#8F9090"/>
	</linearGradient>
	<path fill="url(#SVGID_26_)" d="M228.926,29.359c0-0.75,0.73-1.5,1.633-1.5c0.617,0,1.637,0.738,1.637,1.648
		c-0.27,0.602-0.734,1.652-1.637,1.652c-0.883-0.301-1.633-0.738-1.633-1.652V29.359z"/>
	<path fill="#3E3938" d="M229.582,28.836c0,0,0.367-0.234,0.449-0.152l1.672,1.215c0,0-0.234,0.359-0.316,0.441
		c-0.215,0.09-0.219,0.082-0.301,0L229.582,28.836c0,0,0.066-0.07,0.148-0.152L229.582,28.836z"/>
	<path fill="#3E3938" d="M231.23,28.535c0,0,0.238,0.367,0.156,0.449l-1.215,1.672c0,0-0.359-0.234-0.441-0.316
		c-0.09-0.215-0.086-0.219,0-0.301L231.23,28.535c0,0,0.07,0.066,0.156,0.148L231.23,28.535z"/>
	
		<linearGradient id="SVGID_27_" gradientUnits="userSpaceOnUse" x1="18.9702" y1="211.0879" x2="14.6108" y2="211.0879" gradientTransform="matrix(0.75 0 0 -0.75 253.3228 187.8242)">
		<stop  offset="0" style="stop-color:#898A8A"/>
		<stop  offset="0.15" style="stop-color:#BABBBB"/>
		<stop  offset="0.25" style="stop-color:#DADADA"/>
		<stop  offset="0.44" style="stop-color:#9D9E9E"/>
		<stop  offset="0.6" style="stop-color:#8B8C8C"/>
		<stop  offset="0.8" style="stop-color:#757676"/>
		<stop  offset="0.97" style="stop-color:#6B6B6B"/>
		<stop  offset="1" style="stop-color:#8F9090"/>
	</linearGradient>
	<path fill="url(#SVGID_27_)" d="M264.281,29.359c0-0.75,0.73-1.5,1.633-1.5c0.617,0,1.637,0.738,1.637,1.648
		c-0.27,0.602-0.734,1.652-1.637,1.652c-0.883-0.301-1.633-0.738-1.633-1.652V29.359z"/>
	<path fill="#3E3938" d="M264.938,28.836c0,0,0.367-0.234,0.449-0.152l1.672,1.215c0,0-0.234,0.359-0.316,0.441
		c-0.211,0.09-0.219,0.082-0.301,0L264.938,28.836c0,0,0.066-0.07,0.148-0.152L264.938,28.836z"/>
	<path fill="#3E3938" d="M266.59,28.535c0,0,0.234,0.367,0.152,0.449l-1.215,1.672c0,0-0.359-0.234-0.441-0.316
		c-0.09-0.215-0.086-0.219,0-0.301L266.59,28.535c0,0,0.066,0.066,0.152,0.148L266.59,28.535z"/>
	
		<linearGradient id="SVGID_28_" gradientUnits="userSpaceOnUse" x1="18.9707" y1="211.0859" x2="14.6113" y2="211.0859" gradientTransform="matrix(0.75 0 0 -0.75 217.9668 226.6475)">
		<stop  offset="0" style="stop-color:#898A8A"/>
		<stop  offset="0.15" style="stop-color:#BABBBB"/>
		<stop  offset="0.25" style="stop-color:#DADADA"/>
		<stop  offset="0.44" style="stop-color:#9D9E9E"/>
		<stop  offset="0.6" style="stop-color:#8B8C8C"/>
		<stop  offset="0.8" style="stop-color:#757676"/>
		<stop  offset="0.97" style="stop-color:#6B6B6B"/>
		<stop  offset="1" style="stop-color:#8F9090"/>
	</linearGradient>
	<path fill="url(#SVGID_28_)" d="M228.926,68.184c0-0.75,0.73-1.5,1.633-1.5c0.617,0,1.637,0.738,1.637,1.648
		c-0.27,0.602-0.734,1.652-1.637,1.652c-0.883-0.301-1.633-0.742-1.633-1.652V68.184z"/>
	<path fill="#3E3938" d="M229.582,67.66c0,0,0.367-0.234,0.449-0.152l1.672,1.215c0,0-0.234,0.359-0.316,0.441
		c-0.215,0.086-0.219,0.082-0.301,0L229.582,67.66c0,0,0.066-0.07,0.148-0.152L229.582,67.66z"/>
	<path fill="#3E3938" d="M231.23,67.359c0,0,0.238,0.367,0.156,0.449l-1.215,1.672c0,0-0.359-0.234-0.441-0.316
		c-0.09-0.215-0.086-0.219,0-0.301L231.23,67.359c0,0,0.07,0.066,0.156,0.148L231.23,67.359z"/>
	
		<linearGradient id="SVGID_29_" gradientUnits="userSpaceOnUse" x1="18.9702" y1="211.0859" x2="14.6108" y2="211.0859" gradientTransform="matrix(0.75 0 0 -0.75 253.3228 226.6475)">
		<stop  offset="0" style="stop-color:#898A8A"/>
		<stop  offset="0.15" style="stop-color:#BABBBB"/>
		<stop  offset="0.25" style="stop-color:#DADADA"/>
		<stop  offset="0.44" style="stop-color:#9D9E9E"/>
		<stop  offset="0.6" style="stop-color:#8B8C8C"/>
		<stop  offset="0.8" style="stop-color:#757676"/>
		<stop  offset="0.97" style="stop-color:#6B6B6B"/>
		<stop  offset="1" style="stop-color:#8F9090"/>
	</linearGradient>
	<path fill="url(#SVGID_29_)" d="M264.281,68.184c0-0.75,0.73-1.5,1.633-1.5c0.617,0,1.637,0.738,1.637,1.648
		c-0.27,0.602-0.734,1.652-1.637,1.652c-0.883-0.301-1.633-0.742-1.633-1.652V68.184z"/>
	<path fill="#3E3938" d="M264.938,67.66c0,0,0.367-0.234,0.449-0.152l1.672,1.215c0,0-0.234,0.359-0.316,0.441
		c-0.211,0.086-0.219,0.082-0.301,0L264.938,67.66c0,0,0.066-0.07,0.148-0.152L264.938,67.66z"/>
	<path fill="#3E3938" d="M266.59,67.359c0,0,0.234,0.367,0.152,0.449l-1.215,1.672c0,0-0.359-0.234-0.441-0.316
		c-0.09-0.215-0.086-0.219,0-0.301L266.59,67.359c0,0,0.066,0.066,0.152,0.148L266.59,67.359z"/>
	
		<linearGradient id="SVGID_30_" gradientUnits="userSpaceOnUse" x1="54.6416" y1="213.2861" x2="54.6416" y2="173.1348" gradientTransform="matrix(0.75 0 0 -0.75 148.5229 139.418)">
		<stop  offset="0" style="stop-color:#383A42"/>
		<stop  offset="0.03" style="stop-color:#8E8F94"/>
		<stop  offset="0.08" style="stop-color:#4C4F59"/>
		<stop  offset="0.64" style="stop-color:#4A4D57"/>
		<stop  offset="0.95" style="stop-color:#494B55"/>
		<stop  offset="1" style="stop-color:#34363D"/>
	</linearGradient>
	<path fill="url(#SVGID_30_)" d="M160.234-20.547h58.5c0.75,0,0.789,0.344,0.789,0.766l-0.039,28.484
		c0,0.75-0.301,0.863-0.719,0.863l-58.531-0.113c-0.75,0-0.75-0.23-0.75-0.652v-28.598c0-0.75,0.336-0.75,0.754-0.75H160.234z"/>
	
		<linearGradient id="SVGID_31_" gradientUnits="userSpaceOnUse" x1="67.6807" y1="213.2852" x2="67.6807" y2="188.2852" gradientTransform="matrix(0.75 0 0 -0.75 138.3486 353.7207)">
		<stop  offset="0" style="stop-color:#54565F"/>
		<stop  offset="0.03" style="stop-color:#A1A2A9"/>
		<stop  offset="0.08" style="stop-color:#70727D"/>
		<stop  offset="0.64" style="stop-color:#6E707B"/>
		<stop  offset="0.95" style="stop-color:#6B6D78"/>
		<stop  offset="1" style="stop-color:#4E4F57"/>
	</linearGradient>
	<path fill="url(#SVGID_31_)" d="M150.059,193.758h78c0.75,0,0.852,0.207,0.852,0.469l-0.102,17.531c0,0-0.348,0.461-0.902,0.461
		l-77.848,0.289c0,0-0.75-0.5-0.75-0.758v-17.242c0-0.75,0.449-0.75,1.004-0.75H150.059z"/>
	
		<linearGradient id="SVGID_32_" gradientUnits="userSpaceOnUse" x1="67.6807" y1="213.2861" x2="67.6807" y2="208.2861" gradientTransform="matrix(0.75 0 0 -0.75 138.3486 351.2813)">
		<stop  offset="0" style="stop-color:#696B73"/>
		<stop  offset="0.03" style="stop-color:#B2B4BB"/>
		<stop  offset="0.08" style="stop-color:#8B8D97"/>
		<stop  offset="0.64" style="stop-color:#888A94"/>
		<stop  offset="0.95" style="stop-color:#858791"/>
		<stop  offset="1" style="stop-color:#61636A"/>
	</linearGradient>
	<path fill="url(#SVGID_32_)" d="M150.059,191.316h78c0.75,0,0.852,0.043,0.852,0.094l-0.102,3.656c0,0-0.348-0.055-0.902-0.055
		l-77.848,0.055c0,0-0.75-0.098-0.75-0.148v-3.602c0,0,0.449,0,1.004,0H150.059z"/>
	
		<linearGradient id="SVGID_33_" gradientUnits="userSpaceOnUse" x1="67.6812" y1="213.2891" x2="67.6812" y2="188.2891" gradientTransform="matrix(0.75 0 0 -0.75 253.0713 377.1387)">
		<stop  offset="0" style="stop-color:#54565F"/>
		<stop  offset="0.03" style="stop-color:#A1A2A9"/>
		<stop  offset="0.08" style="stop-color:#70727D"/>
		<stop  offset="0.64" style="stop-color:#6E707B"/>
		<stop  offset="0.95" style="stop-color:#6B6D78"/>
		<stop  offset="1" style="stop-color:#4E4F57"/>
	</linearGradient>
	<path fill="url(#SVGID_33_)" d="M264.781,217.172h78c0.75,0,0.852,0.211,0.852,0.473l-0.102,17.527c0,0-0.348,0.465-0.902,0.465
		l-77.848,0.285c0,0-0.75-0.496-0.75-0.754v-17.246c0-0.75,0.449-0.75,1.004-0.75H264.781z"/>
	
		<linearGradient id="SVGID_34_" gradientUnits="userSpaceOnUse" x1="67.6812" y1="213.2852" x2="67.6812" y2="208.2852" gradientTransform="matrix(0.75 0 0 -0.75 253.0713 374.6982)">
		<stop  offset="0" style="stop-color:#696B73"/>
		<stop  offset="0.03" style="stop-color:#B2B4BB"/>
		<stop  offset="0.08" style="stop-color:#8B8D97"/>
		<stop  offset="0.64" style="stop-color:#888A94"/>
		<stop  offset="0.95" style="stop-color:#858791"/>
		<stop  offset="1" style="stop-color:#61636A"/>
	</linearGradient>
	<path fill="url(#SVGID_34_)" d="M264.781,214.734h78c0.75,0,0.852,0.043,0.852,0.094l-0.102,3.656c0,0-0.348-0.059-0.902-0.059
		l-77.848,0.059c0,0-0.75-0.098-0.75-0.152v-3.598c0,0,0.449,0,1.004,0H264.781z"/>
</g>
</svg>
