<?xml version="1.0" encoding="utf-8"?>
<!-- Generator: Adobe Illustrator 16.0.0, SVG Export Plug-In . SVG Version: 6.00 Build 0)  -->
<!DOCTYPE svg PUBLIC "-//W3C//DTD SVG 1.1//EN" "http://www.w3.org/Graphics/SVG/1.1/DTD/svg11.dtd">
<svg preserveAspectRatio="none" version="1.1" id="图层_1" xmlns="http://www.w3.org/2000/svg" xmlns:xlink="http://www.w3.org/1999/xlink" x="0px" y="0px"
	 width="104.313px" height="226.703px" viewBox="30 29.379 104.313 226.703" enable-background="new 30 29.379 104.313 226.703"
	 xml:space="preserve">
<g id="surface51">
	
		<linearGradient id="SVGID_1_" gradientUnits="userSpaceOnUse" x1="53.9878" y1="209.9141" x2="69.9878" y2="209.9141" gradientTransform="matrix(0.75 0 0 -0.75 75.8257 393.9473)">
		<stop  offset="0" style="stop-color:#000000"/>
		<stop  offset="0.22" style="stop-color:#000000"/>
		<stop  offset="0.57" style="stop-color:#6C6C6C"/>
		<stop  offset="0.84" style="stop-color:#000000"/>
		<stop  offset="1" style="stop-color:#000000"/>
	</linearGradient>
	<path fill="url(#SVGID_1_)" d="M116.316,241.012h12v-9h-12V241.012z"/>
	
		<linearGradient id="SVGID_2_" gradientUnits="userSpaceOnUse" x1="57.4878" y1="215.9141" x2="57.4878" y2="194.9141" gradientTransform="matrix(0.75 0 0 -0.75 79.2041 400.1416)">
		<stop  offset="0" style="stop-color:#000000"/>
		<stop  offset="0.15" style="stop-color:#868686"/>
		<stop  offset="0.25" style="stop-color:#939393"/>
		<stop  offset="0.52" style="stop-color:#000000"/>
		<stop  offset="0.69" style="stop-color:#000000"/>
		<stop  offset="0.8" style="stop-color:#000000"/>
		<stop  offset="0.92" style="stop-color:#000000"/>
	</linearGradient>
	<path fill="url(#SVGID_2_)" d="M119.695,238.207h5.25v15.75h-5.25V238.207z"/>
	
		<linearGradient id="SVGID_3_" gradientUnits="userSpaceOnUse" x1="59.9863" y1="215.9141" x2="59.9863" y2="189.9141" gradientTransform="matrix(0.75 0 0 -0.75 70.7876 398.5176)">
		<stop  offset="0" style="stop-color:#0A0909"/>
		<stop  offset="0.15" style="stop-color:#656363"/>
		<stop  offset="0.25" style="stop-color:#7C7A7A"/>
		<stop  offset="0.52" style="stop-color:#565454"/>
		<stop  offset="0.69" style="stop-color:#2F2E2E"/>
		<stop  offset="1" style="stop-color:#171717"/>
	</linearGradient>
	<path fill="url(#SVGID_3_)" d="M112.777,236.582h6c0.75,0,1.367,0.965,1.367,2.152l0.133,15.098c0,0.75-0.879,1.906-1.801,1.906
		l-5.699,0.344c-0.75,0-1.5-1.305-1.5-2.492v-14.758c0-1.5,0.75-2.25,1.672-2.25H112.777z"/>
	
		<linearGradient id="SVGID_4_" gradientUnits="userSpaceOnUse" x1="59.9888" y1="215.9141" x2="59.9888" y2="189.9141" gradientTransform="matrix(0.75 0 0 -0.75 84.1255 398.5176)">
		<stop  offset="0" style="stop-color:#0A0909"/>
		<stop  offset="0.15" style="stop-color:#656363"/>
		<stop  offset="0.25" style="stop-color:#7C7A7A"/>
		<stop  offset="0.52" style="stop-color:#565454"/>
		<stop  offset="0.69" style="stop-color:#2F2E2E"/>
		<stop  offset="1" style="stop-color:#171717"/>
	</linearGradient>
	<path fill="url(#SVGID_4_)" d="M126.117,236.582h6c0.75,0,1.367,0.965,1.367,2.152l0.133,15.098c0,0.75-0.883,1.906-1.805,1.906
		l-5.695,0.344c-0.75,0-1.5-1.305-1.5-2.492v-14.758c0-1.5,0.746-2.25,1.668-2.25H126.117z"/>
	
		<linearGradient id="SVGID_5_" gradientUnits="userSpaceOnUse" x1="53.9873" y1="209.9141" x2="69.9873" y2="209.9141" gradientTransform="matrix(0.75 0 0 -0.75 -3.0566 392.5244)">
		<stop  offset="0" style="stop-color:#000000"/>
		<stop  offset="0.22" style="stop-color:#000000"/>
		<stop  offset="0.57" style="stop-color:#6C6C6C"/>
		<stop  offset="0.84" style="stop-color:#000000"/>
		<stop  offset="1" style="stop-color:#000000"/>
	</linearGradient>
	<path fill="url(#SVGID_5_)" d="M37.434,239.59h12v-9h-12V239.59z"/>
	
		<linearGradient id="SVGID_6_" gradientUnits="userSpaceOnUse" x1="57.4878" y1="215.9141" x2="57.4878" y2="194.9141" gradientTransform="matrix(0.75 0 0 -0.75 0.3218 400.1416)">
		<stop  offset="0" style="stop-color:#000000"/>
		<stop  offset="0.15" style="stop-color:#868686"/>
		<stop  offset="0.25" style="stop-color:#939393"/>
		<stop  offset="0.52" style="stop-color:#000000"/>
		<stop  offset="0.69" style="stop-color:#000000"/>
		<stop  offset="0.8" style="stop-color:#000000"/>
		<stop  offset="0.92" style="stop-color:#000000"/>
	</linearGradient>
	<path fill="url(#SVGID_6_)" d="M40.813,238.207h5.25v15.75h-5.25V238.207z"/>
	
		<linearGradient id="SVGID_7_" gradientUnits="userSpaceOnUse" x1="59.9907" y1="215.9141" x2="59.9907" y2="189.9141" gradientTransform="matrix(0.75 0 0 -0.75 -8.2388 398.5176)">
		<stop  offset="0" style="stop-color:#0A0909"/>
		<stop  offset="0.15" style="stop-color:#656363"/>
		<stop  offset="0.25" style="stop-color:#7C7A7A"/>
		<stop  offset="0.52" style="stop-color:#565454"/>
		<stop  offset="0.69" style="stop-color:#2F2E2E"/>
		<stop  offset="1" style="stop-color:#171717"/>
	</linearGradient>
	<path fill="url(#SVGID_7_)" d="M33.754,236.582h6c0.75,0,1.363,0.965,1.363,2.152l0.137,15.098c0,0.75-0.883,1.906-1.805,1.906
		l-5.695,0.344c-0.75,0-1.5-1.305-1.5-2.492v-14.758c0-1.5,0.746-2.25,1.668-2.25H33.754z"/>
	
		<linearGradient id="SVGID_8_" gradientUnits="userSpaceOnUse" x1="59.9878" y1="215.9141" x2="59.9878" y2="189.9141" gradientTransform="matrix(0.75 0 0 -0.75 5.0991 398.5176)">
		<stop  offset="0" style="stop-color:#0A0909"/>
		<stop  offset="0.15" style="stop-color:#656363"/>
		<stop  offset="0.25" style="stop-color:#7C7A7A"/>
		<stop  offset="0.52" style="stop-color:#565454"/>
		<stop  offset="0.69" style="stop-color:#2F2E2E"/>
		<stop  offset="1" style="stop-color:#171717"/>
	</linearGradient>
	<path fill="url(#SVGID_8_)" d="M47.09,236.582h6c0.75,0,1.367,0.965,1.367,2.152l0.133,15.098c0,0.75-0.879,1.906-1.801,1.906
		l-5.699,0.344c-0.75,0-1.5-1.305-1.5-2.492v-14.758c0-1.5,0.746-2.25,1.668-2.25H47.09z"/>
	
		<linearGradient id="SVGID_9_" gradientUnits="userSpaceOnUse" x1="192.9873" y1="79.9126" x2="53.9873" y2="79.9126" gradientTransform="matrix(0.75 0 0 -0.75 -10.4282 192.9922)">
		<stop  offset="0" style="stop-color:#75929C"/>
		<stop  offset="0.01" style="stop-color:#BDDAE4"/>
		<stop  offset="0.03" style="stop-color:#99BECB"/>
		<stop  offset="0.64" style="stop-color:#97BBC8"/>
		<stop  offset="0.99" style="stop-color:#93B7C4"/>
		<stop  offset="1" style="stop-color:#6C8791"/>
	</linearGradient>
	<path fill="url(#SVGID_9_)" d="M30.813,31.059h102.75c0.75,0,0.625,0.223,0.625,0.496l0.125,202.754c0,0-0.367,0.547-0.664,0.547
		l-102.836,0.203c-0.75,0-0.75-0.426-0.75-0.703V31.809c0-0.75,0.242-0.75,0.539-0.75H30.813z"/>
	
		<linearGradient id="SVGID_10_" gradientUnits="userSpaceOnUse" x1="192.9873" y1="188.4131" x2="53.9873" y2="188.4131" gradientTransform="matrix(0.75 0 0 -0.75 -10.4912 191.3125)">
		<stop  offset="0" style="stop-color:#92A6AE"/>
		<stop  offset="0.01" style="stop-color:#DAEFF8"/>
		<stop  offset="0.03" style="stop-color:#BED8E3"/>
		<stop  offset="0.64" style="stop-color:#BBD5DF"/>
		<stop  offset="0.99" style="stop-color:#B7D0DA"/>
		<stop  offset="1" style="stop-color:#879AA2"/>
	</linearGradient>
	<path fill="url(#SVGID_10_)" d="M30.75,29.379H133.5c0.75,0,0.75,0.176,0.75,0.398v40.852H30v-40.5c0-0.75,0.367-0.75,0.664-0.75
		H30.75z"/>
	
		<linearGradient id="SVGID_11_" gradientUnits="userSpaceOnUse" x1="142.2158" y1="191.2686" x2="53.9863" y2="191.2685" gradientTransform="matrix(0.75 0 0 -0.75 10.0254 240.3223)">
		<stop  offset="0" style="stop-color:#92A6AE"/>
		<stop  offset="0.01" style="stop-color:#DAEFF8"/>
		<stop  offset="0.03" style="stop-color:#BED8E3"/>
		<stop  offset="0.64" style="stop-color:#BBD5DF"/>
		<stop  offset="0.99" style="stop-color:#B7D0DA"/>
		<stop  offset="1" style="stop-color:#879AA2"/>
	</linearGradient>
	<path fill="url(#SVGID_11_)" d="M51.266,78.387h65.25c0,0,0.172,0.242,0.172,0.539l-0.172,36.211c0,0-0.07,0.219-0.367,0.219
		l-64.883-0.219c-0.75,0-0.75-0.023-0.75-0.32v-35.68c0-0.75,0.242-0.75,0.539-0.75H51.266z"/>
	<path fill="#607C7D" d="M56.227,87.461h39.75v18.75h-39.75V87.461z"/>
	
		<linearGradient id="SVGID_12_" gradientUnits="userSpaceOnUse" x1="67.9868" y1="212.4121" x2="53.9868" y2="212.4121" gradientTransform="matrix(0.75 0 0 -0.75 60.0723 243.2695)">
		<stop  offset="0" style="stop-color:#3D3B3B"/>
		<stop  offset="0.01" style="stop-color:#908F8F"/>
		<stop  offset="0.03" style="stop-color:#514F4F"/>
		<stop  offset="0.64" style="stop-color:#504E4E"/>
		<stop  offset="0.99" style="stop-color:#4E4C4C"/>
		<stop  offset="1" style="stop-color:#383636"/>
	</linearGradient>
	<path fill="url(#SVGID_12_)" d="M100.563,81.336h10.5v5.25h-10.5V81.336z"/>
	
		<linearGradient id="SVGID_13_" gradientUnits="userSpaceOnUse" x1="67.9868" y1="212.4131" x2="53.9868" y2="212.4131" gradientTransform="matrix(0.75 0 0 -0.75 60.0723 251.7617)">
		<stop  offset="0" style="stop-color:#3D3B3B"/>
		<stop  offset="0.01" style="stop-color:#908F8F"/>
		<stop  offset="0.03" style="stop-color:#514F4F"/>
		<stop  offset="0.64" style="stop-color:#504E4E"/>
		<stop  offset="0.99" style="stop-color:#4E4C4C"/>
		<stop  offset="1" style="stop-color:#383636"/>
	</linearGradient>
	<path fill="url(#SVGID_13_)" d="M100.563,89.828h10.5v5.25h-10.5V89.828z"/>
	
		<linearGradient id="SVGID_14_" gradientUnits="userSpaceOnUse" x1="67.9868" y1="212.415" x2="53.9868" y2="212.415" gradientTransform="matrix(0.75 0 0 -0.75 60.0723 260.2559)">
		<stop  offset="0" style="stop-color:#3D3B3B"/>
		<stop  offset="0.01" style="stop-color:#908F8F"/>
		<stop  offset="0.03" style="stop-color:#514F4F"/>
		<stop  offset="0.64" style="stop-color:#504E4E"/>
		<stop  offset="0.99" style="stop-color:#4E4C4C"/>
		<stop  offset="1" style="stop-color:#383636"/>
	</linearGradient>
	<path fill="url(#SVGID_14_)" d="M100.563,98.32h10.5v5.25h-10.5V98.32z"/>
	
		<linearGradient id="SVGID_15_" gradientUnits="userSpaceOnUse" x1="67.9868" y1="212.4111" x2="53.9868" y2="212.4111" gradientTransform="matrix(0.75 0 0 -0.75 60.0723 268.749)">
		<stop  offset="0" style="stop-color:#3D3B3B"/>
		<stop  offset="0.01" style="stop-color:#908F8F"/>
		<stop  offset="0.03" style="stop-color:#514F4F"/>
		<stop  offset="0.64" style="stop-color:#504E4E"/>
		<stop  offset="0.99" style="stop-color:#4E4C4C"/>
		<stop  offset="1" style="stop-color:#383636"/>
	</linearGradient>
	<path fill="url(#SVGID_15_)" d="M100.563,106.816h10.5v5.25h-10.5V106.816z"/>
	
		<linearGradient id="SVGID_16_" gradientUnits="userSpaceOnUse" x1="162.9893" y1="179.8418" x2="53.9893" y2="179.8418" gradientTransform="matrix(0.75 0 0 -0.75 0.8237 331.7695)">
		<stop  offset="0" style="stop-color:#92A6AE"/>
		<stop  offset="0.01" style="stop-color:#DAEFF8"/>
		<stop  offset="0.03" style="stop-color:#BED8E3"/>
		<stop  offset="0.64" style="stop-color:#BBD5DF"/>
		<stop  offset="0.99" style="stop-color:#B7D0DA"/>
		<stop  offset="1" style="stop-color:#879AA2"/>
	</linearGradient>
	<path fill="url(#SVGID_16_)" d="M42.066,169.836h80.25c0.75,0,0.617,0.242,0.617,0.539l0.133,52.711
		c0,0.75-0.371,0.855-0.668,0.855l-80.332-0.105c-0.75,0-0.75-0.137-0.75-0.434v-52.816c0-0.75,0.238-0.75,0.535-0.75H42.066z"/>
	
		<linearGradient id="SVGID_17_" gradientUnits="userSpaceOnUse" x1="155.1982" y1="183.415" x2="53.9902" y2="183.415" gradientTransform="matrix(0.75 0 0 -0.75 3.6787 334.458)">
		<stop  offset="0" style="stop-color:#75929C"/>
		<stop  offset="0.01" style="stop-color:#BDDAE4"/>
		<stop  offset="0.03" style="stop-color:#99BECB"/>
		<stop  offset="0.64" style="stop-color:#97BBC8"/>
		<stop  offset="0.99" style="stop-color:#93B7C4"/>
		<stop  offset="1" style="stop-color:#6C8791"/>
	</linearGradient>
	<path fill="url(#SVGID_17_)" d="M44.922,172.523h74.25c0.75,0,0.906,0.242,0.906,0.539l-0.156,47.461
		c0,0.75-0.082,0.727-0.379,0.727l-74.621,0.023c-0.75,0-0.75-0.262-0.75-0.559v-47.441c0-0.75,0.238-0.75,0.535-0.75H44.922z"/>
	
		<linearGradient id="SVGID_18_" gradientUnits="userSpaceOnUse" x1="76.9858" y1="213.4092" x2="53.9858" y2="213.4092" gradientTransform="matrix(0.75 0 0 -0.75 7.6157 337.4004)">
		<stop  offset="0" style="stop-color:#3D3B3B"/>
		<stop  offset="0.01" style="stop-color:#908F8F"/>
		<stop  offset="0.03" style="stop-color:#514F4F"/>
		<stop  offset="0.64" style="stop-color:#504E4E"/>
		<stop  offset="0.99" style="stop-color:#4E4C4C"/>
		<stop  offset="1" style="stop-color:#383636"/>
	</linearGradient>
	<path fill="url(#SVGID_18_)" d="M48.105,175.469h17.25v3.75h-17.25V175.469z"/>
	
		<linearGradient id="SVGID_19_" gradientUnits="userSpaceOnUse" x1="76.9858" y1="213.4092" x2="53.9858" y2="213.4092" gradientTransform="matrix(0.75 0 0 -0.75 7.6157 345.0176)">
		<stop  offset="0" style="stop-color:#3D3B3B"/>
		<stop  offset="0.01" style="stop-color:#908F8F"/>
		<stop  offset="0.03" style="stop-color:#514F4F"/>
		<stop  offset="0.64" style="stop-color:#504E4E"/>
		<stop  offset="0.99" style="stop-color:#4E4C4C"/>
		<stop  offset="1" style="stop-color:#383636"/>
	</linearGradient>
	<path fill="url(#SVGID_19_)" d="M48.105,183.086h17.25v3.75h-17.25V183.086z"/>
	
		<linearGradient id="SVGID_20_" gradientUnits="userSpaceOnUse" x1="76.9858" y1="213.4111" x2="53.9858" y2="213.4111" gradientTransform="matrix(0.75 0 0 -0.75 7.6157 352.9248)">
		<stop  offset="0" style="stop-color:#3D3B3B"/>
		<stop  offset="0.01" style="stop-color:#908F8F"/>
		<stop  offset="0.03" style="stop-color:#514F4F"/>
		<stop  offset="0.64" style="stop-color:#504E4E"/>
		<stop  offset="0.99" style="stop-color:#4E4C4C"/>
		<stop  offset="1" style="stop-color:#383636"/>
	</linearGradient>
	<path fill="url(#SVGID_20_)" d="M48.105,190.992h17.25v3.75h-17.25V190.992z"/>
	
		<linearGradient id="SVGID_21_" gradientUnits="userSpaceOnUse" x1="76.9858" y1="213.4111" x2="53.9858" y2="213.4111" gradientTransform="matrix(0.75 0 0 -0.75 7.6157 360.6865)">
		<stop  offset="0" style="stop-color:#3D3B3B"/>
		<stop  offset="0.01" style="stop-color:#908F8F"/>
		<stop  offset="0.03" style="stop-color:#514F4F"/>
		<stop  offset="0.64" style="stop-color:#504E4E"/>
		<stop  offset="0.99" style="stop-color:#4E4C4C"/>
		<stop  offset="1" style="stop-color:#383636"/>
	</linearGradient>
	<path fill="url(#SVGID_21_)" d="M48.105,198.754h17.25v3.75h-17.25V198.754z"/>
	
		<linearGradient id="SVGID_22_" gradientUnits="userSpaceOnUse" x1="76.9858" y1="213.4121" x2="53.9858" y2="213.4121" gradientTransform="matrix(0.75 0 0 -0.75 7.6157 368.4482)">
		<stop  offset="0" style="stop-color:#3D3B3B"/>
		<stop  offset="0.01" style="stop-color:#908F8F"/>
		<stop  offset="0.03" style="stop-color:#514F4F"/>
		<stop  offset="0.64" style="stop-color:#504E4E"/>
		<stop  offset="0.99" style="stop-color:#4E4C4C"/>
		<stop  offset="1" style="stop-color:#383636"/>
	</linearGradient>
	<path fill="url(#SVGID_22_)" d="M48.105,206.516h17.25v3.75h-17.25V206.516z"/>
	
		<linearGradient id="SVGID_23_" gradientUnits="userSpaceOnUse" x1="76.9858" y1="213.4111" x2="53.9858" y2="213.4111" gradientTransform="matrix(0.75 0 0 -0.75 7.6157 376.21)">
		<stop  offset="0" style="stop-color:#3D3B3B"/>
		<stop  offset="0.01" style="stop-color:#908F8F"/>
		<stop  offset="0.03" style="stop-color:#514F4F"/>
		<stop  offset="0.64" style="stop-color:#504E4E"/>
		<stop  offset="0.99" style="stop-color:#4E4C4C"/>
		<stop  offset="1" style="stop-color:#383636"/>
	</linearGradient>
	<path fill="url(#SVGID_23_)" d="M48.105,214.277h17.25v3.75h-17.25V214.277z"/>
	
		<linearGradient id="SVGID_24_" gradientUnits="userSpaceOnUse" x1="76.9858" y1="213.4111" x2="53.9858" y2="213.4111" gradientTransform="matrix(0.75 0 0 -0.75 33.5923 337.4014)">
		<stop  offset="0" style="stop-color:#3D3B3B"/>
		<stop  offset="0.01" style="stop-color:#908F8F"/>
		<stop  offset="0.03" style="stop-color:#514F4F"/>
		<stop  offset="0.64" style="stop-color:#504E4E"/>
		<stop  offset="0.99" style="stop-color:#4E4C4C"/>
		<stop  offset="1" style="stop-color:#383636"/>
	</linearGradient>
	<path fill="url(#SVGID_24_)" d="M74.082,175.469h17.25v3.75h-17.25V175.469z"/>
	
		<linearGradient id="SVGID_25_" gradientUnits="userSpaceOnUse" x1="76.9858" y1="213.4111" x2="53.9858" y2="213.4111" gradientTransform="matrix(0.75 0 0 -0.75 33.5923 345.0186)">
		<stop  offset="0" style="stop-color:#3D3B3B"/>
		<stop  offset="0.01" style="stop-color:#908F8F"/>
		<stop  offset="0.03" style="stop-color:#514F4F"/>
		<stop  offset="0.64" style="stop-color:#504E4E"/>
		<stop  offset="0.99" style="stop-color:#4E4C4C"/>
		<stop  offset="1" style="stop-color:#383636"/>
	</linearGradient>
	<path fill="url(#SVGID_25_)" d="M74.082,183.086h17.25v3.75h-17.25V183.086z"/>
	
		<linearGradient id="SVGID_26_" gradientUnits="userSpaceOnUse" x1="76.9858" y1="213.4111" x2="53.9858" y2="213.4111" gradientTransform="matrix(0.75 0 0 -0.75 33.5923 352.9248)">
		<stop  offset="0" style="stop-color:#3D3B3B"/>
		<stop  offset="0.01" style="stop-color:#908F8F"/>
		<stop  offset="0.03" style="stop-color:#514F4F"/>
		<stop  offset="0.64" style="stop-color:#504E4E"/>
		<stop  offset="0.99" style="stop-color:#4E4C4C"/>
		<stop  offset="1" style="stop-color:#383636"/>
	</linearGradient>
	<path fill="url(#SVGID_26_)" d="M74.082,190.992h17.25v3.75h-17.25V190.992z"/>
	
		<linearGradient id="SVGID_27_" gradientUnits="userSpaceOnUse" x1="76.9858" y1="213.4111" x2="53.9858" y2="213.4111" gradientTransform="matrix(0.75 0 0 -0.75 33.5923 360.6865)">
		<stop  offset="0" style="stop-color:#3D3B3B"/>
		<stop  offset="0.01" style="stop-color:#908F8F"/>
		<stop  offset="0.03" style="stop-color:#514F4F"/>
		<stop  offset="0.64" style="stop-color:#504E4E"/>
		<stop  offset="0.99" style="stop-color:#4E4C4C"/>
		<stop  offset="1" style="stop-color:#383636"/>
	</linearGradient>
	<path fill="url(#SVGID_27_)" d="M74.082,198.754h17.25v3.75h-17.25V198.754z"/>
	
		<linearGradient id="SVGID_28_" gradientUnits="userSpaceOnUse" x1="76.9858" y1="213.4121" x2="53.9858" y2="213.4121" gradientTransform="matrix(0.75 0 0 -0.75 33.5923 368.4482)">
		<stop  offset="0" style="stop-color:#3D3B3B"/>
		<stop  offset="0.01" style="stop-color:#908F8F"/>
		<stop  offset="0.03" style="stop-color:#514F4F"/>
		<stop  offset="0.64" style="stop-color:#504E4E"/>
		<stop  offset="0.99" style="stop-color:#4E4C4C"/>
		<stop  offset="1" style="stop-color:#383636"/>
	</linearGradient>
	<path fill="url(#SVGID_28_)" d="M74.082,206.516h17.25v3.75h-17.25V206.516z"/>
	
		<linearGradient id="SVGID_29_" gradientUnits="userSpaceOnUse" x1="76.9858" y1="213.4111" x2="53.9858" y2="213.4111" gradientTransform="matrix(0.75 0 0 -0.75 33.5923 376.21)">
		<stop  offset="0" style="stop-color:#3D3B3B"/>
		<stop  offset="0.01" style="stop-color:#908F8F"/>
		<stop  offset="0.03" style="stop-color:#514F4F"/>
		<stop  offset="0.64" style="stop-color:#504E4E"/>
		<stop  offset="0.99" style="stop-color:#4E4C4C"/>
		<stop  offset="1" style="stop-color:#383636"/>
	</linearGradient>
	<path fill="url(#SVGID_29_)" d="M74.082,214.277h17.25v3.75h-17.25V214.277z"/>
	
		<linearGradient id="SVGID_30_" gradientUnits="userSpaceOnUse" x1="76.9868" y1="213.4111" x2="53.9868" y2="213.4111" gradientTransform="matrix(0.75 0 0 -0.75 59.5684 337.4014)">
		<stop  offset="0" style="stop-color:#3D3B3B"/>
		<stop  offset="0.01" style="stop-color:#908F8F"/>
		<stop  offset="0.03" style="stop-color:#514F4F"/>
		<stop  offset="0.64" style="stop-color:#504E4E"/>
		<stop  offset="0.99" style="stop-color:#4E4C4C"/>
		<stop  offset="1" style="stop-color:#383636"/>
	</linearGradient>
	<path fill="url(#SVGID_30_)" d="M100.059,175.469h17.25v3.75h-17.25V175.469z"/>
	
		<linearGradient id="SVGID_31_" gradientUnits="userSpaceOnUse" x1="76.9868" y1="213.4111" x2="53.9868" y2="213.4111" gradientTransform="matrix(0.75 0 0 -0.75 59.5684 345.0186)">
		<stop  offset="0" style="stop-color:#3D3B3B"/>
		<stop  offset="0.01" style="stop-color:#908F8F"/>
		<stop  offset="0.03" style="stop-color:#514F4F"/>
		<stop  offset="0.64" style="stop-color:#504E4E"/>
		<stop  offset="0.99" style="stop-color:#4E4C4C"/>
		<stop  offset="1" style="stop-color:#383636"/>
	</linearGradient>
	<path fill="url(#SVGID_31_)" d="M100.059,183.086h17.25v3.75h-17.25V183.086z"/>
	
		<linearGradient id="SVGID_32_" gradientUnits="userSpaceOnUse" x1="76.9868" y1="213.4111" x2="53.9868" y2="213.4111" gradientTransform="matrix(0.75 0 0 -0.75 59.5684 352.9248)">
		<stop  offset="0" style="stop-color:#3D3B3B"/>
		<stop  offset="0.01" style="stop-color:#908F8F"/>
		<stop  offset="0.03" style="stop-color:#514F4F"/>
		<stop  offset="0.64" style="stop-color:#504E4E"/>
		<stop  offset="0.99" style="stop-color:#4E4C4C"/>
		<stop  offset="1" style="stop-color:#383636"/>
	</linearGradient>
	<path fill="url(#SVGID_32_)" d="M100.059,190.992h17.25v3.75h-17.25V190.992z"/>
	
		<linearGradient id="SVGID_33_" gradientUnits="userSpaceOnUse" x1="76.9868" y1="213.4111" x2="53.9868" y2="213.4111" gradientTransform="matrix(0.75 0 0 -0.75 59.5684 360.6865)">
		<stop  offset="0" style="stop-color:#3D3B3B"/>
		<stop  offset="0.01" style="stop-color:#908F8F"/>
		<stop  offset="0.03" style="stop-color:#514F4F"/>
		<stop  offset="0.64" style="stop-color:#504E4E"/>
		<stop  offset="0.99" style="stop-color:#4E4C4C"/>
		<stop  offset="1" style="stop-color:#383636"/>
	</linearGradient>
	<path fill="url(#SVGID_33_)" d="M100.059,198.754h17.25v3.75h-17.25V198.754z"/>
	
		<linearGradient id="SVGID_34_" gradientUnits="userSpaceOnUse" x1="76.9868" y1="213.4121" x2="53.9868" y2="213.4121" gradientTransform="matrix(0.75 0 0 -0.75 59.5684 368.4482)">
		<stop  offset="0" style="stop-color:#3D3B3B"/>
		<stop  offset="0.01" style="stop-color:#908F8F"/>
		<stop  offset="0.03" style="stop-color:#514F4F"/>
		<stop  offset="0.64" style="stop-color:#504E4E"/>
		<stop  offset="0.99" style="stop-color:#4E4C4C"/>
		<stop  offset="1" style="stop-color:#383636"/>
	</linearGradient>
	<path fill="url(#SVGID_34_)" d="M100.059,206.516h17.25v3.75h-17.25V206.516z"/>
	
		<linearGradient id="SVGID_35_" gradientUnits="userSpaceOnUse" x1="76.9868" y1="213.4111" x2="53.9868" y2="213.4111" gradientTransform="matrix(0.75 0 0 -0.75 59.5684 376.21)">
		<stop  offset="0" style="stop-color:#3D3B3B"/>
		<stop  offset="0.01" style="stop-color:#908F8F"/>
		<stop  offset="0.03" style="stop-color:#514F4F"/>
		<stop  offset="0.64" style="stop-color:#504E4E"/>
		<stop  offset="0.99" style="stop-color:#4E4C4C"/>
		<stop  offset="1" style="stop-color:#383636"/>
	</linearGradient>
	<path fill="url(#SVGID_35_)" d="M100.059,214.277h17.25v3.75h-17.25V214.277z"/>
	
		<linearGradient id="SVGID_36_" gradientUnits="userSpaceOnUse" x1="192.9873" y1="212.9131" x2="53.9873" y2="212.9131" gradientTransform="matrix(0.75 0 0 -0.75 -10.4912 191.3125)">
		<stop  offset="0" style="stop-color:#75929C"/>
		<stop  offset="0.01" style="stop-color:#BDDAE4"/>
		<stop  offset="0.03" style="stop-color:#99BECB"/>
		<stop  offset="0.64" style="stop-color:#97BBC8"/>
		<stop  offset="0.99" style="stop-color:#93B7C4"/>
		<stop  offset="1" style="stop-color:#6C8791"/>
	</linearGradient>
	<path fill="url(#SVGID_36_)" d="M30.75,29.379H133.5c0.75,0,0.75,0.02,0.75,0.039v4.461H30v-4.5c0,0,0.367,0,0.664,0H30.75z"/>
</g>
</svg>
