<?xml version="1.0" encoding="utf-8"?>
<!-- Generator: Adobe Illustrator 16.0.0, SVG Export Plug-In . SVG Version: 6.00 Build 0)  -->
<!DOCTYPE svg PUBLIC "-//W3C//DTD SVG 1.1//EN" "http://www.w3.org/Graphics/SVG/1.1/DTD/svg11.dtd">
<svg preserveAspectRatio="none" version="1.1" id="图层_1" xmlns="http://www.w3.org/2000/svg" xmlns:xlink="http://www.w3.org/1999/xlink" x="0px" y="0px"
	 width="340.957px" height="296.049px" viewBox="29.683 -6.678 340.957 296.049"
	 enable-background="new 29.683 -6.678 340.957 296.049" xml:space="preserve">
<g id="surface966">
	
		<linearGradient id="SVGID_1_" gradientUnits="userSpaceOnUse" x1="106.5244" y1="451.376" x2="106.5244" y2="433.9746" gradientTransform="matrix(0.5745 0.4821 0.4821 -0.5745 76.515 474.5566)">
		<stop  offset="0" style="stop-color:#C7C7C7"/>
		<stop  offset="0.15" style="stop-color:#FFFFFF"/>
		<stop  offset="0.25" style="stop-color:#FFFFFF"/>
		<stop  offset="0.52" style="stop-color:#DFDFDF"/>
		<stop  offset="0.69" style="stop-color:#C7C7C7"/>
		<stop  offset="0.8" style="stop-color:#BCBCBC"/>
		<stop  offset="0.92" style="stop-color:#B1B1B1"/>
	</linearGradient>
	<path fill="url(#SVGID_1_)" d="M340.383,254.047l29.875,25.07c0.574,0.48,0.379,0.625,0.195,0.844l-7.816,9.406
		c0,0-0.414,0.039-0.637-0.145l-29.813-25.406c-0.574-0.484-0.617-0.434-0.434-0.656l7.57-9.02c0.484-0.574,0.66-0.426,0.883-0.238
		L340.383,254.047z"/>
	
		<linearGradient id="SVGID_2_" gradientUnits="userSpaceOnUse" x1="125.1865" y1="451.373" x2="125.1865" y2="414.375" gradientTransform="matrix(0.5745 0.4821 0.4821 -0.5745 33.1576 428.8066)">
		<stop  offset="0" style="stop-color:#C7C7C7"/>
		<stop  offset="0.15" style="stop-color:#FFFFFF"/>
		<stop  offset="0.25" style="stop-color:#FFFFFF"/>
		<stop  offset="0.52" style="stop-color:#DFDFDF"/>
		<stop  offset="0.69" style="stop-color:#C7C7C7"/>
		<stop  offset="0.8" style="stop-color:#BCBCBC"/>
		<stop  offset="0.92" style="stop-color:#B1B1B1"/>
	</linearGradient>
	<path fill="url(#SVGID_2_)" d="M297.023,208.297l51.707,43.391c0,0,0.035,0.332-0.148,0.555l-17.207,20.129
		c0,0-0.25,0.309-0.469,0.125l-51.719-42.941c-0.574-0.48-0.199-0.926-0.016-1.148l16.797-20.016c0.48-0.574,0.66-0.426,0.879-0.238
		L297.023,208.297z"/>
	
		<linearGradient id="SVGID_3_" gradientUnits="userSpaceOnUse" x1="276.5254" y1="451.373" x2="276.5254" y2="358.3701" gradientTransform="matrix(0.5745 0.4821 0.4821 -0.5745 -174.3936 229.042)">
		<stop  offset="0" style="stop-color:#7CA8BA"/>
		<stop  offset="0.15" style="stop-color:#BDE2F3"/>
		<stop  offset="0.25" style="stop-color:#C2E4F4"/>
		<stop  offset="0.52" style="stop-color:#8BBDD1"/>
		<stop  offset="0.69" style="stop-color:#7CA8BA"/>
		<stop  offset="0.8" style="stop-color:#749EB0"/>
		<stop  offset="0.92" style="stop-color:#6E95A6"/>
	</linearGradient>
	<path fill="url(#SVGID_3_)" d="M88.898,8.051l226.367,189.945l-44.836,53.43L44.063,61.484L88.898,8.051z"/>
	
		<linearGradient id="SVGID_4_" gradientUnits="userSpaceOnUse" x1="87.7261" y1="451.375" x2="87.7261" y2="325.043" gradientTransform="matrix(0.5745 0.4821 0.4821 -0.5745 -172.9718 214.0996)">
		<stop  offset="0" style="stop-color:#7CA8BA"/>
		<stop  offset="0.15" style="stop-color:#BDE2F3"/>
		<stop  offset="0.25" style="stop-color:#C2E4F4"/>
		<stop  offset="0.52" style="stop-color:#8BBDD1"/>
		<stop  offset="0.69" style="stop-color:#7CA8BA"/>
		<stop  offset="0.8" style="stop-color:#749EB0"/>
		<stop  offset="0.92" style="stop-color:#6E95A6"/>
	</linearGradient>
	<path fill="url(#SVGID_4_)" d="M90.895-6.41l8.043,6.75c0.574,0.48,0.617,0.898,0.387,1.176l-60.07,71.121
		c-0.484,0.578-0.672,0.742-0.992,0.473l-8.109-7.129c-0.574-0.48-0.547-0.516-0.313-0.793l60-71.504
		c0.48-0.574,0.742-0.355,1.063-0.09L90.895-6.41z"/>
	
		<linearGradient id="SVGID_5_" gradientUnits="userSpaceOnUse" x1="87.7241" y1="451.375" x2="87.7241" y2="325.0459" gradientTransform="matrix(0.5745 0.4821 0.4821 -0.5745 54.9774 405.3711)">
		<stop  offset="0" style="stop-color:#7CA8BA"/>
		<stop  offset="0.15" style="stop-color:#BDE2F3"/>
		<stop  offset="0.25" style="stop-color:#C2E4F4"/>
		<stop  offset="0.52" style="stop-color:#8BBDD1"/>
		<stop  offset="0.69" style="stop-color:#7CA8BA"/>
		<stop  offset="0.8" style="stop-color:#749EB0"/>
		<stop  offset="0.92" style="stop-color:#6E95A6"/>
	</linearGradient>
	<path fill="url(#SVGID_5_)" d="M318.844,184.863l8.043,6.746c0.574,0.484,0.617,0.902,0.387,1.176l-60.074,71.125
		c-0.48,0.574-0.668,0.738-0.988,0.469l-8.109-7.125c-0.574-0.484-0.547-0.516-0.316-0.793l60.004-71.508
		c0.48-0.574,0.738-0.355,1.059-0.086L318.844,184.863z"/>
	
		<linearGradient id="SVGID_6_" gradientUnits="userSpaceOnUse" x1="99.1069" y1="213.2891" x2="99.1069" y2="119.8877" gradientTransform="matrix(0.75 0 0 -0.75 31.0996 254.0098)">
		<stop  offset="0" style="stop-color:#7CA8BA"/>
		<stop  offset="0.15" style="stop-color:#BDE2F3"/>
		<stop  offset="0.25" style="stop-color:#C2E4F4"/>
		<stop  offset="0.52" style="stop-color:#8BBDD1"/>
		<stop  offset="0.69" style="stop-color:#7CA8BA"/>
		<stop  offset="0.8" style="stop-color:#749EB0"/>
		<stop  offset="0.92" style="stop-color:#6E95A6"/>
	</linearGradient>
	<path fill="url(#SVGID_6_)" d="M42.059,94.043h40.5c0,0,29.492,0.891,54.086,22.66c24.664,21.59,32.156,47.391,32.156,47.391
		l-126.742-0.301V94.043z"/>
	
		<linearGradient id="SVGID_7_" gradientUnits="userSpaceOnUse" x1="111.6118" y1="213.2891" x2="111.6118" y2="120.2891" gradientTransform="matrix(0.75 0 0 -0.75 180.541 254.0098)">
		<stop  offset="0" style="stop-color:#7CA8BA"/>
		<stop  offset="0.15" style="stop-color:#BDE2F3"/>
		<stop  offset="0.25" style="stop-color:#C2E4F4"/>
		<stop  offset="0.52" style="stop-color:#8BBDD1"/>
		<stop  offset="0.69" style="stop-color:#7CA8BA"/>
		<stop  offset="0.8" style="stop-color:#749EB0"/>
		<stop  offset="0.92" style="stop-color:#6E95A6"/>
	</linearGradient>
	<path fill="url(#SVGID_7_)" d="M191.5,94.043H337v69.75h-61.5c0,0-30.086-6.383-56.57-28.156
		C192.25,113.543,191.5,94.043,191.5,94.043z"/>
	
		<linearGradient id="SVGID_8_" gradientUnits="userSpaceOnUse" x1="22.812" y1="213.2871" x2="22.812" y2="86.917" gradientTransform="matrix(0.75 0 0 -0.75 320.0513 241.6445)">
		<stop  offset="0" style="stop-color:#7CA8BA"/>
		<stop  offset="0.15" style="stop-color:#BDE2F3"/>
		<stop  offset="0.25" style="stop-color:#C2E4F4"/>
		<stop  offset="0.52" style="stop-color:#8BBDD1"/>
		<stop  offset="0.69" style="stop-color:#7CA8BA"/>
		<stop  offset="0.8" style="stop-color:#749EB0"/>
		<stop  offset="0.92" style="stop-color:#6E95A6"/>
	</linearGradient>
	<path fill="url(#SVGID_8_)" d="M331.762,81.68h10.5c0.75,0,1.047,0.293,1.047,0.652l-0.297,93.848c0,0-0.043,0.277-0.461,0.277
		l-10.789-0.277c-0.75,0-0.75-0.016-0.75-0.375V82.43c0-0.75,0.34-0.75,0.758-0.75H331.762z"/>
	
		<linearGradient id="SVGID_9_" gradientUnits="userSpaceOnUse" x1="22.811" y1="213.2871" x2="22.811" y2="86.917" gradientTransform="matrix(0.75 0 0 -0.75 22.5869 241.6445)">
		<stop  offset="0" style="stop-color:#7CA8BA"/>
		<stop  offset="0.15" style="stop-color:#BDE2F3"/>
		<stop  offset="0.25" style="stop-color:#C2E4F4"/>
		<stop  offset="0.52" style="stop-color:#8BBDD1"/>
		<stop  offset="0.69" style="stop-color:#7CA8BA"/>
		<stop  offset="0.8" style="stop-color:#749EB0"/>
		<stop  offset="0.92" style="stop-color:#6E95A6"/>
	</linearGradient>
	<path fill="url(#SVGID_9_)" d="M34.297,81.68h10.5c0.75,0,1.047,0.293,1.047,0.652l-0.297,93.848c0,0-0.043,0.277-0.461,0.277
		l-10.789-0.277c-0.75,0-0.75-0.016-0.75-0.375V82.43c0-0.75,0.34-0.75,0.758-0.75H34.297z"/>
</g>
</svg>
