<?xml version="1.0" encoding="utf-8"?>
<!-- Generator: Adobe Illustrator 16.0.0, SVG Export Plug-In . SVG Version: 6.00 Build 0)  -->
<!DOCTYPE svg PUBLIC "-//W3C//DTD SVG 1.1//EN" "http://www.w3.org/Graphics/SVG/1.1/DTD/svg11.dtd">
<svg preserveAspectRatio="none" version="1.1" id="图层_1" xmlns="http://www.w3.org/2000/svg" xmlns:xlink="http://www.w3.org/1999/xlink" x="0px" y="0px"
	 width="340.5px" height="263.977px" viewBox="30 9.328 340.5 263.977" enable-background="new 30 9.328 340.5 263.977"
	 xml:space="preserve">
<g id="surface886">
	
		<linearGradient id="SVGID_1_" gradientUnits="userSpaceOnUse" x1="69.0581" y1="194.79" x2="14.6147" y2="194.79" gradientTransform="matrix(0.75 0 0 -0.75 33.0659 188.377)">
		<stop  offset="0" style="stop-color:#AE4F52"/>
		<stop  offset="0.15" style="stop-color:#EC7D80"/>
		<stop  offset="0.25" style="stop-color:#F4C1C2"/>
		<stop  offset="0.52" style="stop-color:#CE5E62"/>
		<stop  offset="0.69" style="stop-color:#B75356"/>
		<stop  offset="0.8" style="stop-color:#AD4E51"/>
		<stop  offset="1" style="stop-color:#A3494C"/>
	</linearGradient>
	<path fill="url(#SVGID_1_)" d="M45.527,28.41h37.5c0.75,0,1.832,0.832,1.832,1.883L84.527,56.16h-40.5v-25.5
		c0-1.5,0.742-2.25,1.656-2.25H45.527z"/>
	
		<linearGradient id="SVGID_2_" gradientUnits="userSpaceOnUse" x1="88.6118" y1="197.165" x2="14.6118" y2="197.165" gradientTransform="matrix(0.75 0 0 -0.75 25.8223 169.375)">
		<stop  offset="0" style="stop-color:#AE4F52"/>
		<stop  offset="0.15" style="stop-color:#EC7D80"/>
		<stop  offset="0.25" style="stop-color:#F4C1C2"/>
		<stop  offset="0.52" style="stop-color:#CE5E62"/>
		<stop  offset="0.69" style="stop-color:#B75356"/>
		<stop  offset="0.8" style="stop-color:#AD4E51"/>
		<stop  offset="1" style="stop-color:#A3494C"/>
	</linearGradient>
	<path fill="url(#SVGID_2_)" d="M40.531,9.41h48c2.25,0,3.57,1.566,3.57,3.602l0.18,16.648c0,2.25-1.871,4.016-3.91,4.016
		l-47.84-0.266c-2.25,0-3.75-1.383-3.75-3.418V13.16c0-2.25,1.609-3.832,3.648-3.832L40.531,9.41z"/>
	
		<linearGradient id="SVGID_3_" gradientUnits="userSpaceOnUse" x1="69.0581" y1="210.7881" x2="14.6147" y2="210.7881" gradientTransform="matrix(0.75 0 0 -0.75 33.0659 193.6797)">
		<stop  offset="0" style="stop-color:#983235"/>
		<stop  offset="0.15" style="stop-color:#D16164"/>
		<stop  offset="0.25" style="stop-color:#E6B9BA"/>
		<stop  offset="0.52" style="stop-color:#B43D41"/>
		<stop  offset="0.69" style="stop-color:#A03538"/>
		<stop  offset="0.8" style="stop-color:#973235"/>
		<stop  offset="1" style="stop-color:#8E2E31"/>
	</linearGradient>
	<path fill="url(#SVGID_3_)" d="M45.527,33.715h37.5c0.75,0,1.832,0.109,1.832,0.246l-0.332,3.504h-40.5v-3.75c0,0,0.742,0,1.656,0
		H45.527z"/>
	
		<linearGradient id="SVGID_4_" gradientUnits="userSpaceOnUse" x1="69.0586" y1="194.79" x2="14.6104" y2="194.79" gradientTransform="matrix(0.75 0 0 -0.75 100.9404 188.377)">
		<stop  offset="0" style="stop-color:#AE4F52"/>
		<stop  offset="0.15" style="stop-color:#EC7D80"/>
		<stop  offset="0.25" style="stop-color:#F4C1C2"/>
		<stop  offset="0.52" style="stop-color:#CE5E62"/>
		<stop  offset="0.69" style="stop-color:#B75356"/>
		<stop  offset="0.8" style="stop-color:#AD4E51"/>
		<stop  offset="1" style="stop-color:#A3494C"/>
	</linearGradient>
	<path fill="url(#SVGID_4_)" d="M113.398,28.41h37.5c0.75,0,1.836,0.832,1.836,1.883l-0.336,25.867h-40.5v-25.5
		c0-1.5,0.742-2.25,1.66-2.25H113.398z"/>
	
		<linearGradient id="SVGID_5_" gradientUnits="userSpaceOnUse" x1="88.6123" y1="197.165" x2="14.6123" y2="197.165" gradientTransform="matrix(0.75 0 0 -0.75 93.6968 169.375)">
		<stop  offset="0" style="stop-color:#AE4F52"/>
		<stop  offset="0.15" style="stop-color:#EC7D80"/>
		<stop  offset="0.25" style="stop-color:#F4C1C2"/>
		<stop  offset="0.52" style="stop-color:#CE5E62"/>
		<stop  offset="0.69" style="stop-color:#B75356"/>
		<stop  offset="0.8" style="stop-color:#AD4E51"/>
		<stop  offset="1" style="stop-color:#A3494C"/>
	</linearGradient>
	<path fill="url(#SVGID_5_)" d="M108.406,9.41h48c2.25,0,3.57,1.566,3.57,3.602l0.18,16.648c0,2.25-1.871,4.016-3.91,4.016
		l-47.84-0.266c-2.25,0-3.75-1.383-3.75-3.418V13.16c0-2.25,1.609-3.832,3.648-3.832L108.406,9.41z"/>
	
		<linearGradient id="SVGID_6_" gradientUnits="userSpaceOnUse" x1="69.0586" y1="210.7881" x2="14.6104" y2="210.7881" gradientTransform="matrix(0.75 0 0 -0.75 100.9404 193.6797)">
		<stop  offset="0" style="stop-color:#983235"/>
		<stop  offset="0.15" style="stop-color:#D16164"/>
		<stop  offset="0.25" style="stop-color:#E6B9BA"/>
		<stop  offset="0.52" style="stop-color:#B43D41"/>
		<stop  offset="0.69" style="stop-color:#A03538"/>
		<stop  offset="0.8" style="stop-color:#973235"/>
		<stop  offset="1" style="stop-color:#8E2E31"/>
	</linearGradient>
	<path fill="url(#SVGID_6_)" d="M113.398,33.715h37.5c0.75,0,1.836,0.109,1.836,0.246l-0.336,3.504h-40.5v-3.75c0,0,0.742,0,1.66,0
		H113.398z"/>
	
		<linearGradient id="SVGID_7_" gradientUnits="userSpaceOnUse" x1="69.0547" y1="194.79" x2="14.6123" y2="194.79" gradientTransform="matrix(0.75 0 0 -0.75 168.7905 188.377)">
		<stop  offset="0" style="stop-color:#AE4F52"/>
		<stop  offset="0.15" style="stop-color:#EC7D80"/>
		<stop  offset="0.25" style="stop-color:#F4C1C2"/>
		<stop  offset="0.52" style="stop-color:#CE5E62"/>
		<stop  offset="0.69" style="stop-color:#B75356"/>
		<stop  offset="0.8" style="stop-color:#AD4E51"/>
		<stop  offset="1" style="stop-color:#A3494C"/>
	</linearGradient>
	<path fill="url(#SVGID_7_)" d="M181.25,28.41h37.5c0.75,0,1.832,0.832,1.832,1.883L220.25,56.16h-40.5v-25.5
		c0-1.5,0.742-2.25,1.656-2.25H181.25z"/>
	
		<linearGradient id="SVGID_8_" gradientUnits="userSpaceOnUse" x1="88.6138" y1="197.165" x2="14.6138" y2="197.165" gradientTransform="matrix(0.75 0 0 -0.75 161.5474 169.375)">
		<stop  offset="0" style="stop-color:#AE4F52"/>
		<stop  offset="0.15" style="stop-color:#EC7D80"/>
		<stop  offset="0.25" style="stop-color:#F4C1C2"/>
		<stop  offset="0.52" style="stop-color:#CE5E62"/>
		<stop  offset="0.69" style="stop-color:#B75356"/>
		<stop  offset="0.8" style="stop-color:#AD4E51"/>
		<stop  offset="1" style="stop-color:#A3494C"/>
	</linearGradient>
	<path fill="url(#SVGID_8_)" d="M176.258,9.41h48c2.25,0,3.57,1.566,3.57,3.602l0.18,16.648c0,2.25-1.875,4.016-3.91,4.016
		l-47.84-0.266c-2.25,0-3.75-1.383-3.75-3.418V13.16c0-2.25,1.609-3.832,3.645-3.832L176.258,9.41z"/>
	
		<linearGradient id="SVGID_9_" gradientUnits="userSpaceOnUse" x1="69.0547" y1="210.7881" x2="14.6123" y2="210.7881" gradientTransform="matrix(0.75 0 0 -0.75 168.7905 193.6797)">
		<stop  offset="0" style="stop-color:#983235"/>
		<stop  offset="0.15" style="stop-color:#D16164"/>
		<stop  offset="0.25" style="stop-color:#E6B9BA"/>
		<stop  offset="0.52" style="stop-color:#B43D41"/>
		<stop  offset="0.69" style="stop-color:#A03538"/>
		<stop  offset="0.8" style="stop-color:#973235"/>
		<stop  offset="1" style="stop-color:#8E2E31"/>
	</linearGradient>
	<path fill="url(#SVGID_9_)" d="M181.25,33.715h37.5c0.75,0,1.832,0.109,1.832,0.246l-0.332,3.504h-40.5v-3.75c0,0,0.742,0,1.656,0
		H181.25z"/>
	
		<linearGradient id="SVGID_10_" gradientUnits="userSpaceOnUse" x1="69.0542" y1="194.79" x2="14.6118" y2="194.79" gradientTransform="matrix(0.75 0 0 -0.75 236.6895 188.377)">
		<stop  offset="0" style="stop-color:#AE4F52"/>
		<stop  offset="0.15" style="stop-color:#EC7D80"/>
		<stop  offset="0.25" style="stop-color:#F4C1C2"/>
		<stop  offset="0.52" style="stop-color:#CE5E62"/>
		<stop  offset="0.69" style="stop-color:#B75356"/>
		<stop  offset="0.8" style="stop-color:#AD4E51"/>
		<stop  offset="1" style="stop-color:#A3494C"/>
	</linearGradient>
	<path fill="url(#SVGID_10_)" d="M249.148,28.41h37.5c0.75,0,1.832,0.832,1.832,1.883l-0.332,25.867h-40.5v-25.5
		c0-1.5,0.742-2.25,1.656-2.25H249.148z"/>
	
		<linearGradient id="SVGID_11_" gradientUnits="userSpaceOnUse" x1="88.6128" y1="197.165" x2="14.6128" y2="197.165" gradientTransform="matrix(0.75 0 0 -0.75 229.4463 169.375)">
		<stop  offset="0" style="stop-color:#AE4F52"/>
		<stop  offset="0.15" style="stop-color:#EC7D80"/>
		<stop  offset="0.25" style="stop-color:#F4C1C2"/>
		<stop  offset="0.52" style="stop-color:#CE5E62"/>
		<stop  offset="0.69" style="stop-color:#B75356"/>
		<stop  offset="0.8" style="stop-color:#AD4E51"/>
		<stop  offset="1" style="stop-color:#A3494C"/>
	</linearGradient>
	<path fill="url(#SVGID_11_)" d="M244.156,9.41h48c2.25,0,3.57,1.566,3.57,3.602l0.18,16.648c0,2.25-1.871,4.016-3.91,4.016
		l-47.84-0.266c-2.25,0-3.75-1.383-3.75-3.418V13.16c0-2.25,1.609-3.832,3.648-3.832L244.156,9.41z"/>
	
		<linearGradient id="SVGID_12_" gradientUnits="userSpaceOnUse" x1="69.0542" y1="210.7881" x2="14.6118" y2="210.7881" gradientTransform="matrix(0.75 0 0 -0.75 236.6895 193.6797)">
		<stop  offset="0" style="stop-color:#983235"/>
		<stop  offset="0.15" style="stop-color:#D16164"/>
		<stop  offset="0.25" style="stop-color:#E6B9BA"/>
		<stop  offset="0.52" style="stop-color:#B43D41"/>
		<stop  offset="0.69" style="stop-color:#A03538"/>
		<stop  offset="0.8" style="stop-color:#973235"/>
		<stop  offset="1" style="stop-color:#8E2E31"/>
	</linearGradient>
	<path fill="url(#SVGID_12_)" d="M249.148,33.715h37.5c0.75,0,1.832,0.109,1.832,0.246l-0.332,3.504h-40.5v-3.75
		c0,0,0.742,0,1.656,0H249.148z"/>
	
		<linearGradient id="SVGID_13_" gradientUnits="userSpaceOnUse" x1="69.0542" y1="194.79" x2="14.6118" y2="194.79" gradientTransform="matrix(0.75 0 0 -0.75 304.5645 188.377)">
		<stop  offset="0" style="stop-color:#AE4F52"/>
		<stop  offset="0.15" style="stop-color:#EC7D80"/>
		<stop  offset="0.25" style="stop-color:#F4C1C2"/>
		<stop  offset="0.52" style="stop-color:#CE5E62"/>
		<stop  offset="0.69" style="stop-color:#B75356"/>
		<stop  offset="0.8" style="stop-color:#AD4E51"/>
		<stop  offset="1" style="stop-color:#A3494C"/>
	</linearGradient>
	<path fill="url(#SVGID_13_)" d="M317.023,28.41h37.5c0.75,0,1.832,0.832,1.832,1.883l-0.332,25.867h-40.5v-25.5
		c0-1.5,0.742-2.25,1.656-2.25H317.023z"/>
	
		<linearGradient id="SVGID_14_" gradientUnits="userSpaceOnUse" x1="88.6138" y1="197.165" x2="14.6138" y2="197.165" gradientTransform="matrix(0.75 0 0 -0.75 297.3208 169.375)">
		<stop  offset="0" style="stop-color:#AE4F52"/>
		<stop  offset="0.15" style="stop-color:#EC7D80"/>
		<stop  offset="0.25" style="stop-color:#F4C1C2"/>
		<stop  offset="0.52" style="stop-color:#CE5E62"/>
		<stop  offset="0.69" style="stop-color:#B75356"/>
		<stop  offset="0.8" style="stop-color:#AD4E51"/>
		<stop  offset="1" style="stop-color:#A3494C"/>
	</linearGradient>
	<path fill="url(#SVGID_14_)" d="M312.031,9.41h48c2.25,0,3.57,1.566,3.57,3.602l0.18,16.648c0,2.25-1.875,4.016-3.91,4.016
		l-47.84-0.266c-2.25,0-3.75-1.383-3.75-3.418V13.16c0-2.25,1.609-3.832,3.645-3.832L312.031,9.41z"/>
	
		<linearGradient id="SVGID_15_" gradientUnits="userSpaceOnUse" x1="69.0542" y1="210.7881" x2="14.6118" y2="210.7881" gradientTransform="matrix(0.75 0 0 -0.75 304.5645 193.6797)">
		<stop  offset="0" style="stop-color:#983235"/>
		<stop  offset="0.15" style="stop-color:#D16164"/>
		<stop  offset="0.25" style="stop-color:#E6B9BA"/>
		<stop  offset="0.52" style="stop-color:#B43D41"/>
		<stop  offset="0.69" style="stop-color:#A03538"/>
		<stop  offset="0.8" style="stop-color:#973235"/>
		<stop  offset="1" style="stop-color:#8E2E31"/>
	</linearGradient>
	<path fill="url(#SVGID_15_)" d="M317.023,33.715h37.5c0.75,0,1.832,0.109,1.832,0.246l-0.332,3.504h-40.5v-3.75
		c0,0,0.742,0,1.656,0H317.023z"/>
	
		<linearGradient id="SVGID_16_" gradientUnits="userSpaceOnUse" x1="468.6123" y1="205.2861" x2="14.6123" y2="205.2861" gradientTransform="matrix(0.75 0 0 -0.75 19.04 421.2676)">
		<stop  offset="0" style="stop-color:#A64B4E"/>
		<stop  offset="0.01" style="stop-color:#EF9A9C"/>
		<stop  offset="0.05" style="stop-color:#D86468"/>
		<stop  offset="0.9" style="stop-color:#D56266"/>
		<stop  offset="0.95" style="stop-color:#D06063"/>
		<stop  offset="1" style="stop-color:#9A4548"/>
	</linearGradient>
	<path fill="url(#SVGID_16_)" d="M30,261.305h340.5v12H30V261.305z"/>
	
		<linearGradient id="SVGID_17_" gradientUnits="userSpaceOnUse" x1="468.6123" y1="77.7861" x2="14.6123" y2="77.7861" gradientTransform="matrix(0.75 0 0 -0.75 19.04 218.3926)">
		<stop  offset="0" style="stop-color:#A96460"/>
		<stop  offset="0.01" style="stop-color:#F2ADAA"/>
		<stop  offset="0.05" style="stop-color:#DC837F"/>
		<stop  offset="0.9" style="stop-color:#D9817D"/>
		<stop  offset="0.95" style="stop-color:#D47E7A"/>
		<stop  offset="1" style="stop-color:#9D5C59"/>
	</linearGradient>
	<path fill="url(#SVGID_17_)" d="M30,58.43h340.5v203.25H30V58.43z"/>
	
		<linearGradient id="SVGID_18_" gradientUnits="userSpaceOnUse" x1="468.6123" y1="205.2881" x2="14.6123" y2="205.288" gradientTransform="matrix(0.75 0 0 -0.75 19.04 206.0313)">
		<stop  offset="0" style="stop-color:#A64B4E"/>
		<stop  offset="0.01" style="stop-color:#EF9A9C"/>
		<stop  offset="0.05" style="stop-color:#D86468"/>
		<stop  offset="0.9" style="stop-color:#D56266"/>
		<stop  offset="0.95" style="stop-color:#D06063"/>
		<stop  offset="1" style="stop-color:#9A4548"/>
	</linearGradient>
	<path fill="url(#SVGID_18_)" d="M30,46.066h340.5v12H30V46.066z"/>
</g>
</svg>
