<?xml version="1.0" encoding="utf-8"?>
<!-- Generator: Adobe Illustrator 16.0.0, SVG Export Plug-In . SVG Version: 6.00 Build 0)  -->
<!DOCTYPE svg PUBLIC "-//W3C//DTD SVG 1.1//EN" "http://www.w3.org/Graphics/SVG/1.1/DTD/svg11.dtd">
<svg preserveAspectRatio="none" version="1.1" id="图层_1" xmlns="http://www.w3.org/2000/svg" xmlns:xlink="http://www.w3.org/1999/xlink" x="0px" y="0px"
	 width="340.711px" height="181.109px" viewBox="29.988 50.934 340.711 181.109"
	 enable-background="new 29.988 50.934 340.711 181.109" xml:space="preserve">
<g id="surface686">
	
		<linearGradient id="SVGID_1_" gradientUnits="userSpaceOnUse" x1="29.8989" y1="207.6787" x2="14.6118" y2="207.6787" gradientTransform="matrix(0.75 0 0 -0.75 309.5249 290.3477)">
		<stop  offset="0" style="stop-color:#3B9193"/>
		<stop  offset="0.15" style="stop-color:#67C3C5"/>
		<stop  offset="0.25" style="stop-color:#BBDEE0"/>
		<stop  offset="0.52" style="stop-color:#45A6A9"/>
		<stop  offset="0.69" style="stop-color:#3C9396"/>
		<stop  offset="0.8" style="stop-color:#388B8D"/>
		<stop  offset="0.97" style="stop-color:#358385"/>
		<stop  offset="1" style="stop-color:#3E9799"/>
	</linearGradient>
	<path fill="url(#SVGID_1_)" d="M321.234,130.383h9.75c0.75,0,0.965,0.293,0.965,0.664l-0.215,6.836c0,0.75-0.086,0.926-0.457,0.926
		l-10.043-0.176c-0.75,0-0.75-0.129-0.75-0.5v-7c0-0.75,0.297-0.762,0.668-0.762L321.234,130.383z"/>
	
		<linearGradient id="SVGID_2_" gradientUnits="userSpaceOnUse" x1="42.0308" y1="210.6035" x2="14.6138" y2="210.6035" gradientTransform="matrix(0.75 0 0 -0.75 304.9648 297.0957)">
		<stop  offset="0" style="stop-color:#3B9193"/>
		<stop  offset="0.15" style="stop-color:#67C3C5"/>
		<stop  offset="0.25" style="stop-color:#BBDEE0"/>
		<stop  offset="0.52" style="stop-color:#45A6A9"/>
		<stop  offset="0.69" style="stop-color:#3C9396"/>
		<stop  offset="0.8" style="stop-color:#388B8D"/>
		<stop  offset="0.97" style="stop-color:#358385"/>
		<stop  offset="1" style="stop-color:#3E9799"/>
	</linearGradient>
	<path fill="url(#SVGID_2_)" d="M316.676,137.133h19.5c0,0,0.313,0.289,0.313,0.664l-0.313,2.336c0,0.75,0.012,1.035-0.359,1.035
		l-19.141-0.285c-0.75,0-0.75-0.016-0.75-0.387v-2.613c0-0.75,0.285-0.762,0.656-0.762L316.676,137.133z"/>
	
		<linearGradient id="SVGID_3_" gradientUnits="userSpaceOnUse" x1="36.1143" y1="213.3027" x2="36.1143" y2="206.2871" gradientTransform="matrix(0.75 0 0 -0.75 327.4883 248.1719)">
		<stop  offset="0" style="stop-color:#424141"/>
		<stop  offset="0.15" style="stop-color:#6D6C6C"/>
		<stop  offset="0.25" style="stop-color:#BCBCBC"/>
		<stop  offset="0.52" style="stop-color:#4D4B4B"/>
		<stop  offset="0.69" style="stop-color:#434242"/>
		<stop  offset="0.8" style="stop-color:#3F3E3E"/>
		<stop  offset="0.97" style="stop-color:#3B3A3A"/>
		<stop  offset="1" style="stop-color:#454444"/>
	</linearGradient>
	<path fill="url(#SVGID_3_)" d="M339.199,88.207h30.75c0,0,0.551,0.293,0.551,0.664l0.199,3.836c0,0-0.5,0.551-0.875,0.551
		l-30.625,0.199c-0.75,0-0.75-0.5-0.75-0.875v-3.625c0-0.75,0.301-0.762,0.672-0.762L339.199,88.207z"/>
	
		<linearGradient id="SVGID_4_" gradientUnits="userSpaceOnUse" x1="17.7354" y1="213.2842" x2="17.7354" y2="195.2842" gradientTransform="matrix(0.75 0 0 -0.75 322.5327 258.7949)">
		<stop  offset="0" style="stop-color:#3B9193"/>
		<stop  offset="0.15" style="stop-color:#67C3C5"/>
		<stop  offset="0.25" style="stop-color:#BBDEE0"/>
		<stop  offset="0.52" style="stop-color:#45A6A9"/>
		<stop  offset="0.69" style="stop-color:#3C9396"/>
		<stop  offset="0.8" style="stop-color:#388B8D"/>
		<stop  offset="0.97" style="stop-color:#358385"/>
		<stop  offset="1" style="stop-color:#3E9799"/>
	</linearGradient>
	<path fill="url(#SVGID_4_)" d="M334.242,98.832h3c0.75,0,0.953,0.297,0.953,0.668l-0.203,12.082c0,0-0.098,0.402-0.473,0.402
		l-3.277,0.348c-0.75,0-0.77-0.648-0.77-1.023l0.02-11.727c0-0.75,0.281-0.75,0.652-0.75H334.242z"/>
	
		<linearGradient id="SVGID_5_" gradientUnits="userSpaceOnUse" x1="19.6118" y1="213.2871" x2="19.6118" y2="167.2871" gradientTransform="matrix(0.75 0 0 -0.75 291.8931 249.6953)">
		<stop  offset="0" style="stop-color:#3B9193"/>
		<stop  offset="0.15" style="stop-color:#67C3C5"/>
		<stop  offset="0.25" style="stop-color:#BBDEE0"/>
		<stop  offset="0.52" style="stop-color:#45A6A9"/>
		<stop  offset="0.69" style="stop-color:#3C9396"/>
		<stop  offset="0.8" style="stop-color:#388B8D"/>
		<stop  offset="0.97" style="stop-color:#358385"/>
		<stop  offset="1" style="stop-color:#3E9799"/>
	</linearGradient>
	<path fill="url(#SVGID_5_)" d="M302.852,89.73h7.5v34.5h-7.5V89.73z"/>
	
		<linearGradient id="SVGID_6_" gradientUnits="userSpaceOnUse" x1="147.1328" y1="213.2832" x2="147.1328" y2="201.8145" gradientTransform="matrix(0.75 0 0 -0.75 62.918 368.7832)">
		<stop  offset="0" style="stop-color:#3B9193"/>
		<stop  offset="0.15" style="stop-color:#67C3C5"/>
		<stop  offset="0.25" style="stop-color:#BBDEE0"/>
		<stop  offset="0.52" style="stop-color:#45A6A9"/>
		<stop  offset="0.69" style="stop-color:#3C9396"/>
		<stop  offset="0.8" style="stop-color:#388B8D"/>
		<stop  offset="0.97" style="stop-color:#358385"/>
		<stop  offset="1" style="stop-color:#3E9799"/>
	</linearGradient>
	<path fill="url(#SVGID_6_)" d="M74.629,208.82h197.25c0.75,0,0.777,0.121,0.777,0.273l-0.027,7.977c0,0,0.027,0.352-0.406,0.352
		L74.629,217.07c-0.75,0-0.75,0.23-0.75,0.078v-8.328c0,0,0,0,0.434,0H74.629z"/>
	
		<linearGradient id="SVGID_7_" gradientUnits="userSpaceOnUse" x1="19.7695" y1="213.2891" x2="19.7695" y2="143.2891" gradientTransform="matrix(0.75 0 0 -0.75 206.6338 240.9238)">
		<stop  offset="0" style="stop-color:#3B9193"/>
		<stop  offset="0.08" style="stop-color:#67C3C5"/>
		<stop  offset="0.15" style="stop-color:#92CECF"/>
		<stop  offset="0.31" style="stop-color:#45A6A9"/>
		<stop  offset="0.59" style="stop-color:#3C9396"/>
		<stop  offset="0.8" style="stop-color:#388B8D"/>
		<stop  offset="0.97" style="stop-color:#358385"/>
		<stop  offset="1" style="stop-color:#3E9799"/>
	</linearGradient>
	<path fill="url(#SVGID_7_)" d="M218.344,80.957h6c0.75,0,1,0.293,1,0.664l-0.25,51.086c0,0-0.059,0.551-0.43,0.551l-6.32,0.199
		c-0.75,0-0.766-0.512-0.766-0.887l0.016-50.863c0-0.75,0.285-0.75,0.66-0.75H218.344z"/>
	
		<linearGradient id="SVGID_8_" gradientUnits="userSpaceOnUse" x1="45.6118" y1="167.7871" x2="14.6118" y2="167.7871" gradientTransform="matrix(0.75 0 0 -0.75 40.3027 323.1211)">
		<stop  offset="0" style="stop-color:#368688"/>
		<stop  offset="0.01" style="stop-color:#8CCDCF"/>
		<stop  offset="0.03" style="stop-color:#49AFB2"/>
		<stop  offset="0.64" style="stop-color:#48ACAF"/>
		<stop  offset="0.99" style="stop-color:#46A8AB"/>
		<stop  offset="1" style="stop-color:#317C7E"/>
	</linearGradient>
	<path fill="url(#SVGID_8_)" d="M51.262,163.156h23.25v68.25h-23.25V163.156z"/>
	
		<linearGradient id="SVGID_9_" gradientUnits="userSpaceOnUse" x1="61.8486" y1="208.0371" x2="14.6143" y2="208.0371" gradientTransform="matrix(0.75 0 0 -0.75 34.1172 384.1348)">
		<stop  offset="0" style="stop-color:#368688"/>
		<stop  offset="0.01" style="stop-color:#8CCDCF"/>
		<stop  offset="0.03" style="stop-color:#49AFB2"/>
		<stop  offset="0.64" style="stop-color:#48ACAF"/>
		<stop  offset="0.99" style="stop-color:#46A8AB"/>
		<stop  offset="1" style="stop-color:#317C7E"/>
	</linearGradient>
	<path fill="url(#SVGID_9_)" d="M45.828,224.172h33.75c0.75,0,0.926,0.301,0.926,0.672l-0.176,6.828c0,0-0.145,0.371-0.516,0.371
		l-33.984-0.371c-0.75,0-0.75,0.07-0.75-0.305v-6.445c0-0.75,0.285-0.75,0.656-0.75H45.828z"/>
	
		<linearGradient id="SVGID_10_" gradientUnits="userSpaceOnUse" x1="249.6133" y1="138.2896" x2="14.6133" y2="138.2895" gradientTransform="matrix(0.75 0 0 -0.75 30.4883 210.9004)">
		<stop  offset="0" style="stop-color:#368688"/>
		<stop  offset="0.01" style="stop-color:#8CCDCF"/>
		<stop  offset="0.03" style="stop-color:#49AFB2"/>
		<stop  offset="0.64" style="stop-color:#48ACAF"/>
		<stop  offset="0.99" style="stop-color:#46A8AB"/>
		<stop  offset="1" style="stop-color:#317C7E"/>
	</linearGradient>
	<path fill="url(#SVGID_10_)" d="M42.199,50.934h174.75c0,0,0.629,0.281,0.629,0.656l0.121,111.094c0,0-0.438,0.598-0.809,0.598
		l-174.691,0.152c-0.75,0-0.75-0.465-0.75-0.84V51.684c0-0.75,0.301-0.75,0.672-0.75H42.199z"/>
	
		<linearGradient id="SVGID_11_" gradientUnits="userSpaceOnUse" x1="67.0977" y1="182.7881" x2="14.6133" y2="182.7881" gradientTransform="matrix(0.75 0 0 -0.75 252.8403 244.2969)">
		<stop  offset="0" style="stop-color:#368688"/>
		<stop  offset="0.01" style="stop-color:#8CCDCF"/>
		<stop  offset="0.03" style="stop-color:#49AFB2"/>
		<stop  offset="0.64" style="stop-color:#48ACAF"/>
		<stop  offset="0.99" style="stop-color:#46A8AB"/>
		<stop  offset="1" style="stop-color:#317C7E"/>
	</linearGradient>
	<path fill="url(#SVGID_11_)" d="M264.551,84.332h38.25c0,0,0.363,0.285,0.363,0.656l-0.363,44.344c0,0,0.102,0.551-0.215,0.551
		l-38.035,0.199c-0.75,0-0.75-0.52-0.75-0.891V85.082c0-0.75,0.254-0.75,0.57-0.75H264.551z"/>
	
		<linearGradient id="SVGID_12_" gradientUnits="userSpaceOnUse" x1="45.6108" y1="152.7881" x2="14.6108" y2="152.7881" gradientTransform="matrix(0.75 0 0 -0.75 261.0029 301.1797)">
		<stop  offset="0" style="stop-color:#368688"/>
		<stop  offset="0.01" style="stop-color:#8CCDCF"/>
		<stop  offset="0.03" style="stop-color:#49AFB2"/>
		<stop  offset="0.64" style="stop-color:#48ACAF"/>
		<stop  offset="0.99" style="stop-color:#46A8AB"/>
		<stop  offset="1" style="stop-color:#317C7E"/>
	</linearGradient>
	<path fill="url(#SVGID_12_)" d="M271.961,141.215h23.25v90.75h-23.25V141.215z"/>
	
		<linearGradient id="SVGID_13_" gradientUnits="userSpaceOnUse" x1="61.8472" y1="208.0391" x2="14.6128" y2="208.0391" gradientTransform="matrix(0.75 0 0 -0.75 254.8174 384.1357)">
		<stop  offset="0" style="stop-color:#368688"/>
		<stop  offset="0.01" style="stop-color:#8CCDCF"/>
		<stop  offset="0.03" style="stop-color:#49AFB2"/>
		<stop  offset="0.64" style="stop-color:#48ACAF"/>
		<stop  offset="0.99" style="stop-color:#46A8AB"/>
		<stop  offset="1" style="stop-color:#317C7E"/>
	</linearGradient>
	<path fill="url(#SVGID_13_)" d="M266.527,224.172h33.75c0.75,0,0.926,0.301,0.926,0.672l-0.176,6.828c0,0-0.145,0.371-0.516,0.371
		l-33.984-0.371c-0.75,0-0.75,0.07-0.75-0.305v-6.445c0-0.75,0.285-0.75,0.656-0.75H266.527z"/>
	
		<linearGradient id="SVGID_14_" gradientUnits="userSpaceOnUse" x1="40.6138" y1="213.2842" x2="40.6138" y2="197.2842" gradientTransform="matrix(0.75 0 0 -0.75 252.8403 289.3809)">
		<stop  offset="0" style="stop-color:#368688"/>
		<stop  offset="0.01" style="stop-color:#8CCDCF"/>
		<stop  offset="0.03" style="stop-color:#49AFB2"/>
		<stop  offset="0.64" style="stop-color:#48ACAF"/>
		<stop  offset="0.99" style="stop-color:#46A8AB"/>
		<stop  offset="1" style="stop-color:#317C7E"/>
	</linearGradient>
	<path fill="url(#SVGID_14_)" d="M263.801,129.418h39l-7.5,12h-23.25L263.801,129.418z"/>
	
		<linearGradient id="SVGID_15_" gradientUnits="userSpaceOnUse" x1="24.7134" y1="192.5869" x2="14.5835" y2="192.5869" gradientTransform="matrix(0.75 0 0 -0.75 34.9604 224.1855)">
		<stop  offset="0" style="stop-color:#3B9193"/>
		<stop  offset="0.15" style="stop-color:#67C3C5"/>
		<stop  offset="0.25" style="stop-color:#BBDEE0"/>
		<stop  offset="0.52" style="stop-color:#45A6A9"/>
		<stop  offset="0.69" style="stop-color:#3C9396"/>
		<stop  offset="0.8" style="stop-color:#388B8D"/>
		<stop  offset="0.97" style="stop-color:#358385"/>
		<stop  offset="1" style="stop-color:#3E9799"/>
	</linearGradient>
	<path fill="url(#SVGID_15_)" d="M46.672,64.219h6c0.75,0,0.824,0.352,0.824,0.809l-0.074,29.191c0,0.75-0.297,1.055-0.758,1.055
		l-5.992-0.305c-0.75,0-0.773-0.09-0.773-0.547l0.023-29.453c0-0.75,0.348-0.75,0.805-0.75H46.672z"/>
	
		<linearGradient id="SVGID_16_" gradientUnits="userSpaceOnUse" x1="24.7124" y1="192.5869" x2="14.5874" y2="192.5869" gradientTransform="matrix(0.75 0 0 -0.75 45.5713 224.1855)">
		<stop  offset="0" style="stop-color:#3B9193"/>
		<stop  offset="0.15" style="stop-color:#67C3C5"/>
		<stop  offset="0.25" style="stop-color:#BBDEE0"/>
		<stop  offset="0.52" style="stop-color:#45A6A9"/>
		<stop  offset="0.69" style="stop-color:#3C9396"/>
		<stop  offset="0.8" style="stop-color:#388B8D"/>
		<stop  offset="0.97" style="stop-color:#358385"/>
		<stop  offset="1" style="stop-color:#3E9799"/>
	</linearGradient>
	<path fill="url(#SVGID_16_)" d="M57.281,64.219h6c0.75,0,0.824,0.352,0.824,0.809l-0.074,29.191c0,0.75-0.297,1.055-0.754,1.055
		l-5.996-0.305c-0.75,0-0.77-0.09-0.77-0.547l0.02-29.453c0-0.75,0.348-0.75,0.809-0.75H57.281z"/>
	
		<linearGradient id="SVGID_17_" gradientUnits="userSpaceOnUse" x1="24.71" y1="192.5869" x2="14.585" y2="192.5869" gradientTransform="matrix(0.75 0 0 -0.75 56.1821 224.1855)">
		<stop  offset="0" style="stop-color:#3B9193"/>
		<stop  offset="0.15" style="stop-color:#67C3C5"/>
		<stop  offset="0.25" style="stop-color:#BBDEE0"/>
		<stop  offset="0.52" style="stop-color:#45A6A9"/>
		<stop  offset="0.69" style="stop-color:#3C9396"/>
		<stop  offset="0.8" style="stop-color:#388B8D"/>
		<stop  offset="0.97" style="stop-color:#358385"/>
		<stop  offset="1" style="stop-color:#3E9799"/>
	</linearGradient>
	<path fill="url(#SVGID_17_)" d="M67.891,64.219h6c0.75,0,0.824,0.352,0.824,0.809l-0.074,29.191c0,0.75-0.297,1.055-0.754,1.055
		l-5.996-0.305c-0.75,0-0.77-0.09-0.77-0.547l0.02-29.453c0-0.75,0.352-0.75,0.809-0.75H67.891z"/>
	
		<linearGradient id="SVGID_18_" gradientUnits="userSpaceOnUse" x1="24.7134" y1="192.5869" x2="14.5825" y2="192.5869" gradientTransform="matrix(0.75 0 0 -0.75 66.793 224.1855)">
		<stop  offset="0" style="stop-color:#3B9193"/>
		<stop  offset="0.15" style="stop-color:#67C3C5"/>
		<stop  offset="0.25" style="stop-color:#BBDEE0"/>
		<stop  offset="0.52" style="stop-color:#45A6A9"/>
		<stop  offset="0.69" style="stop-color:#3C9396"/>
		<stop  offset="0.8" style="stop-color:#388B8D"/>
		<stop  offset="0.97" style="stop-color:#358385"/>
		<stop  offset="1" style="stop-color:#3E9799"/>
	</linearGradient>
	<path fill="url(#SVGID_18_)" d="M78.504,64.219h6c0.75,0,0.824,0.352,0.824,0.809l-0.074,29.191c0,0.75-0.297,1.055-0.754,1.055
		l-5.996-0.305c-0.75,0-0.773-0.09-0.773-0.547l0.023-29.453c0-0.75,0.348-0.75,0.805-0.75H78.504z"/>
	
		<linearGradient id="SVGID_19_" gradientUnits="userSpaceOnUse" x1="24.7114" y1="192.5869" x2="14.5864" y2="192.5869" gradientTransform="matrix(0.75 0 0 -0.75 77.4038 224.1855)">
		<stop  offset="0" style="stop-color:#3B9193"/>
		<stop  offset="0.15" style="stop-color:#67C3C5"/>
		<stop  offset="0.25" style="stop-color:#BBDEE0"/>
		<stop  offset="0.52" style="stop-color:#45A6A9"/>
		<stop  offset="0.69" style="stop-color:#3C9396"/>
		<stop  offset="0.8" style="stop-color:#388B8D"/>
		<stop  offset="0.97" style="stop-color:#358385"/>
		<stop  offset="1" style="stop-color:#3E9799"/>
	</linearGradient>
	<path fill="url(#SVGID_19_)" d="M89.113,64.219h6c0.75,0,0.824,0.352,0.824,0.809l-0.074,29.191c0,0.75-0.297,1.055-0.754,1.055
		l-5.996-0.305c-0.75,0-0.77-0.09-0.77-0.547l0.02-29.453c0-0.75,0.352-0.75,0.809-0.75H89.113z"/>
	
		<linearGradient id="SVGID_20_" gradientUnits="userSpaceOnUse" x1="24.709" y1="192.5869" x2="14.584" y2="192.5869" gradientTransform="matrix(0.75 0 0 -0.75 88.0146 224.1855)">
		<stop  offset="0" style="stop-color:#3B9193"/>
		<stop  offset="0.15" style="stop-color:#67C3C5"/>
		<stop  offset="0.25" style="stop-color:#BBDEE0"/>
		<stop  offset="0.52" style="stop-color:#45A6A9"/>
		<stop  offset="0.69" style="stop-color:#3C9396"/>
		<stop  offset="0.8" style="stop-color:#388B8D"/>
		<stop  offset="0.97" style="stop-color:#358385"/>
		<stop  offset="1" style="stop-color:#3E9799"/>
	</linearGradient>
	<path fill="url(#SVGID_20_)" d="M99.723,64.219h6c0.75,0,0.824,0.352,0.824,0.809l-0.074,29.191c0,0.75-0.297,1.055-0.754,1.055
		l-5.996-0.305c-0.75,0-0.77-0.09-0.77-0.547l0.02-29.453c0-0.75,0.352-0.75,0.809-0.75H99.723z"/>
	
		<linearGradient id="SVGID_21_" gradientUnits="userSpaceOnUse" x1="24.7124" y1="192.5869" x2="14.5825" y2="192.5869" gradientTransform="matrix(0.75 0 0 -0.75 98.6255 224.1855)">
		<stop  offset="0" style="stop-color:#3B9193"/>
		<stop  offset="0.15" style="stop-color:#67C3C5"/>
		<stop  offset="0.25" style="stop-color:#BBDEE0"/>
		<stop  offset="0.52" style="stop-color:#45A6A9"/>
		<stop  offset="0.69" style="stop-color:#3C9396"/>
		<stop  offset="0.8" style="stop-color:#388B8D"/>
		<stop  offset="0.97" style="stop-color:#358385"/>
		<stop  offset="1" style="stop-color:#3E9799"/>
	</linearGradient>
	<path fill="url(#SVGID_21_)" d="M110.336,64.219h6c0.75,0,0.824,0.352,0.824,0.809l-0.074,29.191c0,0.75-0.297,1.055-0.754,1.055
		l-5.996-0.305c-0.75,0-0.773-0.09-0.773-0.547l0.023-29.453c0-0.75,0.348-0.75,0.805-0.75H110.336z"/>
	
		<linearGradient id="SVGID_22_" gradientUnits="userSpaceOnUse" x1="24.7114" y1="192.5869" x2="14.5864" y2="192.5869" gradientTransform="matrix(0.75 0 0 -0.75 109.5835 224.1855)">
		<stop  offset="0" style="stop-color:#3B9193"/>
		<stop  offset="0.15" style="stop-color:#67C3C5"/>
		<stop  offset="0.25" style="stop-color:#BBDEE0"/>
		<stop  offset="0.52" style="stop-color:#45A6A9"/>
		<stop  offset="0.69" style="stop-color:#3C9396"/>
		<stop  offset="0.8" style="stop-color:#388B8D"/>
		<stop  offset="0.97" style="stop-color:#358385"/>
		<stop  offset="1" style="stop-color:#3E9799"/>
	</linearGradient>
	<path fill="url(#SVGID_22_)" d="M121.293,64.219h6c0.75,0,0.824,0.352,0.824,0.809l-0.074,29.191c0,0.75-0.297,1.055-0.754,1.055
		l-5.996-0.305c-0.75,0-0.77-0.09-0.77-0.547l0.02-29.453c0-0.75,0.352-0.75,0.809-0.75H121.293z"/>
	
		<linearGradient id="SVGID_23_" gradientUnits="userSpaceOnUse" x1="24.7134" y1="192.5869" x2="14.5835" y2="192.5869" gradientTransform="matrix(0.75 0 0 -0.75 120.0386 224.1855)">
		<stop  offset="0" style="stop-color:#3B9193"/>
		<stop  offset="0.15" style="stop-color:#67C3C5"/>
		<stop  offset="0.25" style="stop-color:#BBDEE0"/>
		<stop  offset="0.52" style="stop-color:#45A6A9"/>
		<stop  offset="0.69" style="stop-color:#3C9396"/>
		<stop  offset="0.8" style="stop-color:#388B8D"/>
		<stop  offset="0.97" style="stop-color:#358385"/>
		<stop  offset="1" style="stop-color:#3E9799"/>
	</linearGradient>
	<path fill="url(#SVGID_23_)" d="M131.75,64.219h6c0.75,0,0.824,0.352,0.824,0.809L138.5,94.219c0,0.75-0.297,1.055-0.758,1.055
		l-5.992-0.305c-0.75,0-0.773-0.09-0.773-0.547L131,64.969c0-0.75,0.348-0.75,0.805-0.75H131.75z"/>
	
		<linearGradient id="SVGID_24_" gradientUnits="userSpaceOnUse" x1="24.7124" y1="192.5869" x2="14.5825" y2="192.5869" gradientTransform="matrix(0.75 0 0 -0.75 130.4575 224.1855)">
		<stop  offset="0" style="stop-color:#3B9193"/>
		<stop  offset="0.15" style="stop-color:#67C3C5"/>
		<stop  offset="0.25" style="stop-color:#BBDEE0"/>
		<stop  offset="0.52" style="stop-color:#45A6A9"/>
		<stop  offset="0.69" style="stop-color:#3C9396"/>
		<stop  offset="0.8" style="stop-color:#388B8D"/>
		<stop  offset="0.97" style="stop-color:#358385"/>
		<stop  offset="1" style="stop-color:#3E9799"/>
	</linearGradient>
	<path fill="url(#SVGID_24_)" d="M142.168,64.219h6c0.75,0,0.824,0.352,0.824,0.809l-0.074,29.191c0,0.75-0.297,1.055-0.754,1.055
		l-5.996-0.305c-0.75,0-0.773-0.09-0.773-0.547l0.023-29.453c0-0.75,0.348-0.75,0.805-0.75H142.168z"/>
	
		<linearGradient id="SVGID_25_" gradientUnits="userSpaceOnUse" x1="24.7109" y1="192.5869" x2="14.5859" y2="192.5869" gradientTransform="matrix(0.75 0 0 -0.75 141.0684 224.1855)">
		<stop  offset="0" style="stop-color:#3B9193"/>
		<stop  offset="0.15" style="stop-color:#67C3C5"/>
		<stop  offset="0.25" style="stop-color:#BBDEE0"/>
		<stop  offset="0.52" style="stop-color:#45A6A9"/>
		<stop  offset="0.69" style="stop-color:#3C9396"/>
		<stop  offset="0.8" style="stop-color:#388B8D"/>
		<stop  offset="0.97" style="stop-color:#358385"/>
		<stop  offset="1" style="stop-color:#3E9799"/>
	</linearGradient>
	<path fill="url(#SVGID_25_)" d="M152.777,64.219h6c0.75,0,0.824,0.352,0.824,0.809l-0.074,29.191c0,0.75-0.297,1.055-0.754,1.055
		l-5.996-0.305c-0.75,0-0.77-0.09-0.77-0.547l0.02-29.453c0-0.75,0.352-0.75,0.809-0.75H152.777z"/>
	
		<linearGradient id="SVGID_26_" gradientUnits="userSpaceOnUse" x1="24.7085" y1="192.5869" x2="14.5835" y2="192.5869" gradientTransform="matrix(0.75 0 0 -0.75 151.6792 224.1855)">
		<stop  offset="0" style="stop-color:#3B9193"/>
		<stop  offset="0.15" style="stop-color:#67C3C5"/>
		<stop  offset="0.25" style="stop-color:#BBDEE0"/>
		<stop  offset="0.52" style="stop-color:#45A6A9"/>
		<stop  offset="0.69" style="stop-color:#3C9396"/>
		<stop  offset="0.8" style="stop-color:#388B8D"/>
		<stop  offset="0.97" style="stop-color:#358385"/>
		<stop  offset="1" style="stop-color:#3E9799"/>
	</linearGradient>
	<path fill="url(#SVGID_26_)" d="M163.391,64.219h6c0.75,0,0.82,0.352,0.82,0.809l-0.07,29.191c0,0.75-0.297,1.055-0.758,1.055
		l-5.992-0.305c-0.75,0-0.773-0.09-0.773-0.547l0.023-29.453c0-0.75,0.348-0.75,0.805-0.75H163.391z"/>
	
		<linearGradient id="SVGID_27_" gradientUnits="userSpaceOnUse" x1="24.7124" y1="192.5869" x2="14.5815" y2="192.5869" gradientTransform="matrix(0.75 0 0 -0.75 162.29 224.1855)">
		<stop  offset="0" style="stop-color:#3B9193"/>
		<stop  offset="0.15" style="stop-color:#67C3C5"/>
		<stop  offset="0.25" style="stop-color:#BBDEE0"/>
		<stop  offset="0.52" style="stop-color:#45A6A9"/>
		<stop  offset="0.69" style="stop-color:#3C9396"/>
		<stop  offset="0.8" style="stop-color:#388B8D"/>
		<stop  offset="0.97" style="stop-color:#358385"/>
		<stop  offset="1" style="stop-color:#3E9799"/>
	</linearGradient>
	<path fill="url(#SVGID_27_)" d="M174,64.219h6c0.75,0,0.824,0.352,0.824,0.809l-0.074,29.191c0,0.75-0.297,1.055-0.754,1.055
		L174,94.969c-0.75,0-0.773-0.09-0.773-0.547l0.023-29.453c0-0.75,0.348-0.75,0.809-0.75H174z"/>
	
		<linearGradient id="SVGID_28_" gradientUnits="userSpaceOnUse" x1="24.7104" y1="192.5869" x2="14.5854" y2="192.5869" gradientTransform="matrix(0.75 0 0 -0.75 172.9004 224.1855)">
		<stop  offset="0" style="stop-color:#3B9193"/>
		<stop  offset="0.15" style="stop-color:#67C3C5"/>
		<stop  offset="0.25" style="stop-color:#BBDEE0"/>
		<stop  offset="0.52" style="stop-color:#45A6A9"/>
		<stop  offset="0.69" style="stop-color:#3C9396"/>
		<stop  offset="0.8" style="stop-color:#388B8D"/>
		<stop  offset="0.97" style="stop-color:#358385"/>
		<stop  offset="1" style="stop-color:#3E9799"/>
	</linearGradient>
	<path fill="url(#SVGID_28_)" d="M184.609,64.219h6c0.75,0,0.824,0.352,0.824,0.809l-0.074,29.191c0,0.75-0.297,1.055-0.754,1.055
		l-5.996-0.305c-0.75,0-0.77-0.09-0.77-0.547l0.02-29.453c0-0.75,0.352-0.75,0.809-0.75H184.609z"/>
	
		<linearGradient id="SVGID_29_" gradientUnits="userSpaceOnUse" x1="43.6147" y1="204.6465" x2="14.6147" y2="204.6465" gradientTransform="matrix(0.75 0 0 -0.75 183.2534 243.5918)">
		<stop  offset="0" style="stop-color:#448E8E"/>
		<stop  offset="0.01" style="stop-color:#95D6D6"/>
		<stop  offset="0.03" style="stop-color:#5BBABA"/>
		<stop  offset="0.64" style="stop-color:#5AB7B7"/>
		<stop  offset="0.99" style="stop-color:#58B3B3"/>
		<stop  offset="1" style="stop-color:#3F8484"/>
	</linearGradient>
	<path fill="url(#SVGID_29_)" d="M194.965,83.625h20.25c0,0,0.676,0.32,0.676,0.719l0.074,11.281c0,0.75-0.395,0.965-0.789,0.965
		l-20.211-0.215c-0.75,0-0.75-0.105-0.75-0.5v-11.5c0-0.75,0.32-0.75,0.715-0.75H194.965z"/>
	
		<linearGradient id="SVGID_30_" gradientUnits="userSpaceOnUse" x1="43.6143" y1="626.2158" x2="14.6143" y2="626.2158" gradientTransform="matrix(0.75 0 0 0.75 183.2461 -375.6958)">
		<stop  offset="0" style="stop-color:#317C7F"/>
		<stop  offset="0.01" style="stop-color:#8AC4C7"/>
		<stop  offset="0.03" style="stop-color:#42A3A6"/>
		<stop  offset="0.64" style="stop-color:#41A0A4"/>
		<stop  offset="0.99" style="stop-color:#409CA0"/>
		<stop  offset="1" style="stop-color:#2D7376"/>
	</linearGradient>
	<path fill="url(#SVGID_30_)" d="M194.957,96.59h20.25c0,0,0.691-0.32,0.691-0.715l0.059-4.535h-21.75v4.5
		c0,0.75,0.32,0.75,0.715,0.75H194.957z"/>
	
		<linearGradient id="SVGID_31_" gradientUnits="userSpaceOnUse" x1="27.6147" y1="213.2832" x2="27.6147" y2="199.2832" gradientTransform="matrix(0.75 0 0 -0.75 295.3516 261.8496)">
		<stop  offset="0" style="stop-color:#3B9193"/>
		<stop  offset="0.15" style="stop-color:#67C3C5"/>
		<stop  offset="0.25" style="stop-color:#BBDEE0"/>
		<stop  offset="0.52" style="stop-color:#45A6A9"/>
		<stop  offset="0.69" style="stop-color:#3C9396"/>
		<stop  offset="0.8" style="stop-color:#388B8D"/>
		<stop  offset="0.97" style="stop-color:#358385"/>
		<stop  offset="1" style="stop-color:#3E9799"/>
	</linearGradient>
	<path fill="url(#SVGID_31_)" d="M306.313,101.887h19.5v10.5h-19.5V101.887z"/>
	
		<linearGradient id="SVGID_32_" gradientUnits="userSpaceOnUse" x1="25.8589" y1="213.2891" x2="25.8589" y2="149.2891" gradientTransform="matrix(0.75 0 0 -0.75 306.8228 243.1113)">
		<stop  offset="0" style="stop-color:#3B9193"/>
		<stop  offset="0.15" style="stop-color:#67C3C5"/>
		<stop  offset="0.25" style="stop-color:#BBDEE0"/>
		<stop  offset="0.52" style="stop-color:#45A6A9"/>
		<stop  offset="0.69" style="stop-color:#3C9396"/>
		<stop  offset="0.8" style="stop-color:#388B8D"/>
		<stop  offset="0.97" style="stop-color:#358385"/>
		<stop  offset="1" style="stop-color:#3E9799"/>
	</linearGradient>
	<path fill="url(#SVGID_32_)" d="M318.531,83.145h15.75c0,0,0.371,0.297,0.371,0.672l-0.371,46.578c0,0,0.07,0.672-0.305,0.672
		l-15.445,0.078c-0.75,0-0.75-0.395-0.75-0.766V83.895c0-0.75,0.305-0.75,0.676-0.75H318.531z"/>
	
		<linearGradient id="SVGID_33_" gradientUnits="userSpaceOnUse" x1="19.6138" y1="202.04" x2="14.6138" y2="202.04" gradientTransform="matrix(0.75 0 0 -0.75 327.0664 248.3301)">
		<stop  offset="0" style="stop-color:#368688"/>
		<stop  offset="0.01" style="stop-color:#8CCDCF"/>
		<stop  offset="0.03" style="stop-color:#49AFB2"/>
		<stop  offset="0.64" style="stop-color:#48ACAF"/>
		<stop  offset="0.99" style="stop-color:#46A8AB"/>
		<stop  offset="1" style="stop-color:#317C7E"/>
	</linearGradient>
	<path fill="url(#SVGID_33_)" d="M338.777,88.367h2.25c0.75,0,0.711,0.301,0.711,0.672l0.039,15.828c0,0-0.34,0.367-0.715,0.367
		l-2.285-0.367c-0.75,0-0.75,0.066-0.75-0.305V89.117c0-0.75,0.301-0.75,0.672-0.75H338.777z"/>
	<path fill="#3B8D90" d="M41.547,95.113h176.25v24.75H41.547V95.113z"/>
	<path fill="#3B8D90" d="M263.957,95.113h39v24.75h-39V95.113z"/>
	
		<linearGradient id="SVGID_34_" gradientUnits="userSpaceOnUse" x1="383.6104" y1="199.2295" x2="14.6108" y2="199.2295" gradientTransform="matrix(0.75 0 0 -0.75 19.0293 256.5283)">
		<stop  offset="0" style="stop-color:#368688"/>
		<stop  offset="0.01" style="stop-color:#8CCDCF"/>
		<stop  offset="0.03" style="stop-color:#49AFB2"/>
		<stop  offset="0.64" style="stop-color:#48ACAF"/>
		<stop  offset="0.99" style="stop-color:#46A8AB"/>
		<stop  offset="1" style="stop-color:#317C7E"/>
	</linearGradient>
	<path fill="url(#SVGID_34_)" d="M30.738,96.563h275.25c0.75,0,0.406,0.305,0.406,0.676l0.344,19.574c0,0.75-0.344,0.84-0.945,0.84
		l-275.055-0.09c-0.75,0-0.75-0.215-0.75-0.586V97.313c0-0.75,0-0.75,0.605-0.75H30.738z"/>
	
		<linearGradient id="SVGID_35_" gradientUnits="userSpaceOnUse" x1="27.6143" y1="207.7881" x2="14.6143" y2="207.7881" gradientTransform="matrix(0.75 0 0 -0.75 270.2148 262.9023)">
		<stop  offset="0" style="stop-color:#BDBDBD"/>
		<stop  offset="0.15" style="stop-color:#FFFFFF"/>
		<stop  offset="0.25" style="stop-color:#FFFFFF"/>
		<stop  offset="0.52" style="stop-color:#DFDFDF"/>
		<stop  offset="0.69" style="stop-color:#C7C7C7"/>
		<stop  offset="0.8" style="stop-color:#BCBCBC"/>
		<stop  offset="0.92" style="stop-color:#B1B1B1"/>
		<stop  offset="1" style="stop-color:#CBCBCB"/>
	</linearGradient>
	<path fill="url(#SVGID_35_)" d="M288.676,102.938l2.25,4.5l-2.25,3.75h-5.25l-2.25-3.75l2.25-4.5H288.676z"/>
	<path fill="#CDCECE" d="M283.336,107.563c0-1.5,1.227-3.016,2.773-3.016c1.727,0.016,2.805,1.258,2.805,2.805
		c-0.328,1.711-1.258,2.801-2.805,2.801c-1.273-0.34-2.801-1.254-2.801-2.801L283.336,107.563z"/>
	
		<linearGradient id="SVGID_36_" gradientUnits="userSpaceOnUse" x1="23.3389" y1="208.916" x2="14.5977" y2="208.916" gradientTransform="matrix(0.75 0 0 -0.75 36.7583 308.4824)">
		<stop  offset="0" style="stop-color:#328587"/>
		<stop  offset="0.15" style="stop-color:#5FB5B7"/>
		<stop  offset="0.25" style="stop-color:#B8D8D9"/>
		<stop  offset="0.52" style="stop-color:#3A999A"/>
		<stop  offset="0.69" style="stop-color:#338889"/>
		<stop  offset="0.8" style="stop-color:#2F8081"/>
		<stop  offset="0.97" style="stop-color:#2C787A"/>
		<stop  offset="1" style="stop-color:#348B8C"/>
	</linearGradient>
	<path fill="url(#SVGID_36_)" d="M47.719,151.52c0-1.5,1.453-3,3.262-3c1.988,0,3.262,1.461,3.262,3.266
		c0.227,1.984-1.461,3.27-3.262,3.27c-1.762,0.215-3.273-1.465-3.273-3.27L47.719,151.52z"/>
	<path fill="#347D80" d="M48.855,151.914c0-1.5,0.949-2.25,2.125-2.25c0.875,0,2.121,0.949,2.121,2.121
		c0.254,0.879-0.949,2.121-2.121,2.121c-1.375,0.258-2.125-0.949-2.125-2.121V151.914z"/>
	
		<linearGradient id="SVGID_37_" gradientUnits="userSpaceOnUse" x1="23.3413" y1="208.916" x2="14.5962" y2="208.916" gradientTransform="matrix(0.75 0 0 -0.75 47.2285 308.4824)">
		<stop  offset="0" style="stop-color:#328587"/>
		<stop  offset="0.15" style="stop-color:#5FB5B7"/>
		<stop  offset="0.25" style="stop-color:#B8D8D9"/>
		<stop  offset="0.52" style="stop-color:#3A999A"/>
		<stop  offset="0.69" style="stop-color:#338889"/>
		<stop  offset="0.8" style="stop-color:#2F8081"/>
		<stop  offset="0.97" style="stop-color:#2C787A"/>
		<stop  offset="1" style="stop-color:#348B8C"/>
	</linearGradient>
	<path fill="url(#SVGID_37_)" d="M58.188,151.52c0-1.5,1.453-3,3.266-3c1.984,0,3.262,1.461,3.262,3.266
		c0.223,1.984-1.465,3.27-3.262,3.27c-1.766,0.215-3.277-1.465-3.277-3.27L58.188,151.52z"/>
	<path fill="#347D80" d="M59.328,151.914c0-1.5,0.949-2.25,2.125-2.25c0.875,0,2.117,0.949,2.117,2.121
		c0.258,0.879-0.949,2.121-2.117,2.121c-1.375,0.258-2.125-0.949-2.125-2.121V151.914z"/>
	
		<linearGradient id="SVGID_38_" gradientUnits="userSpaceOnUse" x1="23.3408" y1="208.916" x2="14.5996" y2="208.916" gradientTransform="matrix(0.75 0 0 -0.75 57.6982 308.4824)">
		<stop  offset="0" style="stop-color:#328587"/>
		<stop  offset="0.15" style="stop-color:#5FB5B7"/>
		<stop  offset="0.25" style="stop-color:#B8D8D9"/>
		<stop  offset="0.52" style="stop-color:#3A999A"/>
		<stop  offset="0.69" style="stop-color:#338889"/>
		<stop  offset="0.8" style="stop-color:#2F8081"/>
		<stop  offset="0.97" style="stop-color:#2C787A"/>
		<stop  offset="1" style="stop-color:#348B8C"/>
	</linearGradient>
	<path fill="url(#SVGID_38_)" d="M68.66,151.52c0-1.5,1.449-3,3.262-3c1.988,0,3.262,1.461,3.262,3.266
		c0.227,1.984-1.461,3.27-3.262,3.27c-1.762,0.215-3.273-1.465-3.273-3.27L68.66,151.52z"/>
	<path fill="#347D80" d="M69.797,151.914c0-1.5,0.949-2.25,2.125-2.25c0.875,0,2.117,0.949,2.117,2.121
		c0.258,0.879-0.949,2.121-2.117,2.121c-1.375,0.258-2.125-0.949-2.125-2.121V151.914z"/>
	
		<linearGradient id="SVGID_39_" gradientUnits="userSpaceOnUse" x1="23.3433" y1="208.916" x2="14.5981" y2="208.916" gradientTransform="matrix(0.75 0 0 -0.75 68.1685 308.4824)">
		<stop  offset="0" style="stop-color:#328587"/>
		<stop  offset="0.15" style="stop-color:#5FB5B7"/>
		<stop  offset="0.25" style="stop-color:#B8D8D9"/>
		<stop  offset="0.52" style="stop-color:#3A999A"/>
		<stop  offset="0.69" style="stop-color:#338889"/>
		<stop  offset="0.8" style="stop-color:#2F8081"/>
		<stop  offset="0.97" style="stop-color:#2C787A"/>
		<stop  offset="1" style="stop-color:#348B8C"/>
	</linearGradient>
	<path fill="url(#SVGID_39_)" d="M79.129,151.52c0-1.5,1.453-3,3.262-3c1.988,0,3.266,1.461,3.266,3.266
		c0.223,1.984-1.465,3.27-3.266,3.27c-1.762,0.215-3.273-1.465-3.273-3.27L79.129,151.52z"/>
	<path fill="#347D80" d="M80.266,151.914c0-1.5,0.953-2.25,2.125-2.25c0.875,0,2.121,0.949,2.121,2.121
		c0.254,0.879-0.949,2.121-2.121,2.121c-1.375,0.258-2.125-0.949-2.125-2.121V151.914z"/>
	
		<linearGradient id="SVGID_40_" gradientUnits="userSpaceOnUse" x1="23.3413" y1="208.916" x2="14.6011" y2="208.916" gradientTransform="matrix(0.75 0 0 -0.75 78.6387 308.4824)">
		<stop  offset="0" style="stop-color:#328587"/>
		<stop  offset="0.15" style="stop-color:#5FB5B7"/>
		<stop  offset="0.25" style="stop-color:#B8D8D9"/>
		<stop  offset="0.52" style="stop-color:#3A999A"/>
		<stop  offset="0.69" style="stop-color:#338889"/>
		<stop  offset="0.8" style="stop-color:#2F8081"/>
		<stop  offset="0.97" style="stop-color:#2C787A"/>
		<stop  offset="1" style="stop-color:#348B8C"/>
	</linearGradient>
	<path fill="url(#SVGID_40_)" d="M89.598,151.52c0-1.5,1.453-3,3.266-3c1.984,0,3.262,1.461,3.262,3.266
		c0.223,1.984-1.465,3.27-3.262,3.27c-1.766,0.215-3.273-1.465-3.273-3.27L89.598,151.52z"/>
	<path fill="#347D80" d="M90.738,151.914c0-1.5,0.949-2.25,2.125-2.25c0.875,0,2.117,0.949,2.117,2.121
		c0.258,0.879-0.949,2.121-2.117,2.121c-1.375,0.258-2.125-0.949-2.125-2.121V151.914z"/>
	
		<linearGradient id="SVGID_41_" gradientUnits="userSpaceOnUse" x1="23.3398" y1="208.916" x2="14.5996" y2="208.916" gradientTransform="matrix(0.75 0 0 -0.75 89.1089 308.4824)">
		<stop  offset="0" style="stop-color:#328587"/>
		<stop  offset="0.15" style="stop-color:#5FB5B7"/>
		<stop  offset="0.25" style="stop-color:#B8D8D9"/>
		<stop  offset="0.52" style="stop-color:#3A999A"/>
		<stop  offset="0.69" style="stop-color:#338889"/>
		<stop  offset="0.8" style="stop-color:#2F8081"/>
		<stop  offset="0.97" style="stop-color:#2C787A"/>
		<stop  offset="1" style="stop-color:#348B8C"/>
	</linearGradient>
	<path fill="url(#SVGID_41_)" d="M100.07,151.52c0-1.5,1.453-3,3.262-3c1.988,0,3.262,1.461,3.262,3.266
		c0.227,1.984-1.461,3.27-3.262,3.27c-1.762,0.215-3.273-1.465-3.273-3.27L100.07,151.52z"/>
	<path fill="#347D80" d="M101.207,151.914c0-1.5,0.949-2.25,2.125-2.25c0.875,0,2.121,0.949,2.121,2.121
		c0.254,0.879-0.953,2.121-2.121,2.121c-1.375,0.258-2.125-0.949-2.125-2.121V151.914z"/>
	
		<linearGradient id="SVGID_42_" gradientUnits="userSpaceOnUse" x1="23.3423" y1="208.916" x2="14.5972" y2="208.916" gradientTransform="matrix(0.75 0 0 -0.75 99.5791 308.4824)">
		<stop  offset="0" style="stop-color:#328587"/>
		<stop  offset="0.15" style="stop-color:#5FB5B7"/>
		<stop  offset="0.25" style="stop-color:#B8D8D9"/>
		<stop  offset="0.52" style="stop-color:#3A999A"/>
		<stop  offset="0.69" style="stop-color:#338889"/>
		<stop  offset="0.8" style="stop-color:#2F8081"/>
		<stop  offset="0.97" style="stop-color:#2C787A"/>
		<stop  offset="1" style="stop-color:#348B8C"/>
	</linearGradient>
	<path fill="url(#SVGID_42_)" d="M110.539,151.52c0-1.5,1.453-3,3.262-3c1.988,0,3.266,1.461,3.266,3.266
		c0.223,1.984-1.465,3.27-3.266,3.27c-1.762,0.215-3.273-1.465-3.273-3.27L110.539,151.52z"/>
	<path fill="#347D80" d="M111.676,151.914c0-1.5,0.953-2.25,2.125-2.25c0.875,0,2.121,0.949,2.121,2.121
		c0.254,0.879-0.949,2.121-2.121,2.121c-1.375,0.258-2.125-0.949-2.125-2.121V151.914z"/>
	
		<linearGradient id="SVGID_43_" gradientUnits="userSpaceOnUse" x1="23.3403" y1="208.916" x2="14.6011" y2="208.916" gradientTransform="matrix(0.75 0 0 -0.75 110.0493 308.4824)">
		<stop  offset="0" style="stop-color:#328587"/>
		<stop  offset="0.15" style="stop-color:#5FB5B7"/>
		<stop  offset="0.25" style="stop-color:#B8D8D9"/>
		<stop  offset="0.52" style="stop-color:#3A999A"/>
		<stop  offset="0.69" style="stop-color:#338889"/>
		<stop  offset="0.8" style="stop-color:#2F8081"/>
		<stop  offset="0.97" style="stop-color:#2C787A"/>
		<stop  offset="1" style="stop-color:#348B8C"/>
	</linearGradient>
	<path fill="url(#SVGID_43_)" d="M121.008,151.52c0-1.5,1.453-3,3.266-3c1.984,0,3.262,1.461,3.262,3.266
		c0.223,1.984-1.465,3.27-3.262,3.27c-1.766,0.215-3.273-1.465-3.273-3.27L121.008,151.52z"/>
	<path fill="#347D80" d="M122.148,151.914c0-1.5,0.949-2.25,2.125-2.25c0.875,0,2.117,0.949,2.117,2.121
		c0.258,0.879-0.949,2.121-2.117,2.121c-1.375,0.258-2.125-0.949-2.125-2.121V151.914z"/>
	
		<linearGradient id="SVGID_44_" gradientUnits="userSpaceOnUse" x1="23.3398" y1="208.916" x2="14.5986" y2="208.916" gradientTransform="matrix(0.75 0 0 -0.75 120.5195 308.4824)">
		<stop  offset="0" style="stop-color:#328587"/>
		<stop  offset="0.15" style="stop-color:#5FB5B7"/>
		<stop  offset="0.25" style="stop-color:#B8D8D9"/>
		<stop  offset="0.52" style="stop-color:#3A999A"/>
		<stop  offset="0.69" style="stop-color:#338889"/>
		<stop  offset="0.8" style="stop-color:#2F8081"/>
		<stop  offset="0.97" style="stop-color:#2C787A"/>
		<stop  offset="1" style="stop-color:#348B8C"/>
	</linearGradient>
	<path fill="url(#SVGID_44_)" d="M131.48,151.52c0-1.5,1.453-3,3.262-3c1.988,0,3.262,1.461,3.262,3.266
		c0.227,1.984-1.461,3.27-3.262,3.27c-1.762,0.215-3.273-1.465-3.273-3.27L131.48,151.52z"/>
	<path fill="#347D80" d="M132.617,151.914c0-1.5,0.949-2.25,2.125-2.25c0.875,0,2.121,0.949,2.121,2.121
		c0.254,0.879-0.953,2.121-2.121,2.121c-1.375,0.258-2.125-0.949-2.125-2.121V151.914z"/>
	
		<linearGradient id="SVGID_45_" gradientUnits="userSpaceOnUse" x1="23.3413" y1="208.916" x2="14.5962" y2="208.916" gradientTransform="matrix(0.75 0 0 -0.75 130.9897 308.4824)">
		<stop  offset="0" style="stop-color:#328587"/>
		<stop  offset="0.15" style="stop-color:#5FB5B7"/>
		<stop  offset="0.25" style="stop-color:#B8D8D9"/>
		<stop  offset="0.52" style="stop-color:#3A999A"/>
		<stop  offset="0.69" style="stop-color:#338889"/>
		<stop  offset="0.8" style="stop-color:#2F8081"/>
		<stop  offset="0.97" style="stop-color:#2C787A"/>
		<stop  offset="1" style="stop-color:#348B8C"/>
	</linearGradient>
	<path fill="url(#SVGID_45_)" d="M141.949,151.52c0-1.5,1.453-3,3.262-3c1.988,0,3.266,1.461,3.266,3.266
		c0.223,1.984-1.465,3.27-3.266,3.27c-1.762,0.215-3.273-1.465-3.273-3.27L141.949,151.52z"/>
	<path fill="#347D80" d="M143.086,151.914c0-1.5,0.953-2.25,2.125-2.25c0.875,0,2.121,0.949,2.121,2.121
		c0.254,0.879-0.949,2.121-2.121,2.121c-1.375,0.258-2.125-0.949-2.125-2.121V151.914z"/>
	
		<linearGradient id="SVGID_46_" gradientUnits="userSpaceOnUse" x1="23.3403" y1="208.916" x2="14.6001" y2="208.916" gradientTransform="matrix(0.75 0 0 -0.75 141.46 308.4824)">
		<stop  offset="0" style="stop-color:#328587"/>
		<stop  offset="0.15" style="stop-color:#5FB5B7"/>
		<stop  offset="0.25" style="stop-color:#B8D8D9"/>
		<stop  offset="0.52" style="stop-color:#3A999A"/>
		<stop  offset="0.69" style="stop-color:#338889"/>
		<stop  offset="0.8" style="stop-color:#2F8081"/>
		<stop  offset="0.97" style="stop-color:#2C787A"/>
		<stop  offset="1" style="stop-color:#348B8C"/>
	</linearGradient>
	<path fill="url(#SVGID_46_)" d="M152.418,151.52c0-1.5,1.453-3,3.266-3c1.984,0,3.262,1.461,3.262,3.266
		c0.223,1.984-1.461,3.27-3.262,3.27c-1.766,0.215-3.273-1.465-3.273-3.27L152.418,151.52z"/>
	<path fill="#347D80" d="M153.559,151.914c0-1.5,0.949-2.25,2.125-2.25c0.875,0,2.117,0.949,2.117,2.121
		c0.258,0.879-0.949,2.121-2.117,2.121c-1.375,0.258-2.125-0.949-2.125-2.121V151.914z"/>
	
		<linearGradient id="SVGID_47_" gradientUnits="userSpaceOnUse" x1="23.3428" y1="208.916" x2="14.5977" y2="208.916" gradientTransform="matrix(0.75 0 0 -0.75 151.9302 308.4824)">
		<stop  offset="0" style="stop-color:#328587"/>
		<stop  offset="0.15" style="stop-color:#5FB5B7"/>
		<stop  offset="0.25" style="stop-color:#B8D8D9"/>
		<stop  offset="0.52" style="stop-color:#3A999A"/>
		<stop  offset="0.69" style="stop-color:#338889"/>
		<stop  offset="0.8" style="stop-color:#2F8081"/>
		<stop  offset="0.97" style="stop-color:#2C787A"/>
		<stop  offset="1" style="stop-color:#348B8C"/>
	</linearGradient>
	<path fill="url(#SVGID_47_)" d="M162.891,151.52c0-1.5,1.453-3,3.262-3c1.988,0,3.266,1.461,3.266,3.266
		c0.223,1.984-1.465,3.27-3.266,3.27c-1.762,0.215-3.273-1.465-3.273-3.27L162.891,151.52z"/>
	<path fill="#347D80" d="M164.027,151.914c0-1.5,0.949-2.25,2.125-2.25c0.875,0,2.121,0.949,2.121,2.121
		c0.254,0.879-0.949,2.121-2.121,2.121c-1.375,0.258-2.125-0.949-2.125-2.121V151.914z"/>
	
		<linearGradient id="SVGID_48_" gradientUnits="userSpaceOnUse" x1="23.3423" y1="208.916" x2="14.5972" y2="208.916" gradientTransform="matrix(0.75 0 0 -0.75 162.3999 308.4824)">
		<stop  offset="0" style="stop-color:#328587"/>
		<stop  offset="0.15" style="stop-color:#5FB5B7"/>
		<stop  offset="0.25" style="stop-color:#B8D8D9"/>
		<stop  offset="0.52" style="stop-color:#3A999A"/>
		<stop  offset="0.69" style="stop-color:#338889"/>
		<stop  offset="0.8" style="stop-color:#2F8081"/>
		<stop  offset="0.97" style="stop-color:#2C787A"/>
		<stop  offset="1" style="stop-color:#348B8C"/>
	</linearGradient>
	<path fill="url(#SVGID_48_)" d="M173.359,151.52c0-1.5,1.453-3,3.266-3c1.984,0,3.262,1.461,3.262,3.266
		c0.223,1.984-1.465,3.27-3.262,3.27c-1.766,0.215-3.277-1.465-3.277-3.27L173.359,151.52z"/>
	<path fill="#347D80" d="M174.5,151.914c0-1.5,0.949-2.25,2.125-2.25c0.875,0,2.117,0.949,2.117,2.121
		c0.258,0.879-0.949,2.121-2.117,2.121c-1.375,0.258-2.125-0.949-2.125-2.121V151.914z"/>
	
		<linearGradient id="SVGID_49_" gradientUnits="userSpaceOnUse" x1="23.3433" y1="208.916" x2="14.5981" y2="208.916" gradientTransform="matrix(0.75 0 0 -0.75 172.7388 308.4824)">
		<stop  offset="0" style="stop-color:#328587"/>
		<stop  offset="0.15" style="stop-color:#5FB5B7"/>
		<stop  offset="0.25" style="stop-color:#B8D8D9"/>
		<stop  offset="0.52" style="stop-color:#3A999A"/>
		<stop  offset="0.69" style="stop-color:#338889"/>
		<stop  offset="0.8" style="stop-color:#2F8081"/>
		<stop  offset="0.97" style="stop-color:#2C787A"/>
		<stop  offset="1" style="stop-color:#348B8C"/>
	</linearGradient>
	<path fill="url(#SVGID_49_)" d="M183.699,151.52c0-1.5,1.453-3,3.262-3c1.988,0,3.266,1.461,3.266,3.266
		c0.223,1.984-1.465,3.27-3.266,3.27c-1.762,0.215-3.273-1.465-3.273-3.27L183.699,151.52z"/>
	<path fill="#347D80" d="M184.836,151.914c0-1.5,0.949-2.25,2.125-2.25c0.875,0,2.121,0.949,2.121,2.121
		c0.254,0.879-0.949,2.121-2.121,2.121c-1.375,0.258-2.125-0.949-2.125-2.121V151.914z"/>
	
		<linearGradient id="SVGID_50_" gradientUnits="userSpaceOnUse" x1="23.3433" y1="208.916" x2="14.5981" y2="208.916" gradientTransform="matrix(0.75 0 0 -0.75 183.3403 308.4824)">
		<stop  offset="0" style="stop-color:#328587"/>
		<stop  offset="0.15" style="stop-color:#5FB5B7"/>
		<stop  offset="0.25" style="stop-color:#B8D8D9"/>
		<stop  offset="0.52" style="stop-color:#3A999A"/>
		<stop  offset="0.69" style="stop-color:#338889"/>
		<stop  offset="0.8" style="stop-color:#2F8081"/>
		<stop  offset="0.97" style="stop-color:#2C787A"/>
		<stop  offset="1" style="stop-color:#348B8C"/>
	</linearGradient>
	<path fill="url(#SVGID_50_)" d="M194.301,151.52c0-1.5,1.453-3,3.262-3c1.988,0,3.266,1.461,3.266,3.266
		c0.223,1.984-1.465,3.27-3.266,3.27c-1.762,0.215-3.273-1.465-3.273-3.27L194.301,151.52z"/>
	<path fill="#347D80" d="M195.438,151.914c0-1.5,0.953-2.25,2.125-2.25c0.875,0,2.121,0.949,2.121,2.121
		c0.254,0.879-0.949,2.121-2.121,2.121c-1.375,0.258-2.125-0.949-2.125-2.121V151.914z"/>
	
		<linearGradient id="SVGID_51_" gradientUnits="userSpaceOnUse" x1="23.3403" y1="208.916" x2="14.6001" y2="208.916" gradientTransform="matrix(0.75 0 0 -0.75 193.811 308.4824)">
		<stop  offset="0" style="stop-color:#328587"/>
		<stop  offset="0.15" style="stop-color:#5FB5B7"/>
		<stop  offset="0.25" style="stop-color:#B8D8D9"/>
		<stop  offset="0.52" style="stop-color:#3A999A"/>
		<stop  offset="0.69" style="stop-color:#338889"/>
		<stop  offset="0.8" style="stop-color:#2F8081"/>
		<stop  offset="0.97" style="stop-color:#2C787A"/>
		<stop  offset="1" style="stop-color:#348B8C"/>
	</linearGradient>
	<path fill="url(#SVGID_51_)" d="M204.77,151.52c0-1.5,1.453-3,3.266-3c1.984,0,3.262,1.461,3.262,3.266
		c0.223,1.984-1.465,3.27-3.262,3.27c-1.766,0.215-3.273-1.465-3.273-3.27L204.77,151.52z"/>
	<path fill="#347D80" d="M205.91,151.914c0-1.5,0.949-2.25,2.125-2.25c0.875,0,2.117,0.949,2.117,2.121
		c0.258,0.879-0.949,2.121-2.117,2.121c-1.375,0.258-2.125-0.949-2.125-2.121V151.914z"/>
	
		<linearGradient id="SVGID_52_" gradientUnits="userSpaceOnUse" x1="27.6133" y1="207.7881" x2="14.6133" y2="207.7881" gradientTransform="matrix(0.75 0 0 -0.75 25.7705 262.9023)">
		<stop  offset="0" style="stop-color:#BDBDBD"/>
		<stop  offset="0.15" style="stop-color:#FFFFFF"/>
		<stop  offset="0.25" style="stop-color:#FFFFFF"/>
		<stop  offset="0.52" style="stop-color:#DFDFDF"/>
		<stop  offset="0.69" style="stop-color:#C7C7C7"/>
		<stop  offset="0.8" style="stop-color:#BCBCBC"/>
		<stop  offset="0.92" style="stop-color:#B1B1B1"/>
		<stop  offset="1" style="stop-color:#CBCBCB"/>
	</linearGradient>
	<path fill="url(#SVGID_52_)" d="M44.23,102.938l2.25,4.5l-2.25,3.75h-5.25l-2.25-3.75l2.25-4.5H44.23z"/>
	<path fill="#CDCECE" d="M38.891,107.563c0-1.5,1.23-3.016,2.777-3.016c1.723,0.016,2.801,1.258,2.801,2.805
		c-0.328,1.711-1.254,2.801-2.801,2.801c-1.277-0.34-2.801-1.254-2.801-2.801L38.891,107.563z"/>
</g>
</svg>
