<?xml version="1.0" encoding="utf-8"?>
<!-- Generator: Adobe Illustrator 16.0.0, SVG Export Plug-In . SVG Version: 6.00 Build 0)  -->
<!DOCTYPE svg PUBLIC "-//W3C//DTD SVG 1.1//EN" "http://www.w3.org/Graphics/SVG/1.1/DTD/svg11.dtd">
<svg preserveAspectRatio="none" version="1.1" id="图层_1" xmlns="http://www.w3.org/2000/svg" xmlns:xlink="http://www.w3.org/1999/xlink" x="0px" y="0px"
	 width="341.246px" height="457.676px" viewBox="29.48 -55.813 341.246 457.676"
	 enable-background="new 29.48 -55.813 341.246 457.676" xml:space="preserve">
<g id="surface806">
	
		<linearGradient id="SVGID_1_" gradientUnits="userSpaceOnUse" x1="14.6128" y1="44.8936" x2="176.6133" y2="44.8936" gradientTransform="matrix(0.75 0 0 -0.75 35.1812 307.4922)">
		<stop  offset="0" style="stop-color:#BEBBAC"/>
		<stop  offset="0.22" style="stop-color:#D5D3C2"/>
		<stop  offset="0.57" style="stop-color:#F0EFE6"/>
		<stop  offset="0.84" style="stop-color:#E9E7D9"/>
		<stop  offset="1" style="stop-color:#CECBBA"/>
	</linearGradient>
	<path fill="url(#SVGID_1_)" d="M46.141,147.527h121.5v211.5c0,0-0.621,41.09-61.387,41.09
		c-60.863,0.16-60.113-41.273-60.113-41.273V147.527z"/>
	
		<linearGradient id="SVGID_2_" gradientUnits="userSpaceOnUse" x1="200.6143" y1="78.2876" x2="14.6143" y2="78.2876" gradientTransform="matrix(0.75 0 0 -0.75 26.3394 105.0195)">
		<stop  offset="0" style="stop-color:#221F1F"/>
		<stop  offset="0.15" style="stop-color:#3B3736"/>
		<stop  offset="0.26" style="stop-color:#6A6767"/>
		<stop  offset="0.41" style="stop-color:#44403F"/>
		<stop  offset="0.6" style="stop-color:#312D2C"/>
		<stop  offset="0.8" style="stop-color:#252221"/>
		<stop  offset="0.93" style="stop-color:#1D1A19"/>
		<stop  offset="1" style="stop-color:#3A3534"/>
	</linearGradient>
	<path fill="url(#SVGID_2_)" d="M38.801-54.945h136.5c0.75,0,1.211,0.637,1.211,1.469l0.289,199.531c0,0.75-0.969,1.473-1.805,1.473
		l-136.195,0.027c-0.75,0-1.5-0.703-1.5-1.535V-53.445c0-0.75,0.641-1.5,1.477-1.5H38.801z"/>
	
		<linearGradient id="SVGID_3_" gradientUnits="userSpaceOnUse" x1="51.1104" y1="213.2852" x2="51.1103" y2="56.2852" gradientTransform="matrix(0.75 0 0 -0.75 165.2568 173.2178)">
		<stop  offset="0" style="stop-color:#221F1F"/>
		<stop  offset="0.15" style="stop-color:#3B3736"/>
		<stop  offset="0.26" style="stop-color:#6A6767"/>
		<stop  offset="0.41" style="stop-color:#44403F"/>
		<stop  offset="0.6" style="stop-color:#312D2C"/>
		<stop  offset="0.8" style="stop-color:#252221"/>
		<stop  offset="0.93" style="stop-color:#1D1A19"/>
		<stop  offset="1" style="stop-color:#3A3534"/>
	</linearGradient>
	<path fill="url(#SVGID_3_)" d="M176.215,13.254h54.75v117.75h-54.75V13.254z"/>
	
		<linearGradient id="SVGID_4_" gradientUnits="userSpaceOnUse" x1="14.6108" y1="44.8936" x2="176.6113" y2="44.8936" gradientTransform="matrix(0.75 0 0 -0.75 229.1079 309.2383)">
		<stop  offset="0" style="stop-color:#BEBBAC"/>
		<stop  offset="0.22" style="stop-color:#D5D3C2"/>
		<stop  offset="0.57" style="stop-color:#F0EFE6"/>
		<stop  offset="0.84" style="stop-color:#E9E7D9"/>
		<stop  offset="1" style="stop-color:#CECBBA"/>
	</linearGradient>
	<path fill="url(#SVGID_4_)" d="M240.066,149.273h121.5v211.5c0,0-0.621,41.09-61.387,41.09
		c-60.863,0.16-60.113-41.273-60.113-41.273V149.273z"/>
	
		<linearGradient id="SVGID_5_" gradientUnits="userSpaceOnUse" x1="164.6147" y1="199.7842" x2="14.6147" y2="199.7842" gradientTransform="matrix(0.75 0 0 -0.75 233.5386 142.5879)">
		<stop  offset="0" style="stop-color:#000000"/>
		<stop  offset="0.15" style="stop-color:#000000"/>
		<stop  offset="0.26" style="stop-color:#595959"/>
		<stop  offset="0.41" style="stop-color:#191919"/>
		<stop  offset="0.6" style="stop-color:#000000"/>
		<stop  offset="0.8" style="stop-color:#000000"/>
		<stop  offset="0.93" style="stop-color:#000000"/>
		<stop  offset="1" style="stop-color:#000000"/>
	</linearGradient>
	<path fill="url(#SVGID_5_)" d="M244.5,2.875H357v-20.25H244.5V2.875z"/>
	
		<linearGradient id="SVGID_6_" gradientUnits="userSpaceOnUse" x1="200.6133" y1="114.2729" x2="14.6133" y2="114.2729" gradientTransform="matrix(0.75 0 0 -0.75 220.2661 161.4854)">
		<stop  offset="0" style="stop-color:#221F1F"/>
		<stop  offset="0.15" style="stop-color:#3B3736"/>
		<stop  offset="0.26" style="stop-color:#6A6767"/>
		<stop  offset="0.41" style="stop-color:#44403F"/>
		<stop  offset="0.6" style="stop-color:#312D2C"/>
		<stop  offset="0.8" style="stop-color:#252221"/>
		<stop  offset="0.93" style="stop-color:#1D1A19"/>
		<stop  offset="1" style="stop-color:#3A3534"/>
	</linearGradient>
	<path fill="url(#SVGID_6_)" d="M232.727,1.52h136.5c0.75,0,1.215,0.469,1.215,1.078l0.285,146.672c0,0-0.965,0.773-1.805,0.773
		l-136.195-0.023c-0.75,0-1.5-0.473-1.5-1.086V2.27c0,0,0.641-0.75,1.48-0.75H232.727z"/>
	<path stroke="#000000" stroke-linejoin="bevel" stroke-miterlimit="10" d="M29.98,32.438c0-48,39.605-87.75,88.496-87.75
		c48.754,0,88.5,39.41,88.5,88.055c0.004,48.445-39.629,88.055-88.5,88.055C69.73,120.938,29.98,81.355,29.98,32.742V32.438z"/>
	<path fill="#9E9F9F" d="M37.426,32.383c0-44.25,36.273-80.25,81.051-80.25c44.949,0,81.051,36.078,81.051,80.609
		c-0.102,44.641-36.293,80.609-81.051,80.609c-45.051,0.031-81.051-36.109-81.051-80.609V32.383z"/>
	<path fill="#EBEAE9" d="M40.012,33.664c0-42.75,35.117-78,78.465-78c43.035,0,78.465,34.926,78.465,78.039
		c-0.18,42.711-35.133,78.035-78.465,78.035c-43.215-0.074-78.465-34.957-78.465-78.035V33.664z"/>
	<path fill="none" stroke="#000000" stroke-linejoin="bevel" stroke-miterlimit="10" d="M162.535,77.766l8.25,8.25"/>
	<path fill="none" stroke="#000000" stroke-linejoin="bevel" stroke-miterlimit="10" d="M74.117,73.035l-9.75,8.25"/>
	<path fill="none" stroke="#000000" stroke-linejoin="bevel" stroke-miterlimit="10" d="M117.77,93.332l-0.008,12"/>
	<path fill="none" stroke="#000000" stroke-linejoin="bevel" stroke-miterlimit="10" d="M43.422,32.996l12,0.008"/>
	<path fill="none" stroke="#000000" stroke-linejoin="bevel" stroke-miterlimit="10" d="M181.742,32.996l12,0.008"/>
	<path fill="#FFFFFF" fill-opacity="0.7255" d="M156.145,57.672c36-53.25-5.309-99-5.309-99
		c28.559,12.75,48.645,40.91,48.645,73.973c0.164,44.527-36.313,80.637-81.059,80.637c-17.777-0.109-33.777-5.547-47.027-14.965
		c1.5,2.105,49.547,13.273,84.973-40.352L156.145,57.672z"/>
	<path stroke="#000000" stroke-linejoin="bevel" stroke-miterlimit="10" d="M59.445-8.898l53.711,34.473
		c0,0,16.805,11.414,29.449,11.684c0.078,0.168,4.289,1.043,1.563,5.789l-6.387,8.871c0,0-4.441,4.352-5.949-1.246
		c-0.371,0.195-6.664-11.863-21.793-22.02L59.445-8.898z"/>
	<path stroke="#000000" stroke-linejoin="bevel" stroke-miterlimit="10" d="M115.582,24.598c3.074-0.824,6.488,1.266,7.41,4.688
		c0.832,3.535-1.105,6.926-4.543,7.84c-3.672,0.863-6.938-1.125-7.859-4.539c-0.98-3.645,1.109-6.922,4.523-7.832L115.582,24.598z"
		/>
	
		<linearGradient id="SVGID_7_" gradientUnits="userSpaceOnUse" x1="89.6553" y1="383.3652" x2="79.4448" y2="383.3652" gradientTransform="matrix(0.6495 0.375 0.375 -0.6495 -81.8075 248.2444)">
		<stop  offset="0" style="stop-color:#C4AA84"/>
		<stop  offset="0.15" style="stop-color:#FFE0B3"/>
		<stop  offset="0.25" style="stop-color:#FFEED7"/>
		<stop  offset="0.44" style="stop-color:#DFC297"/>
		<stop  offset="0.6" style="stop-color:#C7AD86"/>
		<stop  offset="0.8" style="stop-color:#A89170"/>
		<stop  offset="0.97" style="stop-color:#998566"/>
		<stop  offset="1" style="stop-color:#CBB189"/>
	</linearGradient>
	<path fill="url(#SVGID_7_)" d="M115.898,27.68c2.426-1.195,4.07,0.184,4.629,2.246c0.469,2.43-0.668,4.176-2.734,4.727
		c-2.023,0.75-4.188-0.676-4.742-2.738c-0.328-1.734,0.664-4.176,2.73-4.727L115.898,27.68z"/>
</g>
</svg>
