<?xml version="1.0" encoding="utf-8"?>
<!-- Generator: Adobe Illustrator 16.0.0, SVG Export Plug-In . SVG Version: 6.00 Build 0)  -->
<!DOCTYPE svg PUBLIC "-//W3C//DTD SVG 1.1//EN" "http://www.w3.org/Graphics/SVG/1.1/DTD/svg11.dtd">
<svg preserveAspectRatio="none" version="1.1" id="图层_1" xmlns="http://www.w3.org/2000/svg" xmlns:xlink="http://www.w3.org/1999/xlink" x="0px" y="0px"
	 width="340.848px" height="309.664px" viewBox="29.992 -13.156 340.848 309.664"
	 enable-background="new 29.992 -13.156 340.848 309.664" xml:space="preserve">
<g id="surface921">
	
		<linearGradient id="SVGID_1_" gradientUnits="userSpaceOnUse" x1="58.6123" y1="213.2871" x2="58.6123" y2="173.2871" gradientTransform="matrix(0.75 0 0 -0.75 260.8569 260.0195)">
		<stop  offset="0" style="stop-color:#BDBDBD"/>
		<stop  offset="0.15" style="stop-color:#FFFFFF"/>
		<stop  offset="0.25" style="stop-color:#FFFFFF"/>
		<stop  offset="0.52" style="stop-color:#DFDFDF"/>
		<stop  offset="0.69" style="stop-color:#C7C7C7"/>
		<stop  offset="0.8" style="stop-color:#BCBCBC"/>
		<stop  offset="0.92" style="stop-color:#B1B1B1"/>
		<stop  offset="1" style="stop-color:#CBCBCB"/>
	</linearGradient>
	<path fill="url(#SVGID_1_)" d="M271.816,100.055h66v30h-66V100.055z"/>
	
		<linearGradient id="SVGID_2_" gradientUnits="userSpaceOnUse" x1="175.6118" y1="213.2871" x2="175.6118" y2="82.168" gradientTransform="matrix(0.75 0 0 -0.75 19.0337 228.583)">
		<stop  offset="0" style="stop-color:#BDBDBD"/>
		<stop  offset="0.15" style="stop-color:#FFFFFF"/>
		<stop  offset="0.25" style="stop-color:#FFFFFF"/>
		<stop  offset="0.52" style="stop-color:#DFDFDF"/>
		<stop  offset="0.69" style="stop-color:#C7C7C7"/>
		<stop  offset="0.8" style="stop-color:#BCBCBC"/>
		<stop  offset="0.92" style="stop-color:#B1B1B1"/>
		<stop  offset="1" style="stop-color:#CBCBCB"/>
	</linearGradient>
	<path fill="url(#SVGID_2_)" d="M30.742,68.617h239.25c0.75,0,1.48,0.316,1.48,0.781l0.02,96.719c0,0.75-0.609,0.84-1.23,0.84
		l-239.52-0.09c0,0-0.75-0.352-0.75-0.816V69.367c0-0.75,0.418-0.75,1.039-0.75H30.742z"/>
	
		<linearGradient id="SVGID_3_" gradientUnits="userSpaceOnUse" x1="18.1138" y1="213.2871" x2="18.1138" y2="82.168" gradientTransform="matrix(0.75 0 0 -0.75 19.6533 228.583)">
		<stop  offset="0" style="stop-color:#858585"/>
		<stop  offset="0.15" style="stop-color:#BABBBB"/>
		<stop  offset="0.25" style="stop-color:#DADADA"/>
		<stop  offset="0.52" style="stop-color:#9D9E9E"/>
		<stop  offset="0.69" style="stop-color:#8B8C8C"/>
		<stop  offset="0.8" style="stop-color:#838484"/>
		<stop  offset="0.92" style="stop-color:#7C7D7D"/>
		<stop  offset="1" style="stop-color:#8F9090"/>
	</linearGradient>
	<path fill="url(#SVGID_3_)" d="M30.613,68.617h5.25c0,0-0.086,0.316-0.086,0.781l0.086,96.719c0,0.75-0.098,0.84-0.109,0.84
		l-5.141-0.09c0,0,0-0.352,0-0.816V69.367c0-0.75,0.008-0.75,0.023-0.75H30.613z"/>
	
		<linearGradient id="SVGID_4_" gradientUnits="userSpaceOnUse" x1="29.0542" y1="213.29" x2="29.0542" y2="-22.71" gradientTransform="matrix(0.75 0 0 -0.75 326.1294 176.7559)">
		<stop  offset="0" style="stop-color:#B5B5B5"/>
		<stop  offset="0.01" style="stop-color:#FFFFFF"/>
		<stop  offset="0.05" style="stop-color:#EBEBEB"/>
		<stop  offset="0.9" style="stop-color:#E7E7E7"/>
		<stop  offset="0.95" style="stop-color:#E2E2E2"/>
		<stop  offset="1" style="stop-color:#A8A8A8"/>
	</linearGradient>
	<path fill="url(#SVGID_4_)" d="M337.84,16.789h19.5c0.75,0,1.152,0.309,1.152,0.773l0.348,175.477c0,0-0.734,0.746-1.207,0.746
		l-19.793,0.004c-0.75,0-0.84-0.434-0.84-0.898l0.09-175.352c0-0.75,0.289-0.75,0.758-0.75H337.84z"/>
	
		<linearGradient id="SVGID_5_" gradientUnits="userSpaceOnUse" x1="18.1157" y1="213.2871" x2="18.1157" y2="82.168" gradientTransform="matrix(0.75 0 0 -0.75 257.9292 228.583)">
		<stop  offset="0" style="stop-color:#858585"/>
		<stop  offset="0.15" style="stop-color:#BABBBB"/>
		<stop  offset="0.25" style="stop-color:#DADADA"/>
		<stop  offset="0.52" style="stop-color:#9D9E9E"/>
		<stop  offset="0.69" style="stop-color:#8B8C8C"/>
		<stop  offset="0.8" style="stop-color:#838484"/>
		<stop  offset="0.92" style="stop-color:#7C7D7D"/>
		<stop  offset="1" style="stop-color:#8F9090"/>
	</linearGradient>
	<path fill="url(#SVGID_5_)" d="M268.891,68.617h5.25c0,0-0.086,0.316-0.086,0.781l0.086,96.719c0,0.75-0.098,0.84-0.113,0.84
		l-5.137-0.09c0,0,0-0.352,0-0.816V69.367c0-0.75,0.008-0.75,0.02-0.75H268.891z"/>
	
		<linearGradient id="SVGID_6_" gradientUnits="userSpaceOnUse" x1="18.1157" y1="213.2871" x2="18.1157" y2="82.168" gradientTransform="matrix(0.75 0 0 -0.75 210.6631 228.583)">
		<stop  offset="0" style="stop-color:#858585"/>
		<stop  offset="0.15" style="stop-color:#BABBBB"/>
		<stop  offset="0.25" style="stop-color:#DADADA"/>
		<stop  offset="0.52" style="stop-color:#9D9E9E"/>
		<stop  offset="0.69" style="stop-color:#8B8C8C"/>
		<stop  offset="0.8" style="stop-color:#838484"/>
		<stop  offset="0.92" style="stop-color:#7C7D7D"/>
		<stop  offset="1" style="stop-color:#8F9090"/>
	</linearGradient>
	<path fill="url(#SVGID_6_)" d="M221.625,68.617h5.25c0,0-0.086,0.316-0.086,0.781l0.086,96.719c0,0.75-0.098,0.84-0.113,0.84
		l-5.137-0.09c0,0,0-0.352,0-0.816V69.367c0-0.75,0.008-0.75,0.02-0.75H221.625z"/>
	
		<linearGradient id="SVGID_7_" gradientUnits="userSpaceOnUse" x1="37.0542" y1="213.2852" x2="37.0542" y2="129.1602" gradientTransform="matrix(0.75 0 0 -0.75 326.1294 237.3545)">
		<stop  offset="0" style="stop-color:#B5B5B5"/>
		<stop  offset="0.01" style="stop-color:#FFFFFF"/>
		<stop  offset="0.05" style="stop-color:#EBEBEB"/>
		<stop  offset="0.9" style="stop-color:#E7E7E7"/>
		<stop  offset="0.95" style="stop-color:#E2E2E2"/>
		<stop  offset="1" style="stop-color:#A8A8A8"/>
	</linearGradient>
	<path fill="url(#SVGID_7_)" d="M337.84,77.391h31.5c0.75,0,1.16,0.352,1.16,0.816l0.34,61.434c0,0.75-0.754,0.844-1.223,0.844
		l-31.777-0.094c-0.75,0-0.84-0.301-0.84-0.77l0.09-61.48c0-0.75,0.289-0.75,0.758-0.75H337.84z"/>
	
		<linearGradient id="SVGID_8_" gradientUnits="userSpaceOnUse" x1="37.0542" y1="213.2852" x2="37.0542" y2="197.1758" gradientTransform="matrix(0.75 0 0 -0.75 326.1294 262.8584)">
		<stop  offset="0" style="stop-color:#A8A8A8"/>
		<stop  offset="0.01" style="stop-color:#F2F2F2"/>
		<stop  offset="0.05" style="stop-color:#DBDBDB"/>
		<stop  offset="0.9" style="stop-color:#D8D8D8"/>
		<stop  offset="0.95" style="stop-color:#D3D3D3"/>
		<stop  offset="1" style="stop-color:#9C9C9C"/>
	</linearGradient>
	<path fill="url(#SVGID_8_)" d="M337.84,102.895h31.5c0.75,0,1.16,0.066,1.16,0.156l0.34,11.844c0,0-0.754,0.082-1.223,0.082
		l-31.777-0.082c-0.75,0-0.84,0.008-0.84-0.082l0.09-11.918c0,0,0.289,0,0.758,0H337.84z"/>
	
		<linearGradient id="SVGID_9_" gradientUnits="userSpaceOnUse" x1="17.2168" y1="213.29" x2="17.2168" y2="-22.71" gradientTransform="matrix(0.75 0 0 -0.75 327.1753 177.1309)">
		<stop  offset="0" style="stop-color:#979898"/>
		<stop  offset="0.15" style="stop-color:#D0D1D1"/>
		<stop  offset="0.25" style="stop-color:#E5E6E6"/>
		<stop  offset="0.52" style="stop-color:#B3B4B4"/>
		<stop  offset="0.69" style="stop-color:#9FA0A0"/>
		<stop  offset="0.8" style="stop-color:#969797"/>
		<stop  offset="0.92" style="stop-color:#8E8E8E"/>
		<stop  offset="1" style="stop-color:#A3A4A4"/>
	</linearGradient>
	<path fill="url(#SVGID_9_)" d="M338.137,17.164h3.75c0,0,0.172,0.309,0.172,0.773l-0.172,175.477c0,0,0.102,0.746,0.016,0.746
		l-3.766,0.004c0,0-0.02-0.434-0.02-0.898l0.02-175.352c0-0.75,0.051-0.75,0.137-0.75H338.137z"/>
	
		<linearGradient id="SVGID_10_" gradientUnits="userSpaceOnUse" x1="21.0752" y1="213.2891" x2="21.0752" y2="-34.7422" gradientTransform="matrix(0.75 0 0 -0.75 318.188 172.627)">
		<stop  offset="0" style="stop-color:#BDBDBD"/>
		<stop  offset="0.15" style="stop-color:#FFFFFF"/>
		<stop  offset="0.25" style="stop-color:#FFFFFF"/>
		<stop  offset="0.52" style="stop-color:#DFDFDF"/>
		<stop  offset="0.69" style="stop-color:#C7C7C7"/>
		<stop  offset="0.8" style="stop-color:#BCBCBC"/>
		<stop  offset="0.92" style="stop-color:#B1B1B1"/>
		<stop  offset="1" style="stop-color:#CBCBCB"/>
	</linearGradient>
	<path fill="url(#SVGID_10_)" d="M330.648,12.66h6.75c0.75,0,1.188,0.34,1.188,0.809l0.313,184.441c0,0-0.984,0.773-1.816,0.773
		l-6.434-0.023c-0.75,0-1.559-0.387-1.559-0.852l0.059-184.398c0-0.75,0.617-0.75,1.445-0.75H330.648z"/>
	
		<linearGradient id="SVGID_11_" gradientUnits="userSpaceOnUse" x1="195.6509" y1="482.5938" x2="195.6509" y2="384.5938" gradientTransform="matrix(0.5303 0.5303 0.5303 -0.5303 -134.2556 331.3099)">
		<stop  offset="0" style="stop-color:#BDBDBD"/>
		<stop  offset="0.15" style="stop-color:#FFFFFF"/>
		<stop  offset="0.25" style="stop-color:#FFFFFF"/>
		<stop  offset="0.52" style="stop-color:#DFDFDF"/>
		<stop  offset="0.69" style="stop-color:#C7C7C7"/>
		<stop  offset="0.8" style="stop-color:#BCBCBC"/>
		<stop  offset="0.92" style="stop-color:#B1B1B1"/>
		<stop  offset="1" style="stop-color:#CBCBCB"/>
	</linearGradient>
	<path fill="url(#SVGID_11_)" d="M212.66,166.355l75.836,75.836c0.531,0.531,0.469,0.801,0.223,1.047l-51.137,50.926
		c0,0-0.617,0.152-0.945-0.176L110.305,167.945c-0.531-0.531-0.109-0.953,0.137-1.199c-0.137,0.141,5.844-5.156,49.871-5.16
		c44.391-0.004,52.383,4.809,52.387,4.809L212.66,166.355z"/>
	
		<linearGradient id="SVGID_12_" gradientUnits="userSpaceOnUse" x1="79.5352" y1="482.5967" x2="79.5351" y2="381.5908" gradientTransform="matrix(0.5303 0.5303 0.5303 -0.5303 -9.0602 455.1)">
		<stop  offset="0" style="stop-color:#A3A3A4"/>
		<stop  offset="0.15" style="stop-color:#DEDEDF"/>
		<stop  offset="0.25" style="stop-color:#EDEDED"/>
		<stop  offset="0.52" style="stop-color:#C0C0C1"/>
		<stop  offset="0.69" style="stop-color:#ABABAC"/>
		<stop  offset="0.8" style="stop-color:#A1A1A2"/>
		<stop  offset="0.92" style="stop-color:#989899"/>
		<stop  offset="1" style="stop-color:#AFAFB0"/>
	</linearGradient>
	<path fill="url(#SVGID_12_)" d="M287.473,239.762l2.648,2.652c0.531,0.531,0.609,1.043,0.289,1.363l-52.262,52.73
		c0,0-0.965-0.023-1.285-0.344l-2.957-2.836c-0.527-0.531-0.227-0.867,0.094-1.188l52.41-52.379
		c0.531-0.527,0.773-0.285,1.094,0.035L287.473,239.762z"/>
	
		<linearGradient id="SVGID_13_" gradientUnits="userSpaceOnUse" x1="79.5366" y1="482.5957" x2="79.5366" y2="381.5938" gradientTransform="matrix(0.5303 0.5303 0.5303 -0.5303 -18.363 445.8754)">
		<stop  offset="0" style="stop-color:#A3A3A4"/>
		<stop  offset="0.15" style="stop-color:#DEDEDF"/>
		<stop  offset="0.25" style="stop-color:#EDEDED"/>
		<stop  offset="0.52" style="stop-color:#C0C0C1"/>
		<stop  offset="0.69" style="stop-color:#ABABAC"/>
		<stop  offset="0.8" style="stop-color:#A1A1A2"/>
		<stop  offset="0.92" style="stop-color:#989899"/>
		<stop  offset="1" style="stop-color:#AFAFB0"/>
	</linearGradient>
	<path fill="url(#SVGID_13_)" d="M278.168,230.539l2.652,2.652c0.531,0.531,0.609,1.039,0.289,1.359l-52.262,52.734
		c0,0-0.965-0.027-1.285-0.348l-2.957-2.836c-0.531-0.531-0.227-0.867,0.094-1.188l52.41-52.375
		c0.527-0.531,0.773-0.289,1.094,0.031L278.168,230.539z"/>
	
		<linearGradient id="SVGID_14_" gradientUnits="userSpaceOnUse" x1="79.5352" y1="482.5947" x2="79.5351" y2="381.5957" gradientTransform="matrix(0.5303 0.5303 0.5303 -0.5303 -27.6657 436.6498)">
		<stop  offset="0" style="stop-color:#A3A3A4"/>
		<stop  offset="0.15" style="stop-color:#DEDEDF"/>
		<stop  offset="0.25" style="stop-color:#EDEDED"/>
		<stop  offset="0.52" style="stop-color:#C0C0C1"/>
		<stop  offset="0.69" style="stop-color:#ABABAC"/>
		<stop  offset="0.8" style="stop-color:#A1A1A2"/>
		<stop  offset="0.92" style="stop-color:#989899"/>
		<stop  offset="1" style="stop-color:#AFAFB0"/>
	</linearGradient>
	<path fill="url(#SVGID_14_)" d="M268.867,221.313l2.652,2.652c0.527,0.531,0.609,1.043,0.289,1.363l-52.262,52.73
		c0,0-0.965-0.023-1.285-0.348l-2.957-2.836c-0.531-0.527-0.23-0.867,0.09-1.188l52.41-52.375c0.531-0.531,0.773-0.285,1.094,0.035
		L268.867,221.313z"/>
	
		<linearGradient id="SVGID_15_" gradientUnits="userSpaceOnUse" x1="79.5361" y1="482.5947" x2="79.5361" y2="381.5918" gradientTransform="matrix(0.5303 0.5303 0.5303 -0.5303 -36.9685 427.4242)">
		<stop  offset="0" style="stop-color:#A3A3A4"/>
		<stop  offset="0.15" style="stop-color:#DEDEDF"/>
		<stop  offset="0.25" style="stop-color:#EDEDED"/>
		<stop  offset="0.52" style="stop-color:#C0C0C1"/>
		<stop  offset="0.69" style="stop-color:#ABABAC"/>
		<stop  offset="0.8" style="stop-color:#A1A1A2"/>
		<stop  offset="0.92" style="stop-color:#989899"/>
		<stop  offset="1" style="stop-color:#AFAFB0"/>
	</linearGradient>
	<path fill="url(#SVGID_15_)" d="M259.563,212.09l2.652,2.648c0.531,0.531,0.609,1.043,0.289,1.363l-52.262,52.73
		c0,0-0.965-0.023-1.285-0.344L206,265.652c-0.531-0.531-0.227-0.867,0.094-1.188l52.41-52.375c0.527-0.531,0.773-0.289,1.094,0.031
		L259.563,212.09z"/>
	
		<linearGradient id="SVGID_16_" gradientUnits="userSpaceOnUse" x1="35.9937" y1="38.6938" x2="14.5093" y2="38.6938" gradientTransform="matrix(0.75 0 0 -0.75 75.2622 146.8086)">
		<stop  offset="0" style="stop-color:#A8A8A8"/>
		<stop  offset="0.01" style="stop-color:#F2F2F2"/>
		<stop  offset="0.05" style="stop-color:#DBDBDB"/>
		<stop  offset="0.9" style="stop-color:#D8D8D8"/>
		<stop  offset="0.95" style="stop-color:#D3D3D3"/>
		<stop  offset="1" style="stop-color:#9C9C9C"/>
	</linearGradient>
	<path fill="url(#SVGID_16_)" d="M89.223-13.156h9.75c2.25,0,3.285,1.355,3.285,3.055l-0.285,255.695c0,1.5-1.102,3.141-2.813,3.141
		l-9.938-0.141c-1.5,0-3.078-1.313-3.078-3.012l0.078-255.738c0-1.5,1.309-3,3.02-3H89.223z"/>
	
		<linearGradient id="SVGID_17_" gradientUnits="userSpaceOnUse" x1="54.7432" y1="69.2334" x2="14.6133" y2="69.2334" gradientTransform="matrix(0.75 0 0 -0.75 68.2041 169.7129)">
		<stop  offset="0" style="stop-color:#B5B5B5"/>
		<stop  offset="0.01" style="stop-color:#FFFFFF"/>
		<stop  offset="0.05" style="stop-color:#EBEBEB"/>
		<stop  offset="0.9" style="stop-color:#E7E7E7"/>
		<stop  offset="0.95" style="stop-color:#E2E2E2"/>
		<stop  offset="1" style="stop-color:#A8A8A8"/>
	</linearGradient>
	<path fill="url(#SVGID_17_)" d="M80.664,9.75h27c0.75,0,1.598,0.313,1.598,0.777L109.164,225c0,0.75-0.457,0.828-1.141,0.828
		l-27.359-0.078c-0.75,0-1.5-0.301-1.5-0.766V10.5c0-0.75,0.555-0.75,1.238-0.75H80.664z"/>
</g>
</svg>
