<?xml version="1.0" encoding="utf-8"?>
<!-- Generator: Adobe Illustrator 16.0.0, SVG Export Plug-In . SVG Version: 6.00 Build 0)  -->
<!DOCTYPE svg PUBLIC "-//W3C//DTD SVG 1.1//EN" "http://www.w3.org/Graphics/SVG/1.1/DTD/svg11.dtd">
<svg preserveAspectRatio="none" version="1.1" id="图层_1" xmlns="http://www.w3.org/2000/svg" xmlns:xlink="http://www.w3.org/1999/xlink" x="0px" y="0px"
	 width="321.961px" height="607.5px" viewBox="39.27 -162.195 321.961 607.5" enable-background="new 39.27 -162.195 321.961 607.5"
	 xml:space="preserve">
<g id="surface871">
	
		<linearGradient id="SVGID_1_" gradientUnits="userSpaceOnUse" x1="-22.1411" y1="-75.979" x2="-58.2026" y2="-75.979" gradientTransform="matrix(0.0353 0.7492 -0.7492 0.0353 144.8938 271.5364)">
		<stop  offset="0" style="stop-color:#BA9A70"/>
		<stop  offset="0.22" style="stop-color:#D1AD7F"/>
		<stop  offset="0.57" style="stop-color:#EEDCC9"/>
		<stop  offset="0.84" style="stop-color:#E5C9A8"/>
		<stop  offset="1" style="stop-color:#C9A67A"/>
	</linearGradient>
	<path fill="url(#SVGID_1_)" d="M40.719,244.059l0.211,4.496c0.281,5.992,5.52,10.984,11.734,10.691l296.703-13.977
		c5.992-0.281,10.703-5.652,10.406-11.969l0.09-4.293c-0.281-5.992-5.91-11.031-12.125-10.738L51.426,232.293
		c-5.992,0.281-11,5.598-10.703,11.914L40.719,244.059z"/>
	
		<linearGradient id="SVGID_2_" gradientUnits="userSpaceOnUse" x1="-22.1411" y1="-75.9775" x2="-58.2026" y2="-75.9775" gradientTransform="matrix(0.0353 0.7492 -0.7492 0.0353 144.8938 212.2551)">
		<stop  offset="0" style="stop-color:#BA9A70"/>
		<stop  offset="0.22" style="stop-color:#D1AD7F"/>
		<stop  offset="0.57" style="stop-color:#EEDCC9"/>
		<stop  offset="0.84" style="stop-color:#E5C9A8"/>
		<stop  offset="1" style="stop-color:#C9A67A"/>
	</linearGradient>
	<path fill="url(#SVGID_2_)" d="M40.719,184.777l0.211,4.496c0.281,5.992,5.52,10.984,11.734,10.688l296.703-13.973
		c5.992-0.281,10.703-5.652,10.406-11.969l0.09-4.293c-0.281-5.992-5.91-11.031-12.125-10.738L51.426,173.012
		c-5.992,0.281-11,5.598-10.703,11.914L40.719,184.777z"/>
	
		<linearGradient id="SVGID_3_" gradientUnits="userSpaceOnUse" x1="-22.1401" y1="-75.9775" x2="-58.2017" y2="-75.9775" gradientTransform="matrix(0.0353 0.7492 -0.7492 0.0353 144.8938 154.5125)">
		<stop  offset="0" style="stop-color:#BA9A70"/>
		<stop  offset="0.22" style="stop-color:#D1AD7F"/>
		<stop  offset="0.57" style="stop-color:#EEDCC9"/>
		<stop  offset="0.84" style="stop-color:#E5C9A8"/>
		<stop  offset="1" style="stop-color:#C9A67A"/>
	</linearGradient>
	<path fill="url(#SVGID_3_)" d="M40.719,127.035l0.211,4.496c0.281,5.992,5.52,10.98,11.734,10.688l296.703-13.973
		c5.992-0.281,10.703-5.656,10.406-11.969l0.09-4.293c-0.281-5.992-5.91-11.035-12.125-10.738L51.426,115.27
		c-5.992,0.281-11,5.598-10.703,11.914L40.719,127.035z"/>
	
		<linearGradient id="SVGID_4_" gradientUnits="userSpaceOnUse" x1="-22.1401" y1="-75.9785" x2="-58.2065" y2="-75.9785" gradientTransform="matrix(0.0353 0.7492 -0.7492 0.0353 144.8938 97.4612)">
		<stop  offset="0" style="stop-color:#BA9A70"/>
		<stop  offset="0.22" style="stop-color:#D1AD7F"/>
		<stop  offset="0.57" style="stop-color:#EEDCC9"/>
		<stop  offset="0.84" style="stop-color:#E5C9A8"/>
		<stop  offset="1" style="stop-color:#C9A67A"/>
	</linearGradient>
	<path fill="url(#SVGID_4_)" d="M40.719,69.984l0.211,4.492c0.281,5.996,5.52,10.984,11.734,10.691l296.703-13.973
		c5.992-0.281,10.703-5.656,10.406-11.973l0.09-4.289c-0.281-5.992-5.91-11.035-12.125-10.742L51.426,58.215
		c-5.992,0.285-11,5.602-10.703,11.918L40.719,69.984z"/>
	
		<linearGradient id="SVGID_5_" gradientUnits="userSpaceOnUse" x1="-22.1416" y1="-75.9785" x2="-58.2031" y2="-75.9785" gradientTransform="matrix(0.0353 0.7492 -0.7492 0.0353 144.8938 36.2673)">
		<stop  offset="0" style="stop-color:#BA9A70"/>
		<stop  offset="0.22" style="stop-color:#D1AD7F"/>
		<stop  offset="0.57" style="stop-color:#EEDCC9"/>
		<stop  offset="0.84" style="stop-color:#E5C9A8"/>
		<stop  offset="1" style="stop-color:#C9A67A"/>
	</linearGradient>
	<path fill="url(#SVGID_5_)" d="M40.719,8.789l0.211,4.496c0.281,5.992,5.52,10.984,11.734,10.691L349.367,10
		c5.992-0.281,10.703-5.652,10.406-11.969l0.09-4.293c-0.281-5.992-5.91-11.031-12.125-10.738L51.426-2.977
		c-5.992,0.281-11,5.598-10.703,11.914L40.719,8.789z"/>
	
		<linearGradient id="SVGID_6_" gradientUnits="userSpaceOnUse" x1="11.3774" y1="-49.874" x2="-24.7456" y2="-49.874" gradientTransform="matrix(0.1277 0.7391 -0.7391 0.1277 164.4196 327.3519)">
		<stop  offset="0" style="stop-color:#BA9A70"/>
		<stop  offset="0.22" style="stop-color:#D1AD7F"/>
		<stop  offset="0.57" style="stop-color:#EEDCC9"/>
		<stop  offset="0.84" style="stop-color:#E5C9A8"/>
		<stop  offset="1" style="stop-color:#C9A67A"/>
	</linearGradient>
	<path fill="url(#SVGID_6_)" d="M40.039,341.469l0.766,4.434c1.02,5.914,6.922,10.262,13.156,9.188l296.945-51.332
		c6.652-1.148,10.594-7.004,9.516-13.25l-0.371-4.313c-1.023-5.914-7.387-10.191-13.617-9.117L49.211,328.469
		c-5.914,1.02-10.223,6.926-9.141,13.172L40.039,341.469z"/>
	
		<linearGradient id="SVGID_7_" gradientUnits="userSpaceOnUse" x1="81.6118" y1="-191.7124" x2="14.6118" y2="-191.7124" gradientTransform="matrix(0.75 0 0 -0.75 164.2358 -2.2305)">
		<stop  offset="0" style="stop-color:#BA9A70"/>
		<stop  offset="0.22" style="stop-color:#D1AD7F"/>
		<stop  offset="0.57" style="stop-color:#EEDCC9"/>
		<stop  offset="0.84" style="stop-color:#E5C9A8"/>
		<stop  offset="1" style="stop-color:#C9A67A"/>
	</linearGradient>
	<path fill="url(#SVGID_7_)" d="M176.695-162.195h47.25c0.75,0,1.359,1.816,1.359,4.188l0.141,598.813
		c0,2.25-0.906,4.379-1.82,4.379l-46.93,0.121c-0.75,0-1.5-2.094-1.5-4.465v-598.535c0-3,0.703-4.5,1.621-4.5H176.695z"/>
	
		<linearGradient id="SVGID_8_" gradientUnits="userSpaceOnUse" x1="-408.5698" y1="-116.0117" x2="-444.6929" y2="-116.0117" gradientTransform="matrix(0.1057 -0.7425 -0.7425 -0.1057 159.3751 -60.4163)">
		<stop  offset="0" style="stop-color:#BA9A70"/>
		<stop  offset="0.22" style="stop-color:#D1AD7F"/>
		<stop  offset="0.57" style="stop-color:#EEDCC9"/>
		<stop  offset="0.84" style="stop-color:#E5C9A8"/>
		<stop  offset="1" style="stop-color:#C9A67A"/>
	</linearGradient>
	<path fill="url(#SVGID_8_)" d="M39.359,247.969l0.633-4.453c0.848-5.941,6.617-10.465,12.879-9.574l298.336,42.5
		c6.684,0.953,10.793,6.688,9.902,12.961l-0.238,4.324c-0.848,5.941-7.086,10.406-13.348,9.516L48.914,260.691
		c-5.941-0.844-10.422-6.621-9.531-12.895L39.359,247.969z"/>
	
		<linearGradient id="SVGID_9_" gradientUnits="userSpaceOnUse" x1="-408.5718" y1="-116.0098" x2="-444.6938" y2="-116.0098" gradientTransform="matrix(0.1057 -0.7425 -0.7425 -0.1057 159.3751 -119.2132)">
		<stop  offset="0" style="stop-color:#BA9A70"/>
		<stop  offset="0.22" style="stop-color:#D1AD7F"/>
		<stop  offset="0.57" style="stop-color:#EEDCC9"/>
		<stop  offset="0.84" style="stop-color:#E5C9A8"/>
		<stop  offset="1" style="stop-color:#C9A67A"/>
	</linearGradient>
	<path fill="url(#SVGID_9_)" d="M39.359,189.172l0.633-4.457c0.848-5.938,6.617-10.461,12.879-9.57l298.336,42.5
		c6.684,0.953,10.793,6.688,9.902,12.961l-0.238,4.324c-0.848,5.941-7.086,10.406-13.348,9.516L48.914,201.895
		c-5.941-0.844-10.422-6.621-9.531-12.895L39.359,189.172z"/>
	
		<linearGradient id="SVGID_10_" gradientUnits="userSpaceOnUse" x1="-408.5747" y1="-116.0107" x2="-444.6929" y2="-116.0107" gradientTransform="matrix(0.1057 -0.7425 -0.7425 -0.1057 159.3751 -177.9271)">
		<stop  offset="0" style="stop-color:#BA9A70"/>
		<stop  offset="0.22" style="stop-color:#D1AD7F"/>
		<stop  offset="0.57" style="stop-color:#EEDCC9"/>
		<stop  offset="0.84" style="stop-color:#E5C9A8"/>
		<stop  offset="1" style="stop-color:#C9A67A"/>
	</linearGradient>
	<path fill="url(#SVGID_10_)" d="M39.359,130.457l0.633-4.453c0.848-5.941,6.617-10.465,12.879-9.57l298.336,42.5
		c6.684,0.949,10.793,6.684,9.902,12.957l-0.238,4.324c-0.848,5.941-7.086,10.406-13.348,9.516L48.914,143.18
		c-5.941-0.844-10.422-6.621-9.531-12.895L39.359,130.457z"/>
	
		<linearGradient id="SVGID_11_" gradientUnits="userSpaceOnUse" x1="-408.5688" y1="-116.0107" x2="-444.6919" y2="-116.0107" gradientTransform="matrix(0.1057 -0.7425 -0.7425 -0.1057 159.3751 -236.6575)">
		<stop  offset="0" style="stop-color:#BA9A70"/>
		<stop  offset="0.22" style="stop-color:#D1AD7F"/>
		<stop  offset="0.57" style="stop-color:#EEDCC9"/>
		<stop  offset="0.84" style="stop-color:#E5C9A8"/>
		<stop  offset="1" style="stop-color:#C9A67A"/>
	</linearGradient>
	<path fill="url(#SVGID_11_)" d="M39.359,71.727l0.633-4.453c0.848-5.941,6.617-10.465,12.879-9.574l298.336,42.5
		c6.684,0.953,10.793,6.688,9.902,12.961l-0.238,4.324c-0.848,5.941-7.086,10.406-13.348,9.516L48.914,84.449
		c-5.941-0.844-10.422-6.621-9.531-12.895L39.359,71.727z"/>
	
		<linearGradient id="SVGID_12_" gradientUnits="userSpaceOnUse" x1="-408.5728" y1="-116.0107" x2="-444.6909" y2="-116.0107" gradientTransform="matrix(0.1057 -0.7425 -0.7425 -0.1057 159.3751 -295.3714)">
		<stop  offset="0" style="stop-color:#BA9A70"/>
		<stop  offset="0.22" style="stop-color:#D1AD7F"/>
		<stop  offset="0.57" style="stop-color:#EEDCC9"/>
		<stop  offset="0.84" style="stop-color:#E5C9A8"/>
		<stop  offset="1" style="stop-color:#C9A67A"/>
	</linearGradient>
	<path fill="url(#SVGID_12_)" d="M39.359,13.012l0.633-4.453c0.848-5.941,6.617-10.461,12.879-9.57l298.336,42.5
		c6.684,0.949,10.793,6.684,9.902,12.957l-0.238,4.324c-0.848,5.941-7.086,10.406-13.348,9.516L48.914,25.738
		c-5.941-0.848-10.422-6.625-9.531-12.898L39.359,13.012z"/>
	
		<linearGradient id="SVGID_13_" gradientUnits="userSpaceOnUse" x1="-408.5718" y1="-116.0098" x2="-444.6899" y2="-116.0098" gradientTransform="matrix(0.1057 -0.7425 -0.7425 -0.1057 159.3751 -354.0892)">
		<stop  offset="0" style="stop-color:#BA9A70"/>
		<stop  offset="0.22" style="stop-color:#D1AD7F"/>
		<stop  offset="0.57" style="stop-color:#EEDCC9"/>
		<stop  offset="0.84" style="stop-color:#E5C9A8"/>
		<stop  offset="1" style="stop-color:#C9A67A"/>
	</linearGradient>
	<path fill="url(#SVGID_13_)" d="M39.359-45.703l0.633-4.457c0.848-5.941,6.617-10.461,12.879-9.57l298.336,42.5
		c6.684,0.949,10.793,6.684,9.902,12.957l-0.238,4.328c-0.848,5.938-7.086,10.402-13.348,9.512L48.914-32.98
		c-5.941-0.848-10.422-6.621-9.531-12.895L39.359-45.703z"/>
</g>
</svg>
