<?xml version="1.0" encoding="utf-8"?>
<!-- Generator: Adobe Illustrator 16.0.0, SVG Export Plug-In . SVG Version: 6.00 Build 0)  -->
<!DOCTYPE svg PUBLIC "-//W3C//DTD SVG 1.1//EN" "http://www.w3.org/Graphics/SVG/1.1/DTD/svg11.dtd">
<svg preserveAspectRatio="none" version="1.1" id="图层_1" xmlns="http://www.w3.org/2000/svg" xmlns:xlink="http://www.w3.org/1999/xlink" x="0px" y="0px"
	 width="76.5px" height="172.738px" viewBox="30 17.941 76.5 172.738" enable-background="new 30 17.941 76.5 172.738"
	 xml:space="preserve">
<g id="surface1161">
	
		<linearGradient id="SVGID_1_" gradientUnits="userSpaceOnUse" x1="64.6133" y1="89.7896" x2="58.6133" y2="89.7896" gradientTransform="matrix(0.75 0 0 -0.75 22.063 112.2822)">
		<stop  offset="0" style="stop-color:#C5B5A2"/>
		<stop  offset="0.15" style="stop-color:#FDEFDD"/>
		<stop  offset="0.25" style="stop-color:#FEF0DF"/>
		<stop  offset="0.52" style="stop-color:#DECCB6"/>
		<stop  offset="0.69" style="stop-color:#C5B5A2"/>
		<stop  offset="0.8" style="stop-color:#BAAB98"/>
		<stop  offset="0.92" style="stop-color:#B0A190"/>
	</linearGradient>
	<path fill="url(#SVGID_1_)" d="M66.023,17.941h4.5v54h-4.5V17.941z"/>
	
		<linearGradient id="SVGID_2_" gradientUnits="userSpaceOnUse" x1="127.6094" y1="116.7861" x2="58.6094" y2="116.7861" gradientTransform="matrix(0.75 0 0 -0.75 -1.501 149.2217)">
		<stop  offset="0" style="stop-color:#B3A593"/>
		<stop  offset="0.01" style="stop-color:#FDEEDA"/>
		<stop  offset="0.03" style="stop-color:#E9D7BF"/>
		<stop  offset="0.64" style="stop-color:#E5D3BC"/>
		<stop  offset="0.99" style="stop-color:#E0CEB8"/>
		<stop  offset="1" style="stop-color:#A69988"/>
	</linearGradient>
	<path fill="url(#SVGID_2_)" d="M42.457,54.883h51c0.75,0,0.586,0.102,0.586,0.23l0.164,13.27h-51.75V54.883c0,0,0.105,0,0.234,0
		H42.457z"/>
	
		<linearGradient id="SVGID_3_" gradientUnits="userSpaceOnUse" x1="81.6104" y1="121.291" x2="58.6108" y2="121.291" gradientTransform="matrix(0.75 0 0 -0.75 15.7363 142.8184)">
		<stop  offset="0" style="stop-color:#C5B5A2"/>
		<stop  offset="0.15" style="stop-color:#FDEFDD"/>
		<stop  offset="0.25" style="stop-color:#FEF0DF"/>
		<stop  offset="0.52" style="stop-color:#DECCB6"/>
		<stop  offset="0.69" style="stop-color:#C5B5A2"/>
		<stop  offset="0.8" style="stop-color:#BAAB98"/>
		<stop  offset="0.92" style="stop-color:#B0A190"/>
	</linearGradient>
	<path fill="url(#SVGID_3_)" d="M59.695,55.227h17.25v-6.75h-17.25V55.227z"/>
	
		<linearGradient id="SVGID_4_" gradientUnits="userSpaceOnUse" x1="97.6143" y1="122.1973" x2="58.6143" y2="122.1973" gradientTransform="matrix(0.75 0 0 -0.75 9.769 137.5742)">
		<stop  offset="0" style="stop-color:#C5B5A2"/>
		<stop  offset="0.15" style="stop-color:#FDEFDD"/>
		<stop  offset="0.25" style="stop-color:#FEF0DF"/>
		<stop  offset="0.52" style="stop-color:#DECCB6"/>
		<stop  offset="0.69" style="stop-color:#C5B5A2"/>
		<stop  offset="0.8" style="stop-color:#BAAB98"/>
		<stop  offset="0.92" style="stop-color:#B0A190"/>
	</linearGradient>
	<path fill="url(#SVGID_4_)" d="M53.73,43.234h28.5c0.75,0,0.539,0.09,0.539,0.219l0.211,5.031c0,0-0.32,0.148-0.445,0.148
		L53.73,48.484c0,0,0,0.043,0-0.086V43.234c0,0,0.086-0.012,0.215-0.012L53.73,43.234z"/>
	
		<linearGradient id="SVGID_5_" gradientUnits="userSpaceOnUse" x1="103.8076" y1="119.29" x2="58.6099" y2="119.29" gradientTransform="matrix(0.75 0 0 -0.75 7.3428 151.0254)">
		<stop  offset="0" style="stop-color:#C7AD86"/>
		<stop  offset="0.15" style="stop-color:#FFE6C5"/>
		<stop  offset="0.25" style="stop-color:#FFE8C9"/>
		<stop  offset="0.52" style="stop-color:#DFC297"/>
		<stop  offset="0.69" style="stop-color:#C7AD86"/>
		<stop  offset="0.8" style="stop-color:#BCA37E"/>
		<stop  offset="0.92" style="stop-color:#B19A77"/>
	</linearGradient>
	<path fill="url(#SVGID_5_)" d="M51.301,56.684h33.75c0,0,0.148,0.078,0.148,0.172l-0.148,9.578h-33.75V56.684c0,0,0.07,0,0.152,0
		H51.301z"/>
	
		<linearGradient id="SVGID_6_" gradientUnits="userSpaceOnUse" x1="59.936" y1="121.2959" x2="58.6003" y2="121.2959" gradientTransform="matrix(0.75 0 0 -0.75 9.6064 136.9492)">
		<stop  offset="0" style="stop-color:#C5B5A2"/>
		<stop  offset="0.15" style="stop-color:#FDEFDD"/>
		<stop  offset="0.25" style="stop-color:#FEF0DF"/>
		<stop  offset="0.52" style="stop-color:#DECCB6"/>
		<stop  offset="0.69" style="stop-color:#C5B5A2"/>
		<stop  offset="0.8" style="stop-color:#BAAB98"/>
		<stop  offset="0.92" style="stop-color:#B0A190"/>
	</linearGradient>
	<path fill="url(#SVGID_6_)" d="M53.566,42.609c0.75,0,0.992,0.094,0.992,0.223l-0.242,6.527c0,0,0.137-0.113,0.008-0.113
		c-0.758,0.113-0.77-0.105-0.77-0.234L53.566,42.609c0,0,0.094-0.012,0.219-0.012L53.566,42.609z"/>
	
		<linearGradient id="SVGID_7_" gradientUnits="userSpaceOnUse" x1="59.9351" y1="121.2959" x2="58.5994" y2="121.2959" gradientTransform="matrix(0.75 0 0 -0.75 11.7886 136.9492)">
		<stop  offset="0" style="stop-color:#C5B5A2"/>
		<stop  offset="0.15" style="stop-color:#FDEFDD"/>
		<stop  offset="0.25" style="stop-color:#FEF0DF"/>
		<stop  offset="0.52" style="stop-color:#DECCB6"/>
		<stop  offset="0.69" style="stop-color:#C5B5A2"/>
		<stop  offset="0.8" style="stop-color:#BAAB98"/>
		<stop  offset="0.92" style="stop-color:#B0A190"/>
	</linearGradient>
	<path fill="url(#SVGID_7_)" d="M55.75,42.609c0.75,0,0.988,0.094,0.988,0.223L56.5,49.359c0,0,0.137-0.113,0.008-0.113
		c-0.758,0.113-0.77-0.105-0.77-0.234L55.75,42.609c0,0,0.09-0.012,0.219-0.012L55.75,42.609z"/>
	
		<linearGradient id="SVGID_8_" gradientUnits="userSpaceOnUse" x1="59.9351" y1="121.2959" x2="58.5994" y2="121.2959" gradientTransform="matrix(0.75 0 0 -0.75 13.9702 136.9492)">
		<stop  offset="0" style="stop-color:#C5B5A2"/>
		<stop  offset="0.15" style="stop-color:#FDEFDD"/>
		<stop  offset="0.25" style="stop-color:#FEF0DF"/>
		<stop  offset="0.52" style="stop-color:#DECCB6"/>
		<stop  offset="0.69" style="stop-color:#C5B5A2"/>
		<stop  offset="0.8" style="stop-color:#BAAB98"/>
		<stop  offset="0.92" style="stop-color:#B0A190"/>
	</linearGradient>
	<path fill="url(#SVGID_8_)" d="M57.93,42.609c0.75,0,0.992,0.094,0.992,0.223l-0.242,6.527c0,0,0.137-0.113,0.012-0.113
		c-0.762,0.113-0.773-0.105-0.773-0.234L57.93,42.609c0,0,0.094-0.012,0.223-0.012L57.93,42.609z"/>
	
		<linearGradient id="SVGID_9_" gradientUnits="userSpaceOnUse" x1="59.9351" y1="121.2959" x2="58.5994" y2="121.2959" gradientTransform="matrix(0.75 0 0 -0.75 16.1523 136.9492)">
		<stop  offset="0" style="stop-color:#C5B5A2"/>
		<stop  offset="0.15" style="stop-color:#FDEFDD"/>
		<stop  offset="0.25" style="stop-color:#FEF0DF"/>
		<stop  offset="0.52" style="stop-color:#DECCB6"/>
		<stop  offset="0.69" style="stop-color:#C5B5A2"/>
		<stop  offset="0.8" style="stop-color:#BAAB98"/>
		<stop  offset="0.92" style="stop-color:#B0A190"/>
	</linearGradient>
	<path fill="url(#SVGID_9_)" d="M60.113,42.609c0.75,0,0.988,0.094,0.988,0.223l-0.238,6.527c0,0,0.137-0.113,0.008-0.113
		c-0.758,0.113-0.77-0.105-0.77-0.234L60.113,42.609c0,0,0.09-0.012,0.219-0.012L60.113,42.609z"/>
	
		<linearGradient id="SVGID_10_" gradientUnits="userSpaceOnUse" x1="59.9351" y1="121.2959" x2="58.5994" y2="121.2959" gradientTransform="matrix(0.75 0 0 -0.75 18.334 136.9492)">
		<stop  offset="0" style="stop-color:#C5B5A2"/>
		<stop  offset="0.15" style="stop-color:#FDEFDD"/>
		<stop  offset="0.25" style="stop-color:#FEF0DF"/>
		<stop  offset="0.52" style="stop-color:#DECCB6"/>
		<stop  offset="0.69" style="stop-color:#C5B5A2"/>
		<stop  offset="0.8" style="stop-color:#BAAB98"/>
		<stop  offset="0.92" style="stop-color:#B0A190"/>
	</linearGradient>
	<path fill="url(#SVGID_10_)" d="M62.293,42.609c0.75,0,0.992,0.094,0.992,0.223l-0.242,6.527c0,0,0.137-0.113,0.012-0.113
		c-0.762,0.113-0.773-0.105-0.773-0.234L62.293,42.609c0,0,0.094-0.012,0.223-0.012L62.293,42.609z"/>
	
		<linearGradient id="SVGID_11_" gradientUnits="userSpaceOnUse" x1="59.9351" y1="121.2959" x2="58.5994" y2="121.2959" gradientTransform="matrix(0.75 0 0 -0.75 20.5161 136.9492)">
		<stop  offset="0" style="stop-color:#C5B5A2"/>
		<stop  offset="0.15" style="stop-color:#FDEFDD"/>
		<stop  offset="0.25" style="stop-color:#FEF0DF"/>
		<stop  offset="0.52" style="stop-color:#DECCB6"/>
		<stop  offset="0.69" style="stop-color:#C5B5A2"/>
		<stop  offset="0.8" style="stop-color:#BAAB98"/>
		<stop  offset="0.92" style="stop-color:#B0A190"/>
	</linearGradient>
	<path fill="url(#SVGID_11_)" d="M64.477,42.609c0.75,0,0.992,0.094,0.992,0.223l-0.242,6.527c0,0,0.137-0.113,0.008-0.113
		c-0.758,0.113-0.77-0.105-0.77-0.234L64.477,42.609c0,0,0.094-0.012,0.219-0.012L64.477,42.609z"/>
	
		<linearGradient id="SVGID_12_" gradientUnits="userSpaceOnUse" x1="59.9351" y1="121.2959" x2="58.5994" y2="121.2959" gradientTransform="matrix(0.75 0 0 -0.75 22.6655 136.9492)">
		<stop  offset="0" style="stop-color:#C5B5A2"/>
		<stop  offset="0.15" style="stop-color:#FDEFDD"/>
		<stop  offset="0.25" style="stop-color:#FEF0DF"/>
		<stop  offset="0.52" style="stop-color:#DECCB6"/>
		<stop  offset="0.69" style="stop-color:#C5B5A2"/>
		<stop  offset="0.8" style="stop-color:#BAAB98"/>
		<stop  offset="0.92" style="stop-color:#B0A190"/>
	</linearGradient>
	<path fill="url(#SVGID_12_)" d="M66.625,42.609c0.75,0,0.992,0.094,0.992,0.223l-0.242,6.527c0,0,0.137-0.113,0.012-0.113
		c-0.762,0.113-0.773-0.105-0.773-0.234L66.625,42.609c0,0,0.094-0.012,0.223-0.012L66.625,42.609z"/>
	
		<linearGradient id="SVGID_13_" gradientUnits="userSpaceOnUse" x1="59.9355" y1="121.2959" x2="58.5999" y2="121.2959" gradientTransform="matrix(0.75 0 0 -0.75 24.8799 136.9492)">
		<stop  offset="0" style="stop-color:#C5B5A2"/>
		<stop  offset="0.15" style="stop-color:#FDEFDD"/>
		<stop  offset="0.25" style="stop-color:#FEF0DF"/>
		<stop  offset="0.52" style="stop-color:#DECCB6"/>
		<stop  offset="0.69" style="stop-color:#C5B5A2"/>
		<stop  offset="0.8" style="stop-color:#BAAB98"/>
		<stop  offset="0.92" style="stop-color:#B0A190"/>
	</linearGradient>
	<path fill="url(#SVGID_13_)" d="M68.84,42.609c0.75,0,0.992,0.094,0.992,0.223l-0.242,6.527c0,0,0.137-0.113,0.008-0.113
		c-0.758,0.113-0.77-0.105-0.77-0.234L68.84,42.609c0,0,0.094-0.012,0.219-0.012L68.84,42.609z"/>
	
		<linearGradient id="SVGID_14_" gradientUnits="userSpaceOnUse" x1="59.936" y1="121.2959" x2="58.6003" y2="121.2959" gradientTransform="matrix(0.75 0 0 -0.75 26.9971 136.9492)">
		<stop  offset="0" style="stop-color:#C5B5A2"/>
		<stop  offset="0.15" style="stop-color:#FDEFDD"/>
		<stop  offset="0.25" style="stop-color:#FEF0DF"/>
		<stop  offset="0.52" style="stop-color:#DECCB6"/>
		<stop  offset="0.69" style="stop-color:#C5B5A2"/>
		<stop  offset="0.8" style="stop-color:#BAAB98"/>
		<stop  offset="0.92" style="stop-color:#B0A190"/>
	</linearGradient>
	<path fill="url(#SVGID_14_)" d="M70.957,42.609c0.75,0,0.992,0.094,0.992,0.223l-0.242,6.527c0,0,0.137-0.113,0.012-0.113
		c-0.762,0.113-0.773-0.105-0.773-0.234L70.957,42.609c0,0,0.094-0.012,0.219-0.012L70.957,42.609z"/>
	
		<linearGradient id="SVGID_15_" gradientUnits="userSpaceOnUse" x1="59.9355" y1="121.2959" x2="58.5999" y2="121.2959" gradientTransform="matrix(0.75 0 0 -0.75 29.2437 136.9492)">
		<stop  offset="0" style="stop-color:#C5B5A2"/>
		<stop  offset="0.15" style="stop-color:#FDEFDD"/>
		<stop  offset="0.25" style="stop-color:#FEF0DF"/>
		<stop  offset="0.52" style="stop-color:#DECCB6"/>
		<stop  offset="0.69" style="stop-color:#C5B5A2"/>
		<stop  offset="0.8" style="stop-color:#BAAB98"/>
		<stop  offset="0.92" style="stop-color:#B0A190"/>
	</linearGradient>
	<path fill="url(#SVGID_15_)" d="M73.203,42.609c0.75,0,0.992,0.094,0.992,0.223l-0.242,6.527c0,0,0.137-0.113,0.012-0.113
		c-0.762,0.113-0.773-0.105-0.773-0.234L73.203,42.609c0,0,0.094-0.012,0.223-0.012L73.203,42.609z"/>
	
		<linearGradient id="SVGID_16_" gradientUnits="userSpaceOnUse" x1="59.9351" y1="121.2959" x2="58.5994" y2="121.2959" gradientTransform="matrix(0.75 0 0 -0.75 31.4253 136.9492)">
		<stop  offset="0" style="stop-color:#C5B5A2"/>
		<stop  offset="0.15" style="stop-color:#FDEFDD"/>
		<stop  offset="0.25" style="stop-color:#FEF0DF"/>
		<stop  offset="0.52" style="stop-color:#DECCB6"/>
		<stop  offset="0.69" style="stop-color:#C5B5A2"/>
		<stop  offset="0.8" style="stop-color:#BAAB98"/>
		<stop  offset="0.92" style="stop-color:#B0A190"/>
	</linearGradient>
	<path fill="url(#SVGID_16_)" d="M75.387,42.609c0.75,0,0.988,0.094,0.988,0.223l-0.238,6.527c0,0,0.137-0.113,0.008-0.113
		c-0.758,0.113-0.77-0.105-0.77-0.234L75.387,42.609c0,0,0.09-0.012,0.219-0.012L75.387,42.609z"/>
	
		<linearGradient id="SVGID_17_" gradientUnits="userSpaceOnUse" x1="59.9346" y1="121.2959" x2="58.5989" y2="121.2959" gradientTransform="matrix(0.75 0 0 -0.75 33.6074 136.9492)">
		<stop  offset="0" style="stop-color:#C5B5A2"/>
		<stop  offset="0.15" style="stop-color:#FDEFDD"/>
		<stop  offset="0.25" style="stop-color:#FEF0DF"/>
		<stop  offset="0.52" style="stop-color:#DECCB6"/>
		<stop  offset="0.69" style="stop-color:#C5B5A2"/>
		<stop  offset="0.8" style="stop-color:#BAAB98"/>
		<stop  offset="0.92" style="stop-color:#B0A190"/>
	</linearGradient>
	<path fill="url(#SVGID_17_)" d="M77.566,42.609c0.75,0,0.992,0.094,0.992,0.223l-0.242,6.527c0,0,0.137-0.113,0.012-0.113
		c-0.762,0.113-0.773-0.105-0.773-0.234L77.566,42.609c0,0,0.094-0.012,0.223-0.012L77.566,42.609z"/>
	
		<linearGradient id="SVGID_18_" gradientUnits="userSpaceOnUse" x1="59.936" y1="121.2959" x2="58.6003" y2="121.2959" gradientTransform="matrix(0.75 0 0 -0.75 35.7896 136.9492)">
		<stop  offset="0" style="stop-color:#C5B5A2"/>
		<stop  offset="0.15" style="stop-color:#FDEFDD"/>
		<stop  offset="0.25" style="stop-color:#FEF0DF"/>
		<stop  offset="0.52" style="stop-color:#DECCB6"/>
		<stop  offset="0.69" style="stop-color:#C5B5A2"/>
		<stop  offset="0.8" style="stop-color:#BAAB98"/>
		<stop  offset="0.92" style="stop-color:#B0A190"/>
	</linearGradient>
	<path fill="url(#SVGID_18_)" d="M79.75,42.609c0.75,0,0.992,0.094,0.992,0.223L80.5,49.359c0,0,0.137-0.113,0.008-0.113
		c-0.758,0.113-0.77-0.105-0.77-0.234L79.75,42.609c0,0,0.094-0.012,0.219-0.012L79.75,42.609z"/>
	
		<linearGradient id="SVGID_19_" gradientUnits="userSpaceOnUse" x1="59.9351" y1="121.2959" x2="58.5994" y2="121.2959" gradientTransform="matrix(0.75 0 0 -0.75 37.9712 136.9492)">
		<stop  offset="0" style="stop-color:#C5B5A2"/>
		<stop  offset="0.15" style="stop-color:#FDEFDD"/>
		<stop  offset="0.25" style="stop-color:#FEF0DF"/>
		<stop  offset="0.52" style="stop-color:#DECCB6"/>
		<stop  offset="0.69" style="stop-color:#C5B5A2"/>
		<stop  offset="0.8" style="stop-color:#BAAB98"/>
		<stop  offset="0.92" style="stop-color:#B0A190"/>
	</linearGradient>
	<path fill="url(#SVGID_19_)" d="M81.93,42.609c0.75,0,0.992,0.094,0.992,0.223l-0.242,6.527c0,0,0.141-0.113,0.012-0.113
		c-0.762,0.113-0.77-0.105-0.77-0.234L81.93,42.609c0,0,0.094-0.012,0.223-0.012L81.93,42.609z"/>
	
		<linearGradient id="SVGID_20_" gradientUnits="userSpaceOnUse" x1="127.6094" y1="125.2881" x2="58.6094" y2="125.2881" gradientTransform="matrix(0.75 0 0 -0.75 -1.501 162.0977)">
		<stop  offset="0" style="stop-color:#95836C"/>
		<stop  offset="0.01" style="stop-color:#DDCAB4"/>
		<stop  offset="0.03" style="stop-color:#C2AB8D"/>
		<stop  offset="0.64" style="stop-color:#BFA88B"/>
		<stop  offset="0.99" style="stop-color:#BBA488"/>
		<stop  offset="1" style="stop-color:#8A7963"/>
	</linearGradient>
	<path fill="url(#SVGID_20_)" d="M42.457,67.758h51c0.75,0,0.586,0.008,0.586,0.016l0.164,0.734h-51.75V67.758c0,0,0.105,0,0.234,0
		H42.457z"/>
	
		<linearGradient id="SVGID_21_" gradientUnits="userSpaceOnUse" x1="151.6143" y1="86.0483" x2="58.6143" y2="86.0483" gradientTransform="matrix(0.75 0 0 -0.75 -10.5044 166.6846)">
		<stop  offset="0" style="stop-color:#937E64"/>
		<stop  offset="0.01" style="stop-color:#DAC5AE"/>
		<stop  offset="0.03" style="stop-color:#BFA584"/>
		<stop  offset="0.64" style="stop-color:#BCA282"/>
		<stop  offset="0.99" style="stop-color:#B89E7F"/>
		<stop  offset="1" style="stop-color:#88745D"/>
	</linearGradient>
	<path fill="url(#SVGID_21_)" d="M103.207,72.344v59.25c0,0-0.273,0.359-0.402,0.359l-69.348-0.359c0,0,0,0.359,0,0.125V72.344
		H103.207z"/>
	
		<linearGradient id="SVGID_22_" gradientUnits="userSpaceOnUse" x1="147.6143" y1="87.7847" x2="58.6147" y2="87.7847" gradientTransform="matrix(0.75 0 0 -0.75 -9.0869 167.9746)">
		<stop  offset="0" style="stop-color:#B3A593"/>
		<stop  offset="0.01" style="stop-color:#FDEEDA"/>
		<stop  offset="0.03" style="stop-color:#E9D7BF"/>
		<stop  offset="0.64" style="stop-color:#E5D3BC"/>
		<stop  offset="0.99" style="stop-color:#E0CEB8"/>
		<stop  offset="1" style="stop-color:#A69988"/>
	</linearGradient>
	<path fill="url(#SVGID_22_)" d="M34.875,73.637h66.75v57h-66.75V73.637z"/>
	
		<linearGradient id="SVGID_23_" gradientUnits="userSpaceOnUse" x1="160.6123" y1="44.2837" x2="58.6123" y2="44.2837" gradientTransform="matrix(0.75 0 0 -0.75 -13.96 162.7676)">
		<stop  offset="0" style="stop-color:#B3A593"/>
		<stop  offset="0.01" style="stop-color:#FDEEDA"/>
		<stop  offset="0.03" style="stop-color:#E9D7BF"/>
		<stop  offset="0.64" style="stop-color:#E5D3BC"/>
		<stop  offset="0.99" style="stop-color:#E0CEB8"/>
		<stop  offset="1" style="stop-color:#A69988"/>
	</linearGradient>
	<path fill="url(#SVGID_23_)" d="M30,68.43h76.5c0,0,0,0,0,0.223V190.68c0,0-0.117-0.121-0.25-0.121L30,190.68c0,0,0-0.121,0-0.367
		V68.43c0,0,0.102,0,0.23,0H30z M33.75,72.18h69v114h-69V72.18z"/>
</g>
</svg>
