<?xml version="1.0" encoding="utf-8"?>
<!-- Generator: Adobe Illustrator 16.0.0, SVG Export Plug-In . SVG Version: 6.00 Build 0)  -->
<!DOCTYPE svg PUBLIC "-//W3C//DTD SVG 1.1//EN" "http://www.w3.org/Graphics/SVG/1.1/DTD/svg11.dtd">
<svg preserveAspectRatio="none" version="1.1" id="图层_1" xmlns="http://www.w3.org/2000/svg" xmlns:xlink="http://www.w3.org/1999/xlink" x="0px" y="0px"
	 width="267.93px" height="419.555px" viewBox="61.473 -62.285 267.93 419.555"
	 enable-background="new 61.473 -62.285 267.93 419.555" xml:space="preserve">
<g id="surface506">
	
		<linearGradient id="SVGID_1_" gradientUnits="userSpaceOnUse" x1="217.4902" y1="-53.4731" x2="21.4902" y2="-53.4732" gradientTransform="matrix(0.75 0 0 -0.75 45.3545 63.5566)">
		<stop  offset="0" style="stop-color:#B9B9B9"/>
		<stop  offset="0.15" style="stop-color:#F2F2F2"/>
		<stop  offset="0.25" style="stop-color:#F3F3F3"/>
		<stop  offset="0.52" style="stop-color:#D0D0D0"/>
		<stop  offset="0.69" style="stop-color:#B9B9B9"/>
		<stop  offset="0.8" style="stop-color:#AFAFAF"/>
		<stop  offset="0.92" style="stop-color:#A5A5A5"/>
	</linearGradient>
	<path fill="url(#SVGID_1_)" d="M64.473-62.285h141c1.5,0,2.809,1.047,2.809,2.336l0.191,290.914c0,0-0.191,38.641-73.227,38.641
		c-73.023,0.359-73.773-38.824-73.773-38.824V-60.035c0-1.5,1.246-2.25,2.781-2.25H64.473z"/>
	
		<linearGradient id="SVGID_2_" gradientUnits="userSpaceOnUse" x1="217.4902" y1="143.79" x2="21.4902" y2="143.79" gradientTransform="matrix(0.75 0 0 -0.75 45.3545 119.3604)">
		<stop  offset="0" style="stop-color:#C7C7C7"/>
		<stop  offset="0.15" style="stop-color:#FFFFFF"/>
		<stop  offset="0.25" style="stop-color:#FFFFFF"/>
		<stop  offset="0.52" style="stop-color:#DFDFDF"/>
		<stop  offset="0.69" style="stop-color:#C7C7C7"/>
		<stop  offset="0.8" style="stop-color:#BCBCBC"/>
		<stop  offset="0.92" style="stop-color:#B1B1B1"/>
	</linearGradient>
	<path fill="url(#SVGID_2_)" d="M208.473-6.48v36h-147v-36H208.473z"/>
	
		<linearGradient id="SVGID_3_" gradientUnits="userSpaceOnUse" x1="40.4897" y1="-74.7124" x2="21.4897" y2="-74.7124" gradientTransform="matrix(0.75 0 0 -0.75 45.355 119.3594)">
		<stop  offset="0" style="stop-color:#B5B5B5"/>
		<stop  offset="0.01" style="stop-color:#FFFFFF"/>
		<stop  offset="0.05" style="stop-color:#EBEBEB"/>
		<stop  offset="0.9" style="stop-color:#E7E7E7"/>
		<stop  offset="0.98" style="stop-color:#E2E2E2"/>
		<stop  offset="1" style="stop-color:#A8A8A8"/>
	</linearGradient>
	<path fill="url(#SVGID_3_)" d="M61.473-6.48h14.25v363.75h-14.25V-6.48z"/>
	
		<linearGradient id="SVGID_4_" gradientUnits="userSpaceOnUse" x1="40.4868" y1="-74.7124" x2="21.4868" y2="-74.7124" gradientTransform="matrix(0.75 0 0 -0.75 177.8379 119.3594)">
		<stop  offset="0" style="stop-color:#B5B5B5"/>
		<stop  offset="0.01" style="stop-color:#FFFFFF"/>
		<stop  offset="0.05" style="stop-color:#EBEBEB"/>
		<stop  offset="0.9" style="stop-color:#E7E7E7"/>
		<stop  offset="0.98" style="stop-color:#E2E2E2"/>
		<stop  offset="1" style="stop-color:#A8A8A8"/>
	</linearGradient>
	<path fill="url(#SVGID_4_)" d="M193.953-6.48h14.25v363.75h-14.25V-6.48z"/>
	
		<linearGradient id="SVGID_5_" gradientUnits="userSpaceOnUse" x1="-494.8354" y1="29.3862" x2="-534.8354" y2="29.3862" gradientTransform="matrix(0 -0.75 -0.75 0 309.7705 -371.21)">
		<stop  offset="0" style="stop-color:#B9B9B9"/>
		<stop  offset="0.15" style="stop-color:#F2F2F2"/>
		<stop  offset="0.25" style="stop-color:#F3F3F3"/>
		<stop  offset="0.52" style="stop-color:#D0D0D0"/>
		<stop  offset="0.69" style="stop-color:#B9B9B9"/>
		<stop  offset="0.8" style="stop-color:#AFAFAF"/>
		<stop  offset="0.92" style="stop-color:#A5A5A5"/>
	</linearGradient>
	<path fill="url(#SVGID_5_)" d="M249.855-0.082h75.75v30h-75.75V-0.082z"/>
	
		<linearGradient id="SVGID_6_" gradientUnits="userSpaceOnUse" x1="-629.0825" y1="585.2012" x2="-559.3823" y2="625.4426" gradientTransform="matrix(-0.75 0 0 0.75 -216.043 -447.2383)">
		<stop  offset="0" style="stop-color:#B9B9B9"/>
		<stop  offset="0.15" style="stop-color:#F2F2F2"/>
		<stop  offset="0.25" style="stop-color:#F3F3F3"/>
		<stop  offset="0.52" style="stop-color:#D0D0D0"/>
		<stop  offset="0.69" style="stop-color:#B9B9B9"/>
		<stop  offset="0.8" style="stop-color:#AFAFAF"/>
		<stop  offset="0.92" style="stop-color:#A5A5A5"/>
	</linearGradient>
	<path fill="url(#SVGID_6_)" d="M251.012,29.922c0,0-22.902-0.609-33.801-13.445c-10.449-12.805-8.984-32.879-8.984-32.879
		l30.035-0.176c0,0-0.23,11.863,12.75,16.566V29.922z"/>
	
		<linearGradient id="SVGID_7_" gradientUnits="userSpaceOnUse" x1="29.4429" y1="167.7861" x2="29.4429" y2="34.7861" gradientTransform="matrix(0.75 0 0 -0.75 301.2871 90.374)">
		<stop  offset="0" style="stop-color:#B9B9B9"/>
		<stop  offset="0.15" style="stop-color:#F2F2F2"/>
		<stop  offset="0.25" style="stop-color:#F3F3F3"/>
		<stop  offset="0.52" style="stop-color:#D0D0D0"/>
		<stop  offset="0.69" style="stop-color:#B9B9B9"/>
		<stop  offset="0.8" style="stop-color:#AFAFAF"/>
		<stop  offset="0.92" style="stop-color:#A5A5A5"/>
	</linearGradient>
	<path fill="url(#SVGID_7_)" d="M320.402-35.465h6c1.5,0,2.715,1.176,2.715,2.711l0.285,94.039c0,1.5-1.531,2.715-3.07,2.715
		l-5.93,0.285c-1.5,0-3.066-1.598-3.066-3.133l0.066-93.617c0-1.5,1.18-3,2.719-3H320.402z"/>
	
		<linearGradient id="SVGID_8_" gradientUnits="userSpaceOnUse" x1="40.4893" y1="-74.7124" x2="21.4893" y2="-74.7124" gradientTransform="matrix(0.75 0 0 -0.75 106.375 119.3594)">
		<stop  offset="0" style="stop-color:#A8A8A8"/>
		<stop  offset="0.01" style="stop-color:#F2F2F2"/>
		<stop  offset="0.05" style="stop-color:#DBDBDB"/>
		<stop  offset="0.9" style="stop-color:#D8D8D8"/>
		<stop  offset="0.98" style="stop-color:#D3D3D3"/>
		<stop  offset="1" style="stop-color:#9C9C9C"/>
	</linearGradient>
	<path fill="url(#SVGID_8_)" d="M122.492-6.48h14.25v363.75h-14.25V-6.48z"/>
	
		<linearGradient id="SVGID_9_" gradientUnits="userSpaceOnUse" x1="40.4888" y1="-74.7124" x2="21.4888" y2="-74.7124" gradientTransform="matrix(0.75 0 0 -0.75 120.5938 119.3594)">
		<stop  offset="0" style="stop-color:#B5B5B5"/>
		<stop  offset="0.01" style="stop-color:#FFFFFF"/>
		<stop  offset="0.05" style="stop-color:#EBEBEB"/>
		<stop  offset="0.9" style="stop-color:#E7E7E7"/>
		<stop  offset="0.98" style="stop-color:#E2E2E2"/>
		<stop  offset="1" style="stop-color:#A8A8A8"/>
	</linearGradient>
	<path fill="url(#SVGID_9_)" d="M136.711-6.48h14.25v363.75h-14.25V-6.48z"/>
	<path fill="#F9F9F7" stroke="#F9F9F7" stroke-linejoin="bevel" stroke-miterlimit="10" d="M150.992-6.48l-14.25,24.75l-14.25-24.75
		H150.992z"/>
</g>
</svg>
