<?xml version="1.0" encoding="utf-8"?>
<!-- Generator: Adobe Illustrator 16.0.0, SVG Export Plug-In . SVG Version: 6.00 Build 0)  -->
<!DOCTYPE svg PUBLIC "-//W3C//DTD SVG 1.1//EN" "http://www.w3.org/Graphics/SVG/1.1/DTD/svg11.dtd">
<svg preserveAspectRatio="none" version="1.1" id="图层_1" xmlns="http://www.w3.org/2000/svg" xmlns:xlink="http://www.w3.org/1999/xlink" x="0px" y="0px"
	 width="298.711px" height="268.07px" viewBox="30.285 -19.273 298.711 268.07"
	 enable-background="new 30.285 -19.273 298.711 268.07" xml:space="preserve">
<g id="surface516">
	
		<linearGradient id="SVGID_1_" gradientUnits="userSpaceOnUse" x1="104.5649" y1="150.7314" x2="21.4868" y2="150.7314" gradientTransform="matrix(0.75 0 0 -0.75 200.9507 113.2764)">
		<stop  offset="0" style="stop-color:#909191"/>
		<stop  offset="0.03" style="stop-color:#D8D9D9"/>
		<stop  offset="0.08" style="stop-color:#BDBEBE"/>
		<stop  offset="0.64" style="stop-color:#BABABA"/>
		<stop  offset="0.95" style="stop-color:#B5B6B6"/>
		<stop  offset="1" style="stop-color:#868787"/>
	</linearGradient>
	<path fill="url(#SVGID_1_)" d="M218.566-12.563h59.25c0.75,0,1.559,0.672,1.559,1.637l-0.059,22.363
		c0,0.75-0.734,1.695-1.711,1.695l-59.039-0.195c-0.75,0-1.5-0.59-1.5-1.559v-22.441c0-0.75,0.758-1.613,1.734-1.613L218.566-12.563
		z"/>
	
		<linearGradient id="SVGID_2_" gradientUnits="userSpaceOnUse" x1="66.4902" y1="10.2876" x2="21.4902" y2="10.2876" gradientTransform="matrix(0.75 0 0 -0.75 279.1284 136.9492)">
		<stop  offset="0" style="stop-color:#AEAEAD"/>
		<stop  offset="0.03" style="stop-color:#F8F8F7"/>
		<stop  offset="0.08" style="stop-color:#E3E3E2"/>
		<stop  offset="0.64" style="stop-color:#DFDFDE"/>
		<stop  offset="0.95" style="stop-color:#DADAD9"/>
		<stop  offset="1" style="stop-color:#A2A2A1"/>
	</linearGradient>
	<path fill="url(#SVGID_2_)" d="M295.246,11.109h33.75v236.25h-33.75V11.109z"/>
	
		<linearGradient id="SVGID_3_" gradientUnits="userSpaceOnUse" x1="379.6094" y1="9.7881" x2="21.4902" y2="9.7881" gradientTransform="matrix(0.75 0 0 -0.75 14.167 136.9492)">
		<stop  offset="0" style="stop-color:#AEAEAD"/>
		<stop  offset="0.03" style="stop-color:#F8F8F7"/>
		<stop  offset="0.08" style="stop-color:#E3E3E2"/>
		<stop  offset="0.64" style="stop-color:#DFDFDE"/>
		<stop  offset="0.95" style="stop-color:#DADAD9"/>
		<stop  offset="1" style="stop-color:#A2A2A1"/>
	</linearGradient>
	<path fill="url(#SVGID_3_)" d="M34.035,11.109h261c2.25,0,3.84,1.547,3.84,3.559l-0.09,229.691c0,2.25-1.648,3.738-3.684,3.738
		l-261.066,0.012c-2.25,0-3.75-1.645-3.75-3.66V14.859c0-2.25,1.648-3.75,3.684-3.75H34.035z"/>
	<path fill="#595757" d="M197.023,45.434h59.25c2.25,0,3.547,1.59,3.547,3.605l0.203,38.395c0,2.25-1.852,3.547-3.887,3.547
		l-59.113,0.203c-2.25,0-3.75-1.836-3.75-3.848V49.184c0-2.25,1.602-3.75,3.637-3.75H197.023z"/>
	
		<linearGradient id="SVGID_4_" gradientUnits="userSpaceOnUse" x1="53.9604" y1="164.3037" x2="21.4868" y2="164.3037" gradientTransform="matrix(0.75 0 0 -0.75 286.0137 150.4941)">
		<stop  offset="0" style="stop-color:#8F9AA1"/>
		<stop  offset="0.15" style="stop-color:#C0CDD5"/>
		<stop  offset="0.25" style="stop-color:#DDE3E8"/>
		<stop  offset="0.44" style="stop-color:#A3B0B8"/>
		<stop  offset="0.6" style="stop-color:#919CA3"/>
		<stop  offset="0.8" style="stop-color:#7A8389"/>
		<stop  offset="0.97" style="stop-color:#6F787D"/>
	</linearGradient>
	<path fill="url(#SVGID_4_)" d="M304.379,24.656h19.5c1.5,0,2.605,1.102,2.605,2.496c-0.355,1.254-1.145,2.527-2.551,2.527
		l-19.555,0.227c-1.5,0-2.25-1.359-2.25-2.754c0-1.746,1.125-2.523,2.535-2.523L304.379,24.656z"/>
	
		<linearGradient id="SVGID_5_" gradientUnits="userSpaceOnUse" x1="53.9604" y1="164.3057" x2="21.4868" y2="164.3057" gradientTransform="matrix(0.75 0 0 -0.75 286.0137 166.2539)">
		<stop  offset="0" style="stop-color:#8F9AA1"/>
		<stop  offset="0.15" style="stop-color:#C0CDD5"/>
		<stop  offset="0.25" style="stop-color:#DDE3E8"/>
		<stop  offset="0.44" style="stop-color:#A3B0B8"/>
		<stop  offset="0.6" style="stop-color:#919CA3"/>
		<stop  offset="0.8" style="stop-color:#7A8389"/>
		<stop  offset="0.97" style="stop-color:#6F787D"/>
	</linearGradient>
	<path fill="url(#SVGID_5_)" d="M304.379,40.414h19.5c1.5,0,2.605,1.105,2.605,2.5c-0.355,1.25-1.145,2.523-2.551,2.523
		l-19.555,0.227c-1.5,0-2.25-1.355-2.25-2.75c0-1.75,1.125-2.527,2.535-2.527L304.379,40.414z"/>
	
		<linearGradient id="SVGID_6_" gradientUnits="userSpaceOnUse" x1="53.9604" y1="164.3057" x2="21.4868" y2="164.3057" gradientTransform="matrix(0.75 0 0 -0.75 286.0137 182.0137)">
		<stop  offset="0" style="stop-color:#8F9AA1"/>
		<stop  offset="0.15" style="stop-color:#C0CDD5"/>
		<stop  offset="0.25" style="stop-color:#DDE3E8"/>
		<stop  offset="0.44" style="stop-color:#A3B0B8"/>
		<stop  offset="0.6" style="stop-color:#919CA3"/>
		<stop  offset="0.8" style="stop-color:#7A8389"/>
		<stop  offset="0.97" style="stop-color:#6F787D"/>
	</linearGradient>
	<path fill="url(#SVGID_6_)" d="M304.379,56.172h19.5c1.5,0,2.605,1.105,2.605,2.5c-0.355,1.25-1.145,2.523-2.551,2.523
		l-19.555,0.227c-1.5,0-2.25-1.355-2.25-2.75c0-1.75,1.125-2.523,2.535-2.523L304.379,56.172z"/>
	
		<linearGradient id="SVGID_7_" gradientUnits="userSpaceOnUse" x1="53.9604" y1="164.3027" x2="21.4868" y2="164.3027" gradientTransform="matrix(0.75 0 0 -0.75 286.0137 197.7715)">
		<stop  offset="0" style="stop-color:#8F9AA1"/>
		<stop  offset="0.15" style="stop-color:#C0CDD5"/>
		<stop  offset="0.25" style="stop-color:#DDE3E8"/>
		<stop  offset="0.44" style="stop-color:#A3B0B8"/>
		<stop  offset="0.6" style="stop-color:#919CA3"/>
		<stop  offset="0.8" style="stop-color:#7A8389"/>
		<stop  offset="0.97" style="stop-color:#6F787D"/>
	</linearGradient>
	<path fill="url(#SVGID_7_)" d="M304.379,71.934h19.5c1.5,0,2.605,1.102,2.605,2.496c-0.355,1.254-1.145,2.527-2.551,2.527
		l-19.555,0.227c-1.5,0-2.25-1.359-2.25-2.754c0-1.746,1.125-2.523,2.535-2.523L304.379,71.934z"/>
	
		<linearGradient id="SVGID_8_" gradientUnits="userSpaceOnUse" x1="53.9604" y1="164.3057" x2="21.4868" y2="164.3057" gradientTransform="matrix(0.75 0 0 -0.75 286.0137 213.5313)">
		<stop  offset="0" style="stop-color:#8F9AA1"/>
		<stop  offset="0.15" style="stop-color:#C0CDD5"/>
		<stop  offset="0.25" style="stop-color:#DDE3E8"/>
		<stop  offset="0.44" style="stop-color:#A3B0B8"/>
		<stop  offset="0.6" style="stop-color:#919CA3"/>
		<stop  offset="0.8" style="stop-color:#7A8389"/>
		<stop  offset="0.97" style="stop-color:#6F787D"/>
	</linearGradient>
	<path fill="url(#SVGID_8_)" d="M304.379,87.691h19.5c1.5,0,2.605,1.105,2.605,2.5c-0.355,1.25-1.145,2.523-2.551,2.523
		l-19.555,0.227c-1.5,0-2.25-1.355-2.25-2.75c0-1.75,1.125-2.527,2.535-2.527L304.379,87.691z"/>
	
		<linearGradient id="SVGID_9_" gradientUnits="userSpaceOnUse" x1="53.9604" y1="164.3047" x2="21.4868" y2="164.3047" gradientTransform="matrix(0.75 0 0 -0.75 286.0137 229.29)">
		<stop  offset="0" style="stop-color:#8F9AA1"/>
		<stop  offset="0.15" style="stop-color:#C0CDD5"/>
		<stop  offset="0.25" style="stop-color:#DDE3E8"/>
		<stop  offset="0.44" style="stop-color:#A3B0B8"/>
		<stop  offset="0.6" style="stop-color:#919CA3"/>
		<stop  offset="0.8" style="stop-color:#7A8389"/>
		<stop  offset="0.97" style="stop-color:#6F787D"/>
	</linearGradient>
	<path fill="url(#SVGID_9_)" d="M304.379,103.449h19.5c1.5,0,2.605,1.105,2.605,2.5c-0.355,1.25-1.145,2.523-2.551,2.523
		l-19.555,0.227c-1.5,0-2.25-1.355-2.25-2.75c0-1.75,1.125-2.523,2.535-2.523L304.379,103.449z"/>
	
		<linearGradient id="SVGID_10_" gradientUnits="userSpaceOnUse" x1="53.9604" y1="164.3037" x2="21.4868" y2="164.3037" gradientTransform="matrix(0.75 0 0 -0.75 286.0137 245.0488)">
		<stop  offset="0" style="stop-color:#8F9AA1"/>
		<stop  offset="0.15" style="stop-color:#C0CDD5"/>
		<stop  offset="0.25" style="stop-color:#DDE3E8"/>
		<stop  offset="0.44" style="stop-color:#A3B0B8"/>
		<stop  offset="0.6" style="stop-color:#919CA3"/>
		<stop  offset="0.8" style="stop-color:#7A8389"/>
		<stop  offset="0.97" style="stop-color:#6F787D"/>
	</linearGradient>
	<path fill="url(#SVGID_10_)" d="M304.379,119.211h19.5c1.5,0,2.605,1.102,2.605,2.496c-0.355,1.254-1.145,2.527-2.551,2.527
		l-19.555,0.227c-1.5,0-2.25-1.359-2.25-2.754c0-1.746,1.125-2.523,2.535-2.523L304.379,119.211z"/>
	
		<linearGradient id="SVGID_11_" gradientUnits="userSpaceOnUse" x1="53.9604" y1="164.3066" x2="21.4868" y2="164.3066" gradientTransform="matrix(0.75 0 0 -0.75 286.0137 260.8086)">
		<stop  offset="0" style="stop-color:#8F9AA1"/>
		<stop  offset="0.15" style="stop-color:#C0CDD5"/>
		<stop  offset="0.25" style="stop-color:#DDE3E8"/>
		<stop  offset="0.44" style="stop-color:#A3B0B8"/>
		<stop  offset="0.6" style="stop-color:#919CA3"/>
		<stop  offset="0.8" style="stop-color:#7A8389"/>
		<stop  offset="0.97" style="stop-color:#6F787D"/>
	</linearGradient>
	<path fill="url(#SVGID_11_)" d="M304.379,134.969h19.5c1.5,0,2.605,1.105,2.605,2.5c-0.355,1.25-1.145,2.523-2.551,2.523
		l-19.555,0.227c-1.5,0-2.25-1.355-2.25-2.75c0-1.75,1.125-2.527,2.535-2.527L304.379,134.969z"/>
	
		<linearGradient id="SVGID_12_" gradientUnits="userSpaceOnUse" x1="53.9604" y1="164.3076" x2="21.4868" y2="164.3076" gradientTransform="matrix(0.75 0 0 -0.75 286.0137 276.5674)">
		<stop  offset="0" style="stop-color:#8F9AA1"/>
		<stop  offset="0.15" style="stop-color:#C0CDD5"/>
		<stop  offset="0.25" style="stop-color:#DDE3E8"/>
		<stop  offset="0.44" style="stop-color:#A3B0B8"/>
		<stop  offset="0.6" style="stop-color:#919CA3"/>
		<stop  offset="0.8" style="stop-color:#7A8389"/>
		<stop  offset="0.97" style="stop-color:#6F787D"/>
	</linearGradient>
	<path fill="url(#SVGID_12_)" d="M304.379,150.727h19.5c1.5,0,2.605,1.105,2.605,2.5c-0.355,1.25-1.145,2.523-2.551,2.523
		l-19.555,0.227c-1.5,0-2.25-1.355-2.25-2.75c0-1.75,1.125-2.527,2.535-2.527L304.379,150.727z"/>
	
		<linearGradient id="SVGID_13_" gradientUnits="userSpaceOnUse" x1="53.9604" y1="164.3037" x2="21.4868" y2="164.3037" gradientTransform="matrix(0.75 0 0 -0.75 286.0137 292.3262)">
		<stop  offset="0" style="stop-color:#8F9AA1"/>
		<stop  offset="0.15" style="stop-color:#C0CDD5"/>
		<stop  offset="0.25" style="stop-color:#DDE3E8"/>
		<stop  offset="0.44" style="stop-color:#A3B0B8"/>
		<stop  offset="0.6" style="stop-color:#919CA3"/>
		<stop  offset="0.8" style="stop-color:#7A8389"/>
		<stop  offset="0.97" style="stop-color:#6F787D"/>
	</linearGradient>
	<path fill="url(#SVGID_13_)" d="M304.379,166.488h19.5c1.5,0,2.605,1.102,2.605,2.496c-0.355,1.254-1.145,2.527-2.551,2.527
		l-19.555,0.227c-1.5,0-2.25-1.359-2.25-2.754c0-1.746,1.125-2.523,2.535-2.523L304.379,166.488z"/>
	
		<linearGradient id="SVGID_14_" gradientUnits="userSpaceOnUse" x1="53.9604" y1="164.3057" x2="21.4868" y2="164.3057" gradientTransform="matrix(0.75 0 0 -0.75 286.0137 308.0859)">
		<stop  offset="0" style="stop-color:#8F9AA1"/>
		<stop  offset="0.15" style="stop-color:#C0CDD5"/>
		<stop  offset="0.25" style="stop-color:#DDE3E8"/>
		<stop  offset="0.44" style="stop-color:#A3B0B8"/>
		<stop  offset="0.6" style="stop-color:#919CA3"/>
		<stop  offset="0.8" style="stop-color:#7A8389"/>
		<stop  offset="0.97" style="stop-color:#6F787D"/>
	</linearGradient>
	<path fill="url(#SVGID_14_)" d="M304.379,182.246h19.5c1.5,0,2.605,1.105,2.605,2.5c-0.355,1.25-1.145,2.523-2.551,2.523
		l-19.555,0.227c-1.5,0-2.25-1.355-2.25-2.75c0-1.75,1.125-2.527,2.535-2.527L304.379,182.246z"/>
	
		<linearGradient id="SVGID_15_" gradientUnits="userSpaceOnUse" x1="53.9604" y1="164.3066" x2="21.4868" y2="164.3066" gradientTransform="matrix(0.75 0 0 -0.75 286.0137 323.8438)">
		<stop  offset="0" style="stop-color:#8F9AA1"/>
		<stop  offset="0.15" style="stop-color:#C0CDD5"/>
		<stop  offset="0.25" style="stop-color:#DDE3E8"/>
		<stop  offset="0.44" style="stop-color:#A3B0B8"/>
		<stop  offset="0.6" style="stop-color:#919CA3"/>
		<stop  offset="0.8" style="stop-color:#7A8389"/>
		<stop  offset="0.97" style="stop-color:#6F787D"/>
	</linearGradient>
	<path fill="url(#SVGID_15_)" d="M304.379,198.004h19.5c1.5,0,2.605,1.105,2.605,2.5c-0.355,1.25-1.145,2.523-2.551,2.523
		l-19.555,0.227c-1.5,0-2.25-1.355-2.25-2.75c0-1.75,1.125-2.527,2.535-2.527L304.379,198.004z"/>
	
		<linearGradient id="SVGID_16_" gradientUnits="userSpaceOnUse" x1="53.9604" y1="164.3057" x2="21.4868" y2="164.3057" gradientTransform="matrix(0.75 0 0 -0.75 286.0137 340.2129)">
		<stop  offset="0" style="stop-color:#8F9AA1"/>
		<stop  offset="0.15" style="stop-color:#C0CDD5"/>
		<stop  offset="0.25" style="stop-color:#DDE3E8"/>
		<stop  offset="0.44" style="stop-color:#A3B0B8"/>
		<stop  offset="0.6" style="stop-color:#919CA3"/>
		<stop  offset="0.8" style="stop-color:#7A8389"/>
		<stop  offset="0.97" style="stop-color:#6F787D"/>
	</linearGradient>
	<path fill="url(#SVGID_16_)" d="M304.379,214.371h19.5c1.5,0,2.605,1.105,2.605,2.5c-0.355,1.25-1.145,2.523-2.551,2.523
		l-19.555,0.227c-1.5,0-2.25-1.355-2.25-2.75c0-1.75,1.125-2.523,2.535-2.523L304.379,214.371z"/>
	
		<linearGradient id="SVGID_17_" gradientUnits="userSpaceOnUse" x1="53.9604" y1="164.3057" x2="21.4868" y2="164.3057" gradientTransform="matrix(0.75 0 0 -0.75 286.0137 355.3633)">
		<stop  offset="0" style="stop-color:#8F9AA1"/>
		<stop  offset="0.15" style="stop-color:#C0CDD5"/>
		<stop  offset="0.25" style="stop-color:#DDE3E8"/>
		<stop  offset="0.44" style="stop-color:#A3B0B8"/>
		<stop  offset="0.6" style="stop-color:#919CA3"/>
		<stop  offset="0.8" style="stop-color:#7A8389"/>
		<stop  offset="0.97" style="stop-color:#6F787D"/>
	</linearGradient>
	<path fill="url(#SVGID_17_)" d="M304.379,229.523h19.5c1.5,0,2.605,1.102,2.605,2.5c-0.355,1.25-1.145,2.523-2.551,2.523
		l-19.555,0.227c-1.5,0-2.25-1.355-2.25-2.75c0-1.75,1.125-2.527,2.535-2.527L304.379,229.523z"/>
	<path fill="#FFFFFF" fill-opacity="0.4941" d="M47.145,144.289h234.75c1.5,0,2.367,1.273,2.367,2.91l-0.117,98.34
		c0,2.25-1.023,3.258-2.43,3.258l-234.57-0.258c-1.5,0-2.25-1.066-2.25-2.703v-98.547c0-1.5,1.055-3,2.461-3H47.145z"/>
	
		<linearGradient id="SVGID_18_" gradientUnits="userSpaceOnUse" x1="26.4897" y1="104.2222" x2="21.4272" y2="104.2222" gradientTransform="matrix(0.75 0 0 -0.75 39.0737 275.8281)">
		<stop  offset="0" style="stop-color:#C4C4C4"/>
		<stop  offset="0.15" style="stop-color:#FFFFFF"/>
		<stop  offset="0.25" style="stop-color:#FFFFFF"/>
		<stop  offset="0.44" style="stop-color:#DFDFDF"/>
		<stop  offset="0.6" style="stop-color:#C7C7C7"/>
		<stop  offset="0.8" style="stop-color:#A8A8A8"/>
		<stop  offset="0.97" style="stop-color:#999999"/>
	</linearGradient>
	<path fill="url(#SVGID_18_)" d="M56.691,149.988c1.5,0,1.996,0.695,1.996,1.664l0.254,92.086c0,0.75-1.047,1.598-2.023,1.598
		c-0.977-0.098-1.773-0.828-1.773-1.797l0.047-92.051c0-0.75,0.746-1.5,1.727-1.5H56.691z"/>
	
		<linearGradient id="SVGID_19_" gradientUnits="userSpaceOnUse" x1="26.4868" y1="104.2222" x2="21.4292" y2="104.2222" gradientTransform="matrix(0.75 0 0 -0.75 57.0137 275.8281)">
		<stop  offset="0" style="stop-color:#C4C4C4"/>
		<stop  offset="0.15" style="stop-color:#FFFFFF"/>
		<stop  offset="0.25" style="stop-color:#FFFFFF"/>
		<stop  offset="0.44" style="stop-color:#DFDFDF"/>
		<stop  offset="0.6" style="stop-color:#C7C7C7"/>
		<stop  offset="0.8" style="stop-color:#A8A8A8"/>
		<stop  offset="0.97" style="stop-color:#999999"/>
	</linearGradient>
	<path fill="url(#SVGID_19_)" d="M74.629,149.988c1.5,0,2,0.695,2,1.664l0.25,92.086c0,0.75-1.043,1.598-2.023,1.598
		c-0.977-0.098-1.77-0.828-1.77-1.797l0.043-92.051c0-0.75,0.75-1.5,1.727-1.5H74.629z"/>
	
		<linearGradient id="SVGID_20_" gradientUnits="userSpaceOnUse" x1="26.4883" y1="104.2222" x2="21.4307" y2="104.2222" gradientTransform="matrix(0.75 0 0 -0.75 74.415 275.8281)">
		<stop  offset="0" style="stop-color:#C4C4C4"/>
		<stop  offset="0.15" style="stop-color:#FFFFFF"/>
		<stop  offset="0.25" style="stop-color:#FFFFFF"/>
		<stop  offset="0.44" style="stop-color:#DFDFDF"/>
		<stop  offset="0.6" style="stop-color:#C7C7C7"/>
		<stop  offset="0.8" style="stop-color:#A8A8A8"/>
		<stop  offset="0.97" style="stop-color:#999999"/>
	</linearGradient>
	<path fill="url(#SVGID_20_)" d="M92.031,149.988c1.5,0,1.996,0.695,1.996,1.664l0.254,92.086c0,0.75-1.047,1.598-2.023,1.598
		c-0.977-0.098-1.77-0.828-1.77-1.797l0.043-92.051c0-0.75,0.75-1.5,1.727-1.5H92.031z"/>
	
		<linearGradient id="SVGID_21_" gradientUnits="userSpaceOnUse" x1="26.4907" y1="104.2222" x2="21.4282" y2="104.2222" gradientTransform="matrix(0.75 0 0 -0.75 92.8936 275.8281)">
		<stop  offset="0" style="stop-color:#C4C4C4"/>
		<stop  offset="0.15" style="stop-color:#FFFFFF"/>
		<stop  offset="0.25" style="stop-color:#FFFFFF"/>
		<stop  offset="0.44" style="stop-color:#DFDFDF"/>
		<stop  offset="0.6" style="stop-color:#C7C7C7"/>
		<stop  offset="0.8" style="stop-color:#A8A8A8"/>
		<stop  offset="0.97" style="stop-color:#999999"/>
	</linearGradient>
	<path fill="url(#SVGID_21_)" d="M110.512,149.988c1.5,0,1.996,0.695,1.996,1.664l0.254,92.086c0,0.75-1.047,1.598-2.023,1.598
		c-0.977-0.098-1.773-0.828-1.773-1.797l0.047-92.051c0-0.75,0.746-1.5,1.727-1.5H110.512z"/>
	
		<linearGradient id="SVGID_22_" gradientUnits="userSpaceOnUse" x1="26.4868" y1="104.2222" x2="21.4302" y2="104.2222" gradientTransform="matrix(0.75 0 0 -0.75 110.8335 275.8281)">
		<stop  offset="0" style="stop-color:#C4C4C4"/>
		<stop  offset="0.15" style="stop-color:#FFFFFF"/>
		<stop  offset="0.25" style="stop-color:#FFFFFF"/>
		<stop  offset="0.44" style="stop-color:#DFDFDF"/>
		<stop  offset="0.6" style="stop-color:#C7C7C7"/>
		<stop  offset="0.8" style="stop-color:#A8A8A8"/>
		<stop  offset="0.97" style="stop-color:#999999"/>
	</linearGradient>
	<path fill="url(#SVGID_22_)" d="M128.449,149.988c1.5,0,2,0.695,2,1.664l0.25,92.086c0,0.75-1.043,1.598-2.023,1.598
		c-0.977-0.098-1.77-0.828-1.77-1.797l0.043-92.051c0-0.75,0.75-1.5,1.727-1.5H128.449z"/>
	
		<linearGradient id="SVGID_23_" gradientUnits="userSpaceOnUse" x1="26.4888" y1="104.2222" x2="21.4263" y2="104.2222" gradientTransform="matrix(0.75 0 0 -0.75 128.7734 275.8281)">
		<stop  offset="0" style="stop-color:#C4C4C4"/>
		<stop  offset="0.15" style="stop-color:#FFFFFF"/>
		<stop  offset="0.25" style="stop-color:#FFFFFF"/>
		<stop  offset="0.44" style="stop-color:#DFDFDF"/>
		<stop  offset="0.6" style="stop-color:#C7C7C7"/>
		<stop  offset="0.8" style="stop-color:#A8A8A8"/>
		<stop  offset="0.97" style="stop-color:#999999"/>
	</linearGradient>
	<path fill="url(#SVGID_23_)" d="M146.391,149.988c1.5,0,1.996,0.695,1.996,1.664l0.254,92.086c0,0.75-1.047,1.598-2.023,1.598
		c-0.977-0.098-1.773-0.828-1.773-1.797l0.047-92.051c0-0.75,0.746-1.5,1.727-1.5H146.391z"/>
	
		<linearGradient id="SVGID_24_" gradientUnits="userSpaceOnUse" x1="26.4863" y1="104.2222" x2="21.4297" y2="104.2222" gradientTransform="matrix(0.75 0 0 -0.75 146.6699 275.8281)">
		<stop  offset="0" style="stop-color:#C4C4C4"/>
		<stop  offset="0.15" style="stop-color:#FFFFFF"/>
		<stop  offset="0.25" style="stop-color:#FFFFFF"/>
		<stop  offset="0.44" style="stop-color:#DFDFDF"/>
		<stop  offset="0.6" style="stop-color:#C7C7C7"/>
		<stop  offset="0.8" style="stop-color:#A8A8A8"/>
		<stop  offset="0.97" style="stop-color:#999999"/>
	</linearGradient>
	<path fill="url(#SVGID_24_)" d="M164.285,149.988c1.5,0,2,0.695,2,1.664l0.25,92.086c0,0.75-1.043,1.598-2.023,1.598
		c-0.977-0.098-1.77-0.828-1.77-1.797l0.043-92.051c0-0.75,0.75-1.5,1.727-1.5H164.285z"/>
	
		<linearGradient id="SVGID_25_" gradientUnits="userSpaceOnUse" x1="26.4878" y1="104.2222" x2="21.4302" y2="104.2222" gradientTransform="matrix(0.75 0 0 -0.75 164.6533 275.8281)">
		<stop  offset="0" style="stop-color:#C4C4C4"/>
		<stop  offset="0.15" style="stop-color:#FFFFFF"/>
		<stop  offset="0.25" style="stop-color:#FFFFFF"/>
		<stop  offset="0.44" style="stop-color:#DFDFDF"/>
		<stop  offset="0.6" style="stop-color:#C7C7C7"/>
		<stop  offset="0.8" style="stop-color:#A8A8A8"/>
		<stop  offset="0.97" style="stop-color:#999999"/>
	</linearGradient>
	<path fill="url(#SVGID_25_)" d="M182.27,149.988c1.5,0,2,0.695,2,1.664l0.25,92.086c0,0.75-1.047,1.598-2.023,1.598
		c-0.977-0.098-1.77-0.828-1.77-1.797l0.043-92.051c0-0.75,0.75-1.5,1.727-1.5H182.27z"/>
	
		<linearGradient id="SVGID_26_" gradientUnits="userSpaceOnUse" x1="26.4897" y1="104.2222" x2="21.4272" y2="104.2222" gradientTransform="matrix(0.75 0 0 -0.75 182.5933 275.8281)">
		<stop  offset="0" style="stop-color:#C4C4C4"/>
		<stop  offset="0.15" style="stop-color:#FFFFFF"/>
		<stop  offset="0.25" style="stop-color:#FFFFFF"/>
		<stop  offset="0.44" style="stop-color:#DFDFDF"/>
		<stop  offset="0.6" style="stop-color:#C7C7C7"/>
		<stop  offset="0.8" style="stop-color:#A8A8A8"/>
		<stop  offset="0.97" style="stop-color:#999999"/>
	</linearGradient>
	<path fill="url(#SVGID_26_)" d="M200.211,149.988c1.5,0,1.996,0.695,1.996,1.664l0.254,92.086c0,0.75-1.047,1.598-2.023,1.598
		c-0.977-0.098-1.773-0.828-1.773-1.797l0.047-92.051c0-0.75,0.746-1.5,1.727-1.5H200.211z"/>
	
		<linearGradient id="SVGID_27_" gradientUnits="userSpaceOnUse" x1="26.4868" y1="104.2222" x2="21.4292" y2="104.2222" gradientTransform="matrix(0.75 0 0 -0.75 200.5332 275.8281)">
		<stop  offset="0" style="stop-color:#C4C4C4"/>
		<stop  offset="0.15" style="stop-color:#FFFFFF"/>
		<stop  offset="0.25" style="stop-color:#FFFFFF"/>
		<stop  offset="0.44" style="stop-color:#DFDFDF"/>
		<stop  offset="0.6" style="stop-color:#C7C7C7"/>
		<stop  offset="0.8" style="stop-color:#A8A8A8"/>
		<stop  offset="0.97" style="stop-color:#999999"/>
	</linearGradient>
	<path fill="url(#SVGID_27_)" d="M218.148,149.988c1.5,0,2,0.695,2,1.664l0.25,92.086c0,0.75-1.043,1.598-2.023,1.598
		c-0.977-0.098-1.77-0.828-1.77-1.797l0.043-92.051c0-0.75,0.75-1.5,1.727-1.5H218.148z"/>
	
		<linearGradient id="SVGID_28_" gradientUnits="userSpaceOnUse" x1="26.4888" y1="104.2222" x2="21.4312" y2="104.2222" gradientTransform="matrix(0.75 0 0 -0.75 218.4731 275.8281)">
		<stop  offset="0" style="stop-color:#C4C4C4"/>
		<stop  offset="0.15" style="stop-color:#FFFFFF"/>
		<stop  offset="0.25" style="stop-color:#FFFFFF"/>
		<stop  offset="0.44" style="stop-color:#DFDFDF"/>
		<stop  offset="0.6" style="stop-color:#C7C7C7"/>
		<stop  offset="0.8" style="stop-color:#A8A8A8"/>
		<stop  offset="0.97" style="stop-color:#999999"/>
	</linearGradient>
	<path fill="url(#SVGID_28_)" d="M236.09,149.988c1.5,0,1.996,0.695,1.996,1.664l0.254,92.086c0,0.75-1.047,1.598-2.023,1.598
		c-0.977-0.098-1.77-0.828-1.77-1.797l0.043-92.051c0-0.75,0.75-1.5,1.727-1.5H236.09z"/>
	
		<linearGradient id="SVGID_29_" gradientUnits="userSpaceOnUse" x1="26.4849" y1="104.2222" x2="21.4282" y2="104.2222" gradientTransform="matrix(0.75 0 0 -0.75 236.4131 275.8281)">
		<stop  offset="0" style="stop-color:#C4C4C4"/>
		<stop  offset="0.15" style="stop-color:#FFFFFF"/>
		<stop  offset="0.25" style="stop-color:#FFFFFF"/>
		<stop  offset="0.44" style="stop-color:#DFDFDF"/>
		<stop  offset="0.6" style="stop-color:#C7C7C7"/>
		<stop  offset="0.8" style="stop-color:#A8A8A8"/>
		<stop  offset="0.97" style="stop-color:#999999"/>
	</linearGradient>
	<path fill="url(#SVGID_29_)" d="M254.027,149.988c1.5,0,2,0.695,2,1.664l0.25,92.086c0,0.75-1.043,1.598-2.02,1.598
		c-0.98-0.098-1.773-0.828-1.773-1.797l0.043-92.051c0-0.75,0.75-1.5,1.73-1.5H254.027z"/>
	
		<linearGradient id="SVGID_30_" gradientUnits="userSpaceOnUse" x1="26.4858" y1="104.2222" x2="21.4292" y2="104.2222" gradientTransform="matrix(0.75 0 0 -0.75 254.354 275.8281)">
		<stop  offset="0" style="stop-color:#C4C4C4"/>
		<stop  offset="0.15" style="stop-color:#FFFFFF"/>
		<stop  offset="0.25" style="stop-color:#FFFFFF"/>
		<stop  offset="0.44" style="stop-color:#DFDFDF"/>
		<stop  offset="0.6" style="stop-color:#C7C7C7"/>
		<stop  offset="0.8" style="stop-color:#A8A8A8"/>
		<stop  offset="0.97" style="stop-color:#999999"/>
	</linearGradient>
	<path fill="url(#SVGID_30_)" d="M271.969,149.988c1.5,0,2,0.695,2,1.664l0.25,92.086c0,0.75-1.043,1.598-2.023,1.598
		c-0.977-0.098-1.77-0.828-1.77-1.797l0.043-92.051c0-0.75,0.75-1.5,1.727-1.5H271.969z"/>
	<path fill="#8C9972" d="M196.227,48.613h60.75v39h-60.75V48.613z"/>
	<path fill="#FFFFFF" fill-opacity="0.102" d="M196.227,48.613h24l36.75,39h-60.75V48.613z"/>
	
		<linearGradient id="SVGID_31_" gradientUnits="userSpaceOnUse" x1="32.7456" y1="154.2041" x2="21.4429" y2="154.2041" gradientTransform="matrix(0.75 0 0 -0.75 63.8628 106.6582)">
		<stop  offset="0" style="stop-color:#8F9AA1"/>
		<stop  offset="0.15" style="stop-color:#C0CDD5"/>
		<stop  offset="0.25" style="stop-color:#DDE3E8"/>
		<stop  offset="0.44" style="stop-color:#A3B0B8"/>
		<stop  offset="0.6" style="stop-color:#919CA3"/>
		<stop  offset="0.8" style="stop-color:#7A8389"/>
		<stop  offset="0.97" style="stop-color:#6F787D"/>
	</linearGradient>
	<path fill="url(#SVGID_31_)" d="M81.48-19.184h5.25c0.75,0,1.691,0.754,1.691,1.797L88.23-0.434c0,0.75-0.664,1.719-1.715,1.719
		L81.48,1.066c-0.75,0-1.535-0.625-1.535-1.668l0.035-17.082c0-0.75,0.82-1.59,1.871-1.59L81.48-19.184z"/>
	
		<linearGradient id="SVGID_32_" gradientUnits="userSpaceOnUse" x1="72.4897" y1="162.7842" x2="21.4897" y2="162.7842" gradientTransform="matrix(0.75 0 0 -0.75 49.0229 129.1348)">
		<stop  offset="0" style="stop-color:#8F9AA1"/>
		<stop  offset="0.15" style="stop-color:#C0CDD5"/>
		<stop  offset="0.25" style="stop-color:#DDE3E8"/>
		<stop  offset="0.44" style="stop-color:#A3B0B8"/>
		<stop  offset="0.6" style="stop-color:#919CA3"/>
		<stop  offset="0.8" style="stop-color:#7A8389"/>
		<stop  offset="0.97" style="stop-color:#6F787D"/>
	</linearGradient>
	<path fill="url(#SVGID_32_)" d="M65.141,10.797h38.25v-7.5h-38.25V10.797z"/>
	
		<linearGradient id="SVGID_33_" gradientUnits="userSpaceOnUse" x1="50.4873" y1="161.7881" x2="21.4873" y2="161.7881" gradientTransform="matrix(0.75 0 0 -0.75 57.2515 120.2031)">
		<stop  offset="0" style="stop-color:#8F9AA1"/>
		<stop  offset="0.15" style="stop-color:#C0CDD5"/>
		<stop  offset="0.25" style="stop-color:#DDE3E8"/>
		<stop  offset="0.44" style="stop-color:#A3B0B8"/>
		<stop  offset="0.6" style="stop-color:#919CA3"/>
		<stop  offset="0.8" style="stop-color:#7A8389"/>
		<stop  offset="0.97" style="stop-color:#6F787D"/>
	</linearGradient>
	<path fill="url(#SVGID_33_)" d="M74.867-5.637h18.75c0.75,0,1.414,0.348,1.414,0.789l0.086,8.211h-21.75v-8.25
		c0-0.75,0.621-0.75,1.43-0.75H74.867z"/>
</g>
</svg>
