<?xml version="1.0" encoding="utf-8"?>
<!-- Generator: Adobe Illustrator 16.0.0, SVG Export Plug-In . SVG Version: 6.00 Build 0)  -->
<!DOCTYPE svg PUBLIC "-//W3C//DTD SVG 1.1//EN" "http://www.w3.org/Graphics/SVG/1.1/DTD/svg11.dtd">
<svg preserveAspectRatio="none" version="1.1" id="图层_1" xmlns="http://www.w3.org/2000/svg" xmlns:xlink="http://www.w3.org/1999/xlink" x="0px" y="0px"
	 width="340.637px" height="336.828px" viewBox="29.996 -26.965 340.637 336.828"
	 enable-background="new 29.996 -26.965 340.637 336.828" xml:space="preserve">
<g id="surface941">
	
		<linearGradient id="SVGID_1_" gradientUnits="userSpaceOnUse" x1="126.6138" y1="119.7876" x2="14.6138" y2="119.7876" gradientTransform="matrix(0.75 0 0 -0.75 120.6138 133)">
		<stop  offset="0" style="stop-color:#3D3B3B"/>
		<stop  offset="0.01" style="stop-color:#908F8F"/>
		<stop  offset="0.05" style="stop-color:#514F4F"/>
		<stop  offset="0.9" style="stop-color:#504E4E"/>
		<stop  offset="0.95" style="stop-color:#4E4C4C"/>
		<stop  offset="1" style="stop-color:#383636"/>
	</linearGradient>
	<path fill="url(#SVGID_1_)" d="M131.574,113.285h84v-140.25h-84V113.285z"/>
	
		<linearGradient id="SVGID_2_" gradientUnits="userSpaceOnUse" x1="115.6138" y1="126.2847" x2="14.6138" y2="126.2847" gradientTransform="matrix(0.75 0 0 -0.75 124.9263 137.7402)">
		<stop  offset="0" style="stop-color:#909590"/>
		<stop  offset="0.01" style="stop-color:#D8DDD8"/>
		<stop  offset="0.05" style="stop-color:#BDC2BD"/>
		<stop  offset="0.9" style="stop-color:#BABFBA"/>
		<stop  offset="0.95" style="stop-color:#B5BBB5"/>
		<stop  offset="1" style="stop-color:#868A86"/>
	</linearGradient>
	<path fill="url(#SVGID_2_)" d="M135.887-22.223h75.75v130.5h-75.75V-22.223z"/>
	
		<linearGradient id="SVGID_3_" gradientUnits="userSpaceOnUse" x1="275.6104" y1="144.791" x2="14.6104" y2="144.791" gradientTransform="matrix(0.75 0 0 -0.75 57.3228 346.3613)">
		<stop  offset="0" style="stop-color:#525365"/>
		<stop  offset="0.01" style="stop-color:#9FA0AF"/>
		<stop  offset="0.05" style="stop-color:#6C6E85"/>
		<stop  offset="0.9" style="stop-color:#6A6C83"/>
		<stop  offset="0.95" style="stop-color:#686A80"/>
		<stop  offset="1" style="stop-color:#4B4D5D"/>
	</linearGradient>
	<path fill="url(#SVGID_3_)" d="M68.281,186.395h195.75l-45,78.75v24H68.281V186.395z"/>
	
		<linearGradient id="SVGID_4_" gradientUnits="userSpaceOnUse" x1="275.6104" y1="209.2891" x2="14.6104" y2="209.289" gradientTransform="matrix(0.75 0 0 -0.75 57.3228 346.3604)">
		<stop  offset="0" style="stop-color:#AB6B37"/>
		<stop  offset="0.01" style="stop-color:#F5B48D"/>
		<stop  offset="0.05" style="stop-color:#DF8D4B"/>
		<stop  offset="0.9" style="stop-color:#DB8A49"/>
		<stop  offset="0.95" style="stop-color:#D68748"/>
		<stop  offset="1" style="stop-color:#9F6333"/>
	</linearGradient>
	<path fill="url(#SVGID_4_)" d="M264.031,186.395H68.281v6h192L264.031,186.395z"/>
	
		<linearGradient id="SVGID_5_" gradientUnits="userSpaceOnUse" x1="219.6123" y1="163.7861" x2="14.6123" y2="163.7861" gradientTransform="matrix(0.75 0 0 -0.75 62.2939 272.4443)">
		<stop  offset="0" style="stop-color:#9D9E9A"/>
		<stop  offset="0.01" style="stop-color:#E6E7E2"/>
		<stop  offset="0.05" style="stop-color:#CDCEC9"/>
		<stop  offset="0.9" style="stop-color:#CACBC5"/>
		<stop  offset="0.95" style="stop-color:#C5C6C1"/>
		<stop  offset="1" style="stop-color:#92938F"/>
	</linearGradient>
	<path fill="url(#SVGID_5_)" d="M73.254,186.73h153.75v-74.25H73.254V186.73z"/>
	
		<linearGradient id="SVGID_6_" gradientUnits="userSpaceOnUse" x1="143.6128" y1="132.7866" x2="14.6128" y2="132.7866" gradientTransform="matrix(0.75 0 0 -0.75 84.2358 225.4678)">
		<stop  offset="0" style="stop-color:#9D9E9A"/>
		<stop  offset="0.01" style="stop-color:#E6E7E2"/>
		<stop  offset="0.05" style="stop-color:#CDCEC9"/>
		<stop  offset="0.9" style="stop-color:#CACBC5"/>
		<stop  offset="0.95" style="stop-color:#C5C6C1"/>
		<stop  offset="1" style="stop-color:#92938F"/>
	</linearGradient>
	<path fill="url(#SVGID_6_)" d="M95.195,186.254h96.75V65.504h-96.75V186.254z"/>
	<path fill="#CBCCC6" stroke="#A3A59A" stroke-linejoin="bevel" stroke-miterlimit="10" d="M100.84,71.141h84.75v108.75h-84.75
		V71.141z"/>
	
		<linearGradient id="SVGID_7_" gradientUnits="userSpaceOnUse" x1="137.6133" y1="171.7861" x2="14.6133" y2="171.7861" gradientTransform="matrix(0.75 0 0 -0.75 267.0713 229.2207)">
		<stop  offset="0" style="stop-color:#909590"/>
		<stop  offset="0.01" style="stop-color:#D8DDD8"/>
		<stop  offset="0.05" style="stop-color:#BDC2BD"/>
		<stop  offset="0.9" style="stop-color:#BABFBA"/>
		<stop  offset="0.95" style="stop-color:#B5BBB5"/>
		<stop  offset="1" style="stop-color:#868A86"/>
	</linearGradient>
	<path fill="url(#SVGID_7_)" d="M278.031,69.258h92.25v62.25h-92.25V69.258z"/>
	
		<linearGradient id="SVGID_8_" gradientUnits="userSpaceOnUse" x1="137.6133" y1="194.7881" x2="14.6133" y2="194.7881" gradientTransform="matrix(0.75 0 0 -0.75 267.0713 291.0742)">
		<stop  offset="0" style="stop-color:#525365"/>
		<stop  offset="0.01" style="stop-color:#9FA0AF"/>
		<stop  offset="0.05" style="stop-color:#6C6E85"/>
		<stop  offset="0.9" style="stop-color:#6A6C83"/>
		<stop  offset="0.95" style="stop-color:#686A80"/>
		<stop  offset="1" style="stop-color:#4B4D5D"/>
	</linearGradient>
	<path fill="url(#SVGID_8_)" d="M278.031,131.109h92.25l-8.25,27.75l-84-12V131.109z"/>
	
		<linearGradient id="SVGID_9_" gradientUnits="userSpaceOnUse" x1="137.6133" y1="207.7871" x2="14.6133" y2="207.7871" gradientTransform="matrix(0.75 0 0 -0.75 267.0713 282.9375)">
		<stop  offset="0" style="stop-color:#AB6B37"/>
		<stop  offset="0.01" style="stop-color:#F5B48D"/>
		<stop  offset="0.05" style="stop-color:#DF8D4B"/>
		<stop  offset="0.9" style="stop-color:#DB8A49"/>
		<stop  offset="0.95" style="stop-color:#D68748"/>
		<stop  offset="1" style="stop-color:#9F6333"/>
	</linearGradient>
	<path fill="url(#SVGID_9_)" d="M278.031,122.973h92.25v8.25h-92.25V122.973z"/>
	
		<linearGradient id="SVGID_10_" gradientUnits="userSpaceOnUse" x1="142.252" y1="298.4873" x2="79.252" y2="298.4873" gradientTransform="matrix(0.6495 0.375 0.375 -0.6495 80.857 291.848)">
		<stop  offset="0" style="stop-color:#9D9E9A"/>
		<stop  offset="0.01" style="stop-color:#E6E7E2"/>
		<stop  offset="0.05" style="stop-color:#CDCEC9"/>
		<stop  offset="0.9" style="stop-color:#CACBC5"/>
		<stop  offset="0.95" style="stop-color:#C5C6C1"/>
		<stop  offset="1" style="stop-color:#92938F"/>
	</linearGradient>
	<path fill="url(#SVGID_10_)" d="M278.016,69.238l40.918,23.625l-55.023,93.805l-53.395-0.52L278.016,69.238z"/>
	
		<linearGradient id="SVGID_11_" gradientUnits="userSpaceOnUse" x1="40.6133" y1="171.7861" x2="14.6133" y2="171.7861" gradientTransform="matrix(0.75 0 0 -0.75 96.7744 351.998)">
		<stop  offset="0" style="stop-color:#57596E"/>
		<stop  offset="0.01" style="stop-color:#A3A5B6"/>
		<stop  offset="0.05" style="stop-color:#737690"/>
		<stop  offset="0.9" style="stop-color:#71748E"/>
		<stop  offset="0.95" style="stop-color:#6E728B"/>
		<stop  offset="1" style="stop-color:#505365"/>
	</linearGradient>
	<path fill="url(#SVGID_11_)" d="M107.734,192.035h19.5v62.25h-19.5V192.035z"/>
	
		<linearGradient id="SVGID_12_" gradientUnits="userSpaceOnUse" x1="65.7061" y1="182.7871" x2="14.6123" y2="182.7871" gradientTransform="matrix(0.75 0 0 -0.75 19.0366 346.3594)">
		<stop  offset="0" style="stop-color:#525365"/>
		<stop  offset="0.01" style="stop-color:#9FA0AF"/>
		<stop  offset="0.05" style="stop-color:#6C6E85"/>
		<stop  offset="0.9" style="stop-color:#6A6C83"/>
		<stop  offset="0.95" style="stop-color:#686A80"/>
		<stop  offset="1" style="stop-color:#4B4D5D"/>
	</linearGradient>
	<path fill="url(#SVGID_12_)" d="M32.246,186.395h34.5c0.75,0,1.57,0.84,1.57,1.879l-0.07,41.621c0,1.5-0.805,2.246-1.844,2.246
		l-34.156,0.004c-1.5,0-2.25-0.863-2.25-1.902v-41.598c0-1.5,0.844-2.25,1.883-2.25H32.246z"/>
	
		<linearGradient id="SVGID_13_" gradientUnits="userSpaceOnUse" x1="53.02" y1="194.0996" x2="14.6138" y2="194.0996" gradientTransform="matrix(0.75 0 0 -0.75 23.7935 354.8428)">
		<stop  offset="0" style="stop-color:#57596E"/>
		<stop  offset="0.01" style="stop-color:#A3A5B6"/>
		<stop  offset="0.05" style="stop-color:#737690"/>
		<stop  offset="0.9" style="stop-color:#71748E"/>
		<stop  offset="0.95" style="stop-color:#6E728B"/>
		<stop  offset="1" style="stop-color:#505365"/>
	</linearGradient>
	<path fill="url(#SVGID_13_)" d="M37.004,194.879h24c1.5,0,2.555,1.145,2.555,2.559l-0.305,23.691c0,1.5-0.84,2.531-2.254,2.531
		l-23.996-0.281c-0.75,0-2.25-0.863-2.25-2.277v-23.973c0-0.75,1.145-2.25,2.559-2.25H37.004z"/>
	
		<linearGradient id="SVGID_14_" gradientUnits="userSpaceOnUse" x1="20.6108" y1="149.2891" x2="14.6108" y2="149.2891" gradientTransform="matrix(0.75 0 0 -0.75 180.311 351.9971)">
		<stop  offset="0" style="stop-color:#BDBDBD"/>
		<stop  offset="0.15" style="stop-color:#FFFFFF"/>
		<stop  offset="0.25" style="stop-color:#FFFFFF"/>
		<stop  offset="0.52" style="stop-color:#DFDFDF"/>
		<stop  offset="0.69" style="stop-color:#C7C7C7"/>
		<stop  offset="0.8" style="stop-color:#BCBCBC"/>
		<stop  offset="0.92" style="stop-color:#B1B1B1"/>
		<stop  offset="1" style="stop-color:#CBCBCB"/>
	</linearGradient>
	<path fill="url(#SVGID_14_)" d="M191.27,192.031h4.5v96h-4.5V192.031z"/>
	
		<linearGradient id="SVGID_15_" gradientUnits="userSpaceOnUse" x1="-65.7871" y1="682.1113" x2="-71.7871" y2="682.1113" gradientTransform="matrix(0 0.75 0.75 0 -290.3408 283.6255)">
		<stop  offset="0" style="stop-color:#BDBDBD"/>
		<stop  offset="0.15" style="stop-color:#FFFFFF"/>
		<stop  offset="0.25" style="stop-color:#FFFFFF"/>
		<stop  offset="0.52" style="stop-color:#DFDFDF"/>
		<stop  offset="0.69" style="stop-color:#C7C7C7"/>
		<stop  offset="0.8" style="stop-color:#BCBCBC"/>
		<stop  offset="0.92" style="stop-color:#B1B1B1"/>
		<stop  offset="1" style="stop-color:#CBCBCB"/>
	</linearGradient>
	<path fill="url(#SVGID_15_)" d="M246.742,229.785v4.5h-51v-4.5H246.742z"/>
	
		<linearGradient id="SVGID_16_" gradientUnits="userSpaceOnUse" x1="20.6108" y1="156.7861" x2="14.6108" y2="156.7861" gradientTransform="matrix(0.75 0 0 -0.75 237.5962 302.7559)">
		<stop  offset="0" style="stop-color:#BDBDBD"/>
		<stop  offset="0.15" style="stop-color:#FFFFFF"/>
		<stop  offset="0.25" style="stop-color:#FFFFFF"/>
		<stop  offset="0.52" style="stop-color:#DFDFDF"/>
		<stop  offset="0.69" style="stop-color:#C7C7C7"/>
		<stop  offset="0.8" style="stop-color:#BCBCBC"/>
		<stop  offset="0.92" style="stop-color:#B1B1B1"/>
		<stop  offset="1" style="stop-color:#CBCBCB"/>
	</linearGradient>
	<path fill="url(#SVGID_16_)" d="M248.555,142.793h4.5v84.75h-4.5V142.793z"/>
	
		<linearGradient id="SVGID_17_" gradientUnits="userSpaceOnUse" x1="-65.7861" y1="679.1162" x2="-71.7861" y2="679.1162" gradientTransform="matrix(0 0.75 0.75 0 -290.3403 189.7227)">
		<stop  offset="0" style="stop-color:#BDBDBD"/>
		<stop  offset="0.15" style="stop-color:#FFFFFF"/>
		<stop  offset="0.25" style="stop-color:#FFFFFF"/>
		<stop  offset="0.52" style="stop-color:#DFDFDF"/>
		<stop  offset="0.69" style="stop-color:#C7C7C7"/>
		<stop  offset="0.8" style="stop-color:#BCBCBC"/>
		<stop  offset="0.92" style="stop-color:#B1B1B1"/>
		<stop  offset="1" style="stop-color:#CBCBCB"/>
	</linearGradient>
	<path fill="url(#SVGID_17_)" d="M246.746,135.883v4.5h-55.5v-4.5H246.746z"/>
	
		<linearGradient id="SVGID_18_" gradientUnits="userSpaceOnUse" x1="116.6128" y1="184.042" x2="14.6128" y2="184.042" gradientTransform="matrix(0.75 0 0 -0.75 266.7085 185.3965)">
		<stop  offset="0" style="stop-color:#9D9E9A"/>
		<stop  offset="0.01" style="stop-color:#E6E7E2"/>
		<stop  offset="0.05" style="stop-color:#CDCEC9"/>
		<stop  offset="0.9" style="stop-color:#CACBC5"/>
		<stop  offset="0.95" style="stop-color:#C5C6C1"/>
		<stop  offset="1" style="stop-color:#92938F"/>
	</linearGradient>
	<path fill="url(#SVGID_18_)" d="M279.168,25.434h72.75c1.5,0,2.215,0.82,2.215,1.859l0.035,40.141c0,0.75-0.898,1.863-1.938,1.863
		l-73.063-0.363c-0.75,0-1.5-0.516-1.5-1.555V26.934c0-0.75,0.805-1.5,1.844-1.5H279.168z"/>
	
		<linearGradient id="SVGID_19_" gradientUnits="userSpaceOnUse" x1="36.6133" y1="191.5889" x2="14.5869" y2="191.5889" gradientTransform="matrix(0.75 0 0 -0.75 343.1729 196.6709)">
		<stop  offset="0" style="stop-color:#9D9E9A"/>
		<stop  offset="0.01" style="stop-color:#E6E7E2"/>
		<stop  offset="0.05" style="stop-color:#CDCEC9"/>
		<stop  offset="0.9" style="stop-color:#CACBC5"/>
		<stop  offset="0.95" style="stop-color:#C5C6C1"/>
		<stop  offset="1" style="stop-color:#92938F"/>
	</linearGradient>
	<path fill="url(#SVGID_19_)" d="M355.633,36.707h12.75c1.5,0,2.031,0.82,2.031,1.859l0.219,28.891c0,0.75-1.063,1.797-2.102,1.797
		l-12.898-0.297c-0.75,0-1.52-0.543-1.52-1.582l0.02-29.168c0-0.75,0.824-1.5,1.859-1.5H355.633z"/>
	
		<linearGradient id="SVGID_20_" gradientUnits="userSpaceOnUse" x1="-65.7881" y1="588.6143" x2="-71.7881" y2="588.6143" gradientTransform="matrix(0 0.75 0.75 0 -259.4482 98.8374)">
		<stop  offset="0" style="stop-color:#BDBDBD"/>
		<stop  offset="0.15" style="stop-color:#FFFFFF"/>
		<stop  offset="0.25" style="stop-color:#FFFFFF"/>
		<stop  offset="0.52" style="stop-color:#DFDFDF"/>
		<stop  offset="0.69" style="stop-color:#C7C7C7"/>
		<stop  offset="0.8" style="stop-color:#BCBCBC"/>
		<stop  offset="0.92" style="stop-color:#B1B1B1"/>
		<stop  offset="1" style="stop-color:#CBCBCB"/>
	</linearGradient>
	<path fill="url(#SVGID_20_)" d="M277.637,44.996v4.5H86.387v-4.5H277.637z"/>
	
		<linearGradient id="SVGID_21_" gradientUnits="userSpaceOnUse" x1="13.5928" y1="621.4238" x2="24.9662" y2="627.9903" gradientTransform="matrix(0.75 0 0 0.75 235.3652 -237.8027)">
		<stop  offset="0" style="stop-color:#C4C4C4"/>
		<stop  offset="0.15" style="stop-color:#FFFFFF"/>
		<stop  offset="0.25" style="stop-color:#FFFFFF"/>
		<stop  offset="0.44" style="stop-color:#DFDFDF"/>
		<stop  offset="0.6" style="stop-color:#C7C7C7"/>
		<stop  offset="0.8" style="stop-color:#A8A8A8"/>
		<stop  offset="0.97" style="stop-color:#999999"/>
		<stop  offset="1" style="stop-color:#CBCBCB"/>
	</linearGradient>
	<path fill="url(#SVGID_21_)" d="M246.324,234.484c0,0,3.723-0.102,5.492-2.191c2.008-2.309,1.457-5.352,1.457-5.352l-4.699,0.043
		c0,0-0.141,1.859-2.25,2.625V234.484z"/>
	
		<linearGradient id="SVGID_22_" gradientUnits="userSpaceOnUse" x1="54.75" y1="193.2354" x2="14.6152" y2="193.2354" gradientTransform="matrix(0.75 0 0 -0.75 273.2925 194.1094)">
		<stop  offset="0" style="stop-color:#909590"/>
		<stop  offset="0.01" style="stop-color:#D8DDD8"/>
		<stop  offset="0.05" style="stop-color:#BDC2BD"/>
		<stop  offset="0.9" style="stop-color:#BABFBA"/>
		<stop  offset="0.95" style="stop-color:#B5BBB5"/>
		<stop  offset="1" style="stop-color:#868A86"/>
	</linearGradient>
	<path fill="url(#SVGID_22_)" d="M285.004,34.145h28.5c0.75,0,0.852,0.461,0.852,1.027l-0.102,28.223c0,0-0.359,0.828-0.926,0.828
		l-28.324-0.078c0,0-0.75-0.383-0.75-0.949V34.895c0,0,0.461-0.75,1.027-0.75H285.004z"/>
	
		<linearGradient id="SVGID_23_" gradientUnits="userSpaceOnUse" x1="54.7495" y1="193.2354" x2="14.6147" y2="193.2354" gradientTransform="matrix(0.75 0 0 -0.75 306.7148 194.1094)">
		<stop  offset="0" style="stop-color:#909590"/>
		<stop  offset="0.01" style="stop-color:#D8DDD8"/>
		<stop  offset="0.05" style="stop-color:#BDC2BD"/>
		<stop  offset="0.9" style="stop-color:#BABFBA"/>
		<stop  offset="0.95" style="stop-color:#B5BBB5"/>
		<stop  offset="1" style="stop-color:#868A86"/>
	</linearGradient>
	<path fill="url(#SVGID_23_)" d="M318.426,34.145h28.5c0.75,0,0.852,0.461,0.852,1.027l-0.102,28.223c0,0-0.359,0.828-0.926,0.828
		l-28.324-0.078c0,0-0.75-0.383-0.75-0.949V34.895c0,0,0.461-0.75,1.027-0.75H318.426z"/>
	
		<linearGradient id="SVGID_24_" gradientUnits="userSpaceOnUse" x1="16.8428" y1="213.2871" x2="16.8428" y2="196.9375" gradientTransform="matrix(0.75 0 0 -0.75 263.3306 201.1797)">
		<stop  offset="0" style="stop-color:#BDBDBD"/>
		<stop  offset="0.15" style="stop-color:#FFFFFF"/>
		<stop  offset="0.25" style="stop-color:#FFFFFF"/>
		<stop  offset="0.52" style="stop-color:#DFDFDF"/>
		<stop  offset="0.69" style="stop-color:#C7C7C7"/>
		<stop  offset="0.8" style="stop-color:#BCBCBC"/>
		<stop  offset="0.92" style="stop-color:#B1B1B1"/>
		<stop  offset="1" style="stop-color:#CBCBCB"/>
	</linearGradient>
	<path fill="url(#SVGID_24_)" d="M275.039,41.215h2.25c0,0,0.348,0.285,0.348,0.637l-0.348,10.613c0,0.75,0.063,1.012-0.289,1.012
		l-1.961-0.262c-0.75,0-0.75-0.023-0.75-0.375V41.965c0-0.75,0.285-0.75,0.641-0.75H275.039z"/>
	
		<linearGradient id="SVGID_25_" gradientUnits="userSpaceOnUse" x1="16.8433" y1="213.2861" x2="16.8433" y2="196.9424" gradientTransform="matrix(0.75 0 0 -0.75 180.3228 292.0664)">
		<stop  offset="0" style="stop-color:#BDBDBD"/>
		<stop  offset="0.15" style="stop-color:#FFFFFF"/>
		<stop  offset="0.25" style="stop-color:#FFFFFF"/>
		<stop  offset="0.52" style="stop-color:#DFDFDF"/>
		<stop  offset="0.69" style="stop-color:#C7C7C7"/>
		<stop  offset="0.8" style="stop-color:#BCBCBC"/>
		<stop  offset="0.92" style="stop-color:#B1B1B1"/>
		<stop  offset="1" style="stop-color:#CBCBCB"/>
	</linearGradient>
	<path fill="url(#SVGID_25_)" d="M192.031,132.102h2.25c0,0,0.348,0.285,0.348,0.637l-0.348,10.613c0,0.75,0.063,1.008-0.289,1.008
		l-1.961-0.258c-0.75,0-0.75-0.027-0.75-0.379v-10.871c0-0.75,0.285-0.75,0.641-0.75H192.031z"/>
	
		<linearGradient id="SVGID_26_" gradientUnits="userSpaceOnUse" x1="13.5938" y1="204.9951" x2="24.9672" y2="211.5616" gradientTransform="matrix(0.75 0 0 -0.75 235.5088 295.7002)">
		<stop  offset="0" style="stop-color:#C4C4C4"/>
		<stop  offset="0.15" style="stop-color:#FFFFFF"/>
		<stop  offset="0.25" style="stop-color:#FFFFFF"/>
		<stop  offset="0.44" style="stop-color:#DFDFDF"/>
		<stop  offset="0.6" style="stop-color:#C7C7C7"/>
		<stop  offset="0.8" style="stop-color:#A8A8A8"/>
		<stop  offset="0.97" style="stop-color:#999999"/>
		<stop  offset="1" style="stop-color:#CBCBCB"/>
	</linearGradient>
	<path fill="url(#SVGID_26_)" d="M246.469,135.734c0,0,3.719,0.102,5.492,2.191c2.008,2.309,1.457,5.352,1.457,5.352l-4.699-0.043
		c0,0-0.141-1.859-2.25-2.625V135.734z"/>
	
		<linearGradient id="SVGID_27_" gradientUnits="userSpaceOnUse" x1="28.9014" y1="206.1484" x2="14.6152" y2="206.1484" gradientTransform="matrix(0.75 0 0 -0.75 65.5659 363.6514)">
		<stop  offset="0" style="stop-color:#979898"/>
		<stop  offset="0.15" style="stop-color:#D0D1D1"/>
		<stop  offset="0.25" style="stop-color:#E5E6E6"/>
		<stop  offset="0.52" style="stop-color:#B3B4B4"/>
		<stop  offset="0.69" style="stop-color:#9FA0A0"/>
		<stop  offset="0.8" style="stop-color:#969797"/>
		<stop  offset="0.92" style="stop-color:#8E8E8E"/>
		<stop  offset="1" style="stop-color:#A3A4A4"/>
	</linearGradient>
	<path fill="url(#SVGID_27_)" d="M76.527,208.938c0-3,2.398-5.25,5.355-5.25c2.895,0,5.359,2.395,5.359,5.352
		c-0.215,2.898-2.398,5.355-5.359,5.355c-3.105-0.207-5.355-2.398-5.355-5.355V208.938z"/>
	<path fill="#403E3E" d="M78.742,208.902c0-1.5,1.406-3,3.141-3c2.109,0,3.141,1.406,3.141,3.137
		c-0.281,1.363-1.406,3.141-3.141,3.141c-1.641-0.277-3.141-1.406-3.141-3.141V208.902z"/>
	
		<linearGradient id="SVGID_28_" gradientUnits="userSpaceOnUse" x1="20.6128" y1="106.9521" x2="14.6128" y2="106.9521" gradientTransform="matrix(0.75 0 0 -0.75 68.5869 212.2344)">
		<stop  offset="0" style="stop-color:#BDBDBD"/>
		<stop  offset="0.15" style="stop-color:#FFFFFF"/>
		<stop  offset="0.25" style="stop-color:#FFFFFF"/>
		<stop  offset="0.52" style="stop-color:#DFDFDF"/>
		<stop  offset="0.69" style="stop-color:#C7C7C7"/>
		<stop  offset="0.8" style="stop-color:#BCBCBC"/>
		<stop  offset="0.92" style="stop-color:#B1B1B1"/>
		<stop  offset="1" style="stop-color:#CBCBCB"/>
	</linearGradient>
	<path fill="url(#SVGID_28_)" d="M79.547,52.27h4.5v157.5c0,0-0.051,1.977-2.176,1.977c-2.324,0.273-2.324-1.617-2.324-1.617V52.27z
		"/>
	
		<linearGradient id="SVGID_29_" gradientUnits="userSpaceOnUse" x1="-575.6318" y1="204.9941" x2="-564.257" y2="211.5614" gradientTransform="matrix(-0.75 0 0 -0.75 -344.5244 204.9092)">
		<stop  offset="0" style="stop-color:#C4C4C4"/>
		<stop  offset="0.15" style="stop-color:#FFFFFF"/>
		<stop  offset="0.25" style="stop-color:#FFFFFF"/>
		<stop  offset="0.44" style="stop-color:#DFDFDF"/>
		<stop  offset="0.6" style="stop-color:#C7C7C7"/>
		<stop  offset="0.8" style="stop-color:#A8A8A8"/>
		<stop  offset="0.97" style="stop-color:#999999"/>
		<stop  offset="1" style="stop-color:#CBCBCB"/>
	</linearGradient>
	<path fill="url(#SVGID_29_)" d="M86.438,44.945c0,0-3.723,0.098-5.492,2.188c-2.008,2.313-1.461,5.355-1.461,5.355l4.703-0.043
		c0,0,0.141-1.863,2.25-2.629V44.945z"/>
	
		<linearGradient id="SVGID_30_" gradientUnits="userSpaceOnUse" x1="-69.5586" y1="716.1133" x2="-69.5586" y2="699.7539" gradientTransform="matrix(0 0.75 0.75 0 -337.3306 245.8608)">
		<stop  offset="0" style="stop-color:#BDBDBD"/>
		<stop  offset="0.15" style="stop-color:#FFFFFF"/>
		<stop  offset="0.25" style="stop-color:#FFFFFF"/>
		<stop  offset="0.52" style="stop-color:#DFDFDF"/>
		<stop  offset="0.69" style="stop-color:#C7C7C7"/>
		<stop  offset="0.8" style="stop-color:#BCBCBC"/>
		<stop  offset="0.92" style="stop-color:#B1B1B1"/>
		<stop  offset="1" style="stop-color:#CBCBCB"/>
	</linearGradient>
	<path fill="url(#SVGID_30_)" d="M199.754,192.77v2.25c0,0-0.285,0.344-0.637,0.344l-11.363-0.344c0,0-0.27,0.059-0.27-0.293
		l0.27-1.957c0-0.75,0.016-0.75,0.367-0.75h10.883c0.75,0,0.75,0.285,0.75,0.637V192.77z"/>
	
		<linearGradient id="SVGID_31_" gradientUnits="userSpaceOnUse" x1="23.6104" y1="131.2886" x2="14.6104" y2="131.2886" gradientTransform="matrix(0.75 0 0 -0.75 256.9521 346.8291)">
		<stop  offset="0" style="stop-color:#292525"/>
		<stop  offset="0.01" style="stop-color:#868584"/>
		<stop  offset="0.05" style="stop-color:#383433"/>
		<stop  offset="0.9" style="stop-color:#373332"/>
		<stop  offset="0.95" style="stop-color:#363130"/>
		<stop  offset="1" style="stop-color:#252221"/>
	</linearGradient>
	<path fill="url(#SVGID_31_)" d="M267.91,186.863h6.75v123h-6.75V186.863z"/>
	
		<linearGradient id="SVGID_32_" gradientUnits="userSpaceOnUse" x1="59.6152" y1="209.2891" x2="14.6152" y2="209.2891" gradientTransform="matrix(0.75 0 0 -0.75 249.4287 346.3604)">
		<stop  offset="0" style="stop-color:#3D3B3B"/>
		<stop  offset="0.01" style="stop-color:#908F8F"/>
		<stop  offset="0.05" style="stop-color:#514F4F"/>
		<stop  offset="0.9" style="stop-color:#504E4E"/>
		<stop  offset="0.95" style="stop-color:#4E4C4C"/>
		<stop  offset="1" style="stop-color:#383636"/>
	</linearGradient>
	<path fill="url(#SVGID_32_)" d="M260.391,186.395h33.75v6h-33.75V186.395z"/>
	<path fill="#FFFFFF" fill-opacity="0.2196" stroke="#9E9F9F" stroke-linejoin="bevel" stroke-miterlimit="10" d="M105.652,82.203
		h75c0,0,0.418,0.285,0.418,0.637l0.332,39.113c0,0.75-0.68,1.012-1.109,1.012l-74.641-0.262c-0.75,0-0.75-0.023-0.75-0.375V82.953
		c0-0.75,0.348-0.75,0.777-0.75H105.652z"/>
	
		<linearGradient id="SVGID_33_" gradientUnits="userSpaceOnUse" x1="20.8545" y1="214.1729" x2="17.0779" y2="203.7969" gradientTransform="matrix(0.75 0 0 -0.75 111.3804 272.4512)">
		<stop  offset="0" style="stop-color:#008577"/>
		<stop  offset="0.15" style="stop-color:#45B4A5"/>
		<stop  offset="0.25" style="stop-color:#B3D7D1"/>
		<stop  offset="0.44" style="stop-color:#009889"/>
		<stop  offset="0.6" style="stop-color:#008779"/>
		<stop  offset="0.8" style="stop-color:#007165"/>
		<stop  offset="0.97" style="stop-color:#00675C"/>
		<stop  offset="1" style="stop-color:#008A7C"/>
	</linearGradient>
	<path fill="url(#SVGID_33_)" d="M122.34,115.484c0-1.5,1.414-3.023,3.184-3.023c2.066,0.023,3.211,1.438,3.211,3.207
		c0.355,2.066-1.438,3.207-3.211,3.207c-1.684,0.359-3.207-1.438-3.207-3.207L122.34,115.484z"/>
	
		<linearGradient id="SVGID_34_" gradientUnits="userSpaceOnUse" x1="20.856" y1="214.1729" x2="17.0794" y2="203.7969" gradientTransform="matrix(0.75 0 0 -0.75 123.7261 272.4512)">
		<stop  offset="0" style="stop-color:#006A9C"/>
		<stop  offset="0.15" style="stop-color:#4596D0"/>
		<stop  offset="0.25" style="stop-color:#B3CBE5"/>
		<stop  offset="0.44" style="stop-color:#007AB2"/>
		<stop  offset="0.6" style="stop-color:#006C9E"/>
		<stop  offset="0.8" style="stop-color:#005A85"/>
		<stop  offset="0.97" style="stop-color:#00527A"/>
		<stop  offset="1" style="stop-color:#006EA2"/>
	</linearGradient>
	<path fill="url(#SVGID_34_)" d="M134.688,115.484c0-1.5,1.41-3.023,3.184-3.023c2.066,0.023,3.211,1.438,3.211,3.207
		c0.355,2.066-1.438,3.207-3.211,3.207c-1.684,0.359-3.211-1.438-3.211-3.207L134.688,115.484z"/>
	
		<linearGradient id="SVGID_35_" gradientUnits="userSpaceOnUse" x1="20.856" y1="214.1738" x2="17.079" y2="203.7967" gradientTransform="matrix(0.75 0 0 -0.75 136.0972 272.4512)">
		<stop  offset="0" style="stop-color:#006A9C"/>
		<stop  offset="0.15" style="stop-color:#4596D0"/>
		<stop  offset="0.25" style="stop-color:#B3CBE5"/>
		<stop  offset="0.44" style="stop-color:#007AB2"/>
		<stop  offset="0.6" style="stop-color:#006C9E"/>
		<stop  offset="0.8" style="stop-color:#005A85"/>
		<stop  offset="0.97" style="stop-color:#00527A"/>
		<stop  offset="1" style="stop-color:#006EA2"/>
	</linearGradient>
	<path fill="url(#SVGID_35_)" d="M147.059,115.484c0-1.5,1.41-3.023,3.184-3.023c2.066,0.023,3.207,1.438,3.207,3.207
		c0.359,2.066-1.434,3.207-3.207,3.207c-1.684,0.359-3.211-1.438-3.211-3.207L147.059,115.484z"/>
	
		<linearGradient id="SVGID_36_" gradientUnits="userSpaceOnUse" x1="20.8555" y1="214.1729" x2="17.0789" y2="203.7969" gradientTransform="matrix(0.75 0 0 -0.75 148.4185 272.4512)">
		<stop  offset="0" style="stop-color:#006A9C"/>
		<stop  offset="0.15" style="stop-color:#4596D0"/>
		<stop  offset="0.25" style="stop-color:#B3CBE5"/>
		<stop  offset="0.44" style="stop-color:#007AB2"/>
		<stop  offset="0.6" style="stop-color:#006C9E"/>
		<stop  offset="0.8" style="stop-color:#005A85"/>
		<stop  offset="0.97" style="stop-color:#00527A"/>
		<stop  offset="1" style="stop-color:#006EA2"/>
	</linearGradient>
	<path fill="url(#SVGID_36_)" d="M159.379,115.484c0-1.5,1.41-3.023,3.184-3.023c2.066,0.023,3.211,1.438,3.211,3.207
		c0.355,2.066-1.438,3.207-3.211,3.207c-1.684,0.359-3.211-1.438-3.211-3.207L159.379,115.484z"/>
	
		<linearGradient id="SVGID_37_" gradientUnits="userSpaceOnUse" x1="20.8525" y1="214.1729" x2="17.076" y2="203.7969" gradientTransform="matrix(0.75 0 0 -0.75 160.7646 272.4512)">
		<stop  offset="0" style="stop-color:#006A9C"/>
		<stop  offset="0.15" style="stop-color:#4596D0"/>
		<stop  offset="0.25" style="stop-color:#B3CBE5"/>
		<stop  offset="0.44" style="stop-color:#007AB2"/>
		<stop  offset="0.6" style="stop-color:#006C9E"/>
		<stop  offset="0.8" style="stop-color:#005A85"/>
		<stop  offset="0.97" style="stop-color:#00527A"/>
		<stop  offset="1" style="stop-color:#006EA2"/>
	</linearGradient>
	<path fill="url(#SVGID_37_)" d="M171.723,115.484c0-1.5,1.414-3.023,3.188-3.023c2.063,0.023,3.207,1.438,3.207,3.207
		c0.355,2.066-1.438,3.207-3.207,3.207c-1.688,0.359-3.211-1.438-3.211-3.207L171.723,115.484z"/>
	
		<linearGradient id="SVGID_38_" gradientUnits="userSpaceOnUse" x1="20.8535" y1="214.1729" x2="17.077" y2="203.7969" gradientTransform="matrix(0.75 0 0 -0.75 111.3804 259.2285)">
		<stop  offset="0" style="stop-color:#C3A156"/>
		<stop  offset="0.15" style="stop-color:#FED681"/>
		<stop  offset="0.25" style="stop-color:#FEE8C2"/>
		<stop  offset="0.44" style="stop-color:#DEB863"/>
		<stop  offset="0.6" style="stop-color:#C6A457"/>
		<stop  offset="0.8" style="stop-color:#A78A48"/>
		<stop  offset="0.97" style="stop-color:#997E42"/>
		<stop  offset="1" style="stop-color:#CBA859"/>
	</linearGradient>
	<path fill="url(#SVGID_38_)" d="M122.34,102.262c0-1.5,1.414-3.023,3.184-3.023c2.066,0.023,3.211,1.438,3.211,3.207
		c0.355,2.066-1.438,3.207-3.211,3.207c-1.684,0.359-3.207-1.438-3.207-3.207L122.34,102.262z"/>
	
		<linearGradient id="SVGID_39_" gradientUnits="userSpaceOnUse" x1="20.8555" y1="214.1719" x2="17.0789" y2="203.7959" gradientTransform="matrix(0.75 0 0 -0.75 123.7261 259.2285)">
		<stop  offset="0" style="stop-color:#006A9C"/>
		<stop  offset="0.15" style="stop-color:#4596D0"/>
		<stop  offset="0.25" style="stop-color:#B3CBE5"/>
		<stop  offset="0.44" style="stop-color:#007AB2"/>
		<stop  offset="0.6" style="stop-color:#006C9E"/>
		<stop  offset="0.8" style="stop-color:#005A85"/>
		<stop  offset="0.97" style="stop-color:#00527A"/>
		<stop  offset="1" style="stop-color:#006EA2"/>
	</linearGradient>
	<path fill="url(#SVGID_39_)" d="M134.688,102.262c0-1.5,1.41-3.023,3.184-3.023c2.066,0.023,3.211,1.438,3.211,3.207
		c0.355,2.066-1.438,3.207-3.211,3.207c-1.684,0.359-3.211-1.438-3.211-3.207L134.688,102.262z"/>
	
		<linearGradient id="SVGID_40_" gradientUnits="userSpaceOnUse" x1="20.8555" y1="214.1719" x2="17.0789" y2="203.7959" gradientTransform="matrix(0.75 0 0 -0.75 136.0972 259.2285)">
		<stop  offset="0" style="stop-color:#006A9C"/>
		<stop  offset="0.15" style="stop-color:#4596D0"/>
		<stop  offset="0.25" style="stop-color:#B3CBE5"/>
		<stop  offset="0.44" style="stop-color:#007AB2"/>
		<stop  offset="0.6" style="stop-color:#006C9E"/>
		<stop  offset="0.8" style="stop-color:#005A85"/>
		<stop  offset="0.97" style="stop-color:#00527A"/>
		<stop  offset="1" style="stop-color:#006EA2"/>
	</linearGradient>
	<path fill="url(#SVGID_40_)" d="M147.059,102.262c0-1.5,1.41-3.023,3.184-3.023c2.066,0.023,3.207,1.438,3.207,3.207
		c0.359,2.066-1.434,3.207-3.207,3.207c-1.684,0.359-3.211-1.438-3.211-3.207L147.059,102.262z"/>
	
		<linearGradient id="SVGID_41_" gradientUnits="userSpaceOnUse" x1="20.8545" y1="214.1719" x2="17.0779" y2="203.7959" gradientTransform="matrix(0.75 0 0 -0.75 148.4185 259.2285)">
		<stop  offset="0" style="stop-color:#006A9C"/>
		<stop  offset="0.15" style="stop-color:#4596D0"/>
		<stop  offset="0.25" style="stop-color:#B3CBE5"/>
		<stop  offset="0.44" style="stop-color:#007AB2"/>
		<stop  offset="0.6" style="stop-color:#006C9E"/>
		<stop  offset="0.8" style="stop-color:#005A85"/>
		<stop  offset="0.97" style="stop-color:#00527A"/>
		<stop  offset="1" style="stop-color:#006EA2"/>
	</linearGradient>
	<path fill="url(#SVGID_41_)" d="M159.379,102.262c0-1.5,1.41-3.023,3.184-3.023c2.066,0.023,3.211,1.438,3.211,3.207
		c0.355,2.066-1.438,3.207-3.211,3.207c-1.684,0.359-3.211-1.438-3.211-3.207L159.379,102.262z"/>
	
		<linearGradient id="SVGID_42_" gradientUnits="userSpaceOnUse" x1="20.8516" y1="214.1738" x2="17.075" y2="203.7979" gradientTransform="matrix(0.75 0 0 -0.75 160.7646 259.2285)">
		<stop  offset="0" style="stop-color:#006A9C"/>
		<stop  offset="0.15" style="stop-color:#4596D0"/>
		<stop  offset="0.25" style="stop-color:#B3CBE5"/>
		<stop  offset="0.44" style="stop-color:#007AB2"/>
		<stop  offset="0.6" style="stop-color:#006C9E"/>
		<stop  offset="0.8" style="stop-color:#005A85"/>
		<stop  offset="0.97" style="stop-color:#00527A"/>
		<stop  offset="1" style="stop-color:#006EA2"/>
	</linearGradient>
	<path fill="url(#SVGID_42_)" d="M171.723,102.262c0-1.5,1.414-3.023,3.188-3.023c2.063,0.023,3.207,1.438,3.207,3.207
		c0.355,2.066-1.438,3.207-3.207,3.207c-1.688,0.359-3.211-1.438-3.211-3.207L171.723,102.262z"/>
	
		<linearGradient id="SVGID_43_" gradientUnits="userSpaceOnUse" x1="20.8545" y1="214.1719" x2="17.0784" y2="203.7971" gradientTransform="matrix(0.75 0 0 -0.75 111.3804 246.0078)">
		<stop  offset="0" style="stop-color:#B45255"/>
		<stop  offset="0.15" style="stop-color:#EC7D80"/>
		<stop  offset="0.25" style="stop-color:#F4C1C2"/>
		<stop  offset="0.44" style="stop-color:#CE5E62"/>
		<stop  offset="0.6" style="stop-color:#B75356"/>
		<stop  offset="0.8" style="stop-color:#9A4548"/>
		<stop  offset="0.97" style="stop-color:#8D3F41"/>
		<stop  offset="1" style="stop-color:#BB5559"/>
	</linearGradient>
	<path fill="url(#SVGID_43_)" d="M122.34,89.043c0-1.5,1.414-3.023,3.184-3.023c2.066,0.023,3.211,1.434,3.211,3.203
		c0.355,2.07-1.438,3.207-3.211,3.207c-1.684,0.363-3.207-1.434-3.207-3.207L122.34,89.043z"/>
	
		<linearGradient id="SVGID_44_" gradientUnits="userSpaceOnUse" x1="20.8555" y1="214.1719" x2="17.0793" y2="203.7971" gradientTransform="matrix(0.75 0 0 -0.75 123.7261 246.0078)">
		<stop  offset="0" style="stop-color:#B45255"/>
		<stop  offset="0.15" style="stop-color:#EC7D80"/>
		<stop  offset="0.25" style="stop-color:#F4C1C2"/>
		<stop  offset="0.44" style="stop-color:#CE5E62"/>
		<stop  offset="0.6" style="stop-color:#B75356"/>
		<stop  offset="0.8" style="stop-color:#9A4548"/>
		<stop  offset="0.97" style="stop-color:#8D3F41"/>
		<stop  offset="1" style="stop-color:#BB5559"/>
	</linearGradient>
	<path fill="url(#SVGID_44_)" d="M134.688,89.043c0-1.5,1.41-3.023,3.184-3.023c2.066,0.023,3.211,1.434,3.211,3.203
		c0.355,2.07-1.438,3.207-3.211,3.207c-1.684,0.363-3.211-1.434-3.211-3.207L134.688,89.043z"/>
	
		<linearGradient id="SVGID_45_" gradientUnits="userSpaceOnUse" x1="20.8555" y1="214.1729" x2="17.0789" y2="203.7969" gradientTransform="matrix(0.75 0 0 -0.75 136.0972 246.0078)">
		<stop  offset="0" style="stop-color:#B45255"/>
		<stop  offset="0.15" style="stop-color:#EC7D80"/>
		<stop  offset="0.25" style="stop-color:#F4C1C2"/>
		<stop  offset="0.44" style="stop-color:#CE5E62"/>
		<stop  offset="0.6" style="stop-color:#B75356"/>
		<stop  offset="0.8" style="stop-color:#9A4548"/>
		<stop  offset="0.97" style="stop-color:#8D3F41"/>
		<stop  offset="1" style="stop-color:#BB5559"/>
	</linearGradient>
	<path fill="url(#SVGID_45_)" d="M147.059,89.043c0-1.5,1.41-3.023,3.184-3.023c2.066,0.023,3.207,1.434,3.207,3.203
		c0.359,2.07-1.434,3.207-3.207,3.207c-1.684,0.363-3.211-1.434-3.211-3.207L147.059,89.043z"/>
	
		<linearGradient id="SVGID_46_" gradientUnits="userSpaceOnUse" x1="20.8555" y1="214.1729" x2="17.0789" y2="203.7969" gradientTransform="matrix(0.75 0 0 -0.75 148.4185 246.0078)">
		<stop  offset="0" style="stop-color:#B45255"/>
		<stop  offset="0.15" style="stop-color:#EC7D80"/>
		<stop  offset="0.25" style="stop-color:#F4C1C2"/>
		<stop  offset="0.44" style="stop-color:#CE5E62"/>
		<stop  offset="0.6" style="stop-color:#B75356"/>
		<stop  offset="0.8" style="stop-color:#9A4548"/>
		<stop  offset="0.97" style="stop-color:#8D3F41"/>
		<stop  offset="1" style="stop-color:#BB5559"/>
	</linearGradient>
	<path fill="url(#SVGID_46_)" d="M159.379,89.043c0-1.5,1.41-3.023,3.184-3.023c2.066,0.023,3.211,1.434,3.211,3.203
		c0.355,2.07-1.438,3.207-3.211,3.207c-1.684,0.363-3.211-1.434-3.211-3.207L159.379,89.043z"/>
	
		<linearGradient id="SVGID_47_" gradientUnits="userSpaceOnUse" x1="20.8525" y1="214.1738" x2="17.076" y2="203.7979" gradientTransform="matrix(0.75 0 0 -0.75 160.7646 246.0078)">
		<stop  offset="0" style="stop-color:#B45255"/>
		<stop  offset="0.15" style="stop-color:#EC7D80"/>
		<stop  offset="0.25" style="stop-color:#F4C1C2"/>
		<stop  offset="0.44" style="stop-color:#CE5E62"/>
		<stop  offset="0.6" style="stop-color:#B75356"/>
		<stop  offset="0.8" style="stop-color:#9A4548"/>
		<stop  offset="0.97" style="stop-color:#8D3F41"/>
		<stop  offset="1" style="stop-color:#BB5559"/>
	</linearGradient>
	<path fill="url(#SVGID_47_)" d="M171.723,89.043c0-1.5,1.414-3.023,3.188-3.023c2.063,0.023,3.207,1.434,3.207,3.203
		c0.355,2.07-1.438,3.207-3.207,3.207c-1.688,0.363-3.211-1.434-3.211-3.207L171.723,89.043z"/>
	
		<linearGradient id="SVGID_48_" gradientUnits="userSpaceOnUse" x1="29.6519" y1="206.6113" x2="14.6147" y2="206.6113" gradientTransform="matrix(0.75 0 0 -0.75 95.0933 268.7832)">
		<stop  offset="0" style="stop-color:#000000"/>
		<stop  offset="0.15" style="stop-color:#454545"/>
		<stop  offset="0.25" style="stop-color:#B3B3B3"/>
		<stop  offset="0.52" style="stop-color:#000000"/>
		<stop  offset="0.69" style="stop-color:#000000"/>
		<stop  offset="0.8" style="stop-color:#000000"/>
		<stop  offset="0.92" style="stop-color:#000000"/>
		<stop  offset="1" style="stop-color:#000000"/>
	</linearGradient>
	<path fill="url(#SVGID_48_)" d="M114.305,108.82c0.75,0,0.488,1.488,1.172,2.68c0.328,1.07,1.855,1.598,1.855,2.238
		c-0.027,0.332-1.16,1.07-1.809,2.148c-0.469,1.184-0.379,2.344-1.012,2.711c-0.957,0.723-1.379-0.457-2.836-0.449
		c-1.121-0.328-2.254,0.742-2.805,0.449c-0.566-0.027-0.293-1.375-1.063-2.672c-1.004-1.105-1.754-1.465-1.754-2.188
		c0-0.418,1.027-1.023,1.797-2.301c0.453-1.117,0.609-2.363,1.02-2.563c0.184-0.055,1.266,0.445,2.848,0.445
		c1.836,0.25,2.359-0.715,2.793-0.445L114.305,108.82z"/>
	<path fill="#FFFFFF" fill-opacity="0.2" d="M114.609,109.078c0,0,0.016,1.414,0.66,2.543c0.84,1.207,1.758,1.512,1.758,2.117
		c-0.168,0.59-1.098,1.016-1.711,2.039c-0.707,0.801-0.359,2.219-0.957,2.566c-0.5,0.484-1.305-0.434-2.68-0.426
		c-1.57,0.16-2.133,0.703-2.656,0.426c-0.414-0.266-0.277-1.305-1.004-2.531c-0.91-0.734-1.66-1.391-1.66-2.074
		c0-0.91,0.973-0.969,1.699-2.18c0.551-0.98,0.578-2.238,0.965-2.43c0.336-0.051,1.199,0.426,2.691,0.426
		c1.395,0.273,2.234-0.676,2.645-0.426L114.609,109.078z"/>
	<path fill="#3E3938" stroke="#717070" stroke-linejoin="bevel" stroke-miterlimit="10" d="M108.227,114.047
		c0-2.25,1.551-3.75,3.465-3.75c1.785,0,3.465,1.547,3.465,3.453c-0.18,1.797-1.551,3.457-3.465,3.457
		c-1.965-0.16-3.465-1.547-3.465-3.457V114.047z"/>
	<path fill="#FFFFFF" fill-opacity="0.1725" d="M111.77,113.758c0-1.5-1.742-3-0.086-3c1.586,0,2.996,1.34,2.996,2.992
		c0.09,1.508-1.34,2.984-2.996,2.984c-1.414,0.023,0.164-1.113,0.164-2.766L111.77,113.758z"/>
	<path fill="none" stroke="#9E9F9F" stroke-linejoin="bevel" stroke-miterlimit="10" d="M104.695,144.934h75.75
		c0.75,0,0.945,0.285,0.945,0.637l-0.195,27.863c0,0.75-0.09,0.797-0.441,0.797l-76.059-0.047c-0.75,0-0.75-0.238-0.75-0.59v-27.91
		c0-0.75,0.285-0.75,0.637-0.75H104.695z"/>
	
		<linearGradient id="SVGID_49_" gradientUnits="userSpaceOnUse" x1="20.856" y1="214.1729" x2="17.0796" y2="203.7973" gradientTransform="matrix(0.75 0 0 -0.75 98.3843 309.7979)">
		<stop  offset="0" style="stop-color:#2D2929"/>
		<stop  offset="0.15" style="stop-color:#5B5858"/>
		<stop  offset="0.25" style="stop-color:#B8B7B7"/>
		<stop  offset="0.44" style="stop-color:#353130"/>
		<stop  offset="0.6" style="stop-color:#2E2A29"/>
		<stop  offset="0.8" style="stop-color:#252221"/>
		<stop  offset="0.97" style="stop-color:#211E1E"/>
		<stop  offset="1" style="stop-color:#2F2B2B"/>
	</linearGradient>
	<path fill="url(#SVGID_49_)" d="M109.344,152.832c0-1.5,1.414-3.023,3.188-3.023c2.063,0.023,3.211,1.434,3.211,3.207
		c0.352,2.066-1.438,3.207-3.211,3.207c-1.688,0.359-3.211-1.438-3.211-3.207L109.344,152.832z"/>
	
		<linearGradient id="SVGID_50_" gradientUnits="userSpaceOnUse" x1="20.855" y1="214.1738" x2="17.0782" y2="203.7971" gradientTransform="matrix(0.75 0 0 -0.75 123.085 309.7979)">
		<stop  offset="0" style="stop-color:#B45255"/>
		<stop  offset="0.15" style="stop-color:#EC7D80"/>
		<stop  offset="0.25" style="stop-color:#F4C1C2"/>
		<stop  offset="0.44" style="stop-color:#CE5E62"/>
		<stop  offset="0.6" style="stop-color:#B75356"/>
		<stop  offset="0.8" style="stop-color:#9A4548"/>
		<stop  offset="0.97" style="stop-color:#8D3F41"/>
		<stop  offset="1" style="stop-color:#BB5559"/>
	</linearGradient>
	<path fill="url(#SVGID_50_)" d="M134.043,152.832c0-1.5,1.414-3.023,3.188-3.023c2.063,0.023,3.211,1.434,3.211,3.207
		c0.352,2.066-1.438,3.207-3.211,3.207c-1.688,0.359-3.211-1.438-3.211-3.207L134.043,152.832z"/>
	
		<linearGradient id="SVGID_51_" gradientUnits="userSpaceOnUse" x1="20.8564" y1="214.1738" x2="17.0796" y2="203.7971" gradientTransform="matrix(0.75 0 0 -0.75 135.4351 309.7979)">
		<stop  offset="0" style="stop-color:#B45255"/>
		<stop  offset="0.15" style="stop-color:#EC7D80"/>
		<stop  offset="0.25" style="stop-color:#F4C1C2"/>
		<stop  offset="0.44" style="stop-color:#CE5E62"/>
		<stop  offset="0.6" style="stop-color:#B75356"/>
		<stop  offset="0.8" style="stop-color:#9A4548"/>
		<stop  offset="0.97" style="stop-color:#8D3F41"/>
		<stop  offset="1" style="stop-color:#BB5559"/>
	</linearGradient>
	<path fill="url(#SVGID_51_)" d="M146.395,152.832c0-1.5,1.414-3.023,3.188-3.023c2.063,0.023,3.211,1.434,3.211,3.207
		c0.352,2.066-1.438,3.207-3.211,3.207c-1.688,0.359-3.211-1.438-3.211-3.207L146.395,152.832z"/>
	
		<linearGradient id="SVGID_52_" gradientUnits="userSpaceOnUse" x1="20.8555" y1="214.1729" x2="17.0791" y2="203.7973" gradientTransform="matrix(0.75 0 0 -0.75 147.7852 309.7979)">
		<stop  offset="0" style="stop-color:#B45255"/>
		<stop  offset="0.15" style="stop-color:#EC7D80"/>
		<stop  offset="0.25" style="stop-color:#F4C1C2"/>
		<stop  offset="0.44" style="stop-color:#CE5E62"/>
		<stop  offset="0.6" style="stop-color:#B75356"/>
		<stop  offset="0.8" style="stop-color:#9A4548"/>
		<stop  offset="0.97" style="stop-color:#8D3F41"/>
		<stop  offset="1" style="stop-color:#BB5559"/>
	</linearGradient>
	<path fill="url(#SVGID_52_)" d="M158.746,152.832c0-1.5,1.41-3.023,3.184-3.023c2.066,0.023,3.211,1.434,3.211,3.207
		c0.355,2.066-1.438,3.207-3.211,3.207c-1.684,0.359-3.211-1.438-3.211-3.207L158.746,152.832z"/>
	
		<linearGradient id="SVGID_53_" gradientUnits="userSpaceOnUse" x1="20.8569" y1="214.1719" x2="17.0805" y2="203.7963" gradientTransform="matrix(0.75 0 0 -0.75 160.1357 309.7979)">
		<stop  offset="0" style="stop-color:#B45255"/>
		<stop  offset="0.15" style="stop-color:#EC7D80"/>
		<stop  offset="0.25" style="stop-color:#F4C1C2"/>
		<stop  offset="0.44" style="stop-color:#CE5E62"/>
		<stop  offset="0.6" style="stop-color:#B75356"/>
		<stop  offset="0.8" style="stop-color:#9A4548"/>
		<stop  offset="0.97" style="stop-color:#8D3F41"/>
		<stop  offset="1" style="stop-color:#BB5559"/>
	</linearGradient>
	<path fill="url(#SVGID_53_)" d="M171.098,152.832c0-1.5,1.41-3.023,3.184-3.023c2.066,0.023,3.211,1.434,3.211,3.207
		c0.355,2.066-1.438,3.207-3.211,3.207c-1.684,0.359-3.211-1.438-3.211-3.207L171.098,152.832z"/>
	
		<linearGradient id="SVGID_54_" gradientUnits="userSpaceOnUse" x1="20.856" y1="214.1729" x2="17.0791" y2="203.7962" gradientTransform="matrix(0.75 0 0 -0.75 98.3843 322.0127)">
		<stop  offset="0" style="stop-color:#2D2929"/>
		<stop  offset="0.15" style="stop-color:#5B5858"/>
		<stop  offset="0.25" style="stop-color:#B8B7B7"/>
		<stop  offset="0.44" style="stop-color:#353130"/>
		<stop  offset="0.6" style="stop-color:#2E2A29"/>
		<stop  offset="0.8" style="stop-color:#252221"/>
		<stop  offset="0.97" style="stop-color:#211E1E"/>
		<stop  offset="1" style="stop-color:#2F2B2B"/>
	</linearGradient>
	<path fill="url(#SVGID_54_)" d="M109.344,165.047c0-1.5,1.414-3.023,3.188-3.023c2.063,0.023,3.211,1.434,3.211,3.207
		c0.352,2.066-1.438,3.207-3.211,3.207c-1.688,0.359-3.211-1.438-3.211-3.207L109.344,165.047z"/>
	
		<linearGradient id="SVGID_55_" gradientUnits="userSpaceOnUse" x1="20.855" y1="214.1738" x2="17.0778" y2="203.796" gradientTransform="matrix(0.75 0 0 -0.75 123.085 322.0127)">
		<stop  offset="0" style="stop-color:#B45255"/>
		<stop  offset="0.15" style="stop-color:#EC7D80"/>
		<stop  offset="0.25" style="stop-color:#F4C1C2"/>
		<stop  offset="0.44" style="stop-color:#CE5E62"/>
		<stop  offset="0.6" style="stop-color:#B75356"/>
		<stop  offset="0.8" style="stop-color:#9A4548"/>
		<stop  offset="0.97" style="stop-color:#8D3F41"/>
		<stop  offset="1" style="stop-color:#BB5559"/>
	</linearGradient>
	<path fill="url(#SVGID_55_)" d="M134.043,165.047c0-1.5,1.414-3.023,3.188-3.023c2.063,0.023,3.211,1.434,3.211,3.207
		c0.352,2.066-1.438,3.207-3.211,3.207c-1.688,0.359-3.211-1.438-3.211-3.207L134.043,165.047z"/>
	
		<linearGradient id="SVGID_56_" gradientUnits="userSpaceOnUse" x1="20.8564" y1="214.1738" x2="17.0792" y2="203.796" gradientTransform="matrix(0.75 0 0 -0.75 135.4351 322.0127)">
		<stop  offset="0" style="stop-color:#B45255"/>
		<stop  offset="0.15" style="stop-color:#EC7D80"/>
		<stop  offset="0.25" style="stop-color:#F4C1C2"/>
		<stop  offset="0.44" style="stop-color:#CE5E62"/>
		<stop  offset="0.6" style="stop-color:#B75356"/>
		<stop  offset="0.8" style="stop-color:#9A4548"/>
		<stop  offset="0.97" style="stop-color:#8D3F41"/>
		<stop  offset="1" style="stop-color:#BB5559"/>
	</linearGradient>
	<path fill="url(#SVGID_56_)" d="M146.395,165.047c0-1.5,1.414-3.023,3.188-3.023c2.063,0.023,3.211,1.434,3.211,3.207
		c0.352,2.066-1.438,3.207-3.211,3.207c-1.688,0.359-3.211-1.438-3.211-3.207L146.395,165.047z"/>
	
		<linearGradient id="SVGID_57_" gradientUnits="userSpaceOnUse" x1="20.856" y1="214.1738" x2="17.0787" y2="203.796" gradientTransform="matrix(0.75 0 0 -0.75 147.7852 322.0127)">
		<stop  offset="0" style="stop-color:#B45255"/>
		<stop  offset="0.15" style="stop-color:#EC7D80"/>
		<stop  offset="0.25" style="stop-color:#F4C1C2"/>
		<stop  offset="0.44" style="stop-color:#CE5E62"/>
		<stop  offset="0.6" style="stop-color:#B75356"/>
		<stop  offset="0.8" style="stop-color:#9A4548"/>
		<stop  offset="0.97" style="stop-color:#8D3F41"/>
		<stop  offset="1" style="stop-color:#BB5559"/>
	</linearGradient>
	<path fill="url(#SVGID_57_)" d="M158.746,165.047c0-1.5,1.41-3.023,3.184-3.023c2.066,0.023,3.211,1.434,3.211,3.207
		c0.355,2.066-1.438,3.207-3.211,3.207c-1.684,0.359-3.211-1.438-3.211-3.207L158.746,165.047z"/>
	
		<linearGradient id="SVGID_58_" gradientUnits="userSpaceOnUse" x1="20.8574" y1="214.1729" x2="17.0802" y2="203.795" gradientTransform="matrix(0.75 0 0 -0.75 160.1357 322.0127)">
		<stop  offset="0" style="stop-color:#B45255"/>
		<stop  offset="0.15" style="stop-color:#EC7D80"/>
		<stop  offset="0.25" style="stop-color:#F4C1C2"/>
		<stop  offset="0.44" style="stop-color:#CE5E62"/>
		<stop  offset="0.6" style="stop-color:#B75356"/>
		<stop  offset="0.8" style="stop-color:#9A4548"/>
		<stop  offset="0.97" style="stop-color:#8D3F41"/>
		<stop  offset="1" style="stop-color:#BB5559"/>
	</linearGradient>
	<path fill="url(#SVGID_58_)" d="M171.098,165.047c0-1.5,1.41-3.023,3.184-3.023c2.066,0.023,3.211,1.434,3.211,3.207
		c0.355,2.066-1.438,3.207-3.211,3.207c-1.684,0.359-3.211-1.438-3.211-3.207L171.098,165.047z"/>
	<path fill="#FFFFFF" fill-opacity="0.2196" d="M145.961-15.328h55.5c0.75,0,0.871,0.215,0.871,0.477l-0.121,29.523
		c0,0-0.141,0.566-0.465,0.566l-55.785,0.184c-0.75,0-0.75-0.398-0.75-0.66v-29.34c0-0.75,0.262-0.75,0.582-0.75H145.961z"/>
	<path fill="#FFFFFF" fill-opacity="0.2196" d="M145.211,34.832h33c0,0,0.027,0.031,0.027,0.074l-0.027,4.426
		c0,0-0.125,0.207-0.313,0.207l-32.688-0.207c0,0,0,0.176,0,0.133V34.832c0,0,0.152,0,0.336,0H145.211z"/>
	<path fill="#FFFFFF" fill-opacity="0.2196" d="M145.211,22.703h18c0,0,0.109,0.051,0.109,0.109l-0.109,6.641
		c0,0,0.027,0.113-0.074,0.113l-17.926-0.113c0,0,0,0.063,0,0.004V22.703c0,0,0.082,0,0.184,0H145.211z"/>
</g>
</svg>
