<?xml version="1.0" encoding="utf-8"?>
<!-- Generator: Adobe Illustrator 16.0.0, SVG Export Plug-In . SVG Version: 6.00 Build 0)  -->
<!DOCTYPE svg PUBLIC "-//W3C//DTD SVG 1.1//EN" "http://www.w3.org/Graphics/SVG/1.1/DTD/svg11.dtd">
<svg preserveAspectRatio="none" version="1.1" id="图层_1" xmlns="http://www.w3.org/2000/svg" xmlns:xlink="http://www.w3.org/1999/xlink" x="0px" y="0px"
	 width="340.438px" height="699.379px" viewBox="30 29.516 340.438 699.379" enable-background="new 30 29.516 340.438 699.379"
	 xml:space="preserve">
<g id="surface1101">
	
		<linearGradient id="SVGID_1_" gradientUnits="userSpaceOnUse" x1="341.6133" y1="509.2217" x2="14.6133" y2="509.2216" gradientTransform="matrix(0.75 0 0 0.75 67.2544 -321.4683)">
		<stop  offset="0" style="stop-color:#C7AD86"/>
		<stop  offset="0.15" style="stop-color:#FFE6C5"/>
		<stop  offset="0.25" style="stop-color:#FFE8C9"/>
		<stop  offset="0.52" style="stop-color:#DFC297"/>
		<stop  offset="0.69" style="stop-color:#C7AD86"/>
		<stop  offset="0.8" style="stop-color:#BCA37E"/>
		<stop  offset="0.92" style="stop-color:#B19A77"/>
	</linearGradient>
	<path fill="url(#SVGID_1_)" d="M323.465,91.379c0,0-2.336-61.863-123.219-61.863C79.715,29.879,78.215,91.379,78.215,91.379
		H323.465z"/>
	
		<linearGradient id="SVGID_2_" gradientUnits="userSpaceOnUse" x1="341.6133" y1="726.7979" x2="14.6133" y2="726.7979" gradientTransform="matrix(0.75 0 0 -0.75 67.2544 1151.1621)">
		<stop  offset="0" style="stop-color:#C7AD86"/>
		<stop  offset="0.15" style="stop-color:#FFE6C5"/>
		<stop  offset="0.25" style="stop-color:#FFE8C9"/>
		<stop  offset="0.52" style="stop-color:#DFC297"/>
		<stop  offset="0.69" style="stop-color:#C7AD86"/>
		<stop  offset="0.8" style="stop-color:#BCA37E"/>
		<stop  offset="0.92" style="stop-color:#B19A77"/>
	</linearGradient>
	<path fill="url(#SVGID_2_)" d="M323.465,575.133c0,0-2.336,61.863-123.219,61.863c-120.531-0.363-122.031-61.863-122.031-61.863
		H323.465z"/>
	
		<linearGradient id="SVGID_3_" gradientUnits="userSpaceOnUse" x1="341.6143" y1="446.0381" x2="14.6143" y2="446.0381" gradientTransform="matrix(0.75 0 0 -0.75 67.2222 667.6836)">
		<stop  offset="0" style="stop-color:#C7AD86"/>
		<stop  offset="0.15" style="stop-color:#FFE6C5"/>
		<stop  offset="0.25" style="stop-color:#FFE8C9"/>
		<stop  offset="0.52" style="stop-color:#DFC297"/>
		<stop  offset="0.69" style="stop-color:#C7AD86"/>
		<stop  offset="0.8" style="stop-color:#BCA37E"/>
		<stop  offset="0.92" style="stop-color:#B19A77"/>
	</linearGradient>
	<path fill="url(#SVGID_3_)" d="M78.184,91.656h245.25v483H78.184V91.656z"/>
	
		<linearGradient id="SVGID_4_" gradientUnits="userSpaceOnUse" x1="341.6104" y1="766.0361" x2="14.6099" y2="766.0361" gradientTransform="matrix(0.75 0 0 -0.75 67.1084 1149.6934)">
		<stop  offset="0" style="stop-color:#B69F75"/>
		<stop  offset="0.15" style="stop-color:#EFDAB8"/>
		<stop  offset="0.25" style="stop-color:#F0DDBE"/>
		<stop  offset="0.52" style="stop-color:#CDB384"/>
		<stop  offset="0.69" style="stop-color:#B69F75"/>
		<stop  offset="0.8" style="stop-color:#AC966E"/>
		<stop  offset="0.92" style="stop-color:#A28E68"/>
	</linearGradient>
	<path fill="url(#SVGID_4_)" d="M78.066,573.668h245.25v3H78.066V573.668z"/>
	
		<linearGradient id="SVGID_5_" gradientUnits="userSpaceOnUse" x1="341.6143" y1="747.5361" x2="14.6143" y2="747.5361" gradientTransform="matrix(0.75 0 0 -0.75 67.144 667.3623)">
		<stop  offset="0" style="stop-color:#B69F75"/>
		<stop  offset="0.15" style="stop-color:#EFDAB8"/>
		<stop  offset="0.25" style="stop-color:#F0DDBE"/>
		<stop  offset="0.52" style="stop-color:#CDB384"/>
		<stop  offset="0.69" style="stop-color:#B69F75"/>
		<stop  offset="0.8" style="stop-color:#AC966E"/>
		<stop  offset="0.92" style="stop-color:#A28E68"/>
	</linearGradient>
	<path fill="url(#SVGID_5_)" d="M78.105,91.336h245.25v30.75H78.105V91.336z"/>
	
		<linearGradient id="SVGID_6_" gradientUnits="userSpaceOnUse" x1="360.7461" y1="761.1006" x2="14.6104" y2="761.1006" gradientTransform="matrix(0.75 0 0 -0.75 59.9634 671.3418)">
		<stop  offset="0" style="stop-color:#C7AD86"/>
		<stop  offset="0.15" style="stop-color:#FFE6C5"/>
		<stop  offset="0.25" style="stop-color:#FFE8C9"/>
		<stop  offset="0.52" style="stop-color:#DFC297"/>
		<stop  offset="0.69" style="stop-color:#C7AD86"/>
		<stop  offset="0.8" style="stop-color:#BCA37E"/>
		<stop  offset="0.92" style="stop-color:#B19A77"/>
	</linearGradient>
	<path fill="url(#SVGID_6_)" d="M74.672,95.313h252c2.25,0,3.852,1.926,3.852,4.445l-0.102,1.555c0,2.25-1.805,4.527-4.035,4.527
		l-251.715-0.027c-2.25,0-3.75-2.016-3.75-4.535v-1.465c0-2.25,1.77-4.617,4.004-4.617L74.672,95.313z"/>
	
		<linearGradient id="SVGID_7_" gradientUnits="userSpaceOnUse" x1="360.7461" y1="761.0996" x2="14.6104" y2="761.0996" gradientTransform="matrix(0.75 0 0 -0.75 59.9634 683.9766)">
		<stop  offset="0" style="stop-color:#C7AD86"/>
		<stop  offset="0.15" style="stop-color:#FFE6C5"/>
		<stop  offset="0.25" style="stop-color:#FFE8C9"/>
		<stop  offset="0.52" style="stop-color:#DFC297"/>
		<stop  offset="0.69" style="stop-color:#C7AD86"/>
		<stop  offset="0.8" style="stop-color:#BCA37E"/>
		<stop  offset="0.92" style="stop-color:#B19A77"/>
	</linearGradient>
	<path fill="url(#SVGID_7_)" d="M74.672,107.949h252c2.25,0,3.852,1.922,3.852,4.441l-0.102,1.559c0,2.25-1.805,4.523-4.035,4.523
		l-251.715-0.023c-2.25,0-3.75-2.016-3.75-4.535v-1.465c0-2.25,1.77-4.617,4.004-4.617L74.672,107.949z"/>
	
		<linearGradient id="SVGID_8_" gradientUnits="userSpaceOnUse" x1="29.6147" y1="762.0381" x2="14.6147" y2="762.0381" gradientTransform="matrix(0.75 0 0 -0.75 63.7026 662.4883)">
		<stop  offset="0" style="stop-color:#C7AD86"/>
		<stop  offset="0.15" style="stop-color:#FFE6C5"/>
		<stop  offset="0.25" style="stop-color:#FFE8C9"/>
		<stop  offset="0.52" style="stop-color:#DFC297"/>
		<stop  offset="0.69" style="stop-color:#C7AD86"/>
		<stop  offset="0.8" style="stop-color:#BCA37E"/>
		<stop  offset="0.92" style="stop-color:#B19A77"/>
	</linearGradient>
	<path fill="url(#SVGID_8_)" d="M74.664,95.461h11.25v-9h-11.25V95.461z"/>
	
		<linearGradient id="SVGID_9_" gradientUnits="userSpaceOnUse" x1="29.6147" y1="762.0361" x2="14.6147" y2="762.0361" gradientTransform="matrix(0.75 0 0 -0.75 63.7026 693.9863)">
		<stop  offset="0" style="stop-color:#C7AD86"/>
		<stop  offset="0.15" style="stop-color:#FFE6C5"/>
		<stop  offset="0.25" style="stop-color:#FFE8C9"/>
		<stop  offset="0.52" style="stop-color:#DFC297"/>
		<stop  offset="0.69" style="stop-color:#C7AD86"/>
		<stop  offset="0.8" style="stop-color:#BCA37E"/>
		<stop  offset="0.92" style="stop-color:#B19A77"/>
	</linearGradient>
	<path fill="url(#SVGID_9_)" d="M74.664,126.961h11.25v-9h-11.25V126.961z"/>
	
		<linearGradient id="SVGID_10_" gradientUnits="userSpaceOnUse" x1="29.6152" y1="762.0381" x2="14.6152" y2="762.0381" gradientTransform="matrix(0.75 0 0 -0.75 103.9131 662.4883)">
		<stop  offset="0" style="stop-color:#C7AD86"/>
		<stop  offset="0.15" style="stop-color:#FFE6C5"/>
		<stop  offset="0.25" style="stop-color:#FFE8C9"/>
		<stop  offset="0.52" style="stop-color:#DFC297"/>
		<stop  offset="0.69" style="stop-color:#C7AD86"/>
		<stop  offset="0.8" style="stop-color:#BCA37E"/>
		<stop  offset="0.92" style="stop-color:#B19A77"/>
	</linearGradient>
	<path fill="url(#SVGID_10_)" d="M114.875,95.461h11.25v-9h-11.25V95.461z"/>
	
		<linearGradient id="SVGID_11_" gradientUnits="userSpaceOnUse" x1="29.6152" y1="762.0361" x2="14.6152" y2="762.0361" gradientTransform="matrix(0.75 0 0 -0.75 103.9131 693.9863)">
		<stop  offset="0" style="stop-color:#C7AD86"/>
		<stop  offset="0.15" style="stop-color:#FFE6C5"/>
		<stop  offset="0.25" style="stop-color:#FFE8C9"/>
		<stop  offset="0.52" style="stop-color:#DFC297"/>
		<stop  offset="0.69" style="stop-color:#C7AD86"/>
		<stop  offset="0.8" style="stop-color:#BCA37E"/>
		<stop  offset="0.92" style="stop-color:#B19A77"/>
	</linearGradient>
	<path fill="url(#SVGID_11_)" d="M114.875,126.961h11.25v-9h-11.25V126.961z"/>
	
		<linearGradient id="SVGID_12_" gradientUnits="userSpaceOnUse" x1="29.6104" y1="762.0381" x2="14.6104" y2="762.0381" gradientTransform="matrix(0.75 0 0 -0.75 144.1235 662.4883)">
		<stop  offset="0" style="stop-color:#C7AD86"/>
		<stop  offset="0.15" style="stop-color:#FFE6C5"/>
		<stop  offset="0.25" style="stop-color:#FFE8C9"/>
		<stop  offset="0.52" style="stop-color:#DFC297"/>
		<stop  offset="0.69" style="stop-color:#C7AD86"/>
		<stop  offset="0.8" style="stop-color:#BCA37E"/>
		<stop  offset="0.92" style="stop-color:#B19A77"/>
	</linearGradient>
	<path fill="url(#SVGID_12_)" d="M155.082,95.461h11.25v-9h-11.25V95.461z"/>
	
		<linearGradient id="SVGID_13_" gradientUnits="userSpaceOnUse" x1="29.6104" y1="762.0361" x2="14.6104" y2="762.0361" gradientTransform="matrix(0.75 0 0 -0.75 144.1235 693.9863)">
		<stop  offset="0" style="stop-color:#C7AD86"/>
		<stop  offset="0.15" style="stop-color:#FFE6C5"/>
		<stop  offset="0.25" style="stop-color:#FFE8C9"/>
		<stop  offset="0.52" style="stop-color:#DFC297"/>
		<stop  offset="0.69" style="stop-color:#C7AD86"/>
		<stop  offset="0.8" style="stop-color:#BCA37E"/>
		<stop  offset="0.92" style="stop-color:#B19A77"/>
	</linearGradient>
	<path fill="url(#SVGID_13_)" d="M155.082,126.961h11.25v-9h-11.25V126.961z"/>
	
		<linearGradient id="SVGID_14_" gradientUnits="userSpaceOnUse" x1="29.6108" y1="762.0381" x2="14.6108" y2="762.0381" gradientTransform="matrix(0.75 0 0 -0.75 184.334 662.4883)">
		<stop  offset="0" style="stop-color:#C7AD86"/>
		<stop  offset="0.15" style="stop-color:#FFE6C5"/>
		<stop  offset="0.25" style="stop-color:#FFE8C9"/>
		<stop  offset="0.52" style="stop-color:#DFC297"/>
		<stop  offset="0.69" style="stop-color:#C7AD86"/>
		<stop  offset="0.8" style="stop-color:#BCA37E"/>
		<stop  offset="0.92" style="stop-color:#B19A77"/>
	</linearGradient>
	<path fill="url(#SVGID_14_)" d="M195.293,95.461h11.25v-9h-11.25V95.461z"/>
	
		<linearGradient id="SVGID_15_" gradientUnits="userSpaceOnUse" x1="29.6108" y1="762.0361" x2="14.6108" y2="762.0361" gradientTransform="matrix(0.75 0 0 -0.75 184.334 693.9863)">
		<stop  offset="0" style="stop-color:#C7AD86"/>
		<stop  offset="0.15" style="stop-color:#FFE6C5"/>
		<stop  offset="0.25" style="stop-color:#FFE8C9"/>
		<stop  offset="0.52" style="stop-color:#DFC297"/>
		<stop  offset="0.69" style="stop-color:#C7AD86"/>
		<stop  offset="0.8" style="stop-color:#BCA37E"/>
		<stop  offset="0.92" style="stop-color:#B19A77"/>
	</linearGradient>
	<path fill="url(#SVGID_15_)" d="M195.293,126.961h11.25v-9h-11.25V126.961z"/>
	
		<linearGradient id="SVGID_16_" gradientUnits="userSpaceOnUse" x1="29.6123" y1="762.0381" x2="14.6123" y2="762.0381" gradientTransform="matrix(0.75 0 0 -0.75 224.5444 662.4883)">
		<stop  offset="0" style="stop-color:#C7AD86"/>
		<stop  offset="0.15" style="stop-color:#FFE6C5"/>
		<stop  offset="0.25" style="stop-color:#FFE8C9"/>
		<stop  offset="0.52" style="stop-color:#DFC297"/>
		<stop  offset="0.69" style="stop-color:#C7AD86"/>
		<stop  offset="0.8" style="stop-color:#BCA37E"/>
		<stop  offset="0.92" style="stop-color:#B19A77"/>
	</linearGradient>
	<path fill="url(#SVGID_16_)" d="M235.504,95.461h11.25v-9h-11.25V95.461z"/>
	
		<linearGradient id="SVGID_17_" gradientUnits="userSpaceOnUse" x1="29.6123" y1="762.0361" x2="14.6123" y2="762.0361" gradientTransform="matrix(0.75 0 0 -0.75 224.5444 693.9863)">
		<stop  offset="0" style="stop-color:#C7AD86"/>
		<stop  offset="0.15" style="stop-color:#FFE6C5"/>
		<stop  offset="0.25" style="stop-color:#FFE8C9"/>
		<stop  offset="0.52" style="stop-color:#DFC297"/>
		<stop  offset="0.69" style="stop-color:#C7AD86"/>
		<stop  offset="0.8" style="stop-color:#BCA37E"/>
		<stop  offset="0.92" style="stop-color:#B19A77"/>
	</linearGradient>
	<path fill="url(#SVGID_17_)" d="M235.504,126.961h11.25v-9h-11.25V126.961z"/>
	
		<linearGradient id="SVGID_18_" gradientUnits="userSpaceOnUse" x1="29.6118" y1="762.0381" x2="14.6118" y2="762.0381" gradientTransform="matrix(0.75 0 0 -0.75 264.7554 662.4883)">
		<stop  offset="0" style="stop-color:#C7AD86"/>
		<stop  offset="0.15" style="stop-color:#FFE6C5"/>
		<stop  offset="0.25" style="stop-color:#FFE8C9"/>
		<stop  offset="0.52" style="stop-color:#DFC297"/>
		<stop  offset="0.69" style="stop-color:#C7AD86"/>
		<stop  offset="0.8" style="stop-color:#BCA37E"/>
		<stop  offset="0.92" style="stop-color:#B19A77"/>
	</linearGradient>
	<path fill="url(#SVGID_18_)" d="M275.715,95.461h11.25v-9h-11.25V95.461z"/>
	
		<linearGradient id="SVGID_19_" gradientUnits="userSpaceOnUse" x1="29.6118" y1="762.0361" x2="14.6118" y2="762.0361" gradientTransform="matrix(0.75 0 0 -0.75 264.7554 693.9863)">
		<stop  offset="0" style="stop-color:#C7AD86"/>
		<stop  offset="0.15" style="stop-color:#FFE6C5"/>
		<stop  offset="0.25" style="stop-color:#FFE8C9"/>
		<stop  offset="0.52" style="stop-color:#DFC297"/>
		<stop  offset="0.69" style="stop-color:#C7AD86"/>
		<stop  offset="0.8" style="stop-color:#BCA37E"/>
		<stop  offset="0.92" style="stop-color:#B19A77"/>
	</linearGradient>
	<path fill="url(#SVGID_19_)" d="M275.715,126.961h11.25v-9h-11.25V126.961z"/>
	
		<linearGradient id="SVGID_20_" gradientUnits="userSpaceOnUse" x1="29.6123" y1="762.0381" x2="14.6123" y2="762.0381" gradientTransform="matrix(0.75 0 0 -0.75 304.9658 662.4883)">
		<stop  offset="0" style="stop-color:#C7AD86"/>
		<stop  offset="0.15" style="stop-color:#FFE6C5"/>
		<stop  offset="0.25" style="stop-color:#FFE8C9"/>
		<stop  offset="0.52" style="stop-color:#DFC297"/>
		<stop  offset="0.69" style="stop-color:#C7AD86"/>
		<stop  offset="0.8" style="stop-color:#BCA37E"/>
		<stop  offset="0.92" style="stop-color:#B19A77"/>
	</linearGradient>
	<path fill="url(#SVGID_20_)" d="M315.926,95.461h11.25v-9h-11.25V95.461z"/>
	
		<linearGradient id="SVGID_21_" gradientUnits="userSpaceOnUse" x1="29.6123" y1="762.0361" x2="14.6123" y2="762.0361" gradientTransform="matrix(0.75 0 0 -0.75 304.9658 693.9863)">
		<stop  offset="0" style="stop-color:#C7AD86"/>
		<stop  offset="0.15" style="stop-color:#FFE6C5"/>
		<stop  offset="0.25" style="stop-color:#FFE8C9"/>
		<stop  offset="0.52" style="stop-color:#DFC297"/>
		<stop  offset="0.69" style="stop-color:#C7AD86"/>
		<stop  offset="0.8" style="stop-color:#BCA37E"/>
		<stop  offset="0.92" style="stop-color:#B19A77"/>
	</linearGradient>
	<path fill="url(#SVGID_21_)" d="M315.926,126.961h11.25v-9h-11.25V126.961z"/>
	
		<linearGradient id="SVGID_22_" gradientUnits="userSpaceOnUse" x1="42.4819" y1="768.0391" x2="42.4819" y2="709.0391" gradientTransform="matrix(0.75 0 0 -0.75 31.6807 850.5801)">
		<stop  offset="0" style="stop-color:#C7AD86"/>
		<stop  offset="0.15" style="stop-color:#FFE6C5"/>
		<stop  offset="0.25" style="stop-color:#FFE8C9"/>
		<stop  offset="0.52" style="stop-color:#DFC297"/>
		<stop  offset="0.69" style="stop-color:#C7AD86"/>
		<stop  offset="0.8" style="stop-color:#BCA37E"/>
		<stop  offset="0.92" style="stop-color:#B19A77"/>
	</linearGradient>
	<path fill="url(#SVGID_22_)" d="M79.391,274.551h-36.75v44.25h36.75c0,0,5.047-1.684,5.047-21.953
		c0.203-20.047-5.141-22.297-5.141-22.297H79.391z"/>
	
		<linearGradient id="SVGID_23_" gradientUnits="userSpaceOnUse" x1="23.1128" y1="768.0391" x2="23.1128" y2="637.9824" gradientTransform="matrix(0.75 0 0 -0.75 19.04 823.9785)">
		<stop  offset="0" style="stop-color:#C7AD86"/>
		<stop  offset="0.15" style="stop-color:#FFE6C5"/>
		<stop  offset="0.25" style="stop-color:#FFE8C9"/>
		<stop  offset="0.52" style="stop-color:#DFC297"/>
		<stop  offset="0.69" style="stop-color:#C7AD86"/>
		<stop  offset="0.8" style="stop-color:#BCA37E"/>
		<stop  offset="0.92" style="stop-color:#B19A77"/>
	</linearGradient>
	<path fill="url(#SVGID_23_)" d="M33.75,247.949h4.5c2.25,0,4.391,1.816,4.391,4.055l0.109,89.695c0,2.25-1.922,3.793-4.156,3.793
		l-4.844-0.043c-2.25,0-3.75-1.773-3.75-4.012v-89.738c0-2.25,1.813-3.75,4.047-3.75H33.75z"/>
	
		<linearGradient id="SVGID_24_" gradientUnits="userSpaceOnUse" x1="-546.7427" y1="768.0391" x2="-546.7427" y2="709.0391" gradientTransform="matrix(-0.75 0 0 -0.75 -73.1621 1063.3525)">
		<stop  offset="0" style="stop-color:#C7AD86"/>
		<stop  offset="0.15" style="stop-color:#FFE6C5"/>
		<stop  offset="0.25" style="stop-color:#FFE8C9"/>
		<stop  offset="0.52" style="stop-color:#DFC297"/>
		<stop  offset="0.69" style="stop-color:#C7AD86"/>
		<stop  offset="0.8" style="stop-color:#BCA37E"/>
		<stop  offset="0.92" style="stop-color:#B19A77"/>
	</linearGradient>
	<path fill="url(#SVGID_24_)" d="M321.047,487.324h36.75v44.25h-36.75c0,0-5.047-1.688-5.047-21.953
		c-0.203-20.047,5.141-22.297,5.141-22.297H321.047z"/>
	
		<linearGradient id="SVGID_25_" gradientUnits="userSpaceOnUse" x1="-566.1118" y1="768.0371" x2="-566.1118" y2="637.9844" gradientTransform="matrix(-0.75 0 0 -0.75 -60.5225 1036.75)">
		<stop  offset="0" style="stop-color:#C7AD86"/>
		<stop  offset="0.15" style="stop-color:#FFE6C5"/>
		<stop  offset="0.25" style="stop-color:#FFE8C9"/>
		<stop  offset="0.52" style="stop-color:#DFC297"/>
		<stop  offset="0.69" style="stop-color:#C7AD86"/>
		<stop  offset="0.8" style="stop-color:#BCA37E"/>
		<stop  offset="0.92" style="stop-color:#B19A77"/>
	</linearGradient>
	<path fill="url(#SVGID_25_)" d="M366.688,460.723h-4.5c-2.25,0-4.391,1.816-4.391,4.055l-0.109,89.695
		c0,2.25,1.922,3.789,4.156,3.789l4.844-0.039c2.25,0,3.75-1.773,3.75-4.012v-89.738c0-2.25-1.813-3.75-4.047-3.75H366.688z"/>
	
		<linearGradient id="SVGID_26_" gradientUnits="userSpaceOnUse" x1="48.6147" y1="662.04" x2="14.6147" y2="662.04" gradientTransform="matrix(0.75 0 0 -0.75 67.0732 1136.8643)">
		<stop  offset="0" style="stop-color:#B59D79"/>
		<stop  offset="0.01" style="stop-color:#FFE5C1"/>
		<stop  offset="0.03" style="stop-color:#EBCC9F"/>
		<stop  offset="0.64" style="stop-color:#E7C99C"/>
		<stop  offset="0.99" style="stop-color:#E2C499"/>
		<stop  offset="1" style="stop-color:#A89170"/>
	</linearGradient>
	<path fill="url(#SVGID_26_)" d="M78.035,560.836h25.5v159h-25.5V560.836z"/>
	
		<linearGradient id="SVGID_27_" gradientUnits="userSpaceOnUse" x1="74.0928" y1="761.4219" x2="14.54" y2="761.4219" gradientTransform="matrix(0.75 0 0 -0.75 57.356 1294.8936)">
		<stop  offset="0" style="stop-color:#C7AD86"/>
		<stop  offset="0.15" style="stop-color:#FFE6C5"/>
		<stop  offset="0.25" style="stop-color:#FFE8C9"/>
		<stop  offset="0.52" style="stop-color:#DFC297"/>
		<stop  offset="0.69" style="stop-color:#C7AD86"/>
		<stop  offset="0.8" style="stop-color:#BCA37E"/>
		<stop  offset="0.92" style="stop-color:#B19A77"/>
	</linearGradient>
	<path fill="url(#SVGID_27_)" d="M72.066,718.867h36.75c2.25,0,4.109,1.707,4.109,3.945l-0.359,2.055
		c0,2.25-1.453,4.027-3.684,4.027l-36.816-0.277c-2.25,0-3.805-1.539-3.805-3.777l0.055-2.223c0-2.25,1.758-3.855,3.992-3.855
		L72.066,718.867z"/>
	
		<linearGradient id="SVGID_28_" gradientUnits="userSpaceOnUse" x1="48.6133" y1="662.04" x2="14.6133" y2="662.04" gradientTransform="matrix(0.75 0 0 -0.75 287.2695 1136.8652)">
		<stop  offset="0" style="stop-color:#B59D79"/>
		<stop  offset="0.01" style="stop-color:#FFE5C1"/>
		<stop  offset="0.03" style="stop-color:#EBCC9F"/>
		<stop  offset="0.64" style="stop-color:#E7C99C"/>
		<stop  offset="0.99" style="stop-color:#E2C499"/>
		<stop  offset="1" style="stop-color:#A89170"/>
	</linearGradient>
	<path fill="url(#SVGID_28_)" d="M298.23,560.836h25.5v159h-25.5V560.836z"/>
	
		<linearGradient id="SVGID_29_" gradientUnits="userSpaceOnUse" x1="74.0918" y1="761.4219" x2="14.5449" y2="761.4219" gradientTransform="matrix(0.75 0 0 -0.75 277.5518 1294.8936)">
		<stop  offset="0" style="stop-color:#C7AD86"/>
		<stop  offset="0.15" style="stop-color:#FFE6C5"/>
		<stop  offset="0.25" style="stop-color:#FFE8C9"/>
		<stop  offset="0.52" style="stop-color:#DFC297"/>
		<stop  offset="0.69" style="stop-color:#C7AD86"/>
		<stop  offset="0.8" style="stop-color:#BCA37E"/>
		<stop  offset="0.92" style="stop-color:#B19A77"/>
	</linearGradient>
	<path fill="url(#SVGID_29_)" d="M292.262,718.867h36.75c2.25,0,4.109,1.707,4.109,3.945l-0.359,2.055
		c0,2.25-1.449,4.027-3.684,4.027l-36.816-0.277c-2.25,0-3.801-1.539-3.801-3.777l0.051-2.223c0-2.25,1.758-3.855,3.992-3.855
		L292.262,718.867z"/>
	
		<linearGradient id="SVGID_30_" gradientUnits="userSpaceOnUse" x1="341.6113" y1="766.0371" x2="14.6113" y2="766.0371" gradientTransform="matrix(0.75 0 0 -0.75 67.1074 1120.9805)">
		<stop  offset="0" style="stop-color:#B69F75"/>
		<stop  offset="0.15" style="stop-color:#EFDAB8"/>
		<stop  offset="0.25" style="stop-color:#F0DDBE"/>
		<stop  offset="0.52" style="stop-color:#CDB384"/>
		<stop  offset="0.69" style="stop-color:#B69F75"/>
		<stop  offset="0.8" style="stop-color:#AC966E"/>
		<stop  offset="0.92" style="stop-color:#A28E68"/>
	</linearGradient>
	<path fill="url(#SVGID_30_)" d="M78.066,544.953h245.25v3H78.066V544.953z"/>
	
		<linearGradient id="SVGID_31_" gradientUnits="userSpaceOnUse" x1="34.0566" y1="770.7754" x2="22.2168" y2="738.2458" gradientTransform="matrix(0.75 0 0 -0.75 179.6235 1098.8633)">
		<stop  offset="0" style="stop-color:#C7AD86"/>
		<stop  offset="0.15" style="stop-color:#FFE6C5"/>
		<stop  offset="0.25" style="stop-color:#FFE8C9"/>
		<stop  offset="0.52" style="stop-color:#DFC297"/>
		<stop  offset="0.69" style="stop-color:#C7AD86"/>
		<stop  offset="0.8" style="stop-color:#BCA37E"/>
		<stop  offset="0.92" style="stop-color:#B19A77"/>
	</linearGradient>
	<path fill="url(#SVGID_31_)" d="M190.582,533.336c0-6,4.527-10.5,10.113-10.5c5.637,0,10.113,4.535,10.113,10.133
		c0.023,5.617-4.527,10.137-10.113,10.137c-5.613-0.02-10.113-4.539-10.113-10.137V533.336z"/>
</g>
</svg>
