<?xml version="1.0" encoding="utf-8"?>
<!-- Generator: Adobe Illustrator 16.0.0, SVG Export Plug-In . SVG Version: 6.00 Build 0)  -->
<!DOCTYPE svg PUBLIC "-//W3C//DTD SVG 1.1//EN" "http://www.w3.org/Graphics/SVG/1.1/DTD/svg11.dtd">
<svg preserveAspectRatio="none" version="1.1" id="图层_1" xmlns="http://www.w3.org/2000/svg" xmlns:xlink="http://www.w3.org/1999/xlink" x="0px" y="0px"
	 width="299.41px" height="177.195px" viewBox="30 33.879 299.41 177.195" enable-background="new 30 33.879 299.41 177.195"
	 xml:space="preserve">
<g id="surface481">
	
		<linearGradient id="SVGID_1_" gradientUnits="userSpaceOnUse" x1="420.4883" y1="81.73" x2="21.4883" y2="81.7299" gradientTransform="matrix(0.75 0 0 -0.75 14.0435 207.8252)">
		<stop  offset="0" style="stop-color:#C4AA84"/>
		<stop  offset="0.15" style="stop-color:#FFE0B3"/>
		<stop  offset="0.25" style="stop-color:#FFEED7"/>
		<stop  offset="0.52" style="stop-color:#DFC297"/>
		<stop  offset="0.69" style="stop-color:#C7AD86"/>
		<stop  offset="0.8" style="stop-color:#BCA37E"/>
		<stop  offset="0.97" style="stop-color:#B19A77"/>
		<stop  offset="1" style="stop-color:#CBB189"/>
	</linearGradient>
	<path fill="url(#SVGID_1_)" d="M33.16,81.984h292.5c2.25,0,3.43,1.465,3.43,3.359l0.32,121.891c0,2.25-1.848,3.84-3.73,3.84
		l-292.52-0.09c-1.5,0-3-1.48-3-3.375V84.984c0-1.5,1.492-3,3.375-3H33.16z"/>
	
		<linearGradient id="SVGID_2_" gradientUnits="userSpaceOnUse" x1="26.8975" y1="149.2861" x2="21.4863" y2="149.2861" gradientTransform="matrix(0.75 0 0 -0.75 16.3501 159.7178)">
		<stop  offset="0" style="stop-color:#BDA47F"/>
		<stop  offset="0.15" style="stop-color:#FFE0B3"/>
		<stop  offset="0.25" style="stop-color:#FFEED7"/>
		<stop  offset="0.52" style="stop-color:#DFC297"/>
		<stop  offset="0.69" style="stop-color:#C7AD86"/>
		<stop  offset="0.8" style="stop-color:#BCA37E"/>
		<stop  offset="0.92" style="stop-color:#B19A77"/>
		<stop  offset="1" style="stop-color:#CBB189"/>
	</linearGradient>
	<path fill="url(#SVGID_2_)" d="M33.965,33.879h0.75c0.75,0,1.809,0.703,1.809,1.609l-0.309,26.141h-3.75v-26.25
		c0-0.75,0.711-1.5,1.609-1.5H33.965z"/>
	
		<linearGradient id="SVGID_3_" gradientUnits="userSpaceOnUse" x1="26.896" y1="149.2861" x2="21.4897" y2="149.2861" gradientTransform="matrix(0.75 0 0 -0.75 32.3979 159.7178)">
		<stop  offset="0" style="stop-color:#BDA47F"/>
		<stop  offset="0.15" style="stop-color:#FFE0B3"/>
		<stop  offset="0.25" style="stop-color:#FFEED7"/>
		<stop  offset="0.52" style="stop-color:#DFC297"/>
		<stop  offset="0.69" style="stop-color:#C7AD86"/>
		<stop  offset="0.8" style="stop-color:#BCA37E"/>
		<stop  offset="0.92" style="stop-color:#B19A77"/>
		<stop  offset="1" style="stop-color:#CBB189"/>
	</linearGradient>
	<path fill="url(#SVGID_3_)" d="M50.016,33.879h0.75c0.75,0,1.805,0.703,1.805,1.609l-0.305,26.141h-3.75v-26.25
		c0-0.75,0.707-1.5,1.609-1.5H50.016z"/>
	
		<linearGradient id="SVGID_4_" gradientUnits="userSpaceOnUse" x1="26.8989" y1="149.2861" x2="21.4878" y2="149.2861" gradientTransform="matrix(0.75 0 0 -0.75 48.4468 159.7178)">
		<stop  offset="0" style="stop-color:#BDA47F"/>
		<stop  offset="0.15" style="stop-color:#FFE0B3"/>
		<stop  offset="0.25" style="stop-color:#FFEED7"/>
		<stop  offset="0.52" style="stop-color:#DFC297"/>
		<stop  offset="0.69" style="stop-color:#C7AD86"/>
		<stop  offset="0.8" style="stop-color:#BCA37E"/>
		<stop  offset="0.92" style="stop-color:#B19A77"/>
		<stop  offset="1" style="stop-color:#CBB189"/>
	</linearGradient>
	<path fill="url(#SVGID_4_)" d="M66.063,33.879h0.75c0.75,0,1.809,0.703,1.809,1.609l-0.309,26.141h-3.75v-26.25
		c0-0.75,0.707-1.5,1.609-1.5H66.063z"/>
	
		<linearGradient id="SVGID_5_" gradientUnits="userSpaceOnUse" x1="26.8965" y1="149.2861" x2="21.4854" y2="149.2861" gradientTransform="matrix(0.75 0 0 -0.75 64.4951 159.7178)">
		<stop  offset="0" style="stop-color:#BDA47F"/>
		<stop  offset="0.15" style="stop-color:#FFE0B3"/>
		<stop  offset="0.25" style="stop-color:#FFEED7"/>
		<stop  offset="0.52" style="stop-color:#DFC297"/>
		<stop  offset="0.69" style="stop-color:#C7AD86"/>
		<stop  offset="0.8" style="stop-color:#BCA37E"/>
		<stop  offset="0.92" style="stop-color:#B19A77"/>
		<stop  offset="1" style="stop-color:#CBB189"/>
	</linearGradient>
	<path fill="url(#SVGID_5_)" d="M82.109,33.879h0.75c0.75,0,1.809,0.703,1.809,1.609l-0.309,26.141h-3.75v-26.25
		c0-0.75,0.711-1.5,1.613-1.5H82.109z"/>
	
		<linearGradient id="SVGID_6_" gradientUnits="userSpaceOnUse" x1="113.4883" y1="165.7881" x2="21.4883" y2="165.7881" gradientTransform="matrix(0.75 0 0 -0.75 241.6533 165.8398)">
		<stop  offset="0" style="stop-color:#BDA47F"/>
		<stop  offset="0.15" style="stop-color:#FFE0B3"/>
		<stop  offset="0.25" style="stop-color:#FFEED7"/>
		<stop  offset="0.52" style="stop-color:#DFC297"/>
		<stop  offset="0.69" style="stop-color:#C7AD86"/>
		<stop  offset="0.8" style="stop-color:#BCA37E"/>
		<stop  offset="0.92" style="stop-color:#B19A77"/>
		<stop  offset="1" style="stop-color:#CBB189"/>
	</linearGradient>
	<path fill="url(#SVGID_6_)" d="M257.77,40h69v3h-69V40z"/>
	
		<linearGradient id="SVGID_7_" gradientUnits="userSpaceOnUse" x1="26.3555" y1="165.3604" x2="21.4482" y2="165.3604" gradientTransform="matrix(0.75 0 0 -0.75 32.5894 165.9395)">
		<stop  offset="0" style="stop-color:#B37900"/>
		<stop  offset="0.15" style="stop-color:#F2AC45"/>
		<stop  offset="0.25" style="stop-color:#F7D4B3"/>
		<stop  offset="0.52" style="stop-color:#D39000"/>
		<stop  offset="0.69" style="stop-color:#BC8000"/>
		<stop  offset="0.8" style="stop-color:#B17800"/>
		<stop  offset="0.92" style="stop-color:#A77100"/>
		<stop  offset="1" style="stop-color:#C08300"/>
	</linearGradient>
	<path fill="url(#SVGID_7_)" d="M48.707,41.598c0-0.75,0.793-1.52,1.805-1.52c1.195,0.02,1.836,0.824,1.836,1.84
		c0.109,1.18-0.82,1.84-1.836,1.84c-1.055,0.09-1.836-0.824-1.836-1.84L48.707,41.598z"/>
	
		<linearGradient id="SVGID_8_" gradientUnits="userSpaceOnUse" x1="26.3569" y1="165.3584" x2="21.4507" y2="165.3584" gradientTransform="matrix(0.75 0 0 -0.75 16.541 165.6563)">
		<stop  offset="0" style="stop-color:#B37900"/>
		<stop  offset="0.15" style="stop-color:#F2AC45"/>
		<stop  offset="0.25" style="stop-color:#F7D4B3"/>
		<stop  offset="0.52" style="stop-color:#D39000"/>
		<stop  offset="0.69" style="stop-color:#BC8000"/>
		<stop  offset="0.8" style="stop-color:#B17800"/>
		<stop  offset="0.92" style="stop-color:#A77100"/>
		<stop  offset="1" style="stop-color:#C08300"/>
	</linearGradient>
	<path fill="url(#SVGID_8_)" d="M32.656,41.316c0-0.75,0.793-1.523,1.809-1.523c1.191,0.023,1.836,0.824,1.836,1.84
		c0.105,1.184-0.824,1.844-1.836,1.844c-1.059,0.09-1.836-0.824-1.836-1.844L32.656,41.316z"/>
	
		<linearGradient id="SVGID_9_" gradientUnits="userSpaceOnUse" x1="26.3579" y1="165.3584" x2="21.4517" y2="165.3584" gradientTransform="matrix(0.75 0 0 -0.75 48.6377 165.6563)">
		<stop  offset="0" style="stop-color:#B37900"/>
		<stop  offset="0.15" style="stop-color:#F2AC45"/>
		<stop  offset="0.25" style="stop-color:#F7D4B3"/>
		<stop  offset="0.52" style="stop-color:#D39000"/>
		<stop  offset="0.69" style="stop-color:#BC8000"/>
		<stop  offset="0.8" style="stop-color:#B17800"/>
		<stop  offset="0.92" style="stop-color:#A77100"/>
		<stop  offset="1" style="stop-color:#C08300"/>
	</linearGradient>
	<path fill="url(#SVGID_9_)" d="M64.754,41.316c0-0.75,0.793-1.523,1.809-1.523c1.191,0.023,1.836,0.824,1.836,1.84
		c0.105,1.184-0.824,1.844-1.836,1.844c-1.059,0.09-1.836-0.824-1.836-1.844L64.754,41.316z"/>
	
		<linearGradient id="SVGID_10_" gradientUnits="userSpaceOnUse" x1="26.3555" y1="165.3584" x2="21.4487" y2="165.3584" gradientTransform="matrix(0.75 0 0 -0.75 64.6865 165.6563)">
		<stop  offset="0" style="stop-color:#B37900"/>
		<stop  offset="0.15" style="stop-color:#F2AC45"/>
		<stop  offset="0.25" style="stop-color:#F7D4B3"/>
		<stop  offset="0.52" style="stop-color:#D39000"/>
		<stop  offset="0.69" style="stop-color:#BC8000"/>
		<stop  offset="0.8" style="stop-color:#B17800"/>
		<stop  offset="0.92" style="stop-color:#A77100"/>
		<stop  offset="1" style="stop-color:#C08300"/>
	</linearGradient>
	<path fill="url(#SVGID_10_)" d="M80.801,41.316c0-0.75,0.797-1.523,1.809-1.523c1.191,0.023,1.836,0.824,1.836,1.84
		c0.105,1.184-0.82,1.844-1.836,1.844c-1.059,0.09-1.836-0.824-1.836-1.844L80.801,41.316z"/>
	
		<linearGradient id="SVGID_11_" gradientUnits="userSpaceOnUse" x1="26.8989" y1="149.2861" x2="21.4878" y2="149.2861" gradientTransform="matrix(0.75 0 0 -0.75 96.5522 159.7178)">
		<stop  offset="0" style="stop-color:#BDA47F"/>
		<stop  offset="0.15" style="stop-color:#FFE0B3"/>
		<stop  offset="0.25" style="stop-color:#FFEED7"/>
		<stop  offset="0.52" style="stop-color:#DFC297"/>
		<stop  offset="0.69" style="stop-color:#C7AD86"/>
		<stop  offset="0.8" style="stop-color:#BCA37E"/>
		<stop  offset="0.92" style="stop-color:#B19A77"/>
		<stop  offset="1" style="stop-color:#CBB189"/>
	</linearGradient>
	<path fill="url(#SVGID_11_)" d="M114.168,33.879h0.75c0.75,0,1.809,0.703,1.809,1.609l-0.309,26.141h-3.75v-26.25
		c0-0.75,0.707-1.5,1.609-1.5H114.168z"/>
	
		<linearGradient id="SVGID_12_" gradientUnits="userSpaceOnUse" x1="26.8965" y1="149.2861" x2="21.4902" y2="149.2861" gradientTransform="matrix(0.75 0 0 -0.75 112.6006 159.7178)">
		<stop  offset="0" style="stop-color:#BDA47F"/>
		<stop  offset="0.15" style="stop-color:#FFE0B3"/>
		<stop  offset="0.25" style="stop-color:#FFEED7"/>
		<stop  offset="0.52" style="stop-color:#DFC297"/>
		<stop  offset="0.69" style="stop-color:#C7AD86"/>
		<stop  offset="0.8" style="stop-color:#BCA37E"/>
		<stop  offset="0.92" style="stop-color:#B19A77"/>
		<stop  offset="1" style="stop-color:#CBB189"/>
	</linearGradient>
	<path fill="url(#SVGID_12_)" d="M130.219,33.879h0.75c0.75,0,1.805,0.703,1.805,1.609l-0.305,26.141h-3.75v-26.25
		c0-0.75,0.707-1.5,1.609-1.5H130.219z"/>
	
		<linearGradient id="SVGID_13_" gradientUnits="userSpaceOnUse" x1="26.8999" y1="149.2861" x2="21.4888" y2="149.2861" gradientTransform="matrix(0.75 0 0 -0.75 128.6489 159.7178)">
		<stop  offset="0" style="stop-color:#BDA47F"/>
		<stop  offset="0.15" style="stop-color:#FFE0B3"/>
		<stop  offset="0.25" style="stop-color:#FFEED7"/>
		<stop  offset="0.52" style="stop-color:#DFC297"/>
		<stop  offset="0.69" style="stop-color:#C7AD86"/>
		<stop  offset="0.8" style="stop-color:#BCA37E"/>
		<stop  offset="0.92" style="stop-color:#B19A77"/>
		<stop  offset="1" style="stop-color:#CBB189"/>
	</linearGradient>
	<path fill="url(#SVGID_13_)" d="M146.266,33.879h0.75c0.75,0,1.809,0.703,1.809,1.609l-0.309,26.141h-3.75v-26.25
		c0-0.75,0.707-1.5,1.609-1.5H146.266z"/>
	
		<linearGradient id="SVGID_14_" gradientUnits="userSpaceOnUse" x1="26.3574" y1="165.3584" x2="21.4512" y2="165.3584" gradientTransform="matrix(0.75 0 0 -0.75 96.7437 165.9365)">
		<stop  offset="0" style="stop-color:#B37900"/>
		<stop  offset="0.15" style="stop-color:#F2AC45"/>
		<stop  offset="0.25" style="stop-color:#F7D4B3"/>
		<stop  offset="0.52" style="stop-color:#D39000"/>
		<stop  offset="0.69" style="stop-color:#BC8000"/>
		<stop  offset="0.8" style="stop-color:#B17800"/>
		<stop  offset="0.92" style="stop-color:#A77100"/>
		<stop  offset="1" style="stop-color:#C08300"/>
	</linearGradient>
	<path fill="url(#SVGID_14_)" d="M112.859,41.598c0-0.75,0.793-1.523,1.809-1.523c1.191,0.023,1.836,0.824,1.836,1.84
		c0.105,1.184-0.824,1.844-1.836,1.844c-1.059,0.09-1.836-0.824-1.836-1.844L112.859,41.598z"/>
	
		<linearGradient id="SVGID_15_" gradientUnits="userSpaceOnUse" x1="26.3555" y1="165.3574" x2="21.4487" y2="165.3574" gradientTransform="matrix(0.75 0 0 -0.75 112.792 165.6533)">
		<stop  offset="0" style="stop-color:#B37900"/>
		<stop  offset="0.15" style="stop-color:#F2AC45"/>
		<stop  offset="0.25" style="stop-color:#F7D4B3"/>
		<stop  offset="0.52" style="stop-color:#D39000"/>
		<stop  offset="0.69" style="stop-color:#BC8000"/>
		<stop  offset="0.8" style="stop-color:#B17800"/>
		<stop  offset="0.92" style="stop-color:#A77100"/>
		<stop  offset="1" style="stop-color:#C08300"/>
	</linearGradient>
	<path fill="url(#SVGID_15_)" d="M128.906,41.313c0-0.75,0.797-1.52,1.809-1.52c1.191,0.02,1.836,0.824,1.836,1.84
		c0.105,1.18-0.82,1.84-1.836,1.84c-1.059,0.09-1.836-0.824-1.836-1.84L128.906,41.313z"/>
	
		<linearGradient id="SVGID_16_" gradientUnits="userSpaceOnUse" x1="26.3589" y1="165.3574" x2="21.4526" y2="165.3574" gradientTransform="matrix(0.75 0 0 -0.75 128.8403 165.6533)">
		<stop  offset="0" style="stop-color:#B37900"/>
		<stop  offset="0.15" style="stop-color:#F2AC45"/>
		<stop  offset="0.25" style="stop-color:#F7D4B3"/>
		<stop  offset="0.52" style="stop-color:#D39000"/>
		<stop  offset="0.69" style="stop-color:#BC8000"/>
		<stop  offset="0.8" style="stop-color:#B17800"/>
		<stop  offset="0.92" style="stop-color:#A77100"/>
		<stop  offset="1" style="stop-color:#C08300"/>
	</linearGradient>
	<path fill="url(#SVGID_16_)" d="M144.957,41.313c0-0.75,0.793-1.52,1.809-1.52c1.191,0.02,1.836,0.824,1.836,1.84
		c0.105,1.18-0.824,1.84-1.836,1.84c-1.059,0.09-1.836-0.824-1.836-1.84L144.957,41.313z"/>
	
		<linearGradient id="SVGID_17_" gradientUnits="userSpaceOnUse" x1="26.8999" y1="149.2861" x2="21.4888" y2="149.2861" gradientTransform="matrix(0.75 0 0 -0.75 161.4771 159.7178)">
		<stop  offset="0" style="stop-color:#BDA47F"/>
		<stop  offset="0.15" style="stop-color:#FFE0B3"/>
		<stop  offset="0.25" style="stop-color:#FFEED7"/>
		<stop  offset="0.52" style="stop-color:#DFC297"/>
		<stop  offset="0.69" style="stop-color:#C7AD86"/>
		<stop  offset="0.8" style="stop-color:#BCA37E"/>
		<stop  offset="0.92" style="stop-color:#B19A77"/>
		<stop  offset="1" style="stop-color:#CBB189"/>
	</linearGradient>
	<path fill="url(#SVGID_17_)" d="M179.094,33.879h0.75c0.75,0,1.809,0.703,1.809,1.609l-0.309,26.141h-3.75v-26.25
		c0-0.75,0.707-1.5,1.609-1.5H179.094z"/>
	
		<linearGradient id="SVGID_18_" gradientUnits="userSpaceOnUse" x1="26.896" y1="149.2861" x2="21.4897" y2="149.2861" gradientTransform="matrix(0.75 0 0 -0.75 177.293 159.7178)">
		<stop  offset="0" style="stop-color:#BDA47F"/>
		<stop  offset="0.15" style="stop-color:#FFE0B3"/>
		<stop  offset="0.25" style="stop-color:#FFEED7"/>
		<stop  offset="0.52" style="stop-color:#DFC297"/>
		<stop  offset="0.69" style="stop-color:#C7AD86"/>
		<stop  offset="0.8" style="stop-color:#BCA37E"/>
		<stop  offset="0.92" style="stop-color:#B19A77"/>
		<stop  offset="1" style="stop-color:#CBB189"/>
	</linearGradient>
	<path fill="url(#SVGID_18_)" d="M194.91,33.879h0.75c0.75,0,1.805,0.703,1.805,1.609l-0.305,26.141h-3.75v-26.25
		c0-0.75,0.707-1.5,1.609-1.5H194.91z"/>
	
		<linearGradient id="SVGID_19_" gradientUnits="userSpaceOnUse" x1="26.8989" y1="149.2861" x2="21.4878" y2="149.2861" gradientTransform="matrix(0.75 0 0 -0.75 193.3408 159.7178)">
		<stop  offset="0" style="stop-color:#BDA47F"/>
		<stop  offset="0.15" style="stop-color:#FFE0B3"/>
		<stop  offset="0.25" style="stop-color:#FFEED7"/>
		<stop  offset="0.52" style="stop-color:#DFC297"/>
		<stop  offset="0.69" style="stop-color:#C7AD86"/>
		<stop  offset="0.8" style="stop-color:#BCA37E"/>
		<stop  offset="0.92" style="stop-color:#B19A77"/>
		<stop  offset="1" style="stop-color:#CBB189"/>
	</linearGradient>
	<path fill="url(#SVGID_19_)" d="M210.957,33.879h0.75c0.75,0,1.809,0.703,1.809,1.609l-0.309,26.141h-3.75v-26.25
		c0-0.75,0.707-1.5,1.609-1.5H210.957z"/>
	
		<linearGradient id="SVGID_20_" gradientUnits="userSpaceOnUse" x1="26.355" y1="165.3604" x2="21.4478" y2="165.3604" gradientTransform="matrix(0.75 0 0 -0.75 161.668 165.9395)">
		<stop  offset="0" style="stop-color:#B37900"/>
		<stop  offset="0.15" style="stop-color:#F2AC45"/>
		<stop  offset="0.25" style="stop-color:#F7D4B3"/>
		<stop  offset="0.52" style="stop-color:#D39000"/>
		<stop  offset="0.69" style="stop-color:#BC8000"/>
		<stop  offset="0.8" style="stop-color:#B17800"/>
		<stop  offset="0.92" style="stop-color:#A77100"/>
		<stop  offset="1" style="stop-color:#C08300"/>
	</linearGradient>
	<path fill="url(#SVGID_20_)" d="M177.785,41.598c0-0.75,0.793-1.52,1.805-1.52c1.195,0.02,1.836,0.824,1.836,1.84
		c0.109,1.18-0.82,1.84-1.836,1.84c-1.055,0.09-1.836-0.824-1.836-1.84L177.785,41.598z"/>
	
		<linearGradient id="SVGID_21_" gradientUnits="userSpaceOnUse" x1="26.3555" y1="165.3584" x2="21.4473" y2="165.3584" gradientTransform="matrix(0.75 0 0 -0.75 177.4844 165.6563)">
		<stop  offset="0" style="stop-color:#B37900"/>
		<stop  offset="0.15" style="stop-color:#F2AC45"/>
		<stop  offset="0.25" style="stop-color:#F7D4B3"/>
		<stop  offset="0.52" style="stop-color:#D39000"/>
		<stop  offset="0.69" style="stop-color:#BC8000"/>
		<stop  offset="0.8" style="stop-color:#B17800"/>
		<stop  offset="0.92" style="stop-color:#A77100"/>
		<stop  offset="1" style="stop-color:#C08300"/>
	</linearGradient>
	<path fill="url(#SVGID_21_)" d="M193.602,41.316c0-0.75,0.793-1.523,1.805-1.523c1.195,0.023,1.836,0.824,1.836,1.84
		c0.109,1.184-0.82,1.844-1.836,1.844c-1.055,0.09-1.836-0.824-1.836-1.844L193.602,41.316z"/>
	
		<linearGradient id="SVGID_22_" gradientUnits="userSpaceOnUse" x1="26.3579" y1="165.3584" x2="21.4517" y2="165.3584" gradientTransform="matrix(0.75 0 0 -0.75 193.5322 165.6563)">
		<stop  offset="0" style="stop-color:#B37900"/>
		<stop  offset="0.15" style="stop-color:#F2AC45"/>
		<stop  offset="0.25" style="stop-color:#F7D4B3"/>
		<stop  offset="0.52" style="stop-color:#D39000"/>
		<stop  offset="0.69" style="stop-color:#BC8000"/>
		<stop  offset="0.8" style="stop-color:#B17800"/>
		<stop  offset="0.92" style="stop-color:#A77100"/>
		<stop  offset="1" style="stop-color:#C08300"/>
	</linearGradient>
	<path fill="url(#SVGID_22_)" d="M209.648,41.316c0-0.75,0.793-1.523,1.809-1.523c1.191,0.023,1.836,0.824,1.836,1.84
		c0.105,1.184-0.824,1.844-1.836,1.844c-1.059,0.09-1.836-0.824-1.836-1.844L209.648,41.316z"/>
	
		<linearGradient id="SVGID_23_" gradientUnits="userSpaceOnUse" x1="26.896" y1="149.2861" x2="21.4897" y2="149.2861" gradientTransform="matrix(0.75 0 0 -0.75 80.543 159.7178)">
		<stop  offset="0" style="stop-color:#BDA47F"/>
		<stop  offset="0.15" style="stop-color:#FFE0B3"/>
		<stop  offset="0.25" style="stop-color:#FFEED7"/>
		<stop  offset="0.52" style="stop-color:#DFC297"/>
		<stop  offset="0.69" style="stop-color:#C7AD86"/>
		<stop  offset="0.8" style="stop-color:#BCA37E"/>
		<stop  offset="0.92" style="stop-color:#B19A77"/>
		<stop  offset="1" style="stop-color:#CBB189"/>
	</linearGradient>
	<path fill="url(#SVGID_23_)" d="M98.16,33.879h0.75c0.75,0,1.805,0.703,1.805,1.609l-0.305,26.141h-3.75v-26.25
		c0-0.75,0.707-1.5,1.609-1.5H98.16z"/>
	
		<linearGradient id="SVGID_24_" gradientUnits="userSpaceOnUse" x1="26.356" y1="165.3604" x2="21.4478" y2="165.3604" gradientTransform="matrix(0.75 0 0 -0.75 80.7339 165.9395)">
		<stop  offset="0" style="stop-color:#B37900"/>
		<stop  offset="0.15" style="stop-color:#F2AC45"/>
		<stop  offset="0.25" style="stop-color:#F7D4B3"/>
		<stop  offset="0.52" style="stop-color:#D39000"/>
		<stop  offset="0.69" style="stop-color:#BC8000"/>
		<stop  offset="0.8" style="stop-color:#B17800"/>
		<stop  offset="0.92" style="stop-color:#A77100"/>
		<stop  offset="1" style="stop-color:#C08300"/>
	</linearGradient>
	<path fill="url(#SVGID_24_)" d="M96.852,41.598c0-0.75,0.793-1.52,1.805-1.52c1.195,0.02,1.836,0.824,1.836,1.84
		c0.109,1.18-0.82,1.84-1.836,1.84c-1.055,0.09-1.836-0.824-1.836-1.84L96.852,41.598z"/>
	
		<linearGradient id="SVGID_25_" gradientUnits="userSpaceOnUse" x1="26.8979" y1="149.2861" x2="21.4868" y2="149.2861" gradientTransform="matrix(0.75 0 0 -0.75 144.6973 159.7178)">
		<stop  offset="0" style="stop-color:#BDA47F"/>
		<stop  offset="0.15" style="stop-color:#FFE0B3"/>
		<stop  offset="0.25" style="stop-color:#FFEED7"/>
		<stop  offset="0.52" style="stop-color:#DFC297"/>
		<stop  offset="0.69" style="stop-color:#C7AD86"/>
		<stop  offset="0.8" style="stop-color:#BCA37E"/>
		<stop  offset="0.92" style="stop-color:#B19A77"/>
		<stop  offset="1" style="stop-color:#CBB189"/>
	</linearGradient>
	<path fill="url(#SVGID_25_)" d="M162.313,33.879h0.75c0.75,0,1.809,0.703,1.809,1.609l-0.309,26.141h-3.75v-26.25
		c0-0.75,0.711-1.5,1.609-1.5H162.313z"/>
	
		<linearGradient id="SVGID_26_" gradientUnits="userSpaceOnUse" x1="26.3569" y1="165.3584" x2="21.4507" y2="165.3584" gradientTransform="matrix(0.75 0 0 -0.75 144.8882 165.9365)">
		<stop  offset="0" style="stop-color:#B37900"/>
		<stop  offset="0.15" style="stop-color:#F2AC45"/>
		<stop  offset="0.25" style="stop-color:#F7D4B3"/>
		<stop  offset="0.52" style="stop-color:#D39000"/>
		<stop  offset="0.69" style="stop-color:#BC8000"/>
		<stop  offset="0.8" style="stop-color:#B17800"/>
		<stop  offset="0.92" style="stop-color:#A77100"/>
		<stop  offset="1" style="stop-color:#C08300"/>
	</linearGradient>
	<path fill="url(#SVGID_26_)" d="M161.004,41.598c0-0.75,0.793-1.523,1.809-1.523c1.191,0.023,1.836,0.824,1.836,1.84
		c0.105,1.184-0.824,1.844-1.836,1.844c-1.059,0.09-1.836-0.824-1.836-1.844L161.004,41.598z"/>
	
		<linearGradient id="SVGID_27_" gradientUnits="userSpaceOnUse" x1="26.8979" y1="149.2861" x2="21.4868" y2="149.2861" gradientTransform="matrix(0.75 0 0 -0.75 209.127 159.7178)">
		<stop  offset="0" style="stop-color:#BDA47F"/>
		<stop  offset="0.15" style="stop-color:#FFE0B3"/>
		<stop  offset="0.25" style="stop-color:#FFEED7"/>
		<stop  offset="0.52" style="stop-color:#DFC297"/>
		<stop  offset="0.69" style="stop-color:#C7AD86"/>
		<stop  offset="0.8" style="stop-color:#BCA37E"/>
		<stop  offset="0.92" style="stop-color:#B19A77"/>
		<stop  offset="1" style="stop-color:#CBB189"/>
	</linearGradient>
	<path fill="url(#SVGID_27_)" d="M226.742,33.879h0.75c0.75,0,1.809,0.703,1.809,1.609l-0.309,26.141h-3.75v-26.25
		c0-0.75,0.711-1.5,1.609-1.5H226.742z"/>
	
		<linearGradient id="SVGID_28_" gradientUnits="userSpaceOnUse" x1="26.8989" y1="149.2861" x2="21.4878" y2="149.2861" gradientTransform="matrix(0.75 0 0 -0.75 241.2236 159.7178)">
		<stop  offset="0" style="stop-color:#BDA47F"/>
		<stop  offset="0.15" style="stop-color:#FFE0B3"/>
		<stop  offset="0.25" style="stop-color:#FFEED7"/>
		<stop  offset="0.52" style="stop-color:#DFC297"/>
		<stop  offset="0.69" style="stop-color:#C7AD86"/>
		<stop  offset="0.8" style="stop-color:#BCA37E"/>
		<stop  offset="0.92" style="stop-color:#B19A77"/>
		<stop  offset="1" style="stop-color:#CBB189"/>
	</linearGradient>
	<path fill="url(#SVGID_28_)" d="M258.84,33.879h0.75c0.75,0,1.809,0.703,1.809,1.609l-0.309,26.141h-3.75v-26.25
		c0-0.75,0.707-1.5,1.609-1.5H258.84z"/>
	
		<linearGradient id="SVGID_29_" gradientUnits="userSpaceOnUse" x1="26.3564" y1="165.3604" x2="21.4502" y2="165.3604" gradientTransform="matrix(0.75 0 0 -0.75 209.3184 165.9395)">
		<stop  offset="0" style="stop-color:#B37900"/>
		<stop  offset="0.15" style="stop-color:#F2AC45"/>
		<stop  offset="0.25" style="stop-color:#F7D4B3"/>
		<stop  offset="0.52" style="stop-color:#D39000"/>
		<stop  offset="0.69" style="stop-color:#BC8000"/>
		<stop  offset="0.8" style="stop-color:#B17800"/>
		<stop  offset="0.92" style="stop-color:#A77100"/>
		<stop  offset="1" style="stop-color:#C08300"/>
	</linearGradient>
	<path fill="url(#SVGID_29_)" d="M225.434,41.598c0-0.75,0.793-1.52,1.809-1.52c1.191,0.02,1.836,0.824,1.836,1.84
		c0.105,1.18-0.824,1.84-1.836,1.84c-1.059,0.09-1.836-0.824-1.836-1.84L225.434,41.598z"/>
	
		<linearGradient id="SVGID_30_" gradientUnits="userSpaceOnUse" x1="26.3579" y1="165.3584" x2="21.4517" y2="165.3584" gradientTransform="matrix(0.75 0 0 -0.75 241.415 165.6563)">
		<stop  offset="0" style="stop-color:#B37900"/>
		<stop  offset="0.15" style="stop-color:#F2AC45"/>
		<stop  offset="0.25" style="stop-color:#F7D4B3"/>
		<stop  offset="0.52" style="stop-color:#D39000"/>
		<stop  offset="0.69" style="stop-color:#BC8000"/>
		<stop  offset="0.8" style="stop-color:#B17800"/>
		<stop  offset="0.92" style="stop-color:#A77100"/>
		<stop  offset="1" style="stop-color:#C08300"/>
	</linearGradient>
	<path fill="url(#SVGID_30_)" d="M257.531,41.316c0-0.75,0.793-1.523,1.809-1.523c1.191,0.023,1.836,0.824,1.836,1.84
		c0.105,1.184-0.824,1.844-1.836,1.844c-1.059,0.09-1.836-0.824-1.836-1.844L257.531,41.316z"/>
	
		<linearGradient id="SVGID_31_" gradientUnits="userSpaceOnUse" x1="26.8965" y1="149.2861" x2="21.4902" y2="149.2861" gradientTransform="matrix(0.75 0 0 -0.75 273.2808 159.7178)">
		<stop  offset="0" style="stop-color:#BDA47F"/>
		<stop  offset="0.15" style="stop-color:#FFE0B3"/>
		<stop  offset="0.25" style="stop-color:#FFEED7"/>
		<stop  offset="0.52" style="stop-color:#DFC297"/>
		<stop  offset="0.69" style="stop-color:#C7AD86"/>
		<stop  offset="0.8" style="stop-color:#BCA37E"/>
		<stop  offset="0.92" style="stop-color:#B19A77"/>
		<stop  offset="1" style="stop-color:#CBB189"/>
	</linearGradient>
	<path fill="url(#SVGID_31_)" d="M290.898,33.879h0.75c0.75,0,1.805,0.703,1.805,1.609l-0.305,26.141h-3.75v-26.25
		c0-0.75,0.707-1.5,1.609-1.5H290.898z"/>
	
		<linearGradient id="SVGID_32_" gradientUnits="userSpaceOnUse" x1="26.8984" y1="149.2861" x2="21.4873" y2="149.2861" gradientTransform="matrix(0.75 0 0 -0.75 289.3296 159.7178)">
		<stop  offset="0" style="stop-color:#BDA47F"/>
		<stop  offset="0.15" style="stop-color:#FFE0B3"/>
		<stop  offset="0.25" style="stop-color:#FFEED7"/>
		<stop  offset="0.52" style="stop-color:#DFC297"/>
		<stop  offset="0.69" style="stop-color:#C7AD86"/>
		<stop  offset="0.8" style="stop-color:#BCA37E"/>
		<stop  offset="0.92" style="stop-color:#B19A77"/>
		<stop  offset="1" style="stop-color:#CBB189"/>
	</linearGradient>
	<path fill="url(#SVGID_32_)" d="M306.945,33.879h0.75c0.75,0,1.809,0.703,1.809,1.609l-0.309,26.141h-3.75v-26.25
		c0-0.75,0.707-1.5,1.609-1.5H306.945z"/>
	
		<linearGradient id="SVGID_33_" gradientUnits="userSpaceOnUse" x1="26.8979" y1="149.2861" x2="21.4858" y2="149.2861" gradientTransform="matrix(0.75 0 0 -0.75 305.3774 159.7178)">
		<stop  offset="0" style="stop-color:#BDA47F"/>
		<stop  offset="0.15" style="stop-color:#FFE0B3"/>
		<stop  offset="0.25" style="stop-color:#FFEED7"/>
		<stop  offset="0.52" style="stop-color:#DFC297"/>
		<stop  offset="0.69" style="stop-color:#C7AD86"/>
		<stop  offset="0.8" style="stop-color:#BCA37E"/>
		<stop  offset="0.92" style="stop-color:#B19A77"/>
		<stop  offset="1" style="stop-color:#CBB189"/>
	</linearGradient>
	<path fill="url(#SVGID_33_)" d="M322.992,33.879h0.75c0.75,0,1.809,0.703,1.809,1.609l-0.309,26.141h-3.75v-26.25
		c0-0.75,0.711-1.5,1.609-1.5H322.992z"/>
	
		<linearGradient id="SVGID_34_" gradientUnits="userSpaceOnUse" x1="26.356" y1="165.3584" x2="21.4478" y2="165.3584" gradientTransform="matrix(0.75 0 0 -0.75 273.4722 165.9365)">
		<stop  offset="0" style="stop-color:#B37900"/>
		<stop  offset="0.15" style="stop-color:#F2AC45"/>
		<stop  offset="0.25" style="stop-color:#F7D4B3"/>
		<stop  offset="0.52" style="stop-color:#D39000"/>
		<stop  offset="0.69" style="stop-color:#BC8000"/>
		<stop  offset="0.8" style="stop-color:#B17800"/>
		<stop  offset="0.92" style="stop-color:#A77100"/>
		<stop  offset="1" style="stop-color:#C08300"/>
	</linearGradient>
	<path fill="url(#SVGID_34_)" d="M289.59,41.598c0-0.75,0.793-1.523,1.805-1.523c1.195,0.023,1.836,0.824,1.836,1.84
		c0.109,1.184-0.82,1.844-1.836,1.844c-1.055,0.09-1.836-0.824-1.836-1.844L289.59,41.598z"/>
	
		<linearGradient id="SVGID_35_" gradientUnits="userSpaceOnUse" x1="26.3579" y1="165.3574" x2="21.4517" y2="165.3574" gradientTransform="matrix(0.75 0 0 -0.75 289.5205 165.6533)">
		<stop  offset="0" style="stop-color:#B37900"/>
		<stop  offset="0.15" style="stop-color:#F2AC45"/>
		<stop  offset="0.25" style="stop-color:#F7D4B3"/>
		<stop  offset="0.52" style="stop-color:#D39000"/>
		<stop  offset="0.69" style="stop-color:#BC8000"/>
		<stop  offset="0.8" style="stop-color:#B17800"/>
		<stop  offset="0.92" style="stop-color:#A77100"/>
		<stop  offset="1" style="stop-color:#C08300"/>
	</linearGradient>
	<path fill="url(#SVGID_35_)" d="M305.637,41.313c0-0.75,0.793-1.52,1.809-1.52c1.191,0.02,1.836,0.824,1.836,1.84
		c0.105,1.18-0.824,1.84-1.836,1.84c-1.059,0.09-1.836-0.824-1.836-1.84L305.637,41.313z"/>
	
		<linearGradient id="SVGID_36_" gradientUnits="userSpaceOnUse" x1="26.3564" y1="165.3574" x2="21.4492" y2="165.3574" gradientTransform="matrix(0.75 0 0 -0.75 305.5688 165.6533)">
		<stop  offset="0" style="stop-color:#B37900"/>
		<stop  offset="0.15" style="stop-color:#F2AC45"/>
		<stop  offset="0.25" style="stop-color:#F7D4B3"/>
		<stop  offset="0.52" style="stop-color:#D39000"/>
		<stop  offset="0.69" style="stop-color:#BC8000"/>
		<stop  offset="0.8" style="stop-color:#B17800"/>
		<stop  offset="0.92" style="stop-color:#A77100"/>
		<stop  offset="1" style="stop-color:#C08300"/>
	</linearGradient>
	<path fill="url(#SVGID_36_)" d="M321.684,41.313c0-0.75,0.797-1.52,1.809-1.52c1.191,0.02,1.836,0.824,1.836,1.84
		c0.105,1.18-0.82,1.84-1.836,1.84c-1.059,0.09-1.836-0.824-1.836-1.84L321.684,41.313z"/>
	
		<linearGradient id="SVGID_37_" gradientUnits="userSpaceOnUse" x1="26.8984" y1="149.2861" x2="21.4863" y2="149.2861" gradientTransform="matrix(0.75 0 0 -0.75 257.2715 159.7178)">
		<stop  offset="0" style="stop-color:#BDA47F"/>
		<stop  offset="0.15" style="stop-color:#FFE0B3"/>
		<stop  offset="0.25" style="stop-color:#FFEED7"/>
		<stop  offset="0.52" style="stop-color:#DFC297"/>
		<stop  offset="0.69" style="stop-color:#C7AD86"/>
		<stop  offset="0.8" style="stop-color:#BCA37E"/>
		<stop  offset="0.92" style="stop-color:#B19A77"/>
		<stop  offset="1" style="stop-color:#CBB189"/>
	</linearGradient>
	<path fill="url(#SVGID_37_)" d="M274.887,33.879h0.75c0.75,0,1.809,0.703,1.809,1.609l-0.309,26.141h-3.75v-26.25
		c0-0.75,0.711-1.5,1.609-1.5H274.887z"/>
	
		<linearGradient id="SVGID_38_" gradientUnits="userSpaceOnUse" x1="26.3569" y1="165.3604" x2="21.4497" y2="165.3604" gradientTransform="matrix(0.75 0 0 -0.75 257.4629 165.9395)">
		<stop  offset="0" style="stop-color:#B37900"/>
		<stop  offset="0.15" style="stop-color:#F2AC45"/>
		<stop  offset="0.25" style="stop-color:#F7D4B3"/>
		<stop  offset="0.52" style="stop-color:#D39000"/>
		<stop  offset="0.69" style="stop-color:#BC8000"/>
		<stop  offset="0.8" style="stop-color:#B17800"/>
		<stop  offset="0.92" style="stop-color:#A77100"/>
		<stop  offset="1" style="stop-color:#C08300"/>
	</linearGradient>
	<path fill="url(#SVGID_38_)" d="M273.578,41.598c0-0.75,0.793-1.52,1.809-1.52c1.191,0.02,1.836,0.824,1.836,1.84
		c0.105,1.18-0.824,1.84-1.836,1.84c-1.059,0.09-1.836-0.824-1.836-1.84L273.578,41.598z"/>
	
		<linearGradient id="SVGID_39_" gradientUnits="userSpaceOnUse" x1="420.4873" y1="151.3115" x2="21.4873" y2="151.3115" gradientTransform="matrix(0.75 0 0 -0.75 13.8838 186.0781)">
		<stop  offset="0" style="stop-color:#C3A156"/>
		<stop  offset="0.15" style="stop-color:#FED681"/>
		<stop  offset="0.25" style="stop-color:#FEE8C2"/>
		<stop  offset="0.52" style="stop-color:#DEB863"/>
		<stop  offset="0.69" style="stop-color:#C6A457"/>
		<stop  offset="0.8" style="stop-color:#BB9B52"/>
		<stop  offset="0.97" style="stop-color:#B0924D"/>
		<stop  offset="1" style="stop-color:#CBA859"/>
	</linearGradient>
	<path fill="url(#SVGID_39_)" d="M33.75,60.238H325.5c2.25,0,3.75,1.5,3.75,3.395v21.355H30v-21c0-2.25,1.523-3.785,3.406-3.785
		L33.75,60.238z"/>
	
		<linearGradient id="SVGID_40_" gradientUnits="userSpaceOnUse" x1="281.4863" y1="165.7881" x2="21.4863" y2="165.7881" gradientTransform="matrix(0.75 0 0 -0.75 15.8145 165.8398)">
		<stop  offset="0" style="stop-color:#BDA47F"/>
		<stop  offset="0.15" style="stop-color:#FFE0B3"/>
		<stop  offset="0.25" style="stop-color:#FFEED7"/>
		<stop  offset="0.52" style="stop-color:#DFC297"/>
		<stop  offset="0.69" style="stop-color:#C7AD86"/>
		<stop  offset="0.8" style="stop-color:#BCA37E"/>
		<stop  offset="0.92" style="stop-color:#B19A77"/>
		<stop  offset="1" style="stop-color:#CBB189"/>
	</linearGradient>
	<path fill="url(#SVGID_40_)" d="M31.93,40h195v3h-195V40z"/>
	
		<linearGradient id="SVGID_41_" gradientUnits="userSpaceOnUse" x1="-531.8403" y1="59.0347" x2="-534.8403" y2="59.0347" gradientTransform="matrix(0 -0.75 -0.75 0 288.7734 -294.1309)">
		<stop  offset="0" style="stop-color:#B9B9B9"/>
		<stop  offset="0.15" style="stop-color:#F2F2F2"/>
		<stop  offset="0.25" style="stop-color:#F3F3F3"/>
		<stop  offset="0.52" style="stop-color:#D0D0D0"/>
		<stop  offset="0.69" style="stop-color:#B9B9B9"/>
		<stop  offset="0.8" style="stop-color:#AFAFAF"/>
		<stop  offset="0.92" style="stop-color:#A5A5A5"/>
	</linearGradient>
	<path fill="url(#SVGID_41_)" d="M228.859,106.25c0-0.75,0.262-1.41,0.586-1.41l30.164-0.09c0,0,0.434,0.535,0.434,1.086
		c0.316,0.414-0.27,1.164-0.594,1.164h-29.84c-0.75,0-0.75-0.445-0.75-0.996V106.25z"/>
	
		<linearGradient id="SVGID_42_" gradientUnits="userSpaceOnUse" x1="-531.8374" y1="59.0356" x2="-534.8374" y2="59.0356" gradientTransform="matrix(0 -0.75 -0.75 0 289.0146 -281.8516)">
		<stop  offset="0" style="stop-color:#B9B9B9"/>
		<stop  offset="0.15" style="stop-color:#F2F2F2"/>
		<stop  offset="0.25" style="stop-color:#F3F3F3"/>
		<stop  offset="0.52" style="stop-color:#D0D0D0"/>
		<stop  offset="0.69" style="stop-color:#B9B9B9"/>
		<stop  offset="0.8" style="stop-color:#AFAFAF"/>
		<stop  offset="0.92" style="stop-color:#A5A5A5"/>
	</linearGradient>
	<path fill="url(#SVGID_42_)" d="M229.102,118.527c0-0.75,0.262-1.406,0.586-1.406l30.164-0.094c0,0,0.43,0.539,0.43,1.09
		c0.32,0.41-0.266,1.16-0.59,1.16h-29.84c-0.75,0-0.75-0.445-0.75-0.996V118.527z"/>
	
		<linearGradient id="SVGID_43_" gradientUnits="userSpaceOnUse" x1="-531.8394" y1="59.0386" x2="-534.8394" y2="59.0386" gradientTransform="matrix(0 -0.75 -0.75 0 289.209 -269.8682)">
		<stop  offset="0" style="stop-color:#B9B9B9"/>
		<stop  offset="0.15" style="stop-color:#F2F2F2"/>
		<stop  offset="0.25" style="stop-color:#F3F3F3"/>
		<stop  offset="0.52" style="stop-color:#D0D0D0"/>
		<stop  offset="0.69" style="stop-color:#B9B9B9"/>
		<stop  offset="0.8" style="stop-color:#AFAFAF"/>
		<stop  offset="0.92" style="stop-color:#A5A5A5"/>
	</linearGradient>
	<path fill="url(#SVGID_43_)" d="M229.293,130.512c0-0.75,0.266-1.41,0.59-1.41l30.16-0.09c0,0,0.434,0.539,0.434,1.086
		c0.316,0.414-0.266,1.164-0.59,1.164h-29.844c-0.75,0-0.75-0.445-0.75-0.996V130.512z"/>
	
		<linearGradient id="SVGID_44_" gradientUnits="userSpaceOnUse" x1="-531.8354" y1="59.0356" x2="-534.8354" y2="59.0356" gradientTransform="matrix(0 -0.75 -0.75 0 289.0146 -306.4121)">
		<stop  offset="0" style="stop-color:#B9B9B9"/>
		<stop  offset="0.15" style="stop-color:#F2F2F2"/>
		<stop  offset="0.25" style="stop-color:#F3F3F3"/>
		<stop  offset="0.52" style="stop-color:#D0D0D0"/>
		<stop  offset="0.69" style="stop-color:#B9B9B9"/>
		<stop  offset="0.8" style="stop-color:#AFAFAF"/>
		<stop  offset="0.92" style="stop-color:#A5A5A5"/>
	</linearGradient>
	<path fill="url(#SVGID_44_)" d="M229.102,93.965c0-0.75,0.262-1.406,0.586-1.406l30.164-0.094c0,0,0.43,0.539,0.43,1.09
		c0.32,0.41-0.266,1.16-0.59,1.16h-29.84c-0.75,0-0.75-0.445-0.75-0.992V93.965z"/>
	
		<linearGradient id="SVGID_45_" gradientUnits="userSpaceOnUse" x1="-531.8374" y1="59.0347" x2="-534.8374" y2="59.0347" gradientTransform="matrix(0 -0.75 -0.75 0 288.3633 -318.6943)">
		<stop  offset="0" style="stop-color:#B9B9B9"/>
		<stop  offset="0.15" style="stop-color:#F2F2F2"/>
		<stop  offset="0.25" style="stop-color:#F3F3F3"/>
		<stop  offset="0.52" style="stop-color:#D0D0D0"/>
		<stop  offset="0.69" style="stop-color:#B9B9B9"/>
		<stop  offset="0.8" style="stop-color:#AFAFAF"/>
		<stop  offset="0.92" style="stop-color:#A5A5A5"/>
	</linearGradient>
	<path fill="url(#SVGID_45_)" d="M228.449,81.684c0-0.75,0.262-1.406,0.586-1.406l30.164-0.094c0,0,0.434,0.539,0.434,1.09
		c0.316,0.41-0.27,1.16-0.594,1.16h-29.84c-0.75,0-0.75-0.445-0.75-0.996V81.684z"/>
	
		<linearGradient id="SVGID_46_" gradientUnits="userSpaceOnUse" x1="-531.8374" y1="59.0356" x2="-534.8374" y2="59.0356" gradientTransform="matrix(0 -0.75 -0.75 0 288.3584 -331.0586)">
		<stop  offset="0" style="stop-color:#B9B9B9"/>
		<stop  offset="0.15" style="stop-color:#F2F2F2"/>
		<stop  offset="0.25" style="stop-color:#F3F3F3"/>
		<stop  offset="0.52" style="stop-color:#D0D0D0"/>
		<stop  offset="0.69" style="stop-color:#B9B9B9"/>
		<stop  offset="0.8" style="stop-color:#AFAFAF"/>
		<stop  offset="0.92" style="stop-color:#A5A5A5"/>
	</linearGradient>
	<path fill="url(#SVGID_46_)" d="M228.445,69.32c0-0.75,0.262-1.406,0.586-1.406l30.164-0.094c0,0,0.43,0.539,0.43,1.086
		c0.32,0.414-0.266,1.164-0.59,1.164h-29.84c-0.75,0-0.75-0.445-0.75-0.996V69.32z"/>
	
		<linearGradient id="SVGID_47_" gradientUnits="userSpaceOnUse" x1="-531.8384" y1="59.0347" x2="-534.8384" y2="59.0347" gradientTransform="matrix(0 -0.75 -0.75 0 288.3662 -343.3018)">
		<stop  offset="0" style="stop-color:#B9B9B9"/>
		<stop  offset="0.15" style="stop-color:#F2F2F2"/>
		<stop  offset="0.25" style="stop-color:#F3F3F3"/>
		<stop  offset="0.52" style="stop-color:#D0D0D0"/>
		<stop  offset="0.69" style="stop-color:#B9B9B9"/>
		<stop  offset="0.8" style="stop-color:#AFAFAF"/>
		<stop  offset="0.92" style="stop-color:#A5A5A5"/>
	</linearGradient>
	<path fill="url(#SVGID_47_)" d="M228.453,57.078c0-0.75,0.262-1.41,0.586-1.41l30.164-0.09c0,0,0.43,0.539,0.43,1.086
		c0.32,0.414-0.266,1.164-0.59,1.164h-29.84c-0.75,0-0.75-0.445-0.75-0.996V57.078z"/>
	
		<linearGradient id="SVGID_48_" gradientUnits="userSpaceOnUse" x1="-531.8384" y1="59.0376" x2="-534.8384" y2="59.0376" gradientTransform="matrix(0 -0.75 -0.75 0 289.0127 -355.5449)">
		<stop  offset="0" style="stop-color:#B9B9B9"/>
		<stop  offset="0.15" style="stop-color:#F2F2F2"/>
		<stop  offset="0.25" style="stop-color:#F3F3F3"/>
		<stop  offset="0.52" style="stop-color:#D0D0D0"/>
		<stop  offset="0.69" style="stop-color:#B9B9B9"/>
		<stop  offset="0.8" style="stop-color:#AFAFAF"/>
		<stop  offset="0.92" style="stop-color:#A5A5A5"/>
	</linearGradient>
	<path fill="url(#SVGID_48_)" d="M229.098,44.832c0-0.75,0.262-1.406,0.59-1.406l30.16-0.094c0,0,0.434,0.539,0.434,1.09
		c0.316,0.41-0.266,1.16-0.594,1.16h-29.84c-0.75,0-0.75-0.445-0.75-0.996V44.832z"/>
	
		<linearGradient id="SVGID_49_" gradientUnits="userSpaceOnUse" x1="27.6992" y1="100.103" x2="21.4863" y2="100.103" gradientTransform="matrix(0.75 0 0 -0.75 209.3696 160.4902)">
		<stop  offset="0" style="stop-color:#B9B9B9"/>
		<stop  offset="0.15" style="stop-color:#F2F2F2"/>
		<stop  offset="0.25" style="stop-color:#F3F3F3"/>
		<stop  offset="0.52" style="stop-color:#D0D0D0"/>
		<stop  offset="0.69" style="stop-color:#B9B9B9"/>
		<stop  offset="0.8" style="stop-color:#AFAFAF"/>
		<stop  offset="0.92" style="stop-color:#A5A5A5"/>
	</linearGradient>
	<path fill="url(#SVGID_49_)" d="M227.734,34.652c1.5,0,2.41,0.484,2.41,1.102l-0.16,99.398c0,0.75-0.883,1.023-2.168,1.023
		c-1.582-0.273-2.332-0.5-2.332-1.121V35.402c0,0,1.039-0.75,2.332-0.75H227.734z"/>
	
		<linearGradient id="SVGID_50_" gradientUnits="userSpaceOnUse" x1="27.7012" y1="100.103" x2="21.4883" y2="100.103" gradientTransform="matrix(0.75 0 0 -0.75 240.3408 160.4902)">
		<stop  offset="0" style="stop-color:#B9B9B9"/>
		<stop  offset="0.15" style="stop-color:#F2F2F2"/>
		<stop  offset="0.25" style="stop-color:#F3F3F3"/>
		<stop  offset="0.52" style="stop-color:#D0D0D0"/>
		<stop  offset="0.69" style="stop-color:#B9B9B9"/>
		<stop  offset="0.8" style="stop-color:#AFAFAF"/>
		<stop  offset="0.92" style="stop-color:#A5A5A5"/>
	</linearGradient>
	<path fill="url(#SVGID_50_)" d="M258.707,34.652c1.5,0,2.41,0.484,2.41,1.102l-0.16,99.398c0,0.75-0.887,1.023-2.172,1.023
		c-1.578-0.273-2.328-0.5-2.328-1.121V35.402c0,0,1.035-0.75,2.328-0.75H258.707z"/>
	
		<linearGradient id="SVGID_51_" gradientUnits="userSpaceOnUse" x1="113.4888" y1="165.79" x2="21.4888" y2="165.79" gradientTransform="matrix(0.75 0 0 -0.75 192.8247 240.0645)">
		<stop  offset="0" style="stop-color:#BDA47F"/>
		<stop  offset="0.15" style="stop-color:#FFE0B3"/>
		<stop  offset="0.25" style="stop-color:#FFEED7"/>
		<stop  offset="0.52" style="stop-color:#DFC297"/>
		<stop  offset="0.69" style="stop-color:#C7AD86"/>
		<stop  offset="0.8" style="stop-color:#BCA37E"/>
		<stop  offset="0.92" style="stop-color:#B19A77"/>
		<stop  offset="1" style="stop-color:#CBB189"/>
	</linearGradient>
	<path fill="url(#SVGID_51_)" d="M208.941,114.223h69v3h-69V114.223z"/>
	
		<linearGradient id="SVGID_52_" gradientUnits="userSpaceOnUse" x1="26.895" y1="149.2871" x2="21.4888" y2="149.2871" gradientTransform="matrix(0.75 0 0 -0.75 192.3945 233.9414)">
		<stop  offset="0" style="stop-color:#BDA47F"/>
		<stop  offset="0.15" style="stop-color:#FFE0B3"/>
		<stop  offset="0.25" style="stop-color:#FFEED7"/>
		<stop  offset="0.52" style="stop-color:#DFC297"/>
		<stop  offset="0.69" style="stop-color:#C7AD86"/>
		<stop  offset="0.8" style="stop-color:#BCA37E"/>
		<stop  offset="0.92" style="stop-color:#B19A77"/>
		<stop  offset="1" style="stop-color:#CBB189"/>
	</linearGradient>
	<path fill="url(#SVGID_52_)" d="M210.012,108.102h0.75c0.75,0,1.805,0.703,1.805,1.609l-0.305,26.141h-3.75v-26.25
		c0-0.75,0.707-1.5,1.609-1.5H210.012z"/>
	
		<linearGradient id="SVGID_53_" gradientUnits="userSpaceOnUse" x1="26.3555" y1="165.3604" x2="21.4482" y2="165.3604" gradientTransform="matrix(0.75 0 0 -0.75 192.5854 239.8789)">
		<stop  offset="0" style="stop-color:#B37900"/>
		<stop  offset="0.15" style="stop-color:#F2AC45"/>
		<stop  offset="0.25" style="stop-color:#F7D4B3"/>
		<stop  offset="0.52" style="stop-color:#D39000"/>
		<stop  offset="0.69" style="stop-color:#BC8000"/>
		<stop  offset="0.8" style="stop-color:#B17800"/>
		<stop  offset="0.92" style="stop-color:#A77100"/>
		<stop  offset="1" style="stop-color:#C08300"/>
	</linearGradient>
	<path fill="url(#SVGID_53_)" d="M208.703,115.539c0-0.75,0.793-1.523,1.805-1.523c1.195,0.023,1.836,0.824,1.836,1.844
		c0.109,1.18-0.82,1.84-1.836,1.84c-1.055,0.09-1.836-0.824-1.836-1.84L208.703,115.539z"/>
	
		<linearGradient id="SVGID_54_" gradientUnits="userSpaceOnUse" x1="26.896" y1="149.2871" x2="21.4897" y2="149.2871" gradientTransform="matrix(0.75 0 0 -0.75 224.4526 233.9414)">
		<stop  offset="0" style="stop-color:#BDA47F"/>
		<stop  offset="0.15" style="stop-color:#FFE0B3"/>
		<stop  offset="0.25" style="stop-color:#FFEED7"/>
		<stop  offset="0.52" style="stop-color:#DFC297"/>
		<stop  offset="0.69" style="stop-color:#C7AD86"/>
		<stop  offset="0.8" style="stop-color:#BCA37E"/>
		<stop  offset="0.92" style="stop-color:#B19A77"/>
		<stop  offset="1" style="stop-color:#CBB189"/>
	</linearGradient>
	<path fill="url(#SVGID_54_)" d="M242.07,108.102h0.75c0.75,0,1.805,0.703,1.805,1.609l-0.305,26.141h-3.75v-26.25
		c0-0.75,0.707-1.5,1.609-1.5H242.07z"/>
	
		<linearGradient id="SVGID_55_" gradientUnits="userSpaceOnUse" x1="26.8999" y1="149.2871" x2="21.4878" y2="149.2871" gradientTransform="matrix(0.75 0 0 -0.75 240.501 233.9414)">
		<stop  offset="0" style="stop-color:#BDA47F"/>
		<stop  offset="0.15" style="stop-color:#FFE0B3"/>
		<stop  offset="0.25" style="stop-color:#FFEED7"/>
		<stop  offset="0.52" style="stop-color:#DFC297"/>
		<stop  offset="0.69" style="stop-color:#C7AD86"/>
		<stop  offset="0.8" style="stop-color:#BCA37E"/>
		<stop  offset="0.92" style="stop-color:#B19A77"/>
		<stop  offset="1" style="stop-color:#CBB189"/>
	</linearGradient>
	<path fill="url(#SVGID_55_)" d="M258.117,108.102h0.75c0.75,0,1.809,0.703,1.809,1.609l-0.309,26.141h-3.75v-26.25
		c0-0.75,0.707-1.5,1.609-1.5H258.117z"/>
	
		<linearGradient id="SVGID_56_" gradientUnits="userSpaceOnUse" x1="26.8989" y1="149.2871" x2="21.4878" y2="149.2871" gradientTransform="matrix(0.75 0 0 -0.75 256.5483 233.9414)">
		<stop  offset="0" style="stop-color:#BDA47F"/>
		<stop  offset="0.15" style="stop-color:#FFE0B3"/>
		<stop  offset="0.25" style="stop-color:#FFEED7"/>
		<stop  offset="0.52" style="stop-color:#DFC297"/>
		<stop  offset="0.69" style="stop-color:#C7AD86"/>
		<stop  offset="0.8" style="stop-color:#BCA37E"/>
		<stop  offset="0.92" style="stop-color:#B19A77"/>
		<stop  offset="1" style="stop-color:#CBB189"/>
	</linearGradient>
	<path fill="url(#SVGID_56_)" d="M274.164,108.102h0.75c0.75,0,1.809,0.703,1.809,1.609l-0.309,26.141h-3.75v-26.25
		c0-0.75,0.707-1.5,1.609-1.5H274.164z"/>
	
		<linearGradient id="SVGID_57_" gradientUnits="userSpaceOnUse" x1="26.356" y1="165.3604" x2="21.4487" y2="165.3604" gradientTransform="matrix(0.75 0 0 -0.75 224.644 240.1602)">
		<stop  offset="0" style="stop-color:#B37900"/>
		<stop  offset="0.15" style="stop-color:#F2AC45"/>
		<stop  offset="0.25" style="stop-color:#F7D4B3"/>
		<stop  offset="0.52" style="stop-color:#D39000"/>
		<stop  offset="0.69" style="stop-color:#BC8000"/>
		<stop  offset="0.8" style="stop-color:#B17800"/>
		<stop  offset="0.92" style="stop-color:#A77100"/>
		<stop  offset="1" style="stop-color:#C08300"/>
	</linearGradient>
	<path fill="url(#SVGID_57_)" d="M240.762,115.82c0-0.75,0.793-1.523,1.805-1.523c1.195,0.023,1.836,0.824,1.836,1.844
		c0.109,1.18-0.82,1.84-1.836,1.84c-1.055,0.09-1.836-0.824-1.836-1.84L240.762,115.82z"/>
	
		<linearGradient id="SVGID_58_" gradientUnits="userSpaceOnUse" x1="26.3584" y1="165.3584" x2="21.4512" y2="165.3584" gradientTransform="matrix(0.75 0 0 -0.75 240.6924 239.877)">
		<stop  offset="0" style="stop-color:#B37900"/>
		<stop  offset="0.15" style="stop-color:#F2AC45"/>
		<stop  offset="0.25" style="stop-color:#F7D4B3"/>
		<stop  offset="0.52" style="stop-color:#D39000"/>
		<stop  offset="0.69" style="stop-color:#BC8000"/>
		<stop  offset="0.8" style="stop-color:#B17800"/>
		<stop  offset="0.92" style="stop-color:#A77100"/>
		<stop  offset="1" style="stop-color:#C08300"/>
	</linearGradient>
	<path fill="url(#SVGID_58_)" d="M256.809,115.539c0-0.75,0.793-1.523,1.809-1.523c1.191,0.023,1.836,0.824,1.836,1.84
		c0.105,1.184-0.824,1.84-1.836,1.84c-1.059,0.094-1.836-0.824-1.836-1.84L256.809,115.539z"/>
	
		<linearGradient id="SVGID_59_" gradientUnits="userSpaceOnUse" x1="26.3564" y1="165.3584" x2="21.4492" y2="165.3584" gradientTransform="matrix(0.75 0 0 -0.75 256.7412 239.877)">
		<stop  offset="0" style="stop-color:#B37900"/>
		<stop  offset="0.15" style="stop-color:#F2AC45"/>
		<stop  offset="0.25" style="stop-color:#F7D4B3"/>
		<stop  offset="0.52" style="stop-color:#D39000"/>
		<stop  offset="0.69" style="stop-color:#BC8000"/>
		<stop  offset="0.8" style="stop-color:#B17800"/>
		<stop  offset="0.92" style="stop-color:#A77100"/>
		<stop  offset="1" style="stop-color:#C08300"/>
	</linearGradient>
	<path fill="url(#SVGID_59_)" d="M272.859,115.539c0-0.75,0.793-1.523,1.805-1.523c1.195,0.023,1.836,0.824,1.836,1.84
		c0.109,1.184-0.82,1.84-1.836,1.84c-1.055,0.094-1.836-0.824-1.836-1.84L272.859,115.539z"/>
	
		<linearGradient id="SVGID_60_" gradientUnits="userSpaceOnUse" x1="26.8989" y1="149.2871" x2="21.4878" y2="149.2871" gradientTransform="matrix(0.75 0 0 -0.75 208.4429 233.9414)">
		<stop  offset="0" style="stop-color:#BDA47F"/>
		<stop  offset="0.15" style="stop-color:#FFE0B3"/>
		<stop  offset="0.25" style="stop-color:#FFEED7"/>
		<stop  offset="0.52" style="stop-color:#DFC297"/>
		<stop  offset="0.69" style="stop-color:#C7AD86"/>
		<stop  offset="0.8" style="stop-color:#BCA37E"/>
		<stop  offset="0.92" style="stop-color:#B19A77"/>
		<stop  offset="1" style="stop-color:#CBB189"/>
	</linearGradient>
	<path fill="url(#SVGID_60_)" d="M226.059,108.102h0.75c0.75,0,1.809,0.703,1.809,1.609l-0.309,26.141h-3.75v-26.25
		c0-0.75,0.707-1.5,1.609-1.5H226.059z"/>
	
		<linearGradient id="SVGID_61_" gradientUnits="userSpaceOnUse" x1="26.3574" y1="165.3584" x2="21.4512" y2="165.3584" gradientTransform="matrix(0.75 0 0 -0.75 208.6343 240.1641)">
		<stop  offset="0" style="stop-color:#B37900"/>
		<stop  offset="0.15" style="stop-color:#F2AC45"/>
		<stop  offset="0.25" style="stop-color:#F7D4B3"/>
		<stop  offset="0.52" style="stop-color:#D39000"/>
		<stop  offset="0.69" style="stop-color:#BC8000"/>
		<stop  offset="0.8" style="stop-color:#B17800"/>
		<stop  offset="0.92" style="stop-color:#A77100"/>
		<stop  offset="1" style="stop-color:#C08300"/>
	</linearGradient>
	<path fill="url(#SVGID_61_)" d="M224.75,115.824c0-0.75,0.793-1.523,1.809-1.523c1.191,0.023,1.836,0.824,1.836,1.84
		c0.105,1.184-0.824,1.844-1.836,1.844c-1.059,0.09-1.836-0.824-1.836-1.844L224.75,115.824z"/>
	
		<linearGradient id="SVGID_62_" gradientUnits="userSpaceOnUse" x1="120.9546" y1="163.8213" x2="21.4907" y2="163.8213" gradientTransform="matrix(0.75 0 0 -0.75 189.917 261.2813)">
		<stop  offset="0" style="stop-color:#C3A156"/>
		<stop  offset="0.15" style="stop-color:#FED681"/>
		<stop  offset="0.25" style="stop-color:#FEE8C2"/>
		<stop  offset="0.52" style="stop-color:#DEB863"/>
		<stop  offset="0.69" style="stop-color:#C6A457"/>
		<stop  offset="0.8" style="stop-color:#BB9B52"/>
		<stop  offset="0.97" style="stop-color:#B0924D"/>
		<stop  offset="1" style="stop-color:#CBA859"/>
	</linearGradient>
	<path fill="url(#SVGID_62_)" d="M209.035,135.441h68.25c2.25,0,3.348,1.281,3.348,2.922c-0.348,1.578-1.367,2.969-3,2.969
		l-68.598,0.109c-1.5,0-3-1.438-3-3.078c0-1.422,1.309-2.973,2.938-2.973L209.035,135.441z"/>
</g>
</svg>
