<?xml version="1.0" encoding="utf-8"?>
<!-- Generator: Adobe Illustrator 16.0.0, SVG Export Plug-In . SVG Version: 6.00 Build 0)  -->
<!DOCTYPE svg PUBLIC "-//W3C//DTD SVG 1.1//EN" "http://www.w3.org/Graphics/SVG/1.1/DTD/svg11.dtd">
<svg preserveAspectRatio="none" version="1.1" id="图层_1" xmlns="http://www.w3.org/2000/svg" xmlns:xlink="http://www.w3.org/1999/xlink" x="0px" y="0px"
	 width="299.25px" height="220.492px" viewBox="30 12.195 299.25 220.492" enable-background="new 30 12.195 299.25 220.492"
	 xml:space="preserve">
<g id="surface496">
	
		<linearGradient id="SVGID_1_" gradientUnits="userSpaceOnUse" x1="27.4902" y1="147.791" x2="21.4902" y2="147.791" gradientTransform="matrix(0.75 0 0 -0.75 15.2925 138.0371)">
		<stop  offset="0" style="stop-color:#BDBDBD"/>
		<stop  offset="0.15" style="stop-color:#FFFFFF"/>
		<stop  offset="0.25" style="stop-color:#FFFFFF"/>
		<stop  offset="0.52" style="stop-color:#DFDFDF"/>
		<stop  offset="0.69" style="stop-color:#C7C7C7"/>
		<stop  offset="0.8" style="stop-color:#BCBCBC"/>
		<stop  offset="0.92" style="stop-color:#B1B1B1"/>
		<stop  offset="1" style="stop-color:#CBCBCB"/>
	</linearGradient>
	<path fill="url(#SVGID_1_)" d="M32.91,12.195h0.75c1.5,0,2.086,0.746,2.086,1.707l0.164,28.293h-4.5v-28.5
		c0-0.75,0.758-1.5,1.719-1.5H32.91z"/>
	
		<linearGradient id="SVGID_2_" gradientUnits="userSpaceOnUse" x1="27.4858" y1="147.791" x2="21.4858" y2="147.791" gradientTransform="matrix(0.75 0 0 -0.75 32.4556 138.0371)">
		<stop  offset="0" style="stop-color:#BDBDBD"/>
		<stop  offset="0.15" style="stop-color:#FFFFFF"/>
		<stop  offset="0.25" style="stop-color:#FFFFFF"/>
		<stop  offset="0.52" style="stop-color:#DFDFDF"/>
		<stop  offset="0.69" style="stop-color:#C7C7C7"/>
		<stop  offset="0.8" style="stop-color:#BCBCBC"/>
		<stop  offset="0.92" style="stop-color:#B1B1B1"/>
		<stop  offset="1" style="stop-color:#CBCBCB"/>
	</linearGradient>
	<path fill="url(#SVGID_2_)" d="M50.07,12.195h0.75c1.5,0,2.09,0.746,2.09,1.707l0.16,28.293h-4.5v-28.5c0-0.75,0.758-1.5,1.723-1.5
		H50.07z"/>
	
		<linearGradient id="SVGID_3_" gradientUnits="userSpaceOnUse" x1="27.4868" y1="147.791" x2="21.4868" y2="147.791" gradientTransform="matrix(0.75 0 0 -0.75 49.6191 138.0371)">
		<stop  offset="0" style="stop-color:#BDBDBD"/>
		<stop  offset="0.15" style="stop-color:#FFFFFF"/>
		<stop  offset="0.25" style="stop-color:#FFFFFF"/>
		<stop  offset="0.52" style="stop-color:#DFDFDF"/>
		<stop  offset="0.69" style="stop-color:#C7C7C7"/>
		<stop  offset="0.8" style="stop-color:#BCBCBC"/>
		<stop  offset="0.92" style="stop-color:#B1B1B1"/>
		<stop  offset="1" style="stop-color:#CBCBCB"/>
	</linearGradient>
	<path fill="url(#SVGID_3_)" d="M67.234,12.195h0.75c1.5,0,2.09,0.746,2.09,1.707l0.16,28.293h-4.5v-28.5
		c0-0.75,0.758-1.5,1.723-1.5H67.234z"/>
	
		<linearGradient id="SVGID_4_" gradientUnits="userSpaceOnUse" x1="27.4863" y1="147.791" x2="21.4863" y2="147.791" gradientTransform="matrix(0.75 0 0 -0.75 66.7832 138.0371)">
		<stop  offset="0" style="stop-color:#BDBDBD"/>
		<stop  offset="0.15" style="stop-color:#FFFFFF"/>
		<stop  offset="0.25" style="stop-color:#FFFFFF"/>
		<stop  offset="0.52" style="stop-color:#DFDFDF"/>
		<stop  offset="0.69" style="stop-color:#C7C7C7"/>
		<stop  offset="0.8" style="stop-color:#BCBCBC"/>
		<stop  offset="0.92" style="stop-color:#B1B1B1"/>
		<stop  offset="1" style="stop-color:#CBCBCB"/>
	</linearGradient>
	<path fill="url(#SVGID_4_)" d="M84.398,12.195h0.75c1.5,0,2.09,0.746,2.09,1.707l0.16,28.293h-4.5v-28.5
		c0-0.75,0.758-1.5,1.723-1.5H84.398z"/>
	
		<linearGradient id="SVGID_5_" gradientUnits="userSpaceOnUse" x1="220.4873" y1="167.7891" x2="220.4873" y2="162.7891" gradientTransform="matrix(0.75 0 0 -0.75 14.4312 144.4854)">
		<stop  offset="0" style="stop-color:#BDBDBD"/>
		<stop  offset="0.15" style="stop-color:#FFFFFF"/>
		<stop  offset="0.25" style="stop-color:#FFFFFF"/>
		<stop  offset="0.52" style="stop-color:#DFDFDF"/>
		<stop  offset="0.69" style="stop-color:#C7C7C7"/>
		<stop  offset="0.8" style="stop-color:#BCBCBC"/>
		<stop  offset="0.92" style="stop-color:#B1B1B1"/>
		<stop  offset="1" style="stop-color:#CBCBCB"/>
	</linearGradient>
	<path fill="url(#SVGID_5_)" d="M30.547,18.645h298.5v3.75h-298.5V18.645z"/>
	
		<linearGradient id="SVGID_6_" gradientUnits="userSpaceOnUse" x1="26.6821" y1="165.2217" x2="21.4478" y2="165.2217" gradientTransform="matrix(0.75 0 0 -0.75 32.6602 144.5986)">
		<stop  offset="0" style="stop-color:#858585"/>
		<stop  offset="0.15" style="stop-color:#BABBBB"/>
		<stop  offset="0.25" style="stop-color:#DADADA"/>
		<stop  offset="0.52" style="stop-color:#9D9E9E"/>
		<stop  offset="0.69" style="stop-color:#8B8C8C"/>
		<stop  offset="0.8" style="stop-color:#838484"/>
		<stop  offset="0.92" style="stop-color:#7C7D7D"/>
		<stop  offset="1" style="stop-color:#8F9090"/>
	</linearGradient>
	<path fill="url(#SVGID_6_)" d="M48.777,21.008c0-1.5,0.848-2.273,1.934-2.273c1.066,0.023,1.961,0.875,1.961,1.949
		c-0.145,1.074-0.879,1.949-1.961,1.949c-1.184-0.125-1.965-0.871-1.965-1.949L48.777,21.008z"/>
	
		<linearGradient id="SVGID_7_" gradientUnits="userSpaceOnUse" x1="26.6812" y1="165.2217" x2="21.4468" y2="165.2217" gradientTransform="matrix(0.75 0 0 -0.75 15.4966 144.2988)">
		<stop  offset="0" style="stop-color:#858585"/>
		<stop  offset="0.15" style="stop-color:#BABBBB"/>
		<stop  offset="0.25" style="stop-color:#DADADA"/>
		<stop  offset="0.52" style="stop-color:#9D9E9E"/>
		<stop  offset="0.69" style="stop-color:#8B8C8C"/>
		<stop  offset="0.8" style="stop-color:#838484"/>
		<stop  offset="0.92" style="stop-color:#7C7D7D"/>
		<stop  offset="1" style="stop-color:#8F9090"/>
	</linearGradient>
	<path fill="url(#SVGID_7_)" d="M31.613,20.707c0-1.5,0.848-2.273,1.934-2.273c1.066,0.023,1.961,0.875,1.961,1.949
		c-0.145,1.074-0.879,1.949-1.961,1.949c-1.184-0.125-1.965-0.871-1.965-1.949L31.613,20.707z"/>
	
		<linearGradient id="SVGID_8_" gradientUnits="userSpaceOnUse" x1="26.6821" y1="165.2217" x2="21.4478" y2="165.2217" gradientTransform="matrix(0.75 0 0 -0.75 49.8242 144.2988)">
		<stop  offset="0" style="stop-color:#858585"/>
		<stop  offset="0.15" style="stop-color:#BABBBB"/>
		<stop  offset="0.25" style="stop-color:#DADADA"/>
		<stop  offset="0.52" style="stop-color:#9D9E9E"/>
		<stop  offset="0.69" style="stop-color:#8B8C8C"/>
		<stop  offset="0.8" style="stop-color:#838484"/>
		<stop  offset="0.92" style="stop-color:#7C7D7D"/>
		<stop  offset="1" style="stop-color:#8F9090"/>
	</linearGradient>
	<path fill="url(#SVGID_8_)" d="M65.941,20.707c0-1.5,0.848-2.273,1.934-2.273c1.066,0.023,1.961,0.875,1.961,1.949
		c-0.145,1.074-0.879,1.949-1.961,1.949c-1.184-0.125-1.965-0.871-1.965-1.949L65.941,20.707z"/>
	
		<linearGradient id="SVGID_9_" gradientUnits="userSpaceOnUse" x1="26.6821" y1="165.2217" x2="21.4478" y2="165.2217" gradientTransform="matrix(0.75 0 0 -0.75 66.9878 144.2988)">
		<stop  offset="0" style="stop-color:#858585"/>
		<stop  offset="0.15" style="stop-color:#BABBBB"/>
		<stop  offset="0.25" style="stop-color:#DADADA"/>
		<stop  offset="0.52" style="stop-color:#9D9E9E"/>
		<stop  offset="0.69" style="stop-color:#8B8C8C"/>
		<stop  offset="0.8" style="stop-color:#838484"/>
		<stop  offset="0.92" style="stop-color:#7C7D7D"/>
		<stop  offset="1" style="stop-color:#8F9090"/>
	</linearGradient>
	<path fill="url(#SVGID_9_)" d="M83.105,20.707c0-1.5,0.848-2.273,1.93-2.273C86.105,18.457,87,19.309,87,20.383
		c-0.145,1.074-0.879,1.949-1.965,1.949c-1.18-0.125-1.961-0.871-1.961-1.949L83.105,20.707z"/>
	
		<linearGradient id="SVGID_10_" gradientUnits="userSpaceOnUse" x1="27.4868" y1="147.791" x2="21.4868" y2="147.791" gradientTransform="matrix(0.75 0 0 -0.75 101.0684 138.0371)">
		<stop  offset="0" style="stop-color:#BDBDBD"/>
		<stop  offset="0.15" style="stop-color:#FFFFFF"/>
		<stop  offset="0.25" style="stop-color:#FFFFFF"/>
		<stop  offset="0.52" style="stop-color:#DFDFDF"/>
		<stop  offset="0.69" style="stop-color:#C7C7C7"/>
		<stop  offset="0.8" style="stop-color:#BCBCBC"/>
		<stop  offset="0.92" style="stop-color:#B1B1B1"/>
		<stop  offset="1" style="stop-color:#CBCBCB"/>
	</linearGradient>
	<path fill="url(#SVGID_10_)" d="M118.684,12.195h0.75c1.5,0,2.09,0.746,2.09,1.707l0.16,28.293h-4.5v-28.5
		c0-0.75,0.758-1.5,1.723-1.5H118.684z"/>
	
		<linearGradient id="SVGID_11_" gradientUnits="userSpaceOnUse" x1="27.4868" y1="147.791" x2="21.4868" y2="147.791" gradientTransform="matrix(0.75 0 0 -0.75 118.2324 138.0371)">
		<stop  offset="0" style="stop-color:#BDBDBD"/>
		<stop  offset="0.15" style="stop-color:#FFFFFF"/>
		<stop  offset="0.25" style="stop-color:#FFFFFF"/>
		<stop  offset="0.52" style="stop-color:#DFDFDF"/>
		<stop  offset="0.69" style="stop-color:#C7C7C7"/>
		<stop  offset="0.8" style="stop-color:#BCBCBC"/>
		<stop  offset="0.92" style="stop-color:#B1B1B1"/>
		<stop  offset="1" style="stop-color:#CBCBCB"/>
	</linearGradient>
	<path fill="url(#SVGID_11_)" d="M135.848,12.195h0.75c1.5,0,2.09,0.746,2.09,1.707l0.16,28.293h-4.5v-28.5
		c0-0.75,0.758-1.5,1.723-1.5H135.848z"/>
	
		<linearGradient id="SVGID_12_" gradientUnits="userSpaceOnUse" x1="27.4868" y1="147.791" x2="21.4868" y2="147.791" gradientTransform="matrix(0.75 0 0 -0.75 135.396 138.0371)">
		<stop  offset="0" style="stop-color:#BDBDBD"/>
		<stop  offset="0.15" style="stop-color:#FFFFFF"/>
		<stop  offset="0.25" style="stop-color:#FFFFFF"/>
		<stop  offset="0.52" style="stop-color:#DFDFDF"/>
		<stop  offset="0.69" style="stop-color:#C7C7C7"/>
		<stop  offset="0.8" style="stop-color:#BCBCBC"/>
		<stop  offset="0.92" style="stop-color:#B1B1B1"/>
		<stop  offset="1" style="stop-color:#CBCBCB"/>
	</linearGradient>
	<path fill="url(#SVGID_12_)" d="M153.012,12.195h0.75c1.5,0,2.09,0.746,2.09,1.707l0.16,28.293h-4.5v-28.5
		c0-0.75,0.758-1.5,1.723-1.5H153.012z"/>
	
		<linearGradient id="SVGID_13_" gradientUnits="userSpaceOnUse" x1="26.6826" y1="165.2178" x2="21.4482" y2="165.2178" gradientTransform="matrix(0.75 0 0 -0.75 101.2729 144.5957)">
		<stop  offset="0" style="stop-color:#858585"/>
		<stop  offset="0.15" style="stop-color:#BABBBB"/>
		<stop  offset="0.25" style="stop-color:#DADADA"/>
		<stop  offset="0.52" style="stop-color:#9D9E9E"/>
		<stop  offset="0.69" style="stop-color:#8B8C8C"/>
		<stop  offset="0.8" style="stop-color:#838484"/>
		<stop  offset="0.92" style="stop-color:#7C7D7D"/>
		<stop  offset="1" style="stop-color:#8F9090"/>
	</linearGradient>
	<path fill="url(#SVGID_13_)" d="M117.391,21.008c0-1.5,0.848-2.273,1.93-2.273c1.07,0.023,1.965,0.871,1.965,1.949
		c-0.145,1.074-0.879,1.949-1.965,1.949c-1.18-0.125-1.961-0.875-1.961-1.949L117.391,21.008z"/>
	
		<linearGradient id="SVGID_14_" gradientUnits="userSpaceOnUse" x1="26.6831" y1="165.2178" x2="21.4487" y2="165.2178" gradientTransform="matrix(0.75 0 0 -0.75 118.437 144.2959)">
		<stop  offset="0" style="stop-color:#858585"/>
		<stop  offset="0.15" style="stop-color:#BABBBB"/>
		<stop  offset="0.25" style="stop-color:#DADADA"/>
		<stop  offset="0.52" style="stop-color:#9D9E9E"/>
		<stop  offset="0.69" style="stop-color:#8B8C8C"/>
		<stop  offset="0.8" style="stop-color:#838484"/>
		<stop  offset="0.92" style="stop-color:#7C7D7D"/>
		<stop  offset="1" style="stop-color:#8F9090"/>
	</linearGradient>
	<path fill="url(#SVGID_14_)" d="M134.555,20.707c0-1.5,0.848-2.273,1.93-2.273c1.07,0.023,1.965,0.871,1.965,1.949
		c-0.145,1.074-0.879,1.949-1.965,1.949c-1.18-0.125-1.961-0.875-1.961-1.949L134.555,20.707z"/>
	
		<linearGradient id="SVGID_15_" gradientUnits="userSpaceOnUse" x1="26.6836" y1="165.2178" x2="21.4492" y2="165.2178" gradientTransform="matrix(0.75 0 0 -0.75 135.6001 144.2959)">
		<stop  offset="0" style="stop-color:#858585"/>
		<stop  offset="0.15" style="stop-color:#BABBBB"/>
		<stop  offset="0.25" style="stop-color:#DADADA"/>
		<stop  offset="0.52" style="stop-color:#9D9E9E"/>
		<stop  offset="0.69" style="stop-color:#8B8C8C"/>
		<stop  offset="0.8" style="stop-color:#838484"/>
		<stop  offset="0.92" style="stop-color:#7C7D7D"/>
		<stop  offset="1" style="stop-color:#8F9090"/>
	</linearGradient>
	<path fill="url(#SVGID_15_)" d="M151.715,20.707c0-1.5,0.852-2.273,1.934-2.273c1.066,0.023,1.965,0.871,1.965,1.949
		c-0.148,1.074-0.879,1.949-1.965,1.949c-1.184-0.125-1.961-0.875-1.961-1.949L151.715,20.707z"/>
	
		<linearGradient id="SVGID_16_" gradientUnits="userSpaceOnUse" x1="27.4863" y1="147.791" x2="21.4863" y2="147.791" gradientTransform="matrix(0.75 0 0 -0.75 170.3345 138.0371)">
		<stop  offset="0" style="stop-color:#BDBDBD"/>
		<stop  offset="0.15" style="stop-color:#FFFFFF"/>
		<stop  offset="0.25" style="stop-color:#FFFFFF"/>
		<stop  offset="0.52" style="stop-color:#DFDFDF"/>
		<stop  offset="0.69" style="stop-color:#C7C7C7"/>
		<stop  offset="0.8" style="stop-color:#BCBCBC"/>
		<stop  offset="0.92" style="stop-color:#B1B1B1"/>
		<stop  offset="1" style="stop-color:#CBCBCB"/>
	</linearGradient>
	<path fill="url(#SVGID_16_)" d="M187.949,12.195h0.75c1.5,0,2.09,0.746,2.09,1.707l0.16,28.293h-4.5v-28.5
		c0-0.75,0.758-1.5,1.723-1.5H187.949z"/>
	
		<linearGradient id="SVGID_17_" gradientUnits="userSpaceOnUse" x1="27.4863" y1="147.791" x2="21.4863" y2="147.791" gradientTransform="matrix(0.75 0 0 -0.75 187.4204 138.0371)">
		<stop  offset="0" style="stop-color:#BDBDBD"/>
		<stop  offset="0.15" style="stop-color:#FFFFFF"/>
		<stop  offset="0.25" style="stop-color:#FFFFFF"/>
		<stop  offset="0.52" style="stop-color:#DFDFDF"/>
		<stop  offset="0.69" style="stop-color:#C7C7C7"/>
		<stop  offset="0.8" style="stop-color:#BCBCBC"/>
		<stop  offset="0.92" style="stop-color:#B1B1B1"/>
		<stop  offset="1" style="stop-color:#CBCBCB"/>
	</linearGradient>
	<path fill="url(#SVGID_17_)" d="M205.035,12.195h0.75c1.5,0,2.09,0.746,2.09,1.707l0.16,28.293h-4.5v-28.5
		c0-0.75,0.758-1.5,1.723-1.5H205.035z"/>
	
		<linearGradient id="SVGID_18_" gradientUnits="userSpaceOnUse" x1="27.4863" y1="147.791" x2="21.4863" y2="147.791" gradientTransform="matrix(0.75 0 0 -0.75 204.584 138.0371)">
		<stop  offset="0" style="stop-color:#BDBDBD"/>
		<stop  offset="0.15" style="stop-color:#FFFFFF"/>
		<stop  offset="0.25" style="stop-color:#FFFFFF"/>
		<stop  offset="0.52" style="stop-color:#DFDFDF"/>
		<stop  offset="0.69" style="stop-color:#C7C7C7"/>
		<stop  offset="0.8" style="stop-color:#BCBCBC"/>
		<stop  offset="0.92" style="stop-color:#B1B1B1"/>
		<stop  offset="1" style="stop-color:#CBCBCB"/>
	</linearGradient>
	<path fill="url(#SVGID_18_)" d="M222.199,12.195h0.75c1.5,0,2.09,0.746,2.09,1.707l0.16,28.293h-4.5v-28.5
		c0-0.75,0.758-1.5,1.723-1.5H222.199z"/>
	
		<linearGradient id="SVGID_19_" gradientUnits="userSpaceOnUse" x1="26.6821" y1="165.2217" x2="21.4478" y2="165.2217" gradientTransform="matrix(0.75 0 0 -0.75 170.5391 144.5986)">
		<stop  offset="0" style="stop-color:#858585"/>
		<stop  offset="0.15" style="stop-color:#BABBBB"/>
		<stop  offset="0.25" style="stop-color:#DADADA"/>
		<stop  offset="0.52" style="stop-color:#9D9E9E"/>
		<stop  offset="0.69" style="stop-color:#8B8C8C"/>
		<stop  offset="0.8" style="stop-color:#838484"/>
		<stop  offset="0.92" style="stop-color:#7C7D7D"/>
		<stop  offset="1" style="stop-color:#8F9090"/>
	</linearGradient>
	<path fill="url(#SVGID_19_)" d="M186.656,21.008c0-1.5,0.848-2.273,1.934-2.273c1.066,0.023,1.961,0.875,1.961,1.949
		c-0.145,1.074-0.879,1.949-1.961,1.949c-1.184-0.125-1.965-0.871-1.965-1.949L186.656,21.008z"/>
	
		<linearGradient id="SVGID_20_" gradientUnits="userSpaceOnUse" x1="26.6821" y1="165.2217" x2="21.4478" y2="165.2217" gradientTransform="matrix(0.75 0 0 -0.75 187.625 144.2988)">
		<stop  offset="0" style="stop-color:#858585"/>
		<stop  offset="0.15" style="stop-color:#BABBBB"/>
		<stop  offset="0.25" style="stop-color:#DADADA"/>
		<stop  offset="0.52" style="stop-color:#9D9E9E"/>
		<stop  offset="0.69" style="stop-color:#8B8C8C"/>
		<stop  offset="0.8" style="stop-color:#838484"/>
		<stop  offset="0.92" style="stop-color:#7C7D7D"/>
		<stop  offset="1" style="stop-color:#8F9090"/>
	</linearGradient>
	<path fill="url(#SVGID_20_)" d="M203.742,20.707c0-1.5,0.848-2.273,1.934-2.273c1.066,0.023,1.961,0.875,1.961,1.949
		c-0.145,1.074-0.879,1.949-1.961,1.949c-1.184-0.125-1.965-0.871-1.965-1.949L203.742,20.707z"/>
	
		<linearGradient id="SVGID_21_" gradientUnits="userSpaceOnUse" x1="26.6821" y1="165.2217" x2="21.4478" y2="165.2217" gradientTransform="matrix(0.75 0 0 -0.75 204.7886 144.2988)">
		<stop  offset="0" style="stop-color:#858585"/>
		<stop  offset="0.15" style="stop-color:#BABBBB"/>
		<stop  offset="0.25" style="stop-color:#DADADA"/>
		<stop  offset="0.52" style="stop-color:#9D9E9E"/>
		<stop  offset="0.69" style="stop-color:#8B8C8C"/>
		<stop  offset="0.8" style="stop-color:#838484"/>
		<stop  offset="0.92" style="stop-color:#7C7D7D"/>
		<stop  offset="1" style="stop-color:#8F9090"/>
	</linearGradient>
	<path fill="url(#SVGID_21_)" d="M220.906,20.707c0-1.5,0.848-2.273,1.93-2.273c1.07,0.023,1.965,0.875,1.965,1.949
		c-0.145,1.074-0.879,1.949-1.965,1.949c-1.18-0.125-1.961-0.871-1.961-1.949L220.906,20.707z"/>
	
		<linearGradient id="SVGID_22_" gradientUnits="userSpaceOnUse" x1="27.4878" y1="147.791" x2="21.4878" y2="147.791" gradientTransform="matrix(0.75 0 0 -0.75 83.9463 138.0371)">
		<stop  offset="0" style="stop-color:#BDBDBD"/>
		<stop  offset="0.15" style="stop-color:#FFFFFF"/>
		<stop  offset="0.25" style="stop-color:#FFFFFF"/>
		<stop  offset="0.52" style="stop-color:#DFDFDF"/>
		<stop  offset="0.69" style="stop-color:#C7C7C7"/>
		<stop  offset="0.8" style="stop-color:#BCBCBC"/>
		<stop  offset="0.92" style="stop-color:#B1B1B1"/>
		<stop  offset="1" style="stop-color:#CBCBCB"/>
	</linearGradient>
	<path fill="url(#SVGID_22_)" d="M101.563,12.195h0.75c1.5,0,2.09,0.746,2.09,1.707l0.16,28.293h-4.5v-28.5
		c0-0.75,0.758-1.5,1.723-1.5H101.563z"/>
	
		<linearGradient id="SVGID_23_" gradientUnits="userSpaceOnUse" x1="26.6841" y1="165.2217" x2="21.4497" y2="165.2217" gradientTransform="matrix(0.75 0 0 -0.75 84.1509 144.5986)">
		<stop  offset="0" style="stop-color:#858585"/>
		<stop  offset="0.15" style="stop-color:#BABBBB"/>
		<stop  offset="0.25" style="stop-color:#DADADA"/>
		<stop  offset="0.52" style="stop-color:#9D9E9E"/>
		<stop  offset="0.69" style="stop-color:#8B8C8C"/>
		<stop  offset="0.8" style="stop-color:#838484"/>
		<stop  offset="0.92" style="stop-color:#7C7D7D"/>
		<stop  offset="1" style="stop-color:#8F9090"/>
	</linearGradient>
	<path fill="url(#SVGID_23_)" d="M100.266,21.008c0-1.5,0.852-2.273,1.934-2.273c1.066,0.023,1.965,0.875,1.965,1.949
		c-0.148,1.074-0.879,1.949-1.965,1.949c-1.184-0.125-1.961-0.871-1.961-1.949L100.266,21.008z"/>
	
		<linearGradient id="SVGID_24_" gradientUnits="userSpaceOnUse" x1="27.4888" y1="147.791" x2="21.4888" y2="147.791" gradientTransform="matrix(0.75 0 0 -0.75 152.5591 138.0371)">
		<stop  offset="0" style="stop-color:#BDBDBD"/>
		<stop  offset="0.15" style="stop-color:#FFFFFF"/>
		<stop  offset="0.25" style="stop-color:#FFFFFF"/>
		<stop  offset="0.52" style="stop-color:#DFDFDF"/>
		<stop  offset="0.69" style="stop-color:#C7C7C7"/>
		<stop  offset="0.8" style="stop-color:#BCBCBC"/>
		<stop  offset="0.92" style="stop-color:#B1B1B1"/>
		<stop  offset="1" style="stop-color:#CBCBCB"/>
	</linearGradient>
	<path fill="url(#SVGID_24_)" d="M170.176,12.195h0.75c1.5,0,2.09,0.746,2.09,1.707l0.16,28.293h-4.5v-28.5
		c0-0.75,0.758-1.5,1.723-1.5H170.176z"/>
	
		<linearGradient id="SVGID_25_" gradientUnits="userSpaceOnUse" x1="26.6846" y1="165.2178" x2="21.4453" y2="165.2178" gradientTransform="matrix(0.75 0 0 -0.75 152.7637 144.5957)">
		<stop  offset="0" style="stop-color:#858585"/>
		<stop  offset="0.15" style="stop-color:#BABBBB"/>
		<stop  offset="0.25" style="stop-color:#DADADA"/>
		<stop  offset="0.52" style="stop-color:#9D9E9E"/>
		<stop  offset="0.69" style="stop-color:#8B8C8C"/>
		<stop  offset="0.8" style="stop-color:#838484"/>
		<stop  offset="0.92" style="stop-color:#7C7D7D"/>
		<stop  offset="1" style="stop-color:#8F9090"/>
	</linearGradient>
	<path fill="url(#SVGID_25_)" d="M168.879,21.008c0-1.5,0.848-2.273,1.934-2.273c1.066,0.023,1.965,0.871,1.965,1.949
		c-0.148,1.074-0.879,1.949-1.965,1.949c-1.184-0.125-1.965-0.875-1.965-1.949L168.879,21.008z"/>
	
		<linearGradient id="SVGID_26_" gradientUnits="userSpaceOnUse" x1="27.4868" y1="147.791" x2="21.4868" y2="147.791" gradientTransform="matrix(0.75 0 0 -0.75 221.4668 138.0371)">
		<stop  offset="0" style="stop-color:#BDBDBD"/>
		<stop  offset="0.15" style="stop-color:#FFFFFF"/>
		<stop  offset="0.25" style="stop-color:#FFFFFF"/>
		<stop  offset="0.52" style="stop-color:#DFDFDF"/>
		<stop  offset="0.69" style="stop-color:#C7C7C7"/>
		<stop  offset="0.8" style="stop-color:#BCBCBC"/>
		<stop  offset="0.92" style="stop-color:#B1B1B1"/>
		<stop  offset="1" style="stop-color:#CBCBCB"/>
	</linearGradient>
	<path fill="url(#SVGID_26_)" d="M239.082,12.195h0.75c1.5,0,2.09,0.746,2.09,1.707l0.16,28.293h-4.5v-28.5
		c0-0.75,0.758-1.5,1.723-1.5H239.082z"/>
	
		<linearGradient id="SVGID_27_" gradientUnits="userSpaceOnUse" x1="27.4863" y1="147.791" x2="21.4863" y2="147.791" gradientTransform="matrix(0.75 0 0 -0.75 238.6313 138.0371)">
		<stop  offset="0" style="stop-color:#BDBDBD"/>
		<stop  offset="0.15" style="stop-color:#FFFFFF"/>
		<stop  offset="0.25" style="stop-color:#FFFFFF"/>
		<stop  offset="0.52" style="stop-color:#DFDFDF"/>
		<stop  offset="0.69" style="stop-color:#C7C7C7"/>
		<stop  offset="0.8" style="stop-color:#BCBCBC"/>
		<stop  offset="0.92" style="stop-color:#B1B1B1"/>
		<stop  offset="1" style="stop-color:#CBCBCB"/>
	</linearGradient>
	<path fill="url(#SVGID_27_)" d="M256.246,12.195h0.75c1.5,0,2.09,0.746,2.09,1.707l0.16,28.293h-4.5v-28.5
		c0-0.75,0.758-1.5,1.723-1.5H256.246z"/>
	
		<linearGradient id="SVGID_28_" gradientUnits="userSpaceOnUse" x1="27.4883" y1="147.791" x2="21.4883" y2="147.791" gradientTransform="matrix(0.75 0 0 -0.75 255.7935 138.0371)">
		<stop  offset="0" style="stop-color:#BDBDBD"/>
		<stop  offset="0.15" style="stop-color:#FFFFFF"/>
		<stop  offset="0.25" style="stop-color:#FFFFFF"/>
		<stop  offset="0.52" style="stop-color:#DFDFDF"/>
		<stop  offset="0.69" style="stop-color:#C7C7C7"/>
		<stop  offset="0.8" style="stop-color:#BCBCBC"/>
		<stop  offset="0.92" style="stop-color:#B1B1B1"/>
		<stop  offset="1" style="stop-color:#CBCBCB"/>
	</linearGradient>
	<path fill="url(#SVGID_28_)" d="M273.41,12.195h0.75c1.5,0,2.09,0.746,2.09,1.707l0.16,28.293h-4.5v-28.5
		c0-0.75,0.758-1.5,1.723-1.5H273.41z"/>
	
		<linearGradient id="SVGID_29_" gradientUnits="userSpaceOnUse" x1="26.6826" y1="165.2217" x2="21.4482" y2="165.2217" gradientTransform="matrix(0.75 0 0 -0.75 221.6714 144.5986)">
		<stop  offset="0" style="stop-color:#858585"/>
		<stop  offset="0.15" style="stop-color:#BABBBB"/>
		<stop  offset="0.25" style="stop-color:#DADADA"/>
		<stop  offset="0.52" style="stop-color:#9D9E9E"/>
		<stop  offset="0.69" style="stop-color:#8B8C8C"/>
		<stop  offset="0.8" style="stop-color:#838484"/>
		<stop  offset="0.92" style="stop-color:#7C7D7D"/>
		<stop  offset="1" style="stop-color:#8F9090"/>
	</linearGradient>
	<path fill="url(#SVGID_29_)" d="M237.789,21.008c0-1.5,0.848-2.273,1.93-2.273c1.07,0.023,1.965,0.875,1.965,1.949
		c-0.145,1.074-0.879,1.949-1.965,1.949c-1.18-0.125-1.961-0.871-1.961-1.949L237.789,21.008z"/>
	
		<linearGradient id="SVGID_30_" gradientUnits="userSpaceOnUse" x1="26.6821" y1="165.2217" x2="21.4478" y2="165.2217" gradientTransform="matrix(0.75 0 0 -0.75 238.8359 144.2988)">
		<stop  offset="0" style="stop-color:#858585"/>
		<stop  offset="0.15" style="stop-color:#BABBBB"/>
		<stop  offset="0.25" style="stop-color:#DADADA"/>
		<stop  offset="0.52" style="stop-color:#9D9E9E"/>
		<stop  offset="0.69" style="stop-color:#8B8C8C"/>
		<stop  offset="0.8" style="stop-color:#838484"/>
		<stop  offset="0.92" style="stop-color:#7C7D7D"/>
		<stop  offset="1" style="stop-color:#8F9090"/>
	</linearGradient>
	<path fill="url(#SVGID_30_)" d="M254.953,20.707c0-1.5,0.848-2.273,1.934-2.273c1.066,0.023,1.961,0.875,1.961,1.949
		c-0.145,1.074-0.879,1.949-1.961,1.949c-1.184-0.125-1.965-0.871-1.965-1.949L254.953,20.707z"/>
	
		<linearGradient id="SVGID_31_" gradientUnits="userSpaceOnUse" x1="26.6841" y1="165.2217" x2="21.4448" y2="165.2217" gradientTransform="matrix(0.75 0 0 -0.75 255.998 144.2988)">
		<stop  offset="0" style="stop-color:#858585"/>
		<stop  offset="0.15" style="stop-color:#BABBBB"/>
		<stop  offset="0.25" style="stop-color:#DADADA"/>
		<stop  offset="0.52" style="stop-color:#9D9E9E"/>
		<stop  offset="0.69" style="stop-color:#8B8C8C"/>
		<stop  offset="0.8" style="stop-color:#838484"/>
		<stop  offset="0.92" style="stop-color:#7C7D7D"/>
		<stop  offset="1" style="stop-color:#8F9090"/>
	</linearGradient>
	<path fill="url(#SVGID_31_)" d="M272.113,20.707c0-1.5,0.848-2.273,1.934-2.273c1.066,0.023,1.965,0.875,1.965,1.949
		c-0.148,1.074-0.879,1.949-1.965,1.949c-1.184-0.125-1.965-0.871-1.965-1.949L272.113,20.707z"/>
	
		<linearGradient id="SVGID_32_" gradientUnits="userSpaceOnUse" x1="27.4858" y1="147.791" x2="21.4858" y2="147.791" gradientTransform="matrix(0.75 0 0 -0.75 290.0806 138.0371)">
		<stop  offset="0" style="stop-color:#BDBDBD"/>
		<stop  offset="0.15" style="stop-color:#FFFFFF"/>
		<stop  offset="0.25" style="stop-color:#FFFFFF"/>
		<stop  offset="0.52" style="stop-color:#DFDFDF"/>
		<stop  offset="0.69" style="stop-color:#C7C7C7"/>
		<stop  offset="0.8" style="stop-color:#BCBCBC"/>
		<stop  offset="0.92" style="stop-color:#B1B1B1"/>
		<stop  offset="1" style="stop-color:#CBCBCB"/>
	</linearGradient>
	<path fill="url(#SVGID_32_)" d="M307.695,12.195h0.75c1.5,0,2.09,0.746,2.09,1.707l0.16,28.293h-4.5v-28.5
		c0-0.75,0.758-1.5,1.723-1.5H307.695z"/>
	
		<linearGradient id="SVGID_33_" gradientUnits="userSpaceOnUse" x1="27.4888" y1="147.791" x2="21.4888" y2="147.791" gradientTransform="matrix(0.75 0 0 -0.75 307.2427 138.0371)">
		<stop  offset="0" style="stop-color:#BDBDBD"/>
		<stop  offset="0.15" style="stop-color:#FFFFFF"/>
		<stop  offset="0.25" style="stop-color:#FFFFFF"/>
		<stop  offset="0.52" style="stop-color:#DFDFDF"/>
		<stop  offset="0.69" style="stop-color:#C7C7C7"/>
		<stop  offset="0.8" style="stop-color:#BCBCBC"/>
		<stop  offset="0.92" style="stop-color:#B1B1B1"/>
		<stop  offset="1" style="stop-color:#CBCBCB"/>
	</linearGradient>
	<path fill="url(#SVGID_33_)" d="M324.859,12.195h0.75c1.5,0,2.09,0.746,2.09,1.707l0.16,28.293h-4.5v-28.5
		c0-0.75,0.758-1.5,1.723-1.5H324.859z"/>
	
		<linearGradient id="SVGID_34_" gradientUnits="userSpaceOnUse" x1="26.6826" y1="165.2178" x2="21.4482" y2="165.2178" gradientTransform="matrix(0.75 0 0 -0.75 290.2847 144.5957)">
		<stop  offset="0" style="stop-color:#858585"/>
		<stop  offset="0.15" style="stop-color:#BABBBB"/>
		<stop  offset="0.25" style="stop-color:#DADADA"/>
		<stop  offset="0.52" style="stop-color:#9D9E9E"/>
		<stop  offset="0.69" style="stop-color:#8B8C8C"/>
		<stop  offset="0.8" style="stop-color:#838484"/>
		<stop  offset="0.92" style="stop-color:#7C7D7D"/>
		<stop  offset="1" style="stop-color:#8F9090"/>
	</linearGradient>
	<path fill="url(#SVGID_34_)" d="M306.402,21.008c0-1.5,0.848-2.273,1.93-2.273c1.07,0.023,1.965,0.871,1.965,1.949
		c-0.145,1.074-0.879,1.949-1.965,1.949c-1.18-0.125-1.961-0.875-1.961-1.949L306.402,21.008z"/>
	
		<linearGradient id="SVGID_35_" gradientUnits="userSpaceOnUse" x1="26.6821" y1="165.2178" x2="21.4478" y2="165.2178" gradientTransform="matrix(0.75 0 0 -0.75 307.4492 144.2959)">
		<stop  offset="0" style="stop-color:#858585"/>
		<stop  offset="0.15" style="stop-color:#BABBBB"/>
		<stop  offset="0.25" style="stop-color:#DADADA"/>
		<stop  offset="0.52" style="stop-color:#9D9E9E"/>
		<stop  offset="0.69" style="stop-color:#8B8C8C"/>
		<stop  offset="0.8" style="stop-color:#838484"/>
		<stop  offset="0.92" style="stop-color:#7C7D7D"/>
		<stop  offset="1" style="stop-color:#8F9090"/>
	</linearGradient>
	<path fill="url(#SVGID_35_)" d="M323.566,20.707c0-1.5,0.848-2.273,1.934-2.273c1.066,0.023,1.961,0.871,1.961,1.949
		c-0.145,1.074-0.879,1.949-1.961,1.949c-1.184-0.125-1.965-0.875-1.965-1.949L323.566,20.707z"/>
	
		<linearGradient id="SVGID_36_" gradientUnits="userSpaceOnUse" x1="27.4873" y1="147.791" x2="21.4873" y2="147.791" gradientTransform="matrix(0.75 0 0 -0.75 272.9585 138.0371)">
		<stop  offset="0" style="stop-color:#BDBDBD"/>
		<stop  offset="0.15" style="stop-color:#FFFFFF"/>
		<stop  offset="0.25" style="stop-color:#FFFFFF"/>
		<stop  offset="0.52" style="stop-color:#DFDFDF"/>
		<stop  offset="0.69" style="stop-color:#C7C7C7"/>
		<stop  offset="0.8" style="stop-color:#BCBCBC"/>
		<stop  offset="0.92" style="stop-color:#B1B1B1"/>
		<stop  offset="1" style="stop-color:#CBCBCB"/>
	</linearGradient>
	<path fill="url(#SVGID_36_)" d="M290.574,12.195h0.75c1.5,0,2.09,0.746,2.09,1.707l0.16,28.293h-4.5v-28.5
		c0-0.75,0.758-1.5,1.723-1.5H290.574z"/>
	
		<linearGradient id="SVGID_37_" gradientUnits="userSpaceOnUse" x1="26.6841" y1="165.2217" x2="21.4497" y2="165.2217" gradientTransform="matrix(0.75 0 0 -0.75 273.1626 144.5986)">
		<stop  offset="0" style="stop-color:#858585"/>
		<stop  offset="0.15" style="stop-color:#BABBBB"/>
		<stop  offset="0.25" style="stop-color:#DADADA"/>
		<stop  offset="0.52" style="stop-color:#9D9E9E"/>
		<stop  offset="0.69" style="stop-color:#8B8C8C"/>
		<stop  offset="0.8" style="stop-color:#838484"/>
		<stop  offset="0.92" style="stop-color:#7C7D7D"/>
		<stop  offset="1" style="stop-color:#8F9090"/>
	</linearGradient>
	<path fill="url(#SVGID_37_)" d="M289.277,21.008c0-1.5,0.852-2.273,1.934-2.273c1.066,0.023,1.965,0.875,1.965,1.949
		c-0.148,1.074-0.879,1.949-1.965,1.949c-1.184-0.125-1.961-0.871-1.961-1.949L289.277,21.008z"/>
	
		<linearGradient id="SVGID_38_" gradientUnits="userSpaceOnUse" x1="420.4873" y1="40.1675" x2="21.4873" y2="40.1674" gradientTransform="matrix(0.75 0 0 -0.75 13.8838 167.0977)">
		<stop  offset="0" style="stop-color:#B9B9B9"/>
		<stop  offset="0.15" style="stop-color:#F2F2F2"/>
		<stop  offset="0.25" style="stop-color:#F3F3F3"/>
		<stop  offset="0.52" style="stop-color:#D0D0D0"/>
		<stop  offset="0.69" style="stop-color:#B9B9B9"/>
		<stop  offset="0.8" style="stop-color:#AFAFAF"/>
		<stop  offset="0.92" style="stop-color:#A5A5A5"/>
	</linearGradient>
	<path fill="url(#SVGID_38_)" d="M32.25,41.258H327c1.5,0,2.25,1.043,2.25,2.363v186.637c0,1.5-1.074,2.43-2.402,2.43l-294.598-0.18
		c-1.5,0-2.25-0.949-2.25-2.273V43.508c0-1.5,1.074-2.25,2.402-2.25H32.25z"/>
	
		<linearGradient id="SVGID_39_" gradientUnits="userSpaceOnUse" x1="420.4873" y1="162.7832" x2="21.4873" y2="162.7832" gradientTransform="matrix(0.75 0 0 -0.75 13.8838 351.0205)">
		<stop  offset="0" style="stop-color:#9FA0A0"/>
		<stop  offset="0.15" style="stop-color:#DADBDB"/>
		<stop  offset="0.25" style="stop-color:#DDDEDE"/>
		<stop  offset="0.52" style="stop-color:#B3B4B4"/>
		<stop  offset="0.69" style="stop-color:#9FA0A0"/>
		<stop  offset="0.8" style="stop-color:#969797"/>
		<stop  offset="0.92" style="stop-color:#8E8E8E"/>
	</linearGradient>
	<path fill="url(#SVGID_39_)" d="M329.25,225.18v5.25c0,1.5-1.074,2.258-2.402,2.258L32.25,232.68c-1.5,0-2.25-1.121-2.25-2.441
		v-5.059H329.25z"/>
	
		<linearGradient id="SVGID_40_" gradientUnits="userSpaceOnUse" x1="420.4873" y1="631.21" x2="21.4873" y2="631.2099" gradientTransform="matrix(0.75 0 0 0.75 13.8838 -428.3965)">
		<stop  offset="0" style="stop-color:#9FA0A0"/>
		<stop  offset="0.15" style="stop-color:#DADBDB"/>
		<stop  offset="0.25" style="stop-color:#DDDEDE"/>
		<stop  offset="0.52" style="stop-color:#B3B4B4"/>
		<stop  offset="0.69" style="stop-color:#9FA0A0"/>
		<stop  offset="0.8" style="stop-color:#969797"/>
		<stop  offset="0.92" style="stop-color:#8E8E8E"/>
	</linearGradient>
	<path fill="url(#SVGID_40_)" d="M329.25,48.762v-5.25c0-1.5-1.074-2.254-2.402-2.254L32.25,41.262c-1.5,0-2.25,1.125-2.25,2.445
		v5.055H329.25z"/>
	
		<linearGradient id="SVGID_41_" gradientUnits="userSpaceOnUse" x1="26.9746" y1="149.79" x2="21.459" y2="149.79" gradientTransform="matrix(0.75 0 0 -0.75 16.7529 179.0449)">
		<stop  offset="0" style="stop-color:#C7C7C7"/>
		<stop  offset="0.15" style="stop-color:#FFFFFF"/>
		<stop  offset="0.25" style="stop-color:#FFFFFF"/>
		<stop  offset="0.52" style="stop-color:#DFDFDF"/>
		<stop  offset="0.69" style="stop-color:#C7C7C7"/>
		<stop  offset="0.8" style="stop-color:#BCBCBC"/>
		<stop  offset="0.92" style="stop-color:#B1B1B1"/>
	</linearGradient>
	<path fill="url(#SVGID_41_)" d="M33.621,53.203h2.25c0.75,0,1.113,0.48,1.113,1.105l-0.363,24.395c0,0.75-0.145,1.445-0.773,1.445
		l-2.227,0.055c0,0-0.773-0.582-0.773-1.203l0.023-25.047c0,0,0.484-0.75,1.109-0.75H33.621z"/>
	
		<linearGradient id="SVGID_42_" gradientUnits="userSpaceOnUse" x1="26.9707" y1="149.7871" x2="21.4609" y2="149.7871" gradientTransform="matrix(0.75 0 0 -0.75 35.377 191.0156)">
		<stop  offset="0" style="stop-color:#C7C7C7"/>
		<stop  offset="0.15" style="stop-color:#FFFFFF"/>
		<stop  offset="0.25" style="stop-color:#FFFFFF"/>
		<stop  offset="0.52" style="stop-color:#DFDFDF"/>
		<stop  offset="0.69" style="stop-color:#C7C7C7"/>
		<stop  offset="0.8" style="stop-color:#BCBCBC"/>
		<stop  offset="0.92" style="stop-color:#B1B1B1"/>
	</linearGradient>
	<path fill="url(#SVGID_42_)" d="M52.242,65.176h2.25c0.75,0,1.113,0.48,1.113,1.105l-0.363,24.395c0,0.75-0.145,1.445-0.77,1.445
		l-2.23,0.055c0,0-0.77-0.582-0.77-1.207l0.02-25.043c0,0,0.488-0.75,1.113-0.75H52.242z"/>
	
		<linearGradient id="SVGID_43_" gradientUnits="userSpaceOnUse" x1="26.9741" y1="149.7871" x2="21.4585" y2="149.7871" gradientTransform="matrix(0.75 0 0 -0.75 56.3628 203.8115)">
		<stop  offset="0" style="stop-color:#C7C7C7"/>
		<stop  offset="0.15" style="stop-color:#FFFFFF"/>
		<stop  offset="0.25" style="stop-color:#FFFFFF"/>
		<stop  offset="0.52" style="stop-color:#DFDFDF"/>
		<stop  offset="0.69" style="stop-color:#C7C7C7"/>
		<stop  offset="0.8" style="stop-color:#BCBCBC"/>
		<stop  offset="0.92" style="stop-color:#B1B1B1"/>
	</linearGradient>
	<path fill="url(#SVGID_43_)" d="M73.23,77.973h2.25c0.75,0,1.113,0.477,1.113,1.102l-0.363,24.398c0,0.75-0.145,1.441-0.773,1.441
		l-2.227,0.059c0,0-0.773-0.582-0.773-1.207l0.023-25.043c0,0,0.484-0.75,1.109-0.75H73.23z"/>
	
		<linearGradient id="SVGID_44_" gradientUnits="userSpaceOnUse" x1="26.9722" y1="149.7842" x2="21.4614" y2="149.7842" gradientTransform="matrix(0.75 0 0 -0.75 77.3486 214.459)">
		<stop  offset="0" style="stop-color:#C7C7C7"/>
		<stop  offset="0.15" style="stop-color:#FFFFFF"/>
		<stop  offset="0.25" style="stop-color:#FFFFFF"/>
		<stop  offset="0.52" style="stop-color:#DFDFDF"/>
		<stop  offset="0.69" style="stop-color:#C7C7C7"/>
		<stop  offset="0.8" style="stop-color:#BCBCBC"/>
		<stop  offset="0.92" style="stop-color:#B1B1B1"/>
	</linearGradient>
	<path fill="url(#SVGID_44_)" d="M94.215,88.621h2.25c0.75,0,1.113,0.477,1.113,1.102l-0.363,24.398c0,0.75-0.145,1.441-0.77,1.441
		l-2.23,0.059c0,0-0.77-0.582-0.77-1.207l0.02-25.043c0,0,0.484-0.75,1.113-0.75H94.215z"/>
	
		<linearGradient id="SVGID_45_" gradientUnits="userSpaceOnUse" x1="26.9712" y1="149.79" x2="21.4604" y2="149.79" gradientTransform="matrix(0.75 0 0 -0.75 98.334 226.0479)">
		<stop  offset="0" style="stop-color:#C7C7C7"/>
		<stop  offset="0.15" style="stop-color:#FFFFFF"/>
		<stop  offset="0.25" style="stop-color:#FFFFFF"/>
		<stop  offset="0.52" style="stop-color:#DFDFDF"/>
		<stop  offset="0.69" style="stop-color:#C7C7C7"/>
		<stop  offset="0.8" style="stop-color:#BCBCBC"/>
		<stop  offset="0.92" style="stop-color:#B1B1B1"/>
	</linearGradient>
	<path fill="url(#SVGID_45_)" d="M115.199,100.207h2.25c0.75,0,1.113,0.48,1.113,1.105l-0.363,24.395c0,0.75-0.145,1.445-0.77,1.445
		l-2.23,0.055c0,0-0.77-0.582-0.77-1.203l0.02-25.047c0,0,0.488-0.75,1.113-0.75H115.199z"/>
	
		<linearGradient id="SVGID_46_" gradientUnits="userSpaceOnUse" x1="26.9746" y1="149.7881" x2="21.459" y2="149.7881" gradientTransform="matrix(0.75 0 0 -0.75 119.3198 237.6367)">
		<stop  offset="0" style="stop-color:#C7C7C7"/>
		<stop  offset="0.15" style="stop-color:#FFFFFF"/>
		<stop  offset="0.25" style="stop-color:#FFFFFF"/>
		<stop  offset="0.52" style="stop-color:#DFDFDF"/>
		<stop  offset="0.69" style="stop-color:#C7C7C7"/>
		<stop  offset="0.8" style="stop-color:#BCBCBC"/>
		<stop  offset="0.92" style="stop-color:#B1B1B1"/>
	</linearGradient>
	<path fill="url(#SVGID_46_)" d="M136.188,111.797h2.25c0.75,0,1.113,0.48,1.113,1.102l-0.363,24.398
		c0,0.75-0.145,1.441-0.773,1.441l-2.227,0.059c0,0-0.773-0.582-0.773-1.207l0.023-25.043c0,0,0.484-0.75,1.109-0.75H136.188z"/>
	
		<linearGradient id="SVGID_47_" gradientUnits="userSpaceOnUse" x1="26.9727" y1="149.7881" x2="21.4629" y2="149.7881" gradientTransform="matrix(0.75 0 0 -0.75 140.3052 249.3945)">
		<stop  offset="0" style="stop-color:#C7C7C7"/>
		<stop  offset="0.15" style="stop-color:#FFFFFF"/>
		<stop  offset="0.25" style="stop-color:#FFFFFF"/>
		<stop  offset="0.52" style="stop-color:#DFDFDF"/>
		<stop  offset="0.69" style="stop-color:#C7C7C7"/>
		<stop  offset="0.8" style="stop-color:#BCBCBC"/>
		<stop  offset="0.92" style="stop-color:#B1B1B1"/>
	</linearGradient>
	<path fill="url(#SVGID_47_)" d="M157.172,123.555h2.25c0.75,0,1.113,0.48,1.113,1.105l-0.363,24.395c0,0.75-0.145,1.445-0.77,1.445
		l-2.23,0.055c0,0-0.77-0.582-0.77-1.207l0.02-25.043c0,0,0.484-0.75,1.113-0.75H157.172z"/>
	
		<linearGradient id="SVGID_48_" gradientUnits="userSpaceOnUse" x1="26.9712" y1="149.7881" x2="21.4604" y2="149.7881" gradientTransform="matrix(0.75 0 0 -0.75 161.291 261.918)">
		<stop  offset="0" style="stop-color:#C7C7C7"/>
		<stop  offset="0.15" style="stop-color:#FFFFFF"/>
		<stop  offset="0.25" style="stop-color:#FFFFFF"/>
		<stop  offset="0.52" style="stop-color:#DFDFDF"/>
		<stop  offset="0.69" style="stop-color:#C7C7C7"/>
		<stop  offset="0.8" style="stop-color:#BCBCBC"/>
		<stop  offset="0.92" style="stop-color:#B1B1B1"/>
	</linearGradient>
	<path fill="url(#SVGID_48_)" d="M178.156,136.078h2.25c0.75,0,1.113,0.48,1.113,1.102l-0.363,24.398c0,0.75-0.145,1.441-0.77,1.441
		l-2.23,0.059c0,0-0.77-0.582-0.77-1.207l0.02-25.043c0,0,0.488-0.75,1.113-0.75H178.156z"/>
	
		<linearGradient id="SVGID_49_" gradientUnits="userSpaceOnUse" x1="26.9751" y1="149.7861" x2="21.4595" y2="149.7861" gradientTransform="matrix(0.75 0 0 -0.75 182.2764 274.4551)">
		<stop  offset="0" style="stop-color:#C7C7C7"/>
		<stop  offset="0.15" style="stop-color:#FFFFFF"/>
		<stop  offset="0.25" style="stop-color:#FFFFFF"/>
		<stop  offset="0.52" style="stop-color:#DFDFDF"/>
		<stop  offset="0.69" style="stop-color:#C7C7C7"/>
		<stop  offset="0.8" style="stop-color:#BCBCBC"/>
		<stop  offset="0.92" style="stop-color:#B1B1B1"/>
	</linearGradient>
	<path fill="url(#SVGID_49_)" d="M199.145,148.617h2.25c0.75,0,1.113,0.477,1.113,1.102l-0.363,24.398
		c0,0.75-0.145,1.441-0.773,1.441l-2.227,0.059c0,0-0.773-0.582-0.773-1.207l0.023-25.043c0,0,0.484-0.75,1.109-0.75H199.145z"/>
	
		<linearGradient id="SVGID_50_" gradientUnits="userSpaceOnUse" x1="26.9741" y1="149.7852" x2="21.4585" y2="149.7852" gradientTransform="matrix(0.75 0 0 -0.75 203.2617 286.9785)">
		<stop  offset="0" style="stop-color:#C7C7C7"/>
		<stop  offset="0.15" style="stop-color:#FFFFFF"/>
		<stop  offset="0.25" style="stop-color:#FFFFFF"/>
		<stop  offset="0.52" style="stop-color:#DFDFDF"/>
		<stop  offset="0.69" style="stop-color:#C7C7C7"/>
		<stop  offset="0.8" style="stop-color:#BCBCBC"/>
		<stop  offset="0.92" style="stop-color:#B1B1B1"/>
	</linearGradient>
	<path fill="url(#SVGID_50_)" d="M220.129,161.141h2.25c0.75,0,1.113,0.477,1.113,1.102l-0.363,24.398
		c0,0.75-0.145,1.441-0.77,1.441l-2.23,0.059c0,0-0.773-0.582-0.773-1.207l0.023-25.043c0,0,0.484-0.75,1.113-0.75H220.129z"/>
	
		<linearGradient id="SVGID_51_" gradientUnits="userSpaceOnUse" x1="26.9712" y1="149.7881" x2="21.4614" y2="149.7881" gradientTransform="matrix(0.75 0 0 -0.75 224.2476 301.3984)">
		<stop  offset="0" style="stop-color:#C7C7C7"/>
		<stop  offset="0.15" style="stop-color:#FFFFFF"/>
		<stop  offset="0.25" style="stop-color:#FFFFFF"/>
		<stop  offset="0.52" style="stop-color:#DFDFDF"/>
		<stop  offset="0.69" style="stop-color:#C7C7C7"/>
		<stop  offset="0.8" style="stop-color:#BCBCBC"/>
		<stop  offset="0.92" style="stop-color:#B1B1B1"/>
	</linearGradient>
	<path fill="url(#SVGID_51_)" d="M241.113,175.559h2.25c0.75,0,1.113,0.48,1.113,1.102l-0.363,24.398c0,0.75-0.145,1.441-0.77,1.441
		l-2.23,0.059c0,0-0.77-0.582-0.77-1.207l0.02-25.043c0,0,0.488-0.75,1.113-0.75H241.113z"/>
	
		<linearGradient id="SVGID_52_" gradientUnits="userSpaceOnUse" x1="26.9746" y1="149.7881" x2="21.459" y2="149.7881" gradientTransform="matrix(0.75 0 0 -0.75 245.2334 311.4063)">
		<stop  offset="0" style="stop-color:#C7C7C7"/>
		<stop  offset="0.15" style="stop-color:#FFFFFF"/>
		<stop  offset="0.25" style="stop-color:#FFFFFF"/>
		<stop  offset="0.52" style="stop-color:#DFDFDF"/>
		<stop  offset="0.69" style="stop-color:#C7C7C7"/>
		<stop  offset="0.8" style="stop-color:#BCBCBC"/>
		<stop  offset="0.92" style="stop-color:#B1B1B1"/>
	</linearGradient>
	<path fill="url(#SVGID_52_)" d="M262.098,185.566h2.25c0.75,0,1.117,0.48,1.117,1.102l-0.367,24.398c0,0.75-0.141,1.445-0.77,1.445
		l-2.23,0.055c0,0-0.77-0.582-0.77-1.207l0.02-25.043c0,0,0.488-0.75,1.113-0.75H262.098z"/>
	
		<linearGradient id="SVGID_53_" gradientUnits="userSpaceOnUse" x1="26.9712" y1="149.7891" x2="21.4614" y2="149.7891" gradientTransform="matrix(0.75 0 0 -0.75 263.8569 319.4072)">
		<stop  offset="0" style="stop-color:#C7C7C7"/>
		<stop  offset="0.15" style="stop-color:#FFFFFF"/>
		<stop  offset="0.25" style="stop-color:#FFFFFF"/>
		<stop  offset="0.52" style="stop-color:#DFDFDF"/>
		<stop  offset="0.69" style="stop-color:#C7C7C7"/>
		<stop  offset="0.8" style="stop-color:#BCBCBC"/>
		<stop  offset="0.92" style="stop-color:#B1B1B1"/>
	</linearGradient>
	<path fill="url(#SVGID_53_)" d="M280.723,193.566h2.25c0.75,0,1.113,0.48,1.113,1.105l-0.363,24.395c0,0.75-0.145,1.445-0.77,1.445
		l-2.23,0.055c0,0-0.77-0.582-0.77-1.203l0.02-25.047c0,0,0.488-0.75,1.113-0.75H280.723z"/>
	
		<linearGradient id="SVGID_54_" gradientUnits="userSpaceOnUse" x1="483.4395" y1="350.5488" x2="95.4365" y2="350.5488" gradientTransform="matrix(0.6495 0.375 0.375 -0.6495 -161.3721 266.8474)">
		<stop  offset="0" style="stop-color:#C7C7C7"/>
		<stop  offset="0.15" style="stop-color:#FFFFFF"/>
		<stop  offset="0.25" style="stop-color:#FFFFFF"/>
		<stop  offset="0.52" style="stop-color:#DFDFDF"/>
		<stop  offset="0.69" style="stop-color:#C7C7C7"/>
		<stop  offset="0.8" style="stop-color:#BCBCBC"/>
		<stop  offset="0.92" style="stop-color:#B1B1B1"/>
	</linearGradient>
	<path fill="url(#SVGID_54_)" d="M39.598,70.918l243.57,140.625c2.598,1.5,3.352,4.426,2.016,6.738l-2.344,4.328
		c-1.125,1.949-4.398,2.957-6.719,1.617L32.473,83.258c-1.949-1.125-2.941-3.902-1.605-6.219l2.582-4.477
		c1.125-1.949,4.109-2.824,6.43-1.484L39.598,70.918z"/>
	
		<linearGradient id="SVGID_55_" gradientUnits="userSpaceOnUse" x1="485.5889" y1="355.7295" x2="95.4385" y2="355.7295" gradientTransform="matrix(0.6495 0.375 0.375 -0.6495 -164.1348 246.321)">
		<stop  offset="0" style="stop-color:#C7C7C7"/>
		<stop  offset="0.15" style="stop-color:#FFFFFF"/>
		<stop  offset="0.25" style="stop-color:#FFFFFF"/>
		<stop  offset="0.52" style="stop-color:#DFDFDF"/>
		<stop  offset="0.69" style="stop-color:#C7C7C7"/>
		<stop  offset="0.8" style="stop-color:#BCBCBC"/>
		<stop  offset="0.92" style="stop-color:#B1B1B1"/>
	</linearGradient>
	<path fill="url(#SVGID_55_)" d="M34.238,48.891l251.363,145.125c0,0,0.5,0.859,0.188,1.398l-2.164,3.523
		c-0.375,0.648-1.004,0.941-1.543,0.629L30.863,54.738c-0.652-0.375-0.957-1.348-0.645-1.887l2.344-4.063
		c0,0,0.82-0.406,1.363-0.094L34.238,48.891z"/>
</g>
</svg>
