<?xml version="1.0" encoding="utf-8"?>
<!-- Generator: Adobe Illustrator 16.0.0, SVG Export Plug-In . SVG Version: 6.00 Build 0)  -->
<!DOCTYPE svg PUBLIC "-//W3C//DTD SVG 1.1//EN" "http://www.w3.org/Graphics/SVG/1.1/DTD/svg11.dtd">
<svg preserveAspectRatio="none" version="1.1" id="图层_1" xmlns="http://www.w3.org/2000/svg" xmlns:xlink="http://www.w3.org/1999/xlink" x="0px" y="0px"
	 width="340.727px" height="241.957px" viewBox="29.89 20.496 340.727 241.957"
	 enable-background="new 29.89 20.496 340.727 241.957" xml:space="preserve">
<g id="surface946">
	
		<linearGradient id="SVGID_1_" gradientUnits="userSpaceOnUse" x1="-519.6665" y1="213.2881" x2="-519.6665" y2="108.0645" gradientTransform="matrix(-0.75 0 0 -0.75 -318.6514 325.7354)">
		<stop  offset="0" style="stop-color:#DDDDDD"/>
		<stop  offset="1" style="stop-color:#B3B3B3"/>
	</linearGradient>
	<path fill="url(#SVGID_1_)" d="M112.309,205.52c0-21.75-18.445-39.75-41.207-39.75c-22.543,0-41.211,17.648-41.211,39.461
		c-0.082,22.039,18.453,39.457,41.211,39.457c22.457-0.168,41.207-17.688,41.207-39.457V205.52z"/>
	
		<radialGradient id="SVGID_2_" cx="14.6133" cy="213.2852" r="147.1944" gradientTransform="matrix(0.75 0 0 -0.75 21.3584 325.8711)" gradientUnits="userSpaceOnUse">
		<stop  offset="0" style="stop-color:#FFFFFF"/>
		<stop  offset="0.57" style="stop-color:#FFFFFF;stop-opacity:0.102"/>
		<stop  offset="1" style="stop-color:#FFFFFF;stop-opacity:0.102"/>
	</radialGradient>
	<path fill="url(#SVGID_2_)" d="M32.316,204.156c0-21,17.758-38.25,39.66-38.25c21.84,0,39.656,17.191,39.656,38.395
		c0.184,20.855-17.758,38.395-39.656,38.395c-21.66-0.289-39.66-17.191-39.66-38.395V204.156z"/>
	
		<radialGradient id="SVGID_3_" cx="14.6133" cy="213.2852" r="109.0767" gradientTransform="matrix(0.75 0 0 -0.75 35.5327 325.9639)" gradientUnits="userSpaceOnUse">
		<stop  offset="0" style="stop-color:#FFFFFF"/>
		<stop  offset="0.57" style="stop-color:#FFFFFF;stop-opacity:0.102"/>
		<stop  offset="1" style="stop-color:#FFFFFF;stop-opacity:0.102"/>
	</radialGradient>
	<path fill="url(#SVGID_3_)" d="M46.492,194.5c0-15.75,13.156-28.5,29.387-28.5c16.363,0,29.387,12.738,29.387,28.449
		c-0.273,15.801-13.156,28.453-29.387,28.453C59.992,223,46.492,210.164,46.492,194.449V194.5z"/>
	
		<radialGradient id="SVGID_4_" cx="14.6133" cy="213.2871" r="97.2344" gradientTransform="matrix(0.75 0 0 -0.75 36.9897 328.6191)" gradientUnits="userSpaceOnUse">
		<stop  offset="0" style="stop-color:#FFFFFF"/>
		<stop  offset="0.57" style="stop-color:#FFFFFF;stop-opacity:0.102"/>
		<stop  offset="1" style="stop-color:#FFFFFF;stop-opacity:0.102"/>
	</radialGradient>
	<path fill="url(#SVGID_4_)" d="M47.949,194.156c0-14.25,11.727-25.5,26.195-25.5c14.305,0,26.195,11.352,26.195,25.359
		c0.109,13.641-11.727,25.363-26.195,25.363c-14.195,0.277-26.195-11.355-26.195-25.363V194.156z"/>
	
		<linearGradient id="SVGID_5_" gradientUnits="userSpaceOnUse" x1="90.7427" y1="201.2852" x2="14.6118" y2="201.2852" gradientTransform="matrix(0.75 0 0 -0.75 31.5913 393.4316)">
		<stop  offset="0" style="stop-color:#BDBDBD"/>
		<stop  offset="0.15" style="stop-color:#FFFFFF"/>
		<stop  offset="0.25" style="stop-color:#FFFFFF"/>
		<stop  offset="0.52" style="stop-color:#DFDFDF"/>
		<stop  offset="0.69" style="stop-color:#C7C7C7"/>
		<stop  offset="0.8" style="stop-color:#BCBCBC"/>
		<stop  offset="0.92" style="stop-color:#B1B1B1"/>
		<stop  offset="1" style="stop-color:#CBCBCB"/>
	</linearGradient>
	<path fill="url(#SVGID_5_)" d="M42.551,233.469h57c0,0,0.098,0.102,0.098,0.246l-0.098,17.004c0,0.75-0.039,0.566-0.207,0.566
		l-56.793,0.184c0,0,0-0.305,0-0.449V233.469c0,0,0.109,0,0.277,0H42.551z"/>
	
		<linearGradient id="SVGID_6_" gradientUnits="userSpaceOnUse" x1="109.6152" y1="206.3027" x2="14.6152" y2="206.3027" gradientTransform="matrix(0.75 0 0 -0.75 24.6631 409.8164)">
		<stop  offset="0" style="stop-color:#BDBDBD"/>
		<stop  offset="0.15" style="stop-color:#FFFFFF"/>
		<stop  offset="0.25" style="stop-color:#FFFFFF"/>
		<stop  offset="0.52" style="stop-color:#DFDFDF"/>
		<stop  offset="0.69" style="stop-color:#C7C7C7"/>
		<stop  offset="0.8" style="stop-color:#BCBCBC"/>
		<stop  offset="0.92" style="stop-color:#B1B1B1"/>
		<stop  offset="1" style="stop-color:#CBCBCB"/>
	</linearGradient>
	<path fill="url(#SVGID_6_)" d="M35.625,249.852h70.5c0,0,0.453,0.125,0.453,0.309l0.297,9.441c0,0-0.457,0.383-0.641,0.383
		l-70.609,0.367c0,0,0-0.516,0-0.699V249.852c0,0,0.148-0.023,0.332-0.023L35.625,249.852z"/>
	
		<linearGradient id="SVGID_7_" gradientUnits="userSpaceOnUse" x1="90.7427" y1="212.29" x2="14.6118" y2="212.29" gradientTransform="matrix(0.75 0 0 -0.75 31.5913 408.1816)">
		<stop  offset="0" style="stop-color:#979898"/>
		<stop  offset="0.15" style="stop-color:#D0D1D1"/>
		<stop  offset="0.25" style="stop-color:#E5E6E6"/>
		<stop  offset="0.52" style="stop-color:#B3B4B4"/>
		<stop  offset="0.69" style="stop-color:#9FA0A0"/>
		<stop  offset="0.8" style="stop-color:#969797"/>
		<stop  offset="0.92" style="stop-color:#8E8E8E"/>
		<stop  offset="1" style="stop-color:#A3A4A4"/>
	</linearGradient>
	<path fill="url(#SVGID_7_)" d="M42.551,248.215h57c0,0,0.098,0.012,0.098,0.02l-0.098,1.48c0,0-0.039-0.105-0.207-0.105
		l-56.793,0.105c0,0,0-0.117,0-0.129V248.215c0,0,0.109,0,0.277,0H42.551z"/>
	
		<linearGradient id="SVGID_8_" gradientUnits="userSpaceOnUse" x1="25.6147" y1="193.2852" x2="14.6147" y2="193.2852" gradientTransform="matrix(0.75 0 0 -0.75 341.8198 218.5879)">
		<stop  offset="0" style="stop-color:#BDBDBD"/>
		<stop  offset="0.15" style="stop-color:#FFFFFF"/>
		<stop  offset="0.25" style="stop-color:#FFFFFF"/>
		<stop  offset="0.52" style="stop-color:#DFDFDF"/>
		<stop  offset="0.69" style="stop-color:#C7C7C7"/>
		<stop  offset="0.8" style="stop-color:#BCBCBC"/>
		<stop  offset="0.92" style="stop-color:#B1B1B1"/>
		<stop  offset="1" style="stop-color:#CBCBCB"/>
	</linearGradient>
	<path fill="url(#SVGID_8_)" d="M352.781,58.625h8.25v30h-8.25V58.625z"/>
	
		<linearGradient id="SVGID_9_" gradientUnits="userSpaceOnUse" x1="-71.7881" y1="703.6143" x2="-60.7881" y2="703.6143" gradientTransform="matrix(0 0.75 0.75 0 -187.457 100.5166)">
		<stop  offset="0" style="stop-color:#BDBDBD"/>
		<stop  offset="0.15" style="stop-color:#FFFFFF"/>
		<stop  offset="0.25" style="stop-color:#FFFFFF"/>
		<stop  offset="0.52" style="stop-color:#DFDFDF"/>
		<stop  offset="0.69" style="stop-color:#C7C7C7"/>
		<stop  offset="0.8" style="stop-color:#BCBCBC"/>
		<stop  offset="0.92" style="stop-color:#B1B1B1"/>
		<stop  offset="1" style="stop-color:#CBCBCB"/>
	</linearGradient>
	<path fill="url(#SVGID_9_)" d="M349.629,46.676v8.25h-18.75v-8.25H349.629z"/>
	
		<linearGradient id="SVGID_10_" gradientUnits="userSpaceOnUse" x1="172.6108" y1="74.7905" x2="14.6108" y2="74.7905" gradientTransform="matrix(0.75 0 0 -0.75 203.3032 199.1152)">
		<stop  offset="0" style="stop-color:#343232"/>
		<stop  offset="0.15" style="stop-color:#555454"/>
		<stop  offset="0.26" style="stop-color:#797777"/>
		<stop  offset="0.41" style="stop-color:#5D5B5B"/>
		<stop  offset="0.6" style="stop-color:#484646"/>
		<stop  offset="0.8" style="stop-color:#383636"/>
		<stop  offset="0.93" style="stop-color:#2C2B2B"/>
		<stop  offset="1" style="stop-color:#535151"/>
	</linearGradient>
	<path fill="url(#SVGID_10_)" d="M214.262,39.148h118.5v207.75h-118.5V39.148z"/>
	
		<linearGradient id="SVGID_11_" gradientUnits="userSpaceOnUse" x1="172.981" y1="200.2861" x2="14.6108" y2="200.2861" gradientTransform="matrix(0.75 0 0 -0.75 203.3032 180.459)">
		<stop  offset="0" style="stop-color:#343232"/>
		<stop  offset="0.15" style="stop-color:#555454"/>
		<stop  offset="0.26" style="stop-color:#797777"/>
		<stop  offset="0.41" style="stop-color:#5D5B5B"/>
		<stop  offset="0.6" style="stop-color:#484646"/>
		<stop  offset="0.8" style="stop-color:#383636"/>
		<stop  offset="0.93" style="stop-color:#2C2B2B"/>
		<stop  offset="1" style="stop-color:#535151"/>
	</linearGradient>
	<path fill="url(#SVGID_11_)" d="M214.262,39.996c0-10.5,26.59-19.5,59.391-19.5c32.859,0,59.387,8.652,59.387,19.328
		c-0.277,0.172-118.777,0-118.777,0V39.996z"/>
	
		<linearGradient id="SVGID_12_" gradientUnits="userSpaceOnUse" x1="172.6108" y1="210.7871" x2="14.6108" y2="210.7871" gradientTransform="matrix(0.75 0 0 -0.75 203.3032 199.1133)">
		<stop  offset="0" style="stop-color:#7A7B7B"/>
		<stop  offset="0.15" style="stop-color:#BBBCBC"/>
		<stop  offset="0.25" style="stop-color:#C1C1C1"/>
		<stop  offset="0.52" style="stop-color:#8A8B8B"/>
		<stop  offset="0.69" style="stop-color:#7A7B7B"/>
		<stop  offset="0.8" style="stop-color:#737474"/>
		<stop  offset="0.92" style="stop-color:#6C6D6D"/>
	</linearGradient>
	<path fill="url(#SVGID_12_)" d="M214.262,39.148h118.5v3.75h-118.5V39.148z"/>
	
		<linearGradient id="SVGID_13_" gradientUnits="userSpaceOnUse" x1="65.6138" y1="107.1265" x2="14.6138" y2="107.1265" gradientTransform="matrix(0.75 0 0 -0.75 317.6646 247.6016)">
		<stop  offset="0" style="stop-color:#9D9E9A"/>
		<stop  offset="0.01" style="stop-color:#E6E7E2"/>
		<stop  offset="0.05" style="stop-color:#CDCEC9"/>
		<stop  offset="0.9" style="stop-color:#CACBC5"/>
		<stop  offset="0.95" style="stop-color:#C5C6C1"/>
		<stop  offset="1" style="stop-color:#92938F"/>
	</linearGradient>
	<path fill="url(#SVGID_13_)" d="M330.125,87.637h35.25c0.75,0,1.391,0.613,1.391,1.371l0.109,156.129
		c0,0.75-0.852,1.742-1.766,1.742l-34.984-0.242c-0.75,0-1.5-0.434-1.5-1.191V89.137c0-0.75,0.742-1.5,1.656-1.5H330.125z"/>
	
		<linearGradient id="SVGID_14_" gradientUnits="userSpaceOnUse" x1="12.6689" y1="198.6543" x2="32.7163" y2="210.2287" gradientTransform="matrix(0.75 0 0 -0.75 338.189 206.4238)">
		<stop  offset="0" style="stop-color:#C4C4C4"/>
		<stop  offset="0.15" style="stop-color:#FFFFFF"/>
		<stop  offset="0.25" style="stop-color:#FFFFFF"/>
		<stop  offset="0.44" style="stop-color:#DFDFDF"/>
		<stop  offset="0.6" style="stop-color:#C7C7C7"/>
		<stop  offset="0.8" style="stop-color:#A8A8A8"/>
		<stop  offset="0.97" style="stop-color:#999999"/>
		<stop  offset="1" style="stop-color:#CBCBCB"/>
	</linearGradient>
	<path fill="url(#SVGID_14_)" d="M349.148,46.461c0,0,6.543,0.172,9.652,3.832c3.098,3.668,2.566,9.371,2.566,9.371l-8.469,0.297
		c0,0-0.043-3.629-3.75-4.969V46.461z"/>
	
		<linearGradient id="SVGID_15_" gradientUnits="userSpaceOnUse" x1="149.9507" y1="106.7896" x2="14.6128" y2="106.7895" gradientTransform="matrix(0.75 0 0 -0.75 101.8608 247.3184)">
		<stop  offset="0" style="stop-color:#97AA93"/>
		<stop  offset="0.15" style="stop-color:#D0E8CB"/>
		<stop  offset="0.25" style="stop-color:#E5F2E2"/>
		<stop  offset="0.52" style="stop-color:#B3C9AE"/>
		<stop  offset="0.69" style="stop-color:#9FB39B"/>
		<stop  offset="0.8" style="stop-color:#96A992"/>
		<stop  offset="0.92" style="stop-color:#8E9F89"/>
		<stop  offset="1" style="stop-color:#A3B79E"/>
	</linearGradient>
	<path fill="url(#SVGID_15_)" d="M114.32,87.352h98.25c0.75,0,1.754,0.84,1.754,1.875l-0.254,157.875H112.82V88.852
		c0-0.75,0.617-1.5,1.379-1.5H114.32z"/>
	
		<linearGradient id="SVGID_16_" gradientUnits="userSpaceOnUse" x1="42.6108" y1="208.7871" x2="14.6108" y2="208.7871" gradientTransform="matrix(0.75 0 0 -0.75 48.7095 321.1289)">
		<stop  offset="0" style="stop-color:#343232"/>
		<stop  offset="0.15" style="stop-color:#555454"/>
		<stop  offset="0.26" style="stop-color:#797777"/>
		<stop  offset="0.41" style="stop-color:#5D5B5B"/>
		<stop  offset="0.6" style="stop-color:#484646"/>
		<stop  offset="0.8" style="stop-color:#383636"/>
		<stop  offset="0.93" style="stop-color:#2C2B2B"/>
		<stop  offset="1" style="stop-color:#535151"/>
	</linearGradient>
	<path fill="url(#SVGID_16_)" d="M59.668,167.914h21l-6-6.75h-9L59.668,167.914z"/>
	
		<linearGradient id="SVGID_17_" gradientUnits="userSpaceOnUse" x1="-477.2104" y1="95.8833" x2="-488.2104" y2="95.8833" gradientTransform="matrix(0 -0.75 -0.75 0 161.6748 -209.9121)">
		<stop  offset="0" style="stop-color:#BDBDBD"/>
		<stop  offset="0.15" style="stop-color:#FFFFFF"/>
		<stop  offset="0.25" style="stop-color:#FFFFFF"/>
		<stop  offset="0.52" style="stop-color:#DFDFDF"/>
		<stop  offset="0.69" style="stop-color:#C7C7C7"/>
		<stop  offset="0.8" style="stop-color:#BCBCBC"/>
		<stop  offset="0.92" style="stop-color:#B1B1B1"/>
		<stop  offset="1" style="stop-color:#CBCBCB"/>
	</linearGradient>
	<path fill="url(#SVGID_17_)" d="M113.012,156.246v-8.25h-46.5v8.25H113.012z"/>
	
		<linearGradient id="SVGID_18_" gradientUnits="userSpaceOnUse" x1="26.6108" y1="204.2881" x2="14.6108" y2="204.2881" gradientTransform="matrix(0.75 0 0 -0.75 54.7134 307.4141)">
		<stop  offset="0" style="stop-color:#343232"/>
		<stop  offset="0.15" style="stop-color:#555454"/>
		<stop  offset="0.26" style="stop-color:#797777"/>
		<stop  offset="0.41" style="stop-color:#5D5B5B"/>
		<stop  offset="0.6" style="stop-color:#484646"/>
		<stop  offset="0.8" style="stop-color:#383636"/>
		<stop  offset="0.93" style="stop-color:#2C2B2B"/>
		<stop  offset="1" style="stop-color:#535151"/>
	</linearGradient>
	<path fill="url(#SVGID_18_)" d="M65.672,160.949h9v-13.5h-9V160.949z"/>
	
		<linearGradient id="SVGID_19_" gradientUnits="userSpaceOnUse" x1="20.6123" y1="137.2466" x2="14.6123" y2="137.2466" gradientTransform="matrix(0.75 0 0 -0.75 107.5366 286.8066)">
		<stop  offset="0" style="stop-color:#97AA93"/>
		<stop  offset="0.15" style="stop-color:#D0E8CB"/>
		<stop  offset="0.25" style="stop-color:#E5F2E2"/>
		<stop  offset="0.52" style="stop-color:#B3C9AE"/>
		<stop  offset="0.69" style="stop-color:#9FB39B"/>
		<stop  offset="0.8" style="stop-color:#96A992"/>
		<stop  offset="0.92" style="stop-color:#8E9F89"/>
		<stop  offset="1" style="stop-color:#A3B79E"/>
	</linearGradient>
	<path fill="url(#SVGID_19_)" d="M119.246,126.844h3c0,0,0.746,0.465,0.746,1.043l0.004,112.207c0,0-0.473,0.809-1.055,0.809
		l-2.695-0.059c0,0-0.75-0.41-0.75-0.984V127.594c0,0,0.469-0.75,1.051-0.75H119.246z"/>
	
		<linearGradient id="SVGID_20_" gradientUnits="userSpaceOnUse" x1="20.6099" y1="137.2466" x2="14.6099" y2="137.2466" gradientTransform="matrix(0.75 0 0 -0.75 119.7646 286.8066)">
		<stop  offset="0" style="stop-color:#97AA93"/>
		<stop  offset="0.15" style="stop-color:#D0E8CB"/>
		<stop  offset="0.25" style="stop-color:#E5F2E2"/>
		<stop  offset="0.52" style="stop-color:#B3C9AE"/>
		<stop  offset="0.69" style="stop-color:#9FB39B"/>
		<stop  offset="0.8" style="stop-color:#96A992"/>
		<stop  offset="0.92" style="stop-color:#8E9F89"/>
		<stop  offset="1" style="stop-color:#A3B79E"/>
	</linearGradient>
	<path fill="url(#SVGID_20_)" d="M131.473,126.844h3c0,0,0.746,0.465,0.746,1.043l0.004,112.207c0,0-0.473,0.809-1.051,0.809
		l-2.699-0.059c0,0-0.75-0.41-0.75-0.984V127.594c0,0,0.473-0.75,1.051-0.75H131.473z"/>
	
		<linearGradient id="SVGID_21_" gradientUnits="userSpaceOnUse" x1="20.6128" y1="137.2466" x2="14.6128" y2="137.2466" gradientTransform="matrix(0.75 0 0 -0.75 131.2866 286.8066)">
		<stop  offset="0" style="stop-color:#97AA93"/>
		<stop  offset="0.15" style="stop-color:#D0E8CB"/>
		<stop  offset="0.25" style="stop-color:#E5F2E2"/>
		<stop  offset="0.52" style="stop-color:#B3C9AE"/>
		<stop  offset="0.69" style="stop-color:#9FB39B"/>
		<stop  offset="0.8" style="stop-color:#96A992"/>
		<stop  offset="0.92" style="stop-color:#8E9F89"/>
		<stop  offset="1" style="stop-color:#A3B79E"/>
	</linearGradient>
	<path fill="url(#SVGID_21_)" d="M142.996,126.844h3c0,0,0.746,0.465,0.746,1.043l0.004,112.207c0,0-0.473,0.809-1.055,0.809
		l-2.695-0.059c0,0-0.75-0.41-0.75-0.984V127.594c0,0,0.469-0.75,1.051-0.75H142.996z"/>
	
		<linearGradient id="SVGID_22_" gradientUnits="userSpaceOnUse" x1="20.6128" y1="137.2466" x2="14.6128" y2="137.2466" gradientTransform="matrix(0.75 0 0 -0.75 144.2197 286.8066)">
		<stop  offset="0" style="stop-color:#97AA93"/>
		<stop  offset="0.15" style="stop-color:#D0E8CB"/>
		<stop  offset="0.25" style="stop-color:#E5F2E2"/>
		<stop  offset="0.52" style="stop-color:#B3C9AE"/>
		<stop  offset="0.69" style="stop-color:#9FB39B"/>
		<stop  offset="0.8" style="stop-color:#96A992"/>
		<stop  offset="0.92" style="stop-color:#8E9F89"/>
		<stop  offset="1" style="stop-color:#A3B79E"/>
	</linearGradient>
	<path fill="url(#SVGID_22_)" d="M155.93,126.844h3c0,0,0.746,0.465,0.746,1.043l0.004,112.207c0,0-0.477,0.809-1.055,0.809
		l-2.695-0.059c0,0-0.75-0.41-0.75-0.984V127.594c0,0,0.469-0.75,1.047-0.75H155.93z"/>
	
		<linearGradient id="SVGID_23_" gradientUnits="userSpaceOnUse" x1="20.6118" y1="137.2466" x2="14.6118" y2="137.2466" gradientTransform="matrix(0.75 0 0 -0.75 156.4473 286.8066)">
		<stop  offset="0" style="stop-color:#97AA93"/>
		<stop  offset="0.15" style="stop-color:#D0E8CB"/>
		<stop  offset="0.25" style="stop-color:#E5F2E2"/>
		<stop  offset="0.52" style="stop-color:#B3C9AE"/>
		<stop  offset="0.69" style="stop-color:#9FB39B"/>
		<stop  offset="0.8" style="stop-color:#96A992"/>
		<stop  offset="0.92" style="stop-color:#8E9F89"/>
		<stop  offset="1" style="stop-color:#A3B79E"/>
	</linearGradient>
	<path fill="url(#SVGID_23_)" d="M168.156,126.844h3c0,0,0.746,0.465,0.746,1.043l0.004,112.207c0,0-0.473,0.809-1.055,0.809
		l-2.695-0.059c0,0-0.75-0.41-0.75-0.984V127.594c0,0,0.469-0.75,1.051-0.75H168.156z"/>
	
		<linearGradient id="SVGID_24_" gradientUnits="userSpaceOnUse" x1="20.6152" y1="137.2466" x2="14.6152" y2="137.2466" gradientTransform="matrix(0.75 0 0 -0.75 168.6748 286.8066)">
		<stop  offset="0" style="stop-color:#97AA93"/>
		<stop  offset="0.15" style="stop-color:#D0E8CB"/>
		<stop  offset="0.25" style="stop-color:#E5F2E2"/>
		<stop  offset="0.52" style="stop-color:#B3C9AE"/>
		<stop  offset="0.69" style="stop-color:#9FB39B"/>
		<stop  offset="0.8" style="stop-color:#96A992"/>
		<stop  offset="0.92" style="stop-color:#8E9F89"/>
		<stop  offset="1" style="stop-color:#A3B79E"/>
	</linearGradient>
	<path fill="url(#SVGID_24_)" d="M180.387,126.844h3c0,0,0.742,0.465,0.742,1.043l0.008,112.207c0,0-0.477,0.809-1.055,0.809
		l-2.695-0.059c0,0-0.75-0.41-0.75-0.984V127.594c0,0,0.469-0.75,1.047-0.75H180.387z"/>
	
		<linearGradient id="SVGID_25_" gradientUnits="userSpaceOnUse" x1="20.6147" y1="137.2466" x2="14.6147" y2="137.2466" gradientTransform="matrix(0.75 0 0 -0.75 180.9023 286.8066)">
		<stop  offset="0" style="stop-color:#97AA93"/>
		<stop  offset="0.15" style="stop-color:#D0E8CB"/>
		<stop  offset="0.25" style="stop-color:#E5F2E2"/>
		<stop  offset="0.52" style="stop-color:#B3C9AE"/>
		<stop  offset="0.69" style="stop-color:#9FB39B"/>
		<stop  offset="0.8" style="stop-color:#96A992"/>
		<stop  offset="0.92" style="stop-color:#8E9F89"/>
		<stop  offset="1" style="stop-color:#A3B79E"/>
	</linearGradient>
	<path fill="url(#SVGID_25_)" d="M192.613,126.844h3c0,0,0.742,0.465,0.742,1.043l0.008,112.207c0,0-0.477,0.809-1.055,0.809
		l-2.695-0.059c0,0-0.75-0.41-0.75-0.984V127.594c0,0,0.469-0.75,1.047-0.75H192.613z"/>
	
		<linearGradient id="SVGID_26_" gradientUnits="userSpaceOnUse" x1="20.6128" y1="137.2466" x2="14.6128" y2="137.2466" gradientTransform="matrix(0.75 0 0 -0.75 193.1299 286.8066)">
		<stop  offset="0" style="stop-color:#97AA93"/>
		<stop  offset="0.15" style="stop-color:#D0E8CB"/>
		<stop  offset="0.25" style="stop-color:#E5F2E2"/>
		<stop  offset="0.52" style="stop-color:#B3C9AE"/>
		<stop  offset="0.69" style="stop-color:#9FB39B"/>
		<stop  offset="0.8" style="stop-color:#96A992"/>
		<stop  offset="0.92" style="stop-color:#8E9F89"/>
		<stop  offset="1" style="stop-color:#A3B79E"/>
	</linearGradient>
	<path fill="url(#SVGID_26_)" d="M204.84,126.844h3c0,0,0.746,0.465,0.746,1.043l0.004,112.207c0,0-0.477,0.809-1.055,0.809
		l-2.695-0.059c0,0-0.75-0.41-0.75-0.984V127.594c0,0,0.469-0.75,1.047-0.75H204.84z"/>
	
		<linearGradient id="SVGID_27_" gradientUnits="userSpaceOnUse" x1="150.249" y1="202.251" x2="14.6133" y2="202.251" gradientTransform="matrix(0.75 0 0 -0.75 101.8604 232.498)">
		<stop  offset="0" style="stop-color:#97AA93"/>
		<stop  offset="0.15" style="stop-color:#D0E8CB"/>
		<stop  offset="0.25" style="stop-color:#E5F2E2"/>
		<stop  offset="0.52" style="stop-color:#B3C9AE"/>
		<stop  offset="0.69" style="stop-color:#9FB39B"/>
		<stop  offset="0.8" style="stop-color:#96A992"/>
		<stop  offset="0.92" style="stop-color:#8E9F89"/>
		<stop  offset="1" style="stop-color:#A3B79E"/>
	</linearGradient>
	<path fill="url(#SVGID_27_)" d="M112.82,89.035c0-9,22.773-16.5,50.863-16.5c27.887,0,50.863,7.41,50.863,16.551
		c0.273-0.051-101.727,0-101.727,0V89.035z"/>
	
		<linearGradient id="SVGID_28_" gradientUnits="userSpaceOnUse" x1="149.6128" y1="211.2881" x2="14.6128" y2="211.2881" gradientTransform="matrix(0.75 0 0 -0.75 101.8608 247.3164)">
		<stop  offset="0" style="stop-color:#7E9F78"/>
		<stop  offset="0.15" style="stop-color:#B2DAAB"/>
		<stop  offset="0.25" style="stop-color:#D7EAD3"/>
		<stop  offset="0.52" style="stop-color:#96BC8F"/>
		<stop  offset="0.69" style="stop-color:#85A77F"/>
		<stop  offset="0.8" style="stop-color:#7D9E77"/>
		<stop  offset="0.92" style="stop-color:#769570"/>
		<stop  offset="1" style="stop-color:#88AB82"/>
	</linearGradient>
	<path fill="url(#SVGID_28_)" d="M214.07,87.352v3H112.82v-3H214.07z"/>
	
		<linearGradient id="SVGID_29_" gradientUnits="userSpaceOnUse" x1="466.6123" y1="202.2666" x2="14.6123" y2="202.2666" gradientTransform="matrix(0.75 0 0 -0.75 20.6572 405.8242)">
		<stop  offset="0" style="stop-color:#525365"/>
		<stop  offset="0.01" style="stop-color:#9FA0AF"/>
		<stop  offset="0.05" style="stop-color:#6C6E85"/>
		<stop  offset="0.9" style="stop-color:#6A6C83"/>
		<stop  offset="0.95" style="stop-color:#686A80"/>
		<stop  offset="1" style="stop-color:#4B4D5D"/>
	</linearGradient>
	<path fill="url(#SVGID_29_)" d="M33.117,245.859h336c0.75,0,1.34,0.555,1.34,1.309l0.16,13.691c0,0.75-0.73,1.594-1.434,1.594
		l-336.066-0.094c-0.75,0-1.5-0.523-1.5-1.277v-13.723c0-0.75,0.512-1.563,1.215-1.563L33.117,245.859z"/>
</g>
</svg>
