<?xml version="1.0" encoding="utf-8"?>
<!-- Generator: Adobe Illustrator 16.0.0, SVG Export Plug-In . SVG Version: 6.00 Build 0)  -->
<!DOCTYPE svg PUBLIC "-//W3C//DTD SVG 1.1//EN" "http://www.w3.org/Graphics/SVG/1.1/DTD/svg11.dtd">
<svg preserveAspectRatio="none" version="1.1" id="图层_1" xmlns="http://www.w3.org/2000/svg" xmlns:xlink="http://www.w3.org/1999/xlink" x="0px" y="0px"
	 width="340.5px" height="112.164px" viewBox="30 85.375 340.5 112.164" enable-background="new 30 85.375 340.5 112.164"
	 xml:space="preserve">
<g id="surface826">
	
		<linearGradient id="SVGID_1_" gradientUnits="userSpaceOnUse" x1="36.6138" y1="208.7891" x2="14.6138" y2="208.7891" gradientTransform="matrix(0.75 0 0 -0.75 55.1606 248.2158)">
		<stop  offset="0" style="stop-color:#C7C7C7"/>
		<stop  offset="0.15" style="stop-color:#FFFFFF"/>
		<stop  offset="0.25" style="stop-color:#FFFFFF"/>
		<stop  offset="0.52" style="stop-color:#DFDFDF"/>
		<stop  offset="0.69" style="stop-color:#C7C7C7"/>
		<stop  offset="0.8" style="stop-color:#BCBCBC"/>
		<stop  offset="0.92" style="stop-color:#B1B1B1"/>
	</linearGradient>
	<path fill="url(#SVGID_1_)" d="M66.121,95h16.5v-6.75h-16.5V95z"/>
	
		<linearGradient id="SVGID_2_" gradientUnits="userSpaceOnUse" x1="50.0737" y1="211.2881" x2="14.6108" y2="211.2881" gradientTransform="matrix(0.75 0 0 -0.75 50.0186 245.3398)">
		<stop  offset="0" style="stop-color:#C7C7C7"/>
		<stop  offset="0.15" style="stop-color:#FFFFFF"/>
		<stop  offset="0.25" style="stop-color:#FFFFFF"/>
		<stop  offset="0.52" style="stop-color:#DFDFDF"/>
		<stop  offset="0.69" style="stop-color:#C7C7C7"/>
		<stop  offset="0.8" style="stop-color:#BCBCBC"/>
		<stop  offset="0.92" style="stop-color:#B1B1B1"/>
	</linearGradient>
	<path fill="url(#SVGID_2_)" d="M62.477,85.375h24c0.75,0,1.098,0.645,1.098,1.438c-0.348,0.813-0.633,1.438-1.418,1.438
		l-23.68,0.125c-0.75,0-1.5-0.77-1.5-1.563c0-0.688,0.637-1.438,1.422-1.438H62.477z"/>
	
		<linearGradient id="SVGID_3_" gradientUnits="userSpaceOnUse" x1="36.6113" y1="208.791" x2="14.6113" y2="208.791" gradientTransform="matrix(0.75 0 0 -0.75 98.9907 248.2168)">
		<stop  offset="0" style="stop-color:#C7C7C7"/>
		<stop  offset="0.15" style="stop-color:#FFFFFF"/>
		<stop  offset="0.25" style="stop-color:#FFFFFF"/>
		<stop  offset="0.52" style="stop-color:#DFDFDF"/>
		<stop  offset="0.69" style="stop-color:#C7C7C7"/>
		<stop  offset="0.8" style="stop-color:#BCBCBC"/>
		<stop  offset="0.92" style="stop-color:#B1B1B1"/>
	</linearGradient>
	<path fill="url(#SVGID_3_)" d="M109.949,95h16.5v-6.75h-16.5V95z"/>
	
		<linearGradient id="SVGID_4_" gradientUnits="userSpaceOnUse" x1="50.0767" y1="211.2881" x2="14.6128" y2="211.2881" gradientTransform="matrix(0.75 0 0 -0.75 93.8486 245.3398)">
		<stop  offset="0" style="stop-color:#C7C7C7"/>
		<stop  offset="0.15" style="stop-color:#FFFFFF"/>
		<stop  offset="0.25" style="stop-color:#FFFFFF"/>
		<stop  offset="0.52" style="stop-color:#DFDFDF"/>
		<stop  offset="0.69" style="stop-color:#C7C7C7"/>
		<stop  offset="0.8" style="stop-color:#BCBCBC"/>
		<stop  offset="0.92" style="stop-color:#B1B1B1"/>
	</linearGradient>
	<path fill="url(#SVGID_4_)" d="M106.309,85.375h24c0.75,0,1.098,0.645,1.098,1.438c-0.348,0.813-0.637,1.438-1.418,1.438
		l-23.68,0.125c-0.75,0-1.5-0.766-1.5-1.563c0-0.688,0.637-1.438,1.418-1.438H106.309z"/>
	
		<linearGradient id="SVGID_5_" gradientUnits="userSpaceOnUse" x1="36.6138" y1="208.791" x2="14.6138" y2="208.791" gradientTransform="matrix(0.75 0 0 -0.75 142.8208 248.2168)">
		<stop  offset="0" style="stop-color:#C7C7C7"/>
		<stop  offset="0.15" style="stop-color:#FFFFFF"/>
		<stop  offset="0.25" style="stop-color:#FFFFFF"/>
		<stop  offset="0.52" style="stop-color:#DFDFDF"/>
		<stop  offset="0.69" style="stop-color:#C7C7C7"/>
		<stop  offset="0.8" style="stop-color:#BCBCBC"/>
		<stop  offset="0.92" style="stop-color:#B1B1B1"/>
	</linearGradient>
	<path fill="url(#SVGID_5_)" d="M153.781,95h16.5v-6.75h-16.5V95z"/>
	
		<linearGradient id="SVGID_6_" gradientUnits="userSpaceOnUse" x1="50.0742" y1="211.2881" x2="14.6104" y2="211.2881" gradientTransform="matrix(0.75 0 0 -0.75 137.6787 245.3398)">
		<stop  offset="0" style="stop-color:#C7C7C7"/>
		<stop  offset="0.15" style="stop-color:#FFFFFF"/>
		<stop  offset="0.25" style="stop-color:#FFFFFF"/>
		<stop  offset="0.52" style="stop-color:#DFDFDF"/>
		<stop  offset="0.69" style="stop-color:#C7C7C7"/>
		<stop  offset="0.8" style="stop-color:#BCBCBC"/>
		<stop  offset="0.92" style="stop-color:#B1B1B1"/>
	</linearGradient>
	<path fill="url(#SVGID_6_)" d="M150.137,85.375h24c0.75,0,1.098,0.645,1.098,1.438c-0.348,0.813-0.633,1.438-1.418,1.438
		l-23.68,0.125c-0.75,0-1.5-0.766-1.5-1.563c0-0.688,0.637-1.438,1.422-1.438H150.137z"/>
	
		<linearGradient id="SVGID_7_" gradientUnits="userSpaceOnUse" x1="36.6118" y1="208.791" x2="14.6118" y2="208.791" gradientTransform="matrix(0.75 0 0 -0.75 186.6504 248.2168)">
		<stop  offset="0" style="stop-color:#C7C7C7"/>
		<stop  offset="0.15" style="stop-color:#FFFFFF"/>
		<stop  offset="0.25" style="stop-color:#FFFFFF"/>
		<stop  offset="0.52" style="stop-color:#DFDFDF"/>
		<stop  offset="0.69" style="stop-color:#C7C7C7"/>
		<stop  offset="0.8" style="stop-color:#BCBCBC"/>
		<stop  offset="0.92" style="stop-color:#B1B1B1"/>
	</linearGradient>
	<path fill="url(#SVGID_7_)" d="M197.609,95h16.5v-6.75h-16.5V95z"/>
	
		<linearGradient id="SVGID_8_" gradientUnits="userSpaceOnUse" x1="50.0771" y1="211.2881" x2="14.6133" y2="211.2881" gradientTransform="matrix(0.75 0 0 -0.75 181.5083 245.3398)">
		<stop  offset="0" style="stop-color:#C7C7C7"/>
		<stop  offset="0.15" style="stop-color:#FFFFFF"/>
		<stop  offset="0.25" style="stop-color:#FFFFFF"/>
		<stop  offset="0.52" style="stop-color:#DFDFDF"/>
		<stop  offset="0.69" style="stop-color:#C7C7C7"/>
		<stop  offset="0.8" style="stop-color:#BCBCBC"/>
		<stop  offset="0.92" style="stop-color:#B1B1B1"/>
	</linearGradient>
	<path fill="url(#SVGID_8_)" d="M193.969,85.375h24c0.75,0,1.098,0.645,1.098,1.438c-0.348,0.813-0.637,1.438-1.418,1.438
		l-23.68,0.125c-0.75,0-1.5-0.766-1.5-1.563c0-0.688,0.633-1.438,1.418-1.438H193.969z"/>
	
		<linearGradient id="SVGID_9_" gradientUnits="userSpaceOnUse" x1="137.6147" y1="213.2861" x2="137.6147" y2="178.2861" gradientTransform="matrix(0.75 0 0 -0.75 37.2656 284.8242)">
		<stop  offset="0" style="stop-color:#C7C7C7"/>
		<stop  offset="0.15" style="stop-color:#FFFFFF"/>
		<stop  offset="0.25" style="stop-color:#FFFFFF"/>
		<stop  offset="0.52" style="stop-color:#DFDFDF"/>
		<stop  offset="0.69" style="stop-color:#C7C7C7"/>
		<stop  offset="0.8" style="stop-color:#BCBCBC"/>
		<stop  offset="0.92" style="stop-color:#B1B1B1"/>
	</linearGradient>
	<path fill="url(#SVGID_9_)" d="M48.227,124.859h184.5v26.25h-184.5V124.859z"/>
	
		<linearGradient id="SVGID_10_" gradientUnits="userSpaceOnUse" x1="38.6138" y1="174.2813" x2="14.5718" y2="174.2813" gradientTransform="matrix(0.75 0 0 -0.75 19.313 278.9893)">
		<stop  offset="0" style="stop-color:#92A6AE"/>
		<stop  offset="0.01" style="stop-color:#DAEFF8"/>
		<stop  offset="0.03" style="stop-color:#BED8E3"/>
		<stop  offset="0.64" style="stop-color:#BBD5DF"/>
		<stop  offset="0.99" style="stop-color:#B7D0DA"/>
		<stop  offset="1" style="stop-color:#879AA2"/>
	</linearGradient>
	<path fill="url(#SVGID_10_)" d="M31.773,119.023h15c0.75,0,1.453,0.625,1.453,1.434l0.047,55.566c0,0.75-0.695,1.512-1.48,1.512
		l-15.02-0.012c-0.75,0-1.531-0.676-1.531-1.484l0.031-55.516c0-0.75,0.605-1.5,1.387-1.5H31.773z"/>
	
		<linearGradient id="SVGID_11_" gradientUnits="userSpaceOnUse" x1="131.6128" y1="213.2881" x2="131.6128" y2="124.2881" gradientTransform="matrix(0.75 0 0 -0.75 43.2041 258.2822)">
		<stop  offset="0" style="stop-color:#C7C7C7"/>
		<stop  offset="0.15" style="stop-color:#FFFFFF"/>
		<stop  offset="0.25" style="stop-color:#FEFEFE"/>
		<stop  offset="0.59" style="stop-color:#DFDFDF"/>
		<stop  offset="0.83" style="stop-color:#C7C7C7"/>
		<stop  offset="1" style="stop-color:#BCBCBC"/>
	</linearGradient>
	<path fill="url(#SVGID_11_)" d="M54.164,98.316h175.5v66.75h-175.5V98.316z"/>
	
		<linearGradient id="SVGID_12_" gradientUnits="userSpaceOnUse" x1="134.9751" y1="213.2871" x2="134.9751" y2="207.0586" gradientTransform="matrix(0.75 0 0 -0.75 40.7217 254.3281)">
		<stop  offset="0" style="stop-color:#C7C7C7"/>
		<stop  offset="0.15" style="stop-color:#FFFFFF"/>
		<stop  offset="0.25" style="stop-color:#FFFFFF"/>
		<stop  offset="0.52" style="stop-color:#DFDFDF"/>
		<stop  offset="0.69" style="stop-color:#C7C7C7"/>
		<stop  offset="0.8" style="stop-color:#BCBCBC"/>
		<stop  offset="0.92" style="stop-color:#B1B1B1"/>
	</linearGradient>
	<path fill="url(#SVGID_12_)" d="M53.934,94.363h176.25c0.75,0,2.008,1.031,2.008,2.301c0.242,1.449-1.016,2.371-2.27,2.371
		L53.934,98.863c-1.5,0-2.25-0.855-2.25-2.129c0-1.621,1.016-2.371,2.27-2.371H53.934z"/>
	
		<linearGradient id="SVGID_13_" gradientUnits="userSpaceOnUse" x1="37.6123" y1="200.2852" x2="14.6123" y2="200.2852" gradientTransform="matrix(0.75 0 0 -0.75 53.0327 317.5996)">
		<stop  offset="0" style="stop-color:#92A6AE"/>
		<stop  offset="0.01" style="stop-color:#DAEFF8"/>
		<stop  offset="0.03" style="stop-color:#BED8E3"/>
		<stop  offset="0.64" style="stop-color:#BBD5DF"/>
		<stop  offset="0.99" style="stop-color:#B7D0DA"/>
		<stop  offset="1" style="stop-color:#879AA2"/>
	</linearGradient>
	<path fill="url(#SVGID_13_)" d="M63.992,157.637h17.25v19.5h-17.25V157.637z"/>
	
		<linearGradient id="SVGID_14_" gradientUnits="userSpaceOnUse" x1="16.1128" y1="213.2881" x2="16.1128" y2="123.2881" gradientTransform="matrix(0.75 0 0 -0.75 43.2041 258.2822)">
		<stop  offset="0" style="stop-color:#9FA0A0"/>
		<stop  offset="0.15" style="stop-color:#DADBDB"/>
		<stop  offset="0.25" style="stop-color:#DDDEDE"/>
		<stop  offset="0.52" style="stop-color:#B3B4B4"/>
		<stop  offset="0.69" style="stop-color:#9FA0A0"/>
		<stop  offset="0.8" style="stop-color:#969797"/>
		<stop  offset="0.92" style="stop-color:#8E8E8E"/>
	</linearGradient>
	<path fill="url(#SVGID_14_)" d="M54.164,98.316h2.25v67.5h-2.25V98.316z"/>
	
		<linearGradient id="SVGID_15_" gradientUnits="userSpaceOnUse" x1="16.1108" y1="213.2881" x2="16.1108" y2="123.2881" gradientTransform="matrix(0.75 0 0 -0.75 216.3662 258.2822)">
		<stop  offset="0" style="stop-color:#9FA0A0"/>
		<stop  offset="0.15" style="stop-color:#DADBDB"/>
		<stop  offset="0.25" style="stop-color:#DDDEDE"/>
		<stop  offset="0.52" style="stop-color:#B3B4B4"/>
		<stop  offset="0.69" style="stop-color:#9FA0A0"/>
		<stop  offset="0.8" style="stop-color:#969797"/>
		<stop  offset="0.92" style="stop-color:#8E8E8E"/>
	</linearGradient>
	<path fill="url(#SVGID_15_)" d="M227.324,98.316h2.25v67.5h-2.25V98.316z"/>
	
		<linearGradient id="SVGID_16_" gradientUnits="userSpaceOnUse" x1="25.1152" y1="213.2861" x2="25.1152" y2="186.2861" gradientTransform="matrix(0.75 0 0 -0.75 221.8979 287.9414)">
		<stop  offset="0" style="stop-color:#C7C7C7"/>
		<stop  offset="0.15" style="stop-color:#FFFFFF"/>
		<stop  offset="0.25" style="stop-color:#FFFFFF"/>
		<stop  offset="0.52" style="stop-color:#DFDFDF"/>
		<stop  offset="0.69" style="stop-color:#C7C7C7"/>
		<stop  offset="0.8" style="stop-color:#BCBCBC"/>
		<stop  offset="0.92" style="stop-color:#B1B1B1"/>
	</linearGradient>
	<path fill="url(#SVGID_16_)" d="M232.859,127.977h15.75v20.25h-15.75V127.977z"/>
	
		<linearGradient id="SVGID_17_" gradientUnits="userSpaceOnUse" x1="16.6113" y1="213.29" x2="16.6113" y2="171.1074" gradientTransform="matrix(0.75 0 0 -0.75 230.4087 282.1895)">
		<stop  offset="0" style="stop-color:#C7C7C7"/>
		<stop  offset="0.15" style="stop-color:#FFFFFF"/>
		<stop  offset="0.25" style="stop-color:#FFFFFF"/>
		<stop  offset="0.52" style="stop-color:#DFDFDF"/>
		<stop  offset="0.69" style="stop-color:#C7C7C7"/>
		<stop  offset="0.8" style="stop-color:#BCBCBC"/>
		<stop  offset="0.92" style="stop-color:#B1B1B1"/>
	</linearGradient>
	<path fill="url(#SVGID_17_)" d="M242.867,122.223c0.75,0,1.34,0.613,1.34,1.41l0.16,28.59c0,0.75-0.797,1.637-1.578,1.637
		c-0.672-0.137-1.422-0.672-1.422-1.469v-28.668c0-0.75,0.637-1.5,1.422-1.5H242.867z"/>
	
		<linearGradient id="SVGID_18_" gradientUnits="userSpaceOnUse" x1="24.5938" y1="213.2861" x2="24.5937" y2="167.2705" gradientTransform="matrix(0.75 0 0 -0.75 237.0586 284.2021)">
		<stop  offset="0" style="stop-color:#92A6AE"/>
		<stop  offset="0.01" style="stop-color:#DAEFF8"/>
		<stop  offset="0.03" style="stop-color:#BED8E3"/>
		<stop  offset="0.64" style="stop-color:#BBD5DF"/>
		<stop  offset="0.99" style="stop-color:#B7D0DA"/>
		<stop  offset="1" style="stop-color:#879AA2"/>
	</linearGradient>
	<path fill="url(#SVGID_18_)" d="M249.52,124.238h12c0.75,0,1.129,0.613,1.129,1.406l0.371,31.594c0,0.75-1.008,1.512-1.793,1.512
		l-11.707-0.012c-0.75,0-1.531-0.664-1.531-1.457l0.031-31.543c0-0.75,0.605-1.5,1.387-1.5H249.52z"/>
	
		<linearGradient id="SVGID_19_" gradientUnits="userSpaceOnUse" x1="40.6118" y1="199.7881" x2="14.6118" y2="199.7881" gradientTransform="matrix(0.75 0 0 -0.75 234.4429 315.8984)">
		<stop  offset="0" style="stop-color:#92A6AE"/>
		<stop  offset="0.01" style="stop-color:#DAEFF8"/>
		<stop  offset="0.03" style="stop-color:#BED8E3"/>
		<stop  offset="0.64" style="stop-color:#BBD5DF"/>
		<stop  offset="0.99" style="stop-color:#B7D0DA"/>
		<stop  offset="1" style="stop-color:#879AA2"/>
	</linearGradient>
	<path fill="url(#SVGID_19_)" d="M245.402,155.934h19.5v20.25h-19.5V155.934z"/>
	
		<linearGradient id="SVGID_20_" gradientUnits="userSpaceOnUse" x1="33.1152" y1="213.2861" x2="33.1152" y2="198.2861" gradientTransform="matrix(0.75 0 0 -0.75 251.687 294.3281)">
		<stop  offset="0" style="stop-color:#C7C7C7"/>
		<stop  offset="0.15" style="stop-color:#FFFFFF"/>
		<stop  offset="0.25" style="stop-color:#FFFFFF"/>
		<stop  offset="0.52" style="stop-color:#DFDFDF"/>
		<stop  offset="0.69" style="stop-color:#C7C7C7"/>
		<stop  offset="0.8" style="stop-color:#BCBCBC"/>
		<stop  offset="0.92" style="stop-color:#B1B1B1"/>
	</linearGradient>
	<path fill="url(#SVGID_20_)" d="M262.648,134.363h27.75v11.25h-27.75V134.363z"/>
	
		<linearGradient id="SVGID_21_" gradientUnits="userSpaceOnUse" x1="21.6045" y1="213.3252" x2="21.6045" y2="187.1016" gradientTransform="matrix(0.75 0 0 -0.75 260.6855 290.0439)">
		<stop  offset="0" style="stop-color:#C7C7C7"/>
		<stop  offset="0.15" style="stop-color:#FFFFFF"/>
		<stop  offset="0.25" style="stop-color:#FFFFFF"/>
		<stop  offset="0.52" style="stop-color:#DFDFDF"/>
		<stop  offset="0.69" style="stop-color:#C7C7C7"/>
		<stop  offset="0.8" style="stop-color:#BCBCBC"/>
		<stop  offset="0.92" style="stop-color:#B1B1B1"/>
	</linearGradient>
	<path fill="url(#SVGID_21_)" d="M273.145,130.078h7.5c0.75,0,1.391,0.613,1.391,1.41l0.109,16.59c0,0.75-0.746,1.641-1.531,1.641
		l-7.469-0.141c-0.75,0-1.512-0.52-1.512-1.313l0.012-16.688c0-0.75,0.621-1.527,1.406-1.527L273.145,130.078z"/>
	
		<linearGradient id="SVGID_22_" gradientUnits="userSpaceOnUse" x1="28.7993" y1="213.2861" x2="28.7993" y2="158.2813" gradientTransform="matrix(0.75 0 0 -0.75 278.6392 284.7412)">
		<stop  offset="0" style="stop-color:#92A6AE"/>
		<stop  offset="0.01" style="stop-color:#DAEFF8"/>
		<stop  offset="0.03" style="stop-color:#BED8E3"/>
		<stop  offset="0.64" style="stop-color:#BBD5DF"/>
		<stop  offset="0.99" style="stop-color:#B7D0DA"/>
		<stop  offset="1" style="stop-color:#879AA2"/>
	</linearGradient>
	<path fill="url(#SVGID_22_)" d="M291.098,124.777h18c1.5,0,1.781,0.645,1.781,1.438l-0.281,38.313c0,0.75-0.355,1.504-1.141,1.504
		l-18.359-0.004c-0.75,0-1.5-0.672-1.5-1.465v-38.285c0-0.75,0.637-1.5,1.422-1.5H291.098z"/>
	
		<linearGradient id="SVGID_23_" gradientUnits="userSpaceOnUse" x1="70.6143" y1="213.2861" x2="70.6143" y2="197.2861" gradientTransform="matrix(0.75 0 0 -0.75 272.9653 324.5264)">
		<stop  offset="0" style="stop-color:#92A6AE"/>
		<stop  offset="0.01" style="stop-color:#DAEFF8"/>
		<stop  offset="0.03" style="stop-color:#BED8E3"/>
		<stop  offset="0.64" style="stop-color:#BBD5DF"/>
		<stop  offset="0.99" style="stop-color:#B7D0DA"/>
		<stop  offset="1" style="stop-color:#879AA2"/>
	</linearGradient>
	<path fill="url(#SVGID_23_)" d="M283.926,164.563h84v12h-84V164.563z"/>
	
		<linearGradient id="SVGID_24_" gradientUnits="userSpaceOnUse" x1="17.6162" y1="213.2832" x2="17.6162" y2="171.2832" gradientTransform="matrix(0.75 0 0 -0.75 299.7412 287.4434)">
		<stop  offset="0" style="stop-color:#9E9797"/>
		<stop  offset="0.15" style="stop-color:#D9D0D0"/>
		<stop  offset="0.25" style="stop-color:#EAE5E5"/>
		<stop  offset="0.52" style="stop-color:#BBB3B3"/>
		<stop  offset="0.69" style="stop-color:#A69F9F"/>
		<stop  offset="0.8" style="stop-color:#9D9696"/>
		<stop  offset="0.92" style="stop-color:#948E8E"/>
		<stop  offset="1" style="stop-color:#AAA3A3"/>
	</linearGradient>
	<path fill="url(#SVGID_24_)" d="M311.453,127.48h3.75v31.5h-3.75c-0.75,0-0.75-0.008-0.75-0.426V128.23
		c0-0.75,0.332-0.75,0.746-0.75H311.453z"/>
	
		<linearGradient id="SVGID_25_" gradientUnits="userSpaceOnUse" x1="37.1143" y1="213.2871" x2="37.1143" y2="169.2871" gradientTransform="matrix(0.75 0 0 -0.75 305.7544 286.8359)">
		<stop  offset="0" style="stop-color:#968E8E"/>
		<stop  offset="0.15" style="stop-color:#CFC5C5"/>
		<stop  offset="0.25" style="stop-color:#E4DFE0"/>
		<stop  offset="0.52" style="stop-color:#B1A8A9"/>
		<stop  offset="0.69" style="stop-color:#9E9596"/>
		<stop  offset="0.8" style="stop-color:#958C8D"/>
		<stop  offset="0.92" style="stop-color:#8C8485"/>
		<stop  offset="1" style="stop-color:#A19999"/>
	</linearGradient>
	<path fill="url(#SVGID_25_)" d="M316.715,126.871h33.75v33h-33.75V126.871z"/>
	
		<linearGradient id="SVGID_26_" gradientUnits="userSpaceOnUse" x1="24.5845" y1="213.2871" x2="24.5845" y2="169.1523" gradientTransform="matrix(0.75 0 0 -0.75 339.0034 286.8359)">
		<stop  offset="0" style="stop-color:#968E8E"/>
		<stop  offset="0.15" style="stop-color:#CFC5C5"/>
		<stop  offset="0.25" style="stop-color:#E4DFE0"/>
		<stop  offset="0.52" style="stop-color:#B1A8A9"/>
		<stop  offset="0.69" style="stop-color:#9E9596"/>
		<stop  offset="0.8" style="stop-color:#958C8D"/>
		<stop  offset="0.92" style="stop-color:#8C8485"/>
		<stop  offset="1" style="stop-color:#A19999"/>
	</linearGradient>
	<path fill="url(#SVGID_26_)" d="M349.965,126.871h12c0,0,2.887,0,2.953,16.551c0.047,16.449-3.035,16.551-3.035,16.551
		l-11.918-0.102V126.871z"/>
	
		<linearGradient id="SVGID_27_" gradientUnits="userSpaceOnUse" x1="15.1162" y1="213.2871" x2="15.1162" y2="169.2871" gradientTransform="matrix(0.75 0 0 -0.75 338.8818 286.8359)">
		<stop  offset="0" style="stop-color:#817A7A"/>
		<stop  offset="0.15" style="stop-color:#B5ADAD"/>
		<stop  offset="0.25" style="stop-color:#D8D4D4"/>
		<stop  offset="0.52" style="stop-color:#999191"/>
		<stop  offset="0.69" style="stop-color:#888080"/>
		<stop  offset="0.8" style="stop-color:#807979"/>
		<stop  offset="0.92" style="stop-color:#787272"/>
		<stop  offset="1" style="stop-color:#8B8383"/>
	</linearGradient>
	<path fill="url(#SVGID_27_)" d="M349.844,126.871l0.75,33L349.844,126.871z"/>
	
		<linearGradient id="SVGID_28_" gradientUnits="userSpaceOnUse" x1="-573.1226" y1="213.2842" x2="-573.1226" y2="166.2842" gradientTransform="matrix(-0.75 0 0 -0.75 -114.1924 285.9238)">
		<stop  offset="0" style="stop-color:#696363"/>
		<stop  offset="0.15" style="stop-color:#999292"/>
		<stop  offset="0.25" style="stop-color:#CCC9C9"/>
		<stop  offset="0.52" style="stop-color:#7C7575"/>
		<stop  offset="0.69" style="stop-color:#6E6868"/>
		<stop  offset="0.8" style="stop-color:#686262"/>
		<stop  offset="0.92" style="stop-color:#625C5C"/>
		<stop  offset="1" style="stop-color:#716A6A"/>
	</linearGradient>
	<path fill="url(#SVGID_28_)" d="M316.77,125.961h-1.5c0,0-0.492,0.152-0.492,0.344l-0.258,34.156c0,0,0.41,0.375,0.602,0.375
		l1.648,0.375c0,0,0.012-0.543,0.012-0.734L316.77,125.961c0,0-0.145,0-0.332,0H316.77z"/>
	
		<linearGradient id="SVGID_29_" gradientUnits="userSpaceOnUse" x1="-573.625" y1="213.2871" x2="-573.625" y2="166.8906" gradientTransform="matrix(-0.75 0 0 -0.75 -114.9785 285.9648)">
		<stop  offset="0" style="stop-color:#968E8E"/>
		<stop  offset="0.15" style="stop-color:#CFC5C5"/>
		<stop  offset="0.25" style="stop-color:#E4DFE0"/>
		<stop  offset="0.52" style="stop-color:#B1A8A9"/>
		<stop  offset="0.69" style="stop-color:#9E9596"/>
		<stop  offset="0.8" style="stop-color:#958C8D"/>
		<stop  offset="0.92" style="stop-color:#8C8485"/>
		<stop  offset="1" style="stop-color:#A19999"/>
	</linearGradient>
	<path fill="url(#SVGID_29_)" d="M315.23,126c0,0-0.449,0.156-0.449,0.348L314.48,160.5c0,0,0.496,0.297,0.742,0.297
		c0.758-0.297,0.777-0.164,0.777-0.355L315.98,126c0,0-0.18,0-0.426,0H315.23z"/>
	<path fill="#A59C9D" d="M318.148,154.957h30.75v7.5h-30.75V154.957z"/>
	<path fill="#C7C0C1" d="M318.148,161.957h30.75v2.25h-30.75V161.957z"/>
	
		<linearGradient id="SVGID_30_" gradientUnits="userSpaceOnUse" x1="34.0083" y1="213.3008" x2="34.0083" y2="211.8115" gradientTransform="matrix(0.75 0 0 -0.75 309.3906 294.252)">
		<stop  offset="0" style="stop-color:#968E8E"/>
		<stop  offset="0.15" style="stop-color:#CFC5C5"/>
		<stop  offset="0.25" style="stop-color:#E4DFE0"/>
		<stop  offset="0.52" style="stop-color:#B1A8A9"/>
		<stop  offset="0.69" style="stop-color:#9E9596"/>
		<stop  offset="0.8" style="stop-color:#958C8D"/>
		<stop  offset="0.92" style="stop-color:#8C8485"/>
		<stop  offset="1" style="stop-color:#A19999"/>
	</linearGradient>
	<path fill="url(#SVGID_30_)" d="M320.352,134.289h28.5c0.75,0,0.512,0.145,0.512,0.336c0.238,0.414-0.125,0.77-0.277,0.77
		l-28.734-0.355c0,0,0,0.199,0,0.008c0-0.758,0.113-0.77,0.266-0.77L320.352,134.289z"/>
	
		<linearGradient id="SVGID_31_" gradientUnits="userSpaceOnUse" x1="34.0083" y1="213.3018" x2="34.0083" y2="211.8143" gradientTransform="matrix(0.75 0 0 -0.75 309.3906 297.5039)">
		<stop  offset="0" style="stop-color:#968E8E"/>
		<stop  offset="0.15" style="stop-color:#CFC5C5"/>
		<stop  offset="0.25" style="stop-color:#E4DFE0"/>
		<stop  offset="0.52" style="stop-color:#B1A8A9"/>
		<stop  offset="0.69" style="stop-color:#9E9596"/>
		<stop  offset="0.8" style="stop-color:#958C8D"/>
		<stop  offset="0.92" style="stop-color:#8C8485"/>
		<stop  offset="1" style="stop-color:#A19999"/>
	</linearGradient>
	<path fill="url(#SVGID_31_)" d="M320.352,137.539h28.5c0.75,0,0.512,0.145,0.512,0.336c0.238,0.414-0.125,0.77-0.277,0.77
		l-28.734-0.355c0,0,0,0.199,0,0.008c0-0.758,0.113-0.77,0.266-0.77L320.352,137.539z"/>
	
		<linearGradient id="SVGID_32_" gradientUnits="userSpaceOnUse" x1="34.0083" y1="213.3008" x2="34.0083" y2="211.8124" gradientTransform="matrix(0.75 0 0 -0.75 309.3906 300.7549)">
		<stop  offset="0" style="stop-color:#968E8E"/>
		<stop  offset="0.15" style="stop-color:#CFC5C5"/>
		<stop  offset="0.25" style="stop-color:#E4DFE0"/>
		<stop  offset="0.52" style="stop-color:#B1A8A9"/>
		<stop  offset="0.69" style="stop-color:#9E9596"/>
		<stop  offset="0.8" style="stop-color:#958C8D"/>
		<stop  offset="0.92" style="stop-color:#8C8485"/>
		<stop  offset="1" style="stop-color:#A19999"/>
	</linearGradient>
	<path fill="url(#SVGID_32_)" d="M320.352,140.789h28.5c0.75,0,0.512,0.145,0.512,0.336c0.238,0.414-0.125,0.77-0.277,0.77
		l-28.734-0.355c0,0,0,0.203,0,0.008c0-0.758,0.113-0.766,0.266-0.766L320.352,140.789z"/>
	
		<linearGradient id="SVGID_33_" gradientUnits="userSpaceOnUse" x1="34.0083" y1="213.2998" x2="34.0083" y2="211.8124" gradientTransform="matrix(0.75 0 0 -0.75 309.3906 304.0059)">
		<stop  offset="0" style="stop-color:#968E8E"/>
		<stop  offset="0.15" style="stop-color:#CFC5C5"/>
		<stop  offset="0.25" style="stop-color:#E4DFE0"/>
		<stop  offset="0.52" style="stop-color:#B1A8A9"/>
		<stop  offset="0.69" style="stop-color:#9E9596"/>
		<stop  offset="0.8" style="stop-color:#958C8D"/>
		<stop  offset="0.92" style="stop-color:#8C8485"/>
		<stop  offset="1" style="stop-color:#A19999"/>
	</linearGradient>
	<path fill="url(#SVGID_33_)" d="M320.352,144.043h28.5c0.75,0,0.512,0.145,0.512,0.336c0.238,0.414-0.125,0.77-0.277,0.77
		l-28.734-0.355c0,0,0,0.199,0,0.008c0-0.758,0.113-0.77,0.266-0.77L320.352,144.043z"/>
	
		<linearGradient id="SVGID_34_" gradientUnits="userSpaceOnUse" x1="34.0083" y1="213.3027" x2="34.0083" y2="211.8125" gradientTransform="matrix(0.75 0 0 -0.75 309.3906 307.2578)">
		<stop  offset="0" style="stop-color:#968E8E"/>
		<stop  offset="0.15" style="stop-color:#CFC5C5"/>
		<stop  offset="0.25" style="stop-color:#E4DFE0"/>
		<stop  offset="0.52" style="stop-color:#B1A8A9"/>
		<stop  offset="0.69" style="stop-color:#9E9596"/>
		<stop  offset="0.8" style="stop-color:#958C8D"/>
		<stop  offset="0.92" style="stop-color:#8C8485"/>
		<stop  offset="1" style="stop-color:#A19999"/>
	</linearGradient>
	<path fill="url(#SVGID_34_)" d="M320.352,147.293h28.5c0.75,0,0.512,0.145,0.512,0.336c0.238,0.414-0.125,0.77-0.277,0.77
		l-28.734-0.355c0,0,0,0.199,0,0.008c0-0.758,0.113-0.77,0.266-0.77L320.352,147.293z"/>
	
		<linearGradient id="SVGID_35_" gradientUnits="userSpaceOnUse" x1="34.0083" y1="213.2998" x2="34.0083" y2="211.8114" gradientTransform="matrix(0.75 0 0 -0.75 309.3906 310.5098)">
		<stop  offset="0" style="stop-color:#968E8E"/>
		<stop  offset="0.15" style="stop-color:#CFC5C5"/>
		<stop  offset="0.25" style="stop-color:#E4DFE0"/>
		<stop  offset="0.52" style="stop-color:#B1A8A9"/>
		<stop  offset="0.69" style="stop-color:#9E9596"/>
		<stop  offset="0.8" style="stop-color:#958C8D"/>
		<stop  offset="0.92" style="stop-color:#8C8485"/>
		<stop  offset="1" style="stop-color:#A19999"/>
	</linearGradient>
	<path fill="url(#SVGID_35_)" d="M320.352,150.543h28.5c0.75,0,0.512,0.145,0.512,0.336c0.238,0.414-0.125,0.77-0.277,0.77
		l-28.734-0.355c0,0,0,0.203,0,0.008c0-0.758,0.113-0.766,0.266-0.766L320.352,150.543z"/>
	
		<linearGradient id="SVGID_36_" gradientUnits="userSpaceOnUse" x1="37.6147" y1="200.2852" x2="14.6147" y2="200.2852" gradientTransform="matrix(0.75 0 0 -0.75 190.582 317.5996)">
		<stop  offset="0" style="stop-color:#92A6AE"/>
		<stop  offset="0.01" style="stop-color:#DAEFF8"/>
		<stop  offset="0.03" style="stop-color:#BED8E3"/>
		<stop  offset="0.64" style="stop-color:#BBD5DF"/>
		<stop  offset="0.99" style="stop-color:#B7D0DA"/>
		<stop  offset="1" style="stop-color:#879AA2"/>
	</linearGradient>
	<path fill="url(#SVGID_36_)" d="M201.543,157.637h17.25v19.5h-17.25V157.637z"/>
	
		<linearGradient id="SVGID_37_" gradientUnits="userSpaceOnUse" x1="241.6123" y1="213.2881" x2="241.6123" y2="185.0068" gradientTransform="matrix(0.75 0 0 -0.75 19.04 336.2939)">
		<stop  offset="0" style="stop-color:#728B96"/>
		<stop  offset="0.01" style="stop-color:#BAD3DD"/>
		<stop  offset="0.03" style="stop-color:#96B6C3"/>
		<stop  offset="0.64" style="stop-color:#93B3C0"/>
		<stop  offset="0.99" style="stop-color:#90AFBC"/>
		<stop  offset="1" style="stop-color:#6A818B"/>
	</linearGradient>
	<path fill="url(#SVGID_37_)" d="M32.25,176.328h336c1.5,0,2.25,1.031,2.25,2.301v16.449c0,1.5-1.109,2.461-2.48,2.461
		l-335.77-0.211c-1.5,0-2.25-0.816-2.25-2.09v-16.66c0-1.5,1.109-2.25,2.48-2.25H32.25z"/>
	
		<linearGradient id="SVGID_38_" gradientUnits="userSpaceOnUse" x1="241.6123" y1="213.2871" x2="241.6123" y2="194.2871" gradientTransform="matrix(0.75 0 0 -0.75 19.04 339.6016)">
		<stop  offset="0" style="stop-color:#92A6AE"/>
		<stop  offset="0.01" style="stop-color:#DAEFF8"/>
		<stop  offset="0.03" style="stop-color:#BED8E3"/>
		<stop  offset="0.64" style="stop-color:#BBD5DF"/>
		<stop  offset="0.99" style="stop-color:#B7D0DA"/>
		<stop  offset="1" style="stop-color:#879AA2"/>
	</linearGradient>
	<path fill="url(#SVGID_38_)" d="M30,179.637h340.5v14.25H30V179.637z"/>
</g>
</svg>
