<?xml version="1.0" encoding="utf-8"?>
<!-- Generator: Adobe Illustrator 16.0.0, SVG Export Plug-In . SVG Version: 6.00 Build 0)  -->
<!DOCTYPE svg PUBLIC "-//W3C//DTD SVG 1.1//EN" "http://www.w3.org/Graphics/SVG/1.1/DTD/svg11.dtd">
<svg preserveAspectRatio="none" version="1.1" id="图层_1" xmlns="http://www.w3.org/2000/svg" xmlns:xlink="http://www.w3.org/1999/xlink" x="0px" y="0px"
	 width="125.992px" height="125.996px" viewBox="30 30 125.992 125.996" enable-background="new 30 30 125.992 125.996"
	 xml:space="preserve">
<g id="surface1171">
	
		<linearGradient id="SVGID_1_" gradientUnits="userSpaceOnUse" x1="134.3643" y1="25.5376" x2="50.3643" y2="25.5376" gradientTransform="matrix(0.75 0 0 -0.75 55.0078 112.9658)">
		<stop  offset="0" style="stop-color:#C7A900"/>
		<stop  offset="0.15" style="stop-color:#FFE386"/>
		<stop  offset="0.25" style="stop-color:#FFE593"/>
		<stop  offset="0.52" style="stop-color:#DFBE00"/>
		<stop  offset="0.69" style="stop-color:#C7A900"/>
		<stop  offset="0.8" style="stop-color:#BC9F00"/>
		<stop  offset="0.92" style="stop-color:#B19600"/>
	</linearGradient>
	<path fill="url(#SVGID_1_)" d="M92.781,38.313h63v111h-63V38.313z"/>
	
		<linearGradient id="SVGID_2_" gradientUnits="userSpaceOnUse" x1="134.6455" y1="95.041" x2="50.3643" y2="95.041" gradientTransform="matrix(0.75 0 0 -0.75 55.0078 106.7012)">
		<stop  offset="0" style="stop-color:#B08E20"/>
		<stop  offset="0.01" style="stop-color:#FAD682"/>
		<stop  offset="0.05" style="stop-color:#E5BA2C"/>
		<stop  offset="0.9" style="stop-color:#E2B72B"/>
		<stop  offset="0.95" style="stop-color:#DDB32A"/>
		<stop  offset="1" style="stop-color:#A4841D"/>
	</linearGradient>
	<path fill="url(#SVGID_2_)" d="M92.781,38.797c0-3.75,14.148-6.75,31.605-6.75c17.145,0,31.605,2.969,31.605,6.629
		c-0.211,0.121-63.211,0-63.211,0V38.797z"/>
	
		<linearGradient id="SVGID_3_" gradientUnits="userSpaceOnUse" x1="134.6455" y1="641.4639" x2="50.3643" y2="641.4639" gradientTransform="matrix(0.75 0 0 0.75 55.0078 -328.4756)">
		<stop  offset="0" style="stop-color:#C79C12"/>
		<stop  offset="0.15" style="stop-color:#FFD889"/>
		<stop  offset="0.25" style="stop-color:#FFDA94"/>
		<stop  offset="0.52" style="stop-color:#DFB016"/>
		<stop  offset="0.69" style="stop-color:#C79C12"/>
		<stop  offset="0.8" style="stop-color:#BC9311"/>
		<stop  offset="0.92" style="stop-color:#B18B0F"/>
	</linearGradient>
	<path fill="url(#SVGID_3_)" d="M92.781,149.246c0,3.75,14.148,6.75,31.605,6.75c17.145,0,31.605-2.965,31.605-6.625
		c-0.211-0.125-63.211,0-63.211,0V149.246z"/>
	
		<linearGradient id="SVGID_4_" gradientUnits="userSpaceOnUse" x1="82.3643" y1="96.0615" x2="50.3643" y2="96.0615" gradientTransform="matrix(0.75 0 0 -0.75 74.7578 105.4785)">
		<stop  offset="0" style="stop-color:#2E4B87"/>
		<stop  offset="0.15" style="stop-color:#8F9CC6"/>
		<stop  offset="0.25" style="stop-color:#9AA5CA"/>
		<stop  offset="0.52" style="stop-color:#355598"/>
		<stop  offset="0.69" style="stop-color:#2E4B87"/>
		<stop  offset="0.8" style="stop-color:#2B467F"/>
		<stop  offset="0.92" style="stop-color:#284278"/>
	</linearGradient>
	<path fill="url(#SVGID_4_)" d="M114.031,30.828h21c0.75,0,1.211,0.633,1.211,1.465l0.289,3.785h-24v-3.75
		c0-0.75,0.516-1.539,1.184-1.539L114.031,30.828z"/>
	
		<linearGradient id="SVGID_5_" gradientUnits="userSpaceOnUse" x1="85.4067" y1="97.8496" x2="50.3237" y2="97.8496" gradientTransform="matrix(0.75 0 0 -0.75 73.4722 110.748)">
		<stop  offset="0" style="stop-color:#C6A457"/>
		<stop  offset="0.15" style="stop-color:#FEDFA3"/>
		<stop  offset="0.25" style="stop-color:#FEE1AB"/>
		<stop  offset="0.52" style="stop-color:#DEB863"/>
		<stop  offset="0.69" style="stop-color:#C6A457"/>
		<stop  offset="0.8" style="stop-color:#BB9B52"/>
		<stop  offset="0.92" style="stop-color:#B0924D"/>
	</linearGradient>
	<path fill="url(#SVGID_5_)" d="M112.746,36.094h23.25c0.75,0,1.531,0.516,1.531,1.184c-0.031,1.066-0.551,1.379-1.223,1.379
		l-23.559-0.313c-0.75,0-1.531-0.234-1.531-0.902c0.031-0.598,0.543-1.375,1.211-1.375L112.746,36.094z"/>
	
		<linearGradient id="SVGID_6_" gradientUnits="userSpaceOnUse" x1="134.3643" y1="97.0381" x2="50.3643" y2="97.0381" gradientTransform="matrix(0.75 0 0 -0.75 55.0078 166.8242)">
		<stop  offset="0" style="stop-color:#C7C7C7"/>
		<stop  offset="0.15" style="stop-color:#FFFFFF"/>
		<stop  offset="0.25" style="stop-color:#FFFFFF"/>
		<stop  offset="0.52" style="stop-color:#DFDFDF"/>
		<stop  offset="0.69" style="stop-color:#C7C7C7"/>
		<stop  offset="0.8" style="stop-color:#BCBCBC"/>
		<stop  offset="0.92" style="stop-color:#B1B1B1"/>
	</linearGradient>
	<path fill="url(#SVGID_6_)" d="M92.781,92.172h63v3.75h-63V92.172z"/>
	
		<linearGradient id="SVGID_7_" gradientUnits="userSpaceOnUse" x1="59.3984" y1="93.5381" x2="50.3623" y2="93.5381" gradientTransform="matrix(0.75 0 0 -0.75 64.1421 104.6523)">
		<stop  offset="0" style="stop-color:#B08E20"/>
		<stop  offset="0.01" style="stop-color:#FAD682"/>
		<stop  offset="0.05" style="stop-color:#E5BA2C"/>
		<stop  offset="0.9" style="stop-color:#E2B72B"/>
		<stop  offset="0.95" style="stop-color:#DDB32A"/>
		<stop  offset="1" style="stop-color:#A4841D"/>
	</linearGradient>
	<path fill="url(#SVGID_7_)" d="M102.664,30h5.25c0,0,0.777,0.422,0.777,0.957L108.664,39h-6.75v-8.25c0,0,0.414-0.75,0.945-0.75
		H102.664z"/>
	
		<linearGradient id="SVGID_8_" gradientUnits="userSpaceOnUse" x1="59.396" y1="93.5381" x2="50.3647" y2="93.5381" gradientTransform="matrix(0.75 0 0 -0.75 102.2769 104.6523)">
		<stop  offset="0" style="stop-color:#B08E20"/>
		<stop  offset="0.01" style="stop-color:#FAD682"/>
		<stop  offset="0.05" style="stop-color:#E5BA2C"/>
		<stop  offset="0.9" style="stop-color:#E2B72B"/>
		<stop  offset="0.95" style="stop-color:#DDB32A"/>
		<stop  offset="1" style="stop-color:#A4841D"/>
	</linearGradient>
	<path fill="url(#SVGID_8_)" d="M140.801,30h5.25c0,0,0.773,0.422,0.773,0.957L146.801,39h-6.75v-8.25c0,0,0.414-0.75,0.945-0.75
		H140.801z"/>
	
		<linearGradient id="SVGID_9_" gradientUnits="userSpaceOnUse" x1="82.3638" y1="99.04" x2="50.3638" y2="99.04" gradientTransform="matrix(0.75 0 0 -0.75 74.7383 106.6348)">
		<stop  offset="0" style="stop-color:#192B56"/>
		<stop  offset="0.15" style="stop-color:#8A8EA2"/>
		<stop  offset="0.25" style="stop-color:#9599AB"/>
		<stop  offset="0.52" style="stop-color:#1D3261"/>
		<stop  offset="0.69" style="stop-color:#192B56"/>
		<stop  offset="0.8" style="stop-color:#172850"/>
		<stop  offset="0.92" style="stop-color:#15254B"/>
	</linearGradient>
	<path fill="url(#SVGID_9_)" d="M136.512,31.98l-24,0.75L136.512,31.98z"/>
	
		<linearGradient id="SVGID_10_" gradientUnits="userSpaceOnUse" x1="52.3638" y1="96.2031" x2="50.3251" y2="96.2031" gradientTransform="matrix(0.75 0 0 -0.75 76.2881 105.6074)">
		<stop  offset="0" style="stop-color:#2E4B87"/>
		<stop  offset="0.15" style="stop-color:#8F9CC6"/>
		<stop  offset="0.25" style="stop-color:#9AA5CA"/>
		<stop  offset="0.52" style="stop-color:#355598"/>
		<stop  offset="0.69" style="stop-color:#2E4B87"/>
		<stop  offset="0.8" style="stop-color:#2B467F"/>
		<stop  offset="0.92" style="stop-color:#284278"/>
	</linearGradient>
	<path fill="url(#SVGID_10_)" d="M114.809,30.957c0,0,0.523,0.191,0.523,0.457l0.227,4.043c0,0-0.52,0.418-0.879,0.418
		c-0.621,0.332-0.648-0.219-0.648-0.484l0.027-3.684c0-0.75,0.266-0.773,0.621-0.773L114.809,30.957z"/>
	
		<linearGradient id="SVGID_11_" gradientUnits="userSpaceOnUse" x1="52.3638" y1="96.2031" x2="50.3251" y2="96.2031" gradientTransform="matrix(0.75 0 0 -0.75 82.5186 105.6074)">
		<stop  offset="0" style="stop-color:#2E4B87"/>
		<stop  offset="0.15" style="stop-color:#8F9CC6"/>
		<stop  offset="0.25" style="stop-color:#9AA5CA"/>
		<stop  offset="0.52" style="stop-color:#355598"/>
		<stop  offset="0.69" style="stop-color:#2E4B87"/>
		<stop  offset="0.8" style="stop-color:#2B467F"/>
		<stop  offset="0.92" style="stop-color:#284278"/>
	</linearGradient>
	<path fill="url(#SVGID_11_)" d="M121.039,30.957c0,0,0.523,0.191,0.523,0.457l0.227,4.043c0,0-0.52,0.418-0.879,0.418
		c-0.621,0.332-0.648-0.219-0.648-0.484l0.027-3.684c0-0.75,0.266-0.773,0.621-0.773L121.039,30.957z"/>
	
		<linearGradient id="SVGID_12_" gradientUnits="userSpaceOnUse" x1="52.3657" y1="96.2031" x2="50.327" y2="96.2031" gradientTransform="matrix(0.75 0 0 -0.75 88.749 105.6074)">
		<stop  offset="0" style="stop-color:#2E4B87"/>
		<stop  offset="0.15" style="stop-color:#8F9CC6"/>
		<stop  offset="0.25" style="stop-color:#9AA5CA"/>
		<stop  offset="0.52" style="stop-color:#355598"/>
		<stop  offset="0.69" style="stop-color:#2E4B87"/>
		<stop  offset="0.8" style="stop-color:#2B467F"/>
		<stop  offset="0.92" style="stop-color:#284278"/>
	</linearGradient>
	<path fill="url(#SVGID_12_)" d="M127.273,30.957c0,0,0.52,0.191,0.52,0.457l0.23,4.043c0,0-0.523,0.418-0.883,0.418
		c-0.617,0.332-0.648-0.219-0.648-0.484l0.031-3.684c0-0.75,0.262-0.773,0.617-0.773L127.273,30.957z"/>
	
		<linearGradient id="SVGID_13_" gradientUnits="userSpaceOnUse" x1="52.3657" y1="96.2031" x2="50.327" y2="96.2031" gradientTransform="matrix(0.75 0 0 -0.75 94.9795 105.6074)">
		<stop  offset="0" style="stop-color:#2E4B87"/>
		<stop  offset="0.15" style="stop-color:#8F9CC6"/>
		<stop  offset="0.25" style="stop-color:#9AA5CA"/>
		<stop  offset="0.52" style="stop-color:#355598"/>
		<stop  offset="0.69" style="stop-color:#2E4B87"/>
		<stop  offset="0.8" style="stop-color:#2B467F"/>
		<stop  offset="0.92" style="stop-color:#284278"/>
	</linearGradient>
	<path fill="url(#SVGID_13_)" d="M133.504,30.957c0,0,0.52,0.191,0.52,0.457l0.23,4.043c0,0-0.523,0.418-0.883,0.418
		c-0.617,0.332-0.648-0.219-0.648-0.484l0.031-3.684c0-0.75,0.262-0.773,0.617-0.773L133.504,30.957z"/>
	
		<linearGradient id="SVGID_14_" gradientUnits="userSpaceOnUse" x1="134.3623" y1="25.5376" x2="50.3623" y2="25.5376" gradientTransform="matrix(0.75 0 0 -0.75 -7.7725 112.9658)">
		<stop  offset="0" style="stop-color:#C7A900"/>
		<stop  offset="0.15" style="stop-color:#FFE386"/>
		<stop  offset="0.25" style="stop-color:#FFE593"/>
		<stop  offset="0.52" style="stop-color:#DFBE00"/>
		<stop  offset="0.69" style="stop-color:#C7A900"/>
		<stop  offset="0.8" style="stop-color:#BC9F00"/>
		<stop  offset="0.92" style="stop-color:#B19600"/>
	</linearGradient>
	<path fill="url(#SVGID_14_)" d="M30,38.313h63v111H30V38.313z"/>
	
		<linearGradient id="SVGID_15_" gradientUnits="userSpaceOnUse" x1="134.6182" y1="95.041" x2="50.3623" y2="95.041" gradientTransform="matrix(0.75 0 0 -0.75 -7.7725 106.7012)">
		<stop  offset="0" style="stop-color:#B08E20"/>
		<stop  offset="0.01" style="stop-color:#FAD682"/>
		<stop  offset="0.05" style="stop-color:#E5BA2C"/>
		<stop  offset="0.9" style="stop-color:#E2B72B"/>
		<stop  offset="0.95" style="stop-color:#DDB32A"/>
		<stop  offset="1" style="stop-color:#A4841D"/>
	</linearGradient>
	<path fill="url(#SVGID_15_)" d="M30,38.797c0-3.75,14.145-6.75,31.598-6.75c17.152,0,31.594,2.969,31.594,6.629
		C93,38.797,30,38.676,30,38.676V38.797z"/>
	
		<linearGradient id="SVGID_16_" gradientUnits="userSpaceOnUse" x1="134.6182" y1="641.4639" x2="50.3623" y2="641.4639" gradientTransform="matrix(0.75 0 0 0.75 -7.7725 -328.4756)">
		<stop  offset="0" style="stop-color:#C79C12"/>
		<stop  offset="0.15" style="stop-color:#FFD889"/>
		<stop  offset="0.25" style="stop-color:#FFDA94"/>
		<stop  offset="0.52" style="stop-color:#DFB016"/>
		<stop  offset="0.69" style="stop-color:#C79C12"/>
		<stop  offset="0.8" style="stop-color:#BC9311"/>
		<stop  offset="0.92" style="stop-color:#B18B0F"/>
	</linearGradient>
	<path fill="url(#SVGID_16_)" d="M30,149.246c0,3.75,14.145,6.75,31.598,6.75c17.152,0,31.594-2.965,31.594-6.625
		c-0.191-0.125-63.191,0-63.191,0V149.246z"/>
	
		<linearGradient id="SVGID_17_" gradientUnits="userSpaceOnUse" x1="82.3613" y1="96.0635" x2="50.3613" y2="96.0635" gradientTransform="matrix(0.75 0 0 -0.75 11.9673 105.4795)">
		<stop  offset="0" style="stop-color:#B75356"/>
		<stop  offset="0.15" style="stop-color:#F0A1A3"/>
		<stop  offset="0.25" style="stop-color:#F1A9AB"/>
		<stop  offset="0.52" style="stop-color:#CE5E62"/>
		<stop  offset="0.69" style="stop-color:#B75356"/>
		<stop  offset="0.8" style="stop-color:#AD4E51"/>
		<stop  offset="0.92" style="stop-color:#A3494C"/>
	</linearGradient>
	<path fill="url(#SVGID_17_)" d="M51.238,30.828h21c0.75,0,1.215,0.633,1.215,1.465l0.285,3.785h-24v-3.75
		c0-0.75,0.52-1.539,1.188-1.539L51.238,30.828z"/>
	
		<linearGradient id="SVGID_18_" gradientUnits="userSpaceOnUse" x1="85.4092" y1="97.8496" x2="50.3203" y2="97.8496" gradientTransform="matrix(0.75 0 0 -0.75 10.6812 110.748)">
		<stop  offset="0" style="stop-color:#C6A457"/>
		<stop  offset="0.15" style="stop-color:#FEDFA3"/>
		<stop  offset="0.25" style="stop-color:#FEE1AB"/>
		<stop  offset="0.52" style="stop-color:#DEB863"/>
		<stop  offset="0.69" style="stop-color:#C6A457"/>
		<stop  offset="0.8" style="stop-color:#BB9B52"/>
		<stop  offset="0.92" style="stop-color:#B0924D"/>
	</linearGradient>
	<path fill="url(#SVGID_18_)" d="M49.953,36.094h23.25c0.75,0,1.535,0.516,1.535,1.184c-0.035,1.066-0.555,1.379-1.223,1.379
		l-23.563-0.313c-0.75,0-1.531-0.234-1.531-0.902c0.031-0.598,0.543-1.375,1.211-1.375L49.953,36.094z"/>
	
		<linearGradient id="SVGID_19_" gradientUnits="userSpaceOnUse" x1="134.3623" y1="97.0381" x2="50.3623" y2="97.0381" gradientTransform="matrix(0.75 0 0 -0.75 -7.7725 166.8242)">
		<stop  offset="0" style="stop-color:#C7C7C7"/>
		<stop  offset="0.15" style="stop-color:#FFFFFF"/>
		<stop  offset="0.25" style="stop-color:#FFFFFF"/>
		<stop  offset="0.52" style="stop-color:#DFDFDF"/>
		<stop  offset="0.69" style="stop-color:#C7C7C7"/>
		<stop  offset="0.8" style="stop-color:#BCBCBC"/>
		<stop  offset="0.92" style="stop-color:#B1B1B1"/>
	</linearGradient>
	<path fill="url(#SVGID_19_)" d="M30,92.172h63v3.75H30V92.172z"/>
	
		<linearGradient id="SVGID_20_" gradientUnits="userSpaceOnUse" x1="59.3975" y1="93.5381" x2="50.3613" y2="93.5381" gradientTransform="matrix(0.75 0 0 -0.75 1.3618 104.6523)">
		<stop  offset="0" style="stop-color:#B08E20"/>
		<stop  offset="0.01" style="stop-color:#FAD682"/>
		<stop  offset="0.05" style="stop-color:#E5BA2C"/>
		<stop  offset="0.9" style="stop-color:#E2B72B"/>
		<stop  offset="0.95" style="stop-color:#DDB32A"/>
		<stop  offset="1" style="stop-color:#A4841D"/>
	</linearGradient>
	<path fill="url(#SVGID_20_)" d="M39.883,30h5.25c0,0,0.777,0.422,0.777,0.957L45.883,39h-6.75v-8.25c0,0,0.414-0.75,0.945-0.75
		H39.883z"/>
	
		<linearGradient id="SVGID_21_" gradientUnits="userSpaceOnUse" x1="59.3955" y1="93.5381" x2="50.3643" y2="93.5381" gradientTransform="matrix(0.75 0 0 -0.75 39.4961 104.6523)">
		<stop  offset="0" style="stop-color:#B08E20"/>
		<stop  offset="0.01" style="stop-color:#FAD682"/>
		<stop  offset="0.05" style="stop-color:#E5BA2C"/>
		<stop  offset="0.9" style="stop-color:#E2B72B"/>
		<stop  offset="0.95" style="stop-color:#DDB32A"/>
		<stop  offset="1" style="stop-color:#A4841D"/>
	</linearGradient>
	<path fill="url(#SVGID_21_)" d="M78.02,30h5.25c0,0,0.773,0.422,0.773,0.957L84.02,39h-6.75v-8.25c0,0,0.414-0.75,0.945-0.75H78.02
		z"/>
	
		<linearGradient id="SVGID_22_" gradientUnits="userSpaceOnUse" x1="82.3618" y1="99.04" x2="50.3618" y2="99.04" gradientTransform="matrix(0.75 0 0 -0.75 11.9473 106.6348)">
		<stop  offset="0" style="stop-color:#AD292D"/>
		<stop  offset="0.15" style="stop-color:#E68E8F"/>
		<stop  offset="0.25" style="stop-color:#E8999A"/>
		<stop  offset="0.52" style="stop-color:#C22F33"/>
		<stop  offset="0.69" style="stop-color:#AD292D"/>
		<stop  offset="0.8" style="stop-color:#A32629"/>
		<stop  offset="0.92" style="stop-color:#9A2327"/>
	</linearGradient>
	<path fill="url(#SVGID_22_)" d="M73.719,31.98l-24,0.75L73.719,31.98z"/>
	
		<linearGradient id="SVGID_23_" gradientUnits="userSpaceOnUse" x1="52.3638" y1="96.2051" x2="50.3251" y2="96.2051" gradientTransform="matrix(0.75 0 0 -0.75 13.5078 105.6084)">
		<stop  offset="0" style="stop-color:#B75356"/>
		<stop  offset="0.15" style="stop-color:#F0A1A3"/>
		<stop  offset="0.25" style="stop-color:#F1A9AB"/>
		<stop  offset="0.52" style="stop-color:#CE5E62"/>
		<stop  offset="0.69" style="stop-color:#B75356"/>
		<stop  offset="0.8" style="stop-color:#AD4E51"/>
		<stop  offset="0.92" style="stop-color:#A3494C"/>
	</linearGradient>
	<path fill="url(#SVGID_23_)" d="M52.031,30.957c0,0,0.52,0.191,0.52,0.457l0.23,4.043c0,0-0.52,0.418-0.879,0.418
		c-0.621,0.332-0.652-0.219-0.652-0.484l0.031-3.684c0-0.75,0.262-0.773,0.621-0.773L52.031,30.957z"/>
	
		<linearGradient id="SVGID_24_" gradientUnits="userSpaceOnUse" x1="52.3643" y1="96.2051" x2="50.3256" y2="96.2051" gradientTransform="matrix(0.75 0 0 -0.75 19.7383 105.6084)">
		<stop  offset="0" style="stop-color:#B75356"/>
		<stop  offset="0.15" style="stop-color:#F0A1A3"/>
		<stop  offset="0.25" style="stop-color:#F1A9AB"/>
		<stop  offset="0.52" style="stop-color:#CE5E62"/>
		<stop  offset="0.69" style="stop-color:#B75356"/>
		<stop  offset="0.8" style="stop-color:#AD4E51"/>
		<stop  offset="0.92" style="stop-color:#A3494C"/>
	</linearGradient>
	<path fill="url(#SVGID_24_)" d="M58.262,30.957c0,0,0.52,0.191,0.52,0.457l0.23,4.043c0,0-0.52,0.418-0.879,0.418
		c-0.621,0.332-0.652-0.219-0.652-0.484l0.031-3.684c0-0.75,0.262-0.773,0.621-0.773L58.262,30.957z"/>
	
		<linearGradient id="SVGID_25_" gradientUnits="userSpaceOnUse" x1="52.3647" y1="96.2051" x2="50.326" y2="96.2051" gradientTransform="matrix(0.75 0 0 -0.75 25.9688 105.6084)">
		<stop  offset="0" style="stop-color:#B75356"/>
		<stop  offset="0.15" style="stop-color:#F0A1A3"/>
		<stop  offset="0.25" style="stop-color:#F1A9AB"/>
		<stop  offset="0.52" style="stop-color:#CE5E62"/>
		<stop  offset="0.69" style="stop-color:#B75356"/>
		<stop  offset="0.8" style="stop-color:#AD4E51"/>
		<stop  offset="0.92" style="stop-color:#A3494C"/>
	</linearGradient>
	<path fill="url(#SVGID_25_)" d="M64.492,30.957c0,0,0.52,0.191,0.52,0.457l0.23,4.043c0,0-0.52,0.418-0.879,0.418
		c-0.621,0.332-0.652-0.219-0.652-0.484l0.031-3.684c0-0.75,0.262-0.773,0.621-0.773L64.492,30.957z"/>
	
		<linearGradient id="SVGID_26_" gradientUnits="userSpaceOnUse" x1="52.3638" y1="96.2051" x2="50.3251" y2="96.2051" gradientTransform="matrix(0.75 0 0 -0.75 32.1992 105.6084)">
		<stop  offset="0" style="stop-color:#B75356"/>
		<stop  offset="0.15" style="stop-color:#F0A1A3"/>
		<stop  offset="0.25" style="stop-color:#F1A9AB"/>
		<stop  offset="0.52" style="stop-color:#CE5E62"/>
		<stop  offset="0.69" style="stop-color:#B75356"/>
		<stop  offset="0.8" style="stop-color:#AD4E51"/>
		<stop  offset="0.92" style="stop-color:#A3494C"/>
	</linearGradient>
	<path fill="url(#SVGID_26_)" d="M70.723,30.957c0,0,0.52,0.191,0.52,0.457l0.23,4.043c0,0-0.52,0.418-0.879,0.418
		c-0.621,0.332-0.652-0.219-0.652-0.484l0.031-3.684c0-0.75,0.262-0.773,0.621-0.773L70.723,30.957z"/>
</g>
</svg>
