<?xml version="1.0" encoding="utf-8"?>
<!-- Generator: Adobe Illustrator 16.0.0, SVG Export Plug-In . SVG Version: 6.00 Build 0)  -->
<!DOCTYPE svg PUBLIC "-//W3C//DTD SVG 1.1//EN" "http://www.w3.org/Graphics/SVG/1.1/DTD/svg11.dtd">
<svg preserveAspectRatio="none" version="1.1" id="图层_1" xmlns="http://www.w3.org/2000/svg" xmlns:xlink="http://www.w3.org/1999/xlink" x="0px" y="0px"
	 width="299.695px" height="183.242px" viewBox="29.813 30.762 299.695 183.242"
	 enable-background="new 29.813 30.762 299.695 183.242" xml:space="preserve">
<g id="surface511">
	
		<linearGradient id="SVGID_1_" gradientUnits="userSpaceOnUse" x1="42.4858" y1="167.7861" x2="42.4858" y2="142.7861" gradientTransform="matrix(0.75 0 0 -0.75 131.647 180.4453)">
		<stop  offset="0" style="stop-color:#C2B39F"/>
		<stop  offset="0.15" style="stop-color:#FDEAD3"/>
		<stop  offset="0.25" style="stop-color:#FEF3E7"/>
		<stop  offset="0.44" style="stop-color:#DECCB6"/>
		<stop  offset="0.6" style="stop-color:#C5B5A2"/>
		<stop  offset="0.8" style="stop-color:#A69988"/>
		<stop  offset="0.97" style="stop-color:#988C7C"/>
	</linearGradient>
	<path fill="url(#SVGID_1_)" d="M148.512,54.605h30c0,0,0.59,0.367,0.59,0.82l0.16,17.18c0,0-0.547,0.723-1.027,0.723l-29.723,0.027
		c0,0-0.75-0.395-0.75-0.852V55.355c0-0.75,0.391-0.75,0.871-0.75H148.512z"/>
	
		<linearGradient id="SVGID_2_" gradientUnits="userSpaceOnUse" x1="79.4888" y1="111.5684" x2="21.4888" y2="111.5684" gradientTransform="matrix(0.75 0 0 -0.75 44.395 195.4785)">
		<stop  offset="0" style="stop-color:#909191"/>
		<stop  offset="0.03" style="stop-color:#D8D9D9"/>
		<stop  offset="0.08" style="stop-color:#BDBEBE"/>
		<stop  offset="0.64" style="stop-color:#BABABA"/>
		<stop  offset="0.95" style="stop-color:#B5B6B6"/>
		<stop  offset="1" style="stop-color:#868787"/>
	</linearGradient>
	<path fill="url(#SVGID_2_)" d="M61.262,69.641h41.25c0.75,0,1.281,0.477,1.281,1.102l0.219,82.148c0,0.75-0.723,1.074-1.344,1.074
		l-41.406-0.324c0,0-0.75-0.195-0.75-0.82v-82.43c0,0,0.477-0.75,1.098-0.75H61.262z"/>
	
		<linearGradient id="SVGID_3_" gradientUnits="userSpaceOnUse" x1="67.522" y1="160.2881" x2="21.4907" y2="160.2881" gradientTransform="matrix(0.75 0 0 -0.75 49.6084 194.6641)">
		<stop  offset="0" style="stop-color:#AEAEAD"/>
		<stop  offset="0.03" style="stop-color:#F8F8F7"/>
		<stop  offset="0.08" style="stop-color:#E3E3E2"/>
		<stop  offset="0.64" style="stop-color:#DFDFDE"/>
		<stop  offset="0.95" style="stop-color:#DADAD9"/>
		<stop  offset="1" style="stop-color:#A2A2A1"/>
	</linearGradient>
	<path fill="url(#SVGID_3_)" d="M66.477,68.824h33c0,0,0.773,0.461,0.773,1.027l-0.023,8.723c0,0.75-0.434,1.211-0.996,1.211
		l-32.754,0.289c0,0-0.75-0.75-0.75-1.316v-9.184c0,0,0.457-0.75,1.02-0.75H66.477z"/>
	
		<linearGradient id="SVGID_4_" gradientUnits="userSpaceOnUse" x1="-508.543" y1="14.6729" x2="-511.5444" y2="14.6729" gradientTransform="matrix(-0.6954 0.281 -0.281 -0.6954 -264.8229 320.105)">
		<stop  offset="0" style="stop-color:#AEAEAD"/>
		<stop  offset="0.03" style="stop-color:#F8F8F7"/>
		<stop  offset="0.08" style="stop-color:#E3E3E2"/>
		<stop  offset="0.64" style="stop-color:#DFDFDE"/>
		<stop  offset="0.95" style="stop-color:#DADAD9"/>
		<stop  offset="1" style="stop-color:#A2A2A1"/>
	</linearGradient>
	<path fill="url(#SVGID_4_)" d="M72.867,131.758l-2.086,0.844l27.816,68.844l2.086-0.844L72.867,131.758z"/>
	
		<linearGradient id="SVGID_5_" gradientUnits="userSpaceOnUse" x1="330.4883" y1="71.7183" x2="21.4883" y2="71.7182" gradientTransform="matrix(0.75 0 0 -0.75 81.6406 195.7393)">
		<stop  offset="0" style="stop-color:#607883"/>
		<stop  offset="0.01" style="stop-color:#AAC0CA"/>
		<stop  offset="0.02" style="stop-color:#7F9DAB"/>
		<stop  offset="0.64" style="stop-color:#7D9BA8"/>
		<stop  offset="0.98" style="stop-color:#7A97A4"/>
		<stop  offset="1" style="stop-color:#596F79"/>
	</linearGradient>
	<path fill="url(#SVGID_5_)" d="M99.258,69.898h228c1.5,0,1.992,0.742,1.992,1.656l0.258,140.844c0,0.75-0.996,1.605-1.906,1.605
		l-228.344-0.105c-0.75,0-1.5-0.637-1.5-1.551V71.398c0-0.75,0.738-1.5,1.648-1.5H99.258z"/>
	
		<linearGradient id="SVGID_6_" gradientUnits="userSpaceOnUse" x1="100.4878" y1="127.2871" x2="21.4878" y2="127.2871" gradientTransform="matrix(0.75 0 0 -0.75 89.5049 204.5967)">
		<stop  offset="0" style="stop-color:#AEAEAD"/>
		<stop  offset="0.03" style="stop-color:#F8F8F7"/>
		<stop  offset="0.08" style="stop-color:#E3E3E2"/>
		<stop  offset="0.64" style="stop-color:#DFDFDE"/>
		<stop  offset="0.95" style="stop-color:#DADAD9"/>
		<stop  offset="1" style="stop-color:#A2A2A1"/>
	</linearGradient>
	<path fill="url(#SVGID_6_)" d="M105.621,78.758h59.25v60.75h-59.25V78.758z"/>
	
		<linearGradient id="SVGID_7_" gradientUnits="userSpaceOnUse" x1="100.4878" y1="127.2881" x2="21.4878" y2="127.2881" gradientTransform="matrix(0.75 0 0 -0.75 89.5049 271.0391)">
		<stop  offset="0" style="stop-color:#AEAEAD"/>
		<stop  offset="0.03" style="stop-color:#F8F8F7"/>
		<stop  offset="0.08" style="stop-color:#E3E3E2"/>
		<stop  offset="0.64" style="stop-color:#DFDFDE"/>
		<stop  offset="0.95" style="stop-color:#DADAD9"/>
		<stop  offset="1" style="stop-color:#A2A2A1"/>
	</linearGradient>
	<path fill="url(#SVGID_7_)" d="M105.621,145.199h59.25v60.75h-59.25V145.199z"/>
	
		<linearGradient id="SVGID_8_" gradientUnits="userSpaceOnUse" x1="100.4858" y1="127.2881" x2="21.4858" y2="127.2881" gradientTransform="matrix(0.75 0 0 -0.75 153.3267 204.2969)">
		<stop  offset="0" style="stop-color:#B3A593"/>
		<stop  offset="0.03" style="stop-color:#FDEEDA"/>
		<stop  offset="0.08" style="stop-color:#E9D7BF"/>
		<stop  offset="0.64" style="stop-color:#E5D3BC"/>
		<stop  offset="0.95" style="stop-color:#E0CEB8"/>
		<stop  offset="1" style="stop-color:#A69988"/>
	</linearGradient>
	<path fill="url(#SVGID_8_)" d="M169.441,78.457h59.25v60.75h-59.25V78.457z"/>
	
		<linearGradient id="SVGID_9_" gradientUnits="userSpaceOnUse" x1="100.4858" y1="127.2891" x2="21.4858" y2="127.2891" gradientTransform="matrix(0.75 0 0 -0.75 153.3267 270.7393)">
		<stop  offset="0" style="stop-color:#AEAEAD"/>
		<stop  offset="0.03" style="stop-color:#F8F8F7"/>
		<stop  offset="0.08" style="stop-color:#E3E3E2"/>
		<stop  offset="0.64" style="stop-color:#DFDFDE"/>
		<stop  offset="0.95" style="stop-color:#DADAD9"/>
		<stop  offset="1" style="stop-color:#A2A2A1"/>
	</linearGradient>
	<path fill="url(#SVGID_9_)" d="M169.441,144.898h59.25v60.75h-59.25V144.898z"/>
	
		<linearGradient id="SVGID_10_" gradientUnits="userSpaceOnUse" x1="138.4902" y1="127.2871" x2="21.4902" y2="127.2871" gradientTransform="matrix(0.75 0 0 -0.75 217.1479 204.5967)">
		<stop  offset="0" style="stop-color:#B3A593"/>
		<stop  offset="0.03" style="stop-color:#FDEEDA"/>
		<stop  offset="0.08" style="stop-color:#E9D7BF"/>
		<stop  offset="0.64" style="stop-color:#E5D3BC"/>
		<stop  offset="0.95" style="stop-color:#E0CEB8"/>
		<stop  offset="1" style="stop-color:#A69988"/>
	</linearGradient>
	<path fill="url(#SVGID_10_)" d="M233.266,78.758h87.75v60.75h-87.75V78.758z"/>
	
		<linearGradient id="SVGID_11_" gradientUnits="userSpaceOnUse" x1="76.4863" y1="127.2881" x2="21.4863" y2="127.2881" gradientTransform="matrix(0.75 0 0 -0.75 217.1465 271.0391)">
		<stop  offset="0" style="stop-color:#AEAEAD"/>
		<stop  offset="0.03" style="stop-color:#F8F8F7"/>
		<stop  offset="0.08" style="stop-color:#E3E3E2"/>
		<stop  offset="0.64" style="stop-color:#DFDFDE"/>
		<stop  offset="0.95" style="stop-color:#DADAD9"/>
		<stop  offset="1" style="stop-color:#A2A2A1"/>
	</linearGradient>
	<path fill="url(#SVGID_11_)" d="M233.262,145.199h41.25v60.75h-41.25V145.199z"/>
	
		<linearGradient id="SVGID_12_" gradientUnits="userSpaceOnUse" x1="76.4858" y1="127.2881" x2="21.4858" y2="127.2881" gradientTransform="matrix(0.75 0 0 -0.75 263.5259 271.0391)">
		<stop  offset="0" style="stop-color:#AEAEAD"/>
		<stop  offset="0.03" style="stop-color:#F8F8F7"/>
		<stop  offset="0.08" style="stop-color:#E3E3E2"/>
		<stop  offset="0.64" style="stop-color:#DFDFDE"/>
		<stop  offset="0.95" style="stop-color:#DADAD9"/>
		<stop  offset="1" style="stop-color:#A2A2A1"/>
	</linearGradient>
	<path fill="url(#SVGID_12_)" d="M279.641,145.199h41.25v60.75h-41.25V145.199z"/>
	
		<linearGradient id="SVGID_13_" gradientUnits="userSpaceOnUse" x1="98.7607" y1="427.6553" x2="92.7578" y2="427.6553" gradientTransform="matrix(0.5303 0.5303 0.5303 -0.5303 -226.8208 326.8382)">
		<stop  offset="0" style="stop-color:#AEAEAD"/>
		<stop  offset="0.03" style="stop-color:#F8F8F7"/>
		<stop  offset="0.08" style="stop-color:#E3E3E2"/>
		<stop  offset="0.64" style="stop-color:#DFDFDE"/>
		<stop  offset="0.95" style="stop-color:#DADAD9"/>
		<stop  offset="1" style="stop-color:#A2A2A1"/>
	</linearGradient>
	<path fill="url(#SVGID_13_)" d="M68.527,129.875l3.18,3.184l-38.711,38.715l-3.184-3.184L68.527,129.875z"/>
	
		<linearGradient id="SVGID_14_" gradientUnits="userSpaceOnUse" x1="90.4878" y1="122.2852" x2="21.4878" y2="122.2851" gradientTransform="matrix(0.75 0 0 -0.75 162.7432 162.1973)">
		<stop  offset="0" style="stop-color:#AEAEAD"/>
		<stop  offset="0.03" style="stop-color:#F8F8F7"/>
		<stop  offset="0.08" style="stop-color:#E3E3E2"/>
		<stop  offset="0.64" style="stop-color:#DFDFDE"/>
		<stop  offset="0.95" style="stop-color:#DADAD9"/>
		<stop  offset="1" style="stop-color:#A2A2A1"/>
	</linearGradient>
	<path fill="url(#SVGID_14_)" d="M178.859,36.359h51.75v68.25h-51.75V36.359z"/>
	
		<linearGradient id="SVGID_15_" gradientUnits="userSpaceOnUse" x1="90.4878" y1="122.2852" x2="21.4878" y2="122.2851" gradientTransform="matrix(0.75 0 0 -0.75 214.7744 162.1973)">
		<stop  offset="0" style="stop-color:#AEAEAD"/>
		<stop  offset="0.03" style="stop-color:#F8F8F7"/>
		<stop  offset="0.08" style="stop-color:#E3E3E2"/>
		<stop  offset="0.64" style="stop-color:#DFDFDE"/>
		<stop  offset="0.95" style="stop-color:#DADAD9"/>
		<stop  offset="1" style="stop-color:#A2A2A1"/>
	</linearGradient>
	<path fill="url(#SVGID_15_)" d="M230.891,36.359h51.75v68.25h-51.75V36.359z"/>
	
		<radialGradient id="SVGID_16_" cx="29.3442" cy="159.8945" r="11.1371" gradientTransform="matrix(0.75 0 0 -0.75 171.4238 173.501)" gradientUnits="userSpaceOnUse">
		<stop  offset="0" style="stop-color:#76A2C9"/>
		<stop  offset="0.54" style="stop-color:#7EADD6"/>
		<stop  offset="0.74" style="stop-color:#B4CEEA"/>
		<stop  offset="0.91" style="stop-color:#76A2C9"/>
		<stop  offset="1" style="stop-color:#7EADD6"/>
	</radialGradient>
	<path fill="url(#SVGID_16_)" stroke="#5F89B9" stroke-width="0.25" stroke-linejoin="bevel" stroke-miterlimit="10" d="
		M187.539,53.66c0-3,2.637-6,5.887-6c3.113,0,5.887,2.652,5.887,5.918c0.227,3.082-2.637,5.918-5.887,5.918
		c-2.887,0.164-5.887-2.648-5.887-5.918V53.66z"/>
	<path fill="#C6D5E8" stroke="#384E64" stroke-linejoin="bevel" stroke-miterlimit="10" d="M188.602,53.227
		c0-2.25,2.16-4.5,4.824-4.5c2.676,0,4.824,2.172,4.824,4.852c0.102,2.648-2.16,4.855-4.824,4.855
		c-2.574,0.043-4.824-2.172-4.824-4.855V53.227z"/>
	<path fill="#E35020" d="M191.82,55.695c0,0,3.395-5.93,3.707-5.75c0.316,0.281-3.059,6.125-3.059,6.125L191.82,55.695z"/>
	<path fill="#4B6884" d="M192.652,53.555c0-0.75,0.348-0.75,0.773-0.75c0.727,0,0.773,0.348,0.773,0.773
		c-0.047,0.727-0.348,0.777-0.773,0.777c-0.773-0.051-0.773-0.348-0.773-0.777V53.555z"/>
	<path fill="none" stroke="#000000" stroke-linejoin="bevel" stroke-miterlimit="10" d="M193.301,49.516l-0.008,0.75"/>
	<path fill="none" stroke="#000000" stroke-linejoin="bevel" stroke-miterlimit="10" d="M189.645,53.441l0.75,0.008"/>
	<path fill="none" stroke="#000000" stroke-linejoin="bevel" stroke-miterlimit="10" d="M196.375,53.441l0.75,0.008"/>
	<path fill="none" stroke="#000000" stroke-linejoin="bevel" stroke-miterlimit="10" d="M190.746,50.742l0.523,0.535"/>
	<path fill="none" stroke="#000000" stroke-linejoin="bevel" stroke-miterlimit="10" d="M196.117,50.742l-0.527,0.535"/>
	<path fill="none" stroke="#3F77A8" stroke-linejoin="bevel" stroke-miterlimit="10" d="M191.992,56.422h3
		c0.75,0,0.754,0.18,0.754,0.414c-0.004,0.336-0.191,0.496-0.426,0.496l-3.328-0.16c-0.75,0-0.762-0.031-0.762-0.266
		c0.012-0.484,0.188-0.496,0.422-0.496L191.992,56.422z"/>
	<path fill="#FFFFFF" fill-opacity="0.3804" d="M193.93,53.977c0-3-3.176-5.25-0.512-5.25c2.762,0,4.82,2.172,4.82,4.852
		c0.191,2.648-2.156,4.855-4.82,4.855c-2.488,0.043,0.844-2.102,0.844-4.785L193.93,53.977z"/>
	
		<linearGradient id="SVGID_17_" gradientUnits="userSpaceOnUse" x1="90.4878" y1="166.2852" x2="21.4878" y2="166.2852" gradientTransform="matrix(0.75 0 0 -0.75 162.7432 162.1973)">
		<stop  offset="0" style="stop-color:#383E4C"/>
		<stop  offset="0.03" style="stop-color:#8E919B"/>
		<stop  offset="0.08" style="stop-color:#4C5366"/>
		<stop  offset="0.64" style="stop-color:#4A5264"/>
		<stop  offset="0.95" style="stop-color:#495061"/>
		<stop  offset="1" style="stop-color:#343946"/>
	</linearGradient>
	<path fill="url(#SVGID_17_)" d="M178.859,36.359h51.75v2.25h-51.75V36.359z"/>
	
		<linearGradient id="SVGID_18_" gradientUnits="userSpaceOnUse" x1="90.4878" y1="166.2881" x2="21.4878" y2="166.2881" gradientTransform="matrix(0.75 0 0 -0.75 162.7432 228.1914)">
		<stop  offset="0" style="stop-color:#383E4C"/>
		<stop  offset="0.03" style="stop-color:#8E919B"/>
		<stop  offset="0.08" style="stop-color:#4C5366"/>
		<stop  offset="0.64" style="stop-color:#4A5264"/>
		<stop  offset="0.95" style="stop-color:#495061"/>
		<stop  offset="1" style="stop-color:#343946"/>
	</linearGradient>
	<path fill="url(#SVGID_18_)" d="M178.859,102.352h51.75v2.25h-51.75V102.352z"/>
	
		<linearGradient id="SVGID_19_" gradientUnits="userSpaceOnUse" x1="32.5835" y1="163.4189" x2="21.4897" y2="163.4189" gradientTransform="matrix(0.75 0 0 -0.75 173.1401 209.2188)">
		<stop  offset="0" style="stop-color:#000000"/>
		<stop  offset="0.15" style="stop-color:#454545"/>
		<stop  offset="0.25" style="stop-color:#B3B3B3"/>
		<stop  offset="0.52" style="stop-color:#000000"/>
		<stop  offset="0.69" style="stop-color:#000000"/>
		<stop  offset="0.8" style="stop-color:#000000"/>
		<stop  offset="0.92" style="stop-color:#000000"/>
		<stop  offset="1" style="stop-color:#000000"/>
	</linearGradient>
	<path fill="url(#SVGID_19_)" d="M195.258,83.379c0.75,0,0.445,1,0.953,1.797c0.547,0.453,1.367,1.07,1.367,1.496
		c-0.07,0.457-0.855,0.719-1.332,1.441c-0.238,0.516-0.281,1.566-0.75,1.813c-0.238,0.203-1.016-0.305-2.09-0.301
		c-1.148-0.246-1.664,0.496-2.07,0.301c-0.578-0.547-0.215-0.922-0.785-1.789c-0.543-1.008-1.293-0.98-1.293-1.465
		c0-0.293,0.758-0.684,1.324-1.539c0.926-1.004,0.453-1.582,0.754-1.719c0.172-0.035,0.934,0.301,2.102,0.301
		c1.07-0.336,1.738-0.477,2.059-0.301L195.258,83.379z"/>
	<path fill="#FFFFFF" fill-opacity="0.2" d="M195.48,83.555c0,0,0.102,0.945,0.578,1.699c0.172,0.551,1.297,1.016,1.297,1.418
		c0.375,0.633-0.813,0.68-1.262,1.363c-0.613,0.77-0.266,1.488-0.707,1.719c-0.656,0.551-0.965-0.289-1.98-0.281
		c-0.926,0.082-1.574,0.469-1.957,0.281c-0.469-0.199-0.207-0.871-0.746-1.695c-0.473-0.754-1.223-0.926-1.223-1.387
		c0-0.117,0.719-0.648,1.254-1.457c0.246-0.91,0.426-1.5,0.715-1.629c0.281-0.031,0.883,0.285,1.984,0.285
		c1.297-0.316,1.648-0.453,1.953-0.285L195.48,83.555z"/>
	<path fill="#3E3938" stroke="#9E9F9F" stroke-linejoin="bevel" stroke-miterlimit="10" d="M190.859,86.617
		c0-1.5,1.145-2.25,2.559-2.25c1.191,0,2.559,1.035,2.559,2.313c0.133,1.438-1.148,2.313-2.559,2.313
		c-1.059-0.125-2.559-1.035-2.559-2.313V86.617z"/>
	<path fill="#FFFFFF" fill-opacity="0.1725" d="M193.676,86.93c0-1.5-1.48-2.25-0.258-2.25c1.008,0,2.211,0.895,2.211,2
		c0.297,1-0.988,2-2.211,2c-1.242-0.25,0.121-0.746,0.121-1.852L193.676,86.93z"/>
	
		<linearGradient id="SVGID_20_" gradientUnits="userSpaceOnUse" x1="32.5835" y1="163.4189" x2="21.4897" y2="163.4189" gradientTransform="matrix(0.75 0 0 -0.75 193.6362 209.2188)">
		<stop  offset="0" style="stop-color:#000000"/>
		<stop  offset="0.15" style="stop-color:#454545"/>
		<stop  offset="0.25" style="stop-color:#B3B3B3"/>
		<stop  offset="0.52" style="stop-color:#000000"/>
		<stop  offset="0.69" style="stop-color:#000000"/>
		<stop  offset="0.8" style="stop-color:#000000"/>
		<stop  offset="0.92" style="stop-color:#000000"/>
		<stop  offset="1" style="stop-color:#000000"/>
	</linearGradient>
	<path fill="url(#SVGID_20_)" d="M215.754,83.379c0.75,0,0.445,1,0.953,1.797c0.547,0.453,1.367,1.07,1.367,1.496
		c-0.07,0.457-0.855,0.719-1.332,1.441c-0.238,0.516-0.281,1.566-0.75,1.813c-0.238,0.203-1.016-0.305-2.09-0.301
		c-1.148-0.246-1.664,0.496-2.07,0.301c-0.578-0.547-0.215-0.922-0.785-1.789c-0.543-1.008-1.293-0.98-1.293-1.465
		c0-0.293,0.758-0.684,1.324-1.539c0.926-1.004,0.453-1.582,0.754-1.719c0.172-0.035,0.934,0.301,2.102,0.301
		c1.07-0.336,1.738-0.477,2.059-0.301L215.754,83.379z"/>
	<path fill="#FFFFFF" fill-opacity="0.2" d="M215.977,83.555c0,0,0.102,0.945,0.578,1.699c0.172,0.551,1.297,1.016,1.297,1.418
		c0.375,0.633-0.813,0.68-1.262,1.363c-0.613,0.77-0.266,1.488-0.707,1.719c-0.656,0.551-0.965-0.289-1.98-0.281
		c-0.926,0.082-1.574,0.469-1.957,0.281c-0.469-0.199-0.207-0.871-0.746-1.695c-0.473-0.754-1.223-0.926-1.223-1.387
		c0-0.117,0.719-0.648,1.254-1.457c0.246-0.91,0.426-1.5,0.715-1.629c0.281-0.031,0.883,0.285,1.984,0.285
		c1.297-0.316,1.648-0.453,1.953-0.285L215.977,83.555z"/>
	<path fill="#3E3938" stroke="#9E9F9F" stroke-linejoin="bevel" stroke-miterlimit="10" d="M211.355,86.617
		c0-1.5,1.145-2.25,2.559-2.25c1.191,0,2.559,1.035,2.559,2.313c0.133,1.438-1.148,2.313-2.559,2.313
		c-1.059-0.125-2.559-1.035-2.559-2.313V86.617z"/>
	<path fill="#FFFFFF" fill-opacity="0.1725" d="M214.172,86.93c0-1.5-1.48-2.25-0.258-2.25c1.008,0,2.211,0.895,2.211,2
		c0.297,1-0.988,2-2.211,2c-1.242-0.25,0.121-0.746,0.121-1.852L214.172,86.93z"/>
	
		<radialGradient id="SVGID_21_" cx="29.3457" cy="159.8945" r="11.1361" gradientTransform="matrix(0.75 0 0 -0.75 191.9194 173.501)" gradientUnits="userSpaceOnUse">
		<stop  offset="0" style="stop-color:#76A2C9"/>
		<stop  offset="0.54" style="stop-color:#7EADD6"/>
		<stop  offset="0.74" style="stop-color:#B4CEEA"/>
		<stop  offset="0.91" style="stop-color:#76A2C9"/>
		<stop  offset="1" style="stop-color:#7EADD6"/>
	</radialGradient>
	<path fill="url(#SVGID_21_)" stroke="#5F89B9" stroke-width="0.25" stroke-linejoin="bevel" stroke-miterlimit="10" d="
		M208.035,53.66c0-3,2.637-6,5.887-6c3.113,0,5.887,2.652,5.887,5.918c0.227,3.082-2.637,5.918-5.887,5.918
		c-2.887,0.164-5.887-2.648-5.887-5.918V53.66z"/>
	<path fill="#C6D5E8" stroke="#384E64" stroke-linejoin="bevel" stroke-miterlimit="10" d="M209.098,53.227
		c0-2.25,2.16-4.5,4.824-4.5c2.676,0,4.824,2.172,4.824,4.852c0.102,2.648-2.16,4.855-4.824,4.855
		c-2.574,0.043-4.824-2.172-4.824-4.855V53.227z"/>
	<path fill="#E35020" d="M212.316,55.695c0,0,3.395-5.93,3.707-5.75c0.316,0.281-3.059,6.125-3.059,6.125L212.316,55.695z"/>
	<path fill="#4B6884" d="M213.148,53.555c0-0.75,0.348-0.75,0.773-0.75c0.727,0,0.773,0.348,0.773,0.773
		c-0.047,0.727-0.348,0.777-0.773,0.777c-0.773-0.051-0.773-0.348-0.773-0.777V53.555z"/>
	<path fill="none" stroke="#000000" stroke-linejoin="bevel" stroke-miterlimit="10" d="M213.797,49.516l-0.008,0.75"/>
	<path fill="none" stroke="#000000" stroke-linejoin="bevel" stroke-miterlimit="10" d="M210.141,53.441l0.75,0.008"/>
	<path fill="none" stroke="#000000" stroke-linejoin="bevel" stroke-miterlimit="10" d="M216.871,53.441l0.75,0.008"/>
	<path fill="none" stroke="#000000" stroke-linejoin="bevel" stroke-miterlimit="10" d="M211.242,50.742l0.523,0.535"/>
	<path fill="none" stroke="#000000" stroke-linejoin="bevel" stroke-miterlimit="10" d="M216.613,50.742l-0.527,0.535"/>
	<path fill="none" stroke="#3F77A8" stroke-linejoin="bevel" stroke-miterlimit="10" d="M212.488,56.422h3
		c0.75,0,0.75,0.18,0.75,0.414c0,0.336-0.188,0.496-0.422,0.496l-3.328-0.16c-0.75,0-0.762-0.031-0.762-0.266
		c0.012-0.484,0.188-0.496,0.422-0.496L212.488,56.422z"/>
	<path fill="#FFFFFF" fill-opacity="0.3804" d="M214.426,53.977c0-3-3.176-5.25-0.512-5.25c2.762,0,4.82,2.172,4.82,4.852
		c0.191,2.648-2.156,4.855-4.82,4.855c-2.488,0.043,0.844-2.102,0.844-4.785L214.426,53.977z"/>
	<path fill="#FFFFFF" fill-opacity="0.5961" d="M188.816,76.613h9c0.75,0,0.969,0.383,0.969,0.879l-0.219,2.121
		c0,0.75-0.184,0.977-0.684,0.977l-9.066-0.227c0,0-0.77-0.18-0.77-0.68l0.02-2.32c0,0,0.383-0.773,0.879-0.773L188.816,76.613z"/>
	<path fill="#FFFFFF" fill-opacity="0.5961" d="M209.313,76.613h9c0.75,0,0.969,0.383,0.969,0.879l-0.219,2.121
		c0,0.75-0.184,0.977-0.684,0.977l-9.066-0.227c0,0-0.77-0.18-0.77-0.68l0.02-2.32c0,0,0.383-0.773,0.879-0.773L209.313,76.613z"/>
	<path fill="#276F71" d="M247.273,49.906c0-0.75,1.117-2.258,2.508-2.258c1.242,0.008,2.508,1.133,2.508,2.535
		c0.234,1.223-1.129,2.531-2.508,2.531c-1.758,0.191-2.516-1.137-2.516-2.531L247.273,49.906z"/>
	
		<linearGradient id="SVGID_22_" gradientUnits="userSpaceOnUse" x1="22.271" y1="168.25" x2="26.0634" y2="161.6813" gradientTransform="matrix(0.75 0 0 -0.75 231.6162 173.959)">
		<stop  offset="0" style="stop-color:#91CFD1"/>
		<stop  offset="1" style="stop-color:#49AEB1"/>
	</linearGradient>
	<path fill="url(#SVGID_22_)" stroke="#FFFFFF" stroke-linejoin="bevel" stroke-miterlimit="10" d="M247.73,50.371
		c0-1.5,0.914-2.258,2.051-2.258c0.949,0.008,2.047,0.926,2.047,2.07c-0.348,0.938-0.918,2.066-2.047,2.066
		c-1.301,0.371-2.055-0.926-2.055-2.066L247.73,50.371z"/>
	<path fill="#7D040F" d="M239.508,49.906c0-0.75,1.117-2.258,2.508-2.258c1.242,0.008,2.508,1.133,2.508,2.535
		c0.234,1.223-1.129,2.531-2.508,2.531c-1.758,0.191-2.516-1.137-2.516-2.531L239.508,49.906z"/>
	
		<linearGradient id="SVGID_23_" gradientUnits="userSpaceOnUse" x1="22.2715" y1="168.248" x2="26.0634" y2="161.6802" gradientTransform="matrix(0.75 0 0 -0.75 223.8496 173.959)">
		<stop  offset="0" style="stop-color:#9F5153"/>
		<stop  offset="1" style="stop-color:#7B030D"/>
	</linearGradient>
	<path fill="url(#SVGID_23_)" stroke="#FFFFFF" stroke-linejoin="bevel" stroke-miterlimit="10" d="M239.965,50.371
		c0-1.5,0.914-2.258,2.051-2.258c0.949,0.008,2.047,0.926,2.047,2.07c-0.348,0.938-0.922,2.066-2.047,2.066
		c-1.301,0.371-2.055-0.926-2.055-2.066L239.965,50.371z"/>
	<path fill="#FED372" d="M255.043,49.906c0-0.75,1.117-2.258,2.508-2.258c1.242,0.008,2.508,1.133,2.508,2.535
		c0.234,1.223-1.129,2.531-2.508,2.531c-1.758,0.191-2.516-1.137-2.516-2.531L255.043,49.906z"/>
	
		<linearGradient id="SVGID_24_" gradientUnits="userSpaceOnUse" x1="22.271" y1="168.249" x2="26.0631" y2="161.6809" gradientTransform="matrix(0.75 0 0 -0.75 239.3862 173.959)">
		<stop  offset="0" style="stop-color:#FEDEA0"/>
		<stop  offset="1" style="stop-color:#E9C168"/>
	</linearGradient>
	<path fill="url(#SVGID_24_)" stroke="#FFFFFF" stroke-linejoin="bevel" stroke-miterlimit="10" d="M255.504,50.371
		c0-1.5,0.91-2.258,2.047-2.258c0.953,0.008,2.047,0.926,2.047,2.07c-0.344,0.938-0.918,2.066-2.047,2.066
		c-1.297,0.371-2.055-0.926-2.055-2.066L255.504,50.371z"/>
	<path fill="#276F71" d="M247.273,57.961c0-0.75,1.117-2.258,2.508-2.258c1.242,0.008,2.508,1.133,2.508,2.535
		c0.234,1.223-1.129,2.531-2.508,2.531c-1.758,0.191-2.516-1.137-2.516-2.531L247.273,57.961z"/>
	
		<linearGradient id="SVGID_25_" gradientUnits="userSpaceOnUse" x1="22.272" y1="168.25" x2="26.0644" y2="161.6813" gradientTransform="matrix(0.75 0 0 -0.75 231.6162 182.0137)">
		<stop  offset="0" style="stop-color:#91CFD1"/>
		<stop  offset="1" style="stop-color:#49AEB1"/>
	</linearGradient>
	<path fill="url(#SVGID_25_)" stroke="#FFFFFF" stroke-linejoin="bevel" stroke-miterlimit="10" d="M247.73,58.422
		c0-1.5,0.914-2.254,2.051-2.254c0.949,0.004,2.047,0.926,2.047,2.07c-0.348,0.934-0.918,2.066-2.047,2.066
		c-1.301,0.367-2.055-0.93-2.055-2.066L247.73,58.422z"/>
	<path fill="#7D040F" d="M239.5,57.961c0-0.75,1.117-2.258,2.508-2.258c1.242,0.008,2.508,1.133,2.508,2.535
		c0.234,1.223-1.129,2.531-2.508,2.531c-1.758,0.191-2.516-1.137-2.516-2.531L239.5,57.961z"/>
	
		<linearGradient id="SVGID_26_" gradientUnits="userSpaceOnUse" x1="22.2715" y1="168.251" x2="26.0638" y2="161.6826" gradientTransform="matrix(0.75 0 0 -0.75 223.8423 182.0137)">
		<stop  offset="0" style="stop-color:#9F5153"/>
		<stop  offset="1" style="stop-color:#7B030D"/>
	</linearGradient>
	<path fill="url(#SVGID_26_)" stroke="#FFFFFF" stroke-linejoin="bevel" stroke-miterlimit="10" d="M239.957,58.422
		c0-1.5,0.914-2.254,2.051-2.254c0.949,0.004,2.047,0.926,2.047,2.07c-0.348,0.934-0.922,2.066-2.047,2.066
		c-1.301,0.367-2.055-0.93-2.055-2.066L239.957,58.422z"/>
	<path fill="#FED372" d="M255.035,57.961c0-0.75,1.117-2.258,2.508-2.258c1.242,0.008,2.508,1.133,2.508,2.535
		c0.234,1.223-1.129,2.531-2.508,2.531c-1.758,0.191-2.516-1.137-2.516-2.531L255.035,57.961z"/>
	
		<linearGradient id="SVGID_27_" gradientUnits="userSpaceOnUse" x1="22.2725" y1="168.249" x2="26.0641" y2="161.6818" gradientTransform="matrix(0.75 0 0 -0.75 239.3774 182.0137)">
		<stop  offset="0" style="stop-color:#FEDEA0"/>
		<stop  offset="1" style="stop-color:#E9C168"/>
	</linearGradient>
	<path fill="url(#SVGID_27_)" stroke="#FFFFFF" stroke-linejoin="bevel" stroke-miterlimit="10" d="M255.492,58.422
		c0-1.5,0.914-2.254,2.051-2.254c0.949,0.004,2.047,0.926,2.047,2.07c-0.348,0.934-0.918,2.066-2.047,2.066
		c-1.301,0.367-2.055-0.93-2.055-2.066L255.492,58.422z"/>
	
		<linearGradient id="SVGID_28_" gradientUnits="userSpaceOnUse" x1="90.4878" y1="166.2852" x2="21.4878" y2="166.2852" gradientTransform="matrix(0.75 0 0 -0.75 214.7744 162.1973)">
		<stop  offset="0" style="stop-color:#383E4C"/>
		<stop  offset="0.03" style="stop-color:#8E919B"/>
		<stop  offset="0.08" style="stop-color:#4C5366"/>
		<stop  offset="0.64" style="stop-color:#4A5264"/>
		<stop  offset="0.95" style="stop-color:#495061"/>
		<stop  offset="1" style="stop-color:#343946"/>
	</linearGradient>
	<path fill="url(#SVGID_28_)" d="M230.891,36.359h51.75v2.25h-51.75V36.359z"/>
	
		<linearGradient id="SVGID_29_" gradientUnits="userSpaceOnUse" x1="90.4878" y1="166.2881" x2="21.4878" y2="166.2881" gradientTransform="matrix(0.75 0 0 -0.75 214.7744 228.1914)">
		<stop  offset="0" style="stop-color:#383E4C"/>
		<stop  offset="0.03" style="stop-color:#8E919B"/>
		<stop  offset="0.08" style="stop-color:#4C5366"/>
		<stop  offset="0.64" style="stop-color:#4A5264"/>
		<stop  offset="0.95" style="stop-color:#495061"/>
		<stop  offset="1" style="stop-color:#343946"/>
	</linearGradient>
	<path fill="url(#SVGID_29_)" d="M230.891,102.352h51.75v2.25h-51.75V102.352z"/>
	<path fill="#276F71" d="M247.273,65.984c0-0.75,1.117-2.258,2.508-2.258c1.242,0.008,2.508,1.133,2.508,2.535
		c0.234,1.223-1.129,2.527-2.508,2.527c-1.758,0.195-2.516-1.133-2.516-2.527L247.273,65.984z"/>
	
		<linearGradient id="SVGID_30_" gradientUnits="userSpaceOnUse" x1="22.271" y1="168.25" x2="26.0628" y2="161.6825" gradientTransform="matrix(0.75 0 0 -0.75 231.6162 190.0361)">
		<stop  offset="0" style="stop-color:#91CFD1"/>
		<stop  offset="1" style="stop-color:#49AEB1"/>
	</linearGradient>
	<path fill="url(#SVGID_30_)" stroke="#FFFFFF" stroke-linejoin="bevel" stroke-miterlimit="10" d="M247.73,66.445
		c0-1.5,0.914-2.254,2.051-2.254c0.949,0.004,2.047,0.926,2.047,2.07c-0.348,0.934-0.918,2.066-2.047,2.066
		c-1.301,0.367-2.055-0.93-2.055-2.066L247.73,66.445z"/>
	<path fill="#7D040F" d="M239.508,65.984c0-0.75,1.117-2.258,2.508-2.258c1.242,0.008,2.508,1.133,2.508,2.535
		c0.234,1.223-1.129,2.527-2.508,2.527c-1.758,0.195-2.516-1.133-2.516-2.527L239.508,65.984z"/>
	
		<linearGradient id="SVGID_31_" gradientUnits="userSpaceOnUse" x1="22.2715" y1="168.251" x2="26.0638" y2="161.6826" gradientTransform="matrix(0.75 0 0 -0.75 223.8496 190.0361)">
		<stop  offset="0" style="stop-color:#9F5153"/>
		<stop  offset="1" style="stop-color:#7B030D"/>
	</linearGradient>
	<path fill="url(#SVGID_31_)" stroke="#FFFFFF" stroke-linejoin="bevel" stroke-miterlimit="10" d="M239.965,66.445
		c0-1.5,0.914-2.254,2.051-2.254c0.949,0.004,2.047,0.926,2.047,2.07c-0.348,0.934-0.922,2.066-2.047,2.066
		c-1.301,0.367-2.055-0.93-2.055-2.066L239.965,66.445z"/>
	<path fill="#FED372" d="M255.043,65.984c0-0.75,1.117-2.258,2.508-2.258c1.242,0.008,2.508,1.133,2.508,2.535
		c0.234,1.223-1.129,2.527-2.508,2.527c-1.758,0.195-2.516-1.133-2.516-2.527L255.043,65.984z"/>
	
		<linearGradient id="SVGID_32_" gradientUnits="userSpaceOnUse" x1="22.271" y1="168.25" x2="26.0628" y2="161.6824" gradientTransform="matrix(0.75 0 0 -0.75 239.3862 190.0361)">
		<stop  offset="0" style="stop-color:#FEDEA0"/>
		<stop  offset="1" style="stop-color:#E9C168"/>
	</linearGradient>
	<path fill="url(#SVGID_32_)" stroke="#FFFFFF" stroke-linejoin="bevel" stroke-miterlimit="10" d="M255.504,66.445
		c0-1.5,0.91-2.254,2.047-2.254c0.953,0.004,2.047,0.926,2.047,2.07c-0.344,0.934-0.918,2.066-2.047,2.066
		c-1.297,0.367-2.055-0.93-2.055-2.066L255.504,66.445z"/>
	<path fill="#276F71" d="M247.273,74.039c0-0.75,1.117-2.258,2.508-2.258c1.242,0.008,2.508,1.133,2.508,2.535
		c0.234,1.223-1.129,2.527-2.508,2.527c-1.758,0.195-2.516-1.137-2.516-2.527L247.273,74.039z"/>
	
		<linearGradient id="SVGID_33_" gradientUnits="userSpaceOnUse" x1="22.271" y1="168.25" x2="26.0628" y2="161.6825" gradientTransform="matrix(0.75 0 0 -0.75 231.6162 198.0908)">
		<stop  offset="0" style="stop-color:#91CFD1"/>
		<stop  offset="1" style="stop-color:#49AEB1"/>
	</linearGradient>
	<path fill="url(#SVGID_33_)" stroke="#FFFFFF" stroke-linejoin="bevel" stroke-miterlimit="10" d="M247.73,74.5
		c0-1.5,0.914-2.254,2.051-2.254c0.949,0.004,2.047,0.926,2.047,2.07c-0.348,0.934-0.918,2.066-2.047,2.066
		c-1.301,0.367-2.055-0.93-2.055-2.066L247.73,74.5z"/>
	<path fill="#7D040F" d="M239.5,74.039c0-0.75,1.117-2.258,2.508-2.258c1.242,0.008,2.508,1.133,2.508,2.535
		c0.234,1.223-1.129,2.527-2.508,2.527c-1.758,0.195-2.516-1.137-2.516-2.527L239.5,74.039z"/>
	
		<linearGradient id="SVGID_34_" gradientUnits="userSpaceOnUse" x1="22.2715" y1="168.248" x2="26.0634" y2="161.6802" gradientTransform="matrix(0.75 0 0 -0.75 223.8423 198.0908)">
		<stop  offset="0" style="stop-color:#9F5153"/>
		<stop  offset="1" style="stop-color:#7B030D"/>
	</linearGradient>
	<path fill="url(#SVGID_34_)" stroke="#FFFFFF" stroke-linejoin="bevel" stroke-miterlimit="10" d="M239.957,74.5
		c0-1.5,0.914-2.254,2.051-2.254c0.949,0.004,2.047,0.926,2.047,2.07c-0.348,0.934-0.922,2.066-2.047,2.066
		c-1.301,0.367-2.055-0.93-2.055-2.066L239.957,74.5z"/>
	<path fill="#FED372" d="M255.035,74.039c0-0.75,1.117-2.258,2.508-2.258c1.242,0.008,2.508,1.133,2.508,2.535
		c0.234,1.223-1.129,2.527-2.508,2.527c-1.758,0.195-2.516-1.137-2.516-2.527L255.035,74.039z"/>
	
		<linearGradient id="SVGID_35_" gradientUnits="userSpaceOnUse" x1="22.2705" y1="168.25" x2="26.0631" y2="161.681" gradientTransform="matrix(0.75 0 0 -0.75 239.3774 198.0908)">
		<stop  offset="0" style="stop-color:#FEDEA0"/>
		<stop  offset="1" style="stop-color:#E9C168"/>
	</linearGradient>
	<path fill="url(#SVGID_35_)" stroke="#FFFFFF" stroke-linejoin="bevel" stroke-miterlimit="10" d="M255.492,74.5
		c0-1.5,0.914-2.254,2.051-2.254c0.949,0.004,2.047,0.926,2.047,2.07c-0.348,0.934-0.918,2.066-2.047,2.066
		c-1.301,0.367-2.055-0.93-2.055-2.066L255.492,74.5z"/>
	<path d="M268.422,87.418c0-1.5,1.32-3.008,2.961-3.008c1.539,0.008,2.957,1.336,2.957,2.988c0.082,1.52-1.328,2.984-2.957,2.984
		c-1.461,0.035-2.969-1.34-2.969-2.984L268.422,87.418z"/>
	
		<linearGradient id="SVGID_36_" gradientUnits="userSpaceOnUse" x1="22.479" y1="168.3711" x2="26.9103" y2="160.6959" gradientTransform="matrix(0.75 0 0 -0.75 252.8491 210.8027)">
		<stop  offset="0" style="stop-color:#505050"/>
		<stop  offset="1" style="stop-color:#000000"/>
	</linearGradient>
	<path fill="url(#SVGID_36_)" stroke="#FFFFFF" stroke-linejoin="bevel" stroke-miterlimit="10" d="M268.965,87.215
		c0-1.5,1.078-2.258,2.418-2.258c1.332,0.008,2.414,1.09,2.414,2.441c-0.332,1.316-1.082,2.438-2.414,2.438
		c-1.668-0.371-2.422-1.094-2.422-2.438L268.965,87.215z"/>
	<path fill="#FFFFFF" fill-opacity="0.5529" d="M238.043,80.426h24.75c0,0,0.641,0.395,0.641,0.895l0.109,12.605
		c0,0-0.512,0.746-1.008,0.746l-24.492,0.004c0,0-0.75-0.41-0.75-0.906V81.176c0,0,0.391-0.75,0.887-0.75H238.043z"/>
	<path fill="#595757" fill-opacity="0.5176" stroke="#3E3938" stroke-linejoin="bevel" stroke-miterlimit="10" d="M113.102,153.25
		h11.25c0,0,0.688,0.461,0.688,1.027l0.063,7.223c0,0.75-0.52,0.934-1.086,0.934l-10.914-0.184c0,0-0.75-0.277-0.75-0.844V154
		c0,0,0.457-0.75,1.023-0.75H113.102z"/>
	<path fill="#595757" fill-opacity="0.5176" stroke="#3E3938" stroke-linejoin="bevel" stroke-miterlimit="10" d="M113.102,179.715
		h11.25c0,0,0.688,0.457,0.688,1.027l0.063,7.223c0,0.75-0.52,0.934-1.086,0.934l-10.914-0.184c0,0-0.75-0.277-0.75-0.844v-7.406
		c0,0,0.457-0.75,1.023-0.75H113.102z"/>
	<path fill="#595757" fill-opacity="0.5176" stroke="#3E3938" stroke-linejoin="bevel" stroke-miterlimit="10" d="M144.934,153.25
		h11.25c0,0,0.691,0.461,0.691,1.027l0.059,7.223c0,0.75-0.516,0.934-1.082,0.934l-10.918-0.184c0,0-0.75-0.277-0.75-0.844V154
		c0,0,0.461-0.75,1.023-0.75H144.934z"/>
	<path fill="#595757" fill-opacity="0.5176" stroke="#3E3938" stroke-linejoin="bevel" stroke-miterlimit="10" d="M177.465,153.25
		h11.25c0,0,0.688,0.461,0.688,1.027l0.063,7.223c0,0.75-0.52,0.934-1.086,0.934l-10.914-0.184c0,0-0.75-0.277-0.75-0.844V154
		c0,0,0.457-0.75,1.02-0.75H177.465z"/>
	<path fill="#595757" fill-opacity="0.5176" stroke="#3E3938" stroke-linejoin="bevel" stroke-miterlimit="10" d="M209.297,153.25
		h11.25c0,0,0.691,0.461,0.691,1.027l0.059,7.223c0,0.75-0.516,0.934-1.082,0.934l-10.918-0.184c0,0-0.75-0.277-0.75-0.844V154
		c0,0,0.461-0.75,1.023-0.75H209.297z"/>
	<path fill="#595757" fill-opacity="0.5176" stroke="#3E3938" stroke-linejoin="bevel" stroke-miterlimit="10" d="M256.906,184.305
		h11.25c0,0,0.691,0.461,0.691,1.027l0.059,7.223c0,0.75-0.516,0.934-1.082,0.934l-10.918-0.184c0,0-0.75-0.277-0.75-0.844v-7.406
		c0,0,0.461-0.75,1.023-0.75H256.906z"/>
	<path fill="#595757" fill-opacity="0.5176" stroke="#3E3938" stroke-linejoin="bevel" stroke-miterlimit="10" d="M302.836,184.305
		h11.25c0,0,0.688,0.461,0.688,1.027l0.063,7.223c0,0.75-0.52,0.934-1.086,0.934l-10.914-0.184c0,0-0.75-0.277-0.75-0.844v-7.406
		c0,0,0.457-0.75,1.023-0.75H302.836z"/>
	
		<linearGradient id="SVGID_37_" gradientUnits="userSpaceOnUse" x1="41.8413" y1="167.7871" x2="41.8413" y2="126.9355" gradientTransform="matrix(0.75 0 0 -0.75 49.9521 235.7148)">
		<stop  offset="0" style="stop-color:#C4C4C4"/>
		<stop  offset="0.15" style="stop-color:#FFFFFF"/>
		<stop  offset="0.25" style="stop-color:#FFFFFF"/>
		<stop  offset="0.44" style="stop-color:#DFDFDF"/>
		<stop  offset="0.6" style="stop-color:#C7C7C7"/>
		<stop  offset="0.8" style="stop-color:#A8A8A8"/>
		<stop  offset="0.97" style="stop-color:#999999"/>
	</linearGradient>
	<path fill="url(#SVGID_37_)" d="M66.07,124.875c0-8.25,6.824-15,15.258-15c8.742,0,15.262,6.852,15.262,15.32
		c0.23,8.68-6.855,15.316-15.262,15.316c-8.508,0.113-15.258-6.879-15.258-15.316V124.875z"/>
	
		<linearGradient id="SVGID_38_" gradientUnits="userSpaceOnUse" x1="39.5288" y1="167.7871" x2="39.5288" y2="131.5742" gradientTransform="matrix(0.75 0 0 -0.75 51.6836 237.4531)">
		<stop  offset="0" style="stop-color:#2D2929"/>
		<stop  offset="0.15" style="stop-color:#5B5858"/>
		<stop  offset="0.25" style="stop-color:#747272"/>
		<stop  offset="0.44" style="stop-color:#353130"/>
		<stop  offset="0.6" style="stop-color:#2E2A29"/>
		<stop  offset="0.8" style="stop-color:#252221"/>
		<stop  offset="0.97" style="stop-color:#211E1E"/>
	</linearGradient>
	<path fill="url(#SVGID_38_)" d="M67.801,125.113c0-7.5,6.043-13.5,13.527-13.5c7.473,0,13.531,6.082,13.531,13.582
		c-0.059,7.418-6.07,13.578-13.531,13.578c-7.527-0.16-13.527-6.078-13.527-13.578V125.113z"/>
	
		<linearGradient id="SVGID_39_" gradientUnits="userSpaceOnUse" x1="34.707" y1="169.3359" x2="30.2649" y2="144.1434" gradientTransform="matrix(0.75 0 0 -0.75 56.9585 242.748)">
		<stop  offset="0" style="stop-color:#C3A156"/>
		<stop  offset="0.15" style="stop-color:#FED681"/>
		<stop  offset="0.25" style="stop-color:#FEE8C2"/>
		<stop  offset="0.44" style="stop-color:#DEB863"/>
		<stop  offset="0.6" style="stop-color:#C6A457"/>
		<stop  offset="0.8" style="stop-color:#A78A48"/>
		<stop  offset="0.97" style="stop-color:#997E42"/>
	</linearGradient>
	<path fill="url(#SVGID_39_)" d="M73.074,125.16c0-4.5,3.688-8.25,8.254-8.25c4.496,0,8.254,3.707,8.254,8.285
		c-0.008,4.465-3.703,8.285-8.254,8.285c-4.504-0.07-8.254-3.711-8.254-8.285V125.16z"/>
	
		<linearGradient id="SVGID_40_" gradientUnits="userSpaceOnUse" x1="34.4497" y1="169.6328" x2="26.5226" y2="147.8532" gradientTransform="matrix(0.75 0 0 -0.75 58.4507 244.2461)">
		<stop  offset="0" style="stop-color:#C2B39F"/>
		<stop  offset="0.15" style="stop-color:#FDEAD3"/>
		<stop  offset="0.25" style="stop-color:#FEF3E7"/>
		<stop  offset="0.44" style="stop-color:#DECCB6"/>
		<stop  offset="0.6" style="stop-color:#C5B5A2"/>
		<stop  offset="0.8" style="stop-color:#A69988"/>
		<stop  offset="0.97" style="stop-color:#988C7C"/>
	</linearGradient>
	<path fill="url(#SVGID_40_)" d="M74.566,125.156c0-3.75,3.02-6.75,6.762-6.75c3.738,0,6.762,3.039,6.762,6.789
		c-0.023,3.711-3.035,6.785-6.762,6.785c-3.762-0.074-6.762-3.039-6.762-6.785V125.156z"/>
	
		<linearGradient id="SVGID_41_" gradientUnits="userSpaceOnUse" x1="41.8413" y1="167.7832" x2="41.8413" y2="126.9326" gradientTransform="matrix(0.75 0 0 -0.75 49.9521 205.8457)">
		<stop  offset="0" style="stop-color:#C4C4C4"/>
		<stop  offset="0.15" style="stop-color:#FFFFFF"/>
		<stop  offset="0.25" style="stop-color:#FFFFFF"/>
		<stop  offset="0.44" style="stop-color:#DFDFDF"/>
		<stop  offset="0.6" style="stop-color:#C7C7C7"/>
		<stop  offset="0.8" style="stop-color:#A8A8A8"/>
		<stop  offset="0.97" style="stop-color:#999999"/>
	</linearGradient>
	<path fill="url(#SVGID_41_)" d="M66.07,95.008c0-8.25,6.824-15,15.258-15c8.742,0,15.262,6.852,15.262,15.316
		c0.23,8.684-6.855,15.32-15.262,15.32c-8.508,0.113-15.258-6.879-15.258-15.32V95.008z"/>
	
		<linearGradient id="SVGID_42_" gradientUnits="userSpaceOnUse" x1="39.5288" y1="167.7891" x2="39.5288" y2="131.5703" gradientTransform="matrix(0.75 0 0 -0.75 51.6836 207.584)">
		<stop  offset="0" style="stop-color:#2D2929"/>
		<stop  offset="0.15" style="stop-color:#5B5858"/>
		<stop  offset="0.25" style="stop-color:#747272"/>
		<stop  offset="0.44" style="stop-color:#353130"/>
		<stop  offset="0.6" style="stop-color:#2E2A29"/>
		<stop  offset="0.8" style="stop-color:#252221"/>
		<stop  offset="0.97" style="stop-color:#211E1E"/>
	</linearGradient>
	<path fill="url(#SVGID_42_)" d="M67.801,95.242c0-7.5,6.043-13.5,13.527-13.5c7.473,0,13.531,6.082,13.531,13.582
		c-0.059,7.418-6.07,13.582-13.531,13.582c-7.527-0.164-13.527-6.082-13.527-13.582V95.242z"/>
	
		<linearGradient id="SVGID_43_" gradientUnits="userSpaceOnUse" x1="34.707" y1="169.3359" x2="30.2649" y2="144.1434" gradientTransform="matrix(0.75 0 0 -0.75 56.9585 212.8789)">
		<stop  offset="0" style="stop-color:#C3A156"/>
		<stop  offset="0.15" style="stop-color:#FED681"/>
		<stop  offset="0.25" style="stop-color:#FEE8C2"/>
		<stop  offset="0.44" style="stop-color:#DEB863"/>
		<stop  offset="0.6" style="stop-color:#C6A457"/>
		<stop  offset="0.8" style="stop-color:#A78A48"/>
		<stop  offset="0.97" style="stop-color:#997E42"/>
	</linearGradient>
	<path fill="url(#SVGID_43_)" d="M73.074,95.289c0-4.5,3.688-8.25,8.254-8.25c4.496,0,8.254,3.711,8.254,8.285
		c-0.008,4.465-3.703,8.285-8.254,8.285c-4.504-0.07-8.254-3.707-8.254-8.285V95.289z"/>
	
		<linearGradient id="SVGID_44_" gradientUnits="userSpaceOnUse" x1="34.4497" y1="169.6309" x2="26.523" y2="147.8524" gradientTransform="matrix(0.75 0 0 -0.75 58.4507 214.377)">
		<stop  offset="0" style="stop-color:#C2B39F"/>
		<stop  offset="0.15" style="stop-color:#FDEAD3"/>
		<stop  offset="0.25" style="stop-color:#FEF3E7"/>
		<stop  offset="0.44" style="stop-color:#DECCB6"/>
		<stop  offset="0.6" style="stop-color:#C5B5A2"/>
		<stop  offset="0.8" style="stop-color:#A69988"/>
		<stop  offset="0.97" style="stop-color:#988C7C"/>
	</linearGradient>
	<path fill="url(#SVGID_44_)" d="M74.566,95.289c0-3.75,3.02-6.75,6.762-6.75c3.738,0,6.762,3.039,6.762,6.785
		c-0.023,3.715-3.035,6.789-6.762,6.789c-3.762-0.074-6.762-3.039-6.762-6.789V95.289z"/>
	
		<linearGradient id="SVGID_45_" gradientUnits="userSpaceOnUse" x1="123.1929" y1="447.6533" x2="78.1899" y2="447.6533" gradientTransform="matrix(0.4408 0.6068 0.6068 -0.4408 -194.7382 208.7721)">
		<stop  offset="0" style="stop-color:#AEAEAD"/>
		<stop  offset="0.03" style="stop-color:#F8F8F7"/>
		<stop  offset="0.08" style="stop-color:#E3E3E2"/>
		<stop  offset="0.64" style="stop-color:#DFDFDE"/>
		<stop  offset="0.95" style="stop-color:#DADAD9"/>
		<stop  offset="1" style="stop-color:#A2A2A1"/>
	</linearGradient>
	<path fill="url(#SVGID_45_)" d="M168.379,38.762c7.492,10.316,2.184,15.039,2.184,15.039l-74.398,57.824
		c0,0-11.734,8.785-21.656-4.871c-10.316-13.617,1.891-22.488,1.891-22.488l78.141-53.063c0,0,6.059-3.148,13.711,7.383
		L168.379,38.762z"/>
	
		<linearGradient id="SVGID_46_" gradientUnits="userSpaceOnUse" x1="66.4893" y1="156.4072" x2="21.4932" y2="156.4072" gradientTransform="matrix(0.75 0 0 -0.75 47.875 255.6758)">
		<stop  offset="0" style="stop-color:#AEAEAD"/>
		<stop  offset="0.03" style="stop-color:#F8F8F7"/>
		<stop  offset="0.08" style="stop-color:#E3E3E2"/>
		<stop  offset="0.64" style="stop-color:#DFDFDE"/>
		<stop  offset="0.95" style="stop-color:#DADAD9"/>
		<stop  offset="1" style="stop-color:#A2A2A1"/>
	</linearGradient>
	<path fill="url(#SVGID_46_)" d="M97.742,138.836h-18.75l-9-9c0,0-2.695-0.68-4.758,0.605c-1.992,1.645-0.984,5.035-0.984,5.035
		l11.742,11.609h21.75V138.836z"/>
	
		<linearGradient id="SVGID_47_" gradientUnits="userSpaceOnUse" x1="31.4878" y1="84.6934" x2="21.4722" y2="84.6934" gradientTransform="matrix(0.75 0 0 -0.75 147.1025 202.1816)">
		<stop  offset="0" style="stop-color:#8F9AA1"/>
		<stop  offset="0.15" style="stop-color:#C0CDD5"/>
		<stop  offset="0.25" style="stop-color:#DDE3E8"/>
		<stop  offset="0.44" style="stop-color:#A3B0B8"/>
		<stop  offset="0.6" style="stop-color:#919CA3"/>
		<stop  offset="0.8" style="stop-color:#7A8389"/>
		<stop  offset="0.97" style="stop-color:#6F787D"/>
	</linearGradient>
	<path fill="url(#SVGID_47_)" d="M163.969,76.34h6c0,0,0.715,0.414,0.715,0.938l0.035,122.813c0,0.75-0.496,0.895-1.059,0.895
		l-5.691-0.145c0,0-0.762-0.293-0.762-0.816l0.012-122.934c0,0,0.445-0.75,1.012-0.75H163.969z"/>
	
		<linearGradient id="SVGID_48_" gradientUnits="userSpaceOnUse" x1="31.4888" y1="144.0879" x2="21.4731" y2="144.0879" gradientTransform="matrix(0.75 0 0 -0.75 271.9883 298.3447)">
		<stop  offset="0" style="stop-color:#8F9AA1"/>
		<stop  offset="0.15" style="stop-color:#C0CDD5"/>
		<stop  offset="0.25" style="stop-color:#DDE3E8"/>
		<stop  offset="0.44" style="stop-color:#A3B0B8"/>
		<stop  offset="0.6" style="stop-color:#919CA3"/>
		<stop  offset="0.8" style="stop-color:#7A8389"/>
		<stop  offset="0.97" style="stop-color:#6F787D"/>
	</linearGradient>
	<path fill="url(#SVGID_48_)" d="M288.855,172.504h6c0,0,0.715,0.117,0.715,0.27l0.035,34.98c0,0-0.496,0.301-1.059,0.301
		l-5.691-0.301c0,0-0.762,0.176-0.762,0.027l0.012-35.277c0,0,0.445,0,1.012,0H288.855z"/>
	
		<linearGradient id="SVGID_49_" gradientUnits="userSpaceOnUse" x1="-524.8374" y1="-24.6187" x2="-534.853" y2="-24.6187" gradientTransform="matrix(0 -0.75 -0.75 0 232.4072 -189.7529)">
		<stop  offset="0" style="stop-color:#8F9AA1"/>
		<stop  offset="0.15" style="stop-color:#C0CDD5"/>
		<stop  offset="0.25" style="stop-color:#DDE3E8"/>
		<stop  offset="0.44" style="stop-color:#A3B0B8"/>
		<stop  offset="0.6" style="stop-color:#919CA3"/>
		<stop  offset="0.8" style="stop-color:#7A8389"/>
		<stop  offset="0.97" style="stop-color:#6F787D"/>
	</linearGradient>
	<path fill="url(#SVGID_49_)" d="M172.492,210.625v-6c0,0,0.52-0.742,1.176-0.742l154.074-0.008c0.75,0,1.508,0.469,1.508,1.035
		l-0.008,5.715c0,0-0.543,0.762-1.199,0.762l-154.051-0.012c-0.75,0-1.5-0.445-1.5-1.016V210.625z"/>
	
		<linearGradient id="SVGID_50_" gradientUnits="userSpaceOnUse" x1="33.6841" y1="167.7891" x2="33.6841" y2="156.3301" gradientTransform="matrix(0.75 0 0 -0.75 266.5845 329.209)">
		<stop  offset="0" style="stop-color:#C4C4C4"/>
		<stop  offset="0.15" style="stop-color:#FFFFFF"/>
		<stop  offset="0.25" style="stop-color:#FFFFFF"/>
		<stop  offset="0.44" style="stop-color:#DFDFDF"/>
		<stop  offset="0.6" style="stop-color:#C7C7C7"/>
		<stop  offset="0.8" style="stop-color:#A8A8A8"/>
		<stop  offset="0.97" style="stop-color:#999999"/>
	</linearGradient>
	<path fill="url(#SVGID_50_)" d="M283.449,203.367h16.5c0.75,0,1.047,0.461,1.047,1.027l-0.297,6.473c0,0.75-0.16,1.094-0.727,1.094
		l-16.523-0.344c0,0-0.75-0.117-0.75-0.684v-6.816c0,0,0.461-0.75,1.023-0.75H283.449z"/>
	
		<linearGradient id="SVGID_51_" gradientUnits="userSpaceOnUse" x1="33.8804" y1="159.7881" x2="21.4897" y2="159.7881" gradientTransform="matrix(0.75 0 0 -0.75 146.1987 200.293)">
		<stop  offset="0" style="stop-color:#C4C4C4"/>
		<stop  offset="0.15" style="stop-color:#FFFFFF"/>
		<stop  offset="0.25" style="stop-color:#FFFFFF"/>
		<stop  offset="0.44" style="stop-color:#DFDFDF"/>
		<stop  offset="0.6" style="stop-color:#C7C7C7"/>
		<stop  offset="0.8" style="stop-color:#A8A8A8"/>
		<stop  offset="0.97" style="stop-color:#999999"/>
	</linearGradient>
	<path fill="url(#SVGID_51_)" d="M163.066,74.453h7.5c0.75,0,1.043,0.461,1.043,1.027l-0.293,9.473c0,0.75-0.172,1.211-0.738,1.211
		l-7.512,0.289c0,0-0.75-0.75-0.75-1.316v-9.934c0,0,0.457-0.75,1.023-0.75H163.066z"/>
	
		<linearGradient id="SVGID_52_" gradientUnits="userSpaceOnUse" x1="-624.3047" y1="623.5166" x2="-606.9541" y2="633.534" gradientTransform="matrix(-0.75 0 0 0.75 -293.1924 -265.75)">
		<stop  offset="0" style="stop-color:#B9B9B9"/>
		<stop  offset="0.15" style="stop-color:#F2F2F2"/>
		<stop  offset="0.25" style="stop-color:#F3F3F3"/>
		<stop  offset="0.52" style="stop-color:#D0D0D0"/>
		<stop  offset="0.69" style="stop-color:#B9B9B9"/>
		<stop  offset="0.8" style="stop-color:#AFAFAF"/>
		<stop  offset="0.92" style="stop-color:#A5A5A5"/>
	</linearGradient>
	<path fill="url(#SVGID_52_)" d="M173.863,211.41c0,0-5.688-0.152-8.391-3.355c-2.859-3.395-2.23-8.203-2.23-8.203l7.621,0.309
		c0,0-0.223,2.609,3,3.781V211.41z"/>
</g>
</svg>
