<?xml version="1.0" encoding="utf-8"?>
<!-- Generator: Adobe Illustrator 16.0.0, SVG Export Plug-In . SVG Version: 6.00 Build 0)  -->
<!DOCTYPE svg PUBLIC "-//W3C//DTD SVG 1.1//EN" "http://www.w3.org/Graphics/SVG/1.1/DTD/svg11.dtd">
<svg preserveAspectRatio="none" version="1.1" id="图层_1" xmlns="http://www.w3.org/2000/svg" xmlns:xlink="http://www.w3.org/1999/xlink" x="0px" y="0px"
	 width="299.25px" height="294.809px" viewBox="30 -24.926 299.25 294.809" enable-background="new 30 -24.926 299.25 294.809"
	 xml:space="preserve">
<g id="surface566">
	<path fill="#DEB887" stroke="#DEB887" stroke-linejoin="bevel" stroke-miterlimit="10" d="M31.793,122.574
		c0-81,66.145-147,147.832-147c81.668,0,147.832,65.727,147.832,146.906c-0.164,81.094-66.219,146.902-147.832,146.902
		C97.793,269.574,31.793,203.582,31.793,122.48V122.574z"/>
	<path fill="#EEEEEE" stroke="#EEEEEE" stroke-linejoin="bevel" stroke-miterlimit="10" d="M38.621,122.609
		c0-77.25,63.109-140.25,141.004-140.25c77.996,0,141.004,62.711,141.004,140.121c-0.008,77.379-63.137,140.117-141.004,140.117
		c-78.004,0.262-141.004-62.738-141.004-140.117V122.609z"/>
	<path fill="#DEB887" stroke="#DEB887" stroke-linejoin="bevel" stroke-miterlimit="10" d="M66.02,122.836
		c0-63,50.844-113.25,113.605-113.25c62.645,0,113.605,50.527,113.605,112.895c0.039,62.605-50.867,112.891-113.605,112.891
		C117.02,235.336,66.02,184.824,66.02,122.48V122.836z"/>
	
		<linearGradient id="SVGID_1_" gradientUnits="userSpaceOnUse" x1="35.8315" y1="160.6572" x2="21.4878" y2="160.6572" gradientTransform="matrix(0.75 0 0 -0.75 13.8838 242.9355)">
		<stop  offset="0" style="stop-color:#C4AA84"/>
		<stop  offset="0.15" style="stop-color:#FFE0B3"/>
		<stop  offset="0.25" style="stop-color:#FFE6C3"/>
		<stop  offset="0.44" style="stop-color:#DFC297"/>
		<stop  offset="0.6" style="stop-color:#C7AD86"/>
		<stop  offset="0.8" style="stop-color:#A89170"/>
		<stop  offset="0.97" style="stop-color:#998566"/>
		<stop  offset="1" style="stop-color:#CBB189"/>
	</linearGradient>
	<path fill="url(#SVGID_1_)" d="M30,122.348c0-3,2.41-5.25,5.379-5.25c2.871,0,5.379,2.391,5.379,5.344
		c-0.258,2.906-2.406,5.348-5.379,5.348C32.25,127.598,30,125.395,30,122.441V122.348z"/>
	
		<linearGradient id="SVGID_2_" gradientUnits="userSpaceOnUse" x1="35.834" y1="160.6572" x2="21.4902" y2="160.6572" gradientTransform="matrix(0.75 0 0 -0.75 302.374 242.9355)">
		<stop  offset="0" style="stop-color:#C4AA84"/>
		<stop  offset="0.15" style="stop-color:#FFE0B3"/>
		<stop  offset="0.25" style="stop-color:#FFE6C3"/>
		<stop  offset="0.44" style="stop-color:#DFC297"/>
		<stop  offset="0.6" style="stop-color:#C7AD86"/>
		<stop  offset="0.8" style="stop-color:#A89170"/>
		<stop  offset="0.97" style="stop-color:#998566"/>
		<stop  offset="1" style="stop-color:#CBB189"/>
	</linearGradient>
	<path fill="url(#SVGID_2_)" d="M318.492,122.348c0-3,2.406-5.25,5.379-5.25c2.871,0,5.379,2.391,5.379,5.344
		c-0.258,2.906-2.41,5.348-5.379,5.348c-3.129-0.191-5.379-2.395-5.379-5.348V122.348z"/>
	
		<linearGradient id="SVGID_3_" gradientUnits="userSpaceOnUse" x1="109.7617" y1="353.083" x2="95.4365" y2="353.083" gradientTransform="matrix(0.6495 0.375 0.375 -0.6495 -144.129 241.2956)">
		<stop  offset="0" style="stop-color:#C4AA84"/>
		<stop  offset="0.15" style="stop-color:#FFE0B3"/>
		<stop  offset="0.25" style="stop-color:#FFE6C3"/>
		<stop  offset="0.44" style="stop-color:#DFC297"/>
		<stop  offset="0.6" style="stop-color:#C7AD86"/>
		<stop  offset="0.8" style="stop-color:#A89170"/>
		<stop  offset="0.97" style="stop-color:#998566"/>
		<stop  offset="1" style="stop-color:#CBB189"/>
	</linearGradient>
	<path fill="url(#SVGID_3_)" d="M50.32,47.66c1.5-2.598,4.707-3.344,7.277-1.859c2.492,1.438,3.453,4.762,1.973,7.32
		c-1.656,2.387-4.758,3.438-7.328,1.953c-2.598-1.742-3.453-4.762-1.977-7.324L50.32,47.66z"/>
	
		<linearGradient id="SVGID_4_" gradientUnits="userSpaceOnUse" x1="109.7612" y1="353.083" x2="95.437" y2="353.083" gradientTransform="matrix(0.6495 0.375 0.375 -0.6495 105.3203 385.3152)">
		<stop  offset="0" style="stop-color:#C4AA84"/>
		<stop  offset="0.15" style="stop-color:#FFE0B3"/>
		<stop  offset="0.25" style="stop-color:#FFE6C3"/>
		<stop  offset="0.44" style="stop-color:#DFC297"/>
		<stop  offset="0.6" style="stop-color:#C7AD86"/>
		<stop  offset="0.8" style="stop-color:#A89170"/>
		<stop  offset="0.97" style="stop-color:#998566"/>
		<stop  offset="1" style="stop-color:#CBB189"/>
	</linearGradient>
	<path fill="url(#SVGID_4_)" d="M299.77,191.68c1.5-2.598,4.707-3.344,7.277-1.859c2.492,1.438,3.453,4.762,1.973,7.32
		c-1.656,2.387-4.758,3.438-7.328,1.953c-2.598-1.742-3.453-4.762-1.977-7.324L299.77,191.68z"/>
	
		<linearGradient id="SVGID_5_" gradientUnits="userSpaceOnUse" x1="77.5459" y1="556.6904" x2="63.2656" y2="556.6904" gradientTransform="matrix(0.375 0.6495 0.6495 -0.375 -280.1086 161.1567)">
		<stop  offset="0" style="stop-color:#C4AA84"/>
		<stop  offset="0.15" style="stop-color:#FFE0B3"/>
		<stop  offset="0.25" style="stop-color:#FFE6C3"/>
		<stop  offset="0.44" style="stop-color:#DFC297"/>
		<stop  offset="0.6" style="stop-color:#C7AD86"/>
		<stop  offset="0.8" style="stop-color:#A89170"/>
		<stop  offset="0.97" style="stop-color:#998566"/>
		<stop  offset="1" style="stop-color:#CBB189"/>
	</linearGradient>
	<path fill="url(#SVGID_5_)" d="M105.301-6.57c2.598-1.5,5.746-0.547,7.227,2.012c1.445,2.508,0.594,5.84-1.977,7.324
		c-2.598,1.258-5.852,0.609-7.328-1.953c-1.344-2.809-0.594-5.84,1.973-7.32L105.301-6.57z"/>
	
		<linearGradient id="SVGID_6_" gradientUnits="userSpaceOnUse" x1="77.5435" y1="556.6904" x2="63.2632" y2="556.6904" gradientTransform="matrix(0.375 0.6495 0.6495 -0.375 -136.5422 409.8217)">
		<stop  offset="0" style="stop-color:#C4AA84"/>
		<stop  offset="0.15" style="stop-color:#FFE0B3"/>
		<stop  offset="0.25" style="stop-color:#FFE6C3"/>
		<stop  offset="0.44" style="stop-color:#DFC297"/>
		<stop  offset="0.6" style="stop-color:#C7AD86"/>
		<stop  offset="0.8" style="stop-color:#A89170"/>
		<stop  offset="0.97" style="stop-color:#998566"/>
		<stop  offset="1" style="stop-color:#CBB189"/>
	</linearGradient>
	<path fill="url(#SVGID_6_)" d="M248.867,242.094c2.598-1.5,5.746-0.547,7.227,2.012c1.445,2.508,0.594,5.84-1.977,7.324
		c-2.598,1.258-5.852,0.609-7.328-1.949c-1.344-2.813-0.594-5.84,1.973-7.324L248.867,242.094z"/>
	
		<linearGradient id="SVGID_7_" gradientUnits="userSpaceOnUse" x1="-448.1548" y1="30.9697" x2="-462.4795" y2="30.9697" gradientTransform="matrix(-0.6495 0.375 -0.375 -0.6495 20.209 241.2956)">
		<stop  offset="0" style="stop-color:#C4AA84"/>
		<stop  offset="0.15" style="stop-color:#FFE0B3"/>
		<stop  offset="0.25" style="stop-color:#FFE6C3"/>
		<stop  offset="0.44" style="stop-color:#DFC297"/>
		<stop  offset="0.6" style="stop-color:#C7AD86"/>
		<stop  offset="0.8" style="stop-color:#A89170"/>
		<stop  offset="0.97" style="stop-color:#998566"/>
		<stop  offset="1" style="stop-color:#CBB189"/>
	</linearGradient>
	<path fill="url(#SVGID_7_)" d="M308.93,47.66c-1.5-2.598-4.707-3.344-7.277-1.859c-2.492,1.438-3.453,4.762-1.973,7.32
		c1.656,2.387,4.758,3.438,7.328,1.953c2.598-1.742,3.453-4.762,1.977-7.324L308.93,47.66z"/>
	
		<linearGradient id="SVGID_8_" gradientUnits="userSpaceOnUse" x1="-448.1543" y1="30.9692" x2="-462.479" y2="30.9692" gradientTransform="matrix(-0.6495 0.375 -0.375 -0.6495 -229.2402 385.3152)">
		<stop  offset="0" style="stop-color:#C4AA84"/>
		<stop  offset="0.15" style="stop-color:#FFE0B3"/>
		<stop  offset="0.25" style="stop-color:#FFE6C3"/>
		<stop  offset="0.44" style="stop-color:#DFC297"/>
		<stop  offset="0.6" style="stop-color:#C7AD86"/>
		<stop  offset="0.8" style="stop-color:#A89170"/>
		<stop  offset="0.97" style="stop-color:#998566"/>
		<stop  offset="1" style="stop-color:#CBB189"/>
	</linearGradient>
	<path fill="url(#SVGID_8_)" d="M59.48,191.68c-1.5-2.598-4.707-3.344-7.277-1.859c-2.492,1.438-3.453,4.762-1.973,7.32
		c1.656,2.387,4.758,3.438,7.328,1.953c2.598-1.742,3.453-4.762,1.977-7.324L59.48,191.68z"/>
	
		<linearGradient id="SVGID_9_" gradientUnits="userSpaceOnUse" x1="-244.5674" y1="-1.2251" x2="-258.8477" y2="-1.2251" gradientTransform="matrix(-0.375 0.6495 -0.6495 -0.375 156.1887 161.1567)">
		<stop  offset="0" style="stop-color:#C4AA84"/>
		<stop  offset="0.15" style="stop-color:#FFE0B3"/>
		<stop  offset="0.25" style="stop-color:#FFE6C3"/>
		<stop  offset="0.44" style="stop-color:#DFC297"/>
		<stop  offset="0.6" style="stop-color:#C7AD86"/>
		<stop  offset="0.8" style="stop-color:#A89170"/>
		<stop  offset="0.97" style="stop-color:#998566"/>
		<stop  offset="1" style="stop-color:#CBB189"/>
	</linearGradient>
	<path fill="url(#SVGID_9_)" d="M253.949-6.57c-2.598-1.5-5.746-0.547-7.227,2.012c-1.445,2.508-0.594,5.84,1.977,7.324
		c2.598,1.258,5.852,0.609,7.328-1.953c1.344-2.809,0.594-5.84-1.973-7.32L253.949-6.57z"/>
	
		<linearGradient id="SVGID_10_" gradientUnits="userSpaceOnUse" x1="-244.5693" y1="-1.2261" x2="-258.8496" y2="-1.2261" gradientTransform="matrix(-0.375 0.6495 -0.6495 -0.375 12.6223 409.8217)">
		<stop  offset="0" style="stop-color:#C4AA84"/>
		<stop  offset="0.15" style="stop-color:#FFE0B3"/>
		<stop  offset="0.25" style="stop-color:#FFE6C3"/>
		<stop  offset="0.44" style="stop-color:#DFC297"/>
		<stop  offset="0.6" style="stop-color:#C7AD86"/>
		<stop  offset="0.8" style="stop-color:#A89170"/>
		<stop  offset="0.97" style="stop-color:#998566"/>
		<stop  offset="1" style="stop-color:#CBB189"/>
	</linearGradient>
	<path fill="url(#SVGID_10_)" d="M110.383,242.094c-2.598-1.5-5.746-0.547-7.227,2.012c-1.445,2.508-0.594,5.84,1.977,7.324
		c2.598,1.258,5.852,0.609,7.328-1.949c1.344-2.813,0.594-5.84-1.973-7.324L110.383,242.094z"/>
	
		<linearGradient id="SVGID_11_" gradientUnits="userSpaceOnUse" x1="35.8325" y1="160.6602" x2="21.4888" y2="160.6602" gradientTransform="matrix(0.75 0 0 -0.75 158.1289 130.2578)">
		<stop  offset="0" style="stop-color:#C4AA84"/>
		<stop  offset="0.15" style="stop-color:#FFE0B3"/>
		<stop  offset="0.25" style="stop-color:#FFE6C3"/>
		<stop  offset="0.44" style="stop-color:#DFC297"/>
		<stop  offset="0.6" style="stop-color:#C7AD86"/>
		<stop  offset="0.8" style="stop-color:#A89170"/>
		<stop  offset="0.97" style="stop-color:#998566"/>
		<stop  offset="1" style="stop-color:#CBB189"/>
	</linearGradient>
	<path fill="url(#SVGID_11_)" d="M174.246,9.668c0-3,2.406-5.25,5.379-5.25c2.871,0,5.379,2.395,5.379,5.348
		c-0.258,2.902-2.406,5.344-5.379,5.344c-3.129-0.191-5.379-2.395-5.379-5.344V9.668z"/>
	
		<linearGradient id="SVGID_12_" gradientUnits="userSpaceOnUse" x1="35.8345" y1="160.6572" x2="21.4907" y2="160.6572" gradientTransform="matrix(0.75 0 0 -0.75 44.4873 242.9355)">
		<stop  offset="0" style="stop-color:#C4AA84"/>
		<stop  offset="0.15" style="stop-color:#FFE0B3"/>
		<stop  offset="0.25" style="stop-color:#FFE6C3"/>
		<stop  offset="0.44" style="stop-color:#DFC297"/>
		<stop  offset="0.6" style="stop-color:#C7AD86"/>
		<stop  offset="0.8" style="stop-color:#A89170"/>
		<stop  offset="0.97" style="stop-color:#998566"/>
		<stop  offset="1" style="stop-color:#CBB189"/>
	</linearGradient>
	<path fill="url(#SVGID_12_)" d="M60.605,122.348c0-3,2.406-5.25,5.379-5.25c2.871,0,5.379,2.391,5.379,5.344
		c-0.258,2.906-2.41,5.348-5.379,5.348c-3.129-0.191-5.379-2.395-5.379-5.348V122.348z"/>
	
		<linearGradient id="SVGID_13_" gradientUnits="userSpaceOnUse" x1="35.832" y1="160.6572" x2="21.4883" y2="160.6572" gradientTransform="matrix(0.75 0 0 -0.75 271.6958 242.9355)">
		<stop  offset="0" style="stop-color:#C4AA84"/>
		<stop  offset="0.15" style="stop-color:#FFE0B3"/>
		<stop  offset="0.25" style="stop-color:#FFE6C3"/>
		<stop  offset="0.44" style="stop-color:#DFC297"/>
		<stop  offset="0.6" style="stop-color:#C7AD86"/>
		<stop  offset="0.8" style="stop-color:#A89170"/>
		<stop  offset="0.97" style="stop-color:#998566"/>
		<stop  offset="1" style="stop-color:#CBB189"/>
	</linearGradient>
	<path fill="url(#SVGID_13_)" d="M287.813,122.348c0-3,2.406-5.25,5.379-5.25c2.871,0,5.379,2.391,5.379,5.344
		c-0.258,2.906-2.406,5.348-5.379,5.348c-3.129-0.191-5.379-2.395-5.379-5.348V122.348z"/>
	
		<linearGradient id="SVGID_14_" gradientUnits="userSpaceOnUse" x1="109.7671" y1="353.083" x2="95.439" y2="353.083" gradientTransform="matrix(0.6495 0.375 0.375 -0.6495 -117.6661 256.573)">
		<stop  offset="0" style="stop-color:#C4AA84"/>
		<stop  offset="0.15" style="stop-color:#FFE0B3"/>
		<stop  offset="0.25" style="stop-color:#FFE6C3"/>
		<stop  offset="0.44" style="stop-color:#DFC297"/>
		<stop  offset="0.6" style="stop-color:#C7AD86"/>
		<stop  offset="0.8" style="stop-color:#A89170"/>
		<stop  offset="0.97" style="stop-color:#998566"/>
		<stop  offset="1" style="stop-color:#CBB189"/>
	</linearGradient>
	<path fill="url(#SVGID_14_)" d="M76.781,62.938c1.5-2.598,4.707-3.344,7.277-1.859c2.492,1.441,3.453,4.762,1.977,7.324
		c-1.66,2.387-4.762,3.434-7.332,1.949c-2.598-1.742-3.453-4.762-1.973-7.32L76.781,62.938z"/>
	
		<linearGradient id="SVGID_15_" gradientUnits="userSpaceOnUse" x1="109.7642" y1="353.084" x2="95.439" y2="353.084" gradientTransform="matrix(0.6495 0.375 0.375 -0.6495 78.7929 369.9987)">
		<stop  offset="0" style="stop-color:#C4AA84"/>
		<stop  offset="0.15" style="stop-color:#FFE0B3"/>
		<stop  offset="0.25" style="stop-color:#FFE6C3"/>
		<stop  offset="0.44" style="stop-color:#DFC297"/>
		<stop  offset="0.6" style="stop-color:#C7AD86"/>
		<stop  offset="0.8" style="stop-color:#A89170"/>
		<stop  offset="0.97" style="stop-color:#998566"/>
		<stop  offset="1" style="stop-color:#CBB189"/>
	</linearGradient>
	<path fill="url(#SVGID_15_)" d="M273.242,176.363c1.5-2.598,4.707-3.344,7.277-1.859c2.492,1.441,3.453,4.762,1.973,7.324
		c-1.656,2.387-4.758,3.434-7.328,1.949c-2.598-1.742-3.453-4.762-1.977-7.32L273.242,176.363z"/>
	
		<linearGradient id="SVGID_16_" gradientUnits="userSpaceOnUse" x1="77.5454" y1="556.6904" x2="63.2661" y2="556.6904" gradientTransform="matrix(0.375 0.6495 0.6495 -0.375 -264.8791 187.5356)">
		<stop  offset="0" style="stop-color:#C4AA84"/>
		<stop  offset="0.15" style="stop-color:#FFE0B3"/>
		<stop  offset="0.25" style="stop-color:#FFE6C3"/>
		<stop  offset="0.44" style="stop-color:#DFC297"/>
		<stop  offset="0.6" style="stop-color:#C7AD86"/>
		<stop  offset="0.8" style="stop-color:#A89170"/>
		<stop  offset="0.97" style="stop-color:#998566"/>
		<stop  offset="1" style="stop-color:#CBB189"/>
	</linearGradient>
	<path fill="url(#SVGID_16_)" d="M120.531,19.809c2.598-1.5,5.746-0.547,7.223,2.012c1.449,2.508,0.598,5.84-1.973,7.324
		c-2.598,1.258-5.852,0.609-7.328-1.953c-1.344-2.809-0.598-5.84,1.973-7.32L120.531,19.809z"/>
	
		<linearGradient id="SVGID_17_" gradientUnits="userSpaceOnUse" x1="77.5459" y1="556.6895" x2="63.2666" y2="556.6895" gradientTransform="matrix(0.375 0.6495 0.6495 -0.375 -151.8088 383.3788)">
		<stop  offset="0" style="stop-color:#C4AA84"/>
		<stop  offset="0.15" style="stop-color:#FFE0B3"/>
		<stop  offset="0.25" style="stop-color:#FFE6C3"/>
		<stop  offset="0.44" style="stop-color:#DFC297"/>
		<stop  offset="0.6" style="stop-color:#C7AD86"/>
		<stop  offset="0.8" style="stop-color:#A89170"/>
		<stop  offset="0.97" style="stop-color:#998566"/>
		<stop  offset="1" style="stop-color:#CBB189"/>
	</linearGradient>
	<path fill="url(#SVGID_17_)" d="M233.602,215.652c2.598-1.5,5.746-0.551,7.223,2.012c1.449,2.508,0.598,5.84-1.973,7.324
		c-2.598,1.258-5.852,0.609-7.328-1.953c-1.344-2.809-0.598-5.84,1.973-7.32L233.602,215.652z"/>
	
		<linearGradient id="SVGID_18_" gradientUnits="userSpaceOnUse" x1="-448.1489" y1="30.9678" x2="-462.4775" y2="30.9678" gradientTransform="matrix(-0.6495 0.375 -0.375 -0.6495 -6.2538 256.573)">
		<stop  offset="0" style="stop-color:#C4AA84"/>
		<stop  offset="0.15" style="stop-color:#FFE0B3"/>
		<stop  offset="0.25" style="stop-color:#FFE6C3"/>
		<stop  offset="0.44" style="stop-color:#DFC297"/>
		<stop  offset="0.6" style="stop-color:#C7AD86"/>
		<stop  offset="0.8" style="stop-color:#A89170"/>
		<stop  offset="0.97" style="stop-color:#998566"/>
		<stop  offset="1" style="stop-color:#CBB189"/>
	</linearGradient>
	<path fill="url(#SVGID_18_)" d="M282.469,62.938c-1.5-2.598-4.707-3.344-7.277-1.859c-2.492,1.441-3.453,4.762-1.977,7.324
		c1.66,2.387,4.762,3.434,7.332,1.949c2.598-1.742,3.453-4.762,1.973-7.32L282.469,62.938z"/>
	
		<linearGradient id="SVGID_19_" gradientUnits="userSpaceOnUse" x1="-448.1519" y1="30.9688" x2="-462.4766" y2="30.9687" gradientTransform="matrix(-0.6495 0.375 -0.375 -0.6495 -202.7128 369.9987)">
		<stop  offset="0" style="stop-color:#C4AA84"/>
		<stop  offset="0.15" style="stop-color:#FFE0B3"/>
		<stop  offset="0.25" style="stop-color:#FFE6C3"/>
		<stop  offset="0.44" style="stop-color:#DFC297"/>
		<stop  offset="0.6" style="stop-color:#C7AD86"/>
		<stop  offset="0.8" style="stop-color:#A89170"/>
		<stop  offset="0.97" style="stop-color:#998566"/>
		<stop  offset="1" style="stop-color:#CBB189"/>
	</linearGradient>
	<path fill="url(#SVGID_19_)" d="M86.008,176.363c-1.5-2.598-4.707-3.344-7.277-1.859c-2.492,1.441-3.453,4.762-1.973,7.324
		c1.656,2.387,4.758,3.434,7.328,1.949c2.598-1.742,3.453-4.762,1.977-7.32L86.008,176.363z"/>
	
		<linearGradient id="SVGID_20_" gradientUnits="userSpaceOnUse" x1="-244.5664" y1="-1.2261" x2="-258.8457" y2="-1.2261" gradientTransform="matrix(-0.375 0.6495 -0.6495 -0.375 140.9602 187.5356)">
		<stop  offset="0" style="stop-color:#C4AA84"/>
		<stop  offset="0.15" style="stop-color:#FFE0B3"/>
		<stop  offset="0.25" style="stop-color:#FFE6C3"/>
		<stop  offset="0.44" style="stop-color:#DFC297"/>
		<stop  offset="0.6" style="stop-color:#C7AD86"/>
		<stop  offset="0.8" style="stop-color:#A89170"/>
		<stop  offset="0.97" style="stop-color:#998566"/>
		<stop  offset="1" style="stop-color:#CBB189"/>
	</linearGradient>
	<path fill="url(#SVGID_20_)" d="M238.719,19.809c-2.598-1.5-5.746-0.547-7.223,2.012c-1.449,2.508-0.598,5.84,1.973,7.324
		c2.598,1.258,5.852,0.609,7.328-1.953c1.344-2.809,0.598-5.84-1.973-7.32L238.719,19.809z"/>
	
		<linearGradient id="SVGID_21_" gradientUnits="userSpaceOnUse" x1="-244.5659" y1="-1.2261" x2="-258.8462" y2="-1.2261" gradientTransform="matrix(-0.375 0.6495 -0.6495 -0.375 27.8889 383.3788)">
		<stop  offset="0" style="stop-color:#C4AA84"/>
		<stop  offset="0.15" style="stop-color:#FFE0B3"/>
		<stop  offset="0.25" style="stop-color:#FFE6C3"/>
		<stop  offset="0.44" style="stop-color:#DFC297"/>
		<stop  offset="0.6" style="stop-color:#C7AD86"/>
		<stop  offset="0.8" style="stop-color:#A89170"/>
		<stop  offset="0.97" style="stop-color:#998566"/>
		<stop  offset="1" style="stop-color:#CBB189"/>
	</linearGradient>
	<path fill="url(#SVGID_21_)" d="M125.648,215.652c-2.598-1.5-5.746-0.551-7.223,2.012c-1.449,2.508-0.598,5.84,1.973,7.324
		c2.598,1.258,5.852,0.609,7.328-1.953c1.344-2.809,0.598-5.84-1.973-7.32L125.648,215.652z"/>
	<path fill="#CFEBF6" stroke="#A0D8EF" stroke-linejoin="bevel" stroke-miterlimit="10" d="M73.57,122.84
		c0-58.5,47.465-105.75,106.055-105.75c58.195,0,106.055,47.168,106.055,105.391c0.141,58.109-47.488,105.387-106.055,105.387
		C120.82,227.84,73.57,180.68,73.57,122.48V122.84z"/>
	<path fill="#DEB887" stroke="#F1A500" stroke-linejoin="bevel" stroke-miterlimit="10" d="M164.742,107.859h30v29.25h-30V107.859z"
		/>
	
		<linearGradient id="SVGID_22_" gradientUnits="userSpaceOnUse" x1="27.4897" y1="60.2847" x2="21.4897" y2="60.2847" gradientTransform="matrix(0.75 0 0 -0.75 148.6245 233.6934)">
		<stop  offset="0" style="stop-color:#292525"/>
		<stop  offset="0.03" style="stop-color:#868584"/>
		<stop  offset="0.08" style="stop-color:#383433"/>
		<stop  offset="0.64" style="stop-color:#373332"/>
		<stop  offset="0.95" style="stop-color:#363130"/>
		<stop  offset="1" style="stop-color:#252221"/>
	</linearGradient>
	<path fill="url(#SVGID_22_)" d="M164.742,107.855h4.5v161.25h-4.5V107.855z"/>
	
		<linearGradient id="SVGID_23_" gradientUnits="userSpaceOnUse" x1="27.4868" y1="60.2876" x2="21.4868" y2="60.2876" gradientTransform="matrix(0.75 0 0 -0.75 173.9858 233.6992)">
		<stop  offset="0" style="stop-color:#292525"/>
		<stop  offset="0.03" style="stop-color:#868584"/>
		<stop  offset="0.08" style="stop-color:#383433"/>
		<stop  offset="0.64" style="stop-color:#373332"/>
		<stop  offset="0.95" style="stop-color:#363130"/>
		<stop  offset="1" style="stop-color:#252221"/>
	</linearGradient>
	<path fill="url(#SVGID_23_)" d="M190.102,107.859h4.5v161.25h-4.5V107.859z"/>
	
		<linearGradient id="SVGID_24_" gradientUnits="userSpaceOnUse" x1="115.4395" y1="360.2207" x2="115.4395" y2="357.2207" gradientTransform="matrix(0.6495 0.375 0.375 -0.6495 -29.8419 309.3025)">
		<stop  offset="0" style="stop-color:#343232"/>
		<stop  offset="0.15" style="stop-color:#555454"/>
		<stop  offset="0.26" style="stop-color:#797777"/>
		<stop  offset="0.41" style="stop-color:#5D5B5B"/>
		<stop  offset="0.6" style="stop-color:#484646"/>
		<stop  offset="0.8" style="stop-color:#383636"/>
		<stop  offset="0.93" style="stop-color:#2C2B2B"/>
		<stop  offset="1" style="stop-color:#535151"/>
	</linearGradient>
	<path fill="url(#SVGID_24_)" d="M167.23,111.121l25.98,15l-1.125,1.949l-25.98-15L167.23,111.121z"/>
	
		<linearGradient id="SVGID_25_" gradientUnits="userSpaceOnUse" x1="115.4399" y1="360.2207" x2="115.4399" y2="357.2207" gradientTransform="matrix(0.6495 0.375 0.375 -0.6495 -29.8419 327.2976)">
		<stop  offset="0" style="stop-color:#343232"/>
		<stop  offset="0.15" style="stop-color:#555454"/>
		<stop  offset="0.26" style="stop-color:#797777"/>
		<stop  offset="0.41" style="stop-color:#5D5B5B"/>
		<stop  offset="0.6" style="stop-color:#484646"/>
		<stop  offset="0.8" style="stop-color:#383636"/>
		<stop  offset="0.93" style="stop-color:#2C2B2B"/>
		<stop  offset="1" style="stop-color:#535151"/>
	</linearGradient>
	<path fill="url(#SVGID_25_)" d="M167.23,129.117l25.98,15l-1.125,1.949l-25.98-15L167.23,129.117z"/>
	
		<linearGradient id="SVGID_26_" gradientUnits="userSpaceOnUse" x1="115.4399" y1="360.2207" x2="115.4399" y2="357.2188" gradientTransform="matrix(0.6495 0.375 0.375 -0.6495 -29.8419 343.1687)">
		<stop  offset="0" style="stop-color:#343232"/>
		<stop  offset="0.15" style="stop-color:#555454"/>
		<stop  offset="0.26" style="stop-color:#797777"/>
		<stop  offset="0.41" style="stop-color:#5D5B5B"/>
		<stop  offset="0.6" style="stop-color:#484646"/>
		<stop  offset="0.8" style="stop-color:#383636"/>
		<stop  offset="0.93" style="stop-color:#2C2B2B"/>
		<stop  offset="1" style="stop-color:#535151"/>
	</linearGradient>
	<path fill="url(#SVGID_26_)" d="M167.23,144.988l25.98,15l-1.125,1.949l-25.98-15L167.23,144.988z"/>
	
		<linearGradient id="SVGID_27_" gradientUnits="userSpaceOnUse" x1="115.4399" y1="360.2207" x2="115.4399" y2="357.2207" gradientTransform="matrix(0.6495 0.375 0.375 -0.6495 -29.8419 361.5163)">
		<stop  offset="0" style="stop-color:#343232"/>
		<stop  offset="0.15" style="stop-color:#555454"/>
		<stop  offset="0.26" style="stop-color:#797777"/>
		<stop  offset="0.41" style="stop-color:#5D5B5B"/>
		<stop  offset="0.6" style="stop-color:#484646"/>
		<stop  offset="0.8" style="stop-color:#383636"/>
		<stop  offset="0.93" style="stop-color:#2C2B2B"/>
		<stop  offset="1" style="stop-color:#535151"/>
	</linearGradient>
	<path fill="url(#SVGID_27_)" d="M167.23,163.336l25.98,15l-1.125,1.949l-25.98-15L167.23,163.336z"/>
	
		<linearGradient id="SVGID_28_" gradientUnits="userSpaceOnUse" x1="115.4399" y1="360.2207" x2="115.4399" y2="357.2207" gradientTransform="matrix(0.6495 0.375 0.375 -0.6495 -29.8419 378.3913)">
		<stop  offset="0" style="stop-color:#343232"/>
		<stop  offset="0.15" style="stop-color:#555454"/>
		<stop  offset="0.26" style="stop-color:#797777"/>
		<stop  offset="0.41" style="stop-color:#5D5B5B"/>
		<stop  offset="0.6" style="stop-color:#484646"/>
		<stop  offset="0.8" style="stop-color:#383636"/>
		<stop  offset="0.93" style="stop-color:#2C2B2B"/>
		<stop  offset="1" style="stop-color:#535151"/>
	</linearGradient>
	<path fill="url(#SVGID_28_)" d="M167.23,180.211l25.98,15l-1.125,1.949l-25.98-15L167.23,180.211z"/>
	
		<linearGradient id="SVGID_29_" gradientUnits="userSpaceOnUse" x1="115.4399" y1="360.2207" x2="115.4399" y2="357.2207" gradientTransform="matrix(0.6495 0.375 0.375 -0.6495 -29.8419 396.3249)">
		<stop  offset="0" style="stop-color:#343232"/>
		<stop  offset="0.15" style="stop-color:#555454"/>
		<stop  offset="0.26" style="stop-color:#797777"/>
		<stop  offset="0.41" style="stop-color:#5D5B5B"/>
		<stop  offset="0.6" style="stop-color:#484646"/>
		<stop  offset="0.8" style="stop-color:#383636"/>
		<stop  offset="0.93" style="stop-color:#2C2B2B"/>
		<stop  offset="1" style="stop-color:#535151"/>
	</linearGradient>
	<path fill="url(#SVGID_29_)" d="M167.23,198.145l25.98,15l-1.125,1.949l-25.98-15L167.23,198.145z"/>
	
		<linearGradient id="SVGID_30_" gradientUnits="userSpaceOnUse" x1="115.439" y1="360.2227" x2="115.439" y2="357.2227" gradientTransform="matrix(0.6495 0.375 0.375 -0.6495 -29.8419 413.7292)">
		<stop  offset="0" style="stop-color:#343232"/>
		<stop  offset="0.15" style="stop-color:#555454"/>
		<stop  offset="0.26" style="stop-color:#797777"/>
		<stop  offset="0.41" style="stop-color:#5D5B5B"/>
		<stop  offset="0.6" style="stop-color:#484646"/>
		<stop  offset="0.8" style="stop-color:#383636"/>
		<stop  offset="0.93" style="stop-color:#2C2B2B"/>
		<stop  offset="1" style="stop-color:#535151"/>
	</linearGradient>
	<path fill="url(#SVGID_30_)" d="M167.23,215.547l25.98,15l-1.125,1.949l-25.98-15L167.23,215.547z"/>
	
		<linearGradient id="SVGID_31_" gradientUnits="userSpaceOnUse" x1="115.4395" y1="360.2207" x2="115.4395" y2="357.2207" gradientTransform="matrix(0.6495 0.375 0.375 -0.6495 -29.8419 431.1335)">
		<stop  offset="0" style="stop-color:#343232"/>
		<stop  offset="0.15" style="stop-color:#555454"/>
		<stop  offset="0.26" style="stop-color:#797777"/>
		<stop  offset="0.41" style="stop-color:#5D5B5B"/>
		<stop  offset="0.6" style="stop-color:#484646"/>
		<stop  offset="0.8" style="stop-color:#383636"/>
		<stop  offset="0.93" style="stop-color:#2C2B2B"/>
		<stop  offset="1" style="stop-color:#535151"/>
	</linearGradient>
	<path fill="url(#SVGID_31_)" d="M167.23,232.953l25.98,15l-1.125,1.949l-25.98-15L167.23,232.953z"/>
	
		<linearGradient id="SVGID_32_" gradientUnits="userSpaceOnUse" x1="-442.4775" y1="38.1079" x2="-442.4775" y2="35.1069" gradientTransform="matrix(-0.6495 0.375 -0.375 -0.6495 -94.0781 309.3034)">
		<stop  offset="0" style="stop-color:#343232"/>
		<stop  offset="0.15" style="stop-color:#555454"/>
		<stop  offset="0.26" style="stop-color:#797777"/>
		<stop  offset="0.41" style="stop-color:#5D5B5B"/>
		<stop  offset="0.6" style="stop-color:#484646"/>
		<stop  offset="0.8" style="stop-color:#383636"/>
		<stop  offset="0.93" style="stop-color:#2C2B2B"/>
		<stop  offset="1" style="stop-color:#535151"/>
	</linearGradient>
	<path fill="url(#SVGID_32_)" d="M192.02,111.121l-25.98,15l1.125,1.949l25.98-15L192.02,111.121z"/>
	
		<linearGradient id="SVGID_33_" gradientUnits="userSpaceOnUse" x1="-442.4775" y1="38.1079" x2="-442.4775" y2="35.1069" gradientTransform="matrix(-0.6495 0.375 -0.375 -0.6495 -94.0781 327.2986)">
		<stop  offset="0" style="stop-color:#343232"/>
		<stop  offset="0.15" style="stop-color:#555454"/>
		<stop  offset="0.26" style="stop-color:#797777"/>
		<stop  offset="0.41" style="stop-color:#5D5B5B"/>
		<stop  offset="0.6" style="stop-color:#484646"/>
		<stop  offset="0.8" style="stop-color:#383636"/>
		<stop  offset="0.93" style="stop-color:#2C2B2B"/>
		<stop  offset="1" style="stop-color:#535151"/>
	</linearGradient>
	<path fill="url(#SVGID_33_)" d="M192.02,129.117l-25.98,15l1.125,1.949l25.98-15L192.02,129.117z"/>
	
		<linearGradient id="SVGID_34_" gradientUnits="userSpaceOnUse" x1="-442.4766" y1="38.1069" x2="-442.4766" y2="35.106" gradientTransform="matrix(-0.6495 0.375 -0.375 -0.6495 -94.0781 343.1687)">
		<stop  offset="0" style="stop-color:#343232"/>
		<stop  offset="0.15" style="stop-color:#555454"/>
		<stop  offset="0.26" style="stop-color:#797777"/>
		<stop  offset="0.41" style="stop-color:#5D5B5B"/>
		<stop  offset="0.6" style="stop-color:#484646"/>
		<stop  offset="0.8" style="stop-color:#383636"/>
		<stop  offset="0.93" style="stop-color:#2C2B2B"/>
		<stop  offset="1" style="stop-color:#535151"/>
	</linearGradient>
	<path fill="url(#SVGID_34_)" d="M192.02,144.988l-25.98,15l1.125,1.949l25.98-15L192.02,144.988z"/>
	
		<linearGradient id="SVGID_35_" gradientUnits="userSpaceOnUse" x1="-442.4766" y1="38.1069" x2="-442.4766" y2="35.106" gradientTransform="matrix(-0.6495 0.375 -0.375 -0.6495 -94.0781 361.5163)">
		<stop  offset="0" style="stop-color:#343232"/>
		<stop  offset="0.15" style="stop-color:#555454"/>
		<stop  offset="0.26" style="stop-color:#797777"/>
		<stop  offset="0.41" style="stop-color:#5D5B5B"/>
		<stop  offset="0.6" style="stop-color:#484646"/>
		<stop  offset="0.8" style="stop-color:#383636"/>
		<stop  offset="0.93" style="stop-color:#2C2B2B"/>
		<stop  offset="1" style="stop-color:#535151"/>
	</linearGradient>
	<path fill="url(#SVGID_35_)" d="M192.02,163.336l-25.98,15l1.125,1.949l25.98-15L192.02,163.336z"/>
	
		<linearGradient id="SVGID_36_" gradientUnits="userSpaceOnUse" x1="-442.4766" y1="38.1079" x2="-442.4766" y2="35.1069" gradientTransform="matrix(-0.6495 0.375 -0.375 -0.6495 -94.0781 378.3913)">
		<stop  offset="0" style="stop-color:#343232"/>
		<stop  offset="0.15" style="stop-color:#555454"/>
		<stop  offset="0.26" style="stop-color:#797777"/>
		<stop  offset="0.41" style="stop-color:#5D5B5B"/>
		<stop  offset="0.6" style="stop-color:#484646"/>
		<stop  offset="0.8" style="stop-color:#383636"/>
		<stop  offset="0.93" style="stop-color:#2C2B2B"/>
		<stop  offset="1" style="stop-color:#535151"/>
	</linearGradient>
	<path fill="url(#SVGID_36_)" d="M192.02,180.211l-25.98,15l1.125,1.949l25.98-15L192.02,180.211z"/>
	
		<linearGradient id="SVGID_37_" gradientUnits="userSpaceOnUse" x1="-442.4766" y1="38.1069" x2="-442.4766" y2="35.106" gradientTransform="matrix(-0.6495 0.375 -0.375 -0.6495 -94.0781 396.3249)">
		<stop  offset="0" style="stop-color:#343232"/>
		<stop  offset="0.15" style="stop-color:#555454"/>
		<stop  offset="0.26" style="stop-color:#797777"/>
		<stop  offset="0.41" style="stop-color:#5D5B5B"/>
		<stop  offset="0.6" style="stop-color:#484646"/>
		<stop  offset="0.8" style="stop-color:#383636"/>
		<stop  offset="0.93" style="stop-color:#2C2B2B"/>
		<stop  offset="1" style="stop-color:#535151"/>
	</linearGradient>
	<path fill="url(#SVGID_37_)" d="M192.02,198.145l-25.98,15l1.125,1.949l25.98-15L192.02,198.145z"/>
	
		<linearGradient id="SVGID_38_" gradientUnits="userSpaceOnUse" x1="-442.4775" y1="38.1099" x2="-442.4775" y2="35.1089" gradientTransform="matrix(-0.6495 0.375 -0.375 -0.6495 -94.0781 413.7292)">
		<stop  offset="0" style="stop-color:#343232"/>
		<stop  offset="0.15" style="stop-color:#555454"/>
		<stop  offset="0.26" style="stop-color:#797777"/>
		<stop  offset="0.41" style="stop-color:#5D5B5B"/>
		<stop  offset="0.6" style="stop-color:#484646"/>
		<stop  offset="0.8" style="stop-color:#383636"/>
		<stop  offset="0.93" style="stop-color:#2C2B2B"/>
		<stop  offset="1" style="stop-color:#535151"/>
	</linearGradient>
	<path fill="url(#SVGID_38_)" d="M192.02,215.547l-25.98,15l1.125,1.949l25.98-15L192.02,215.547z"/>
	
		<linearGradient id="SVGID_39_" gradientUnits="userSpaceOnUse" x1="-442.4771" y1="38.1069" x2="-442.4771" y2="35.106" gradientTransform="matrix(-0.6495 0.375 -0.375 -0.6495 -94.0781 431.1335)">
		<stop  offset="0" style="stop-color:#343232"/>
		<stop  offset="0.15" style="stop-color:#555454"/>
		<stop  offset="0.26" style="stop-color:#797777"/>
		<stop  offset="0.41" style="stop-color:#5D5B5B"/>
		<stop  offset="0.6" style="stop-color:#484646"/>
		<stop  offset="0.8" style="stop-color:#383636"/>
		<stop  offset="0.93" style="stop-color:#2C2B2B"/>
		<stop  offset="1" style="stop-color:#535151"/>
	</linearGradient>
	<path fill="url(#SVGID_39_)" d="M192.02,232.953l-25.98,15l1.125,1.949l25.98-15L192.02,232.953z"/>
	
		<linearGradient id="SVGID_40_" gradientUnits="userSpaceOnUse" x1="41.4893" y1="167.7842" x2="41.4893" y2="161.7842" gradientTransform="matrix(0.75 0 0 -0.75 148.625 233.6934)">
		<stop  offset="0" style="stop-color:#343232"/>
		<stop  offset="0.15" style="stop-color:#555454"/>
		<stop  offset="0.26" style="stop-color:#797777"/>
		<stop  offset="0.41" style="stop-color:#5D5B5B"/>
		<stop  offset="0.6" style="stop-color:#484646"/>
		<stop  offset="0.8" style="stop-color:#383636"/>
		<stop  offset="0.93" style="stop-color:#2C2B2B"/>
		<stop  offset="1" style="stop-color:#535151"/>
	</linearGradient>
	<path fill="url(#SVGID_40_)" d="M164.742,107.855h30v4.5h-30V107.855z"/>
	
		<linearGradient id="SVGID_41_" gradientUnits="userSpaceOnUse" x1="41.4893" y1="167.7832" x2="41.4893" y2="161.7832" gradientTransform="matrix(0.75 0 0 -0.75 148.625 251.2559)">
		<stop  offset="0" style="stop-color:#343232"/>
		<stop  offset="0.15" style="stop-color:#555454"/>
		<stop  offset="0.26" style="stop-color:#797777"/>
		<stop  offset="0.41" style="stop-color:#5D5B5B"/>
		<stop  offset="0.6" style="stop-color:#484646"/>
		<stop  offset="0.8" style="stop-color:#383636"/>
		<stop  offset="0.93" style="stop-color:#2C2B2B"/>
		<stop  offset="1" style="stop-color:#535151"/>
	</linearGradient>
	<path fill="url(#SVGID_41_)" d="M164.742,125.418h30v4.5h-30V125.418z"/>
	
		<linearGradient id="SVGID_42_" gradientUnits="userSpaceOnUse" x1="41.4893" y1="167.7852" x2="41.4893" y2="161.7852" gradientTransform="matrix(0.75 0 0 -0.75 148.625 268.8184)">
		<stop  offset="0" style="stop-color:#343232"/>
		<stop  offset="0.15" style="stop-color:#555454"/>
		<stop  offset="0.26" style="stop-color:#797777"/>
		<stop  offset="0.41" style="stop-color:#5D5B5B"/>
		<stop  offset="0.6" style="stop-color:#484646"/>
		<stop  offset="0.8" style="stop-color:#383636"/>
		<stop  offset="0.93" style="stop-color:#2C2B2B"/>
		<stop  offset="1" style="stop-color:#535151"/>
	</linearGradient>
	<path fill="url(#SVGID_42_)" d="M164.742,142.98h30v4.5h-30V142.98z"/>
	
		<linearGradient id="SVGID_43_" gradientUnits="userSpaceOnUse" x1="41.4893" y1="167.7891" x2="41.4893" y2="161.7891" gradientTransform="matrix(0.75 0 0 -0.75 148.625 286.3809)">
		<stop  offset="0" style="stop-color:#343232"/>
		<stop  offset="0.15" style="stop-color:#555454"/>
		<stop  offset="0.26" style="stop-color:#797777"/>
		<stop  offset="0.41" style="stop-color:#5D5B5B"/>
		<stop  offset="0.6" style="stop-color:#484646"/>
		<stop  offset="0.8" style="stop-color:#383636"/>
		<stop  offset="0.93" style="stop-color:#2C2B2B"/>
		<stop  offset="1" style="stop-color:#535151"/>
	</linearGradient>
	<path fill="url(#SVGID_43_)" d="M164.742,160.539h30v4.5h-30V160.539z"/>
	
		<linearGradient id="SVGID_44_" gradientUnits="userSpaceOnUse" x1="41.4893" y1="167.7891" x2="41.4893" y2="161.7891" gradientTransform="matrix(0.75 0 0 -0.75 148.625 303.9434)">
		<stop  offset="0" style="stop-color:#343232"/>
		<stop  offset="0.15" style="stop-color:#555454"/>
		<stop  offset="0.26" style="stop-color:#797777"/>
		<stop  offset="0.41" style="stop-color:#5D5B5B"/>
		<stop  offset="0.6" style="stop-color:#484646"/>
		<stop  offset="0.8" style="stop-color:#383636"/>
		<stop  offset="0.93" style="stop-color:#2C2B2B"/>
		<stop  offset="1" style="stop-color:#535151"/>
	</linearGradient>
	<path fill="url(#SVGID_44_)" d="M164.742,178.102h30v4.5h-30V178.102z"/>
	
		<linearGradient id="SVGID_45_" gradientUnits="userSpaceOnUse" x1="41.4893" y1="167.79" x2="41.4893" y2="161.79" gradientTransform="matrix(0.75 0 0 -0.75 148.625 321.5059)">
		<stop  offset="0" style="stop-color:#343232"/>
		<stop  offset="0.15" style="stop-color:#555454"/>
		<stop  offset="0.26" style="stop-color:#797777"/>
		<stop  offset="0.41" style="stop-color:#5D5B5B"/>
		<stop  offset="0.6" style="stop-color:#484646"/>
		<stop  offset="0.8" style="stop-color:#383636"/>
		<stop  offset="0.93" style="stop-color:#2C2B2B"/>
		<stop  offset="1" style="stop-color:#535151"/>
	</linearGradient>
	<path fill="url(#SVGID_45_)" d="M164.742,195.664h30v4.5h-30V195.664z"/>
	
		<linearGradient id="SVGID_46_" gradientUnits="userSpaceOnUse" x1="41.4893" y1="167.7891" x2="41.4893" y2="161.7891" gradientTransform="matrix(0.75 0 0 -0.75 148.625 339.0684)">
		<stop  offset="0" style="stop-color:#343232"/>
		<stop  offset="0.15" style="stop-color:#555454"/>
		<stop  offset="0.26" style="stop-color:#797777"/>
		<stop  offset="0.41" style="stop-color:#5D5B5B"/>
		<stop  offset="0.6" style="stop-color:#484646"/>
		<stop  offset="0.8" style="stop-color:#383636"/>
		<stop  offset="0.93" style="stop-color:#2C2B2B"/>
		<stop  offset="1" style="stop-color:#535151"/>
	</linearGradient>
	<path fill="url(#SVGID_46_)" d="M164.742,213.227h30v4.5h-30V213.227z"/>
	
		<linearGradient id="SVGID_47_" gradientUnits="userSpaceOnUse" x1="41.4893" y1="167.7891" x2="41.4893" y2="161.7891" gradientTransform="matrix(0.75 0 0 -0.75 148.625 356.6299)">
		<stop  offset="0" style="stop-color:#343232"/>
		<stop  offset="0.15" style="stop-color:#555454"/>
		<stop  offset="0.26" style="stop-color:#797777"/>
		<stop  offset="0.41" style="stop-color:#5D5B5B"/>
		<stop  offset="0.6" style="stop-color:#484646"/>
		<stop  offset="0.8" style="stop-color:#383636"/>
		<stop  offset="0.93" style="stop-color:#2C2B2B"/>
		<stop  offset="1" style="stop-color:#535151"/>
	</linearGradient>
	<path fill="url(#SVGID_47_)" d="M164.742,230.789h30v4.5h-30V230.789z"/>
</g>
</svg>
