<?xml version="1.0" encoding="utf-8"?>
<!-- Generator: Adobe Illustrator 16.0.0, SVG Export Plug-In . SVG Version: 6.00 Build 0)  -->
<!DOCTYPE svg PUBLIC "-//W3C//DTD SVG 1.1//EN" "http://www.w3.org/Graphics/SVG/1.1/DTD/svg11.dtd">
<svg preserveAspectRatio="none" version="1.1" id="图层_1" xmlns="http://www.w3.org/2000/svg" xmlns:xlink="http://www.w3.org/1999/xlink" x="0px" y="0px"
	 width="220.5px" height="322.5px" viewBox="30 30 220.5 322.5" enable-background="new 30 30 220.5 322.5" xml:space="preserve">
<g id="surface1">
	
		<linearGradient id="SVGID_1_" gradientUnits="userSpaceOnUse" x1="328.6123" y1="112.9131" x2="34.6123" y2="112.9131" gradientTransform="matrix(0.75 0 0 -0.75 4.04 275.9336)">
		<stop  offset="0" style="stop-color:#A8A8A8"/>
		<stop  offset="0.03" style="stop-color:#F2F2F2"/>
		<stop  offset="0.08" style="stop-color:#DBDBDB"/>
		<stop  offset="0.64" style="stop-color:#D8D8D8"/>
		<stop  offset="0.95" style="stop-color:#D3D3D3"/>
		<stop  offset="1" style="stop-color:#9C9C9C"/>
	</linearGradient>
	<path fill="url(#SVGID_1_)" d="M30,30h220.5v322.5H30V30z"/>
	
		<linearGradient id="SVGID_2_" gradientUnits="userSpaceOnUse" x1="143.1143" y1="327.9121" x2="143.1143" y2="291.9121" gradientTransform="matrix(0.75 0 0 -0.75 32.875 545.9609)">
		<stop  offset="0" style="stop-color:#221F1F"/>
		<stop  offset="0.15" style="stop-color:#3B3736"/>
		<stop  offset="0.26" style="stop-color:#6A6767"/>
		<stop  offset="0.41" style="stop-color:#44403F"/>
		<stop  offset="0.6" style="stop-color:#312D2C"/>
		<stop  offset="0.8" style="stop-color:#252221"/>
		<stop  offset="0.93" style="stop-color:#1D1A19"/>
		<stop  offset="1" style="stop-color:#3A3534"/>
	</linearGradient>
	<path fill="url(#SVGID_2_)" d="M58.836,300.027h162.75v27H58.836V300.027z"/>
	
		<linearGradient id="SVGID_3_" gradientUnits="userSpaceOnUse" x1="43.2441" y1="327.9121" x2="43.2441" y2="282.9121" gradientTransform="matrix(0.75 0 0 -0.75 26.5317 542.8398)">
		<stop  offset="0" style="stop-color:#343232"/>
		<stop  offset="0.15" style="stop-color:#555454"/>
		<stop  offset="0.26" style="stop-color:#797777"/>
		<stop  offset="0.41" style="stop-color:#5D5B5B"/>
		<stop  offset="0.6" style="stop-color:#484646"/>
		<stop  offset="0.8" style="stop-color:#383636"/>
		<stop  offset="0.93" style="stop-color:#2C2B2B"/>
		<stop  offset="1" style="stop-color:#535151"/>
	</linearGradient>
	<path fill="url(#SVGID_3_)" d="M53.992,296.906h9.75c0.75,0,1.695,0.602,1.695,1.344l-0.195,30.906c0,0.75-0.406,1.246-1.145,1.246
		l-10.105,0.254c-0.75,0-1.5-0.855-1.5-1.598v-30.652c0-0.75,0.59-1.5,1.328-1.5H53.992z"/>
	
		<linearGradient id="SVGID_4_" gradientUnits="userSpaceOnUse" x1="43.2437" y1="327.9121" x2="43.2436" y2="282.9121" gradientTransform="matrix(0.75 0 0 -0.75 189.0518 542.8398)">
		<stop  offset="0" style="stop-color:#343232"/>
		<stop  offset="0.15" style="stop-color:#555454"/>
		<stop  offset="0.26" style="stop-color:#797777"/>
		<stop  offset="0.41" style="stop-color:#5D5B5B"/>
		<stop  offset="0.6" style="stop-color:#484646"/>
		<stop  offset="0.8" style="stop-color:#383636"/>
		<stop  offset="0.93" style="stop-color:#2C2B2B"/>
		<stop  offset="1" style="stop-color:#535151"/>
	</linearGradient>
	<path fill="url(#SVGID_4_)" d="M216.512,296.906h9.75c0.75,0,1.695,0.602,1.695,1.344l-0.195,30.906
		c0,0.75-0.406,1.246-1.145,1.246l-10.105,0.254c-0.75,0-1.5-0.855-1.5-1.598v-30.652c0-0.75,0.59-1.5,1.328-1.5H216.512z"/>
	
		<linearGradient id="SVGID_5_" gradientUnits="userSpaceOnUse" x1="-329.2114" y1="66.0122" x2="-329.2114" y2="96.0122" gradientTransform="matrix(0 -0.75 -0.75 0 146.3047 -70.9238)">
		<stop  offset="0" style="stop-color:#221F1F"/>
		<stop  offset="0.15" style="stop-color:#3B3736"/>
		<stop  offset="0.26" style="stop-color:#6A6767"/>
		<stop  offset="0.41" style="stop-color:#44403F"/>
		<stop  offset="0.6" style="stop-color:#312D2C"/>
		<stop  offset="0.8" style="stop-color:#252221"/>
		<stop  offset="0.93" style="stop-color:#1D1A19"/>
		<stop  offset="1" style="stop-color:#3A3534"/>
	</linearGradient>
	<path fill="url(#SVGID_5_)" d="M74.297,291.109V60.859h22.5v230.25H74.297z"/>
	
		<linearGradient id="SVGID_6_" gradientUnits="userSpaceOnUse" x1="-474.2134" y1="59.8052" x2="-474.2134" y2="96.0142" gradientTransform="matrix(0 -0.75 -0.75 0 143.7637 -62.2344)">
		<stop  offset="0" style="stop-color:#343232"/>
		<stop  offset="0.15" style="stop-color:#555454"/>
		<stop  offset="0.26" style="stop-color:#797777"/>
		<stop  offset="0.41" style="stop-color:#5D5B5B"/>
		<stop  offset="0.6" style="stop-color:#484646"/>
		<stop  offset="0.8" style="stop-color:#383636"/>
		<stop  offset="0.93" style="stop-color:#2C2B2B"/>
		<stop  offset="1" style="stop-color:#535151"/>
	</linearGradient>
	<path fill="url(#SVGID_6_)" d="M71.754,298.301v-9.75c0-0.75,0.488-1.234,1.09-1.234l25.16-0.266c0.75,0,0.906,0.844,0.906,1.555
		l-0.156,9.695c0,0.75-0.332,1.5-0.934,1.5H72.504c0,0-0.75-0.566-0.75-1.281V298.301z"/>
	
		<linearGradient id="SVGID_7_" gradientUnits="userSpaceOnUse" x1="-329.2114" y1="66.0142" x2="-329.2114" y2="96.0142" gradientTransform="matrix(0 -0.75 -0.75 0 255.7754 -70.9238)">
		<stop  offset="0" style="stop-color:#221F1F"/>
		<stop  offset="0.15" style="stop-color:#3B3736"/>
		<stop  offset="0.26" style="stop-color:#6A6767"/>
		<stop  offset="0.41" style="stop-color:#44403F"/>
		<stop  offset="0.6" style="stop-color:#312D2C"/>
		<stop  offset="0.8" style="stop-color:#252221"/>
		<stop  offset="0.93" style="stop-color:#1D1A19"/>
		<stop  offset="1" style="stop-color:#3A3534"/>
	</linearGradient>
	<path fill="url(#SVGID_7_)" d="M183.766,291.109V60.859h22.5v230.25H183.766z"/>
	
		<linearGradient id="SVGID_8_" gradientUnits="userSpaceOnUse" x1="-474.2114" y1="59.8062" x2="-474.2114" y2="96.0142" gradientTransform="matrix(0 -0.75 -0.75 0 253.2324 -62.2334)">
		<stop  offset="0" style="stop-color:#343232"/>
		<stop  offset="0.15" style="stop-color:#555454"/>
		<stop  offset="0.26" style="stop-color:#797777"/>
		<stop  offset="0.41" style="stop-color:#5D5B5B"/>
		<stop  offset="0.6" style="stop-color:#484646"/>
		<stop  offset="0.8" style="stop-color:#383636"/>
		<stop  offset="0.93" style="stop-color:#2C2B2B"/>
		<stop  offset="1" style="stop-color:#535151"/>
	</linearGradient>
	<path fill="url(#SVGID_8_)" d="M181.223,298.301v-9.75c0-0.75,0.488-1.234,1.09-1.234l25.16-0.266c0.75,0,0.906,0.844,0.906,1.555
		l-0.156,9.695c0,0.75-0.328,1.5-0.93,1.5h-25.32c0,0-0.75-0.566-0.75-1.277V298.301z"/>
	
		<linearGradient id="SVGID_9_" gradientUnits="userSpaceOnUse" x1="-474.2114" y1="59.8052" x2="-474.2114" y2="96.0142" gradientTransform="matrix(0 -0.75 -0.75 0 143.7637 -297.7285)">
		<stop  offset="0" style="stop-color:#343232"/>
		<stop  offset="0.15" style="stop-color:#555454"/>
		<stop  offset="0.26" style="stop-color:#797777"/>
		<stop  offset="0.41" style="stop-color:#5D5B5B"/>
		<stop  offset="0.6" style="stop-color:#484646"/>
		<stop  offset="0.8" style="stop-color:#383636"/>
		<stop  offset="0.93" style="stop-color:#2C2B2B"/>
		<stop  offset="1" style="stop-color:#535151"/>
	</linearGradient>
	<path fill="url(#SVGID_9_)" d="M71.754,62.805v-9.75c0-0.75,0.488-1.184,1.09-1.184l25.16-0.316c0.75,0,0.906,0.891,0.906,1.602
		l-0.156,9.648c0,0.75-0.332,1.5-0.934,1.5H72.504c0,0-0.75-0.563-0.75-1.273V62.805z"/>
	
		<linearGradient id="SVGID_10_" gradientUnits="userSpaceOnUse" x1="-474.2114" y1="59.8062" x2="-474.2114" y2="96.0142" gradientTransform="matrix(0 -0.75 -0.75 0 253.2324 -297.7285)">
		<stop  offset="0" style="stop-color:#343232"/>
		<stop  offset="0.15" style="stop-color:#555454"/>
		<stop  offset="0.26" style="stop-color:#797777"/>
		<stop  offset="0.41" style="stop-color:#5D5B5B"/>
		<stop  offset="0.6" style="stop-color:#484646"/>
		<stop  offset="0.8" style="stop-color:#383636"/>
		<stop  offset="0.93" style="stop-color:#2C2B2B"/>
		<stop  offset="1" style="stop-color:#535151"/>
	</linearGradient>
	<path fill="url(#SVGID_10_)" d="M181.223,62.805v-9.75c0-0.75,0.488-1.184,1.09-1.184l25.16-0.316c0.75,0,0.906,0.891,0.906,1.602
		l-0.156,9.648c0,0.75-0.328,1.5-0.93,1.5h-25.32c0,0-0.75-0.563-0.75-1.273V62.805z"/>
	
		<linearGradient id="SVGID_11_" gradientUnits="userSpaceOnUse" x1="53.1182" y1="327.915" x2="53.1182" y2="290.6963" gradientTransform="matrix(0.75 0 0 -0.75 100.4175 545.6504)">
		<stop  offset="0" style="stop-color:#878788"/>
		<stop  offset="0.15" style="stop-color:#D4D4D5"/>
		<stop  offset="0.26" style="stop-color:#E0E0E1"/>
		<stop  offset="0.41" style="stop-color:#DCDCDD"/>
		<stop  offset="0.6" style="stop-color:#B4B4B5"/>
		<stop  offset="0.8" style="stop-color:#909091"/>
		<stop  offset="0.93" style="stop-color:#757576"/>
		<stop  offset="1" style="stop-color:#CFCFD0"/>
	</linearGradient>
	<path fill="url(#SVGID_11_)" d="M126.379,313.965c0-8.25,6.207-14.25,13.879-14.25c7.871,0,13.875,6.25,13.875,13.957
		c-0.004,7.793-6.219,13.957-13.875,13.957c-7.879-0.164-13.879-6.25-13.879-13.957V313.965z"/>
	
		<linearGradient id="SVGID_12_" gradientUnits="userSpaceOnUse" x1="79.6152" y1="323.9248" x2="34.6152" y2="323.9248" gradientTransform="matrix(0.75 0 0 -0.75 42.6865 351.1104)">
		<stop  offset="0" style="stop-color:#343232"/>
		<stop  offset="0.15" style="stop-color:#555454"/>
		<stop  offset="0.26" style="stop-color:#797777"/>
		<stop  offset="0.41" style="stop-color:#5D5B5B"/>
		<stop  offset="0.6" style="stop-color:#484646"/>
		<stop  offset="0.8" style="stop-color:#383636"/>
		<stop  offset="0.93" style="stop-color:#2C2B2B"/>
		<stop  offset="1" style="stop-color:#535151"/>
	</linearGradient>
	<path fill="url(#SVGID_12_)" d="M70.148,105.176h30.75c0.75,0,1.145,0.586,1.145,1.328l0.355,3.172c0,0.75-0.973,1.43-1.711,1.43
		l-30.539,0.07c-0.75,0-1.5-0.672-1.5-1.414v-3.086c0-0.75,0.563-1.516,1.301-1.516L70.148,105.176z"/>
	
		<linearGradient id="SVGID_13_" gradientUnits="userSpaceOnUse" x1="79.6152" y1="323.9238" x2="34.6152" y2="323.9238" gradientTransform="matrix(0.75 0 0 -0.75 42.6865 357.3125)">
		<stop  offset="0" style="stop-color:#343232"/>
		<stop  offset="0.15" style="stop-color:#555454"/>
		<stop  offset="0.26" style="stop-color:#797777"/>
		<stop  offset="0.41" style="stop-color:#5D5B5B"/>
		<stop  offset="0.6" style="stop-color:#484646"/>
		<stop  offset="0.8" style="stop-color:#383636"/>
		<stop  offset="0.93" style="stop-color:#2C2B2B"/>
		<stop  offset="1" style="stop-color:#535151"/>
	</linearGradient>
	<path fill="url(#SVGID_13_)" d="M70.148,111.379h30.75c0.75,0,1.145,0.586,1.145,1.328l0.355,3.172c0,0.75-0.973,1.43-1.711,1.43
		l-30.539,0.07c-0.75,0-1.5-0.672-1.5-1.414v-3.086c0-0.75,0.563-1.516,1.301-1.516L70.148,111.379z"/>
	
		<linearGradient id="SVGID_14_" gradientUnits="userSpaceOnUse" x1="79.6152" y1="323.9229" x2="34.6152" y2="323.9229" gradientTransform="matrix(0.75 0 0 -0.75 42.6865 387.293)">
		<stop  offset="0" style="stop-color:#343232"/>
		<stop  offset="0.15" style="stop-color:#555454"/>
		<stop  offset="0.26" style="stop-color:#797777"/>
		<stop  offset="0.41" style="stop-color:#5D5B5B"/>
		<stop  offset="0.6" style="stop-color:#484646"/>
		<stop  offset="0.8" style="stop-color:#383636"/>
		<stop  offset="0.93" style="stop-color:#2C2B2B"/>
		<stop  offset="1" style="stop-color:#535151"/>
	</linearGradient>
	<path fill="url(#SVGID_14_)" d="M70.148,141.359h30.75c0.75,0,1.145,0.586,1.145,1.328l0.355,3.172c0,0.75-0.973,1.43-1.711,1.43
		l-30.539,0.07c-0.75,0-1.5-0.672-1.5-1.414v-3.086c0-0.75,0.563-1.516,1.301-1.516L70.148,141.359z"/>
	
		<linearGradient id="SVGID_15_" gradientUnits="userSpaceOnUse" x1="79.6152" y1="323.9229" x2="34.6152" y2="323.9229" gradientTransform="matrix(0.75 0 0 -0.75 42.6865 393.4961)">
		<stop  offset="0" style="stop-color:#343232"/>
		<stop  offset="0.15" style="stop-color:#555454"/>
		<stop  offset="0.26" style="stop-color:#797777"/>
		<stop  offset="0.41" style="stop-color:#5D5B5B"/>
		<stop  offset="0.6" style="stop-color:#484646"/>
		<stop  offset="0.8" style="stop-color:#383636"/>
		<stop  offset="0.93" style="stop-color:#2C2B2B"/>
		<stop  offset="1" style="stop-color:#535151"/>
	</linearGradient>
	<path fill="url(#SVGID_15_)" d="M70.148,147.563h30.75c0.75,0,1.145,0.586,1.145,1.328l0.355,3.172c0,0.75-0.973,1.43-1.711,1.43
		l-30.539,0.07c-0.75,0-1.5-0.672-1.5-1.414v-3.086c0-0.75,0.563-1.516,1.301-1.516L70.148,147.563z"/>
	
		<linearGradient id="SVGID_16_" gradientUnits="userSpaceOnUse" x1="79.6113" y1="323.9248" x2="34.6113" y2="323.9248" gradientTransform="matrix(0.75 0 0 -0.75 42.7056 445.0488)">
		<stop  offset="0" style="stop-color:#343232"/>
		<stop  offset="0.15" style="stop-color:#555454"/>
		<stop  offset="0.26" style="stop-color:#797777"/>
		<stop  offset="0.41" style="stop-color:#5D5B5B"/>
		<stop  offset="0.6" style="stop-color:#484646"/>
		<stop  offset="0.8" style="stop-color:#383636"/>
		<stop  offset="0.93" style="stop-color:#2C2B2B"/>
		<stop  offset="1" style="stop-color:#535151"/>
	</linearGradient>
	<path fill="url(#SVGID_16_)" d="M70.164,199.113h30.75c0.75,0,1.148,0.586,1.148,1.328l0.352,3.172c0,0.75-0.969,1.43-1.707,1.43
		l-30.543,0.07c-0.75,0-1.5-0.672-1.5-1.414v-3.086c0-0.75,0.566-1.516,1.305-1.516L70.164,199.113z"/>
	
		<linearGradient id="SVGID_17_" gradientUnits="userSpaceOnUse" x1="79.6113" y1="323.9258" x2="34.6113" y2="323.9258" gradientTransform="matrix(0.75 0 0 -0.75 42.7056 451.252)">
		<stop  offset="0" style="stop-color:#343232"/>
		<stop  offset="0.15" style="stop-color:#555454"/>
		<stop  offset="0.26" style="stop-color:#797777"/>
		<stop  offset="0.41" style="stop-color:#5D5B5B"/>
		<stop  offset="0.6" style="stop-color:#484646"/>
		<stop  offset="0.8" style="stop-color:#383636"/>
		<stop  offset="0.93" style="stop-color:#2C2B2B"/>
		<stop  offset="1" style="stop-color:#535151"/>
	</linearGradient>
	<path fill="url(#SVGID_17_)" d="M70.164,205.316h30.75c0.75,0,1.148,0.586,1.148,1.328l0.352,3.172c0,0.75-0.969,1.43-1.707,1.43
		l-30.543,0.07c-0.75,0-1.5-0.672-1.5-1.414v-3.086c0-0.75,0.566-1.516,1.305-1.516L70.164,205.316z"/>
	
		<linearGradient id="SVGID_18_" gradientUnits="userSpaceOnUse" x1="79.6113" y1="323.9248" x2="34.6113" y2="323.9248" gradientTransform="matrix(0.75 0 0 -0.75 42.7056 481.2314)">
		<stop  offset="0" style="stop-color:#343232"/>
		<stop  offset="0.15" style="stop-color:#555454"/>
		<stop  offset="0.26" style="stop-color:#797777"/>
		<stop  offset="0.41" style="stop-color:#5D5B5B"/>
		<stop  offset="0.6" style="stop-color:#484646"/>
		<stop  offset="0.8" style="stop-color:#383636"/>
		<stop  offset="0.93" style="stop-color:#2C2B2B"/>
		<stop  offset="1" style="stop-color:#535151"/>
	</linearGradient>
	<path fill="url(#SVGID_18_)" d="M70.164,235.297h30.75c0.75,0,1.148,0.586,1.148,1.328l0.352,3.172c0,0.75-0.969,1.43-1.707,1.43
		l-30.543,0.07c-0.75,0-1.5-0.672-1.5-1.414v-3.086c0-0.75,0.566-1.516,1.305-1.516L70.164,235.297z"/>
	
		<linearGradient id="SVGID_19_" gradientUnits="userSpaceOnUse" x1="79.6113" y1="323.9229" x2="34.6113" y2="323.9229" gradientTransform="matrix(0.75 0 0 -0.75 42.7056 487.4336)">
		<stop  offset="0" style="stop-color:#343232"/>
		<stop  offset="0.15" style="stop-color:#555454"/>
		<stop  offset="0.26" style="stop-color:#797777"/>
		<stop  offset="0.41" style="stop-color:#5D5B5B"/>
		<stop  offset="0.6" style="stop-color:#484646"/>
		<stop  offset="0.8" style="stop-color:#383636"/>
		<stop  offset="0.93" style="stop-color:#2C2B2B"/>
		<stop  offset="1" style="stop-color:#535151"/>
	</linearGradient>
	<path fill="url(#SVGID_19_)" d="M70.164,241.5h30.75c0.75,0,1.148,0.586,1.148,1.328l0.352,3.172c0,0.75-0.969,1.43-1.707,1.43
		l-30.543,0.07c-0.75,0-1.5-0.672-1.5-1.414V243c0-0.75,0.566-1.516,1.305-1.516L70.164,241.5z"/>
	
		<linearGradient id="SVGID_20_" gradientUnits="userSpaceOnUse" x1="79.6128" y1="323.9248" x2="34.6128" y2="323.9248" gradientTransform="matrix(0.75 0 0 -0.75 152.1768 351.1104)">
		<stop  offset="0" style="stop-color:#343232"/>
		<stop  offset="0.15" style="stop-color:#555454"/>
		<stop  offset="0.26" style="stop-color:#797777"/>
		<stop  offset="0.41" style="stop-color:#5D5B5B"/>
		<stop  offset="0.6" style="stop-color:#484646"/>
		<stop  offset="0.8" style="stop-color:#383636"/>
		<stop  offset="0.93" style="stop-color:#2C2B2B"/>
		<stop  offset="1" style="stop-color:#535151"/>
	</linearGradient>
	<path fill="url(#SVGID_20_)" d="M179.637,105.176h30.75c0.75,0,1.145,0.586,1.145,1.328l0.355,3.172c0,0.75-0.969,1.43-1.707,1.43
		l-30.543,0.07c-0.75,0-1.5-0.672-1.5-1.414v-3.086c0-0.75,0.566-1.516,1.305-1.516L179.637,105.176z"/>
	
		<linearGradient id="SVGID_21_" gradientUnits="userSpaceOnUse" x1="79.6128" y1="323.9238" x2="34.6128" y2="323.9238" gradientTransform="matrix(0.75 0 0 -0.75 152.1768 357.3125)">
		<stop  offset="0" style="stop-color:#343232"/>
		<stop  offset="0.15" style="stop-color:#555454"/>
		<stop  offset="0.26" style="stop-color:#797777"/>
		<stop  offset="0.41" style="stop-color:#5D5B5B"/>
		<stop  offset="0.6" style="stop-color:#484646"/>
		<stop  offset="0.8" style="stop-color:#383636"/>
		<stop  offset="0.93" style="stop-color:#2C2B2B"/>
		<stop  offset="1" style="stop-color:#535151"/>
	</linearGradient>
	<path fill="url(#SVGID_21_)" d="M179.637,111.379h30.75c0.75,0,1.145,0.586,1.145,1.328l0.355,3.172c0,0.75-0.969,1.43-1.707,1.43
		l-30.543,0.07c-0.75,0-1.5-0.672-1.5-1.414v-3.086c0-0.75,0.566-1.516,1.305-1.516L179.637,111.379z"/>
	
		<linearGradient id="SVGID_22_" gradientUnits="userSpaceOnUse" x1="79.6128" y1="323.9229" x2="34.6128" y2="323.9229" gradientTransform="matrix(0.75 0 0 -0.75 152.1768 387.293)">
		<stop  offset="0" style="stop-color:#343232"/>
		<stop  offset="0.15" style="stop-color:#555454"/>
		<stop  offset="0.26" style="stop-color:#797777"/>
		<stop  offset="0.41" style="stop-color:#5D5B5B"/>
		<stop  offset="0.6" style="stop-color:#484646"/>
		<stop  offset="0.8" style="stop-color:#383636"/>
		<stop  offset="0.93" style="stop-color:#2C2B2B"/>
		<stop  offset="1" style="stop-color:#535151"/>
	</linearGradient>
	<path fill="url(#SVGID_22_)" d="M179.637,141.359h30.75c0.75,0,1.145,0.586,1.145,1.328l0.355,3.172c0,0.75-0.969,1.43-1.707,1.43
		l-30.543,0.07c-0.75,0-1.5-0.672-1.5-1.414v-3.086c0-0.75,0.566-1.516,1.305-1.516L179.637,141.359z"/>
	
		<linearGradient id="SVGID_23_" gradientUnits="userSpaceOnUse" x1="79.6128" y1="323.9229" x2="34.6128" y2="323.9229" gradientTransform="matrix(0.75 0 0 -0.75 152.1768 393.4961)">
		<stop  offset="0" style="stop-color:#343232"/>
		<stop  offset="0.15" style="stop-color:#555454"/>
		<stop  offset="0.26" style="stop-color:#797777"/>
		<stop  offset="0.41" style="stop-color:#5D5B5B"/>
		<stop  offset="0.6" style="stop-color:#484646"/>
		<stop  offset="0.8" style="stop-color:#383636"/>
		<stop  offset="0.93" style="stop-color:#2C2B2B"/>
		<stop  offset="1" style="stop-color:#535151"/>
	</linearGradient>
	<path fill="url(#SVGID_23_)" d="M179.637,147.563h30.75c0.75,0,1.145,0.586,1.145,1.328l0.355,3.172c0,0.75-0.969,1.43-1.707,1.43
		l-30.543,0.07c-0.75,0-1.5-0.672-1.5-1.414v-3.086c0-0.75,0.566-1.516,1.305-1.516L179.637,147.563z"/>
	
		<linearGradient id="SVGID_24_" gradientUnits="userSpaceOnUse" x1="79.6128" y1="323.9229" x2="34.6128" y2="323.9229" gradientTransform="matrix(0.75 0 0 -0.75 152.1768 445.0488)">
		<stop  offset="0" style="stop-color:#343232"/>
		<stop  offset="0.15" style="stop-color:#555454"/>
		<stop  offset="0.26" style="stop-color:#797777"/>
		<stop  offset="0.41" style="stop-color:#5D5B5B"/>
		<stop  offset="0.6" style="stop-color:#484646"/>
		<stop  offset="0.8" style="stop-color:#383636"/>
		<stop  offset="0.93" style="stop-color:#2C2B2B"/>
		<stop  offset="1" style="stop-color:#535151"/>
	</linearGradient>
	<path fill="url(#SVGID_24_)" d="M179.637,199.117h30.75c0.75,0,1.145,0.582,1.145,1.324l0.355,3.176
		c0,0.75-0.969,1.426-1.707,1.426l-30.543,0.074c-0.75,0-1.5-0.676-1.5-1.418v-3.082c0-0.75,0.566-1.52,1.305-1.52L179.637,199.117z
		"/>
	
		<linearGradient id="SVGID_25_" gradientUnits="userSpaceOnUse" x1="79.6128" y1="323.9258" x2="34.6128" y2="323.9258" gradientTransform="matrix(0.75 0 0 -0.75 152.1768 451.252)">
		<stop  offset="0" style="stop-color:#343232"/>
		<stop  offset="0.15" style="stop-color:#555454"/>
		<stop  offset="0.26" style="stop-color:#797777"/>
		<stop  offset="0.41" style="stop-color:#5D5B5B"/>
		<stop  offset="0.6" style="stop-color:#484646"/>
		<stop  offset="0.8" style="stop-color:#383636"/>
		<stop  offset="0.93" style="stop-color:#2C2B2B"/>
		<stop  offset="1" style="stop-color:#535151"/>
	</linearGradient>
	<path fill="url(#SVGID_25_)" d="M179.637,205.316h30.75c0.75,0,1.145,0.586,1.145,1.328l0.355,3.172c0,0.75-0.969,1.43-1.707,1.43
		l-30.543,0.07c-0.75,0-1.5-0.672-1.5-1.414v-3.086c0-0.75,0.566-1.516,1.305-1.516L179.637,205.316z"/>
	
		<linearGradient id="SVGID_26_" gradientUnits="userSpaceOnUse" x1="79.6128" y1="323.9268" x2="34.6128" y2="323.9268" gradientTransform="matrix(0.75 0 0 -0.75 152.1768 481.2324)">
		<stop  offset="0" style="stop-color:#343232"/>
		<stop  offset="0.15" style="stop-color:#555454"/>
		<stop  offset="0.26" style="stop-color:#797777"/>
		<stop  offset="0.41" style="stop-color:#5D5B5B"/>
		<stop  offset="0.6" style="stop-color:#484646"/>
		<stop  offset="0.8" style="stop-color:#383636"/>
		<stop  offset="0.93" style="stop-color:#2C2B2B"/>
		<stop  offset="1" style="stop-color:#535151"/>
	</linearGradient>
	<path fill="url(#SVGID_26_)" d="M179.637,235.297h30.75c0.75,0,1.145,0.586,1.145,1.328l0.355,3.172c0,0.75-0.969,1.43-1.707,1.43
		l-30.543,0.07c-0.75,0-1.5-0.672-1.5-1.414v-3.086c0-0.75,0.566-1.516,1.305-1.516L179.637,235.297z"/>
	
		<linearGradient id="SVGID_27_" gradientUnits="userSpaceOnUse" x1="79.6128" y1="323.9248" x2="34.6128" y2="323.9248" gradientTransform="matrix(0.75 0 0 -0.75 152.1768 487.4346)">
		<stop  offset="0" style="stop-color:#343232"/>
		<stop  offset="0.15" style="stop-color:#555454"/>
		<stop  offset="0.26" style="stop-color:#797777"/>
		<stop  offset="0.41" style="stop-color:#5D5B5B"/>
		<stop  offset="0.6" style="stop-color:#484646"/>
		<stop  offset="0.8" style="stop-color:#383636"/>
		<stop  offset="0.93" style="stop-color:#2C2B2B"/>
		<stop  offset="1" style="stop-color:#535151"/>
	</linearGradient>
	<path fill="url(#SVGID_27_)" d="M179.637,241.5h30.75c0.75,0,1.145,0.586,1.145,1.328l0.355,3.172c0,0.75-0.969,1.43-1.707,1.43
		l-30.543,0.07c-0.75,0-1.5-0.672-1.5-1.414V243c0-0.75,0.566-1.516,1.305-1.516L179.637,241.5z"/>
	
		<linearGradient id="SVGID_28_" gradientUnits="userSpaceOnUse" x1="50.0347" y1="327.9121" x2="50.0347" y2="296.8965" gradientTransform="matrix(0.75 0 0 -0.75 47.8188 363.7578)">
		<stop  offset="0" style="stop-color:#878788"/>
		<stop  offset="0.15" style="stop-color:#D4D4D5"/>
		<stop  offset="0.26" style="stop-color:#E0E0E1"/>
		<stop  offset="0.41" style="stop-color:#DCDCDD"/>
		<stop  offset="0.6" style="stop-color:#B4B4B5"/>
		<stop  offset="0.8" style="stop-color:#909091"/>
		<stop  offset="0.93" style="stop-color:#757576"/>
		<stop  offset="1" style="stop-color:#CFCFD0"/>
	</linearGradient>
	<path fill="url(#SVGID_28_)" d="M73.777,129.824c0-6.75,5.164-12,11.566-12c6.434,0,11.566,5.207,11.566,11.629
		c0.117,6.371-5.195,11.633-11.566,11.633c-6.316-0.012-11.566-5.207-11.566-11.633V129.824z"/>
	<path fill="#343232" d="M76.863,129.176c0-4.5,3.781-8.25,8.48-8.25c5.02,0,8.48,3.82,8.48,8.527
		c0.289,4.973-3.813,8.531-8.48,8.531c-4.73,0.191-8.48-3.82-8.48-8.531V129.176z"/>
	
		<linearGradient id="SVGID_29_" gradientUnits="userSpaceOnUse" x1="50.0356" y1="327.9141" x2="50.0356" y2="296.8984" gradientTransform="matrix(0.75 0 0 -0.75 47.8379 457.5762)">
		<stop  offset="0" style="stop-color:#878788"/>
		<stop  offset="0.15" style="stop-color:#D4D4D5"/>
		<stop  offset="0.26" style="stop-color:#E0E0E1"/>
		<stop  offset="0.41" style="stop-color:#DCDCDD"/>
		<stop  offset="0.6" style="stop-color:#B4B4B5"/>
		<stop  offset="0.8" style="stop-color:#909091"/>
		<stop  offset="0.93" style="stop-color:#757576"/>
		<stop  offset="1" style="stop-color:#CFCFD0"/>
	</linearGradient>
	<path fill="url(#SVGID_29_)" d="M73.797,223.641c0-6.75,5.164-12,11.566-12c6.434,0,11.566,5.207,11.566,11.633
		c0.117,6.367-5.195,11.629-11.566,11.629c-6.316-0.012-11.566-5.207-11.566-11.629V223.641z"/>
	<path fill="#343232" d="M76.883,222.992c0-4.5,3.781-8.25,8.48-8.25c5.02,0,8.48,3.82,8.48,8.531
		c0.289,4.969-3.813,8.527-8.48,8.527c-4.73,0.191-8.48-3.816-8.48-8.527V222.992z"/>
	
		<linearGradient id="SVGID_30_" gradientUnits="userSpaceOnUse" x1="50.0347" y1="327.9141" x2="50.0347" y2="296.8984" gradientTransform="matrix(0.75 0 0 -0.75 157.3091 457.5762)">
		<stop  offset="0" style="stop-color:#878788"/>
		<stop  offset="0.15" style="stop-color:#D4D4D5"/>
		<stop  offset="0.26" style="stop-color:#E0E0E1"/>
		<stop  offset="0.41" style="stop-color:#DCDCDD"/>
		<stop  offset="0.6" style="stop-color:#B4B4B5"/>
		<stop  offset="0.8" style="stop-color:#909091"/>
		<stop  offset="0.93" style="stop-color:#757576"/>
		<stop  offset="1" style="stop-color:#CFCFD0"/>
	</linearGradient>
	<path fill="url(#SVGID_30_)" d="M183.27,223.641c0-6.75,5.16-12,11.566-12c6.434,0,11.563,5.207,11.563,11.633
		c0.121,6.367-5.191,11.629-11.563,11.629c-6.316-0.012-11.566-5.207-11.566-11.629V223.641z"/>
	<path fill="#343232" d="M186.352,222.992c0-4.5,3.781-8.25,8.484-8.25c5.016,0,8.48,3.82,8.48,8.531
		c0.285,4.969-3.813,8.527-8.48,8.527c-4.734,0.191-8.484-3.816-8.484-8.527V222.992z"/>
	
		<linearGradient id="SVGID_31_" gradientUnits="userSpaceOnUse" x1="50.0347" y1="327.9121" x2="50.0347" y2="296.8965" gradientTransform="matrix(0.75 0 0 -0.75 157.3091 363.7578)">
		<stop  offset="0" style="stop-color:#878788"/>
		<stop  offset="0.15" style="stop-color:#D4D4D5"/>
		<stop  offset="0.26" style="stop-color:#E0E0E1"/>
		<stop  offset="0.41" style="stop-color:#DCDCDD"/>
		<stop  offset="0.6" style="stop-color:#B4B4B5"/>
		<stop  offset="0.8" style="stop-color:#909091"/>
		<stop  offset="0.93" style="stop-color:#757576"/>
		<stop  offset="1" style="stop-color:#CFCFD0"/>
	</linearGradient>
	<path fill="url(#SVGID_31_)" d="M183.27,129.824c0-6.75,5.16-12,11.566-12c6.434,0,11.563,5.207,11.563,11.629
		c0.121,6.371-5.191,11.633-11.563,11.633c-6.316-0.012-11.566-5.207-11.566-11.633V129.824z"/>
	<path fill="#3E3938" d="M186.352,129.176c0-4.5,3.781-8.25,8.484-8.25c5.016,0,8.48,3.82,8.48,8.527
		c0.285,4.973-3.813,8.531-8.48,8.531c-4.734,0.191-8.484-3.82-8.484-8.531V129.176z"/>
	<path fill="#343232" d="M128.277,313.625c0-6.75,5.355-12,11.98-12c6.77,0,11.977,5.395,11.977,12.047
		c0.043,6.703-5.367,12.047-11.977,12.047c-6.73-0.094-11.98-5.395-11.98-12.047V313.625z"/>
	
		<linearGradient id="SVGID_32_" gradientUnits="userSpaceOnUse" x1="65.6133" y1="322.4268" x2="34.5615" y2="322.4268" gradientTransform="matrix(0.75 0 0 -0.75 47.7505 324.6514)">
		<stop  offset="0" style="stop-color:#C4C4C4"/>
		<stop  offset="0.15" style="stop-color:#FFFFFF"/>
		<stop  offset="0.25" style="stop-color:#FFFFFF"/>
		<stop  offset="0.52" style="stop-color:#DFDFDF"/>
		<stop  offset="0.69" style="stop-color:#C7C7C7"/>
		<stop  offset="0.8" style="stop-color:#BCBCBC"/>
		<stop  offset="0.97" style="stop-color:#B1B1B1"/>
		<stop  offset="1" style="stop-color:#CBCBCB"/>
	</linearGradient>
	<path fill="url(#SVGID_32_)" d="M75.211,78.719h20.25c0.75,0,1.484,0.602,1.484,1.371l0.016,5.379c0,0.75-0.637,1.383-1.402,1.383
		l-20.348,0.117c-0.75,0-1.539-0.742-1.539-1.512l0.039-5.238c0-0.75,0.582-1.523,1.352-1.523L75.211,78.719z"/>
	
		<linearGradient id="SVGID_33_" gradientUnits="userSpaceOnUse" x1="65.6133" y1="325.9141" x2="34.6133" y2="325.9141" gradientTransform="matrix(0.75 0 0 -0.75 47.7505 327.2236)">
		<stop  offset="0" style="stop-color:#898A8A"/>
		<stop  offset="0.15" style="stop-color:#BABBBB"/>
		<stop  offset="0.25" style="stop-color:#DADADA"/>
		<stop  offset="0.52" style="stop-color:#9D9E9E"/>
		<stop  offset="0.69" style="stop-color:#8B8C8C"/>
		<stop  offset="0.8" style="stop-color:#838484"/>
		<stop  offset="0.97" style="stop-color:#7C7D7D"/>
		<stop  offset="1" style="stop-color:#8F9090"/>
	</linearGradient>
	<path fill="url(#SVGID_33_)" d="M73.711,81.289h23.25v3h-23.25V81.289z"/>
	
		<linearGradient id="SVGID_34_" gradientUnits="userSpaceOnUse" x1="65.6143" y1="322.4307" x2="34.5625" y2="322.4307" gradientTransform="matrix(0.75 0 0 -0.75 47.7695 508.4473)">
		<stop  offset="0" style="stop-color:#C4C4C4"/>
		<stop  offset="0.15" style="stop-color:#FFFFFF"/>
		<stop  offset="0.25" style="stop-color:#FFFFFF"/>
		<stop  offset="0.52" style="stop-color:#DFDFDF"/>
		<stop  offset="0.69" style="stop-color:#C7C7C7"/>
		<stop  offset="0.8" style="stop-color:#BCBCBC"/>
		<stop  offset="0.97" style="stop-color:#B1B1B1"/>
		<stop  offset="1" style="stop-color:#CBCBCB"/>
	</linearGradient>
	<path fill="url(#SVGID_34_)" d="M75.23,262.512h20.25c0.75,0,1.484,0.602,1.484,1.375l0.016,5.375c0,0.75-0.637,1.387-1.406,1.387
		l-20.344,0.113c-0.75,0-1.539-0.738-1.539-1.512l0.039-5.238c0-0.75,0.582-1.523,1.352-1.523L75.23,262.512z"/>
	
		<linearGradient id="SVGID_35_" gradientUnits="userSpaceOnUse" x1="65.6143" y1="325.9121" x2="34.6143" y2="325.9121" gradientTransform="matrix(0.75 0 0 -0.75 47.7695 511.0195)">
		<stop  offset="0" style="stop-color:#898A8A"/>
		<stop  offset="0.15" style="stop-color:#BABBBB"/>
		<stop  offset="0.25" style="stop-color:#DADADA"/>
		<stop  offset="0.52" style="stop-color:#9D9E9E"/>
		<stop  offset="0.69" style="stop-color:#8B8C8C"/>
		<stop  offset="0.8" style="stop-color:#838484"/>
		<stop  offset="0.97" style="stop-color:#7C7D7D"/>
		<stop  offset="1" style="stop-color:#8F9090"/>
	</linearGradient>
	<path fill="url(#SVGID_35_)" d="M73.73,265.086h23.25v3H73.73V265.086z"/>
	
		<linearGradient id="SVGID_36_" gradientUnits="userSpaceOnUse" x1="65.6108" y1="322.4307" x2="34.564" y2="322.4307" gradientTransform="matrix(0.75 0 0 -0.75 157.2407 508.4473)">
		<stop  offset="0" style="stop-color:#C4C4C4"/>
		<stop  offset="0.15" style="stop-color:#FFFFFF"/>
		<stop  offset="0.25" style="stop-color:#FFFFFF"/>
		<stop  offset="0.52" style="stop-color:#DFDFDF"/>
		<stop  offset="0.69" style="stop-color:#C7C7C7"/>
		<stop  offset="0.8" style="stop-color:#BCBCBC"/>
		<stop  offset="0.97" style="stop-color:#B1B1B1"/>
		<stop  offset="1" style="stop-color:#CBCBCB"/>
	</linearGradient>
	<path fill="url(#SVGID_36_)" d="M184.699,262.512h20.25c0.75,0,1.484,0.602,1.484,1.375l0.016,5.375
		c0,0.75-0.637,1.387-1.402,1.387l-20.348,0.113c-0.75,0-1.535-0.738-1.535-1.512l0.035-5.238c0-0.75,0.586-1.523,1.352-1.523
		L184.699,262.512z"/>
	
		<linearGradient id="SVGID_37_" gradientUnits="userSpaceOnUse" x1="65.6108" y1="325.9121" x2="34.6108" y2="325.9121" gradientTransform="matrix(0.75 0 0 -0.75 157.2407 511.0195)">
		<stop  offset="0" style="stop-color:#898A8A"/>
		<stop  offset="0.15" style="stop-color:#BABBBB"/>
		<stop  offset="0.25" style="stop-color:#DADADA"/>
		<stop  offset="0.52" style="stop-color:#9D9E9E"/>
		<stop  offset="0.69" style="stop-color:#8B8C8C"/>
		<stop  offset="0.8" style="stop-color:#838484"/>
		<stop  offset="0.97" style="stop-color:#7C7D7D"/>
		<stop  offset="1" style="stop-color:#8F9090"/>
	</linearGradient>
	<path fill="url(#SVGID_37_)" d="M183.199,265.086h23.25v3h-23.25V265.086z"/>
	
		<linearGradient id="SVGID_38_" gradientUnits="userSpaceOnUse" x1="65.6108" y1="322.4268" x2="34.564" y2="322.4268" gradientTransform="matrix(0.75 0 0 -0.75 157.2407 324.6514)">
		<stop  offset="0" style="stop-color:#C4C4C4"/>
		<stop  offset="0.15" style="stop-color:#FFFFFF"/>
		<stop  offset="0.25" style="stop-color:#FFFFFF"/>
		<stop  offset="0.52" style="stop-color:#DFDFDF"/>
		<stop  offset="0.69" style="stop-color:#C7C7C7"/>
		<stop  offset="0.8" style="stop-color:#BCBCBC"/>
		<stop  offset="0.97" style="stop-color:#B1B1B1"/>
		<stop  offset="1" style="stop-color:#CBCBCB"/>
	</linearGradient>
	<path fill="url(#SVGID_38_)" d="M184.699,78.719h20.25c0.75,0,1.484,0.602,1.484,1.371l0.016,5.379c0,0.75-0.637,1.383-1.402,1.383
		l-20.348,0.117c-0.75,0-1.535-0.742-1.535-1.512l0.035-5.238c0-0.75,0.586-1.523,1.352-1.523L184.699,78.719z"/>
	
		<linearGradient id="SVGID_39_" gradientUnits="userSpaceOnUse" x1="65.6108" y1="325.9141" x2="34.6108" y2="325.9141" gradientTransform="matrix(0.75 0 0 -0.75 157.2407 327.2236)">
		<stop  offset="0" style="stop-color:#898A8A"/>
		<stop  offset="0.15" style="stop-color:#BABBBB"/>
		<stop  offset="0.25" style="stop-color:#DADADA"/>
		<stop  offset="0.52" style="stop-color:#9D9E9E"/>
		<stop  offset="0.69" style="stop-color:#8B8C8C"/>
		<stop  offset="0.8" style="stop-color:#838484"/>
		<stop  offset="0.97" style="stop-color:#7C7D7D"/>
		<stop  offset="1" style="stop-color:#8F9090"/>
	</linearGradient>
	<path fill="url(#SVGID_39_)" d="M183.199,81.289h23.25v3h-23.25V81.289z"/>
</g>
</svg>
