<?xml version="1.0" encoding="utf-8"?>
<!-- Generator: Adobe Illustrator 16.0.0, SVG Export Plug-In . SVG Version: 6.00 Build 0)  -->
<!DOCTYPE svg PUBLIC "-//W3C//DTD SVG 1.1//EN" "http://www.w3.org/Graphics/SVG/1.1/DTD/svg11.dtd">
<svg preserveAspectRatio="none" version="1.1" id="图层_1" xmlns="http://www.w3.org/2000/svg" xmlns:xlink="http://www.w3.org/1999/xlink" x="0px" y="0px"
	 width="340.484px" height="431.387px" viewBox="30 -70.598 340.484 431.387" enable-background="new 30 -70.598 340.484 431.387"
	 xml:space="preserve">
<g id="surface746">
	
		<linearGradient id="SVGID_1_" gradientUnits="userSpaceOnUse" x1="104.6104" y1="147.2871" x2="14.6104" y2="147.2871" gradientTransform="matrix(0.75 0 0 -0.75 169.9756 89.3662)">
		<stop  offset="0" style="stop-color:#3C9396"/>
		<stop  offset="0.15" style="stop-color:#95D0D2"/>
		<stop  offset="0.25" style="stop-color:#9FD4D5"/>
		<stop  offset="0.52" style="stop-color:#45A6A9"/>
		<stop  offset="0.69" style="stop-color:#3C9396"/>
		<stop  offset="0.8" style="stop-color:#388B8D"/>
		<stop  offset="0.92" style="stop-color:#358385"/>
	</linearGradient>
	<path fill="url(#SVGID_1_)" d="M180.934,28.402h67.5v-99h-67.5V28.402z"/>
	
		<linearGradient id="SVGID_2_" gradientUnits="userSpaceOnUse" x1="329.6123" y1="206.29" x2="14.6123" y2="206.29" gradientTransform="matrix(0.75 0 0 -0.75 19.04 187.7402)">
		<stop  offset="0" style="stop-color:#368688"/>
		<stop  offset="0.01" style="stop-color:#8CCDCF"/>
		<stop  offset="0.03" style="stop-color:#49AFB2"/>
		<stop  offset="0.64" style="stop-color:#48ACAF"/>
		<stop  offset="0.99" style="stop-color:#46A8AB"/>
		<stop  offset="1" style="stop-color:#317C7E"/>
	</linearGradient>
	<path fill="url(#SVGID_2_)" d="M30,27.773h236.25v10.5H30V27.773z"/>
	
		<linearGradient id="SVGID_3_" gradientUnits="userSpaceOnUse" x1="315.6133" y1="-1.7124" x2="14.6133" y2="-1.7124" gradientTransform="matrix(0.75 0 0 -0.75 24.3052 198.2539)">
		<stop  offset="0" style="stop-color:#368688"/>
		<stop  offset="0.01" style="stop-color:#8CCDCF"/>
		<stop  offset="0.03" style="stop-color:#49AFB2"/>
		<stop  offset="0.64" style="stop-color:#48ACAF"/>
		<stop  offset="0.99" style="stop-color:#46A8AB"/>
		<stop  offset="1" style="stop-color:#317C7E"/>
	</linearGradient>
	<path fill="url(#SVGID_3_)" d="M35.266,38.289h225.75v322.5H35.266V38.289z"/>
	
		<linearGradient id="SVGID_4_" gradientUnits="userSpaceOnUse" x1="24.6147" y1="213.2861" x2="24.6147" y2="193.2861" gradientTransform="matrix(0.75 0 0 -0.75 44.269 282.3867)">
		<stop  offset="0" style="stop-color:#3C9396"/>
		<stop  offset="0.15" style="stop-color:#95D0D2"/>
		<stop  offset="0.25" style="stop-color:#9FD4D5"/>
		<stop  offset="0.52" style="stop-color:#45A6A9"/>
		<stop  offset="0.69" style="stop-color:#3C9396"/>
		<stop  offset="0.8" style="stop-color:#388B8D"/>
		<stop  offset="0.92" style="stop-color:#358385"/>
	</linearGradient>
	<path fill="url(#SVGID_4_)" d="M60.48,122.422h9.75v15h-9.75c-3,0-5.25-2.102-5.25-4.57v-5.93c0-2.25,2.23-4.5,4.98-4.5H60.48z"/>
	
		<linearGradient id="SVGID_5_" gradientUnits="userSpaceOnUse" x1="221.6143" y1="148.2861" x2="14.6138" y2="148.2861" gradientTransform="matrix(0.75 0 0 -0.75 59.5469 241.1973)">
		<stop  offset="0" style="stop-color:#368688"/>
		<stop  offset="0.01" style="stop-color:#8CCDCF"/>
		<stop  offset="0.03" style="stop-color:#49AFB2"/>
		<stop  offset="0.64" style="stop-color:#48ACAF"/>
		<stop  offset="0.99" style="stop-color:#46A8AB"/>
		<stop  offset="1" style="stop-color:#317C7E"/>
	</linearGradient>
	<path fill="url(#SVGID_5_)" d="M70.508,81.234h155.25v97.5H70.508V81.234z"/>
	
		<linearGradient id="SVGID_6_" gradientUnits="userSpaceOnUse" x1="50.1104" y1="213.2852" x2="50.1104" y2="200.2852" gradientTransform="matrix(0.75 0 0 -0.75 249.8311 358.8535)">
		<stop  offset="0" style="stop-color:#3C9396"/>
		<stop  offset="0.15" style="stop-color:#95D0D2"/>
		<stop  offset="0.25" style="stop-color:#9FD4D5"/>
		<stop  offset="0.52" style="stop-color:#45A6A9"/>
		<stop  offset="0.69" style="stop-color:#3C9396"/>
		<stop  offset="0.8" style="stop-color:#388B8D"/>
		<stop  offset="0.92" style="stop-color:#358385"/>
	</linearGradient>
	<path fill="url(#SVGID_6_)" d="M260.789,208.641h53.25v-9.75h-53.25V208.641z"/>
	
		<linearGradient id="SVGID_7_" gradientUnits="userSpaceOnUse" x1="41.1104" y1="213.2891" x2="41.1104" y2="173.2891" gradientTransform="matrix(0.75 0 0 -0.75 249.8311 427.2119)">
		<stop  offset="0" style="stop-color:#3C9396"/>
		<stop  offset="0.15" style="stop-color:#95D0D2"/>
		<stop  offset="0.25" style="stop-color:#9FD4D5"/>
		<stop  offset="0.52" style="stop-color:#45A6A9"/>
		<stop  offset="0.69" style="stop-color:#3C9396"/>
		<stop  offset="0.8" style="stop-color:#388B8D"/>
		<stop  offset="0.92" style="stop-color:#358385"/>
	</linearGradient>
	<path fill="url(#SVGID_7_)" d="M260.789,297.246h39.75v-30h-39.75V297.246z"/>
	
		<linearGradient id="SVGID_8_" gradientUnits="userSpaceOnUse" x1="18.6108" y1="213.2832" x2="18.6108" y2="137.0391" gradientTransform="matrix(0.75 0 0 -0.75 262.1162 413.7363)">
		<stop  offset="0" style="stop-color:#3C9396"/>
		<stop  offset="0.15" style="stop-color:#95D0D2"/>
		<stop  offset="0.25" style="stop-color:#9FD4D5"/>
		<stop  offset="0.52" style="stop-color:#45A6A9"/>
		<stop  offset="0.69" style="stop-color:#3C9396"/>
		<stop  offset="0.8" style="stop-color:#388B8D"/>
		<stop  offset="0.92" style="stop-color:#358385"/>
	</linearGradient>
	<path fill="url(#SVGID_8_)" d="M276.074,253.773c1.5,0,2.926,1.324,2.926,2.957l0.074,51.043c0,1.5-1.402,3.184-3.035,3.184
		c-1.465-0.184-2.965-1.324-2.965-2.961v-51.223c0-1.5,1.328-3,2.965-3H276.074z"/>
	
		<linearGradient id="SVGID_9_" gradientUnits="userSpaceOnUse" x1="18.1226" y1="213.2871" x2="18.1226" y2="165.084" gradientTransform="matrix(0.75 0 0 -0.75 249.6113 345.707)">
		<stop  offset="0" style="stop-color:#3C9396"/>
		<stop  offset="0.15" style="stop-color:#95D0D2"/>
		<stop  offset="0.25" style="stop-color:#9FD4D5"/>
		<stop  offset="0.52" style="stop-color:#45A6A9"/>
		<stop  offset="0.69" style="stop-color:#3C9396"/>
		<stop  offset="0.8" style="stop-color:#388B8D"/>
		<stop  offset="0.92" style="stop-color:#358385"/>
	</linearGradient>
	<path fill="url(#SVGID_9_)" d="M263.57,185.742c0.75,0,2.266,1.176,2.266,2.629l-0.016,31.121c0,1.5-1.164,2.402-2.617,2.402
		c-1.133-0.152-2.633-1.18-2.633-2.633v-30.52c0-1.5,1.18-3,2.633-3H263.57z"/>
	
		<linearGradient id="SVGID_10_" gradientUnits="userSpaceOnUse" x1="-444.2134" y1="113.8892" x2="-444.2134" y2="126.8892" gradientTransform="matrix(0 -0.75 -0.75 0 413.2129 -172.5742)">
		<stop  offset="0" style="stop-color:#3C9396"/>
		<stop  offset="0.15" style="stop-color:#95D0D2"/>
		<stop  offset="0.25" style="stop-color:#9FD4D5"/>
		<stop  offset="0.52" style="stop-color:#45A6A9"/>
		<stop  offset="0.69" style="stop-color:#3C9396"/>
		<stop  offset="0.8" style="stop-color:#388B8D"/>
		<stop  offset="0.92" style="stop-color:#358385"/>
	</linearGradient>
	<path fill="url(#SVGID_10_)" d="M327.797,193.586v-66h-9.75v66H327.797z"/>
	
		<linearGradient id="SVGID_11_" gradientUnits="userSpaceOnUse" x1="141.8579" y1="180.2881" x2="14.6128" y2="180.2881" gradientTransform="matrix(0.75 0 0 -0.75 264.0908 241.1992)">
		<stop  offset="0" style="stop-color:#368688"/>
		<stop  offset="0.01" style="stop-color:#8CCDCF"/>
		<stop  offset="0.03" style="stop-color:#49AFB2"/>
		<stop  offset="0.64" style="stop-color:#48ACAF"/>
		<stop  offset="0.99" style="stop-color:#46A8AB"/>
		<stop  offset="1" style="stop-color:#317C7E"/>
	</linearGradient>
	<path fill="url(#SVGID_11_)" d="M278.051,81.234h90c1.5,0,2.434,1.176,2.434,2.629l-0.184,43.871c0,1.5-0.996,2.797-2.449,2.797
		l-89.801,0.203c-1.5,0-3-1.379-3-2.832V84.234c0-1.5,1.18-3,2.633-3H278.051z"/>
	<path fill="#50BEC1" stroke="#359496" stroke-linejoin="bevel" stroke-miterlimit="10" d="M280.316,87.148h84.75v38.25h-84.75
		V87.148z"/>
	
		<linearGradient id="SVGID_12_" gradientUnits="userSpaceOnUse" x1="12.1855" y1="609.918" x2="39.2248" y2="625.5291" gradientTransform="matrix(0.75 0 0 0.75 301.6055 -262.9258)">
		<stop  offset="0" style="stop-color:#3B9193"/>
		<stop  offset="0.15" style="stop-color:#67C3C5"/>
		<stop  offset="0.25" style="stop-color:#BBDEE0"/>
		<stop  offset="0.44" style="stop-color:#45A6A9"/>
		<stop  offset="0.6" style="stop-color:#3C9396"/>
		<stop  offset="0.8" style="stop-color:#317C7E"/>
		<stop  offset="0.97" style="stop-color:#2C7173"/>
		<stop  offset="1" style="stop-color:#3E9799"/>
	</linearGradient>
	<path fill="url(#SVGID_12_)" d="M312.566,209.359c0,0,8.891-0.238,13.121-5.227c4.129-4.523,3.488-12.773,3.488-12.773h-11.359
		c0,0-0.211,4.539-5.25,6.367V209.359z"/>
	
		<linearGradient id="SVGID_13_" gradientUnits="userSpaceOnUse" x1="40.6113" y1="157.2861" x2="14.6113" y2="157.2861" gradientTransform="matrix(0.75 0 0 -0.75 276.5957 414.7217)">
		<stop  offset="0" style="stop-color:#368688"/>
		<stop  offset="0.01" style="stop-color:#8CCDCF"/>
		<stop  offset="0.03" style="stop-color:#49AFB2"/>
		<stop  offset="0.64" style="stop-color:#48ACAF"/>
		<stop  offset="0.99" style="stop-color:#46A8AB"/>
		<stop  offset="1" style="stop-color:#317C7E"/>
	</linearGradient>
	<path fill="url(#SVGID_13_)" d="M287.555,254.758h19.5v84h-19.5V254.758z"/>
	
		<linearGradient id="SVGID_14_" gradientUnits="userSpaceOnUse" x1="73.6157" y1="157.2861" x2="14.6157" y2="157.2861" gradientTransform="matrix(0.75 0 0 -0.75 295.9014 414.7217)">
		<stop  offset="0" style="stop-color:#368688"/>
		<stop  offset="0.01" style="stop-color:#8CCDCF"/>
		<stop  offset="0.03" style="stop-color:#49AFB2"/>
		<stop  offset="0.64" style="stop-color:#48ACAF"/>
		<stop  offset="0.99" style="stop-color:#46A8AB"/>
		<stop  offset="1" style="stop-color:#317C7E"/>
	</linearGradient>
	<path fill="url(#SVGID_14_)" d="M306.863,254.758h25.5l18.75,22.5v61.5h-44.25V254.758z"/>
	
		<linearGradient id="SVGID_15_" gradientUnits="userSpaceOnUse" x1="26.8862" y1="207.1865" x2="14.6108" y2="207.1865" gradientTransform="matrix(0.75 0 0 -0.75 307.1982 252.5547)">
		<stop  offset="0" style="stop-color:#B86D76"/>
		<stop  offset="0.15" style="stop-color:#F19AA3"/>
		<stop  offset="0.25" style="stop-color:#F7CCD0"/>
		<stop  offset="0.44" style="stop-color:#D27D87"/>
		<stop  offset="0.6" style="stop-color:#BB6F78"/>
		<stop  offset="0.8" style="stop-color:#9E5D64"/>
		<stop  offset="0.97" style="stop-color:#90545B"/>
		<stop  offset="1" style="stop-color:#BF727B"/>
	</linearGradient>
	<path fill="url(#SVGID_15_)" d="M318.156,97.09c0-2.25,2.063-4.512,4.609-4.512c2.891,0.012,4.598,2.055,4.598,4.594
		c-0.207,2.168-2.059,4.582-4.598,4.582c-2.359-0.164-4.609-2.055-4.609-4.582V97.09z"/>
	<path fill="#2D2929" d="M320.684,97.348c0-1.5,0.926-2.262,2.078-2.262c0.922,0.012,2.082,0.93,2.082,2.074
		c0.34,0.938-0.934,2.078-2.082,2.078c-1.328,0.359-2.086-0.93-2.086-2.078L320.684,97.348z"/>
	
		<linearGradient id="SVGID_16_" gradientUnits="userSpaceOnUse" x1="29.8398" y1="205.7051" x2="14.6113" y2="205.7051" gradientTransform="matrix(0.75 0 0 -0.75 332.2642 270.1016)">
		<stop  offset="0" style="stop-color:#005B34"/>
		<stop  offset="0.15" style="stop-color:#458661"/>
		<stop  offset="0.25" style="stop-color:#B3C4B9"/>
		<stop  offset="0.44" style="stop-color:#00693D"/>
		<stop  offset="0.6" style="stop-color:#005D35"/>
		<stop  offset="0.8" style="stop-color:#004D2B"/>
		<stop  offset="0.97" style="stop-color:#004627"/>
		<stop  offset="1" style="stop-color:#005F37"/>
	</linearGradient>
	<path fill="url(#SVGID_16_)" d="M343.223,116.137c0-3.75,2.559-6.016,5.719-6.016c3.281,0.016,5.703,2.555,5.703,5.711
		c-0.172,3.305-2.555,5.695-5.703,5.695c-3.469-0.141-5.719-2.559-5.719-5.695V116.137z"/>
	
		<linearGradient id="SVGID_17_" gradientUnits="userSpaceOnUse" x1="27.6758" y1="211.4082" x2="13.532" y2="203.2423" gradientTransform="matrix(0.75 0 0 -0.75 333.4883 271.3281)">
		<stop  offset="0" style="stop-color:#91A530"/>
		<stop  offset="0.15" style="stop-color:#C3DA5E"/>
		<stop  offset="0.25" style="stop-color:#DEEAB8"/>
		<stop  offset="0.44" style="stop-color:#A6BC39"/>
		<stop  offset="0.6" style="stop-color:#93A731"/>
		<stop  offset="0.8" style="stop-color:#7C8D28"/>
		<stop  offset="0.97" style="stop-color:#718024"/>
		<stop  offset="1" style="stop-color:#97AB33"/>
	</linearGradient>
	<path fill="url(#SVGID_17_)" d="M344.449,115.863c0-2.25,2.008-4.512,4.492-4.512c2.258,0.012,4.484,2.004,4.484,4.48
		c0.023,2.281-2.012,4.469-4.484,4.469c-2.242,0.063-4.492-2.008-4.492-4.469V115.863z"/>
	
		<linearGradient id="SVGID_18_" gradientUnits="userSpaceOnUse" x1="29.8413" y1="205.7051" x2="14.6118" y2="205.7051" gradientTransform="matrix(0.75 0 0 -0.75 315.0562 270.1016)">
		<stop  offset="0" style="stop-color:#A14046"/>
		<stop  offset="0.15" style="stop-color:#D56B71"/>
		<stop  offset="0.25" style="stop-color:#E8BCBD"/>
		<stop  offset="0.44" style="stop-color:#B84A51"/>
		<stop  offset="0.6" style="stop-color:#A34147"/>
		<stop  offset="0.8" style="stop-color:#89363B"/>
		<stop  offset="0.97" style="stop-color:#7D3035"/>
		<stop  offset="1" style="stop-color:#A74349"/>
	</linearGradient>
	<path fill="url(#SVGID_18_)" d="M326.016,116.137c0-3.75,2.559-6.016,5.719-6.016c3.281,0.016,5.703,2.555,5.703,5.711
		c-0.172,3.305-2.555,5.695-5.703,5.695c-3.469-0.141-5.719-2.559-5.719-5.695V116.137z"/>
	
		<linearGradient id="SVGID_19_" gradientUnits="userSpaceOnUse" x1="27.6763" y1="211.4092" x2="13.5314" y2="203.2426" gradientTransform="matrix(0.75 0 0 -0.75 316.2803 271.3281)">
		<stop  offset="0" style="stop-color:#B86D76"/>
		<stop  offset="0.15" style="stop-color:#F19AA3"/>
		<stop  offset="0.25" style="stop-color:#F7CCD0"/>
		<stop  offset="0.44" style="stop-color:#D27D87"/>
		<stop  offset="0.6" style="stop-color:#BB6F78"/>
		<stop  offset="0.8" style="stop-color:#9E5D64"/>
		<stop  offset="0.97" style="stop-color:#90545B"/>
		<stop  offset="1" style="stop-color:#BF727B"/>
	</linearGradient>
	<path fill="url(#SVGID_19_)" d="M327.242,115.863c0-2.25,2.008-4.512,4.492-4.512c2.258,0.012,4.484,2.004,4.484,4.48
		c0.023,2.281-2.012,4.469-4.484,4.469c-2.242,0.063-4.492-2.008-4.492-4.469V115.863z"/>
	
		<linearGradient id="SVGID_20_" gradientUnits="userSpaceOnUse" x1="29.8394" y1="205.7051" x2="14.6108" y2="205.7051" gradientTransform="matrix(0.75 0 0 -0.75 297.3311 270.1016)">
		<stop  offset="0" style="stop-color:#005B34"/>
		<stop  offset="0.15" style="stop-color:#458661"/>
		<stop  offset="0.25" style="stop-color:#B3C4B9"/>
		<stop  offset="0.44" style="stop-color:#00693D"/>
		<stop  offset="0.6" style="stop-color:#005D35"/>
		<stop  offset="0.8" style="stop-color:#004D2B"/>
		<stop  offset="0.97" style="stop-color:#004627"/>
		<stop  offset="1" style="stop-color:#005F37"/>
	</linearGradient>
	<path fill="url(#SVGID_20_)" d="M308.289,116.137c0-3.75,2.559-6.016,5.719-6.016c3.281,0.016,5.703,2.555,5.703,5.711
		c-0.172,3.305-2.555,5.695-5.703,5.695c-3.469-0.141-5.719-2.559-5.719-5.695V116.137z"/>
	
		<linearGradient id="SVGID_21_" gradientUnits="userSpaceOnUse" x1="27.6758" y1="211.4082" x2="13.532" y2="203.2423" gradientTransform="matrix(0.75 0 0 -0.75 298.5547 271.3281)">
		<stop  offset="0" style="stop-color:#91A530"/>
		<stop  offset="0.15" style="stop-color:#C3DA5E"/>
		<stop  offset="0.25" style="stop-color:#DEEAB8"/>
		<stop  offset="0.44" style="stop-color:#A6BC39"/>
		<stop  offset="0.6" style="stop-color:#93A731"/>
		<stop  offset="0.8" style="stop-color:#7C8D28"/>
		<stop  offset="0.97" style="stop-color:#718024"/>
		<stop  offset="1" style="stop-color:#97AB33"/>
	</linearGradient>
	<path fill="url(#SVGID_21_)" d="M309.516,115.863c0-2.25,2.008-4.512,4.492-4.512c2.258,0.012,4.484,2.004,4.484,4.48
		c0.023,2.281-2.012,4.469-4.484,4.469c-2.242,0.063-4.492-2.008-4.492-4.469V115.863z"/>
	
		<linearGradient id="SVGID_22_" gradientUnits="userSpaceOnUse" x1="29.8423" y1="205.7051" x2="14.6128" y2="205.7051" gradientTransform="matrix(0.75 0 0 -0.75 279.8643 270.1016)">
		<stop  offset="0" style="stop-color:#A14046"/>
		<stop  offset="0.15" style="stop-color:#D56B71"/>
		<stop  offset="0.25" style="stop-color:#E8BCBD"/>
		<stop  offset="0.44" style="stop-color:#B84A51"/>
		<stop  offset="0.6" style="stop-color:#A34147"/>
		<stop  offset="0.8" style="stop-color:#89363B"/>
		<stop  offset="0.97" style="stop-color:#7D3035"/>
		<stop  offset="1" style="stop-color:#A74349"/>
	</linearGradient>
	<path fill="url(#SVGID_22_)" d="M290.824,116.137c0-3.75,2.559-6.016,5.719-6.016c3.281,0.016,5.703,2.555,5.703,5.711
		c-0.172,3.305-2.559,5.695-5.703,5.695c-3.469-0.141-5.719-2.559-5.719-5.695V116.137z"/>
	
		<linearGradient id="SVGID_23_" gradientUnits="userSpaceOnUse" x1="27.6738" y1="211.4092" x2="13.5289" y2="203.2426" gradientTransform="matrix(0.75 0 0 -0.75 281.0884 271.3281)">
		<stop  offset="0" style="stop-color:#B86D76"/>
		<stop  offset="0.15" style="stop-color:#F19AA3"/>
		<stop  offset="0.25" style="stop-color:#F7CCD0"/>
		<stop  offset="0.44" style="stop-color:#D27D87"/>
		<stop  offset="0.6" style="stop-color:#BB6F78"/>
		<stop  offset="0.8" style="stop-color:#9E5D64"/>
		<stop  offset="0.97" style="stop-color:#90545B"/>
		<stop  offset="1" style="stop-color:#BF727B"/>
	</linearGradient>
	<path fill="url(#SVGID_23_)" d="M292.047,115.863c0-2.25,2.012-4.512,4.496-4.512c2.254,0.012,4.48,2.004,4.48,4.48
		c0.023,2.281-2.008,4.469-4.48,4.469c-2.246,0.063-4.496-2.008-4.496-4.469V115.863z"/>
	<path fill="#595757" d="M294.441,92.574h10.5c0.75,0,1.652,0.855,1.652,1.941l-0.152,5.559c0,0.75-0.73,1.668-1.816,1.668
		l-10.184-0.168c-1.5,0-2.305-0.719-2.305-1.805l0.055-4.945c0-1.5,0.828-2.277,1.914-2.277L294.441,92.574z"/>
	<path fill="#CDCECE" d="M293.637,94.172h11.25v6h-11.25V94.172z"/>
	<path fill="#595757" d="M341.199,92.574h10.5c0.75,0,1.652,0.855,1.652,1.941l-0.152,5.559c0,0.75-0.73,1.668-1.82,1.668
		l-10.18-0.168c-1.5,0-2.309-0.719-2.309-1.805l0.059-4.945c0-1.5,0.824-2.277,1.914-2.277L341.199,92.574z"/>
	<path fill="#CDCECE" d="M340.391,94.172h11.25v6h-11.25V94.172z"/>
	
		<linearGradient id="SVGID_24_" gradientUnits="userSpaceOnUse" x1="315.6123" y1="210.2852" x2="14.6128" y2="210.2851" gradientTransform="matrix(0.75 0 0 -0.75 24.3057 198.2559)">
		<stop  offset="0" style="stop-color:#2E7578"/>
		<stop  offset="0.01" style="stop-color:#88BDC0"/>
		<stop  offset="0.03" style="stop-color:#3F999D"/>
		<stop  offset="0.64" style="stop-color:#3E979B"/>
		<stop  offset="0.99" style="stop-color:#3C9397"/>
		<stop  offset="1" style="stop-color:#2A6C6F"/>
	</linearGradient>
	<path fill="url(#SVGID_24_)" d="M35.266,38.293h225.75v4.5H35.266V38.293z"/>
	
		<linearGradient id="SVGID_25_" gradientUnits="userSpaceOnUse" x1="221.6133" y1="211.2861" x2="14.6133" y2="211.2861" gradientTransform="matrix(0.75 0 0 -0.75 59.5474 241.1982)">
		<stop  offset="0" style="stop-color:#2E7578"/>
		<stop  offset="0.01" style="stop-color:#88BDC0"/>
		<stop  offset="0.03" style="stop-color:#3F999D"/>
		<stop  offset="0.64" style="stop-color:#3E979B"/>
		<stop  offset="0.99" style="stop-color:#3C9397"/>
		<stop  offset="1" style="stop-color:#2A6C6F"/>
	</linearGradient>
	<path fill="url(#SVGID_25_)" d="M70.508,81.234h155.25v3H70.508V81.234z"/>
	
		<linearGradient id="SVGID_26_" gradientUnits="userSpaceOnUse" x1="221.6133" y1="211.2881" x2="14.6133" y2="211.2881" gradientTransform="matrix(0.75 0 0 -0.75 59.5474 335.1719)">
		<stop  offset="0" style="stop-color:#2E7578"/>
		<stop  offset="0.01" style="stop-color:#88BDC0"/>
		<stop  offset="0.03" style="stop-color:#3F999D"/>
		<stop  offset="0.64" style="stop-color:#3E979B"/>
		<stop  offset="0.99" style="stop-color:#3C9397"/>
		<stop  offset="1" style="stop-color:#2A6C6F"/>
	</linearGradient>
	<path fill="url(#SVGID_26_)" d="M70.508,175.207h155.25v3H70.508V175.207z"/>
	
		<linearGradient id="SVGID_27_" gradientUnits="userSpaceOnUse" x1="40.8647" y1="200.1787" x2="14.5425" y2="200.1787" gradientTransform="matrix(0.75 0 0 -0.75 88.8589 278.9102)">
		<stop  offset="0" style="stop-color:#3C9396"/>
		<stop  offset="0.15" style="stop-color:#95D0D2"/>
		<stop  offset="0.25" style="stop-color:#9FD4D5"/>
		<stop  offset="0.52" style="stop-color:#45A6A9"/>
		<stop  offset="0.69" style="stop-color:#3C9396"/>
		<stop  offset="0.8" style="stop-color:#388B8D"/>
		<stop  offset="0.92" style="stop-color:#358385"/>
	</linearGradient>
	<path fill="url(#SVGID_27_)" d="M99.82,128.695c0-5.25,4.363-9.777,9.816-9.777c5.184,0.027,9.871,4.414,9.871,9.859
		c-0.188,5.168-4.418,9.859-9.871,9.859c-5.316-0.191-9.871-4.414-9.871-9.859L99.82,128.695z"/>
	<path fill="#50BEC1" stroke="#50BEC1" stroke-linejoin="bevel" stroke-miterlimit="10" d="M103.563,128.641c0-3,2.695-6,6.086-6
		c3.664,0,6.145,2.746,6.145,6.137c-0.23,3.613-2.75,6.133-6.145,6.133c-3.086-0.27-6.141-2.746-6.141-6.133L103.563,128.641z"/>
	
		<linearGradient id="SVGID_28_" gradientUnits="userSpaceOnUse" x1="54.9858" y1="213.3203" x2="54.9858" y2="201.2832" gradientTransform="matrix(0.75 0 0 -0.75 94.124 284.373)">
		<stop  offset="0" style="stop-color:#434242"/>
		<stop  offset="0.15" style="stop-color:#989898"/>
		<stop  offset="0.25" style="stop-color:#A2A1A1"/>
		<stop  offset="0.52" style="stop-color:#4D4B4B"/>
		<stop  offset="0.69" style="stop-color:#434242"/>
		<stop  offset="0.8" style="stop-color:#3F3E3E"/>
		<stop  offset="0.92" style="stop-color:#3B3A3A"/>
	</linearGradient>
	<path fill="url(#SVGID_28_)" d="M109.582,124.41h51.75c2.25,0,4.301,1.934,4.301,4.352c0.199,2.398-2.02,4.383-4.441,4.383
		l-51.609,0.266c-2.25,0-4.5-2.227-4.5-4.648c0-2.102,1.91-4.379,4.336-4.379L109.582,124.41z"/>
	
		<linearGradient id="SVGID_29_" gradientUnits="userSpaceOnUse" x1="27.6138" y1="199.7871" x2="14.6138" y2="199.7871" gradientTransform="matrix(0.75 0 0 -0.75 212.4497 252.8555)">
		<stop  offset="0" style="stop-color:#3C9396"/>
		<stop  offset="0.15" style="stop-color:#95D0D2"/>
		<stop  offset="0.25" style="stop-color:#9FD4D5"/>
		<stop  offset="0.52" style="stop-color:#45A6A9"/>
		<stop  offset="0.69" style="stop-color:#3C9396"/>
		<stop  offset="0.8" style="stop-color:#388B8D"/>
		<stop  offset="0.92" style="stop-color:#358385"/>
	</linearGradient>
	<path fill="url(#SVGID_29_)" d="M223.41,92.891h9.75v20.25h-9.75V92.891z"/>
	
		<linearGradient id="SVGID_30_" gradientUnits="userSpaceOnUse" x1="27.6138" y1="199.79" x2="14.6138" y2="199.79" gradientTransform="matrix(0.75 0 0 -0.75 212.4497 306.4902)">
		<stop  offset="0" style="stop-color:#3C9396"/>
		<stop  offset="0.15" style="stop-color:#95D0D2"/>
		<stop  offset="0.25" style="stop-color:#9FD4D5"/>
		<stop  offset="0.52" style="stop-color:#45A6A9"/>
		<stop  offset="0.69" style="stop-color:#3C9396"/>
		<stop  offset="0.8" style="stop-color:#388B8D"/>
		<stop  offset="0.92" style="stop-color:#358385"/>
	</linearGradient>
	<path fill="url(#SVGID_30_)" d="M223.41,146.523h9.75v20.25h-9.75V146.523z"/>
</g>
</svg>
