<?xml version="1.0" encoding="utf-8"?>
<!-- Generator: Adobe Illustrator 16.0.0, SVG Export Plug-In . SVG Version: 6.00 Build 0)  -->
<!DOCTYPE svg PUBLIC "-//W3C//DTD SVG 1.1//EN" "http://www.w3.org/Graphics/SVG/1.1/DTD/svg11.dtd">
<svg preserveAspectRatio="none" version="1.1" id="图层_1" xmlns="http://www.w3.org/2000/svg" xmlns:xlink="http://www.w3.org/1999/xlink" x="0px" y="0px"
	 width="220.785px" height="540.742px" viewBox="29.859 29.988 220.785 540.742"
	 enable-background="new 29.859 29.988 220.785 540.742" xml:space="preserve">
<g id="surface21">
	
		<linearGradient id="SVGID_1_" gradientUnits="userSpaceOnUse" x1="278.6113" y1="557.9736" x2="34.6074" y2="557.9736" gradientTransform="matrix(0.75 0 0 0.75 9.0093 -67.5068)">
		<stop  offset="0" style="stop-color:#B4A59F"/>
		<stop  offset="0.15" style="stop-color:#EDDFDA"/>
		<stop  offset="0.25" style="stop-color:#EEE2DD"/>
		<stop  offset="0.52" style="stop-color:#CAB9B3"/>
		<stop  offset="0.69" style="stop-color:#B4A59F"/>
		<stop  offset="0.8" style="stop-color:#AA9B96"/>
		<stop  offset="0.92" style="stop-color:#A0938E"/>
	</linearGradient>
	<path fill="url(#SVGID_1_)" d="M34.969,341.965c0,0-1.902,22.598,90.449,23.25c92.551,0.75,92.336-23.559,92.336-23.559
		l0.215-4.941h-183V341.965z"/>
	
		<linearGradient id="SVGID_2_" gradientUnits="userSpaceOnUse" x1="278.6094" y1="563.5518" x2="34.6055" y2="563.5518" gradientTransform="matrix(0.75 0 0 -0.75 9.0107 491.4316)">
		<stop  offset="0" style="stop-color:#B4A59F"/>
		<stop  offset="0.15" style="stop-color:#EDDFDA"/>
		<stop  offset="0.25" style="stop-color:#EEE2DD"/>
		<stop  offset="0.52" style="stop-color:#CAB9B3"/>
		<stop  offset="0.69" style="stop-color:#B4A59F"/>
		<stop  offset="0.8" style="stop-color:#AA9B96"/>
		<stop  offset="0.92" style="stop-color:#A0938E"/>
	</linearGradient>
	<path fill="url(#SVGID_2_)" d="M34.969,77.777c0,0-1.902-22.594,90.449-23.25c92.551-0.75,92.336,23.559,92.336,23.559l0.215,4.941
		h-183V77.777z"/>
	
		<linearGradient id="SVGID_3_" gradientUnits="userSpaceOnUse" x1="278.6094" y1="429.5352" x2="34.6094" y2="429.5351" gradientTransform="matrix(0.75 0 0 -0.75 9.0107 530.4824)">
		<stop  offset="0" style="stop-color:#B4A59F"/>
		<stop  offset="0.15" style="stop-color:#EDDFDA"/>
		<stop  offset="0.25" style="stop-color:#EEE2DD"/>
		<stop  offset="0.52" style="stop-color:#CAB9B3"/>
		<stop  offset="0.69" style="stop-color:#B4A59F"/>
		<stop  offset="0.8" style="stop-color:#AA9B96"/>
		<stop  offset="0.92" style="stop-color:#A0938E"/>
	</linearGradient>
	<path fill="url(#SVGID_3_)" d="M34.969,93.582h183v229.5h-183V93.582z"/>
	
		<linearGradient id="SVGID_4_" gradientUnits="userSpaceOnUse" x1="63.6118" y1="570.5342" x2="34.6118" y2="570.5342" gradientTransform="matrix(0.75 0 0 -0.75 89.4194 474.252)">
		<stop  offset="0" style="stop-color:#B4A59F"/>
		<stop  offset="0.15" style="stop-color:#EDDFDA"/>
		<stop  offset="0.25" style="stop-color:#EEE2DD"/>
		<stop  offset="0.52" style="stop-color:#CAB9B3"/>
		<stop  offset="0.69" style="stop-color:#B4A59F"/>
		<stop  offset="0.8" style="stop-color:#AA9B96"/>
		<stop  offset="0.92" style="stop-color:#A0938E"/>
	</linearGradient>
	<path fill="url(#SVGID_4_)" d="M115.379,55.352h21.75v-18h-21.75V55.352z"/>
	
		<linearGradient id="SVGID_5_" gradientUnits="userSpaceOnUse" x1="93.562" y1="577.3447" x2="34.6128" y2="577.3447" gradientTransform="matrix(0.75 0 0 -0.75 78.231 466.9219)">
		<stop  offset="0" style="stop-color:#B4A59F"/>
		<stop  offset="0.15" style="stop-color:#EDDFDA"/>
		<stop  offset="0.25" style="stop-color:#EEE2DD"/>
		<stop  offset="0.52" style="stop-color:#CAB9B3"/>
		<stop  offset="0.69" style="stop-color:#B4A59F"/>
		<stop  offset="0.8" style="stop-color:#AA9B96"/>
		<stop  offset="0.92" style="stop-color:#A0938E"/>
	</linearGradient>
	<path fill="url(#SVGID_5_)" d="M107.941,30.02h36.75c2.25,0,3.711,1.727,3.711,3.895c0.039,2.105-1.723,3.926-3.848,3.926
		l-36.613-0.32c-2.25,0-3.75-1.438-3.75-3.605c0-2.395,1.684-3.926,3.809-3.926L107.941,30.02z"/>
	
		<linearGradient id="SVGID_6_" gradientUnits="userSpaceOnUse" x1="50.1118" y1="582.5391" x2="50.1118" y2="546.5391" gradientTransform="matrix(0.75 0 0 -0.75 192.4551 554.584)">
		<stop  offset="0" style="stop-color:#B4A59F"/>
		<stop  offset="0.15" style="stop-color:#EDDFDA"/>
		<stop  offset="0.25" style="stop-color:#EEE2DD"/>
		<stop  offset="0.52" style="stop-color:#CAB9B3"/>
		<stop  offset="0.69" style="stop-color:#B4A59F"/>
		<stop  offset="0.8" style="stop-color:#AA9B96"/>
		<stop  offset="0.92" style="stop-color:#A0938E"/>
	</linearGradient>
	<path fill="url(#SVGID_6_)" d="M218.414,117.68h23.25v27h-23.25V117.68z"/>
	
		<linearGradient id="SVGID_7_" gradientUnits="userSpaceOnUse" x1="40.521" y1="582.6875" x2="40.521" y2="516.375" gradientTransform="matrix(0.75 0 0 -0.75 215.6836 543.1514)">
		<stop  offset="0" style="stop-color:#B4A59F"/>
		<stop  offset="0.15" style="stop-color:#EDDFDA"/>
		<stop  offset="0.25" style="stop-color:#EEE2DD"/>
		<stop  offset="0.52" style="stop-color:#CAB9B3"/>
		<stop  offset="0.69" style="stop-color:#B4A59F"/>
		<stop  offset="0.8" style="stop-color:#AA9B96"/>
		<stop  offset="0.92" style="stop-color:#A0938E"/>
	</linearGradient>
	<path fill="url(#SVGID_7_)" d="M245.395,106.25h1.5c1.5,0,3.586,1.645,3.586,3.813L250.645,152c0,2.25-1.887,3.871-4.012,3.871
		l-1.238-0.121c-2.25,0-3.891-1.637-3.891-3.805L241.645,110c0-2.25,1.582-3.863,3.707-3.863L245.395,106.25z"/>
	
		<linearGradient id="SVGID_8_" gradientUnits="userSpaceOnUse" x1="278.6094" y1="569.0361" x2="34.6094" y2="569.0361" gradientTransform="matrix(0.75 0 0 -0.75 9.0107 513.3818)">
		<stop  offset="0" style="stop-color:#A78F87"/>
		<stop  offset="0.15" style="stop-color:#E1CDC6"/>
		<stop  offset="0.25" style="stop-color:#E4D1CA"/>
		<stop  offset="0.52" style="stop-color:#BCA298"/>
		<stop  offset="0.69" style="stop-color:#A78F87"/>
		<stop  offset="0.8" style="stop-color:#9E877F"/>
		<stop  offset="0.92" style="stop-color:#957F78"/>
	</linearGradient>
	<path fill="url(#SVGID_8_)" d="M34.969,76.48h183v20.25h-183V76.48z"/>
	
		<linearGradient id="SVGID_9_" gradientUnits="userSpaceOnUse" x1="291.9502" y1="573.5674" x2="34.6113" y2="573.5674" gradientTransform="matrix(0.75 0 0 -0.75 3.8999 516.7695)">
		<stop  offset="0" style="stop-color:#B4A59F"/>
		<stop  offset="0.15" style="stop-color:#EDDFDA"/>
		<stop  offset="0.25" style="stop-color:#EEE2DD"/>
		<stop  offset="0.52" style="stop-color:#CAB9B3"/>
		<stop  offset="0.69" style="stop-color:#B4A59F"/>
		<stop  offset="0.8" style="stop-color:#AA9B96"/>
		<stop  offset="0.92" style="stop-color:#A0938E"/>
	</linearGradient>
	<path fill="url(#SVGID_9_)" d="M33.609,79.867h185.25c2.25,0,4.004,1.762,4.004,4.109l-0.254,4.891c0,3-1.641,4.602-3.945,4.602
		L33.609,93.367c-2.25,0-3.75-1.805-3.75-4.152v-5.598c0-2.25,1.797-3.895,4.098-3.895L33.609,79.867z"/>
	
		<linearGradient id="SVGID_10_" gradientUnits="userSpaceOnUse" x1="278.6094" y1="569.0391" x2="34.6094" y2="569.0391" gradientTransform="matrix(0.75 0 0 -0.75 9.0107 756.5518)">
		<stop  offset="0" style="stop-color:#A78F87"/>
		<stop  offset="0.15" style="stop-color:#E1CDC6"/>
		<stop  offset="0.25" style="stop-color:#E4D1CA"/>
		<stop  offset="0.52" style="stop-color:#BCA298"/>
		<stop  offset="0.69" style="stop-color:#A78F87"/>
		<stop  offset="0.8" style="stop-color:#9E877F"/>
		<stop  offset="0.92" style="stop-color:#957F78"/>
	</linearGradient>
	<path fill="url(#SVGID_10_)" d="M34.969,319.648h183v20.25h-183V319.648z"/>
	
		<linearGradient id="SVGID_11_" gradientUnits="userSpaceOnUse" x1="291.9502" y1="573.5654" x2="34.6113" y2="573.5654" gradientTransform="matrix(0.75 0 0 -0.75 3.8999 759.9385)">
		<stop  offset="0" style="stop-color:#B4A59F"/>
		<stop  offset="0.15" style="stop-color:#EDDFDA"/>
		<stop  offset="0.25" style="stop-color:#EEE2DD"/>
		<stop  offset="0.52" style="stop-color:#CAB9B3"/>
		<stop  offset="0.69" style="stop-color:#B4A59F"/>
		<stop  offset="0.8" style="stop-color:#AA9B96"/>
		<stop  offset="0.92" style="stop-color:#A0938E"/>
	</linearGradient>
	<path fill="url(#SVGID_11_)" d="M33.609,323.035h185.25c2.25,0,4.004,1.762,4.004,4.113l-0.254,4.887c0,3-1.641,4.602-3.945,4.602
		l-185.055-0.102c-2.25,0-3.75-1.805-3.75-4.152v-5.598c0-2.25,1.797-3.891,4.098-3.891L33.609,323.035z"/>
	
		<linearGradient id="SVGID_12_" gradientUnits="userSpaceOnUse" x1="-662.6157" y1="431.5371" x2="-714.6157" y2="431.5371" gradientTransform="matrix(-0.75 0 0 -0.75 -321.6563 776.9766)">
		<stop  offset="0" style="stop-color:#A19893"/>
		<stop  offset="0.03" style="stop-color:#EAE0DB"/>
		<stop  offset="0.08" style="stop-color:#D2C6C0"/>
		<stop  offset="0.64" style="stop-color:#CFC3BD"/>
		<stop  offset="0.95" style="stop-color:#CABEB9"/>
		<stop  offset="1" style="stop-color:#958D89"/>
	</linearGradient>
	<path fill="url(#SVGID_12_)" d="M214.305,340.074l-39,10.5l17.25,216h21.75V340.074z"/>
	
		<linearGradient id="SVGID_13_" gradientUnits="userSpaceOnUse" x1="-678.6152" y1="579.5381" x2="-714.6152" y2="579.5381" gradientTransform="matrix(-0.75 0 0 -0.75 -318.207 1003.1328)">
		<stop  offset="0" style="stop-color:#A19893"/>
		<stop  offset="0.03" style="stop-color:#EAE0DB"/>
		<stop  offset="0.08" style="stop-color:#D2C6C0"/>
		<stop  offset="0.64" style="stop-color:#CFC3BD"/>
		<stop  offset="0.95" style="stop-color:#CABEB9"/>
		<stop  offset="1" style="stop-color:#958D89"/>
	</linearGradient>
	<path fill="url(#SVGID_13_)" d="M217.754,566.23h-27v4.5h27V566.23z"/>
	
		<linearGradient id="SVGID_14_" gradientUnits="userSpaceOnUse" x1="86.6118" y1="431.5371" x2="34.6118" y2="431.5371" gradientTransform="matrix(0.75 0 0 -0.75 12.459 776.9766)">
		<stop  offset="0" style="stop-color:#A19893"/>
		<stop  offset="0.03" style="stop-color:#EAE0DB"/>
		<stop  offset="0.08" style="stop-color:#D2C6C0"/>
		<stop  offset="0.64" style="stop-color:#CFC3BD"/>
		<stop  offset="0.95" style="stop-color:#CABEB9"/>
		<stop  offset="1" style="stop-color:#958D89"/>
	</linearGradient>
	<path fill="url(#SVGID_14_)" d="M38.418,340.074l39,10.5l-17.25,216h-21.75V340.074z"/>
	
		<linearGradient id="SVGID_15_" gradientUnits="userSpaceOnUse" x1="70.6113" y1="579.5381" x2="34.6113" y2="579.5381" gradientTransform="matrix(0.75 0 0 -0.75 9.0093 1003.1328)">
		<stop  offset="0" style="stop-color:#A19893"/>
		<stop  offset="0.03" style="stop-color:#EAE0DB"/>
		<stop  offset="0.08" style="stop-color:#D2C6C0"/>
		<stop  offset="0.64" style="stop-color:#CFC3BD"/>
		<stop  offset="0.95" style="stop-color:#CABEB9"/>
		<stop  offset="1" style="stop-color:#958D89"/>
	</linearGradient>
	<path fill="url(#SVGID_15_)" d="M34.969,566.23h27v4.5h-27V566.23z"/>
</g>
</svg>
