<?xml version="1.0" encoding="utf-8"?>
<!-- Generator: Adobe Illustrator 16.0.0, SVG Export Plug-In . SVG Version: 6.00 Build 0)  -->
<!DOCTYPE svg PUBLIC "-//W3C//DTD SVG 1.1//EN" "http://www.w3.org/Graphics/SVG/1.1/DTD/svg11.dtd">
<svg preserveAspectRatio="none" version="1.1" id="图层_1" xmlns="http://www.w3.org/2000/svg" xmlns:xlink="http://www.w3.org/1999/xlink" x="0px" y="0px"
	 width="299.25px" height="299.25px" viewBox="30 -27.145 299.25 299.25" enable-background="new 30 -27.145 299.25 299.25"
	 xml:space="preserve">
<g id="surface526">
	
		<linearGradient id="SVGID_1_" gradientUnits="userSpaceOnUse" x1="420.4873" y1="-31.7129" x2="21.4873" y2="-31.7129" gradientTransform="matrix(0.75 0 0 -0.75 13.8838 98.6943)">
		<stop  offset="0" style="stop-color:#898A8A"/>
		<stop  offset="0.15" style="stop-color:#BABBBB"/>
		<stop  offset="0.25" style="stop-color:#DADADA"/>
		<stop  offset="0.44" style="stop-color:#9D9E9E"/>
		<stop  offset="0.6" style="stop-color:#8B8C8C"/>
		<stop  offset="0.8" style="stop-color:#757676"/>
		<stop  offset="0.97" style="stop-color:#6B6B6B"/>
		<stop  offset="1" style="stop-color:#8F9090"/>
	</linearGradient>
	<path fill="url(#SVGID_1_)" d="M30,122.855c0-83.25,66.969-150,149.625-150c82.875,0,149.625,66.953,149.625,149.625
		c0,82.875-67.027,149.625-149.625,149.625C96.75,272.105,30,205.063,30,122.48V122.855z"/>
	<path fill="#CDCECE" d="M43.039,122.391c0-75.75,61.145-136.5,136.586-136.5c75.664,0,136.586,61.117,136.586,136.59
		c-0.172,75.66-61.172,136.586-136.586,136.586c-75.086-0.176-136.586-61.203-136.586-136.586V122.391z"/>
	
		<linearGradient id="SVGID_2_" gradientUnits="userSpaceOnUse" x1="131.4907" y1="167.8066" x2="131.4907" y2="149.7861" gradientTransform="matrix(0.75 0 0 -0.75 81.0537 149.5313)">
		<stop  offset="0" style="stop-color:#B5B5B5"/>
		<stop  offset="0.03" style="stop-color:#FFFFFF"/>
		<stop  offset="0.08" style="stop-color:#EBEBEB"/>
		<stop  offset="0.64" style="stop-color:#E7E7E7"/>
		<stop  offset="0.95" style="stop-color:#E2E2E2"/>
		<stop  offset="1" style="stop-color:#A8A8A8"/>
	</linearGradient>
	<path fill="url(#SVGID_2_)" d="M98.672,23.691h161.25c1.5,0,2.156,0.844,2.156,1.902l0.094,9.348c0,1.5-0.949,2.16-2.012,2.16
		l-161.488,0.09c-0.75,0-1.5-0.949-1.5-2.008v-9.242c0-1.5,0.813-2.266,1.871-2.266L98.672,23.691z"/>
	
		<linearGradient id="SVGID_3_" gradientUnits="userSpaceOnUse" x1="155.9878" y1="167.8477" x2="155.9878" y2="149.7852" gradientTransform="matrix(0.75 0 0 -0.75 62.8096 195.5645)">
		<stop  offset="0" style="stop-color:#B5B5B5"/>
		<stop  offset="0.03" style="stop-color:#FFFFFF"/>
		<stop  offset="0.08" style="stop-color:#EBEBEB"/>
		<stop  offset="0.64" style="stop-color:#E7E7E7"/>
		<stop  offset="0.95" style="stop-color:#E2E2E2"/>
		<stop  offset="1" style="stop-color:#A8A8A8"/>
	</linearGradient>
	<path fill="url(#SVGID_3_)" d="M81.176,69.727h197.25c0.75,0,1.898,0.813,1.898,1.871l0.352,9.379c0,1.5-1.211,2.129-2.27,2.129
		l-197.23,0.121c-1.5,0-2.25-0.98-2.25-2.039v-9.961c0-0.75,0.859-1.547,1.918-1.547L81.176,69.727z"/>
	
		<linearGradient id="SVGID_4_" gradientUnits="userSpaceOnUse" x1="174.9868" y1="167.8291" x2="174.9868" y2="149.7871" gradientTransform="matrix(0.75 0 0 -0.75 48.4243 241.6133)">
		<stop  offset="0" style="stop-color:#B5B5B5"/>
		<stop  offset="0.03" style="stop-color:#FFFFFF"/>
		<stop  offset="0.08" style="stop-color:#EBEBEB"/>
		<stop  offset="0.64" style="stop-color:#E7E7E7"/>
		<stop  offset="0.95" style="stop-color:#E2E2E2"/>
		<stop  offset="1" style="stop-color:#A8A8A8"/>
	</linearGradient>
	<path fill="url(#SVGID_4_)" d="M66.789,115.773h225.75c1.5,0,2.172,0.828,2.172,1.887l0.078,9.363c0,1.5-0.969,2.148-2.027,2.148
		l-225.973,0.102c-1.5,0-2.25-0.961-2.25-2.02v-9.23c0-1.5,0.828-2.281,1.891-2.281L66.789,115.773z"/>
	
		<linearGradient id="SVGID_5_" gradientUnits="userSpaceOnUse" x1="155.9878" y1="167.8496" x2="155.9878" y2="149.7871" gradientTransform="matrix(0.75 0 0 -0.75 62.8096 287.6328)">
		<stop  offset="0" style="stop-color:#B5B5B5"/>
		<stop  offset="0.03" style="stop-color:#FFFFFF"/>
		<stop  offset="0.08" style="stop-color:#EBEBEB"/>
		<stop  offset="0.64" style="stop-color:#E7E7E7"/>
		<stop  offset="0.95" style="stop-color:#E2E2E2"/>
		<stop  offset="1" style="stop-color:#A8A8A8"/>
	</linearGradient>
	<path fill="url(#SVGID_5_)" d="M81.176,161.793h197.25c0.75,0,1.898,0.813,1.898,1.871l0.352,9.379c0,1.5-1.211,2.133-2.27,2.133
		l-197.23,0.117c-1.5,0-2.25-0.977-2.25-2.035v-9.965c0-0.75,0.859-1.547,1.918-1.547L81.176,161.793z"/>
	
		<linearGradient id="SVGID_6_" gradientUnits="userSpaceOnUse" x1="131.4858" y1="167.8047" x2="131.4858" y2="149.7891" gradientTransform="matrix(0.75 0 0 -0.75 81.0537 333.666)">
		<stop  offset="0" style="stop-color:#B5B5B5"/>
		<stop  offset="0.03" style="stop-color:#FFFFFF"/>
		<stop  offset="0.08" style="stop-color:#EBEBEB"/>
		<stop  offset="0.64" style="stop-color:#E7E7E7"/>
		<stop  offset="0.95" style="stop-color:#E2E2E2"/>
		<stop  offset="1" style="stop-color:#A8A8A8"/>
	</linearGradient>
	<path fill="url(#SVGID_6_)" d="M98.668,207.824h161.25c1.5,0,2.164,0.844,2.164,1.906l0.086,9.344c0,1.5-0.945,2.164-2.008,2.164
		l-161.492,0.086c-0.75,0-1.5-0.945-1.5-2.004v-9.246c0-1.5,0.816-2.262,1.875-2.262L98.668,207.824z"/>
	
		<linearGradient id="SVGID_7_" gradientUnits="userSpaceOnUse" x1="-365.3354" y1="79.8853" x2="-365.3354" y2="61.8853" gradientTransform="matrix(0 -0.75 -0.75 0 232.7969 -151.5771)">
		<stop  offset="0" style="stop-color:#B5B5B5"/>
		<stop  offset="0.03" style="stop-color:#FFFFFF"/>
		<stop  offset="0.08" style="stop-color:#EBEBEB"/>
		<stop  offset="0.64" style="stop-color:#E7E7E7"/>
		<stop  offset="0.95" style="stop-color:#E2E2E2"/>
		<stop  offset="1" style="stop-color:#A8A8A8"/>
	</linearGradient>
	<path fill="url(#SVGID_7_)" d="M172.883,248.051v-250.5c0-1.5,0.859-2.145,1.918-2.145l9.332-0.105c1.5,0,2.176,1.023,2.176,2.082
		l0.074,250.668c0,0.75-0.934,1.5-1.992,1.5h-9.258c-1.5,0-2.25-0.797-2.25-1.855V248.051z"/>
</g>
</svg>
