<?xml version="1.0" encoding="utf-8"?>
<!-- Generator: Adobe Illustrator 16.0.0, SVG Export Plug-In . SVG Version: 6.00 Build 0)  -->
<!DOCTYPE svg PUBLIC "-//W3C//DTD SVG 1.1//EN" "http://www.w3.org/Graphics/SVG/1.1/DTD/svg11.dtd">
<svg preserveAspectRatio="none" version="1.1" id="图层_1" xmlns="http://www.w3.org/2000/svg" xmlns:xlink="http://www.w3.org/1999/xlink" x="0px" y="0px"
	 width="340.5px" height="215.25px" viewBox="30 33.969 340.5 215.25" enable-background="new 30 33.969 340.5 215.25"
	 xml:space="preserve">
<g id="surface711">
	
		<linearGradient id="SVGID_1_" gradientUnits="userSpaceOnUse" x1="468.6123" y1="69.7852" x2="14.6123" y2="69.7851" gradientTransform="matrix(0.75 0 0 -0.75 19.04 193.9316)">
		<stop  offset="0" style="stop-color:#B5B5B5"/>
		<stop  offset="0.01" style="stop-color:#FFFFFF"/>
		<stop  offset="0.03" style="stop-color:#EBEBEB"/>
		<stop  offset="0.64" style="stop-color:#E7E7E7"/>
		<stop  offset="0.99" style="stop-color:#E2E2E2"/>
		<stop  offset="1" style="stop-color:#A8A8A8"/>
	</linearGradient>
	<path fill="url(#SVGID_1_)" d="M32.25,33.969h336c1.5,0,2.25,0.996,2.25,2.246v210.754c0,0.75-1.078,2.051-2.34,2.051
		l-335.91,0.199c-1.5,0-2.25-1.23-2.25-2.48V36.219c0-1.5,1.023-2.25,2.285-2.25H32.25z"/>
	<path fill="#A0D8EF" d="M40.281,45.27h318.75v193.5H40.281V45.27z"/>
	<path fill="#CFEBF6" d="M46.734,51.918h306.75v180.75H46.734V51.918z"/>
	<path fill="#7CA8BA" d="M73.035,142.215c0-30,24.508-54,54.777-54c29.973,0,54.773,24.273,54.773,54.25
		c-0.051,29.75-24.539,54.25-54.773,54.25c-30.027,0.25-54.777-24.305-54.777-54.25V142.215z"/>
	<path fill="#CFEBF6" d="M78.09,142.723c0-27.75,22.246-49.5,49.723-49.5c27.527,0,49.719,22.039,49.719,49.242
		c0.309,27.258-22.277,49.242-49.719,49.242c-27.223-0.234-49.723-22.055-49.723-49.242V142.723z"/>
	
		<linearGradient id="SVGID_2_" gradientUnits="userSpaceOnUse" x1="18.6128" y1="147.6338" x2="14.6128" y2="147.6338" gradientTransform="matrix(0.75 0 0 -0.75 115.4814 253.1895)">
		<stop  offset="0" style="stop-color:#7CA8BA"/>
		<stop  offset="0.15" style="stop-color:#BDE2F3"/>
		<stop  offset="0.25" style="stop-color:#C2E4F4"/>
		<stop  offset="0.52" style="stop-color:#8BBDD1"/>
		<stop  offset="0.69" style="stop-color:#7CA8BA"/>
		<stop  offset="0.8" style="stop-color:#749EB0"/>
		<stop  offset="0.92" style="stop-color:#6E95A6"/>
	</linearGradient>
	<path fill="url(#SVGID_2_)" d="M127.191,93.223h1.5c0,0,0.488,0.301,0.488,0.668l0.262,96.832c0,0.75-0.563,0.984-0.934,0.984
		l-1.316-0.234c-0.75,0-0.75-0.063-0.75-0.434V93.973c0-0.75,0.301-0.75,0.676-0.75H127.191z"/>
	
		<linearGradient id="SVGID_3_" gradientUnits="userSpaceOnUse" x1="-484.2144" y1="60.3872" x2="-488.2144" y2="60.3872" gradientTransform="matrix(0 -0.75 -0.75 0 173.2559 -222.3379)">
		<stop  offset="0" style="stop-color:#7CA8BA"/>
		<stop  offset="0.15" style="stop-color:#BDE2F3"/>
		<stop  offset="0.25" style="stop-color:#C2E4F4"/>
		<stop  offset="0.52" style="stop-color:#8BBDD1"/>
		<stop  offset="0.69" style="stop-color:#7CA8BA"/>
		<stop  offset="0.8" style="stop-color:#749EB0"/>
		<stop  offset="0.92" style="stop-color:#6E95A6"/>
	</linearGradient>
	<path fill="url(#SVGID_3_)" d="M78.09,143.074v-1.5c0,0,0.301-0.465,0.676-0.465l98.324-0.285c0,0,0.441,0.586,0.441,0.953
		l0.309,1.297c0,0.75-0.609,0.75-0.984,0.75H78.84c-0.75,0-0.75-0.301-0.75-0.668V143.074z"/>
	
		<linearGradient id="SVGID_4_" gradientUnits="userSpaceOnUse" x1="-214.9067" y1="-0.0552" x2="-218.9102" y2="-0.0552" gradientTransform="matrix(0.5303 -0.5303 -0.5303 -0.5303 242.9252 27.322)">
		<stop  offset="0" style="stop-color:#7CA8BA"/>
		<stop  offset="0.15" style="stop-color:#BDE2F3"/>
		<stop  offset="0.25" style="stop-color:#C2E4F4"/>
		<stop  offset="0.52" style="stop-color:#8BBDD1"/>
		<stop  offset="0.69" style="stop-color:#7CA8BA"/>
		<stop  offset="0.8" style="stop-color:#749EB0"/>
		<stop  offset="0.92" style="stop-color:#6E95A6"/>
	</linearGradient>
	<path fill="url(#SVGID_4_)" d="M92.391,107.91l1.059-1.059c0,0,0.551-0.125,0.813,0.137l69.191,68.805
		c0.531,0.531,0.098,0.91-0.164,1.172l-0.895,0.949c-0.531,0.531-0.77,0.293-1.035,0.031l-68.969-68.973
		c-0.531-0.531-0.32-0.742-0.059-1.004L92.391,107.91z"/>
	
		<linearGradient id="SVGID_5_" gradientUnits="userSpaceOnUse" x1="-631.5537" y1="416.5947" x2="-635.5576" y2="416.5947" gradientTransform="matrix(-0.5303 -0.5303 0.5303 -0.5303 -429.224 27.322)">
		<stop  offset="0" style="stop-color:#7CA8BA"/>
		<stop  offset="0.15" style="stop-color:#BDE2F3"/>
		<stop  offset="0.25" style="stop-color:#C2E4F4"/>
		<stop  offset="0.52" style="stop-color:#8BBDD1"/>
		<stop  offset="0.69" style="stop-color:#7CA8BA"/>
		<stop  offset="0.8" style="stop-color:#749EB0"/>
		<stop  offset="0.92" style="stop-color:#6E95A6"/>
	</linearGradient>
	<path fill="url(#SVGID_5_)" d="M163.234,107.91l-1.063-1.059c0,0-0.547-0.125-0.813,0.137l-69.191,68.805
		c-0.531,0.531-0.098,0.91,0.164,1.172l0.898,0.949c0.527,0.531,0.77,0.293,1.031,0.031l68.973-68.973
		c0.527-0.531,0.316-0.742,0.055-1.004L163.234,107.91z"/>
	
		<linearGradient id="SVGID_6_" gradientUnits="userSpaceOnUse" x1="40.7349" y1="200.3486" x2="14.6147" y2="200.3486" gradientTransform="matrix(0.75 0 0 -0.75 107.0542 292.7285)">
		<stop  offset="0" style="stop-color:#7CA8BA"/>
		<stop  offset="0.15" style="stop-color:#BDE2F3"/>
		<stop  offset="0.25" style="stop-color:#C2E4F4"/>
		<stop  offset="0.52" style="stop-color:#8BBDD1"/>
		<stop  offset="0.69" style="stop-color:#7CA8BA"/>
		<stop  offset="0.8" style="stop-color:#749EB0"/>
		<stop  offset="0.92" style="stop-color:#6E95A6"/>
	</linearGradient>
	<path fill="url(#SVGID_6_)" d="M118.016,142.516c0-5.25,4.383-9.75,9.797-9.75c5.203,0,9.793,4.344,9.793,9.699
		c-0.09,5.301-4.383,9.703-9.793,9.703c-5.297,0.098-9.797-4.344-9.797-9.703V142.516z"/>
	<path fill="#7CA8BA" d="M217.805,142.215c0-30,24.512-54,54.777-54c29.973,0,54.777,24.273,54.777,54.25
		c-0.055,29.75-24.539,54.25-54.777,54.25c-30.027,0.25-54.777-24.305-54.777-54.25V142.215z"/>
	<path fill="#CFEBF6" d="M222.863,142.723c0-27.75,22.246-49.5,49.719-49.5c27.531,0,49.723,22.039,49.723,49.242
		c0.309,27.258-22.277,49.242-49.723,49.242c-27.219-0.234-49.719-22.055-49.719-49.242V142.723z"/>
	
		<linearGradient id="SVGID_7_" gradientUnits="userSpaceOnUse" x1="18.6147" y1="147.6338" x2="14.6147" y2="147.6338" gradientTransform="matrix(0.75 0 0 -0.75 260.2534 253.1895)">
		<stop  offset="0" style="stop-color:#7CA8BA"/>
		<stop  offset="0.15" style="stop-color:#BDE2F3"/>
		<stop  offset="0.25" style="stop-color:#C2E4F4"/>
		<stop  offset="0.52" style="stop-color:#8BBDD1"/>
		<stop  offset="0.69" style="stop-color:#7CA8BA"/>
		<stop  offset="0.8" style="stop-color:#749EB0"/>
		<stop  offset="0.92" style="stop-color:#6E95A6"/>
	</linearGradient>
	<path fill="url(#SVGID_7_)" d="M271.965,93.223h1.5c0,0,0.488,0.301,0.488,0.668l0.262,96.832c0,0.75-0.563,0.984-0.938,0.984
		l-1.313-0.234c-0.75,0-0.75-0.063-0.75-0.434V93.973c0-0.75,0.301-0.75,0.672-0.75H271.965z"/>
	
		<linearGradient id="SVGID_8_" gradientUnits="userSpaceOnUse" x1="-484.2144" y1="60.3853" x2="-488.2144" y2="60.3853" gradientTransform="matrix(0 -0.75 -0.75 0 318.0273 -222.3379)">
		<stop  offset="0" style="stop-color:#7CA8BA"/>
		<stop  offset="0.15" style="stop-color:#BDE2F3"/>
		<stop  offset="0.25" style="stop-color:#C2E4F4"/>
		<stop  offset="0.52" style="stop-color:#8BBDD1"/>
		<stop  offset="0.69" style="stop-color:#7CA8BA"/>
		<stop  offset="0.8" style="stop-color:#749EB0"/>
		<stop  offset="0.92" style="stop-color:#6E95A6"/>
	</linearGradient>
	<path fill="url(#SVGID_8_)" d="M222.863,143.074v-1.5c0,0,0.301-0.465,0.672-0.465l98.328-0.285c0,0,0.441,0.586,0.441,0.953
		l0.309,1.297c0,0.75-0.613,0.75-0.984,0.75h-98.016c-0.75,0-0.75-0.301-0.75-0.668V143.074z"/>
	
		<linearGradient id="SVGID_9_" gradientUnits="userSpaceOnUse" x1="-214.9058" y1="-0.0527" x2="-218.9092" y2="-0.0527" gradientTransform="matrix(0.5303 -0.5303 -0.5303 -0.5303 387.6976 27.322)">
		<stop  offset="0" style="stop-color:#7CA8BA"/>
		<stop  offset="0.15" style="stop-color:#BDE2F3"/>
		<stop  offset="0.25" style="stop-color:#C2E4F4"/>
		<stop  offset="0.52" style="stop-color:#8BBDD1"/>
		<stop  offset="0.69" style="stop-color:#7CA8BA"/>
		<stop  offset="0.8" style="stop-color:#749EB0"/>
		<stop  offset="0.92" style="stop-color:#6E95A6"/>
	</linearGradient>
	<path fill="url(#SVGID_9_)" d="M237.16,107.91l1.063-1.059c0,0,0.547-0.125,0.809,0.137l69.195,68.805
		c0.527,0.531,0.098,0.91-0.168,1.172l-0.895,0.949c-0.531,0.531-0.77,0.293-1.031,0.031l-68.973-68.973
		c-0.527-0.531-0.316-0.742-0.055-1.004L237.16,107.91z"/>
	
		<linearGradient id="SVGID_10_" gradientUnits="userSpaceOnUse" x1="-631.5537" y1="416.5918" x2="-635.5537" y2="416.5918" gradientTransform="matrix(-0.5303 -0.5303 0.5303 -0.5303 -284.4515 27.322)">
		<stop  offset="0" style="stop-color:#7CA8BA"/>
		<stop  offset="0.15" style="stop-color:#BDE2F3"/>
		<stop  offset="0.25" style="stop-color:#C2E4F4"/>
		<stop  offset="0.52" style="stop-color:#8BBDD1"/>
		<stop  offset="0.69" style="stop-color:#7CA8BA"/>
		<stop  offset="0.8" style="stop-color:#749EB0"/>
		<stop  offset="0.92" style="stop-color:#6E95A6"/>
	</linearGradient>
	<path fill="url(#SVGID_10_)" d="M308.004,107.91l-1.059-1.059c0,0-0.551-0.125-0.813,0.137l-69.191,68.805
		c-0.531,0.531-0.098,0.91,0.164,1.172l0.895,0.949c0.531,0.531,0.77,0.293,1.031,0.031l68.973-68.973
		c0.531-0.531,0.32-0.742,0.055-1.004L308.004,107.91z"/>
	
		<linearGradient id="SVGID_11_" gradientUnits="userSpaceOnUse" x1="40.7368" y1="200.3486" x2="14.6118" y2="200.3486" gradientTransform="matrix(0.75 0 0 -0.75 251.8262 292.7285)">
		<stop  offset="0" style="stop-color:#7CA8BA"/>
		<stop  offset="0.15" style="stop-color:#BDE2F3"/>
		<stop  offset="0.25" style="stop-color:#C2E4F4"/>
		<stop  offset="0.52" style="stop-color:#8BBDD1"/>
		<stop  offset="0.69" style="stop-color:#7CA8BA"/>
		<stop  offset="0.8" style="stop-color:#749EB0"/>
		<stop  offset="0.92" style="stop-color:#6E95A6"/>
	</linearGradient>
	<path fill="url(#SVGID_11_)" d="M262.785,142.516c0-5.25,4.387-9.75,9.797-9.75c5.203,0,9.797,4.344,9.797,9.699
		c-0.094,5.301-4.387,9.703-9.797,9.703c-5.297,0.098-9.797-4.344-9.797-9.703V142.516z"/>
</g>
</svg>
