<?xml version="1.0" encoding="utf-8"?>
<!-- Generator: Adobe Illustrator 16.0.0, SVG Export Plug-In . SVG Version: 6.00 Build 0)  -->
<!DOCTYPE svg PUBLIC "-//W3C//DTD SVG 1.1//EN" "http://www.w3.org/Graphics/SVG/1.1/DTD/svg11.dtd">
<svg preserveAspectRatio="none" version="1.1" id="图层_1" xmlns="http://www.w3.org/2000/svg" xmlns:xlink="http://www.w3.org/1999/xlink" x="0px" y="0px"
	 width="339.602px" height="313.164px" viewBox="30.449 -17.555 339.602 313.164"
	 enable-background="new 30.449 -17.555 339.602 313.164" xml:space="preserve">
<g id="surface611">
	
		<linearGradient id="SVGID_1_" gradientUnits="userSpaceOnUse" x1="466.6113" y1="59.7842" x2="14.6113" y2="59.7841" gradientTransform="matrix(0.75 0 0 -0.75 19.7671 225.3223)">
		<stop  offset="0" style="stop-color:#BDBDBD"/>
		<stop  offset="0.15" style="stop-color:#FFFFFF"/>
		<stop  offset="0.25" style="stop-color:#FFFFFF"/>
		<stop  offset="0.52" style="stop-color:#DFDFDF"/>
		<stop  offset="0.69" style="stop-color:#C7C7C7"/>
		<stop  offset="0.8" style="stop-color:#BCBCBC"/>
		<stop  offset="0.92" style="stop-color:#B1B1B1"/>
		<stop  offset="1" style="stop-color:#CBCBCB"/>
	</linearGradient>
	<path fill="url(#SVGID_1_)" d="M30.727,65.359h339v230.25h-339V65.359z"/>
	
		<linearGradient id="SVGID_2_" gradientUnits="userSpaceOnUse" x1="467.4131" y1="157.7861" x2="14.6113" y2="157.7861" gradientTransform="matrix(0.75 0 0 -0.75 19.4902 142.4082)">
		<stop  offset="0" style="stop-color:#93AFBA"/>
		<stop  offset="0.15" style="stop-color:#C5E6F4"/>
		<stop  offset="0.25" style="stop-color:#DFF1F8"/>
		<stop  offset="0.44" style="stop-color:#A8C7D5"/>
		<stop  offset="0.6" style="stop-color:#95B1BD"/>
		<stop  offset="0.8" style="stop-color:#7D95A0"/>
		<stop  offset="0.97" style="stop-color:#728992"/>
		<stop  offset="1" style="stop-color:#99B6C2"/>
	</linearGradient>
	<path fill="url(#SVGID_2_)" d="M30.449,65.695c0-34.5,76.301-83.25,169.801-83.25c94.199,0,169.801,48.844,169.801,83.188
		c0.148,0.063-339.602,0-339.602,0V65.695z"/>
	
		<linearGradient id="SVGID_3_" gradientUnits="userSpaceOnUse" x1="393.6104" y1="209.7881" x2="14.6104" y2="209.7881" gradientTransform="matrix(0.75 0 0 -0.75 47.1899 179.9961)">
		<stop  offset="0" style="stop-color:#BDBDBD"/>
		<stop  offset="0.15" style="stop-color:#FFFFFF"/>
		<stop  offset="0.25" style="stop-color:#FFFFFF"/>
		<stop  offset="0.52" style="stop-color:#DFDFDF"/>
		<stop  offset="0.69" style="stop-color:#C7C7C7"/>
		<stop  offset="0.8" style="stop-color:#BCBCBC"/>
		<stop  offset="0.92" style="stop-color:#B1B1B1"/>
		<stop  offset="1" style="stop-color:#CBCBCB"/>
	</linearGradient>
	<path fill="url(#SVGID_3_)" d="M65.648,20.031h269.25l7.5,5.25H58.148L65.648,20.031z"/>
	<path fill="#CDCECE" d="M200.715-17.555c0,0-92.16,12.895-153,82.914l12,0.336c0,0,53.637-64.828,140.625-83.25H200.715z"/>
	<path fill="#CDCECE" d="M200.309-17.555c0,0-48.188,25.059-81.75,83.328l9-0.078c0,0,33.426-58.191,72.852-83.25H200.309z"/>
	<path fill="#CDCECE" d="M200.211-17.555l-5.25,83.25h9L200.211-17.555z"/>
	<path fill="#EEEEEE" d="M199.828-17.555c0,0,92.16,12.895,153,82.914l-12,0.336c0,0-53.637-64.828-140.625-83.25H199.828z"/>
	<path fill="#EEEEEE" d="M200.234-17.555c0,0,48.188,25.059,81.75,83.328l-9-0.078c0,0-33.426-58.191-72.852-83.25H200.234z"/>
	
		<linearGradient id="SVGID_4_" gradientUnits="userSpaceOnUse" x1="466.6123" y1="208.2842" x2="14.6123" y2="208.2841" gradientTransform="matrix(0.75 0 0 -0.75 19.7666 225.3223)">
		<stop  offset="0" style="stop-color:#403E3E"/>
		<stop  offset="0.15" style="stop-color:#6D6C6C"/>
		<stop  offset="0.25" style="stop-color:#BCBCBC"/>
		<stop  offset="0.52" style="stop-color:#4D4B4B"/>
		<stop  offset="0.69" style="stop-color:#434242"/>
		<stop  offset="0.8" style="stop-color:#3F3E3E"/>
		<stop  offset="0.92" style="stop-color:#3B3A3A"/>
		<stop  offset="1" style="stop-color:#454444"/>
	</linearGradient>
	<path fill="url(#SVGID_4_)" d="M30.727,65.359h339v7.5h-339V65.359z"/>
</g>
</svg>
