<?xml version="1.0" encoding="utf-8"?>
<!-- Generator: Adobe Illustrator 16.0.0, SVG Export Plug-In . SVG Version: 6.00 Build 0)  -->
<!DOCTYPE svg PUBLIC "-//W3C//DTD SVG 1.1//EN" "http://www.w3.org/Graphics/SVG/1.1/DTD/svg11.dtd">
<svg preserveAspectRatio="none" version="1.1" id="图层_1" xmlns="http://www.w3.org/2000/svg" xmlns:xlink="http://www.w3.org/1999/xlink" x="0px" y="0px"
	 width="340.5px" height="228.75px" viewBox="30 27.246 340.5 228.75" enable-background="new 30 27.246 340.5 228.75"
	 xml:space="preserve">
<g id="surface721">
	
		<linearGradient id="SVGID_1_" gradientUnits="userSpaceOnUse" x1="468.6123" y1="60.7881" x2="14.6123" y2="60.788" gradientTransform="matrix(0.75 0 0 -0.75 19.04 187.2109)">
		<stop  offset="0" style="stop-color:#A8A8A8"/>
		<stop  offset="0.01" style="stop-color:#F2F2F2"/>
		<stop  offset="0.03" style="stop-color:#DBDBDB"/>
		<stop  offset="0.64" style="stop-color:#D8D8D8"/>
		<stop  offset="0.99" style="stop-color:#D3D3D3"/>
		<stop  offset="1" style="stop-color:#9C9C9C"/>
	</linearGradient>
	<path fill="url(#SVGID_1_)" d="M32.25,27.246h336c1.5,0,2.25,0.949,2.25,2.188v224.313c0,0.75-1.07,1.992-2.324,1.992
		L32.25,255.996c-1.5,0-2.25-1.293-2.25-2.531V29.496c0-1.5,0.965-2.25,2.219-2.25H32.25z"/>
	<path fill="#EEEEEE" d="M50.34,43.832h300c0.75,0,2.07,1,2.07,2.238l0.18,190.512c0,1.5-1.195,2.574-2.449,2.574L50.34,238.832
		c-1.5,0-2.25-0.68-2.25-1.914V46.082c0-1.5,1.016-2.25,2.27-2.25H50.34z"/>
	<path fill="#595757" stroke="#595757" stroke-linejoin="bevel" stroke-miterlimit="10" d="M65.059,51.371h8.25
		c1.5,0,2.27,1.301,2.27,2.902l-0.02,75.848c0,1.5-0.996,2.926-2.25,2.926l-8.25,0.074c-1.5,0-2.25-1.375-2.25-2.977V54.371
		c0-1.5,1.016-3,2.27-3H65.059z"/>
	<path fill="#595757" stroke="#595757" stroke-linejoin="bevel" stroke-miterlimit="10" d="M97.816,51.371h8.25
		c1.5,0,2.27,1.301,2.27,2.902l-0.02,75.848c0,1.5-0.996,2.926-2.25,2.926l-8.25,0.074c-1.5,0-2.25-1.375-2.25-2.977V54.371
		c0-1.5,1.02-3,2.27-3H97.816z"/>
	<path fill="#595757" stroke="#595757" stroke-linejoin="bevel" stroke-miterlimit="10" d="M130.578,51.371h8.25
		c1.5,0,2.27,1.301,2.27,2.902l-0.02,75.848c0,1.5-1,2.926-2.254,2.926l-8.246,0.074c-1.5,0-2.25-1.375-2.25-2.977V54.371
		c0-1.5,1.016-3,2.27-3H130.578z"/>
	<path fill="#595757" stroke="#595757" stroke-linejoin="bevel" stroke-miterlimit="10" d="M196.117,51.371h8.25
		c1.5,0,2.266,1.301,2.266,2.902l-0.016,75.848c0,1.5-1,2.926-2.254,2.926l-8.246,0.074c-1.5,0-2.25-1.375-2.25-2.977V54.371
		c0-1.5,1.016-3,2.27-3H196.117z"/>
	<path fill="#595757" stroke="#595757" stroke-linejoin="bevel" stroke-miterlimit="10" d="M261.613,51.371h8.25
		c1.5,0,2.27,1.301,2.27,2.902l-0.02,75.848c0,1.5-0.996,2.926-2.25,2.926l-8.25,0.074c-1.5,0-2.25-1.375-2.25-2.977V54.371
		c0-1.5,1.016-3,2.27-3H261.613z"/>
	<path fill="#595757" stroke="#595757" stroke-linejoin="bevel" stroke-miterlimit="10" d="M228.855,51.371h8.25
		c1.5,0,2.27,1.301,2.27,2.902l-0.02,75.848c0,1.5-0.996,2.926-2.25,2.926l-8.25,0.074c-1.5,0-2.25-1.375-2.25-2.977V54.371
		c0-1.5,1.016-3,2.27-3H228.855z"/>
	<path fill="#595757" stroke="#595757" stroke-linejoin="bevel" stroke-miterlimit="10" d="M294.375,51.371h8.25
		c1.5,0,2.27,1.301,2.27,2.902l-0.02,75.848c0,1.5-1,2.926-2.254,2.926l-8.246,0.074c-1.5,0-2.25-1.375-2.25-2.977V54.371
		c0-1.5,1.016-3,2.27-3H294.375z"/>
	<path fill="#595757" stroke="#595757" stroke-linejoin="bevel" stroke-miterlimit="10" d="M327.133,51.371h8.25
		c1.5,0,2.27,1.301,2.27,2.902l-0.02,75.848c0,1.5-0.996,2.926-2.25,2.926l-8.25,0.074c-1.5,0-2.25-1.375-2.25-2.977V54.371
		c0-1.5,1.016-3,2.27-3H327.133z"/>
	<path fill="#595757" stroke="#595757" stroke-linejoin="bevel" stroke-miterlimit="10" d="M163.336,51.371h8.25
		c1.5,0,2.27,1.301,2.27,2.902l-0.02,75.848c0,1.5-0.996,2.926-2.25,2.926l-8.25,0.074c-1.5,0-2.25-1.375-2.25-2.977V54.371
		c0-1.5,1.016-3,2.27-3H163.336z"/>
	<path fill="#595757" stroke="#595757" stroke-linejoin="bevel" stroke-miterlimit="10" d="M65.059,151.531h8.25
		c1.5,0,2.27,1.301,2.27,2.906l-0.02,75.844c0,1.5-0.996,2.926-2.25,2.926l-8.25,0.074c-1.5,0-2.25-1.371-2.25-2.977v-75.773
		c0-1.5,1.016-3,2.27-3H65.059z"/>
	<path fill="#595757" stroke="#595757" stroke-linejoin="bevel" stroke-miterlimit="10" d="M97.816,151.531h8.25
		c1.5,0,2.27,1.301,2.27,2.906l-0.02,75.844c0,1.5-0.996,2.926-2.25,2.926l-8.25,0.074c-1.5,0-2.25-1.371-2.25-2.977v-75.773
		c0-1.5,1.02-3,2.27-3H97.816z"/>
	<path fill="#595757" stroke="#595757" stroke-linejoin="bevel" stroke-miterlimit="10" d="M130.578,151.531h8.25
		c1.5,0,2.27,1.301,2.27,2.906l-0.02,75.844c0,1.5-1,2.926-2.254,2.926l-8.246,0.074c-1.5,0-2.25-1.371-2.25-2.977v-75.773
		c0-1.5,1.016-3,2.27-3H130.578z"/>
	<path fill="#595757" stroke="#595757" stroke-linejoin="bevel" stroke-miterlimit="10" d="M196.117,151.531h8.25
		c1.5,0,2.266,1.301,2.266,2.906l-0.016,75.844c0,1.5-1,2.926-2.254,2.926l-8.246,0.074c-1.5,0-2.25-1.371-2.25-2.977v-75.773
		c0-1.5,1.016-3,2.27-3H196.117z"/>
	<path fill="#595757" stroke="#595757" stroke-linejoin="bevel" stroke-miterlimit="10" d="M261.613,151.531h8.25
		c1.5,0,2.27,1.301,2.27,2.906l-0.02,75.844c0,1.5-0.996,2.926-2.25,2.926l-8.25,0.074c-1.5,0-2.25-1.371-2.25-2.977v-75.773
		c0-1.5,1.016-3,2.27-3H261.613z"/>
	<path fill="#595757" stroke="#595757" stroke-linejoin="bevel" stroke-miterlimit="10" d="M228.855,151.531h8.25
		c1.5,0,2.27,1.301,2.27,2.906l-0.02,75.844c0,1.5-0.996,2.926-2.25,2.926l-8.25,0.074c-1.5,0-2.25-1.371-2.25-2.977v-75.773
		c0-1.5,1.016-3,2.27-3H228.855z"/>
	<path fill="#595757" stroke="#595757" stroke-linejoin="bevel" stroke-miterlimit="10" d="M294.375,151.531h8.25
		c1.5,0,2.27,1.301,2.27,2.906l-0.02,75.844c0,1.5-1,2.926-2.254,2.926l-8.246,0.074c-1.5,0-2.25-1.371-2.25-2.977v-75.773
		c0-1.5,1.016-3,2.27-3H294.375z"/>
	<path fill="#595757" stroke="#595757" stroke-linejoin="bevel" stroke-miterlimit="10" d="M327.133,151.531h8.25
		c1.5,0,2.27,1.301,2.27,2.906l-0.02,75.844c0,1.5-0.996,2.926-2.25,2.926l-8.25,0.074c-1.5,0-2.25-1.371-2.25-2.977v-75.773
		c0-1.5,1.016-3,2.27-3H327.133z"/>
	<path fill="#595757" stroke="#595757" stroke-linejoin="bevel" stroke-miterlimit="10" d="M163.336,151.531h8.25
		c1.5,0,2.27,1.301,2.27,2.906l-0.02,75.844c0,1.5-0.996,2.926-2.25,2.926l-8.25,0.074c-1.5,0-2.25-1.371-2.25-2.977v-75.773
		c0-1.5,1.016-3,2.27-3H163.336z"/>
</g>
</svg>
