<?xml version="1.0" encoding="utf-8"?>
<!-- Generator: Adobe Illustrator 16.0.0, SVG Export Plug-In . SVG Version: 6.00 Build 0)  -->
<!DOCTYPE svg PUBLIC "-//W3C//DTD SVG 1.1//EN" "http://www.w3.org/Graphics/SVG/1.1/DTD/svg11.dtd">
<svg preserveAspectRatio="none" version="1.1" id="图层_1" xmlns="http://www.w3.org/2000/svg" xmlns:xlink="http://www.w3.org/1999/xlink" x="0px" y="0px"
	 width="340.5px" height="309.445px" viewBox="30 -13.141 340.5 309.445" enable-background="new 30 -13.141 340.5 309.445"
	 xml:space="preserve">
<g id="surface626">
	
		<linearGradient id="SVGID_1_" gradientUnits="userSpaceOnUse" x1="468.6123" y1="44.2852" x2="14.6123" y2="44.2851" gradientTransform="matrix(0.75 0 0 -0.75 19.04 202.7676)">
		<stop  offset="0" style="stop-color:#C4C4C4"/>
		<stop  offset="0.15" style="stop-color:#FFFFFF"/>
		<stop  offset="0.25" style="stop-color:#FFFFFF"/>
		<stop  offset="0.52" style="stop-color:#DFDFDF"/>
		<stop  offset="0.69" style="stop-color:#C7C7C7"/>
		<stop  offset="0.8" style="stop-color:#BCBCBC"/>
		<stop  offset="0.97" style="stop-color:#B1B1B1"/>
		<stop  offset="1" style="stop-color:#CBCBCB"/>
	</linearGradient>
	<path fill="url(#SVGID_1_)" d="M33.75,42.805h333c2.25,0,3.75,1.637,3.75,3.754v245.246c0,2.25-1.848,4.203-3.992,4.203
		L33.75,296.305c-2.25,0-3.75-2.223-3.75-4.34V46.555c0-2.25,1.699-3.75,3.844-3.75H33.75z"/>
	
		<linearGradient id="SVGID_2_" gradientUnits="userSpaceOnUse" x1="468.6123" y1="194.8135" x2="14.6123" y2="194.8134" gradientTransform="matrix(0.75 0 0 -0.75 19.04 178.4297)">
		<stop  offset="0" style="stop-color:#C4AA84"/>
		<stop  offset="0.15" style="stop-color:#FFE0B3"/>
		<stop  offset="0.25" style="stop-color:#FFEED7"/>
		<stop  offset="0.52" style="stop-color:#DFC297"/>
		<stop  offset="0.69" style="stop-color:#C7AD86"/>
		<stop  offset="0.8" style="stop-color:#BCA37E"/>
		<stop  offset="0.97" style="stop-color:#B19A77"/>
		<stop  offset="1" style="stop-color:#CBB189"/>
	</linearGradient>
	<path fill="url(#SVGID_2_)" d="M33.75,18.465h333c2.25,0,3.75,1.68,3.75,3.797v23.953H30v-24c0-2.25,1.734-3.789,3.875-3.789
		L33.75,18.465z"/>
	
		<linearGradient id="SVGID_3_" gradientUnits="userSpaceOnUse" x1="468.6123" y1="208.7861" x2="14.6123" y2="208.7861" gradientTransform="matrix(0.75 0 0 -0.75 19.04 235.0693)">
		<stop  offset="0" style="stop-color:#C4AA84"/>
		<stop  offset="0.15" style="stop-color:#FFE0B3"/>
		<stop  offset="0.25" style="stop-color:#FFEED7"/>
		<stop  offset="0.52" style="stop-color:#DFC297"/>
		<stop  offset="0.69" style="stop-color:#C7AD86"/>
		<stop  offset="0.8" style="stop-color:#BCA37E"/>
		<stop  offset="0.97" style="stop-color:#B19A77"/>
		<stop  offset="1" style="stop-color:#CBB189"/>
	</linearGradient>
	<path fill="url(#SVGID_3_)" d="M370.5,75.105v6.75H30v-6.75H370.5z"/>
	
		<linearGradient id="SVGID_4_" gradientUnits="userSpaceOnUse" x1="468.6123" y1="208.7842" x2="14.6123" y2="208.7841" gradientTransform="matrix(0.75 0 0 -0.75 19.04 281.5488)">
		<stop  offset="0" style="stop-color:#C4AA84"/>
		<stop  offset="0.15" style="stop-color:#FFE0B3"/>
		<stop  offset="0.25" style="stop-color:#FFEED7"/>
		<stop  offset="0.52" style="stop-color:#DFC297"/>
		<stop  offset="0.69" style="stop-color:#C7AD86"/>
		<stop  offset="0.8" style="stop-color:#BCA37E"/>
		<stop  offset="0.97" style="stop-color:#B19A77"/>
		<stop  offset="1" style="stop-color:#CBB189"/>
	</linearGradient>
	<path fill="url(#SVGID_4_)" d="M370.5,121.586v6.75H30v-6.75H370.5z"/>
	
		<linearGradient id="SVGID_5_" gradientUnits="userSpaceOnUse" x1="468.6123" y1="208.7861" x2="14.6123" y2="208.7861" gradientTransform="matrix(0.75 0 0 -0.75 19.04 374.5107)">
		<stop  offset="0" style="stop-color:#C4AA84"/>
		<stop  offset="0.15" style="stop-color:#FFE0B3"/>
		<stop  offset="0.25" style="stop-color:#FFEED7"/>
		<stop  offset="0.52" style="stop-color:#DFC297"/>
		<stop  offset="0.69" style="stop-color:#C7AD86"/>
		<stop  offset="0.8" style="stop-color:#BCA37E"/>
		<stop  offset="0.97" style="stop-color:#B19A77"/>
		<stop  offset="1" style="stop-color:#CBB189"/>
	</linearGradient>
	<path fill="url(#SVGID_5_)" d="M370.5,214.547v6.75H30v-6.75H370.5z"/>
	
		<linearGradient id="SVGID_6_" gradientUnits="userSpaceOnUse" x1="468.6123" y1="208.7881" x2="14.6123" y2="208.788" gradientTransform="matrix(0.75 0 0 -0.75 19.04 420.9922)">
		<stop  offset="0" style="stop-color:#C4AA84"/>
		<stop  offset="0.15" style="stop-color:#FFE0B3"/>
		<stop  offset="0.25" style="stop-color:#FFEED7"/>
		<stop  offset="0.52" style="stop-color:#DFC297"/>
		<stop  offset="0.69" style="stop-color:#C7AD86"/>
		<stop  offset="0.8" style="stop-color:#BCA37E"/>
		<stop  offset="0.97" style="stop-color:#B19A77"/>
		<stop  offset="1" style="stop-color:#CBB189"/>
	</linearGradient>
	<path fill="url(#SVGID_6_)" d="M370.5,261.027v6.75H30v-6.75H370.5z"/>
	
		<linearGradient id="SVGID_7_" gradientUnits="userSpaceOnUse" x1="468.6123" y1="208.7871" x2="14.6123" y2="208.7871" gradientTransform="matrix(0.75 0 0 -0.75 19.04 328.6992)">
		<stop  offset="0" style="stop-color:#C4AA84"/>
		<stop  offset="0.15" style="stop-color:#FFE0B3"/>
		<stop  offset="0.25" style="stop-color:#FFEED7"/>
		<stop  offset="0.52" style="stop-color:#DFC297"/>
		<stop  offset="0.69" style="stop-color:#C7AD86"/>
		<stop  offset="0.8" style="stop-color:#BCA37E"/>
		<stop  offset="0.97" style="stop-color:#B19A77"/>
		<stop  offset="1" style="stop-color:#CBB189"/>
	</linearGradient>
	<path fill="url(#SVGID_7_)" d="M370.5,168.734v6.75H30v-6.75H370.5z"/>
	
		<linearGradient id="SVGID_8_" gradientUnits="userSpaceOnUse" x1="20.7642" y1="192.291" x2="14.6138" y2="192.291" gradientTransform="matrix(0.75 0 0 -0.75 21.8442 146.8262)">
		<stop  offset="0" style="stop-color:#BDA47F"/>
		<stop  offset="0.15" style="stop-color:#FFE0B3"/>
		<stop  offset="0.25" style="stop-color:#FFEED7"/>
		<stop  offset="0.52" style="stop-color:#DFC297"/>
		<stop  offset="0.69" style="stop-color:#C7AD86"/>
		<stop  offset="0.8" style="stop-color:#BCA37E"/>
		<stop  offset="0.92" style="stop-color:#B19A77"/>
		<stop  offset="1" style="stop-color:#CBB189"/>
	</linearGradient>
	<path fill="url(#SVGID_8_)" d="M34.305-13.141h1.5c0.75,0,1.613,0.789,1.613,1.801l-0.113,29.699h-4.5v-30
		c0-0.75,0.805-1.5,1.832-1.5H34.305z"/>
	
		<linearGradient id="SVGID_9_" gradientUnits="userSpaceOnUse" x1="20.7676" y1="192.291" x2="14.6113" y2="192.291" gradientTransform="matrix(0.75 0 0 -0.75 49.2402 146.8262)">
		<stop  offset="0" style="stop-color:#BDA47F"/>
		<stop  offset="0.15" style="stop-color:#FFE0B3"/>
		<stop  offset="0.25" style="stop-color:#FFEED7"/>
		<stop  offset="0.52" style="stop-color:#DFC297"/>
		<stop  offset="0.69" style="stop-color:#C7AD86"/>
		<stop  offset="0.8" style="stop-color:#BCA37E"/>
		<stop  offset="0.92" style="stop-color:#B19A77"/>
		<stop  offset="1" style="stop-color:#CBB189"/>
	</linearGradient>
	<path fill="url(#SVGID_9_)" d="M61.699-13.141h1.5c0.75,0,1.617,0.789,1.617,1.801l-0.117,29.699h-4.5v-30
		c0-0.75,0.809-1.5,1.832-1.5H61.699z"/>
	
		<linearGradient id="SVGID_10_" gradientUnits="userSpaceOnUse" x1="20.7651" y1="192.291" x2="14.6138" y2="192.291" gradientTransform="matrix(0.75 0 0 -0.75 76.6367 146.8262)">
		<stop  offset="0" style="stop-color:#BDA47F"/>
		<stop  offset="0.15" style="stop-color:#FFE0B3"/>
		<stop  offset="0.25" style="stop-color:#FFEED7"/>
		<stop  offset="0.52" style="stop-color:#DFC297"/>
		<stop  offset="0.69" style="stop-color:#C7AD86"/>
		<stop  offset="0.8" style="stop-color:#BCA37E"/>
		<stop  offset="0.92" style="stop-color:#B19A77"/>
		<stop  offset="1" style="stop-color:#CBB189"/>
	</linearGradient>
	<path fill="url(#SVGID_10_)" d="M89.098-13.141h1.5c0.75,0,1.613,0.789,1.613,1.801l-0.113,29.699h-4.5v-30
		c0-0.75,0.805-1.5,1.828-1.5H89.098z"/>
	
		<linearGradient id="SVGID_11_" gradientUnits="userSpaceOnUse" x1="20.7681" y1="192.291" x2="14.6118" y2="192.291" gradientTransform="matrix(0.75 0 0 -0.75 104.0332 146.8262)">
		<stop  offset="0" style="stop-color:#BDA47F"/>
		<stop  offset="0.15" style="stop-color:#FFE0B3"/>
		<stop  offset="0.25" style="stop-color:#FFEED7"/>
		<stop  offset="0.52" style="stop-color:#DFC297"/>
		<stop  offset="0.69" style="stop-color:#C7AD86"/>
		<stop  offset="0.8" style="stop-color:#BCA37E"/>
		<stop  offset="0.92" style="stop-color:#B19A77"/>
		<stop  offset="1" style="stop-color:#CBB189"/>
	</linearGradient>
	<path fill="url(#SVGID_11_)" d="M116.492-13.141h1.5c0.75,0,1.617,0.789,1.617,1.801l-0.117,29.699h-4.5v-30
		c0-0.75,0.809-1.5,1.832-1.5H116.492z"/>
	
		<linearGradient id="SVGID_12_" gradientUnits="userSpaceOnUse" x1="20.7656" y1="192.291" x2="14.6143" y2="192.291" gradientTransform="matrix(0.75 0 0 -0.75 131.4297 146.8262)">
		<stop  offset="0" style="stop-color:#BDA47F"/>
		<stop  offset="0.15" style="stop-color:#FFE0B3"/>
		<stop  offset="0.25" style="stop-color:#FFEED7"/>
		<stop  offset="0.52" style="stop-color:#DFC297"/>
		<stop  offset="0.69" style="stop-color:#C7AD86"/>
		<stop  offset="0.8" style="stop-color:#BCA37E"/>
		<stop  offset="0.92" style="stop-color:#B19A77"/>
		<stop  offset="1" style="stop-color:#CBB189"/>
	</linearGradient>
	<path fill="url(#SVGID_12_)" d="M143.891-13.141h1.5c0.75,0,1.613,0.789,1.613,1.801l-0.113,29.699h-4.5v-30
		c0-0.75,0.805-1.5,1.828-1.5H143.891z"/>
	
		<linearGradient id="SVGID_13_" gradientUnits="userSpaceOnUse" x1="20.7681" y1="192.291" x2="14.6118" y2="192.291" gradientTransform="matrix(0.75 0 0 -0.75 158.8262 146.8262)">
		<stop  offset="0" style="stop-color:#BDA47F"/>
		<stop  offset="0.15" style="stop-color:#FFE0B3"/>
		<stop  offset="0.25" style="stop-color:#FFEED7"/>
		<stop  offset="0.52" style="stop-color:#DFC297"/>
		<stop  offset="0.69" style="stop-color:#C7AD86"/>
		<stop  offset="0.8" style="stop-color:#BCA37E"/>
		<stop  offset="0.92" style="stop-color:#B19A77"/>
		<stop  offset="1" style="stop-color:#CBB189"/>
	</linearGradient>
	<path fill="url(#SVGID_13_)" d="M171.285-13.141h1.5c0.75,0,1.617,0.789,1.617,1.801l-0.117,29.699h-4.5v-30
		c0-0.75,0.805-1.5,1.832-1.5H171.285z"/>
	
		<linearGradient id="SVGID_14_" gradientUnits="userSpaceOnUse" x1="20.7651" y1="192.291" x2="14.6147" y2="192.291" gradientTransform="matrix(0.75 0 0 -0.75 186.2227 146.8262)">
		<stop  offset="0" style="stop-color:#BDA47F"/>
		<stop  offset="0.15" style="stop-color:#FFE0B3"/>
		<stop  offset="0.25" style="stop-color:#FFEED7"/>
		<stop  offset="0.52" style="stop-color:#DFC297"/>
		<stop  offset="0.69" style="stop-color:#C7AD86"/>
		<stop  offset="0.8" style="stop-color:#BCA37E"/>
		<stop  offset="0.92" style="stop-color:#B19A77"/>
		<stop  offset="1" style="stop-color:#CBB189"/>
	</linearGradient>
	<path fill="url(#SVGID_14_)" d="M198.684-13.141h1.5c0.75,0,1.613,0.789,1.613,1.801l-0.113,29.699h-4.5v-30
		c0-0.75,0.805-1.5,1.828-1.5H198.684z"/>
	
		<linearGradient id="SVGID_15_" gradientUnits="userSpaceOnUse" x1="20.7676" y1="192.291" x2="14.6113" y2="192.291" gradientTransform="matrix(0.75 0 0 -0.75 213.6191 146.8262)">
		<stop  offset="0" style="stop-color:#BDA47F"/>
		<stop  offset="0.15" style="stop-color:#FFE0B3"/>
		<stop  offset="0.25" style="stop-color:#FFEED7"/>
		<stop  offset="0.52" style="stop-color:#DFC297"/>
		<stop  offset="0.69" style="stop-color:#C7AD86"/>
		<stop  offset="0.8" style="stop-color:#BCA37E"/>
		<stop  offset="0.92" style="stop-color:#B19A77"/>
		<stop  offset="1" style="stop-color:#CBB189"/>
	</linearGradient>
	<path fill="url(#SVGID_15_)" d="M226.078-13.141h1.5c0.75,0,1.617,0.789,1.617,1.801l-0.117,29.699h-4.5v-30
		c0-0.75,0.805-1.5,1.832-1.5H226.078z"/>
	
		<linearGradient id="SVGID_16_" gradientUnits="userSpaceOnUse" x1="20.7661" y1="192.291" x2="14.6147" y2="192.291" gradientTransform="matrix(0.75 0 0 -0.75 241.0151 146.8262)">
		<stop  offset="0" style="stop-color:#BDA47F"/>
		<stop  offset="0.15" style="stop-color:#FFE0B3"/>
		<stop  offset="0.25" style="stop-color:#FFEED7"/>
		<stop  offset="0.52" style="stop-color:#DFC297"/>
		<stop  offset="0.69" style="stop-color:#C7AD86"/>
		<stop  offset="0.8" style="stop-color:#BCA37E"/>
		<stop  offset="0.92" style="stop-color:#B19A77"/>
		<stop  offset="1" style="stop-color:#CBB189"/>
	</linearGradient>
	<path fill="url(#SVGID_16_)" d="M253.477-13.141h1.5c0.75,0,1.613,0.789,1.613,1.801l-0.113,29.699h-4.5v-30
		c0-0.75,0.805-1.5,1.828-1.5H253.477z"/>
	
		<linearGradient id="SVGID_17_" gradientUnits="userSpaceOnUse" x1="20.7686" y1="192.291" x2="14.6123" y2="192.291" gradientTransform="matrix(0.75 0 0 -0.75 268.4116 146.8262)">
		<stop  offset="0" style="stop-color:#BDA47F"/>
		<stop  offset="0.15" style="stop-color:#FFE0B3"/>
		<stop  offset="0.25" style="stop-color:#FFEED7"/>
		<stop  offset="0.52" style="stop-color:#DFC297"/>
		<stop  offset="0.69" style="stop-color:#C7AD86"/>
		<stop  offset="0.8" style="stop-color:#BCA37E"/>
		<stop  offset="0.92" style="stop-color:#B19A77"/>
		<stop  offset="1" style="stop-color:#CBB189"/>
	</linearGradient>
	<path fill="url(#SVGID_17_)" d="M280.871-13.141h1.5c0.75,0,1.617,0.789,1.617,1.801l-0.117,29.699h-4.5v-30
		c0-0.75,0.805-1.5,1.832-1.5H280.871z"/>
	
		<linearGradient id="SVGID_18_" gradientUnits="userSpaceOnUse" x1="20.7661" y1="192.291" x2="14.6147" y2="192.291" gradientTransform="matrix(0.75 0 0 -0.75 295.8081 146.8262)">
		<stop  offset="0" style="stop-color:#BDA47F"/>
		<stop  offset="0.15" style="stop-color:#FFE0B3"/>
		<stop  offset="0.25" style="stop-color:#FFEED7"/>
		<stop  offset="0.52" style="stop-color:#DFC297"/>
		<stop  offset="0.69" style="stop-color:#C7AD86"/>
		<stop  offset="0.8" style="stop-color:#BCA37E"/>
		<stop  offset="0.92" style="stop-color:#B19A77"/>
		<stop  offset="1" style="stop-color:#CBB189"/>
	</linearGradient>
	<path fill="url(#SVGID_18_)" d="M308.27-13.141h1.5c0.75,0,1.613,0.789,1.613,1.801l-0.113,29.699h-4.5v-30
		c0-0.75,0.805-1.5,1.828-1.5H308.27z"/>
	
		<linearGradient id="SVGID_19_" gradientUnits="userSpaceOnUse" x1="20.769" y1="192.291" x2="14.6128" y2="192.291" gradientTransform="matrix(0.75 0 0 -0.75 323.2046 146.8262)">
		<stop  offset="0" style="stop-color:#BDA47F"/>
		<stop  offset="0.15" style="stop-color:#FFE0B3"/>
		<stop  offset="0.25" style="stop-color:#FFEED7"/>
		<stop  offset="0.52" style="stop-color:#DFC297"/>
		<stop  offset="0.69" style="stop-color:#C7AD86"/>
		<stop  offset="0.8" style="stop-color:#BCA37E"/>
		<stop  offset="0.92" style="stop-color:#B19A77"/>
		<stop  offset="1" style="stop-color:#CBB189"/>
	</linearGradient>
	<path fill="url(#SVGID_19_)" d="M335.664-13.141h1.5c0.75,0,1.617,0.789,1.617,1.801l-0.117,29.699h-4.5v-30
		c0-0.75,0.805-1.5,1.832-1.5H335.664z"/>
	
		<linearGradient id="SVGID_20_" gradientUnits="userSpaceOnUse" x1="20.7656" y1="192.291" x2="14.6152" y2="192.291" gradientTransform="matrix(0.75 0 0 -0.75 350.6011 146.8262)">
		<stop  offset="0" style="stop-color:#BDA47F"/>
		<stop  offset="0.15" style="stop-color:#FFE0B3"/>
		<stop  offset="0.25" style="stop-color:#FFEED7"/>
		<stop  offset="0.52" style="stop-color:#DFC297"/>
		<stop  offset="0.69" style="stop-color:#C7AD86"/>
		<stop  offset="0.8" style="stop-color:#BCA37E"/>
		<stop  offset="0.92" style="stop-color:#B19A77"/>
		<stop  offset="1" style="stop-color:#CBB189"/>
	</linearGradient>
	<path fill="url(#SVGID_20_)" d="M363.063-13.141h1.5c0.75,0,1.613,0.789,1.613,1.801l-0.113,29.699h-4.5v-30
		c0-0.75,0.805-1.5,1.828-1.5H363.063z"/>
</g>
</svg>
