<?xml version="1.0" encoding="utf-8"?>
<!-- Generator: Adobe Illustrator 16.0.0, SVG Export Plug-In . SVG Version: 6.00 Build 0)  -->
<!DOCTYPE svg PUBLIC "-//W3C//DTD SVG 1.1//EN" "http://www.w3.org/Graphics/SVG/1.1/DTD/svg11.dtd">
<svg preserveAspectRatio="none" version="1.1" id="图层_1" xmlns="http://www.w3.org/2000/svg" xmlns:xlink="http://www.w3.org/1999/xlink" x="0px" y="0px"
	 width="340.5px" height="224.859px" viewBox="30 29.199 340.5 224.859" enable-background="new 30 29.199 340.5 224.859"
	 xml:space="preserve">
<g id="surface636">
	
		<linearGradient id="SVGID_1_" gradientUnits="userSpaceOnUse" x1="38.1123" y1="213.2842" x2="38.1123" y2="200.2842" gradientTransform="matrix(0.75 0 0 -0.75 19.0405 287.5996)">
		<stop  offset="0" style="stop-color:#B59D79"/>
		<stop  offset="0.01" style="stop-color:#FFE5C1"/>
		<stop  offset="0.03" style="stop-color:#EBCC9F"/>
		<stop  offset="0.64" style="stop-color:#E7C99C"/>
		<stop  offset="0.99" style="stop-color:#E2C499"/>
		<stop  offset="1" style="stop-color:#A89170"/>
	</linearGradient>
	<path fill="url(#SVGID_1_)" d="M30,127.637h35.25v9.75H30V127.637z"/>
	
		<linearGradient id="SVGID_2_" gradientUnits="userSpaceOnUse" x1="85.6152" y1="163.6162" x2="14.6152" y2="163.6162" gradientTransform="matrix(0.75 0 0 -0.75 306.1401 255.8477)">
		<stop  offset="0" style="stop-color:#B5B5B5"/>
		<stop  offset="0.01" style="stop-color:#FFFFFF"/>
		<stop  offset="0.03" style="stop-color:#EBEBEB"/>
		<stop  offset="0.64" style="stop-color:#E7E7E7"/>
		<stop  offset="0.99" style="stop-color:#E2E2E2"/>
		<stop  offset="1" style="stop-color:#A8A8A8"/>
	</linearGradient>
	<path fill="url(#SVGID_2_)" d="M317.102,95.883h51.75c0.75,0,1.492,0.398,1.492,0.891l0.008,72.609c0,0.75-0.766,1.008-1.699,1.008
		l-51.551-0.258V95.883z"/>
	
		<linearGradient id="SVGID_3_" gradientUnits="userSpaceOnUse" x1="19.6133" y1="163.7881" x2="14.6133" y2="163.7881" gradientTransform="matrix(0.75 0 0 -0.75 315.6646 255.8477)">
		<stop  offset="0" style="stop-color:#B59D79"/>
		<stop  offset="0.01" style="stop-color:#FFE5C1"/>
		<stop  offset="0.03" style="stop-color:#EBCC9F"/>
		<stop  offset="0.64" style="stop-color:#E7C99C"/>
		<stop  offset="0.99" style="stop-color:#E2C499"/>
		<stop  offset="1" style="stop-color:#A89170"/>
	</linearGradient>
	<path fill="url(#SVGID_3_)" d="M326.625,95.883h3.75v74.25h-3.75V95.883z"/>
	
		<linearGradient id="SVGID_4_" gradientUnits="userSpaceOnUse" x1="19.6147" y1="163.7881" x2="14.6147" y2="163.7881" gradientTransform="matrix(0.75 0 0 -0.75 346.062 255.8477)">
		<stop  offset="0" style="stop-color:#B59D79"/>
		<stop  offset="0.01" style="stop-color:#FFE5C1"/>
		<stop  offset="0.03" style="stop-color:#EBCC9F"/>
		<stop  offset="0.64" style="stop-color:#E7C99C"/>
		<stop  offset="0.99" style="stop-color:#E2C499"/>
		<stop  offset="1" style="stop-color:#A89170"/>
	</linearGradient>
	<path fill="url(#SVGID_4_)" d="M357.023,95.883h3.75v74.25h-3.75V95.883z"/>
	
		<linearGradient id="SVGID_5_" gradientUnits="userSpaceOnUse" x1="85.5522" y1="195.2842" x2="14.6147" y2="195.2842" gradientTransform="matrix(0.75 0 0 -0.75 306.3354 229.9746)">
		<stop  offset="0" style="stop-color:#BDBDBD"/>
		<stop  offset="0.15" style="stop-color:#FFFFFF"/>
		<stop  offset="0.25" style="stop-color:#FFFFFF"/>
		<stop  offset="0.52" style="stop-color:#DFDFDF"/>
		<stop  offset="0.69" style="stop-color:#C7C7C7"/>
		<stop  offset="0.8" style="stop-color:#BCBCBC"/>
		<stop  offset="0.92" style="stop-color:#B1B1B1"/>
		<stop  offset="1" style="stop-color:#CBCBCB"/>
	</linearGradient>
	<path fill="url(#SVGID_5_)" d="M317.297,97.012c0-15,11.902-27,26.602-27c14.648,0,26.602,11.949,26.602,26.715
		c0.047,0.285-53.203,0-53.203,0V97.012z"/>
	
		<linearGradient id="SVGID_6_" gradientUnits="userSpaceOnUse" x1="61.6128" y1="182.7871" x2="14.6128" y2="182.7871" gradientTransform="matrix(0.75 0 0 -0.75 19.04 242.2266)">
		<stop  offset="0" style="stop-color:#B5B5B5"/>
		<stop  offset="0.01" style="stop-color:#FFFFFF"/>
		<stop  offset="0.03" style="stop-color:#EBEBEB"/>
		<stop  offset="0.64" style="stop-color:#E7E7E7"/>
		<stop  offset="0.99" style="stop-color:#E2E2E2"/>
		<stop  offset="1" style="stop-color:#A8A8A8"/>
	</linearGradient>
	<path fill="url(#SVGID_6_)" d="M30,82.262h35.25v45.75H30V82.262z"/>
	
		<linearGradient id="SVGID_7_" gradientUnits="userSpaceOnUse" x1="350.6152" y1="80.2886" x2="14.6152" y2="80.2885" gradientTransform="matrix(0.75 0 0 -0.75 54.4443 214.5244)">
		<stop  offset="0" style="stop-color:#B5B5B5"/>
		<stop  offset="0.01" style="stop-color:#FFFFFF"/>
		<stop  offset="0.03" style="stop-color:#EBEBEB"/>
		<stop  offset="0.64" style="stop-color:#E7E7E7"/>
		<stop  offset="0.99" style="stop-color:#E2E2E2"/>
		<stop  offset="1" style="stop-color:#A8A8A8"/>
	</linearGradient>
	<path fill="url(#SVGID_7_)" d="M65.406,54.559h252v127.5c0,0-16.785,6.324-34.582,28.922
		c-17.918,22.828-23.816,42.793-23.816,42.793l-193.602,0.285V54.559z"/>
	
		<linearGradient id="SVGID_8_" gradientUnits="userSpaceOnUse" x1="358.6143" y1="209.7959" x2="14.6143" y2="209.7959" gradientTransform="matrix(0.75 0 0 -0.75 51.5229 214.5371)">
		<stop  offset="0" style="stop-color:#4E4D4D"/>
		<stop  offset="0.01" style="stop-color:#9C9B9B"/>
		<stop  offset="0.03" style="stop-color:#686767"/>
		<stop  offset="0.64" style="stop-color:#666565"/>
		<stop  offset="0.99" style="stop-color:#636262"/>
		<stop  offset="1" style="stop-color:#484747"/>
	</linearGradient>
	<path fill="url(#SVGID_8_)" d="M63.984,54.574h255c0.75,0,1.246,0.547,1.246,1.242l0.254,2.508c0,0.75-0.84,1.258-1.527,1.258
		L63.984,59.824c-0.75,0-1.5-0.805-1.5-1.5v-2.25c0-0.75,0.543-1.516,1.234-1.516L63.984,54.574z"/>
	
		<linearGradient id="SVGID_9_" gradientUnits="userSpaceOnUse" x1="29.6143" y1="204.2842" x2="14.6143" y2="204.2842" gradientTransform="matrix(0.75 0 0 -0.75 222.7305 243.2051)">
		<stop  offset="0" style="stop-color:#BDBDBD"/>
		<stop  offset="0.15" style="stop-color:#FFFFFF"/>
		<stop  offset="0.25" style="stop-color:#FFFFFF"/>
		<stop  offset="0.52" style="stop-color:#DFDFDF"/>
		<stop  offset="0.69" style="stop-color:#C7C7C7"/>
		<stop  offset="0.8" style="stop-color:#BCBCBC"/>
		<stop  offset="0.92" style="stop-color:#B1B1B1"/>
		<stop  offset="1" style="stop-color:#CBCBCB"/>
	</linearGradient>
	<path fill="url(#SVGID_9_)" d="M233.691,83.242h11.25v13.5h-11.25V83.242z"/>
	
		<linearGradient id="SVGID_10_" gradientUnits="userSpaceOnUse" x1="37.0962" y1="210.7998" x2="14.6118" y2="210.7998" gradientTransform="matrix(0.75 0 0 -0.75 220.0566 253.083)">
		<stop  offset="0" style="stop-color:#BDBDBD"/>
		<stop  offset="0.15" style="stop-color:#FFFFFF"/>
		<stop  offset="0.25" style="stop-color:#FFFFFF"/>
		<stop  offset="0.52" style="stop-color:#DFDFDF"/>
		<stop  offset="0.69" style="stop-color:#C7C7C7"/>
		<stop  offset="0.8" style="stop-color:#BCBCBC"/>
		<stop  offset="0.92" style="stop-color:#B1B1B1"/>
		<stop  offset="1" style="stop-color:#CBCBCB"/>
	</linearGradient>
	<path fill="url(#SVGID_10_)" d="M232.516,93.117h14.25c0.75,0,1.113,0.762,1.113,1.727l-0.363,2.023h-16.5v-2.25
		c0-0.75,0.547-1.516,1.238-1.516L232.516,93.117z"/>
	
		<linearGradient id="SVGID_11_" gradientUnits="userSpaceOnUse" x1="350.6094" y1="192.79" x2="14.6094" y2="192.79" gradientTransform="matrix(0.75 0 0 -0.75 54.4443 259.6465)">
		<stop  offset="0" style="stop-color:#A8A8A8"/>
		<stop  offset="0.01" style="stop-color:#F2F2F2"/>
		<stop  offset="0.03" style="stop-color:#DBDBDB"/>
		<stop  offset="0.64" style="stop-color:#D8D8D8"/>
		<stop  offset="0.99" style="stop-color:#D3D3D3"/>
		<stop  offset="1" style="stop-color:#9C9C9C"/>
	</linearGradient>
	<path fill="url(#SVGID_11_)" d="M65.402,99.68h252v30.75h-252V99.68z"/>
	
		<linearGradient id="SVGID_12_" gradientUnits="userSpaceOnUse" x1="350.6094" y1="202.79" x2="14.6094" y2="202.79" gradientTransform="matrix(0.75 0 0 -0.75 54.4443 289.7393)">
		<stop  offset="0" style="stop-color:#9B9B9C"/>
		<stop  offset="0.01" style="stop-color:#E4E4E4"/>
		<stop  offset="0.03" style="stop-color:#CBCBCB"/>
		<stop  offset="0.64" style="stop-color:#C7C7C8"/>
		<stop  offset="0.99" style="stop-color:#C3C3C4"/>
		<stop  offset="1" style="stop-color:#909091"/>
	</linearGradient>
	<path fill="url(#SVGID_12_)" d="M65.402,129.773h252v15.75h-252V129.773z"/>
	
		<linearGradient id="SVGID_13_" gradientUnits="userSpaceOnUse" x1="356.7656" y1="210.791" x2="14.6152" y2="210.791" gradientTransform="matrix(0.75 0 0 -0.75 52.0889 256.5137)">
		<stop  offset="0" style="stop-color:#9B9B9C"/>
		<stop  offset="0.01" style="stop-color:#E4E4E4"/>
		<stop  offset="0.03" style="stop-color:#CBCBCB"/>
		<stop  offset="0.64" style="stop-color:#C7C7C8"/>
		<stop  offset="0.99" style="stop-color:#C3C3C4"/>
		<stop  offset="1" style="stop-color:#909091"/>
	</linearGradient>
	<path fill="url(#SVGID_13_)" d="M64.551,96.551h253.5c0.75,0,1.613,0.555,1.613,1.246l-0.113,1.004c0,0.75-0.457,1.16-1.148,1.16
		l-253.852,0.34c-0.75,0-1.5-0.898-1.5-1.594v-0.656c0-0.75,0.52-1.508,1.211-1.508L64.551,96.551z"/>
	
		<linearGradient id="SVGID_14_" gradientUnits="userSpaceOnUse" x1="24.6138" y1="213.2891" x2="24.6138" y2="191.2891" gradientTransform="matrix(0.75 0 0 -0.75 39.3599 374.7949)">
		<stop  offset="0" style="stop-color:#BDBDBD"/>
		<stop  offset="0.15" style="stop-color:#FFFFFF"/>
		<stop  offset="0.25" style="stop-color:#FFFFFF"/>
		<stop  offset="0.52" style="stop-color:#DFDFDF"/>
		<stop  offset="0.69" style="stop-color:#C7C7C7"/>
		<stop  offset="0.8" style="stop-color:#BCBCBC"/>
		<stop  offset="0.92" style="stop-color:#B1B1B1"/>
		<stop  offset="1" style="stop-color:#CBCBCB"/>
	</linearGradient>
	<path fill="url(#SVGID_14_)" d="M65.32,214.828h-15v16.5h15V214.828z"/>
	
		<linearGradient id="SVGID_15_" gradientUnits="userSpaceOnUse" x1="18.2578" y1="213.3281" x2="18.2578" y2="177.1455" gradientTransform="matrix(0.75 0 0 -0.75 34.3789 369.5264)">
		<stop  offset="0" style="stop-color:#403E3E"/>
		<stop  offset="0.15" style="stop-color:#6D6C6C"/>
		<stop  offset="0.25" style="stop-color:#BCBCBC"/>
		<stop  offset="0.52" style="stop-color:#4D4B4B"/>
		<stop  offset="0.69" style="stop-color:#434242"/>
		<stop  offset="0.8" style="stop-color:#3F3E3E"/>
		<stop  offset="0.92" style="stop-color:#3B3A3A"/>
		<stop  offset="1" style="stop-color:#454444"/>
	</linearGradient>
	<path fill="url(#SVGID_15_)" d="M46.84,209.563h3c0.75,0,0.98,0.531,0.98,1.223l-0.23,24.277c0,0.75-0.328,1.605-1.02,1.605
		l-2.73-0.105c-0.75,0-1.516-0.477-1.516-1.172l0.016-24.328c0-0.75,0.543-1.531,1.234-1.531L46.84,209.563z"/>
	
		<linearGradient id="SVGID_16_" gradientUnits="userSpaceOnUse" x1="48.6118" y1="196.291" x2="14.6118" y2="196.291" gradientTransform="matrix(0.75 0 0 -0.75 79.8301 189.166)">
		<stop  offset="0" style="stop-color:#BDA47F"/>
		<stop  offset="0.15" style="stop-color:#FFE0B3"/>
		<stop  offset="0.25" style="stop-color:#FFEED7"/>
		<stop  offset="0.52" style="stop-color:#DFC297"/>
		<stop  offset="0.69" style="stop-color:#C7AD86"/>
		<stop  offset="0.8" style="stop-color:#BCA37E"/>
		<stop  offset="0.92" style="stop-color:#B19A77"/>
		<stop  offset="1" style="stop-color:#CBB189"/>
	</linearGradient>
	<path fill="url(#SVGID_16_)" d="M90.789,29.199h25.5v25.5h-25.5V29.199z"/>
	
		<linearGradient id="SVGID_17_" gradientUnits="userSpaceOnUse" x1="29.6108" y1="209.2881" x2="14.6108" y2="209.2881" gradientTransform="matrix(0.75 0 0 -0.75 186.0688 208.457)">
		<stop  offset="0" style="stop-color:#BDA47F"/>
		<stop  offset="0.15" style="stop-color:#FFE0B3"/>
		<stop  offset="0.25" style="stop-color:#FFEED7"/>
		<stop  offset="0.52" style="stop-color:#DFC297"/>
		<stop  offset="0.69" style="stop-color:#C7AD86"/>
		<stop  offset="0.8" style="stop-color:#BCA37E"/>
		<stop  offset="0.92" style="stop-color:#B19A77"/>
		<stop  offset="1" style="stop-color:#CBB189"/>
	</linearGradient>
	<path fill="url(#SVGID_17_)" d="M197.027,54.492h11.25v-6h-11.25V54.492z"/>
	
		<linearGradient id="SVGID_18_" gradientUnits="userSpaceOnUse" x1="29.6128" y1="209.291" x2="14.6128" y2="209.291" gradientTransform="matrix(0.75 0 0 -0.75 270.6963 208.5605)">
		<stop  offset="0" style="stop-color:#BDA47F"/>
		<stop  offset="0.15" style="stop-color:#FFE0B3"/>
		<stop  offset="0.25" style="stop-color:#FFEED7"/>
		<stop  offset="0.52" style="stop-color:#DFC297"/>
		<stop  offset="0.69" style="stop-color:#C7AD86"/>
		<stop  offset="0.8" style="stop-color:#BCA37E"/>
		<stop  offset="0.92" style="stop-color:#B19A77"/>
		<stop  offset="1" style="stop-color:#CBB189"/>
	</linearGradient>
	<path fill="url(#SVGID_18_)" d="M281.656,54.594h11.25v-6h-11.25V54.594z"/>
	
		<linearGradient id="SVGID_19_" gradientUnits="userSpaceOnUse" x1="148.6138" y1="204.2881" x2="14.6138" y2="204.2881" gradientTransform="matrix(0.75 0 0 -0.75 183.5703 194.9609)">
		<stop  offset="0" style="stop-color:#B3A593"/>
		<stop  offset="0.01" style="stop-color:#FDEEDA"/>
		<stop  offset="0.03" style="stop-color:#E9D7BF"/>
		<stop  offset="0.64" style="stop-color:#E5D3BC"/>
		<stop  offset="0.99" style="stop-color:#E0CEB8"/>
		<stop  offset="1" style="stop-color:#A69988"/>
	</linearGradient>
	<path fill="url(#SVGID_19_)" d="M295.031,48.496h-100.5v-13.5h100.5V48.496z"/>
	
		<linearGradient id="SVGID_20_" gradientUnits="userSpaceOnUse" x1="27.6567" y1="194.2852" x2="14.6157" y2="194.2852" gradientTransform="matrix(0.75 0 0 -0.75 260.4951 296.752)">
		<stop  offset="0" style="stop-color:#BDBDBD"/>
		<stop  offset="0.15" style="stop-color:#FFFFFF"/>
		<stop  offset="0.25" style="stop-color:#FFFFFF"/>
		<stop  offset="0.52" style="stop-color:#DFDFDF"/>
		<stop  offset="0.69" style="stop-color:#C7C7C7"/>
		<stop  offset="0.8" style="stop-color:#BCBCBC"/>
		<stop  offset="0.92" style="stop-color:#B1B1B1"/>
		<stop  offset="1" style="stop-color:#CBCBCB"/>
	</linearGradient>
	<path fill="url(#SVGID_20_)" d="M271.457,139.789c0,0,0.414-3,4.996-3c4.754,0,4.785,3.137,4.785,3.137l-0.031,25.363h-9.75
		V139.789z"/>
	
		<linearGradient id="SVGID_21_" gradientUnits="userSpaceOnUse" x1="36.6104" y1="210.2959" x2="14.6104" y2="210.2959" gradientTransform="matrix(0.75 0 0 -0.75 257.2686 325.6387)">
		<stop  offset="0" style="stop-color:#403E3E"/>
		<stop  offset="0.15" style="stop-color:#6D6C6C"/>
		<stop  offset="0.25" style="stop-color:#BCBCBC"/>
		<stop  offset="0.52" style="stop-color:#4D4B4B"/>
		<stop  offset="0.69" style="stop-color:#434242"/>
		<stop  offset="0.8" style="stop-color:#3F3E3E"/>
		<stop  offset="0.92" style="stop-color:#3B3A3A"/>
		<stop  offset="1" style="stop-color:#454444"/>
	</linearGradient>
	<path fill="url(#SVGID_21_)" d="M269.727,165.676h13.5c0.75,0,1.242,0.547,1.242,1.242l0.258,1.758c0,0.75-0.82,1.168-1.508,1.168
		l-13.492,0.332c-0.75,0-1.5-0.891-1.5-1.586v-1.414c0-0.75,0.563-1.516,1.25-1.516L269.727,165.676z"/>
	
		<linearGradient id="SVGID_22_" gradientUnits="userSpaceOnUse" x1="-71.7842" y1="112.3867" x2="-42.7842" y2="112.3867" gradientTransform="matrix(0 0.75 -0.75 0 170.1172 277.959)">
		<stop  offset="0" style="stop-color:#3C9396"/>
		<stop  offset="0.15" style="stop-color:#95D0D2"/>
		<stop  offset="0.25" style="stop-color:#9FD4D5"/>
		<stop  offset="0.52" style="stop-color:#45A6A9"/>
		<stop  offset="0.69" style="stop-color:#3C9396"/>
		<stop  offset="0.8" style="stop-color:#388B8D"/>
		<stop  offset="0.92" style="stop-color:#358385"/>
	</linearGradient>
	<path fill="url(#SVGID_22_)" d="M96.703,224.121h-21.75v21.75h21.75V224.121z"/>
	
		<linearGradient id="SVGID_23_" gradientUnits="userSpaceOnUse" x1="-71.7842" y1="119.3887" x2="-42.4404" y2="119.3887" gradientTransform="matrix(0 0.75 -0.75 0 161.3574 277.9517)">
		<stop  offset="0" style="stop-color:#3C9396"/>
		<stop  offset="0.15" style="stop-color:#95D0D2"/>
		<stop  offset="0.25" style="stop-color:#9FD4D5"/>
		<stop  offset="0.52" style="stop-color:#45A6A9"/>
		<stop  offset="0.69" style="stop-color:#3C9396"/>
		<stop  offset="0.8" style="stop-color:#388B8D"/>
		<stop  offset="0.92" style="stop-color:#358385"/>
	</linearGradient>
	<path fill="url(#SVGID_23_)" d="M77.441,224.113h-9c0,0-0.84,0.164-1.16,1.395c-0.34,0.105-1.09,4.324-1.09,9.609
		c0,5.496,1.09,9.613,1.09,9.613c0.41,1.133,1.375,1.391,1.375,1.391l8.785-0.258V224.113z"/>
	
		<linearGradient id="SVGID_24_" gradientUnits="userSpaceOnUse" x1="-561.2529" y1="213.291" x2="-561.2529" y2="212.285" gradientTransform="matrix(-0.75 0 0 -0.75 -335.9844 394.8506)">
		<stop  offset="0" style="stop-color:#3C9396"/>
		<stop  offset="0.15" style="stop-color:#95D0D2"/>
		<stop  offset="0.25" style="stop-color:#9FD4D5"/>
		<stop  offset="0.52" style="stop-color:#45A6A9"/>
		<stop  offset="0.69" style="stop-color:#3C9396"/>
		<stop  offset="0.8" style="stop-color:#388B8D"/>
		<stop  offset="0.92" style="stop-color:#358385"/>
	</linearGradient>
	<path fill="url(#SVGID_24_)" d="M94.977,234.887h-19.5c0,0-0.414,0.059-0.414,0.141c-0.336,0.609,0.086,0.316,0.191,0.316
		l19.723,0.293c0,0,0-0.355,0-0.438c0-0.313-0.078-0.316-0.184-0.316L94.977,234.887z"/>
	
		<linearGradient id="SVGID_25_" gradientUnits="userSpaceOnUse" x1="-561.2529" y1="213.293" x2="-561.2529" y2="212.286" gradientTransform="matrix(-0.75 0 0 -0.75 -335.9844 396.3945)">
		<stop  offset="0" style="stop-color:#3C9396"/>
		<stop  offset="0.15" style="stop-color:#95D0D2"/>
		<stop  offset="0.25" style="stop-color:#9FD4D5"/>
		<stop  offset="0.52" style="stop-color:#45A6A9"/>
		<stop  offset="0.69" style="stop-color:#3C9396"/>
		<stop  offset="0.8" style="stop-color:#388B8D"/>
		<stop  offset="0.92" style="stop-color:#358385"/>
	</linearGradient>
	<path fill="url(#SVGID_25_)" d="M94.977,236.43h-19.5c0,0-0.414,0.059-0.414,0.141c-0.336,0.609,0.086,0.32,0.191,0.32
		l19.723,0.289c0,0,0-0.355,0-0.434c0-0.316-0.078-0.32-0.184-0.32L94.977,236.43z"/>
	
		<linearGradient id="SVGID_26_" gradientUnits="userSpaceOnUse" x1="-561.2529" y1="213.292" x2="-561.2529" y2="212.2871" gradientTransform="matrix(-0.75 0 0 -0.75 -335.9844 397.9395)">
		<stop  offset="0" style="stop-color:#3C9396"/>
		<stop  offset="0.15" style="stop-color:#95D0D2"/>
		<stop  offset="0.25" style="stop-color:#9FD4D5"/>
		<stop  offset="0.52" style="stop-color:#45A6A9"/>
		<stop  offset="0.69" style="stop-color:#3C9396"/>
		<stop  offset="0.8" style="stop-color:#388B8D"/>
		<stop  offset="0.92" style="stop-color:#358385"/>
	</linearGradient>
	<path fill="url(#SVGID_26_)" d="M94.977,237.973h-19.5c0,0-0.414,0.063-0.414,0.141c-0.336,0.609,0.086,0.32,0.191,0.32
		l19.723,0.289c0,0,0-0.352,0-0.434c0-0.316-0.078-0.32-0.184-0.32L94.977,237.973z"/>
	
		<linearGradient id="SVGID_27_" gradientUnits="userSpaceOnUse" x1="-561.2529" y1="213.292" x2="-561.2529" y2="212.2871" gradientTransform="matrix(-0.75 0 0 -0.75 -335.9844 399.4844)">
		<stop  offset="0" style="stop-color:#3C9396"/>
		<stop  offset="0.15" style="stop-color:#95D0D2"/>
		<stop  offset="0.25" style="stop-color:#9FD4D5"/>
		<stop  offset="0.52" style="stop-color:#45A6A9"/>
		<stop  offset="0.69" style="stop-color:#3C9396"/>
		<stop  offset="0.8" style="stop-color:#388B8D"/>
		<stop  offset="0.92" style="stop-color:#358385"/>
	</linearGradient>
	<path fill="url(#SVGID_27_)" d="M94.977,239.52h-19.5c0,0-0.414,0.059-0.414,0.141c-0.336,0.609,0.086,0.32,0.191,0.32
		l19.723,0.289c0,0,0-0.355,0-0.434c0-0.316-0.078-0.32-0.184-0.32L94.977,239.52z"/>
	
		<linearGradient id="SVGID_28_" gradientUnits="userSpaceOnUse" x1="-561.2529" y1="213.293" x2="-561.2529" y2="212.286" gradientTransform="matrix(-0.75 0 0 -0.75 -335.9844 401.127)">
		<stop  offset="0" style="stop-color:#3C9396"/>
		<stop  offset="0.15" style="stop-color:#95D0D2"/>
		<stop  offset="0.25" style="stop-color:#9FD4D5"/>
		<stop  offset="0.52" style="stop-color:#45A6A9"/>
		<stop  offset="0.69" style="stop-color:#3C9396"/>
		<stop  offset="0.8" style="stop-color:#388B8D"/>
		<stop  offset="0.92" style="stop-color:#358385"/>
	</linearGradient>
	<path fill="url(#SVGID_28_)" d="M94.977,241.164h-19.5c0,0-0.414,0.059-0.414,0.137c-0.336,0.613,0.086,0.32,0.191,0.32
		l19.723,0.293c0,0,0-0.355,0-0.438c0-0.313-0.078-0.316-0.184-0.316L94.977,241.164z"/>
	
		<linearGradient id="SVGID_29_" gradientUnits="userSpaceOnUse" x1="-561.2529" y1="213.292" x2="-561.2529" y2="212.2871" gradientTransform="matrix(-0.75 0 0 -0.75 -335.9844 402.624)">
		<stop  offset="0" style="stop-color:#3C9396"/>
		<stop  offset="0.15" style="stop-color:#95D0D2"/>
		<stop  offset="0.25" style="stop-color:#9FD4D5"/>
		<stop  offset="0.52" style="stop-color:#45A6A9"/>
		<stop  offset="0.69" style="stop-color:#3C9396"/>
		<stop  offset="0.8" style="stop-color:#388B8D"/>
		<stop  offset="0.92" style="stop-color:#358385"/>
	</linearGradient>
	<path fill="url(#SVGID_29_)" d="M94.977,242.66h-19.5c0,0-0.414,0.059-0.414,0.141c-0.336,0.609,0.086,0.32,0.191,0.32
		l19.723,0.289c0,0,0-0.355,0-0.434c0-0.316-0.078-0.32-0.184-0.32L94.977,242.66z"/>
	
		<linearGradient id="SVGID_30_" gradientUnits="userSpaceOnUse" x1="-561.2529" y1="213.291" x2="-561.2529" y2="212.285" gradientTransform="matrix(-0.75 0 0 -0.75 -335.9844 393.3037)">
		<stop  offset="0" style="stop-color:#3C9396"/>
		<stop  offset="0.15" style="stop-color:#95D0D2"/>
		<stop  offset="0.25" style="stop-color:#9FD4D5"/>
		<stop  offset="0.52" style="stop-color:#45A6A9"/>
		<stop  offset="0.69" style="stop-color:#3C9396"/>
		<stop  offset="0.8" style="stop-color:#388B8D"/>
		<stop  offset="0.92" style="stop-color:#358385"/>
	</linearGradient>
	<path fill="url(#SVGID_30_)" d="M94.977,233.34h-19.5c0,0-0.414,0.059-0.414,0.141c-0.336,0.609,0.086,0.316,0.191,0.316
		l19.723,0.293c0,0,0-0.355,0-0.438c0-0.313-0.078-0.316-0.184-0.316L94.977,233.34z"/>
	
		<linearGradient id="SVGID_31_" gradientUnits="userSpaceOnUse" x1="-561.2529" y1="213.291" x2="-561.2529" y2="212.285" gradientTransform="matrix(-0.75 0 0 -0.75 -335.9844 404.1211)">
		<stop  offset="0" style="stop-color:#3C9396"/>
		<stop  offset="0.15" style="stop-color:#95D0D2"/>
		<stop  offset="0.25" style="stop-color:#9FD4D5"/>
		<stop  offset="0.52" style="stop-color:#45A6A9"/>
		<stop  offset="0.69" style="stop-color:#3C9396"/>
		<stop  offset="0.8" style="stop-color:#388B8D"/>
		<stop  offset="0.92" style="stop-color:#358385"/>
	</linearGradient>
	<path fill="url(#SVGID_31_)" d="M94.977,244.156h-19.5c0,0-0.414,0.059-0.414,0.141c-0.336,0.609,0.086,0.32,0.191,0.32
		l19.723,0.289c0,0,0-0.355,0-0.434c0-0.316-0.078-0.32-0.184-0.32L94.977,244.156z"/>
	
		<linearGradient id="SVGID_32_" gradientUnits="userSpaceOnUse" x1="-561.2529" y1="213.292" x2="-561.2529" y2="212.2871" gradientTransform="matrix(-0.75 0 0 -0.75 -335.9844 387.123)">
		<stop  offset="0" style="stop-color:#3C9396"/>
		<stop  offset="0.15" style="stop-color:#95D0D2"/>
		<stop  offset="0.25" style="stop-color:#9FD4D5"/>
		<stop  offset="0.52" style="stop-color:#45A6A9"/>
		<stop  offset="0.69" style="stop-color:#3C9396"/>
		<stop  offset="0.8" style="stop-color:#388B8D"/>
		<stop  offset="0.92" style="stop-color:#358385"/>
	</linearGradient>
	<path fill="url(#SVGID_32_)" d="M94.977,227.156h-19.5c0,0-0.414,0.063-0.414,0.141c-0.336,0.609,0.086,0.32,0.191,0.32
		l19.723,0.289c0,0,0-0.352,0-0.434c0-0.316-0.078-0.32-0.184-0.32L94.977,227.156z"/>
	
		<linearGradient id="SVGID_33_" gradientUnits="userSpaceOnUse" x1="-561.2529" y1="213.292" x2="-561.2529" y2="212.2871" gradientTransform="matrix(-0.75 0 0 -0.75 -335.9844 388.668)">
		<stop  offset="0" style="stop-color:#3C9396"/>
		<stop  offset="0.15" style="stop-color:#95D0D2"/>
		<stop  offset="0.25" style="stop-color:#9FD4D5"/>
		<stop  offset="0.52" style="stop-color:#45A6A9"/>
		<stop  offset="0.69" style="stop-color:#3C9396"/>
		<stop  offset="0.8" style="stop-color:#388B8D"/>
		<stop  offset="0.92" style="stop-color:#358385"/>
	</linearGradient>
	<path fill="url(#SVGID_33_)" d="M94.977,228.703h-19.5c0,0-0.414,0.059-0.414,0.141c-0.336,0.609,0.086,0.32,0.191,0.32
		l19.723,0.289c0,0,0-0.355,0-0.434c0-0.316-0.078-0.32-0.184-0.32L94.977,228.703z"/>
	
		<linearGradient id="SVGID_34_" gradientUnits="userSpaceOnUse" x1="-561.2529" y1="213.292" x2="-561.2529" y2="212.2869" gradientTransform="matrix(-0.75 0 0 -0.75 -335.9844 390.2129)">
		<stop  offset="0" style="stop-color:#3C9396"/>
		<stop  offset="0.15" style="stop-color:#95D0D2"/>
		<stop  offset="0.25" style="stop-color:#9FD4D5"/>
		<stop  offset="0.52" style="stop-color:#45A6A9"/>
		<stop  offset="0.69" style="stop-color:#3C9396"/>
		<stop  offset="0.8" style="stop-color:#388B8D"/>
		<stop  offset="0.92" style="stop-color:#358385"/>
	</linearGradient>
	<path fill="url(#SVGID_34_)" d="M94.977,230.25h-19.5c0,0-0.414,0.059-0.414,0.137c-0.336,0.613,0.086,0.32,0.191,0.32L94.977,231
		c0,0,0-0.355,0-0.438c0-0.313-0.078-0.32-0.184-0.32L94.977,230.25z"/>
	
		<linearGradient id="SVGID_35_" gradientUnits="userSpaceOnUse" x1="-561.2529" y1="213.291" x2="-561.2529" y2="212.285" gradientTransform="matrix(-0.75 0 0 -0.75 -335.9844 391.7578)">
		<stop  offset="0" style="stop-color:#3C9396"/>
		<stop  offset="0.15" style="stop-color:#95D0D2"/>
		<stop  offset="0.25" style="stop-color:#9FD4D5"/>
		<stop  offset="0.52" style="stop-color:#45A6A9"/>
		<stop  offset="0.69" style="stop-color:#3C9396"/>
		<stop  offset="0.8" style="stop-color:#388B8D"/>
		<stop  offset="0.92" style="stop-color:#358385"/>
	</linearGradient>
	<path fill="url(#SVGID_35_)" d="M94.977,231.793h-19.5c0,0-0.414,0.063-0.414,0.141c-0.336,0.609,0.086,0.32,0.191,0.32
		l19.723,0.289c0,0,0-0.355,0-0.434c0-0.316-0.078-0.32-0.184-0.32L94.977,231.793z"/>
	
		<linearGradient id="SVGID_36_" gradientUnits="userSpaceOnUse" x1="-561.2529" y1="213.293" x2="-561.2529" y2="212.286" gradientTransform="matrix(-0.75 0 0 -0.75 -335.9844 385.5781)">
		<stop  offset="0" style="stop-color:#3C9396"/>
		<stop  offset="0.15" style="stop-color:#95D0D2"/>
		<stop  offset="0.25" style="stop-color:#9FD4D5"/>
		<stop  offset="0.52" style="stop-color:#45A6A9"/>
		<stop  offset="0.69" style="stop-color:#3C9396"/>
		<stop  offset="0.8" style="stop-color:#388B8D"/>
		<stop  offset="0.92" style="stop-color:#358385"/>
	</linearGradient>
	<path fill="url(#SVGID_36_)" d="M94.977,225.613h-19.5c0,0-0.414,0.059-0.414,0.141c-0.336,0.609,0.086,0.32,0.191,0.32
		l19.723,0.289c0,0,0-0.355,0-0.434c0-0.316-0.078-0.32-0.184-0.32L94.977,225.613z"/>
	
		<linearGradient id="SVGID_37_" gradientUnits="userSpaceOnUse" x1="-460.2134" y1="125.0034" x2="-488.2134" y2="125.0034" gradientTransform="matrix(0 -0.75 -0.75 0 192.6758 -120.6445)">
		<stop  offset="0" style="stop-color:#3C9396"/>
		<stop  offset="0.15" style="stop-color:#95D0D2"/>
		<stop  offset="0.25" style="stop-color:#9FD4D5"/>
		<stop  offset="0.52" style="stop-color:#45A6A9"/>
		<stop  offset="0.69" style="stop-color:#3C9396"/>
		<stop  offset="0.8" style="stop-color:#388B8D"/>
		<stop  offset="0.92" style="stop-color:#358385"/>
	</linearGradient>
	<path fill="url(#SVGID_37_)" d="M97.512,224.516c0,0,1.492,0.844,2.684,3.121c0.316-0.121,0,14.957,0,14.957
		c-1.184,2.172-2.684,2.922-2.684,2.922V224.516z"/>
	
		<linearGradient id="SVGID_38_" gradientUnits="userSpaceOnUse" x1="-457.2104" y1="126.3877" x2="-488.2104" y2="126.3877" gradientTransform="matrix(0 -0.75 -0.75 0 191.5938 -119.4561)">
		<stop  offset="0" style="stop-color:#2B7778"/>
		<stop  offset="0.15" style="stop-color:#5BAAAB"/>
		<stop  offset="0.25" style="stop-color:#B8D3D3"/>
		<stop  offset="0.52" style="stop-color:#358D8F"/>
		<stop  offset="0.69" style="stop-color:#2E7D7F"/>
		<stop  offset="0.8" style="stop-color:#2B7677"/>
		<stop  offset="0.92" style="stop-color:#286F70"/>
		<stop  offset="1" style="stop-color:#2F8082"/>
	</linearGradient>
	<path fill="url(#SVGID_38_)" d="M97.18,223.453v23.25c-0.75,0-0.754-0.109-0.754-0.238l0.004-23.012c0,0,0.211,0.078,0.477,0.078
		L97.18,223.453z"/>
	
		<linearGradient id="SVGID_39_" gradientUnits="userSpaceOnUse" x1="-457.2104" y1="126.3599" x2="-488.2104" y2="126.3599" gradientTransform="matrix(0 -0.75 -0.75 0 192.0078 -119.4561)">
		<stop  offset="0" style="stop-color:#3C9396"/>
		<stop  offset="0.15" style="stop-color:#95D0D2"/>
		<stop  offset="0.25" style="stop-color:#9FD4D5"/>
		<stop  offset="0.52" style="stop-color:#45A6A9"/>
		<stop  offset="0.69" style="stop-color:#3C9396"/>
		<stop  offset="0.8" style="stop-color:#388B8D"/>
		<stop  offset="0.92" style="stop-color:#358385"/>
	</linearGradient>
	<path fill="url(#SVGID_39_)" d="M96.844,223.453c0.75,0,0.801,0.184,0.801,0.309l-0.051,22.941c0,0-0.078,0-0.242,0
		c-0.508,0-0.52-0.113-0.52-0.238L96.844,223.453c0,0,0.121,0.078,0.285,0.078L96.844,223.453z"/>
	
		<linearGradient id="SVGID_40_" gradientUnits="userSpaceOnUse" x1="16.1128" y1="213.2881" x2="16.1128" y2="193.2881" gradientTransform="matrix(0.75 0 0 -0.75 89.1733 387.5049)">
		<stop  offset="0" style="stop-color:#3C9396"/>
		<stop  offset="0.15" style="stop-color:#95D0D2"/>
		<stop  offset="0.25" style="stop-color:#9FD4D5"/>
		<stop  offset="0.52" style="stop-color:#45A6A9"/>
		<stop  offset="0.69" style="stop-color:#3C9396"/>
		<stop  offset="0.8" style="stop-color:#388B8D"/>
		<stop  offset="0.92" style="stop-color:#358385"/>
	</linearGradient>
	<path fill="url(#SVGID_40_)" d="M100.133,227.539l2.25,3v9l-2.25,3V227.539z"/>
	
		<linearGradient id="SVGID_41_" gradientUnits="userSpaceOnUse" x1="143.6099" y1="213.2881" x2="143.6099" y2="203.2881" gradientTransform="matrix(0.75 0 0 -0.75 54.4443 406.4307)">
		<stop  offset="0" style="stop-color:#A8A8A8"/>
		<stop  offset="0.01" style="stop-color:#F2F2F2"/>
		<stop  offset="0.03" style="stop-color:#DBDBDB"/>
		<stop  offset="0.64" style="stop-color:#D8D8D8"/>
		<stop  offset="0.99" style="stop-color:#D3D3D3"/>
		<stop  offset="1" style="stop-color:#9C9C9C"/>
	</linearGradient>
	<path fill="url(#SVGID_41_)" d="M65.402,253.965h193.5v-7.5h-193.5V253.965z"/>
	
		<linearGradient id="SVGID_42_" gradientUnits="userSpaceOnUse" x1="-425.3501" y1="716.1133" x2="-425.3501" y2="710.8057" gradientTransform="matrix(0 -0.75 0.75 0 -415.9404 -134.0918)">
		<stop  offset="0" style="stop-color:#BDBDBD"/>
		<stop  offset="0.15" style="stop-color:#FFFFFF"/>
		<stop  offset="0.25" style="stop-color:#FFFFFF"/>
		<stop  offset="0.52" style="stop-color:#DFDFDF"/>
		<stop  offset="0.69" style="stop-color:#C7C7C7"/>
		<stop  offset="0.8" style="stop-color:#BCBCBC"/>
		<stop  offset="0.92" style="stop-color:#B1B1B1"/>
		<stop  offset="1" style="stop-color:#CBCBCB"/>
	</linearGradient>
	<path fill="url(#SVGID_42_)" d="M121.145,232.066v-93c0,0-0.277-1.27-1.941-1.27c-1.809-0.23-2.039,1.543-2.039,1.543l0.23,92.727
		H121.145z"/>
	
		<linearGradient id="SVGID_43_" gradientUnits="userSpaceOnUse" x1="91.6138" y1="206.7891" x2="14.6138" y2="206.7891" gradientTransform="matrix(0.75 0 0 -0.75 63.1333 204.4814)">
		<stop  offset="0" style="stop-color:#B59D79"/>
		<stop  offset="0.01" style="stop-color:#FFE5C1"/>
		<stop  offset="0.03" style="stop-color:#EBCC9F"/>
		<stop  offset="0.64" style="stop-color:#E7C99C"/>
		<stop  offset="0.99" style="stop-color:#E2C499"/>
		<stop  offset="1" style="stop-color:#A89170"/>
	</linearGradient>
	<path fill="url(#SVGID_43_)" d="M74.094,44.516h57.75v9.75h-57.75V44.516z"/>
	
		<linearGradient id="SVGID_44_" gradientUnits="userSpaceOnUse" x1="350.6094" y1="212.7881" x2="14.6094" y2="212.7881" gradientTransform="matrix(0.75 0 0 -0.75 54.4443 262.4805)">
		<stop  offset="0" style="stop-color:#909191"/>
		<stop  offset="0.01" style="stop-color:#D8D9D9"/>
		<stop  offset="0.03" style="stop-color:#BDBEBE"/>
		<stop  offset="0.64" style="stop-color:#BABABA"/>
		<stop  offset="0.99" style="stop-color:#B5B6B6"/>
		<stop  offset="1" style="stop-color:#868787"/>
	</linearGradient>
	<path fill="url(#SVGID_44_)" d="M65.402,102.516h252v0.75h-252V102.516z"/>
	
		<linearGradient id="SVGID_45_" gradientUnits="userSpaceOnUse" x1="350.6152" y1="212.7842" x2="14.6152" y2="212.7841" gradientTransform="matrix(0.75 0 0 -0.75 54.4443 264.9902)">
		<stop  offset="0" style="stop-color:#909191"/>
		<stop  offset="0.01" style="stop-color:#D8D9D9"/>
		<stop  offset="0.03" style="stop-color:#BDBEBE"/>
		<stop  offset="0.64" style="stop-color:#BABABA"/>
		<stop  offset="0.99" style="stop-color:#B5B6B6"/>
		<stop  offset="1" style="stop-color:#868787"/>
	</linearGradient>
	<path fill="url(#SVGID_45_)" d="M65.406,105.027h252v0.75h-252V105.027z"/>
	
		<linearGradient id="SVGID_46_" gradientUnits="userSpaceOnUse" x1="85.6152" y1="210.6025" x2="14.6152" y2="210.6025" gradientTransform="matrix(0.75 0 0 -0.75 306.1401 255.8477)">
		<stop  offset="0" style="stop-color:#9B9B9C"/>
		<stop  offset="0.01" style="stop-color:#E4E4E4"/>
		<stop  offset="0.03" style="stop-color:#CBCBCB"/>
		<stop  offset="0.64" style="stop-color:#C7C7C8"/>
		<stop  offset="0.99" style="stop-color:#C3C3C4"/>
		<stop  offset="1" style="stop-color:#909091"/>
	</linearGradient>
	<path fill="url(#SVGID_46_)" d="M317.102,95.883h51.75c0.75,0,1.492,0.02,1.492,0.047l0.008,3.703c0,0-0.766,0.277-1.699,0.277
		l-51.551-0.277V95.883z"/>
	
		<linearGradient id="SVGID_47_" gradientUnits="userSpaceOnUse" x1="85.6152" y1="210.6025" x2="14.6152" y2="210.6025" gradientTransform="matrix(0.75 0 0 -0.75 306.1401 326.3252)">
		<stop  offset="0" style="stop-color:#9B9B9C"/>
		<stop  offset="0.01" style="stop-color:#E4E4E4"/>
		<stop  offset="0.03" style="stop-color:#CBCBCB"/>
		<stop  offset="0.64" style="stop-color:#C7C7C8"/>
		<stop  offset="0.99" style="stop-color:#C3C3C4"/>
		<stop  offset="1" style="stop-color:#909091"/>
	</linearGradient>
	<path fill="url(#SVGID_47_)" d="M317.102,166.359h51.75c0.75,0,1.492,0.023,1.492,0.051l0.008,3.699c0,0-0.766,0.281-1.699,0.281
		l-51.551-0.281V166.359z"/>
	
		<linearGradient id="SVGID_48_" gradientUnits="userSpaceOnUse" x1="29.936" y1="156.2725" x2="14.6128" y2="156.2725" gradientTransform="matrix(0.75 0 0 -0.75 132.7939 296.8203)">
		<stop  offset="0" style="stop-color:#BDBDBD"/>
		<stop  offset="0.15" style="stop-color:#FFFFFF"/>
		<stop  offset="0.25" style="stop-color:#FFFFFF"/>
		<stop  offset="0.52" style="stop-color:#DFDFDF"/>
		<stop  offset="0.69" style="stop-color:#C7C7C7"/>
		<stop  offset="0.8" style="stop-color:#BCBCBC"/>
		<stop  offset="0.92" style="stop-color:#B1B1B1"/>
		<stop  offset="1" style="stop-color:#CBCBCB"/>
	</linearGradient>
	<path fill="url(#SVGID_48_)" d="M149.754,136.855c5.25,0,5.492,3.488,5.492,3.488l-0.242,76.762c0,0,0.074,5.273-5.754,5.273
		c-5.496-0.023-5.496-5.539-5.496-5.539v-76.234c0,0,0.168-3.75,5.664-3.75H149.754z"/>
	
		<linearGradient id="SVGID_49_" gradientUnits="userSpaceOnUse" x1="29.9375" y1="156.2744" x2="14.6143" y2="156.2744" gradientTransform="matrix(0.75 0 0 -0.75 222.7305 296.7949)">
		<stop  offset="0" style="stop-color:#BDBDBD"/>
		<stop  offset="0.15" style="stop-color:#FFFFFF"/>
		<stop  offset="0.25" style="stop-color:#FFFFFF"/>
		<stop  offset="0.52" style="stop-color:#DFDFDF"/>
		<stop  offset="0.69" style="stop-color:#C7C7C7"/>
		<stop  offset="0.8" style="stop-color:#BCBCBC"/>
		<stop  offset="0.92" style="stop-color:#B1B1B1"/>
		<stop  offset="1" style="stop-color:#CBCBCB"/>
	</linearGradient>
	<path fill="url(#SVGID_49_)" d="M239.691,136.828c5.25,0,5.492,3.492,5.492,3.492l-0.242,76.758c0,0,0.074,5.273-5.754,5.273
		c-5.496-0.023-5.496-5.539-5.496-5.539v-76.234c0,0,0.164-3.75,5.66-3.75H239.691z"/>
	
		<linearGradient id="SVGID_50_" gradientUnits="userSpaceOnUse" x1="29.6128" y1="204.2881" x2="14.6128" y2="204.2881" gradientTransform="matrix(0.75 0 0 -0.75 132.8057 243.2305)">
		<stop  offset="0" style="stop-color:#BDBDBD"/>
		<stop  offset="0.15" style="stop-color:#FFFFFF"/>
		<stop  offset="0.25" style="stop-color:#FFFFFF"/>
		<stop  offset="0.52" style="stop-color:#DFDFDF"/>
		<stop  offset="0.69" style="stop-color:#C7C7C7"/>
		<stop  offset="0.8" style="stop-color:#BCBCBC"/>
		<stop  offset="0.92" style="stop-color:#B1B1B1"/>
		<stop  offset="1" style="stop-color:#CBCBCB"/>
	</linearGradient>
	<path fill="url(#SVGID_50_)" d="M143.766,83.266h11.25v13.5h-11.25V83.266z"/>
	
		<linearGradient id="SVGID_51_" gradientUnits="userSpaceOnUse" x1="37.0947" y1="210.7998" x2="14.6104" y2="210.7998" gradientTransform="matrix(0.75 0 0 -0.75 130.1201 253.1064)">
		<stop  offset="0" style="stop-color:#BDBDBD"/>
		<stop  offset="0.15" style="stop-color:#FFFFFF"/>
		<stop  offset="0.25" style="stop-color:#FFFFFF"/>
		<stop  offset="0.52" style="stop-color:#DFDFDF"/>
		<stop  offset="0.69" style="stop-color:#C7C7C7"/>
		<stop  offset="0.8" style="stop-color:#BCBCBC"/>
		<stop  offset="0.92" style="stop-color:#B1B1B1"/>
		<stop  offset="1" style="stop-color:#CBCBCB"/>
	</linearGradient>
	<path fill="url(#SVGID_51_)" d="M142.578,93.141h14.25c0.75,0,1.113,0.762,1.113,1.727l-0.363,2.023h-16.5v-2.25
		c0-0.75,0.547-1.516,1.238-1.516L142.578,93.141z"/>
	
		<linearGradient id="SVGID_52_" gradientUnits="userSpaceOnUse" x1="23.6133" y1="213.2842" x2="23.6133" y2="208.2842" gradientTransform="matrix(0.75 0 0 -0.75 92.8174 393.0801)">
		<stop  offset="0" style="stop-color:#BDBDBD"/>
		<stop  offset="0.15" style="stop-color:#FFFFFF"/>
		<stop  offset="0.25" style="stop-color:#FFFFFF"/>
		<stop  offset="0.52" style="stop-color:#DFDFDF"/>
		<stop  offset="0.69" style="stop-color:#C7C7C7"/>
		<stop  offset="0.8" style="stop-color:#BCBCBC"/>
		<stop  offset="0.92" style="stop-color:#B1B1B1"/>
		<stop  offset="1" style="stop-color:#CBCBCB"/>
	</linearGradient>
	<path fill="url(#SVGID_52_)" d="M103.777,233.117h13.5v3.75h-13.5V233.117z"/>
	
		<linearGradient id="SVGID_53_" gradientUnits="userSpaceOnUse" x1="15.6152" y1="213.2891" x2="15.6152" y2="201.2891" gradientTransform="matrix(0.75 0 0 -0.75 91.269 390.7246)">
		<stop  offset="0" style="stop-color:#BDBDBD"/>
		<stop  offset="0.15" style="stop-color:#FFFFFF"/>
		<stop  offset="0.25" style="stop-color:#FFFFFF"/>
		<stop  offset="0.52" style="stop-color:#DFDFDF"/>
		<stop  offset="0.69" style="stop-color:#C7C7C7"/>
		<stop  offset="0.8" style="stop-color:#BCBCBC"/>
		<stop  offset="0.92" style="stop-color:#B1B1B1"/>
		<stop  offset="1" style="stop-color:#CBCBCB"/>
	</linearGradient>
	<path fill="url(#SVGID_53_)" d="M102.23,230.758h1.5v9h-1.5V230.758z"/>
	
		<linearGradient id="SVGID_54_" gradientUnits="userSpaceOnUse" x1="13.7935" y1="623.0898" x2="22.8689" y2="628.3296" gradientTransform="matrix(0.75 0 0 0.75 104.6421 -235.1865)">
		<stop  offset="0" style="stop-color:#C4C4C4"/>
		<stop  offset="0.15" style="stop-color:#FFFFFF"/>
		<stop  offset="0.25" style="stop-color:#FFFFFF"/>
		<stop  offset="0.44" style="stop-color:#DFDFDF"/>
		<stop  offset="0.6" style="stop-color:#C7C7C7"/>
		<stop  offset="0.8" style="stop-color:#A8A8A8"/>
		<stop  offset="0.97" style="stop-color:#999999"/>
		<stop  offset="1" style="stop-color:#CBCBCB"/>
	</linearGradient>
	<path fill="url(#SVGID_54_)" d="M115.602,237.098c0,0,2.961-0.078,4.371-1.75c1.629-2,1.16-4.281,1.16-4.281l-4.031,0.031
		c0,0,0.18,1.492-1.5,2.102V237.098z"/>
	
		<linearGradient id="SVGID_55_" gradientUnits="userSpaceOnUse" x1="-41.2251" y1="716.1133" x2="-41.2251" y2="710.8066" gradientTransform="matrix(0 0.75 0.75 0 -426.6357 242.0557)">
		<stop  offset="0" style="stop-color:#BDBDBD"/>
		<stop  offset="0.15" style="stop-color:#FFFFFF"/>
		<stop  offset="0.25" style="stop-color:#FFFFFF"/>
		<stop  offset="0.52" style="stop-color:#DFDFDF"/>
		<stop  offset="0.69" style="stop-color:#C7C7C7"/>
		<stop  offset="0.8" style="stop-color:#BCBCBC"/>
		<stop  offset="0.92" style="stop-color:#B1B1B1"/>
		<stop  offset="1" style="stop-color:#CBCBCB"/>
	</linearGradient>
	<path fill="url(#SVGID_55_)" d="M110.449,188.215v44.25c0,0-0.273,1.594-1.941,1.594c-1.809-0.094-2.039-1.355-2.039-1.355
		l0.23-44.488H110.449z"/>
	
		<linearGradient id="SVGID_56_" gradientUnits="userSpaceOnUse" x1="-546.3091" y1="213.2891" x2="-546.3091" y2="207.9502" gradientTransform="matrix(-0.75 0 0 -0.75 -325.0127 342.9199)">
		<stop  offset="0" style="stop-color:#BDBDBD"/>
		<stop  offset="0.15" style="stop-color:#FFFFFF"/>
		<stop  offset="0.25" style="stop-color:#FFFFFF"/>
		<stop  offset="0.52" style="stop-color:#DFDFDF"/>
		<stop  offset="0.69" style="stop-color:#C7C7C7"/>
		<stop  offset="0.8" style="stop-color:#BCBCBC"/>
		<stop  offset="0.92" style="stop-color:#B1B1B1"/>
		<stop  offset="1" style="stop-color:#CBCBCB"/>
	</linearGradient>
	<path fill="url(#SVGID_56_)" d="M105.945,182.953h-41.25c0,0-1.152,0.277-1.152,1.953c-0.348,1.797,1.254,2.051,1.254,2.051
		l41.148-0.254V182.953z"/>
	
		<linearGradient id="SVGID_57_" gradientUnits="userSpaceOnUse" x1="-436.2104" y1="126.8882" x2="-436.2104" y2="116.8882" gradientTransform="matrix(0 -0.75 -0.75 0 152.916 -150.3887)">
		<stop  offset="0" style="stop-color:#BDBDBD"/>
		<stop  offset="0.15" style="stop-color:#FFFFFF"/>
		<stop  offset="0.25" style="stop-color:#FFFFFF"/>
		<stop  offset="0.52" style="stop-color:#DFDFDF"/>
		<stop  offset="0.69" style="stop-color:#C7C7C7"/>
		<stop  offset="0.8" style="stop-color:#BCBCBC"/>
		<stop  offset="0.92" style="stop-color:#B1B1B1"/>
		<stop  offset="1" style="stop-color:#CBCBCB"/>
	</linearGradient>
	<path fill="url(#SVGID_57_)" d="M57.75,215.77v-78h7.5v78H57.75z"/>
	
		<linearGradient id="SVGID_58_" gradientUnits="userSpaceOnUse" x1="13.791" y1="206.665" x2="22.8678" y2="211.9055" gradientTransform="matrix(0.75 0 0 -0.75 93.9868 342.9199)">
		<stop  offset="0" style="stop-color:#C4C4C4"/>
		<stop  offset="0.15" style="stop-color:#FFFFFF"/>
		<stop  offset="0.25" style="stop-color:#FFFFFF"/>
		<stop  offset="0.44" style="stop-color:#DFDFDF"/>
		<stop  offset="0.6" style="stop-color:#C7C7C7"/>
		<stop  offset="0.8" style="stop-color:#A8A8A8"/>
		<stop  offset="0.97" style="stop-color:#999999"/>
		<stop  offset="1" style="stop-color:#CBCBCB"/>
	</linearGradient>
	<path fill="url(#SVGID_58_)" d="M104.945,182.953c0,0,2.961,0.082,4.371,1.754c1.629,1.996,1.16,4.281,1.16,4.281l-4.031-0.035
		c0,0,0.18-1.488-1.5-2.102V182.953z"/>
</g>
</svg>
