<?xml version="1.0" encoding="utf-8"?>
<!-- Generator: Adobe Illustrator 16.0.0, SVG Export Plug-In . SVG Version: 6.00 Build 0)  -->
<!DOCTYPE svg PUBLIC "-//W3C//DTD SVG 1.1//EN" "http://www.w3.org/Graphics/SVG/1.1/DTD/svg11.dtd">
<svg preserveAspectRatio="none" version="1.1" id="图层_1" xmlns="http://www.w3.org/2000/svg" xmlns:xlink="http://www.w3.org/1999/xlink" x="0px" y="0px"
	 width="340.5px" height="869.754px" viewBox="30 -165.523 340.5 869.754" enable-background="new 30 -165.523 340.5 869.754"
	 xml:space="preserve">
<g id="surface716">
	
		<linearGradient id="SVGID_1_" gradientUnits="userSpaceOnUse" x1="468.6123" y1="-55.71" x2="14.6123" y2="-55.71" gradientTransform="matrix(0.75 0 0 -0.75 19.04 -5.5566)">
		<stop  offset="0" style="stop-color:#B5B5B5"/>
		<stop  offset="0.01" style="stop-color:#FFFFFF"/>
		<stop  offset="0.03" style="stop-color:#EBEBEB"/>
		<stop  offset="0.64" style="stop-color:#E7E7E7"/>
		<stop  offset="0.99" style="stop-color:#E2E2E2"/>
		<stop  offset="1" style="stop-color:#A8A8A8"/>
	</linearGradient>
	<path fill="url(#SVGID_1_)" d="M31.5-165.523H369c0.75,0,1.5,0.781,1.5,1.801v399.449c0,1.5-0.828,1.988-1.824,1.988L31.5,237.977
		c-0.75,0-1.5-1.113-1.5-2.133v-399.867c0-0.75,0.805-1.5,1.801-1.5H31.5z"/>
	
		<linearGradient id="SVGID_2_" gradientUnits="userSpaceOnUse" x1="34.8618" y1="202.8936" x2="14.6118" y2="202.8936" gradientTransform="matrix(0.75 0 0 -0.75 30.123 188.2695)">
		<stop  offset="0" style="stop-color:#ABABAC"/>
		<stop  offset="0.15" style="stop-color:#E5E5E6"/>
		<stop  offset="0.25" style="stop-color:#E7E7E8"/>
		<stop  offset="0.52" style="stop-color:#C0C0C1"/>
		<stop  offset="0.69" style="stop-color:#ABABAC"/>
		<stop  offset="0.8" style="stop-color:#A1A1A2"/>
		<stop  offset="0.92" style="stop-color:#989899"/>
	</linearGradient>
	<path fill="url(#SVGID_2_)" d="M41.082,35.805c0-3.75,3.398-7.5,7.594-7.5c4.406,0,7.594,3.488,7.594,7.793
		c-0.188,4.207-3.398,7.793-7.594,7.793c-3.844,0.164-7.594-3.492-7.594-7.793V35.805z"/>
	<path fill="#717070" d="M49.23,30.254l0.738,0.129c0.738,0.133,0.789,0.359,0.742,0.617l-1.957,10.594c0,0-0.191,0.402-0.449,0.355
		l-1.156,0.121c-0.738-0.129-0.648-0.656-0.602-0.918l1.816-10.289c0.129-0.738,0.336-0.703,0.59-0.66L49.23,30.254z"/>
	
		<linearGradient id="SVGID_3_" gradientUnits="userSpaceOnUse" x1="34.8618" y1="202.8955" x2="14.6118" y2="202.8955" gradientTransform="matrix(0.75 0 0 -0.75 30.123 279.5049)">
		<stop  offset="0" style="stop-color:#ABABAC"/>
		<stop  offset="0.15" style="stop-color:#E5E5E6"/>
		<stop  offset="0.25" style="stop-color:#E7E7E8"/>
		<stop  offset="0.52" style="stop-color:#C0C0C1"/>
		<stop  offset="0.69" style="stop-color:#ABABAC"/>
		<stop  offset="0.8" style="stop-color:#A1A1A2"/>
		<stop  offset="0.92" style="stop-color:#989899"/>
	</linearGradient>
	<path fill="url(#SVGID_3_)" d="M41.082,127.039c0-3.75,3.398-7.5,7.594-7.5c4.406,0,7.594,3.488,7.594,7.793
		c-0.188,4.207-3.398,7.793-7.594,7.793c-3.844,0.164-7.594-3.488-7.594-7.793V127.039z"/>
	<path fill="#717070" d="M49.23,121.488l0.738,0.129c0.738,0.133,0.789,0.359,0.742,0.621l-1.957,10.59c0,0-0.191,0.402-0.449,0.355
		l-1.156,0.121c-0.738-0.129-0.648-0.656-0.602-0.918l1.816-10.289c0.129-0.738,0.336-0.703,0.59-0.656L49.23,121.488z"/>
	
		<linearGradient id="SVGID_4_" gradientUnits="userSpaceOnUse" x1="34.8618" y1="202.8936" x2="14.6118" y2="202.8936" gradientTransform="matrix(0.75 0 0 -0.75 30.123 370.75)">
		<stop  offset="0" style="stop-color:#ABABAC"/>
		<stop  offset="0.15" style="stop-color:#E5E5E6"/>
		<stop  offset="0.25" style="stop-color:#E7E7E8"/>
		<stop  offset="0.52" style="stop-color:#C0C0C1"/>
		<stop  offset="0.69" style="stop-color:#ABABAC"/>
		<stop  offset="0.8" style="stop-color:#A1A1A2"/>
		<stop  offset="0.92" style="stop-color:#989899"/>
	</linearGradient>
	<path fill="url(#SVGID_4_)" d="M41.082,218.285c0-3.75,3.398-7.5,7.594-7.5c4.406,0,7.594,3.488,7.594,7.793
		c-0.188,4.207-3.398,7.793-7.594,7.793c-3.844,0.164-7.594-3.492-7.594-7.793V218.285z"/>
	<path fill="#717070" d="M49.23,212.734l0.738,0.129c0.738,0.133,0.789,0.359,0.742,0.617l-1.957,10.594
		c0,0-0.191,0.402-0.449,0.355l-1.156,0.121c-0.738-0.129-0.648-0.656-0.602-0.918l1.816-10.289c0.129-0.738,0.336-0.703,0.59-0.66
		L49.23,212.734z"/>
	
		<linearGradient id="SVGID_5_" gradientUnits="userSpaceOnUse" x1="34.8633" y1="202.8936" x2="14.6133" y2="202.8936" gradientTransform="matrix(0.75 0 0 -0.75 335.0239 188.2695)">
		<stop  offset="0" style="stop-color:#ABABAC"/>
		<stop  offset="0.15" style="stop-color:#E5E5E6"/>
		<stop  offset="0.25" style="stop-color:#E7E7E8"/>
		<stop  offset="0.52" style="stop-color:#C0C0C1"/>
		<stop  offset="0.69" style="stop-color:#ABABAC"/>
		<stop  offset="0.8" style="stop-color:#A1A1A2"/>
		<stop  offset="0.92" style="stop-color:#989899"/>
	</linearGradient>
	<path fill="url(#SVGID_5_)" d="M345.984,35.805c0-3.75,3.398-7.5,7.594-7.5c4.406,0,7.594,3.488,7.594,7.793
		c-0.188,4.207-3.402,7.793-7.594,7.793c-3.844,0.164-7.594-3.492-7.594-7.793V35.805z"/>
	<path fill="#717070" d="M354.133,30.254l0.738,0.129c0.738,0.133,0.789,0.359,0.742,0.617l-1.957,10.594
		c0,0-0.195,0.402-0.449,0.355l-1.16,0.121c-0.738-0.129-0.645-0.656-0.598-0.918l1.813-10.289c0.133-0.738,0.34-0.703,0.594-0.66
		L354.133,30.254z"/>
	
		<linearGradient id="SVGID_6_" gradientUnits="userSpaceOnUse" x1="34.8633" y1="202.8955" x2="14.6133" y2="202.8955" gradientTransform="matrix(0.75 0 0 -0.75 335.0239 279.5049)">
		<stop  offset="0" style="stop-color:#ABABAC"/>
		<stop  offset="0.15" style="stop-color:#E5E5E6"/>
		<stop  offset="0.25" style="stop-color:#E7E7E8"/>
		<stop  offset="0.52" style="stop-color:#C0C0C1"/>
		<stop  offset="0.69" style="stop-color:#ABABAC"/>
		<stop  offset="0.8" style="stop-color:#A1A1A2"/>
		<stop  offset="0.92" style="stop-color:#989899"/>
	</linearGradient>
	<path fill="url(#SVGID_6_)" d="M345.984,127.039c0-3.75,3.398-7.5,7.594-7.5c4.406,0,7.594,3.488,7.594,7.793
		c-0.188,4.207-3.402,7.793-7.594,7.793c-3.844,0.164-7.594-3.488-7.594-7.793V127.039z"/>
	<path fill="#717070" d="M354.133,121.488l0.738,0.129c0.738,0.133,0.789,0.359,0.742,0.621l-1.957,10.59
		c0,0-0.195,0.402-0.449,0.355l-1.16,0.121c-0.738-0.129-0.645-0.656-0.598-0.918l1.813-10.289c0.133-0.738,0.34-0.703,0.594-0.656
		L354.133,121.488z"/>
	
		<linearGradient id="SVGID_7_" gradientUnits="userSpaceOnUse" x1="34.8633" y1="202.8936" x2="14.6133" y2="202.8936" gradientTransform="matrix(0.75 0 0 -0.75 335.0239 370.75)">
		<stop  offset="0" style="stop-color:#ABABAC"/>
		<stop  offset="0.15" style="stop-color:#E5E5E6"/>
		<stop  offset="0.25" style="stop-color:#E7E7E8"/>
		<stop  offset="0.52" style="stop-color:#C0C0C1"/>
		<stop  offset="0.69" style="stop-color:#ABABAC"/>
		<stop  offset="0.8" style="stop-color:#A1A1A2"/>
		<stop  offset="0.92" style="stop-color:#989899"/>
	</linearGradient>
	<path fill="url(#SVGID_7_)" d="M345.984,218.285c0-3.75,3.398-7.5,7.594-7.5c4.406,0,7.594,3.488,7.594,7.793
		c-0.188,4.207-3.402,7.793-7.594,7.793c-3.844,0.164-7.594-3.492-7.594-7.793V218.285z"/>
	<path fill="#717070" d="M354.133,212.734l0.738,0.129c0.738,0.133,0.789,0.359,0.742,0.617l-1.957,10.594
		c0,0-0.195,0.402-0.449,0.355l-1.16,0.121c-0.738-0.129-0.645-0.656-0.598-0.918l1.813-10.289c0.133-0.738,0.34-0.703,0.594-0.66
		L354.133,212.734z"/>
	
		<linearGradient id="SVGID_8_" gradientUnits="userSpaceOnUse" x1="46.6152" y1="-46.2124" x2="14.6152" y2="-46.2124" gradientTransform="matrix(0.75 0 0 -0.75 250.2959 436.3398)">
		<stop  offset="0" style="stop-color:#C7C7C7"/>
		<stop  offset="0.15" style="stop-color:#FFFFFF"/>
		<stop  offset="0.25" style="stop-color:#FFFFFF"/>
		<stop  offset="0.52" style="stop-color:#DFDFDF"/>
		<stop  offset="0.69" style="stop-color:#C7C7C7"/>
		<stop  offset="0.8" style="stop-color:#BCBCBC"/>
		<stop  offset="0.92" style="stop-color:#B1B1B1"/>
	</linearGradient>
	<path fill="url(#SVGID_8_)" d="M261.258,276.375h24v389.25h-24V276.375z"/>
	
		<linearGradient id="SVGID_9_" gradientUnits="userSpaceOnUse" x1="177.6118" y1="-96.7124" x2="14.6118" y2="-96.7124" gradientTransform="matrix(0.75 0 0 -0.75 128.2637 399.1953)">
		<stop  offset="0" style="stop-color:#C7C7C7"/>
		<stop  offset="0.15" style="stop-color:#FFFFFF"/>
		<stop  offset="0.25" style="stop-color:#FFFFFF"/>
		<stop  offset="0.52" style="stop-color:#DFDFDF"/>
		<stop  offset="0.69" style="stop-color:#C7C7C7"/>
		<stop  offset="0.8" style="stop-color:#BCBCBC"/>
		<stop  offset="0.92" style="stop-color:#B1B1B1"/>
	</linearGradient>
	<path fill="url(#SVGID_9_)" d="M139.223,239.23h122.25v465h-122.25V239.23z"/>
	
		<linearGradient id="SVGID_10_" gradientUnits="userSpaceOnUse" x1="310.6543" y1="203.0586" x2="14.6123" y2="203.0586" gradientTransform="matrix(0.75 0 0 -0.75 78.2744 397.6797)">
		<stop  offset="0" style="stop-color:#292525"/>
		<stop  offset="0.01" style="stop-color:#868584"/>
		<stop  offset="0.03" style="stop-color:#383433"/>
		<stop  offset="0.64" style="stop-color:#373332"/>
		<stop  offset="0.99" style="stop-color:#363130"/>
		<stop  offset="1" style="stop-color:#252221"/>
	</linearGradient>
	<path fill="url(#SVGID_10_)" d="M90.734,237.715h219c0.75,0,1.531,0.805,1.531,1.824l-0.031,11.676c0,0.75-0.707,1.867-1.566,1.867
		l-218.934-0.367c-0.75,0-1.5-0.461-1.5-1.48v-12.02c0-0.75,0.656-1.523,1.516-1.523L90.734,237.715z"/>
	
		<linearGradient id="SVGID_11_" gradientUnits="userSpaceOnUse" x1="244.8408" y1="197.8193" x2="14.6118" y2="197.8193" gradientTransform="matrix(0.75 0 0 -0.75 102.9546 413.4805)">
		<stop  offset="0" style="stop-color:#292525"/>
		<stop  offset="0.01" style="stop-color:#868584"/>
		<stop  offset="0.03" style="stop-color:#383433"/>
		<stop  offset="0.64" style="stop-color:#373332"/>
		<stop  offset="0.99" style="stop-color:#363130"/>
		<stop  offset="1" style="stop-color:#252221"/>
	</linearGradient>
	<path fill="url(#SVGID_11_)" d="M115.414,253.516h169.5c0.75,0,1.672,0.777,1.672,1.801l-0.172,19.199
		c0,1.5-0.527,2.039-1.387,2.039l-169.613,0.211c-0.75,0-1.5-1.039-1.5-2.059v-19.691c0-0.75,0.68-1.547,1.539-1.547
		L115.414,253.516z"/>
	
		<linearGradient id="SVGID_12_" gradientUnits="userSpaceOnUse" x1="46.6133" y1="-46.2124" x2="14.6133" y2="-46.2124" gradientTransform="matrix(0.75 0 0 -0.75 104.4619 436.3398)">
		<stop  offset="0" style="stop-color:#C7C7C7"/>
		<stop  offset="0.15" style="stop-color:#FFFFFF"/>
		<stop  offset="0.25" style="stop-color:#FFFFFF"/>
		<stop  offset="0.52" style="stop-color:#DFDFDF"/>
		<stop  offset="0.69" style="stop-color:#C7C7C7"/>
		<stop  offset="0.8" style="stop-color:#BCBCBC"/>
		<stop  offset="0.92" style="stop-color:#B1B1B1"/>
	</linearGradient>
	<path fill="url(#SVGID_12_)" d="M115.422,276.375h24v389.25h-24V276.375z"/>
</g>
</svg>
