<?xml version="1.0" encoding="utf-8"?>
<!-- Generator: Adobe Illustrator 16.0.0, SVG Export Plug-In . SVG Version: 6.00 Build 0)  -->
<!DOCTYPE svg PUBLIC "-//W3C//DTD SVG 1.1//EN" "http://www.w3.org/Graphics/SVG/1.1/DTD/svg11.dtd">
<svg preserveAspectRatio="none" version="1.1" id="图层_1" xmlns="http://www.w3.org/2000/svg" xmlns:xlink="http://www.w3.org/1999/xlink" x="0px" y="0px"
	 width="340.5px" height="322.508px" viewBox="30 -19.797 340.5 322.508" enable-background="new 30 -19.797 340.5 322.508"
	 xml:space="preserve">
<g id="surface1086">
	
		<linearGradient id="SVGID_1_" gradientUnits="userSpaceOnUse" x1="21.6118" y1="188.2891" x2="14.6118" y2="188.2891" gradientTransform="matrix(0.75 0 0 -0.75 186.5293 140.1689)">
		<stop  offset="0" style="stop-color:#BDA47F"/>
		<stop  offset="0.15" style="stop-color:#FFE0B3"/>
		<stop  offset="0.25" style="stop-color:#FFEED7"/>
		<stop  offset="0.52" style="stop-color:#DFC297"/>
		<stop  offset="0.69" style="stop-color:#C7AD86"/>
		<stop  offset="0.8" style="stop-color:#BCA37E"/>
		<stop  offset="0.92" style="stop-color:#B19A77"/>
		<stop  offset="1" style="stop-color:#CBB189"/>
	</linearGradient>
	<path fill="url(#SVGID_1_)" d="M197.488,17.703h5.25v-37.5h-5.25V17.703z"/>
	
		<linearGradient id="SVGID_2_" gradientUnits="userSpaceOnUse" x1="100.6113" y1="206.2881" x2="14.6113" y2="206.2881" gradientTransform="matrix(0.75 0 0 -0.75 157.0806 176.0117)">
		<stop  offset="0" style="stop-color:#BDA47F"/>
		<stop  offset="0.15" style="stop-color:#FFE0B3"/>
		<stop  offset="0.25" style="stop-color:#FFEED7"/>
		<stop  offset="0.52" style="stop-color:#DFC297"/>
		<stop  offset="0.69" style="stop-color:#C7AD86"/>
		<stop  offset="0.8" style="stop-color:#BCA37E"/>
		<stop  offset="0.92" style="stop-color:#B19A77"/>
		<stop  offset="1" style="stop-color:#CBB189"/>
	</linearGradient>
	<path fill="url(#SVGID_2_)" d="M168.039,26.547h64.5v-10.5h-64.5V26.547z"/>
	
		<linearGradient id="SVGID_3_" gradientUnits="userSpaceOnUse" x1="14.6128" y1="193.2871" x2="67.6128" y2="193.2871" gradientTransform="matrix(0.75 0 0 -0.75 25.4819 432.6768)">
		<stop  offset="0" style="stop-color:#B59D79"/>
		<stop  offset="0.01" style="stop-color:#FFE5C1"/>
		<stop  offset="0.05" style="stop-color:#EBCC9F"/>
		<stop  offset="0.9" style="stop-color:#E7C99C"/>
		<stop  offset="0.95" style="stop-color:#E2C499"/>
		<stop  offset="1" style="stop-color:#A89170"/>
	</linearGradient>
	<path fill="url(#SVGID_3_)" d="M36.441,272.711h39.75l-22.5,30h-17.25V272.711z"/>
	
		<linearGradient id="SVGID_4_" gradientUnits="userSpaceOnUse" x1="-574.6123" y1="193.2871" x2="-521.6123" y2="193.2871" gradientTransform="matrix(-0.75 0 0 -0.75 -67.8223 432.6768)">
		<stop  offset="0" style="stop-color:#B59D79"/>
		<stop  offset="0.01" style="stop-color:#FFE5C1"/>
		<stop  offset="0.05" style="stop-color:#EBCC9F"/>
		<stop  offset="0.9" style="stop-color:#E7C99C"/>
		<stop  offset="0.95" style="stop-color:#E2C499"/>
		<stop  offset="1" style="stop-color:#A89170"/>
	</linearGradient>
	<path fill="url(#SVGID_4_)" d="M363.137,272.711h-39.75l22.5,30h17.25V272.711z"/>
	
		<linearGradient id="SVGID_5_" gradientUnits="userSpaceOnUse" x1="14.6133" y1="67.7871" x2="468.6133" y2="67.7871" gradientTransform="matrix(0.75 0 0 -0.75 19.04 193.2227)">
		<stop  offset="0" style="stop-color:#B3A593"/>
		<stop  offset="0.01" style="stop-color:#FDEEDA"/>
		<stop  offset="0.05" style="stop-color:#E9D7BF"/>
		<stop  offset="0.9" style="stop-color:#E5D3BC"/>
		<stop  offset="0.95" style="stop-color:#E0CEB8"/>
		<stop  offset="1" style="stop-color:#A69988"/>
	</linearGradient>
	<path fill="url(#SVGID_5_)" d="M30,33.258h340.5v218.25H30V33.258z"/>
	
		<linearGradient id="SVGID_6_" gradientUnits="userSpaceOnUse" x1="241.6123" y1="213.2861" x2="241.6123" y2="183.2861" gradientTransform="matrix(0.75 0 0 -0.75 19.04 410.707)">
		<stop  offset="0" style="stop-color:#B59D79"/>
		<stop  offset="0.01" style="stop-color:#FFE5C1"/>
		<stop  offset="0.05" style="stop-color:#EBCC9F"/>
		<stop  offset="0.9" style="stop-color:#E7C99C"/>
		<stop  offset="0.95" style="stop-color:#E2C499"/>
		<stop  offset="1" style="stop-color:#A89170"/>
	</linearGradient>
	<path fill="url(#SVGID_6_)" d="M30,250.742h340.5v22.5H30V250.742z"/>
	
		<linearGradient id="SVGID_7_" gradientUnits="userSpaceOnUse" x1="241.6123" y1="213.2871" x2="241.6123" y2="201.2871" gradientTransform="matrix(0.75 0 0 -0.75 19.04 184.7188)">
		<stop  offset="0" style="stop-color:#B59D79"/>
		<stop  offset="0.01" style="stop-color:#FFE5C1"/>
		<stop  offset="0.05" style="stop-color:#EBCC9F"/>
		<stop  offset="0.9" style="stop-color:#E7C99C"/>
		<stop  offset="0.95" style="stop-color:#E2C499"/>
		<stop  offset="1" style="stop-color:#A89170"/>
	</linearGradient>
	<path fill="url(#SVGID_7_)" d="M30,24.754h340.5v9H30V24.754z"/>
	
		<linearGradient id="SVGID_8_" gradientUnits="userSpaceOnUse" x1="241.6123" y1="213.2861" x2="241.6123" y2="205.2861" gradientTransform="matrix(0.75 0 0 -0.75 19.04 289.5117)">
		<stop  offset="0" style="stop-color:#B59D79"/>
		<stop  offset="0.01" style="stop-color:#FFE5C1"/>
		<stop  offset="0.05" style="stop-color:#EBCC9F"/>
		<stop  offset="0.9" style="stop-color:#E7C99C"/>
		<stop  offset="0.95" style="stop-color:#E2C499"/>
		<stop  offset="1" style="stop-color:#A89170"/>
	</linearGradient>
	<path fill="url(#SVGID_8_)" d="M30,129.547h340.5v6H30V129.547z"/>
	
		<linearGradient id="SVGID_9_" gradientUnits="userSpaceOnUse" x1="14.6157" y1="188.5703" x2="63.6938" y2="188.5703" gradientTransform="matrix(0.75 0 0 -0.75 44.8076 212.0557)">
		<stop  offset="0" style="stop-color:#9DA2A3"/>
		<stop  offset="0.01" style="stop-color:#E6EBEB"/>
		<stop  offset="0.05" style="stop-color:#CDD3D4"/>
		<stop  offset="0.9" style="stop-color:#CACFD0"/>
		<stop  offset="0.95" style="stop-color:#C5CBCC"/>
		<stop  offset="1" style="stop-color:#929697"/>
	</linearGradient>
	<path fill="url(#SVGID_9_)" d="M57.27,52.09h33.75c0.75,0,1.559,0.652,1.559,1.457L92.52,87.34c0,1.5-0.602,1.828-1.414,1.828
		L57.27,88.84c-0.75,0-1.5-0.344-1.5-1.148V53.59c0-0.75,0.656-1.5,1.469-1.5H57.27z"/>
	<path fill="#E85464" stroke="#717070" stroke-linejoin="bevel" stroke-miterlimit="10" d="M59.141,55.129h30v11.25h-30V55.129z"/>
	
		<linearGradient id="SVGID_10_" gradientUnits="userSpaceOnUse" x1="17.6113" y1="213.2871" x2="17.6113" y2="195.2871" gradientTransform="matrix(0.75 0 0 -0.75 48.1821 230.5938)">
		<stop  offset="0" style="stop-color:#B5B5B5"/>
		<stop  offset="0.01" style="stop-color:#FFFFFF"/>
		<stop  offset="0.05" style="stop-color:#EBEBEB"/>
		<stop  offset="0.9" style="stop-color:#E7E7E7"/>
		<stop  offset="0.95" style="stop-color:#E2E2E2"/>
		<stop  offset="1" style="stop-color:#A8A8A8"/>
	</linearGradient>
	<path fill="url(#SVGID_10_)" d="M59.141,70.629h4.5v13.5h-4.5V70.629z"/>
	
		<linearGradient id="SVGID_11_" gradientUnits="userSpaceOnUse" x1="17.6138" y1="213.2871" x2="17.6138" y2="195.2871" gradientTransform="matrix(0.75 0 0 -0.75 56.0786 230.5938)">
		<stop  offset="0" style="stop-color:#B5B5B5"/>
		<stop  offset="0.01" style="stop-color:#FFFFFF"/>
		<stop  offset="0.05" style="stop-color:#EBEBEB"/>
		<stop  offset="0.9" style="stop-color:#E7E7E7"/>
		<stop  offset="0.95" style="stop-color:#E2E2E2"/>
		<stop  offset="1" style="stop-color:#A8A8A8"/>
	</linearGradient>
	<path fill="url(#SVGID_11_)" d="M67.039,70.629h4.5v13.5h-4.5V70.629z"/>
	
		<linearGradient id="SVGID_12_" gradientUnits="userSpaceOnUse" x1="17.6152" y1="213.2871" x2="17.6152" y2="195.2871" gradientTransform="matrix(0.75 0 0 -0.75 65.3589 230.5938)">
		<stop  offset="0" style="stop-color:#B5B5B5"/>
		<stop  offset="0.01" style="stop-color:#FFFFFF"/>
		<stop  offset="0.05" style="stop-color:#EBEBEB"/>
		<stop  offset="0.9" style="stop-color:#E7E7E7"/>
		<stop  offset="0.95" style="stop-color:#E2E2E2"/>
		<stop  offset="1" style="stop-color:#A8A8A8"/>
	</linearGradient>
	<path fill="url(#SVGID_12_)" d="M76.32,70.629h4.5v13.5h-4.5V70.629z"/>
	
		<linearGradient id="SVGID_13_" gradientUnits="userSpaceOnUse" x1="17.6128" y1="213.2871" x2="17.6128" y2="195.2871" gradientTransform="matrix(0.75 0 0 -0.75 73.9468 230.5938)">
		<stop  offset="0" style="stop-color:#B5B5B5"/>
		<stop  offset="0.01" style="stop-color:#FFFFFF"/>
		<stop  offset="0.05" style="stop-color:#EBEBEB"/>
		<stop  offset="0.9" style="stop-color:#E7E7E7"/>
		<stop  offset="0.95" style="stop-color:#E2E2E2"/>
		<stop  offset="1" style="stop-color:#A8A8A8"/>
	</linearGradient>
	<path fill="url(#SVGID_13_)" d="M84.906,70.629h4.5v13.5h-4.5V70.629z"/>
	
		<linearGradient id="SVGID_14_" gradientUnits="userSpaceOnUse" x1="14.6143" y1="193.5439" x2="63.6924" y2="193.5439" gradientTransform="matrix(0.75 0 0 -0.75 99.0747 212.0557)">
		<stop  offset="0" style="stop-color:#9DA2A3"/>
		<stop  offset="0.01" style="stop-color:#E6EBEB"/>
		<stop  offset="0.05" style="stop-color:#CDD3D4"/>
		<stop  offset="0.9" style="stop-color:#CACFD0"/>
		<stop  offset="0.95" style="stop-color:#C5CBCC"/>
		<stop  offset="1" style="stop-color:#929697"/>
	</linearGradient>
	<path fill="url(#SVGID_14_)" d="M111.535,52.09h33.75c0.75,0,1.559,0.523,1.559,1.164l-0.059,27.336
		c0,0.75-0.598,1.117-1.414,1.117l-33.836-0.367c-0.75,0-1.5-0.172-1.5-0.813V53.59c0-0.75,0.66-1.5,1.473-1.5H111.535z"/>
	<path fill="#E85464" stroke="#717070" stroke-linejoin="bevel" stroke-miterlimit="10" d="M113.41,55.129h30v11.25h-30V55.129z"/>
	
		<linearGradient id="SVGID_15_" gradientUnits="userSpaceOnUse" x1="17.6147" y1="213.2871" x2="17.6147" y2="204.2871" gradientTransform="matrix(0.75 0 0 -0.75 102.4453 232.7148)">
		<stop  offset="0" style="stop-color:#B5B5B5"/>
		<stop  offset="0.01" style="stop-color:#FFFFFF"/>
		<stop  offset="0.05" style="stop-color:#EBEBEB"/>
		<stop  offset="0.9" style="stop-color:#E7E7E7"/>
		<stop  offset="0.95" style="stop-color:#E2E2E2"/>
		<stop  offset="1" style="stop-color:#A8A8A8"/>
	</linearGradient>
	<path fill="url(#SVGID_15_)" d="M113.406,72.75h4.5v6.75h-4.5V72.75z"/>
	
		<linearGradient id="SVGID_16_" gradientUnits="userSpaceOnUse" x1="17.6108" y1="213.2871" x2="17.6108" y2="204.2871" gradientTransform="matrix(0.75 0 0 -0.75 110.3423 232.7148)">
		<stop  offset="0" style="stop-color:#B5B5B5"/>
		<stop  offset="0.01" style="stop-color:#FFFFFF"/>
		<stop  offset="0.05" style="stop-color:#EBEBEB"/>
		<stop  offset="0.9" style="stop-color:#E7E7E7"/>
		<stop  offset="0.95" style="stop-color:#E2E2E2"/>
		<stop  offset="1" style="stop-color:#A8A8A8"/>
	</linearGradient>
	<path fill="url(#SVGID_16_)" d="M121.301,72.75h4.5v6.75h-4.5V72.75z"/>
	
		<linearGradient id="SVGID_17_" gradientUnits="userSpaceOnUse" x1="17.6128" y1="213.2871" x2="17.6128" y2="204.2871" gradientTransform="matrix(0.75 0 0 -0.75 119.6221 232.7148)">
		<stop  offset="0" style="stop-color:#B5B5B5"/>
		<stop  offset="0.01" style="stop-color:#FFFFFF"/>
		<stop  offset="0.05" style="stop-color:#EBEBEB"/>
		<stop  offset="0.9" style="stop-color:#E7E7E7"/>
		<stop  offset="0.95" style="stop-color:#E2E2E2"/>
		<stop  offset="1" style="stop-color:#A8A8A8"/>
	</linearGradient>
	<path fill="url(#SVGID_17_)" d="M130.582,72.75h4.5v6.75h-4.5V72.75z"/>
	
		<linearGradient id="SVGID_18_" gradientUnits="userSpaceOnUse" x1="17.6147" y1="213.2871" x2="17.6147" y2="204.2871" gradientTransform="matrix(0.75 0 0 -0.75 128.2104 232.7148)">
		<stop  offset="0" style="stop-color:#B5B5B5"/>
		<stop  offset="0.01" style="stop-color:#FFFFFF"/>
		<stop  offset="0.05" style="stop-color:#EBEBEB"/>
		<stop  offset="0.9" style="stop-color:#E7E7E7"/>
		<stop  offset="0.95" style="stop-color:#E2E2E2"/>
		<stop  offset="1" style="stop-color:#A8A8A8"/>
	</linearGradient>
	<path fill="url(#SVGID_18_)" d="M139.172,72.75h4.5v6.75h-4.5V72.75z"/>
	
		<radialGradient id="SVGID_19_" cx="30.229" cy="614.2539" r="21.9747" gradientTransform="matrix(0.75 0 0 0.75 205.1328 -397.7979)" gradientUnits="userSpaceOnUse">
		<stop  offset="0" style="stop-color:#F8D8A8"/>
		<stop  offset="0.54" style="stop-color:#F3D4A5"/>
		<stop  offset="0.74" style="stop-color:#FFF9F3"/>
		<stop  offset="0.91" style="stop-color:#F3D4A5"/>
		<stop  offset="1" style="stop-color:#F3D4A5"/>
	</radialGradient>
	<path fill="url(#SVGID_19_)" stroke="#CDCECE" stroke-width="0.25" stroke-linejoin="bevel" stroke-miterlimit="10" d="
		M216.094,63.238c0,6,5.242,11.25,11.727,11.25c6.273,0,11.695-5.18,11.695-11.598c-0.172-6.402-5.242-11.594-11.695-11.594
		c-6.477-0.059-11.727,5.195-11.727,11.594V63.238z"/>
	<path fill="#A89170" d="M217.758,63.094c0,5.25,4.5,9.75,10.063,9.75c5.688,0,10.035-4.445,10.035-9.953
		c0.152-5.797-4.5-9.949-10.035-9.949c-5.563-0.348-10.063,4.457-10.063,9.949V63.094z"/>
	
		<linearGradient id="SVGID_20_" gradientUnits="userSpaceOnUse" x1="42.6465" y1="608.3682" x2="12.38" y2="625.8425" gradientTransform="matrix(0.75 0 0 0.75 207.2217 -399.8613)">
		<stop  offset="0" style="stop-color:#C4AA84"/>
		<stop  offset="0.15" style="stop-color:#FFE0B3"/>
		<stop  offset="0.25" style="stop-color:#FFE6C6"/>
		<stop  offset="0.44" style="stop-color:#DFC297"/>
		<stop  offset="0.6" style="stop-color:#C7AD86"/>
		<stop  offset="0.8" style="stop-color:#A89170"/>
		<stop  offset="0.97" style="stop-color:#998566"/>
		<stop  offset="1" style="stop-color:#CBB189"/>
	</linearGradient>
	<path fill="url(#SVGID_20_)" d="M218.184,62.672c0,5.25,4.309,9.75,9.637,9.75c5.363,0,9.613-4.258,9.613-9.531
		c0.25-5.469-4.309-9.531-9.613-9.531c-5.137,0.313-9.637,4.27-9.637,9.531V62.672z"/>
	
		<linearGradient id="SVGID_21_" gradientUnits="userSpaceOnUse" x1="19.688" y1="617.1494" x2="14.5942" y2="617.1494" gradientTransform="matrix(0.75 0 0 0.75 214.9404 -399.9292)">
		<stop  offset="0" style="stop-color:#C4AA84"/>
		<stop  offset="0.15" style="stop-color:#FFE0B3"/>
		<stop  offset="0.25" style="stop-color:#FFEED7"/>
		<stop  offset="0.44" style="stop-color:#DFC297"/>
		<stop  offset="0.6" style="stop-color:#C7AD86"/>
		<stop  offset="0.8" style="stop-color:#A89170"/>
		<stop  offset="0.97" style="stop-color:#998566"/>
		<stop  offset="1" style="stop-color:#CBB189"/>
	</linearGradient>
	<path fill="url(#SVGID_21_)" d="M227.398,72.355h0.75c0.75,0,1.559-0.566,1.559-1.313l-0.059-15.938
		c0-0.75-0.551-1.637-1.305-1.637l-0.945,0.137c-0.75,0-1.512,0.469-1.512,1.215l0.012,16.035c0,0.75,0.598,1.539,1.352,1.539
		L227.398,72.355z"/>
	<path fill="#EACD98" d="M227.215,70.664h0.75c0,0,0.461-0.094,0.461-0.207l0.289-2.043c0-0.75-0.383-0.496-0.496-0.496
		l-1.004-0.254c0,0,0,0.348,0,0.461V70.664c0,0,0.094,0,0.207,0H227.215z"/>
	<path fill="#B4B5B5" d="M268.477,62.547c0-6,5.227-11.25,11.711-11.25c6.289,0,11.711,5.191,11.711,11.594
		c-0.172,6.406-5.258,11.598-11.711,11.598c-6.461,0.059-11.711-5.191-11.711-11.598V62.547z"/>
	
		<radialGradient id="SVGID_22_" cx="29.4824" cy="198.5684" r="20.9212" gradientTransform="matrix(0.75 0 0 -0.75 258.0786 211.8184)" gradientUnits="userSpaceOnUse">
		<stop  offset="0" style="stop-color:#D6D6D7"/>
		<stop  offset="0.54" style="stop-color:#D2D2D3"/>
		<stop  offset="0.74" style="stop-color:#FAFAFB"/>
		<stop  offset="0.91" style="stop-color:#D2D2D3"/>
		<stop  offset="1" style="stop-color:#D2D2D3"/>
	</radialGradient>
	<path fill="url(#SVGID_22_)" stroke="#CDCECE" stroke-width="0.25" stroke-linejoin="bevel" stroke-miterlimit="10" d="
		M269.039,63.105c0-6,4.977-11.25,11.148-11.25c6.102,0,11.148,4.941,11.148,11.035c0.203,6.215-5.008,11.039-11.148,11.039
		c-5.898-0.324-11.148-4.941-11.148-11.039V63.105z"/>
	<path fill="#106428" d="M271.641,62.68c0-4.5,3.816-8.25,8.547-8.25c4.953,0,8.547,3.789,8.547,8.461
		c0.156,5.039-3.836,8.465-8.547,8.465c-4.797,0.324-8.547-3.789-8.547-8.465V62.68z"/>
	
		<radialGradient id="SVGID_23_" cx="25.2183" cy="202.8057" r="14.9087" gradientTransform="matrix(0.75 0 0 -0.75 261.2739 214.9941)" gradientUnits="userSpaceOnUse">
		<stop  offset="0" style="stop-color:#00C25C"/>
		<stop  offset="0.56" style="stop-color:#50CC77"/>
		<stop  offset="0.79" style="stop-color:#00BE5A"/>
		<stop  offset="0.89" style="stop-color:#00BE5A"/>
		<stop  offset="1" style="stop-color:#00BE5A"/>
	</radialGradient>
	<path fill="url(#SVGID_23_)" stroke="#1D953F" stroke-width="0.25" stroke-linejoin="bevel" stroke-miterlimit="10" d="
		M272.234,62.527c0-3.75,3.559-7.5,7.953-7.5c4.047,0,7.953,3.523,7.953,7.863c-0.156,4.137-3.563,7.863-7.953,7.863
		c-4.203,0.023-7.953-3.52-7.953-7.863V62.527z"/>
	
		<linearGradient id="SVGID_24_" gradientUnits="userSpaceOnUse" x1="37.6123" y1="199.7881" x2="14.6123" y2="199.7881" gradientTransform="matrix(0.75 0 0 -0.75 309.8843 211.2617)">
		<stop  offset="0" style="stop-color:#A8A8A8"/>
		<stop  offset="0.03" style="stop-color:#F2F2F2"/>
		<stop  offset="0.05" style="stop-color:#DBDBDB"/>
		<stop  offset="0.64" style="stop-color:#D8D8D8"/>
		<stop  offset="0.95" style="stop-color:#D3D3D3"/>
		<stop  offset="1" style="stop-color:#9C9C9C"/>
	</linearGradient>
	<path fill="url(#SVGID_24_)" d="M320.844,51.297h17.25v20.25h-17.25V51.297z"/>
	<path fill="#B60717" d="M323.633,53.348h12v16.5h-12V53.348z"/>
	<path fill="#C16264" d="M323.633,53.348h12v6h-12V53.348z"/>
	
		<linearGradient id="SVGID_25_" gradientUnits="userSpaceOnUse" x1="23.1118" y1="213.2861" x2="23.1118" y2="205.2861" gradientTransform="matrix(0.75 0 0 -0.75 55.5645 289.5117)">
		<stop  offset="0" style="stop-color:#9B8969"/>
		<stop  offset="0.01" style="stop-color:#E3D1B2"/>
		<stop  offset="0.05" style="stop-color:#CAB38B"/>
		<stop  offset="0.9" style="stop-color:#C6B088"/>
		<stop  offset="0.95" style="stop-color:#C2AC85"/>
		<stop  offset="1" style="stop-color:#8F7F61"/>
	</linearGradient>
	<path fill="url(#SVGID_25_)" d="M66.523,129.547h12.75v6h-12.75V129.547z"/>
	
		<linearGradient id="SVGID_26_" gradientUnits="userSpaceOnUse" x1="23.1138" y1="213.2861" x2="23.1138" y2="205.2861" gradientTransform="matrix(0.75 0 0 -0.75 106.5278 289.5117)">
		<stop  offset="0" style="stop-color:#9B8969"/>
		<stop  offset="0.01" style="stop-color:#E3D1B2"/>
		<stop  offset="0.05" style="stop-color:#CAB38B"/>
		<stop  offset="0.9" style="stop-color:#C6B088"/>
		<stop  offset="0.95" style="stop-color:#C2AC85"/>
		<stop  offset="1" style="stop-color:#8F7F61"/>
	</linearGradient>
	<path fill="url(#SVGID_26_)" d="M117.488,129.547h12.75v6h-12.75V129.547z"/>
	
		<linearGradient id="SVGID_27_" gradientUnits="userSpaceOnUse" x1="23.1108" y1="213.2861" x2="23.1108" y2="205.2861" gradientTransform="matrix(0.75 0 0 -0.75 157.4912 289.5117)">
		<stop  offset="0" style="stop-color:#9B8969"/>
		<stop  offset="0.01" style="stop-color:#E3D1B2"/>
		<stop  offset="0.05" style="stop-color:#CAB38B"/>
		<stop  offset="0.9" style="stop-color:#C6B088"/>
		<stop  offset="0.95" style="stop-color:#C2AC85"/>
		<stop  offset="1" style="stop-color:#8F7F61"/>
	</linearGradient>
	<path fill="url(#SVGID_27_)" d="M168.449,129.547h12.75v6h-12.75V129.547z"/>
	
		<linearGradient id="SVGID_28_" gradientUnits="userSpaceOnUse" x1="23.1128" y1="213.2861" x2="23.1128" y2="205.2861" gradientTransform="matrix(0.75 0 0 -0.75 208.4546 289.5117)">
		<stop  offset="0" style="stop-color:#9B8969"/>
		<stop  offset="0.01" style="stop-color:#E3D1B2"/>
		<stop  offset="0.05" style="stop-color:#CAB38B"/>
		<stop  offset="0.9" style="stop-color:#C6B088"/>
		<stop  offset="0.95" style="stop-color:#C2AC85"/>
		<stop  offset="1" style="stop-color:#8F7F61"/>
	</linearGradient>
	<path fill="url(#SVGID_28_)" d="M219.414,129.547h12.75v6h-12.75V129.547z"/>
	
		<linearGradient id="SVGID_29_" gradientUnits="userSpaceOnUse" x1="23.1147" y1="213.2861" x2="23.1147" y2="205.2861" gradientTransform="matrix(0.75 0 0 -0.75 259.418 289.5117)">
		<stop  offset="0" style="stop-color:#9B8969"/>
		<stop  offset="0.01" style="stop-color:#E3D1B2"/>
		<stop  offset="0.05" style="stop-color:#CAB38B"/>
		<stop  offset="0.9" style="stop-color:#C6B088"/>
		<stop  offset="0.95" style="stop-color:#C2AC85"/>
		<stop  offset="1" style="stop-color:#8F7F61"/>
	</linearGradient>
	<path fill="url(#SVGID_29_)" d="M270.379,129.547h12.75v6h-12.75V129.547z"/>
	
		<linearGradient id="SVGID_30_" gradientUnits="userSpaceOnUse" x1="23.1118" y1="213.2861" x2="23.1118" y2="205.2861" gradientTransform="matrix(0.75 0 0 -0.75 310.3809 289.5117)">
		<stop  offset="0" style="stop-color:#9B8969"/>
		<stop  offset="0.01" style="stop-color:#E3D1B2"/>
		<stop  offset="0.05" style="stop-color:#CAB38B"/>
		<stop  offset="0.9" style="stop-color:#C6B088"/>
		<stop  offset="0.95" style="stop-color:#C2AC85"/>
		<stop  offset="1" style="stop-color:#8F7F61"/>
	</linearGradient>
	<path fill="url(#SVGID_30_)" d="M321.34,129.547h12.75v6h-12.75V129.547z"/>
	
		<linearGradient id="SVGID_31_" gradientUnits="userSpaceOnUse" x1="26.6138" y1="213.2861" x2="26.6138" y2="200.2861" gradientTransform="matrix(0.75 0 0 -0.75 180.3174 159.6094)">
		<stop  offset="0" style="stop-color:#B59D79"/>
		<stop  offset="0.01" style="stop-color:#FFE5C1"/>
		<stop  offset="0.05" style="stop-color:#EBCC9F"/>
		<stop  offset="0.9" style="stop-color:#E7C99C"/>
		<stop  offset="0.95" style="stop-color:#E2C499"/>
		<stop  offset="1" style="stop-color:#A89170"/>
	</linearGradient>
	<path fill="url(#SVGID_31_)" d="M191.277,9.395h18v-9.75h-18V9.395z"/>
	
		<linearGradient id="SVGID_32_" gradientUnits="userSpaceOnUse" x1="26.6138" y1="213.2842" x2="26.6138" y2="205.2842" gradientTransform="matrix(0.75 0 0 -0.75 180.3174 161.5996)">
		<stop  offset="0" style="stop-color:#B4954F"/>
		<stop  offset="0.01" style="stop-color:#FEDD9C"/>
		<stop  offset="0.05" style="stop-color:#EAC268"/>
		<stop  offset="0.9" style="stop-color:#E6BF67"/>
		<stop  offset="0.95" style="stop-color:#E1BB64"/>
		<stop  offset="1" style="stop-color:#A78A48"/>
	</linearGradient>
	<path fill="url(#SVGID_32_)" d="M191.277,7.637h18v-6h-18V7.637z"/>
	
		<linearGradient id="SVGID_33_" gradientUnits="userSpaceOnUse" x1="26.6138" y1="203.79" x2="14.6138" y2="203.79" gradientTransform="matrix(0.75 0 0 -0.75 184.9341 161.665)">
		<stop  offset="0" style="stop-color:#BC9C53"/>
		<stop  offset="0.15" style="stop-color:#FED681"/>
		<stop  offset="0.25" style="stop-color:#FEE8C2"/>
		<stop  offset="0.52" style="stop-color:#DEB863"/>
		<stop  offset="0.69" style="stop-color:#C6A457"/>
		<stop  offset="0.8" style="stop-color:#BB9B52"/>
		<stop  offset="0.92" style="stop-color:#B0924D"/>
		<stop  offset="1" style="stop-color:#CBA859"/>
	</linearGradient>
	<path fill="url(#SVGID_33_)" d="M195.895,15.949h9V1.699h-9V15.949z"/>
	
		<linearGradient id="SVGID_34_" gradientUnits="userSpaceOnUse" x1="22.6108" y1="208.2881" x2="14.6108" y2="208.2881" gradientTransform="matrix(0.75 0 0 -0.75 186.2842 192.0547)">
		<stop  offset="0" style="stop-color:#BCAD9A"/>
		<stop  offset="0.15" style="stop-color:#FDEAD3"/>
		<stop  offset="0.25" style="stop-color:#FEF3E7"/>
		<stop  offset="0.52" style="stop-color:#DECCB6"/>
		<stop  offset="0.69" style="stop-color:#C5B5A2"/>
		<stop  offset="0.8" style="stop-color:#BAAB98"/>
		<stop  offset="0.92" style="stop-color:#B0A190"/>
		<stop  offset="1" style="stop-color:#CABAA5"/>
	</linearGradient>
	<path fill="url(#SVGID_34_)" d="M197.242,39.59h6v-7.5h-6V39.59z"/>
	
		<linearGradient id="SVGID_35_" gradientUnits="userSpaceOnUse" x1="27.6118" y1="201.79" x2="14.6118" y2="201.79" gradientTransform="matrix(0.75 0 0 -0.75 184.4741 175.7637)">
		<stop  offset="0" style="stop-color:#BCAD9A"/>
		<stop  offset="0.15" style="stop-color:#FDEAD3"/>
		<stop  offset="0.25" style="stop-color:#FEF3E7"/>
		<stop  offset="0.52" style="stop-color:#DECCB6"/>
		<stop  offset="0.69" style="stop-color:#C5B5A2"/>
		<stop  offset="0.8" style="stop-color:#BAAB98"/>
		<stop  offset="0.92" style="stop-color:#B0A190"/>
		<stop  offset="1" style="stop-color:#CABAA5"/>
	</linearGradient>
	<path fill="url(#SVGID_35_)" d="M195.434,33.047h9.75v-17.25h-9.75V33.047z"/>
</g>
</svg>
