<?xml version="1.0" encoding="utf-8"?>
<!-- Generator: Adobe Illustrator 16.0.0, SVG Export Plug-In . SVG Version: 6.00 Build 0)  -->
<!DOCTYPE svg PUBLIC "-//W3C//DTD SVG 1.1//EN" "http://www.w3.org/Graphics/SVG/1.1/DTD/svg11.dtd">
<svg preserveAspectRatio="none" version="1.1" id="图层_1" xmlns="http://www.w3.org/2000/svg" xmlns:xlink="http://www.w3.org/1999/xlink" x="0px" y="0px"
	 width="340.5px" height="242.23px" viewBox="30 20.527 340.5 242.23" enable-background="new 30 20.527 340.5 242.23"
	 xml:space="preserve">
<g id="surface861">
	
		<linearGradient id="SVGID_1_" gradientUnits="userSpaceOnUse" x1="91.6128" y1="195.7852" x2="14.6128" y2="195.7852" gradientTransform="matrix(0.75 0 0 -0.75 25.001 342.1973)">
		<stop  offset="0" style="stop-color:#90A38C"/>
		<stop  offset="0.01" style="stop-color:#D8EBD4"/>
		<stop  offset="0.03" style="stop-color:#BDD4B7"/>
		<stop  offset="0.64" style="stop-color:#BAD0B4"/>
		<stop  offset="0.99" style="stop-color:#B5CCB0"/>
		<stop  offset="1" style="stop-color:#869782"/>
	</linearGradient>
	<path fill="url(#SVGID_1_)" d="M35.961,182.234h57.75l-18,26.25h-22.5L35.961,182.234z"/>
	
		<linearGradient id="SVGID_2_" gradientUnits="userSpaceOnUse" x1="44.6147" y1="162.2852" x2="14.6147" y2="162.2852" gradientTransform="matrix(0.75 0 0 -0.75 42.5347 342.1973)">
		<stop  offset="0" style="stop-color:#90A38C"/>
		<stop  offset="0.01" style="stop-color:#D8EBD4"/>
		<stop  offset="0.03" style="stop-color:#BDD4B7"/>
		<stop  offset="0.64" style="stop-color:#BAD0B4"/>
		<stop  offset="0.99" style="stop-color:#B5CCB0"/>
		<stop  offset="1" style="stop-color:#869782"/>
	</linearGradient>
	<path fill="url(#SVGID_2_)" d="M53.496,182.234h22.5v76.5h-22.5V182.234z"/>
	
		<linearGradient id="SVGID_3_" gradientUnits="userSpaceOnUse" x1="51.0825" y1="159.1162" x2="14.6138" y2="159.1162" gradientTransform="matrix(0.75 0 0 -0.75 332.1875 246.248)">
		<stop  offset="0" style="stop-color:#90A38C"/>
		<stop  offset="0.01" style="stop-color:#D8EBD4"/>
		<stop  offset="0.03" style="stop-color:#BDD4B7"/>
		<stop  offset="0.64" style="stop-color:#BAD0B4"/>
		<stop  offset="0.99" style="stop-color:#B5CCB0"/>
		<stop  offset="1" style="stop-color:#869782"/>
	</linearGradient>
	<path fill="url(#SVGID_3_)" d="M344.648,86.285h24c0.75,0,1.852,0.77,1.852,1.777l-0.352,77.723c0,0.75-0.465,1.754-1.473,1.754
		l-24.027-0.254c-0.75,0-1.5-0.582-1.5-1.59v-77.91c0-0.75,0.816-1.5,1.824-1.5H344.648z"/>
	
		<linearGradient id="SVGID_4_" gradientUnits="userSpaceOnUse" x1="91.6157" y1="195.7852" x2="14.6157" y2="195.7852" gradientTransform="matrix(0.75 0 0 -0.75 269.7686 342.1973)">
		<stop  offset="0" style="stop-color:#90A38C"/>
		<stop  offset="0.01" style="stop-color:#D8EBD4"/>
		<stop  offset="0.03" style="stop-color:#BDD4B7"/>
		<stop  offset="0.64" style="stop-color:#BAD0B4"/>
		<stop  offset="0.99" style="stop-color:#B5CCB0"/>
		<stop  offset="1" style="stop-color:#869782"/>
	</linearGradient>
	<path fill="url(#SVGID_4_)" d="M280.73,182.234h57.75l-18,26.25h-22.5L280.73,182.234z"/>
	
		<linearGradient id="SVGID_5_" gradientUnits="userSpaceOnUse" x1="44.6123" y1="162.2852" x2="14.6123" y2="162.2852" gradientTransform="matrix(0.75 0 0 -0.75 287.3022 342.1973)">
		<stop  offset="0" style="stop-color:#90A38C"/>
		<stop  offset="0.01" style="stop-color:#D8EBD4"/>
		<stop  offset="0.03" style="stop-color:#BDD4B7"/>
		<stop  offset="0.64" style="stop-color:#BAD0B4"/>
		<stop  offset="0.99" style="stop-color:#B5CCB0"/>
		<stop  offset="1" style="stop-color:#869782"/>
	</linearGradient>
	<path fill="url(#SVGID_5_)" d="M298.262,182.234h22.5v76.5h-22.5V182.234z"/>
	
		<linearGradient id="SVGID_6_" gradientUnits="userSpaceOnUse" x1="432.6123" y1="150.7852" x2="14.6123" y2="150.7851" gradientTransform="matrix(0.75 0 0 -0.75 19.04 241.8145)">
		<stop  offset="0" style="stop-color:#90A38C"/>
		<stop  offset="0.01" style="stop-color:#D8EBD4"/>
		<stop  offset="0.03" style="stop-color:#BDD4B7"/>
		<stop  offset="0.64" style="stop-color:#BAD0B4"/>
		<stop  offset="0.99" style="stop-color:#B5CCB0"/>
		<stop  offset="1" style="stop-color:#869782"/>
	</linearGradient>
	<path fill="url(#SVGID_6_)" d="M30,81.852h313.5v93.75H30V81.852z"/>
	
		<linearGradient id="SVGID_7_" gradientUnits="userSpaceOnUse" x1="432.6123" y1="192.7891" x2="14.6123" y2="192.789" gradientTransform="matrix(0.75 0 0 -0.75 19.04 211.1377)">
		<stop  offset="0" style="stop-color:#90A38C"/>
		<stop  offset="0.01" style="stop-color:#D8EBD4"/>
		<stop  offset="0.03" style="stop-color:#BDD4B7"/>
		<stop  offset="0.64" style="stop-color:#BAD0B4"/>
		<stop  offset="0.99" style="stop-color:#B5CCB0"/>
		<stop  offset="1" style="stop-color:#869782"/>
	</linearGradient>
	<path fill="url(#SVGID_7_)" d="M30,51.172h313.5v30.75H30V51.172z"/>
	
		<linearGradient id="SVGID_8_" gradientUnits="userSpaceOnUse" x1="432.6123" y1="192.7871" x2="14.6123" y2="192.7871" gradientTransform="matrix(0.75 0 0 -0.75 19.04 180.4912)">
		<stop  offset="0" style="stop-color:#9BAB98"/>
		<stop  offset="0.01" style="stop-color:#E3F4E0"/>
		<stop  offset="0.03" style="stop-color:#CADEC6"/>
		<stop  offset="0.64" style="stop-color:#C6DAC3"/>
		<stop  offset="0.99" style="stop-color:#C2D5BE"/>
		<stop  offset="1" style="stop-color:#8F9E8D"/>
	</linearGradient>
	<path fill="url(#SVGID_8_)" d="M30,20.527h313.5v30.75H30V20.527z"/>
	
		<linearGradient id="SVGID_9_" gradientUnits="userSpaceOnUse" x1="432.6123" y1="208.7871" x2="14.6123" y2="208.7871" gradientTransform="matrix(0.75 0 0 -0.75 19.04 335.1904)">
		<stop  offset="0" style="stop-color:#90A38C"/>
		<stop  offset="0.01" style="stop-color:#D8EBD4"/>
		<stop  offset="0.03" style="stop-color:#BDD4B7"/>
		<stop  offset="0.64" style="stop-color:#BAD0B4"/>
		<stop  offset="0.99" style="stop-color:#B5CCB0"/>
		<stop  offset="1" style="stop-color:#869782"/>
	</linearGradient>
	<path fill="url(#SVGID_9_)" d="M30,175.227h313.5v6.75H30V175.227z"/>
	
		<linearGradient id="SVGID_10_" gradientUnits="userSpaceOnUse" x1="60.4004" y1="210.2861" x2="14.5552" y2="210.2861" gradientTransform="matrix(0.75 0 0 -0.75 36.5952 418.2207)">
		<stop  offset="0" style="stop-color:#90A38C"/>
		<stop  offset="0.01" style="stop-color:#D8EBD4"/>
		<stop  offset="0.03" style="stop-color:#BDD4B7"/>
		<stop  offset="0.64" style="stop-color:#BAD0B4"/>
		<stop  offset="0.99" style="stop-color:#B5CCB0"/>
		<stop  offset="1" style="stop-color:#869782"/>
	</linearGradient>
	<path fill="url(#SVGID_10_)" d="M49.055,258.258h30.75c1.5,0,2.07,0.816,2.07,1.82c0.18,1.93-0.816,2.383-1.82,2.383l-31,0.297
		c-0.75,0-1.543-1.113-1.543-2.117c0.043-1.633,0.816-2.383,1.824-2.383H49.055z"/>
	
		<linearGradient id="SVGID_11_" gradientUnits="userSpaceOnUse" x1="60.4038" y1="210.2861" x2="14.5522" y2="210.2861" gradientTransform="matrix(0.75 0 0 -0.75 281.3628 418.2207)">
		<stop  offset="0" style="stop-color:#90A38C"/>
		<stop  offset="0.01" style="stop-color:#D8EBD4"/>
		<stop  offset="0.03" style="stop-color:#BDD4B7"/>
		<stop  offset="0.64" style="stop-color:#BAD0B4"/>
		<stop  offset="0.99" style="stop-color:#B5CCB0"/>
		<stop  offset="1" style="stop-color:#869782"/>
	</linearGradient>
	<path fill="url(#SVGID_11_)" d="M293.824,258.258h30.75c1.5,0,2.07,0.816,2.07,1.82c0.18,1.93-0.816,2.383-1.824,2.383
		l-30.996,0.297c-0.75,0-1.547-1.113-1.547-2.117c0.047-1.633,0.816-2.383,1.824-2.383H293.824z"/>
	
		<linearGradient id="SVGID_12_" gradientUnits="userSpaceOnUse" x1="158.6123" y1="144.6221" x2="14.6123" y2="144.6221" gradientTransform="matrix(0.75 0 0 -0.75 19.0835 232.1914)">
		<stop  offset="0" style="stop-color:#B5B5B5"/>
		<stop  offset="0.01" style="stop-color:#FFFFFF"/>
		<stop  offset="0.03" style="stop-color:#EBEBEB"/>
		<stop  offset="0.64" style="stop-color:#E7E7E7"/>
		<stop  offset="0.99" style="stop-color:#E2E2E2"/>
		<stop  offset="1" style="stop-color:#A8A8A8"/>
	</linearGradient>
	<path fill="url(#SVGID_12_)" d="M31.543,72.227h105c0.75,0,1.465,0.816,1.465,1.82l0.035,99.43c0,0.75-0.852,1.75-1.859,1.75
		l-104.641-0.25c-0.75,0-1.5-0.566-1.5-1.574V73.727c0-0.75,0.773-1.5,1.781-1.5H31.543z"/>
	<path stroke="#000000" stroke-linejoin="bevel" stroke-miterlimit="10" d="M49.977,86.258h6.75v13.5h-6.75V86.258z"/>
	<path fill="#EEEEEE" stroke="#000000" stroke-linejoin="bevel" stroke-miterlimit="10" d="M50.676,87.594h5.25v11.25h-5.25V87.594z
		"/>
	<path fill="#717070" stroke="#000000" stroke-linejoin="bevel" stroke-miterlimit="10" d="M50.676,95.215h5.25v3.75h-5.25V95.215z"
		/>
	<path stroke="#000000" stroke-linejoin="bevel" stroke-miterlimit="10" d="M111.625,86.258h6.75v13.5h-6.75V86.258z"/>
	<path fill="#EEEEEE" stroke="#000000" stroke-linejoin="bevel" stroke-miterlimit="10" d="M112.328,87.594h5.25v11.25h-5.25V87.594
		z"/>
	<path fill="#717070" stroke="#000000" stroke-linejoin="bevel" stroke-miterlimit="10" d="M112.328,95.215h5.25v3.75h-5.25V95.215z
		"/>
	
		<linearGradient id="SVGID_13_" gradientUnits="userSpaceOnUse" x1="28.4097" y1="206.4248" x2="14.6138" y2="206.4248" gradientTransform="matrix(0.75 0 0 -0.75 36.0708 293.8818)">
		<stop  offset="0" style="stop-color:#91A530"/>
		<stop  offset="0.15" style="stop-color:#C3DA5E"/>
		<stop  offset="0.25" style="stop-color:#DEEAB8"/>
		<stop  offset="0.44" style="stop-color:#A6BC39"/>
		<stop  offset="0.6" style="stop-color:#93A731"/>
		<stop  offset="0.8" style="stop-color:#7C8D28"/>
		<stop  offset="0.97" style="stop-color:#718024"/>
		<stop  offset="1" style="stop-color:#97AB33"/>
	</linearGradient>
	<path fill="url(#SVGID_13_)" d="M47.031,139.168c0-3,2.313-5.262,5.176-5.262c3.074,0.012,5.164,2.305,5.164,5.156
		c0.16,3.105-2.316,5.148-5.164,5.148c-2.926,0.207-5.176-2.313-5.176-5.148V139.168z"/>
	<path fill="#2D2929" d="M49.867,138.98c0-1.5,1.039-2.262,2.332-2.262c1.418,0.012,2.344,1.047,2.344,2.332
		c-0.176,1.43-1.051,2.332-2.344,2.332c-1.582-0.152-2.34-1.043-2.34-2.332L49.867,138.98z"/>
	
		<linearGradient id="SVGID_14_" gradientUnits="userSpaceOnUse" x1="28.4087" y1="206.4258" x2="14.6128" y2="206.4258" gradientTransform="matrix(0.75 0 0 -0.75 57.2744 293.8574)">
		<stop  offset="0" style="stop-color:#91A530"/>
		<stop  offset="0.15" style="stop-color:#C3DA5E"/>
		<stop  offset="0.25" style="stop-color:#DEEAB8"/>
		<stop  offset="0.44" style="stop-color:#A6BC39"/>
		<stop  offset="0.6" style="stop-color:#93A731"/>
		<stop  offset="0.8" style="stop-color:#7C8D28"/>
		<stop  offset="0.97" style="stop-color:#718024"/>
		<stop  offset="1" style="stop-color:#97AB33"/>
	</linearGradient>
	<path fill="url(#SVGID_14_)" d="M68.234,139.145c0-3,2.316-5.266,5.176-5.266c3.074,0.016,5.164,2.309,5.164,5.16
		c0.16,3.105-2.316,5.148-5.164,5.148c-2.926,0.207-5.176-2.313-5.176-5.148V139.145z"/>
	<path fill="#2D2929" d="M71.07,138.957c0-1.5,1.043-2.262,2.332-2.262c1.418,0.012,2.344,1.043,2.344,2.332
		c-0.176,1.43-1.051,2.332-2.344,2.332c-1.582-0.152-2.34-1.043-2.34-2.332L71.07,138.957z"/>
	
		<linearGradient id="SVGID_15_" gradientUnits="userSpaceOnUse" x1="28.4087" y1="206.4258" x2="14.6118" y2="206.4258" gradientTransform="matrix(0.75 0 0 -0.75 78.478 293.8574)">
		<stop  offset="0" style="stop-color:#91A530"/>
		<stop  offset="0.15" style="stop-color:#C3DA5E"/>
		<stop  offset="0.25" style="stop-color:#DEEAB8"/>
		<stop  offset="0.44" style="stop-color:#A6BC39"/>
		<stop  offset="0.6" style="stop-color:#93A731"/>
		<stop  offset="0.8" style="stop-color:#7C8D28"/>
		<stop  offset="0.97" style="stop-color:#718024"/>
		<stop  offset="1" style="stop-color:#97AB33"/>
	</linearGradient>
	<path fill="url(#SVGID_15_)" d="M89.438,139.145c0-3,2.316-5.266,5.176-5.266c3.074,0.016,5.164,2.309,5.164,5.16
		c0.16,3.105-2.313,5.148-5.164,5.148c-2.926,0.207-5.176-2.313-5.176-5.148V139.145z"/>
	<path fill="#2D2929" d="M92.273,138.957c0-1.5,1.043-2.262,2.336-2.262c1.414,0.012,2.34,1.043,2.34,2.332
		c-0.176,1.43-1.047,2.332-2.34,2.332c-1.586-0.152-2.344-1.043-2.344-2.332L92.273,138.957z"/>
	
		<linearGradient id="SVGID_16_" gradientUnits="userSpaceOnUse" x1="28.4077" y1="206.4258" x2="14.6118" y2="206.4258" gradientTransform="matrix(0.75 0 0 -0.75 99.6816 293.8574)">
		<stop  offset="0" style="stop-color:#91A530"/>
		<stop  offset="0.15" style="stop-color:#C3DA5E"/>
		<stop  offset="0.25" style="stop-color:#DEEAB8"/>
		<stop  offset="0.44" style="stop-color:#A6BC39"/>
		<stop  offset="0.6" style="stop-color:#93A731"/>
		<stop  offset="0.8" style="stop-color:#7C8D28"/>
		<stop  offset="0.97" style="stop-color:#718024"/>
		<stop  offset="1" style="stop-color:#97AB33"/>
	</linearGradient>
	<path fill="url(#SVGID_16_)" d="M110.641,139.145c0-3,2.316-5.266,5.176-5.266c3.074,0.016,5.164,2.309,5.164,5.16
		c0.16,3.105-2.313,5.148-5.164,5.148c-2.926,0.207-5.176-2.313-5.176-5.148V139.145z"/>
	<path fill="#2D2929" d="M113.477,138.957c0-1.5,1.043-2.262,2.336-2.262c1.414,0.012,2.34,1.043,2.34,2.332
		c-0.176,1.43-1.047,2.332-2.34,2.332c-1.586-0.152-2.344-1.043-2.344-2.332L113.477,138.957z"/>
	
		<linearGradient id="SVGID_17_" gradientUnits="userSpaceOnUse" x1="28.4097" y1="206.4248" x2="14.6138" y2="206.4248" gradientTransform="matrix(0.75 0 0 -0.75 36.0708 275.1152)">
		<stop  offset="0" style="stop-color:#3B9193"/>
		<stop  offset="0.15" style="stop-color:#67C3C5"/>
		<stop  offset="0.25" style="stop-color:#BBDEE0"/>
		<stop  offset="0.44" style="stop-color:#45A6A9"/>
		<stop  offset="0.6" style="stop-color:#3C9396"/>
		<stop  offset="0.8" style="stop-color:#317C7E"/>
		<stop  offset="0.97" style="stop-color:#2C7173"/>
		<stop  offset="1" style="stop-color:#3E9799"/>
	</linearGradient>
	<path fill="url(#SVGID_17_)" d="M47.031,120.398c0-3,2.313-5.262,5.176-5.262c3.074,0.012,5.164,2.309,5.164,5.16
		c0.16,3.102-2.316,5.148-5.164,5.148c-2.926,0.203-5.176-2.313-5.176-5.148V120.398z"/>
	<path fill="#2D2929" d="M49.867,120.215c0-1.5,1.039-2.262,2.332-2.262c1.418,0.012,2.344,1.043,2.344,2.332
		c-0.176,1.43-1.051,2.332-2.344,2.332c-1.582-0.152-2.34-1.043-2.34-2.332L49.867,120.215z"/>
	
		<linearGradient id="SVGID_18_" gradientUnits="userSpaceOnUse" x1="28.4087" y1="206.4248" x2="14.6128" y2="206.4248" gradientTransform="matrix(0.75 0 0 -0.75 57.2744 275.1152)">
		<stop  offset="0" style="stop-color:#3B9193"/>
		<stop  offset="0.15" style="stop-color:#67C3C5"/>
		<stop  offset="0.25" style="stop-color:#BBDEE0"/>
		<stop  offset="0.44" style="stop-color:#45A6A9"/>
		<stop  offset="0.6" style="stop-color:#3C9396"/>
		<stop  offset="0.8" style="stop-color:#317C7E"/>
		<stop  offset="0.97" style="stop-color:#2C7173"/>
		<stop  offset="1" style="stop-color:#3E9799"/>
	</linearGradient>
	<path fill="url(#SVGID_18_)" d="M68.234,120.398c0-3,2.316-5.262,5.176-5.262c3.074,0.012,5.164,2.309,5.164,5.16
		c0.16,3.102-2.316,5.148-5.164,5.148c-2.926,0.203-5.176-2.313-5.176-5.148V120.398z"/>
	<path fill="#2D2929" d="M71.07,120.215c0-1.5,1.043-2.262,2.332-2.262c1.418,0.012,2.344,1.043,2.344,2.332
		c-0.176,1.43-1.051,2.332-2.344,2.332c-1.582-0.152-2.34-1.043-2.34-2.332L71.07,120.215z"/>
	
		<linearGradient id="SVGID_19_" gradientUnits="userSpaceOnUse" x1="28.4087" y1="206.4248" x2="14.6118" y2="206.4248" gradientTransform="matrix(0.75 0 0 -0.75 78.478 275.1152)">
		<stop  offset="0" style="stop-color:#3B9193"/>
		<stop  offset="0.15" style="stop-color:#67C3C5"/>
		<stop  offset="0.25" style="stop-color:#BBDEE0"/>
		<stop  offset="0.44" style="stop-color:#45A6A9"/>
		<stop  offset="0.6" style="stop-color:#3C9396"/>
		<stop  offset="0.8" style="stop-color:#317C7E"/>
		<stop  offset="0.97" style="stop-color:#2C7173"/>
		<stop  offset="1" style="stop-color:#3E9799"/>
	</linearGradient>
	<path fill="url(#SVGID_19_)" d="M89.438,120.398c0-3,2.316-5.262,5.176-5.262c3.074,0.012,5.164,2.309,5.164,5.16
		c0.16,3.102-2.313,5.148-5.164,5.148c-2.926,0.203-5.176-2.313-5.176-5.148V120.398z"/>
	<path fill="#2D2929" d="M92.273,120.215c0-1.5,1.043-2.262,2.336-2.262c1.414,0.012,2.34,1.043,2.34,2.332
		c-0.176,1.43-1.047,2.332-2.34,2.332c-1.586-0.152-2.344-1.043-2.344-2.332L92.273,120.215z"/>
	
		<linearGradient id="SVGID_20_" gradientUnits="userSpaceOnUse" x1="28.4077" y1="206.4248" x2="14.6118" y2="206.4248" gradientTransform="matrix(0.75 0 0 -0.75 99.6816 275.1152)">
		<stop  offset="0" style="stop-color:#3B9193"/>
		<stop  offset="0.15" style="stop-color:#67C3C5"/>
		<stop  offset="0.25" style="stop-color:#BBDEE0"/>
		<stop  offset="0.44" style="stop-color:#45A6A9"/>
		<stop  offset="0.6" style="stop-color:#3C9396"/>
		<stop  offset="0.8" style="stop-color:#317C7E"/>
		<stop  offset="0.97" style="stop-color:#2C7173"/>
		<stop  offset="1" style="stop-color:#3E9799"/>
	</linearGradient>
	<path fill="url(#SVGID_20_)" d="M110.641,120.398c0-3,2.316-5.262,5.176-5.262c3.074,0.012,5.164,2.309,5.164,5.16
		c0.16,3.102-2.313,5.148-5.164,5.148c-2.926,0.203-5.176-2.313-5.176-5.148V120.398z"/>
	<path fill="#2D2929" d="M113.477,120.215c0-1.5,1.043-2.262,2.336-2.262c1.414,0.012,2.34,1.043,2.34,2.332
		c-0.176,1.43-1.047,2.332-2.34,2.332c-1.586-0.152-2.344-1.043-2.344-2.332L113.477,120.215z"/>
	
		<linearGradient id="SVGID_21_" gradientUnits="userSpaceOnUse" x1="28.4087" y1="206.4248" x2="14.6128" y2="206.4248" gradientTransform="matrix(0.75 0 0 -0.75 57.2744 312.6035)">
		<stop  offset="0" style="stop-color:#B86D76"/>
		<stop  offset="0.15" style="stop-color:#F19AA3"/>
		<stop  offset="0.25" style="stop-color:#F7CCD0"/>
		<stop  offset="0.44" style="stop-color:#D27D87"/>
		<stop  offset="0.6" style="stop-color:#BB6F78"/>
		<stop  offset="0.8" style="stop-color:#9E5D64"/>
		<stop  offset="0.97" style="stop-color:#90545B"/>
		<stop  offset="1" style="stop-color:#BF727B"/>
	</linearGradient>
	<path fill="url(#SVGID_21_)" d="M68.234,157.887c0-3,2.316-5.262,5.176-5.262c3.074,0.012,5.164,2.309,5.164,5.16
		c0.16,3.102-2.316,5.148-5.164,5.148c-2.926,0.203-5.176-2.313-5.176-5.148V157.887z"/>
	<path fill="#2D2929" d="M71.07,157.703c0-1.5,1.043-2.262,2.332-2.262c1.418,0.012,2.344,1.043,2.344,2.332
		c-0.176,1.43-1.051,2.332-2.344,2.332c-1.582-0.152-2.34-1.043-2.34-2.332L71.07,157.703z"/>
	
		<linearGradient id="SVGID_22_" gradientUnits="userSpaceOnUse" x1="28.4097" y1="206.4248" x2="14.6138" y2="206.4248" gradientTransform="matrix(0.75 0 0 -0.75 36.0708 312.6035)">
		<stop  offset="0" style="stop-color:#787979"/>
		<stop  offset="0.15" style="stop-color:#A6A7A7"/>
		<stop  offset="0.25" style="stop-color:#D1D1D1"/>
		<stop  offset="0.44" style="stop-color:#8A8B8B"/>
		<stop  offset="0.6" style="stop-color:#7A7B7B"/>
		<stop  offset="0.8" style="stop-color:#666767"/>
		<stop  offset="0.97" style="stop-color:#5D5E5E"/>
		<stop  offset="1" style="stop-color:#7D7E7E"/>
	</linearGradient>
	<path fill="url(#SVGID_22_)" d="M47.031,157.887c0-3,2.313-5.262,5.176-5.262c3.074,0.012,5.164,2.309,5.164,5.16
		c0.16,3.102-2.316,5.148-5.164,5.148c-2.926,0.203-5.176-2.313-5.176-5.148V157.887z"/>
	<path fill="#2D2929" d="M49.867,157.703c0-1.5,1.039-2.262,2.332-2.262c1.418,0.012,2.344,1.043,2.344,2.332
		c-0.176,1.43-1.051,2.332-2.344,2.332c-1.582-0.152-2.34-1.043-2.34-2.332L49.867,157.703z"/>
	
		<linearGradient id="SVGID_23_" gradientUnits="userSpaceOnUse" x1="28.4102" y1="206.4248" x2="14.6143" y2="206.4248" gradientTransform="matrix(0.75 0 0 -0.75 79.1172 312.6035)">
		<stop  offset="0" style="stop-color:#B86D76"/>
		<stop  offset="0.15" style="stop-color:#F19AA3"/>
		<stop  offset="0.25" style="stop-color:#F7CCD0"/>
		<stop  offset="0.44" style="stop-color:#D27D87"/>
		<stop  offset="0.6" style="stop-color:#BB6F78"/>
		<stop  offset="0.8" style="stop-color:#9E5D64"/>
		<stop  offset="0.97" style="stop-color:#90545B"/>
		<stop  offset="1" style="stop-color:#BF727B"/>
	</linearGradient>
	<path fill="url(#SVGID_23_)" d="M90.078,157.887c0-3,2.313-5.262,5.176-5.262c3.074,0.012,5.164,2.309,5.164,5.16
		c0.16,3.102-2.316,5.148-5.164,5.148c-2.926,0.203-5.176-2.313-5.176-5.148V157.887z"/>
	<path fill="#2D2929" d="M92.914,157.703c0-1.5,1.039-2.262,2.332-2.262c1.418,0.012,2.344,1.043,2.344,2.332
		c-0.176,1.43-1.051,2.332-2.344,2.332c-1.582-0.152-2.34-1.043-2.34-2.332L92.914,157.703z"/>
	
		<linearGradient id="SVGID_24_" gradientUnits="userSpaceOnUse" x1="28.4077" y1="206.4248" x2="14.6118" y2="206.4248" gradientTransform="matrix(0.75 0 0 -0.75 99.6816 312.6035)">
		<stop  offset="0" style="stop-color:#787979"/>
		<stop  offset="0.15" style="stop-color:#A6A7A7"/>
		<stop  offset="0.25" style="stop-color:#D1D1D1"/>
		<stop  offset="0.44" style="stop-color:#8A8B8B"/>
		<stop  offset="0.6" style="stop-color:#7A7B7B"/>
		<stop  offset="0.8" style="stop-color:#666767"/>
		<stop  offset="0.97" style="stop-color:#5D5E5E"/>
		<stop  offset="1" style="stop-color:#7D7E7E"/>
	</linearGradient>
	<path fill="url(#SVGID_24_)" d="M110.641,157.887c0-3,2.316-5.262,5.176-5.262c3.074,0.012,5.164,2.309,5.164,5.16
		c0.16,3.102-2.313,5.148-5.164,5.148c-2.926,0.203-5.176-2.313-5.176-5.148V157.887z"/>
	<path fill="#2D2929" d="M113.477,157.703c0-1.5,1.043-2.262,2.336-2.262c1.414,0.012,2.34,1.043,2.34,2.332
		c-0.176,1.43-1.047,2.332-2.34,2.332c-1.586-0.152-2.344-1.043-2.344-2.332L113.477,157.703z"/>
	
		<linearGradient id="SVGID_25_" gradientUnits="userSpaceOnUse" x1="51.6509" y1="213.3574" x2="51.6509" y2="205.2852" gradientTransform="matrix(0.75 0 0 -0.75 147.8345 225.0967)">
		<stop  offset="0" style="stop-color:#C7C7C7"/>
		<stop  offset="0.15" style="stop-color:#FFFFFF"/>
		<stop  offset="0.25" style="stop-color:#FFFFFF"/>
		<stop  offset="0.52" style="stop-color:#DFDFDF"/>
		<stop  offset="0.69" style="stop-color:#C7C7C7"/>
		<stop  offset="0.8" style="stop-color:#BCBCBC"/>
		<stop  offset="0.92" style="stop-color:#B1B1B1"/>
	</linearGradient>
	<path fill="url(#SVGID_25_)" d="M160.293,65.133h52.5c0.75,0,1.559,0.762,1.559,1.77l-0.059,1.98c0,1.5-0.809,2.082-1.816,2.082
		l-52.184,0.168c-0.75,0-1.5-0.984-1.5-1.988v-2.512c0-0.75,0.777-1.555,1.785-1.555L160.293,65.133z"/>
</g>
</svg>
