<?xml version="1.0" encoding="utf-8"?>
<!-- Generator: Adobe Illustrator 16.0.0, SVG Export Plug-In . SVG Version: 6.00 Build 0)  -->
<!DOCTYPE svg PUBLIC "-//W3C//DTD SVG 1.1//EN" "http://www.w3.org/Graphics/SVG/1.1/DTD/svg11.dtd">
<svg preserveAspectRatio="none" version="1.1" id="图层_1" xmlns="http://www.w3.org/2000/svg" xmlns:xlink="http://www.w3.org/1999/xlink" x="0px" y="0px"
	 width="340.656px" height="313.195px" viewBox="29.965 -13.547 340.656 313.195"
	 enable-background="new 29.965 -13.547 340.656 313.195" xml:space="preserve">
<g id="surface991">
	
		<linearGradient id="SVGID_1_" gradientUnits="userSpaceOnUse" x1="121.1118" y1="257.7754" x2="121.1118" y2="168.2871" gradientTransform="matrix(0.75 0 0 -0.75 142.6895 181.0586)">
		<stop  offset="0" style="stop-color:#347D80"/>
		<stop  offset="0.01" style="stop-color:#8BC5C7"/>
		<stop  offset="0.03" style="stop-color:#46A4A7"/>
		<stop  offset="0.9" style="stop-color:#45A1A5"/>
		<stop  offset="0.98" style="stop-color:#439DA1"/>
		<stop  offset="1" style="stop-color:#2F7476"/>
	</linearGradient>
	<path fill="url(#SVGID_1_)" d="M153.648,54.094l57-57c12.75-12.75,32.848-12.262,45.219,0.113l57.531,57.637L153.648,54.094z"/>
	
		<linearGradient id="SVGID_2_" gradientUnits="userSpaceOnUse" x1="179.2681" y1="668.6895" x2="179.2681" y2="631.6875" gradientTransform="matrix(0.7427 -0.1044 0.1044 0.7427 -6.8695 -228.1274)">
		<stop  offset="0" style="stop-color:#3C9496"/>
		<stop  offset="0.22" style="stop-color:#45A7A9"/>
		<stop  offset="0.57" style="stop-color:#93C8C9"/>
		<stop  offset="0.84" style="stop-color:#8AC5C6"/>
		<stop  offset="1" style="stop-color:#42A1A3"/>
	</linearGradient>
	<path fill="url(#SVGID_2_)" d="M50.871,270.203l287.426-40.395l-0.148-28.004L47.012,242.723c-0.742,0.105-0.656,0.727-0.598,1.137
		l3.613,25.707c0.102,0.742,0.43,0.695,0.84,0.637H50.871z"/>
	
		<linearGradient id="SVGID_3_" gradientUnits="userSpaceOnUse" x1="293.6123" y1="207.79" x2="14.6123" y2="207.79" gradientTransform="matrix(0.75 0 0 -0.75 117.6846 214.0293)">
		<stop  offset="0" style="stop-color:#368688"/>
		<stop  offset="0.01" style="stop-color:#8CCDCF"/>
		<stop  offset="0.03" style="stop-color:#49AFB2"/>
		<stop  offset="0.9" style="stop-color:#48ACAF"/>
		<stop  offset="0.98" style="stop-color:#46A8AB"/>
		<stop  offset="1" style="stop-color:#317C7E"/>
	</linearGradient>
	<path fill="url(#SVGID_3_)" d="M128.645,62.313h209.25v-8.25h-209.25V62.313z"/>
	
		<linearGradient id="SVGID_4_" gradientUnits="userSpaceOnUse" x1="421.6123" y1="192.79" x2="14.6128" y2="192.79" gradientTransform="matrix(0.75 0 0 -0.75 22.3794 335.6543)">
		<stop  offset="0" style="stop-color:#368688"/>
		<stop  offset="0.01" style="stop-color:#8CCDCF"/>
		<stop  offset="0.03" style="stop-color:#49AFB2"/>
		<stop  offset="0.9" style="stop-color:#48ACAF"/>
		<stop  offset="0.98" style="stop-color:#46A8AB"/>
		<stop  offset="1" style="stop-color:#317C7E"/>
	</linearGradient>
	<path fill="url(#SVGID_4_)" d="M33.34,175.688h305.25v30.75H33.34V175.688z"/>
	
		<linearGradient id="SVGID_5_" gradientUnits="userSpaceOnUse" x1="218.1113" y1="213.29" x2="218.1113" y2="136.29" gradientTransform="matrix(0.75 0 0 -0.75 22.3804 366.4355)">
		<stop  offset="0" style="stop-color:#368688"/>
		<stop  offset="0.01" style="stop-color:#8CCDCF"/>
		<stop  offset="0.03" style="stop-color:#49AFB2"/>
		<stop  offset="0.9" style="stop-color:#48ACAF"/>
		<stop  offset="0.98" style="stop-color:#46A8AB"/>
		<stop  offset="1" style="stop-color:#317C7E"/>
	</linearGradient>
	<path fill="url(#SVGID_5_)" d="M33.34,206.469h305.25l-272.25,57.75L33.34,206.469z"/>
	
		<linearGradient id="SVGID_6_" gradientUnits="userSpaceOnUse" x1="293.6123" y1="138.7866" x2="14.6118" y2="138.7866" gradientTransform="matrix(0.75 0 0 -0.75 117.6851 223.8867)">
		<stop  offset="0" style="stop-color:#368688"/>
		<stop  offset="0.01" style="stop-color:#8CCDCF"/>
		<stop  offset="0.03" style="stop-color:#49AFB2"/>
		<stop  offset="0.9" style="stop-color:#48ACAF"/>
		<stop  offset="0.98" style="stop-color:#46A8AB"/>
		<stop  offset="1" style="stop-color:#317C7E"/>
	</linearGradient>
	<path fill="url(#SVGID_6_)" d="M128.645,175.672h209.25V63.922h-209.25V175.672z"/>
	
		<linearGradient id="SVGID_7_" gradientUnits="userSpaceOnUse" x1="159.1108" y1="213.3203" x2="159.1108" y2="209.1172" gradientTransform="matrix(0.75 0 0 -0.75 114.249 221.0684)">
		<stop  offset="0" style="stop-color:#368688"/>
		<stop  offset="0.01" style="stop-color:#8CCDCF"/>
		<stop  offset="0.03" style="stop-color:#49AFB2"/>
		<stop  offset="0.9" style="stop-color:#48ACAF"/>
		<stop  offset="0.98" style="stop-color:#46A8AB"/>
		<stop  offset="1" style="stop-color:#317C7E"/>
	</linearGradient>
	<path fill="url(#SVGID_7_)" d="M125.207,61.102h216.75c0,0-0.25,0.082-0.25,0.215l0.25,2.785l-0.25,0.129l-216.5-0.129
		c0,0,0,0.023,0-0.109V61.102v-0.023V61.102z"/>
	
		<linearGradient id="SVGID_8_" gradientUnits="userSpaceOnUse" x1="32.6133" y1="130.2896" x2="14.6133" y2="130.2896" gradientTransform="matrix(0.75 0 0 -0.75 314.1689 335.1152)">
		<stop  offset="0" style="stop-color:#368688"/>
		<stop  offset="0.01" style="stop-color:#8CCDCF"/>
		<stop  offset="0.03" style="stop-color:#49AFB2"/>
		<stop  offset="0.9" style="stop-color:#48ACAF"/>
		<stop  offset="0.98" style="stop-color:#46A8AB"/>
		<stop  offset="1" style="stop-color:#317C7E"/>
	</linearGradient>
	<path fill="url(#SVGID_8_)" d="M338.629,175.148h-13.5v124.5h13.5V175.148z"/>
	
		<linearGradient id="SVGID_9_" gradientUnits="userSpaceOnUse" x1="32.6123" y1="130.2896" x2="14.6123" y2="130.2896" gradientTransform="matrix(0.75 0 0 -0.75 117.6851 335.1152)">
		<stop  offset="0" style="stop-color:#368688"/>
		<stop  offset="0.01" style="stop-color:#8CCDCF"/>
		<stop  offset="0.03" style="stop-color:#49AFB2"/>
		<stop  offset="0.9" style="stop-color:#48ACAF"/>
		<stop  offset="0.98" style="stop-color:#46A8AB"/>
		<stop  offset="1" style="stop-color:#317C7E"/>
	</linearGradient>
	<path fill="url(#SVGID_9_)" d="M142.145,175.148h-13.5v124.5h13.5V175.148z"/>
	
		<linearGradient id="SVGID_10_" gradientUnits="userSpaceOnUse" x1="258.6104" y1="206.79" x2="14.6108" y2="206.79" gradientTransform="matrix(0.75 0 0 -0.75 130.8262 434.3486)">
		<stop  offset="0" style="stop-color:#368688"/>
		<stop  offset="0.01" style="stop-color:#8CCDCF"/>
		<stop  offset="0.03" style="stop-color:#49AFB2"/>
		<stop  offset="0.9" style="stop-color:#48ACAF"/>
		<stop  offset="0.98" style="stop-color:#46A8AB"/>
		<stop  offset="1" style="stop-color:#317C7E"/>
	</linearGradient>
	<path fill="url(#SVGID_10_)" d="M141.785,274.383h183v9.75h-183V274.383z"/>
	
		<linearGradient id="SVGID_11_" gradientUnits="userSpaceOnUse" x1="97.6138" y1="183.708" x2="14.6138" y2="183.708" gradientTransform="matrix(0.75 0 0 -0.75 191.6763 275.1582)">
		<stop  offset="0" style="stop-color:#2D7375"/>
		<stop  offset="0.01" style="stop-color:#88BBBD"/>
		<stop  offset="0.03" style="stop-color:#3E9799"/>
		<stop  offset="0.9" style="stop-color:#3D9497"/>
		<stop  offset="0.98" style="stop-color:#3B9193"/>
		<stop  offset="1" style="stop-color:#296A6C"/>
	</linearGradient>
	<path fill="url(#SVGID_11_)" d="M203.387,115.195h60.75c0,0,0.504,0.34,0.504,0.762l0.246,42.738c0,0.75-0.59,0.867-1.012,0.867
		l-60.488-0.117c-0.75,0-0.75-0.227-0.75-0.648v-42.852c0-0.75,0.34-0.75,0.762-0.75H203.387z"/>
	
		<linearGradient id="SVGID_12_" gradientUnits="userSpaceOnUse" x1="68.0288" y1="189.2881" x2="14.6118" y2="189.2881" gradientTransform="matrix(0.75 0 0 -0.75 202.6465 279.4492)">
		<stop  offset="0" style="stop-color:#292525"/>
		<stop  offset="0.01" style="stop-color:#868584"/>
		<stop  offset="0.03" style="stop-color:#383433"/>
		<stop  offset="0.9" style="stop-color:#373332"/>
		<stop  offset="0.98" style="stop-color:#363130"/>
		<stop  offset="1" style="stop-color:#252221"/>
	</linearGradient>
	<path fill="url(#SVGID_12_)" d="M217.355,119.484h32.25c2.25,0,4.063,1.707,4.063,3.816l-0.313,28.434c0,1.5-1.395,3.531-3.5,3.531
		l-32.5,0.219c-2.25,0-3.75-1.93-3.75-4.035v-28.215c0-2.25,1.711-3.75,3.816-3.75H217.355z"/>
	
		<linearGradient id="SVGID_13_" gradientUnits="userSpaceOnUse" x1="97.6147" y1="183.708" x2="14.6147" y2="183.708" gradientTransform="matrix(0.75 0 0 -0.75 256.6055 275.1582)">
		<stop  offset="0" style="stop-color:#2D7375"/>
		<stop  offset="0.01" style="stop-color:#88BBBD"/>
		<stop  offset="0.03" style="stop-color:#3E9799"/>
		<stop  offset="0.9" style="stop-color:#3D9497"/>
		<stop  offset="0.98" style="stop-color:#3B9193"/>
		<stop  offset="1" style="stop-color:#296A6C"/>
	</linearGradient>
	<path fill="url(#SVGID_13_)" d="M268.316,115.195h60.75c0,0,0.5,0.34,0.5,0.762l0.25,42.738c0,0.75-0.59,0.867-1.012,0.867
		l-60.488-0.117c-0.75,0-0.75-0.227-0.75-0.648v-42.852c0-0.75,0.34-0.75,0.762-0.75H268.316z"/>
	
		<linearGradient id="SVGID_14_" gradientUnits="userSpaceOnUse" x1="68.0293" y1="189.2881" x2="14.6133" y2="189.2881" gradientTransform="matrix(0.75 0 0 -0.75 267.5752 279.4492)">
		<stop  offset="0" style="stop-color:#292525"/>
		<stop  offset="0.01" style="stop-color:#868584"/>
		<stop  offset="0.03" style="stop-color:#383433"/>
		<stop  offset="0.9" style="stop-color:#373332"/>
		<stop  offset="0.98" style="stop-color:#363130"/>
		<stop  offset="1" style="stop-color:#252221"/>
	</linearGradient>
	<path fill="url(#SVGID_14_)" d="M282.285,119.484h32.25c2.25,0,4.063,1.707,4.063,3.816l-0.313,28.434
		c0,1.5-1.395,3.531-3.504,3.531l-32.496,0.219c-2.25,0-3.75-1.93-3.75-4.035v-28.215c0-2.25,1.707-3.75,3.816-3.75H282.285z"/>
	
		<linearGradient id="SVGID_15_" gradientUnits="userSpaceOnUse" x1="-542.6118" y1="190.2861" x2="-574.6118" y2="190.2861" gradientTransform="matrix(-0.75 0 0 -0.75 -204.4902 146.416)">
		<stop  offset="0" style="stop-color:#429799"/>
		<stop  offset="0.22" style="stop-color:#4BAAAC"/>
		<stop  offset="0.57" style="stop-color:#A6D1D2"/>
		<stop  offset="0.84" style="stop-color:#8CC7C8"/>
		<stop  offset="1" style="stop-color:#48A4A6"/>
	</linearGradient>
	<path fill="url(#SVGID_15_)" d="M226.469-13.547h-24v34.5h24V-13.547z"/>
	
		<radialGradient id="SVGID_16_" cx="-532.3457" cy="170.9766" r="59.8089" gradientTransform="matrix(-0.75 0 0 -0.75 -165.4219 149.5547)" gradientUnits="userSpaceOnUse">
		<stop  offset="0" style="stop-color:#4EB9BC"/>
		<stop  offset="0.54" style="stop-color:#4CB5B8"/>
		<stop  offset="0.74" style="stop-color:#9FD4D5"/>
		<stop  offset="0.91" style="stop-color:#4CB5B8"/>
		<stop  offset="1" style="stop-color:#4CB5B8"/>
	</radialGradient>
	<path fill="url(#SVGID_16_)" stroke="#50BEC1" stroke-width="0.25" stroke-linejoin="bevel" stroke-miterlimit="10" d="
		M265.539,21.09c0-17.25-14.191-31.5-31.699-31.5c-17.801,0-31.699,14.207-31.699,31.73c-0.352,17.77,14.191,31.73,31.699,31.73
		c17.449,0.289,31.699-14.207,31.699-31.73V21.09z"/>
	<path fill="#FFFFFF" fill-opacity="0.2745" d="M260.188,21.191c0-14.25-11.797-26.25-26.352-26.25
		c-14.898,0-26.348,11.809-26.348,26.375c0.199,14.875,11.797,26.379,26.348,26.379c14.352-0.254,26.352-11.813,26.352-26.379
		V21.191z"/>
	<path fill="#FFFFFF" fill-opacity="0.1255" d="M260.18,21.027c0-12.75-10.598-21-10.598-21l-34.402,39.75
		c0,0,6.531,7.938,18.648,7.938c14.352,0.313,26.352-11.82,26.352-26.383V21.027z"/>
	
		<linearGradient id="SVGID_17_" gradientUnits="userSpaceOnUse" x1="73.6128" y1="190.79" x2="14.6128" y2="190.79" gradientTransform="matrix(0.75 0 0 -0.75 200.4858 180.0986)">
		<stop  offset="0" style="stop-color:#368688"/>
		<stop  offset="0.01" style="stop-color:#8CCDCF"/>
		<stop  offset="0.03" style="stop-color:#49AFB2"/>
		<stop  offset="0.9" style="stop-color:#48ACAF"/>
		<stop  offset="0.98" style="stop-color:#46A8AB"/>
		<stop  offset="1" style="stop-color:#317C7E"/>
	</linearGradient>
	<path fill="url(#SVGID_17_)" d="M221.195,20.133h24l10.5,33.75h-6l-11.25-24.75h-9.75l-11.25,24.75h-6L221.195,20.133z"/>
	
		<linearGradient id="SVGID_18_" gradientUnits="userSpaceOnUse" x1="222.6113" y1="213.3115" x2="222.6113" y2="209.1396" gradientTransform="matrix(0.75 0 0 -0.75 19.0059 333.4404)">
		<stop  offset="0" style="stop-color:#368688"/>
		<stop  offset="0.01" style="stop-color:#8CCDCF"/>
		<stop  offset="0.03" style="stop-color:#49AFB2"/>
		<stop  offset="0.9" style="stop-color:#48ACAF"/>
		<stop  offset="0.98" style="stop-color:#46A8AB"/>
		<stop  offset="1" style="stop-color:#317C7E"/>
	</linearGradient>
	<path fill="url(#SVGID_18_)" d="M29.965,173.477h312c0,0-0.234,0.063-0.234,0.168l0.234,2.832l-0.234,0.109l-311.766-0.109
		c0,0,0,0.023,0-0.078V173.477v-0.02V173.477z"/>
	
		<linearGradient id="SVGID_19_" gradientUnits="userSpaceOnUse" x1="24.6104" y1="207.2871" x2="14.6104" y2="207.2871" gradientTransform="matrix(0.75 0 0 -0.75 131.7607 319.6523)">
		<stop  offset="0" style="stop-color:#2D7375"/>
		<stop  offset="0.01" style="stop-color:#88BBBD"/>
		<stop  offset="0.03" style="stop-color:#3E9799"/>
		<stop  offset="0.9" style="stop-color:#3D9497"/>
		<stop  offset="0.98" style="stop-color:#3B9193"/>
		<stop  offset="1" style="stop-color:#296A6C"/>
	</linearGradient>
	<path fill="url(#SVGID_19_)" d="M142.719,159.688h7.5v9h-7.5V159.688z"/>
	
		<linearGradient id="SVGID_20_" gradientUnits="userSpaceOnUse" x1="31.353" y1="212.2686" x2="14.5854" y2="212.2686" gradientTransform="matrix(0.75 0 0 -0.75 129.4238 327.8086)">
		<stop  offset="0" style="stop-color:#2D7375"/>
		<stop  offset="0.01" style="stop-color:#88BBBD"/>
		<stop  offset="0.03" style="stop-color:#3E9799"/>
		<stop  offset="0.9" style="stop-color:#3D9497"/>
		<stop  offset="0.98" style="stop-color:#3B9193"/>
		<stop  offset="1" style="stop-color:#296A6C"/>
	</linearGradient>
	<path fill="url(#SVGID_20_)" d="M141.133,167.844h11.25c0,0,0.496,0.332,0.496,0.762c0.254,0.738-0.352,0.785-0.781,0.785
		l-10.965-0.047c-0.75,0-0.77-0.305-0.77-0.738c0.02-0.762,0.352-0.781,0.781-0.781L141.133,167.844z"/>
	
		<linearGradient id="SVGID_21_" gradientUnits="userSpaceOnUse" x1="24.6138" y1="207.2871" x2="14.6138" y2="207.2871" gradientTransform="matrix(0.75 0 0 -0.75 176.1099 319.6523)">
		<stop  offset="0" style="stop-color:#2D7375"/>
		<stop  offset="0.01" style="stop-color:#88BBBD"/>
		<stop  offset="0.03" style="stop-color:#3E9799"/>
		<stop  offset="0.9" style="stop-color:#3D9497"/>
		<stop  offset="0.98" style="stop-color:#3B9193"/>
		<stop  offset="1" style="stop-color:#296A6C"/>
	</linearGradient>
	<path fill="url(#SVGID_21_)" d="M187.07,159.688h7.5v9h-7.5V159.688z"/>
	
		<linearGradient id="SVGID_22_" gradientUnits="userSpaceOnUse" x1="31.3535" y1="212.2686" x2="14.5894" y2="212.2686" gradientTransform="matrix(0.75 0 0 -0.75 173.7729 327.8086)">
		<stop  offset="0" style="stop-color:#2D7375"/>
		<stop  offset="0.01" style="stop-color:#88BBBD"/>
		<stop  offset="0.03" style="stop-color:#3E9799"/>
		<stop  offset="0.9" style="stop-color:#3D9497"/>
		<stop  offset="0.98" style="stop-color:#3B9193"/>
		<stop  offset="1" style="stop-color:#296A6C"/>
	</linearGradient>
	<path fill="url(#SVGID_22_)" d="M185.484,167.844h11.25c0,0,0.492,0.332,0.492,0.762c0.258,0.738-0.348,0.785-0.781,0.785
		l-10.961-0.047c-0.75,0-0.77-0.305-0.77-0.738c0.02-0.762,0.348-0.781,0.781-0.781L185.484,167.844z"/>
	
		<linearGradient id="SVGID_23_" gradientUnits="userSpaceOnUse" x1="24.6118" y1="207.2861" x2="14.6118" y2="207.2861" gradientTransform="matrix(0.75 0 0 -0.75 196.5913 319.5254)">
		<stop  offset="0" style="stop-color:#2D7375"/>
		<stop  offset="0.01" style="stop-color:#88BBBD"/>
		<stop  offset="0.03" style="stop-color:#3E9799"/>
		<stop  offset="0.9" style="stop-color:#3D9497"/>
		<stop  offset="0.98" style="stop-color:#3B9193"/>
		<stop  offset="1" style="stop-color:#296A6C"/>
	</linearGradient>
	<path fill="url(#SVGID_23_)" d="M207.551,159.563h7.5v9h-7.5V159.563z"/>
	
		<linearGradient id="SVGID_24_" gradientUnits="userSpaceOnUse" x1="31.3545" y1="212.2705" x2="14.5864" y2="212.2705" gradientTransform="matrix(0.75 0 0 -0.75 194.2549 327.6816)">
		<stop  offset="0" style="stop-color:#2D7375"/>
		<stop  offset="0.01" style="stop-color:#88BBBD"/>
		<stop  offset="0.03" style="stop-color:#3E9799"/>
		<stop  offset="0.9" style="stop-color:#3D9497"/>
		<stop  offset="0.98" style="stop-color:#3B9193"/>
		<stop  offset="1" style="stop-color:#296A6C"/>
	</linearGradient>
	<path fill="url(#SVGID_24_)" d="M205.965,167.719h11.25c0,0,0.496,0.328,0.496,0.762c0.254,0.738-0.352,0.781-0.781,0.781
		l-10.965-0.043c-0.75,0-0.77-0.305-0.77-0.738c0.02-0.762,0.352-0.781,0.781-0.781L205.965,167.719z"/>
	
		<linearGradient id="SVGID_25_" gradientUnits="userSpaceOnUse" x1="24.6147" y1="207.2861" x2="14.6147" y2="207.2861" gradientTransform="matrix(0.75 0 0 -0.75 240.9409 319.5254)">
		<stop  offset="0" style="stop-color:#2D7375"/>
		<stop  offset="0.01" style="stop-color:#88BBBD"/>
		<stop  offset="0.03" style="stop-color:#3E9799"/>
		<stop  offset="0.9" style="stop-color:#3D9497"/>
		<stop  offset="0.98" style="stop-color:#3B9193"/>
		<stop  offset="1" style="stop-color:#296A6C"/>
	</linearGradient>
	<path fill="url(#SVGID_25_)" d="M251.902,159.563h7.5v9h-7.5V159.563z"/>
	
		<linearGradient id="SVGID_26_" gradientUnits="userSpaceOnUse" x1="31.353" y1="212.2705" x2="14.5854" y2="212.2705" gradientTransform="matrix(0.75 0 0 -0.75 238.604 327.6816)">
		<stop  offset="0" style="stop-color:#2D7375"/>
		<stop  offset="0.01" style="stop-color:#88BBBD"/>
		<stop  offset="0.03" style="stop-color:#3E9799"/>
		<stop  offset="0.9" style="stop-color:#3D9497"/>
		<stop  offset="0.98" style="stop-color:#3B9193"/>
		<stop  offset="1" style="stop-color:#296A6C"/>
	</linearGradient>
	<path fill="url(#SVGID_26_)" d="M250.313,167.719h11.25c0,0,0.496,0.328,0.496,0.762c0.254,0.738-0.348,0.781-0.781,0.781
		l-10.965-0.043c-0.75,0-0.77-0.305-0.77-0.738c0.02-0.762,0.352-0.781,0.785-0.781L250.313,167.719z"/>
	
		<linearGradient id="SVGID_27_" gradientUnits="userSpaceOnUse" x1="24.6128" y1="207.2852" x2="14.6128" y2="207.2852" gradientTransform="matrix(0.75 0 0 -0.75 261.5205 319.6504)">
		<stop  offset="0" style="stop-color:#2D7375"/>
		<stop  offset="0.01" style="stop-color:#88BBBD"/>
		<stop  offset="0.03" style="stop-color:#3E9799"/>
		<stop  offset="0.9" style="stop-color:#3D9497"/>
		<stop  offset="0.98" style="stop-color:#3B9193"/>
		<stop  offset="1" style="stop-color:#296A6C"/>
	</linearGradient>
	<path fill="url(#SVGID_27_)" d="M272.48,159.688h7.5v9h-7.5V159.688z"/>
	
		<linearGradient id="SVGID_28_" gradientUnits="userSpaceOnUse" x1="31.356" y1="212.2715" x2="14.5884" y2="212.2715" gradientTransform="matrix(0.75 0 0 -0.75 259.1836 327.8076)">
		<stop  offset="0" style="stop-color:#2D7375"/>
		<stop  offset="0.01" style="stop-color:#88BBBD"/>
		<stop  offset="0.03" style="stop-color:#3E9799"/>
		<stop  offset="0.9" style="stop-color:#3D9497"/>
		<stop  offset="0.98" style="stop-color:#3B9193"/>
		<stop  offset="1" style="stop-color:#296A6C"/>
	</linearGradient>
	<path fill="url(#SVGID_28_)" d="M270.895,167.844h11.25c0,0,0.496,0.328,0.496,0.762c0.254,0.738-0.352,0.781-0.785,0.781
		l-10.961-0.043c-0.75,0-0.77-0.305-0.77-0.738c0.02-0.762,0.348-0.781,0.781-0.781L270.895,167.844z"/>
	
		<linearGradient id="SVGID_29_" gradientUnits="userSpaceOnUse" x1="24.6108" y1="207.2852" x2="14.6108" y2="207.2852" gradientTransform="matrix(0.75 0 0 -0.75 305.8696 319.6504)">
		<stop  offset="0" style="stop-color:#2D7375"/>
		<stop  offset="0.01" style="stop-color:#88BBBD"/>
		<stop  offset="0.03" style="stop-color:#3E9799"/>
		<stop  offset="0.9" style="stop-color:#3D9497"/>
		<stop  offset="0.98" style="stop-color:#3B9193"/>
		<stop  offset="1" style="stop-color:#296A6C"/>
	</linearGradient>
	<path fill="url(#SVGID_29_)" d="M316.828,159.688h7.5v9h-7.5V159.688z"/>
	
		<linearGradient id="SVGID_30_" gradientUnits="userSpaceOnUse" x1="31.353" y1="212.2715" x2="14.5854" y2="212.2715" gradientTransform="matrix(0.75 0 0 -0.75 303.5332 327.8076)">
		<stop  offset="0" style="stop-color:#2D7375"/>
		<stop  offset="0.01" style="stop-color:#88BBBD"/>
		<stop  offset="0.03" style="stop-color:#3E9799"/>
		<stop  offset="0.9" style="stop-color:#3D9497"/>
		<stop  offset="0.98" style="stop-color:#3B9193"/>
		<stop  offset="1" style="stop-color:#296A6C"/>
	</linearGradient>
	<path fill="url(#SVGID_30_)" d="M315.242,167.844h11.25c0,0,0.496,0.328,0.496,0.762c0.254,0.738-0.352,0.781-0.781,0.781
		l-10.965-0.043c-0.75,0-0.77-0.305-0.77-0.738c0.02-0.762,0.352-0.781,0.781-0.781L315.242,167.844z"/>
	
		<linearGradient id="SVGID_31_" gradientUnits="userSpaceOnUse" x1="96.6118" y1="200.2861" x2="14.6118" y2="200.2861" gradientTransform="matrix(0.75 0 0 -0.75 127.0332 244.3076)">
		<stop  offset="0" style="stop-color:#2D7375"/>
		<stop  offset="0.01" style="stop-color:#88BBBD"/>
		<stop  offset="0.03" style="stop-color:#3E9799"/>
		<stop  offset="0.9" style="stop-color:#3D9497"/>
		<stop  offset="0.98" style="stop-color:#3B9193"/>
		<stop  offset="1" style="stop-color:#296A6C"/>
	</linearGradient>
	<path fill="url(#SVGID_31_)" d="M138.742,84.344h60c0,0,0.73,0.418,0.73,0.938l0.02,17.063c0,0.75-0.441,1.246-0.957,1.246
		l-59.793,0.254c0,0-0.75-0.676-0.75-1.191V85.094c0,0,0.422-0.75,0.941-0.75H138.742z"/>
	
		<linearGradient id="SVGID_32_" gradientUnits="userSpaceOnUse" x1="21.1118" y1="197.7939" x2="14.606" y2="197.7939" gradientTransform="matrix(0.75 0 0 -0.75 132.166 242.2979)">
		<stop  offset="0" style="stop-color:#2D7375"/>
		<stop  offset="0.01" style="stop-color:#88BBBD"/>
		<stop  offset="0.03" style="stop-color:#3E9799"/>
		<stop  offset="0.9" style="stop-color:#3D9497"/>
		<stop  offset="0.98" style="stop-color:#3B9193"/>
		<stop  offset="1" style="stop-color:#296A6C"/>
	</linearGradient>
	<path fill="url(#SVGID_32_)" d="M143.875,82.332h3c0.75,0,1.125,0.398,1.125,0.918l-0.375,21.582c0,0-0.043,0.766-0.563,0.766
		l-3.188-0.016c0,0-0.754-0.41-0.754-0.93l0.004-21.57c0,0,0.414-0.773,0.934-0.773L143.875,82.332z"/>
	
		<linearGradient id="SVGID_33_" gradientUnits="userSpaceOnUse" x1="21.1128" y1="197.7939" x2="14.6079" y2="197.7939" gradientTransform="matrix(0.75 0 0 -0.75 178.6924 242.2979)">
		<stop  offset="0" style="stop-color:#2D7375"/>
		<stop  offset="0.01" style="stop-color:#88BBBD"/>
		<stop  offset="0.03" style="stop-color:#3E9799"/>
		<stop  offset="0.9" style="stop-color:#3D9497"/>
		<stop  offset="0.98" style="stop-color:#3B9193"/>
		<stop  offset="1" style="stop-color:#296A6C"/>
	</linearGradient>
	<path fill="url(#SVGID_33_)" d="M190.402,82.332h3c0.75,0,1.125,0.398,1.125,0.918l-0.375,21.582c0,0-0.047,0.766-0.563,0.766
		l-3.188-0.016c0,0-0.754-0.41-0.754-0.93l0.004-21.57c0,0,0.414-0.773,0.934-0.773L190.402,82.332z"/>
	
		<linearGradient id="SVGID_34_" gradientUnits="userSpaceOnUse" x1="25.6118" y1="210.8037" x2="14.6011" y2="210.8037" gradientTransform="matrix(0.75 0 0 -0.75 130.5527 264.9043)">
		<stop  offset="0" style="stop-color:#2D7375"/>
		<stop  offset="0.01" style="stop-color:#88BBBD"/>
		<stop  offset="0.03" style="stop-color:#3E9799"/>
		<stop  offset="0.9" style="stop-color:#3D9497"/>
		<stop  offset="0.98" style="stop-color:#3B9193"/>
		<stop  offset="1" style="stop-color:#296A6C"/>
	</linearGradient>
	<path fill="url(#SVGID_34_)" d="M142.262,104.938h6.75c0,0,0.625,0.402,0.625,0.922l0.125,2.078c0,0-0.543,0.738-1.063,0.738
		l-6.438,0.012c0,0-0.758-0.434-0.758-0.953l0.008-2.047c0,0,0.41-0.77,0.93-0.77L142.262,104.938z"/>
	
		<linearGradient id="SVGID_35_" gradientUnits="userSpaceOnUse" x1="25.6128" y1="210.8037" x2="14.603" y2="210.8037" gradientTransform="matrix(0.75 0 0 -0.75 177.0791 264.9043)">
		<stop  offset="0" style="stop-color:#2D7375"/>
		<stop  offset="0.01" style="stop-color:#88BBBD"/>
		<stop  offset="0.03" style="stop-color:#3E9799"/>
		<stop  offset="0.9" style="stop-color:#3D9497"/>
		<stop  offset="0.98" style="stop-color:#3B9193"/>
		<stop  offset="1" style="stop-color:#296A6C"/>
	</linearGradient>
	<path fill="url(#SVGID_35_)" d="M188.789,104.938h6.75c0,0,0.625,0.402,0.625,0.922l0.125,2.078c0,0-0.547,0.738-1.063,0.738
		l-6.438,0.012c0,0-0.758-0.434-0.758-0.953l0.008-2.047c0,0,0.41-0.77,0.93-0.77L188.789,104.938z"/>
	
		<linearGradient id="SVGID_36_" gradientUnits="userSpaceOnUse" x1="96.6128" y1="200.2891" x2="14.6128" y2="200.2891" gradientTransform="matrix(0.75 0 0 -0.75 191.9385 242.7432)">
		<stop  offset="0" style="stop-color:#2D7375"/>
		<stop  offset="0.01" style="stop-color:#88BBBD"/>
		<stop  offset="0.03" style="stop-color:#3E9799"/>
		<stop  offset="0.9" style="stop-color:#3D9497"/>
		<stop  offset="0.98" style="stop-color:#3B9193"/>
		<stop  offset="1" style="stop-color:#296A6C"/>
	</linearGradient>
	<path fill="url(#SVGID_36_)" d="M203.648,82.777h60c0,0,0.73,0.422,0.73,0.941l0.02,17.059c0,0.75-0.441,1.246-0.961,1.246
		l-59.789,0.254c0,0-0.75-0.672-0.75-1.191V83.527c0,0,0.422-0.75,0.938-0.75H203.648z"/>
	
		<linearGradient id="SVGID_37_" gradientUnits="userSpaceOnUse" x1="21.1128" y1="197.792" x2="14.603" y2="197.792" gradientTransform="matrix(0.75 0 0 -0.75 197.0713 240.7334)">
		<stop  offset="0" style="stop-color:#2D7375"/>
		<stop  offset="0.01" style="stop-color:#88BBBD"/>
		<stop  offset="0.03" style="stop-color:#3E9799"/>
		<stop  offset="0.9" style="stop-color:#3D9497"/>
		<stop  offset="0.98" style="stop-color:#3B9193"/>
		<stop  offset="1" style="stop-color:#296A6C"/>
	</linearGradient>
	<path fill="url(#SVGID_37_)" d="M208.781,80.77h3c0.75,0,1.125,0.395,1.125,0.914l-0.375,21.586c0,0-0.047,0.766-0.563,0.766
		l-3.188-0.016c0,0-0.758-0.41-0.758-0.93l0.008-21.57c0,0,0.414-0.773,0.934-0.773L208.781,80.77z"/>
	
		<linearGradient id="SVGID_38_" gradientUnits="userSpaceOnUse" x1="21.1147" y1="197.792" x2="14.604" y2="197.792" gradientTransform="matrix(0.75 0 0 -0.75 243.5977 240.7334)">
		<stop  offset="0" style="stop-color:#2D7375"/>
		<stop  offset="0.01" style="stop-color:#88BBBD"/>
		<stop  offset="0.03" style="stop-color:#3E9799"/>
		<stop  offset="0.9" style="stop-color:#3D9497"/>
		<stop  offset="0.98" style="stop-color:#3B9193"/>
		<stop  offset="1" style="stop-color:#296A6C"/>
	</linearGradient>
	<path fill="url(#SVGID_38_)" d="M255.309,80.77h3c0.75,0,1.125,0.395,1.125,0.914l-0.375,21.586c0,0-0.047,0.766-0.566,0.766
		l-3.184-0.016c0,0-0.758-0.41-0.758-0.93l0.008-21.57c0,0,0.414-0.773,0.934-0.773L255.309,80.77z"/>
	
		<linearGradient id="SVGID_39_" gradientUnits="userSpaceOnUse" x1="25.6133" y1="210.8018" x2="14.6025" y2="210.8018" gradientTransform="matrix(0.75 0 0 -0.75 195.458 263.3398)">
		<stop  offset="0" style="stop-color:#2D7375"/>
		<stop  offset="0.01" style="stop-color:#88BBBD"/>
		<stop  offset="0.03" style="stop-color:#3E9799"/>
		<stop  offset="0.9" style="stop-color:#3D9497"/>
		<stop  offset="0.98" style="stop-color:#3B9193"/>
		<stop  offset="1" style="stop-color:#296A6C"/>
	</linearGradient>
	<path fill="url(#SVGID_39_)" d="M207.168,103.375h6.75c0,0,0.625,0.402,0.625,0.918l0.125,2.082c0,0-0.547,0.734-1.063,0.734
		l-6.438,0.016c0,0-0.758-0.434-0.758-0.953l0.008-2.047c0,0,0.41-0.77,0.93-0.77L207.168,103.375z"/>
	
		<linearGradient id="SVGID_40_" gradientUnits="userSpaceOnUse" x1="25.6143" y1="210.8018" x2="14.5986" y2="210.8018" gradientTransform="matrix(0.75 0 0 -0.75 241.9844 263.3398)">
		<stop  offset="0" style="stop-color:#2D7375"/>
		<stop  offset="0.01" style="stop-color:#88BBBD"/>
		<stop  offset="0.03" style="stop-color:#3E9799"/>
		<stop  offset="0.9" style="stop-color:#3D9497"/>
		<stop  offset="0.98" style="stop-color:#3B9193"/>
		<stop  offset="1" style="stop-color:#296A6C"/>
	</linearGradient>
	<path fill="url(#SVGID_40_)" d="M253.695,103.375h6.75c0,0,0.625,0.402,0.625,0.918l0.125,2.082c0,0-0.547,0.734-1.066,0.734
		l-6.434,0.016c0,0-0.762-0.434-0.762-0.953l0.012-2.047c0,0,0.41-0.77,0.93-0.77L253.695,103.375z"/>
	
		<linearGradient id="SVGID_41_" gradientUnits="userSpaceOnUse" x1="96.6143" y1="200.2861" x2="14.6143" y2="200.2861" gradientTransform="matrix(0.75 0 0 -0.75 256.8672 244.3076)">
		<stop  offset="0" style="stop-color:#2D7375"/>
		<stop  offset="0.01" style="stop-color:#88BBBD"/>
		<stop  offset="0.03" style="stop-color:#3E9799"/>
		<stop  offset="0.9" style="stop-color:#3D9497"/>
		<stop  offset="0.98" style="stop-color:#3B9193"/>
		<stop  offset="1" style="stop-color:#296A6C"/>
	</linearGradient>
	<path fill="url(#SVGID_41_)" d="M268.578,84.344h60c0,0,0.727,0.418,0.727,0.938l0.023,17.063c0,0.75-0.441,1.246-0.961,1.246
		l-59.789,0.254c0,0-0.75-0.676-0.75-1.191V85.094c0,0,0.418-0.75,0.938-0.75H268.578z"/>
	
		<linearGradient id="SVGID_42_" gradientUnits="userSpaceOnUse" x1="21.1143" y1="197.7939" x2="14.6035" y2="197.7939" gradientTransform="matrix(0.75 0 0 -0.75 262 242.2979)">
		<stop  offset="0" style="stop-color:#2D7375"/>
		<stop  offset="0.01" style="stop-color:#88BBBD"/>
		<stop  offset="0.03" style="stop-color:#3E9799"/>
		<stop  offset="0.9" style="stop-color:#3D9497"/>
		<stop  offset="0.98" style="stop-color:#3B9193"/>
		<stop  offset="1" style="stop-color:#296A6C"/>
	</linearGradient>
	<path fill="url(#SVGID_42_)" d="M273.711,82.332h3c0.75,0,1.125,0.398,1.125,0.918l-0.375,21.582c0,0-0.047,0.766-0.566,0.766
		l-3.184-0.016c0,0-0.758-0.41-0.758-0.93l0.008-21.57c0,0,0.414-0.773,0.934-0.773L273.711,82.332z"/>
	
		<linearGradient id="SVGID_43_" gradientUnits="userSpaceOnUse" x1="21.1152" y1="197.7939" x2="14.6055" y2="197.7939" gradientTransform="matrix(0.75 0 0 -0.75 308.5264 242.2979)">
		<stop  offset="0" style="stop-color:#2D7375"/>
		<stop  offset="0.01" style="stop-color:#88BBBD"/>
		<stop  offset="0.03" style="stop-color:#3E9799"/>
		<stop  offset="0.9" style="stop-color:#3D9497"/>
		<stop  offset="0.98" style="stop-color:#3B9193"/>
		<stop  offset="1" style="stop-color:#296A6C"/>
	</linearGradient>
	<path fill="url(#SVGID_43_)" d="M320.238,82.332h3c0.75,0,1.125,0.398,1.125,0.918l-0.375,21.582c0,0-0.047,0.766-0.566,0.766
		l-3.184-0.016c0,0-0.758-0.41-0.758-0.93l0.008-21.57c0,0,0.414-0.773,0.93-0.773L320.238,82.332z"/>
	
		<linearGradient id="SVGID_44_" gradientUnits="userSpaceOnUse" x1="25.6133" y1="210.8037" x2="14.5977" y2="210.8037" gradientTransform="matrix(0.75 0 0 -0.75 260.3872 264.9043)">
		<stop  offset="0" style="stop-color:#2D7375"/>
		<stop  offset="0.01" style="stop-color:#88BBBD"/>
		<stop  offset="0.03" style="stop-color:#3E9799"/>
		<stop  offset="0.9" style="stop-color:#3D9497"/>
		<stop  offset="0.98" style="stop-color:#3B9193"/>
		<stop  offset="1" style="stop-color:#296A6C"/>
	</linearGradient>
	<path fill="url(#SVGID_44_)" d="M272.098,104.938h6.75c0,0,0.625,0.402,0.625,0.922l0.125,2.078c0,0-0.547,0.738-1.066,0.738
		l-6.434,0.012c0,0-0.762-0.434-0.762-0.953l0.012-2.047c0,0,0.41-0.77,0.93-0.77L272.098,104.938z"/>
	
		<linearGradient id="SVGID_45_" gradientUnits="userSpaceOnUse" x1="25.6157" y1="210.8037" x2="14.6001" y2="210.8037" gradientTransform="matrix(0.75 0 0 -0.75 306.9131 264.9043)">
		<stop  offset="0" style="stop-color:#2D7375"/>
		<stop  offset="0.01" style="stop-color:#88BBBD"/>
		<stop  offset="0.03" style="stop-color:#3E9799"/>
		<stop  offset="0.9" style="stop-color:#3D9497"/>
		<stop  offset="0.98" style="stop-color:#3B9193"/>
		<stop  offset="1" style="stop-color:#296A6C"/>
	</linearGradient>
	<path fill="url(#SVGID_45_)" d="M318.625,104.938h6.75c0,0,0.625,0.402,0.625,0.922l0.125,2.078c0,0-0.547,0.738-1.066,0.738
		l-6.434,0.012c0,0-0.762-0.434-0.762-0.953l0.012-2.047c0,0,0.41-0.77,0.926-0.77L318.625,104.938z"/>
	
		<linearGradient id="SVGID_46_" gradientUnits="userSpaceOnUse" x1="97.6147" y1="183.7139" x2="14.6147" y2="183.7139" gradientTransform="matrix(0.75 0 0 -0.75 126.769 275.1738)">
		<stop  offset="0" style="stop-color:#2D7375"/>
		<stop  offset="0.01" style="stop-color:#88BBBD"/>
		<stop  offset="0.03" style="stop-color:#3E9799"/>
		<stop  offset="0.9" style="stop-color:#3D9497"/>
		<stop  offset="0.98" style="stop-color:#3B9193"/>
		<stop  offset="1" style="stop-color:#296A6C"/>
	</linearGradient>
	<path fill="url(#SVGID_46_)" d="M138.48,115.207h60.75c0,0,0.504,0.344,0.504,0.766l0.246,42.734c0,0.75-0.586,0.863-1.008,0.863
		l-60.492-0.113c-0.75,0-0.75-0.23-0.75-0.652v-42.848c0-0.75,0.34-0.75,0.762-0.75H138.48z"/>
	
		<linearGradient id="SVGID_47_" gradientUnits="userSpaceOnUse" x1="68.0283" y1="189.2881" x2="14.6113" y2="189.2881" gradientTransform="matrix(0.75 0 0 -0.75 137.7402 279.4609)">
		<stop  offset="0" style="stop-color:#292525"/>
		<stop  offset="0.01" style="stop-color:#868584"/>
		<stop  offset="0.03" style="stop-color:#383433"/>
		<stop  offset="0.9" style="stop-color:#373332"/>
		<stop  offset="0.98" style="stop-color:#363130"/>
		<stop  offset="1" style="stop-color:#252221"/>
	</linearGradient>
	<path fill="url(#SVGID_47_)" d="M152.449,119.496h32.25c2.25,0,4.063,1.707,4.063,3.816l-0.313,28.434c0,1.5-1.395,3.531-3.5,3.531
		l-32.5,0.219c-2.25,0-3.75-1.93-3.75-4.035v-28.215c0-2.25,1.711-3.75,3.816-3.75H152.449z"/>
	
		<linearGradient id="SVGID_48_" gradientUnits="userSpaceOnUse" x1="32.6108" y1="213.2871" x2="32.6108" y2="141.2871" gradientTransform="matrix(0.75 0 0 -0.75 326.6201 240.9688)">
		<stop  offset="0" style="stop-color:#368688"/>
		<stop  offset="0.01" style="stop-color:#8CCDCF"/>
		<stop  offset="0.03" style="stop-color:#49AFB2"/>
		<stop  offset="0.9" style="stop-color:#48ACAF"/>
		<stop  offset="0.98" style="stop-color:#46A8AB"/>
		<stop  offset="1" style="stop-color:#317C7E"/>
	</linearGradient>
	<path fill="url(#SVGID_48_)" d="M337.578,81.004h27v54h-27V81.004z"/>
	
		<linearGradient id="SVGID_49_" gradientUnits="userSpaceOnUse" x1="16.1133" y1="213.2891" x2="16.1133" y2="141.2891" gradientTransform="matrix(0.75 0 0 -0.75 351.5439 240.9707)">
		<stop  offset="0" style="stop-color:#2B6E71"/>
		<stop  offset="0.01" style="stop-color:#87B7B9"/>
		<stop  offset="0.03" style="stop-color:#3B9194"/>
		<stop  offset="0.9" style="stop-color:#3A8F91"/>
		<stop  offset="0.98" style="stop-color:#388B8E"/>
		<stop  offset="1" style="stop-color:#276668"/>
	</linearGradient>
	<path fill="url(#SVGID_49_)" d="M362.504,81.004h2.25v54h-2.25V81.004z"/>
	
		<linearGradient id="SVGID_50_" gradientUnits="userSpaceOnUse" x1="18.5972" y1="213.2881" x2="18.5972" y2="134.0488" gradientTransform="matrix(0.75 0 0 -0.75 353.6597 238.3486)">
		<stop  offset="0" style="stop-color:#368688"/>
		<stop  offset="0.01" style="stop-color:#8CCDCF"/>
		<stop  offset="0.03" style="stop-color:#49AFB2"/>
		<stop  offset="0.9" style="stop-color:#48ACAF"/>
		<stop  offset="0.98" style="stop-color:#46A8AB"/>
		<stop  offset="1" style="stop-color:#317C7E"/>
	</linearGradient>
	<path fill="url(#SVGID_50_)" d="M365.371,78.383h4.5c0,0,0.512,0.297,0.512,0.734l0.238,57.766c0,0.75-0.59,0.93-1.027,0.93
		l-4.223-0.18c-0.75,0-0.777-0.215-0.777-0.648l0.027-57.852c0-0.75,0.328-0.75,0.762-0.75H365.371z"/>
</g>
</svg>
