<?xml version="1.0" encoding="utf-8"?>
<!-- Generator: Adobe Illustrator 16.0.0, SVG Export Plug-In . SVG Version: 6.00 Build 0)  -->
<!DOCTYPE svg PUBLIC "-//W3C//DTD SVG 1.1//EN" "http://www.w3.org/Graphics/SVG/1.1/DTD/svg11.dtd">
<svg preserveAspectRatio="none" version="1.1" id="图层_1" xmlns="http://www.w3.org/2000/svg" xmlns:xlink="http://www.w3.org/1999/xlink" x="0px" y="0px"
	 width="340.5px" height="597.156px" viewBox="30 -9.488 340.5 597.156" enable-background="new 30 -9.488 340.5 597.156"
	 xml:space="preserve">
<g id="surface956">
	
		<linearGradient id="SVGID_1_" gradientUnits="userSpaceOnUse" x1="2.2139" y1="716.1143" x2="2.2139" y2="626.1143" gradientTransform="matrix(0 0.75 0.75 0 -302.9922 44.3521)">
		<stop  offset="0" style="stop-color:#C4C4C4"/>
		<stop  offset="0.15" style="stop-color:#FFFFFF"/>
		<stop  offset="0.25" style="stop-color:#FFFFFF"/>
		<stop  offset="0.44" style="stop-color:#DFDFDF"/>
		<stop  offset="0.6" style="stop-color:#C7C7C7"/>
		<stop  offset="0.8" style="stop-color:#A8A8A8"/>
		<stop  offset="0.97" style="stop-color:#999999"/>
		<stop  offset="1" style="stop-color:#CBCBCB"/>
	</linearGradient>
	<path fill="url(#SVGID_1_)" d="M234.094-9.488v111h-67.5v-111H234.094z"/>
	
		<linearGradient id="SVGID_2_" gradientUnits="userSpaceOnUse" x1="-64.7837" y1="716.1133" x2="-64.7837" y2="609.1133" gradientTransform="matrix(0 0.75 0.75 0 -296.624 44.4087)">
		<stop  offset="0" style="stop-color:#C4C4C4"/>
		<stop  offset="0.15" style="stop-color:#FFFFFF"/>
		<stop  offset="0.25" style="stop-color:#FFFFFF"/>
		<stop  offset="0.44" style="stop-color:#DFDFDF"/>
		<stop  offset="0.6" style="stop-color:#C7C7C7"/>
		<stop  offset="0.8" style="stop-color:#A8A8A8"/>
		<stop  offset="0.97" style="stop-color:#999999"/>
		<stop  offset="1" style="stop-color:#CBCBCB"/>
	</linearGradient>
	<path fill="url(#SVGID_2_)" d="M240.461-9.43v10.5h-80.25v-10.5H240.461z"/>
	
		<linearGradient id="SVGID_3_" gradientUnits="userSpaceOnUse" x1="-68.2832" y1="716.1143" x2="-68.2832" y2="626.1143" gradientTransform="matrix(0 0.75 0.75 0 -302.9922 55.7441)">
		<stop  offset="0" style="stop-color:#9D9D9D"/>
		<stop  offset="0.15" style="stop-color:#D0D1D1"/>
		<stop  offset="0.25" style="stop-color:#E5E6E6"/>
		<stop  offset="0.44" style="stop-color:#B3B4B4"/>
		<stop  offset="0.6" style="stop-color:#9FA0A0"/>
		<stop  offset="0.8" style="stop-color:#868787"/>
		<stop  offset="0.97" style="stop-color:#7A7B7B"/>
		<stop  offset="1" style="stop-color:#A3A4A4"/>
	</linearGradient>
	<path fill="url(#SVGID_3_)" d="M234.094,1.906v5.25h-67.5v-5.25H234.094z"/>
	
		<linearGradient id="SVGID_4_" gradientUnits="userSpaceOnUse" x1="468.6123" y1="-111.8755" x2="14.6123" y2="-111.8755" gradientTransform="matrix(0.75 0 0 -0.75 19.04 259.8887)">
		<stop  offset="0" style="stop-color:#5F89A6"/>
		<stop  offset="0.01" style="stop-color:#AAD1EF"/>
		<stop  offset="0.05" style="stop-color:#7EB3D8"/>
		<stop  offset="0.9" style="stop-color:#7CB0D5"/>
		<stop  offset="0.95" style="stop-color:#79ACD0"/>
		<stop  offset="1" style="stop-color:#587F9A"/>
	</linearGradient>
	<path fill="url(#SVGID_4_)" d="M32.25,99.926h336c0.75,0,2.25,0.945,2.25,2.273v482.977c0,1.5-1.199,2.492-2.52,2.492
		l-335.73-0.242c-1.5,0-2.25-0.867-2.25-2.195V102.176c0-1.5,0.977-2.25,2.297-2.25H32.25z"/>
	<path fill="#3E3938" d="M73.27,179.043h253.5c1.5,0,2.711,1.129,2.711,2.57l0.289,349.93c0,1.5-1.488,2.57-2.813,2.57
		l-253.688-0.32c-1.5,0-2.25-0.848-2.25-2.285V181.293c0-0.75,0.977-2.25,2.297-2.25H73.27z"/>
	
		<linearGradient id="SVGID_5_" gradientUnits="userSpaceOnUse" x1="150.063" y1="203.7119" x2="14.4692" y2="203.7119" gradientTransform="matrix(0.75 0 0 -0.75 138.4956 247.3457)">
		<stop  offset="0" style="stop-color:#4D7CA5"/>
		<stop  offset="0.15" style="stop-color:#78AADA"/>
		<stop  offset="0.25" style="stop-color:#C0D3EA"/>
		<stop  offset="0.44" style="stop-color:#598EBC"/>
		<stop  offset="0.6" style="stop-color:#4F7EA7"/>
		<stop  offset="0.8" style="stop-color:#416A8D"/>
		<stop  offset="0.97" style="stop-color:#3B6080"/>
		<stop  offset="1" style="stop-color:#5181AB"/>
	</linearGradient>
	<path fill="url(#SVGID_5_)" d="M151.707,87.379h96.75c1.5,0,2.586,0.969,2.586,2.297l-0.336,9.703c0,1.5-0.734,2.473-2.055,2.473
		l-96.945-0.223c-1.5,0-2.359-0.852-2.359-2.18l0.109-9.82c0-1.5,0.961-2.355,2.285-2.355L151.707,87.379z"/>
	
		<linearGradient id="SVGID_6_" gradientUnits="userSpaceOnUse" x1="162.8838" y1="197.8584" x2="14.6133" y2="197.8584" gradientTransform="matrix(0.75 0 0 -0.75 133.6885 201.0313)">
		<stop  offset="0" style="stop-color:#4D7CA5"/>
		<stop  offset="0.15" style="stop-color:#78AADA"/>
		<stop  offset="0.25" style="stop-color:#C0D3EA"/>
		<stop  offset="0.44" style="stop-color:#598EBC"/>
		<stop  offset="0.6" style="stop-color:#4F7EA7"/>
		<stop  offset="0.8" style="stop-color:#416A8D"/>
		<stop  offset="0.97" style="stop-color:#3B6080"/>
		<stop  offset="1" style="stop-color:#5181AB"/>
	</linearGradient>
	<path fill="url(#SVGID_6_)" d="M146.898,41.066h106.5c1.5,0,2.453,0.969,2.453,2.293l-0.203,18.707c0,0.75-0.977,2.051-2.297,2.051
		l-106.453,0.199c-1.5,0-2.25-1.277-2.25-2.602V43.316c0-1.5,1.07-2.355,2.395-2.355L146.898,41.066z"/>
	<path fill="#CDCECE" d="M73.191,178.988l37.5-0.75v354.75l-37.5,1.5c-1.5,0-2.25-1.539-2.25-2.977V181.988
		c0-1.5,0.973-2.945,2.297-2.945L73.191,178.988z"/>
	<path fill="#CDCECE" d="M327.148,179.391l-37.5-0.75v354.75l37.5,1.5c1.5,0,2.25-1.543,2.25-2.98v-349.52
		c0-1.5-0.973-2.949-2.297-2.949L327.148,179.391z"/>
	
		<linearGradient id="SVGID_7_" gradientUnits="userSpaceOnUse" x1="69.6104" y1="-22.7124" x2="14.6104" y2="-22.7124" gradientTransform="matrix(0.75 0 0 -0.75 126.0771 339.0078)">
		<stop  offset="0" style="stop-color:#C2B39F"/>
		<stop  offset="0.15" style="stop-color:#FDEAD3"/>
		<stop  offset="0.25" style="stop-color:#FEF3E7"/>
		<stop  offset="0.44" style="stop-color:#DECCB6"/>
		<stop  offset="0.6" style="stop-color:#C5B5A2"/>
		<stop  offset="0.8" style="stop-color:#A69988"/>
		<stop  offset="0.97" style="stop-color:#988C7C"/>
		<stop  offset="1" style="stop-color:#CABAA5"/>
	</linearGradient>
	<path fill="url(#SVGID_7_)" d="M137.035,179.043h41.25v354h-41.25V179.043z"/>
	
		<linearGradient id="SVGID_8_" gradientUnits="userSpaceOnUse" x1="100.0713" y1="208.2139" x2="14.6133" y2="208.2139" gradientTransform="matrix(0.75 0 0 -0.75 114.54 349.7813)">
		<stop  offset="0" style="stop-color:#C4AA84"/>
		<stop  offset="0.15" style="stop-color:#FFE0B3"/>
		<stop  offset="0.25" style="stop-color:#FFEED7"/>
		<stop  offset="0.44" style="stop-color:#DFC297"/>
		<stop  offset="0.6" style="stop-color:#C7AD86"/>
		<stop  offset="0.8" style="stop-color:#A89170"/>
		<stop  offset="0.97" style="stop-color:#998566"/>
		<stop  offset="1" style="stop-color:#CBB189"/>
	</linearGradient>
	<path fill="url(#SVGID_8_)" d="M127.75,189.816H187c1.5,0,2.594,1.023,2.594,2.348l-0.344,2.902c0,1.5-0.727,2.414-2.047,2.414
		l-59.453-0.164c-1.5,0-2.25-0.91-2.25-2.234v-3.016c0-1.5,1.07-2.305,2.395-2.305L127.75,189.816z"/>
	
		<linearGradient id="SVGID_9_" gradientUnits="userSpaceOnUse" x1="100.0713" y1="208.2119" x2="14.6133" y2="208.2119" gradientTransform="matrix(0.75 0 0 -0.75 114.54 368.9473)">
		<stop  offset="0" style="stop-color:#C4AA84"/>
		<stop  offset="0.15" style="stop-color:#FFE0B3"/>
		<stop  offset="0.25" style="stop-color:#FFEED7"/>
		<stop  offset="0.44" style="stop-color:#DFC297"/>
		<stop  offset="0.6" style="stop-color:#C7AD86"/>
		<stop  offset="0.8" style="stop-color:#A89170"/>
		<stop  offset="0.97" style="stop-color:#998566"/>
		<stop  offset="1" style="stop-color:#CBB189"/>
	</linearGradient>
	<path fill="url(#SVGID_9_)" d="M127.75,208.984H187c1.5,0,2.594,1.02,2.594,2.344l-0.344,2.906c0,1.5-0.727,2.414-2.047,2.414
		l-59.453-0.164c-1.5,0-2.25-0.914-2.25-2.238v-3.012c0-1.5,1.07-2.305,2.395-2.305L127.75,208.984z"/>
	
		<linearGradient id="SVGID_10_" gradientUnits="userSpaceOnUse" x1="100.0713" y1="208.2139" x2="14.6133" y2="208.2139" gradientTransform="matrix(0.75 0 0 -0.75 114.54 388.1133)">
		<stop  offset="0" style="stop-color:#C4AA84"/>
		<stop  offset="0.15" style="stop-color:#FFE0B3"/>
		<stop  offset="0.25" style="stop-color:#FFEED7"/>
		<stop  offset="0.44" style="stop-color:#DFC297"/>
		<stop  offset="0.6" style="stop-color:#C7AD86"/>
		<stop  offset="0.8" style="stop-color:#A89170"/>
		<stop  offset="0.97" style="stop-color:#998566"/>
		<stop  offset="1" style="stop-color:#CBB189"/>
	</linearGradient>
	<path fill="url(#SVGID_10_)" d="M127.75,228.148H187c1.5,0,2.594,1.02,2.594,2.348l-0.344,2.902c0,1.5-0.727,2.414-2.047,2.414
		l-59.453-0.164c-1.5,0-2.25-0.91-2.25-2.238v-3.012c0-1.5,1.07-2.305,2.395-2.305L127.75,228.148z"/>
	
		<linearGradient id="SVGID_11_" gradientUnits="userSpaceOnUse" x1="100.0713" y1="208.2119" x2="14.6133" y2="208.2119" gradientTransform="matrix(0.75 0 0 -0.75 114.54 426.4434)">
		<stop  offset="0" style="stop-color:#C4AA84"/>
		<stop  offset="0.15" style="stop-color:#FFE0B3"/>
		<stop  offset="0.25" style="stop-color:#FFEED7"/>
		<stop  offset="0.44" style="stop-color:#DFC297"/>
		<stop  offset="0.6" style="stop-color:#C7AD86"/>
		<stop  offset="0.8" style="stop-color:#A89170"/>
		<stop  offset="0.97" style="stop-color:#998566"/>
		<stop  offset="1" style="stop-color:#CBB189"/>
	</linearGradient>
	<path fill="url(#SVGID_11_)" d="M127.75,266.48H187c1.5,0,2.594,1.02,2.594,2.344l-0.344,2.906c0,1.5-0.727,2.414-2.047,2.414
		l-59.453-0.164c-1.5,0-2.25-0.91-2.25-2.238v-3.012c0-1.5,1.07-2.305,2.395-2.305L127.75,266.48z"/>
	
		<linearGradient id="SVGID_12_" gradientUnits="userSpaceOnUse" x1="100.0713" y1="208.2168" x2="14.6133" y2="208.2168" gradientTransform="matrix(0.75 0 0 -0.75 114.54 407.2783)">
		<stop  offset="0" style="stop-color:#C4AA84"/>
		<stop  offset="0.15" style="stop-color:#FFE0B3"/>
		<stop  offset="0.25" style="stop-color:#FFEED7"/>
		<stop  offset="0.44" style="stop-color:#DFC297"/>
		<stop  offset="0.6" style="stop-color:#C7AD86"/>
		<stop  offset="0.8" style="stop-color:#A89170"/>
		<stop  offset="0.97" style="stop-color:#998566"/>
		<stop  offset="1" style="stop-color:#CBB189"/>
	</linearGradient>
	<path fill="url(#SVGID_12_)" d="M127.75,247.313H187c1.5,0,2.594,1.023,2.594,2.348l-0.344,2.902c0,1.5-0.727,2.414-2.047,2.414
		l-59.453-0.164c-1.5,0-2.25-0.91-2.25-2.234v-3.016c0-1.5,1.07-2.305,2.395-2.305L127.75,247.313z"/>
	
		<linearGradient id="SVGID_13_" gradientUnits="userSpaceOnUse" x1="69.6147" y1="-22.7163" x2="14.6147" y2="-22.7163" gradientTransform="matrix(0.75 0 0 -0.75 212.4331 339.6504)">
		<stop  offset="0" style="stop-color:#C2B39F"/>
		<stop  offset="0.15" style="stop-color:#FDEAD3"/>
		<stop  offset="0.25" style="stop-color:#FEF3E7"/>
		<stop  offset="0.44" style="stop-color:#DECCB6"/>
		<stop  offset="0.6" style="stop-color:#C5B5A2"/>
		<stop  offset="0.8" style="stop-color:#A69988"/>
		<stop  offset="0.97" style="stop-color:#988C7C"/>
		<stop  offset="1" style="stop-color:#CABAA5"/>
	</linearGradient>
	<path fill="url(#SVGID_13_)" d="M223.395,179.688h41.25v354h-41.25V179.688z"/>
	
		<linearGradient id="SVGID_14_" gradientUnits="userSpaceOnUse" x1="100.0698" y1="208.2139" x2="14.6118" y2="208.2139" gradientTransform="matrix(0.75 0 0 -0.75 200.8965 349.7813)">
		<stop  offset="0" style="stop-color:#C4AA84"/>
		<stop  offset="0.15" style="stop-color:#FFE0B3"/>
		<stop  offset="0.25" style="stop-color:#FFEED7"/>
		<stop  offset="0.44" style="stop-color:#DFC297"/>
		<stop  offset="0.6" style="stop-color:#C7AD86"/>
		<stop  offset="0.8" style="stop-color:#A89170"/>
		<stop  offset="0.97" style="stop-color:#998566"/>
		<stop  offset="1" style="stop-color:#CBB189"/>
	</linearGradient>
	<path fill="url(#SVGID_14_)" d="M214.105,189.816h59.25c1.5,0,2.594,1.023,2.594,2.348l-0.344,2.902c0,1.5-0.727,2.414-2.047,2.414
		l-59.453-0.164c-1.5,0-2.25-0.91-2.25-2.234v-3.016c0-1.5,1.07-2.305,2.395-2.305L214.105,189.816z"/>
	
		<linearGradient id="SVGID_15_" gradientUnits="userSpaceOnUse" x1="100.0698" y1="208.2119" x2="14.6118" y2="208.2119" gradientTransform="matrix(0.75 0 0 -0.75 200.8965 368.9473)">
		<stop  offset="0" style="stop-color:#C4AA84"/>
		<stop  offset="0.15" style="stop-color:#FFE0B3"/>
		<stop  offset="0.25" style="stop-color:#FFEED7"/>
		<stop  offset="0.44" style="stop-color:#DFC297"/>
		<stop  offset="0.6" style="stop-color:#C7AD86"/>
		<stop  offset="0.8" style="stop-color:#A89170"/>
		<stop  offset="0.97" style="stop-color:#998566"/>
		<stop  offset="1" style="stop-color:#CBB189"/>
	</linearGradient>
	<path fill="url(#SVGID_15_)" d="M214.105,208.984h59.25c1.5,0,2.594,1.02,2.594,2.344l-0.344,2.906c0,1.5-0.727,2.414-2.047,2.414
		l-59.453-0.164c-1.5,0-2.25-0.914-2.25-2.238v-3.012c0-1.5,1.07-2.305,2.395-2.305L214.105,208.984z"/>
	
		<linearGradient id="SVGID_16_" gradientUnits="userSpaceOnUse" x1="100.0698" y1="208.2139" x2="14.6118" y2="208.2139" gradientTransform="matrix(0.75 0 0 -0.75 200.8965 388.1133)">
		<stop  offset="0" style="stop-color:#C4AA84"/>
		<stop  offset="0.15" style="stop-color:#FFE0B3"/>
		<stop  offset="0.25" style="stop-color:#FFEED7"/>
		<stop  offset="0.44" style="stop-color:#DFC297"/>
		<stop  offset="0.6" style="stop-color:#C7AD86"/>
		<stop  offset="0.8" style="stop-color:#A89170"/>
		<stop  offset="0.97" style="stop-color:#998566"/>
		<stop  offset="1" style="stop-color:#CBB189"/>
	</linearGradient>
	<path fill="url(#SVGID_16_)" d="M214.105,228.148h59.25c1.5,0,2.594,1.02,2.594,2.348l-0.344,2.902c0,1.5-0.727,2.414-2.047,2.414
		l-59.453-0.164c-1.5,0-2.25-0.91-2.25-2.238v-3.012c0-1.5,1.07-2.305,2.395-2.305L214.105,228.148z"/>
	
		<linearGradient id="SVGID_17_" gradientUnits="userSpaceOnUse" x1="100.0698" y1="208.2119" x2="14.6118" y2="208.2119" gradientTransform="matrix(0.75 0 0 -0.75 200.8965 426.4434)">
		<stop  offset="0" style="stop-color:#C4AA84"/>
		<stop  offset="0.15" style="stop-color:#FFE0B3"/>
		<stop  offset="0.25" style="stop-color:#FFEED7"/>
		<stop  offset="0.44" style="stop-color:#DFC297"/>
		<stop  offset="0.6" style="stop-color:#C7AD86"/>
		<stop  offset="0.8" style="stop-color:#A89170"/>
		<stop  offset="0.97" style="stop-color:#998566"/>
		<stop  offset="1" style="stop-color:#CBB189"/>
	</linearGradient>
	<path fill="url(#SVGID_17_)" d="M214.105,266.48h59.25c1.5,0,2.594,1.02,2.594,2.344l-0.344,2.906c0,1.5-0.727,2.414-2.047,2.414
		l-59.453-0.164c-1.5,0-2.25-0.91-2.25-2.238v-3.012c0-1.5,1.07-2.305,2.395-2.305L214.105,266.48z"/>
	
		<linearGradient id="SVGID_18_" gradientUnits="userSpaceOnUse" x1="100.0698" y1="208.2168" x2="14.6118" y2="208.2168" gradientTransform="matrix(0.75 0 0 -0.75 200.8965 407.2783)">
		<stop  offset="0" style="stop-color:#C4AA84"/>
		<stop  offset="0.15" style="stop-color:#FFE0B3"/>
		<stop  offset="0.25" style="stop-color:#FFEED7"/>
		<stop  offset="0.44" style="stop-color:#DFC297"/>
		<stop  offset="0.6" style="stop-color:#C7AD86"/>
		<stop  offset="0.8" style="stop-color:#A89170"/>
		<stop  offset="0.97" style="stop-color:#998566"/>
		<stop  offset="1" style="stop-color:#CBB189"/>
	</linearGradient>
	<path fill="url(#SVGID_18_)" d="M214.105,247.313h59.25c1.5,0,2.594,1.023,2.594,2.348l-0.344,2.902c0,1.5-0.727,2.414-2.047,2.414
		l-59.453-0.164c-1.5,0-2.25-0.91-2.25-2.234v-3.016c0-1.5,1.07-2.305,2.395-2.305L214.105,247.313z"/>
</g>
</svg>
