<?xml version="1.0" encoding="utf-8"?>
<!-- Generator: Adobe Illustrator 16.0.0, SVG Export Plug-In . SVG Version: 6.00 Build 0)  -->
<!DOCTYPE svg PUBLIC "-//W3C//DTD SVG 1.1//EN" "http://www.w3.org/Graphics/SVG/1.1/DTD/svg11.dtd">
<svg preserveAspectRatio="none" version="1.1" id="图层_1" xmlns="http://www.w3.org/2000/svg" xmlns:xlink="http://www.w3.org/1999/xlink" x="0px" y="0px"
	 width="46.545px" height="103.895px" viewBox="29.992 29.625 46.545 103.895"
	 enable-background="new 29.992 29.625 46.545 103.895" xml:space="preserve">
<g id="surface1111">
	
		<linearGradient id="SVGID_1_" gradientUnits="userSpaceOnUse" x1="69.6104" y1="69.4097" x2="63.6104" y2="69.4097" gradientTransform="matrix(0.75 0 0 -0.75 4.416 96.7832)">
		<stop  offset="0" style="stop-color:#939393"/>
		<stop  offset="0.15" style="stop-color:#E5E5E5"/>
		<stop  offset="0.26" style="stop-color:#F0F0F0"/>
		<stop  offset="0.41" style="stop-color:#EEEEEE"/>
		<stop  offset="0.6" style="stop-color:#C3C3C3"/>
		<stop  offset="0.8" style="stop-color:#9C9C9C"/>
		<stop  offset="0.93" style="stop-color:#7F7F7F"/>
		<stop  offset="1" style="stop-color:#E0E0E0"/>
	</linearGradient>
	<path fill="url(#SVGID_1_)" d="M52.125,46.977h4.5v-4.5h-4.5V46.977z"/>
	
		<linearGradient id="SVGID_2_" gradientUnits="userSpaceOnUse" x1="106.6123" y1="52.4126" x2="63.6123" y2="52.4126" gradientTransform="matrix(0.75 0 0 -0.75 -9.3315 109.9023)">
		<stop  offset="0" style="stop-color:#939393"/>
		<stop  offset="0.15" style="stop-color:#E5E5E5"/>
		<stop  offset="0.26" style="stop-color:#F0F0F0"/>
		<stop  offset="0.41" style="stop-color:#EEEEEE"/>
		<stop  offset="0.6" style="stop-color:#C3C3C3"/>
		<stop  offset="0.8" style="stop-color:#9C9C9C"/>
		<stop  offset="0.93" style="stop-color:#7F7F7F"/>
		<stop  offset="1" style="stop-color:#E0E0E0"/>
	</linearGradient>
	<path fill="url(#SVGID_2_)" d="M38.379,55.594h32.25v30h-32.25V55.594z"/>
	
		<linearGradient id="SVGID_3_" gradientUnits="userSpaceOnUse" x1="110.7783" y1="67.2593" x2="63.6123" y2="67.2593" gradientTransform="matrix(0.75 0 0 -0.75 -11.1548 102.1719)">
		<stop  offset="0" style="stop-color:#939393"/>
		<stop  offset="0.15" style="stop-color:#E5E5E5"/>
		<stop  offset="0.26" style="stop-color:#F0F0F0"/>
		<stop  offset="0.41" style="stop-color:#EEEEEE"/>
		<stop  offset="0.6" style="stop-color:#C3C3C3"/>
		<stop  offset="0.8" style="stop-color:#9C9C9C"/>
		<stop  offset="0.93" style="stop-color:#7F7F7F"/>
		<stop  offset="1" style="stop-color:#E0E0E0"/>
	</linearGradient>
	<path fill="url(#SVGID_3_)" d="M37.305,47.863h33.75c0.75,0,0.875,0.48,0.875,1.07l-0.125,5.68c0,0.75-0.363,0.98-0.953,0.98
		l-33.547-0.23c0,0-0.75-0.25-0.75-0.844v-5.906c0,0,0.453-0.75,1.043-0.75H37.305z"/>
	
		<linearGradient id="SVGID_4_" gradientUnits="userSpaceOnUse" x1="117.7979" y1="70.894" x2="63.6152" y2="70.894" gradientTransform="matrix(0.75 0 0 -0.75 -13.7197 101.0313)">
		<stop  offset="0" style="stop-color:#939393"/>
		<stop  offset="0.15" style="stop-color:#E5E5E5"/>
		<stop  offset="0.26" style="stop-color:#F0F0F0"/>
		<stop  offset="0.41" style="stop-color:#EEEEEE"/>
		<stop  offset="0.6" style="stop-color:#C3C3C3"/>
		<stop  offset="0.8" style="stop-color:#9C9C9C"/>
		<stop  offset="0.93" style="stop-color:#7F7F7F"/>
		<stop  offset="1" style="stop-color:#E0E0E0"/>
	</linearGradient>
	<path fill="url(#SVGID_4_)" d="M34.742,46.723h39c0.75,0,0.887,0.473,0.887,1.066c-0.137,0.434-0.488,1.219-1.074,1.219
		l-38.813-0.035c0,0-0.75-0.445-0.75-1.039c0-0.461,0.457-1.219,1.047-1.219L34.742,46.723z"/>
	<path fill="#CDCECE" d="M31.84,65.188h12v9.75h-12V65.188z"/>
	
		<linearGradient id="SVGID_5_" gradientUnits="userSpaceOnUse" x1="74.791" y1="72.4136" x2="74.791" y2="63.2358" gradientTransform="matrix(0.75 0 0 -0.75 -15.8691 113.1963)">
		<stop  offset="0" style="stop-color:#939393"/>
		<stop  offset="0.15" style="stop-color:#E5E5E5"/>
		<stop  offset="0.26" style="stop-color:#F0F0F0"/>
		<stop  offset="0.41" style="stop-color:#EEEEEE"/>
		<stop  offset="0.6" style="stop-color:#C3C3C3"/>
		<stop  offset="0.8" style="stop-color:#9C9C9C"/>
		<stop  offset="0.93" style="stop-color:#7F7F7F"/>
		<stop  offset="1" style="stop-color:#E0E0E0"/>
	</linearGradient>
	<path fill="url(#SVGID_5_)" d="M31.84,58.887h15c0,0,1.77,1.148,1.77,3.293c-0.27,1.957-2.129,3.59-2.129,3.59L31.84,65.637V58.887
		z"/>
	
		<linearGradient id="SVGID_6_" gradientUnits="userSpaceOnUse" x1="74.791" y1="72.4116" x2="74.791" y2="63.2349" gradientTransform="matrix(0.75 0 0 -0.75 -15.8691 128.376)">
		<stop  offset="0" style="stop-color:#939393"/>
		<stop  offset="0.15" style="stop-color:#E5E5E5"/>
		<stop  offset="0.26" style="stop-color:#F0F0F0"/>
		<stop  offset="0.41" style="stop-color:#EEEEEE"/>
		<stop  offset="0.6" style="stop-color:#C3C3C3"/>
		<stop  offset="0.8" style="stop-color:#9C9C9C"/>
		<stop  offset="0.93" style="stop-color:#7F7F7F"/>
		<stop  offset="1" style="stop-color:#E0E0E0"/>
	</linearGradient>
	<path fill="url(#SVGID_6_)" d="M31.84,74.066h15c0,0,1.77,1.148,1.77,3.293c-0.27,1.957-2.129,3.59-2.129,3.59L31.84,80.816V74.066
		z"/>
	
		<linearGradient id="SVGID_7_" gradientUnits="userSpaceOnUse" x1="65.1113" y1="72.4116" x2="65.1113" y2="38.2241" gradientTransform="matrix(0.75 0 0 -0.75 -17.7168 111.6367)">
		<stop  offset="0" style="stop-color:#939393"/>
		<stop  offset="0.15" style="stop-color:#E5E5E5"/>
		<stop  offset="0.26" style="stop-color:#F0F0F0"/>
		<stop  offset="0.41" style="stop-color:#EEEEEE"/>
		<stop  offset="0.6" style="stop-color:#C3C3C3"/>
		<stop  offset="0.8" style="stop-color:#9C9C9C"/>
		<stop  offset="0.93" style="stop-color:#7F7F7F"/>
		<stop  offset="1" style="stop-color:#E0E0E0"/>
	</linearGradient>
	<path fill="url(#SVGID_7_)" d="M30.742,57.328c0.75,0,1.242,0.434,1.242,0.988l0.258,23.762c0,0.75-0.703,0.891-1.254,0.891
		c-0.246-0.141-0.996-0.473-0.996-1.023V58.078c0,0,0.445-0.75,0.996-0.75H30.742z"/>
	
		<linearGradient id="SVGID_8_" gradientUnits="userSpaceOnUse" x1="92.6133" y1="67.9136" x2="63.5713" y2="67.9136" gradientTransform="matrix(0.75 0 0 -0.75 -3.8433 181.0791)">
		<stop  offset="0" style="stop-color:#343232"/>
		<stop  offset="0.15" style="stop-color:#555454"/>
		<stop  offset="0.26" style="stop-color:#797777"/>
		<stop  offset="0.41" style="stop-color:#5D5B5B"/>
		<stop  offset="0.6" style="stop-color:#484646"/>
		<stop  offset="0.8" style="stop-color:#383636"/>
		<stop  offset="0.93" style="stop-color:#2C2B2B"/>
		<stop  offset="1" style="stop-color:#535151"/>
	</linearGradient>
	<path fill="url(#SVGID_8_)" d="M65.617,126.77v5.25c0,0.75-0.766,1.332-1.316,1.332l-19.684,0.168c0,0-0.781-0.613-0.781-1.168
		l0.031-5.582H65.617z"/>
	
		<linearGradient id="SVGID_9_" gradientUnits="userSpaceOnUse" x1="106.6123" y1="46.3291" x2="63.6123" y2="46.3291" gradientTransform="matrix(0.75 0 0 -0.75 -9.3228 142.123)">
		<stop  offset="0" style="stop-color:#343232"/>
		<stop  offset="0.15" style="stop-color:#555454"/>
		<stop  offset="0.26" style="stop-color:#797777"/>
		<stop  offset="0.41" style="stop-color:#5D5B5B"/>
		<stop  offset="0.6" style="stop-color:#484646"/>
		<stop  offset="0.8" style="stop-color:#383636"/>
		<stop  offset="0.93" style="stop-color:#2C2B2B"/>
		<stop  offset="1" style="stop-color:#535151"/>
	</linearGradient>
	<path fill="url(#SVGID_9_)" d="M70.637,87.816v34.5c0,2.25-1.766,4.621-4.117,4.621l-23.633-0.121c-2.25,0-4.5-1.922-4.5-4.402
		V87.816H70.637z"/>
	
		<linearGradient id="SVGID_10_" gradientUnits="userSpaceOnUse" x1="123.3613" y1="70.9263" x2="63.6143" y2="70.9263" gradientTransform="matrix(0.75 0 0 -0.75 -15.9844 139.9639)">
		<stop  offset="0" style="stop-color:#939393"/>
		<stop  offset="0.15" style="stop-color:#E5E5E5"/>
		<stop  offset="0.26" style="stop-color:#F0F0F0"/>
		<stop  offset="0.41" style="stop-color:#EEEEEE"/>
		<stop  offset="0.6" style="stop-color:#C3C3C3"/>
		<stop  offset="0.8" style="stop-color:#9C9C9C"/>
		<stop  offset="0.93" style="stop-color:#7F7F7F"/>
		<stop  offset="1" style="stop-color:#E0E0E0"/>
	</linearGradient>
	<path fill="url(#SVGID_10_)" d="M32.477,85.656h42.75c0.75,0,1.266,0.457,1.266,1.047c0.234,0.453-0.504,1.074-1.09,1.074
		l-42.926,0.129c0,0-0.75-0.609-0.75-1.203c0-0.297,0.449-1.07,1.039-1.07L32.477,85.656z"/>
	<path stroke="#000000" stroke-linejoin="bevel" stroke-miterlimit="10" d="M47.816,36.875c0-3.75,2.906-6.75,6.492-6.75
		c3.258,0,6.492,2.926,6.492,6.539c-0.234,3.961-2.906,6.543-6.492,6.543c-3.492-0.332-6.492-2.93-6.492-6.543V36.875z"/>
	<path fill="#9E9F9F" d="M48.363,36.676c0-3,2.66-6,5.945-6c3.055,0,5.945,2.68,5.945,5.988c0.109,3.012-2.66,5.988-5.945,5.988
		c-2.945,0.023-5.945-2.68-5.945-5.988V36.676z"/>
	<path fill="#EBEAE9" d="M48.555,36.938c0-3.75,2.574-6,5.754-6c3.246,0,5.758,2.598,5.758,5.801
		c-0.262,3.199-2.578,5.797-5.758,5.797c-3.504-0.348-5.754-2.598-5.754-5.797V36.938z"/>
	<path fill="none" stroke="#000000" stroke-linejoin="bevel" stroke-miterlimit="10" d="M54.258,31.398l-0.008,0.75"/>
	<path fill="none" stroke="#000000" stroke-linejoin="bevel" stroke-miterlimit="10" d="M54.258,41.168l-0.008,0.75"/>
	<path fill="none" stroke="#000000" stroke-linejoin="bevel" stroke-miterlimit="10" d="M48.805,36.684l0.75,0.008"/>
	<path fill="none" stroke="#000000" stroke-linejoin="bevel" stroke-miterlimit="10" d="M58.949,36.684l0.75,0.008"/>
	<path fill="#FFFFFF" fill-opacity="0.7255" d="M56.855,38.664c3-3.75-0.172-7.5-0.172-7.5c2.422,0.75,3.566,3.039,3.566,5.492
		c0.355,3.508-2.664,5.992-5.945,5.992c-1.199-0.234-2.477-0.414-3.449-1.113c0,0.129,3.633,0.988,6.234-2.996L56.855,38.664z"/>
	<path stroke="#000000" stroke-linejoin="bevel" stroke-miterlimit="10" d="M50.012,33.965l3.895,2.25c0,0,1.254,0.754,2.184,0.773
		c0.141-0.297,0.316,0.074,0.117,0.426l-0.727,0.574c0,0-0.074,0.406-0.188-0.008c0.188,0.008-0.488-0.875-1.602-1.625
		L50.012,33.965z"/>
	<path stroke="#000000" stroke-linejoin="bevel" stroke-miterlimit="10" d="M54.016,35.875c0,0,0.566,0.273,0.633,0.527
		c0.016-0.152-0.082,0.512-0.336,0.578c-0.023-0.078-0.512-0.082-0.578-0.332c-0.094-0.121,0.082-0.512,0.332-0.582L54.016,35.875z"
		/>
	
		<linearGradient id="SVGID_11_" gradientUnits="userSpaceOnUse" x1="143.084" y1="355.9775" x2="142.2408" y2="355.9775" gradientTransform="matrix(0.6495 0.375 0.375 -0.6495 -171.9522 214.2797)">
		<stop  offset="0" style="stop-color:#C4AA84"/>
		<stop  offset="0.15" style="stop-color:#FFE0B3"/>
		<stop  offset="0.25" style="stop-color:#FFEED7"/>
		<stop  offset="0.44" style="stop-color:#DFC297"/>
		<stop  offset="0.6" style="stop-color:#C7AD86"/>
		<stop  offset="0.8" style="stop-color:#A89170"/>
		<stop  offset="0.97" style="stop-color:#998566"/>
		<stop  offset="1" style="stop-color:#CBB189"/>
	</linearGradient>
	<path fill="url(#SVGID_11_)" d="M54.086,36.133c0,0,0.34,0.164,0.379,0.316c0.27,0.059-0.051,0.309-0.203,0.348
		c0.098,0.359-0.309-0.047-0.348-0.199c-0.203,0.184,0.051-0.309,0.203-0.352L54.086,36.133z"/>
	
		<linearGradient id="SVGID_12_" gradientUnits="userSpaceOnUse" x1="106.6123" y1="71.4126" x2="63.6123" y2="71.4126" gradientTransform="matrix(0.75 0 0 -0.75 -9.3315 109.9023)">
		<stop  offset="0" style="stop-color:#7E7E7E"/>
		<stop  offset="0.15" style="stop-color:#C6C6C6"/>
		<stop  offset="0.26" style="stop-color:#D3D4D4"/>
		<stop  offset="0.41" style="stop-color:#CECFCF"/>
		<stop  offset="0.6" style="stop-color:#A8A9A9"/>
		<stop  offset="0.8" style="stop-color:#868787"/>
		<stop  offset="0.93" style="stop-color:#6D6D6D"/>
		<stop  offset="1" style="stop-color:#C1C2C2"/>
	</linearGradient>
	<path fill="url(#SVGID_12_)" d="M38.379,55.594h32.25v1.5h-32.25V55.594z"/>
	
		<linearGradient id="SVGID_13_" gradientUnits="userSpaceOnUse" x1="110.6123" y1="71.9116" x2="63.6123" y2="71.9116" gradientTransform="matrix(0.75 0 0 -0.75 -11.1548 103.3467)">
		<stop  offset="0" style="stop-color:#7E7E7E"/>
		<stop  offset="0.15" style="stop-color:#C6C6C6"/>
		<stop  offset="0.26" style="stop-color:#D3D4D4"/>
		<stop  offset="0.41" style="stop-color:#CECFCF"/>
		<stop  offset="0.6" style="stop-color:#A8A9A9"/>
		<stop  offset="0.8" style="stop-color:#868787"/>
		<stop  offset="0.93" style="stop-color:#6D6D6D"/>
		<stop  offset="1" style="stop-color:#C1C2C2"/>
	</linearGradient>
	<path fill="url(#SVGID_13_)" d="M71.805,49.039v0.75h-35.25v-0.75H71.805z"/>
</g>
</svg>
