<?xml version="1.0" encoding="utf-8"?>
<!-- Generator: Adobe Illustrator 16.0.0, SVG Export Plug-In . SVG Version: 6.00 Build 0)  -->
<!DOCTYPE svg PUBLIC "-//W3C//DTD SVG 1.1//EN" "http://www.w3.org/Graphics/SVG/1.1/DTD/svg11.dtd">
<svg preserveAspectRatio="none" version="1.1" id="图层_1" xmlns="http://www.w3.org/2000/svg" xmlns:xlink="http://www.w3.org/1999/xlink" x="0px" y="0px"
	 width="299.328px" height="216.535px" viewBox="30 14.184 299.328 216.535" enable-background="new 30 14.184 299.328 216.535"
	 xml:space="preserve">
<g id="surface586">
	
		<linearGradient id="SVGID_1_" gradientUnits="userSpaceOnUse" x1="-54.4136" y1="48.3872" x2="-66.4136" y2="48.3872" gradientTransform="matrix(0 0.75 -0.75 0 193.7744 219.334)">
		<stop  offset="0" style="stop-color:#BAC0C1"/>
		<stop  offset="0.15" style="stop-color:#F4FAFC"/>
		<stop  offset="0.25" style="stop-color:#F8FCFD"/>
		<stop  offset="0.44" style="stop-color:#D5DBDD"/>
		<stop  offset="0.6" style="stop-color:#BDC3C4"/>
		<stop  offset="0.8" style="stop-color:#A0A4A6"/>
		<stop  offset="0.97" style="stop-color:#929697"/>
		<stop  offset="1" style="stop-color:#C2C7C9"/>
	</linearGradient>
	<path fill="url(#SVGID_1_)" d="M133.859,169.523v9h47.25v-9H133.859z"/>
	
		<linearGradient id="SVGID_2_" gradientUnits="userSpaceOnUse" x1="-610.7407" y1="151.2861" x2="-622.7407" y2="151.2861" gradientTransform="matrix(-0.75 0 0 -0.75 -274.6416 266.3584)">
		<stop  offset="0" style="stop-color:#BAC0C1"/>
		<stop  offset="0.15" style="stop-color:#F4FAFC"/>
		<stop  offset="0.25" style="stop-color:#F8FCFD"/>
		<stop  offset="0.44" style="stop-color:#D5DBDD"/>
		<stop  offset="0.6" style="stop-color:#BDC3C4"/>
		<stop  offset="0.8" style="stop-color:#A0A4A6"/>
		<stop  offset="0.97" style="stop-color:#929697"/>
		<stop  offset="1" style="stop-color:#C2C7C9"/>
	</linearGradient>
	<path fill="url(#SVGID_2_)" d="M192.414,140.52h-9v24.75h9V140.52z"/>
	
		<linearGradient id="SVGID_3_" gradientUnits="userSpaceOnUse" x1="19.2969" y1="619.0088" x2="42.8502" y2="632.6073" gradientTransform="matrix(0.75 0 0 0.75 162.2319 -298.3076)">
		<stop  offset="0" style="stop-color:#B9B9B9"/>
		<stop  offset="0.15" style="stop-color:#F2F2F2"/>
		<stop  offset="0.25" style="stop-color:#F3F3F3"/>
		<stop  offset="0.52" style="stop-color:#D0D0D0"/>
		<stop  offset="0.69" style="stop-color:#B9B9B9"/>
		<stop  offset="0.8" style="stop-color:#AFAFAF"/>
		<stop  offset="0.92" style="stop-color:#A5A5A5"/>
	</linearGradient>
	<path fill="url(#SVGID_3_)" d="M178.348,178.852c0,0,7.723-0.203,11.398-4.52c3.602-4.48,3.027-11.059,3.027-11.059l-9.926-0.172
		c0,0-0.125,4.105-4.5,5.688V178.852z"/>
	
		<linearGradient id="SVGID_4_" gradientUnits="userSpaceOnUse" x1="-522.8364" y1="48.3862" x2="-534.8364" y2="48.3862" gradientTransform="matrix(0 -0.75 -0.75 0 105.2539 -207.8779)">
		<stop  offset="0" style="stop-color:#BAC0C1"/>
		<stop  offset="0.15" style="stop-color:#F4FAFC"/>
		<stop  offset="0.25" style="stop-color:#F8FCFD"/>
		<stop  offset="0.44" style="stop-color:#D5DBDD"/>
		<stop  offset="0.6" style="stop-color:#BDC3C4"/>
		<stop  offset="0.8" style="stop-color:#A0A4A6"/>
		<stop  offset="0.97" style="stop-color:#929697"/>
		<stop  offset="1" style="stop-color:#C2C7C9"/>
	</linearGradient>
	<path fill="url(#SVGID_4_)" d="M45.34,193.25v-9h47.25v9H45.34z"/>
	
		<linearGradient id="SVGID_5_" gradientUnits="userSpaceOnUse" x1="169.4888" y1="90.2886" x2="21.4888" y2="90.2886" gradientTransform="matrix(0.75 0 0 -0.75 33.9336 158.9072)">
		<stop  offset="0" style="stop-color:#BAC0C1"/>
		<stop  offset="0.15" style="stop-color:#F4FAFC"/>
		<stop  offset="0.25" style="stop-color:#F8FCFD"/>
		<stop  offset="0.44" style="stop-color:#D5DBDD"/>
		<stop  offset="0.6" style="stop-color:#BDC3C4"/>
		<stop  offset="0.8" style="stop-color:#A0A4A6"/>
		<stop  offset="0.97" style="stop-color:#929697"/>
		<stop  offset="1" style="stop-color:#C2C7C9"/>
	</linearGradient>
	<path fill="url(#SVGID_5_)" d="M50.051,33.066h111v116.25h-111V33.066z"/>
	
		<linearGradient id="SVGID_6_" gradientUnits="userSpaceOnUse" x1="169.4888" y1="130.291" x2="21.4888" y2="130.291" gradientTransform="matrix(0.75 0 0 -0.75 33.9336 275.0527)">
		<stop  offset="0" style="stop-color:#BAC0C1"/>
		<stop  offset="0.15" style="stop-color:#F4FAFC"/>
		<stop  offset="0.25" style="stop-color:#F8FCFD"/>
		<stop  offset="0.44" style="stop-color:#D5DBDD"/>
		<stop  offset="0.6" style="stop-color:#BDC3C4"/>
		<stop  offset="0.8" style="stop-color:#A0A4A6"/>
		<stop  offset="0.97" style="stop-color:#929697"/>
		<stop  offset="1" style="stop-color:#C2C7C9"/>
	</linearGradient>
	<path fill="url(#SVGID_6_)" d="M50.051,149.211h111l-50.25,56.25h-10.5L50.051,149.211z"/>
	
		<linearGradient id="SVGID_7_" gradientUnits="userSpaceOnUse" x1="35.4858" y1="159.791" x2="21.4858" y2="159.791" gradientTransform="matrix(0.75 0 0 -0.75 84.4048 331.5605)">
		<stop  offset="0" style="stop-color:#BAC0C1"/>
		<stop  offset="0.15" style="stop-color:#F4FAFC"/>
		<stop  offset="0.25" style="stop-color:#F8FCFD"/>
		<stop  offset="0.44" style="stop-color:#D5DBDD"/>
		<stop  offset="0.6" style="stop-color:#BDC3C4"/>
		<stop  offset="0.8" style="stop-color:#A0A4A6"/>
		<stop  offset="0.97" style="stop-color:#929697"/>
		<stop  offset="1" style="stop-color:#C2C7C9"/>
	</linearGradient>
	<path fill="url(#SVGID_7_)" d="M100.52,205.719h10.5v12h-10.5V205.719z"/>
	
		<linearGradient id="SVGID_8_" gradientUnits="userSpaceOnUse" x1="41.4897" y1="164.7314" x2="21.4897" y2="164.7314" gradientTransform="matrix(0.75 0 0 -0.75 82.0933 342.4648)">
		<stop  offset="0" style="stop-color:#BAC0C1"/>
		<stop  offset="0.15" style="stop-color:#F4FAFC"/>
		<stop  offset="0.25" style="stop-color:#F8FCFD"/>
		<stop  offset="0.44" style="stop-color:#D5DBDD"/>
		<stop  offset="0.6" style="stop-color:#BDC3C4"/>
		<stop  offset="0.8" style="stop-color:#A0A4A6"/>
		<stop  offset="0.97" style="stop-color:#929697"/>
		<stop  offset="1" style="stop-color:#C2C7C9"/>
	</linearGradient>
	<path fill="url(#SVGID_8_)" d="M98.961,216.625h13.5c0,0,0.578,0.234,0.578,0.527l0.172,3.223c0,0.75-0.406,0.836-0.699,0.836
		l-13.551-0.086c-0.75,0-0.75-0.152-0.75-0.441v-3.309c0-0.75,0.234-0.75,0.527-0.75H98.961z"/>
	
		<linearGradient id="SVGID_9_" gradientUnits="userSpaceOnUse" x1="178.4897" y1="163.7119" x2="21.4897" y2="163.7119" gradientTransform="matrix(0.75 0 0 -0.75 30.6948 152.9639)">
		<stop  offset="0" style="stop-color:#9AA7A8"/>
		<stop  offset="0.15" style="stop-color:#CDDCDE"/>
		<stop  offset="0.25" style="stop-color:#E3ECED"/>
		<stop  offset="0.44" style="stop-color:#B0BFC0"/>
		<stop  offset="0.6" style="stop-color:#9CAAAB"/>
		<stop  offset="0.8" style="stop-color:#838F90"/>
		<stop  offset="0.97" style="stop-color:#788284"/>
		<stop  offset="1" style="stop-color:#A0AEAF"/>
	</linearGradient>
	<path fill="url(#SVGID_9_)" d="M47.563,27.125h116.25c0.75,0,0.629,0.234,0.629,0.527l0.121,4.723c0,0.75-0.359,0.863-0.652,0.863
		L47.563,33.125c-0.75,0-0.75-0.125-0.75-0.414v-4.836c0-0.75,0.234-0.75,0.527-0.75H47.563z"/>
	
		<linearGradient id="SVGID_10_" gradientUnits="userSpaceOnUse" x1="44.4878" y1="148.7705" x2="21.4878" y2="148.7705" gradientTransform="matrix(0.75 0 0 -0.75 13.8838 148.8887)">
		<stop  offset="0" style="stop-color:#BAC0C1"/>
		<stop  offset="0.15" style="stop-color:#F4FAFC"/>
		<stop  offset="0.25" style="stop-color:#F8FCFD"/>
		<stop  offset="0.44" style="stop-color:#D5DBDD"/>
		<stop  offset="0.6" style="stop-color:#BDC3C4"/>
		<stop  offset="0.8" style="stop-color:#A0A4A6"/>
		<stop  offset="0.97" style="stop-color:#929697"/>
		<stop  offset="1" style="stop-color:#C2C7C9"/>
	</linearGradient>
	<path fill="url(#SVGID_10_)" d="M30.75,23.051H46.5c0,0,0.379,0.234,0.379,0.523l0.371,27.227c0,0.75-0.609,0.773-0.902,0.773
		L30.75,51.551c-0.75,0-0.75-0.211-0.75-0.5v-27.25c0-0.75,0.238-0.75,0.527-0.75H30.75z"/>
	
		<linearGradient id="SVGID_11_" gradientUnits="userSpaceOnUse" x1="33.4883" y1="82.2896" x2="21.4883" y2="82.2896" gradientTransform="matrix(0.75 0 0 -0.75 17.7197 177.416)">
		<stop  offset="0" style="stop-color:#BAC0C1"/>
		<stop  offset="0.15" style="stop-color:#F4FAFC"/>
		<stop  offset="0.25" style="stop-color:#F8FCFD"/>
		<stop  offset="0.44" style="stop-color:#D5DBDD"/>
		<stop  offset="0.6" style="stop-color:#BDC3C4"/>
		<stop  offset="0.8" style="stop-color:#A0A4A6"/>
		<stop  offset="0.97" style="stop-color:#929697"/>
		<stop  offset="1" style="stop-color:#C2C7C9"/>
	</linearGradient>
	<path fill="url(#SVGID_11_)" d="M33.836,51.574h9v128.25h-9V51.574z"/>
	
		<linearGradient id="SVGID_12_" gradientUnits="userSpaceOnUse" x1="-624.9302" y1="619.0098" x2="-601.3769" y2="632.6083" gradientTransform="matrix(-0.75 0 0 0.75 -419.1543 -283.7544)">
		<stop  offset="0" style="stop-color:#B9B9B9"/>
		<stop  offset="0.15" style="stop-color:#F2F2F2"/>
		<stop  offset="0.25" style="stop-color:#F3F3F3"/>
		<stop  offset="0.52" style="stop-color:#D0D0D0"/>
		<stop  offset="0.69" style="stop-color:#B9B9B9"/>
		<stop  offset="0.8" style="stop-color:#AFAFAF"/>
		<stop  offset="0.92" style="stop-color:#A5A5A5"/>
	</linearGradient>
	<path fill="url(#SVGID_12_)" d="M47.898,193.406c0,0-7.719-0.203-11.395-4.523c-3.605-4.477-3.031-11.055-3.031-11.055l9.926-0.172
		c0,0,0.125,4.102,4.5,5.684V193.406z"/>
	
		<linearGradient id="SVGID_13_" gradientUnits="userSpaceOnUse" x1="169.4888" y1="165.2871" x2="21.4888" y2="165.2871" gradientTransform="matrix(0.75 0 0 -0.75 33.9336 227.168)">
		<stop  offset="0" style="stop-color:#9AA7A8"/>
		<stop  offset="0.15" style="stop-color:#CDDCDE"/>
		<stop  offset="0.25" style="stop-color:#E3ECED"/>
		<stop  offset="0.44" style="stop-color:#B0BFC0"/>
		<stop  offset="0.6" style="stop-color:#9CAAAB"/>
		<stop  offset="0.8" style="stop-color:#838F90"/>
		<stop  offset="0.97" style="stop-color:#788284"/>
		<stop  offset="1" style="stop-color:#A0AEAF"/>
	</linearGradient>
	<path fill="url(#SVGID_13_)" d="M50.051,101.328h111v3.75h-111V101.328z"/>
	
		<linearGradient id="SVGID_14_" gradientUnits="userSpaceOnUse" x1="169.4888" y1="161.7871" x2="21.4888" y2="161.7871" gradientTransform="matrix(0.75 0 0 -0.75 33.9336 266.0859)">
		<stop  offset="0" style="stop-color:#9AA7A8"/>
		<stop  offset="0.15" style="stop-color:#CDDCDE"/>
		<stop  offset="0.25" style="stop-color:#E3ECED"/>
		<stop  offset="0.44" style="stop-color:#B0BFC0"/>
		<stop  offset="0.6" style="stop-color:#9CAAAB"/>
		<stop  offset="0.8" style="stop-color:#838F90"/>
		<stop  offset="0.97" style="stop-color:#788284"/>
		<stop  offset="1" style="stop-color:#A0AEAF"/>
	</linearGradient>
	<path fill="url(#SVGID_14_)" d="M50.051,140.246h111v9h-111V140.246z"/>
	
		<linearGradient id="SVGID_15_" gradientUnits="userSpaceOnUse" x1="29.4868" y1="110.2896" x2="21.4868" y2="110.2896" gradientTransform="matrix(0.75 0 0 -0.75 33.8296 269.2793)">
		<stop  offset="0" style="stop-color:#BAC0C1"/>
		<stop  offset="0.15" style="stop-color:#F4FAFC"/>
		<stop  offset="0.25" style="stop-color:#F8FCFD"/>
		<stop  offset="0.44" style="stop-color:#D5DBDD"/>
		<stop  offset="0.6" style="stop-color:#BDC3C4"/>
		<stop  offset="0.8" style="stop-color:#A0A4A6"/>
		<stop  offset="0.97" style="stop-color:#929697"/>
		<stop  offset="1" style="stop-color:#C2C7C9"/>
	</linearGradient>
	<path fill="url(#SVGID_15_)" d="M49.945,143.438h6v86.25h-6V143.438z"/>
	
		<linearGradient id="SVGID_16_" gradientUnits="userSpaceOnUse" x1="29.4888" y1="110.2896" x2="21.4888" y2="110.2896" gradientTransform="matrix(0.75 0 0 -0.75 139.1841 269.2793)">
		<stop  offset="0" style="stop-color:#BAC0C1"/>
		<stop  offset="0.15" style="stop-color:#F4FAFC"/>
		<stop  offset="0.25" style="stop-color:#F8FCFD"/>
		<stop  offset="0.44" style="stop-color:#D5DBDD"/>
		<stop  offset="0.6" style="stop-color:#BDC3C4"/>
		<stop  offset="0.8" style="stop-color:#A0A4A6"/>
		<stop  offset="0.97" style="stop-color:#929697"/>
		<stop  offset="1" style="stop-color:#C2C7C9"/>
	</linearGradient>
	<path fill="url(#SVGID_16_)" d="M155.301,143.438h6v86.25h-6V143.438z"/>
	
		<linearGradient id="SVGID_17_" gradientUnits="userSpaceOnUse" x1="29.4868" y1="110.2896" x2="21.4868" y2="110.2896" gradientTransform="matrix(0.75 0 0 -0.75 86.6108 269.2793)">
		<stop  offset="0" style="stop-color:#BAC0C1"/>
		<stop  offset="0.15" style="stop-color:#F4FAFC"/>
		<stop  offset="0.25" style="stop-color:#F8FCFD"/>
		<stop  offset="0.44" style="stop-color:#D5DBDD"/>
		<stop  offset="0.6" style="stop-color:#BDC3C4"/>
		<stop  offset="0.8" style="stop-color:#A0A4A6"/>
		<stop  offset="0.97" style="stop-color:#929697"/>
		<stop  offset="1" style="stop-color:#C2C7C9"/>
	</linearGradient>
	<path fill="url(#SVGID_17_)" d="M102.727,143.438h6v86.25h-6V143.438z"/>
	
		<linearGradient id="SVGID_18_" gradientUnits="userSpaceOnUse" x1="25.4883" y1="159.7881" x2="21.4883" y2="159.7881" gradientTransform="matrix(0.75 0 0 -0.75 71.1997 147.3604)">
		<stop  offset="0" style="stop-color:#9AA7A8"/>
		<stop  offset="0.15" style="stop-color:#CDDCDE"/>
		<stop  offset="0.25" style="stop-color:#E3ECED"/>
		<stop  offset="0.44" style="stop-color:#B0BFC0"/>
		<stop  offset="0.6" style="stop-color:#9CAAAB"/>
		<stop  offset="0.8" style="stop-color:#838F90"/>
		<stop  offset="0.97" style="stop-color:#788284"/>
		<stop  offset="1" style="stop-color:#A0AEAF"/>
	</linearGradient>
	<path fill="url(#SVGID_18_)" d="M87.316,21.52h3v12h-3V21.52z"/>
	
		<linearGradient id="SVGID_19_" gradientUnits="userSpaceOnUse" x1="25.4897" y1="159.7881" x2="21.4897" y2="159.7881" gradientTransform="matrix(0.75 0 0 -0.75 104.7495 147.3604)">
		<stop  offset="0" style="stop-color:#9AA7A8"/>
		<stop  offset="0.15" style="stop-color:#CDDCDE"/>
		<stop  offset="0.25" style="stop-color:#E3ECED"/>
		<stop  offset="0.44" style="stop-color:#B0BFC0"/>
		<stop  offset="0.6" style="stop-color:#9CAAAB"/>
		<stop  offset="0.8" style="stop-color:#838F90"/>
		<stop  offset="0.97" style="stop-color:#788284"/>
		<stop  offset="1" style="stop-color:#A0AEAF"/>
	</linearGradient>
	<path fill="url(#SVGID_19_)" d="M120.867,21.52h3v12h-3V21.52z"/>
	
		<linearGradient id="SVGID_20_" gradientUnits="userSpaceOnUse" x1="80.4863" y1="161.7979" x2="21.4863" y2="161.7979" gradientTransform="matrix(0.75 0 0 -0.75 67.5493 140.0381)">
		<stop  offset="0" style="stop-color:#B5B5B5"/>
		<stop  offset="0.03" style="stop-color:#FFFFFF"/>
		<stop  offset="0.08" style="stop-color:#EBEBEB"/>
		<stop  offset="0.64" style="stop-color:#E7E7E7"/>
		<stop  offset="0.95" style="stop-color:#E2E2E2"/>
		<stop  offset="1" style="stop-color:#A8A8A8"/>
	</linearGradient>
	<path fill="url(#SVGID_20_)" d="M84.414,14.199h42.75c0,0,0.422,0.223,0.422,0.512l0.328,7.738c0,0.75-0.605,0.703-0.895,0.703
		l-42.605,0.047c-0.75,0-0.75-0.285-0.75-0.574v-7.676c0-0.75,0.203-0.766,0.496-0.766L84.414,14.199z"/>
	
		<linearGradient id="SVGID_21_" gradientUnits="userSpaceOnUse" x1="35.4888" y1="166.2041" x2="21.4888" y2="166.2041" gradientTransform="matrix(0.75 0 0 -0.75 31.6133 354.1807)">
		<stop  offset="0" style="stop-color:#BAC0C1"/>
		<stop  offset="0.15" style="stop-color:#F4FAFC"/>
		<stop  offset="0.25" style="stop-color:#F8FCFD"/>
		<stop  offset="0.44" style="stop-color:#D5DBDD"/>
		<stop  offset="0.6" style="stop-color:#BDC3C4"/>
		<stop  offset="0.8" style="stop-color:#A0A4A6"/>
		<stop  offset="0.97" style="stop-color:#929697"/>
		<stop  offset="1" style="stop-color:#C2C7C9"/>
	</linearGradient>
	<path fill="url(#SVGID_21_)" d="M48.48,228.34h9c0,0,0.477,0.238,0.477,0.527l0.273,0.973c0,0.75-0.508,0.879-0.801,0.879
		l-8.949-0.129c-0.75,0-0.75-0.109-0.75-0.398v-1.102c0-0.75,0.234-0.75,0.527-0.75H48.48z"/>
	
		<linearGradient id="SVGID_22_" gradientUnits="userSpaceOnUse" x1="35.4888" y1="166.2041" x2="21.4888" y2="166.2041" gradientTransform="matrix(0.75 0 0 -0.75 84.3945 354.1807)">
		<stop  offset="0" style="stop-color:#BAC0C1"/>
		<stop  offset="0.15" style="stop-color:#F4FAFC"/>
		<stop  offset="0.25" style="stop-color:#F8FCFD"/>
		<stop  offset="0.44" style="stop-color:#D5DBDD"/>
		<stop  offset="0.6" style="stop-color:#BDC3C4"/>
		<stop  offset="0.8" style="stop-color:#A0A4A6"/>
		<stop  offset="0.97" style="stop-color:#929697"/>
		<stop  offset="1" style="stop-color:#C2C7C9"/>
	</linearGradient>
	<path fill="url(#SVGID_22_)" d="M101.262,228.34h9c0,0,0.477,0.238,0.477,0.527l0.273,0.973c0,0.75-0.508,0.879-0.801,0.879
		l-8.949-0.129c-0.75,0-0.75-0.109-0.75-0.398v-1.102c0-0.75,0.234-0.75,0.527-0.75H101.262z"/>
	
		<linearGradient id="SVGID_23_" gradientUnits="userSpaceOnUse" x1="35.4902" y1="166.2041" x2="21.4902" y2="166.2041" gradientTransform="matrix(0.75 0 0 -0.75 136.9683 354.1807)">
		<stop  offset="0" style="stop-color:#BAC0C1"/>
		<stop  offset="0.15" style="stop-color:#F4FAFC"/>
		<stop  offset="0.25" style="stop-color:#F8FCFD"/>
		<stop  offset="0.44" style="stop-color:#D5DBDD"/>
		<stop  offset="0.6" style="stop-color:#BDC3C4"/>
		<stop  offset="0.8" style="stop-color:#A0A4A6"/>
		<stop  offset="0.97" style="stop-color:#929697"/>
		<stop  offset="1" style="stop-color:#C2C7C9"/>
	</linearGradient>
	<path fill="url(#SVGID_23_)" d="M153.836,228.34h9c0,0,0.477,0.238,0.477,0.527l0.273,0.973c0,0.75-0.508,0.879-0.801,0.879
		l-8.949-0.129c-0.75,0-0.75-0.109-0.75-0.398v-1.102c0-0.75,0.234-0.75,0.527-0.75H153.836z"/>
	
		<linearGradient id="SVGID_24_" gradientUnits="userSpaceOnUse" x1="-604.7388" y1="167.7871" x2="-604.7388" y2="153.7871" gradientTransform="matrix(-0.75 0 0 -0.75 -227.7383 339.3594)">
		<stop  offset="0" style="stop-color:#BAC0C1"/>
		<stop  offset="0.15" style="stop-color:#F4FAFC"/>
		<stop  offset="0.25" style="stop-color:#F8FCFD"/>
		<stop  offset="0.44" style="stop-color:#D5DBDD"/>
		<stop  offset="0.6" style="stop-color:#BDC3C4"/>
		<stop  offset="0.8" style="stop-color:#A0A4A6"/>
		<stop  offset="0.97" style="stop-color:#929697"/>
		<stop  offset="1" style="stop-color:#C2C7C9"/>
	</linearGradient>
	<path fill="url(#SVGID_24_)" d="M239.316,213.52h-27v10.5h27V213.52z"/>
	
		<linearGradient id="SVGID_25_" gradientUnits="userSpaceOnUse" x1="-619.7134" y1="167.8984" x2="-619.7134" y2="146.3105" gradientTransform="matrix(-0.75 0 0 -0.75 -254.6191 336.5605)">
		<stop  offset="0" style="stop-color:#BAC0C1"/>
		<stop  offset="0.15" style="stop-color:#F4FAFC"/>
		<stop  offset="0.25" style="stop-color:#F8FCFD"/>
		<stop  offset="0.44" style="stop-color:#D5DBDD"/>
		<stop  offset="0.6" style="stop-color:#BDC3C4"/>
		<stop  offset="0.8" style="stop-color:#A0A4A6"/>
		<stop  offset="0.97" style="stop-color:#929697"/>
		<stop  offset="1" style="stop-color:#C2C7C9"/>
	</linearGradient>
	<path fill="url(#SVGID_25_)" d="M211.684,210.719h-3c-0.75,0-0.785,0.246-0.785,0.648l0.035,15.102c0,0,0.293,0.359,0.699,0.359
		l3.051-0.359c0.75,0,0.75,0.031,0.75-0.371v-14.629c0-0.75-0.32-0.832-0.727-0.832L211.684,210.719z"/>
	
		<linearGradient id="SVGID_26_" gradientUnits="userSpaceOnUse" x1="39.4858" y1="167.7871" x2="39.4858" y2="153.7871" gradientTransform="matrix(0.75 0 0 -0.75 250.8149 339.3594)">
		<stop  offset="0" style="stop-color:#BAC0C1"/>
		<stop  offset="0.15" style="stop-color:#F4FAFC"/>
		<stop  offset="0.25" style="stop-color:#F8FCFD"/>
		<stop  offset="0.44" style="stop-color:#D5DBDD"/>
		<stop  offset="0.6" style="stop-color:#BDC3C4"/>
		<stop  offset="0.8" style="stop-color:#A0A4A6"/>
		<stop  offset="0.97" style="stop-color:#929697"/>
		<stop  offset="1" style="stop-color:#C2C7C9"/>
	</linearGradient>
	<path fill="url(#SVGID_26_)" d="M266.93,213.52h27v10.5h-27V213.52z"/>
	
		<linearGradient id="SVGID_27_" gradientUnits="userSpaceOnUse" x1="24.5127" y1="167.8984" x2="24.5127" y2="146.3105" gradientTransform="matrix(0.75 0 0 -0.75 277.6953 336.5605)">
		<stop  offset="0" style="stop-color:#BAC0C1"/>
		<stop  offset="0.15" style="stop-color:#F4FAFC"/>
		<stop  offset="0.25" style="stop-color:#F8FCFD"/>
		<stop  offset="0.44" style="stop-color:#D5DBDD"/>
		<stop  offset="0.6" style="stop-color:#BDC3C4"/>
		<stop  offset="0.8" style="stop-color:#A0A4A6"/>
		<stop  offset="0.97" style="stop-color:#929697"/>
		<stop  offset="1" style="stop-color:#C2C7C9"/>
	</linearGradient>
	<path fill="url(#SVGID_27_)" d="M294.563,210.719h3c0.75,0,0.785,0.246,0.785,0.648l-0.035,15.102c0,0-0.293,0.359-0.699,0.359
		l-3.051-0.359c-0.75,0-0.75,0.031-0.75-0.371v-14.629c0-0.75,0.32-0.832,0.727-0.832L294.563,210.719z"/>
	
		<linearGradient id="SVGID_28_" gradientUnits="userSpaceOnUse" x1="95.4888" y1="155.7852" x2="21.4888" y2="155.7852" gradientTransform="matrix(0.75 0 0 -0.75 209.3398 336.4785)">
		<stop  offset="0" style="stop-color:#BAC0C1"/>
		<stop  offset="0.15" style="stop-color:#F4FAFC"/>
		<stop  offset="0.25" style="stop-color:#F8FCFD"/>
		<stop  offset="0.44" style="stop-color:#D5DBDD"/>
		<stop  offset="0.6" style="stop-color:#BDC3C4"/>
		<stop  offset="0.8" style="stop-color:#A0A4A6"/>
		<stop  offset="0.97" style="stop-color:#929697"/>
		<stop  offset="1" style="stop-color:#C2C7C9"/>
	</linearGradient>
	<path fill="url(#SVGID_28_)" d="M225.457,210.641h55.5v18h-55.5V210.641z"/>
	
		<linearGradient id="SVGID_29_" gradientUnits="userSpaceOnUse" x1="221.4854" y1="156.291" x2="21.4858" y2="156.291" gradientTransform="matrix(0.75 0 0 -0.75 162.061 241.4316)">
		<stop  offset="0" style="stop-color:#B5BDC0"/>
		<stop  offset="0.15" style="stop-color:#EDF7FA"/>
		<stop  offset="0.25" style="stop-color:#F5FBFC"/>
		<stop  offset="0.44" style="stop-color:#CFD8DB"/>
		<stop  offset="0.6" style="stop-color:#B8C0C3"/>
		<stop  offset="0.8" style="stop-color:#9BA2A4"/>
		<stop  offset="0.97" style="stop-color:#8D9496"/>
	</linearGradient>
	<path fill="url(#SVGID_29_)" d="M178.176,115.59h150v17.25h-150V115.59z"/>
	
		<linearGradient id="SVGID_30_" gradientUnits="userSpaceOnUse" x1="221.4863" y1="115.7866" x2="21.4863" y2="115.7866" gradientTransform="matrix(0.75 0 0 -0.75 162.0605 258.6328)">
		<stop  offset="0" style="stop-color:#BAC0C1"/>
		<stop  offset="0.15" style="stop-color:#F4FAFC"/>
		<stop  offset="0.25" style="stop-color:#F8FCFD"/>
		<stop  offset="0.44" style="stop-color:#D5DBDD"/>
		<stop  offset="0.6" style="stop-color:#BDC3C4"/>
		<stop  offset="0.8" style="stop-color:#A0A4A6"/>
		<stop  offset="0.97" style="stop-color:#929697"/>
	</linearGradient>
	<path fill="url(#SVGID_30_)" d="M178.176,132.793h150l-47.25,78h-55.5L178.176,132.793z"/>
	
		<linearGradient id="SVGID_31_" gradientUnits="userSpaceOnUse" x1="224.4863" y1="162.7627" x2="21.4863" y2="162.7627" gradientTransform="matrix(0.75 0 0 -0.75 160.9629 233.8154)">
		<stop  offset="0" style="stop-color:#BAC0C1"/>
		<stop  offset="0.15" style="stop-color:#F4FAFC"/>
		<stop  offset="0.25" style="stop-color:#F8FCFD"/>
		<stop  offset="0.44" style="stop-color:#D5DBDD"/>
		<stop  offset="0.6" style="stop-color:#BDC3C4"/>
		<stop  offset="0.8" style="stop-color:#A0A4A6"/>
		<stop  offset="0.97" style="stop-color:#929697"/>
		<stop  offset="1" style="stop-color:#C2C7C9"/>
	</linearGradient>
	<path fill="url(#SVGID_31_)" d="M177.828,107.977h150.75c0,0,0.652,0.27,0.652,0.699l0.098,6.051c0,0.75-0.434,0.859-0.836,0.859
		l-150.664-0.109c-0.75,0-0.75-0.234-0.75-0.664v-6.086c0-0.75,0.301-0.824,0.703-0.824L177.828,107.977z"/>
	
		<linearGradient id="SVGID_32_" gradientUnits="userSpaceOnUse" x1="221.4863" y1="166.291" x2="21.4863" y2="166.291" gradientTransform="matrix(0.75 0 0 -0.75 162.0605 241.4316)">
		<stop  offset="0" style="stop-color:#9AA7A8"/>
		<stop  offset="0.15" style="stop-color:#CDDCDE"/>
		<stop  offset="0.25" style="stop-color:#E3ECED"/>
		<stop  offset="0.44" style="stop-color:#B0BFC0"/>
		<stop  offset="0.6" style="stop-color:#9CAAAB"/>
		<stop  offset="0.8" style="stop-color:#838F90"/>
		<stop  offset="0.97" style="stop-color:#788284"/>
		<stop  offset="1" style="stop-color:#A0AEAF"/>
	</linearGradient>
	<path fill="url(#SVGID_32_)" d="M178.176,115.59h150v2.25h-150V115.59z"/>
</g>
</svg>
