<?xml version="1.0" encoding="utf-8"?>
<!-- Generator: Adobe Illustrator 16.0.0, SVG Export Plug-In . SVG Version: 6.00 Build 0)  -->
<!DOCTYPE svg PUBLIC "-//W3C//DTD SVG 1.1//EN" "http://www.w3.org/Graphics/SVG/1.1/DTD/svg11.dtd">
<svg preserveAspectRatio="none" version="1.1" id="图层_1" xmlns="http://www.w3.org/2000/svg" xmlns:xlink="http://www.w3.org/1999/xlink" x="0px" y="0px"
	 width="340.008px" height="125.371px" viewBox="29.938 78.77 340.008 125.371"
	 enable-background="new 29.938 78.77 340.008 125.371" xml:space="preserve">
<g id="surface671">
	
		<linearGradient id="SVGID_1_" gradientUnits="userSpaceOnUse" x1="42.6138" y1="213.2871" x2="42.6138" y2="163.2871" gradientTransform="matrix(0.75 0 0 -0.75 313.0322 306.4893)">
		<stop  offset="0" style="stop-color:#B3A593"/>
		<stop  offset="0.01" style="stop-color:#FDEEDA"/>
		<stop  offset="0.03" style="stop-color:#E9D7BF"/>
		<stop  offset="0.64" style="stop-color:#E5D3BC"/>
		<stop  offset="0.99" style="stop-color:#E0CEB8"/>
		<stop  offset="1" style="stop-color:#A69988"/>
	</linearGradient>
	<path fill="url(#SVGID_1_)" d="M326.242,146.523h37.5c0.75,0,1.918,0.852,1.918,1.906l0.332,35.594h-42v-35.25
		c0-1.5,0.813-2.25,1.875-2.25H326.242z"/>
	
		<linearGradient id="SVGID_2_" gradientUnits="userSpaceOnUse" x1="38.6128" y1="203.29" x2="14.6128" y2="203.29" gradientTransform="matrix(0.75 0 0 -0.75 336.7471 328.627)">
		<stop  offset="0" style="stop-color:#3D3B3B"/>
		<stop  offset="0.01" style="stop-color:#908F8F"/>
		<stop  offset="0.03" style="stop-color:#514F4F"/>
		<stop  offset="0.64" style="stop-color:#504E4E"/>
		<stop  offset="0.99" style="stop-color:#4E4C4C"/>
		<stop  offset="1" style="stop-color:#383636"/>
	</linearGradient>
	<path fill="url(#SVGID_2_)" d="M365.707,168.66v15h-18L365.707,168.66z"/>
	
		<linearGradient id="SVGID_3_" gradientUnits="userSpaceOnUse" x1="28.1143" y1="213.2871" x2="28.1143" y2="204.2871" gradientTransform="matrix(0.75 0 0 -0.75 170.7148 260.9219)">
		<stop  offset="0" style="stop-color:#316F82"/>
		<stop  offset="0.01" style="stop-color:#8AB8CA"/>
		<stop  offset="0.03" style="stop-color:#4292AA"/>
		<stop  offset="0.64" style="stop-color:#4190A7"/>
		<stop  offset="0.99" style="stop-color:#408CA3"/>
		<stop  offset="1" style="stop-color:#2D6778"/>
	</linearGradient>
	<path fill="url(#SVGID_3_)" d="M181.676,100.957h20.25v6.75h-20.25V100.957z"/>
	
		<linearGradient id="SVGID_4_" gradientUnits="userSpaceOnUse" x1="123.1147" y1="213.2891" x2="123.1147" y2="171.2891" gradientTransform="matrix(0.75 0 0 -0.75 133.8438 312.9189)">
		<stop  offset="0" style="stop-color:#B3A593"/>
		<stop  offset="0.01" style="stop-color:#FDEEDA"/>
		<stop  offset="0.03" style="stop-color:#E9D7BF"/>
		<stop  offset="0.64" style="stop-color:#E5D3BC"/>
		<stop  offset="0.99" style="stop-color:#E0CEB8"/>
		<stop  offset="1" style="stop-color:#A69988"/>
	</linearGradient>
	<path fill="url(#SVGID_4_)" d="M144.805,184.453h162.75v-31.5h-162.75V184.453z"/>
	
		<linearGradient id="SVGID_5_" gradientUnits="userSpaceOnUse" x1="105.6152" y1="213.2881" x2="105.6152" y2="191.2881" gradientTransform="matrix(0.75 0 0 -0.75 197.0073 286.1846)">
		<stop  offset="0" style="stop-color:#BDBDBD"/>
		<stop  offset="0.15" style="stop-color:#FFFFFF"/>
		<stop  offset="0.25" style="stop-color:#FFFFFF"/>
		<stop  offset="0.52" style="stop-color:#DFDFDF"/>
		<stop  offset="0.69" style="stop-color:#C7C7C7"/>
		<stop  offset="0.8" style="stop-color:#BCBCBC"/>
		<stop  offset="0.92" style="stop-color:#B1B1B1"/>
		<stop  offset="1" style="stop-color:#CBCBCB"/>
	</linearGradient>
	<path fill="url(#SVGID_5_)" d="M207.969,142.719h136.5v-16.5h-136.5V142.719z"/>
	
		<linearGradient id="SVGID_6_" gradientUnits="userSpaceOnUse" x1="467.6123" y1="199.7861" x2="14.6123" y2="199.7861" gradientTransform="matrix(0.75 0 0 -0.75 19.2354 343.8535)">
		<stop  offset="0" style="stop-color:#B5B5B5"/>
		<stop  offset="0.01" style="stop-color:#FFFFFF"/>
		<stop  offset="0.03" style="stop-color:#EBEBEB"/>
		<stop  offset="0.64" style="stop-color:#E7E7E7"/>
		<stop  offset="0.99" style="stop-color:#E2E2E2"/>
		<stop  offset="1" style="stop-color:#A8A8A8"/>
	</linearGradient>
	<path fill="url(#SVGID_6_)" d="M30.195,183.891h339.75v20.25H30.195V183.891z"/>
	
		<linearGradient id="SVGID_7_" gradientUnits="userSpaceOnUse" x1="-542.1108" y1="213.2861" x2="-542.1108" y2="131.2861" gradientTransform="matrix(-0.75 0 0 -0.75 -227.6621 267.3164)">
		<stop  offset="0" style="stop-color:#BDBDBD"/>
		<stop  offset="0.15" style="stop-color:#FFFFFF"/>
		<stop  offset="0.25" style="stop-color:#FFFFFF"/>
		<stop  offset="0.52" style="stop-color:#DFDFDF"/>
		<stop  offset="0.69" style="stop-color:#C7C7C7"/>
		<stop  offset="0.8" style="stop-color:#BCBCBC"/>
		<stop  offset="0.92" style="stop-color:#B1B1B1"/>
		<stop  offset="1" style="stop-color:#CBCBCB"/>
	</linearGradient>
	<path fill="url(#SVGID_7_)" d="M203.297,107.352h-48.75v61.5h48.75V107.352z"/>
	
		<linearGradient id="SVGID_8_" gradientUnits="userSpaceOnUse" x1="-569.6382" y1="213.2871" x2="-569.6382" y2="119.5562" gradientTransform="matrix(-0.75 0 0 -0.75 -222.2813 262.918)">
		<stop  offset="0" style="stop-color:#B0B0B0"/>
		<stop  offset="0.15" style="stop-color:#EFEFEF"/>
		<stop  offset="0.25" style="stop-color:#F6F6F6"/>
		<stop  offset="0.52" style="stop-color:#D0D0D0"/>
		<stop  offset="0.69" style="stop-color:#B9B9B9"/>
		<stop  offset="0.8" style="stop-color:#AFAFAF"/>
		<stop  offset="0.92" style="stop-color:#A5A5A5"/>
		<stop  offset="1" style="stop-color:#BEBEBE"/>
	</linearGradient>
	<path fill="url(#SVGID_8_)" d="M204.93,102.953c-2.25,0-3.629,2.129-3.629,4.758l-0.121,60.492c0,3,1.781,5.035,3.828,5.035
		c2.172,0.215,3.707-2.141,3.707-4.77l-0.035-61.016c0-2.25-1.625-4.5-3.672-4.5H204.93z"/>
	
		<linearGradient id="SVGID_9_" gradientUnits="userSpaceOnUse" x1="-496.8618" y1="213.2852" x2="-496.8618" y2="111.8677" gradientTransform="matrix(-0.75 0 0 -0.75 -284.3975 260.0293)">
		<stop  offset="0" style="stop-color:#1C85A1"/>
		<stop  offset="0.09" style="stop-color:#1D87A3"/>
		<stop  offset="0.36" style="stop-color:#85C0D7"/>
		<stop  offset="0.56" style="stop-color:#2196B5"/>
		<stop  offset="0.83" style="stop-color:#187891"/>
		<stop  offset="1" style="stop-color:#0E5567"/>
	</linearGradient>
	<path fill="url(#SVGID_9_)" d="M146.563,100.066h-108c0,0-8.625,2.25-8.625,39.461c0.375,37.039,8.285,36.602,8.285,36.602
		l108.34-0.313V100.066z"/>
	
		<linearGradient id="SVGID_10_" gradientUnits="userSpaceOnUse" x1="-568.5552" y1="213.2861" x2="-568.5552" y2="102.958" gradientTransform="matrix(-0.75 0 0 -0.75 -276.0049 256.6875)">
		<stop  offset="0" style="stop-color:#1C85A1"/>
		<stop  offset="0.09" style="stop-color:#1D87A3"/>
		<stop  offset="0.36" style="stop-color:#85C0D7"/>
		<stop  offset="0.56" style="stop-color:#2196B5"/>
		<stop  offset="0.83" style="stop-color:#187891"/>
		<stop  offset="1" style="stop-color:#0E5567"/>
	</linearGradient>
	<path fill="url(#SVGID_10_)" d="M150.457,96.723c-2.25,0-4.605,2.609-4.605,5.844l0.105,70.656c0,3.75,1.934,6.246,4.453,6.246
		c2.297-0.246,4.563-2.668,4.563-5.898l-0.016-70.848c0-3.75-2.027-6-4.547-6H150.457z"/>
	
		<linearGradient id="SVGID_11_" gradientUnits="userSpaceOnUse" x1="-531.5205" y1="213.3457" x2="-531.5205" y2="207.0742" gradientTransform="matrix(-0.75 0 0 -0.75 -295.085 279.2822)">
		<stop  offset="0" style="stop-color:#1C85A1"/>
		<stop  offset="0.09" style="stop-color:#1D87A3"/>
		<stop  offset="0.36" style="stop-color:#85C0D7"/>
		<stop  offset="0.56" style="stop-color:#2196B5"/>
		<stop  offset="0.83" style="stop-color:#187891"/>
		<stop  offset="1" style="stop-color:#0E5567"/>
	</linearGradient>
	<path fill="url(#SVGID_11_)" d="M135.125,119.316h-63c-0.75,0-0.887,0.609-0.887,1.418l0.137,1.582c0,0.75,0.141,1.66,0.48,1.66
		l63.27-0.16c0.75,0,0.75-0.492,0.75-1.305v-1.695c0-0.75-0.258-1.543-0.598-1.543L135.125,119.316z"/>
	
		<linearGradient id="SVGID_12_" gradientUnits="userSpaceOnUse" x1="-531.5205" y1="213.3496" x2="-531.5205" y2="207.0732" gradientTransform="matrix(-0.75 0 0 -0.75 -295.085 268.3164)">
		<stop  offset="0" style="stop-color:#1C85A1"/>
		<stop  offset="0.09" style="stop-color:#1D87A3"/>
		<stop  offset="0.36" style="stop-color:#85C0D7"/>
		<stop  offset="0.56" style="stop-color:#2196B5"/>
		<stop  offset="0.83" style="stop-color:#187891"/>
		<stop  offset="1" style="stop-color:#0E5567"/>
	</linearGradient>
	<path fill="url(#SVGID_12_)" d="M135.125,108.352h-63c-0.75,0-0.887,0.609-0.887,1.418l0.137,1.582c0,0.75,0.141,1.66,0.48,1.66
		l63.27-0.16c0.75,0,0.75-0.496,0.75-1.305v-1.695c0-0.75-0.258-1.547-0.598-1.547L135.125,108.352z"/>
	
		<linearGradient id="SVGID_13_" gradientUnits="userSpaceOnUse" x1="-531.5205" y1="213.3467" x2="-531.5205" y2="207.0703" gradientTransform="matrix(-0.75 0 0 -0.75 -295.085 290.248)">
		<stop  offset="0" style="stop-color:#1C85A1"/>
		<stop  offset="0.09" style="stop-color:#1D87A3"/>
		<stop  offset="0.36" style="stop-color:#85C0D7"/>
		<stop  offset="0.56" style="stop-color:#2196B5"/>
		<stop  offset="0.83" style="stop-color:#187891"/>
		<stop  offset="1" style="stop-color:#0E5567"/>
	</linearGradient>
	<path fill="url(#SVGID_13_)" d="M135.125,130.285h-63c-0.75,0-0.887,0.609-0.887,1.418l0.137,1.582c0,0.75,0.141,1.66,0.48,1.66
		l63.27-0.16c0.75,0,0.75-0.496,0.75-1.305v-1.695c0-0.75-0.258-1.547-0.598-1.547L135.125,130.285z"/>
	
		<linearGradient id="SVGID_14_" gradientUnits="userSpaceOnUse" x1="-531.5205" y1="213.3477" x2="-531.5205" y2="207.0723" gradientTransform="matrix(-0.75 0 0 -0.75 -295.085 301.2139)">
		<stop  offset="0" style="stop-color:#1C85A1"/>
		<stop  offset="0.09" style="stop-color:#1D87A3"/>
		<stop  offset="0.36" style="stop-color:#85C0D7"/>
		<stop  offset="0.56" style="stop-color:#2196B5"/>
		<stop  offset="0.83" style="stop-color:#187891"/>
		<stop  offset="1" style="stop-color:#0E5567"/>
	</linearGradient>
	<path fill="url(#SVGID_14_)" d="M135.125,141.25h-63c-0.75,0-0.887,0.609-0.887,1.418l0.137,1.582c0,0.75,0.141,1.66,0.48,1.66
		l63.27-0.16c0.75,0,0.75-0.496,0.75-1.305v-1.695c0-0.75-0.258-1.547-0.598-1.547L135.125,141.25z"/>
	
		<linearGradient id="SVGID_15_" gradientUnits="userSpaceOnUse" x1="-531.5205" y1="213.3496" x2="-531.5205" y2="207.0732" gradientTransform="matrix(-0.75 0 0 -0.75 -295.085 312.1797)">
		<stop  offset="0" style="stop-color:#1C85A1"/>
		<stop  offset="0.09" style="stop-color:#1D87A3"/>
		<stop  offset="0.36" style="stop-color:#85C0D7"/>
		<stop  offset="0.56" style="stop-color:#2196B5"/>
		<stop  offset="0.83" style="stop-color:#187891"/>
		<stop  offset="1" style="stop-color:#0E5567"/>
	</linearGradient>
	<path fill="url(#SVGID_15_)" d="M135.125,152.215h-63c-0.75,0-0.887,0.609-0.887,1.418l0.137,1.582c0,0.75,0.141,1.66,0.48,1.66
		l63.27-0.16c0.75,0,0.75-0.496,0.75-1.305v-1.695c0-0.75-0.258-1.547-0.598-1.547L135.125,152.215z"/>
	
		<linearGradient id="SVGID_16_" gradientUnits="userSpaceOnUse" x1="-531.5205" y1="213.3486" x2="-531.5205" y2="207.0723" gradientTransform="matrix(-0.75 0 0 -0.75 -295.085 323.1445)">
		<stop  offset="0" style="stop-color:#1C85A1"/>
		<stop  offset="0.09" style="stop-color:#1D87A3"/>
		<stop  offset="0.36" style="stop-color:#85C0D7"/>
		<stop  offset="0.56" style="stop-color:#2196B5"/>
		<stop  offset="0.83" style="stop-color:#187891"/>
		<stop  offset="1" style="stop-color:#0E5567"/>
	</linearGradient>
	<path fill="url(#SVGID_16_)" d="M135.125,163.18h-63c-0.75,0-0.887,0.609-0.887,1.418l0.137,1.582c0,0.75,0.141,1.66,0.48,1.66
		l63.27-0.16c0.75,0,0.75-0.496,0.75-1.305v-1.695c0-0.75-0.258-1.547-0.598-1.547L135.125,163.18z"/>
	
		<linearGradient id="SVGID_17_" gradientUnits="userSpaceOnUse" x1="82.1108" y1="213.2852" x2="82.1108" y2="200.2852" gradientTransform="matrix(0.75 0 0 -0.75 32.8389 334.1318)">
		<stop  offset="0" style="stop-color:#316F82"/>
		<stop  offset="0.01" style="stop-color:#8AB8CA"/>
		<stop  offset="0.03" style="stop-color:#4292AA"/>
		<stop  offset="0.64" style="stop-color:#4190A7"/>
		<stop  offset="0.99" style="stop-color:#408CA3"/>
		<stop  offset="1" style="stop-color:#2D6778"/>
	</linearGradient>
	<path fill="url(#SVGID_17_)" d="M43.797,174.168h101.25v9.75H43.797V174.168z"/>
	
		<linearGradient id="SVGID_18_" gradientUnits="userSpaceOnUse" x1="28.6118" y1="163.791" x2="14.6118" y2="163.791" gradientTransform="matrix(0.75 0 0 -0.75 296.9707 269.3926)">
		<stop  offset="0" style="stop-color:#316F82"/>
		<stop  offset="0.01" style="stop-color:#8AB8CA"/>
		<stop  offset="0.03" style="stop-color:#4292AA"/>
		<stop  offset="0.64" style="stop-color:#4190A7"/>
		<stop  offset="0.99" style="stop-color:#408CA3"/>
		<stop  offset="1" style="stop-color:#2D6778"/>
	</linearGradient>
	<path fill="url(#SVGID_18_)" d="M307.93,183.676h10.5v-74.25h-10.5V183.676z"/>
	
		<linearGradient id="SVGID_19_" gradientUnits="userSpaceOnUse" x1="24.6147" y1="158.2871" x2="14.6147" y2="158.2871" gradientTransform="matrix(0.75 0 0 -0.75 307.5854 261.3633)">
		<stop  offset="0" style="stop-color:#316F82"/>
		<stop  offset="0.01" style="stop-color:#8AB8CA"/>
		<stop  offset="0.03" style="stop-color:#4292AA"/>
		<stop  offset="0.64" style="stop-color:#4190A7"/>
		<stop  offset="0.99" style="stop-color:#408CA3"/>
		<stop  offset="1" style="stop-color:#2D6778"/>
	</linearGradient>
	<path fill="url(#SVGID_19_)" d="M318.547,101.398h7.5v82.5h-7.5V101.398z"/>
	
		<linearGradient id="SVGID_20_" gradientUnits="userSpaceOnUse" x1="68.6123" y1="188.2871" x2="14.6123" y2="188.2871" gradientTransform="matrix(0.75 0 0 -0.75 256.189 275.7998)">
		<stop  offset="0" style="stop-color:#B5B5B5"/>
		<stop  offset="0.01" style="stop-color:#FFFFFF"/>
		<stop  offset="0.03" style="stop-color:#EBEBEB"/>
		<stop  offset="0.64" style="stop-color:#E7E7E7"/>
		<stop  offset="0.99" style="stop-color:#E2E2E2"/>
		<stop  offset="1" style="stop-color:#A8A8A8"/>
	</linearGradient>
	<path fill="url(#SVGID_20_)" d="M267.148,153.336h40.5v-37.5h-40.5V153.336z"/>
	
		<linearGradient id="SVGID_21_" gradientUnits="userSpaceOnUse" x1="210.8242" y1="198.2568" x2="14.6104" y2="198.2568" gradientTransform="matrix(0.75 0 0 -0.75 169.2251 238.7363)">
		<stop  offset="0" style="stop-color:#316F82"/>
		<stop  offset="0.01" style="stop-color:#8AB8CA"/>
		<stop  offset="0.03" style="stop-color:#4292AA"/>
		<stop  offset="0.64" style="stop-color:#4190A7"/>
		<stop  offset="0.99" style="stop-color:#408CA3"/>
		<stop  offset="1" style="stop-color:#2D6778"/>
	</linearGradient>
	<path fill="url(#SVGID_21_)" d="M182.434,78.77h142.5c1.5,0,2.41,0.914,2.41,2.043l-0.16,18.207c0,1.5-0.82,2.301-1.961,2.301
		l-142.789-0.051c-1.5,0-2.25-0.863-2.25-1.992V81.02c0-1.5,0.871-2.25,2.012-2.25H182.434z"/>
	
		<linearGradient id="SVGID_22_" gradientUnits="userSpaceOnUse" x1="18.8042" y1="213.2861" x2="18.8042" y2="179.9268" gradientTransform="matrix(0.75 0 0 -0.75 333.4927 282.3047)">
		<stop  offset="0" style="stop-color:#9E9A9A"/>
		<stop  offset="0.15" style="stop-color:#D9D3D4"/>
		<stop  offset="0.25" style="stop-color:#EAE7E7"/>
		<stop  offset="0.52" style="stop-color:#BBB6B7"/>
		<stop  offset="0.69" style="stop-color:#A6A2A2"/>
		<stop  offset="0.8" style="stop-color:#9D9899"/>
		<stop  offset="0.92" style="stop-color:#949090"/>
		<stop  offset="1" style="stop-color:#AAA5A6"/>
	</linearGradient>
	<path fill="url(#SVGID_22_)" d="M345.953,122.34h3c0.75,0,1.809,0.77,1.809,1.742l-0.309,21.508c0,0.75-0.492,1.77-1.48,1.77
		l-3.02-0.27c-0.75,0-1.523-0.523-1.523-1.5l0.023-21.75c0-0.75,0.777-1.5,1.766-1.5H345.953z"/>
	
		<linearGradient id="SVGID_23_" gradientUnits="userSpaceOnUse" x1="-550.6128" y1="203.29" x2="-574.6128" y2="203.29" gradientTransform="matrix(-0.75 0 0 -0.75 -86.7598 328.627)">
		<stop  offset="0" style="stop-color:#3D3B3B"/>
		<stop  offset="0.01" style="stop-color:#908F8F"/>
		<stop  offset="0.03" style="stop-color:#514F4F"/>
		<stop  offset="0.64" style="stop-color:#504E4E"/>
		<stop  offset="0.99" style="stop-color:#4E4C4C"/>
		<stop  offset="1" style="stop-color:#383636"/>
	</linearGradient>
	<path fill="url(#SVGID_23_)" d="M326.199,168.66v15h18L326.199,168.66z"/>
	
		<linearGradient id="SVGID_24_" gradientUnits="userSpaceOnUse" x1="21.6113" y1="213.2861" x2="21.6113" y2="172.2861" gradientTransform="matrix(0.75 0 0 -0.75 197.6431 278.9756)">
		<stop  offset="0" style="stop-color:#BDBDBD"/>
		<stop  offset="0.15" style="stop-color:#FFFFFF"/>
		<stop  offset="0.25" style="stop-color:#FFFFFF"/>
		<stop  offset="0.52" style="stop-color:#DFDFDF"/>
		<stop  offset="0.69" style="stop-color:#C7C7C7"/>
		<stop  offset="0.8" style="stop-color:#BCBCBC"/>
		<stop  offset="0.92" style="stop-color:#B1B1B1"/>
		<stop  offset="1" style="stop-color:#CBCBCB"/>
	</linearGradient>
	<path fill="url(#SVGID_24_)" d="M208.602,149.762h10.5v-30.75h-10.5V149.762z"/>
</g>
</svg>
