<?xml version="1.0" encoding="utf-8"?>
<!-- Generator: Adobe Illustrator 16.0.0, SVG Export Plug-In . SVG Version: 6.00 Build 0)  -->
<!DOCTYPE svg PUBLIC "-//W3C//DTD SVG 1.1//EN" "http://www.w3.org/Graphics/SVG/1.1/DTD/svg11.dtd">
<svg preserveAspectRatio="none" version="1.1" id="图层_1" xmlns="http://www.w3.org/2000/svg" xmlns:xlink="http://www.w3.org/1999/xlink" x="0px" y="0px"
	 width="340.506px" height="148.516px" viewBox="30 67.281 340.506 148.516" enable-background="new 30 67.281 340.506 148.516"
	 xml:space="preserve">
<g id="surface996">
	
		<linearGradient id="SVGID_1_" gradientUnits="userSpaceOnUse" x1="25.6128" y1="196.2881" x2="14.6128" y2="196.2881" gradientTransform="matrix(0.75 0 0 -0.75 221.8213 227.2461)">
		<stop  offset="0" style="stop-color:#A5AEAF"/>
		<stop  offset="0.15" style="stop-color:#DBE5E6"/>
		<stop  offset="0.25" style="stop-color:#EBF0F1"/>
		<stop  offset="0.44" style="stop-color:#BDC7C7"/>
		<stop  offset="0.6" style="stop-color:#A8B1B1"/>
		<stop  offset="0.8" style="stop-color:#8D9595"/>
		<stop  offset="0.97" style="stop-color:#818889"/>
		<stop  offset="1" style="stop-color:#ACB5B6"/>
	</linearGradient>
	<path fill="url(#SVGID_1_)" d="M232.781,92.781h8.25v-25.5h-8.25V92.781z"/>
	
		<linearGradient id="SVGID_2_" gradientUnits="userSpaceOnUse" x1="-560.6138" y1="213.2861" x2="-560.6138" y2="189.2861" gradientTransform="matrix(-0.75 0 0 -0.75 -128.2344 357.7617)">
		<stop  offset="0" style="stop-color:#A8ADB0"/>
		<stop  offset="0.01" style="stop-color:#F1F7FA"/>
		<stop  offset="0.05" style="stop-color:#DAE2E5"/>
		<stop  offset="0.9" style="stop-color:#D7DEE2"/>
		<stop  offset="0.95" style="stop-color:#D2D9DD"/>
		<stop  offset="1" style="stop-color:#9CA1A4"/>
	</linearGradient>
	<path fill="url(#SVGID_2_)" d="M296.727,197.797h-15l6,18h15L296.727,197.797z"/>
	
		<linearGradient id="SVGID_3_" gradientUnits="userSpaceOnUse" x1="28.6147" y1="213.2861" x2="28.6147" y2="189.2861" gradientTransform="matrix(0.75 0 0 -0.75 115.7813 357.7617)">
		<stop  offset="0" style="stop-color:#A8ADB0"/>
		<stop  offset="0.01" style="stop-color:#F1F7FA"/>
		<stop  offset="0.05" style="stop-color:#DAE2E5"/>
		<stop  offset="0.9" style="stop-color:#D7DEE2"/>
		<stop  offset="0.95" style="stop-color:#D2D9DD"/>
		<stop  offset="1" style="stop-color:#9CA1A4"/>
	</linearGradient>
	<path fill="url(#SVGID_3_)" d="M132.742,197.797h15l-6,18h-15L132.742,197.797z"/>
	
		<linearGradient id="SVGID_4_" gradientUnits="userSpaceOnUse" x1="214.0449" y1="213.2852" x2="214.0449" y2="75.1699" gradientTransform="matrix(0.75 0 0 -0.75 43.5464 254.8506)">
		<stop  offset="0.05" style="stop-color:#DAE2E5"/>
		<stop  offset="0.9" style="stop-color:#D7DEE2"/>
		<stop  offset="0.95" style="stop-color:#D2D9DD"/>
		<stop  offset="1" style="stop-color:#9CA1A4"/>
	</linearGradient>
	<path fill="url(#SVGID_4_)" d="M54.508,94.887c0,0,40.043,67.223,47.445,85c7.305,17.75,27.316,18.586,48.504,18.586
		c21.051-0.086,143.973,0,143.973,0c0.078-0.086,22.719-0.547,30.887-15.234c8.191-14.852,22.719-67.512,28.336-76.789
		l-148.395,2.688L54.508,94.887z"/>
	
		<linearGradient id="SVGID_5_" gradientUnits="userSpaceOnUse" x1="14.5996" y1="190.3594" x2="436.9121" y2="190.3594" gradientTransform="matrix(0.75 0 0 -0.75 33.0645 229.0508)">
		<stop  offset="0" style="stop-color:#A3B0B4"/>
		<stop  offset="0.15" style="stop-color:#C8D9DD"/>
		<stop  offset="0.25" style="stop-color:#CFE0E5"/>
		<stop  offset="0.7" style="stop-color:#C0D0D5"/>
		<stop  offset="1" style="stop-color:#ABB9BD"/>
	</linearGradient>
	<path fill="url(#SVGID_5_)" d="M51.523,69.086c0,0-9.813-0.195-7.004,4.156c0.254,0.344,25.527,22.898,171.285,29.855
		c-0.031-0.262,107.727,4.383,143.973-12.883c-0.004-0.129,6.844-5.129-15.773-4.379c0.02-0.25-21.406,2.066-64.891,5.41
		c-53.59,4.09-153.262-11.613-168.48-14.172c-15.609-2.738-59.223-7.988-59.223-7.988H51.523z"/>
	<path fill="#7E7E7E" fill-opacity="0.0627" d="M99.164,104.258c0,0,28.191,94.313,49.379,94.313
		c21.121,0.188,143.793-0.105,143.793-0.105c0.328,0.293,5.922,8.453,32.313-85.547c0.266,0.34-38.645,2.473-106.035,1.234
		C150.914,113.258,99.164,104.258,99.164,104.258z"/>
	
		<linearGradient id="SVGID_6_" gradientUnits="userSpaceOnUse" x1="33.7578" y1="213.2832" x2="33.7578" y2="201.2832" gradientTransform="matrix(0.75 0 0 -0.75 211.4824 231.7559)">
		<stop  offset="0" style="stop-color:#A8ADB0"/>
		<stop  offset="0.01" style="stop-color:#F1F7FA"/>
		<stop  offset="0.05" style="stop-color:#DAE2E5"/>
		<stop  offset="0.9" style="stop-color:#D7DEE2"/>
		<stop  offset="0.95" style="stop-color:#D2D9DD"/>
		<stop  offset="1" style="stop-color:#9CA1A4"/>
	</linearGradient>
	<path fill="url(#SVGID_6_)" d="M223.941,71.793h26.25c0.75,0,0.969,0.551,0.969,1.234l-0.219,6.266c0,0.75-0.328,1.387-1.008,1.387
		l-25.992,0.113c-0.75,0-1.5-0.664-1.5-1.348v-6.152c0-0.75,0.551-1.5,1.227-1.5H223.941z"/>
	
		<linearGradient id="SVGID_7_" gradientUnits="userSpaceOnUse" x1="24.2339" y1="214.3506" x2="16.3541" y2="200.7023" gradientTransform="matrix(0.75 0 0 -0.75 221.5581 231.877)">
		<stop  offset="0" style="stop-color:#A0A8A9"/>
		<stop  offset="0.15" style="stop-color:#DBE5E6"/>
		<stop  offset="0.25" style="stop-color:#EBF0F1"/>
		<stop  offset="0.52" style="stop-color:#BDC7C7"/>
		<stop  offset="0.69" style="stop-color:#A8B1B1"/>
		<stop  offset="0.8" style="stop-color:#9EA7A7"/>
		<stop  offset="0.92" style="stop-color:#959D9E"/>
		<stop  offset="1" style="stop-color:#ACB5B6"/>
	</linearGradient>
	<path fill="url(#SVGID_7_)" d="M232.52,76.41c0-2.25,1.891-4.527,4.258-4.527c2.492,0.027,4.289,1.938,4.289,4.328
		c-0.297,2.449-1.922,4.332-4.289,4.332c-2.008,0.367-4.289-1.941-4.289-4.332L232.52,76.41z"/>
	<path fill="#C1D1D5" fill-opacity="0.9294" d="M54.508,94.887c0,0,98.758,19.68,160.785,19.68
		c61.965-0.18,138.359-8.117,138.359-8.117l-2.145,4.188c0,0-18.789,12.691-136.215,8.84
		c-107.535-3.59-158.012-20.371-158.012-20.371L54.508,94.887z"/>
	
		<linearGradient id="SVGID_8_" gradientUnits="userSpaceOnUse" x1="468.6123" y1="181.4785" x2="14.6123" y2="181.4785" gradientTransform="matrix(0.75 0 0 -0.75 19.04 228.9531)">
		<stop  offset="0" style="stop-color:#B7C0C1"/>
		<stop  offset="0.15" style="stop-color:#D2DCDE"/>
		<stop  offset="0.25" style="stop-color:#D8E2E4"/>
		<stop  offset="0.7" style="stop-color:#D0DADC"/>
		<stop  offset="1" style="stop-color:#C9D2D4"/>
	</linearGradient>
	<path fill="url(#SVGID_8_)" d="M30,74.988v9c0,0,2.523,7.516,38.285,14.988c35.965,7.512,152.379,26.539,261.359,13.141
		c0.355,0.371,34.965-6.441,40.855-10.563V89.988c0,0-0.563-4.438-28.934-3.664c-0.316-0.086,23.555,1.313,14.355,4.922
		c0.328,0.242-26.055,13.914-134.109,12.109c0.188,0.133-148.93-8.246-177.285-30.113c-0.277,0.246-3.063-3.383,6.898-4.156
		c0.324-0.098-18.84-1.48-21.426,5.699V74.988z"/>
	<path fill="#E0E9E9" d="M34.449,71.047c0,0,3.047,9.633,39.426,18.137c36.324,8.863,139.984,26.543,248.887,13.141
		c-0.313,0.223,39.328-5.332,47.738-12.289c-0.051,0.512,1.785-7.422-29.969-3.711c-0.082-0.277,23.078-0.102,15.16,4.922
		c-0.242,0.051-26.035,13.914-134.016,12.109c0.273-0.059-148.824-8.246-177.156-30.113c-0.32,0.055-3.066-3.383,6.891-4.156
		c0.289-0.289-12.379-1.547-16.961,2.32V71.047z"/>
	<path fill="#FFFFFF" fill-opacity="0.1373" d="M323.422,116.969c0,0-18.934,66.707-26.285,77.348
		c0.035-0.098,6.941,0.285,12.66-1.57c0.125-0.027,12.863-30.715,25.332-77.277c0.293,0-6.711,1.641-11.629,1.641L323.422,116.969z"
		/>
</g>
</svg>
