<?xml version="1.0" encoding="utf-8"?>
<!-- Generator: Adobe Illustrator 16.0.0, SVG Export Plug-In . SVG Version: 6.00 Build 0)  -->
<!DOCTYPE svg PUBLIC "-//W3C//DTD SVG 1.1//EN" "http://www.w3.org/Graphics/SVG/1.1/DTD/svg11.dtd">
<svg preserveAspectRatio="none" version="1.1" id="图层_1" xmlns="http://www.w3.org/2000/svg" xmlns:xlink="http://www.w3.org/1999/xlink" x="0px" y="0px"
	 width="340.203px" height="293.273px" viewBox="30.148 -4.281 340.203 293.273"
	 enable-background="new 30.148 -4.281 340.203 293.273" xml:space="preserve">
<g id="surface706">
	
		<linearGradient id="SVGID_1_" gradientUnits="userSpaceOnUse" x1="29.6147" y1="164.7881" x2="14.6147" y2="164.7881" gradientTransform="matrix(0.75 0 0 -0.75 77.8979 369.3477)">
		<stop  offset="0" style="stop-color:#97AA93"/>
		<stop  offset="0.15" style="stop-color:#D0E8CB"/>
		<stop  offset="0.25" style="stop-color:#E5F2E2"/>
		<stop  offset="0.52" style="stop-color:#B3C9AE"/>
		<stop  offset="0.69" style="stop-color:#9FB39B"/>
		<stop  offset="0.8" style="stop-color:#96A992"/>
		<stop  offset="0.92" style="stop-color:#8E9F89"/>
		<stop  offset="1" style="stop-color:#A3B79E"/>
	</linearGradient>
	<path fill="url(#SVGID_1_)" d="M88.859,209.383h11.25v72.75h-11.25V209.383z"/>
	
		<linearGradient id="SVGID_2_" gradientUnits="userSpaceOnUse" x1="29.6143" y1="164.7861" x2="14.6143" y2="164.7861" gradientTransform="matrix(0.75 0 0 -0.75 289.3047 369.3467)">
		<stop  offset="0" style="stop-color:#97AA93"/>
		<stop  offset="0.15" style="stop-color:#D0E8CB"/>
		<stop  offset="0.25" style="stop-color:#E5F2E2"/>
		<stop  offset="0.52" style="stop-color:#B3C9AE"/>
		<stop  offset="0.69" style="stop-color:#9FB39B"/>
		<stop  offset="0.8" style="stop-color:#96A992"/>
		<stop  offset="0.92" style="stop-color:#8E9F89"/>
		<stop  offset="1" style="stop-color:#A3B79E"/>
	</linearGradient>
	<path fill="url(#SVGID_2_)" d="M300.266,209.383h11.25v72.75h-11.25V209.383z"/>
	
		<linearGradient id="SVGID_3_" gradientUnits="userSpaceOnUse" x1="87.6104" y1="213.2852" x2="87.6104" y2="189.2852" gradientTransform="matrix(0.75 0 0 -0.75 134.6826 209.7139)">
		<stop  offset="0" style="stop-color:#97AA93"/>
		<stop  offset="0.15" style="stop-color:#D0E8CB"/>
		<stop  offset="0.25" style="stop-color:#E5F2E2"/>
		<stop  offset="0.52" style="stop-color:#B3C9AE"/>
		<stop  offset="0.69" style="stop-color:#9FB39B"/>
		<stop  offset="0.8" style="stop-color:#96A992"/>
		<stop  offset="0.92" style="stop-color:#8E9F89"/>
		<stop  offset="1" style="stop-color:#A3B79E"/>
	</linearGradient>
	<path fill="url(#SVGID_3_)" d="M145.641,49.75h109.5v18h-109.5V49.75z"/>
	
		<linearGradient id="SVGID_4_" gradientUnits="userSpaceOnUse" x1="28.6113" y1="207.79" x2="14.6113" y2="207.79" gradientTransform="matrix(0.75 0 0 -0.75 183.8345 194.9473)">
		<stop  offset="0" style="stop-color:#C4C4C4"/>
		<stop  offset="0.15" style="stop-color:#FFFFFF"/>
		<stop  offset="0.25" style="stop-color:#FFFFFF"/>
		<stop  offset="0.52" style="stop-color:#DFDFDF"/>
		<stop  offset="0.69" style="stop-color:#C7C7C7"/>
		<stop  offset="0.8" style="stop-color:#BCBCBC"/>
		<stop  offset="0.97" style="stop-color:#B1B1B1"/>
		<stop  offset="1" style="stop-color:#CBCBCB"/>
	</linearGradient>
	<path fill="url(#SVGID_4_)" d="M194.793,43.23h10.5v-8.25h-10.5V43.23z"/>
	
		<linearGradient id="SVGID_5_" gradientUnits="userSpaceOnUse" x1="36.1128" y1="213.2871" x2="36.1128" y2="188.2871" gradientTransform="matrix(0.75 0 0 -0.75 172.626 209.207)">
		<stop  offset="0" style="stop-color:#9DB098"/>
		<stop  offset="0.15" style="stop-color:#D0E8CB"/>
		<stop  offset="0.25" style="stop-color:#E5F2E2"/>
		<stop  offset="0.52" style="stop-color:#B3C9AE"/>
		<stop  offset="0.69" style="stop-color:#9FB39B"/>
		<stop  offset="0.8" style="stop-color:#96A992"/>
		<stop  offset="0.97" style="stop-color:#8E9F89"/>
		<stop  offset="1" style="stop-color:#A3B79E"/>
	</linearGradient>
	<path fill="url(#SVGID_5_)" d="M183.586,49.242h32.25v18.75h-32.25V49.242z"/>
	
		<linearGradient id="SVGID_6_" gradientUnits="userSpaceOnUse" x1="37.4746" y1="208.5342" x2="14.6152" y2="208.5342" gradientTransform="matrix(0.75 0 0 -0.75 180.3276 203.1533)">
		<stop  offset="0" style="stop-color:#9DB098"/>
		<stop  offset="0.15" style="stop-color:#D0E8CB"/>
		<stop  offset="0.25" style="stop-color:#E5F2E2"/>
		<stop  offset="0.52" style="stop-color:#B3C9AE"/>
		<stop  offset="0.69" style="stop-color:#9FB39B"/>
		<stop  offset="0.8" style="stop-color:#96A992"/>
		<stop  offset="0.97" style="stop-color:#8E9F89"/>
		<stop  offset="1" style="stop-color:#A3B79E"/>
	</linearGradient>
	<path fill="url(#SVGID_6_)" d="M191.289,49.938c0,0,0.98,0.406,8.492,0.379c7.258-0.379,8.652-0.625,8.652-0.625l-1.395-6.504
		h-14.25L191.289,49.938z"/>
	
		<linearGradient id="SVGID_7_" gradientUnits="userSpaceOnUse" x1="16.2988" y1="213.2852" x2="16.2988" y2="185.2852" gradientTransform="matrix(0.75 0 0 -0.75 213.481 208.0566)">
		<stop  offset="0" style="stop-color:#7B9F73"/>
		<stop  offset="0.15" style="stop-color:#AAD3A1"/>
		<stop  offset="0.25" style="stop-color:#D3E7CF"/>
		<stop  offset="0.52" style="stop-color:#8DB684"/>
		<stop  offset="0.69" style="stop-color:#7DA275"/>
		<stop  offset="0.8" style="stop-color:#76986E"/>
		<stop  offset="0.97" style="stop-color:#6F9068"/>
		<stop  offset="1" style="stop-color:#80A578"/>
	</linearGradient>
	<path fill="url(#SVGID_7_)" d="M224.441,48.094h2.25c0,0,0.277,0.102,0.277,0.23l-0.277,20.02c0,0.75,0.117,0.488-0.078,0.488
		l-2.172,0.262c0,0,0-0.363,0-0.492V48.094c0,0,0.16,0,0.355,0H224.441z"/>
	
		<linearGradient id="SVGID_8_" gradientUnits="userSpaceOnUse" x1="21.1943" y1="213.2871" x2="21.1943" y2="183.2871" gradientTransform="matrix(0.75 0 0 -0.75 204.1333 207.3359)">
		<stop  offset="0" style="stop-color:#9DB098"/>
		<stop  offset="0.15" style="stop-color:#D0E8CB"/>
		<stop  offset="0.25" style="stop-color:#E5F2E2"/>
		<stop  offset="0.52" style="stop-color:#B3C9AE"/>
		<stop  offset="0.69" style="stop-color:#9FB39B"/>
		<stop  offset="0.8" style="stop-color:#96A992"/>
		<stop  offset="0.97" style="stop-color:#8E9F89"/>
		<stop  offset="1" style="stop-color:#A3B79E"/>
	</linearGradient>
	<path fill="url(#SVGID_8_)" d="M215.094,47.371h9.75c0,0,0.121,0.105,0.121,0.23l-0.121,21.52c0,0,0.039,0.434-0.066,0.434
		l-9.684,0.316c0,0,0-0.422,0-0.547V47.371c0,0,0.082,0,0.188,0H215.094z"/>
	
		<linearGradient id="SVGID_9_" gradientUnits="userSpaceOnUse" x1="-572.958" y1="213.2852" x2="-572.958" y2="185.2852" gradientTransform="matrix(-0.75 0 0 -0.75 -255.709 208.0566)">
		<stop  offset="0" style="stop-color:#7B9F73"/>
		<stop  offset="0.15" style="stop-color:#AAD3A1"/>
		<stop  offset="0.25" style="stop-color:#D3E7CF"/>
		<stop  offset="0.52" style="stop-color:#8DB684"/>
		<stop  offset="0.69" style="stop-color:#7DA275"/>
		<stop  offset="0.8" style="stop-color:#76986E"/>
		<stop  offset="0.97" style="stop-color:#6F9068"/>
		<stop  offset="1" style="stop-color:#80A578"/>
	</linearGradient>
	<path fill="url(#SVGID_9_)" d="M175.25,48.094H173c0,0-0.23,0.102-0.23,0.23l0.23,20.02c0,0.75-0.074,0.488,0.117,0.488
		l2.133,0.262c0,0,0-0.363,0-0.492V48.094c0,0-0.156,0-0.348,0H175.25z"/>
	
		<linearGradient id="SVGID_10_" gradientUnits="userSpaceOnUse" x1="-568.0322" y1="213.2871" x2="-568.0322" y2="183.2871" gradientTransform="matrix(-0.75 0 0 -0.75 -246.3135 207.3359)">
		<stop  offset="0" style="stop-color:#9DB098"/>
		<stop  offset="0.15" style="stop-color:#D0E8CB"/>
		<stop  offset="0.25" style="stop-color:#E5F2E2"/>
		<stop  offset="0.52" style="stop-color:#B3C9AE"/>
		<stop  offset="0.69" style="stop-color:#9FB39B"/>
		<stop  offset="0.8" style="stop-color:#96A992"/>
		<stop  offset="0.97" style="stop-color:#8E9F89"/>
		<stop  offset="1" style="stop-color:#A3B79E"/>
	</linearGradient>
	<path fill="url(#SVGID_10_)" d="M184.648,47.371h-9.75c0,0-0.125,0.105-0.125,0.23l0.125,21.52c0,0-0.039,0.434,0.063,0.434
		l9.688,0.316c0,0,0-0.418,0-0.547V47.371c0,0-0.086,0-0.191,0H184.648z"/>
	
		<linearGradient id="SVGID_11_" gradientUnits="userSpaceOnUse" x1="15.1147" y1="213.2871" x2="15.1147" y2="188.2871" gradientTransform="matrix(0.75 0 0 -0.75 203.2852 209.207)">
		<stop  offset="0" style="stop-color:#6E9A67"/>
		<stop  offset="0.15" style="stop-color:#9BCE93"/>
		<stop  offset="0.25" style="stop-color:#CCE4C9"/>
		<stop  offset="0.52" style="stop-color:#7EB176"/>
		<stop  offset="0.69" style="stop-color:#709D69"/>
		<stop  offset="0.8" style="stop-color:#699462"/>
		<stop  offset="0.97" style="stop-color:#638B5D"/>
		<stop  offset="1" style="stop-color:#73A16B"/>
	</linearGradient>
	<path fill="url(#SVGID_11_)" d="M214.246,49.242h0.75v18.75h-0.75V49.242z"/>
	
		<linearGradient id="SVGID_12_" gradientUnits="userSpaceOnUse" x1="15.1143" y1="213.2871" x2="15.1143" y2="188.2871" gradientTransform="matrix(0.75 0 0 -0.75 173.7148 209.207)">
		<stop  offset="0" style="stop-color:#6E9A67"/>
		<stop  offset="0.15" style="stop-color:#9BCE93"/>
		<stop  offset="0.25" style="stop-color:#CCE4C9"/>
		<stop  offset="0.52" style="stop-color:#7EB176"/>
		<stop  offset="0.69" style="stop-color:#709D69"/>
		<stop  offset="0.8" style="stop-color:#699462"/>
		<stop  offset="0.97" style="stop-color:#638B5D"/>
		<stop  offset="1" style="stop-color:#73A16B"/>
	</linearGradient>
	<path fill="url(#SVGID_12_)" d="M184.676,49.242h0.75v18.75h-0.75V49.242z"/>
	
		<linearGradient id="SVGID_13_" gradientUnits="userSpaceOnUse" x1="20.6172" y1="206.7881" x2="14.6147" y2="206.7881" gradientTransform="matrix(0.75 0 0 -0.75 186.5894 185.1836)">
		<stop  offset="0" style="stop-color:#C4C4C4"/>
		<stop  offset="0.15" style="stop-color:#FFFFFF"/>
		<stop  offset="0.25" style="stop-color:#FFFFFF"/>
		<stop  offset="0.52" style="stop-color:#DFDFDF"/>
		<stop  offset="0.69" style="stop-color:#C7C7C7"/>
		<stop  offset="0.8" style="stop-color:#BCBCBC"/>
		<stop  offset="0.97" style="stop-color:#B1B1B1"/>
		<stop  offset="1" style="stop-color:#CBCBCB"/>
	</linearGradient>
	<path fill="url(#SVGID_13_)" d="M197.551,34.969h4.5v-8.25c0,0,0.148-1.5-2.242-1.5c-2.258,0-2.258,1.355-2.258,1.355V34.969z"/>
	
		<linearGradient id="SVGID_14_" gradientUnits="userSpaceOnUse" x1="-565.6157" y1="629.7148" x2="-565.6157" y2="608.7148" gradientTransform="matrix(-0.75 0 0 0.75 -136.8721 -206.4849)">
		<stop  offset="0" style="stop-color:#AFC4AA"/>
		<stop  offset="0.2" style="stop-color:#BAD0B4"/>
		<stop  offset="0.4" style="stop-color:#CFE7CA"/>
		<stop  offset="0.6" style="stop-color:#CFE7CA"/>
		<stop  offset="0.8" style="stop-color:#BAD0B4"/>
		<stop  offset="1" style="stop-color:#AFC4AA"/>
	</linearGradient>
	<path fill="url(#SVGID_14_)" d="M294.09,265.801h-13.5v-15.75h13.5V265.801z"/>
	
		<linearGradient id="SVGID_15_" gradientUnits="userSpaceOnUse" x1="-56.7861" y1="716.1152" x2="-56.7861" y2="695.1152" gradientTransform="matrix(0 0.75 0.75 0 -222.4531 277.0586)">
		<stop  offset="0" style="stop-color:#AFC4AA"/>
		<stop  offset="0.2" style="stop-color:#BAD0B4"/>
		<stop  offset="0.4" style="stop-color:#CFE7CA"/>
		<stop  offset="0.6" style="stop-color:#CFE7CA"/>
		<stop  offset="0.8" style="stop-color:#BAD0B4"/>
		<stop  offset="1" style="stop-color:#AFC4AA"/>
	</linearGradient>
	<path fill="url(#SVGID_15_)" d="M314.633,223.219v22.5h-15.75v-22.5H314.633z"/>
	<path fill="#CDE6C7" d="M289.418,249.594v17.25c0,0,9.918,0.605,18.641-7.648c7.609-7.352,7.609-18.41,7.609-18.41l-17.25-0.191
		c0,0.75-0.461,4.449-2.91,6.469c-3.09,2.531-6.145,2.504-6.145,2.504L289.418,249.594z"/>
	<path fill="#B4CAAF" d="M289.18,249.559v2.25c0,0,4.816-0.277,7.914-3.195c3.336-3.555,3.336-7.813,3.336-7.813l-2.25-0.242
		c0,0.75-0.313,4.477-2.531,6.449c-2.719,2.551-6.266,2.57-6.266,2.57L289.18,249.559z"/>
	<path fill="#B9CFB3" d="M289.469,262.313v2.25c0,0,10.262,0.086,17.148-6.801c7.602-8.199,6.801-16.957,6.801-16.957l-2.199-0.242
		c0,0.75,0.195,9.707-6.301,15.586c-7.199,6.164-15.535,6.141-15.535,6.141L289.469,262.313z"/>
	<path fill="#B4CAAF" d="M289.434,264.559v2.25c0,0,9.508,0.754,18.617-7.59c7.633-7.41,7.633-18.402,7.633-18.402l-2.25-0.258
		c0,0,0.16,10.609-6.883,17.18c-7.367,6.82-17.203,6.824-17.203,6.824L289.434,264.559z"/>
	<path fill="#CDE6C7" d="M289.344,256.332v3.75c0,0,7.641,0.621,13.91-5.57c5.59-5.68,5.59-13.711,5.59-13.711l-3.75-0.219
		c0,0-0.051,6.957-4.426,11.363c-4.574,5.137-11.285,4.359-11.285,4.359L289.344,256.332z"/>
	<path fill="#C4DCBE" d="M289.387,260.043v2.25c0,0,8.422,0.457,15.57-6.168c6.18-5.832,6.18-15.32,6.18-15.32l-2.25-0.262
		c0,0,0.066,8.551-5.633,13.969c-6.367,6.281-13.871,5.555-13.871,5.555L289.387,260.043z"/>
	<path fill="#C4DCBE" d="M289.266,254.059v2.25c0,0,6.98,0.328,11.402-4.363c4.348-4.637,4.348-11.141,4.348-11.141l-2.25-0.246
		c0,0-0.281,6-3.938,9.586c-3.563,3.914-9.445,3.918-9.445,3.918L289.266,254.059z"/>
	<path fill="#B9CFB3" d="M289.219,251.813v2.25c0,0,5.938-0.273,9.609-3.918c3.891-3.582,3.891-9.344,3.891-9.344l-2.25-0.238
		c0,0,0.133,4.609-3.305,7.93c-3.445,3.32-7.77,3.32-7.77,3.32H289.219z"/>
	
		<linearGradient id="SVGID_16_" gradientUnits="userSpaceOnUse" x1="134.1118" y1="629.7139" x2="134.1118" y2="608.7139" gradientTransform="matrix(0.75 0 0 0.75 96.2295 -206.4844)">
		<stop  offset="0" style="stop-color:#AFC4AA"/>
		<stop  offset="0.2" style="stop-color:#BAD0B4"/>
		<stop  offset="0.4" style="stop-color:#CFE7CA"/>
		<stop  offset="0.6" style="stop-color:#CFE7CA"/>
		<stop  offset="0.8" style="stop-color:#BAD0B4"/>
		<stop  offset="1" style="stop-color:#AFC4AA"/>
	</linearGradient>
	<path fill="url(#SVGID_16_)" d="M107.188,265.801h179.25v-15.75h-179.25V265.801z"/>
	
		<linearGradient id="SVGID_17_" gradientUnits="userSpaceOnUse" x1="-472.7104" y1="716.1152" x2="-472.7104" y2="695.1152" gradientTransform="matrix(0 -0.75 0.75 0 -434.6367 -120.6855)">
		<stop  offset="0" style="stop-color:#AFC4AA"/>
		<stop  offset="0.2" style="stop-color:#BAD0B4"/>
		<stop  offset="0.4" style="stop-color:#CFE7CA"/>
		<stop  offset="0.6" style="stop-color:#CFE7CA"/>
		<stop  offset="0.8" style="stop-color:#BAD0B4"/>
		<stop  offset="1" style="stop-color:#AFC4AA"/>
	</linearGradient>
	<path fill="url(#SVGID_17_)" d="M102.449,245.473v-23.25h-15.75v23.25H102.449z"/>
	<path fill="#CDE6C7" d="M111.859,249.594v17.25c0,0-9.918,0.609-18.641-7.648c-7.609-7.352-7.609-18.41-7.609-18.41l17.25-0.191
		c0,0.75,0.461,4.449,2.91,6.469c3.09,2.531,6.145,2.504,6.145,2.504L111.859,249.594z"/>
	<path fill="#B4CAAF" d="M112.098,249.563v2.25c0,0-4.816-0.281-7.914-3.199c-3.336-3.551-3.336-7.813-3.336-7.813l2.25-0.238
		c0,0.75,0.313,4.477,2.531,6.445c2.719,2.555,6.266,2.57,6.266,2.57L112.098,249.563z"/>
	<path fill="#B9CFB3" d="M111.809,262.313v2.25c0,0-10.262,0.086-17.148-6.801c-7.602-8.199-6.801-16.957-6.801-16.957l2.199-0.242
		c0,0.75-0.195,9.707,6.301,15.586c7.199,6.164,15.535,6.141,15.535,6.141L111.809,262.313z"/>
	<path fill="#B4CAAF" d="M111.844,264.559v2.25c0,0-9.508,0.754-18.617-7.59c-7.633-7.41-7.633-18.402-7.633-18.402l2.25-0.258
		c0,0-0.16,10.609,6.883,17.18c7.367,6.82,17.203,6.828,17.203,6.828L111.844,264.559z"/>
	<path fill="#CDE6C7" d="M111.934,256.332v3.75c0,0-7.641,0.621-13.91-5.57c-5.59-5.68-5.59-13.711-5.59-13.711l3.75-0.219
		c0,0,0.051,6.957,4.426,11.363c4.574,5.137,11.285,4.359,11.285,4.359L111.934,256.332z"/>
	<path fill="#C4DCBE" d="M111.891,260.043v2.25c0,0-8.422,0.457-15.57-6.168c-6.18-5.832-6.18-15.32-6.18-15.32l2.25-0.262
		c0,0-0.066,8.551,5.633,13.969c6.367,6.281,13.871,5.555,13.871,5.555L111.891,260.043z"/>
	<path fill="#C4DCBE" d="M112.012,254.059v2.25c0,0-6.98,0.328-11.402-4.363c-4.348-4.637-4.348-11.141-4.348-11.141l2.25-0.246
		c0,0,0.281,6,3.938,9.586c3.563,3.914,9.445,3.918,9.445,3.918L112.012,254.059z"/>
	<path fill="#B9CFB3" d="M112.059,251.813v2.25c0,0-5.938-0.273-9.609-3.918c-3.891-3.582-3.891-9.344-3.891-9.344l2.25-0.238
		c0,0-0.133,4.609,3.305,7.93c3.445,3.32,7.77,3.32,7.77,3.32H112.059z"/>
	
		<linearGradient id="SVGID_18_" gradientUnits="userSpaceOnUse" x1="28.6147" y1="207.7871" x2="14.6147" y2="207.7871" gradientTransform="matrix(0.75 0 0 -0.75 183.7808 395.3193)">
		<stop  offset="0" style="stop-color:#C4C4C4"/>
		<stop  offset="0.15" style="stop-color:#FFFFFF"/>
		<stop  offset="0.25" style="stop-color:#FFFFFF"/>
		<stop  offset="0.52" style="stop-color:#DFDFDF"/>
		<stop  offset="0.69" style="stop-color:#C7C7C7"/>
		<stop  offset="0.8" style="stop-color:#BCBCBC"/>
		<stop  offset="0.97" style="stop-color:#B1B1B1"/>
		<stop  offset="1" style="stop-color:#CBCBCB"/>
	</linearGradient>
	<path fill="url(#SVGID_18_)" d="M194.742,243.605h10.5v-8.25h-10.5V243.605z"/>
	
		<linearGradient id="SVGID_19_" gradientUnits="userSpaceOnUse" x1="36.1123" y1="213.2871" x2="36.1123" y2="188.2871" gradientTransform="matrix(0.75 0 0 -0.75 172.5723 409.5791)">
		<stop  offset="0" style="stop-color:#9DB098"/>
		<stop  offset="0.15" style="stop-color:#D0E8CB"/>
		<stop  offset="0.25" style="stop-color:#E5F2E2"/>
		<stop  offset="0.52" style="stop-color:#B3C9AE"/>
		<stop  offset="0.69" style="stop-color:#9FB39B"/>
		<stop  offset="0.8" style="stop-color:#96A992"/>
		<stop  offset="0.97" style="stop-color:#8E9F89"/>
		<stop  offset="1" style="stop-color:#A3B79E"/>
	</linearGradient>
	<path fill="url(#SVGID_19_)" d="M183.531,249.613h32.25v18.75h-32.25V249.613z"/>
	
		<linearGradient id="SVGID_20_" gradientUnits="userSpaceOnUse" x1="37.4731" y1="208.5381" x2="14.6138" y2="208.5381" gradientTransform="matrix(0.75 0 0 -0.75 180.2739 403.5254)">
		<stop  offset="0" style="stop-color:#9DB098"/>
		<stop  offset="0.15" style="stop-color:#D0E8CB"/>
		<stop  offset="0.25" style="stop-color:#E5F2E2"/>
		<stop  offset="0.52" style="stop-color:#B3C9AE"/>
		<stop  offset="0.69" style="stop-color:#9FB39B"/>
		<stop  offset="0.8" style="stop-color:#96A992"/>
		<stop  offset="0.97" style="stop-color:#8E9F89"/>
		<stop  offset="1" style="stop-color:#A3B79E"/>
	</linearGradient>
	<path fill="url(#SVGID_20_)" d="M191.234,250.309c0,0,0.98,0.406,8.492,0.379c7.258-0.379,8.652-0.625,8.652-0.625l-1.395-6.504
		h-14.25L191.234,250.309z"/>
	
		<linearGradient id="SVGID_21_" gradientUnits="userSpaceOnUse" x1="16.2979" y1="213.2871" x2="16.2978" y2="185.2871" gradientTransform="matrix(0.75 0 0 -0.75 213.4272 408.4297)">
		<stop  offset="0" style="stop-color:#7B9F73"/>
		<stop  offset="0.15" style="stop-color:#AAD3A1"/>
		<stop  offset="0.25" style="stop-color:#D3E7CF"/>
		<stop  offset="0.52" style="stop-color:#8DB684"/>
		<stop  offset="0.69" style="stop-color:#7DA275"/>
		<stop  offset="0.8" style="stop-color:#76986E"/>
		<stop  offset="0.97" style="stop-color:#6F9068"/>
		<stop  offset="1" style="stop-color:#80A578"/>
	</linearGradient>
	<path fill="url(#SVGID_21_)" d="M224.387,248.465h2.25c0,0,0.277,0.102,0.277,0.23l-0.277,20.02c0,0.75,0.121,0.492-0.074,0.492
		l-2.176,0.258c0,0,0-0.363,0-0.492V248.465c0,0,0.16,0,0.355,0H224.387z"/>
	
		<linearGradient id="SVGID_22_" gradientUnits="userSpaceOnUse" x1="21.1934" y1="213.29" x2="21.1934" y2="183.29" gradientTransform="matrix(0.75 0 0 -0.75 204.0796 407.709)">
		<stop  offset="0" style="stop-color:#9DB098"/>
		<stop  offset="0.15" style="stop-color:#D0E8CB"/>
		<stop  offset="0.25" style="stop-color:#E5F2E2"/>
		<stop  offset="0.52" style="stop-color:#B3C9AE"/>
		<stop  offset="0.69" style="stop-color:#9FB39B"/>
		<stop  offset="0.8" style="stop-color:#96A992"/>
		<stop  offset="0.97" style="stop-color:#8E9F89"/>
		<stop  offset="1" style="stop-color:#A3B79E"/>
	</linearGradient>
	<path fill="url(#SVGID_22_)" d="M215.039,247.742h9.75c0,0,0.121,0.105,0.121,0.234l-0.121,21.516c0,0,0.039,0.434-0.066,0.434
		l-9.684,0.316c0,0,0-0.418,0-0.547V247.742c0,0,0.086,0,0.188,0H215.039z"/>
	
		<linearGradient id="SVGID_23_" gradientUnits="userSpaceOnUse" x1="-572.9575" y1="213.2871" x2="-572.9575" y2="185.2871" gradientTransform="matrix(-0.75 0 0 -0.75 -255.7637 408.4297)">
		<stop  offset="0" style="stop-color:#7B9F73"/>
		<stop  offset="0.15" style="stop-color:#AAD3A1"/>
		<stop  offset="0.25" style="stop-color:#D3E7CF"/>
		<stop  offset="0.52" style="stop-color:#8DB684"/>
		<stop  offset="0.69" style="stop-color:#7DA275"/>
		<stop  offset="0.8" style="stop-color:#76986E"/>
		<stop  offset="0.97" style="stop-color:#6F9068"/>
		<stop  offset="1" style="stop-color:#80A578"/>
	</linearGradient>
	<path fill="url(#SVGID_23_)" d="M175.195,248.465h-2.25c0,0-0.23,0.102-0.23,0.23l0.23,20.02c0,0.75-0.074,0.492,0.117,0.492
		l2.133,0.258c0,0,0-0.363,0-0.492V248.465c0,0-0.156,0-0.348,0H175.195z"/>
	
		<linearGradient id="SVGID_24_" gradientUnits="userSpaceOnUse" x1="-568.0322" y1="213.29" x2="-568.0322" y2="183.29" gradientTransform="matrix(-0.75 0 0 -0.75 -246.3672 407.709)">
		<stop  offset="0" style="stop-color:#9DB098"/>
		<stop  offset="0.15" style="stop-color:#D0E8CB"/>
		<stop  offset="0.25" style="stop-color:#E5F2E2"/>
		<stop  offset="0.52" style="stop-color:#B3C9AE"/>
		<stop  offset="0.69" style="stop-color:#9FB39B"/>
		<stop  offset="0.8" style="stop-color:#96A992"/>
		<stop  offset="0.97" style="stop-color:#8E9F89"/>
		<stop  offset="1" style="stop-color:#A3B79E"/>
	</linearGradient>
	<path fill="url(#SVGID_24_)" d="M184.594,247.742h-9.75c0,0-0.121,0.105-0.121,0.234l0.121,21.516c0,0-0.039,0.434,0.066,0.434
		l9.684,0.316c0,0,0-0.418,0-0.547V247.742c0,0-0.086,0-0.188,0H184.594z"/>
	
		<linearGradient id="SVGID_25_" gradientUnits="userSpaceOnUse" x1="15.1133" y1="213.2871" x2="15.1133" y2="188.2871" gradientTransform="matrix(0.75 0 0 -0.75 203.2314 409.5791)">
		<stop  offset="0" style="stop-color:#6E9A67"/>
		<stop  offset="0.15" style="stop-color:#9BCE93"/>
		<stop  offset="0.25" style="stop-color:#CCE4C9"/>
		<stop  offset="0.52" style="stop-color:#7EB176"/>
		<stop  offset="0.69" style="stop-color:#709D69"/>
		<stop  offset="0.8" style="stop-color:#699462"/>
		<stop  offset="0.97" style="stop-color:#638B5D"/>
		<stop  offset="1" style="stop-color:#73A16B"/>
	</linearGradient>
	<path fill="url(#SVGID_25_)" d="M214.191,249.613h0.75v18.75h-0.75V249.613z"/>
	
		<linearGradient id="SVGID_26_" gradientUnits="userSpaceOnUse" x1="15.1138" y1="213.2871" x2="15.1138" y2="188.2871" gradientTransform="matrix(0.75 0 0 -0.75 173.6611 409.5791)">
		<stop  offset="0" style="stop-color:#6E9A67"/>
		<stop  offset="0.15" style="stop-color:#9BCE93"/>
		<stop  offset="0.25" style="stop-color:#CCE4C9"/>
		<stop  offset="0.52" style="stop-color:#7EB176"/>
		<stop  offset="0.69" style="stop-color:#709D69"/>
		<stop  offset="0.8" style="stop-color:#699462"/>
		<stop  offset="0.97" style="stop-color:#638B5D"/>
		<stop  offset="1" style="stop-color:#73A16B"/>
	</linearGradient>
	<path fill="url(#SVGID_26_)" d="M184.621,249.613h0.75v18.75h-0.75V249.613z"/>
	
		<linearGradient id="SVGID_27_" gradientUnits="userSpaceOnUse" x1="20.6162" y1="206.7881" x2="14.6138" y2="206.7881" gradientTransform="matrix(0.75 0 0 -0.75 186.5352 385.5557)">
		<stop  offset="0" style="stop-color:#C4C4C4"/>
		<stop  offset="0.15" style="stop-color:#FFFFFF"/>
		<stop  offset="0.25" style="stop-color:#FFFFFF"/>
		<stop  offset="0.52" style="stop-color:#DFDFDF"/>
		<stop  offset="0.69" style="stop-color:#C7C7C7"/>
		<stop  offset="0.8" style="stop-color:#BCBCBC"/>
		<stop  offset="0.97" style="stop-color:#B1B1B1"/>
		<stop  offset="1" style="stop-color:#CBCBCB"/>
	</linearGradient>
	<path fill="url(#SVGID_27_)" d="M197.496,235.34h4.5v-8.25c0,0,0.148-1.5-2.242-1.5c-2.258,0-2.258,1.355-2.258,1.355V235.34z"/>
	
		<linearGradient id="SVGID_28_" gradientUnits="userSpaceOnUse" x1="150.8711" y1="65.7046" x2="14.6104" y2="65.7046" gradientTransform="matrix(0.75 0 0 -0.75 32.4912 165.1953)">
		<stop  offset="0" style="stop-color:#97AA93"/>
		<stop  offset="0.15" style="stop-color:#D0E8CB"/>
		<stop  offset="0.25" style="stop-color:#E5F2E2"/>
		<stop  offset="0.52" style="stop-color:#B3C9AE"/>
		<stop  offset="0.69" style="stop-color:#9FB39B"/>
		<stop  offset="0.8" style="stop-color:#96A992"/>
		<stop  offset="0.92" style="stop-color:#8E9F89"/>
		<stop  offset="1" style="stop-color:#A3B79E"/>
	</linearGradient>
	<path fill="url(#SVGID_28_)" d="M43.449,19.48c0,0,1.16-14.25,51.309-14.25c49.941,0,50.887,14.465,50.887,14.465l-0.195,195.535
		c0,0,0.719,11.375-50.375,11.375c-50.875-0.125-51.625-11.465-51.625-11.465V19.48z"/>
	
		<linearGradient id="SVGID_29_" gradientUnits="userSpaceOnUse" x1="23.6108" y1="206.7871" x2="14.6108" y2="206.7871" gradientTransform="matrix(0.75 0 0 -0.75 80.3384 155.6836)">
		<stop  offset="0" style="stop-color:#97AA93"/>
		<stop  offset="0.15" style="stop-color:#D0E8CB"/>
		<stop  offset="0.25" style="stop-color:#E5F2E2"/>
		<stop  offset="0.52" style="stop-color:#B3C9AE"/>
		<stop  offset="0.69" style="stop-color:#9FB39B"/>
		<stop  offset="0.8" style="stop-color:#96A992"/>
		<stop  offset="0.92" style="stop-color:#8E9F89"/>
		<stop  offset="1" style="stop-color:#A3B79E"/>
	</linearGradient>
	<path fill="url(#SVGID_29_)" d="M91.297,5.469h6.75v-9.75h-6.75V5.469z"/>
	
		<linearGradient id="SVGID_30_" gradientUnits="userSpaceOnUse" x1="73.4658" y1="241.6318" x2="58.4619" y2="241.6318" gradientTransform="matrix(0.7244 0.1941 0.1941 -0.7244 -48.4327 412.8325)">
		<stop  offset="0" style="stop-color:#97AA93"/>
		<stop  offset="0.15" style="stop-color:#D0E8CB"/>
		<stop  offset="0.25" style="stop-color:#E5F2E2"/>
		<stop  offset="0.52" style="stop-color:#B3C9AE"/>
		<stop  offset="0.69" style="stop-color:#9FB39B"/>
		<stop  offset="0.8" style="stop-color:#96A992"/>
		<stop  offset="0.92" style="stop-color:#8E9F89"/>
		<stop  offset="1" style="stop-color:#A3B79E"/>
	</linearGradient>
	<path fill="url(#SVGID_30_)" d="M51.5,209.289l10.867,2.91l-20.574,76.793l-11.645-0.016L51.5,209.289z"/>
	
		<linearGradient id="SVGID_31_" gradientUnits="userSpaceOnUse" x1="-495.6826" y1="89.1294" x2="-510.6851" y2="89.1294" gradientTransform="matrix(-0.7244 0.1941 -0.1941 -0.7244 -204.3929 412.8325)">
		<stop  offset="0" style="stop-color:#97AA93"/>
		<stop  offset="0.15" style="stop-color:#D0E8CB"/>
		<stop  offset="0.25" style="stop-color:#E5F2E2"/>
		<stop  offset="0.52" style="stop-color:#B3C9AE"/>
		<stop  offset="0.69" style="stop-color:#9FB39B"/>
		<stop  offset="0.8" style="stop-color:#96A992"/>
		<stop  offset="0.92" style="stop-color:#8E9F89"/>
		<stop  offset="1" style="stop-color:#A3B79E"/>
	</linearGradient>
	<path fill="url(#SVGID_31_)" d="M137.59,209.289l-10.863,2.91l20.574,76.793l11.645-0.016L137.59,209.289z"/>
	
		<linearGradient id="SVGID_32_" gradientUnits="userSpaceOnUse" x1="150.6104" y1="203.2861" x2="14.6104" y2="203.2861" gradientTransform="matrix(0.75 0 0 -0.75 32.4912 184.6084)">
		<stop  offset="0" style="stop-color:#7B9C75"/>
		<stop  offset="0.15" style="stop-color:#AFD6A7"/>
		<stop  offset="0.25" style="stop-color:#D5E8D1"/>
		<stop  offset="0.52" style="stop-color:#93B88B"/>
		<stop  offset="0.69" style="stop-color:#82A47B"/>
		<stop  offset="0.8" style="stop-color:#7A9B74"/>
		<stop  offset="0.92" style="stop-color:#73926D"/>
		<stop  offset="1" style="stop-color:#85A87E"/>
	</linearGradient>
	<path fill="url(#SVGID_32_)" d="M43.449,24.645h102v15h-102V24.645z"/>
	
		<linearGradient id="SVGID_33_" gradientUnits="userSpaceOnUse" x1="171.6118" y1="209.1162" x2="14.6118" y2="209.1162" gradientTransform="matrix(0.75 0 0 -0.75 24.853 192.167)">
		<stop  offset="0" style="stop-color:#97AA93"/>
		<stop  offset="0.15" style="stop-color:#D0E8CB"/>
		<stop  offset="0.25" style="stop-color:#E5F2E2"/>
		<stop  offset="0.52" style="stop-color:#B3C9AE"/>
		<stop  offset="0.69" style="stop-color:#9FB39B"/>
		<stop  offset="0.8" style="stop-color:#96A992"/>
		<stop  offset="0.92" style="stop-color:#8E9F89"/>
		<stop  offset="1" style="stop-color:#A3B79E"/>
	</linearGradient>
	<path fill="url(#SVGID_33_)" d="M36.563,32.203h116.25c0,0,0.469,0.188,0.469,0.418l0.281,5.582c0,0-0.469,0.254-0.703,0.254
		L36.563,38.203c-0.75,0-0.75,0.066-0.75-0.164v-5.086c0-0.75,0.188-0.75,0.422-0.75H36.563z"/>
	
		<linearGradient id="SVGID_34_" gradientUnits="userSpaceOnUse" x1="171.6118" y1="209.1152" x2="14.6118" y2="209.1152" gradientTransform="matrix(0.75 0 0 -0.75 24.853 185.9121)">
		<stop  offset="0" style="stop-color:#97AA93"/>
		<stop  offset="0.15" style="stop-color:#D0E8CB"/>
		<stop  offset="0.25" style="stop-color:#E5F2E2"/>
		<stop  offset="0.52" style="stop-color:#B3C9AE"/>
		<stop  offset="0.69" style="stop-color:#9FB39B"/>
		<stop  offset="0.8" style="stop-color:#96A992"/>
		<stop  offset="0.92" style="stop-color:#8E9F89"/>
		<stop  offset="1" style="stop-color:#A3B79E"/>
	</linearGradient>
	<path fill="url(#SVGID_34_)" d="M36.563,25.949h116.25c0,0,0.469,0.184,0.469,0.414l0.281,5.586c0,0-0.469,0.254-0.703,0.254
		L36.563,31.949c-0.75,0-0.75,0.066-0.75-0.164v-5.086c0-0.75,0.188-0.75,0.422-0.75H36.563z"/>
	
		<linearGradient id="SVGID_35_" gradientUnits="userSpaceOnUse" x1="150.6104" y1="211.2891" x2="14.6104" y2="211.289" gradientTransform="matrix(0.75 0 0 -0.75 32.4912 369.0596)">
		<stop  offset="0" style="stop-color:#7B9C75"/>
		<stop  offset="0.15" style="stop-color:#AFD6A7"/>
		<stop  offset="0.25" style="stop-color:#D5E8D1"/>
		<stop  offset="0.52" style="stop-color:#93B88B"/>
		<stop  offset="0.69" style="stop-color:#82A47B"/>
		<stop  offset="0.8" style="stop-color:#7A9B74"/>
		<stop  offset="0.92" style="stop-color:#73926D"/>
		<stop  offset="1" style="stop-color:#85A87E"/>
	</linearGradient>
	<path fill="url(#SVGID_35_)" d="M43.449,209.094h102v3h-102V209.094z"/>
	
		<linearGradient id="SVGID_36_" gradientUnits="userSpaceOnUse" x1="150.8711" y1="65.7046" x2="14.6152" y2="65.7046" gradientTransform="matrix(0.75 0 0 -0.75 243.8975 165.1953)">
		<stop  offset="0" style="stop-color:#97AA93"/>
		<stop  offset="0.15" style="stop-color:#D0E8CB"/>
		<stop  offset="0.25" style="stop-color:#E5F2E2"/>
		<stop  offset="0.52" style="stop-color:#B3C9AE"/>
		<stop  offset="0.69" style="stop-color:#9FB39B"/>
		<stop  offset="0.8" style="stop-color:#96A992"/>
		<stop  offset="0.92" style="stop-color:#8E9F89"/>
		<stop  offset="1" style="stop-color:#A3B79E"/>
	</linearGradient>
	<path fill="url(#SVGID_36_)" d="M254.859,19.48c0,0,1.156-14.25,51.305-14.25c49.945,0,50.887,14.465,50.887,14.465l-0.191,195.535
		c0,0,0.715,11.375-50.379,11.375c-50.871-0.125-51.621-11.465-51.621-11.465V19.48z"/>
	
		<linearGradient id="SVGID_37_" gradientUnits="userSpaceOnUse" x1="23.6152" y1="206.7871" x2="14.6152" y2="206.7871" gradientTransform="matrix(0.75 0 0 -0.75 291.7451 155.6836)">
		<stop  offset="0" style="stop-color:#97AA93"/>
		<stop  offset="0.15" style="stop-color:#D0E8CB"/>
		<stop  offset="0.25" style="stop-color:#E5F2E2"/>
		<stop  offset="0.52" style="stop-color:#B3C9AE"/>
		<stop  offset="0.69" style="stop-color:#9FB39B"/>
		<stop  offset="0.8" style="stop-color:#96A992"/>
		<stop  offset="0.92" style="stop-color:#8E9F89"/>
		<stop  offset="1" style="stop-color:#A3B79E"/>
	</linearGradient>
	<path fill="url(#SVGID_37_)" d="M302.707,5.469h6.75v-9.75h-6.75V5.469z"/>
	
		<linearGradient id="SVGID_38_" gradientUnits="userSpaceOnUse" x1="73.4668" y1="241.6318" x2="58.4629" y2="241.6318" gradientTransform="matrix(0.7244 0.1941 0.1941 -0.7244 162.9735 412.8325)">
		<stop  offset="0" style="stop-color:#97AA93"/>
		<stop  offset="0.15" style="stop-color:#D0E8CB"/>
		<stop  offset="0.25" style="stop-color:#E5F2E2"/>
		<stop  offset="0.52" style="stop-color:#B3C9AE"/>
		<stop  offset="0.69" style="stop-color:#9FB39B"/>
		<stop  offset="0.8" style="stop-color:#96A992"/>
		<stop  offset="0.92" style="stop-color:#8E9F89"/>
		<stop  offset="1" style="stop-color:#A3B79E"/>
	</linearGradient>
	<path fill="url(#SVGID_38_)" d="M262.906,209.289l10.867,2.91l-20.574,76.793l-11.645-0.016L262.906,209.289z"/>
	
		<linearGradient id="SVGID_39_" gradientUnits="userSpaceOnUse" x1="-495.6836" y1="89.1284" x2="-510.6865" y2="89.1284" gradientTransform="matrix(-0.7244 0.1941 -0.1941 -0.7244 7.0133 412.8325)">
		<stop  offset="0" style="stop-color:#97AA93"/>
		<stop  offset="0.15" style="stop-color:#D0E8CB"/>
		<stop  offset="0.25" style="stop-color:#E5F2E2"/>
		<stop  offset="0.52" style="stop-color:#B3C9AE"/>
		<stop  offset="0.69" style="stop-color:#9FB39B"/>
		<stop  offset="0.8" style="stop-color:#96A992"/>
		<stop  offset="0.92" style="stop-color:#8E9F89"/>
		<stop  offset="1" style="stop-color:#A3B79E"/>
	</linearGradient>
	<path fill="url(#SVGID_39_)" d="M349,209.289l-10.867,2.91l20.574,76.793l11.645-0.016L349,209.289z"/>
	
		<linearGradient id="SVGID_40_" gradientUnits="userSpaceOnUse" x1="150.6152" y1="203.2861" x2="14.6152" y2="203.2861" gradientTransform="matrix(0.75 0 0 -0.75 243.8975 184.6084)">
		<stop  offset="0" style="stop-color:#7B9C75"/>
		<stop  offset="0.15" style="stop-color:#AFD6A7"/>
		<stop  offset="0.25" style="stop-color:#D5E8D1"/>
		<stop  offset="0.52" style="stop-color:#93B88B"/>
		<stop  offset="0.69" style="stop-color:#82A47B"/>
		<stop  offset="0.8" style="stop-color:#7A9B74"/>
		<stop  offset="0.92" style="stop-color:#73926D"/>
		<stop  offset="1" style="stop-color:#85A87E"/>
	</linearGradient>
	<path fill="url(#SVGID_40_)" d="M254.859,24.645h102v15h-102V24.645z"/>
	
		<linearGradient id="SVGID_41_" gradientUnits="userSpaceOnUse" x1="171.6108" y1="209.1162" x2="14.6108" y2="209.1162" gradientTransform="matrix(0.75 0 0 -0.75 236.2603 192.167)">
		<stop  offset="0" style="stop-color:#97AA93"/>
		<stop  offset="0.15" style="stop-color:#D0E8CB"/>
		<stop  offset="0.25" style="stop-color:#E5F2E2"/>
		<stop  offset="0.52" style="stop-color:#B3C9AE"/>
		<stop  offset="0.69" style="stop-color:#9FB39B"/>
		<stop  offset="0.8" style="stop-color:#96A992"/>
		<stop  offset="0.92" style="stop-color:#8E9F89"/>
		<stop  offset="1" style="stop-color:#A3B79E"/>
	</linearGradient>
	<path fill="url(#SVGID_41_)" d="M247.969,32.203h116.25c0,0,0.469,0.188,0.469,0.418l0.281,5.582c0,0-0.469,0.254-0.703,0.254
		l-116.297-0.254c-0.75,0-0.75,0.066-0.75-0.164v-5.086c0-0.75,0.191-0.75,0.422-0.75H247.969z"/>
	
		<linearGradient id="SVGID_42_" gradientUnits="userSpaceOnUse" x1="171.6108" y1="209.1152" x2="14.6108" y2="209.1152" gradientTransform="matrix(0.75 0 0 -0.75 236.2603 185.9121)">
		<stop  offset="0" style="stop-color:#97AA93"/>
		<stop  offset="0.15" style="stop-color:#D0E8CB"/>
		<stop  offset="0.25" style="stop-color:#E5F2E2"/>
		<stop  offset="0.52" style="stop-color:#B3C9AE"/>
		<stop  offset="0.69" style="stop-color:#9FB39B"/>
		<stop  offset="0.8" style="stop-color:#96A992"/>
		<stop  offset="0.92" style="stop-color:#8E9F89"/>
		<stop  offset="1" style="stop-color:#A3B79E"/>
	</linearGradient>
	<path fill="url(#SVGID_42_)" d="M247.969,25.949h116.25c0,0,0.469,0.184,0.469,0.414l0.281,5.586c0,0-0.469,0.254-0.703,0.254
		l-116.297-0.254c-0.75,0-0.75,0.066-0.75-0.164v-5.086c0-0.75,0.191-0.75,0.422-0.75H247.969z"/>
	
		<linearGradient id="SVGID_43_" gradientUnits="userSpaceOnUse" x1="150.6152" y1="211.2891" x2="14.6152" y2="211.289" gradientTransform="matrix(0.75 0 0 -0.75 243.8975 369.0596)">
		<stop  offset="0" style="stop-color:#7B9C75"/>
		<stop  offset="0.15" style="stop-color:#AFD6A7"/>
		<stop  offset="0.25" style="stop-color:#D5E8D1"/>
		<stop  offset="0.52" style="stop-color:#93B88B"/>
		<stop  offset="0.69" style="stop-color:#82A47B"/>
		<stop  offset="0.8" style="stop-color:#7A9B74"/>
		<stop  offset="0.92" style="stop-color:#73926D"/>
		<stop  offset="1" style="stop-color:#85A87E"/>
	</linearGradient>
	<path fill="url(#SVGID_43_)" d="M254.859,209.094h102v3h-102V209.094z"/>
	
		<radialGradient id="SVGID_44_" cx="25.7466" cy="202.248" r="15.7299" gradientTransform="matrix(0.75 0 0 -0.75 180.5474 210.7012)" gradientUnits="userSpaceOnUse">
		<stop  offset="0" style="stop-color:#89BA80"/>
		<stop  offset="0.54" style="stop-color:#86B67E"/>
		<stop  offset="0.74" style="stop-color:#B8D4B4"/>
		<stop  offset="0.91" style="stop-color:#86B67E"/>
		<stop  offset="1" style="stop-color:#86B67E"/>
	</radialGradient>
	<path fill="url(#SVGID_44_)" stroke="#86B67E" stroke-width="0.25" stroke-linejoin="bevel" stroke-miterlimit="10" d="
		M191.508,58.984c0-4.5,3.719-8.27,8.348-8.27c4.402,0.02,8.387,3.715,8.387,8.313c-0.234,4.457-3.754,8.289-8.387,8.289
		c-4.598-0.082-8.383-3.723-8.383-8.289L191.508,58.984z"/>
	<path fill="#3E3938" d="M193.5,58.707c0-3,2.832-6.016,6.363-6.016c3.387,0.016,6.391,2.832,6.391,6.336
		c-0.004,3.43-2.859,6.32-6.391,6.32c-3.363,0.109-6.391-2.84-6.391-6.32L193.5,58.707z"/>
	
		<radialGradient id="SVGID_45_" cx="25.7466" cy="202.2471" r="15.7306" gradientTransform="matrix(0.75 0 0 -0.75 180.5474 410.9814)" gradientUnits="userSpaceOnUse">
		<stop  offset="0" style="stop-color:#89BA80"/>
		<stop  offset="0.54" style="stop-color:#86B67E"/>
		<stop  offset="0.74" style="stop-color:#B8D4B4"/>
		<stop  offset="0.91" style="stop-color:#86B67E"/>
		<stop  offset="1" style="stop-color:#86B67E"/>
	</radialGradient>
	<path fill="url(#SVGID_45_)" stroke="#86B67E" stroke-width="0.25" stroke-linejoin="bevel" stroke-miterlimit="10" d="
		M191.508,259.266c0-4.5,3.719-8.27,8.348-8.27c4.402,0.02,8.387,3.715,8.387,8.313c-0.234,4.457-3.754,8.289-8.387,8.289
		c-4.598-0.082-8.383-3.723-8.383-8.289L191.508,259.266z"/>
	<path fill="#3E3938" d="M193.5,258.988c0-3,2.832-6.016,6.363-6.016c3.387,0.016,6.391,2.832,6.391,6.336
		c-0.004,3.43-2.859,6.32-6.391,6.32c-3.363,0.109-6.391-2.84-6.391-6.32L193.5,258.988z"/>
</g>
</svg>
