<?xml version="1.0" encoding="utf-8"?>
<!-- Generator: Adobe Illustrator 16.0.0, SVG Export Plug-In . SVG Version: 6.00 Build 0)  -->
<!DOCTYPE svg PUBLIC "-//W3C//DTD SVG 1.1//EN" "http://www.w3.org/Graphics/SVG/1.1/DTD/svg11.dtd">
<svg preserveAspectRatio="none" version="1.1" id="图层_1" xmlns="http://www.w3.org/2000/svg" xmlns:xlink="http://www.w3.org/1999/xlink" x="0px" y="0px"
	 width="340.524px" height="255.552px" viewBox="29.871 13.643 340.524 255.552"
	 enable-background="new 29.871 13.643 340.524 255.552" xml:space="preserve">
<g id="surface731">
	
		<linearGradient id="SVGID_1_" gradientUnits="userSpaceOnUse" x1="51.2964" y1="160.6104" x2="46.2915" y2="160.6104" gradientTransform="matrix(0.7386 0.1302 0.1302 -0.7386 98.0182 275.5776)">
		<stop  offset="0" style="stop-color:#434242"/>
		<stop  offset="0.15" style="stop-color:#989898"/>
		<stop  offset="0.25" style="stop-color:#A2A1A1"/>
		<stop  offset="0.52" style="stop-color:#4D4B4B"/>
		<stop  offset="0.69" style="stop-color:#434242"/>
		<stop  offset="0.8" style="stop-color:#3F3E3E"/>
		<stop  offset="0.92" style="stop-color:#3B3A3A"/>
	</linearGradient>
	<path fill="url(#SVGID_1_)" d="M167.063,83.949l3.695,0.652L142.887,242.66l-3.695-0.648L167.063,83.949z"/>
	
		<linearGradient id="SVGID_2_" gradientUnits="userSpaceOnUse" x1="-533.9834" y1="58.291" x2="-528.9805" y2="58.291" gradientTransform="matrix(-0.7386 0.1302 -0.1302 -0.7386 -139.8532 275.5776)">
		<stop  offset="0" style="stop-color:#434242"/>
		<stop  offset="0.15" style="stop-color:#989898"/>
		<stop  offset="0.25" style="stop-color:#A2A1A1"/>
		<stop  offset="0.52" style="stop-color:#4D4B4B"/>
		<stop  offset="0.69" style="stop-color:#434242"/>
		<stop  offset="0.8" style="stop-color:#3F3E3E"/>
		<stop  offset="0.92" style="stop-color:#3B3A3A"/>
	</linearGradient>
	<path fill="url(#SVGID_2_)" d="M233.023,83.949l-3.695,0.652l27.871,158.059l3.691-0.648L233.023,83.949z"/>
	
		<linearGradient id="SVGID_3_" gradientUnits="userSpaceOnUse" x1="37.6426" y1="132.7563" x2="31.6396" y2="132.7563" gradientTransform="matrix(0.7471 0.0654 0.0654 -0.7471 144.3329 261.0089)">
		<stop  offset="0" style="stop-color:#434242"/>
		<stop  offset="0.15" style="stop-color:#989898"/>
		<stop  offset="0.25" style="stop-color:#A2A1A1"/>
		<stop  offset="0.52" style="stop-color:#4D4B4B"/>
		<stop  offset="0.69" style="stop-color:#434242"/>
		<stop  offset="0.8" style="stop-color:#3F3E3E"/>
		<stop  offset="0.92" style="stop-color:#3B3A3A"/>
	</linearGradient>
	<path fill="url(#SVGID_3_)" d="M183.645,83.945l4.484,0.391l-13.992,159.891l-4.48-0.395L183.645,83.945z"/>
	
		<linearGradient id="SVGID_4_" gradientUnits="userSpaceOnUse" x1="22.6152" y1="89.7876" x2="14.6152" y2="89.7876" gradientTransform="matrix(0.75 0 0 -0.75 186.1123 243.9102)">
		<stop  offset="0" style="stop-color:#8B8C8C"/>
		<stop  offset="0.15" style="stop-color:#C9CACA"/>
		<stop  offset="0.25" style="stop-color:#CECECE"/>
		<stop  offset="0.52" style="stop-color:#9D9E9E"/>
		<stop  offset="0.69" style="stop-color:#8B8C8C"/>
		<stop  offset="0.8" style="stop-color:#838484"/>
		<stop  offset="0.92" style="stop-color:#7C7D7D"/>
	</linearGradient>
	<path fill="url(#SVGID_4_)" d="M197.074,83.945h6l-2.25,185.25L197.074,83.945z"/>
	
		<linearGradient id="SVGID_5_" gradientUnits="userSpaceOnUse" x1="1.3452" y1="547.5977" x2="-4.6577" y2="547.5977" gradientTransform="matrix(0.7471 -0.0654 0.0654 0.7471 186.9876 -244.9596)">
		<stop  offset="0" style="stop-color:#434242"/>
		<stop  offset="0.15" style="stop-color:#989898"/>
		<stop  offset="0.25" style="stop-color:#A2A1A1"/>
		<stop  offset="0.52" style="stop-color:#4D4B4B"/>
		<stop  offset="0.69" style="stop-color:#434242"/>
		<stop  offset="0.8" style="stop-color:#3F3E3E"/>
		<stop  offset="0.92" style="stop-color:#3B3A3A"/>
	</linearGradient>
	<path fill="url(#SVGID_5_)" d="M226.297,244.426l4.484-0.395L216.793,84.145l-4.484,0.391L226.297,244.426z"/>
	
		<linearGradient id="SVGID_6_" gradientUnits="userSpaceOnUse" x1="262.6992" y1="278.5195" x2="58.4639" y2="278.5195" gradientTransform="matrix(0.7244 0.1941 0.1941 -0.7244 -66.2286 210.4097)">
		<stop  offset="0" style="stop-color:#B9B9B9"/>
		<stop  offset="0.15" style="stop-color:#F2F2F2"/>
		<stop  offset="0.25" style="stop-color:#F3F3F3"/>
		<stop  offset="0.52" style="stop-color:#D0D0D0"/>
		<stop  offset="0.69" style="stop-color:#B9B9B9"/>
		<stop  offset="0.8" style="stop-color:#AFAFAF"/>
		<stop  offset="0.92" style="stop-color:#A5A5A5"/>
	</linearGradient>
	<path fill="url(#SVGID_6_)" d="M30.02,20.629c7.18-26.805,150.027,31.902,148.016,39.418
		c-2.172,7.426-154.543-15.063-147.957-39.645L30.02,20.629z"/>
	
		<linearGradient id="SVGID_7_" gradientUnits="userSpaceOnUse" x1="-306.4497" y1="126.0166" x2="-510.6841" y2="126.0166" gradientTransform="matrix(-0.7244 0.1941 -0.1941 -0.7244 24.5739 210.3872)">
		<stop  offset="0" style="stop-color:#B9B9B9"/>
		<stop  offset="0.15" style="stop-color:#F2F2F2"/>
		<stop  offset="0.25" style="stop-color:#F3F3F3"/>
		<stop  offset="0.52" style="stop-color:#D0D0D0"/>
		<stop  offset="0.69" style="stop-color:#B9B9B9"/>
		<stop  offset="0.8" style="stop-color:#AFAFAF"/>
		<stop  offset="0.92" style="stop-color:#A5A5A5"/>
	</linearGradient>
	<path fill="url(#SVGID_7_)" d="M370.246,20.605c-7.18-26.805-150.031,31.906-148.016,39.422
		c2.172,7.422,154.543-15.066,147.957-39.645L370.246,20.605z"/>
	
		<linearGradient id="SVGID_8_" gradientUnits="userSpaceOnUse" x1="124.8413" y1="179.2891" x2="14.6118" y2="179.289" gradientTransform="matrix(0.75 0 0 -0.75 147.9551 197.251)">
		<stop  offset="0" style="stop-color:#3D3B3B"/>
		<stop  offset="0.03" style="stop-color:#908F8F"/>
		<stop  offset="0.08" style="stop-color:#514F4F"/>
		<stop  offset="0.64" style="stop-color:#504E4E"/>
		<stop  offset="0.95" style="stop-color:#4E4C4C"/>
		<stop  offset="1" style="stop-color:#383636"/>
	</linearGradient>
	<path fill="url(#SVGID_8_)" d="M163.414,37.285h73.5c2.25,0,4.672,2.063,4.672,4.629l-0.172,41.121c0,3-1.969,4.898-4.555,4.898
		l-73.445,0.352c-2.25,0-4.5-2.43-4.5-5v-41.5c0-2.25,2.078-4.5,4.668-4.5H163.414z"/>
	
		<linearGradient id="SVGID_9_" gradientUnits="userSpaceOnUse" x1="53.4604" y1="193.9971" x2="14.6147" y2="193.9971" gradientTransform="matrix(0.75 0 0 -0.75 155.8433 205.9648)">
		<stop  offset="0" style="stop-color:#2E2A29"/>
		<stop  offset="0.15" style="stop-color:#8F8E8E"/>
		<stop  offset="0.25" style="stop-color:#9A9999"/>
		<stop  offset="0.52" style="stop-color:#353130"/>
		<stop  offset="0.69" style="stop-color:#2E2A29"/>
		<stop  offset="0.8" style="stop-color:#2B2726"/>
		<stop  offset="0.92" style="stop-color:#282424"/>
	</linearGradient>
	<path fill="url(#SVGID_9_)" d="M166.805,60.25c0-7.5,6.496-14.25,14.566-14.25c7.934,0,14.566,6.453,14.566,14.461
		c0.117,8.039-6.543,14.465-14.566,14.465c-7.816,0.324-14.566-6.5-14.566-14.465V60.25z"/>
	
		<linearGradient id="SVGID_10_" gradientUnits="userSpaceOnUse" x1="48.2432" y1="196.6162" x2="14.6099" y2="196.6162" gradientTransform="matrix(0.75 0 0 -0.75 157.8037 207.9219)">
		<stop  offset="0" style="stop-color:#C7C7C7"/>
		<stop  offset="0.15" style="stop-color:#FFFFFF"/>
		<stop  offset="0.25" style="stop-color:#FFFFFF"/>
		<stop  offset="0.52" style="stop-color:#DFDFDF"/>
		<stop  offset="0.69" style="stop-color:#C7C7C7"/>
		<stop  offset="0.8" style="stop-color:#BCBCBC"/>
		<stop  offset="0.92" style="stop-color:#B1B1B1"/>
	</linearGradient>
	<path fill="url(#SVGID_10_)" d="M168.762,60.707c0-7.5,5.625-12.75,12.609-12.75c6.891,0,12.605,5.578,12.605,12.504
		c0.285,6.996-5.664,12.504-12.605,12.504c-7.359-0.258-12.609-5.617-12.609-12.504V60.707z"/>
	<path fill="#717070" d="M173.258,60.664c0-4.5,3.621-8.25,8.113-8.25c4.637,0,8.109,3.59,8.109,8.047
		c0.277,4.703-3.645,8.047-8.109,8.047c-4.363-0.344-8.113-3.617-8.113-8.047V60.664z"/>
	
		<linearGradient id="SVGID_11_" gradientUnits="userSpaceOnUse" x1="53.4609" y1="193.9971" x2="14.6152" y2="193.9971" gradientTransform="matrix(0.75 0 0 -0.75 193.1597 205.9648)">
		<stop  offset="0" style="stop-color:#2E2A29"/>
		<stop  offset="0.15" style="stop-color:#8F8E8E"/>
		<stop  offset="0.25" style="stop-color:#9A9999"/>
		<stop  offset="0.52" style="stop-color:#353130"/>
		<stop  offset="0.69" style="stop-color:#2E2A29"/>
		<stop  offset="0.8" style="stop-color:#2B2726"/>
		<stop  offset="0.92" style="stop-color:#282424"/>
	</linearGradient>
	<path fill="url(#SVGID_11_)" d="M204.121,60.25c0-7.5,6.496-14.25,14.566-14.25c7.934,0,14.566,6.453,14.566,14.461
		c0.117,8.039-6.543,14.465-14.566,14.465c-7.816,0.324-14.566-6.5-14.566-14.465V60.25z"/>
	
		<linearGradient id="SVGID_12_" gradientUnits="userSpaceOnUse" x1="48.2437" y1="196.6162" x2="14.6157" y2="196.6162" gradientTransform="matrix(0.75 0 0 -0.75 195.1201 207.9219)">
		<stop  offset="0" style="stop-color:#C7C7C7"/>
		<stop  offset="0.15" style="stop-color:#FFFFFF"/>
		<stop  offset="0.25" style="stop-color:#FFFFFF"/>
		<stop  offset="0.52" style="stop-color:#DFDFDF"/>
		<stop  offset="0.69" style="stop-color:#C7C7C7"/>
		<stop  offset="0.8" style="stop-color:#BCBCBC"/>
		<stop  offset="0.92" style="stop-color:#B1B1B1"/>
	</linearGradient>
	<path fill="url(#SVGID_12_)" d="M206.082,60.707c0-7.5,5.621-12.75,12.605-12.75c6.895,0,12.605,5.578,12.605,12.504
		c0.289,6.996-5.664,12.504-12.605,12.504c-7.355-0.258-12.605-5.617-12.605-12.504V60.707z"/>
	<path fill="#717070" d="M210.574,60.664c0-4.5,3.621-8.25,8.113-8.25c4.637,0,8.113,3.59,8.113,8.047
		c0.273,4.703-3.645,8.047-8.113,8.047c-4.363-0.344-8.113-3.617-8.113-8.047V60.664z"/>
</g>
</svg>
